<?xml version="1.0" encoding="utf-8" standalone="no"?>
<!DOCTYPE svg PUBLIC "-//W3C//DTD SVG 1.1//EN"
  "http://www.w3.org/Graphics/SVG/1.1/DTD/svg11.dtd">
<svg xmlns:xlink="http://www.w3.org/1999/xlink" width="790.265625pt" height="581.830625pt" viewBox="0 0 790.265625 581.830625" xmlns="http://www.w3.org/2000/svg" version="1.1">
 <metadata>
  <rdf:RDF xmlns:dc="http://purl.org/dc/elements/1.1/" xmlns:cc="http://creativecommons.org/ns#" xmlns:rdf="http://www.w3.org/1999/02/22-rdf-syntax-ns#">
   <cc:Work>
    <dc:type rdf:resource="http://purl.org/dc/dcmitype/StillImage"/>
    <dc:date>2025-04-03T01:48:27.984093</dc:date>
    <dc:format>image/svg+xml</dc:format>
    <dc:creator>
     <cc:Agent>
      <dc:title>Matplotlib v3.8.2, https://matplotlib.org/</dc:title>
     </cc:Agent>
    </dc:creator>
   </cc:Work>
  </rdf:RDF>
 </metadata>
 <defs>
  <style type="text/css">*{stroke-linejoin: round; stroke-linecap: butt}</style>
 </defs>
 <g id="figure_1">
  <g id="patch_1">
   <path d="M 0 581.830625 
L 790.265625 581.830625 
L 790.265625 0 
L 0 0 
z
" style="fill: #ffffff"/>
  </g>
  <g id="axes_1">
   <g id="patch_2">
    <path d="M 84.665625 501.3525 
L 754.265625 501.3525 
L 754.265625 57.8325 
L 84.665625 57.8325 
z
" style="fill: #ffffff"/>
   </g>
   <g id="matplotlib.axis_1">
    <g id="xtick_1">
     <g id="line2d_1">
      <path d="M 114.744309 501.3525 
L 114.744309 57.8325 
" clip-path="url(#p70cd565bf9)" style="fill: none; stroke: #b0b0b0; stroke-opacity: 0.8; stroke-linecap: square"/>
     </g>
     <g id="line2d_2">
      <defs>
       <path id="m97bcd45d7d" d="M 0 0 
L 0 3.5 
" style="stroke: #000000; stroke-width: 0.8"/>
      </defs>
      <g>
       <use xlink:href="#m97bcd45d7d" x="114.744309" y="501.3525" style="stroke: #000000; stroke-width: 0.8"/>
      </g>
     </g>
     <g id="text_1">
      <!-- 0 -->
      <g transform="translate(109.514622 521.49625) scale(0.2 -0.2)">
       <defs>
        <path id="AptosDisplay-30" d="M 1672 -56 
Q 1291 -56 1028 105 
Q 766 266 605 552 
Q 444 838 372 1216 
Q 300 1594 300 2031 
Q 300 2475 372 2856 
Q 444 3238 605 3525 
Q 766 3813 1028 3973 
Q 1291 4134 1672 4134 
Q 2053 4134 2317 3975 
Q 2581 3816 2742 3527 
Q 2903 3238 2975 2858 
Q 3047 2478 3047 2038 
Q 3047 1597 2975 1217 
Q 2903 838 2742 552 
Q 2581 266 2318 105 
Q 2056 -56 1672 -56 
z
M 1672 409 
Q 1916 409 2073 550 
Q 2231 691 2322 925 
Q 2413 1159 2448 1448 
Q 2484 1738 2484 2038 
Q 2484 2338 2448 2628 
Q 2413 2919 2322 3153 
Q 2231 3388 2073 3527 
Q 1916 3666 1669 3666 
Q 1428 3666 1268 3527 
Q 1109 3388 1020 3153 
Q 931 2919 893 2628 
Q 856 2338 856 2038 
Q 856 1741 893 1450 
Q 931 1159 1020 925 
Q 1109 691 1268 550 
Q 1428 409 1672 409 
z
" transform="scale(0.015625)"/>
       </defs>
       <use xlink:href="#AptosDisplay-30"/>
      </g>
     </g>
    </g>
    <g id="xtick_2">
     <g id="line2d_3">
      <path d="M 197.540465 501.3525 
L 197.540465 57.8325 
" clip-path="url(#p70cd565bf9)" style="fill: none; stroke: #b0b0b0; stroke-opacity: 0.8; stroke-linecap: square"/>
     </g>
     <g id="line2d_4">
      <g>
       <use xlink:href="#m97bcd45d7d" x="197.540465" y="501.3525" style="stroke: #000000; stroke-width: 0.8"/>
      </g>
     </g>
     <g id="text_2">
      <!-- 25 -->
      <g transform="translate(187.08109 521.49625) scale(0.2 -0.2)">
       <defs>
        <path id="AptosDisplay-32" d="M 247 0 
L 247 413 
L 1725 1741 
Q 2100 2081 2269 2351 
Q 2438 2622 2438 2938 
Q 2438 3256 2263 3461 
Q 2088 3666 1691 3666 
Q 1247 3666 1055 3439 
Q 863 3213 863 2869 
L 341 2869 
Q 341 3250 491 3534 
Q 641 3819 941 3975 
Q 1241 4131 1691 4131 
Q 2103 4131 2390 3986 
Q 2678 3841 2828 3578 
Q 2978 3316 2978 2959 
Q 2978 2638 2853 2375 
Q 2728 2113 2517 1883 
Q 2306 1653 2044 1425 
L 959 463 
L 3097 463 
L 3097 0 
L 247 0 
z
" transform="scale(0.015625)"/>
        <path id="AptosDisplay-35" d="M 1669 -56 
Q 1278 -56 964 83 
Q 650 222 465 483 
Q 281 744 281 1113 
L 816 1113 
Q 816 778 1055 584 
Q 1294 391 1669 391 
Q 2069 391 2291 625 
Q 2513 859 2513 1319 
Q 2513 1772 2291 1989 
Q 2069 2206 1697 2206 
Q 1409 2206 1223 2123 
Q 1038 2041 916 1894 
L 444 1894 
L 622 4078 
L 2788 4078 
L 2788 3613 
L 1041 3613 
L 931 2322 
Q 1044 2453 1251 2550 
Q 1459 2647 1775 2647 
Q 2131 2647 2420 2506 
Q 2709 2366 2881 2072 
Q 3053 1778 3053 1319 
Q 3053 863 2875 558 
Q 2697 253 2384 98 
Q 2072 -56 1669 -56 
z
" transform="scale(0.015625)"/>
       </defs>
       <use xlink:href="#AptosDisplay-32"/>
       <use xlink:href="#AptosDisplay-35" x="52.294922"/>
      </g>
     </g>
    </g>
    <g id="xtick_3">
     <g id="line2d_5">
      <path d="M 280.336621 501.3525 
L 280.336621 57.8325 
" clip-path="url(#p70cd565bf9)" style="fill: none; stroke: #b0b0b0; stroke-opacity: 0.8; stroke-linecap: square"/>
     </g>
     <g id="line2d_6">
      <g>
       <use xlink:href="#m97bcd45d7d" x="280.336621" y="501.3525" style="stroke: #000000; stroke-width: 0.8"/>
      </g>
     </g>
     <g id="text_3">
      <!-- 50 -->
      <g transform="translate(269.877246 521.49625) scale(0.2 -0.2)">
       <use xlink:href="#AptosDisplay-35"/>
       <use xlink:href="#AptosDisplay-30" x="52.294922"/>
      </g>
     </g>
    </g>
    <g id="xtick_4">
     <g id="line2d_7">
      <path d="M 363.132777 501.3525 
L 363.132777 57.8325 
" clip-path="url(#p70cd565bf9)" style="fill: none; stroke: #b0b0b0; stroke-opacity: 0.8; stroke-linecap: square"/>
     </g>
     <g id="line2d_8">
      <g>
       <use xlink:href="#m97bcd45d7d" x="363.132777" y="501.3525" style="stroke: #000000; stroke-width: 0.8"/>
      </g>
     </g>
     <g id="text_4">
      <!-- 75 -->
      <g transform="translate(352.673402 521.49625) scale(0.2 -0.2)">
       <defs>
        <path id="AptosDisplay-37" d="M 766 0 
L 2609 3600 
L 194 3600 
L 194 4078 
L 3141 4078 
L 3141 3622 
L 1334 0 
L 766 0 
z
" transform="scale(0.015625)"/>
       </defs>
       <use xlink:href="#AptosDisplay-37"/>
       <use xlink:href="#AptosDisplay-35" x="52.294922"/>
      </g>
     </g>
    </g>
    <g id="xtick_5">
     <g id="line2d_9">
      <path d="M 445.928932 501.3525 
L 445.928932 57.8325 
" clip-path="url(#p70cd565bf9)" style="fill: none; stroke: #b0b0b0; stroke-opacity: 0.8; stroke-linecap: square"/>
     </g>
     <g id="line2d_10">
      <g>
       <use xlink:href="#m97bcd45d7d" x="445.928932" y="501.3525" style="stroke: #000000; stroke-width: 0.8"/>
      </g>
     </g>
     <g id="text_5">
      <!-- 100 -->
      <g transform="translate(430.23987 521.49625) scale(0.2 -0.2)">
       <defs>
        <path id="AptosDisplay-31" d="M 1659 0 
L 1659 3425 
Q 1575 3309 1420 3201 
Q 1266 3094 1052 3009 
Q 838 2925 578 2888 
L 578 3381 
Q 834 3425 1057 3540 
Q 1281 3656 1453 3806 
Q 1625 3956 1719 4094 
L 2206 4094 
L 2206 0 
L 1659 0 
z
" transform="scale(0.015625)"/>
       </defs>
       <use xlink:href="#AptosDisplay-31"/>
       <use xlink:href="#AptosDisplay-30" x="52.294922"/>
       <use xlink:href="#AptosDisplay-30" x="104.589844"/>
      </g>
     </g>
    </g>
    <g id="xtick_6">
     <g id="line2d_11">
      <path d="M 528.725088 501.3525 
L 528.725088 57.8325 
" clip-path="url(#p70cd565bf9)" style="fill: none; stroke: #b0b0b0; stroke-opacity: 0.8; stroke-linecap: square"/>
     </g>
     <g id="line2d_12">
      <g>
       <use xlink:href="#m97bcd45d7d" x="528.725088" y="501.3525" style="stroke: #000000; stroke-width: 0.8"/>
      </g>
     </g>
     <g id="text_6">
      <!-- 125 -->
      <g transform="translate(513.036026 521.49625) scale(0.2 -0.2)">
       <use xlink:href="#AptosDisplay-31"/>
       <use xlink:href="#AptosDisplay-32" x="52.294922"/>
       <use xlink:href="#AptosDisplay-35" x="104.589844"/>
      </g>
     </g>
    </g>
    <g id="xtick_7">
     <g id="line2d_13">
      <path d="M 611.521244 501.3525 
L 611.521244 57.8325 
" clip-path="url(#p70cd565bf9)" style="fill: none; stroke: #b0b0b0; stroke-opacity: 0.8; stroke-linecap: square"/>
     </g>
     <g id="line2d_14">
      <g>
       <use xlink:href="#m97bcd45d7d" x="611.521244" y="501.3525" style="stroke: #000000; stroke-width: 0.8"/>
      </g>
     </g>
     <g id="text_7">
      <!-- 150 -->
      <g transform="translate(595.832181 521.49625) scale(0.2 -0.2)">
       <use xlink:href="#AptosDisplay-31"/>
       <use xlink:href="#AptosDisplay-35" x="52.294922"/>
       <use xlink:href="#AptosDisplay-30" x="104.589844"/>
      </g>
     </g>
    </g>
    <g id="xtick_8">
     <g id="line2d_15">
      <path d="M 694.3174 501.3525 
L 694.3174 57.8325 
" clip-path="url(#p70cd565bf9)" style="fill: none; stroke: #b0b0b0; stroke-opacity: 0.8; stroke-linecap: square"/>
     </g>
     <g id="line2d_16">
      <g>
       <use xlink:href="#m97bcd45d7d" x="694.3174" y="501.3525" style="stroke: #000000; stroke-width: 0.8"/>
      </g>
     </g>
     <g id="text_8">
      <!-- 175 -->
      <g transform="translate(678.628337 521.49625) scale(0.2 -0.2)">
       <use xlink:href="#AptosDisplay-31"/>
       <use xlink:href="#AptosDisplay-37" x="52.294922"/>
       <use xlink:href="#AptosDisplay-35" x="104.589844"/>
      </g>
     </g>
    </g>
    <g id="xtick_9">
     <g id="line2d_17">
      <path d="M 98.185078 501.3525 
L 98.185078 57.8325 
" clip-path="url(#p70cd565bf9)" style="fill: none; stroke-dasharray: 1.85,0.8; stroke-dashoffset: 0; stroke: #b0b0b0; stroke-opacity: 0.8; stroke-width: 0.5"/>
     </g>
     <g id="line2d_18">
      <defs>
       <path id="m7a11345e32" d="M 0 0 
L 0 2 
" style="stroke: #000000; stroke-width: 0.6"/>
      </defs>
      <g>
       <use xlink:href="#m7a11345e32" x="98.185078" y="501.3525" style="stroke: #000000; stroke-width: 0.6"/>
      </g>
     </g>
    </g>
    <g id="xtick_10">
     <g id="line2d_19">
      <path d="M 131.30354 501.3525 
L 131.30354 57.8325 
" clip-path="url(#p70cd565bf9)" style="fill: none; stroke-dasharray: 1.85,0.8; stroke-dashoffset: 0; stroke: #b0b0b0; stroke-opacity: 0.8; stroke-width: 0.5"/>
     </g>
     <g id="line2d_20">
      <g>
       <use xlink:href="#m7a11345e32" x="131.30354" y="501.3525" style="stroke: #000000; stroke-width: 0.6"/>
      </g>
     </g>
    </g>
    <g id="xtick_11">
     <g id="line2d_21">
      <path d="M 147.862772 501.3525 
L 147.862772 57.8325 
" clip-path="url(#p70cd565bf9)" style="fill: none; stroke-dasharray: 1.85,0.8; stroke-dashoffset: 0; stroke: #b0b0b0; stroke-opacity: 0.8; stroke-width: 0.5"/>
     </g>
     <g id="line2d_22">
      <g>
       <use xlink:href="#m7a11345e32" x="147.862772" y="501.3525" style="stroke: #000000; stroke-width: 0.6"/>
      </g>
     </g>
    </g>
    <g id="xtick_12">
     <g id="line2d_23">
      <path d="M 164.422003 501.3525 
L 164.422003 57.8325 
" clip-path="url(#p70cd565bf9)" style="fill: none; stroke-dasharray: 1.85,0.8; stroke-dashoffset: 0; stroke: #b0b0b0; stroke-opacity: 0.8; stroke-width: 0.5"/>
     </g>
     <g id="line2d_24">
      <g>
       <use xlink:href="#m7a11345e32" x="164.422003" y="501.3525" style="stroke: #000000; stroke-width: 0.6"/>
      </g>
     </g>
    </g>
    <g id="xtick_13">
     <g id="line2d_25">
      <path d="M 180.981234 501.3525 
L 180.981234 57.8325 
" clip-path="url(#p70cd565bf9)" style="fill: none; stroke-dasharray: 1.85,0.8; stroke-dashoffset: 0; stroke: #b0b0b0; stroke-opacity: 0.8; stroke-width: 0.5"/>
     </g>
     <g id="line2d_26">
      <g>
       <use xlink:href="#m7a11345e32" x="180.981234" y="501.3525" style="stroke: #000000; stroke-width: 0.6"/>
      </g>
     </g>
    </g>
    <g id="xtick_14">
     <g id="line2d_27">
      <path d="M 214.099696 501.3525 
L 214.099696 57.8325 
" clip-path="url(#p70cd565bf9)" style="fill: none; stroke-dasharray: 1.85,0.8; stroke-dashoffset: 0; stroke: #b0b0b0; stroke-opacity: 0.8; stroke-width: 0.5"/>
     </g>
     <g id="line2d_28">
      <g>
       <use xlink:href="#m7a11345e32" x="214.099696" y="501.3525" style="stroke: #000000; stroke-width: 0.6"/>
      </g>
     </g>
    </g>
    <g id="xtick_15">
     <g id="line2d_29">
      <path d="M 230.658927 501.3525 
L 230.658927 57.8325 
" clip-path="url(#p70cd565bf9)" style="fill: none; stroke-dasharray: 1.85,0.8; stroke-dashoffset: 0; stroke: #b0b0b0; stroke-opacity: 0.8; stroke-width: 0.5"/>
     </g>
     <g id="line2d_30">
      <g>
       <use xlink:href="#m7a11345e32" x="230.658927" y="501.3525" style="stroke: #000000; stroke-width: 0.6"/>
      </g>
     </g>
    </g>
    <g id="xtick_16">
     <g id="line2d_31">
      <path d="M 247.218158 501.3525 
L 247.218158 57.8325 
" clip-path="url(#p70cd565bf9)" style="fill: none; stroke-dasharray: 1.85,0.8; stroke-dashoffset: 0; stroke: #b0b0b0; stroke-opacity: 0.8; stroke-width: 0.5"/>
     </g>
     <g id="line2d_32">
      <g>
       <use xlink:href="#m7a11345e32" x="247.218158" y="501.3525" style="stroke: #000000; stroke-width: 0.6"/>
      </g>
     </g>
    </g>
    <g id="xtick_17">
     <g id="line2d_33">
      <path d="M 263.77739 501.3525 
L 263.77739 57.8325 
" clip-path="url(#p70cd565bf9)" style="fill: none; stroke-dasharray: 1.85,0.8; stroke-dashoffset: 0; stroke: #b0b0b0; stroke-opacity: 0.8; stroke-width: 0.5"/>
     </g>
     <g id="line2d_34">
      <g>
       <use xlink:href="#m7a11345e32" x="263.77739" y="501.3525" style="stroke: #000000; stroke-width: 0.6"/>
      </g>
     </g>
    </g>
    <g id="xtick_18">
     <g id="line2d_35">
      <path d="M 296.895852 501.3525 
L 296.895852 57.8325 
" clip-path="url(#p70cd565bf9)" style="fill: none; stroke-dasharray: 1.85,0.8; stroke-dashoffset: 0; stroke: #b0b0b0; stroke-opacity: 0.8; stroke-width: 0.5"/>
     </g>
     <g id="line2d_36">
      <g>
       <use xlink:href="#m7a11345e32" x="296.895852" y="501.3525" style="stroke: #000000; stroke-width: 0.6"/>
      </g>
     </g>
    </g>
    <g id="xtick_19">
     <g id="line2d_37">
      <path d="M 313.455083 501.3525 
L 313.455083 57.8325 
" clip-path="url(#p70cd565bf9)" style="fill: none; stroke-dasharray: 1.85,0.8; stroke-dashoffset: 0; stroke: #b0b0b0; stroke-opacity: 0.8; stroke-width: 0.5"/>
     </g>
     <g id="line2d_38">
      <g>
       <use xlink:href="#m7a11345e32" x="313.455083" y="501.3525" style="stroke: #000000; stroke-width: 0.6"/>
      </g>
     </g>
    </g>
    <g id="xtick_20">
     <g id="line2d_39">
      <path d="M 330.014314 501.3525 
L 330.014314 57.8325 
" clip-path="url(#p70cd565bf9)" style="fill: none; stroke-dasharray: 1.85,0.8; stroke-dashoffset: 0; stroke: #b0b0b0; stroke-opacity: 0.8; stroke-width: 0.5"/>
     </g>
     <g id="line2d_40">
      <g>
       <use xlink:href="#m7a11345e32" x="330.014314" y="501.3525" style="stroke: #000000; stroke-width: 0.6"/>
      </g>
     </g>
    </g>
    <g id="xtick_21">
     <g id="line2d_41">
      <path d="M 346.573545 501.3525 
L 346.573545 57.8325 
" clip-path="url(#p70cd565bf9)" style="fill: none; stroke-dasharray: 1.85,0.8; stroke-dashoffset: 0; stroke: #b0b0b0; stroke-opacity: 0.8; stroke-width: 0.5"/>
     </g>
     <g id="line2d_42">
      <g>
       <use xlink:href="#m7a11345e32" x="346.573545" y="501.3525" style="stroke: #000000; stroke-width: 0.6"/>
      </g>
     </g>
    </g>
    <g id="xtick_22">
     <g id="line2d_43">
      <path d="M 379.692008 501.3525 
L 379.692008 57.8325 
" clip-path="url(#p70cd565bf9)" style="fill: none; stroke-dasharray: 1.85,0.8; stroke-dashoffset: 0; stroke: #b0b0b0; stroke-opacity: 0.8; stroke-width: 0.5"/>
     </g>
     <g id="line2d_44">
      <g>
       <use xlink:href="#m7a11345e32" x="379.692008" y="501.3525" style="stroke: #000000; stroke-width: 0.6"/>
      </g>
     </g>
    </g>
    <g id="xtick_23">
     <g id="line2d_45">
      <path d="M 396.251239 501.3525 
L 396.251239 57.8325 
" clip-path="url(#p70cd565bf9)" style="fill: none; stroke-dasharray: 1.85,0.8; stroke-dashoffset: 0; stroke: #b0b0b0; stroke-opacity: 0.8; stroke-width: 0.5"/>
     </g>
     <g id="line2d_46">
      <g>
       <use xlink:href="#m7a11345e32" x="396.251239" y="501.3525" style="stroke: #000000; stroke-width: 0.6"/>
      </g>
     </g>
    </g>
    <g id="xtick_24">
     <g id="line2d_47">
      <path d="M 412.81047 501.3525 
L 412.81047 57.8325 
" clip-path="url(#p70cd565bf9)" style="fill: none; stroke-dasharray: 1.85,0.8; stroke-dashoffset: 0; stroke: #b0b0b0; stroke-opacity: 0.8; stroke-width: 0.5"/>
     </g>
     <g id="line2d_48">
      <g>
       <use xlink:href="#m7a11345e32" x="412.81047" y="501.3525" style="stroke: #000000; stroke-width: 0.6"/>
      </g>
     </g>
    </g>
    <g id="xtick_25">
     <g id="line2d_49">
      <path d="M 429.369701 501.3525 
L 429.369701 57.8325 
" clip-path="url(#p70cd565bf9)" style="fill: none; stroke-dasharray: 1.85,0.8; stroke-dashoffset: 0; stroke: #b0b0b0; stroke-opacity: 0.8; stroke-width: 0.5"/>
     </g>
     <g id="line2d_50">
      <g>
       <use xlink:href="#m7a11345e32" x="429.369701" y="501.3525" style="stroke: #000000; stroke-width: 0.6"/>
      </g>
     </g>
    </g>
    <g id="xtick_26">
     <g id="line2d_51">
      <path d="M 462.488163 501.3525 
L 462.488163 57.8325 
" clip-path="url(#p70cd565bf9)" style="fill: none; stroke-dasharray: 1.85,0.8; stroke-dashoffset: 0; stroke: #b0b0b0; stroke-opacity: 0.8; stroke-width: 0.5"/>
     </g>
     <g id="line2d_52">
      <g>
       <use xlink:href="#m7a11345e32" x="462.488163" y="501.3525" style="stroke: #000000; stroke-width: 0.6"/>
      </g>
     </g>
    </g>
    <g id="xtick_27">
     <g id="line2d_53">
      <path d="M 479.047395 501.3525 
L 479.047395 57.8325 
" clip-path="url(#p70cd565bf9)" style="fill: none; stroke-dasharray: 1.85,0.8; stroke-dashoffset: 0; stroke: #b0b0b0; stroke-opacity: 0.8; stroke-width: 0.5"/>
     </g>
     <g id="line2d_54">
      <g>
       <use xlink:href="#m7a11345e32" x="479.047395" y="501.3525" style="stroke: #000000; stroke-width: 0.6"/>
      </g>
     </g>
    </g>
    <g id="xtick_28">
     <g id="line2d_55">
      <path d="M 495.606626 501.3525 
L 495.606626 57.8325 
" clip-path="url(#p70cd565bf9)" style="fill: none; stroke-dasharray: 1.85,0.8; stroke-dashoffset: 0; stroke: #b0b0b0; stroke-opacity: 0.8; stroke-width: 0.5"/>
     </g>
     <g id="line2d_56">
      <g>
       <use xlink:href="#m7a11345e32" x="495.606626" y="501.3525" style="stroke: #000000; stroke-width: 0.6"/>
      </g>
     </g>
    </g>
    <g id="xtick_29">
     <g id="line2d_57">
      <path d="M 512.165857 501.3525 
L 512.165857 57.8325 
" clip-path="url(#p70cd565bf9)" style="fill: none; stroke-dasharray: 1.85,0.8; stroke-dashoffset: 0; stroke: #b0b0b0; stroke-opacity: 0.8; stroke-width: 0.5"/>
     </g>
     <g id="line2d_58">
      <g>
       <use xlink:href="#m7a11345e32" x="512.165857" y="501.3525" style="stroke: #000000; stroke-width: 0.6"/>
      </g>
     </g>
    </g>
    <g id="xtick_30">
     <g id="line2d_59">
      <path d="M 545.284319 501.3525 
L 545.284319 57.8325 
" clip-path="url(#p70cd565bf9)" style="fill: none; stroke-dasharray: 1.85,0.8; stroke-dashoffset: 0; stroke: #b0b0b0; stroke-opacity: 0.8; stroke-width: 0.5"/>
     </g>
     <g id="line2d_60">
      <g>
       <use xlink:href="#m7a11345e32" x="545.284319" y="501.3525" style="stroke: #000000; stroke-width: 0.6"/>
      </g>
     </g>
    </g>
    <g id="xtick_31">
     <g id="line2d_61">
      <path d="M 561.84355 501.3525 
L 561.84355 57.8325 
" clip-path="url(#p70cd565bf9)" style="fill: none; stroke-dasharray: 1.85,0.8; stroke-dashoffset: 0; stroke: #b0b0b0; stroke-opacity: 0.8; stroke-width: 0.5"/>
     </g>
     <g id="line2d_62">
      <g>
       <use xlink:href="#m7a11345e32" x="561.84355" y="501.3525" style="stroke: #000000; stroke-width: 0.6"/>
      </g>
     </g>
    </g>
    <g id="xtick_32">
     <g id="line2d_63">
      <path d="M 578.402782 501.3525 
L 578.402782 57.8325 
" clip-path="url(#p70cd565bf9)" style="fill: none; stroke-dasharray: 1.85,0.8; stroke-dashoffset: 0; stroke: #b0b0b0; stroke-opacity: 0.8; stroke-width: 0.5"/>
     </g>
     <g id="line2d_64">
      <g>
       <use xlink:href="#m7a11345e32" x="578.402782" y="501.3525" style="stroke: #000000; stroke-width: 0.6"/>
      </g>
     </g>
    </g>
    <g id="xtick_33">
     <g id="line2d_65">
      <path d="M 594.962013 501.3525 
L 594.962013 57.8325 
" clip-path="url(#p70cd565bf9)" style="fill: none; stroke-dasharray: 1.85,0.8; stroke-dashoffset: 0; stroke: #b0b0b0; stroke-opacity: 0.8; stroke-width: 0.5"/>
     </g>
     <g id="line2d_66">
      <g>
       <use xlink:href="#m7a11345e32" x="594.962013" y="501.3525" style="stroke: #000000; stroke-width: 0.6"/>
      </g>
     </g>
    </g>
    <g id="xtick_34">
     <g id="line2d_67">
      <path d="M 628.080475 501.3525 
L 628.080475 57.8325 
" clip-path="url(#p70cd565bf9)" style="fill: none; stroke-dasharray: 1.85,0.8; stroke-dashoffset: 0; stroke: #b0b0b0; stroke-opacity: 0.8; stroke-width: 0.5"/>
     </g>
     <g id="line2d_68">
      <g>
       <use xlink:href="#m7a11345e32" x="628.080475" y="501.3525" style="stroke: #000000; stroke-width: 0.6"/>
      </g>
     </g>
    </g>
    <g id="xtick_35">
     <g id="line2d_69">
      <path d="M 644.639706 501.3525 
L 644.639706 57.8325 
" clip-path="url(#p70cd565bf9)" style="fill: none; stroke-dasharray: 1.85,0.8; stroke-dashoffset: 0; stroke: #b0b0b0; stroke-opacity: 0.8; stroke-width: 0.5"/>
     </g>
     <g id="line2d_70">
      <g>
       <use xlink:href="#m7a11345e32" x="644.639706" y="501.3525" style="stroke: #000000; stroke-width: 0.6"/>
      </g>
     </g>
    </g>
    <g id="xtick_36">
     <g id="line2d_71">
      <path d="M 661.198937 501.3525 
L 661.198937 57.8325 
" clip-path="url(#p70cd565bf9)" style="fill: none; stroke-dasharray: 1.85,0.8; stroke-dashoffset: 0; stroke: #b0b0b0; stroke-opacity: 0.8; stroke-width: 0.5"/>
     </g>
     <g id="line2d_72">
      <g>
       <use xlink:href="#m7a11345e32" x="661.198937" y="501.3525" style="stroke: #000000; stroke-width: 0.6"/>
      </g>
     </g>
    </g>
    <g id="xtick_37">
     <g id="line2d_73">
      <path d="M 677.758168 501.3525 
L 677.758168 57.8325 
" clip-path="url(#p70cd565bf9)" style="fill: none; stroke-dasharray: 1.85,0.8; stroke-dashoffset: 0; stroke: #b0b0b0; stroke-opacity: 0.8; stroke-width: 0.5"/>
     </g>
     <g id="line2d_74">
      <g>
       <use xlink:href="#m7a11345e32" x="677.758168" y="501.3525" style="stroke: #000000; stroke-width: 0.6"/>
      </g>
     </g>
    </g>
    <g id="xtick_38">
     <g id="line2d_75">
      <path d="M 710.876631 501.3525 
L 710.876631 57.8325 
" clip-path="url(#p70cd565bf9)" style="fill: none; stroke-dasharray: 1.85,0.8; stroke-dashoffset: 0; stroke: #b0b0b0; stroke-opacity: 0.8; stroke-width: 0.5"/>
     </g>
     <g id="line2d_76">
      <g>
       <use xlink:href="#m7a11345e32" x="710.876631" y="501.3525" style="stroke: #000000; stroke-width: 0.6"/>
      </g>
     </g>
    </g>
    <g id="xtick_39">
     <g id="line2d_77">
      <path d="M 727.435862 501.3525 
L 727.435862 57.8325 
" clip-path="url(#p70cd565bf9)" style="fill: none; stroke-dasharray: 1.85,0.8; stroke-dashoffset: 0; stroke: #b0b0b0; stroke-opacity: 0.8; stroke-width: 0.5"/>
     </g>
     <g id="line2d_78">
      <g>
       <use xlink:href="#m7a11345e32" x="727.435862" y="501.3525" style="stroke: #000000; stroke-width: 0.6"/>
      </g>
     </g>
    </g>
    <g id="xtick_40">
     <g id="line2d_79">
      <path d="M 743.995093 501.3525 
L 743.995093 57.8325 
" clip-path="url(#p70cd565bf9)" style="fill: none; stroke-dasharray: 1.85,0.8; stroke-dashoffset: 0; stroke: #b0b0b0; stroke-opacity: 0.8; stroke-width: 0.5"/>
     </g>
     <g id="line2d_80">
      <g>
       <use xlink:href="#m7a11345e32" x="743.995093" y="501.3525" style="stroke: #000000; stroke-width: 0.6"/>
      </g>
     </g>
    </g>
    <g id="text_9">
     <!-- Time (S) -->
     <g transform="translate(386.375 542.305625) scale(0.2 -0.2)">
      <defs>
       <path id="AptosDisplay-54" d="M 1244 0 
L 1244 3734 
L 50 3734 
L 50 4206 
L 2997 4206 
L 2997 3734 
L 1806 3734 
L 1806 0 
L 1244 0 
z
" transform="scale(0.015625)"/>
       <path id="AptosDisplay-69" d="M 413 0 
L 413 3044 
L 934 3044 
L 934 0 
L 413 0 
z
M 675 3616 
Q 525 3616 437 3702 
Q 350 3788 350 3919 
Q 350 4050 437 4136 
Q 525 4222 675 4222 
Q 822 4222 912 4136 
Q 1003 4050 1003 3919 
Q 1003 3788 912 3702 
Q 822 3616 675 3616 
z
" transform="scale(0.015625)"/>
       <path id="AptosDisplay-6d" d="M 413 0 
L 413 3044 
L 919 3044 
L 931 2575 
Q 1063 2756 1303 2914 
Q 1544 3072 1903 3072 
Q 2403 3072 2618 2778 
Q 2834 2484 2834 1963 
L 2834 0 
L 2316 0 
L 2316 1891 
Q 2316 2106 2275 2275 
Q 2234 2444 2120 2539 
Q 2006 2634 1788 2634 
Q 1488 2634 1277 2482 
Q 1066 2331 934 2156 
L 934 0 
L 413 0 
z
M 4206 0 
L 4206 1891 
Q 4206 2106 4164 2275 
Q 4122 2444 4009 2539 
Q 3897 2634 3681 2634 
Q 3381 2634 3165 2484 
Q 2950 2334 2822 2159 
L 2744 2544 
Q 2916 2741 3175 2906 
Q 3434 3072 3800 3072 
Q 4291 3072 4509 2778 
Q 4728 2484 4728 1963 
L 4728 0 
L 4206 0 
z
" transform="scale(0.015625)"/>
       <path id="AptosDisplay-65" d="M 1663 -56 
Q 1188 -56 878 151 
Q 569 359 417 717 
Q 266 1075 266 1522 
Q 266 1988 412 2342 
Q 559 2697 857 2897 
Q 1156 3097 1606 3097 
Q 2209 3097 2550 2722 
Q 2891 2347 2891 1644 
Q 2891 1597 2889 1533 
Q 2888 1469 2881 1441 
L 791 1441 
Q 794 1144 881 895 
Q 969 647 1161 497 
Q 1353 347 1663 347 
Q 1997 347 2183 511 
Q 2369 675 2378 984 
L 2894 984 
Q 2884 663 2732 430 
Q 2581 197 2309 70 
Q 2038 -56 1663 -56 
z
M 794 1822 
L 2375 1822 
Q 2366 2247 2166 2472 
Q 1966 2697 1606 2697 
Q 1241 2697 1036 2473 
Q 831 2250 794 1822 
z
" transform="scale(0.015625)"/>
       <path id="AptosDisplay-20" transform="scale(0.015625)"/>
       <path id="AptosDisplay-28" d="M 1219 -1116 
Q 969 -678 787 -267 
Q 606 144 511 581 
Q 416 1019 416 1528 
Q 416 2028 509 2486 
Q 603 2944 783 3378 
Q 963 3813 1219 4231 
L 1647 4231 
Q 1278 3600 1101 2886 
Q 925 2172 925 1428 
Q 925 766 1125 103 
Q 1325 -559 1647 -1116 
L 1219 -1116 
z
" transform="scale(0.015625)"/>
       <path id="AptosDisplay-53" d="M 1778 -56 
Q 1328 -56 962 81 
Q 597 219 384 512 
Q 172 806 172 1275 
L 734 1275 
Q 738 941 883 750 
Q 1028 559 1267 481 
Q 1506 403 1794 403 
Q 2063 403 2283 483 
Q 2503 563 2634 723 
Q 2766 884 2766 1134 
Q 2766 1356 2662 1497 
Q 2559 1638 2321 1742 
Q 2084 1847 1678 1950 
Q 1203 2075 897 2223 
Q 591 2372 442 2594 
Q 294 2816 294 3156 
Q 294 3516 462 3761 
Q 631 4006 945 4134 
Q 1259 4263 1697 4263 
Q 2103 4263 2440 4131 
Q 2778 4000 2979 3737 
Q 3181 3475 3181 3084 
L 2616 3084 
Q 2622 3441 2356 3623 
Q 2091 3806 1700 3806 
Q 1300 3806 1073 3645 
Q 847 3484 847 3175 
Q 847 2991 944 2867 
Q 1041 2744 1280 2644 
Q 1519 2544 1941 2434 
Q 2428 2303 2731 2153 
Q 3034 2003 3178 1768 
Q 3322 1534 3322 1153 
Q 3322 747 3117 480 
Q 2913 213 2564 78 
Q 2216 -56 1778 -56 
z
" transform="scale(0.015625)"/>
       <path id="AptosDisplay-29" d="M 234 -1116 
Q 609 -481 786 233 
Q 963 947 963 1694 
Q 963 2356 759 3015 
Q 556 3675 234 4231 
L 663 4231 
Q 919 3800 1098 3389 
Q 1278 2978 1373 2540 
Q 1469 2103 1469 1594 
Q 1469 1094 1375 634 
Q 1281 175 1100 -259 
Q 919 -694 663 -1116 
L 234 -1116 
z
" transform="scale(0.015625)"/>
      </defs>
      <use xlink:href="#AptosDisplay-54"/>
      <use xlink:href="#AptosDisplay-69" x="47.705078"/>
      <use xlink:href="#AptosDisplay-6d" x="68.75"/>
      <use xlink:href="#AptosDisplay-65" x="148.730469"/>
      <use xlink:href="#AptosDisplay-20" x="198.144531"/>
      <use xlink:href="#AptosDisplay-28" x="217.431641"/>
      <use xlink:href="#AptosDisplay-53" x="246.875"/>
      <use xlink:href="#AptosDisplay-29" x="301.464844"/>
     </g>
    </g>
   </g>
   <g id="matplotlib.axis_2">
    <g id="ytick_1">
     <g id="line2d_81">
      <path d="M 84.665625 444.188713 
L 754.265625 444.188713 
" clip-path="url(#p70cd565bf9)" style="fill: none; stroke: #b0b0b0; stroke-opacity: 0.8; stroke-linecap: square"/>
     </g>
     <g id="line2d_82">
      <defs>
       <path id="med31dc7620" d="M 0 0 
L -3.5 0 
" style="stroke: #000000; stroke-width: 0.8"/>
      </defs>
      <g>
       <use xlink:href="#med31dc7620" x="84.665625" y="444.188713" style="stroke: #000000; stroke-width: 0.8"/>
      </g>
     </g>
     <g id="text_10">
      <!-- 5 -->
      <g transform="translate(67.20625 450.760588) scale(0.2 -0.2)">
       <use xlink:href="#AptosDisplay-35"/>
      </g>
     </g>
    </g>
    <g id="ytick_2">
     <g id="line2d_83">
      <path d="M 84.665625 385.121339 
L 754.265625 385.121339 
" clip-path="url(#p70cd565bf9)" style="fill: none; stroke: #b0b0b0; stroke-opacity: 0.8; stroke-linecap: square"/>
     </g>
     <g id="line2d_84">
      <g>
       <use xlink:href="#med31dc7620" x="84.665625" y="385.121339" style="stroke: #000000; stroke-width: 0.8"/>
      </g>
     </g>
     <g id="text_11">
      <!-- 10 -->
      <g transform="translate(56.746875 391.693214) scale(0.2 -0.2)">
       <use xlink:href="#AptosDisplay-31"/>
       <use xlink:href="#AptosDisplay-30" x="52.294922"/>
      </g>
     </g>
    </g>
    <g id="ytick_3">
     <g id="line2d_85">
      <path d="M 84.665625 326.053965 
L 754.265625 326.053965 
" clip-path="url(#p70cd565bf9)" style="fill: none; stroke: #b0b0b0; stroke-opacity: 0.8; stroke-linecap: square"/>
     </g>
     <g id="line2d_86">
      <g>
       <use xlink:href="#med31dc7620" x="84.665625" y="326.053965" style="stroke: #000000; stroke-width: 0.8"/>
      </g>
     </g>
     <g id="text_12">
      <!-- 15 -->
      <g transform="translate(56.746875 332.62584) scale(0.2 -0.2)">
       <use xlink:href="#AptosDisplay-31"/>
       <use xlink:href="#AptosDisplay-35" x="52.294922"/>
      </g>
     </g>
    </g>
    <g id="ytick_4">
     <g id="line2d_87">
      <path d="M 84.665625 266.986591 
L 754.265625 266.986591 
" clip-path="url(#p70cd565bf9)" style="fill: none; stroke: #b0b0b0; stroke-opacity: 0.8; stroke-linecap: square"/>
     </g>
     <g id="line2d_88">
      <g>
       <use xlink:href="#med31dc7620" x="84.665625" y="266.986591" style="stroke: #000000; stroke-width: 0.8"/>
      </g>
     </g>
     <g id="text_13">
      <!-- 20 -->
      <g transform="translate(56.746875 273.558466) scale(0.2 -0.2)">
       <use xlink:href="#AptosDisplay-32"/>
       <use xlink:href="#AptosDisplay-30" x="52.294922"/>
      </g>
     </g>
    </g>
    <g id="ytick_5">
     <g id="line2d_89">
      <path d="M 84.665625 207.919217 
L 754.265625 207.919217 
" clip-path="url(#p70cd565bf9)" style="fill: none; stroke: #b0b0b0; stroke-opacity: 0.8; stroke-linecap: square"/>
     </g>
     <g id="line2d_90">
      <g>
       <use xlink:href="#med31dc7620" x="84.665625" y="207.919217" style="stroke: #000000; stroke-width: 0.8"/>
      </g>
     </g>
     <g id="text_14">
      <!-- 25 -->
      <g transform="translate(56.746875 214.491092) scale(0.2 -0.2)">
       <use xlink:href="#AptosDisplay-32"/>
       <use xlink:href="#AptosDisplay-35" x="52.294922"/>
      </g>
     </g>
    </g>
    <g id="ytick_6">
     <g id="line2d_91">
      <path d="M 84.665625 148.851844 
L 754.265625 148.851844 
" clip-path="url(#p70cd565bf9)" style="fill: none; stroke: #b0b0b0; stroke-opacity: 0.8; stroke-linecap: square"/>
     </g>
     <g id="line2d_92">
      <g>
       <use xlink:href="#med31dc7620" x="84.665625" y="148.851844" style="stroke: #000000; stroke-width: 0.8"/>
      </g>
     </g>
     <g id="text_15">
      <!-- 30 -->
      <g transform="translate(56.746875 155.423719) scale(0.2 -0.2)">
       <defs>
        <path id="AptosDisplay-33" d="M 1700 -56 
Q 1047 -56 655 275 
Q 263 606 263 1225 
L 781 1225 
Q 781 844 1023 617 
Q 1266 391 1697 391 
Q 2094 391 2322 581 
Q 2550 772 2550 1172 
Q 2550 1556 2297 1737 
Q 2044 1919 1609 1919 
L 1366 1919 
L 1366 2363 
L 1622 2363 
Q 2013 2363 2222 2555 
Q 2431 2747 2431 3066 
Q 2431 3372 2226 3526 
Q 2022 3681 1684 3681 
Q 1306 3681 1095 3481 
Q 884 3281 891 2956 
L 372 2956 
Q 372 3319 536 3583 
Q 700 3847 995 3990 
Q 1291 4134 1681 4134 
Q 2031 4134 2318 4017 
Q 2606 3900 2778 3670 
Q 2950 3441 2950 3097 
Q 2950 2738 2745 2498 
Q 2541 2259 2206 2166 
Q 2591 2097 2841 1836 
Q 3091 1575 3091 1150 
Q 3091 763 2916 494 
Q 2741 225 2428 84 
Q 2116 -56 1700 -56 
z
" transform="scale(0.015625)"/>
       </defs>
       <use xlink:href="#AptosDisplay-33"/>
       <use xlink:href="#AptosDisplay-30" x="52.294922"/>
      </g>
     </g>
    </g>
    <g id="ytick_7">
     <g id="line2d_93">
      <path d="M 84.665625 89.78447 
L 754.265625 89.78447 
" clip-path="url(#p70cd565bf9)" style="fill: none; stroke: #b0b0b0; stroke-opacity: 0.8; stroke-linecap: square"/>
     </g>
     <g id="line2d_94">
      <g>
       <use xlink:href="#med31dc7620" x="84.665625" y="89.78447" style="stroke: #000000; stroke-width: 0.8"/>
      </g>
     </g>
     <g id="text_16">
      <!-- 35 -->
      <g transform="translate(56.746875 96.356345) scale(0.2 -0.2)">
       <use xlink:href="#AptosDisplay-33"/>
       <use xlink:href="#AptosDisplay-35" x="52.294922"/>
      </g>
     </g>
    </g>
    <g id="ytick_8">
     <g id="line2d_95">
      <path d="M 84.665625 491.442612 
L 754.265625 491.442612 
" clip-path="url(#p70cd565bf9)" style="fill: none; stroke-dasharray: 1.85,0.8; stroke-dashoffset: 0; stroke: #b0b0b0; stroke-opacity: 0.8; stroke-width: 0.5"/>
     </g>
     <g id="line2d_96">
      <defs>
       <path id="mefb272d4e2" d="M 0 0 
L -2 0 
" style="stroke: #000000; stroke-width: 0.6"/>
      </defs>
      <g>
       <use xlink:href="#mefb272d4e2" x="84.665625" y="491.442612" style="stroke: #000000; stroke-width: 0.6"/>
      </g>
     </g>
    </g>
    <g id="ytick_9">
     <g id="line2d_97">
      <path d="M 84.665625 479.629137 
L 754.265625 479.629137 
" clip-path="url(#p70cd565bf9)" style="fill: none; stroke-dasharray: 1.85,0.8; stroke-dashoffset: 0; stroke: #b0b0b0; stroke-opacity: 0.8; stroke-width: 0.5"/>
     </g>
     <g id="line2d_98">
      <g>
       <use xlink:href="#mefb272d4e2" x="84.665625" y="479.629137" style="stroke: #000000; stroke-width: 0.6"/>
      </g>
     </g>
    </g>
    <g id="ytick_10">
     <g id="line2d_99">
      <path d="M 84.665625 467.815663 
L 754.265625 467.815663 
" clip-path="url(#p70cd565bf9)" style="fill: none; stroke-dasharray: 1.85,0.8; stroke-dashoffset: 0; stroke: #b0b0b0; stroke-opacity: 0.8; stroke-width: 0.5"/>
     </g>
     <g id="line2d_100">
      <g>
       <use xlink:href="#mefb272d4e2" x="84.665625" y="467.815663" style="stroke: #000000; stroke-width: 0.6"/>
      </g>
     </g>
    </g>
    <g id="ytick_11">
     <g id="line2d_101">
      <path d="M 84.665625 456.002188 
L 754.265625 456.002188 
" clip-path="url(#p70cd565bf9)" style="fill: none; stroke-dasharray: 1.85,0.8; stroke-dashoffset: 0; stroke: #b0b0b0; stroke-opacity: 0.8; stroke-width: 0.5"/>
     </g>
     <g id="line2d_102">
      <g>
       <use xlink:href="#mefb272d4e2" x="84.665625" y="456.002188" style="stroke: #000000; stroke-width: 0.6"/>
      </g>
     </g>
    </g>
    <g id="ytick_12">
     <g id="line2d_103">
      <path d="M 84.665625 432.375238 
L 754.265625 432.375238 
" clip-path="url(#p70cd565bf9)" style="fill: none; stroke-dasharray: 1.85,0.8; stroke-dashoffset: 0; stroke: #b0b0b0; stroke-opacity: 0.8; stroke-width: 0.5"/>
     </g>
     <g id="line2d_104">
      <g>
       <use xlink:href="#mefb272d4e2" x="84.665625" y="432.375238" style="stroke: #000000; stroke-width: 0.6"/>
      </g>
     </g>
    </g>
    <g id="ytick_13">
     <g id="line2d_105">
      <path d="M 84.665625 420.561763 
L 754.265625 420.561763 
" clip-path="url(#p70cd565bf9)" style="fill: none; stroke-dasharray: 1.85,0.8; stroke-dashoffset: 0; stroke: #b0b0b0; stroke-opacity: 0.8; stroke-width: 0.5"/>
     </g>
     <g id="line2d_106">
      <g>
       <use xlink:href="#mefb272d4e2" x="84.665625" y="420.561763" style="stroke: #000000; stroke-width: 0.6"/>
      </g>
     </g>
    </g>
    <g id="ytick_14">
     <g id="line2d_107">
      <path d="M 84.665625 408.748289 
L 754.265625 408.748289 
" clip-path="url(#p70cd565bf9)" style="fill: none; stroke-dasharray: 1.85,0.8; stroke-dashoffset: 0; stroke: #b0b0b0; stroke-opacity: 0.8; stroke-width: 0.5"/>
     </g>
     <g id="line2d_108">
      <g>
       <use xlink:href="#mefb272d4e2" x="84.665625" y="408.748289" style="stroke: #000000; stroke-width: 0.6"/>
      </g>
     </g>
    </g>
    <g id="ytick_15">
     <g id="line2d_109">
      <path d="M 84.665625 396.934814 
L 754.265625 396.934814 
" clip-path="url(#p70cd565bf9)" style="fill: none; stroke-dasharray: 1.85,0.8; stroke-dashoffset: 0; stroke: #b0b0b0; stroke-opacity: 0.8; stroke-width: 0.5"/>
     </g>
     <g id="line2d_110">
      <g>
       <use xlink:href="#mefb272d4e2" x="84.665625" y="396.934814" style="stroke: #000000; stroke-width: 0.6"/>
      </g>
     </g>
    </g>
    <g id="ytick_16">
     <g id="line2d_111">
      <path d="M 84.665625 373.307864 
L 754.265625 373.307864 
" clip-path="url(#p70cd565bf9)" style="fill: none; stroke-dasharray: 1.85,0.8; stroke-dashoffset: 0; stroke: #b0b0b0; stroke-opacity: 0.8; stroke-width: 0.5"/>
     </g>
     <g id="line2d_112">
      <g>
       <use xlink:href="#mefb272d4e2" x="84.665625" y="373.307864" style="stroke: #000000; stroke-width: 0.6"/>
      </g>
     </g>
    </g>
    <g id="ytick_17">
     <g id="line2d_113">
      <path d="M 84.665625 361.49439 
L 754.265625 361.49439 
" clip-path="url(#p70cd565bf9)" style="fill: none; stroke-dasharray: 1.85,0.8; stroke-dashoffset: 0; stroke: #b0b0b0; stroke-opacity: 0.8; stroke-width: 0.5"/>
     </g>
     <g id="line2d_114">
      <g>
       <use xlink:href="#mefb272d4e2" x="84.665625" y="361.49439" style="stroke: #000000; stroke-width: 0.6"/>
      </g>
     </g>
    </g>
    <g id="ytick_18">
     <g id="line2d_115">
      <path d="M 84.665625 349.680915 
L 754.265625 349.680915 
" clip-path="url(#p70cd565bf9)" style="fill: none; stroke-dasharray: 1.85,0.8; stroke-dashoffset: 0; stroke: #b0b0b0; stroke-opacity: 0.8; stroke-width: 0.5"/>
     </g>
     <g id="line2d_116">
      <g>
       <use xlink:href="#mefb272d4e2" x="84.665625" y="349.680915" style="stroke: #000000; stroke-width: 0.6"/>
      </g>
     </g>
    </g>
    <g id="ytick_19">
     <g id="line2d_117">
      <path d="M 84.665625 337.86744 
L 754.265625 337.86744 
" clip-path="url(#p70cd565bf9)" style="fill: none; stroke-dasharray: 1.85,0.8; stroke-dashoffset: 0; stroke: #b0b0b0; stroke-opacity: 0.8; stroke-width: 0.5"/>
     </g>
     <g id="line2d_118">
      <g>
       <use xlink:href="#mefb272d4e2" x="84.665625" y="337.86744" style="stroke: #000000; stroke-width: 0.6"/>
      </g>
     </g>
    </g>
    <g id="ytick_20">
     <g id="line2d_119">
      <path d="M 84.665625 314.24049 
L 754.265625 314.24049 
" clip-path="url(#p70cd565bf9)" style="fill: none; stroke-dasharray: 1.85,0.8; stroke-dashoffset: 0; stroke: #b0b0b0; stroke-opacity: 0.8; stroke-width: 0.5"/>
     </g>
     <g id="line2d_120">
      <g>
       <use xlink:href="#mefb272d4e2" x="84.665625" y="314.24049" style="stroke: #000000; stroke-width: 0.6"/>
      </g>
     </g>
    </g>
    <g id="ytick_21">
     <g id="line2d_121">
      <path d="M 84.665625 302.427016 
L 754.265625 302.427016 
" clip-path="url(#p70cd565bf9)" style="fill: none; stroke-dasharray: 1.85,0.8; stroke-dashoffset: 0; stroke: #b0b0b0; stroke-opacity: 0.8; stroke-width: 0.5"/>
     </g>
     <g id="line2d_122">
      <g>
       <use xlink:href="#mefb272d4e2" x="84.665625" y="302.427016" style="stroke: #000000; stroke-width: 0.6"/>
      </g>
     </g>
    </g>
    <g id="ytick_22">
     <g id="line2d_123">
      <path d="M 84.665625 290.613541 
L 754.265625 290.613541 
" clip-path="url(#p70cd565bf9)" style="fill: none; stroke-dasharray: 1.85,0.8; stroke-dashoffset: 0; stroke: #b0b0b0; stroke-opacity: 0.8; stroke-width: 0.5"/>
     </g>
     <g id="line2d_124">
      <g>
       <use xlink:href="#mefb272d4e2" x="84.665625" y="290.613541" style="stroke: #000000; stroke-width: 0.6"/>
      </g>
     </g>
    </g>
    <g id="ytick_23">
     <g id="line2d_125">
      <path d="M 84.665625 278.800066 
L 754.265625 278.800066 
" clip-path="url(#p70cd565bf9)" style="fill: none; stroke-dasharray: 1.85,0.8; stroke-dashoffset: 0; stroke: #b0b0b0; stroke-opacity: 0.8; stroke-width: 0.5"/>
     </g>
     <g id="line2d_126">
      <g>
       <use xlink:href="#mefb272d4e2" x="84.665625" y="278.800066" style="stroke: #000000; stroke-width: 0.6"/>
      </g>
     </g>
    </g>
    <g id="ytick_24">
     <g id="line2d_127">
      <path d="M 84.665625 255.173117 
L 754.265625 255.173117 
" clip-path="url(#p70cd565bf9)" style="fill: none; stroke-dasharray: 1.85,0.8; stroke-dashoffset: 0; stroke: #b0b0b0; stroke-opacity: 0.8; stroke-width: 0.5"/>
     </g>
     <g id="line2d_128">
      <g>
       <use xlink:href="#mefb272d4e2" x="84.665625" y="255.173117" style="stroke: #000000; stroke-width: 0.6"/>
      </g>
     </g>
    </g>
    <g id="ytick_25">
     <g id="line2d_129">
      <path d="M 84.665625 243.359642 
L 754.265625 243.359642 
" clip-path="url(#p70cd565bf9)" style="fill: none; stroke-dasharray: 1.85,0.8; stroke-dashoffset: 0; stroke: #b0b0b0; stroke-opacity: 0.8; stroke-width: 0.5"/>
     </g>
     <g id="line2d_130">
      <g>
       <use xlink:href="#mefb272d4e2" x="84.665625" y="243.359642" style="stroke: #000000; stroke-width: 0.6"/>
      </g>
     </g>
    </g>
    <g id="ytick_26">
     <g id="line2d_131">
      <path d="M 84.665625 231.546167 
L 754.265625 231.546167 
" clip-path="url(#p70cd565bf9)" style="fill: none; stroke-dasharray: 1.85,0.8; stroke-dashoffset: 0; stroke: #b0b0b0; stroke-opacity: 0.8; stroke-width: 0.5"/>
     </g>
     <g id="line2d_132">
      <g>
       <use xlink:href="#mefb272d4e2" x="84.665625" y="231.546167" style="stroke: #000000; stroke-width: 0.6"/>
      </g>
     </g>
    </g>
    <g id="ytick_27">
     <g id="line2d_133">
      <path d="M 84.665625 219.732692 
L 754.265625 219.732692 
" clip-path="url(#p70cd565bf9)" style="fill: none; stroke-dasharray: 1.85,0.8; stroke-dashoffset: 0; stroke: #b0b0b0; stroke-opacity: 0.8; stroke-width: 0.5"/>
     </g>
     <g id="line2d_134">
      <g>
       <use xlink:href="#mefb272d4e2" x="84.665625" y="219.732692" style="stroke: #000000; stroke-width: 0.6"/>
      </g>
     </g>
    </g>
    <g id="ytick_28">
     <g id="line2d_135">
      <path d="M 84.665625 196.105743 
L 754.265625 196.105743 
" clip-path="url(#p70cd565bf9)" style="fill: none; stroke-dasharray: 1.85,0.8; stroke-dashoffset: 0; stroke: #b0b0b0; stroke-opacity: 0.8; stroke-width: 0.5"/>
     </g>
     <g id="line2d_136">
      <g>
       <use xlink:href="#mefb272d4e2" x="84.665625" y="196.105743" style="stroke: #000000; stroke-width: 0.6"/>
      </g>
     </g>
    </g>
    <g id="ytick_29">
     <g id="line2d_137">
      <path d="M 84.665625 184.292268 
L 754.265625 184.292268 
" clip-path="url(#p70cd565bf9)" style="fill: none; stroke-dasharray: 1.85,0.8; stroke-dashoffset: 0; stroke: #b0b0b0; stroke-opacity: 0.8; stroke-width: 0.5"/>
     </g>
     <g id="line2d_138">
      <g>
       <use xlink:href="#mefb272d4e2" x="84.665625" y="184.292268" style="stroke: #000000; stroke-width: 0.6"/>
      </g>
     </g>
    </g>
    <g id="ytick_30">
     <g id="line2d_139">
      <path d="M 84.665625 172.478793 
L 754.265625 172.478793 
" clip-path="url(#p70cd565bf9)" style="fill: none; stroke-dasharray: 1.85,0.8; stroke-dashoffset: 0; stroke: #b0b0b0; stroke-opacity: 0.8; stroke-width: 0.5"/>
     </g>
     <g id="line2d_140">
      <g>
       <use xlink:href="#mefb272d4e2" x="84.665625" y="172.478793" style="stroke: #000000; stroke-width: 0.6"/>
      </g>
     </g>
    </g>
    <g id="ytick_31">
     <g id="line2d_141">
      <path d="M 84.665625 160.665318 
L 754.265625 160.665318 
" clip-path="url(#p70cd565bf9)" style="fill: none; stroke-dasharray: 1.85,0.8; stroke-dashoffset: 0; stroke: #b0b0b0; stroke-opacity: 0.8; stroke-width: 0.5"/>
     </g>
     <g id="line2d_142">
      <g>
       <use xlink:href="#mefb272d4e2" x="84.665625" y="160.665318" style="stroke: #000000; stroke-width: 0.6"/>
      </g>
     </g>
    </g>
    <g id="ytick_32">
     <g id="line2d_143">
      <path d="M 84.665625 137.038369 
L 754.265625 137.038369 
" clip-path="url(#p70cd565bf9)" style="fill: none; stroke-dasharray: 1.85,0.8; stroke-dashoffset: 0; stroke: #b0b0b0; stroke-opacity: 0.8; stroke-width: 0.5"/>
     </g>
     <g id="line2d_144">
      <g>
       <use xlink:href="#mefb272d4e2" x="84.665625" y="137.038369" style="stroke: #000000; stroke-width: 0.6"/>
      </g>
     </g>
    </g>
    <g id="ytick_33">
     <g id="line2d_145">
      <path d="M 84.665625 125.224894 
L 754.265625 125.224894 
" clip-path="url(#p70cd565bf9)" style="fill: none; stroke-dasharray: 1.85,0.8; stroke-dashoffset: 0; stroke: #b0b0b0; stroke-opacity: 0.8; stroke-width: 0.5"/>
     </g>
     <g id="line2d_146">
      <g>
       <use xlink:href="#mefb272d4e2" x="84.665625" y="125.224894" style="stroke: #000000; stroke-width: 0.6"/>
      </g>
     </g>
    </g>
    <g id="ytick_34">
     <g id="line2d_147">
      <path d="M 84.665625 113.411419 
L 754.265625 113.411419 
" clip-path="url(#p70cd565bf9)" style="fill: none; stroke-dasharray: 1.85,0.8; stroke-dashoffset: 0; stroke: #b0b0b0; stroke-opacity: 0.8; stroke-width: 0.5"/>
     </g>
     <g id="line2d_148">
      <g>
       <use xlink:href="#mefb272d4e2" x="84.665625" y="113.411419" style="stroke: #000000; stroke-width: 0.6"/>
      </g>
     </g>
    </g>
    <g id="ytick_35">
     <g id="line2d_149">
      <path d="M 84.665625 101.597944 
L 754.265625 101.597944 
" clip-path="url(#p70cd565bf9)" style="fill: none; stroke-dasharray: 1.85,0.8; stroke-dashoffset: 0; stroke: #b0b0b0; stroke-opacity: 0.8; stroke-width: 0.5"/>
     </g>
     <g id="line2d_150">
      <g>
       <use xlink:href="#mefb272d4e2" x="84.665625" y="101.597944" style="stroke: #000000; stroke-width: 0.6"/>
      </g>
     </g>
    </g>
    <g id="ytick_36">
     <g id="line2d_151">
      <path d="M 84.665625 77.970995 
L 754.265625 77.970995 
" clip-path="url(#p70cd565bf9)" style="fill: none; stroke-dasharray: 1.85,0.8; stroke-dashoffset: 0; stroke: #b0b0b0; stroke-opacity: 0.8; stroke-width: 0.5"/>
     </g>
     <g id="line2d_152">
      <g>
       <use xlink:href="#mefb272d4e2" x="84.665625" y="77.970995" style="stroke: #000000; stroke-width: 0.6"/>
      </g>
     </g>
    </g>
    <g id="ytick_37">
     <g id="line2d_153">
      <path d="M 84.665625 66.15752 
L 754.265625 66.15752 
" clip-path="url(#p70cd565bf9)" style="fill: none; stroke-dasharray: 1.85,0.8; stroke-dashoffset: 0; stroke: #b0b0b0; stroke-opacity: 0.8; stroke-width: 0.5"/>
     </g>
     <g id="line2d_154">
      <g>
       <use xlink:href="#mefb272d4e2" x="84.665625" y="66.15752" style="stroke: #000000; stroke-width: 0.6"/>
      </g>
     </g>
    </g>
    <g id="text_17">
     <!-- Efficiency (%) -->
     <g transform="translate(49.221875 335.120625) rotate(-90) scale(0.2 -0.2)">
      <defs>
       <path id="AptosDisplay-45" d="M 472 0 
L 472 4206 
L 3153 4206 
L 3153 3738 
L 1034 3738 
L 1034 2397 
L 2984 2397 
L 2984 1934 
L 1034 1934 
L 1034 469 
L 3153 469 
L 3153 0 
L 472 0 
z
" transform="scale(0.015625)"/>
       <path id="AptosDisplay-66" d="M 550 0 
L 550 2622 
L 44 2622 
L 44 3044 
L 550 3044 
L 550 3219 
Q 550 3453 589 3636 
Q 628 3819 728 3947 
Q 828 4075 1004 4140 
Q 1181 4206 1463 4206 
L 1781 4206 
L 1781 3797 
L 1494 3797 
Q 1219 3797 1145 3645 
Q 1072 3494 1072 3209 
L 1072 3044 
L 1775 3044 
L 1775 2622 
L 1072 2622 
L 1072 0 
L 550 0 
z
" transform="scale(0.015625)"/>
       <path id="AptosDisplay-63" d="M 1634 -53 
Q 1234 -53 925 122 
Q 616 297 441 645 
Q 266 994 266 1513 
Q 266 2031 437 2384 
Q 609 2738 917 2916 
Q 1225 3094 1634 3094 
Q 1978 3094 2251 2978 
Q 2525 2863 2689 2630 
Q 2853 2397 2866 2041 
L 2350 2041 
Q 2328 2334 2139 2503 
Q 1950 2672 1644 2672 
Q 1228 2672 1015 2367 
Q 803 2063 803 1513 
Q 803 1150 897 894 
Q 991 638 1178 503 
Q 1366 369 1644 369 
Q 1956 369 2159 541 
Q 2363 713 2372 1047 
L 2884 1047 
Q 2878 681 2711 436 
Q 2544 191 2264 69 
Q 1984 -53 1634 -53 
z
" transform="scale(0.015625)"/>
       <path id="AptosDisplay-6e" d="M 413 0 
L 413 3044 
L 919 3044 
L 931 2575 
Q 1066 2756 1316 2914 
Q 1566 3072 1941 3072 
Q 2428 3072 2637 2781 
Q 2847 2491 2847 1963 
L 2847 0 
L 2328 0 
L 2328 1891 
Q 2328 2106 2286 2275 
Q 2244 2444 2133 2539 
Q 2022 2634 1816 2634 
Q 1500 2634 1283 2482 
Q 1066 2331 934 2156 
L 934 0 
L 413 0 
z
" transform="scale(0.015625)"/>
       <path id="AptosDisplay-79" d="M 266 -1128 
L 266 -697 
L 525 -697 
Q 716 -697 831 -598 
Q 947 -500 1038 -275 
L 1153 0 
L -13 3044 
L 538 3044 
L 1428 553 
L 2250 3044 
L 2781 3044 
L 1688 0 
L 1550 -356 
Q 1441 -647 1314 -815 
Q 1188 -984 1013 -1056 
Q 838 -1128 578 -1128 
L 266 -1128 
z
" transform="scale(0.015625)"/>
       <path id="AptosDisplay-25" d="M 1188 0 
L 3669 4078 
L 4094 4078 
L 1613 0 
L 1188 0 
z
M 1197 1606 
Q 878 1606 679 1765 
Q 481 1925 390 2209 
Q 300 2494 300 2872 
Q 300 3253 390 3536 
Q 481 3819 679 3976 
Q 878 4134 1197 4134 
Q 1519 4134 1716 3976 
Q 1913 3819 2005 3536 
Q 2097 3253 2097 2872 
Q 2097 2494 2005 2209 
Q 1913 1925 1714 1765 
Q 1516 1606 1197 1606 
z
M 1197 1953 
Q 1391 1953 1498 2084 
Q 1606 2216 1648 2425 
Q 1691 2634 1691 2872 
Q 1691 3109 1648 3318 
Q 1606 3528 1498 3658 
Q 1391 3788 1197 3788 
Q 1006 3788 898 3658 
Q 791 3528 748 3318 
Q 706 3109 706 2872 
Q 706 2634 748 2425 
Q 791 2216 898 2084 
Q 1006 1953 1197 1953 
z
M 4084 -53 
Q 3769 -53 3570 105 
Q 3372 263 3281 547 
Q 3191 831 3191 1209 
Q 3191 1591 3281 1873 
Q 3372 2156 3570 2314 
Q 3769 2472 4084 2472 
Q 4406 2472 4604 2315 
Q 4803 2159 4893 1875 
Q 4984 1591 4984 1209 
Q 4984 831 4893 547 
Q 4803 263 4604 105 
Q 4406 -53 4084 -53 
z
M 4084 294 
Q 4281 294 4387 423 
Q 4494 553 4536 761 
Q 4578 969 4578 1209 
Q 4578 1447 4536 1656 
Q 4494 1866 4387 1994 
Q 4281 2122 4084 2122 
Q 3894 2122 3787 1994 
Q 3681 1866 3639 1656 
Q 3597 1447 3597 1209 
Q 3597 969 3639 761 
Q 3681 553 3787 423 
Q 3894 294 4084 294 
z
" transform="scale(0.015625)"/>
      </defs>
      <use xlink:href="#AptosDisplay-45"/>
      <use xlink:href="#AptosDisplay-66" x="54.052734"/>
      <use xlink:href="#AptosDisplay-66" x="82.373047"/>
      <use xlink:href="#AptosDisplay-69" x="110.693359"/>
      <use xlink:href="#AptosDisplay-63" x="131.738281"/>
      <use xlink:href="#AptosDisplay-69" x="181.005859"/>
      <use xlink:href="#AptosDisplay-65" x="202.050781"/>
      <use xlink:href="#AptosDisplay-6e" x="251.464844"/>
      <use xlink:href="#AptosDisplay-63" x="302.050781"/>
      <use xlink:href="#AptosDisplay-79" x="351.318359"/>
      <use xlink:href="#AptosDisplay-20" x="394.580078"/>
      <use xlink:href="#AptosDisplay-28" x="413.867188"/>
      <use xlink:href="#AptosDisplay-25" x="443.310547"/>
      <use xlink:href="#AptosDisplay-29" x="525.830078"/>
     </g>
    </g>
   </g>
   <g id="line2d_155">
    <path d="M 115.101989 240.734425 
L 115.764358 77.9925 
L 116.426727 467.616003 
L 117.751466 480.85558 
L 118.413835 479.873075 
L 119.076204 480.068054 
L 120.400943 479.595336 
L 121.063312 480.076828 
L 121.725681 480.184942 
L 122.38805 479.399801 
L 123.05042 480.092411 
L 123.712789 479.626482 
L 125.037527 479.745027 
L 125.699897 480.330093 
L 126.362266 480.007421 
L 127.024635 480.07151 
L 127.687004 479.557039 
L 128.349374 480.06278 
L 129.011743 479.003972 
L 129.674112 479.904099 
L 130.336481 479.985816 
L 130.998851 479.838765 
L 131.66122 480.00882 
L 132.326901 479.49662 
L 132.98927 479.755984 
L 134.314009 479.929342 
L 134.976378 479.770711 
L 135.638747 480.327536 
L 136.301116 479.715475 
L 136.963486 479.324055 
L 137.625855 479.682411 
L 138.288224 479.50634 
L 138.950593 480.001743 
L 139.612963 480.029594 
L 140.275332 480.316013 
L 140.937701 479.576815 
L 142.26244 479.659973 
L 142.924809 480.2557 
L 143.587178 480.207354 
L 144.249547 479.736047 
L 144.911917 479.858447 
L 145.574286 479.86507 
L 146.236655 479.452116 
L 146.899024 479.963223 
L 147.561394 479.833165 
L 148.223763 480.028096 
L 148.886132 479.683894 
L 150.210871 479.813005 
L 150.87324 480.135034 
L 151.535609 479.879367 
L 152.197978 479.74338 
L 152.860348 479.185483 
L 153.522717 479.910347 
L 154.185086 480.028649 
L 155.509824 479.921984 
L 156.172194 479.805844 
L 157.496932 480.269886 
L 158.159301 479.556723 
L 158.821671 479.598396 
L 159.48404 480.059923 
L 160.146409 479.53371 
L 160.808778 479.380291 
L 161.471148 480.112979 
L 162.133517 479.807296 
L 162.795886 480.011527 
L 163.458255 479.360145 
L 164.120625 479.541943 
L 164.782994 480.232206 
L 165.445363 479.71415 
L 166.107732 479.614445 
L 166.770102 480.389219 
L 167.432471 480.133627 
L 168.09484 479.537709 
L 168.757209 480.183149 
L 169.419579 479.85726 
L 170.081948 479.261216 
L 170.744317 480.353938 
L 171.406686 480.486719 
L 172.731425 479.320547 
L 173.393794 480.048829 
L 174.056163 479.561438 
L 174.718533 479.66553 
L 175.380902 480.459848 
L 176.043271 480.324848 
L 176.70564 479.457257 
L 177.36801 479.992031 
L 178.030379 479.940018 
L 178.692748 479.647398 
L 180.017487 479.95638 
L 181.342225 479.926653 
L 182.004594 480.121883 
L 182.666964 479.588602 
L 183.991702 480.457925 
L 184.654071 479.815625 
L 185.316441 479.618632 
L 185.97881 480.580107 
L 186.641179 479.920195 
L 187.303548 480.435259 
L 187.965918 479.848052 
L 188.628287 479.625231 
L 189.290656 479.865003 
L 189.953025 479.752222 
L 190.615395 479.502451 
L 191.940133 480.425929 
L 193.264872 480.164905 
L 194.58961 480.040423 
L 195.251979 480.249155 
L 195.914349 479.608117 
L 196.576718 479.638196 
L 197.901456 480.026065 
L 198.563825 479.825692 
L 199.888564 480.656171 
L 200.550933 479.560684 
L 201.213302 479.418847 
L 201.875672 480.762799 
L 202.538041 480.421516 
L 203.20041 479.9044 
L 203.862779 479.948156 
L 205.187518 479.687733 
L 206.512256 479.918267 
L 207.836995 480.283278 
L 209.161733 479.769532 
L 210.486472 480.084753 
L 211.148841 480.600825 
L 212.47358 479.588489 
L 213.135949 479.398382 
L 214.460687 479.990182 
L 215.123057 480.125535 
L 215.785426 480.107668 
L 216.447795 479.61473 
L 217.110164 480.108892 
L 217.772534 480.300445 
L 218.434903 479.574185 
L 219.097272 479.737285 
L 219.759641 479.748952 
L 220.422011 480.024271 
L 221.08438 479.941704 
L 221.746749 480.236144 
L 222.409118 479.389164 
L 223.071488 480.471589 
L 223.733857 479.292458 
L 224.396226 480.679281 
L 225.058595 480.108846 
L 225.720965 479.796337 
L 226.383334 479.199463 
L 227.045703 480.066178 
L 227.708072 480.376744 
L 228.370442 479.965201 
L 229.032811 479.872634 
L 230.357549 479.915128 
L 231.019919 479.514342 
L 232.344657 479.810774 
L 233.007026 479.700912 
L 233.669396 479.126773 
L 234.331765 479.730798 
L 235.656503 480.093669 
L 236.318873 479.282198 
L 236.981242 479.516585 
L 237.643611 480.143597 
L 238.30598 479.841293 
L 238.96835 480.324763 
L 239.630719 480.18189 
L 240.293088 479.732255 
L 240.955457 479.901606 
L 241.617826 479.616076 
L 242.280196 480.012431 
L 242.942565 479.851545 
L 243.604934 479.916199 
L 244.267303 480.354359 
L 244.929673 479.25759 
L 245.592042 480.195293 
L 246.254411 480.030768 
L 246.91678 479.588602 
L 247.57915 481.1925 
L 248.241519 479.907254 
L 248.903888 479.453404 
L 249.566257 479.519686 
L 250.228627 480.094969 
L 250.890996 480.160212 
L 251.553365 479.84375 
L 252.215734 479.797623 
L 252.878104 479.51306 
L 253.540473 480.409669 
L 254.202842 479.992468 
L 254.865211 480.222714 
L 255.527581 479.685135 
L 256.18995 479.983094 
L 256.852319 479.789492 
L 257.514688 480.528016 
L 258.177058 479.470122 
L 258.839427 479.690779 
L 259.501796 480.375034 
L 260.164165 479.217816 
L 260.826535 480.310398 
L 261.488904 479.717569 
L 262.151273 479.410333 
L 262.813642 479.927481 
L 263.476012 480.172509 
L 264.138381 479.97186 
L 264.80075 479.573183 
L 265.463119 479.8796 
L 266.125489 479.494488 
L 266.787858 479.799492 
L 267.450227 479.880773 
L 269.437335 479.210145 
L 270.099704 479.950326 
L 270.762073 479.779962 
L 271.424443 480.092411 
L 274.07392 479.222621 
L 274.736289 480.004835 
L 275.398658 479.69328 
L 276.061027 479.991038 
L 276.723397 479.638322 
L 277.385766 480.828683 
L 278.048135 479.773044 
L 278.710504 480.315429 
L 279.372874 479.458213 
L 280.035243 480.144166 
L 281.359981 480.240333 
L 282.022351 479.576516 
L 282.68472 479.778658 
L 283.347089 479.50522 
L 284.009458 479.992311 
L 285.334197 479.859859 
L 285.996566 479.583613 
L 286.658935 480.259276 
L 287.321304 480.27668 
L 287.983674 479.572717 
L 288.646043 479.81177 
L 289.308412 479.157793 
L 289.970781 480.131348 
L 290.633151 480.188968 
L 291.29552 479.82644 
L 291.957889 479.961363 
L 292.620258 479.582051 
L 293.282628 479.690162 
L 293.944997 480.030768 
L 295.269735 480.415719 
L 295.932105 479.409619 
L 296.594474 480.249101 
L 297.256843 479.839693 
L 297.919212 479.65904 
L 298.581582 480.101239 
L 299.243951 479.418847 
L 299.90632 479.899041 
L 300.568689 480.581224 
L 301.231059 479.390481 
L 301.893428 480.285262 
L 302.555797 480.153558 
L 303.218166 479.698501 
L 303.880536 480.721638 
L 304.542905 480.059743 
L 305.205274 480.133395 
L 305.867643 479.767078 
L 306.530013 479.915501 
L 307.192382 480.294196 
L 307.854751 479.921958 
L 308.51712 479.799377 
L 309.17949 479.800667 
L 309.841859 480.050232 
L 310.504228 479.558043 
L 311.166597 480.20188 
L 311.828967 479.449766 
L 312.491336 479.77854 
L 315.803182 480.050113 
L 316.465551 480.029372 
L 317.127921 480.232514 
L 317.79029 479.887183 
L 318.452659 479.344316 
L 319.115028 479.893126 
L 319.777398 479.861773 
L 320.439767 479.981543 
L 321.102136 480.355721 
L 321.764505 480.035339 
L 323.089244 480.123162 
L 324.413982 479.857832 
L 325.076352 480.002487 
L 325.738721 480.348714 
L 326.40109 479.2582 
L 327.063459 480.599216 
L 327.725828 479.228223 
L 328.388198 479.057901 
L 329.050567 479.726141 
L 329.712936 479.88067 
L 330.375305 479.593445 
L 331.037675 479.842825 
L 331.700044 479.89704 
L 332.362413 480.24197 
L 333.024782 480.417398 
L 334.349521 480.248716 
L 335.01189 480.430651 
L 335.674259 479.80114 
L 336.336629 479.596276 
L 336.998998 479.177919 
L 337.661367 480.013658 
L 338.323736 479.943494 
L 338.986106 480.166815 
L 339.648475 479.991181 
L 340.310844 479.480705 
L 340.973213 479.729587 
L 341.635583 479.567796 
L 342.297952 479.995588 
L 342.960321 480.183149 
L 343.62269 480.523047 
L 344.28506 480.226488 
L 344.947429 480.219139 
L 345.609798 480.048046 
L 346.272167 480.739128 
L 346.934537 480.026251 
L 348.259275 479.767757 
L 348.921644 480.003233 
L 349.584014 480.361507 
L 350.246383 480.011981 
L 350.908752 480.347122 
L 352.233491 479.398925 
L 352.89586 479.94849 
L 354.220598 479.719169 
L 355.545337 480.270652 
L 356.207706 480.042547 
L 356.870075 480.041835 
L 357.532445 479.690162 
L 358.194814 479.472321 
L 358.857183 479.455439 
L 359.519552 480.304193 
L 360.181922 479.74216 
L 360.844291 480.14968 
L 361.50666 479.370705 
L 362.169029 479.744746 
L 362.831399 480.280329 
L 363.493768 479.571212 
L 364.156137 479.731812 
L 364.818506 480.709845 
L 365.480876 479.133577 
L 366.143245 479.818686 
L 366.805614 480.251538 
L 367.467983 480.029854 
L 368.130353 480.16994 
L 368.792722 479.667247 
L 369.455091 480.127683 
L 370.11746 480.1844 
L 370.779829 479.500872 
L 371.442199 479.89412 
L 372.104568 480.756651 
L 373.429306 479.302316 
L 374.091676 480.048656 
L 374.754045 480.50099 
L 375.416414 480.75483 
L 376.078783 479.86624 
L 376.741153 480.455042 
L 378.72826 479.400494 
L 379.39063 480.055968 
L 380.052999 480.484673 
L 381.377737 479.698542 
L 382.702476 480.20796 
L 384.027214 479.71024 
L 384.689584 479.701 
L 385.351953 479.510073 
L 386.014322 480.281407 
L 386.676691 480.168079 
L 387.339061 480.429696 
L 388.00143 480.146941 
L 388.663799 479.542908 
L 389.326168 479.940018 
L 389.988538 480.129321 
L 390.650907 479.904803 
L 391.975645 479.888331 
L 392.638015 480.104118 
L 393.962753 480.260038 
L 394.625122 479.442655 
L 395.287492 480.327536 
L 396.61223 479.968471 
L 397.274599 479.993365 
L 397.936969 479.576666 
L 398.599338 479.577868 
L 399.261707 479.800337 
L 399.924076 480.265196 
L 400.586446 479.639872 
L 401.248815 480.123692 
L 403.898292 479.897625 
L 404.560661 479.300761 
L 405.22303 479.900711 
L 405.8854 479.88118 
L 406.547769 480.496794 
L 407.210138 479.853692 
L 407.872507 479.964589 
L 409.197246 479.747021 
L 409.859615 480.294553 
L 410.521984 479.893065 
L 411.184354 479.742976 
L 411.846723 480.11963 
L 412.509092 479.830503 
L 413.171461 479.21506 
L 413.83383 479.592939 
L 414.4962 480.151673 
L 415.161881 479.55057 
L 415.82425 479.581924 
L 416.486619 480.169601 
L 417.148989 479.627779 
L 417.811358 479.428411 
L 418.473727 479.508709 
L 419.136096 479.808562 
L 419.798466 480.369278 
L 420.460835 479.752061 
L 421.123204 479.729572 
L 421.785573 480.105684 
L 422.447943 479.811259 
L 423.110312 479.263671 
L 424.43505 480.023676 
L 425.09742 479.800728 
L 426.422158 479.685983 
L 427.084527 480.081559 
L 428.409266 479.581224 
L 429.071635 479.56587 
L 429.734004 479.76906 
L 430.396373 479.33024 
L 431.058743 479.285488 
L 431.721112 479.520348 
L 432.383481 479.421384 
L 433.04585 479.200223 
L 433.70822 479.566909 
L 434.370589 479.059555 
L 435.032958 479.634778 
L 435.695327 479.328454 
L 436.357697 479.423439 
L 437.682435 479.752548 
L 439.007174 480.014405 
L 439.669543 479.73972 
L 441.656651 479.975295 
L 442.31902 479.983318 
L 442.981389 479.771139 
L 444.306128 479.746341 
L 444.968497 479.396732 
L 445.630866 480.110988 
L 446.293235 479.735799 
L 446.955605 480.207377 
L 447.617974 480.106841 
L 448.280343 479.73016 
L 448.942712 480.14921 
L 449.605082 479.728131 
L 450.267451 479.954156 
L 450.92982 479.767227 
L 451.592189 480.109562 
L 452.254559 479.623766 
L 453.579297 480.011674 
L 454.241666 479.915293 
L 454.904036 480.467949 
L 455.566405 480.159503 
L 456.891143 479.975064 
L 457.553513 480.053526 
L 458.215882 480.316043 
L 458.878251 479.426387 
L 459.54062 479.672255 
L 460.20299 480.10392 
L 460.865359 479.960976 
L 461.527728 480.209521 
L 462.190097 479.589249 
L 462.852467 480.134319 
L 463.514836 479.964843 
L 464.177205 479.639547 
L 465.501944 480.682975 
L 466.164313 479.770309 
L 466.826682 479.532413 
L 467.489051 479.859823 
L 468.151421 479.334412 
L 468.81379 480.038702 
L 469.476159 480.409987 
L 470.138528 480.083477 
L 471.463267 480.256287 
L 472.125636 479.60123 
L 472.788005 479.60674 
L 473.450374 479.839622 
L 474.112744 479.574185 
L 474.775113 479.876072 
L 475.437482 479.610644 
L 476.762221 479.951614 
L 477.42459 480.298623 
L 478.086959 479.989478 
L 478.749328 480.391297 
L 479.411698 480.052793 
L 480.074067 480.428116 
L 480.736436 479.255043 
L 481.398805 479.731362 
L 482.061175 479.137489 
L 482.723544 480.227487 
L 483.385913 479.638196 
L 484.048282 480.027708 
L 484.710652 479.59768 
L 485.373021 479.668559 
L 486.03539 480.171686 
L 487.360129 479.802094 
L 488.022498 479.908017 
L 488.684867 478.996273 
L 489.347236 479.87403 
L 490.009606 480.242824 
L 490.671975 480.114325 
L 491.334344 479.855969 
L 491.996713 479.342975 
L 493.321452 479.92163 
L 493.983821 479.937876 
L 494.64619 479.733535 
L 495.30856 480.077004 
L 495.970929 479.883275 
L 496.633298 480.238127 
L 497.295667 479.838037 
L 497.958037 479.970914 
L 498.620406 480.220366 
L 499.282775 480.165313 
L 499.945144 479.757913 
L 500.607514 479.07646 
L 501.269883 479.875743 
L 501.932252 479.753761 
L 502.594621 479.412869 
L 503.256991 480.117111 
L 503.91936 479.754119 
L 504.581729 480.225771 
L 505.244098 479.564774 
L 505.906468 479.210411 
L 506.568837 479.857024 
L 507.893575 479.879215 
L 508.555945 479.677118 
L 509.218314 479.923012 
L 510.543052 479.959794 
L 511.205422 480.172286 
L 511.867791 479.662059 
L 512.53016 480.267115 
L 516.504375 479.867107 
L 517.166745 479.630511 
L 517.829114 480.133507 
L 518.491483 479.940018 
L 519.816222 479.913666 
L 520.478591 478.851004 
L 521.14096 480.265997 
L 521.803329 479.762591 
L 523.128068 479.482626 
L 524.452806 480.080346 
L 525.115176 479.747368 
L 525.777545 479.657065 
L 526.439914 479.979319 
L 527.102283 479.900931 
L 527.764653 479.627739 
L 528.427022 479.494534 
L 529.089391 479.806556 
L 529.75176 479.613973 
L 530.41413 480.210757 
L 532.401237 480.025425 
L 533.063607 479.263671 
L 533.725976 480.15461 
L 534.388345 479.119589 
L 535.050714 479.75476 
L 535.713084 479.743182 
L 536.375453 479.349043 
L 537.037822 479.747738 
L 538.362561 479.325208 
L 539.02493 479.366063 
L 539.687299 479.847059 
L 540.349668 479.329332 
L 541.674407 479.114307 
L 542.336776 479.410673 
L 542.999145 479.338972 
L 543.661515 479.030969 
L 544.323884 478.98776 
L 545.648622 479.630556 
L 546.310992 479.614896 
L 546.973361 479.351675 
L 547.63573 479.593501 
L 548.298099 479.340725 
L 548.960469 479.785142 
L 549.622838 479.463438 
L 550.947576 479.643151 
L 551.609946 479.529457 
L 552.272315 479.836233 
L 552.934684 479.633343 
L 553.597053 480.115574 
L 554.259423 480.142467 
L 554.921792 479.800357 
L 556.24653 479.529235 
L 557.571269 479.701188 
L 558.233638 479.491147 
L 561.545484 479.476118 
L 562.207853 479.743633 
L 562.870223 479.737892 
L 563.532592 480.403947 
L 564.194961 479.937762 
L 564.85733 479.322294 
L 565.5197 479.625051 
L 566.182069 479.719766 
L 566.844438 480.27947 
L 567.506807 480.459443 
L 568.169177 480.037146 
L 570.156284 480.015578 
L 570.818654 480.066051 
L 571.481023 479.631853 
L 572.143392 479.752767 
L 573.468131 479.638639 
L 574.1305 480.201798 
L 574.792869 479.659232 
L 576.779977 480.15104 
L 577.442346 479.997175 
L 578.104715 480.441811 
L 578.767085 480.334624 
L 579.429454 480.030007 
L 580.091823 479.509719 
L 580.754192 480.161063 
L 581.416562 479.675347 
L 582.078931 480.304812 
L 583.403669 480.156922 
L 584.066039 479.845549 
L 584.728408 479.940018 
L 585.390777 479.645755 
L 586.053146 480.226693 
L 586.715516 479.565964 
L 587.377885 480.025425 
L 588.040254 480.196752 
L 589.364993 479.869838 
L 590.027362 479.451991 
L 590.689731 479.988785 
L 591.3521 479.678774 
L 592.01447 479.700977 
L 592.676839 479.589579 
L 593.339208 480.56931 
L 594.001577 480.219575 
L 594.663947 479.996113 
L 595.326316 478.95424 
L 595.988685 479.801095 
L 596.651054 479.850942 
L 597.313424 479.588213 
L 597.975793 479.810432 
L 598.638162 480.175534 
L 599.300531 479.818261 
L 599.9629 480.161063 
L 600.62527 480.303658 
L 601.287639 479.393954 
L 601.950008 480.036986 
L 602.612377 479.913832 
L 603.274747 480.326467 
L 603.937116 479.807213 
L 604.599485 480.014732 
L 605.924224 479.915984 
L 606.586593 479.457295 
L 607.248962 479.91732 
L 607.911331 480.1842 
L 608.573701 479.930758 
L 609.23607 479.828407 
L 609.898439 480.079276 
L 610.560808 479.560474 
L 611.223178 480.080625 
L 611.885547 479.643979 
L 612.547916 479.460042 
L 613.210285 479.838037 
L 613.872655 479.789558 
L 614.535024 479.944413 
L 615.197393 480.250101 
L 615.859762 479.726731 
L 616.522132 479.924275 
L 617.184501 479.780246 
L 617.84687 480.034201 
L 619.833978 479.855124 
L 620.496347 480.335104 
L 621.158716 480.36996 
L 621.821086 480.053637 
L 622.483455 480.262931 
L 623.808193 479.742058 
L 624.470563 480.074019 
L 625.132932 479.925234 
L 625.795301 480.017116 
L 626.45767 480.250039 
L 627.12004 479.876761 
L 628.444778 479.905689 
L 629.107147 480.076873 
L 629.769517 479.959286 
L 630.431886 480.1775 
L 631.756624 479.890361 
L 632.418994 480.077004 
L 633.081363 480.133745 
L 633.743732 479.781621 
L 634.406101 479.660951 
L 635.73084 479.845339 
L 636.393209 480.251686 
L 637.055578 480.14745 
L 637.717948 480.438137 
L 639.042686 479.770316 
L 641.029794 480.453152 
L 641.692163 479.889489 
L 642.354532 479.736768 
L 643.016901 479.273648 
L 643.679271 479.762817 
L 644.34164 479.909299 
L 645.004009 479.60154 
L 645.666378 480.376958 
L 646.328748 479.883162 
L 646.991117 480.506706 
L 647.653486 480.468346 
L 648.315855 480.292109 
L 648.978225 479.737981 
L 649.640594 479.973149 
L 650.302963 480.498305 
L 650.965332 480.000446 
L 652.290071 479.644922 
L 652.95244 480.481876 
L 654.277179 479.791282 
L 654.939548 480.086083 
L 655.601917 480.087349 
L 656.264286 481.00089 
L 656.926656 480.013433 
L 657.589025 479.899444 
L 658.251394 479.554081 
L 658.913763 480.290848 
L 659.576133 480.045998 
L 660.238502 480.238127 
L 660.900871 479.83949 
L 661.56324 480.571519 
L 662.22561 479.672982 
L 662.887979 479.859768 
L 663.550348 479.751257 
L 664.212717 480.01733 
L 664.875087 479.303595 
L 665.537456 479.955861 
L 666.199825 480.056226 
L 667.524564 479.863067 
L 668.186933 480.279059 
L 668.849302 480.092411 
L 669.511671 479.570917 
L 670.174041 480.365993 
L 670.83641 479.848826 
L 671.498779 480.192484 
L 672.161148 479.94088 
L 672.823518 480.079717 
L 673.485887 480.555328 
L 674.148256 479.921318 
L 675.472995 479.799492 
L 676.135364 480.683399 
L 676.797733 480.161487 
L 677.460102 479.440207 
L 679.44721 480.115613 
L 680.109579 479.953406 
L 680.771949 479.626475 
L 681.434318 480.181606 
L 682.096687 479.579362 
L 682.759056 480.139033 
L 683.421426 480.165934 
L 684.083795 479.467861 
L 684.746164 479.830689 
L 685.408533 479.957436 
L 686.070902 479.547197 
L 686.733272 479.912736 
L 687.395641 480.034366 
L 688.05801 479.829366 
L 688.720379 479.798406 
L 689.382749 479.941761 
L 690.045118 478.991083 
L 690.707487 479.290334 
L 691.369856 479.974394 
L 692.032226 479.532908 
L 692.694595 480.399796 
L 693.356964 479.799249 
L 694.681703 479.933063 
L 695.344072 480.324239 
L 696.006441 479.39649 
L 696.66881 479.789139 
L 697.33118 479.8098 
L 697.993549 480.190508 
L 699.318287 479.691359 
L 699.980657 480.21112 
L 700.643026 479.741426 
L 701.305395 480.041266 
L 701.967764 479.377081 
L 702.630134 480.717943 
L 703.292503 480.078368 
L 703.954872 479.932281 
L 704.617241 479.54632 
L 705.279611 479.929241 
L 705.94198 480.157845 
L 706.604349 479.773846 
L 707.266718 479.578873 
L 707.929088 479.799134 
L 708.591457 479.366215 
L 709.253826 480.205404 
L 709.916195 480.074536 
L 710.578565 480.282939 
L 711.240934 480.254216 
L 711.903303 479.809293 
L 712.565672 480.124262 
L 715.218461 479.911625 
L 715.877519 480.045866 
L 716.539888 479.868905 
L 717.202257 479.419321 
L 717.864626 479.906415 
L 719.189365 479.799134 
L 719.851734 480.51426 
L 720.514103 479.925012 
L 721.176473 479.769004 
L 721.838842 480.149841 
L 722.501211 479.333899 
L 723.166892 479.867583 
L 723.829261 479.740802 
L 723.829261 479.740802 
" clip-path="url(#p70cd565bf9)" style="fill: none; stroke: #ac2b37; stroke-width: 1.5; stroke-linecap: square"/>
   </g>
   <g id="patch_3">
    <path d="M 84.665625 501.3525 
L 84.665625 57.8325 
" style="fill: none; stroke: #000000; stroke-width: 0.8; stroke-linejoin: miter; stroke-linecap: square"/>
   </g>
   <g id="patch_4">
    <path d="M 754.265625 501.3525 
L 754.265625 57.8325 
" style="fill: none; stroke: #000000; stroke-width: 0.8; stroke-linejoin: miter; stroke-linecap: square"/>
   </g>
   <g id="patch_5">
    <path d="M 84.665625 501.3525 
L 754.265625 501.3525 
" style="fill: none; stroke: #000000; stroke-width: 0.8; stroke-linejoin: miter; stroke-linecap: square"/>
   </g>
   <g id="patch_6">
    <path d="M 84.665625 57.8325 
L 754.265625 57.8325 
" style="fill: none; stroke: #000000; stroke-width: 0.8; stroke-linejoin: miter; stroke-linecap: square"/>
   </g>
   <g id="text_18">
    <!-- Efficiency vs Time -->
    <g transform="translate(332.95875 51.8325) scale(0.24 -0.24)">
     <defs>
      <path id="AptosDisplay-76" d="M 1103 0 
L -13 3044 
L 538 3044 
L 1391 513 
L 2250 3044 
L 2781 3044 
L 1678 0 
L 1103 0 
z
" transform="scale(0.015625)"/>
      <path id="AptosDisplay-73" d="M 1506 -41 
Q 1247 -41 1017 14 
Q 788 69 613 191 
Q 438 313 339 506 
Q 241 700 241 978 
L 744 978 
Q 744 628 966 487 
Q 1188 347 1519 347 
Q 1816 347 2008 458 
Q 2200 569 2200 822 
Q 2200 1047 2026 1153 
Q 1853 1259 1413 1369 
Q 1056 1453 815 1564 
Q 575 1675 453 1845 
Q 331 2016 331 2275 
Q 331 2475 417 2626 
Q 503 2778 658 2879 
Q 813 2981 1020 3032 
Q 1228 3084 1472 3084 
Q 1713 3084 1923 3028 
Q 2134 2972 2296 2855 
Q 2459 2738 2551 2552 
Q 2644 2366 2644 2109 
L 2138 2109 
Q 2138 2425 1945 2558 
Q 1753 2691 1472 2691 
Q 1191 2691 1016 2594 
Q 841 2497 841 2291 
Q 841 2169 919 2084 
Q 997 2000 1181 1933 
Q 1366 1866 1675 1791 
Q 2019 1709 2248 1596 
Q 2478 1484 2595 1306 
Q 2713 1128 2713 847 
Q 2713 616 2622 447 
Q 2531 278 2367 170 
Q 2203 63 1983 11 
Q 1763 -41 1506 -41 
z
" transform="scale(0.015625)"/>
     </defs>
     <use xlink:href="#AptosDisplay-45"/>
     <use xlink:href="#AptosDisplay-66" x="54.052734"/>
     <use xlink:href="#AptosDisplay-66" x="82.373047"/>
     <use xlink:href="#AptosDisplay-69" x="110.693359"/>
     <use xlink:href="#AptosDisplay-63" x="131.738281"/>
     <use xlink:href="#AptosDisplay-69" x="181.005859"/>
     <use xlink:href="#AptosDisplay-65" x="202.050781"/>
     <use xlink:href="#AptosDisplay-6e" x="251.464844"/>
     <use xlink:href="#AptosDisplay-63" x="302.050781"/>
     <use xlink:href="#AptosDisplay-79" x="351.318359"/>
     <use xlink:href="#AptosDisplay-20" x="394.580078"/>
     <use xlink:href="#AptosDisplay-76" x="413.867188"/>
     <use xlink:href="#AptosDisplay-73" x="457.128906"/>
     <use xlink:href="#AptosDisplay-20" x="503.417969"/>
     <use xlink:href="#AptosDisplay-54" x="522.705078"/>
     <use xlink:href="#AptosDisplay-69" x="570.410156"/>
     <use xlink:href="#AptosDisplay-6d" x="591.455078"/>
     <use xlink:href="#AptosDisplay-65" x="671.435547"/>
    </g>
   </g>
  </g>
 </g>
 <defs>
  <clipPath id="p70cd565bf9">
   <rect x="84.665625" y="57.8325" width="669.6" height="443.52"/>
  </clipPath>
 </defs>
</svg>
