<?xml version="1.0" encoding="utf-8" standalone="no"?>
<!DOCTYPE svg PUBLIC "-//W3C//DTD SVG 1.1//EN"
  "http://www.w3.org/Graphics/SVG/1.1/DTD/svg11.dtd">
<svg xmlns:xlink="http://www.w3.org/1999/xlink" width="800.88125pt" height="581.830625pt" viewBox="0 0 800.88125 581.830625" xmlns="http://www.w3.org/2000/svg" version="1.1">
 <metadata>
  <rdf:RDF xmlns:dc="http://purl.org/dc/elements/1.1/" xmlns:cc="http://creativecommons.org/ns#" xmlns:rdf="http://www.w3.org/1999/02/22-rdf-syntax-ns#">
   <cc:Work>
    <dc:type rdf:resource="http://purl.org/dc/dcmitype/StillImage"/>
    <dc:date>2025-04-03T01:48:27.683491</dc:date>
    <dc:format>image/svg+xml</dc:format>
    <dc:creator>
     <cc:Agent>
      <dc:title>Matplotlib v3.8.2, https://matplotlib.org/</dc:title>
     </cc:Agent>
    </dc:creator>
   </cc:Work>
  </rdf:RDF>
 </metadata>
 <defs>
  <style type="text/css">*{stroke-linejoin: round; stroke-linecap: butt}</style>
 </defs>
 <g id="figure_1">
  <g id="patch_1">
   <path d="M 0 581.830625 
L 800.88125 581.830625 
L 800.88125 0 
L 0 0 
z
" style="fill: #ffffff"/>
  </g>
  <g id="axes_1">
   <g id="patch_2">
    <path d="M 95.28125 501.3525 
L 764.88125 501.3525 
L 764.88125 57.8325 
L 95.28125 57.8325 
z
" style="fill: #ffffff"/>
   </g>
   <g id="matplotlib.axis_1">
    <g id="xtick_1">
     <g id="line2d_1">
      <path d="M 125.359934 501.3525 
L 125.359934 57.8325 
" clip-path="url(#paff2efca89)" style="fill: none; stroke: #b0b0b0; stroke-opacity: 0.8; stroke-linecap: square"/>
     </g>
     <g id="line2d_2">
      <defs>
       <path id="m69faab06d6" d="M 0 0 
L 0 3.5 
" style="stroke: #000000; stroke-width: 0.8"/>
      </defs>
      <g>
       <use xlink:href="#m69faab06d6" x="125.359934" y="501.3525" style="stroke: #000000; stroke-width: 0.8"/>
      </g>
     </g>
     <g id="text_1">
      <!-- 0 -->
      <g transform="translate(120.130247 521.49625) scale(0.2 -0.2)">
       <defs>
        <path id="AptosDisplay-30" d="M 1672 -56 
Q 1291 -56 1028 105 
Q 766 266 605 552 
Q 444 838 372 1216 
Q 300 1594 300 2031 
Q 300 2475 372 2856 
Q 444 3238 605 3525 
Q 766 3813 1028 3973 
Q 1291 4134 1672 4134 
Q 2053 4134 2317 3975 
Q 2581 3816 2742 3527 
Q 2903 3238 2975 2858 
Q 3047 2478 3047 2038 
Q 3047 1597 2975 1217 
Q 2903 838 2742 552 
Q 2581 266 2318 105 
Q 2056 -56 1672 -56 
z
M 1672 409 
Q 1916 409 2073 550 
Q 2231 691 2322 925 
Q 2413 1159 2448 1448 
Q 2484 1738 2484 2038 
Q 2484 2338 2448 2628 
Q 2413 2919 2322 3153 
Q 2231 3388 2073 3527 
Q 1916 3666 1669 3666 
Q 1428 3666 1268 3527 
Q 1109 3388 1020 3153 
Q 931 2919 893 2628 
Q 856 2338 856 2038 
Q 856 1741 893 1450 
Q 931 1159 1020 925 
Q 1109 691 1268 550 
Q 1428 409 1672 409 
z
" transform="scale(0.015625)"/>
       </defs>
       <use xlink:href="#AptosDisplay-30"/>
      </g>
     </g>
    </g>
    <g id="xtick_2">
     <g id="line2d_3">
      <path d="M 208.15609 501.3525 
L 208.15609 57.8325 
" clip-path="url(#paff2efca89)" style="fill: none; stroke: #b0b0b0; stroke-opacity: 0.8; stroke-linecap: square"/>
     </g>
     <g id="line2d_4">
      <g>
       <use xlink:href="#m69faab06d6" x="208.15609" y="501.3525" style="stroke: #000000; stroke-width: 0.8"/>
      </g>
     </g>
     <g id="text_2">
      <!-- 25 -->
      <g transform="translate(197.696715 521.49625) scale(0.2 -0.2)">
       <defs>
        <path id="AptosDisplay-32" d="M 247 0 
L 247 413 
L 1725 1741 
Q 2100 2081 2269 2351 
Q 2438 2622 2438 2938 
Q 2438 3256 2263 3461 
Q 2088 3666 1691 3666 
Q 1247 3666 1055 3439 
Q 863 3213 863 2869 
L 341 2869 
Q 341 3250 491 3534 
Q 641 3819 941 3975 
Q 1241 4131 1691 4131 
Q 2103 4131 2390 3986 
Q 2678 3841 2828 3578 
Q 2978 3316 2978 2959 
Q 2978 2638 2853 2375 
Q 2728 2113 2517 1883 
Q 2306 1653 2044 1425 
L 959 463 
L 3097 463 
L 3097 0 
L 247 0 
z
" transform="scale(0.015625)"/>
        <path id="AptosDisplay-35" d="M 1669 -56 
Q 1278 -56 964 83 
Q 650 222 465 483 
Q 281 744 281 1113 
L 816 1113 
Q 816 778 1055 584 
Q 1294 391 1669 391 
Q 2069 391 2291 625 
Q 2513 859 2513 1319 
Q 2513 1772 2291 1989 
Q 2069 2206 1697 2206 
Q 1409 2206 1223 2123 
Q 1038 2041 916 1894 
L 444 1894 
L 622 4078 
L 2788 4078 
L 2788 3613 
L 1041 3613 
L 931 2322 
Q 1044 2453 1251 2550 
Q 1459 2647 1775 2647 
Q 2131 2647 2420 2506 
Q 2709 2366 2881 2072 
Q 3053 1778 3053 1319 
Q 3053 863 2875 558 
Q 2697 253 2384 98 
Q 2072 -56 1669 -56 
z
" transform="scale(0.015625)"/>
       </defs>
       <use xlink:href="#AptosDisplay-32"/>
       <use xlink:href="#AptosDisplay-35" x="52.294922"/>
      </g>
     </g>
    </g>
    <g id="xtick_3">
     <g id="line2d_5">
      <path d="M 290.952246 501.3525 
L 290.952246 57.8325 
" clip-path="url(#paff2efca89)" style="fill: none; stroke: #b0b0b0; stroke-opacity: 0.8; stroke-linecap: square"/>
     </g>
     <g id="line2d_6">
      <g>
       <use xlink:href="#m69faab06d6" x="290.952246" y="501.3525" style="stroke: #000000; stroke-width: 0.8"/>
      </g>
     </g>
     <g id="text_3">
      <!-- 50 -->
      <g transform="translate(280.492871 521.49625) scale(0.2 -0.2)">
       <use xlink:href="#AptosDisplay-35"/>
       <use xlink:href="#AptosDisplay-30" x="52.294922"/>
      </g>
     </g>
    </g>
    <g id="xtick_4">
     <g id="line2d_7">
      <path d="M 373.748402 501.3525 
L 373.748402 57.8325 
" clip-path="url(#paff2efca89)" style="fill: none; stroke: #b0b0b0; stroke-opacity: 0.8; stroke-linecap: square"/>
     </g>
     <g id="line2d_8">
      <g>
       <use xlink:href="#m69faab06d6" x="373.748402" y="501.3525" style="stroke: #000000; stroke-width: 0.8"/>
      </g>
     </g>
     <g id="text_4">
      <!-- 75 -->
      <g transform="translate(363.289027 521.49625) scale(0.2 -0.2)">
       <defs>
        <path id="AptosDisplay-37" d="M 766 0 
L 2609 3600 
L 194 3600 
L 194 4078 
L 3141 4078 
L 3141 3622 
L 1334 0 
L 766 0 
z
" transform="scale(0.015625)"/>
       </defs>
       <use xlink:href="#AptosDisplay-37"/>
       <use xlink:href="#AptosDisplay-35" x="52.294922"/>
      </g>
     </g>
    </g>
    <g id="xtick_5">
     <g id="line2d_9">
      <path d="M 456.544557 501.3525 
L 456.544557 57.8325 
" clip-path="url(#paff2efca89)" style="fill: none; stroke: #b0b0b0; stroke-opacity: 0.8; stroke-linecap: square"/>
     </g>
     <g id="line2d_10">
      <g>
       <use xlink:href="#m69faab06d6" x="456.544557" y="501.3525" style="stroke: #000000; stroke-width: 0.8"/>
      </g>
     </g>
     <g id="text_5">
      <!-- 100 -->
      <g transform="translate(440.855495 521.49625) scale(0.2 -0.2)">
       <defs>
        <path id="AptosDisplay-31" d="M 1659 0 
L 1659 3425 
Q 1575 3309 1420 3201 
Q 1266 3094 1052 3009 
Q 838 2925 578 2888 
L 578 3381 
Q 834 3425 1057 3540 
Q 1281 3656 1453 3806 
Q 1625 3956 1719 4094 
L 2206 4094 
L 2206 0 
L 1659 0 
z
" transform="scale(0.015625)"/>
       </defs>
       <use xlink:href="#AptosDisplay-31"/>
       <use xlink:href="#AptosDisplay-30" x="52.294922"/>
       <use xlink:href="#AptosDisplay-30" x="104.589844"/>
      </g>
     </g>
    </g>
    <g id="xtick_6">
     <g id="line2d_11">
      <path d="M 539.340713 501.3525 
L 539.340713 57.8325 
" clip-path="url(#paff2efca89)" style="fill: none; stroke: #b0b0b0; stroke-opacity: 0.8; stroke-linecap: square"/>
     </g>
     <g id="line2d_12">
      <g>
       <use xlink:href="#m69faab06d6" x="539.340713" y="501.3525" style="stroke: #000000; stroke-width: 0.8"/>
      </g>
     </g>
     <g id="text_6">
      <!-- 125 -->
      <g transform="translate(523.651651 521.49625) scale(0.2 -0.2)">
       <use xlink:href="#AptosDisplay-31"/>
       <use xlink:href="#AptosDisplay-32" x="52.294922"/>
       <use xlink:href="#AptosDisplay-35" x="104.589844"/>
      </g>
     </g>
    </g>
    <g id="xtick_7">
     <g id="line2d_13">
      <path d="M 622.136869 501.3525 
L 622.136869 57.8325 
" clip-path="url(#paff2efca89)" style="fill: none; stroke: #b0b0b0; stroke-opacity: 0.8; stroke-linecap: square"/>
     </g>
     <g id="line2d_14">
      <g>
       <use xlink:href="#m69faab06d6" x="622.136869" y="501.3525" style="stroke: #000000; stroke-width: 0.8"/>
      </g>
     </g>
     <g id="text_7">
      <!-- 150 -->
      <g transform="translate(606.447806 521.49625) scale(0.2 -0.2)">
       <use xlink:href="#AptosDisplay-31"/>
       <use xlink:href="#AptosDisplay-35" x="52.294922"/>
       <use xlink:href="#AptosDisplay-30" x="104.589844"/>
      </g>
     </g>
    </g>
    <g id="xtick_8">
     <g id="line2d_15">
      <path d="M 704.933025 501.3525 
L 704.933025 57.8325 
" clip-path="url(#paff2efca89)" style="fill: none; stroke: #b0b0b0; stroke-opacity: 0.8; stroke-linecap: square"/>
     </g>
     <g id="line2d_16">
      <g>
       <use xlink:href="#m69faab06d6" x="704.933025" y="501.3525" style="stroke: #000000; stroke-width: 0.8"/>
      </g>
     </g>
     <g id="text_8">
      <!-- 175 -->
      <g transform="translate(689.243962 521.49625) scale(0.2 -0.2)">
       <use xlink:href="#AptosDisplay-31"/>
       <use xlink:href="#AptosDisplay-37" x="52.294922"/>
       <use xlink:href="#AptosDisplay-35" x="104.589844"/>
      </g>
     </g>
    </g>
    <g id="xtick_9">
     <g id="line2d_17">
      <path d="M 108.800703 501.3525 
L 108.800703 57.8325 
" clip-path="url(#paff2efca89)" style="fill: none; stroke-dasharray: 1.85,0.8; stroke-dashoffset: 0; stroke: #b0b0b0; stroke-opacity: 0.8; stroke-width: 0.5"/>
     </g>
     <g id="line2d_18">
      <defs>
       <path id="mc232d697cd" d="M 0 0 
L 0 2 
" style="stroke: #000000; stroke-width: 0.6"/>
      </defs>
      <g>
       <use xlink:href="#mc232d697cd" x="108.800703" y="501.3525" style="stroke: #000000; stroke-width: 0.6"/>
      </g>
     </g>
    </g>
    <g id="xtick_10">
     <g id="line2d_19">
      <path d="M 141.919165 501.3525 
L 141.919165 57.8325 
" clip-path="url(#paff2efca89)" style="fill: none; stroke-dasharray: 1.85,0.8; stroke-dashoffset: 0; stroke: #b0b0b0; stroke-opacity: 0.8; stroke-width: 0.5"/>
     </g>
     <g id="line2d_20">
      <g>
       <use xlink:href="#mc232d697cd" x="141.919165" y="501.3525" style="stroke: #000000; stroke-width: 0.6"/>
      </g>
     </g>
    </g>
    <g id="xtick_11">
     <g id="line2d_21">
      <path d="M 158.478397 501.3525 
L 158.478397 57.8325 
" clip-path="url(#paff2efca89)" style="fill: none; stroke-dasharray: 1.85,0.8; stroke-dashoffset: 0; stroke: #b0b0b0; stroke-opacity: 0.8; stroke-width: 0.5"/>
     </g>
     <g id="line2d_22">
      <g>
       <use xlink:href="#mc232d697cd" x="158.478397" y="501.3525" style="stroke: #000000; stroke-width: 0.6"/>
      </g>
     </g>
    </g>
    <g id="xtick_12">
     <g id="line2d_23">
      <path d="M 175.037628 501.3525 
L 175.037628 57.8325 
" clip-path="url(#paff2efca89)" style="fill: none; stroke-dasharray: 1.85,0.8; stroke-dashoffset: 0; stroke: #b0b0b0; stroke-opacity: 0.8; stroke-width: 0.5"/>
     </g>
     <g id="line2d_24">
      <g>
       <use xlink:href="#mc232d697cd" x="175.037628" y="501.3525" style="stroke: #000000; stroke-width: 0.6"/>
      </g>
     </g>
    </g>
    <g id="xtick_13">
     <g id="line2d_25">
      <path d="M 191.596859 501.3525 
L 191.596859 57.8325 
" clip-path="url(#paff2efca89)" style="fill: none; stroke-dasharray: 1.85,0.8; stroke-dashoffset: 0; stroke: #b0b0b0; stroke-opacity: 0.8; stroke-width: 0.5"/>
     </g>
     <g id="line2d_26">
      <g>
       <use xlink:href="#mc232d697cd" x="191.596859" y="501.3525" style="stroke: #000000; stroke-width: 0.6"/>
      </g>
     </g>
    </g>
    <g id="xtick_14">
     <g id="line2d_27">
      <path d="M 224.715321 501.3525 
L 224.715321 57.8325 
" clip-path="url(#paff2efca89)" style="fill: none; stroke-dasharray: 1.85,0.8; stroke-dashoffset: 0; stroke: #b0b0b0; stroke-opacity: 0.8; stroke-width: 0.5"/>
     </g>
     <g id="line2d_28">
      <g>
       <use xlink:href="#mc232d697cd" x="224.715321" y="501.3525" style="stroke: #000000; stroke-width: 0.6"/>
      </g>
     </g>
    </g>
    <g id="xtick_15">
     <g id="line2d_29">
      <path d="M 241.274552 501.3525 
L 241.274552 57.8325 
" clip-path="url(#paff2efca89)" style="fill: none; stroke-dasharray: 1.85,0.8; stroke-dashoffset: 0; stroke: #b0b0b0; stroke-opacity: 0.8; stroke-width: 0.5"/>
     </g>
     <g id="line2d_30">
      <g>
       <use xlink:href="#mc232d697cd" x="241.274552" y="501.3525" style="stroke: #000000; stroke-width: 0.6"/>
      </g>
     </g>
    </g>
    <g id="xtick_16">
     <g id="line2d_31">
      <path d="M 257.833783 501.3525 
L 257.833783 57.8325 
" clip-path="url(#paff2efca89)" style="fill: none; stroke-dasharray: 1.85,0.8; stroke-dashoffset: 0; stroke: #b0b0b0; stroke-opacity: 0.8; stroke-width: 0.5"/>
     </g>
     <g id="line2d_32">
      <g>
       <use xlink:href="#mc232d697cd" x="257.833783" y="501.3525" style="stroke: #000000; stroke-width: 0.6"/>
      </g>
     </g>
    </g>
    <g id="xtick_17">
     <g id="line2d_33">
      <path d="M 274.393015 501.3525 
L 274.393015 57.8325 
" clip-path="url(#paff2efca89)" style="fill: none; stroke-dasharray: 1.85,0.8; stroke-dashoffset: 0; stroke: #b0b0b0; stroke-opacity: 0.8; stroke-width: 0.5"/>
     </g>
     <g id="line2d_34">
      <g>
       <use xlink:href="#mc232d697cd" x="274.393015" y="501.3525" style="stroke: #000000; stroke-width: 0.6"/>
      </g>
     </g>
    </g>
    <g id="xtick_18">
     <g id="line2d_35">
      <path d="M 307.511477 501.3525 
L 307.511477 57.8325 
" clip-path="url(#paff2efca89)" style="fill: none; stroke-dasharray: 1.85,0.8; stroke-dashoffset: 0; stroke: #b0b0b0; stroke-opacity: 0.8; stroke-width: 0.5"/>
     </g>
     <g id="line2d_36">
      <g>
       <use xlink:href="#mc232d697cd" x="307.511477" y="501.3525" style="stroke: #000000; stroke-width: 0.6"/>
      </g>
     </g>
    </g>
    <g id="xtick_19">
     <g id="line2d_37">
      <path d="M 324.070708 501.3525 
L 324.070708 57.8325 
" clip-path="url(#paff2efca89)" style="fill: none; stroke-dasharray: 1.85,0.8; stroke-dashoffset: 0; stroke: #b0b0b0; stroke-opacity: 0.8; stroke-width: 0.5"/>
     </g>
     <g id="line2d_38">
      <g>
       <use xlink:href="#mc232d697cd" x="324.070708" y="501.3525" style="stroke: #000000; stroke-width: 0.6"/>
      </g>
     </g>
    </g>
    <g id="xtick_20">
     <g id="line2d_39">
      <path d="M 340.629939 501.3525 
L 340.629939 57.8325 
" clip-path="url(#paff2efca89)" style="fill: none; stroke-dasharray: 1.85,0.8; stroke-dashoffset: 0; stroke: #b0b0b0; stroke-opacity: 0.8; stroke-width: 0.5"/>
     </g>
     <g id="line2d_40">
      <g>
       <use xlink:href="#mc232d697cd" x="340.629939" y="501.3525" style="stroke: #000000; stroke-width: 0.6"/>
      </g>
     </g>
    </g>
    <g id="xtick_21">
     <g id="line2d_41">
      <path d="M 357.18917 501.3525 
L 357.18917 57.8325 
" clip-path="url(#paff2efca89)" style="fill: none; stroke-dasharray: 1.85,0.8; stroke-dashoffset: 0; stroke: #b0b0b0; stroke-opacity: 0.8; stroke-width: 0.5"/>
     </g>
     <g id="line2d_42">
      <g>
       <use xlink:href="#mc232d697cd" x="357.18917" y="501.3525" style="stroke: #000000; stroke-width: 0.6"/>
      </g>
     </g>
    </g>
    <g id="xtick_22">
     <g id="line2d_43">
      <path d="M 390.307633 501.3525 
L 390.307633 57.8325 
" clip-path="url(#paff2efca89)" style="fill: none; stroke-dasharray: 1.85,0.8; stroke-dashoffset: 0; stroke: #b0b0b0; stroke-opacity: 0.8; stroke-width: 0.5"/>
     </g>
     <g id="line2d_44">
      <g>
       <use xlink:href="#mc232d697cd" x="390.307633" y="501.3525" style="stroke: #000000; stroke-width: 0.6"/>
      </g>
     </g>
    </g>
    <g id="xtick_23">
     <g id="line2d_45">
      <path d="M 406.866864 501.3525 
L 406.866864 57.8325 
" clip-path="url(#paff2efca89)" style="fill: none; stroke-dasharray: 1.85,0.8; stroke-dashoffset: 0; stroke: #b0b0b0; stroke-opacity: 0.8; stroke-width: 0.5"/>
     </g>
     <g id="line2d_46">
      <g>
       <use xlink:href="#mc232d697cd" x="406.866864" y="501.3525" style="stroke: #000000; stroke-width: 0.6"/>
      </g>
     </g>
    </g>
    <g id="xtick_24">
     <g id="line2d_47">
      <path d="M 423.426095 501.3525 
L 423.426095 57.8325 
" clip-path="url(#paff2efca89)" style="fill: none; stroke-dasharray: 1.85,0.8; stroke-dashoffset: 0; stroke: #b0b0b0; stroke-opacity: 0.8; stroke-width: 0.5"/>
     </g>
     <g id="line2d_48">
      <g>
       <use xlink:href="#mc232d697cd" x="423.426095" y="501.3525" style="stroke: #000000; stroke-width: 0.6"/>
      </g>
     </g>
    </g>
    <g id="xtick_25">
     <g id="line2d_49">
      <path d="M 439.985326 501.3525 
L 439.985326 57.8325 
" clip-path="url(#paff2efca89)" style="fill: none; stroke-dasharray: 1.85,0.8; stroke-dashoffset: 0; stroke: #b0b0b0; stroke-opacity: 0.8; stroke-width: 0.5"/>
     </g>
     <g id="line2d_50">
      <g>
       <use xlink:href="#mc232d697cd" x="439.985326" y="501.3525" style="stroke: #000000; stroke-width: 0.6"/>
      </g>
     </g>
    </g>
    <g id="xtick_26">
     <g id="line2d_51">
      <path d="M 473.103788 501.3525 
L 473.103788 57.8325 
" clip-path="url(#paff2efca89)" style="fill: none; stroke-dasharray: 1.85,0.8; stroke-dashoffset: 0; stroke: #b0b0b0; stroke-opacity: 0.8; stroke-width: 0.5"/>
     </g>
     <g id="line2d_52">
      <g>
       <use xlink:href="#mc232d697cd" x="473.103788" y="501.3525" style="stroke: #000000; stroke-width: 0.6"/>
      </g>
     </g>
    </g>
    <g id="xtick_27">
     <g id="line2d_53">
      <path d="M 489.66302 501.3525 
L 489.66302 57.8325 
" clip-path="url(#paff2efca89)" style="fill: none; stroke-dasharray: 1.85,0.8; stroke-dashoffset: 0; stroke: #b0b0b0; stroke-opacity: 0.8; stroke-width: 0.5"/>
     </g>
     <g id="line2d_54">
      <g>
       <use xlink:href="#mc232d697cd" x="489.66302" y="501.3525" style="stroke: #000000; stroke-width: 0.6"/>
      </g>
     </g>
    </g>
    <g id="xtick_28">
     <g id="line2d_55">
      <path d="M 506.222251 501.3525 
L 506.222251 57.8325 
" clip-path="url(#paff2efca89)" style="fill: none; stroke-dasharray: 1.85,0.8; stroke-dashoffset: 0; stroke: #b0b0b0; stroke-opacity: 0.8; stroke-width: 0.5"/>
     </g>
     <g id="line2d_56">
      <g>
       <use xlink:href="#mc232d697cd" x="506.222251" y="501.3525" style="stroke: #000000; stroke-width: 0.6"/>
      </g>
     </g>
    </g>
    <g id="xtick_29">
     <g id="line2d_57">
      <path d="M 522.781482 501.3525 
L 522.781482 57.8325 
" clip-path="url(#paff2efca89)" style="fill: none; stroke-dasharray: 1.85,0.8; stroke-dashoffset: 0; stroke: #b0b0b0; stroke-opacity: 0.8; stroke-width: 0.5"/>
     </g>
     <g id="line2d_58">
      <g>
       <use xlink:href="#mc232d697cd" x="522.781482" y="501.3525" style="stroke: #000000; stroke-width: 0.6"/>
      </g>
     </g>
    </g>
    <g id="xtick_30">
     <g id="line2d_59">
      <path d="M 555.899944 501.3525 
L 555.899944 57.8325 
" clip-path="url(#paff2efca89)" style="fill: none; stroke-dasharray: 1.85,0.8; stroke-dashoffset: 0; stroke: #b0b0b0; stroke-opacity: 0.8; stroke-width: 0.5"/>
     </g>
     <g id="line2d_60">
      <g>
       <use xlink:href="#mc232d697cd" x="555.899944" y="501.3525" style="stroke: #000000; stroke-width: 0.6"/>
      </g>
     </g>
    </g>
    <g id="xtick_31">
     <g id="line2d_61">
      <path d="M 572.459175 501.3525 
L 572.459175 57.8325 
" clip-path="url(#paff2efca89)" style="fill: none; stroke-dasharray: 1.85,0.8; stroke-dashoffset: 0; stroke: #b0b0b0; stroke-opacity: 0.8; stroke-width: 0.5"/>
     </g>
     <g id="line2d_62">
      <g>
       <use xlink:href="#mc232d697cd" x="572.459175" y="501.3525" style="stroke: #000000; stroke-width: 0.6"/>
      </g>
     </g>
    </g>
    <g id="xtick_32">
     <g id="line2d_63">
      <path d="M 589.018407 501.3525 
L 589.018407 57.8325 
" clip-path="url(#paff2efca89)" style="fill: none; stroke-dasharray: 1.85,0.8; stroke-dashoffset: 0; stroke: #b0b0b0; stroke-opacity: 0.8; stroke-width: 0.5"/>
     </g>
     <g id="line2d_64">
      <g>
       <use xlink:href="#mc232d697cd" x="589.018407" y="501.3525" style="stroke: #000000; stroke-width: 0.6"/>
      </g>
     </g>
    </g>
    <g id="xtick_33">
     <g id="line2d_65">
      <path d="M 605.577638 501.3525 
L 605.577638 57.8325 
" clip-path="url(#paff2efca89)" style="fill: none; stroke-dasharray: 1.85,0.8; stroke-dashoffset: 0; stroke: #b0b0b0; stroke-opacity: 0.8; stroke-width: 0.5"/>
     </g>
     <g id="line2d_66">
      <g>
       <use xlink:href="#mc232d697cd" x="605.577638" y="501.3525" style="stroke: #000000; stroke-width: 0.6"/>
      </g>
     </g>
    </g>
    <g id="xtick_34">
     <g id="line2d_67">
      <path d="M 638.6961 501.3525 
L 638.6961 57.8325 
" clip-path="url(#paff2efca89)" style="fill: none; stroke-dasharray: 1.85,0.8; stroke-dashoffset: 0; stroke: #b0b0b0; stroke-opacity: 0.8; stroke-width: 0.5"/>
     </g>
     <g id="line2d_68">
      <g>
       <use xlink:href="#mc232d697cd" x="638.6961" y="501.3525" style="stroke: #000000; stroke-width: 0.6"/>
      </g>
     </g>
    </g>
    <g id="xtick_35">
     <g id="line2d_69">
      <path d="M 655.255331 501.3525 
L 655.255331 57.8325 
" clip-path="url(#paff2efca89)" style="fill: none; stroke-dasharray: 1.85,0.8; stroke-dashoffset: 0; stroke: #b0b0b0; stroke-opacity: 0.8; stroke-width: 0.5"/>
     </g>
     <g id="line2d_70">
      <g>
       <use xlink:href="#mc232d697cd" x="655.255331" y="501.3525" style="stroke: #000000; stroke-width: 0.6"/>
      </g>
     </g>
    </g>
    <g id="xtick_36">
     <g id="line2d_71">
      <path d="M 671.814562 501.3525 
L 671.814562 57.8325 
" clip-path="url(#paff2efca89)" style="fill: none; stroke-dasharray: 1.85,0.8; stroke-dashoffset: 0; stroke: #b0b0b0; stroke-opacity: 0.8; stroke-width: 0.5"/>
     </g>
     <g id="line2d_72">
      <g>
       <use xlink:href="#mc232d697cd" x="671.814562" y="501.3525" style="stroke: #000000; stroke-width: 0.6"/>
      </g>
     </g>
    </g>
    <g id="xtick_37">
     <g id="line2d_73">
      <path d="M 688.373793 501.3525 
L 688.373793 57.8325 
" clip-path="url(#paff2efca89)" style="fill: none; stroke-dasharray: 1.85,0.8; stroke-dashoffset: 0; stroke: #b0b0b0; stroke-opacity: 0.8; stroke-width: 0.5"/>
     </g>
     <g id="line2d_74">
      <g>
       <use xlink:href="#mc232d697cd" x="688.373793" y="501.3525" style="stroke: #000000; stroke-width: 0.6"/>
      </g>
     </g>
    </g>
    <g id="xtick_38">
     <g id="line2d_75">
      <path d="M 721.492256 501.3525 
L 721.492256 57.8325 
" clip-path="url(#paff2efca89)" style="fill: none; stroke-dasharray: 1.85,0.8; stroke-dashoffset: 0; stroke: #b0b0b0; stroke-opacity: 0.8; stroke-width: 0.5"/>
     </g>
     <g id="line2d_76">
      <g>
       <use xlink:href="#mc232d697cd" x="721.492256" y="501.3525" style="stroke: #000000; stroke-width: 0.6"/>
      </g>
     </g>
    </g>
    <g id="xtick_39">
     <g id="line2d_77">
      <path d="M 738.051487 501.3525 
L 738.051487 57.8325 
" clip-path="url(#paff2efca89)" style="fill: none; stroke-dasharray: 1.85,0.8; stroke-dashoffset: 0; stroke: #b0b0b0; stroke-opacity: 0.8; stroke-width: 0.5"/>
     </g>
     <g id="line2d_78">
      <g>
       <use xlink:href="#mc232d697cd" x="738.051487" y="501.3525" style="stroke: #000000; stroke-width: 0.6"/>
      </g>
     </g>
    </g>
    <g id="xtick_40">
     <g id="line2d_79">
      <path d="M 754.610718 501.3525 
L 754.610718 57.8325 
" clip-path="url(#paff2efca89)" style="fill: none; stroke-dasharray: 1.85,0.8; stroke-dashoffset: 0; stroke: #b0b0b0; stroke-opacity: 0.8; stroke-width: 0.5"/>
     </g>
     <g id="line2d_80">
      <g>
       <use xlink:href="#mc232d697cd" x="754.610718" y="501.3525" style="stroke: #000000; stroke-width: 0.6"/>
      </g>
     </g>
    </g>
    <g id="text_9">
     <!-- Time (S) -->
     <g transform="translate(396.990625 542.305625) scale(0.2 -0.2)">
      <defs>
       <path id="AptosDisplay-54" d="M 1244 0 
L 1244 3734 
L 50 3734 
L 50 4206 
L 2997 4206 
L 2997 3734 
L 1806 3734 
L 1806 0 
L 1244 0 
z
" transform="scale(0.015625)"/>
       <path id="AptosDisplay-69" d="M 413 0 
L 413 3044 
L 934 3044 
L 934 0 
L 413 0 
z
M 675 3616 
Q 525 3616 437 3702 
Q 350 3788 350 3919 
Q 350 4050 437 4136 
Q 525 4222 675 4222 
Q 822 4222 912 4136 
Q 1003 4050 1003 3919 
Q 1003 3788 912 3702 
Q 822 3616 675 3616 
z
" transform="scale(0.015625)"/>
       <path id="AptosDisplay-6d" d="M 413 0 
L 413 3044 
L 919 3044 
L 931 2575 
Q 1063 2756 1303 2914 
Q 1544 3072 1903 3072 
Q 2403 3072 2618 2778 
Q 2834 2484 2834 1963 
L 2834 0 
L 2316 0 
L 2316 1891 
Q 2316 2106 2275 2275 
Q 2234 2444 2120 2539 
Q 2006 2634 1788 2634 
Q 1488 2634 1277 2482 
Q 1066 2331 934 2156 
L 934 0 
L 413 0 
z
M 4206 0 
L 4206 1891 
Q 4206 2106 4164 2275 
Q 4122 2444 4009 2539 
Q 3897 2634 3681 2634 
Q 3381 2634 3165 2484 
Q 2950 2334 2822 2159 
L 2744 2544 
Q 2916 2741 3175 2906 
Q 3434 3072 3800 3072 
Q 4291 3072 4509 2778 
Q 4728 2484 4728 1963 
L 4728 0 
L 4206 0 
z
" transform="scale(0.015625)"/>
       <path id="AptosDisplay-65" d="M 1663 -56 
Q 1188 -56 878 151 
Q 569 359 417 717 
Q 266 1075 266 1522 
Q 266 1988 412 2342 
Q 559 2697 857 2897 
Q 1156 3097 1606 3097 
Q 2209 3097 2550 2722 
Q 2891 2347 2891 1644 
Q 2891 1597 2889 1533 
Q 2888 1469 2881 1441 
L 791 1441 
Q 794 1144 881 895 
Q 969 647 1161 497 
Q 1353 347 1663 347 
Q 1997 347 2183 511 
Q 2369 675 2378 984 
L 2894 984 
Q 2884 663 2732 430 
Q 2581 197 2309 70 
Q 2038 -56 1663 -56 
z
M 794 1822 
L 2375 1822 
Q 2366 2247 2166 2472 
Q 1966 2697 1606 2697 
Q 1241 2697 1036 2473 
Q 831 2250 794 1822 
z
" transform="scale(0.015625)"/>
       <path id="AptosDisplay-20" transform="scale(0.015625)"/>
       <path id="AptosDisplay-28" d="M 1219 -1116 
Q 969 -678 787 -267 
Q 606 144 511 581 
Q 416 1019 416 1528 
Q 416 2028 509 2486 
Q 603 2944 783 3378 
Q 963 3813 1219 4231 
L 1647 4231 
Q 1278 3600 1101 2886 
Q 925 2172 925 1428 
Q 925 766 1125 103 
Q 1325 -559 1647 -1116 
L 1219 -1116 
z
" transform="scale(0.015625)"/>
       <path id="AptosDisplay-53" d="M 1778 -56 
Q 1328 -56 962 81 
Q 597 219 384 512 
Q 172 806 172 1275 
L 734 1275 
Q 738 941 883 750 
Q 1028 559 1267 481 
Q 1506 403 1794 403 
Q 2063 403 2283 483 
Q 2503 563 2634 723 
Q 2766 884 2766 1134 
Q 2766 1356 2662 1497 
Q 2559 1638 2321 1742 
Q 2084 1847 1678 1950 
Q 1203 2075 897 2223 
Q 591 2372 442 2594 
Q 294 2816 294 3156 
Q 294 3516 462 3761 
Q 631 4006 945 4134 
Q 1259 4263 1697 4263 
Q 2103 4263 2440 4131 
Q 2778 4000 2979 3737 
Q 3181 3475 3181 3084 
L 2616 3084 
Q 2622 3441 2356 3623 
Q 2091 3806 1700 3806 
Q 1300 3806 1073 3645 
Q 847 3484 847 3175 
Q 847 2991 944 2867 
Q 1041 2744 1280 2644 
Q 1519 2544 1941 2434 
Q 2428 2303 2731 2153 
Q 3034 2003 3178 1768 
Q 3322 1534 3322 1153 
Q 3322 747 3117 480 
Q 2913 213 2564 78 
Q 2216 -56 1778 -56 
z
" transform="scale(0.015625)"/>
       <path id="AptosDisplay-29" d="M 234 -1116 
Q 609 -481 786 233 
Q 963 947 963 1694 
Q 963 2356 759 3015 
Q 556 3675 234 4231 
L 663 4231 
Q 919 3800 1098 3389 
Q 1278 2978 1373 2540 
Q 1469 2103 1469 1594 
Q 1469 1094 1375 634 
Q 1281 175 1100 -259 
Q 919 -694 663 -1116 
L 234 -1116 
z
" transform="scale(0.015625)"/>
      </defs>
      <use xlink:href="#AptosDisplay-54"/>
      <use xlink:href="#AptosDisplay-69" x="47.705078"/>
      <use xlink:href="#AptosDisplay-6d" x="68.75"/>
      <use xlink:href="#AptosDisplay-65" x="148.730469"/>
      <use xlink:href="#AptosDisplay-20" x="198.144531"/>
      <use xlink:href="#AptosDisplay-28" x="217.431641"/>
      <use xlink:href="#AptosDisplay-53" x="246.875"/>
      <use xlink:href="#AptosDisplay-29" x="301.464844"/>
     </g>
    </g>
   </g>
   <g id="matplotlib.axis_2">
    <g id="ytick_1">
     <g id="line2d_81">
      <path d="M 95.28125 471.241936 
L 764.88125 471.241936 
" clip-path="url(#paff2efca89)" style="fill: none; stroke: #b0b0b0; stroke-opacity: 0.8; stroke-linecap: square"/>
     </g>
     <g id="line2d_82">
      <defs>
       <path id="m161760cda2" d="M 0 0 
L -3.5 0 
" style="stroke: #000000; stroke-width: 0.8"/>
      </defs>
      <g>
       <use xlink:href="#m161760cda2" x="95.28125" y="471.241936" style="stroke: #000000; stroke-width: 0.8"/>
      </g>
     </g>
     <g id="text_10">
      <!-- 860 -->
      <g transform="translate(56.903125 477.813811) scale(0.2 -0.2)">
       <defs>
        <path id="AptosDisplay-38" d="M 1675 -56 
Q 1391 -56 1137 16 
Q 884 88 686 234 
Q 488 381 373 606 
Q 259 831 259 1141 
Q 259 1531 495 1797 
Q 731 2063 1084 2150 
Q 781 2250 604 2490 
Q 428 2731 428 3081 
Q 428 3447 609 3681 
Q 791 3916 1075 4025 
Q 1359 4134 1669 4134 
Q 1981 4134 2265 4023 
Q 2550 3913 2733 3680 
Q 2916 3447 2916 3081 
Q 2916 2725 2716 2481 
Q 2516 2238 2238 2150 
Q 2606 2063 2843 1800 
Q 3081 1538 3081 1141 
Q 3081 831 2968 606 
Q 2856 381 2661 234 
Q 2466 88 2211 16 
Q 1956 -56 1675 -56 
z
M 1672 388 
Q 1909 388 2109 470 
Q 2309 553 2429 725 
Q 2550 897 2550 1163 
Q 2550 1416 2426 1587 
Q 2303 1759 2104 1846 
Q 1906 1934 1672 1928 
Q 1453 1934 1253 1850 
Q 1053 1766 926 1594 
Q 800 1422 800 1163 
Q 800 775 1058 581 
Q 1316 388 1672 388 
z
M 1672 2363 
Q 1863 2356 2030 2434 
Q 2197 2513 2300 2667 
Q 2403 2822 2403 3050 
Q 2403 3388 2189 3544 
Q 1975 3700 1675 3700 
Q 1484 3700 1317 3631 
Q 1150 3563 1047 3419 
Q 944 3275 944 3050 
Q 944 2825 1048 2670 
Q 1153 2516 1320 2436 
Q 1488 2356 1672 2363 
z
" transform="scale(0.015625)"/>
        <path id="AptosDisplay-36" d="M 1759 -56 
Q 1325 -56 984 151 
Q 644 359 447 815 
Q 250 1272 250 2013 
Q 250 2738 439 3206 
Q 628 3675 968 3903 
Q 1309 4131 1759 4131 
Q 2253 4131 2595 3875 
Q 2938 3619 3034 3097 
L 2503 3097 
Q 2441 3388 2250 3534 
Q 2059 3681 1759 3681 
Q 1306 3681 1047 3279 
Q 788 2878 788 2013 
L 788 1850 
Q 788 1313 922 992 
Q 1056 672 1279 531 
Q 1503 391 1763 391 
Q 2175 391 2369 644 
Q 2563 897 2563 1272 
Q 2563 1650 2373 1869 
Q 2184 2088 1838 2088 
Q 1422 2088 1114 1897 
Q 806 1706 644 1456 
L 597 1856 
Q 728 2047 922 2201 
Q 1116 2356 1362 2447 
Q 1609 2538 1909 2538 
Q 2253 2538 2523 2395 
Q 2794 2253 2951 1975 
Q 3109 1697 3109 1291 
Q 3109 897 2951 592 
Q 2794 288 2492 116 
Q 2191 -56 1759 -56 
z
" transform="scale(0.015625)"/>
       </defs>
       <use xlink:href="#AptosDisplay-38"/>
       <use xlink:href="#AptosDisplay-36" x="52.294922"/>
       <use xlink:href="#AptosDisplay-30" x="104.589844"/>
      </g>
     </g>
    </g>
    <g id="ytick_2">
     <g id="line2d_83">
      <path d="M 95.28125 392.736499 
L 764.88125 392.736499 
" clip-path="url(#paff2efca89)" style="fill: none; stroke: #b0b0b0; stroke-opacity: 0.8; stroke-linecap: square"/>
     </g>
     <g id="line2d_84">
      <g>
       <use xlink:href="#m161760cda2" x="95.28125" y="392.736499" style="stroke: #000000; stroke-width: 0.8"/>
      </g>
     </g>
     <g id="text_11">
      <!-- 880 -->
      <g transform="translate(56.903125 399.308374) scale(0.2 -0.2)">
       <use xlink:href="#AptosDisplay-38"/>
       <use xlink:href="#AptosDisplay-38" x="52.294922"/>
       <use xlink:href="#AptosDisplay-30" x="104.589844"/>
      </g>
     </g>
    </g>
    <g id="ytick_3">
     <g id="line2d_85">
      <path d="M 95.28125 314.231062 
L 764.88125 314.231062 
" clip-path="url(#paff2efca89)" style="fill: none; stroke: #b0b0b0; stroke-opacity: 0.8; stroke-linecap: square"/>
     </g>
     <g id="line2d_86">
      <g>
       <use xlink:href="#m161760cda2" x="95.28125" y="314.231062" style="stroke: #000000; stroke-width: 0.8"/>
      </g>
     </g>
     <g id="text_12">
      <!-- 900 -->
      <g transform="translate(56.903125 320.802937) scale(0.2 -0.2)">
       <defs>
        <path id="AptosDisplay-39" d="M 1547 -56 
Q 1200 -56 926 64 
Q 653 184 481 415 
Q 309 647 256 978 
L 788 978 
Q 834 713 1029 552 
Q 1225 391 1547 391 
Q 2022 391 2294 778 
Q 2566 1166 2566 2019 
L 2566 2197 
Q 2566 2753 2439 3079 
Q 2313 3406 2102 3547 
Q 1891 3688 1634 3688 
Q 1206 3688 998 3433 
Q 791 3178 791 2800 
Q 791 2422 991 2203 
Q 1191 1984 1547 1984 
Q 1831 1984 2045 2071 
Q 2259 2159 2417 2300 
Q 2575 2441 2681 2594 
L 2731 2209 
Q 2609 2038 2432 1884 
Q 2256 1731 2020 1634 
Q 1784 1538 1484 1538 
Q 1122 1538 842 1683 
Q 563 1828 405 2108 
Q 247 2388 247 2784 
Q 247 3175 414 3479 
Q 581 3784 892 3959 
Q 1203 4134 1631 4134 
Q 2056 4134 2389 3926 
Q 2722 3719 2914 3262 
Q 3106 2806 3106 2066 
Q 3106 1338 2912 869 
Q 2719 400 2369 172 
Q 2019 -56 1547 -56 
z
" transform="scale(0.015625)"/>
       </defs>
       <use xlink:href="#AptosDisplay-39"/>
       <use xlink:href="#AptosDisplay-30" x="52.294922"/>
       <use xlink:href="#AptosDisplay-30" x="104.589844"/>
      </g>
     </g>
    </g>
    <g id="ytick_4">
     <g id="line2d_87">
      <path d="M 95.28125 235.725624 
L 764.88125 235.725624 
" clip-path="url(#paff2efca89)" style="fill: none; stroke: #b0b0b0; stroke-opacity: 0.8; stroke-linecap: square"/>
     </g>
     <g id="line2d_88">
      <g>
       <use xlink:href="#m161760cda2" x="95.28125" y="235.725624" style="stroke: #000000; stroke-width: 0.8"/>
      </g>
     </g>
     <g id="text_13">
      <!-- 920 -->
      <g transform="translate(56.903125 242.297499) scale(0.2 -0.2)">
       <use xlink:href="#AptosDisplay-39"/>
       <use xlink:href="#AptosDisplay-32" x="52.294922"/>
       <use xlink:href="#AptosDisplay-30" x="104.589844"/>
      </g>
     </g>
    </g>
    <g id="ytick_5">
     <g id="line2d_89">
      <path d="M 95.28125 157.220187 
L 764.88125 157.220187 
" clip-path="url(#paff2efca89)" style="fill: none; stroke: #b0b0b0; stroke-opacity: 0.8; stroke-linecap: square"/>
     </g>
     <g id="line2d_90">
      <g>
       <use xlink:href="#m161760cda2" x="95.28125" y="157.220187" style="stroke: #000000; stroke-width: 0.8"/>
      </g>
     </g>
     <g id="text_14">
      <!-- 940 -->
      <g transform="translate(56.903125 163.792062) scale(0.2 -0.2)">
       <defs>
        <path id="AptosDisplay-34" d="M 2106 0 
L 2106 825 
L 125 825 
L 125 1297 
L 2100 4103 
L 2631 4103 
L 2631 1284 
L 3191 1284 
L 3191 825 
L 2631 825 
L 2631 0 
L 2106 0 
z
M 638 1284 
L 2113 1284 
L 2113 3369 
L 638 1284 
z
" transform="scale(0.015625)"/>
       </defs>
       <use xlink:href="#AptosDisplay-39"/>
       <use xlink:href="#AptosDisplay-34" x="52.294922"/>
       <use xlink:href="#AptosDisplay-30" x="104.589844"/>
      </g>
     </g>
    </g>
    <g id="ytick_6">
     <g id="line2d_91">
      <path d="M 95.28125 78.71475 
L 764.88125 78.71475 
" clip-path="url(#paff2efca89)" style="fill: none; stroke: #b0b0b0; stroke-opacity: 0.8; stroke-linecap: square"/>
     </g>
     <g id="line2d_92">
      <g>
       <use xlink:href="#m161760cda2" x="95.28125" y="78.71475" style="stroke: #000000; stroke-width: 0.8"/>
      </g>
     </g>
     <g id="text_15">
      <!-- 960 -->
      <g transform="translate(56.903125 85.286625) scale(0.2 -0.2)">
       <use xlink:href="#AptosDisplay-39"/>
       <use xlink:href="#AptosDisplay-36" x="52.294922"/>
       <use xlink:href="#AptosDisplay-30" x="104.589844"/>
      </g>
     </g>
    </g>
    <g id="ytick_7">
     <g id="line2d_93">
      <path d="M 95.28125 490.868295 
L 764.88125 490.868295 
" clip-path="url(#paff2efca89)" style="fill: none; stroke-dasharray: 1.85,0.8; stroke-dashoffset: 0; stroke: #b0b0b0; stroke-opacity: 0.8; stroke-width: 0.5"/>
     </g>
     <g id="line2d_94">
      <defs>
       <path id="m811d121982" d="M 0 0 
L -2 0 
" style="stroke: #000000; stroke-width: 0.6"/>
      </defs>
      <g>
       <use xlink:href="#m811d121982" x="95.28125" y="490.868295" style="stroke: #000000; stroke-width: 0.6"/>
      </g>
     </g>
    </g>
    <g id="ytick_8">
     <g id="line2d_95">
      <path d="M 95.28125 451.615577 
L 764.88125 451.615577 
" clip-path="url(#paff2efca89)" style="fill: none; stroke-dasharray: 1.85,0.8; stroke-dashoffset: 0; stroke: #b0b0b0; stroke-opacity: 0.8; stroke-width: 0.5"/>
     </g>
     <g id="line2d_96">
      <g>
       <use xlink:href="#m811d121982" x="95.28125" y="451.615577" style="stroke: #000000; stroke-width: 0.6"/>
      </g>
     </g>
    </g>
    <g id="ytick_9">
     <g id="line2d_97">
      <path d="M 95.28125 431.989217 
L 764.88125 431.989217 
" clip-path="url(#paff2efca89)" style="fill: none; stroke-dasharray: 1.85,0.8; stroke-dashoffset: 0; stroke: #b0b0b0; stroke-opacity: 0.8; stroke-width: 0.5"/>
     </g>
     <g id="line2d_98">
      <g>
       <use xlink:href="#m811d121982" x="95.28125" y="431.989217" style="stroke: #000000; stroke-width: 0.6"/>
      </g>
     </g>
    </g>
    <g id="ytick_10">
     <g id="line2d_99">
      <path d="M 95.28125 412.362858 
L 764.88125 412.362858 
" clip-path="url(#paff2efca89)" style="fill: none; stroke-dasharray: 1.85,0.8; stroke-dashoffset: 0; stroke: #b0b0b0; stroke-opacity: 0.8; stroke-width: 0.5"/>
     </g>
     <g id="line2d_100">
      <g>
       <use xlink:href="#m811d121982" x="95.28125" y="412.362858" style="stroke: #000000; stroke-width: 0.6"/>
      </g>
     </g>
    </g>
    <g id="ytick_11">
     <g id="line2d_101">
      <path d="M 95.28125 373.110139 
L 764.88125 373.110139 
" clip-path="url(#paff2efca89)" style="fill: none; stroke-dasharray: 1.85,0.8; stroke-dashoffset: 0; stroke: #b0b0b0; stroke-opacity: 0.8; stroke-width: 0.5"/>
     </g>
     <g id="line2d_102">
      <g>
       <use xlink:href="#m811d121982" x="95.28125" y="373.110139" style="stroke: #000000; stroke-width: 0.6"/>
      </g>
     </g>
    </g>
    <g id="ytick_12">
     <g id="line2d_103">
      <path d="M 95.28125 353.48378 
L 764.88125 353.48378 
" clip-path="url(#paff2efca89)" style="fill: none; stroke-dasharray: 1.85,0.8; stroke-dashoffset: 0; stroke: #b0b0b0; stroke-opacity: 0.8; stroke-width: 0.5"/>
     </g>
     <g id="line2d_104">
      <g>
       <use xlink:href="#m811d121982" x="95.28125" y="353.48378" style="stroke: #000000; stroke-width: 0.6"/>
      </g>
     </g>
    </g>
    <g id="ytick_13">
     <g id="line2d_105">
      <path d="M 95.28125 333.857421 
L 764.88125 333.857421 
" clip-path="url(#paff2efca89)" style="fill: none; stroke-dasharray: 1.85,0.8; stroke-dashoffset: 0; stroke: #b0b0b0; stroke-opacity: 0.8; stroke-width: 0.5"/>
     </g>
     <g id="line2d_106">
      <g>
       <use xlink:href="#m811d121982" x="95.28125" y="333.857421" style="stroke: #000000; stroke-width: 0.6"/>
      </g>
     </g>
    </g>
    <g id="ytick_14">
     <g id="line2d_107">
      <path d="M 95.28125 294.604702 
L 764.88125 294.604702 
" clip-path="url(#paff2efca89)" style="fill: none; stroke-dasharray: 1.85,0.8; stroke-dashoffset: 0; stroke: #b0b0b0; stroke-opacity: 0.8; stroke-width: 0.5"/>
     </g>
     <g id="line2d_108">
      <g>
       <use xlink:href="#m811d121982" x="95.28125" y="294.604702" style="stroke: #000000; stroke-width: 0.6"/>
      </g>
     </g>
    </g>
    <g id="ytick_15">
     <g id="line2d_109">
      <path d="M 95.28125 274.978343 
L 764.88125 274.978343 
" clip-path="url(#paff2efca89)" style="fill: none; stroke-dasharray: 1.85,0.8; stroke-dashoffset: 0; stroke: #b0b0b0; stroke-opacity: 0.8; stroke-width: 0.5"/>
     </g>
     <g id="line2d_110">
      <g>
       <use xlink:href="#m811d121982" x="95.28125" y="274.978343" style="stroke: #000000; stroke-width: 0.6"/>
      </g>
     </g>
    </g>
    <g id="ytick_16">
     <g id="line2d_111">
      <path d="M 95.28125 255.351984 
L 764.88125 255.351984 
" clip-path="url(#paff2efca89)" style="fill: none; stroke-dasharray: 1.85,0.8; stroke-dashoffset: 0; stroke: #b0b0b0; stroke-opacity: 0.8; stroke-width: 0.5"/>
     </g>
     <g id="line2d_112">
      <g>
       <use xlink:href="#m811d121982" x="95.28125" y="255.351984" style="stroke: #000000; stroke-width: 0.6"/>
      </g>
     </g>
    </g>
    <g id="ytick_17">
     <g id="line2d_113">
      <path d="M 95.28125 216.099265 
L 764.88125 216.099265 
" clip-path="url(#paff2efca89)" style="fill: none; stroke-dasharray: 1.85,0.8; stroke-dashoffset: 0; stroke: #b0b0b0; stroke-opacity: 0.8; stroke-width: 0.5"/>
     </g>
     <g id="line2d_114">
      <g>
       <use xlink:href="#m811d121982" x="95.28125" y="216.099265" style="stroke: #000000; stroke-width: 0.6"/>
      </g>
     </g>
    </g>
    <g id="ytick_18">
     <g id="line2d_115">
      <path d="M 95.28125 196.472906 
L 764.88125 196.472906 
" clip-path="url(#paff2efca89)" style="fill: none; stroke-dasharray: 1.85,0.8; stroke-dashoffset: 0; stroke: #b0b0b0; stroke-opacity: 0.8; stroke-width: 0.5"/>
     </g>
     <g id="line2d_116">
      <g>
       <use xlink:href="#m811d121982" x="95.28125" y="196.472906" style="stroke: #000000; stroke-width: 0.6"/>
      </g>
     </g>
    </g>
    <g id="ytick_19">
     <g id="line2d_117">
      <path d="M 95.28125 176.846546 
L 764.88125 176.846546 
" clip-path="url(#paff2efca89)" style="fill: none; stroke-dasharray: 1.85,0.8; stroke-dashoffset: 0; stroke: #b0b0b0; stroke-opacity: 0.8; stroke-width: 0.5"/>
     </g>
     <g id="line2d_118">
      <g>
       <use xlink:href="#m811d121982" x="95.28125" y="176.846546" style="stroke: #000000; stroke-width: 0.6"/>
      </g>
     </g>
    </g>
    <g id="ytick_20">
     <g id="line2d_119">
      <path d="M 95.28125 137.593828 
L 764.88125 137.593828 
" clip-path="url(#paff2efca89)" style="fill: none; stroke-dasharray: 1.85,0.8; stroke-dashoffset: 0; stroke: #b0b0b0; stroke-opacity: 0.8; stroke-width: 0.5"/>
     </g>
     <g id="line2d_120">
      <g>
       <use xlink:href="#m811d121982" x="95.28125" y="137.593828" style="stroke: #000000; stroke-width: 0.6"/>
      </g>
     </g>
    </g>
    <g id="ytick_21">
     <g id="line2d_121">
      <path d="M 95.28125 117.967469 
L 764.88125 117.967469 
" clip-path="url(#paff2efca89)" style="fill: none; stroke-dasharray: 1.85,0.8; stroke-dashoffset: 0; stroke: #b0b0b0; stroke-opacity: 0.8; stroke-width: 0.5"/>
     </g>
     <g id="line2d_122">
      <g>
       <use xlink:href="#m811d121982" x="95.28125" y="117.967469" style="stroke: #000000; stroke-width: 0.6"/>
      </g>
     </g>
    </g>
    <g id="ytick_22">
     <g id="line2d_123">
      <path d="M 95.28125 98.341109 
L 764.88125 98.341109 
" clip-path="url(#paff2efca89)" style="fill: none; stroke-dasharray: 1.85,0.8; stroke-dashoffset: 0; stroke: #b0b0b0; stroke-opacity: 0.8; stroke-width: 0.5"/>
     </g>
     <g id="line2d_124">
      <g>
       <use xlink:href="#m811d121982" x="95.28125" y="98.341109" style="stroke: #000000; stroke-width: 0.6"/>
      </g>
     </g>
    </g>
    <g id="ytick_23">
     <g id="line2d_125">
      <path d="M 95.28125 59.088391 
L 764.88125 59.088391 
" clip-path="url(#paff2efca89)" style="fill: none; stroke-dasharray: 1.85,0.8; stroke-dashoffset: 0; stroke: #b0b0b0; stroke-opacity: 0.8; stroke-width: 0.5"/>
     </g>
     <g id="line2d_126">
      <g>
       <use xlink:href="#m811d121982" x="95.28125" y="59.088391" style="stroke: #000000; stroke-width: 0.6"/>
      </g>
     </g>
    </g>
    <g id="text_16">
     <!-- Light (W/m^2) -->
     <g transform="translate(49.221875 337.558125) rotate(-90) scale(0.2 -0.2)">
      <defs>
       <path id="AptosDisplay-4c" d="M 472 0 
L 472 4206 
L 1034 4206 
L 1034 484 
L 3000 484 
L 3000 0 
L 472 0 
z
" transform="scale(0.015625)"/>
       <path id="AptosDisplay-67" d="M 1397 -1178 
Q 925 -1178 640 -1065 
Q 356 -953 229 -765 
Q 103 -578 103 -359 
Q 103 -94 329 112 
Q 556 319 1031 403 
L 1128 575 
L 1475 575 
Q 2184 575 2489 376 
Q 2794 178 2794 -238 
Q 2794 -650 2437 -914 
Q 2081 -1178 1397 -1178 
z
M 1384 -800 
Q 1878 -800 2086 -650 
Q 2294 -500 2294 -278 
Q 2294 -147 2225 -51 
Q 2156 44 1975 97 
Q 1794 150 1456 150 
L 1034 150 
Q 819 97 708 -31 
Q 597 -159 597 -328 
Q 597 -516 778 -658 
Q 959 -800 1384 -800 
z
M 1025 216 
Q 722 228 550 312 
Q 378 397 306 511 
Q 234 625 234 722 
Q 234 866 362 1009 
Q 491 1153 772 1241 
L 1038 1069 
Q 866 1031 772 953 
Q 678 875 678 791 
Q 678 731 734 682 
Q 791 634 928 606 
Q 1066 578 1303 575 
L 1025 216 
z
M 1363 984 
Q 1003 984 753 1128 
Q 503 1272 375 1509 
Q 247 1747 247 2022 
Q 247 2313 376 2550 
Q 506 2788 754 2928 
Q 1003 3069 1366 3069 
Q 1738 3069 1983 2928 
Q 2228 2788 2351 2550 
Q 2475 2313 2475 2022 
Q 2475 1741 2350 1505 
Q 2225 1269 1979 1126 
Q 1734 984 1363 984 
z
M 1366 1341 
Q 1641 1341 1812 1512 
Q 1984 1684 1984 2022 
Q 1984 2375 1817 2545 
Q 1650 2716 1372 2716 
Q 1094 2716 919 2541 
Q 744 2366 744 2025 
Q 744 1681 931 1511 
Q 1119 1341 1366 1341 
z
M 2131 2734 
L 1922 2931 
Q 2038 3225 2252 3331 
Q 2466 3438 2794 3447 
L 2794 3006 
Q 2588 3006 2416 2961 
Q 2244 2916 2131 2734 
z
" transform="scale(0.015625)"/>
       <path id="AptosDisplay-68" d="M 413 0 
L 413 4206 
L 931 4206 
L 931 2575 
Q 1069 2756 1317 2914 
Q 1566 3072 1950 3072 
Q 2428 3072 2637 2783 
Q 2847 2494 2847 1963 
L 2847 0 
L 2328 0 
L 2328 1891 
Q 2328 2106 2287 2275 
Q 2247 2444 2139 2539 
Q 2031 2634 1822 2634 
Q 1503 2634 1284 2482 
Q 1066 2331 934 2156 
L 934 0 
L 413 0 
z
" transform="scale(0.015625)"/>
       <path id="AptosDisplay-74" d="M 1466 0 
Q 1100 0 901 117 
Q 703 234 629 454 
Q 556 675 556 984 
L 556 2622 
L 50 2622 
L 50 3044 
L 556 3044 
L 556 3741 
L 1078 3741 
L 1078 3044 
L 1831 3044 
L 1831 2622 
L 1078 2622 
L 1078 1009 
Q 1078 725 1151 575 
Q 1225 425 1500 425 
L 1831 425 
L 1831 0 
L 1466 0 
z
" transform="scale(0.015625)"/>
       <path id="AptosDisplay-57" d="M 1216 0 
L -13 4206 
L 575 4206 
L 1525 697 
L 2531 4206 
L 3156 4206 
L 4163 697 
L 5119 4206 
L 5681 4206 
L 4453 0 
L 3866 0 
L 2831 3556 
L 1813 0 
L 1216 0 
z
" transform="scale(0.015625)"/>
       <path id="AptosDisplay-2f" d="M 72 0 
L 1603 4206 
L 2100 4206 
L 569 0 
L 72 0 
z
" transform="scale(0.015625)"/>
       <path id="AptosDisplay-5e" d="M 428 2438 
L 1459 4206 
L 1884 4206 
L 2916 2438 
L 2366 2438 
L 1672 3650 
L 978 2438 
L 428 2438 
z
" transform="scale(0.015625)"/>
      </defs>
      <use xlink:href="#AptosDisplay-4c"/>
      <use xlink:href="#AptosDisplay-69" x="48.4375"/>
      <use xlink:href="#AptosDisplay-67" x="69.482422"/>
      <use xlink:href="#AptosDisplay-68" x="113.427734"/>
      <use xlink:href="#AptosDisplay-74" x="164.013672"/>
      <use xlink:href="#AptosDisplay-20" x="194.384766"/>
      <use xlink:href="#AptosDisplay-28" x="213.671875"/>
      <use xlink:href="#AptosDisplay-57" x="243.115234"/>
      <use xlink:href="#AptosDisplay-2f" x="331.689453"/>
      <use xlink:href="#AptosDisplay-6d" x="365.625"/>
      <use xlink:href="#AptosDisplay-5e" x="445.605469"/>
      <use xlink:href="#AptosDisplay-32" x="497.900391"/>
      <use xlink:href="#AptosDisplay-29" x="550.195312"/>
     </g>
    </g>
   </g>
   <g id="line2d_127">
    <path d="M 125.717614 232.004467 
L 126.379983 237.197601 
L 127.042352 204.315599 
L 127.704721 219.891078 
L 128.367091 259.693334 
L 129.02946 256.231245 
L 129.691829 268.344633 
L 130.354198 264.882544 
L 131.016568 271.806723 
L 132.341306 268.344633 
L 133.003675 245.8489 
L 133.666045 271.806723 
L 134.328414 257.962289 
L 134.990783 264.882544 
L 135.653152 268.344633 
L 136.315522 268.344633 
L 136.977891 273.537768 
L 137.64026 276.995933 
L 138.302629 270.075678 
L 138.964999 273.537768 
L 139.627368 270.075678 
L 140.289737 275.268813 
L 140.952106 259.693334 
L 141.614476 337.562877 
L 142.276845 341.024967 
L 142.942526 276.995933 
L 143.604895 268.344633 
L 144.267264 315.067144 
L 144.929634 273.537768 
L 145.592003 275.268813 
L 146.254372 273.537768 
L 146.916741 278.726978 
L 147.579111 280.458022 
L 148.24148 296.033501 
L 148.903849 282.189067 
L 149.566218 292.571411 
L 150.228588 289.109322 
L 150.890957 270.075678 
L 151.553326 289.109322 
L 152.215695 299.495591 
L 153.540434 299.495591 
L 154.202803 296.033501 
L 154.865172 308.14689 
L 156.189911 290.840367 
L 156.85228 302.953755 
L 158.177019 283.920112 
L 158.839388 278.726978 
L 159.501757 282.189067 
L 160.164126 268.344633 
L 160.826496 276.995933 
L 161.488865 275.268813 
L 162.151234 268.344633 
L 162.813603 275.268813 
L 163.475973 271.806723 
L 164.138342 225.084212 
L 164.800711 256.231245 
L 165.46308 257.962289 
L 166.125449 261.424379 
L 166.787819 266.613589 
L 167.450188 275.268813 
L 168.112557 254.5002 
L 168.774926 257.962289 
L 169.437296 251.042035 
L 170.099665 242.386811 
L 170.762034 244.117856 
L 171.424403 237.197601 
L 172.086773 238.928646 
L 172.749142 232.004467 
L 173.411511 240.655766 
L 174.07388 233.735512 
L 174.73625 233.735512 
L 175.398619 232.004467 
L 176.060988 226.815257 
L 176.723357 226.815257 
L 177.385727 254.5002 
L 178.048096 232.004467 
L 178.710465 226.815257 
L 179.372834 226.815257 
L 180.035204 232.004467 
L 182.022311 232.004467 
L 182.684681 211.239778 
L 183.34705 221.622123 
L 184.009419 221.622123 
L 184.671788 216.428988 
L 185.334158 221.622123 
L 185.996527 216.428988 
L 186.658896 216.428988 
L 187.321265 219.891078 
L 187.983635 212.970823 
L 188.646004 207.777689 
L 189.308373 211.239778 
L 189.970742 211.239778 
L 190.633112 81.45459 
L 191.295481 377.365134 
L 191.95785 214.701868 
L 192.620219 192.20221 
L 193.282589 214.701868 
L 193.944958 211.239778 
L 194.607327 206.046644 
L 195.269696 204.315599 
L 195.932066 209.508734 
L 196.594435 204.315599 
L 197.256804 206.046644 
L 197.919173 204.315599 
L 199.243912 207.777689 
L 199.906281 204.315599 
L 200.56865 197.395345 
L 201.23102 202.588479 
L 201.893389 187.013001 
L 202.555758 193.933255 
L 203.218127 228.542377 
L 203.880497 192.20221 
L 204.542866 181.819866 
L 205.205235 192.20221 
L 206.529974 199.12639 
L 207.192343 193.933255 
L 207.854712 278.726978 
L 208.517081 176.630657 
L 209.17945 171.437522 
L 209.84182 190.47509 
L 210.504189 187.013001 
L 211.166558 190.47509 
L 211.828927 188.744045 
L 212.491297 193.933255 
L 213.153666 197.395345 
L 213.816035 192.20221 
L 214.478404 199.12639 
L 215.140774 195.6643 
L 215.803143 195.6643 
L 216.465512 197.395345 
L 217.127881 197.395345 
L 218.45262 200.857434 
L 219.114989 195.6643 
L 219.777358 204.315599 
L 220.439728 197.395345 
L 221.102097 197.395345 
L 221.764466 193.933255 
L 222.426835 193.933255 
L 223.089205 188.744045 
L 223.751574 190.47509 
L 224.413943 187.013001 
L 225.076312 185.281956 
L 225.738682 190.47509 
L 226.401051 181.819866 
L 227.06342 185.281956 
L 227.725789 176.630657 
L 228.388159 174.899612 
L 229.050528 197.395345 
L 229.712897 171.437522 
L 230.375266 167.975432 
L 231.037636 129.908146 
L 231.700005 167.975432 
L 232.362374 166.248312 
L 233.024743 162.786223 
L 234.349482 166.248312 
L 235.011851 169.706477 
L 235.67422 169.706477 
L 236.33659 164.517268 
L 236.998959 162.786223 
L 237.661328 136.8284 
L 238.323697 171.437522 
L 238.986067 154.134924 
L 239.648436 176.630657 
L 240.310805 181.819866 
L 241.635544 171.437522 
L 242.297913 173.168567 
L 242.960282 167.975432 
L 243.622651 169.706477 
L 244.285021 162.786223 
L 244.94739 173.168567 
L 245.609759 178.361701 
L 246.272128 174.899612 
L 246.934498 178.361701 
L 247.596867 167.975432 
L 248.259236 171.437522 
L 248.921605 178.361701 
L 249.583975 178.361701 
L 250.908713 185.281956 
L 251.571082 176.630657 
L 252.233451 190.47509 
L 252.895821 187.013001 
L 253.55819 185.281956 
L 254.220559 187.013001 
L 254.882928 185.281956 
L 255.545298 202.588479 
L 256.207667 192.20221 
L 256.870036 162.786223 
L 257.532405 219.891078 
L 258.194775 199.12639 
L 258.857144 211.239778 
L 259.519513 192.20221 
L 260.181882 199.12639 
L 260.844252 200.857434 
L 261.506621 199.12639 
L 262.16899 206.046644 
L 262.831359 202.588479 
L 263.493729 206.046644 
L 264.156098 212.970823 
L 264.818467 209.508734 
L 265.480836 212.970823 
L 266.143206 207.777689 
L 266.805575 207.777689 
L 267.467944 212.970823 
L 268.130313 216.428988 
L 268.792683 211.239778 
L 269.455052 193.933255 
L 270.117421 204.315599 
L 270.77979 204.315599 
L 271.44216 195.6643 
L 272.104529 200.857434 
L 272.766898 200.857434 
L 273.429267 199.12639 
L 274.091637 174.899612 
L 274.754006 195.6643 
L 275.416375 192.20221 
L 276.078744 197.395345 
L 276.741114 197.395345 
L 277.403483 193.933255 
L 278.065852 200.857434 
L 278.728221 128.177101 
L 279.390591 145.479699 
L 280.05296 199.12639 
L 280.715329 200.857434 
L 281.377698 200.857434 
L 282.040068 195.6643 
L 282.702437 202.588479 
L 283.364806 206.046644 
L 284.689545 206.046644 
L 285.351914 200.857434 
L 286.014283 202.588479 
L 286.676652 154.134924 
L 287.339022 185.281956 
L 288.001391 188.744045 
L 288.66376 183.550911 
L 289.988499 180.088821 
L 290.650868 181.819866 
L 291.313237 176.630657 
L 291.975606 178.361701 
L 292.637976 199.12639 
L 293.300345 176.630657 
L 293.962714 173.168567 
L 294.625083 174.899612 
L 295.287452 174.899612 
L 295.949822 167.975432 
L 296.612191 173.168567 
L 297.936929 176.630657 
L 298.599299 171.437522 
L 299.261668 126.446056 
L 299.924037 169.706477 
L 300.586406 173.168567 
L 301.248776 173.168567 
L 301.911145 167.975432 
L 302.573514 136.8284 
L 303.235883 171.437522 
L 303.898253 166.248312 
L 304.560622 171.437522 
L 305.222991 167.975432 
L 305.88536 180.088821 
L 306.54773 171.437522 
L 307.210099 166.248312 
L 307.872468 162.786223 
L 308.534837 157.593088 
L 309.197207 167.975432 
L 309.859576 173.168567 
L 310.521945 171.437522 
L 311.184314 173.168567 
L 312.509053 173.168567 
L 313.171422 161.055178 
L 313.833791 180.088821 
L 314.496161 183.550911 
L 315.15853 193.933255 
L 315.820899 188.744045 
L 316.483268 195.6643 
L 317.145638 192.20221 
L 317.808007 204.315599 
L 318.470376 228.542377 
L 319.132745 211.239778 
L 319.795115 212.970823 
L 320.457484 212.970823 
L 321.119853 204.315599 
L 321.782222 206.046644 
L 322.444592 219.891078 
L 323.106961 223.353167 
L 326.418807 232.004467 
L 327.081176 240.655766 
L 327.743546 214.701868 
L 328.405915 235.466556 
L 329.068284 219.891078 
L 329.730653 181.819866 
L 330.393023 244.117856 
L 331.055392 214.701868 
L 331.717761 219.891078 
L 332.38013 211.239778 
L 333.0425 216.428988 
L 333.704869 202.588479 
L 334.367238 206.046644 
L 335.029607 202.588479 
L 336.354346 212.970823 
L 337.016715 211.239778 
L 337.679084 192.20221 
L 338.341453 211.239778 
L 339.003823 223.353167 
L 339.666192 212.970823 
L 340.328561 216.428988 
L 340.99093 216.428988 
L 341.6533 214.701868 
L 342.315669 225.084212 
L 343.640407 211.239778 
L 344.965146 218.160033 
L 345.627515 214.701868 
L 346.289884 214.701868 
L 346.952254 204.315599 
L 347.614623 212.970823 
L 348.276992 202.588479 
L 348.939361 212.970823 
L 349.601731 202.588479 
L 350.2641 197.395345 
L 350.926469 195.6643 
L 351.588838 176.630657 
L 352.251208 200.857434 
L 352.913577 192.20221 
L 353.575946 178.361701 
L 354.238315 174.899612 
L 354.900685 176.630657 
L 355.563054 162.786223 
L 356.225423 171.437522 
L 356.887792 167.975432 
L 357.550162 171.437522 
L 358.212531 157.593088 
L 358.8749 164.517268 
L 359.537269 161.055178 
L 360.199639 161.055178 
L 360.862008 178.361701 
L 361.524377 173.168567 
L 362.186746 171.437522 
L 362.849116 148.941789 
L 363.511485 183.550911 
L 364.173854 185.281956 
L 364.836223 185.281956 
L 365.498593 192.20221 
L 366.823331 181.819866 
L 367.4857 188.744045 
L 368.14807 197.395345 
L 368.810439 187.013001 
L 369.472808 188.744045 
L 370.135177 77.9925 
L 370.797547 150.672834 
L 371.459916 173.168567 
L 372.122285 190.47509 
L 372.784654 164.517268 
L 373.447024 174.899612 
L 374.109393 166.248312 
L 374.771762 173.168567 
L 375.434131 176.630657 
L 376.096501 164.517268 
L 376.75887 171.437522 
L 377.421239 171.437522 
L 378.083608 174.899612 
L 378.745978 171.437522 
L 379.408347 173.168567 
L 380.070716 176.630657 
L 380.733085 176.630657 
L 381.395454 174.899612 
L 382.057824 178.361701 
L 382.720193 166.248312 
L 383.382562 173.168567 
L 384.044931 176.630657 
L 384.707301 162.786223 
L 385.36967 162.786223 
L 386.032039 164.517268 
L 386.694408 155.862043 
L 387.356778 173.168567 
L 388.019147 159.324133 
L 388.681516 171.437522 
L 389.343885 159.324133 
L 390.006255 180.088821 
L 390.668624 193.933255 
L 391.330993 195.6643 
L 391.993362 199.12639 
L 392.655732 214.701868 
L 393.318101 223.353167 
L 393.98047 238.928646 
L 394.642839 247.579945 
L 395.305209 240.655766 
L 395.967578 263.155424 
L 396.629947 270.075678 
L 397.292316 275.268813 
L 397.954686 283.920112 
L 398.617055 297.764546 
L 399.279424 296.033501 
L 399.941793 296.033501 
L 400.604163 294.302456 
L 401.266532 301.222711 
L 401.928901 311.60898 
L 402.59127 301.222711 
L 403.25364 321.991324 
L 403.916009 301.222711 
L 404.578378 302.953755 
L 405.240747 294.302456 
L 405.903117 308.14689 
L 406.565486 299.495591 
L 407.227855 266.613589 
L 407.890224 290.840367 
L 408.552594 294.302456 
L 409.214963 294.302456 
L 409.877332 289.109322 
L 410.539701 287.378277 
L 411.202071 299.495591 
L 411.86444 315.067144 
L 412.526809 302.953755 
L 413.189178 297.764546 
L 413.851548 311.60898 
L 414.513917 481.1925 
L 415.176286 330.642623 
L 415.838655 323.722369 
L 416.501025 327.180533 
L 417.163394 335.835758 
L 417.825763 330.642623 
L 418.488132 327.180533 
L 419.150502 321.991324 
L 419.812871 315.067144 
L 420.47524 316.798189 
L 421.137609 309.877935 
L 421.799979 297.764546 
L 422.462348 308.14689 
L 423.124717 309.877935 
L 423.787086 315.067144 
L 425.111825 315.067144 
L 425.777506 316.798189 
L 426.439875 316.798189 
L 427.102244 318.529234 
L 427.764614 328.911578 
L 428.426983 328.911578 
L 429.089352 353.138356 
L 429.751721 344.487057 
L 430.414091 342.756012 
L 431.738829 375.634089 
L 432.401198 335.835758 
L 433.063568 370.44488 
L 433.725937 380.827224 
L 434.388306 380.827224 
L 435.050675 394.671658 
L 435.713045 413.705301 
L 436.375414 406.785047 
L 437.700152 417.167391 
L 439.024891 436.201034 
L 439.68726 415.436346 
L 440.349629 436.201034 
L 441.011998 439.663124 
L 442.336737 443.125214 
L 442.999106 436.201034 
L 443.661475 441.394169 
L 444.323845 441.394169 
L 444.986214 432.738944 
L 445.648583 436.201034 
L 446.310952 432.738944 
L 446.973322 420.625555 
L 447.635691 422.3566 
L 448.29806 413.705301 
L 448.960429 375.634089 
L 449.622799 399.860867 
L 450.947537 370.44488 
L 451.609906 377.365134 
L 452.272276 368.713835 
L 452.934645 375.634089 
L 453.597014 368.713835 
L 454.259383 363.5207 
L 455.584122 360.05861 
L 456.246491 379.096179 
L 456.90886 353.138356 
L 457.57123 349.676266 
L 458.233599 349.676266 
L 458.895968 339.293922 
L 459.558337 311.60898 
L 460.220707 315.067144 
L 460.883076 311.60898 
L 461.545445 309.877935 
L 462.870184 296.033501 
L 463.532553 287.378277 
L 464.194922 264.882544 
L 464.857291 270.075678 
L 465.519661 311.60898 
L 466.18203 162.786223 
L 466.844399 256.231245 
L 467.506768 247.579945 
L 468.169138 249.31099 
L 468.831507 233.735512 
L 469.493876 225.084212 
L 470.818615 221.622123 
L 471.480984 216.428988 
L 472.143353 218.160033 
L 472.805722 218.160033 
L 474.130461 204.315599 
L 474.79283 204.315599 
L 475.455199 195.6643 
L 476.117569 195.6643 
L 476.779938 197.395345 
L 478.104676 214.701868 
L 478.767046 211.239778 
L 479.429415 214.701868 
L 480.754153 225.084212 
L 481.416522 228.542377 
L 482.078892 221.622123 
L 482.741261 226.815257 
L 483.40363 233.735512 
L 484.065999 238.928646 
L 484.728369 232.004467 
L 485.390738 228.542377 
L 486.053107 223.353167 
L 486.715476 214.701868 
L 487.377846 225.084212 
L 488.040215 183.550911 
L 488.702584 212.970823 
L 489.364953 216.428988 
L 491.352061 200.857434 
L 492.01443 211.239778 
L 492.6768 275.268813 
L 493.339169 238.928646 
L 494.001538 216.428988 
L 494.663907 209.508734 
L 495.988646 212.970823 
L 496.651015 218.160033 
L 497.975754 211.239778 
L 498.638123 216.428988 
L 499.300492 218.160033 
L 499.962861 214.701868 
L 500.625231 216.428988 
L 501.2876 214.701868 
L 501.949969 221.622123 
L 503.274708 218.160033 
L 503.937077 221.622123 
L 504.599446 218.160033 
L 505.261815 223.353167 
L 505.924185 235.466556 
L 506.586554 244.117856 
L 507.248923 251.042035 
L 507.911292 263.155424 
L 508.573662 256.231245 
L 509.236031 263.155424 
L 509.8984 271.806723 
L 510.560769 282.189067 
L 511.223139 309.877935 
L 511.885508 315.067144 
L 512.547877 315.067144 
L 513.210246 302.953755 
L 513.872616 321.991324 
L 514.534985 327.180533 
L 515.859723 360.05861 
L 516.522093 349.676266 
L 517.184462 353.138356 
L 517.846831 360.05861 
L 518.5092 373.903044 
L 519.17157 370.44488 
L 519.833939 373.903044 
L 520.496308 380.827224 
L 521.158677 373.903044 
L 521.821047 375.634089 
L 522.483416 382.558269 
L 523.145785 380.827224 
L 525.795262 372.171999 
L 526.457631 377.365134 
L 527.12 396.398777 
L 527.78237 380.827224 
L 528.444739 396.398777 
L 529.107108 396.398777 
L 529.769477 399.860867 
L 531.094216 396.398777 
L 532.418954 406.785047 
L 533.081324 399.860867 
L 534.406062 389.478523 
L 535.068431 391.209568 
L 535.730801 399.860867 
L 536.39317 387.747478 
L 537.055539 356.600446 
L 537.717908 380.827224 
L 539.042647 387.747478 
L 539.705016 396.398777 
L 540.367385 387.747478 
L 541.029755 394.671658 
L 541.692124 410.243211 
L 542.354493 410.243211 
L 543.016862 401.591912 
L 543.679232 368.713835 
L 545.00397 477.734335 
L 545.666339 448.314423 
L 546.328709 437.932079 
L 546.991078 439.663124 
L 547.653447 427.549735 
L 548.315816 451.776513 
L 548.978186 455.238602 
L 549.640555 463.889902 
L 550.302924 458.696767 
L 550.965293 462.158857 
L 551.627663 474.272246 
L 552.290032 477.734335 
L 552.952401 465.620947 
L 553.61477 474.272246 
L 554.27714 456.965722 
L 554.939509 463.889902 
L 555.601878 462.158857 
L 556.926617 455.238602 
L 557.588986 456.965722 
L 558.251355 448.314423 
L 558.913724 451.776513 
L 559.576094 436.201034 
L 560.238463 425.81869 
L 560.900832 427.549735 
L 561.563201 424.087645 
L 562.225571 422.3566 
L 562.88794 418.898436 
L 563.550309 413.705301 
L 564.212678 415.436346 
L 564.875048 413.705301 
L 565.537417 413.705301 
L 566.199786 420.625555 
L 566.862155 415.436346 
L 567.524524 401.591912 
L 568.186894 405.054002 
L 568.849263 415.436346 
L 569.511632 399.860867 
L 570.174001 401.591912 
L 570.836371 396.398777 
L 571.49874 394.671658 
L 572.161109 386.016433 
L 572.823478 380.827224 
L 573.485848 380.827224 
L 574.148217 373.903044 
L 574.810586 368.713835 
L 575.472955 365.251745 
L 576.135325 358.331491 
L 576.797694 358.331491 
L 577.460063 360.05861 
L 578.122432 363.5207 
L 578.784802 375.634089 
L 579.447171 358.331491 
L 580.10954 351.407311 
L 580.771909 334.104713 
L 581.434279 349.676266 
L 582.096648 344.487057 
L 582.759017 341.024967 
L 583.421386 344.487057 
L 584.083756 344.487057 
L 584.746125 347.945222 
L 585.408494 358.331491 
L 586.070863 354.869401 
L 586.733233 354.869401 
L 587.395602 356.600446 
L 588.057971 366.98279 
L 588.72034 366.98279 
L 589.38271 368.713835 
L 590.045079 365.251745 
L 591.369817 368.713835 
L 592.032187 373.903044 
L 592.694556 216.428988 
L 593.356925 372.171999 
L 594.019294 375.634089 
L 595.344033 372.171999 
L 596.006402 375.634089 
L 596.668771 365.251745 
L 597.331141 377.365134 
L 597.99351 373.903044 
L 599.318248 387.747478 
L 599.980618 379.096179 
L 600.642987 377.365134 
L 601.305356 379.096179 
L 601.967725 372.171999 
L 602.630095 372.171999 
L 603.954833 361.789655 
L 604.617202 360.05861 
L 605.279572 380.827224 
L 605.941941 354.869401 
L 606.60431 361.789655 
L 607.266679 360.05861 
L 607.929049 351.407311 
L 608.591418 313.3361 
L 609.253787 354.869401 
L 609.916156 358.331491 
L 610.578525 342.756012 
L 611.240895 342.756012 
L 611.903264 337.562877 
L 612.565633 339.293922 
L 613.228002 337.562877 
L 613.890372 337.562877 
L 614.552741 335.835758 
L 615.21511 332.373668 
L 616.539849 328.911578 
L 617.202218 330.642623 
L 617.864587 316.798189 
L 618.526956 339.293922 
L 619.189326 268.344633 
L 619.851695 313.3361 
L 620.514064 321.991324 
L 621.176433 321.991324 
L 621.838803 320.260279 
L 622.501172 299.495591 
L 623.163541 313.3361 
L 623.82591 309.877935 
L 624.48828 299.495591 
L 625.150649 292.571411 
L 625.813018 302.953755 
L 626.475387 287.378277 
L 627.800126 294.302456 
L 628.462495 289.109322 
L 629.124864 296.033501 
L 629.787234 287.378277 
L 630.449603 287.378277 
L 631.111972 285.651157 
L 631.774341 285.651157 
L 632.436711 278.726978 
L 633.09908 287.378277 
L 633.761449 280.458022 
L 634.423818 280.458022 
L 635.086188 282.189067 
L 635.748557 296.033501 
L 636.410926 296.033501 
L 637.073295 273.537768 
L 637.735665 271.806723 
L 638.398034 344.487057 
L 639.060403 263.155424 
L 639.722772 270.075678 
L 640.385142 237.197601 
L 641.047511 257.962289 
L 641.70988 254.5002 
L 642.372249 249.31099 
L 643.034619 238.928646 
L 643.696988 251.042035 
L 644.359357 254.5002 
L 645.021726 259.693334 
L 645.684096 245.8489 
L 646.346465 256.231245 
L 647.008834 249.31099 
L 647.671203 244.117856 
L 648.333573 232.004467 
L 648.995942 232.004467 
L 650.32068 235.466556 
L 650.98305 238.928646 
L 651.645419 233.735512 
L 652.307788 232.004467 
L 652.970157 219.891078 
L 654.294896 226.815257 
L 654.957265 218.160033 
L 655.619634 233.735512 
L 656.944373 219.891078 
L 657.606742 223.353167 
L 658.269111 228.542377 
L 658.93148 226.815257 
L 659.59385 219.891078 
L 660.256219 226.815257 
L 660.918588 228.542377 
L 661.580957 232.004467 
L 662.243327 270.075678 
L 662.905696 195.6643 
L 663.568065 192.20221 
L 664.230434 254.5002 
L 664.892804 237.197601 
L 665.555173 245.8489 
L 666.217542 245.8489 
L 666.879911 240.655766 
L 667.542281 240.655766 
L 668.20465 247.579945 
L 668.867019 252.769155 
L 669.529388 252.769155 
L 670.191758 251.042035 
L 670.854127 254.5002 
L 671.516496 254.5002 
L 672.178865 259.693334 
L 672.841235 261.424379 
L 673.503604 257.962289 
L 674.165973 259.693334 
L 674.828342 257.962289 
L 675.490712 245.8489 
L 676.153081 259.693334 
L 676.81545 252.769155 
L 677.477819 249.31099 
L 678.140189 249.31099 
L 678.802558 247.579945 
L 679.464927 247.579945 
L 680.127296 235.466556 
L 680.789666 251.042035 
L 681.452035 335.835758 
L 682.114404 270.075678 
L 682.776773 254.5002 
L 683.439143 264.882544 
L 684.101512 252.769155 
L 684.763881 254.5002 
L 685.42625 257.962289 
L 686.08862 256.231245 
L 686.750989 256.231245 
L 687.413358 264.882544 
L 688.075727 259.693334 
L 688.738097 259.693334 
L 690.062835 270.075678 
L 690.725204 282.189067 
L 691.387574 276.995933 
L 692.712312 270.075678 
L 693.374681 271.806723 
L 694.037051 268.344633 
L 694.69942 278.726978 
L 695.361789 280.458022 
L 696.024158 275.268813 
L 696.686527 266.613589 
L 697.348897 268.344633 
L 698.011266 282.189067 
L 698.673635 276.995933 
L 699.336004 282.189067 
L 699.998374 280.458022 
L 700.660743 351.407311 
L 701.323112 384.285388 
L 701.985481 218.160033 
L 702.647851 261.424379 
L 703.31022 254.5002 
L 703.972589 264.882544 
L 704.634958 256.231245 
L 705.297328 252.769155 
L 705.959697 256.231245 
L 706.622066 252.769155 
L 707.284435 242.386811 
L 707.946805 245.8489 
L 708.609174 247.579945 
L 709.271543 244.117856 
L 709.933912 247.579945 
L 710.596282 244.117856 
L 711.258651 249.31099 
L 711.92102 244.117856 
L 712.583389 247.579945 
L 713.245759 249.31099 
L 713.908128 270.075678 
L 714.570497 263.155424 
L 715.232866 251.042035 
L 715.895236 257.962289 
L 716.557605 257.962289 
L 717.219974 238.928646 
L 717.882343 264.882544 
L 718.544713 263.155424 
L 719.207082 264.882544 
L 719.869451 247.579945 
L 720.53182 247.579945 
L 721.19419 251.042035 
L 721.856559 225.084212 
L 722.518928 259.693334 
L 723.181297 245.8489 
L 725.834086 259.693334 
L 726.493144 259.693334 
L 727.155513 268.344633 
L 727.817882 252.769155 
L 728.480251 254.5002 
L 729.142621 245.8489 
L 729.80499 244.117856 
L 731.129728 233.735512 
L 731.792098 223.353167 
L 732.454467 228.542377 
L 733.116836 214.701868 
L 733.782517 214.701868 
L 734.444886 204.315599 
L 734.444886 204.315599 
" clip-path="url(#paff2efca89)" style="fill: none; stroke: #ac2b37; stroke-width: 1.5; stroke-linecap: square"/>
   </g>
   <g id="patch_3">
    <path d="M 95.28125 501.3525 
L 95.28125 57.8325 
" style="fill: none; stroke: #000000; stroke-width: 0.8; stroke-linejoin: miter; stroke-linecap: square"/>
   </g>
   <g id="patch_4">
    <path d="M 764.88125 501.3525 
L 764.88125 57.8325 
" style="fill: none; stroke: #000000; stroke-width: 0.8; stroke-linejoin: miter; stroke-linecap: square"/>
   </g>
   <g id="patch_5">
    <path d="M 95.28125 501.3525 
L 764.88125 501.3525 
" style="fill: none; stroke: #000000; stroke-width: 0.8; stroke-linejoin: miter; stroke-linecap: square"/>
   </g>
   <g id="patch_6">
    <path d="M 95.28125 57.8325 
L 764.88125 57.8325 
" style="fill: none; stroke: #000000; stroke-width: 0.8; stroke-linejoin: miter; stroke-linecap: square"/>
   </g>
   <g id="text_17">
    <!-- Light vs Time -->
    <g transform="translate(367.59875 51.8325) scale(0.24 -0.24)">
     <defs>
      <path id="AptosDisplay-76" d="M 1103 0 
L -13 3044 
L 538 3044 
L 1391 513 
L 2250 3044 
L 2781 3044 
L 1678 0 
L 1103 0 
z
" transform="scale(0.015625)"/>
      <path id="AptosDisplay-73" d="M 1506 -41 
Q 1247 -41 1017 14 
Q 788 69 613 191 
Q 438 313 339 506 
Q 241 700 241 978 
L 744 978 
Q 744 628 966 487 
Q 1188 347 1519 347 
Q 1816 347 2008 458 
Q 2200 569 2200 822 
Q 2200 1047 2026 1153 
Q 1853 1259 1413 1369 
Q 1056 1453 815 1564 
Q 575 1675 453 1845 
Q 331 2016 331 2275 
Q 331 2475 417 2626 
Q 503 2778 658 2879 
Q 813 2981 1020 3032 
Q 1228 3084 1472 3084 
Q 1713 3084 1923 3028 
Q 2134 2972 2296 2855 
Q 2459 2738 2551 2552 
Q 2644 2366 2644 2109 
L 2138 2109 
Q 2138 2425 1945 2558 
Q 1753 2691 1472 2691 
Q 1191 2691 1016 2594 
Q 841 2497 841 2291 
Q 841 2169 919 2084 
Q 997 2000 1181 1933 
Q 1366 1866 1675 1791 
Q 2019 1709 2248 1596 
Q 2478 1484 2595 1306 
Q 2713 1128 2713 847 
Q 2713 616 2622 447 
Q 2531 278 2367 170 
Q 2203 63 1983 11 
Q 1763 -41 1506 -41 
z
" transform="scale(0.015625)"/>
     </defs>
     <use xlink:href="#AptosDisplay-4c"/>
     <use xlink:href="#AptosDisplay-69" x="48.4375"/>
     <use xlink:href="#AptosDisplay-67" x="69.482422"/>
     <use xlink:href="#AptosDisplay-68" x="113.427734"/>
     <use xlink:href="#AptosDisplay-74" x="164.013672"/>
     <use xlink:href="#AptosDisplay-20" x="194.384766"/>
     <use xlink:href="#AptosDisplay-76" x="213.671875"/>
     <use xlink:href="#AptosDisplay-73" x="256.933594"/>
     <use xlink:href="#AptosDisplay-20" x="303.222656"/>
     <use xlink:href="#AptosDisplay-54" x="322.509766"/>
     <use xlink:href="#AptosDisplay-69" x="370.214844"/>
     <use xlink:href="#AptosDisplay-6d" x="391.259766"/>
     <use xlink:href="#AptosDisplay-65" x="471.240234"/>
    </g>
   </g>
  </g>
 </g>
 <defs>
  <clipPath id="paff2efca89">
   <rect x="95.28125" y="57.8325" width="669.6" height="443.52"/>
  </clipPath>
 </defs>
</svg>
