<?xml version="1.0" encoding="utf-8" standalone="no"?>
<!DOCTYPE svg PUBLIC "-//W3C//DTD SVG 1.1//EN"
  "http://www.w3.org/Graphics/SVG/1.1/DTD/svg11.dtd">
<svg xmlns:xlink="http://www.w3.org/1999/xlink" width="812.279483pt" height="581.830625pt" viewBox="0 0 812.279483 581.830625" xmlns="http://www.w3.org/2000/svg" version="1.1">
 <metadata>
  <rdf:RDF xmlns:dc="http://purl.org/dc/elements/1.1/" xmlns:cc="http://creativecommons.org/ns#" xmlns:rdf="http://www.w3.org/1999/02/22-rdf-syntax-ns#">
   <cc:Work>
    <dc:type rdf:resource="http://purl.org/dc/dcmitype/StillImage"/>
    <dc:date>2025-03-23T22:45:03.836267</dc:date>
    <dc:format>image/svg+xml</dc:format>
    <dc:creator>
     <cc:Agent>
      <dc:title>Matplotlib v3.8.2, https://matplotlib.org/</dc:title>
     </cc:Agent>
    </dc:creator>
   </cc:Work>
  </rdf:RDF>
 </metadata>
 <defs>
  <style type="text/css">*{stroke-linejoin: round; stroke-linecap: butt}</style>
 </defs>
 <g id="figure_1">
  <g id="patch_1">
   <path d="M 0 581.830625 
L 812.279483 581.830625 
L 812.279483 0 
L 0 0 
z
" style="fill: #ffffff"/>
  </g>
  <g id="axes_1">
   <g id="patch_2">
    <path d="M 105.740625 501.3525 
L 775.340625 501.3525 
L 775.340625 57.8325 
L 105.740625 57.8325 
z
" style="fill: #ffffff"/>
   </g>
   <g id="matplotlib.axis_1">
    <g id="xtick_1">
     <g id="line2d_1">
      <path d="M 135.430369 501.3525 
L 135.430369 57.8325 
" clip-path="url(#pddaf6cbdda)" style="fill: none; stroke: #b0b0b0; stroke-opacity: 0.8; stroke-linecap: square"/>
     </g>
     <g id="line2d_2">
      <defs>
       <path id="m58e80f9380" d="M 0 0 
L 0 3.5 
" style="stroke: #000000; stroke-width: 0.8"/>
      </defs>
      <g>
       <use xlink:href="#m58e80f9380" x="135.430369" y="501.3525" style="stroke: #000000; stroke-width: 0.8"/>
      </g>
     </g>
     <g id="text_1">
      <!-- 0 -->
      <g transform="translate(130.200681 521.49625) scale(0.2 -0.2)">
       <defs>
        <path id="AptosDisplay-30" d="M 1672 -56 
Q 1291 -56 1028 105 
Q 766 266 605 552 
Q 444 838 372 1216 
Q 300 1594 300 2031 
Q 300 2475 372 2856 
Q 444 3238 605 3525 
Q 766 3813 1028 3973 
Q 1291 4134 1672 4134 
Q 2053 4134 2317 3975 
Q 2581 3816 2742 3527 
Q 2903 3238 2975 2858 
Q 3047 2478 3047 2038 
Q 3047 1597 2975 1217 
Q 2903 838 2742 552 
Q 2581 266 2318 105 
Q 2056 -56 1672 -56 
z
M 1672 409 
Q 1916 409 2073 550 
Q 2231 691 2322 925 
Q 2413 1159 2448 1448 
Q 2484 1738 2484 2038 
Q 2484 2338 2448 2628 
Q 2413 2919 2322 3153 
Q 2231 3388 2073 3527 
Q 1916 3666 1669 3666 
Q 1428 3666 1268 3527 
Q 1109 3388 1020 3153 
Q 931 2919 893 2628 
Q 856 2338 856 2038 
Q 856 1741 893 1450 
Q 931 1159 1020 925 
Q 1109 691 1268 550 
Q 1428 409 1672 409 
z
" transform="scale(0.015625)"/>
       </defs>
       <use xlink:href="#AptosDisplay-30"/>
      </g>
     </g>
    </g>
    <g id="xtick_2">
     <g id="line2d_3">
      <path d="M 224.738948 501.3525 
L 224.738948 57.8325 
" clip-path="url(#pddaf6cbdda)" style="fill: none; stroke: #b0b0b0; stroke-opacity: 0.8; stroke-linecap: square"/>
     </g>
     <g id="line2d_4">
      <g>
       <use xlink:href="#m58e80f9380" x="224.738948" y="501.3525" style="stroke: #000000; stroke-width: 0.8"/>
      </g>
     </g>
     <g id="text_2">
      <!-- 25 -->
      <g transform="translate(214.279573 521.49625) scale(0.2 -0.2)">
       <defs>
        <path id="AptosDisplay-32" d="M 247 0 
L 247 413 
L 1725 1741 
Q 2100 2081 2269 2351 
Q 2438 2622 2438 2938 
Q 2438 3256 2263 3461 
Q 2088 3666 1691 3666 
Q 1247 3666 1055 3439 
Q 863 3213 863 2869 
L 341 2869 
Q 341 3250 491 3534 
Q 641 3819 941 3975 
Q 1241 4131 1691 4131 
Q 2103 4131 2390 3986 
Q 2678 3841 2828 3578 
Q 2978 3316 2978 2959 
Q 2978 2638 2853 2375 
Q 2728 2113 2517 1883 
Q 2306 1653 2044 1425 
L 959 463 
L 3097 463 
L 3097 0 
L 247 0 
z
" transform="scale(0.015625)"/>
        <path id="AptosDisplay-35" d="M 1669 -56 
Q 1278 -56 964 83 
Q 650 222 465 483 
Q 281 744 281 1113 
L 816 1113 
Q 816 778 1055 584 
Q 1294 391 1669 391 
Q 2069 391 2291 625 
Q 2513 859 2513 1319 
Q 2513 1772 2291 1989 
Q 2069 2206 1697 2206 
Q 1409 2206 1223 2123 
Q 1038 2041 916 1894 
L 444 1894 
L 622 4078 
L 2788 4078 
L 2788 3613 
L 1041 3613 
L 931 2322 
Q 1044 2453 1251 2550 
Q 1459 2647 1775 2647 
Q 2131 2647 2420 2506 
Q 2709 2366 2881 2072 
Q 3053 1778 3053 1319 
Q 3053 863 2875 558 
Q 2697 253 2384 98 
Q 2072 -56 1669 -56 
z
" transform="scale(0.015625)"/>
       </defs>
       <use xlink:href="#AptosDisplay-32"/>
       <use xlink:href="#AptosDisplay-35" x="52.294922"/>
      </g>
     </g>
    </g>
    <g id="xtick_3">
     <g id="line2d_5">
      <path d="M 314.047526 501.3525 
L 314.047526 57.8325 
" clip-path="url(#pddaf6cbdda)" style="fill: none; stroke: #b0b0b0; stroke-opacity: 0.8; stroke-linecap: square"/>
     </g>
     <g id="line2d_6">
      <g>
       <use xlink:href="#m58e80f9380" x="314.047526" y="501.3525" style="stroke: #000000; stroke-width: 0.8"/>
      </g>
     </g>
     <g id="text_3">
      <!-- 50 -->
      <g transform="translate(303.588151 521.49625) scale(0.2 -0.2)">
       <use xlink:href="#AptosDisplay-35"/>
       <use xlink:href="#AptosDisplay-30" x="52.294922"/>
      </g>
     </g>
    </g>
    <g id="xtick_4">
     <g id="line2d_7">
      <path d="M 403.356105 501.3525 
L 403.356105 57.8325 
" clip-path="url(#pddaf6cbdda)" style="fill: none; stroke: #b0b0b0; stroke-opacity: 0.8; stroke-linecap: square"/>
     </g>
     <g id="line2d_8">
      <g>
       <use xlink:href="#m58e80f9380" x="403.356105" y="501.3525" style="stroke: #000000; stroke-width: 0.8"/>
      </g>
     </g>
     <g id="text_4">
      <!-- 75 -->
      <g transform="translate(392.89673 521.49625) scale(0.2 -0.2)">
       <defs>
        <path id="AptosDisplay-37" d="M 766 0 
L 2609 3600 
L 194 3600 
L 194 4078 
L 3141 4078 
L 3141 3622 
L 1334 0 
L 766 0 
z
" transform="scale(0.015625)"/>
       </defs>
       <use xlink:href="#AptosDisplay-37"/>
       <use xlink:href="#AptosDisplay-35" x="52.294922"/>
      </g>
     </g>
    </g>
    <g id="xtick_5">
     <g id="line2d_9">
      <path d="M 492.664684 501.3525 
L 492.664684 57.8325 
" clip-path="url(#pddaf6cbdda)" style="fill: none; stroke: #b0b0b0; stroke-opacity: 0.8; stroke-linecap: square"/>
     </g>
     <g id="line2d_10">
      <g>
       <use xlink:href="#m58e80f9380" x="492.664684" y="501.3525" style="stroke: #000000; stroke-width: 0.8"/>
      </g>
     </g>
     <g id="text_5">
      <!-- 100 -->
      <g transform="translate(476.975621 521.49625) scale(0.2 -0.2)">
       <defs>
        <path id="AptosDisplay-31" d="M 1659 0 
L 1659 3425 
Q 1575 3309 1420 3201 
Q 1266 3094 1052 3009 
Q 838 2925 578 2888 
L 578 3381 
Q 834 3425 1057 3540 
Q 1281 3656 1453 3806 
Q 1625 3956 1719 4094 
L 2206 4094 
L 2206 0 
L 1659 0 
z
" transform="scale(0.015625)"/>
       </defs>
       <use xlink:href="#AptosDisplay-31"/>
       <use xlink:href="#AptosDisplay-30" x="52.294922"/>
       <use xlink:href="#AptosDisplay-30" x="104.589844"/>
      </g>
     </g>
    </g>
    <g id="xtick_6">
     <g id="line2d_11">
      <path d="M 581.973263 501.3525 
L 581.973263 57.8325 
" clip-path="url(#pddaf6cbdda)" style="fill: none; stroke: #b0b0b0; stroke-opacity: 0.8; stroke-linecap: square"/>
     </g>
     <g id="line2d_12">
      <g>
       <use xlink:href="#m58e80f9380" x="581.973263" y="501.3525" style="stroke: #000000; stroke-width: 0.8"/>
      </g>
     </g>
     <g id="text_6">
      <!-- 125 -->
      <g transform="translate(566.2842 521.49625) scale(0.2 -0.2)">
       <use xlink:href="#AptosDisplay-31"/>
       <use xlink:href="#AptosDisplay-32" x="52.294922"/>
       <use xlink:href="#AptosDisplay-35" x="104.589844"/>
      </g>
     </g>
    </g>
    <g id="xtick_7">
     <g id="line2d_13">
      <path d="M 671.281841 501.3525 
L 671.281841 57.8325 
" clip-path="url(#pddaf6cbdda)" style="fill: none; stroke: #b0b0b0; stroke-opacity: 0.8; stroke-linecap: square"/>
     </g>
     <g id="line2d_14">
      <g>
       <use xlink:href="#m58e80f9380" x="671.281841" y="501.3525" style="stroke: #000000; stroke-width: 0.8"/>
      </g>
     </g>
     <g id="text_7">
      <!-- 150 -->
      <g transform="translate(655.592779 521.49625) scale(0.2 -0.2)">
       <use xlink:href="#AptosDisplay-31"/>
       <use xlink:href="#AptosDisplay-35" x="52.294922"/>
       <use xlink:href="#AptosDisplay-30" x="104.589844"/>
      </g>
     </g>
    </g>
    <g id="xtick_8">
     <g id="line2d_15">
      <path d="M 760.59042 501.3525 
L 760.59042 57.8325 
" clip-path="url(#pddaf6cbdda)" style="fill: none; stroke: #b0b0b0; stroke-opacity: 0.8; stroke-linecap: square"/>
     </g>
     <g id="line2d_16">
      <g>
       <use xlink:href="#m58e80f9380" x="760.59042" y="501.3525" style="stroke: #000000; stroke-width: 0.8"/>
      </g>
     </g>
     <g id="text_8">
      <!-- 175 -->
      <g transform="translate(744.901358 521.49625) scale(0.2 -0.2)">
       <use xlink:href="#AptosDisplay-31"/>
       <use xlink:href="#AptosDisplay-37" x="52.294922"/>
       <use xlink:href="#AptosDisplay-35" x="104.589844"/>
      </g>
     </g>
    </g>
    <g id="xtick_9">
     <g id="line2d_17">
      <path d="M 117.568653 501.3525 
L 117.568653 57.8325 
" clip-path="url(#pddaf6cbdda)" style="fill: none; stroke-dasharray: 1.85,0.8; stroke-dashoffset: 0; stroke: #b0b0b0; stroke-opacity: 0.8; stroke-width: 0.5"/>
     </g>
     <g id="line2d_18">
      <defs>
       <path id="mdf3c162f6d" d="M 0 0 
L 0 2 
" style="stroke: #000000; stroke-width: 0.6"/>
      </defs>
      <g>
       <use xlink:href="#mdf3c162f6d" x="117.568653" y="501.3525" style="stroke: #000000; stroke-width: 0.6"/>
      </g>
     </g>
    </g>
    <g id="xtick_10">
     <g id="line2d_19">
      <path d="M 153.292085 501.3525 
L 153.292085 57.8325 
" clip-path="url(#pddaf6cbdda)" style="fill: none; stroke-dasharray: 1.85,0.8; stroke-dashoffset: 0; stroke: #b0b0b0; stroke-opacity: 0.8; stroke-width: 0.5"/>
     </g>
     <g id="line2d_20">
      <g>
       <use xlink:href="#mdf3c162f6d" x="153.292085" y="501.3525" style="stroke: #000000; stroke-width: 0.6"/>
      </g>
     </g>
    </g>
    <g id="xtick_11">
     <g id="line2d_21">
      <path d="M 171.1538 501.3525 
L 171.1538 57.8325 
" clip-path="url(#pddaf6cbdda)" style="fill: none; stroke-dasharray: 1.85,0.8; stroke-dashoffset: 0; stroke: #b0b0b0; stroke-opacity: 0.8; stroke-width: 0.5"/>
     </g>
     <g id="line2d_22">
      <g>
       <use xlink:href="#mdf3c162f6d" x="171.1538" y="501.3525" style="stroke: #000000; stroke-width: 0.6"/>
      </g>
     </g>
    </g>
    <g id="xtick_12">
     <g id="line2d_23">
      <path d="M 189.015516 501.3525 
L 189.015516 57.8325 
" clip-path="url(#pddaf6cbdda)" style="fill: none; stroke-dasharray: 1.85,0.8; stroke-dashoffset: 0; stroke: #b0b0b0; stroke-opacity: 0.8; stroke-width: 0.5"/>
     </g>
     <g id="line2d_24">
      <g>
       <use xlink:href="#mdf3c162f6d" x="189.015516" y="501.3525" style="stroke: #000000; stroke-width: 0.6"/>
      </g>
     </g>
    </g>
    <g id="xtick_13">
     <g id="line2d_25">
      <path d="M 206.877232 501.3525 
L 206.877232 57.8325 
" clip-path="url(#pddaf6cbdda)" style="fill: none; stroke-dasharray: 1.85,0.8; stroke-dashoffset: 0; stroke: #b0b0b0; stroke-opacity: 0.8; stroke-width: 0.5"/>
     </g>
     <g id="line2d_26">
      <g>
       <use xlink:href="#mdf3c162f6d" x="206.877232" y="501.3525" style="stroke: #000000; stroke-width: 0.6"/>
      </g>
     </g>
    </g>
    <g id="xtick_14">
     <g id="line2d_27">
      <path d="M 242.600663 501.3525 
L 242.600663 57.8325 
" clip-path="url(#pddaf6cbdda)" style="fill: none; stroke-dasharray: 1.85,0.8; stroke-dashoffset: 0; stroke: #b0b0b0; stroke-opacity: 0.8; stroke-width: 0.5"/>
     </g>
     <g id="line2d_28">
      <g>
       <use xlink:href="#mdf3c162f6d" x="242.600663" y="501.3525" style="stroke: #000000; stroke-width: 0.6"/>
      </g>
     </g>
    </g>
    <g id="xtick_15">
     <g id="line2d_29">
      <path d="M 260.462379 501.3525 
L 260.462379 57.8325 
" clip-path="url(#pddaf6cbdda)" style="fill: none; stroke-dasharray: 1.85,0.8; stroke-dashoffset: 0; stroke: #b0b0b0; stroke-opacity: 0.8; stroke-width: 0.5"/>
     </g>
     <g id="line2d_30">
      <g>
       <use xlink:href="#mdf3c162f6d" x="260.462379" y="501.3525" style="stroke: #000000; stroke-width: 0.6"/>
      </g>
     </g>
    </g>
    <g id="xtick_16">
     <g id="line2d_31">
      <path d="M 278.324095 501.3525 
L 278.324095 57.8325 
" clip-path="url(#pddaf6cbdda)" style="fill: none; stroke-dasharray: 1.85,0.8; stroke-dashoffset: 0; stroke: #b0b0b0; stroke-opacity: 0.8; stroke-width: 0.5"/>
     </g>
     <g id="line2d_32">
      <g>
       <use xlink:href="#mdf3c162f6d" x="278.324095" y="501.3525" style="stroke: #000000; stroke-width: 0.6"/>
      </g>
     </g>
    </g>
    <g id="xtick_17">
     <g id="line2d_33">
      <path d="M 296.185811 501.3525 
L 296.185811 57.8325 
" clip-path="url(#pddaf6cbdda)" style="fill: none; stroke-dasharray: 1.85,0.8; stroke-dashoffset: 0; stroke: #b0b0b0; stroke-opacity: 0.8; stroke-width: 0.5"/>
     </g>
     <g id="line2d_34">
      <g>
       <use xlink:href="#mdf3c162f6d" x="296.185811" y="501.3525" style="stroke: #000000; stroke-width: 0.6"/>
      </g>
     </g>
    </g>
    <g id="xtick_18">
     <g id="line2d_35">
      <path d="M 331.909242 501.3525 
L 331.909242 57.8325 
" clip-path="url(#pddaf6cbdda)" style="fill: none; stroke-dasharray: 1.85,0.8; stroke-dashoffset: 0; stroke: #b0b0b0; stroke-opacity: 0.8; stroke-width: 0.5"/>
     </g>
     <g id="line2d_36">
      <g>
       <use xlink:href="#mdf3c162f6d" x="331.909242" y="501.3525" style="stroke: #000000; stroke-width: 0.6"/>
      </g>
     </g>
    </g>
    <g id="xtick_19">
     <g id="line2d_37">
      <path d="M 349.770958 501.3525 
L 349.770958 57.8325 
" clip-path="url(#pddaf6cbdda)" style="fill: none; stroke-dasharray: 1.85,0.8; stroke-dashoffset: 0; stroke: #b0b0b0; stroke-opacity: 0.8; stroke-width: 0.5"/>
     </g>
     <g id="line2d_38">
      <g>
       <use xlink:href="#mdf3c162f6d" x="349.770958" y="501.3525" style="stroke: #000000; stroke-width: 0.6"/>
      </g>
     </g>
    </g>
    <g id="xtick_20">
     <g id="line2d_39">
      <path d="M 367.632674 501.3525 
L 367.632674 57.8325 
" clip-path="url(#pddaf6cbdda)" style="fill: none; stroke-dasharray: 1.85,0.8; stroke-dashoffset: 0; stroke: #b0b0b0; stroke-opacity: 0.8; stroke-width: 0.5"/>
     </g>
     <g id="line2d_40">
      <g>
       <use xlink:href="#mdf3c162f6d" x="367.632674" y="501.3525" style="stroke: #000000; stroke-width: 0.6"/>
      </g>
     </g>
    </g>
    <g id="xtick_21">
     <g id="line2d_41">
      <path d="M 385.494389 501.3525 
L 385.494389 57.8325 
" clip-path="url(#pddaf6cbdda)" style="fill: none; stroke-dasharray: 1.85,0.8; stroke-dashoffset: 0; stroke: #b0b0b0; stroke-opacity: 0.8; stroke-width: 0.5"/>
     </g>
     <g id="line2d_42">
      <g>
       <use xlink:href="#mdf3c162f6d" x="385.494389" y="501.3525" style="stroke: #000000; stroke-width: 0.6"/>
      </g>
     </g>
    </g>
    <g id="xtick_22">
     <g id="line2d_43">
      <path d="M 421.217821 501.3525 
L 421.217821 57.8325 
" clip-path="url(#pddaf6cbdda)" style="fill: none; stroke-dasharray: 1.85,0.8; stroke-dashoffset: 0; stroke: #b0b0b0; stroke-opacity: 0.8; stroke-width: 0.5"/>
     </g>
     <g id="line2d_44">
      <g>
       <use xlink:href="#mdf3c162f6d" x="421.217821" y="501.3525" style="stroke: #000000; stroke-width: 0.6"/>
      </g>
     </g>
    </g>
    <g id="xtick_23">
     <g id="line2d_45">
      <path d="M 439.079537 501.3525 
L 439.079537 57.8325 
" clip-path="url(#pddaf6cbdda)" style="fill: none; stroke-dasharray: 1.85,0.8; stroke-dashoffset: 0; stroke: #b0b0b0; stroke-opacity: 0.8; stroke-width: 0.5"/>
     </g>
     <g id="line2d_46">
      <g>
       <use xlink:href="#mdf3c162f6d" x="439.079537" y="501.3525" style="stroke: #000000; stroke-width: 0.6"/>
      </g>
     </g>
    </g>
    <g id="xtick_24">
     <g id="line2d_47">
      <path d="M 456.941252 501.3525 
L 456.941252 57.8325 
" clip-path="url(#pddaf6cbdda)" style="fill: none; stroke-dasharray: 1.85,0.8; stroke-dashoffset: 0; stroke: #b0b0b0; stroke-opacity: 0.8; stroke-width: 0.5"/>
     </g>
     <g id="line2d_48">
      <g>
       <use xlink:href="#mdf3c162f6d" x="456.941252" y="501.3525" style="stroke: #000000; stroke-width: 0.6"/>
      </g>
     </g>
    </g>
    <g id="xtick_25">
     <g id="line2d_49">
      <path d="M 474.802968 501.3525 
L 474.802968 57.8325 
" clip-path="url(#pddaf6cbdda)" style="fill: none; stroke-dasharray: 1.85,0.8; stroke-dashoffset: 0; stroke: #b0b0b0; stroke-opacity: 0.8; stroke-width: 0.5"/>
     </g>
     <g id="line2d_50">
      <g>
       <use xlink:href="#mdf3c162f6d" x="474.802968" y="501.3525" style="stroke: #000000; stroke-width: 0.6"/>
      </g>
     </g>
    </g>
    <g id="xtick_26">
     <g id="line2d_51">
      <path d="M 510.5264 501.3525 
L 510.5264 57.8325 
" clip-path="url(#pddaf6cbdda)" style="fill: none; stroke-dasharray: 1.85,0.8; stroke-dashoffset: 0; stroke: #b0b0b0; stroke-opacity: 0.8; stroke-width: 0.5"/>
     </g>
     <g id="line2d_52">
      <g>
       <use xlink:href="#mdf3c162f6d" x="510.5264" y="501.3525" style="stroke: #000000; stroke-width: 0.6"/>
      </g>
     </g>
    </g>
    <g id="xtick_27">
     <g id="line2d_53">
      <path d="M 528.388115 501.3525 
L 528.388115 57.8325 
" clip-path="url(#pddaf6cbdda)" style="fill: none; stroke-dasharray: 1.85,0.8; stroke-dashoffset: 0; stroke: #b0b0b0; stroke-opacity: 0.8; stroke-width: 0.5"/>
     </g>
     <g id="line2d_54">
      <g>
       <use xlink:href="#mdf3c162f6d" x="528.388115" y="501.3525" style="stroke: #000000; stroke-width: 0.6"/>
      </g>
     </g>
    </g>
    <g id="xtick_28">
     <g id="line2d_55">
      <path d="M 546.249831 501.3525 
L 546.249831 57.8325 
" clip-path="url(#pddaf6cbdda)" style="fill: none; stroke-dasharray: 1.85,0.8; stroke-dashoffset: 0; stroke: #b0b0b0; stroke-opacity: 0.8; stroke-width: 0.5"/>
     </g>
     <g id="line2d_56">
      <g>
       <use xlink:href="#mdf3c162f6d" x="546.249831" y="501.3525" style="stroke: #000000; stroke-width: 0.6"/>
      </g>
     </g>
    </g>
    <g id="xtick_29">
     <g id="line2d_57">
      <path d="M 564.111547 501.3525 
L 564.111547 57.8325 
" clip-path="url(#pddaf6cbdda)" style="fill: none; stroke-dasharray: 1.85,0.8; stroke-dashoffset: 0; stroke: #b0b0b0; stroke-opacity: 0.8; stroke-width: 0.5"/>
     </g>
     <g id="line2d_58">
      <g>
       <use xlink:href="#mdf3c162f6d" x="564.111547" y="501.3525" style="stroke: #000000; stroke-width: 0.6"/>
      </g>
     </g>
    </g>
    <g id="xtick_30">
     <g id="line2d_59">
      <path d="M 599.834978 501.3525 
L 599.834978 57.8325 
" clip-path="url(#pddaf6cbdda)" style="fill: none; stroke-dasharray: 1.85,0.8; stroke-dashoffset: 0; stroke: #b0b0b0; stroke-opacity: 0.8; stroke-width: 0.5"/>
     </g>
     <g id="line2d_60">
      <g>
       <use xlink:href="#mdf3c162f6d" x="599.834978" y="501.3525" style="stroke: #000000; stroke-width: 0.6"/>
      </g>
     </g>
    </g>
    <g id="xtick_31">
     <g id="line2d_61">
      <path d="M 617.696694 501.3525 
L 617.696694 57.8325 
" clip-path="url(#pddaf6cbdda)" style="fill: none; stroke-dasharray: 1.85,0.8; stroke-dashoffset: 0; stroke: #b0b0b0; stroke-opacity: 0.8; stroke-width: 0.5"/>
     </g>
     <g id="line2d_62">
      <g>
       <use xlink:href="#mdf3c162f6d" x="617.696694" y="501.3525" style="stroke: #000000; stroke-width: 0.6"/>
      </g>
     </g>
    </g>
    <g id="xtick_32">
     <g id="line2d_63">
      <path d="M 635.55841 501.3525 
L 635.55841 57.8325 
" clip-path="url(#pddaf6cbdda)" style="fill: none; stroke-dasharray: 1.85,0.8; stroke-dashoffset: 0; stroke: #b0b0b0; stroke-opacity: 0.8; stroke-width: 0.5"/>
     </g>
     <g id="line2d_64">
      <g>
       <use xlink:href="#mdf3c162f6d" x="635.55841" y="501.3525" style="stroke: #000000; stroke-width: 0.6"/>
      </g>
     </g>
    </g>
    <g id="xtick_33">
     <g id="line2d_65">
      <path d="M 653.420126 501.3525 
L 653.420126 57.8325 
" clip-path="url(#pddaf6cbdda)" style="fill: none; stroke-dasharray: 1.85,0.8; stroke-dashoffset: 0; stroke: #b0b0b0; stroke-opacity: 0.8; stroke-width: 0.5"/>
     </g>
     <g id="line2d_66">
      <g>
       <use xlink:href="#mdf3c162f6d" x="653.420126" y="501.3525" style="stroke: #000000; stroke-width: 0.6"/>
      </g>
     </g>
    </g>
    <g id="xtick_34">
     <g id="line2d_67">
      <path d="M 689.143557 501.3525 
L 689.143557 57.8325 
" clip-path="url(#pddaf6cbdda)" style="fill: none; stroke-dasharray: 1.85,0.8; stroke-dashoffset: 0; stroke: #b0b0b0; stroke-opacity: 0.8; stroke-width: 0.5"/>
     </g>
     <g id="line2d_68">
      <g>
       <use xlink:href="#mdf3c162f6d" x="689.143557" y="501.3525" style="stroke: #000000; stroke-width: 0.6"/>
      </g>
     </g>
    </g>
    <g id="xtick_35">
     <g id="line2d_69">
      <path d="M 707.005273 501.3525 
L 707.005273 57.8325 
" clip-path="url(#pddaf6cbdda)" style="fill: none; stroke-dasharray: 1.85,0.8; stroke-dashoffset: 0; stroke: #b0b0b0; stroke-opacity: 0.8; stroke-width: 0.5"/>
     </g>
     <g id="line2d_70">
      <g>
       <use xlink:href="#mdf3c162f6d" x="707.005273" y="501.3525" style="stroke: #000000; stroke-width: 0.6"/>
      </g>
     </g>
    </g>
    <g id="xtick_36">
     <g id="line2d_71">
      <path d="M 724.866989 501.3525 
L 724.866989 57.8325 
" clip-path="url(#pddaf6cbdda)" style="fill: none; stroke-dasharray: 1.85,0.8; stroke-dashoffset: 0; stroke: #b0b0b0; stroke-opacity: 0.8; stroke-width: 0.5"/>
     </g>
     <g id="line2d_72">
      <g>
       <use xlink:href="#mdf3c162f6d" x="724.866989" y="501.3525" style="stroke: #000000; stroke-width: 0.6"/>
      </g>
     </g>
    </g>
    <g id="xtick_37">
     <g id="line2d_73">
      <path d="M 742.728704 501.3525 
L 742.728704 57.8325 
" clip-path="url(#pddaf6cbdda)" style="fill: none; stroke-dasharray: 1.85,0.8; stroke-dashoffset: 0; stroke: #b0b0b0; stroke-opacity: 0.8; stroke-width: 0.5"/>
     </g>
     <g id="line2d_74">
      <g>
       <use xlink:href="#mdf3c162f6d" x="742.728704" y="501.3525" style="stroke: #000000; stroke-width: 0.6"/>
      </g>
     </g>
    </g>
    <g id="text_9">
     <!-- Time (S) -->
     <g transform="translate(407.45 542.305625) scale(0.2 -0.2)">
      <defs>
       <path id="AptosDisplay-54" d="M 1244 0 
L 1244 3734 
L 50 3734 
L 50 4206 
L 2997 4206 
L 2997 3734 
L 1806 3734 
L 1806 0 
L 1244 0 
z
" transform="scale(0.015625)"/>
       <path id="AptosDisplay-69" d="M 413 0 
L 413 3044 
L 934 3044 
L 934 0 
L 413 0 
z
M 675 3616 
Q 525 3616 437 3702 
Q 350 3788 350 3919 
Q 350 4050 437 4136 
Q 525 4222 675 4222 
Q 822 4222 912 4136 
Q 1003 4050 1003 3919 
Q 1003 3788 912 3702 
Q 822 3616 675 3616 
z
" transform="scale(0.015625)"/>
       <path id="AptosDisplay-6d" d="M 413 0 
L 413 3044 
L 919 3044 
L 931 2575 
Q 1063 2756 1303 2914 
Q 1544 3072 1903 3072 
Q 2403 3072 2618 2778 
Q 2834 2484 2834 1963 
L 2834 0 
L 2316 0 
L 2316 1891 
Q 2316 2106 2275 2275 
Q 2234 2444 2120 2539 
Q 2006 2634 1788 2634 
Q 1488 2634 1277 2482 
Q 1066 2331 934 2156 
L 934 0 
L 413 0 
z
M 4206 0 
L 4206 1891 
Q 4206 2106 4164 2275 
Q 4122 2444 4009 2539 
Q 3897 2634 3681 2634 
Q 3381 2634 3165 2484 
Q 2950 2334 2822 2159 
L 2744 2544 
Q 2916 2741 3175 2906 
Q 3434 3072 3800 3072 
Q 4291 3072 4509 2778 
Q 4728 2484 4728 1963 
L 4728 0 
L 4206 0 
z
" transform="scale(0.015625)"/>
       <path id="AptosDisplay-65" d="M 1663 -56 
Q 1188 -56 878 151 
Q 569 359 417 717 
Q 266 1075 266 1522 
Q 266 1988 412 2342 
Q 559 2697 857 2897 
Q 1156 3097 1606 3097 
Q 2209 3097 2550 2722 
Q 2891 2347 2891 1644 
Q 2891 1597 2889 1533 
Q 2888 1469 2881 1441 
L 791 1441 
Q 794 1144 881 895 
Q 969 647 1161 497 
Q 1353 347 1663 347 
Q 1997 347 2183 511 
Q 2369 675 2378 984 
L 2894 984 
Q 2884 663 2732 430 
Q 2581 197 2309 70 
Q 2038 -56 1663 -56 
z
M 794 1822 
L 2375 1822 
Q 2366 2247 2166 2472 
Q 1966 2697 1606 2697 
Q 1241 2697 1036 2473 
Q 831 2250 794 1822 
z
" transform="scale(0.015625)"/>
       <path id="AptosDisplay-20" transform="scale(0.015625)"/>
       <path id="AptosDisplay-28" d="M 1219 -1116 
Q 969 -678 787 -267 
Q 606 144 511 581 
Q 416 1019 416 1528 
Q 416 2028 509 2486 
Q 603 2944 783 3378 
Q 963 3813 1219 4231 
L 1647 4231 
Q 1278 3600 1101 2886 
Q 925 2172 925 1428 
Q 925 766 1125 103 
Q 1325 -559 1647 -1116 
L 1219 -1116 
z
" transform="scale(0.015625)"/>
       <path id="AptosDisplay-53" d="M 1778 -56 
Q 1328 -56 962 81 
Q 597 219 384 512 
Q 172 806 172 1275 
L 734 1275 
Q 738 941 883 750 
Q 1028 559 1267 481 
Q 1506 403 1794 403 
Q 2063 403 2283 483 
Q 2503 563 2634 723 
Q 2766 884 2766 1134 
Q 2766 1356 2662 1497 
Q 2559 1638 2321 1742 
Q 2084 1847 1678 1950 
Q 1203 2075 897 2223 
Q 591 2372 442 2594 
Q 294 2816 294 3156 
Q 294 3516 462 3761 
Q 631 4006 945 4134 
Q 1259 4263 1697 4263 
Q 2103 4263 2440 4131 
Q 2778 4000 2979 3737 
Q 3181 3475 3181 3084 
L 2616 3084 
Q 2622 3441 2356 3623 
Q 2091 3806 1700 3806 
Q 1300 3806 1073 3645 
Q 847 3484 847 3175 
Q 847 2991 944 2867 
Q 1041 2744 1280 2644 
Q 1519 2544 1941 2434 
Q 2428 2303 2731 2153 
Q 3034 2003 3178 1768 
Q 3322 1534 3322 1153 
Q 3322 747 3117 480 
Q 2913 213 2564 78 
Q 2216 -56 1778 -56 
z
" transform="scale(0.015625)"/>
       <path id="AptosDisplay-29" d="M 234 -1116 
Q 609 -481 786 233 
Q 963 947 963 1694 
Q 963 2356 759 3015 
Q 556 3675 234 4231 
L 663 4231 
Q 919 3800 1098 3389 
Q 1278 2978 1373 2540 
Q 1469 2103 1469 1594 
Q 1469 1094 1375 634 
Q 1281 175 1100 -259 
Q 919 -694 663 -1116 
L 234 -1116 
z
" transform="scale(0.015625)"/>
      </defs>
      <use xlink:href="#AptosDisplay-54"/>
      <use xlink:href="#AptosDisplay-69" x="47.705078"/>
      <use xlink:href="#AptosDisplay-6d" x="68.75"/>
      <use xlink:href="#AptosDisplay-65" x="148.730469"/>
      <use xlink:href="#AptosDisplay-20" x="198.144531"/>
      <use xlink:href="#AptosDisplay-28" x="217.431641"/>
      <use xlink:href="#AptosDisplay-53" x="246.875"/>
      <use xlink:href="#AptosDisplay-29" x="301.464844"/>
     </g>
    </g>
   </g>
   <g id="matplotlib.axis_2">
    <g id="ytick_1">
     <g id="line2d_75">
      <path d="M 105.740625 488.532619 
L 775.340625 488.532619 
" clip-path="url(#pddaf6cbdda)" style="fill: none; stroke: #b0b0b0; stroke-opacity: 0.8; stroke-linecap: square"/>
     </g>
     <g id="line2d_76">
      <defs>
       <path id="m49d7a4e129" d="M 0 0 
L -3.5 0 
" style="stroke: #000000; stroke-width: 0.8"/>
      </defs>
      <g>
       <use xlink:href="#m49d7a4e129" x="105.740625" y="488.532619" style="stroke: #000000; stroke-width: 0.8"/>
      </g>
     </g>
     <g id="text_10">
      <!-- 950 -->
      <g transform="translate(67.3625 495.104494) scale(0.2 -0.2)">
       <defs>
        <path id="AptosDisplay-39" d="M 1547 -56 
Q 1200 -56 926 64 
Q 653 184 481 415 
Q 309 647 256 978 
L 788 978 
Q 834 713 1029 552 
Q 1225 391 1547 391 
Q 2022 391 2294 778 
Q 2566 1166 2566 2019 
L 2566 2197 
Q 2566 2753 2439 3079 
Q 2313 3406 2102 3547 
Q 1891 3688 1634 3688 
Q 1206 3688 998 3433 
Q 791 3178 791 2800 
Q 791 2422 991 2203 
Q 1191 1984 1547 1984 
Q 1831 1984 2045 2071 
Q 2259 2159 2417 2300 
Q 2575 2441 2681 2594 
L 2731 2209 
Q 2609 2038 2432 1884 
Q 2256 1731 2020 1634 
Q 1784 1538 1484 1538 
Q 1122 1538 842 1683 
Q 563 1828 405 2108 
Q 247 2388 247 2784 
Q 247 3175 414 3479 
Q 581 3784 892 3959 
Q 1203 4134 1631 4134 
Q 2056 4134 2389 3926 
Q 2722 3719 2914 3262 
Q 3106 2806 3106 2066 
Q 3106 1338 2912 869 
Q 2719 400 2369 172 
Q 2019 -56 1547 -56 
z
" transform="scale(0.015625)"/>
       </defs>
       <use xlink:href="#AptosDisplay-39"/>
       <use xlink:href="#AptosDisplay-35" x="52.294922"/>
       <use xlink:href="#AptosDisplay-30" x="104.589844"/>
      </g>
     </g>
    </g>
    <g id="ytick_2">
     <g id="line2d_77">
      <path d="M 105.740625 429.905471 
L 775.340625 429.905471 
" clip-path="url(#pddaf6cbdda)" style="fill: none; stroke: #b0b0b0; stroke-opacity: 0.8; stroke-linecap: square"/>
     </g>
     <g id="line2d_78">
      <g>
       <use xlink:href="#m49d7a4e129" x="105.740625" y="429.905471" style="stroke: #000000; stroke-width: 0.8"/>
      </g>
     </g>
     <g id="text_11">
      <!-- 975 -->
      <g transform="translate(67.3625 436.477346) scale(0.2 -0.2)">
       <use xlink:href="#AptosDisplay-39"/>
       <use xlink:href="#AptosDisplay-37" x="52.294922"/>
       <use xlink:href="#AptosDisplay-35" x="104.589844"/>
      </g>
     </g>
    </g>
    <g id="ytick_3">
     <g id="line2d_79">
      <path d="M 105.740625 371.278324 
L 775.340625 371.278324 
" clip-path="url(#pddaf6cbdda)" style="fill: none; stroke: #b0b0b0; stroke-opacity: 0.8; stroke-linecap: square"/>
     </g>
     <g id="line2d_80">
      <g>
       <use xlink:href="#m49d7a4e129" x="105.740625" y="371.278324" style="stroke: #000000; stroke-width: 0.8"/>
      </g>
     </g>
     <g id="text_12">
      <!-- 1000 -->
      <g transform="translate(56.903125 377.850199) scale(0.2 -0.2)">
       <use xlink:href="#AptosDisplay-31"/>
       <use xlink:href="#AptosDisplay-30" x="52.294922"/>
       <use xlink:href="#AptosDisplay-30" x="104.589844"/>
       <use xlink:href="#AptosDisplay-30" x="156.884766"/>
      </g>
     </g>
    </g>
    <g id="ytick_4">
     <g id="line2d_81">
      <path d="M 105.740625 312.651176 
L 775.340625 312.651176 
" clip-path="url(#pddaf6cbdda)" style="fill: none; stroke: #b0b0b0; stroke-opacity: 0.8; stroke-linecap: square"/>
     </g>
     <g id="line2d_82">
      <g>
       <use xlink:href="#m49d7a4e129" x="105.740625" y="312.651176" style="stroke: #000000; stroke-width: 0.8"/>
      </g>
     </g>
     <g id="text_13">
      <!-- 1025 -->
      <g transform="translate(56.903125 319.223051) scale(0.2 -0.2)">
       <use xlink:href="#AptosDisplay-31"/>
       <use xlink:href="#AptosDisplay-30" x="52.294922"/>
       <use xlink:href="#AptosDisplay-32" x="104.589844"/>
       <use xlink:href="#AptosDisplay-35" x="156.884766"/>
      </g>
     </g>
    </g>
    <g id="ytick_5">
     <g id="line2d_83">
      <path d="M 105.740625 254.024028 
L 775.340625 254.024028 
" clip-path="url(#pddaf6cbdda)" style="fill: none; stroke: #b0b0b0; stroke-opacity: 0.8; stroke-linecap: square"/>
     </g>
     <g id="line2d_84">
      <g>
       <use xlink:href="#m49d7a4e129" x="105.740625" y="254.024028" style="stroke: #000000; stroke-width: 0.8"/>
      </g>
     </g>
     <g id="text_14">
      <!-- 1050 -->
      <g transform="translate(56.903125 260.595903) scale(0.2 -0.2)">
       <use xlink:href="#AptosDisplay-31"/>
       <use xlink:href="#AptosDisplay-30" x="52.294922"/>
       <use xlink:href="#AptosDisplay-35" x="104.589844"/>
       <use xlink:href="#AptosDisplay-30" x="156.884766"/>
      </g>
     </g>
    </g>
    <g id="ytick_6">
     <g id="line2d_85">
      <path d="M 105.740625 195.396881 
L 775.340625 195.396881 
" clip-path="url(#pddaf6cbdda)" style="fill: none; stroke: #b0b0b0; stroke-opacity: 0.8; stroke-linecap: square"/>
     </g>
     <g id="line2d_86">
      <g>
       <use xlink:href="#m49d7a4e129" x="105.740625" y="195.396881" style="stroke: #000000; stroke-width: 0.8"/>
      </g>
     </g>
     <g id="text_15">
      <!-- 1075 -->
      <g transform="translate(56.903125 201.968756) scale(0.2 -0.2)">
       <use xlink:href="#AptosDisplay-31"/>
       <use xlink:href="#AptosDisplay-30" x="52.294922"/>
       <use xlink:href="#AptosDisplay-37" x="104.589844"/>
       <use xlink:href="#AptosDisplay-35" x="156.884766"/>
      </g>
     </g>
    </g>
    <g id="ytick_7">
     <g id="line2d_87">
      <path d="M 105.740625 136.769733 
L 775.340625 136.769733 
" clip-path="url(#pddaf6cbdda)" style="fill: none; stroke: #b0b0b0; stroke-opacity: 0.8; stroke-linecap: square"/>
     </g>
     <g id="line2d_88">
      <g>
       <use xlink:href="#m49d7a4e129" x="105.740625" y="136.769733" style="stroke: #000000; stroke-width: 0.8"/>
      </g>
     </g>
     <g id="text_16">
      <!-- 1100 -->
      <g transform="translate(56.903125 143.341608) scale(0.2 -0.2)">
       <use xlink:href="#AptosDisplay-31"/>
       <use xlink:href="#AptosDisplay-31" x="52.294922"/>
       <use xlink:href="#AptosDisplay-30" x="104.589844"/>
       <use xlink:href="#AptosDisplay-30" x="156.884766"/>
      </g>
     </g>
    </g>
    <g id="ytick_8">
     <g id="line2d_89">
      <path d="M 105.740625 78.142585 
L 775.340625 78.142585 
" clip-path="url(#pddaf6cbdda)" style="fill: none; stroke: #b0b0b0; stroke-opacity: 0.8; stroke-linecap: square"/>
     </g>
     <g id="line2d_90">
      <g>
       <use xlink:href="#m49d7a4e129" x="105.740625" y="78.142585" style="stroke: #000000; stroke-width: 0.8"/>
      </g>
     </g>
     <g id="text_17">
      <!-- 1125 -->
      <g transform="translate(56.903125 84.71446) scale(0.2 -0.2)">
       <use xlink:href="#AptosDisplay-31"/>
       <use xlink:href="#AptosDisplay-31" x="52.294922"/>
       <use xlink:href="#AptosDisplay-32" x="104.589844"/>
       <use xlink:href="#AptosDisplay-35" x="156.884766"/>
      </g>
     </g>
    </g>
    <g id="ytick_9">
     <g id="line2d_91">
      <path d="M 105.740625 500.258048 
L 775.340625 500.258048 
" clip-path="url(#pddaf6cbdda)" style="fill: none; stroke-dasharray: 1.85,0.8; stroke-dashoffset: 0; stroke: #b0b0b0; stroke-opacity: 0.8; stroke-width: 0.5"/>
     </g>
     <g id="line2d_92">
      <defs>
       <path id="m1cc8a6a7dd" d="M 0 0 
L -2 0 
" style="stroke: #000000; stroke-width: 0.6"/>
      </defs>
      <g>
       <use xlink:href="#m1cc8a6a7dd" x="105.740625" y="500.258048" style="stroke: #000000; stroke-width: 0.6"/>
      </g>
     </g>
    </g>
    <g id="ytick_10">
     <g id="line2d_93">
      <path d="M 105.740625 476.807189 
L 775.340625 476.807189 
" clip-path="url(#pddaf6cbdda)" style="fill: none; stroke-dasharray: 1.85,0.8; stroke-dashoffset: 0; stroke: #b0b0b0; stroke-opacity: 0.8; stroke-width: 0.5"/>
     </g>
     <g id="line2d_94">
      <g>
       <use xlink:href="#m1cc8a6a7dd" x="105.740625" y="476.807189" style="stroke: #000000; stroke-width: 0.6"/>
      </g>
     </g>
    </g>
    <g id="ytick_11">
     <g id="line2d_95">
      <path d="M 105.740625 465.08176 
L 775.340625 465.08176 
" clip-path="url(#pddaf6cbdda)" style="fill: none; stroke-dasharray: 1.85,0.8; stroke-dashoffset: 0; stroke: #b0b0b0; stroke-opacity: 0.8; stroke-width: 0.5"/>
     </g>
     <g id="line2d_96">
      <g>
       <use xlink:href="#m1cc8a6a7dd" x="105.740625" y="465.08176" style="stroke: #000000; stroke-width: 0.6"/>
      </g>
     </g>
    </g>
    <g id="ytick_12">
     <g id="line2d_97">
      <path d="M 105.740625 453.35633 
L 775.340625 453.35633 
" clip-path="url(#pddaf6cbdda)" style="fill: none; stroke-dasharray: 1.85,0.8; stroke-dashoffset: 0; stroke: #b0b0b0; stroke-opacity: 0.8; stroke-width: 0.5"/>
     </g>
     <g id="line2d_98">
      <g>
       <use xlink:href="#m1cc8a6a7dd" x="105.740625" y="453.35633" style="stroke: #000000; stroke-width: 0.6"/>
      </g>
     </g>
    </g>
    <g id="ytick_13">
     <g id="line2d_99">
      <path d="M 105.740625 441.630901 
L 775.340625 441.630901 
" clip-path="url(#pddaf6cbdda)" style="fill: none; stroke-dasharray: 1.85,0.8; stroke-dashoffset: 0; stroke: #b0b0b0; stroke-opacity: 0.8; stroke-width: 0.5"/>
     </g>
     <g id="line2d_100">
      <g>
       <use xlink:href="#m1cc8a6a7dd" x="105.740625" y="441.630901" style="stroke: #000000; stroke-width: 0.6"/>
      </g>
     </g>
    </g>
    <g id="ytick_14">
     <g id="line2d_101">
      <path d="M 105.740625 418.180042 
L 775.340625 418.180042 
" clip-path="url(#pddaf6cbdda)" style="fill: none; stroke-dasharray: 1.85,0.8; stroke-dashoffset: 0; stroke: #b0b0b0; stroke-opacity: 0.8; stroke-width: 0.5"/>
     </g>
     <g id="line2d_102">
      <g>
       <use xlink:href="#m1cc8a6a7dd" x="105.740625" y="418.180042" style="stroke: #000000; stroke-width: 0.6"/>
      </g>
     </g>
    </g>
    <g id="ytick_15">
     <g id="line2d_103">
      <path d="M 105.740625 406.454612 
L 775.340625 406.454612 
" clip-path="url(#pddaf6cbdda)" style="fill: none; stroke-dasharray: 1.85,0.8; stroke-dashoffset: 0; stroke: #b0b0b0; stroke-opacity: 0.8; stroke-width: 0.5"/>
     </g>
     <g id="line2d_104">
      <g>
       <use xlink:href="#m1cc8a6a7dd" x="105.740625" y="406.454612" style="stroke: #000000; stroke-width: 0.6"/>
      </g>
     </g>
    </g>
    <g id="ytick_16">
     <g id="line2d_105">
      <path d="M 105.740625 394.729183 
L 775.340625 394.729183 
" clip-path="url(#pddaf6cbdda)" style="fill: none; stroke-dasharray: 1.85,0.8; stroke-dashoffset: 0; stroke: #b0b0b0; stroke-opacity: 0.8; stroke-width: 0.5"/>
     </g>
     <g id="line2d_106">
      <g>
       <use xlink:href="#m1cc8a6a7dd" x="105.740625" y="394.729183" style="stroke: #000000; stroke-width: 0.6"/>
      </g>
     </g>
    </g>
    <g id="ytick_17">
     <g id="line2d_107">
      <path d="M 105.740625 383.003753 
L 775.340625 383.003753 
" clip-path="url(#pddaf6cbdda)" style="fill: none; stroke-dasharray: 1.85,0.8; stroke-dashoffset: 0; stroke: #b0b0b0; stroke-opacity: 0.8; stroke-width: 0.5"/>
     </g>
     <g id="line2d_108">
      <g>
       <use xlink:href="#m1cc8a6a7dd" x="105.740625" y="383.003753" style="stroke: #000000; stroke-width: 0.6"/>
      </g>
     </g>
    </g>
    <g id="ytick_18">
     <g id="line2d_109">
      <path d="M 105.740625 359.552894 
L 775.340625 359.552894 
" clip-path="url(#pddaf6cbdda)" style="fill: none; stroke-dasharray: 1.85,0.8; stroke-dashoffset: 0; stroke: #b0b0b0; stroke-opacity: 0.8; stroke-width: 0.5"/>
     </g>
     <g id="line2d_110">
      <g>
       <use xlink:href="#m1cc8a6a7dd" x="105.740625" y="359.552894" style="stroke: #000000; stroke-width: 0.6"/>
      </g>
     </g>
    </g>
    <g id="ytick_19">
     <g id="line2d_111">
      <path d="M 105.740625 347.827465 
L 775.340625 347.827465 
" clip-path="url(#pddaf6cbdda)" style="fill: none; stroke-dasharray: 1.85,0.8; stroke-dashoffset: 0; stroke: #b0b0b0; stroke-opacity: 0.8; stroke-width: 0.5"/>
     </g>
     <g id="line2d_112">
      <g>
       <use xlink:href="#m1cc8a6a7dd" x="105.740625" y="347.827465" style="stroke: #000000; stroke-width: 0.6"/>
      </g>
     </g>
    </g>
    <g id="ytick_20">
     <g id="line2d_113">
      <path d="M 105.740625 336.102035 
L 775.340625 336.102035 
" clip-path="url(#pddaf6cbdda)" style="fill: none; stroke-dasharray: 1.85,0.8; stroke-dashoffset: 0; stroke: #b0b0b0; stroke-opacity: 0.8; stroke-width: 0.5"/>
     </g>
     <g id="line2d_114">
      <g>
       <use xlink:href="#m1cc8a6a7dd" x="105.740625" y="336.102035" style="stroke: #000000; stroke-width: 0.6"/>
      </g>
     </g>
    </g>
    <g id="ytick_21">
     <g id="line2d_115">
      <path d="M 105.740625 324.376606 
L 775.340625 324.376606 
" clip-path="url(#pddaf6cbdda)" style="fill: none; stroke-dasharray: 1.85,0.8; stroke-dashoffset: 0; stroke: #b0b0b0; stroke-opacity: 0.8; stroke-width: 0.5"/>
     </g>
     <g id="line2d_116">
      <g>
       <use xlink:href="#m1cc8a6a7dd" x="105.740625" y="324.376606" style="stroke: #000000; stroke-width: 0.6"/>
      </g>
     </g>
    </g>
    <g id="ytick_22">
     <g id="line2d_117">
      <path d="M 105.740625 300.925746 
L 775.340625 300.925746 
" clip-path="url(#pddaf6cbdda)" style="fill: none; stroke-dasharray: 1.85,0.8; stroke-dashoffset: 0; stroke: #b0b0b0; stroke-opacity: 0.8; stroke-width: 0.5"/>
     </g>
     <g id="line2d_118">
      <g>
       <use xlink:href="#m1cc8a6a7dd" x="105.740625" y="300.925746" style="stroke: #000000; stroke-width: 0.6"/>
      </g>
     </g>
    </g>
    <g id="ytick_23">
     <g id="line2d_119">
      <path d="M 105.740625 289.200317 
L 775.340625 289.200317 
" clip-path="url(#pddaf6cbdda)" style="fill: none; stroke-dasharray: 1.85,0.8; stroke-dashoffset: 0; stroke: #b0b0b0; stroke-opacity: 0.8; stroke-width: 0.5"/>
     </g>
     <g id="line2d_120">
      <g>
       <use xlink:href="#m1cc8a6a7dd" x="105.740625" y="289.200317" style="stroke: #000000; stroke-width: 0.6"/>
      </g>
     </g>
    </g>
    <g id="ytick_24">
     <g id="line2d_121">
      <path d="M 105.740625 277.474887 
L 775.340625 277.474887 
" clip-path="url(#pddaf6cbdda)" style="fill: none; stroke-dasharray: 1.85,0.8; stroke-dashoffset: 0; stroke: #b0b0b0; stroke-opacity: 0.8; stroke-width: 0.5"/>
     </g>
     <g id="line2d_122">
      <g>
       <use xlink:href="#m1cc8a6a7dd" x="105.740625" y="277.474887" style="stroke: #000000; stroke-width: 0.6"/>
      </g>
     </g>
    </g>
    <g id="ytick_25">
     <g id="line2d_123">
      <path d="M 105.740625 265.749458 
L 775.340625 265.749458 
" clip-path="url(#pddaf6cbdda)" style="fill: none; stroke-dasharray: 1.85,0.8; stroke-dashoffset: 0; stroke: #b0b0b0; stroke-opacity: 0.8; stroke-width: 0.5"/>
     </g>
     <g id="line2d_124">
      <g>
       <use xlink:href="#m1cc8a6a7dd" x="105.740625" y="265.749458" style="stroke: #000000; stroke-width: 0.6"/>
      </g>
     </g>
    </g>
    <g id="ytick_26">
     <g id="line2d_125">
      <path d="M 105.740625 242.298599 
L 775.340625 242.298599 
" clip-path="url(#pddaf6cbdda)" style="fill: none; stroke-dasharray: 1.85,0.8; stroke-dashoffset: 0; stroke: #b0b0b0; stroke-opacity: 0.8; stroke-width: 0.5"/>
     </g>
     <g id="line2d_126">
      <g>
       <use xlink:href="#m1cc8a6a7dd" x="105.740625" y="242.298599" style="stroke: #000000; stroke-width: 0.6"/>
      </g>
     </g>
    </g>
    <g id="ytick_27">
     <g id="line2d_127">
      <path d="M 105.740625 230.573169 
L 775.340625 230.573169 
" clip-path="url(#pddaf6cbdda)" style="fill: none; stroke-dasharray: 1.85,0.8; stroke-dashoffset: 0; stroke: #b0b0b0; stroke-opacity: 0.8; stroke-width: 0.5"/>
     </g>
     <g id="line2d_128">
      <g>
       <use xlink:href="#m1cc8a6a7dd" x="105.740625" y="230.573169" style="stroke: #000000; stroke-width: 0.6"/>
      </g>
     </g>
    </g>
    <g id="ytick_28">
     <g id="line2d_129">
      <path d="M 105.740625 218.84774 
L 775.340625 218.84774 
" clip-path="url(#pddaf6cbdda)" style="fill: none; stroke-dasharray: 1.85,0.8; stroke-dashoffset: 0; stroke: #b0b0b0; stroke-opacity: 0.8; stroke-width: 0.5"/>
     </g>
     <g id="line2d_130">
      <g>
       <use xlink:href="#m1cc8a6a7dd" x="105.740625" y="218.84774" style="stroke: #000000; stroke-width: 0.6"/>
      </g>
     </g>
    </g>
    <g id="ytick_29">
     <g id="line2d_131">
      <path d="M 105.740625 207.12231 
L 775.340625 207.12231 
" clip-path="url(#pddaf6cbdda)" style="fill: none; stroke-dasharray: 1.85,0.8; stroke-dashoffset: 0; stroke: #b0b0b0; stroke-opacity: 0.8; stroke-width: 0.5"/>
     </g>
     <g id="line2d_132">
      <g>
       <use xlink:href="#m1cc8a6a7dd" x="105.740625" y="207.12231" style="stroke: #000000; stroke-width: 0.6"/>
      </g>
     </g>
    </g>
    <g id="ytick_30">
     <g id="line2d_133">
      <path d="M 105.740625 183.671451 
L 775.340625 183.671451 
" clip-path="url(#pddaf6cbdda)" style="fill: none; stroke-dasharray: 1.85,0.8; stroke-dashoffset: 0; stroke: #b0b0b0; stroke-opacity: 0.8; stroke-width: 0.5"/>
     </g>
     <g id="line2d_134">
      <g>
       <use xlink:href="#m1cc8a6a7dd" x="105.740625" y="183.671451" style="stroke: #000000; stroke-width: 0.6"/>
      </g>
     </g>
    </g>
    <g id="ytick_31">
     <g id="line2d_135">
      <path d="M 105.740625 171.946022 
L 775.340625 171.946022 
" clip-path="url(#pddaf6cbdda)" style="fill: none; stroke-dasharray: 1.85,0.8; stroke-dashoffset: 0; stroke: #b0b0b0; stroke-opacity: 0.8; stroke-width: 0.5"/>
     </g>
     <g id="line2d_136">
      <g>
       <use xlink:href="#m1cc8a6a7dd" x="105.740625" y="171.946022" style="stroke: #000000; stroke-width: 0.6"/>
      </g>
     </g>
    </g>
    <g id="ytick_32">
     <g id="line2d_137">
      <path d="M 105.740625 160.220592 
L 775.340625 160.220592 
" clip-path="url(#pddaf6cbdda)" style="fill: none; stroke-dasharray: 1.85,0.8; stroke-dashoffset: 0; stroke: #b0b0b0; stroke-opacity: 0.8; stroke-width: 0.5"/>
     </g>
     <g id="line2d_138">
      <g>
       <use xlink:href="#m1cc8a6a7dd" x="105.740625" y="160.220592" style="stroke: #000000; stroke-width: 0.6"/>
      </g>
     </g>
    </g>
    <g id="ytick_33">
     <g id="line2d_139">
      <path d="M 105.740625 148.495163 
L 775.340625 148.495163 
" clip-path="url(#pddaf6cbdda)" style="fill: none; stroke-dasharray: 1.85,0.8; stroke-dashoffset: 0; stroke: #b0b0b0; stroke-opacity: 0.8; stroke-width: 0.5"/>
     </g>
     <g id="line2d_140">
      <g>
       <use xlink:href="#m1cc8a6a7dd" x="105.740625" y="148.495163" style="stroke: #000000; stroke-width: 0.6"/>
      </g>
     </g>
    </g>
    <g id="ytick_34">
     <g id="line2d_141">
      <path d="M 105.740625 125.044304 
L 775.340625 125.044304 
" clip-path="url(#pddaf6cbdda)" style="fill: none; stroke-dasharray: 1.85,0.8; stroke-dashoffset: 0; stroke: #b0b0b0; stroke-opacity: 0.8; stroke-width: 0.5"/>
     </g>
     <g id="line2d_142">
      <g>
       <use xlink:href="#m1cc8a6a7dd" x="105.740625" y="125.044304" style="stroke: #000000; stroke-width: 0.6"/>
      </g>
     </g>
    </g>
    <g id="ytick_35">
     <g id="line2d_143">
      <path d="M 105.740625 113.318874 
L 775.340625 113.318874 
" clip-path="url(#pddaf6cbdda)" style="fill: none; stroke-dasharray: 1.85,0.8; stroke-dashoffset: 0; stroke: #b0b0b0; stroke-opacity: 0.8; stroke-width: 0.5"/>
     </g>
     <g id="line2d_144">
      <g>
       <use xlink:href="#m1cc8a6a7dd" x="105.740625" y="113.318874" style="stroke: #000000; stroke-width: 0.6"/>
      </g>
     </g>
    </g>
    <g id="ytick_36">
     <g id="line2d_145">
      <path d="M 105.740625 101.593445 
L 775.340625 101.593445 
" clip-path="url(#pddaf6cbdda)" style="fill: none; stroke-dasharray: 1.85,0.8; stroke-dashoffset: 0; stroke: #b0b0b0; stroke-opacity: 0.8; stroke-width: 0.5"/>
     </g>
     <g id="line2d_146">
      <g>
       <use xlink:href="#m1cc8a6a7dd" x="105.740625" y="101.593445" style="stroke: #000000; stroke-width: 0.6"/>
      </g>
     </g>
    </g>
    <g id="ytick_37">
     <g id="line2d_147">
      <path d="M 105.740625 89.868015 
L 775.340625 89.868015 
" clip-path="url(#pddaf6cbdda)" style="fill: none; stroke-dasharray: 1.85,0.8; stroke-dashoffset: 0; stroke: #b0b0b0; stroke-opacity: 0.8; stroke-width: 0.5"/>
     </g>
     <g id="line2d_148">
      <g>
       <use xlink:href="#m1cc8a6a7dd" x="105.740625" y="89.868015" style="stroke: #000000; stroke-width: 0.6"/>
      </g>
     </g>
    </g>
    <g id="ytick_38">
     <g id="line2d_149">
      <path d="M 105.740625 66.417156 
L 775.340625 66.417156 
" clip-path="url(#pddaf6cbdda)" style="fill: none; stroke-dasharray: 1.85,0.8; stroke-dashoffset: 0; stroke: #b0b0b0; stroke-opacity: 0.8; stroke-width: 0.5"/>
     </g>
     <g id="line2d_150">
      <g>
       <use xlink:href="#m1cc8a6a7dd" x="105.740625" y="66.417156" style="stroke: #000000; stroke-width: 0.6"/>
      </g>
     </g>
    </g>
    <g id="text_18">
     <!-- Light (W/m^2) -->
     <g transform="translate(49.221875 337.558125) rotate(-90) scale(0.2 -0.2)">
      <defs>
       <path id="AptosDisplay-4c" d="M 472 0 
L 472 4206 
L 1034 4206 
L 1034 484 
L 3000 484 
L 3000 0 
L 472 0 
z
" transform="scale(0.015625)"/>
       <path id="AptosDisplay-67" d="M 1397 -1178 
Q 925 -1178 640 -1065 
Q 356 -953 229 -765 
Q 103 -578 103 -359 
Q 103 -94 329 112 
Q 556 319 1031 403 
L 1128 575 
L 1475 575 
Q 2184 575 2489 376 
Q 2794 178 2794 -238 
Q 2794 -650 2437 -914 
Q 2081 -1178 1397 -1178 
z
M 1384 -800 
Q 1878 -800 2086 -650 
Q 2294 -500 2294 -278 
Q 2294 -147 2225 -51 
Q 2156 44 1975 97 
Q 1794 150 1456 150 
L 1034 150 
Q 819 97 708 -31 
Q 597 -159 597 -328 
Q 597 -516 778 -658 
Q 959 -800 1384 -800 
z
M 1025 216 
Q 722 228 550 312 
Q 378 397 306 511 
Q 234 625 234 722 
Q 234 866 362 1009 
Q 491 1153 772 1241 
L 1038 1069 
Q 866 1031 772 953 
Q 678 875 678 791 
Q 678 731 734 682 
Q 791 634 928 606 
Q 1066 578 1303 575 
L 1025 216 
z
M 1363 984 
Q 1003 984 753 1128 
Q 503 1272 375 1509 
Q 247 1747 247 2022 
Q 247 2313 376 2550 
Q 506 2788 754 2928 
Q 1003 3069 1366 3069 
Q 1738 3069 1983 2928 
Q 2228 2788 2351 2550 
Q 2475 2313 2475 2022 
Q 2475 1741 2350 1505 
Q 2225 1269 1979 1126 
Q 1734 984 1363 984 
z
M 1366 1341 
Q 1641 1341 1812 1512 
Q 1984 1684 1984 2022 
Q 1984 2375 1817 2545 
Q 1650 2716 1372 2716 
Q 1094 2716 919 2541 
Q 744 2366 744 2025 
Q 744 1681 931 1511 
Q 1119 1341 1366 1341 
z
M 2131 2734 
L 1922 2931 
Q 2038 3225 2252 3331 
Q 2466 3438 2794 3447 
L 2794 3006 
Q 2588 3006 2416 2961 
Q 2244 2916 2131 2734 
z
" transform="scale(0.015625)"/>
       <path id="AptosDisplay-68" d="M 413 0 
L 413 4206 
L 931 4206 
L 931 2575 
Q 1069 2756 1317 2914 
Q 1566 3072 1950 3072 
Q 2428 3072 2637 2783 
Q 2847 2494 2847 1963 
L 2847 0 
L 2328 0 
L 2328 1891 
Q 2328 2106 2287 2275 
Q 2247 2444 2139 2539 
Q 2031 2634 1822 2634 
Q 1503 2634 1284 2482 
Q 1066 2331 934 2156 
L 934 0 
L 413 0 
z
" transform="scale(0.015625)"/>
       <path id="AptosDisplay-74" d="M 1466 0 
Q 1100 0 901 117 
Q 703 234 629 454 
Q 556 675 556 984 
L 556 2622 
L 50 2622 
L 50 3044 
L 556 3044 
L 556 3741 
L 1078 3741 
L 1078 3044 
L 1831 3044 
L 1831 2622 
L 1078 2622 
L 1078 1009 
Q 1078 725 1151 575 
Q 1225 425 1500 425 
L 1831 425 
L 1831 0 
L 1466 0 
z
" transform="scale(0.015625)"/>
       <path id="AptosDisplay-57" d="M 1216 0 
L -13 4206 
L 575 4206 
L 1525 697 
L 2531 4206 
L 3156 4206 
L 4163 697 
L 5119 4206 
L 5681 4206 
L 4453 0 
L 3866 0 
L 2831 3556 
L 1813 0 
L 1216 0 
z
" transform="scale(0.015625)"/>
       <path id="AptosDisplay-2f" d="M 72 0 
L 1603 4206 
L 2100 4206 
L 569 0 
L 72 0 
z
" transform="scale(0.015625)"/>
       <path id="AptosDisplay-5e" d="M 428 2438 
L 1459 4206 
L 1884 4206 
L 2916 2438 
L 2366 2438 
L 1672 3650 
L 978 2438 
L 428 2438 
z
" transform="scale(0.015625)"/>
      </defs>
      <use xlink:href="#AptosDisplay-4c"/>
      <use xlink:href="#AptosDisplay-69" x="48.4375"/>
      <use xlink:href="#AptosDisplay-67" x="69.482422"/>
      <use xlink:href="#AptosDisplay-68" x="113.427734"/>
      <use xlink:href="#AptosDisplay-74" x="164.013672"/>
      <use xlink:href="#AptosDisplay-20" x="194.384766"/>
      <use xlink:href="#AptosDisplay-28" x="213.671875"/>
      <use xlink:href="#AptosDisplay-57" x="243.115234"/>
      <use xlink:href="#AptosDisplay-2f" x="331.689453"/>
      <use xlink:href="#AptosDisplay-6d" x="365.625"/>
      <use xlink:href="#AptosDisplay-5e" x="445.605469"/>
      <use xlink:href="#AptosDisplay-32" x="497.900391"/>
      <use xlink:href="#AptosDisplay-29" x="550.195312"/>
     </g>
    </g>
   </g>
   <g id="line2d_151">
    <path d="M 136.176989 356.096237 
L 136.891457 357.13042 
L 137.605926 359.198786 
L 138.320395 356.096237 
L 139.034863 361.264807 
L 139.749332 358.164603 
L 140.4638 361.264807 
L 141.178269 360.232969 
L 141.892738 357.13042 
L 143.321675 361.264807 
L 144.036144 358.164603 
L 145.465081 360.232969 
L 146.179549 354.027872 
L 146.894018 351.961851 
L 147.608487 358.164603 
L 148.322955 363.333173 
L 149.037424 358.164603 
L 149.751893 358.164603 
L 150.466361 362.29899 
L 151.18083 363.333173 
L 151.895298 341.622367 
L 152.609767 364.367355 
L 153.324236 366.435721 
L 154.038704 77.9925 
L 154.753173 340.588184 
L 155.467642 154.496237 
L 156.18211 365.401538 
L 156.896579 362.29899 
L 157.611048 352.996034 
L 158.325516 367.467559 
L 159.039985 362.29899 
L 159.754453 363.333173 
L 160.468922 367.467559 
L 161.183391 359.198786 
L 161.897859 362.29899 
L 162.612328 361.264807 
L 163.326797 358.164603 
L 164.041265 358.164603 
L 164.752161 373.672656 
L 165.470202 358.164603 
L 166.184671 359.198786 
L 166.89914 358.164603 
L 168.328077 364.367355 
L 169.042546 359.198786 
L 169.757014 363.333173 
L 170.471483 360.232969 
L 171.185952 351.961851 
L 172.614889 362.29899 
L 173.329357 361.264807 
L 174.043826 364.367355 
L 174.758295 361.264807 
L 175.472763 359.198786 
L 176.187232 362.29899 
L 176.901701 361.264807 
L 177.616169 357.13042 
L 179.045106 357.13042 
L 179.759575 364.367355 
L 180.474044 360.232969 
L 181.188512 362.29899 
L 181.902981 357.13042 
L 182.61745 346.790937 
L 183.331918 361.264807 
L 184.046387 366.435721 
L 184.760855 400.552031 
L 185.475324 354.027872 
L 186.189793 363.333173 
L 186.904261 362.29899 
L 187.61873 341.622367 
L 188.333199 360.232969 
L 189.047667 361.264807 
L 189.762136 364.367355 
L 190.476605 361.264807 
L 191.191073 366.435721 
L 191.905542 362.29899 
L 192.62001 356.096237 
L 193.334479 366.435721 
L 194.048948 366.435721 
L 194.763416 373.672656 
L 195.477885 364.367355 
L 196.192354 359.198786 
L 196.906822 364.367355 
L 197.621291 359.198786 
L 198.335759 356.096237 
L 199.050228 362.29899 
L 199.764697 356.096237 
L 200.479165 367.467559 
L 201.193634 303.369326 
L 201.908103 319.911562 
L 202.622571 352.996034 
L 203.33704 358.164603 
L 204.051508 352.996034 
L 204.765977 358.164603 
L 205.480446 356.096237 
L 206.194914 352.996034 
L 206.909383 365.401538 
L 207.623852 355.062055 
L 208.33832 362.29899 
L 209.052789 361.264807 
L 209.767258 363.333173 
L 210.481726 367.467559 
L 211.196195 361.264807 
L 211.910663 362.29899 
L 212.625132 365.401538 
L 213.339601 362.29899 
L 214.054069 358.164603 
L 214.768538 363.333173 
L 215.483007 289.929639 
L 216.197475 430.533954 
L 216.911944 303.369326 
L 217.626412 358.164603 
L 218.340881 359.198786 
L 219.05535 356.096237 
L 219.769818 359.198786 
L 220.484287 355.062055 
L 221.198756 355.062055 
L 221.913224 361.264807 
L 222.627693 354.027872 
L 223.342161 354.027872 
L 224.05663 359.198786 
L 224.771099 360.232969 
L 225.485567 358.164603 
L 226.200036 362.29899 
L 226.914505 359.198786 
L 227.628973 362.29899 
L 228.343442 359.198786 
L 229.057911 362.29899 
L 229.772379 481.1925 
L 230.486848 359.198786 
L 231.201316 359.198786 
L 231.915785 361.264807 
L 232.630254 358.164603 
L 233.344722 351.961851 
L 234.059191 365.401538 
L 234.77366 363.333173 
L 235.488128 359.198786 
L 236.202597 366.435721 
L 236.917065 366.435721 
L 237.631534 367.467559 
L 238.346003 359.198786 
L 239.060471 357.13042 
L 239.77494 369.535925 
L 240.489409 359.198786 
L 241.203877 390.212547 
L 241.918346 427.431406 
L 242.632815 356.096237 
L 243.347283 365.401538 
L 244.061752 365.401538 
L 245.490689 357.13042 
L 246.205158 357.13042 
L 246.919626 358.164603 
L 247.634095 303.369326 
L 248.348564 361.264807 
L 249.063032 362.29899 
L 249.777501 342.65655 
L 250.491969 359.198786 
L 251.206438 362.29899 
L 251.920907 361.264807 
L 252.635375 359.198786 
L 253.349844 356.096237 
L 254.778781 360.232969 
L 255.49325 351.961851 
L 256.207718 357.13042 
L 256.922187 360.232969 
L 257.636656 359.198786 
L 258.351124 363.333173 
L 259.065593 370.570108 
L 259.780062 365.401538 
L 260.49453 361.264807 
L 261.208999 371.604291 
L 261.923468 361.264807 
L 262.637936 362.29899 
L 263.352405 362.29899 
L 264.066873 358.164603 
L 264.781342 350.927668 
L 265.495811 361.264807 
L 266.210279 360.232969 
L 266.924748 358.164603 
L 267.639217 362.29899 
L 268.353685 359.198786 
L 269.782622 361.264807 
L 270.497091 365.401538 
L 271.21156 363.333173 
L 272.640497 363.333173 
L 273.354966 402.620397 
L 274.069434 362.29899 
L 274.783903 362.29899 
L 275.498371 363.333173 
L 276.21284 363.333173 
L 276.927309 361.264807 
L 277.641777 365.401538 
L 278.356246 356.096237 
L 279.070715 350.927668 
L 279.785183 328.18268 
L 280.499652 321.979928 
L 281.214121 360.232969 
L 281.928589 363.333173 
L 282.643058 365.401538 
L 283.357526 361.264807 
L 284.071995 365.401538 
L 284.786464 361.264807 
L 285.500932 369.535925 
L 286.215401 402.620397 
L 286.92987 361.264807 
L 287.644338 361.264807 
L 288.358807 360.232969 
L 289.073275 364.367355 
L 289.787744 365.401538 
L 290.502213 365.401538 
L 291.216681 367.467559 
L 291.93115 362.29899 
L 292.645619 365.401538 
L 293.360087 351.961851 
L 294.074556 361.264807 
L 294.789024 360.232969 
L 295.503493 355.062055 
L 296.93243 368.501742 
L 297.646899 360.232969 
L 298.361368 354.027872 
L 299.075836 359.198786 
L 299.790305 358.164603 
L 300.504774 363.333173 
L 301.219242 370.570108 
L 301.933711 365.401538 
L 302.648179 359.198786 
L 303.362648 363.333173 
L 304.077117 361.264807 
L 304.791585 363.333173 
L 305.506054 358.164603 
L 306.220523 362.29899 
L 306.934991 363.333173 
L 307.64946 362.29899 
L 308.363928 358.164603 
L 309.078397 356.096237 
L 309.792866 358.164603 
L 310.507334 359.198786 
L 311.221803 351.961851 
L 311.936272 366.435721 
L 312.65074 367.467559 
L 313.365209 365.401538 
L 314.079677 370.570108 
L 314.794146 362.29899 
L 315.508615 391.24673 
L 316.223083 361.264807 
L 316.937552 398.483665 
L 317.652021 357.13042 
L 318.366489 360.232969 
L 319.080958 371.604291 
L 319.795427 358.164603 
L 320.509895 364.367355 
L 321.224364 357.13042 
L 321.938832 360.232969 
L 322.653301 356.096237 
L 324.082238 364.367355 
L 324.796707 359.198786 
L 325.511176 362.29899 
L 326.225644 363.333173 
L 326.940113 363.333173 
L 327.654581 367.467559 
L 328.36905 359.198786 
L 329.083519 358.164603 
L 329.797987 365.401538 
L 330.512456 368.501742 
L 331.226925 356.096237 
L 331.941393 362.29899 
L 332.655862 358.164603 
L 333.370331 360.232969 
L 334.084799 343.690733 
L 334.799268 368.501742 
L 335.513736 358.164603 
L 336.228205 357.13042 
L 336.942674 368.501742 
L 337.657142 362.29899 
L 338.371611 366.435721 
L 339.08608 337.487981 
L 339.800548 358.164603 
L 340.515017 370.570108 
L 341.229485 341.622367 
L 341.943954 357.13042 
L 342.658423 360.232969 
L 343.372891 359.198786 
L 344.08736 363.333173 
L 344.801829 364.367355 
L 345.516297 362.29899 
L 346.230766 363.333173 
L 346.945234 352.996034 
L 347.659703 360.232969 
L 348.374172 358.164603 
L 349.08864 358.164603 
L 351.946515 367.467559 
L 352.660984 361.264807 
L 354.089921 363.333173 
L 354.804389 367.467559 
L 355.518858 368.501742 
L 356.233327 363.333173 
L 356.947795 361.264807 
L 357.662264 369.535925 
L 358.376733 386.078161 
L 359.091201 346.790937 
L 359.80567 361.264807 
L 360.520138 363.333173 
L 361.234607 358.164603 
L 362.663544 364.367355 
L 363.378013 365.401538 
L 364.092482 363.333173 
L 364.80695 363.333173 
L 365.521419 364.367355 
L 366.235887 367.467559 
L 366.950356 364.367355 
L 367.664825 363.333173 
L 368.379293 364.367355 
L 369.093762 364.367355 
L 369.808231 368.501742 
L 370.522699 361.264807 
L 371.237168 371.604291 
L 371.951637 366.435721 
L 372.666105 368.501742 
L 373.380574 364.367355 
L 374.095042 365.401538 
L 374.809511 368.501742 
L 375.52398 366.435721 
L 376.238448 365.401538 
L 376.952917 359.198786 
L 377.667386 360.232969 
L 378.381854 364.367355 
L 379.096323 361.264807 
L 379.810791 361.264807 
L 380.52526 359.198786 
L 381.239729 358.164603 
L 381.954197 361.264807 
L 382.668666 355.062055 
L 383.383135 362.29899 
L 384.097603 358.164603 
L 384.812072 364.367355 
L 385.52654 366.435721 
L 386.241009 367.467559 
L 386.955478 369.535925 
L 387.669946 360.232969 
L 388.384415 355.062055 
L 389.098884 372.638473 
L 389.813352 362.29899 
L 390.527821 362.29899 
L 391.24229 361.264807 
L 391.956758 363.333173 
L 392.671227 357.13042 
L 393.385695 359.198786 
L 394.100164 329.216863 
L 394.814633 364.367355 
L 395.529101 362.29899 
L 396.24357 365.401538 
L 396.958039 357.13042 
L 397.672507 406.754783 
L 398.386976 385.043978 
L 399.101444 359.198786 
L 399.815913 365.401538 
L 401.24485 359.198786 
L 401.959319 368.501742 
L 403.388256 364.367355 
L 404.102725 325.080131 
L 404.817194 366.435721 
L 405.531662 366.435721 
L 406.246131 367.467559 
L 406.960599 363.333173 
L 407.675068 364.367355 
L 408.389537 367.467559 
L 409.104005 371.604291 
L 409.818474 361.264807 
L 410.532943 361.264807 
L 411.247411 370.570108 
L 411.96188 352.996034 
L 412.676348 362.29899 
L 413.390817 363.333173 
L 414.105286 366.435721 
L 414.819754 359.198786 
L 415.534223 359.198786 
L 416.248692 369.535925 
L 416.96316 421.228653 
L 417.677629 357.13042 
L 418.392097 362.29899 
L 419.106566 380.909591 
L 419.821035 355.062055 
L 420.535503 395.383462 
L 421.249972 363.333173 
L 421.964441 363.333173 
L 422.678909 370.570108 
L 423.393378 364.367355 
L 424.107847 366.435721 
L 424.822315 362.29899 
L 425.536784 356.096237 
L 426.251252 364.367355 
L 426.965721 363.333173 
L 427.68019 400.552031 
L 428.394658 369.535925 
L 429.109127 368.501742 
L 429.823596 375.738677 
L 430.538064 363.333173 
L 431.252533 370.570108 
L 431.967001 380.909591 
L 432.68147 364.367355 
L 433.395939 334.385432 
L 434.110407 359.198786 
L 434.824876 355.062055 
L 435.539345 403.652235 
L 436.968282 313.70881 
L 437.68275 312.674627 
L 438.397219 366.435721 
L 439.111688 362.29899 
L 439.826156 359.198786 
L 440.540625 366.435721 
L 441.255094 366.435721 
L 441.969562 367.467559 
L 442.684031 365.401538 
L 443.3985 369.535925 
L 444.112968 362.29899 
L 444.827437 364.367355 
L 445.541905 364.367355 
L 446.256374 362.29899 
L 446.970843 366.435721 
L 447.685311 362.29899 
L 448.39978 366.435721 
L 449.114249 373.672656 
L 449.828717 356.096237 
L 450.543186 379.875409 
L 451.257654 468.78465 
L 451.972123 361.264807 
L 452.686592 360.232969 
L 453.40106 366.435721 
L 454.115529 364.367355 
L 454.829998 360.232969 
L 455.544466 360.232969 
L 456.258935 362.29899 
L 456.973403 366.435721 
L 457.687872 365.401538 
L 458.402341 368.501742 
L 459.831278 362.29899 
L 460.545747 362.29899 
L 461.260215 350.927668 
L 461.974684 355.062055 
L 462.689153 370.570108 
L 463.403621 365.401538 
L 464.11809 358.164603 
L 464.832558 364.367355 
L 465.547027 385.043978 
L 466.261496 359.198786 
L 466.975964 379.875409 
L 467.690433 369.535925 
L 468.404902 365.401538 
L 469.11937 359.198786 
L 469.833839 363.333173 
L 470.548307 362.29899 
L 471.262776 363.333173 
L 471.977245 361.264807 
L 472.691713 365.401538 
L 473.406182 362.29899 
L 474.120651 350.927668 
L 474.835119 367.467559 
L 475.549588 357.13042 
L 476.264056 360.232969 
L 476.978525 365.401538 
L 477.692994 365.401538 
L 478.407462 366.435721 
L 479.121931 364.367355 
L 479.8364 364.367355 
L 480.550868 289.929639 
L 481.265337 361.264807 
L 481.979806 363.333173 
L 482.694274 366.435721 
L 483.408743 366.435721 
L 484.123211 362.29899 
L 484.83768 363.333173 
L 485.552149 400.552031 
L 486.266617 362.29899 
L 486.981086 360.232969 
L 487.695555 363.333173 
L 488.410023 365.401538 
L 489.124492 369.535925 
L 489.83896 359.198786 
L 490.553429 358.164603 
L 491.267898 421.228653 
L 491.982366 361.264807 
L 492.696835 362.29899 
L 493.411304 367.467559 
L 494.125772 362.29899 
L 494.840241 375.738677 
L 495.55471 364.367355 
L 496.269178 370.570108 
L 496.983647 365.401538 
L 497.698115 365.401538 
L 498.412584 368.501742 
L 499.127053 363.333173 
L 499.841521 359.198786 
L 500.55599 361.264807 
L 501.270459 362.29899 
L 501.984927 364.367355 
L 502.699396 367.467559 
L 503.413864 366.435721 
L 504.128333 366.435721 
L 504.842802 358.164603 
L 505.55727 369.535925 
L 506.271739 362.29899 
L 506.986208 362.29899 
L 507.700676 366.435721 
L 508.415145 361.264807 
L 509.129613 363.333173 
L 509.844082 346.790937 
L 510.558551 367.467559 
L 511.273019 336.453798 
L 512.701957 390.212547 
L 513.416425 374.704494 
L 514.130894 391.24673 
L 514.845363 365.401538 
L 516.2743 367.467559 
L 516.988768 360.232969 
L 517.703237 362.29899 
L 518.417706 363.333173 
L 519.132174 373.672656 
L 519.846643 366.435721 
L 520.561112 364.367355 
L 521.27558 360.232969 
L 521.990049 361.264807 
L 522.704517 359.198786 
L 523.418986 365.401538 
L 524.133455 365.401538 
L 524.847923 364.367355 
L 525.562392 366.435721 
L 526.276861 363.333173 
L 526.991329 369.535925 
L 527.705798 368.501742 
L 528.420266 364.367355 
L 529.134735 373.672656 
L 529.849204 369.535925 
L 530.563672 357.13042 
L 531.278141 365.401538 
L 531.99261 365.401538 
L 532.707078 356.096237 
L 533.421547 358.164603 
L 534.136016 365.401538 
L 534.850484 363.333173 
L 535.564953 372.638473 
L 536.279421 365.401538 
L 536.99389 368.501742 
L 537.708359 368.501742 
L 538.422827 369.535925 
L 539.137296 369.535925 
L 539.851765 368.501742 
L 540.566233 366.435721 
L 541.280702 360.232969 
L 541.99517 361.264807 
L 542.709639 364.367355 
L 543.424108 368.501742 
L 544.138576 401.586214 
L 544.853045 371.604291 
L 545.567514 389.180709 
L 546.281982 363.333173 
L 546.996451 362.29899 
L 547.710919 371.604291 
L 549.139857 358.164603 
L 549.854325 371.604291 
L 550.568794 364.367355 
L 551.283263 362.29899 
L 551.997731 365.401538 
L 552.7122 359.198786 
L 553.426669 365.401538 
L 554.141137 361.264807 
L 554.855606 365.401538 
L 555.570074 352.996034 
L 556.284543 382.975612 
L 556.999012 365.401538 
L 557.71348 370.570108 
L 558.427949 365.401538 
L 559.142418 361.264807 
L 559.856886 364.367355 
L 560.571355 368.501742 
L 561.285823 370.570108 
L 562.000292 359.198786 
L 562.714761 370.570108 
L 563.429229 339.554002 
L 564.143698 368.501742 
L 564.858167 367.467559 
L 567.716041 362.29899 
L 568.43051 343.690733 
L 569.144978 372.638473 
L 569.859447 379.875409 
L 570.573916 368.501742 
L 571.288384 368.501742 
L 572.002853 369.535925 
L 572.717322 431.568137 
L 573.43179 343.690733 
L 574.146259 367.467559 
L 575.575196 363.333173 
L 576.289665 366.435721 
L 577.004133 358.164603 
L 577.718602 363.333173 
L 578.433071 354.027872 
L 579.147539 372.638473 
L 579.862008 365.401538 
L 580.576476 369.535925 
L 581.290945 365.401538 
L 582.005414 367.467559 
L 582.719882 365.401538 
L 583.434351 366.435721 
L 584.14882 370.570108 
L 584.863288 363.333173 
L 585.577757 362.29899 
L 586.292226 367.467559 
L 587.006694 375.738677 
L 587.721163 364.367355 
L 588.435631 363.333173 
L 589.1501 361.264807 
L 589.864569 365.401538 
L 591.293506 363.333173 
L 592.007975 367.467559 
L 592.722443 368.501742 
L 593.436912 365.401538 
L 594.15138 368.501742 
L 594.865849 368.501742 
L 595.580318 369.535925 
L 596.294786 369.535925 
L 597.009255 367.467559 
L 597.723724 379.875409 
L 598.438192 365.401538 
L 599.152661 368.501742 
L 599.867129 362.29899 
L 600.581598 360.232969 
L 601.296067 355.062055 
L 602.010535 381.943774 
L 602.725004 366.435721 
L 603.439473 368.501742 
L 604.153941 367.467559 
L 604.86841 369.535925 
L 605.582879 368.501742 
L 606.297347 365.401538 
L 607.011816 368.501742 
L 607.726284 366.435721 
L 608.440753 363.333173 
L 609.155222 357.13042 
L 609.86969 362.29899 
L 610.584159 365.401538 
L 611.298628 369.535925 
L 612.013096 365.401538 
L 613.442033 369.535925 
L 614.156502 357.13042 
L 614.870971 368.501742 
L 615.585439 362.29899 
L 616.299908 369.535925 
L 617.014377 368.501742 
L 617.728845 320.945745 
L 618.443314 370.570108 
L 619.157782 365.401538 
L 619.872251 361.264807 
L 620.58672 367.467559 
L 621.301188 366.435721 
L 622.015657 362.29899 
L 622.730126 370.570108 
L 623.444594 361.264807 
L 624.159063 363.333173 
L 624.873532 373.672656 
L 625.588 365.401538 
L 626.302469 368.501742 
L 627.016937 366.435721 
L 627.731406 363.333173 
L 628.445875 364.367355 
L 629.160343 373.672656 
L 629.874812 388.146527 
L 630.589281 368.501742 
L 631.303749 366.435721 
L 632.018218 410.88917 
L 632.732686 385.043978 
L 633.447155 314.742993 
L 634.161624 337.487981 
L 634.876092 367.467559 
L 635.590561 362.29899 
L 636.30503 363.333173 
L 637.019498 366.435721 
L 637.733967 368.501742 
L 638.448435 367.467559 
L 639.162904 359.198786 
L 639.877373 378.841226 
L 640.591841 356.096237 
L 641.30631 380.909591 
L 642.020779 373.672656 
L 642.735247 372.638473 
L 643.449716 373.672656 
L 644.164185 371.604291 
L 644.878653 363.333173 
L 645.593122 384.009795 
L 646.30759 363.333173 
L 647.022059 390.212547 
L 647.736528 373.672656 
L 648.450996 361.264807 
L 649.165465 369.535925 
L 649.879934 364.367355 
L 650.594402 366.435721 
L 651.308871 366.435721 
L 652.023339 362.29899 
L 652.737808 369.535925 
L 653.452277 369.535925 
L 654.166745 351.961851 
L 654.881214 369.535925 
L 655.595683 371.604291 
L 656.310151 378.841226 
L 657.02462 372.638473 
L 657.739089 359.198786 
L 658.453557 366.435721 
L 659.168026 370.570108 
L 659.882494 339.554002 
L 660.596963 370.570108 
L 661.311432 365.401538 
L 662.0259 365.401538 
L 662.740369 363.333173 
L 663.454838 359.198786 
L 664.169306 371.604291 
L 664.883775 362.29899 
L 665.598243 367.467559 
L 666.312712 355.062055 
L 667.027181 355.062055 
L 667.741649 374.704494 
L 668.456118 369.535925 
L 669.170587 368.501742 
L 670.599524 370.570108 
L 671.313992 373.672656 
L 672.028461 371.604291 
L 672.74293 364.367355 
L 673.457398 340.588184 
L 674.171867 365.401538 
L 674.886336 367.467559 
L 675.600804 356.096237 
L 676.315273 380.909591 
L 677.029742 365.401538 
L 677.74421 358.164603 
L 678.458679 399.517848 
L 679.173147 366.435721 
L 679.887616 368.501742 
L 680.602085 366.435721 
L 681.316553 365.401538 
L 682.031022 392.280913 
L 682.745491 372.638473 
L 683.459959 370.570108 
L 684.174428 373.672656 
L 684.888896 370.570108 
L 686.317834 374.704494 
L 687.032302 367.467559 
L 687.746771 371.604291 
L 688.46124 366.435721 
L 689.175708 373.672656 
L 689.890177 371.604291 
L 690.604645 362.29899 
L 691.319114 387.112344 
L 692.033583 371.604291 
L 692.748051 367.467559 
L 693.46252 370.570108 
L 694.176989 363.333173 
L 694.891457 361.264807 
L 695.605926 362.29899 
L 696.320395 351.961851 
L 697.034863 369.535925 
L 697.749332 365.401538 
L 698.4638 352.996034 
L 699.178269 365.401538 
L 699.892738 370.570108 
L 700.607206 360.232969 
L 701.321675 365.401538 
L 702.036144 361.264807 
L 702.750612 366.435721 
L 703.465081 362.29899 
L 704.179549 372.638473 
L 704.894018 365.401538 
L 705.608487 382.975612 
L 706.322955 374.704494 
L 707.037424 361.264807 
L 707.751893 373.672656 
L 708.466361 363.333173 
L 709.18083 372.638473 
L 709.895298 365.401538 
L 710.609767 369.535925 
L 711.324236 364.367355 
L 712.038704 371.604291 
L 712.753173 365.401538 
L 713.467642 360.232969 
L 714.18211 373.672656 
L 714.896579 367.467559 
L 715.611048 370.570108 
L 716.325516 365.401538 
L 717.039985 364.367355 
L 717.754453 365.401538 
L 718.468922 375.738677 
L 719.183391 347.825119 
L 719.897859 367.467559 
L 720.612328 361.264807 
L 721.326797 375.738677 
L 722.041265 378.841226 
L 722.755734 368.501742 
L 723.470202 367.467559 
L 724.184671 360.232969 
L 724.89914 363.333173 
L 725.613608 369.535925 
L 726.328077 370.570108 
L 727.042546 338.522164 
L 727.757014 366.435721 
L 728.471483 366.435721 
L 729.185952 369.535925 
L 729.90042 365.401538 
L 730.614889 373.672656 
L 731.329357 367.467559 
L 732.043826 364.367355 
L 732.758295 374.704494 
L 733.472763 366.435721 
L 734.187232 368.501742 
L 734.901701 367.467559 
L 735.616169 361.264807 
L 736.330638 369.535925 
L 737.045106 359.198786 
L 737.759575 382.975612 
L 738.474044 368.501742 
L 739.188512 371.604291 
L 739.902981 380.909591 
L 740.61745 373.672656 
L 741.331918 371.604291 
L 742.046387 364.367355 
L 743.475324 366.435721 
L 744.189793 374.704494 
L 744.904261 364.367355 
L 744.904261 364.367355 
" clip-path="url(#pddaf6cbdda)" style="fill: none; stroke: #ac2b37; stroke-width: 1.5; stroke-linecap: square"/>
   </g>
   <g id="patch_3">
    <path d="M 105.740625 501.3525 
L 105.740625 57.8325 
" style="fill: none; stroke: #000000; stroke-width: 0.8; stroke-linejoin: miter; stroke-linecap: square"/>
   </g>
   <g id="patch_4">
    <path d="M 775.340625 501.3525 
L 775.340625 57.8325 
" style="fill: none; stroke: #000000; stroke-width: 0.8; stroke-linejoin: miter; stroke-linecap: square"/>
   </g>
   <g id="patch_5">
    <path d="M 105.740625 501.3525 
L 775.340625 501.3525 
" style="fill: none; stroke: #000000; stroke-width: 0.8; stroke-linejoin: miter; stroke-linecap: square"/>
   </g>
   <g id="patch_6">
    <path d="M 105.740625 57.8325 
L 775.340625 57.8325 
" style="fill: none; stroke: #000000; stroke-width: 0.8; stroke-linejoin: miter; stroke-linecap: square"/>
   </g>
   <g id="text_19">
    <!-- Light vs Time -->
    <g transform="translate(378.058125 51.8325) scale(0.24 -0.24)">
     <defs>
      <path id="AptosDisplay-76" d="M 1103 0 
L -13 3044 
L 538 3044 
L 1391 513 
L 2250 3044 
L 2781 3044 
L 1678 0 
L 1103 0 
z
" transform="scale(0.015625)"/>
      <path id="AptosDisplay-73" d="M 1506 -41 
Q 1247 -41 1017 14 
Q 788 69 613 191 
Q 438 313 339 506 
Q 241 700 241 978 
L 744 978 
Q 744 628 966 487 
Q 1188 347 1519 347 
Q 1816 347 2008 458 
Q 2200 569 2200 822 
Q 2200 1047 2026 1153 
Q 1853 1259 1413 1369 
Q 1056 1453 815 1564 
Q 575 1675 453 1845 
Q 331 2016 331 2275 
Q 331 2475 417 2626 
Q 503 2778 658 2879 
Q 813 2981 1020 3032 
Q 1228 3084 1472 3084 
Q 1713 3084 1923 3028 
Q 2134 2972 2296 2855 
Q 2459 2738 2551 2552 
Q 2644 2366 2644 2109 
L 2138 2109 
Q 2138 2425 1945 2558 
Q 1753 2691 1472 2691 
Q 1191 2691 1016 2594 
Q 841 2497 841 2291 
Q 841 2169 919 2084 
Q 997 2000 1181 1933 
Q 1366 1866 1675 1791 
Q 2019 1709 2248 1596 
Q 2478 1484 2595 1306 
Q 2713 1128 2713 847 
Q 2713 616 2622 447 
Q 2531 278 2367 170 
Q 2203 63 1983 11 
Q 1763 -41 1506 -41 
z
" transform="scale(0.015625)"/>
     </defs>
     <use xlink:href="#AptosDisplay-4c"/>
     <use xlink:href="#AptosDisplay-69" x="48.4375"/>
     <use xlink:href="#AptosDisplay-67" x="69.482422"/>
     <use xlink:href="#AptosDisplay-68" x="113.427734"/>
     <use xlink:href="#AptosDisplay-74" x="164.013672"/>
     <use xlink:href="#AptosDisplay-20" x="194.384766"/>
     <use xlink:href="#AptosDisplay-76" x="213.671875"/>
     <use xlink:href="#AptosDisplay-73" x="256.933594"/>
     <use xlink:href="#AptosDisplay-20" x="303.222656"/>
     <use xlink:href="#AptosDisplay-54" x="322.509766"/>
     <use xlink:href="#AptosDisplay-69" x="370.214844"/>
     <use xlink:href="#AptosDisplay-6d" x="391.259766"/>
     <use xlink:href="#AptosDisplay-65" x="471.240234"/>
    </g>
   </g>
  </g>
 </g>
 <defs>
  <clipPath id="pddaf6cbdda">
   <rect x="105.740625" y="57.8325" width="669.6" height="443.52"/>
  </clipPath>
 </defs>
</svg>
