<?xml version="1.0" encoding="utf-8" standalone="no"?>
<!DOCTYPE svg PUBLIC "-//W3C//DTD SVG 1.1//EN"
  "http://www.w3.org/Graphics/SVG/1.1/DTD/svg11.dtd">
<svg xmlns:xlink="http://www.w3.org/1999/xlink" width="811.340625pt" height="581.830625pt" viewBox="0 0 811.340625 581.830625" xmlns="http://www.w3.org/2000/svg" version="1.1">
 <metadata>
  <rdf:RDF xmlns:dc="http://purl.org/dc/elements/1.1/" xmlns:cc="http://creativecommons.org/ns#" xmlns:rdf="http://www.w3.org/1999/02/22-rdf-syntax-ns#">
   <cc:Work>
    <dc:type rdf:resource="http://purl.org/dc/dcmitype/StillImage"/>
    <dc:date>2025-03-23T22:45:08.210519</dc:date>
    <dc:format>image/svg+xml</dc:format>
    <dc:creator>
     <cc:Agent>
      <dc:title>Matplotlib v3.8.2, https://matplotlib.org/</dc:title>
     </cc:Agent>
    </dc:creator>
   </cc:Work>
  </rdf:RDF>
 </metadata>
 <defs>
  <style type="text/css">*{stroke-linejoin: round; stroke-linecap: butt}</style>
 </defs>
 <g id="figure_1">
  <g id="patch_1">
   <path d="M 0 581.830625 
L 811.340625 581.830625 
L 811.340625 0 
L 0 0 
z
" style="fill: #ffffff"/>
  </g>
  <g id="axes_1">
   <g id="patch_2">
    <path d="M 105.740625 501.3525 
L 775.340625 501.3525 
L 775.340625 57.8325 
L 105.740625 57.8325 
z
" style="fill: #ffffff"/>
   </g>
   <g id="matplotlib.axis_1">
    <g id="xtick_1">
     <g id="line2d_1">
      <path d="M 135.162443 501.3525 
L 135.162443 57.8325 
" clip-path="url(#p06ed3cb980)" style="fill: none; stroke: #b0b0b0; stroke-opacity: 0.8; stroke-linecap: square"/>
     </g>
     <g id="line2d_2">
      <defs>
       <path id="m32aca5b8f2" d="M 0 0 
L 0 3.5 
" style="stroke: #000000; stroke-width: 0.8"/>
      </defs>
      <g>
       <use xlink:href="#m32aca5b8f2" x="135.162443" y="501.3525" style="stroke: #000000; stroke-width: 0.8"/>
      </g>
     </g>
     <g id="text_1">
      <!-- 0 -->
      <g transform="translate(129.932756 521.49625) scale(0.2 -0.2)">
       <defs>
        <path id="AptosDisplay-30" d="M 1672 -56 
Q 1291 -56 1028 105 
Q 766 266 605 552 
Q 444 838 372 1216 
Q 300 1594 300 2031 
Q 300 2475 372 2856 
Q 444 3238 605 3525 
Q 766 3813 1028 3973 
Q 1291 4134 1672 4134 
Q 2053 4134 2317 3975 
Q 2581 3816 2742 3527 
Q 2903 3238 2975 2858 
Q 3047 2478 3047 2038 
Q 3047 1597 2975 1217 
Q 2903 838 2742 552 
Q 2581 266 2318 105 
Q 2056 -56 1672 -56 
z
M 1672 409 
Q 1916 409 2073 550 
Q 2231 691 2322 925 
Q 2413 1159 2448 1448 
Q 2484 1738 2484 2038 
Q 2484 2338 2448 2628 
Q 2413 2919 2322 3153 
Q 2231 3388 2073 3527 
Q 1916 3666 1669 3666 
Q 1428 3666 1268 3527 
Q 1109 3388 1020 3153 
Q 931 2919 893 2628 
Q 856 2338 856 2038 
Q 856 1741 893 1450 
Q 931 1159 1020 925 
Q 1109 691 1268 550 
Q 1428 409 1672 409 
z
" transform="scale(0.015625)"/>
       </defs>
       <use xlink:href="#AptosDisplay-30"/>
      </g>
     </g>
    </g>
    <g id="xtick_2">
     <g id="line2d_3">
      <path d="M 232.248133 501.3525 
L 232.248133 57.8325 
" clip-path="url(#p06ed3cb980)" style="fill: none; stroke: #b0b0b0; stroke-opacity: 0.8; stroke-linecap: square"/>
     </g>
     <g id="line2d_4">
      <g>
       <use xlink:href="#m32aca5b8f2" x="232.248133" y="501.3525" style="stroke: #000000; stroke-width: 0.8"/>
      </g>
     </g>
     <g id="text_2">
      <!-- 20 -->
      <g transform="translate(221.788758 521.49625) scale(0.2 -0.2)">
       <defs>
        <path id="AptosDisplay-32" d="M 247 0 
L 247 413 
L 1725 1741 
Q 2100 2081 2269 2351 
Q 2438 2622 2438 2938 
Q 2438 3256 2263 3461 
Q 2088 3666 1691 3666 
Q 1247 3666 1055 3439 
Q 863 3213 863 2869 
L 341 2869 
Q 341 3250 491 3534 
Q 641 3819 941 3975 
Q 1241 4131 1691 4131 
Q 2103 4131 2390 3986 
Q 2678 3841 2828 3578 
Q 2978 3316 2978 2959 
Q 2978 2638 2853 2375 
Q 2728 2113 2517 1883 
Q 2306 1653 2044 1425 
L 959 463 
L 3097 463 
L 3097 0 
L 247 0 
z
" transform="scale(0.015625)"/>
       </defs>
       <use xlink:href="#AptosDisplay-32"/>
       <use xlink:href="#AptosDisplay-30" x="52.294922"/>
      </g>
     </g>
    </g>
    <g id="xtick_3">
     <g id="line2d_5">
      <path d="M 329.333822 501.3525 
L 329.333822 57.8325 
" clip-path="url(#p06ed3cb980)" style="fill: none; stroke: #b0b0b0; stroke-opacity: 0.8; stroke-linecap: square"/>
     </g>
     <g id="line2d_6">
      <g>
       <use xlink:href="#m32aca5b8f2" x="329.333822" y="501.3525" style="stroke: #000000; stroke-width: 0.8"/>
      </g>
     </g>
     <g id="text_3">
      <!-- 40 -->
      <g transform="translate(318.874447 521.49625) scale(0.2 -0.2)">
       <defs>
        <path id="AptosDisplay-34" d="M 2106 0 
L 2106 825 
L 125 825 
L 125 1297 
L 2100 4103 
L 2631 4103 
L 2631 1284 
L 3191 1284 
L 3191 825 
L 2631 825 
L 2631 0 
L 2106 0 
z
M 638 1284 
L 2113 1284 
L 2113 3369 
L 638 1284 
z
" transform="scale(0.015625)"/>
       </defs>
       <use xlink:href="#AptosDisplay-34"/>
       <use xlink:href="#AptosDisplay-30" x="52.294922"/>
      </g>
     </g>
    </g>
    <g id="xtick_4">
     <g id="line2d_7">
      <path d="M 426.419511 501.3525 
L 426.419511 57.8325 
" clip-path="url(#p06ed3cb980)" style="fill: none; stroke: #b0b0b0; stroke-opacity: 0.8; stroke-linecap: square"/>
     </g>
     <g id="line2d_8">
      <g>
       <use xlink:href="#m32aca5b8f2" x="426.419511" y="501.3525" style="stroke: #000000; stroke-width: 0.8"/>
      </g>
     </g>
     <g id="text_4">
      <!-- 60 -->
      <g transform="translate(415.960136 521.49625) scale(0.2 -0.2)">
       <defs>
        <path id="AptosDisplay-36" d="M 1759 -56 
Q 1325 -56 984 151 
Q 644 359 447 815 
Q 250 1272 250 2013 
Q 250 2738 439 3206 
Q 628 3675 968 3903 
Q 1309 4131 1759 4131 
Q 2253 4131 2595 3875 
Q 2938 3619 3034 3097 
L 2503 3097 
Q 2441 3388 2250 3534 
Q 2059 3681 1759 3681 
Q 1306 3681 1047 3279 
Q 788 2878 788 2013 
L 788 1850 
Q 788 1313 922 992 
Q 1056 672 1279 531 
Q 1503 391 1763 391 
Q 2175 391 2369 644 
Q 2563 897 2563 1272 
Q 2563 1650 2373 1869 
Q 2184 2088 1838 2088 
Q 1422 2088 1114 1897 
Q 806 1706 644 1456 
L 597 1856 
Q 728 2047 922 2201 
Q 1116 2356 1362 2447 
Q 1609 2538 1909 2538 
Q 2253 2538 2523 2395 
Q 2794 2253 2951 1975 
Q 3109 1697 3109 1291 
Q 3109 897 2951 592 
Q 2794 288 2492 116 
Q 2191 -56 1759 -56 
z
" transform="scale(0.015625)"/>
       </defs>
       <use xlink:href="#AptosDisplay-36"/>
       <use xlink:href="#AptosDisplay-30" x="52.294922"/>
      </g>
     </g>
    </g>
    <g id="xtick_5">
     <g id="line2d_9">
      <path d="M 523.505201 501.3525 
L 523.505201 57.8325 
" clip-path="url(#p06ed3cb980)" style="fill: none; stroke: #b0b0b0; stroke-opacity: 0.8; stroke-linecap: square"/>
     </g>
     <g id="line2d_10">
      <g>
       <use xlink:href="#m32aca5b8f2" x="523.505201" y="501.3525" style="stroke: #000000; stroke-width: 0.8"/>
      </g>
     </g>
     <g id="text_5">
      <!-- 80 -->
      <g transform="translate(513.045826 521.49625) scale(0.2 -0.2)">
       <defs>
        <path id="AptosDisplay-38" d="M 1675 -56 
Q 1391 -56 1137 16 
Q 884 88 686 234 
Q 488 381 373 606 
Q 259 831 259 1141 
Q 259 1531 495 1797 
Q 731 2063 1084 2150 
Q 781 2250 604 2490 
Q 428 2731 428 3081 
Q 428 3447 609 3681 
Q 791 3916 1075 4025 
Q 1359 4134 1669 4134 
Q 1981 4134 2265 4023 
Q 2550 3913 2733 3680 
Q 2916 3447 2916 3081 
Q 2916 2725 2716 2481 
Q 2516 2238 2238 2150 
Q 2606 2063 2843 1800 
Q 3081 1538 3081 1141 
Q 3081 831 2968 606 
Q 2856 381 2661 234 
Q 2466 88 2211 16 
Q 1956 -56 1675 -56 
z
M 1672 388 
Q 1909 388 2109 470 
Q 2309 553 2429 725 
Q 2550 897 2550 1163 
Q 2550 1416 2426 1587 
Q 2303 1759 2104 1846 
Q 1906 1934 1672 1928 
Q 1453 1934 1253 1850 
Q 1053 1766 926 1594 
Q 800 1422 800 1163 
Q 800 775 1058 581 
Q 1316 388 1672 388 
z
M 1672 2363 
Q 1863 2356 2030 2434 
Q 2197 2513 2300 2667 
Q 2403 2822 2403 3050 
Q 2403 3388 2189 3544 
Q 1975 3700 1675 3700 
Q 1484 3700 1317 3631 
Q 1150 3563 1047 3419 
Q 944 3275 944 3050 
Q 944 2825 1048 2670 
Q 1153 2516 1320 2436 
Q 1488 2356 1672 2363 
z
" transform="scale(0.015625)"/>
       </defs>
       <use xlink:href="#AptosDisplay-38"/>
       <use xlink:href="#AptosDisplay-30" x="52.294922"/>
      </g>
     </g>
    </g>
    <g id="xtick_6">
     <g id="line2d_11">
      <path d="M 620.59089 501.3525 
L 620.59089 57.8325 
" clip-path="url(#p06ed3cb980)" style="fill: none; stroke: #b0b0b0; stroke-opacity: 0.8; stroke-linecap: square"/>
     </g>
     <g id="line2d_12">
      <g>
       <use xlink:href="#m32aca5b8f2" x="620.59089" y="501.3525" style="stroke: #000000; stroke-width: 0.8"/>
      </g>
     </g>
     <g id="text_6">
      <!-- 100 -->
      <g transform="translate(604.901828 521.49625) scale(0.2 -0.2)">
       <defs>
        <path id="AptosDisplay-31" d="M 1659 0 
L 1659 3425 
Q 1575 3309 1420 3201 
Q 1266 3094 1052 3009 
Q 838 2925 578 2888 
L 578 3381 
Q 834 3425 1057 3540 
Q 1281 3656 1453 3806 
Q 1625 3956 1719 4094 
L 2206 4094 
L 2206 0 
L 1659 0 
z
" transform="scale(0.015625)"/>
       </defs>
       <use xlink:href="#AptosDisplay-31"/>
       <use xlink:href="#AptosDisplay-30" x="52.294922"/>
       <use xlink:href="#AptosDisplay-30" x="104.589844"/>
      </g>
     </g>
    </g>
    <g id="xtick_7">
     <g id="line2d_13">
      <path d="M 717.67658 501.3525 
L 717.67658 57.8325 
" clip-path="url(#p06ed3cb980)" style="fill: none; stroke: #b0b0b0; stroke-opacity: 0.8; stroke-linecap: square"/>
     </g>
     <g id="line2d_14">
      <g>
       <use xlink:href="#m32aca5b8f2" x="717.67658" y="501.3525" style="stroke: #000000; stroke-width: 0.8"/>
      </g>
     </g>
     <g id="text_7">
      <!-- 120 -->
      <g transform="translate(701.987517 521.49625) scale(0.2 -0.2)">
       <use xlink:href="#AptosDisplay-31"/>
       <use xlink:href="#AptosDisplay-32" x="52.294922"/>
       <use xlink:href="#AptosDisplay-30" x="104.589844"/>
      </g>
     </g>
    </g>
    <g id="xtick_8">
     <g id="line2d_15">
      <path d="M 110.891021 501.3525 
L 110.891021 57.8325 
" clip-path="url(#p06ed3cb980)" style="fill: none; stroke-dasharray: 1.85,0.8; stroke-dashoffset: 0; stroke: #b0b0b0; stroke-opacity: 0.8; stroke-width: 0.5"/>
     </g>
     <g id="line2d_16">
      <defs>
       <path id="me26b1c69af" d="M 0 0 
L 0 2 
" style="stroke: #000000; stroke-width: 0.6"/>
      </defs>
      <g>
       <use xlink:href="#me26b1c69af" x="110.891021" y="501.3525" style="stroke: #000000; stroke-width: 0.6"/>
      </g>
     </g>
    </g>
    <g id="xtick_9">
     <g id="line2d_17">
      <path d="M 159.433866 501.3525 
L 159.433866 57.8325 
" clip-path="url(#p06ed3cb980)" style="fill: none; stroke-dasharray: 1.85,0.8; stroke-dashoffset: 0; stroke: #b0b0b0; stroke-opacity: 0.8; stroke-width: 0.5"/>
     </g>
     <g id="line2d_18">
      <g>
       <use xlink:href="#me26b1c69af" x="159.433866" y="501.3525" style="stroke: #000000; stroke-width: 0.6"/>
      </g>
     </g>
    </g>
    <g id="xtick_10">
     <g id="line2d_19">
      <path d="M 183.705288 501.3525 
L 183.705288 57.8325 
" clip-path="url(#p06ed3cb980)" style="fill: none; stroke-dasharray: 1.85,0.8; stroke-dashoffset: 0; stroke: #b0b0b0; stroke-opacity: 0.8; stroke-width: 0.5"/>
     </g>
     <g id="line2d_20">
      <g>
       <use xlink:href="#me26b1c69af" x="183.705288" y="501.3525" style="stroke: #000000; stroke-width: 0.6"/>
      </g>
     </g>
    </g>
    <g id="xtick_11">
     <g id="line2d_21">
      <path d="M 207.97671 501.3525 
L 207.97671 57.8325 
" clip-path="url(#p06ed3cb980)" style="fill: none; stroke-dasharray: 1.85,0.8; stroke-dashoffset: 0; stroke: #b0b0b0; stroke-opacity: 0.8; stroke-width: 0.5"/>
     </g>
     <g id="line2d_22">
      <g>
       <use xlink:href="#me26b1c69af" x="207.97671" y="501.3525" style="stroke: #000000; stroke-width: 0.6"/>
      </g>
     </g>
    </g>
    <g id="xtick_12">
     <g id="line2d_23">
      <path d="M 256.519555 501.3525 
L 256.519555 57.8325 
" clip-path="url(#p06ed3cb980)" style="fill: none; stroke-dasharray: 1.85,0.8; stroke-dashoffset: 0; stroke: #b0b0b0; stroke-opacity: 0.8; stroke-width: 0.5"/>
     </g>
     <g id="line2d_24">
      <g>
       <use xlink:href="#me26b1c69af" x="256.519555" y="501.3525" style="stroke: #000000; stroke-width: 0.6"/>
      </g>
     </g>
    </g>
    <g id="xtick_13">
     <g id="line2d_25">
      <path d="M 280.790977 501.3525 
L 280.790977 57.8325 
" clip-path="url(#p06ed3cb980)" style="fill: none; stroke-dasharray: 1.85,0.8; stroke-dashoffset: 0; stroke: #b0b0b0; stroke-opacity: 0.8; stroke-width: 0.5"/>
     </g>
     <g id="line2d_26">
      <g>
       <use xlink:href="#me26b1c69af" x="280.790977" y="501.3525" style="stroke: #000000; stroke-width: 0.6"/>
      </g>
     </g>
    </g>
    <g id="xtick_14">
     <g id="line2d_27">
      <path d="M 305.0624 501.3525 
L 305.0624 57.8325 
" clip-path="url(#p06ed3cb980)" style="fill: none; stroke-dasharray: 1.85,0.8; stroke-dashoffset: 0; stroke: #b0b0b0; stroke-opacity: 0.8; stroke-width: 0.5"/>
     </g>
     <g id="line2d_28">
      <g>
       <use xlink:href="#me26b1c69af" x="305.0624" y="501.3525" style="stroke: #000000; stroke-width: 0.6"/>
      </g>
     </g>
    </g>
    <g id="xtick_15">
     <g id="line2d_29">
      <path d="M 353.605244 501.3525 
L 353.605244 57.8325 
" clip-path="url(#p06ed3cb980)" style="fill: none; stroke-dasharray: 1.85,0.8; stroke-dashoffset: 0; stroke: #b0b0b0; stroke-opacity: 0.8; stroke-width: 0.5"/>
     </g>
     <g id="line2d_30">
      <g>
       <use xlink:href="#me26b1c69af" x="353.605244" y="501.3525" style="stroke: #000000; stroke-width: 0.6"/>
      </g>
     </g>
    </g>
    <g id="xtick_16">
     <g id="line2d_31">
      <path d="M 377.876667 501.3525 
L 377.876667 57.8325 
" clip-path="url(#p06ed3cb980)" style="fill: none; stroke-dasharray: 1.85,0.8; stroke-dashoffset: 0; stroke: #b0b0b0; stroke-opacity: 0.8; stroke-width: 0.5"/>
     </g>
     <g id="line2d_32">
      <g>
       <use xlink:href="#me26b1c69af" x="377.876667" y="501.3525" style="stroke: #000000; stroke-width: 0.6"/>
      </g>
     </g>
    </g>
    <g id="xtick_17">
     <g id="line2d_33">
      <path d="M 402.148089 501.3525 
L 402.148089 57.8325 
" clip-path="url(#p06ed3cb980)" style="fill: none; stroke-dasharray: 1.85,0.8; stroke-dashoffset: 0; stroke: #b0b0b0; stroke-opacity: 0.8; stroke-width: 0.5"/>
     </g>
     <g id="line2d_34">
      <g>
       <use xlink:href="#me26b1c69af" x="402.148089" y="501.3525" style="stroke: #000000; stroke-width: 0.6"/>
      </g>
     </g>
    </g>
    <g id="xtick_18">
     <g id="line2d_35">
      <path d="M 450.690934 501.3525 
L 450.690934 57.8325 
" clip-path="url(#p06ed3cb980)" style="fill: none; stroke-dasharray: 1.85,0.8; stroke-dashoffset: 0; stroke: #b0b0b0; stroke-opacity: 0.8; stroke-width: 0.5"/>
     </g>
     <g id="line2d_36">
      <g>
       <use xlink:href="#me26b1c69af" x="450.690934" y="501.3525" style="stroke: #000000; stroke-width: 0.6"/>
      </g>
     </g>
    </g>
    <g id="xtick_19">
     <g id="line2d_37">
      <path d="M 474.962356 501.3525 
L 474.962356 57.8325 
" clip-path="url(#p06ed3cb980)" style="fill: none; stroke-dasharray: 1.85,0.8; stroke-dashoffset: 0; stroke: #b0b0b0; stroke-opacity: 0.8; stroke-width: 0.5"/>
     </g>
     <g id="line2d_38">
      <g>
       <use xlink:href="#me26b1c69af" x="474.962356" y="501.3525" style="stroke: #000000; stroke-width: 0.6"/>
      </g>
     </g>
    </g>
    <g id="xtick_20">
     <g id="line2d_39">
      <path d="M 499.233779 501.3525 
L 499.233779 57.8325 
" clip-path="url(#p06ed3cb980)" style="fill: none; stroke-dasharray: 1.85,0.8; stroke-dashoffset: 0; stroke: #b0b0b0; stroke-opacity: 0.8; stroke-width: 0.5"/>
     </g>
     <g id="line2d_40">
      <g>
       <use xlink:href="#me26b1c69af" x="499.233779" y="501.3525" style="stroke: #000000; stroke-width: 0.6"/>
      </g>
     </g>
    </g>
    <g id="xtick_21">
     <g id="line2d_41">
      <path d="M 547.776623 501.3525 
L 547.776623 57.8325 
" clip-path="url(#p06ed3cb980)" style="fill: none; stroke-dasharray: 1.85,0.8; stroke-dashoffset: 0; stroke: #b0b0b0; stroke-opacity: 0.8; stroke-width: 0.5"/>
     </g>
     <g id="line2d_42">
      <g>
       <use xlink:href="#me26b1c69af" x="547.776623" y="501.3525" style="stroke: #000000; stroke-width: 0.6"/>
      </g>
     </g>
    </g>
    <g id="xtick_22">
     <g id="line2d_43">
      <path d="M 572.048046 501.3525 
L 572.048046 57.8325 
" clip-path="url(#p06ed3cb980)" style="fill: none; stroke-dasharray: 1.85,0.8; stroke-dashoffset: 0; stroke: #b0b0b0; stroke-opacity: 0.8; stroke-width: 0.5"/>
     </g>
     <g id="line2d_44">
      <g>
       <use xlink:href="#me26b1c69af" x="572.048046" y="501.3525" style="stroke: #000000; stroke-width: 0.6"/>
      </g>
     </g>
    </g>
    <g id="xtick_23">
     <g id="line2d_45">
      <path d="M 596.319468 501.3525 
L 596.319468 57.8325 
" clip-path="url(#p06ed3cb980)" style="fill: none; stroke-dasharray: 1.85,0.8; stroke-dashoffset: 0; stroke: #b0b0b0; stroke-opacity: 0.8; stroke-width: 0.5"/>
     </g>
     <g id="line2d_46">
      <g>
       <use xlink:href="#me26b1c69af" x="596.319468" y="501.3525" style="stroke: #000000; stroke-width: 0.6"/>
      </g>
     </g>
    </g>
    <g id="xtick_24">
     <g id="line2d_47">
      <path d="M 644.862313 501.3525 
L 644.862313 57.8325 
" clip-path="url(#p06ed3cb980)" style="fill: none; stroke-dasharray: 1.85,0.8; stroke-dashoffset: 0; stroke: #b0b0b0; stroke-opacity: 0.8; stroke-width: 0.5"/>
     </g>
     <g id="line2d_48">
      <g>
       <use xlink:href="#me26b1c69af" x="644.862313" y="501.3525" style="stroke: #000000; stroke-width: 0.6"/>
      </g>
     </g>
    </g>
    <g id="xtick_25">
     <g id="line2d_49">
      <path d="M 669.133735 501.3525 
L 669.133735 57.8325 
" clip-path="url(#p06ed3cb980)" style="fill: none; stroke-dasharray: 1.85,0.8; stroke-dashoffset: 0; stroke: #b0b0b0; stroke-opacity: 0.8; stroke-width: 0.5"/>
     </g>
     <g id="line2d_50">
      <g>
       <use xlink:href="#me26b1c69af" x="669.133735" y="501.3525" style="stroke: #000000; stroke-width: 0.6"/>
      </g>
     </g>
    </g>
    <g id="xtick_26">
     <g id="line2d_51">
      <path d="M 693.405157 501.3525 
L 693.405157 57.8325 
" clip-path="url(#p06ed3cb980)" style="fill: none; stroke-dasharray: 1.85,0.8; stroke-dashoffset: 0; stroke: #b0b0b0; stroke-opacity: 0.8; stroke-width: 0.5"/>
     </g>
     <g id="line2d_52">
      <g>
       <use xlink:href="#me26b1c69af" x="693.405157" y="501.3525" style="stroke: #000000; stroke-width: 0.6"/>
      </g>
     </g>
    </g>
    <g id="xtick_27">
     <g id="line2d_53">
      <path d="M 741.948002 501.3525 
L 741.948002 57.8325 
" clip-path="url(#p06ed3cb980)" style="fill: none; stroke-dasharray: 1.85,0.8; stroke-dashoffset: 0; stroke: #b0b0b0; stroke-opacity: 0.8; stroke-width: 0.5"/>
     </g>
     <g id="line2d_54">
      <g>
       <use xlink:href="#me26b1c69af" x="741.948002" y="501.3525" style="stroke: #000000; stroke-width: 0.6"/>
      </g>
     </g>
    </g>
    <g id="xtick_28">
     <g id="line2d_55">
      <path d="M 766.219424 501.3525 
L 766.219424 57.8325 
" clip-path="url(#p06ed3cb980)" style="fill: none; stroke-dasharray: 1.85,0.8; stroke-dashoffset: 0; stroke: #b0b0b0; stroke-opacity: 0.8; stroke-width: 0.5"/>
     </g>
     <g id="line2d_56">
      <g>
       <use xlink:href="#me26b1c69af" x="766.219424" y="501.3525" style="stroke: #000000; stroke-width: 0.6"/>
      </g>
     </g>
    </g>
    <g id="text_8">
     <!-- Time (S) -->
     <g transform="translate(407.45 542.305625) scale(0.2 -0.2)">
      <defs>
       <path id="AptosDisplay-54" d="M 1244 0 
L 1244 3734 
L 50 3734 
L 50 4206 
L 2997 4206 
L 2997 3734 
L 1806 3734 
L 1806 0 
L 1244 0 
z
" transform="scale(0.015625)"/>
       <path id="AptosDisplay-69" d="M 413 0 
L 413 3044 
L 934 3044 
L 934 0 
L 413 0 
z
M 675 3616 
Q 525 3616 437 3702 
Q 350 3788 350 3919 
Q 350 4050 437 4136 
Q 525 4222 675 4222 
Q 822 4222 912 4136 
Q 1003 4050 1003 3919 
Q 1003 3788 912 3702 
Q 822 3616 675 3616 
z
" transform="scale(0.015625)"/>
       <path id="AptosDisplay-6d" d="M 413 0 
L 413 3044 
L 919 3044 
L 931 2575 
Q 1063 2756 1303 2914 
Q 1544 3072 1903 3072 
Q 2403 3072 2618 2778 
Q 2834 2484 2834 1963 
L 2834 0 
L 2316 0 
L 2316 1891 
Q 2316 2106 2275 2275 
Q 2234 2444 2120 2539 
Q 2006 2634 1788 2634 
Q 1488 2634 1277 2482 
Q 1066 2331 934 2156 
L 934 0 
L 413 0 
z
M 4206 0 
L 4206 1891 
Q 4206 2106 4164 2275 
Q 4122 2444 4009 2539 
Q 3897 2634 3681 2634 
Q 3381 2634 3165 2484 
Q 2950 2334 2822 2159 
L 2744 2544 
Q 2916 2741 3175 2906 
Q 3434 3072 3800 3072 
Q 4291 3072 4509 2778 
Q 4728 2484 4728 1963 
L 4728 0 
L 4206 0 
z
" transform="scale(0.015625)"/>
       <path id="AptosDisplay-65" d="M 1663 -56 
Q 1188 -56 878 151 
Q 569 359 417 717 
Q 266 1075 266 1522 
Q 266 1988 412 2342 
Q 559 2697 857 2897 
Q 1156 3097 1606 3097 
Q 2209 3097 2550 2722 
Q 2891 2347 2891 1644 
Q 2891 1597 2889 1533 
Q 2888 1469 2881 1441 
L 791 1441 
Q 794 1144 881 895 
Q 969 647 1161 497 
Q 1353 347 1663 347 
Q 1997 347 2183 511 
Q 2369 675 2378 984 
L 2894 984 
Q 2884 663 2732 430 
Q 2581 197 2309 70 
Q 2038 -56 1663 -56 
z
M 794 1822 
L 2375 1822 
Q 2366 2247 2166 2472 
Q 1966 2697 1606 2697 
Q 1241 2697 1036 2473 
Q 831 2250 794 1822 
z
" transform="scale(0.015625)"/>
       <path id="AptosDisplay-20" transform="scale(0.015625)"/>
       <path id="AptosDisplay-28" d="M 1219 -1116 
Q 969 -678 787 -267 
Q 606 144 511 581 
Q 416 1019 416 1528 
Q 416 2028 509 2486 
Q 603 2944 783 3378 
Q 963 3813 1219 4231 
L 1647 4231 
Q 1278 3600 1101 2886 
Q 925 2172 925 1428 
Q 925 766 1125 103 
Q 1325 -559 1647 -1116 
L 1219 -1116 
z
" transform="scale(0.015625)"/>
       <path id="AptosDisplay-53" d="M 1778 -56 
Q 1328 -56 962 81 
Q 597 219 384 512 
Q 172 806 172 1275 
L 734 1275 
Q 738 941 883 750 
Q 1028 559 1267 481 
Q 1506 403 1794 403 
Q 2063 403 2283 483 
Q 2503 563 2634 723 
Q 2766 884 2766 1134 
Q 2766 1356 2662 1497 
Q 2559 1638 2321 1742 
Q 2084 1847 1678 1950 
Q 1203 2075 897 2223 
Q 591 2372 442 2594 
Q 294 2816 294 3156 
Q 294 3516 462 3761 
Q 631 4006 945 4134 
Q 1259 4263 1697 4263 
Q 2103 4263 2440 4131 
Q 2778 4000 2979 3737 
Q 3181 3475 3181 3084 
L 2616 3084 
Q 2622 3441 2356 3623 
Q 2091 3806 1700 3806 
Q 1300 3806 1073 3645 
Q 847 3484 847 3175 
Q 847 2991 944 2867 
Q 1041 2744 1280 2644 
Q 1519 2544 1941 2434 
Q 2428 2303 2731 2153 
Q 3034 2003 3178 1768 
Q 3322 1534 3322 1153 
Q 3322 747 3117 480 
Q 2913 213 2564 78 
Q 2216 -56 1778 -56 
z
" transform="scale(0.015625)"/>
       <path id="AptosDisplay-29" d="M 234 -1116 
Q 609 -481 786 233 
Q 963 947 963 1694 
Q 963 2356 759 3015 
Q 556 3675 234 4231 
L 663 4231 
Q 919 3800 1098 3389 
Q 1278 2978 1373 2540 
Q 1469 2103 1469 1594 
Q 1469 1094 1375 634 
Q 1281 175 1100 -259 
Q 919 -694 663 -1116 
L 234 -1116 
z
" transform="scale(0.015625)"/>
      </defs>
      <use xlink:href="#AptosDisplay-54"/>
      <use xlink:href="#AptosDisplay-69" x="47.705078"/>
      <use xlink:href="#AptosDisplay-6d" x="68.75"/>
      <use xlink:href="#AptosDisplay-65" x="148.730469"/>
      <use xlink:href="#AptosDisplay-20" x="198.144531"/>
      <use xlink:href="#AptosDisplay-28" x="217.431641"/>
      <use xlink:href="#AptosDisplay-53" x="246.875"/>
      <use xlink:href="#AptosDisplay-29" x="301.464844"/>
     </g>
    </g>
   </g>
   <g id="matplotlib.axis_2">
    <g id="ytick_1">
     <g id="line2d_57">
      <path d="M 105.740625 469.847218 
L 775.340625 469.847218 
" clip-path="url(#p06ed3cb980)" style="fill: none; stroke: #b0b0b0; stroke-opacity: 0.8; stroke-linecap: square"/>
     </g>
     <g id="line2d_58">
      <defs>
       <path id="m1b663c3907" d="M 0 0 
L -3.5 0 
" style="stroke: #000000; stroke-width: 0.8"/>
      </defs>
      <g>
       <use xlink:href="#m1b663c3907" x="105.740625" y="469.847218" style="stroke: #000000; stroke-width: 0.8"/>
      </g>
     </g>
     <g id="text_9">
      <!-- 950 -->
      <g transform="translate(67.3625 476.419093) scale(0.2 -0.2)">
       <defs>
        <path id="AptosDisplay-39" d="M 1547 -56 
Q 1200 -56 926 64 
Q 653 184 481 415 
Q 309 647 256 978 
L 788 978 
Q 834 713 1029 552 
Q 1225 391 1547 391 
Q 2022 391 2294 778 
Q 2566 1166 2566 2019 
L 2566 2197 
Q 2566 2753 2439 3079 
Q 2313 3406 2102 3547 
Q 1891 3688 1634 3688 
Q 1206 3688 998 3433 
Q 791 3178 791 2800 
Q 791 2422 991 2203 
Q 1191 1984 1547 1984 
Q 1831 1984 2045 2071 
Q 2259 2159 2417 2300 
Q 2575 2441 2681 2594 
L 2731 2209 
Q 2609 2038 2432 1884 
Q 2256 1731 2020 1634 
Q 1784 1538 1484 1538 
Q 1122 1538 842 1683 
Q 563 1828 405 2108 
Q 247 2388 247 2784 
Q 247 3175 414 3479 
Q 581 3784 892 3959 
Q 1203 4134 1631 4134 
Q 2056 4134 2389 3926 
Q 2722 3719 2914 3262 
Q 3106 2806 3106 2066 
Q 3106 1338 2912 869 
Q 2719 400 2369 172 
Q 2019 -56 1547 -56 
z
" transform="scale(0.015625)"/>
        <path id="AptosDisplay-35" d="M 1669 -56 
Q 1278 -56 964 83 
Q 650 222 465 483 
Q 281 744 281 1113 
L 816 1113 
Q 816 778 1055 584 
Q 1294 391 1669 391 
Q 2069 391 2291 625 
Q 2513 859 2513 1319 
Q 2513 1772 2291 1989 
Q 2069 2206 1697 2206 
Q 1409 2206 1223 2123 
Q 1038 2041 916 1894 
L 444 1894 
L 622 4078 
L 2788 4078 
L 2788 3613 
L 1041 3613 
L 931 2322 
Q 1044 2453 1251 2550 
Q 1459 2647 1775 2647 
Q 2131 2647 2420 2506 
Q 2709 2366 2881 2072 
Q 3053 1778 3053 1319 
Q 3053 863 2875 558 
Q 2697 253 2384 98 
Q 2072 -56 1669 -56 
z
" transform="scale(0.015625)"/>
       </defs>
       <use xlink:href="#AptosDisplay-39"/>
       <use xlink:href="#AptosDisplay-35" x="52.294922"/>
       <use xlink:href="#AptosDisplay-30" x="104.589844"/>
      </g>
     </g>
    </g>
    <g id="ytick_2">
     <g id="line2d_59">
      <path d="M 105.740625 377.278009 
L 775.340625 377.278009 
" clip-path="url(#p06ed3cb980)" style="fill: none; stroke: #b0b0b0; stroke-opacity: 0.8; stroke-linecap: square"/>
     </g>
     <g id="line2d_60">
      <g>
       <use xlink:href="#m1b663c3907" x="105.740625" y="377.278009" style="stroke: #000000; stroke-width: 0.8"/>
      </g>
     </g>
     <g id="text_10">
      <!-- 1000 -->
      <g transform="translate(56.903125 383.849884) scale(0.2 -0.2)">
       <use xlink:href="#AptosDisplay-31"/>
       <use xlink:href="#AptosDisplay-30" x="52.294922"/>
       <use xlink:href="#AptosDisplay-30" x="104.589844"/>
       <use xlink:href="#AptosDisplay-30" x="156.884766"/>
      </g>
     </g>
    </g>
    <g id="ytick_3">
     <g id="line2d_61">
      <path d="M 105.740625 284.7088 
L 775.340625 284.7088 
" clip-path="url(#p06ed3cb980)" style="fill: none; stroke: #b0b0b0; stroke-opacity: 0.8; stroke-linecap: square"/>
     </g>
     <g id="line2d_62">
      <g>
       <use xlink:href="#m1b663c3907" x="105.740625" y="284.7088" style="stroke: #000000; stroke-width: 0.8"/>
      </g>
     </g>
     <g id="text_11">
      <!-- 1050 -->
      <g transform="translate(56.903125 291.280675) scale(0.2 -0.2)">
       <use xlink:href="#AptosDisplay-31"/>
       <use xlink:href="#AptosDisplay-30" x="52.294922"/>
       <use xlink:href="#AptosDisplay-35" x="104.589844"/>
       <use xlink:href="#AptosDisplay-30" x="156.884766"/>
      </g>
     </g>
    </g>
    <g id="ytick_4">
     <g id="line2d_63">
      <path d="M 105.740625 192.139591 
L 775.340625 192.139591 
" clip-path="url(#p06ed3cb980)" style="fill: none; stroke: #b0b0b0; stroke-opacity: 0.8; stroke-linecap: square"/>
     </g>
     <g id="line2d_64">
      <g>
       <use xlink:href="#m1b663c3907" x="105.740625" y="192.139591" style="stroke: #000000; stroke-width: 0.8"/>
      </g>
     </g>
     <g id="text_12">
      <!-- 1100 -->
      <g transform="translate(56.903125 198.711466) scale(0.2 -0.2)">
       <use xlink:href="#AptosDisplay-31"/>
       <use xlink:href="#AptosDisplay-31" x="52.294922"/>
       <use xlink:href="#AptosDisplay-30" x="104.589844"/>
       <use xlink:href="#AptosDisplay-30" x="156.884766"/>
      </g>
     </g>
    </g>
    <g id="ytick_5">
     <g id="line2d_65">
      <path d="M 105.740625 99.570383 
L 775.340625 99.570383 
" clip-path="url(#p06ed3cb980)" style="fill: none; stroke: #b0b0b0; stroke-opacity: 0.8; stroke-linecap: square"/>
     </g>
     <g id="line2d_66">
      <g>
       <use xlink:href="#m1b663c3907" x="105.740625" y="99.570383" style="stroke: #000000; stroke-width: 0.8"/>
      </g>
     </g>
     <g id="text_13">
      <!-- 1150 -->
      <g transform="translate(56.903125 106.142258) scale(0.2 -0.2)">
       <use xlink:href="#AptosDisplay-31"/>
       <use xlink:href="#AptosDisplay-31" x="52.294922"/>
       <use xlink:href="#AptosDisplay-35" x="104.589844"/>
       <use xlink:href="#AptosDisplay-30" x="156.884766"/>
      </g>
     </g>
    </g>
    <g id="ytick_6">
     <g id="line2d_67">
      <path d="M 105.740625 488.36106 
L 775.340625 488.36106 
" clip-path="url(#p06ed3cb980)" style="fill: none; stroke-dasharray: 1.85,0.8; stroke-dashoffset: 0; stroke: #b0b0b0; stroke-opacity: 0.8; stroke-width: 0.5"/>
     </g>
     <g id="line2d_68">
      <defs>
       <path id="mde0fa88828" d="M 0 0 
L -2 0 
" style="stroke: #000000; stroke-width: 0.6"/>
      </defs>
      <g>
       <use xlink:href="#mde0fa88828" x="105.740625" y="488.36106" style="stroke: #000000; stroke-width: 0.6"/>
      </g>
     </g>
    </g>
    <g id="ytick_7">
     <g id="line2d_69">
      <path d="M 105.740625 451.333376 
L 775.340625 451.333376 
" clip-path="url(#p06ed3cb980)" style="fill: none; stroke-dasharray: 1.85,0.8; stroke-dashoffset: 0; stroke: #b0b0b0; stroke-opacity: 0.8; stroke-width: 0.5"/>
     </g>
     <g id="line2d_70">
      <g>
       <use xlink:href="#mde0fa88828" x="105.740625" y="451.333376" style="stroke: #000000; stroke-width: 0.6"/>
      </g>
     </g>
    </g>
    <g id="ytick_8">
     <g id="line2d_71">
      <path d="M 105.740625 432.819534 
L 775.340625 432.819534 
" clip-path="url(#p06ed3cb980)" style="fill: none; stroke-dasharray: 1.85,0.8; stroke-dashoffset: 0; stroke: #b0b0b0; stroke-opacity: 0.8; stroke-width: 0.5"/>
     </g>
     <g id="line2d_72">
      <g>
       <use xlink:href="#mde0fa88828" x="105.740625" y="432.819534" style="stroke: #000000; stroke-width: 0.6"/>
      </g>
     </g>
    </g>
    <g id="ytick_9">
     <g id="line2d_73">
      <path d="M 105.740625 414.305692 
L 775.340625 414.305692 
" clip-path="url(#p06ed3cb980)" style="fill: none; stroke-dasharray: 1.85,0.8; stroke-dashoffset: 0; stroke: #b0b0b0; stroke-opacity: 0.8; stroke-width: 0.5"/>
     </g>
     <g id="line2d_74">
      <g>
       <use xlink:href="#mde0fa88828" x="105.740625" y="414.305692" style="stroke: #000000; stroke-width: 0.6"/>
      </g>
     </g>
    </g>
    <g id="ytick_10">
     <g id="line2d_75">
      <path d="M 105.740625 395.791851 
L 775.340625 395.791851 
" clip-path="url(#p06ed3cb980)" style="fill: none; stroke-dasharray: 1.85,0.8; stroke-dashoffset: 0; stroke: #b0b0b0; stroke-opacity: 0.8; stroke-width: 0.5"/>
     </g>
     <g id="line2d_76">
      <g>
       <use xlink:href="#mde0fa88828" x="105.740625" y="395.791851" style="stroke: #000000; stroke-width: 0.6"/>
      </g>
     </g>
    </g>
    <g id="ytick_11">
     <g id="line2d_77">
      <path d="M 105.740625 358.764167 
L 775.340625 358.764167 
" clip-path="url(#p06ed3cb980)" style="fill: none; stroke-dasharray: 1.85,0.8; stroke-dashoffset: 0; stroke: #b0b0b0; stroke-opacity: 0.8; stroke-width: 0.5"/>
     </g>
     <g id="line2d_78">
      <g>
       <use xlink:href="#mde0fa88828" x="105.740625" y="358.764167" style="stroke: #000000; stroke-width: 0.6"/>
      </g>
     </g>
    </g>
    <g id="ytick_12">
     <g id="line2d_79">
      <path d="M 105.740625 340.250325 
L 775.340625 340.250325 
" clip-path="url(#p06ed3cb980)" style="fill: none; stroke-dasharray: 1.85,0.8; stroke-dashoffset: 0; stroke: #b0b0b0; stroke-opacity: 0.8; stroke-width: 0.5"/>
     </g>
     <g id="line2d_80">
      <g>
       <use xlink:href="#mde0fa88828" x="105.740625" y="340.250325" style="stroke: #000000; stroke-width: 0.6"/>
      </g>
     </g>
    </g>
    <g id="ytick_13">
     <g id="line2d_81">
      <path d="M 105.740625 321.736484 
L 775.340625 321.736484 
" clip-path="url(#p06ed3cb980)" style="fill: none; stroke-dasharray: 1.85,0.8; stroke-dashoffset: 0; stroke: #b0b0b0; stroke-opacity: 0.8; stroke-width: 0.5"/>
     </g>
     <g id="line2d_82">
      <g>
       <use xlink:href="#mde0fa88828" x="105.740625" y="321.736484" style="stroke: #000000; stroke-width: 0.6"/>
      </g>
     </g>
    </g>
    <g id="ytick_14">
     <g id="line2d_83">
      <path d="M 105.740625 303.222642 
L 775.340625 303.222642 
" clip-path="url(#p06ed3cb980)" style="fill: none; stroke-dasharray: 1.85,0.8; stroke-dashoffset: 0; stroke: #b0b0b0; stroke-opacity: 0.8; stroke-width: 0.5"/>
     </g>
     <g id="line2d_84">
      <g>
       <use xlink:href="#mde0fa88828" x="105.740625" y="303.222642" style="stroke: #000000; stroke-width: 0.6"/>
      </g>
     </g>
    </g>
    <g id="ytick_15">
     <g id="line2d_85">
      <path d="M 105.740625 266.194958 
L 775.340625 266.194958 
" clip-path="url(#p06ed3cb980)" style="fill: none; stroke-dasharray: 1.85,0.8; stroke-dashoffset: 0; stroke: #b0b0b0; stroke-opacity: 0.8; stroke-width: 0.5"/>
     </g>
     <g id="line2d_86">
      <g>
       <use xlink:href="#mde0fa88828" x="105.740625" y="266.194958" style="stroke: #000000; stroke-width: 0.6"/>
      </g>
     </g>
    </g>
    <g id="ytick_16">
     <g id="line2d_87">
      <path d="M 105.740625 247.681117 
L 775.340625 247.681117 
" clip-path="url(#p06ed3cb980)" style="fill: none; stroke-dasharray: 1.85,0.8; stroke-dashoffset: 0; stroke: #b0b0b0; stroke-opacity: 0.8; stroke-width: 0.5"/>
     </g>
     <g id="line2d_88">
      <g>
       <use xlink:href="#mde0fa88828" x="105.740625" y="247.681117" style="stroke: #000000; stroke-width: 0.6"/>
      </g>
     </g>
    </g>
    <g id="ytick_17">
     <g id="line2d_89">
      <path d="M 105.740625 229.167275 
L 775.340625 229.167275 
" clip-path="url(#p06ed3cb980)" style="fill: none; stroke-dasharray: 1.85,0.8; stroke-dashoffset: 0; stroke: #b0b0b0; stroke-opacity: 0.8; stroke-width: 0.5"/>
     </g>
     <g id="line2d_90">
      <g>
       <use xlink:href="#mde0fa88828" x="105.740625" y="229.167275" style="stroke: #000000; stroke-width: 0.6"/>
      </g>
     </g>
    </g>
    <g id="ytick_18">
     <g id="line2d_91">
      <path d="M 105.740625 210.653433 
L 775.340625 210.653433 
" clip-path="url(#p06ed3cb980)" style="fill: none; stroke-dasharray: 1.85,0.8; stroke-dashoffset: 0; stroke: #b0b0b0; stroke-opacity: 0.8; stroke-width: 0.5"/>
     </g>
     <g id="line2d_92">
      <g>
       <use xlink:href="#mde0fa88828" x="105.740625" y="210.653433" style="stroke: #000000; stroke-width: 0.6"/>
      </g>
     </g>
    </g>
    <g id="ytick_19">
     <g id="line2d_93">
      <path d="M 105.740625 173.62575 
L 775.340625 173.62575 
" clip-path="url(#p06ed3cb980)" style="fill: none; stroke-dasharray: 1.85,0.8; stroke-dashoffset: 0; stroke: #b0b0b0; stroke-opacity: 0.8; stroke-width: 0.5"/>
     </g>
     <g id="line2d_94">
      <g>
       <use xlink:href="#mde0fa88828" x="105.740625" y="173.62575" style="stroke: #000000; stroke-width: 0.6"/>
      </g>
     </g>
    </g>
    <g id="ytick_20">
     <g id="line2d_95">
      <path d="M 105.740625 155.111908 
L 775.340625 155.111908 
" clip-path="url(#p06ed3cb980)" style="fill: none; stroke-dasharray: 1.85,0.8; stroke-dashoffset: 0; stroke: #b0b0b0; stroke-opacity: 0.8; stroke-width: 0.5"/>
     </g>
     <g id="line2d_96">
      <g>
       <use xlink:href="#mde0fa88828" x="105.740625" y="155.111908" style="stroke: #000000; stroke-width: 0.6"/>
      </g>
     </g>
    </g>
    <g id="ytick_21">
     <g id="line2d_97">
      <path d="M 105.740625 136.598066 
L 775.340625 136.598066 
" clip-path="url(#p06ed3cb980)" style="fill: none; stroke-dasharray: 1.85,0.8; stroke-dashoffset: 0; stroke: #b0b0b0; stroke-opacity: 0.8; stroke-width: 0.5"/>
     </g>
     <g id="line2d_98">
      <g>
       <use xlink:href="#mde0fa88828" x="105.740625" y="136.598066" style="stroke: #000000; stroke-width: 0.6"/>
      </g>
     </g>
    </g>
    <g id="ytick_22">
     <g id="line2d_99">
      <path d="M 105.740625 118.084224 
L 775.340625 118.084224 
" clip-path="url(#p06ed3cb980)" style="fill: none; stroke-dasharray: 1.85,0.8; stroke-dashoffset: 0; stroke: #b0b0b0; stroke-opacity: 0.8; stroke-width: 0.5"/>
     </g>
     <g id="line2d_100">
      <g>
       <use xlink:href="#mde0fa88828" x="105.740625" y="118.084224" style="stroke: #000000; stroke-width: 0.6"/>
      </g>
     </g>
    </g>
    <g id="ytick_23">
     <g id="line2d_101">
      <path d="M 105.740625 81.056541 
L 775.340625 81.056541 
" clip-path="url(#p06ed3cb980)" style="fill: none; stroke-dasharray: 1.85,0.8; stroke-dashoffset: 0; stroke: #b0b0b0; stroke-opacity: 0.8; stroke-width: 0.5"/>
     </g>
     <g id="line2d_102">
      <g>
       <use xlink:href="#mde0fa88828" x="105.740625" y="81.056541" style="stroke: #000000; stroke-width: 0.6"/>
      </g>
     </g>
    </g>
    <g id="ytick_24">
     <g id="line2d_103">
      <path d="M 105.740625 62.542699 
L 775.340625 62.542699 
" clip-path="url(#p06ed3cb980)" style="fill: none; stroke-dasharray: 1.85,0.8; stroke-dashoffset: 0; stroke: #b0b0b0; stroke-opacity: 0.8; stroke-width: 0.5"/>
     </g>
     <g id="line2d_104">
      <g>
       <use xlink:href="#mde0fa88828" x="105.740625" y="62.542699" style="stroke: #000000; stroke-width: 0.6"/>
      </g>
     </g>
    </g>
    <g id="text_14">
     <!-- Light (W/m^2) -->
     <g transform="translate(49.221875 337.558125) rotate(-90) scale(0.2 -0.2)">
      <defs>
       <path id="AptosDisplay-4c" d="M 472 0 
L 472 4206 
L 1034 4206 
L 1034 484 
L 3000 484 
L 3000 0 
L 472 0 
z
" transform="scale(0.015625)"/>
       <path id="AptosDisplay-67" d="M 1397 -1178 
Q 925 -1178 640 -1065 
Q 356 -953 229 -765 
Q 103 -578 103 -359 
Q 103 -94 329 112 
Q 556 319 1031 403 
L 1128 575 
L 1475 575 
Q 2184 575 2489 376 
Q 2794 178 2794 -238 
Q 2794 -650 2437 -914 
Q 2081 -1178 1397 -1178 
z
M 1384 -800 
Q 1878 -800 2086 -650 
Q 2294 -500 2294 -278 
Q 2294 -147 2225 -51 
Q 2156 44 1975 97 
Q 1794 150 1456 150 
L 1034 150 
Q 819 97 708 -31 
Q 597 -159 597 -328 
Q 597 -516 778 -658 
Q 959 -800 1384 -800 
z
M 1025 216 
Q 722 228 550 312 
Q 378 397 306 511 
Q 234 625 234 722 
Q 234 866 362 1009 
Q 491 1153 772 1241 
L 1038 1069 
Q 866 1031 772 953 
Q 678 875 678 791 
Q 678 731 734 682 
Q 791 634 928 606 
Q 1066 578 1303 575 
L 1025 216 
z
M 1363 984 
Q 1003 984 753 1128 
Q 503 1272 375 1509 
Q 247 1747 247 2022 
Q 247 2313 376 2550 
Q 506 2788 754 2928 
Q 1003 3069 1366 3069 
Q 1738 3069 1983 2928 
Q 2228 2788 2351 2550 
Q 2475 2313 2475 2022 
Q 2475 1741 2350 1505 
Q 2225 1269 1979 1126 
Q 1734 984 1363 984 
z
M 1366 1341 
Q 1641 1341 1812 1512 
Q 1984 1684 1984 2022 
Q 1984 2375 1817 2545 
Q 1650 2716 1372 2716 
Q 1094 2716 919 2541 
Q 744 2366 744 2025 
Q 744 1681 931 1511 
Q 1119 1341 1366 1341 
z
M 2131 2734 
L 1922 2931 
Q 2038 3225 2252 3331 
Q 2466 3438 2794 3447 
L 2794 3006 
Q 2588 3006 2416 2961 
Q 2244 2916 2131 2734 
z
" transform="scale(0.015625)"/>
       <path id="AptosDisplay-68" d="M 413 0 
L 413 4206 
L 931 4206 
L 931 2575 
Q 1069 2756 1317 2914 
Q 1566 3072 1950 3072 
Q 2428 3072 2637 2783 
Q 2847 2494 2847 1963 
L 2847 0 
L 2328 0 
L 2328 1891 
Q 2328 2106 2287 2275 
Q 2247 2444 2139 2539 
Q 2031 2634 1822 2634 
Q 1503 2634 1284 2482 
Q 1066 2331 934 2156 
L 934 0 
L 413 0 
z
" transform="scale(0.015625)"/>
       <path id="AptosDisplay-74" d="M 1466 0 
Q 1100 0 901 117 
Q 703 234 629 454 
Q 556 675 556 984 
L 556 2622 
L 50 2622 
L 50 3044 
L 556 3044 
L 556 3741 
L 1078 3741 
L 1078 3044 
L 1831 3044 
L 1831 2622 
L 1078 2622 
L 1078 1009 
Q 1078 725 1151 575 
Q 1225 425 1500 425 
L 1831 425 
L 1831 0 
L 1466 0 
z
" transform="scale(0.015625)"/>
       <path id="AptosDisplay-57" d="M 1216 0 
L -13 4206 
L 575 4206 
L 1525 697 
L 2531 4206 
L 3156 4206 
L 4163 697 
L 5119 4206 
L 5681 4206 
L 4453 0 
L 3866 0 
L 2831 3556 
L 1813 0 
L 1216 0 
z
" transform="scale(0.015625)"/>
       <path id="AptosDisplay-2f" d="M 72 0 
L 1603 4206 
L 2100 4206 
L 569 0 
L 72 0 
z
" transform="scale(0.015625)"/>
       <path id="AptosDisplay-5e" d="M 428 2438 
L 1459 4206 
L 1884 4206 
L 2916 2438 
L 2366 2438 
L 1672 3650 
L 978 2438 
L 428 2438 
z
" transform="scale(0.015625)"/>
      </defs>
      <use xlink:href="#AptosDisplay-4c"/>
      <use xlink:href="#AptosDisplay-69" x="48.4375"/>
      <use xlink:href="#AptosDisplay-67" x="69.482422"/>
      <use xlink:href="#AptosDisplay-68" x="113.427734"/>
      <use xlink:href="#AptosDisplay-74" x="164.013672"/>
      <use xlink:href="#AptosDisplay-20" x="194.384766"/>
      <use xlink:href="#AptosDisplay-28" x="213.671875"/>
      <use xlink:href="#AptosDisplay-57" x="243.115234"/>
      <use xlink:href="#AptosDisplay-2f" x="331.689453"/>
      <use xlink:href="#AptosDisplay-6d" x="365.625"/>
      <use xlink:href="#AptosDisplay-5e" x="445.605469"/>
      <use xlink:href="#AptosDisplay-32" x="497.900391"/>
      <use xlink:href="#AptosDisplay-29" x="550.195312"/>
     </g>
    </g>
   </g>
   <g id="line2d_105">
    <path d="M 136.176989 405.285749 
L 137.142991 403.652828 
L 138.113848 415.896031 
L 139.084705 406.91867 
L 140.055562 402.021758 
L 141.026419 406.102209 
L 141.997276 405.285749 
L 142.968133 399.572377 
L 143.93899 401.205298 
L 144.909846 406.102209 
L 145.880703 403.652828 
L 146.85156 410.99912 
L 147.822417 400.388838 
L 148.793274 406.91867 
L 149.764131 396.308387 
L 150.734988 401.205298 
L 151.705845 407.73513 
L 152.676702 406.91867 
L 153.647558 412.632041 
L 154.618415 406.91867 
L 155.589272 408.549739 
L 156.560129 425.689854 
L 157.530986 402.021758 
L 158.501843 402.021758 
L 159.477554 375.08597 
L 160.448411 358.762316 
L 161.414414 403.652828 
L 162.38527 399.572377 
L 163.356127 405.285749 
L 164.326984 402.836368 
L 165.297841 405.285749 
L 166.268698 402.836368 
L 167.239555 408.549739 
L 168.210412 398.755917 
L 170.152126 413.448502 
L 171.127837 376.718891 
L 172.093839 407.73513 
L 173.064696 416.712492 
L 174.035553 406.91867 
L 175.011264 360.395237 
L 175.977267 408.549739 
L 176.948124 400.388838 
L 177.918981 408.549739 
L 178.889838 405.285749 
L 179.860695 406.102209 
L 180.831551 397.939456 
L 181.802408 409.3662 
L 182.773265 409.3662 
L 183.744122 408.549739 
L 184.714979 400.388838 
L 185.685836 403.652828 
L 186.656693 403.652828 
L 187.62755 405.285749 
L 188.598407 413.448502 
L 189.569264 404.469288 
L 190.54012 410.18266 
L 191.510977 402.021758 
L 192.481834 402.836368 
L 193.452691 405.285749 
L 194.423548 406.91867 
L 195.394405 414.263111 
L 196.370116 77.9925 
L 197.336119 406.91867 
L 198.306976 404.469288 
L 199.282687 403.652828 
L 201.219546 405.285749 
L 202.190403 403.652828 
L 203.16126 406.102209 
L 204.136971 400.388838 
L 205.107828 406.91867 
L 206.078685 402.021758 
L 207.049542 407.73513 
L 208.020399 402.021758 
L 208.991256 405.285749 
L 209.962113 403.652828 
L 210.932969 411.815581 
L 211.903826 397.939456 
L 212.874683 409.3662 
L 213.84554 410.18266 
L 214.816397 407.73513 
L 216.758111 406.102209 
L 217.728968 408.549739 
L 218.699825 402.836368 
L 219.670682 413.448502 
L 220.641538 410.18266 
L 221.612395 405.285749 
L 222.583252 410.99912 
L 223.554109 415.896031 
L 224.524966 406.102209 
L 225.495823 409.3662 
L 226.46668 409.3662 
L 227.437537 406.102209 
L 228.408394 415.079571 
L 229.37925 403.652828 
L 230.350107 405.285749 
L 231.320964 406.102209 
L 232.291821 402.836368 
L 233.262678 410.99912 
L 234.233535 404.469288 
L 235.204392 410.18266 
L 236.175249 404.469288 
L 237.146106 365.292148 
L 238.116963 404.469288 
L 239.087819 399.572377 
L 240.058676 407.73513 
L 241.029533 406.91867 
L 242.00039 404.469288 
L 242.971247 399.572377 
L 243.942104 403.652828 
L 245.883818 410.18266 
L 246.854675 400.388838 
L 247.825531 406.91867 
L 248.796388 402.021758 
L 249.767245 413.448502 
L 250.738102 406.91867 
L 251.708959 406.102209 
L 252.679816 402.021758 
L 253.650673 414.263111 
L 254.62153 407.73513 
L 255.592387 406.91867 
L 256.563244 365.292148 
L 257.5341 399.572377 
L 258.504957 418.345413 
L 259.475814 414.263111 
L 260.446671 405.285749 
L 261.417528 409.3662 
L 262.388385 405.285749 
L 263.359242 409.3662 
L 264.330099 410.18266 
L 265.300956 408.549739 
L 266.271812 402.021758 
L 267.242669 358.762316 
L 268.213526 409.3662 
L 269.184383 406.102209 
L 270.15524 406.91867 
L 271.126097 409.3662 
L 272.096954 410.18266 
L 273.067811 407.73513 
L 274.038668 408.549739 
L 275.009525 406.102209 
L 275.980381 404.469288 
L 276.951238 406.91867 
L 277.922095 405.285749 
L 278.892952 405.285749 
L 279.863809 408.549739 
L 281.805523 406.91867 
L 282.77638 404.469288 
L 283.747237 404.469288 
L 284.718093 406.102209 
L 285.68895 406.91867 
L 286.659807 403.652828 
L 287.630664 401.205298 
L 288.601521 406.102209 
L 289.572378 410.18266 
L 290.543235 404.469288 
L 291.514092 406.102209 
L 292.484949 409.3662 
L 293.455806 409.3662 
L 294.426662 408.549739 
L 295.397519 406.91867 
L 296.368376 406.91867 
L 297.339233 413.448502 
L 298.31009 406.91867 
L 299.280947 402.836368 
L 300.251804 395.491926 
L 301.222661 409.3662 
L 302.193518 410.18266 
L 303.164374 402.021758 
L 304.135231 406.102209 
L 305.106088 411.815581 
L 307.047802 403.652828 
L 308.989516 406.91867 
L 309.960373 403.652828 
L 310.93123 410.18266 
L 311.902087 405.285749 
L 312.872943 406.102209 
L 313.8438 405.285749 
L 314.814657 403.652828 
L 315.785514 411.815581 
L 316.756371 408.549739 
L 317.727228 415.079571 
L 318.698085 414.263111 
L 319.668942 408.549739 
L 320.639799 409.3662 
L 321.610655 410.99912 
L 322.581512 392.226085 
L 323.552369 402.836368 
L 324.523226 388.145634 
L 325.494083 405.285749 
L 326.46494 408.549739 
L 327.435797 417.528952 
L 328.406654 400.388838 
L 329.377511 359.578776 
L 330.348367 403.652828 
L 331.319224 415.079571 
L 332.290081 407.73513 
L 333.260938 406.102209 
L 334.231795 410.18266 
L 335.202652 389.778555 
L 336.173509 410.99912 
L 337.144366 408.549739 
L 338.115223 410.18266 
L 339.08608 405.285749 
L 340.056936 407.73513 
L 341.027793 412.632041 
L 341.99865 407.73513 
L 342.969507 412.632041 
L 343.940364 402.836368 
L 344.911221 406.102209 
L 345.882078 413.448502 
L 346.852935 410.18266 
L 347.823792 421.609403 
L 348.794648 415.079571 
L 349.765505 402.021758 
L 350.736362 406.91867 
L 351.707219 409.3662 
L 352.678076 408.549739 
L 353.648933 410.99912 
L 354.61979 408.549739 
L 355.590647 412.632041 
L 356.561504 406.91867 
L 357.532361 410.18266 
L 358.503217 410.18266 
L 359.474074 410.99912 
L 360.444931 412.632041 
L 361.415788 419.161873 
L 362.386645 408.549739 
L 363.357502 411.815581 
L 364.328359 415.896031 
L 365.299216 400.388838 
L 366.270073 413.448502 
L 367.240929 406.91867 
L 368.211786 410.99912 
L 369.182643 405.285749 
L 370.1535 421.609403 
L 371.124357 406.102209 
L 372.095214 411.815581 
L 373.066071 409.3662 
L 374.036928 415.896031 
L 375.007785 391.411476 
L 375.978642 406.102209 
L 376.949498 409.3662 
L 377.920355 410.18266 
L 378.891212 406.102209 
L 379.862069 377.535351 
L 380.832926 406.91867 
L 381.803783 410.99912 
L 382.77464 408.549739 
L 383.745497 402.021758 
L 384.716354 410.18266 
L 385.68721 404.469288 
L 386.658067 407.73513 
L 387.628924 406.102209 
L 388.599781 406.102209 
L 389.570638 410.18266 
L 390.541495 409.3662 
L 391.512352 410.99912 
L 392.483209 406.91867 
L 393.454066 405.285749 
L 394.424923 407.73513 
L 395.395779 411.815581 
L 396.366636 411.815581 
L 397.337493 442.015359 
L 398.30835 359.578776 
L 399.279207 435.485527 
L 400.250064 410.99912 
L 401.220921 371.82198 
L 402.191778 405.285749 
L 404.133491 415.079571 
L 405.104348 402.836368 
L 406.075205 404.469288 
L 407.046062 406.91867 
L 408.016919 402.836368 
L 408.987776 407.73513 
L 409.958633 400.388838 
L 410.92949 417.528952 
L 411.900347 381.615802 
L 412.871204 403.652828 
L 413.84206 410.18266 
L 414.812917 413.448502 
L 415.783774 411.815581 
L 416.754631 404.469288 
L 417.725488 408.549739 
L 418.696345 410.99912 
L 419.667202 379.982881 
L 420.638059 410.18266 
L 421.608916 406.91867 
L 422.579772 402.021758 
L 423.550629 414.263111 
L 424.521486 410.18266 
L 425.492343 426.506314 
L 429.375771 384.065183 
L 430.346628 410.18266 
L 431.317485 395.491926 
L 432.288341 409.3662 
L 433.259198 407.73513 
L 434.230055 411.815581 
L 435.200912 415.079571 
L 436.171769 465.683455 
L 437.142626 411.815581 
L 438.113483 407.73513 
L 439.08434 405.285749 
L 440.055197 405.285749 
L 441.026053 406.102209 
L 441.99691 409.3662 
L 442.967767 407.73513 
L 443.938624 412.632041 
L 444.909481 405.285749 
L 446.851195 408.549739 
L 447.822052 411.815581 
L 448.792909 409.3662 
L 449.763765 410.99912 
L 450.734622 410.18266 
L 451.705479 410.18266 
L 452.676336 397.124847 
L 453.647193 407.73513 
L 454.61805 409.3662 
L 455.588907 405.285749 
L 456.559764 412.632041 
L 457.530621 408.549739 
L 458.501478 409.3662 
L 459.472334 410.99912 
L 460.443191 407.73513 
L 461.414048 415.896031 
L 462.384905 405.285749 
L 463.355762 410.99912 
L 464.326619 413.448502 
L 465.297476 408.549739 
L 466.268333 331.011918 
L 467.23919 416.712492 
L 468.210046 406.91867 
L 469.180903 406.91867 
L 470.15176 406.102209 
L 471.122617 410.99912 
L 472.093474 406.91867 
L 473.064331 406.91867 
L 474.035188 411.815581 
L 475.006045 406.91867 
L 475.976902 410.99912 
L 476.947759 406.102209 
L 477.918615 397.124847 
L 478.889472 413.448502 
L 479.860329 407.73513 
L 480.831186 410.18266 
L 481.802043 408.549739 
L 482.7729 409.3662 
L 483.743757 405.285749 
L 484.714614 408.549739 
L 485.685471 410.99912 
L 486.656327 411.815581 
L 487.627184 408.549739 
L 488.598041 410.99912 
L 489.568898 410.18266 
L 490.539755 406.102209 
L 491.510612 407.73513 
L 492.481469 408.549739 
L 493.452326 411.815581 
L 494.423183 410.99912 
L 495.39404 414.263111 
L 496.364896 410.18266 
L 497.335753 411.815581 
L 498.30661 407.73513 
L 499.277467 409.3662 
L 500.248324 412.632041 
L 501.219181 411.815581 
L 503.160895 408.549739 
L 504.131752 410.18266 
L 505.102608 410.18266 
L 506.073465 415.896031 
L 507.044322 410.18266 
L 508.015179 408.549739 
L 508.986036 398.755917 
L 509.956893 415.896031 
L 510.92775 409.3662 
L 511.898607 414.263111 
L 512.869464 407.73513 
L 513.840321 410.99912 
L 514.811177 405.285749 
L 515.782034 411.815581 
L 516.752891 410.18266 
L 517.723748 410.99912 
L 518.694605 410.18266 
L 519.665462 443.646429 
L 520.636319 407.73513 
L 521.607176 433.852607 
L 522.578033 409.3662 
L 523.548889 420.792943 
L 524.519746 405.285749 
L 525.490603 406.91867 
L 526.46146 410.18266 
L 527.432317 406.91867 
L 528.403174 406.91867 
L 530.344888 415.079571 
L 531.315745 408.549739 
L 532.286602 397.939456 
L 533.257458 410.18266 
L 534.228315 409.3662 
L 535.199172 409.3662 
L 536.170029 411.815581 
L 537.140886 413.448502 
L 538.111743 413.448502 
L 539.0826 409.3662 
L 540.053457 412.632041 
L 541.024314 427.322775 
L 541.99517 412.632041 
L 542.966027 411.815581 
L 543.936884 411.815581 
L 545.878598 406.91867 
L 546.849455 410.18266 
L 547.820312 410.99912 
L 548.791169 397.124847 
L 549.762026 463.235925 
L 550.732883 413.448502 
L 551.703739 411.815581 
L 552.674596 409.3662 
L 553.645453 406.102209 
L 554.61631 425.689854 
L 555.587167 404.469288 
L 556.558024 410.18266 
L 557.528881 406.102209 
L 558.499738 406.91867 
L 559.470595 409.3662 
L 560.441451 408.549739 
L 561.412308 410.18266 
L 562.383165 406.91867 
L 563.354022 412.632041 
L 564.324879 413.448502 
L 565.295736 410.99912 
L 566.266593 410.99912 
L 567.23745 412.632041 
L 568.208307 413.448502 
L 569.179163 410.99912 
L 570.15002 412.632041 
L 571.120877 409.3662 
L 572.091734 414.263111 
L 573.062591 405.285749 
L 574.033448 409.3662 
L 575.004305 410.99912 
L 575.975162 395.491926 
L 576.946019 406.102209 
L 577.916876 406.91867 
L 578.887732 414.263111 
L 579.858589 408.549739 
L 580.829446 405.285749 
L 581.800303 371.82198 
L 582.77116 405.285749 
L 583.742017 410.99912 
L 584.712874 412.632041 
L 585.683731 411.815581 
L 586.654588 411.815581 
L 587.625444 413.448502 
L 589.567158 413.448502 
L 590.538015 410.99912 
L 591.508872 410.18266 
L 592.479729 413.448502 
L 593.450586 411.815581 
L 594.421443 415.079571 
L 595.3923 415.079571 
L 596.363157 410.99912 
L 597.334013 411.815581 
L 598.30487 410.99912 
L 599.275727 459.155474 
L 600.246584 406.102209 
L 601.217441 413.448502 
L 602.188298 411.815581 
L 603.159155 413.448502 
L 604.130012 412.632041 
L 605.100869 416.712492 
L 606.071725 415.079571 
L 607.042582 410.99912 
L 608.013439 406.102209 
L 608.984296 410.99912 
L 609.955153 415.079571 
L 610.92601 413.448502 
L 611.896867 410.99912 
L 612.867724 416.712492 
L 613.838581 410.18266 
L 614.809438 401.205298 
L 615.780294 410.99912 
L 616.751151 409.3662 
L 617.722008 421.609403 
L 618.692865 413.448502 
L 619.663722 410.18266 
L 620.634579 407.73513 
L 621.605436 401.205298 
L 622.576293 409.3662 
L 623.54715 406.102209 
L 624.518006 410.99912 
L 625.488863 413.448502 
L 626.45972 418.345413 
L 627.430577 393.042545 
L 628.401434 415.896031 
L 629.372291 410.18266 
L 630.343148 417.528952 
L 631.314005 414.263111 
L 632.284862 418.345413 
L 633.255719 409.3662 
L 634.226575 415.079571 
L 635.197432 405.285749 
L 636.168289 411.815581 
L 637.139146 415.896031 
L 638.110003 415.896031 
L 639.08086 413.448502 
L 640.051717 419.976482 
L 641.022574 410.99912 
L 641.993431 417.528952 
L 642.964287 409.3662 
L 643.935144 411.815581 
L 644.906001 405.285749 
L 645.876858 413.448502 
L 646.847715 413.448502 
L 647.818572 388.962095 
L 649.760286 418.345413 
L 650.731143 406.91867 
L 651.702 410.99912 
L 652.672856 422.425863 
L 653.643713 415.896031 
L 654.61457 415.079571 
L 655.585427 406.102209 
L 656.556284 401.205298 
L 657.527141 412.632041 
L 658.497998 413.448502 
L 659.468855 419.161873 
L 660.439712 411.815581 
L 661.410568 408.549739 
L 662.381425 410.99912 
L 663.352282 406.91867 
L 664.323139 410.18266 
L 665.293996 410.18266 
L 666.264853 414.263111 
L 667.23571 413.448502 
L 668.206567 410.18266 
L 669.177424 410.18266 
L 670.148281 408.549739 
L 671.119137 414.263111 
L 672.089994 414.263111 
L 673.060851 410.18266 
L 674.031708 412.632041 
L 675.002565 410.18266 
L 675.973422 433.852607 
L 676.944279 412.632041 
L 677.915136 430.588616 
L 678.885993 416.712492 
L 679.856849 410.18266 
L 680.827706 410.18266 
L 681.798563 415.079571 
L 682.76942 414.263111 
L 683.740277 415.079571 
L 684.711134 409.3662 
L 686.652848 417.528952 
L 688.594561 414.263111 
L 689.565418 441.198899 
L 690.536275 424.058784 
L 691.507132 411.815581 
L 692.477989 407.73513 
L 693.448846 414.263111 
L 694.419703 406.102209 
L 695.39056 408.549739 
L 696.361417 414.263111 
L 697.332274 411.815581 
L 698.30313 410.18266 
L 699.273987 414.263111 
L 700.244844 415.079571 
L 701.215701 413.448502 
L 702.186558 410.99912 
L 703.157415 410.18266 
L 704.128272 411.815581 
L 705.099129 407.73513 
L 706.069986 410.18266 
L 707.040842 409.3662 
L 708.011699 406.102209 
L 708.982556 411.815581 
L 709.953413 412.632041 
L 710.92427 415.079571 
L 711.895127 416.712492 
L 712.865984 481.1925 
L 713.836841 418.345413 
L 714.807698 413.448502 
L 715.778555 403.652828 
L 716.749411 410.18266 
L 717.720268 410.18266 
L 718.691125 314.688264 
L 722.574553 405.285749 
L 723.54541 414.263111 
L 724.516267 418.345413 
L 725.487123 414.263111 
L 726.45798 415.079571 
L 727.428837 416.712492 
L 728.399694 419.976482 
L 729.370551 398.755917 
L 730.341408 418.345413 
L 731.312265 408.549739 
L 732.283122 433.036146 
L 733.253979 410.18266 
L 734.224836 398.755917 
L 735.195692 409.3662 
L 736.166549 406.91867 
L 737.137406 409.3662 
L 738.108263 413.448502 
L 739.07912 407.73513 
L 740.049977 406.102209 
L 741.020834 415.896031 
L 741.991691 412.632041 
L 742.962548 415.079571 
L 743.933404 409.3662 
L 744.904261 415.079571 
L 744.904261 415.079571 
" clip-path="url(#p06ed3cb980)" style="fill: none; stroke: #ac2b37; stroke-width: 1.5; stroke-linecap: square"/>
   </g>
   <g id="patch_3">
    <path d="M 105.740625 501.3525 
L 105.740625 57.8325 
" style="fill: none; stroke: #000000; stroke-width: 0.8; stroke-linejoin: miter; stroke-linecap: square"/>
   </g>
   <g id="patch_4">
    <path d="M 775.340625 501.3525 
L 775.340625 57.8325 
" style="fill: none; stroke: #000000; stroke-width: 0.8; stroke-linejoin: miter; stroke-linecap: square"/>
   </g>
   <g id="patch_5">
    <path d="M 105.740625 501.3525 
L 775.340625 501.3525 
" style="fill: none; stroke: #000000; stroke-width: 0.8; stroke-linejoin: miter; stroke-linecap: square"/>
   </g>
   <g id="patch_6">
    <path d="M 105.740625 57.8325 
L 775.340625 57.8325 
" style="fill: none; stroke: #000000; stroke-width: 0.8; stroke-linejoin: miter; stroke-linecap: square"/>
   </g>
   <g id="text_15">
    <!-- Light vs Time -->
    <g transform="translate(378.058125 51.8325) scale(0.24 -0.24)">
     <defs>
      <path id="AptosDisplay-76" d="M 1103 0 
L -13 3044 
L 538 3044 
L 1391 513 
L 2250 3044 
L 2781 3044 
L 1678 0 
L 1103 0 
z
" transform="scale(0.015625)"/>
      <path id="AptosDisplay-73" d="M 1506 -41 
Q 1247 -41 1017 14 
Q 788 69 613 191 
Q 438 313 339 506 
Q 241 700 241 978 
L 744 978 
Q 744 628 966 487 
Q 1188 347 1519 347 
Q 1816 347 2008 458 
Q 2200 569 2200 822 
Q 2200 1047 2026 1153 
Q 1853 1259 1413 1369 
Q 1056 1453 815 1564 
Q 575 1675 453 1845 
Q 331 2016 331 2275 
Q 331 2475 417 2626 
Q 503 2778 658 2879 
Q 813 2981 1020 3032 
Q 1228 3084 1472 3084 
Q 1713 3084 1923 3028 
Q 2134 2972 2296 2855 
Q 2459 2738 2551 2552 
Q 2644 2366 2644 2109 
L 2138 2109 
Q 2138 2425 1945 2558 
Q 1753 2691 1472 2691 
Q 1191 2691 1016 2594 
Q 841 2497 841 2291 
Q 841 2169 919 2084 
Q 997 2000 1181 1933 
Q 1366 1866 1675 1791 
Q 2019 1709 2248 1596 
Q 2478 1484 2595 1306 
Q 2713 1128 2713 847 
Q 2713 616 2622 447 
Q 2531 278 2367 170 
Q 2203 63 1983 11 
Q 1763 -41 1506 -41 
z
" transform="scale(0.015625)"/>
     </defs>
     <use xlink:href="#AptosDisplay-4c"/>
     <use xlink:href="#AptosDisplay-69" x="48.4375"/>
     <use xlink:href="#AptosDisplay-67" x="69.482422"/>
     <use xlink:href="#AptosDisplay-68" x="113.427734"/>
     <use xlink:href="#AptosDisplay-74" x="164.013672"/>
     <use xlink:href="#AptosDisplay-20" x="194.384766"/>
     <use xlink:href="#AptosDisplay-76" x="213.671875"/>
     <use xlink:href="#AptosDisplay-73" x="256.933594"/>
     <use xlink:href="#AptosDisplay-20" x="303.222656"/>
     <use xlink:href="#AptosDisplay-54" x="322.509766"/>
     <use xlink:href="#AptosDisplay-69" x="370.214844"/>
     <use xlink:href="#AptosDisplay-6d" x="391.259766"/>
     <use xlink:href="#AptosDisplay-65" x="471.240234"/>
    </g>
   </g>
  </g>
 </g>
 <defs>
  <clipPath id="p06ed3cb980">
   <rect x="105.740625" y="57.8325" width="669.6" height="443.52"/>
  </clipPath>
 </defs>
</svg>
