<?xml version="1.0" encoding="utf-8" standalone="no"?>
<!DOCTYPE svg PUBLIC "-//W3C//DTD SVG 1.1//EN"
  "http://www.w3.org/Graphics/SVG/1.1/DTD/svg11.dtd">
<svg xmlns:xlink="http://www.w3.org/1999/xlink" width="811.340625pt" height="581.830625pt" viewBox="0 0 811.340625 581.830625" xmlns="http://www.w3.org/2000/svg" version="1.1">
 <metadata>
  <rdf:RDF xmlns:dc="http://purl.org/dc/elements/1.1/" xmlns:cc="http://creativecommons.org/ns#" xmlns:rdf="http://www.w3.org/1999/02/22-rdf-syntax-ns#">
   <cc:Work>
    <dc:type rdf:resource="http://purl.org/dc/dcmitype/StillImage"/>
    <dc:date>2025-03-23T22:45:15.564706</dc:date>
    <dc:format>image/svg+xml</dc:format>
    <dc:creator>
     <cc:Agent>
      <dc:title>Matplotlib v3.8.2, https://matplotlib.org/</dc:title>
     </cc:Agent>
    </dc:creator>
   </cc:Work>
  </rdf:RDF>
 </metadata>
 <defs>
  <style type="text/css">*{stroke-linejoin: round; stroke-linecap: butt}</style>
 </defs>
 <g id="figure_1">
  <g id="patch_1">
   <path d="M 0 581.830625 
L 811.340625 581.830625 
L 811.340625 0 
L 0 0 
z
" style="fill: #ffffff"/>
  </g>
  <g id="axes_1">
   <g id="patch_2">
    <path d="M 105.740625 501.3525 
L 775.340625 501.3525 
L 775.340625 57.8325 
L 105.740625 57.8325 
z
" style="fill: #ffffff"/>
   </g>
   <g id="matplotlib.axis_1">
    <g id="xtick_1">
     <g id="line2d_1">
      <path d="M 135.655885 501.3525 
L 135.655885 57.8325 
" clip-path="url(#pb0e3e2b916)" style="fill: none; stroke: #b0b0b0; stroke-opacity: 0.8; stroke-linecap: square"/>
     </g>
     <g id="line2d_2">
      <defs>
       <path id="m3382603f3c" d="M 0 0 
L 0 3.5 
" style="stroke: #000000; stroke-width: 0.8"/>
      </defs>
      <g>
       <use xlink:href="#m3382603f3c" x="135.655885" y="501.3525" style="stroke: #000000; stroke-width: 0.8"/>
      </g>
     </g>
     <g id="text_1">
      <!-- 0 -->
      <g transform="translate(130.426198 521.49625) scale(0.2 -0.2)">
       <defs>
        <path id="AptosDisplay-30" d="M 1672 -56 
Q 1291 -56 1028 105 
Q 766 266 605 552 
Q 444 838 372 1216 
Q 300 1594 300 2031 
Q 300 2475 372 2856 
Q 444 3238 605 3525 
Q 766 3813 1028 3973 
Q 1291 4134 1672 4134 
Q 2053 4134 2317 3975 
Q 2581 3816 2742 3527 
Q 2903 3238 2975 2858 
Q 3047 2478 3047 2038 
Q 3047 1597 2975 1217 
Q 2903 838 2742 552 
Q 2581 266 2318 105 
Q 2056 -56 1672 -56 
z
M 1672 409 
Q 1916 409 2073 550 
Q 2231 691 2322 925 
Q 2413 1159 2448 1448 
Q 2484 1738 2484 2038 
Q 2484 2338 2448 2628 
Q 2413 2919 2322 3153 
Q 2231 3388 2073 3527 
Q 1916 3666 1669 3666 
Q 1428 3666 1268 3527 
Q 1109 3388 1020 3153 
Q 931 2919 893 2628 
Q 856 2338 856 2038 
Q 856 1741 893 1450 
Q 931 1159 1020 925 
Q 1109 691 1268 550 
Q 1428 409 1672 409 
z
" transform="scale(0.015625)"/>
       </defs>
       <use xlink:href="#AptosDisplay-30"/>
      </g>
     </g>
    </g>
    <g id="xtick_2">
     <g id="line2d_3">
      <path d="M 227.886591 501.3525 
L 227.886591 57.8325 
" clip-path="url(#pb0e3e2b916)" style="fill: none; stroke: #b0b0b0; stroke-opacity: 0.8; stroke-linecap: square"/>
     </g>
     <g id="line2d_4">
      <g>
       <use xlink:href="#m3382603f3c" x="227.886591" y="501.3525" style="stroke: #000000; stroke-width: 0.8"/>
      </g>
     </g>
     <g id="text_2">
      <!-- 20 -->
      <g transform="translate(217.427216 521.49625) scale(0.2 -0.2)">
       <defs>
        <path id="AptosDisplay-32" d="M 247 0 
L 247 413 
L 1725 1741 
Q 2100 2081 2269 2351 
Q 2438 2622 2438 2938 
Q 2438 3256 2263 3461 
Q 2088 3666 1691 3666 
Q 1247 3666 1055 3439 
Q 863 3213 863 2869 
L 341 2869 
Q 341 3250 491 3534 
Q 641 3819 941 3975 
Q 1241 4131 1691 4131 
Q 2103 4131 2390 3986 
Q 2678 3841 2828 3578 
Q 2978 3316 2978 2959 
Q 2978 2638 2853 2375 
Q 2728 2113 2517 1883 
Q 2306 1653 2044 1425 
L 959 463 
L 3097 463 
L 3097 0 
L 247 0 
z
" transform="scale(0.015625)"/>
       </defs>
       <use xlink:href="#AptosDisplay-32"/>
       <use xlink:href="#AptosDisplay-30" x="52.294922"/>
      </g>
     </g>
    </g>
    <g id="xtick_3">
     <g id="line2d_5">
      <path d="M 320.117298 501.3525 
L 320.117298 57.8325 
" clip-path="url(#pb0e3e2b916)" style="fill: none; stroke: #b0b0b0; stroke-opacity: 0.8; stroke-linecap: square"/>
     </g>
     <g id="line2d_6">
      <g>
       <use xlink:href="#m3382603f3c" x="320.117298" y="501.3525" style="stroke: #000000; stroke-width: 0.8"/>
      </g>
     </g>
     <g id="text_3">
      <!-- 40 -->
      <g transform="translate(309.657923 521.49625) scale(0.2 -0.2)">
       <defs>
        <path id="AptosDisplay-34" d="M 2106 0 
L 2106 825 
L 125 825 
L 125 1297 
L 2100 4103 
L 2631 4103 
L 2631 1284 
L 3191 1284 
L 3191 825 
L 2631 825 
L 2631 0 
L 2106 0 
z
M 638 1284 
L 2113 1284 
L 2113 3369 
L 638 1284 
z
" transform="scale(0.015625)"/>
       </defs>
       <use xlink:href="#AptosDisplay-34"/>
       <use xlink:href="#AptosDisplay-30" x="52.294922"/>
      </g>
     </g>
    </g>
    <g id="xtick_4">
     <g id="line2d_7">
      <path d="M 412.348004 501.3525 
L 412.348004 57.8325 
" clip-path="url(#pb0e3e2b916)" style="fill: none; stroke: #b0b0b0; stroke-opacity: 0.8; stroke-linecap: square"/>
     </g>
     <g id="line2d_8">
      <g>
       <use xlink:href="#m3382603f3c" x="412.348004" y="501.3525" style="stroke: #000000; stroke-width: 0.8"/>
      </g>
     </g>
     <g id="text_4">
      <!-- 60 -->
      <g transform="translate(401.888629 521.49625) scale(0.2 -0.2)">
       <defs>
        <path id="AptosDisplay-36" d="M 1759 -56 
Q 1325 -56 984 151 
Q 644 359 447 815 
Q 250 1272 250 2013 
Q 250 2738 439 3206 
Q 628 3675 968 3903 
Q 1309 4131 1759 4131 
Q 2253 4131 2595 3875 
Q 2938 3619 3034 3097 
L 2503 3097 
Q 2441 3388 2250 3534 
Q 2059 3681 1759 3681 
Q 1306 3681 1047 3279 
Q 788 2878 788 2013 
L 788 1850 
Q 788 1313 922 992 
Q 1056 672 1279 531 
Q 1503 391 1763 391 
Q 2175 391 2369 644 
Q 2563 897 2563 1272 
Q 2563 1650 2373 1869 
Q 2184 2088 1838 2088 
Q 1422 2088 1114 1897 
Q 806 1706 644 1456 
L 597 1856 
Q 728 2047 922 2201 
Q 1116 2356 1362 2447 
Q 1609 2538 1909 2538 
Q 2253 2538 2523 2395 
Q 2794 2253 2951 1975 
Q 3109 1697 3109 1291 
Q 3109 897 2951 592 
Q 2794 288 2492 116 
Q 2191 -56 1759 -56 
z
" transform="scale(0.015625)"/>
       </defs>
       <use xlink:href="#AptosDisplay-36"/>
       <use xlink:href="#AptosDisplay-30" x="52.294922"/>
      </g>
     </g>
    </g>
    <g id="xtick_5">
     <g id="line2d_9">
      <path d="M 504.57871 501.3525 
L 504.57871 57.8325 
" clip-path="url(#pb0e3e2b916)" style="fill: none; stroke: #b0b0b0; stroke-opacity: 0.8; stroke-linecap: square"/>
     </g>
     <g id="line2d_10">
      <g>
       <use xlink:href="#m3382603f3c" x="504.57871" y="501.3525" style="stroke: #000000; stroke-width: 0.8"/>
      </g>
     </g>
     <g id="text_5">
      <!-- 80 -->
      <g transform="translate(494.119335 521.49625) scale(0.2 -0.2)">
       <defs>
        <path id="AptosDisplay-38" d="M 1675 -56 
Q 1391 -56 1137 16 
Q 884 88 686 234 
Q 488 381 373 606 
Q 259 831 259 1141 
Q 259 1531 495 1797 
Q 731 2063 1084 2150 
Q 781 2250 604 2490 
Q 428 2731 428 3081 
Q 428 3447 609 3681 
Q 791 3916 1075 4025 
Q 1359 4134 1669 4134 
Q 1981 4134 2265 4023 
Q 2550 3913 2733 3680 
Q 2916 3447 2916 3081 
Q 2916 2725 2716 2481 
Q 2516 2238 2238 2150 
Q 2606 2063 2843 1800 
Q 3081 1538 3081 1141 
Q 3081 831 2968 606 
Q 2856 381 2661 234 
Q 2466 88 2211 16 
Q 1956 -56 1675 -56 
z
M 1672 388 
Q 1909 388 2109 470 
Q 2309 553 2429 725 
Q 2550 897 2550 1163 
Q 2550 1416 2426 1587 
Q 2303 1759 2104 1846 
Q 1906 1934 1672 1928 
Q 1453 1934 1253 1850 
Q 1053 1766 926 1594 
Q 800 1422 800 1163 
Q 800 775 1058 581 
Q 1316 388 1672 388 
z
M 1672 2363 
Q 1863 2356 2030 2434 
Q 2197 2513 2300 2667 
Q 2403 2822 2403 3050 
Q 2403 3388 2189 3544 
Q 1975 3700 1675 3700 
Q 1484 3700 1317 3631 
Q 1150 3563 1047 3419 
Q 944 3275 944 3050 
Q 944 2825 1048 2670 
Q 1153 2516 1320 2436 
Q 1488 2356 1672 2363 
z
" transform="scale(0.015625)"/>
       </defs>
       <use xlink:href="#AptosDisplay-38"/>
       <use xlink:href="#AptosDisplay-30" x="52.294922"/>
      </g>
     </g>
    </g>
    <g id="xtick_6">
     <g id="line2d_11">
      <path d="M 596.809416 501.3525 
L 596.809416 57.8325 
" clip-path="url(#pb0e3e2b916)" style="fill: none; stroke: #b0b0b0; stroke-opacity: 0.8; stroke-linecap: square"/>
     </g>
     <g id="line2d_12">
      <g>
       <use xlink:href="#m3382603f3c" x="596.809416" y="501.3525" style="stroke: #000000; stroke-width: 0.8"/>
      </g>
     </g>
     <g id="text_6">
      <!-- 100 -->
      <g transform="translate(581.120354 521.49625) scale(0.2 -0.2)">
       <defs>
        <path id="AptosDisplay-31" d="M 1659 0 
L 1659 3425 
Q 1575 3309 1420 3201 
Q 1266 3094 1052 3009 
Q 838 2925 578 2888 
L 578 3381 
Q 834 3425 1057 3540 
Q 1281 3656 1453 3806 
Q 1625 3956 1719 4094 
L 2206 4094 
L 2206 0 
L 1659 0 
z
" transform="scale(0.015625)"/>
       </defs>
       <use xlink:href="#AptosDisplay-31"/>
       <use xlink:href="#AptosDisplay-30" x="52.294922"/>
       <use xlink:href="#AptosDisplay-30" x="104.589844"/>
      </g>
     </g>
    </g>
    <g id="xtick_7">
     <g id="line2d_13">
      <path d="M 689.040123 501.3525 
L 689.040123 57.8325 
" clip-path="url(#pb0e3e2b916)" style="fill: none; stroke: #b0b0b0; stroke-opacity: 0.8; stroke-linecap: square"/>
     </g>
     <g id="line2d_14">
      <g>
       <use xlink:href="#m3382603f3c" x="689.040123" y="501.3525" style="stroke: #000000; stroke-width: 0.8"/>
      </g>
     </g>
     <g id="text_7">
      <!-- 120 -->
      <g transform="translate(673.35106 521.49625) scale(0.2 -0.2)">
       <use xlink:href="#AptosDisplay-31"/>
       <use xlink:href="#AptosDisplay-32" x="52.294922"/>
       <use xlink:href="#AptosDisplay-30" x="104.589844"/>
      </g>
     </g>
    </g>
    <g id="xtick_8">
     <g id="line2d_15">
      <path d="M 112.598209 501.3525 
L 112.598209 57.8325 
" clip-path="url(#pb0e3e2b916)" style="fill: none; stroke-dasharray: 1.85,0.8; stroke-dashoffset: 0; stroke: #b0b0b0; stroke-opacity: 0.8; stroke-width: 0.5"/>
     </g>
     <g id="line2d_16">
      <defs>
       <path id="mfa6b1e0f0a" d="M 0 0 
L 0 2 
" style="stroke: #000000; stroke-width: 0.6"/>
      </defs>
      <g>
       <use xlink:href="#mfa6b1e0f0a" x="112.598209" y="501.3525" style="stroke: #000000; stroke-width: 0.6"/>
      </g>
     </g>
    </g>
    <g id="xtick_9">
     <g id="line2d_17">
      <path d="M 158.713562 501.3525 
L 158.713562 57.8325 
" clip-path="url(#pb0e3e2b916)" style="fill: none; stroke-dasharray: 1.85,0.8; stroke-dashoffset: 0; stroke: #b0b0b0; stroke-opacity: 0.8; stroke-width: 0.5"/>
     </g>
     <g id="line2d_18">
      <g>
       <use xlink:href="#mfa6b1e0f0a" x="158.713562" y="501.3525" style="stroke: #000000; stroke-width: 0.6"/>
      </g>
     </g>
    </g>
    <g id="xtick_10">
     <g id="line2d_19">
      <path d="M 181.771238 501.3525 
L 181.771238 57.8325 
" clip-path="url(#pb0e3e2b916)" style="fill: none; stroke-dasharray: 1.85,0.8; stroke-dashoffset: 0; stroke: #b0b0b0; stroke-opacity: 0.8; stroke-width: 0.5"/>
     </g>
     <g id="line2d_20">
      <g>
       <use xlink:href="#mfa6b1e0f0a" x="181.771238" y="501.3525" style="stroke: #000000; stroke-width: 0.6"/>
      </g>
     </g>
    </g>
    <g id="xtick_11">
     <g id="line2d_21">
      <path d="M 204.828915 501.3525 
L 204.828915 57.8325 
" clip-path="url(#pb0e3e2b916)" style="fill: none; stroke-dasharray: 1.85,0.8; stroke-dashoffset: 0; stroke: #b0b0b0; stroke-opacity: 0.8; stroke-width: 0.5"/>
     </g>
     <g id="line2d_22">
      <g>
       <use xlink:href="#mfa6b1e0f0a" x="204.828915" y="501.3525" style="stroke: #000000; stroke-width: 0.6"/>
      </g>
     </g>
    </g>
    <g id="xtick_12">
     <g id="line2d_23">
      <path d="M 250.944268 501.3525 
L 250.944268 57.8325 
" clip-path="url(#pb0e3e2b916)" style="fill: none; stroke-dasharray: 1.85,0.8; stroke-dashoffset: 0; stroke: #b0b0b0; stroke-opacity: 0.8; stroke-width: 0.5"/>
     </g>
     <g id="line2d_24">
      <g>
       <use xlink:href="#mfa6b1e0f0a" x="250.944268" y="501.3525" style="stroke: #000000; stroke-width: 0.6"/>
      </g>
     </g>
    </g>
    <g id="xtick_13">
     <g id="line2d_25">
      <path d="M 274.001945 501.3525 
L 274.001945 57.8325 
" clip-path="url(#pb0e3e2b916)" style="fill: none; stroke-dasharray: 1.85,0.8; stroke-dashoffset: 0; stroke: #b0b0b0; stroke-opacity: 0.8; stroke-width: 0.5"/>
     </g>
     <g id="line2d_26">
      <g>
       <use xlink:href="#mfa6b1e0f0a" x="274.001945" y="501.3525" style="stroke: #000000; stroke-width: 0.6"/>
      </g>
     </g>
    </g>
    <g id="xtick_14">
     <g id="line2d_27">
      <path d="M 297.059621 501.3525 
L 297.059621 57.8325 
" clip-path="url(#pb0e3e2b916)" style="fill: none; stroke-dasharray: 1.85,0.8; stroke-dashoffset: 0; stroke: #b0b0b0; stroke-opacity: 0.8; stroke-width: 0.5"/>
     </g>
     <g id="line2d_28">
      <g>
       <use xlink:href="#mfa6b1e0f0a" x="297.059621" y="501.3525" style="stroke: #000000; stroke-width: 0.6"/>
      </g>
     </g>
    </g>
    <g id="xtick_15">
     <g id="line2d_29">
      <path d="M 343.174974 501.3525 
L 343.174974 57.8325 
" clip-path="url(#pb0e3e2b916)" style="fill: none; stroke-dasharray: 1.85,0.8; stroke-dashoffset: 0; stroke: #b0b0b0; stroke-opacity: 0.8; stroke-width: 0.5"/>
     </g>
     <g id="line2d_30">
      <g>
       <use xlink:href="#mfa6b1e0f0a" x="343.174974" y="501.3525" style="stroke: #000000; stroke-width: 0.6"/>
      </g>
     </g>
    </g>
    <g id="xtick_16">
     <g id="line2d_31">
      <path d="M 366.232651 501.3525 
L 366.232651 57.8325 
" clip-path="url(#pb0e3e2b916)" style="fill: none; stroke-dasharray: 1.85,0.8; stroke-dashoffset: 0; stroke: #b0b0b0; stroke-opacity: 0.8; stroke-width: 0.5"/>
     </g>
     <g id="line2d_32">
      <g>
       <use xlink:href="#mfa6b1e0f0a" x="366.232651" y="501.3525" style="stroke: #000000; stroke-width: 0.6"/>
      </g>
     </g>
    </g>
    <g id="xtick_17">
     <g id="line2d_33">
      <path d="M 389.290327 501.3525 
L 389.290327 57.8325 
" clip-path="url(#pb0e3e2b916)" style="fill: none; stroke-dasharray: 1.85,0.8; stroke-dashoffset: 0; stroke: #b0b0b0; stroke-opacity: 0.8; stroke-width: 0.5"/>
     </g>
     <g id="line2d_34">
      <g>
       <use xlink:href="#mfa6b1e0f0a" x="389.290327" y="501.3525" style="stroke: #000000; stroke-width: 0.6"/>
      </g>
     </g>
    </g>
    <g id="xtick_18">
     <g id="line2d_35">
      <path d="M 435.40568 501.3525 
L 435.40568 57.8325 
" clip-path="url(#pb0e3e2b916)" style="fill: none; stroke-dasharray: 1.85,0.8; stroke-dashoffset: 0; stroke: #b0b0b0; stroke-opacity: 0.8; stroke-width: 0.5"/>
     </g>
     <g id="line2d_36">
      <g>
       <use xlink:href="#mfa6b1e0f0a" x="435.40568" y="501.3525" style="stroke: #000000; stroke-width: 0.6"/>
      </g>
     </g>
    </g>
    <g id="xtick_19">
     <g id="line2d_37">
      <path d="M 458.463357 501.3525 
L 458.463357 57.8325 
" clip-path="url(#pb0e3e2b916)" style="fill: none; stroke-dasharray: 1.85,0.8; stroke-dashoffset: 0; stroke: #b0b0b0; stroke-opacity: 0.8; stroke-width: 0.5"/>
     </g>
     <g id="line2d_38">
      <g>
       <use xlink:href="#mfa6b1e0f0a" x="458.463357" y="501.3525" style="stroke: #000000; stroke-width: 0.6"/>
      </g>
     </g>
    </g>
    <g id="xtick_20">
     <g id="line2d_39">
      <path d="M 481.521034 501.3525 
L 481.521034 57.8325 
" clip-path="url(#pb0e3e2b916)" style="fill: none; stroke-dasharray: 1.85,0.8; stroke-dashoffset: 0; stroke: #b0b0b0; stroke-opacity: 0.8; stroke-width: 0.5"/>
     </g>
     <g id="line2d_40">
      <g>
       <use xlink:href="#mfa6b1e0f0a" x="481.521034" y="501.3525" style="stroke: #000000; stroke-width: 0.6"/>
      </g>
     </g>
    </g>
    <g id="xtick_21">
     <g id="line2d_41">
      <path d="M 527.636387 501.3525 
L 527.636387 57.8325 
" clip-path="url(#pb0e3e2b916)" style="fill: none; stroke-dasharray: 1.85,0.8; stroke-dashoffset: 0; stroke: #b0b0b0; stroke-opacity: 0.8; stroke-width: 0.5"/>
     </g>
     <g id="line2d_42">
      <g>
       <use xlink:href="#mfa6b1e0f0a" x="527.636387" y="501.3525" style="stroke: #000000; stroke-width: 0.6"/>
      </g>
     </g>
    </g>
    <g id="xtick_22">
     <g id="line2d_43">
      <path d="M 550.694063 501.3525 
L 550.694063 57.8325 
" clip-path="url(#pb0e3e2b916)" style="fill: none; stroke-dasharray: 1.85,0.8; stroke-dashoffset: 0; stroke: #b0b0b0; stroke-opacity: 0.8; stroke-width: 0.5"/>
     </g>
     <g id="line2d_44">
      <g>
       <use xlink:href="#mfa6b1e0f0a" x="550.694063" y="501.3525" style="stroke: #000000; stroke-width: 0.6"/>
      </g>
     </g>
    </g>
    <g id="xtick_23">
     <g id="line2d_45">
      <path d="M 573.75174 501.3525 
L 573.75174 57.8325 
" clip-path="url(#pb0e3e2b916)" style="fill: none; stroke-dasharray: 1.85,0.8; stroke-dashoffset: 0; stroke: #b0b0b0; stroke-opacity: 0.8; stroke-width: 0.5"/>
     </g>
     <g id="line2d_46">
      <g>
       <use xlink:href="#mfa6b1e0f0a" x="573.75174" y="501.3525" style="stroke: #000000; stroke-width: 0.6"/>
      </g>
     </g>
    </g>
    <g id="xtick_24">
     <g id="line2d_47">
      <path d="M 619.867093 501.3525 
L 619.867093 57.8325 
" clip-path="url(#pb0e3e2b916)" style="fill: none; stroke-dasharray: 1.85,0.8; stroke-dashoffset: 0; stroke: #b0b0b0; stroke-opacity: 0.8; stroke-width: 0.5"/>
     </g>
     <g id="line2d_48">
      <g>
       <use xlink:href="#mfa6b1e0f0a" x="619.867093" y="501.3525" style="stroke: #000000; stroke-width: 0.6"/>
      </g>
     </g>
    </g>
    <g id="xtick_25">
     <g id="line2d_49">
      <path d="M 642.924769 501.3525 
L 642.924769 57.8325 
" clip-path="url(#pb0e3e2b916)" style="fill: none; stroke-dasharray: 1.85,0.8; stroke-dashoffset: 0; stroke: #b0b0b0; stroke-opacity: 0.8; stroke-width: 0.5"/>
     </g>
     <g id="line2d_50">
      <g>
       <use xlink:href="#mfa6b1e0f0a" x="642.924769" y="501.3525" style="stroke: #000000; stroke-width: 0.6"/>
      </g>
     </g>
    </g>
    <g id="xtick_26">
     <g id="line2d_51">
      <path d="M 665.982446 501.3525 
L 665.982446 57.8325 
" clip-path="url(#pb0e3e2b916)" style="fill: none; stroke-dasharray: 1.85,0.8; stroke-dashoffset: 0; stroke: #b0b0b0; stroke-opacity: 0.8; stroke-width: 0.5"/>
     </g>
     <g id="line2d_52">
      <g>
       <use xlink:href="#mfa6b1e0f0a" x="665.982446" y="501.3525" style="stroke: #000000; stroke-width: 0.6"/>
      </g>
     </g>
    </g>
    <g id="xtick_27">
     <g id="line2d_53">
      <path d="M 712.097799 501.3525 
L 712.097799 57.8325 
" clip-path="url(#pb0e3e2b916)" style="fill: none; stroke-dasharray: 1.85,0.8; stroke-dashoffset: 0; stroke: #b0b0b0; stroke-opacity: 0.8; stroke-width: 0.5"/>
     </g>
     <g id="line2d_54">
      <g>
       <use xlink:href="#mfa6b1e0f0a" x="712.097799" y="501.3525" style="stroke: #000000; stroke-width: 0.6"/>
      </g>
     </g>
    </g>
    <g id="xtick_28">
     <g id="line2d_55">
      <path d="M 735.155476 501.3525 
L 735.155476 57.8325 
" clip-path="url(#pb0e3e2b916)" style="fill: none; stroke-dasharray: 1.85,0.8; stroke-dashoffset: 0; stroke: #b0b0b0; stroke-opacity: 0.8; stroke-width: 0.5"/>
     </g>
     <g id="line2d_56">
      <g>
       <use xlink:href="#mfa6b1e0f0a" x="735.155476" y="501.3525" style="stroke: #000000; stroke-width: 0.6"/>
      </g>
     </g>
    </g>
    <g id="xtick_29">
     <g id="line2d_57">
      <path d="M 758.213152 501.3525 
L 758.213152 57.8325 
" clip-path="url(#pb0e3e2b916)" style="fill: none; stroke-dasharray: 1.85,0.8; stroke-dashoffset: 0; stroke: #b0b0b0; stroke-opacity: 0.8; stroke-width: 0.5"/>
     </g>
     <g id="line2d_58">
      <g>
       <use xlink:href="#mfa6b1e0f0a" x="758.213152" y="501.3525" style="stroke: #000000; stroke-width: 0.6"/>
      </g>
     </g>
    </g>
    <g id="text_8">
     <!-- Time (S) -->
     <g transform="translate(407.45 542.305625) scale(0.2 -0.2)">
      <defs>
       <path id="AptosDisplay-54" d="M 1244 0 
L 1244 3734 
L 50 3734 
L 50 4206 
L 2997 4206 
L 2997 3734 
L 1806 3734 
L 1806 0 
L 1244 0 
z
" transform="scale(0.015625)"/>
       <path id="AptosDisplay-69" d="M 413 0 
L 413 3044 
L 934 3044 
L 934 0 
L 413 0 
z
M 675 3616 
Q 525 3616 437 3702 
Q 350 3788 350 3919 
Q 350 4050 437 4136 
Q 525 4222 675 4222 
Q 822 4222 912 4136 
Q 1003 4050 1003 3919 
Q 1003 3788 912 3702 
Q 822 3616 675 3616 
z
" transform="scale(0.015625)"/>
       <path id="AptosDisplay-6d" d="M 413 0 
L 413 3044 
L 919 3044 
L 931 2575 
Q 1063 2756 1303 2914 
Q 1544 3072 1903 3072 
Q 2403 3072 2618 2778 
Q 2834 2484 2834 1963 
L 2834 0 
L 2316 0 
L 2316 1891 
Q 2316 2106 2275 2275 
Q 2234 2444 2120 2539 
Q 2006 2634 1788 2634 
Q 1488 2634 1277 2482 
Q 1066 2331 934 2156 
L 934 0 
L 413 0 
z
M 4206 0 
L 4206 1891 
Q 4206 2106 4164 2275 
Q 4122 2444 4009 2539 
Q 3897 2634 3681 2634 
Q 3381 2634 3165 2484 
Q 2950 2334 2822 2159 
L 2744 2544 
Q 2916 2741 3175 2906 
Q 3434 3072 3800 3072 
Q 4291 3072 4509 2778 
Q 4728 2484 4728 1963 
L 4728 0 
L 4206 0 
z
" transform="scale(0.015625)"/>
       <path id="AptosDisplay-65" d="M 1663 -56 
Q 1188 -56 878 151 
Q 569 359 417 717 
Q 266 1075 266 1522 
Q 266 1988 412 2342 
Q 559 2697 857 2897 
Q 1156 3097 1606 3097 
Q 2209 3097 2550 2722 
Q 2891 2347 2891 1644 
Q 2891 1597 2889 1533 
Q 2888 1469 2881 1441 
L 791 1441 
Q 794 1144 881 895 
Q 969 647 1161 497 
Q 1353 347 1663 347 
Q 1997 347 2183 511 
Q 2369 675 2378 984 
L 2894 984 
Q 2884 663 2732 430 
Q 2581 197 2309 70 
Q 2038 -56 1663 -56 
z
M 794 1822 
L 2375 1822 
Q 2366 2247 2166 2472 
Q 1966 2697 1606 2697 
Q 1241 2697 1036 2473 
Q 831 2250 794 1822 
z
" transform="scale(0.015625)"/>
       <path id="AptosDisplay-20" transform="scale(0.015625)"/>
       <path id="AptosDisplay-28" d="M 1219 -1116 
Q 969 -678 787 -267 
Q 606 144 511 581 
Q 416 1019 416 1528 
Q 416 2028 509 2486 
Q 603 2944 783 3378 
Q 963 3813 1219 4231 
L 1647 4231 
Q 1278 3600 1101 2886 
Q 925 2172 925 1428 
Q 925 766 1125 103 
Q 1325 -559 1647 -1116 
L 1219 -1116 
z
" transform="scale(0.015625)"/>
       <path id="AptosDisplay-53" d="M 1778 -56 
Q 1328 -56 962 81 
Q 597 219 384 512 
Q 172 806 172 1275 
L 734 1275 
Q 738 941 883 750 
Q 1028 559 1267 481 
Q 1506 403 1794 403 
Q 2063 403 2283 483 
Q 2503 563 2634 723 
Q 2766 884 2766 1134 
Q 2766 1356 2662 1497 
Q 2559 1638 2321 1742 
Q 2084 1847 1678 1950 
Q 1203 2075 897 2223 
Q 591 2372 442 2594 
Q 294 2816 294 3156 
Q 294 3516 462 3761 
Q 631 4006 945 4134 
Q 1259 4263 1697 4263 
Q 2103 4263 2440 4131 
Q 2778 4000 2979 3737 
Q 3181 3475 3181 3084 
L 2616 3084 
Q 2622 3441 2356 3623 
Q 2091 3806 1700 3806 
Q 1300 3806 1073 3645 
Q 847 3484 847 3175 
Q 847 2991 944 2867 
Q 1041 2744 1280 2644 
Q 1519 2544 1941 2434 
Q 2428 2303 2731 2153 
Q 3034 2003 3178 1768 
Q 3322 1534 3322 1153 
Q 3322 747 3117 480 
Q 2913 213 2564 78 
Q 2216 -56 1778 -56 
z
" transform="scale(0.015625)"/>
       <path id="AptosDisplay-29" d="M 234 -1116 
Q 609 -481 786 233 
Q 963 947 963 1694 
Q 963 2356 759 3015 
Q 556 3675 234 4231 
L 663 4231 
Q 919 3800 1098 3389 
Q 1278 2978 1373 2540 
Q 1469 2103 1469 1594 
Q 1469 1094 1375 634 
Q 1281 175 1100 -259 
Q 919 -694 663 -1116 
L 234 -1116 
z
" transform="scale(0.015625)"/>
      </defs>
      <use xlink:href="#AptosDisplay-54"/>
      <use xlink:href="#AptosDisplay-69" x="47.705078"/>
      <use xlink:href="#AptosDisplay-6d" x="68.75"/>
      <use xlink:href="#AptosDisplay-65" x="148.730469"/>
      <use xlink:href="#AptosDisplay-20" x="198.144531"/>
      <use xlink:href="#AptosDisplay-28" x="217.431641"/>
      <use xlink:href="#AptosDisplay-53" x="246.875"/>
      <use xlink:href="#AptosDisplay-29" x="301.464844"/>
     </g>
    </g>
   </g>
   <g id="matplotlib.axis_2">
    <g id="ytick_1">
     <g id="line2d_59">
      <path d="M 105.740625 498.251592 
L 775.340625 498.251592 
" clip-path="url(#pb0e3e2b916)" style="fill: none; stroke: #b0b0b0; stroke-opacity: 0.8; stroke-linecap: square"/>
     </g>
     <g id="line2d_60">
      <defs>
       <path id="m7aa58308f0" d="M 0 0 
L -3.5 0 
" style="stroke: #000000; stroke-width: 0.8"/>
      </defs>
      <g>
       <use xlink:href="#m7aa58308f0" x="105.740625" y="498.251592" style="stroke: #000000; stroke-width: 0.8"/>
      </g>
     </g>
     <g id="text_9">
      <!-- 940 -->
      <g transform="translate(67.3625 504.823467) scale(0.2 -0.2)">
       <defs>
        <path id="AptosDisplay-39" d="M 1547 -56 
Q 1200 -56 926 64 
Q 653 184 481 415 
Q 309 647 256 978 
L 788 978 
Q 834 713 1029 552 
Q 1225 391 1547 391 
Q 2022 391 2294 778 
Q 2566 1166 2566 2019 
L 2566 2197 
Q 2566 2753 2439 3079 
Q 2313 3406 2102 3547 
Q 1891 3688 1634 3688 
Q 1206 3688 998 3433 
Q 791 3178 791 2800 
Q 791 2422 991 2203 
Q 1191 1984 1547 1984 
Q 1831 1984 2045 2071 
Q 2259 2159 2417 2300 
Q 2575 2441 2681 2594 
L 2731 2209 
Q 2609 2038 2432 1884 
Q 2256 1731 2020 1634 
Q 1784 1538 1484 1538 
Q 1122 1538 842 1683 
Q 563 1828 405 2108 
Q 247 2388 247 2784 
Q 247 3175 414 3479 
Q 581 3784 892 3959 
Q 1203 4134 1631 4134 
Q 2056 4134 2389 3926 
Q 2722 3719 2914 3262 
Q 3106 2806 3106 2066 
Q 3106 1338 2912 869 
Q 2719 400 2369 172 
Q 2019 -56 1547 -56 
z
" transform="scale(0.015625)"/>
       </defs>
       <use xlink:href="#AptosDisplay-39"/>
       <use xlink:href="#AptosDisplay-34" x="52.294922"/>
       <use xlink:href="#AptosDisplay-30" x="104.589844"/>
      </g>
     </g>
    </g>
    <g id="ytick_2">
     <g id="line2d_61">
      <path d="M 105.740625 448.545612 
L 775.340625 448.545612 
" clip-path="url(#pb0e3e2b916)" style="fill: none; stroke: #b0b0b0; stroke-opacity: 0.8; stroke-linecap: square"/>
     </g>
     <g id="line2d_62">
      <g>
       <use xlink:href="#m7aa58308f0" x="105.740625" y="448.545612" style="stroke: #000000; stroke-width: 0.8"/>
      </g>
     </g>
     <g id="text_10">
      <!-- 950 -->
      <g transform="translate(67.3625 455.117487) scale(0.2 -0.2)">
       <defs>
        <path id="AptosDisplay-35" d="M 1669 -56 
Q 1278 -56 964 83 
Q 650 222 465 483 
Q 281 744 281 1113 
L 816 1113 
Q 816 778 1055 584 
Q 1294 391 1669 391 
Q 2069 391 2291 625 
Q 2513 859 2513 1319 
Q 2513 1772 2291 1989 
Q 2069 2206 1697 2206 
Q 1409 2206 1223 2123 
Q 1038 2041 916 1894 
L 444 1894 
L 622 4078 
L 2788 4078 
L 2788 3613 
L 1041 3613 
L 931 2322 
Q 1044 2453 1251 2550 
Q 1459 2647 1775 2647 
Q 2131 2647 2420 2506 
Q 2709 2366 2881 2072 
Q 3053 1778 3053 1319 
Q 3053 863 2875 558 
Q 2697 253 2384 98 
Q 2072 -56 1669 -56 
z
" transform="scale(0.015625)"/>
       </defs>
       <use xlink:href="#AptosDisplay-39"/>
       <use xlink:href="#AptosDisplay-35" x="52.294922"/>
       <use xlink:href="#AptosDisplay-30" x="104.589844"/>
      </g>
     </g>
    </g>
    <g id="ytick_3">
     <g id="line2d_63">
      <path d="M 105.740625 398.839632 
L 775.340625 398.839632 
" clip-path="url(#pb0e3e2b916)" style="fill: none; stroke: #b0b0b0; stroke-opacity: 0.8; stroke-linecap: square"/>
     </g>
     <g id="line2d_64">
      <g>
       <use xlink:href="#m7aa58308f0" x="105.740625" y="398.839632" style="stroke: #000000; stroke-width: 0.8"/>
      </g>
     </g>
     <g id="text_11">
      <!-- 960 -->
      <g transform="translate(67.3625 405.411507) scale(0.2 -0.2)">
       <use xlink:href="#AptosDisplay-39"/>
       <use xlink:href="#AptosDisplay-36" x="52.294922"/>
       <use xlink:href="#AptosDisplay-30" x="104.589844"/>
      </g>
     </g>
    </g>
    <g id="ytick_4">
     <g id="line2d_65">
      <path d="M 105.740625 349.133652 
L 775.340625 349.133652 
" clip-path="url(#pb0e3e2b916)" style="fill: none; stroke: #b0b0b0; stroke-opacity: 0.8; stroke-linecap: square"/>
     </g>
     <g id="line2d_66">
      <g>
       <use xlink:href="#m7aa58308f0" x="105.740625" y="349.133652" style="stroke: #000000; stroke-width: 0.8"/>
      </g>
     </g>
     <g id="text_12">
      <!-- 970 -->
      <g transform="translate(67.3625 355.705527) scale(0.2 -0.2)">
       <defs>
        <path id="AptosDisplay-37" d="M 766 0 
L 2609 3600 
L 194 3600 
L 194 4078 
L 3141 4078 
L 3141 3622 
L 1334 0 
L 766 0 
z
" transform="scale(0.015625)"/>
       </defs>
       <use xlink:href="#AptosDisplay-39"/>
       <use xlink:href="#AptosDisplay-37" x="52.294922"/>
       <use xlink:href="#AptosDisplay-30" x="104.589844"/>
      </g>
     </g>
    </g>
    <g id="ytick_5">
     <g id="line2d_67">
      <path d="M 105.740625 299.427671 
L 775.340625 299.427671 
" clip-path="url(#pb0e3e2b916)" style="fill: none; stroke: #b0b0b0; stroke-opacity: 0.8; stroke-linecap: square"/>
     </g>
     <g id="line2d_68">
      <g>
       <use xlink:href="#m7aa58308f0" x="105.740625" y="299.427671" style="stroke: #000000; stroke-width: 0.8"/>
      </g>
     </g>
     <g id="text_13">
      <!-- 980 -->
      <g transform="translate(67.3625 305.999546) scale(0.2 -0.2)">
       <use xlink:href="#AptosDisplay-39"/>
       <use xlink:href="#AptosDisplay-38" x="52.294922"/>
       <use xlink:href="#AptosDisplay-30" x="104.589844"/>
      </g>
     </g>
    </g>
    <g id="ytick_6">
     <g id="line2d_69">
      <path d="M 105.740625 249.721691 
L 775.340625 249.721691 
" clip-path="url(#pb0e3e2b916)" style="fill: none; stroke: #b0b0b0; stroke-opacity: 0.8; stroke-linecap: square"/>
     </g>
     <g id="line2d_70">
      <g>
       <use xlink:href="#m7aa58308f0" x="105.740625" y="249.721691" style="stroke: #000000; stroke-width: 0.8"/>
      </g>
     </g>
     <g id="text_14">
      <!-- 990 -->
      <g transform="translate(67.3625 256.293566) scale(0.2 -0.2)">
       <use xlink:href="#AptosDisplay-39"/>
       <use xlink:href="#AptosDisplay-39" x="52.294922"/>
       <use xlink:href="#AptosDisplay-30" x="104.589844"/>
      </g>
     </g>
    </g>
    <g id="ytick_7">
     <g id="line2d_71">
      <path d="M 105.740625 200.015711 
L 775.340625 200.015711 
" clip-path="url(#pb0e3e2b916)" style="fill: none; stroke: #b0b0b0; stroke-opacity: 0.8; stroke-linecap: square"/>
     </g>
     <g id="line2d_72">
      <g>
       <use xlink:href="#m7aa58308f0" x="105.740625" y="200.015711" style="stroke: #000000; stroke-width: 0.8"/>
      </g>
     </g>
     <g id="text_15">
      <!-- 1000 -->
      <g transform="translate(56.903125 206.587586) scale(0.2 -0.2)">
       <use xlink:href="#AptosDisplay-31"/>
       <use xlink:href="#AptosDisplay-30" x="52.294922"/>
       <use xlink:href="#AptosDisplay-30" x="104.589844"/>
       <use xlink:href="#AptosDisplay-30" x="156.884766"/>
      </g>
     </g>
    </g>
    <g id="ytick_8">
     <g id="line2d_73">
      <path d="M 105.740625 150.309731 
L 775.340625 150.309731 
" clip-path="url(#pb0e3e2b916)" style="fill: none; stroke: #b0b0b0; stroke-opacity: 0.8; stroke-linecap: square"/>
     </g>
     <g id="line2d_74">
      <g>
       <use xlink:href="#m7aa58308f0" x="105.740625" y="150.309731" style="stroke: #000000; stroke-width: 0.8"/>
      </g>
     </g>
     <g id="text_16">
      <!-- 1010 -->
      <g transform="translate(56.903125 156.881606) scale(0.2 -0.2)">
       <use xlink:href="#AptosDisplay-31"/>
       <use xlink:href="#AptosDisplay-30" x="52.294922"/>
       <use xlink:href="#AptosDisplay-31" x="104.589844"/>
       <use xlink:href="#AptosDisplay-30" x="156.884766"/>
      </g>
     </g>
    </g>
    <g id="ytick_9">
     <g id="line2d_75">
      <path d="M 105.740625 100.60375 
L 775.340625 100.60375 
" clip-path="url(#pb0e3e2b916)" style="fill: none; stroke: #b0b0b0; stroke-opacity: 0.8; stroke-linecap: square"/>
     </g>
     <g id="line2d_76">
      <g>
       <use xlink:href="#m7aa58308f0" x="105.740625" y="100.60375" style="stroke: #000000; stroke-width: 0.8"/>
      </g>
     </g>
     <g id="text_17">
      <!-- 1020 -->
      <g transform="translate(56.903125 107.175625) scale(0.2 -0.2)">
       <use xlink:href="#AptosDisplay-31"/>
       <use xlink:href="#AptosDisplay-30" x="52.294922"/>
       <use xlink:href="#AptosDisplay-32" x="104.589844"/>
       <use xlink:href="#AptosDisplay-30" x="156.884766"/>
      </g>
     </g>
    </g>
    <g id="ytick_10">
     <g id="line2d_77">
      <path d="M 105.740625 488.310396 
L 775.340625 488.310396 
" clip-path="url(#pb0e3e2b916)" style="fill: none; stroke-dasharray: 1.85,0.8; stroke-dashoffset: 0; stroke: #b0b0b0; stroke-opacity: 0.8; stroke-width: 0.5"/>
     </g>
     <g id="line2d_78">
      <defs>
       <path id="mdbe625ceb2" d="M 0 0 
L -2 0 
" style="stroke: #000000; stroke-width: 0.6"/>
      </defs>
      <g>
       <use xlink:href="#mdbe625ceb2" x="105.740625" y="488.310396" style="stroke: #000000; stroke-width: 0.6"/>
      </g>
     </g>
    </g>
    <g id="ytick_11">
     <g id="line2d_79">
      <path d="M 105.740625 478.3692 
L 775.340625 478.3692 
" clip-path="url(#pb0e3e2b916)" style="fill: none; stroke-dasharray: 1.85,0.8; stroke-dashoffset: 0; stroke: #b0b0b0; stroke-opacity: 0.8; stroke-width: 0.5"/>
     </g>
     <g id="line2d_80">
      <g>
       <use xlink:href="#mdbe625ceb2" x="105.740625" y="478.3692" style="stroke: #000000; stroke-width: 0.6"/>
      </g>
     </g>
    </g>
    <g id="ytick_12">
     <g id="line2d_81">
      <path d="M 105.740625 468.428004 
L 775.340625 468.428004 
" clip-path="url(#pb0e3e2b916)" style="fill: none; stroke-dasharray: 1.85,0.8; stroke-dashoffset: 0; stroke: #b0b0b0; stroke-opacity: 0.8; stroke-width: 0.5"/>
     </g>
     <g id="line2d_82">
      <g>
       <use xlink:href="#mdbe625ceb2" x="105.740625" y="468.428004" style="stroke: #000000; stroke-width: 0.6"/>
      </g>
     </g>
    </g>
    <g id="ytick_13">
     <g id="line2d_83">
      <path d="M 105.740625 458.486808 
L 775.340625 458.486808 
" clip-path="url(#pb0e3e2b916)" style="fill: none; stroke-dasharray: 1.85,0.8; stroke-dashoffset: 0; stroke: #b0b0b0; stroke-opacity: 0.8; stroke-width: 0.5"/>
     </g>
     <g id="line2d_84">
      <g>
       <use xlink:href="#mdbe625ceb2" x="105.740625" y="458.486808" style="stroke: #000000; stroke-width: 0.6"/>
      </g>
     </g>
    </g>
    <g id="ytick_14">
     <g id="line2d_85">
      <path d="M 105.740625 438.604416 
L 775.340625 438.604416 
" clip-path="url(#pb0e3e2b916)" style="fill: none; stroke-dasharray: 1.85,0.8; stroke-dashoffset: 0; stroke: #b0b0b0; stroke-opacity: 0.8; stroke-width: 0.5"/>
     </g>
     <g id="line2d_86">
      <g>
       <use xlink:href="#mdbe625ceb2" x="105.740625" y="438.604416" style="stroke: #000000; stroke-width: 0.6"/>
      </g>
     </g>
    </g>
    <g id="ytick_15">
     <g id="line2d_87">
      <path d="M 105.740625 428.66322 
L 775.340625 428.66322 
" clip-path="url(#pb0e3e2b916)" style="fill: none; stroke-dasharray: 1.85,0.8; stroke-dashoffset: 0; stroke: #b0b0b0; stroke-opacity: 0.8; stroke-width: 0.5"/>
     </g>
     <g id="line2d_88">
      <g>
       <use xlink:href="#mdbe625ceb2" x="105.740625" y="428.66322" style="stroke: #000000; stroke-width: 0.6"/>
      </g>
     </g>
    </g>
    <g id="ytick_16">
     <g id="line2d_89">
      <path d="M 105.740625 418.722024 
L 775.340625 418.722024 
" clip-path="url(#pb0e3e2b916)" style="fill: none; stroke-dasharray: 1.85,0.8; stroke-dashoffset: 0; stroke: #b0b0b0; stroke-opacity: 0.8; stroke-width: 0.5"/>
     </g>
     <g id="line2d_90">
      <g>
       <use xlink:href="#mdbe625ceb2" x="105.740625" y="418.722024" style="stroke: #000000; stroke-width: 0.6"/>
      </g>
     </g>
    </g>
    <g id="ytick_17">
     <g id="line2d_91">
      <path d="M 105.740625 408.780828 
L 775.340625 408.780828 
" clip-path="url(#pb0e3e2b916)" style="fill: none; stroke-dasharray: 1.85,0.8; stroke-dashoffset: 0; stroke: #b0b0b0; stroke-opacity: 0.8; stroke-width: 0.5"/>
     </g>
     <g id="line2d_92">
      <g>
       <use xlink:href="#mdbe625ceb2" x="105.740625" y="408.780828" style="stroke: #000000; stroke-width: 0.6"/>
      </g>
     </g>
    </g>
    <g id="ytick_18">
     <g id="line2d_93">
      <path d="M 105.740625 388.898436 
L 775.340625 388.898436 
" clip-path="url(#pb0e3e2b916)" style="fill: none; stroke-dasharray: 1.85,0.8; stroke-dashoffset: 0; stroke: #b0b0b0; stroke-opacity: 0.8; stroke-width: 0.5"/>
     </g>
     <g id="line2d_94">
      <g>
       <use xlink:href="#mdbe625ceb2" x="105.740625" y="388.898436" style="stroke: #000000; stroke-width: 0.6"/>
      </g>
     </g>
    </g>
    <g id="ytick_19">
     <g id="line2d_95">
      <path d="M 105.740625 378.95724 
L 775.340625 378.95724 
" clip-path="url(#pb0e3e2b916)" style="fill: none; stroke-dasharray: 1.85,0.8; stroke-dashoffset: 0; stroke: #b0b0b0; stroke-opacity: 0.8; stroke-width: 0.5"/>
     </g>
     <g id="line2d_96">
      <g>
       <use xlink:href="#mdbe625ceb2" x="105.740625" y="378.95724" style="stroke: #000000; stroke-width: 0.6"/>
      </g>
     </g>
    </g>
    <g id="ytick_20">
     <g id="line2d_97">
      <path d="M 105.740625 369.016044 
L 775.340625 369.016044 
" clip-path="url(#pb0e3e2b916)" style="fill: none; stroke-dasharray: 1.85,0.8; stroke-dashoffset: 0; stroke: #b0b0b0; stroke-opacity: 0.8; stroke-width: 0.5"/>
     </g>
     <g id="line2d_98">
      <g>
       <use xlink:href="#mdbe625ceb2" x="105.740625" y="369.016044" style="stroke: #000000; stroke-width: 0.6"/>
      </g>
     </g>
    </g>
    <g id="ytick_21">
     <g id="line2d_99">
      <path d="M 105.740625 359.074848 
L 775.340625 359.074848 
" clip-path="url(#pb0e3e2b916)" style="fill: none; stroke-dasharray: 1.85,0.8; stroke-dashoffset: 0; stroke: #b0b0b0; stroke-opacity: 0.8; stroke-width: 0.5"/>
     </g>
     <g id="line2d_100">
      <g>
       <use xlink:href="#mdbe625ceb2" x="105.740625" y="359.074848" style="stroke: #000000; stroke-width: 0.6"/>
      </g>
     </g>
    </g>
    <g id="ytick_22">
     <g id="line2d_101">
      <path d="M 105.740625 339.192456 
L 775.340625 339.192456 
" clip-path="url(#pb0e3e2b916)" style="fill: none; stroke-dasharray: 1.85,0.8; stroke-dashoffset: 0; stroke: #b0b0b0; stroke-opacity: 0.8; stroke-width: 0.5"/>
     </g>
     <g id="line2d_102">
      <g>
       <use xlink:href="#mdbe625ceb2" x="105.740625" y="339.192456" style="stroke: #000000; stroke-width: 0.6"/>
      </g>
     </g>
    </g>
    <g id="ytick_23">
     <g id="line2d_103">
      <path d="M 105.740625 329.25126 
L 775.340625 329.25126 
" clip-path="url(#pb0e3e2b916)" style="fill: none; stroke-dasharray: 1.85,0.8; stroke-dashoffset: 0; stroke: #b0b0b0; stroke-opacity: 0.8; stroke-width: 0.5"/>
     </g>
     <g id="line2d_104">
      <g>
       <use xlink:href="#mdbe625ceb2" x="105.740625" y="329.25126" style="stroke: #000000; stroke-width: 0.6"/>
      </g>
     </g>
    </g>
    <g id="ytick_24">
     <g id="line2d_105">
      <path d="M 105.740625 319.310064 
L 775.340625 319.310064 
" clip-path="url(#pb0e3e2b916)" style="fill: none; stroke-dasharray: 1.85,0.8; stroke-dashoffset: 0; stroke: #b0b0b0; stroke-opacity: 0.8; stroke-width: 0.5"/>
     </g>
     <g id="line2d_106">
      <g>
       <use xlink:href="#mdbe625ceb2" x="105.740625" y="319.310064" style="stroke: #000000; stroke-width: 0.6"/>
      </g>
     </g>
    </g>
    <g id="ytick_25">
     <g id="line2d_107">
      <path d="M 105.740625 309.368867 
L 775.340625 309.368867 
" clip-path="url(#pb0e3e2b916)" style="fill: none; stroke-dasharray: 1.85,0.8; stroke-dashoffset: 0; stroke: #b0b0b0; stroke-opacity: 0.8; stroke-width: 0.5"/>
     </g>
     <g id="line2d_108">
      <g>
       <use xlink:href="#mdbe625ceb2" x="105.740625" y="309.368867" style="stroke: #000000; stroke-width: 0.6"/>
      </g>
     </g>
    </g>
    <g id="ytick_26">
     <g id="line2d_109">
      <path d="M 105.740625 289.486475 
L 775.340625 289.486475 
" clip-path="url(#pb0e3e2b916)" style="fill: none; stroke-dasharray: 1.85,0.8; stroke-dashoffset: 0; stroke: #b0b0b0; stroke-opacity: 0.8; stroke-width: 0.5"/>
     </g>
     <g id="line2d_110">
      <g>
       <use xlink:href="#mdbe625ceb2" x="105.740625" y="289.486475" style="stroke: #000000; stroke-width: 0.6"/>
      </g>
     </g>
    </g>
    <g id="ytick_27">
     <g id="line2d_111">
      <path d="M 105.740625 279.545279 
L 775.340625 279.545279 
" clip-path="url(#pb0e3e2b916)" style="fill: none; stroke-dasharray: 1.85,0.8; stroke-dashoffset: 0; stroke: #b0b0b0; stroke-opacity: 0.8; stroke-width: 0.5"/>
     </g>
     <g id="line2d_112">
      <g>
       <use xlink:href="#mdbe625ceb2" x="105.740625" y="279.545279" style="stroke: #000000; stroke-width: 0.6"/>
      </g>
     </g>
    </g>
    <g id="ytick_28">
     <g id="line2d_113">
      <path d="M 105.740625 269.604083 
L 775.340625 269.604083 
" clip-path="url(#pb0e3e2b916)" style="fill: none; stroke-dasharray: 1.85,0.8; stroke-dashoffset: 0; stroke: #b0b0b0; stroke-opacity: 0.8; stroke-width: 0.5"/>
     </g>
     <g id="line2d_114">
      <g>
       <use xlink:href="#mdbe625ceb2" x="105.740625" y="269.604083" style="stroke: #000000; stroke-width: 0.6"/>
      </g>
     </g>
    </g>
    <g id="ytick_29">
     <g id="line2d_115">
      <path d="M 105.740625 259.662887 
L 775.340625 259.662887 
" clip-path="url(#pb0e3e2b916)" style="fill: none; stroke-dasharray: 1.85,0.8; stroke-dashoffset: 0; stroke: #b0b0b0; stroke-opacity: 0.8; stroke-width: 0.5"/>
     </g>
     <g id="line2d_116">
      <g>
       <use xlink:href="#mdbe625ceb2" x="105.740625" y="259.662887" style="stroke: #000000; stroke-width: 0.6"/>
      </g>
     </g>
    </g>
    <g id="ytick_30">
     <g id="line2d_117">
      <path d="M 105.740625 239.780495 
L 775.340625 239.780495 
" clip-path="url(#pb0e3e2b916)" style="fill: none; stroke-dasharray: 1.85,0.8; stroke-dashoffset: 0; stroke: #b0b0b0; stroke-opacity: 0.8; stroke-width: 0.5"/>
     </g>
     <g id="line2d_118">
      <g>
       <use xlink:href="#mdbe625ceb2" x="105.740625" y="239.780495" style="stroke: #000000; stroke-width: 0.6"/>
      </g>
     </g>
    </g>
    <g id="ytick_31">
     <g id="line2d_119">
      <path d="M 105.740625 229.839299 
L 775.340625 229.839299 
" clip-path="url(#pb0e3e2b916)" style="fill: none; stroke-dasharray: 1.85,0.8; stroke-dashoffset: 0; stroke: #b0b0b0; stroke-opacity: 0.8; stroke-width: 0.5"/>
     </g>
     <g id="line2d_120">
      <g>
       <use xlink:href="#mdbe625ceb2" x="105.740625" y="229.839299" style="stroke: #000000; stroke-width: 0.6"/>
      </g>
     </g>
    </g>
    <g id="ytick_32">
     <g id="line2d_121">
      <path d="M 105.740625 219.898103 
L 775.340625 219.898103 
" clip-path="url(#pb0e3e2b916)" style="fill: none; stroke-dasharray: 1.85,0.8; stroke-dashoffset: 0; stroke: #b0b0b0; stroke-opacity: 0.8; stroke-width: 0.5"/>
     </g>
     <g id="line2d_122">
      <g>
       <use xlink:href="#mdbe625ceb2" x="105.740625" y="219.898103" style="stroke: #000000; stroke-width: 0.6"/>
      </g>
     </g>
    </g>
    <g id="ytick_33">
     <g id="line2d_123">
      <path d="M 105.740625 209.956907 
L 775.340625 209.956907 
" clip-path="url(#pb0e3e2b916)" style="fill: none; stroke-dasharray: 1.85,0.8; stroke-dashoffset: 0; stroke: #b0b0b0; stroke-opacity: 0.8; stroke-width: 0.5"/>
     </g>
     <g id="line2d_124">
      <g>
       <use xlink:href="#mdbe625ceb2" x="105.740625" y="209.956907" style="stroke: #000000; stroke-width: 0.6"/>
      </g>
     </g>
    </g>
    <g id="ytick_34">
     <g id="line2d_125">
      <path d="M 105.740625 190.074515 
L 775.340625 190.074515 
" clip-path="url(#pb0e3e2b916)" style="fill: none; stroke-dasharray: 1.85,0.8; stroke-dashoffset: 0; stroke: #b0b0b0; stroke-opacity: 0.8; stroke-width: 0.5"/>
     </g>
     <g id="line2d_126">
      <g>
       <use xlink:href="#mdbe625ceb2" x="105.740625" y="190.074515" style="stroke: #000000; stroke-width: 0.6"/>
      </g>
     </g>
    </g>
    <g id="ytick_35">
     <g id="line2d_127">
      <path d="M 105.740625 180.133319 
L 775.340625 180.133319 
" clip-path="url(#pb0e3e2b916)" style="fill: none; stroke-dasharray: 1.85,0.8; stroke-dashoffset: 0; stroke: #b0b0b0; stroke-opacity: 0.8; stroke-width: 0.5"/>
     </g>
     <g id="line2d_128">
      <g>
       <use xlink:href="#mdbe625ceb2" x="105.740625" y="180.133319" style="stroke: #000000; stroke-width: 0.6"/>
      </g>
     </g>
    </g>
    <g id="ytick_36">
     <g id="line2d_129">
      <path d="M 105.740625 170.192123 
L 775.340625 170.192123 
" clip-path="url(#pb0e3e2b916)" style="fill: none; stroke-dasharray: 1.85,0.8; stroke-dashoffset: 0; stroke: #b0b0b0; stroke-opacity: 0.8; stroke-width: 0.5"/>
     </g>
     <g id="line2d_130">
      <g>
       <use xlink:href="#mdbe625ceb2" x="105.740625" y="170.192123" style="stroke: #000000; stroke-width: 0.6"/>
      </g>
     </g>
    </g>
    <g id="ytick_37">
     <g id="line2d_131">
      <path d="M 105.740625 160.250927 
L 775.340625 160.250927 
" clip-path="url(#pb0e3e2b916)" style="fill: none; stroke-dasharray: 1.85,0.8; stroke-dashoffset: 0; stroke: #b0b0b0; stroke-opacity: 0.8; stroke-width: 0.5"/>
     </g>
     <g id="line2d_132">
      <g>
       <use xlink:href="#mdbe625ceb2" x="105.740625" y="160.250927" style="stroke: #000000; stroke-width: 0.6"/>
      </g>
     </g>
    </g>
    <g id="ytick_38">
     <g id="line2d_133">
      <path d="M 105.740625 140.368535 
L 775.340625 140.368535 
" clip-path="url(#pb0e3e2b916)" style="fill: none; stroke-dasharray: 1.85,0.8; stroke-dashoffset: 0; stroke: #b0b0b0; stroke-opacity: 0.8; stroke-width: 0.5"/>
     </g>
     <g id="line2d_134">
      <g>
       <use xlink:href="#mdbe625ceb2" x="105.740625" y="140.368535" style="stroke: #000000; stroke-width: 0.6"/>
      </g>
     </g>
    </g>
    <g id="ytick_39">
     <g id="line2d_135">
      <path d="M 105.740625 130.427339 
L 775.340625 130.427339 
" clip-path="url(#pb0e3e2b916)" style="fill: none; stroke-dasharray: 1.85,0.8; stroke-dashoffset: 0; stroke: #b0b0b0; stroke-opacity: 0.8; stroke-width: 0.5"/>
     </g>
     <g id="line2d_136">
      <g>
       <use xlink:href="#mdbe625ceb2" x="105.740625" y="130.427339" style="stroke: #000000; stroke-width: 0.6"/>
      </g>
     </g>
    </g>
    <g id="ytick_40">
     <g id="line2d_137">
      <path d="M 105.740625 120.486143 
L 775.340625 120.486143 
" clip-path="url(#pb0e3e2b916)" style="fill: none; stroke-dasharray: 1.85,0.8; stroke-dashoffset: 0; stroke: #b0b0b0; stroke-opacity: 0.8; stroke-width: 0.5"/>
     </g>
     <g id="line2d_138">
      <g>
       <use xlink:href="#mdbe625ceb2" x="105.740625" y="120.486143" style="stroke: #000000; stroke-width: 0.6"/>
      </g>
     </g>
    </g>
    <g id="ytick_41">
     <g id="line2d_139">
      <path d="M 105.740625 110.544946 
L 775.340625 110.544946 
" clip-path="url(#pb0e3e2b916)" style="fill: none; stroke-dasharray: 1.85,0.8; stroke-dashoffset: 0; stroke: #b0b0b0; stroke-opacity: 0.8; stroke-width: 0.5"/>
     </g>
     <g id="line2d_140">
      <g>
       <use xlink:href="#mdbe625ceb2" x="105.740625" y="110.544946" style="stroke: #000000; stroke-width: 0.6"/>
      </g>
     </g>
    </g>
    <g id="ytick_42">
     <g id="line2d_141">
      <path d="M 105.740625 90.662554 
L 775.340625 90.662554 
" clip-path="url(#pb0e3e2b916)" style="fill: none; stroke-dasharray: 1.85,0.8; stroke-dashoffset: 0; stroke: #b0b0b0; stroke-opacity: 0.8; stroke-width: 0.5"/>
     </g>
     <g id="line2d_142">
      <g>
       <use xlink:href="#mdbe625ceb2" x="105.740625" y="90.662554" style="stroke: #000000; stroke-width: 0.6"/>
      </g>
     </g>
    </g>
    <g id="ytick_43">
     <g id="line2d_143">
      <path d="M 105.740625 80.721358 
L 775.340625 80.721358 
" clip-path="url(#pb0e3e2b916)" style="fill: none; stroke-dasharray: 1.85,0.8; stroke-dashoffset: 0; stroke: #b0b0b0; stroke-opacity: 0.8; stroke-width: 0.5"/>
     </g>
     <g id="line2d_144">
      <g>
       <use xlink:href="#mdbe625ceb2" x="105.740625" y="80.721358" style="stroke: #000000; stroke-width: 0.6"/>
      </g>
     </g>
    </g>
    <g id="ytick_44">
     <g id="line2d_145">
      <path d="M 105.740625 70.780162 
L 775.340625 70.780162 
" clip-path="url(#pb0e3e2b916)" style="fill: none; stroke-dasharray: 1.85,0.8; stroke-dashoffset: 0; stroke: #b0b0b0; stroke-opacity: 0.8; stroke-width: 0.5"/>
     </g>
     <g id="line2d_146">
      <g>
       <use xlink:href="#mdbe625ceb2" x="105.740625" y="70.780162" style="stroke: #000000; stroke-width: 0.6"/>
      </g>
     </g>
    </g>
    <g id="ytick_45">
     <g id="line2d_147">
      <path d="M 105.740625 60.838966 
L 775.340625 60.838966 
" clip-path="url(#pb0e3e2b916)" style="fill: none; stroke-dasharray: 1.85,0.8; stroke-dashoffset: 0; stroke: #b0b0b0; stroke-opacity: 0.8; stroke-width: 0.5"/>
     </g>
     <g id="line2d_148">
      <g>
       <use xlink:href="#mdbe625ceb2" x="105.740625" y="60.838966" style="stroke: #000000; stroke-width: 0.6"/>
      </g>
     </g>
    </g>
    <g id="text_18">
     <!-- Light (W/m^2) -->
     <g transform="translate(49.221875 337.558125) rotate(-90) scale(0.2 -0.2)">
      <defs>
       <path id="AptosDisplay-4c" d="M 472 0 
L 472 4206 
L 1034 4206 
L 1034 484 
L 3000 484 
L 3000 0 
L 472 0 
z
" transform="scale(0.015625)"/>
       <path id="AptosDisplay-67" d="M 1397 -1178 
Q 925 -1178 640 -1065 
Q 356 -953 229 -765 
Q 103 -578 103 -359 
Q 103 -94 329 112 
Q 556 319 1031 403 
L 1128 575 
L 1475 575 
Q 2184 575 2489 376 
Q 2794 178 2794 -238 
Q 2794 -650 2437 -914 
Q 2081 -1178 1397 -1178 
z
M 1384 -800 
Q 1878 -800 2086 -650 
Q 2294 -500 2294 -278 
Q 2294 -147 2225 -51 
Q 2156 44 1975 97 
Q 1794 150 1456 150 
L 1034 150 
Q 819 97 708 -31 
Q 597 -159 597 -328 
Q 597 -516 778 -658 
Q 959 -800 1384 -800 
z
M 1025 216 
Q 722 228 550 312 
Q 378 397 306 511 
Q 234 625 234 722 
Q 234 866 362 1009 
Q 491 1153 772 1241 
L 1038 1069 
Q 866 1031 772 953 
Q 678 875 678 791 
Q 678 731 734 682 
Q 791 634 928 606 
Q 1066 578 1303 575 
L 1025 216 
z
M 1363 984 
Q 1003 984 753 1128 
Q 503 1272 375 1509 
Q 247 1747 247 2022 
Q 247 2313 376 2550 
Q 506 2788 754 2928 
Q 1003 3069 1366 3069 
Q 1738 3069 1983 2928 
Q 2228 2788 2351 2550 
Q 2475 2313 2475 2022 
Q 2475 1741 2350 1505 
Q 2225 1269 1979 1126 
Q 1734 984 1363 984 
z
M 1366 1341 
Q 1641 1341 1812 1512 
Q 1984 1684 1984 2022 
Q 1984 2375 1817 2545 
Q 1650 2716 1372 2716 
Q 1094 2716 919 2541 
Q 744 2366 744 2025 
Q 744 1681 931 1511 
Q 1119 1341 1366 1341 
z
M 2131 2734 
L 1922 2931 
Q 2038 3225 2252 3331 
Q 2466 3438 2794 3447 
L 2794 3006 
Q 2588 3006 2416 2961 
Q 2244 2916 2131 2734 
z
" transform="scale(0.015625)"/>
       <path id="AptosDisplay-68" d="M 413 0 
L 413 4206 
L 931 4206 
L 931 2575 
Q 1069 2756 1317 2914 
Q 1566 3072 1950 3072 
Q 2428 3072 2637 2783 
Q 2847 2494 2847 1963 
L 2847 0 
L 2328 0 
L 2328 1891 
Q 2328 2106 2287 2275 
Q 2247 2444 2139 2539 
Q 2031 2634 1822 2634 
Q 1503 2634 1284 2482 
Q 1066 2331 934 2156 
L 934 0 
L 413 0 
z
" transform="scale(0.015625)"/>
       <path id="AptosDisplay-74" d="M 1466 0 
Q 1100 0 901 117 
Q 703 234 629 454 
Q 556 675 556 984 
L 556 2622 
L 50 2622 
L 50 3044 
L 556 3044 
L 556 3741 
L 1078 3741 
L 1078 3044 
L 1831 3044 
L 1831 2622 
L 1078 2622 
L 1078 1009 
Q 1078 725 1151 575 
Q 1225 425 1500 425 
L 1831 425 
L 1831 0 
L 1466 0 
z
" transform="scale(0.015625)"/>
       <path id="AptosDisplay-57" d="M 1216 0 
L -13 4206 
L 575 4206 
L 1525 697 
L 2531 4206 
L 3156 4206 
L 4163 697 
L 5119 4206 
L 5681 4206 
L 4453 0 
L 3866 0 
L 2831 3556 
L 1813 0 
L 1216 0 
z
" transform="scale(0.015625)"/>
       <path id="AptosDisplay-2f" d="M 72 0 
L 1603 4206 
L 2100 4206 
L 569 0 
L 72 0 
z
" transform="scale(0.015625)"/>
       <path id="AptosDisplay-5e" d="M 428 2438 
L 1459 4206 
L 1884 4206 
L 2916 2438 
L 2366 2438 
L 1672 3650 
L 978 2438 
L 428 2438 
z
" transform="scale(0.015625)"/>
      </defs>
      <use xlink:href="#AptosDisplay-4c"/>
      <use xlink:href="#AptosDisplay-69" x="48.4375"/>
      <use xlink:href="#AptosDisplay-67" x="69.482422"/>
      <use xlink:href="#AptosDisplay-68" x="113.427734"/>
      <use xlink:href="#AptosDisplay-74" x="164.013672"/>
      <use xlink:href="#AptosDisplay-20" x="194.384766"/>
      <use xlink:href="#AptosDisplay-28" x="213.671875"/>
      <use xlink:href="#AptosDisplay-57" x="243.115234"/>
      <use xlink:href="#AptosDisplay-2f" x="331.689453"/>
      <use xlink:href="#AptosDisplay-6d" x="365.625"/>
      <use xlink:href="#AptosDisplay-5e" x="445.605469"/>
      <use xlink:href="#AptosDisplay-32" x="497.900391"/>
      <use xlink:href="#AptosDisplay-29" x="550.195312"/>
     </g>
    </g>
   </g>
   <g id="line2d_149">
    <path d="M 136.176989 356.291313 
L 137.099296 358.483347 
L 138.021603 319.036681 
L 138.94391 332.183912 
L 139.866217 347.523178 
L 140.788524 321.228714 
L 141.710831 323.420748 
L 143.555445 323.420748 
L 144.477752 312.46555 
L 145.400059 316.844647 
L 146.322366 340.952047 
L 147.244673 319.036681 
L 148.16698 327.804816 
L 149.089288 325.612782 
L 150.011595 316.844647 
L 150.933902 325.612782 
L 151.856209 319.036681 
L 152.778516 367.246511 
L 153.700823 310.273516 
L 154.62313 270.82685 
L 155.545437 332.183912 
L 156.467744 319.036681 
L 157.390051 327.804816 
L 158.312358 334.375946 
L 159.234665 327.804816 
L 160.156972 327.804816 
L 161.079279 319.036681 
L 162.001586 325.612782 
L 162.923893 310.273516 
L 163.846201 310.273516 
L 164.768508 329.991879 
L 165.690815 314.652613 
L 166.613122 321.228714 
L 167.535429 312.46555 
L 168.457736 323.420748 
L 169.380043 246.724421 
L 170.30235 347.523178 
L 171.224657 332.183912 
L 172.146964 319.036681 
L 173.069271 340.952047 
L 173.991578 327.804816 
L 174.913885 325.612782 
L 176.758499 325.612782 
L 177.680806 329.991879 
L 178.603114 323.420748 
L 179.525421 380.393743 
L 180.447728 332.183912 
L 181.370035 329.991879 
L 182.292342 319.036681 
L 183.214649 334.375946 
L 184.136956 334.375946 
L 185.059263 323.420748 
L 185.98157 319.036681 
L 186.903877 336.56798 
L 187.826184 327.804816 
L 188.748491 327.804816 
L 190.593105 336.56798 
L 191.515412 323.420748 
L 192.437719 327.804816 
L 193.360027 329.991879 
L 194.282334 327.804816 
L 195.204641 329.991879 
L 196.126948 336.56798 
L 197.049255 336.56798 
L 197.971562 319.036681 
L 198.893869 321.228714 
L 199.816176 273.018884 
L 200.738483 325.612782 
L 201.66079 323.420748 
L 202.583097 325.612782 
L 203.505404 316.844647 
L 204.427711 327.804816 
L 205.350018 481.1925 
L 206.272325 334.375946 
L 208.11694 325.612782 
L 209.039247 327.804816 
L 209.961554 321.228714 
L 210.883861 329.991879 
L 211.806168 327.804816 
L 212.728475 347.523178 
L 213.650782 316.844647 
L 214.573089 327.804816 
L 215.495396 316.844647 
L 216.417703 319.036681 
L 217.34001 332.183912 
L 218.262317 323.420748 
L 219.184624 329.991879 
L 220.106931 316.844647 
L 221.029238 327.804816 
L 221.951545 332.183912 
L 222.873853 329.991879 
L 223.79616 325.612782 
L 224.718467 323.420748 
L 225.640774 325.612782 
L 226.563081 334.375946 
L 227.485388 316.844647 
L 228.407695 325.612782 
L 229.330002 325.612782 
L 230.252309 354.099279 
L 231.174616 332.183912 
L 232.096923 338.760014 
L 233.01923 319.036681 
L 233.941537 332.183912 
L 234.863844 380.393743 
L 235.786151 323.420748 
L 236.708458 321.228714 
L 237.630766 325.612782 
L 238.553073 327.804816 
L 239.47538 325.612782 
L 241.319994 356.291313 
L 242.242301 325.612782 
L 243.164608 327.804816 
L 244.086915 325.612782 
L 245.009222 329.991879 
L 245.931529 319.036681 
L 246.853836 327.804816 
L 247.776143 329.991879 
L 248.69845 327.804816 
L 249.620757 323.420748 
L 250.543064 332.183912 
L 251.465371 329.991879 
L 252.387679 323.420748 
L 253.309986 329.991879 
L 254.232293 323.420748 
L 255.1546 327.804816 
L 256.076907 316.844647 
L 256.999214 319.036681 
L 257.921521 319.036681 
L 258.843828 321.228714 
L 260.688442 338.760014 
L 261.610749 332.183912 
L 262.533056 329.991879 
L 263.455363 334.375946 
L 264.37767 323.420748 
L 265.299977 325.612782 
L 266.222284 323.420748 
L 267.144591 327.804816 
L 268.066899 329.991879 
L 268.989206 334.375946 
L 269.911513 332.183912 
L 270.83382 323.420748 
L 271.756127 338.760014 
L 272.678434 310.273516 
L 273.600741 336.56798 
L 274.523048 314.652613 
L 275.445355 327.804816 
L 276.367662 332.183912 
L 277.289969 332.183912 
L 278.212276 314.652613 
L 279.134583 327.804816 
L 280.05689 314.652613 
L 280.979197 325.612782 
L 281.901504 356.291313 
L 282.823812 332.183912 
L 283.746119 332.183912 
L 284.668426 334.375946 
L 285.590733 319.036681 
L 286.51304 329.991879 
L 287.435347 327.804816 
L 288.357654 340.952047 
L 289.279961 334.375946 
L 290.202268 336.56798 
L 291.124575 334.375946 
L 292.046882 338.760014 
L 293.891496 325.612782 
L 294.813803 321.228714 
L 295.73611 323.420748 
L 296.658417 343.144081 
L 297.580725 380.393743 
L 298.503032 334.375946 
L 299.425339 384.77781 
L 300.347646 345.331144 
L 301.269953 338.760014 
L 302.19226 336.56798 
L 303.114567 332.183912 
L 304.036874 336.56798 
L 304.959181 332.183912 
L 305.881488 329.991879 
L 306.803795 340.952047 
L 307.726102 336.56798 
L 308.648409 264.25572 
L 309.570716 323.420748 
L 310.493023 327.804816 
L 311.41533 321.228714 
L 312.337638 319.036681 
L 313.259945 325.612782 
L 314.182252 327.804816 
L 315.104559 321.228714 
L 316.026866 334.375946 
L 316.949173 329.991879 
L 317.87148 334.375946 
L 318.793787 332.183912 
L 320.638401 323.420748 
L 321.560708 321.228714 
L 322.483015 308.081483 
L 323.405322 347.523178 
L 324.327629 327.804816 
L 325.249936 332.183912 
L 326.172243 334.375946 
L 327.094551 332.183912 
L 328.016858 327.804816 
L 328.939165 205.090692 
L 329.861472 323.420748 
L 330.783779 336.56798 
L 331.706086 338.760014 
L 332.628393 325.612782 
L 333.5507 323.420748 
L 334.473007 354.099279 
L 335.395314 340.952047 
L 336.317621 336.56798 
L 337.239928 334.375946 
L 338.162235 349.715212 
L 339.084542 329.991879 
L 340.006849 338.760014 
L 340.929156 336.56798 
L 341.851464 323.420748 
L 343.696078 345.331144 
L 344.618385 321.228714 
L 345.540692 343.144081 
L 347.385306 329.991879 
L 348.307613 332.183912 
L 349.22992 332.183912 
L 351.074534 327.804816 
L 351.996841 345.331144 
L 352.919148 329.991879 
L 353.841455 327.804816 
L 354.763762 336.56798 
L 355.686069 338.760014 
L 356.608377 334.375946 
L 357.530684 334.375946 
L 358.452991 323.420748 
L 359.375298 323.420748 
L 360.297605 338.760014 
L 361.219912 332.183912 
L 362.142219 286.166116 
L 363.064526 336.56798 
L 363.986833 332.183912 
L 364.90914 332.183912 
L 365.831447 336.56798 
L 367.676061 332.183912 
L 368.598368 349.715212 
L 369.520675 365.054477 
L 370.442982 334.375946 
L 371.36529 334.375946 
L 372.287597 327.804816 
L 373.209904 332.183912 
L 375.054518 336.56798 
L 375.976825 323.420748 
L 376.899132 336.56798 
L 377.821439 340.952047 
L 378.743746 325.612782 
L 379.666053 334.375946 
L 380.58836 321.228714 
L 381.510667 340.952047 
L 382.432974 329.991879 
L 383.355281 294.934251 
L 384.277588 340.952047 
L 385.199895 338.760014 
L 386.122203 389.161878 
L 387.04451 340.952047 
L 387.966817 336.56798 
L 388.889124 303.697415 
L 389.811431 380.393743 
L 390.733738 351.907245 
L 391.656045 345.331144 
L 392.578352 329.991879 
L 393.500659 329.991879 
L 394.422966 332.183912 
L 395.345273 332.183912 
L 396.26758 334.375946 
L 397.189887 343.144081 
L 398.112194 336.56798 
L 399.034501 343.144081 
L 399.956808 308.081483 
L 400.879116 325.612782 
L 401.801423 345.331144 
L 402.72373 334.375946 
L 403.646037 336.56798 
L 405.490651 332.183912 
L 406.412958 332.183912 
L 407.335265 347.523178 
L 408.257572 340.952047 
L 409.179879 325.612782 
L 410.102186 336.56798 
L 411.024493 334.375946 
L 414.718333 358.483347 
L 415.64064 329.991879 
L 416.562947 345.331144 
L 417.485254 332.183912 
L 419.329868 340.952047 
L 420.252175 334.375946 
L 421.174482 329.991879 
L 422.09679 340.952047 
L 423.019097 323.420748 
L 423.941404 327.804816 
L 424.863711 327.804816 
L 425.786018 323.420748 
L 426.708325 402.309109 
L 427.630632 351.907245 
L 428.552939 334.375946 
L 429.475246 338.760014 
L 430.397553 316.844647 
L 431.31986 334.375946 
L 432.242167 275.210918 
L 433.164474 343.144081 
L 434.086781 340.952047 
L 435.009088 305.889449 
L 435.931395 343.144081 
L 436.853703 332.183912 
L 437.77601 343.144081 
L 438.698317 303.697415 
L 439.620624 343.144081 
L 440.542931 332.183912 
L 441.465238 329.991879 
L 442.387545 329.991879 
L 443.309852 334.375946 
L 444.232159 336.56798 
L 445.154466 323.420748 
L 446.076773 332.183912 
L 446.99908 345.331144 
L 447.921387 334.375946 
L 448.843694 345.331144 
L 449.766001 332.183912 
L 450.688308 343.144081 
L 451.610616 343.144081 
L 452.532923 338.760014 
L 453.45523 338.760014 
L 456.222151 332.183912 
L 457.144458 332.183912 
L 458.066765 327.804816 
L 458.989072 325.612782 
L 459.911379 340.952047 
L 460.833686 338.760014 
L 462.6783 343.144081 
L 463.600607 316.844647 
L 464.522914 336.56798 
L 465.445221 338.760014 
L 466.367529 334.375946 
L 467.289836 349.715212 
L 468.212143 332.183912 
L 469.13445 336.56798 
L 470.056757 336.56798 
L 470.979064 349.715212 
L 471.901371 336.56798 
L 472.823678 334.375946 
L 473.745985 338.760014 
L 474.668292 332.183912 
L 475.590599 332.183912 
L 476.512906 336.56798 
L 477.435213 334.375946 
L 478.35752 336.56798 
L 479.279827 343.144081 
L 480.202134 343.144081 
L 481.124442 406.688206 
L 482.046749 347.523178 
L 482.969056 332.183912 
L 483.891363 340.952047 
L 484.81367 345.331144 
L 485.735977 336.56798 
L 486.658284 343.144081 
L 487.580591 334.375946 
L 488.502898 288.35815 
L 489.425205 325.612782 
L 490.347512 338.760014 
L 491.269819 332.183912 
L 492.192126 336.56798 
L 493.114433 336.56798 
L 494.03674 338.760014 
L 494.959047 332.183912 
L 495.881355 336.56798 
L 496.803662 327.804816 
L 498.648276 332.183912 
L 499.570583 323.420748 
L 500.49289 319.036681 
L 501.415197 334.375946 
L 502.337504 319.036681 
L 503.259811 354.099279 
L 504.182118 338.760014 
L 505.104425 345.331144 
L 506.026732 338.760014 
L 506.949039 338.760014 
L 508.793653 334.375946 
L 509.71596 323.420748 
L 510.638268 362.862443 
L 511.560575 338.760014 
L 512.482882 349.715212 
L 513.405189 367.246511 
L 514.327496 332.183912 
L 515.249803 343.144081 
L 516.17211 360.67041 
L 517.094417 343.144081 
L 518.016724 336.56798 
L 518.939031 338.760014 
L 519.861338 336.56798 
L 520.783645 343.144081 
L 523.550566 336.56798 
L 524.472873 343.144081 
L 525.395181 329.991879 
L 526.317488 347.523178 
L 527.239795 334.375946 
L 528.162102 340.952047 
L 529.084409 336.56798 
L 530.006716 338.760014 
L 530.929023 345.331144 
L 531.85133 338.760014 
L 532.773637 347.523178 
L 533.695944 340.952047 
L 534.618251 332.183912 
L 535.540558 334.375946 
L 537.385172 334.375946 
L 538.307479 340.952047 
L 539.229786 334.375946 
L 540.152094 347.523178 
L 541.074401 345.331144 
L 541.996708 338.760014 
L 542.919015 336.56798 
L 543.841322 338.760014 
L 544.763629 351.907245 
L 545.685936 340.952047 
L 546.608243 347.523178 
L 547.53055 308.081483 
L 548.452857 340.952047 
L 549.375164 336.56798 
L 550.297471 336.56798 
L 551.219778 347.523178 
L 552.142085 343.144081 
L 553.064392 340.952047 
L 553.986699 340.952047 
L 554.909007 349.715212 
L 555.831314 334.375946 
L 556.753621 340.952047 
L 557.675928 340.952047 
L 558.598235 336.56798 
L 559.520542 338.760014 
L 560.442849 336.56798 
L 561.365156 340.952047 
L 562.287463 334.375946 
L 563.20977 338.760014 
L 564.132077 329.991879 
L 565.054384 268.634817 
L 565.976691 336.56798 
L 566.898998 340.952047 
L 567.821305 343.144081 
L 568.743612 323.420748 
L 569.66592 347.523178 
L 570.588227 338.760014 
L 571.510534 332.183912 
L 572.432841 334.375946 
L 573.355148 329.991879 
L 574.277455 336.56798 
L 575.199762 327.804816 
L 576.122069 343.144081 
L 577.044376 343.144081 
L 577.966683 345.331144 
L 578.88899 340.952047 
L 579.811297 323.420748 
L 580.733604 351.907245 
L 581.655911 340.952047 
L 583.500525 332.183912 
L 584.422833 343.144081 
L 585.34514 338.760014 
L 586.267447 347.523178 
L 587.189754 360.67041 
L 588.112061 301.505381 
L 589.034368 340.952047 
L 589.956675 336.56798 
L 590.878982 356.291313 
L 591.801289 327.804816 
L 592.723596 314.652613 
L 593.645903 345.331144 
L 594.56821 365.054477 
L 595.490517 329.991879 
L 596.412824 336.56798 
L 597.335131 329.991879 
L 598.257438 340.952047 
L 599.179746 340.952047 
L 600.102053 338.760014 
L 601.02436 340.952047 
L 601.946667 340.952047 
L 602.868974 332.183912 
L 603.791281 347.523178 
L 604.713588 347.523178 
L 605.635895 336.56798 
L 606.558202 411.072274 
L 607.480509 334.375946 
L 608.402816 334.375946 
L 609.325123 338.760014 
L 610.24743 338.760014 
L 611.169737 340.952047 
L 612.092044 334.375946 
L 613.014351 334.375946 
L 613.936659 343.144081 
L 614.858966 362.862443 
L 615.781273 259.871652 
L 616.70358 347.523178 
L 617.625887 329.991879 
L 618.548194 340.952047 
L 619.470501 336.56798 
L 620.392808 340.952047 
L 621.315115 336.56798 
L 622.237422 336.56798 
L 623.159729 340.952047 
L 625.004343 340.952047 
L 625.92665 336.56798 
L 626.848957 351.907245 
L 627.771264 343.144081 
L 628.693571 338.760014 
L 629.615879 343.144081 
L 630.538186 343.144081 
L 631.460493 338.760014 
L 632.3828 338.760014 
L 633.305107 334.375946 
L 634.227414 343.144081 
L 635.149721 343.144081 
L 636.994335 338.760014 
L 637.916642 290.550183 
L 638.838949 343.144081 
L 639.761256 354.099279 
L 640.683563 340.952047 
L 641.60587 336.56798 
L 642.528177 340.952047 
L 643.450484 338.760014 
L 644.372792 334.375946 
L 645.295099 347.523178 
L 646.217406 347.523178 
L 647.139713 349.715212 
L 648.06202 338.760014 
L 648.984327 345.331144 
L 649.906634 338.760014 
L 650.828941 334.375946 
L 651.751248 336.56798 
L 652.673555 347.523178 
L 653.595862 332.183912 
L 655.440476 340.952047 
L 656.362783 347.523178 
L 657.28509 338.760014 
L 658.207397 336.56798 
L 659.129705 349.715212 
L 660.052012 332.183912 
L 660.974319 349.715212 
L 661.896626 340.952047 
L 662.818933 338.760014 
L 664.663547 343.144081 
L 665.585854 336.56798 
L 666.508161 332.183912 
L 667.430468 336.56798 
L 668.352775 336.56798 
L 669.275082 347.523178 
L 670.197389 325.612782 
L 671.119696 349.715212 
L 672.042003 343.144081 
L 672.96431 340.952047 
L 673.886618 356.291313 
L 674.808925 329.991879 
L 675.731232 343.144081 
L 676.653539 345.331144 
L 677.575846 354.099279 
L 678.498153 336.56798 
L 679.42046 325.612782 
L 680.342767 347.523178 
L 681.265074 347.523178 
L 682.187381 340.952047 
L 683.109688 345.331144 
L 684.031995 351.907245 
L 684.954302 343.144081 
L 685.876609 356.291313 
L 686.798916 347.523178 
L 687.721223 343.144081 
L 688.643531 347.523178 
L 689.565838 343.144081 
L 693.255066 343.144081 
L 694.177373 156.880861 
L 695.09968 338.760014 
L 696.021987 323.420748 
L 696.944294 347.523178 
L 697.866601 338.760014 
L 698.788908 334.375946 
L 699.711215 338.760014 
L 700.633522 347.523178 
L 701.555829 343.144081 
L 702.478136 345.331144 
L 703.400444 327.804816 
L 704.322751 343.144081 
L 705.245058 343.144081 
L 706.167365 77.9925 
L 707.089672 351.907245 
L 708.934286 343.144081 
L 710.7789 360.67041 
L 711.701207 338.760014 
L 712.623514 360.67041 
L 713.545821 345.331144 
L 714.468128 343.144081 
L 715.390435 310.273516 
L 716.312742 340.952047 
L 717.235049 354.099279 
L 718.157357 349.715212 
L 719.079664 347.523178 
L 720.001971 343.144081 
L 720.924278 345.331144 
L 721.846585 354.099279 
L 722.768892 349.715212 
L 723.691199 340.952047 
L 724.613506 338.760014 
L 725.535813 356.291313 
L 726.45812 336.56798 
L 727.380427 347.523178 
L 728.302734 393.540974 
L 729.225041 365.054477 
L 730.147348 369.438545 
L 731.069655 360.67041 
L 731.991962 360.67041 
L 732.91427 362.862443 
L 733.836577 360.67041 
L 734.758884 386.969844 
L 735.681191 378.201709 
L 736.603498 376.009675 
L 737.525805 376.009675 
L 738.448112 380.393743 
L 739.370419 373.822612 
L 740.292726 393.540974 
L 741.215033 376.009675 
L 742.13734 371.630578 
L 743.059647 389.161878 
L 743.981954 380.393743 
L 744.904261 376.009675 
L 744.904261 376.009675 
" clip-path="url(#pb0e3e2b916)" style="fill: none; stroke: #ac2b37; stroke-width: 1.5; stroke-linecap: square"/>
   </g>
   <g id="patch_3">
    <path d="M 105.740625 501.3525 
L 105.740625 57.8325 
" style="fill: none; stroke: #000000; stroke-width: 0.8; stroke-linejoin: miter; stroke-linecap: square"/>
   </g>
   <g id="patch_4">
    <path d="M 775.340625 501.3525 
L 775.340625 57.8325 
" style="fill: none; stroke: #000000; stroke-width: 0.8; stroke-linejoin: miter; stroke-linecap: square"/>
   </g>
   <g id="patch_5">
    <path d="M 105.740625 501.3525 
L 775.340625 501.3525 
" style="fill: none; stroke: #000000; stroke-width: 0.8; stroke-linejoin: miter; stroke-linecap: square"/>
   </g>
   <g id="patch_6">
    <path d="M 105.740625 57.8325 
L 775.340625 57.8325 
" style="fill: none; stroke: #000000; stroke-width: 0.8; stroke-linejoin: miter; stroke-linecap: square"/>
   </g>
   <g id="text_19">
    <!-- Light vs Time -->
    <g transform="translate(378.058125 51.8325) scale(0.24 -0.24)">
     <defs>
      <path id="AptosDisplay-76" d="M 1103 0 
L -13 3044 
L 538 3044 
L 1391 513 
L 2250 3044 
L 2781 3044 
L 1678 0 
L 1103 0 
z
" transform="scale(0.015625)"/>
      <path id="AptosDisplay-73" d="M 1506 -41 
Q 1247 -41 1017 14 
Q 788 69 613 191 
Q 438 313 339 506 
Q 241 700 241 978 
L 744 978 
Q 744 628 966 487 
Q 1188 347 1519 347 
Q 1816 347 2008 458 
Q 2200 569 2200 822 
Q 2200 1047 2026 1153 
Q 1853 1259 1413 1369 
Q 1056 1453 815 1564 
Q 575 1675 453 1845 
Q 331 2016 331 2275 
Q 331 2475 417 2626 
Q 503 2778 658 2879 
Q 813 2981 1020 3032 
Q 1228 3084 1472 3084 
Q 1713 3084 1923 3028 
Q 2134 2972 2296 2855 
Q 2459 2738 2551 2552 
Q 2644 2366 2644 2109 
L 2138 2109 
Q 2138 2425 1945 2558 
Q 1753 2691 1472 2691 
Q 1191 2691 1016 2594 
Q 841 2497 841 2291 
Q 841 2169 919 2084 
Q 997 2000 1181 1933 
Q 1366 1866 1675 1791 
Q 2019 1709 2248 1596 
Q 2478 1484 2595 1306 
Q 2713 1128 2713 847 
Q 2713 616 2622 447 
Q 2531 278 2367 170 
Q 2203 63 1983 11 
Q 1763 -41 1506 -41 
z
" transform="scale(0.015625)"/>
     </defs>
     <use xlink:href="#AptosDisplay-4c"/>
     <use xlink:href="#AptosDisplay-69" x="48.4375"/>
     <use xlink:href="#AptosDisplay-67" x="69.482422"/>
     <use xlink:href="#AptosDisplay-68" x="113.427734"/>
     <use xlink:href="#AptosDisplay-74" x="164.013672"/>
     <use xlink:href="#AptosDisplay-20" x="194.384766"/>
     <use xlink:href="#AptosDisplay-76" x="213.671875"/>
     <use xlink:href="#AptosDisplay-73" x="256.933594"/>
     <use xlink:href="#AptosDisplay-20" x="303.222656"/>
     <use xlink:href="#AptosDisplay-54" x="322.509766"/>
     <use xlink:href="#AptosDisplay-69" x="370.214844"/>
     <use xlink:href="#AptosDisplay-6d" x="391.259766"/>
     <use xlink:href="#AptosDisplay-65" x="471.240234"/>
    </g>
   </g>
  </g>
 </g>
 <defs>
  <clipPath id="pb0e3e2b916">
   <rect x="105.740625" y="57.8325" width="669.6" height="443.52"/>
  </clipPath>
 </defs>
</svg>
