<?xml version="1.0" encoding="utf-8" standalone="no"?>
<!DOCTYPE svg PUBLIC "-//W3C//DTD SVG 1.1//EN"
  "http://www.w3.org/Graphics/SVG/1.1/DTD/svg11.dtd">
<svg xmlns:xlink="http://www.w3.org/1999/xlink" width="800.88125pt" height="581.830625pt" viewBox="0 0 800.88125 581.830625" xmlns="http://www.w3.org/2000/svg" version="1.1">
 <metadata>
  <rdf:RDF xmlns:dc="http://purl.org/dc/elements/1.1/" xmlns:cc="http://creativecommons.org/ns#" xmlns:rdf="http://www.w3.org/1999/02/22-rdf-syntax-ns#">
   <cc:Work>
    <dc:type rdf:resource="http://purl.org/dc/dcmitype/StillImage"/>
    <dc:date>2025-04-03T01:48:56.992395</dc:date>
    <dc:format>image/svg+xml</dc:format>
    <dc:creator>
     <cc:Agent>
      <dc:title>Matplotlib v3.8.2, https://matplotlib.org/</dc:title>
     </cc:Agent>
    </dc:creator>
   </cc:Work>
  </rdf:RDF>
 </metadata>
 <defs>
  <style type="text/css">*{stroke-linejoin: round; stroke-linecap: butt}</style>
 </defs>
 <g id="figure_1">
  <g id="patch_1">
   <path d="M 0 581.830625 
L 800.88125 581.830625 
L 800.88125 0 
L 0 0 
z
" style="fill: #ffffff"/>
  </g>
  <g id="axes_1">
   <g id="patch_2">
    <path d="M 95.28125 501.3525 
L 764.88125 501.3525 
L 764.88125 57.8325 
L 95.28125 57.8325 
z
" style="fill: #ffffff"/>
   </g>
   <g id="matplotlib.axis_1">
    <g id="xtick_1">
     <g id="line2d_1">
      <path d="M 125.344186 501.3525 
L 125.344186 57.8325 
" clip-path="url(#pe9d59e7f95)" style="fill: none; stroke: #b0b0b0; stroke-opacity: 0.8; stroke-linecap: square"/>
     </g>
     <g id="line2d_2">
      <defs>
       <path id="ma6c2eed420" d="M 0 0 
L 0 3.5 
" style="stroke: #000000; stroke-width: 0.8"/>
      </defs>
      <g>
       <use xlink:href="#ma6c2eed420" x="125.344186" y="501.3525" style="stroke: #000000; stroke-width: 0.8"/>
      </g>
     </g>
     <g id="text_1">
      <!-- 0 -->
      <g transform="translate(120.114498 521.49625) scale(0.2 -0.2)">
       <defs>
        <path id="AptosDisplay-30" d="M 1672 -56 
Q 1291 -56 1028 105 
Q 766 266 605 552 
Q 444 838 372 1216 
Q 300 1594 300 2031 
Q 300 2475 372 2856 
Q 444 3238 605 3525 
Q 766 3813 1028 3973 
Q 1291 4134 1672 4134 
Q 2053 4134 2317 3975 
Q 2581 3816 2742 3527 
Q 2903 3238 2975 2858 
Q 3047 2478 3047 2038 
Q 3047 1597 2975 1217 
Q 2903 838 2742 552 
Q 2581 266 2318 105 
Q 2056 -56 1672 -56 
z
M 1672 409 
Q 1916 409 2073 550 
Q 2231 691 2322 925 
Q 2413 1159 2448 1448 
Q 2484 1738 2484 2038 
Q 2484 2338 2448 2628 
Q 2413 2919 2322 3153 
Q 2231 3388 2073 3527 
Q 1916 3666 1669 3666 
Q 1428 3666 1268 3527 
Q 1109 3388 1020 3153 
Q 931 2919 893 2628 
Q 856 2338 856 2038 
Q 856 1741 893 1450 
Q 931 1159 1020 925 
Q 1109 691 1268 550 
Q 1428 409 1672 409 
z
" transform="scale(0.015625)"/>
       </defs>
       <use xlink:href="#AptosDisplay-30"/>
      </g>
     </g>
    </g>
    <g id="xtick_2">
     <g id="line2d_3">
      <path d="M 207.960997 501.3525 
L 207.960997 57.8325 
" clip-path="url(#pe9d59e7f95)" style="fill: none; stroke: #b0b0b0; stroke-opacity: 0.8; stroke-linecap: square"/>
     </g>
     <g id="line2d_4">
      <g>
       <use xlink:href="#ma6c2eed420" x="207.960997" y="501.3525" style="stroke: #000000; stroke-width: 0.8"/>
      </g>
     </g>
     <g id="text_2">
      <!-- 25 -->
      <g transform="translate(197.501622 521.49625) scale(0.2 -0.2)">
       <defs>
        <path id="AptosDisplay-32" d="M 247 0 
L 247 413 
L 1725 1741 
Q 2100 2081 2269 2351 
Q 2438 2622 2438 2938 
Q 2438 3256 2263 3461 
Q 2088 3666 1691 3666 
Q 1247 3666 1055 3439 
Q 863 3213 863 2869 
L 341 2869 
Q 341 3250 491 3534 
Q 641 3819 941 3975 
Q 1241 4131 1691 4131 
Q 2103 4131 2390 3986 
Q 2678 3841 2828 3578 
Q 2978 3316 2978 2959 
Q 2978 2638 2853 2375 
Q 2728 2113 2517 1883 
Q 2306 1653 2044 1425 
L 959 463 
L 3097 463 
L 3097 0 
L 247 0 
z
" transform="scale(0.015625)"/>
        <path id="AptosDisplay-35" d="M 1669 -56 
Q 1278 -56 964 83 
Q 650 222 465 483 
Q 281 744 281 1113 
L 816 1113 
Q 816 778 1055 584 
Q 1294 391 1669 391 
Q 2069 391 2291 625 
Q 2513 859 2513 1319 
Q 2513 1772 2291 1989 
Q 2069 2206 1697 2206 
Q 1409 2206 1223 2123 
Q 1038 2041 916 1894 
L 444 1894 
L 622 4078 
L 2788 4078 
L 2788 3613 
L 1041 3613 
L 931 2322 
Q 1044 2453 1251 2550 
Q 1459 2647 1775 2647 
Q 2131 2647 2420 2506 
Q 2709 2366 2881 2072 
Q 3053 1778 3053 1319 
Q 3053 863 2875 558 
Q 2697 253 2384 98 
Q 2072 -56 1669 -56 
z
" transform="scale(0.015625)"/>
       </defs>
       <use xlink:href="#AptosDisplay-32"/>
       <use xlink:href="#AptosDisplay-35" x="52.294922"/>
      </g>
     </g>
    </g>
    <g id="xtick_3">
     <g id="line2d_5">
      <path d="M 290.577808 501.3525 
L 290.577808 57.8325 
" clip-path="url(#pe9d59e7f95)" style="fill: none; stroke: #b0b0b0; stroke-opacity: 0.8; stroke-linecap: square"/>
     </g>
     <g id="line2d_6">
      <g>
       <use xlink:href="#ma6c2eed420" x="290.577808" y="501.3525" style="stroke: #000000; stroke-width: 0.8"/>
      </g>
     </g>
     <g id="text_3">
      <!-- 50 -->
      <g transform="translate(280.118433 521.49625) scale(0.2 -0.2)">
       <use xlink:href="#AptosDisplay-35"/>
       <use xlink:href="#AptosDisplay-30" x="52.294922"/>
      </g>
     </g>
    </g>
    <g id="xtick_4">
     <g id="line2d_7">
      <path d="M 373.194619 501.3525 
L 373.194619 57.8325 
" clip-path="url(#pe9d59e7f95)" style="fill: none; stroke: #b0b0b0; stroke-opacity: 0.8; stroke-linecap: square"/>
     </g>
     <g id="line2d_8">
      <g>
       <use xlink:href="#ma6c2eed420" x="373.194619" y="501.3525" style="stroke: #000000; stroke-width: 0.8"/>
      </g>
     </g>
     <g id="text_4">
      <!-- 75 -->
      <g transform="translate(362.735244 521.49625) scale(0.2 -0.2)">
       <defs>
        <path id="AptosDisplay-37" d="M 766 0 
L 2609 3600 
L 194 3600 
L 194 4078 
L 3141 4078 
L 3141 3622 
L 1334 0 
L 766 0 
z
" transform="scale(0.015625)"/>
       </defs>
       <use xlink:href="#AptosDisplay-37"/>
       <use xlink:href="#AptosDisplay-35" x="52.294922"/>
      </g>
     </g>
    </g>
    <g id="xtick_5">
     <g id="line2d_9">
      <path d="M 455.81143 501.3525 
L 455.81143 57.8325 
" clip-path="url(#pe9d59e7f95)" style="fill: none; stroke: #b0b0b0; stroke-opacity: 0.8; stroke-linecap: square"/>
     </g>
     <g id="line2d_10">
      <g>
       <use xlink:href="#ma6c2eed420" x="455.81143" y="501.3525" style="stroke: #000000; stroke-width: 0.8"/>
      </g>
     </g>
     <g id="text_5">
      <!-- 100 -->
      <g transform="translate(440.122367 521.49625) scale(0.2 -0.2)">
       <defs>
        <path id="AptosDisplay-31" d="M 1659 0 
L 1659 3425 
Q 1575 3309 1420 3201 
Q 1266 3094 1052 3009 
Q 838 2925 578 2888 
L 578 3381 
Q 834 3425 1057 3540 
Q 1281 3656 1453 3806 
Q 1625 3956 1719 4094 
L 2206 4094 
L 2206 0 
L 1659 0 
z
" transform="scale(0.015625)"/>
       </defs>
       <use xlink:href="#AptosDisplay-31"/>
       <use xlink:href="#AptosDisplay-30" x="52.294922"/>
       <use xlink:href="#AptosDisplay-30" x="104.589844"/>
      </g>
     </g>
    </g>
    <g id="xtick_6">
     <g id="line2d_11">
      <path d="M 538.428241 501.3525 
L 538.428241 57.8325 
" clip-path="url(#pe9d59e7f95)" style="fill: none; stroke: #b0b0b0; stroke-opacity: 0.8; stroke-linecap: square"/>
     </g>
     <g id="line2d_12">
      <g>
       <use xlink:href="#ma6c2eed420" x="538.428241" y="501.3525" style="stroke: #000000; stroke-width: 0.8"/>
      </g>
     </g>
     <g id="text_6">
      <!-- 125 -->
      <g transform="translate(522.739178 521.49625) scale(0.2 -0.2)">
       <use xlink:href="#AptosDisplay-31"/>
       <use xlink:href="#AptosDisplay-32" x="52.294922"/>
       <use xlink:href="#AptosDisplay-35" x="104.589844"/>
      </g>
     </g>
    </g>
    <g id="xtick_7">
     <g id="line2d_13">
      <path d="M 621.045052 501.3525 
L 621.045052 57.8325 
" clip-path="url(#pe9d59e7f95)" style="fill: none; stroke: #b0b0b0; stroke-opacity: 0.8; stroke-linecap: square"/>
     </g>
     <g id="line2d_14">
      <g>
       <use xlink:href="#ma6c2eed420" x="621.045052" y="501.3525" style="stroke: #000000; stroke-width: 0.8"/>
      </g>
     </g>
     <g id="text_7">
      <!-- 150 -->
      <g transform="translate(605.355989 521.49625) scale(0.2 -0.2)">
       <use xlink:href="#AptosDisplay-31"/>
       <use xlink:href="#AptosDisplay-35" x="52.294922"/>
       <use xlink:href="#AptosDisplay-30" x="104.589844"/>
      </g>
     </g>
    </g>
    <g id="xtick_8">
     <g id="line2d_15">
      <path d="M 703.661863 501.3525 
L 703.661863 57.8325 
" clip-path="url(#pe9d59e7f95)" style="fill: none; stroke: #b0b0b0; stroke-opacity: 0.8; stroke-linecap: square"/>
     </g>
     <g id="line2d_16">
      <g>
       <use xlink:href="#ma6c2eed420" x="703.661863" y="501.3525" style="stroke: #000000; stroke-width: 0.8"/>
      </g>
     </g>
     <g id="text_8">
      <!-- 175 -->
      <g transform="translate(687.9728 521.49625) scale(0.2 -0.2)">
       <use xlink:href="#AptosDisplay-31"/>
       <use xlink:href="#AptosDisplay-37" x="52.294922"/>
       <use xlink:href="#AptosDisplay-35" x="104.589844"/>
      </g>
     </g>
    </g>
    <g id="xtick_9">
     <g id="line2d_17">
      <path d="M 108.820823 501.3525 
L 108.820823 57.8325 
" clip-path="url(#pe9d59e7f95)" style="fill: none; stroke-dasharray: 1.85,0.8; stroke-dashoffset: 0; stroke: #b0b0b0; stroke-opacity: 0.8; stroke-width: 0.5"/>
     </g>
     <g id="line2d_18">
      <defs>
       <path id="m9b3f3cde89" d="M 0 0 
L 0 2 
" style="stroke: #000000; stroke-width: 0.6"/>
      </defs>
      <g>
       <use xlink:href="#m9b3f3cde89" x="108.820823" y="501.3525" style="stroke: #000000; stroke-width: 0.6"/>
      </g>
     </g>
    </g>
    <g id="xtick_10">
     <g id="line2d_19">
      <path d="M 141.867548 501.3525 
L 141.867548 57.8325 
" clip-path="url(#pe9d59e7f95)" style="fill: none; stroke-dasharray: 1.85,0.8; stroke-dashoffset: 0; stroke: #b0b0b0; stroke-opacity: 0.8; stroke-width: 0.5"/>
     </g>
     <g id="line2d_20">
      <g>
       <use xlink:href="#m9b3f3cde89" x="141.867548" y="501.3525" style="stroke: #000000; stroke-width: 0.6"/>
      </g>
     </g>
    </g>
    <g id="xtick_11">
     <g id="line2d_21">
      <path d="M 158.39091 501.3525 
L 158.39091 57.8325 
" clip-path="url(#pe9d59e7f95)" style="fill: none; stroke-dasharray: 1.85,0.8; stroke-dashoffset: 0; stroke: #b0b0b0; stroke-opacity: 0.8; stroke-width: 0.5"/>
     </g>
     <g id="line2d_22">
      <g>
       <use xlink:href="#m9b3f3cde89" x="158.39091" y="501.3525" style="stroke: #000000; stroke-width: 0.6"/>
      </g>
     </g>
    </g>
    <g id="xtick_12">
     <g id="line2d_23">
      <path d="M 174.914272 501.3525 
L 174.914272 57.8325 
" clip-path="url(#pe9d59e7f95)" style="fill: none; stroke-dasharray: 1.85,0.8; stroke-dashoffset: 0; stroke: #b0b0b0; stroke-opacity: 0.8; stroke-width: 0.5"/>
     </g>
     <g id="line2d_24">
      <g>
       <use xlink:href="#m9b3f3cde89" x="174.914272" y="501.3525" style="stroke: #000000; stroke-width: 0.6"/>
      </g>
     </g>
    </g>
    <g id="xtick_13">
     <g id="line2d_25">
      <path d="M 191.437634 501.3525 
L 191.437634 57.8325 
" clip-path="url(#pe9d59e7f95)" style="fill: none; stroke-dasharray: 1.85,0.8; stroke-dashoffset: 0; stroke: #b0b0b0; stroke-opacity: 0.8; stroke-width: 0.5"/>
     </g>
     <g id="line2d_26">
      <g>
       <use xlink:href="#m9b3f3cde89" x="191.437634" y="501.3525" style="stroke: #000000; stroke-width: 0.6"/>
      </g>
     </g>
    </g>
    <g id="xtick_14">
     <g id="line2d_27">
      <path d="M 224.484359 501.3525 
L 224.484359 57.8325 
" clip-path="url(#pe9d59e7f95)" style="fill: none; stroke-dasharray: 1.85,0.8; stroke-dashoffset: 0; stroke: #b0b0b0; stroke-opacity: 0.8; stroke-width: 0.5"/>
     </g>
     <g id="line2d_28">
      <g>
       <use xlink:href="#m9b3f3cde89" x="224.484359" y="501.3525" style="stroke: #000000; stroke-width: 0.6"/>
      </g>
     </g>
    </g>
    <g id="xtick_15">
     <g id="line2d_29">
      <path d="M 241.007721 501.3525 
L 241.007721 57.8325 
" clip-path="url(#pe9d59e7f95)" style="fill: none; stroke-dasharray: 1.85,0.8; stroke-dashoffset: 0; stroke: #b0b0b0; stroke-opacity: 0.8; stroke-width: 0.5"/>
     </g>
     <g id="line2d_30">
      <g>
       <use xlink:href="#m9b3f3cde89" x="241.007721" y="501.3525" style="stroke: #000000; stroke-width: 0.6"/>
      </g>
     </g>
    </g>
    <g id="xtick_16">
     <g id="line2d_31">
      <path d="M 257.531083 501.3525 
L 257.531083 57.8325 
" clip-path="url(#pe9d59e7f95)" style="fill: none; stroke-dasharray: 1.85,0.8; stroke-dashoffset: 0; stroke: #b0b0b0; stroke-opacity: 0.8; stroke-width: 0.5"/>
     </g>
     <g id="line2d_32">
      <g>
       <use xlink:href="#m9b3f3cde89" x="257.531083" y="501.3525" style="stroke: #000000; stroke-width: 0.6"/>
      </g>
     </g>
    </g>
    <g id="xtick_17">
     <g id="line2d_33">
      <path d="M 274.054445 501.3525 
L 274.054445 57.8325 
" clip-path="url(#pe9d59e7f95)" style="fill: none; stroke-dasharray: 1.85,0.8; stroke-dashoffset: 0; stroke: #b0b0b0; stroke-opacity: 0.8; stroke-width: 0.5"/>
     </g>
     <g id="line2d_34">
      <g>
       <use xlink:href="#m9b3f3cde89" x="274.054445" y="501.3525" style="stroke: #000000; stroke-width: 0.6"/>
      </g>
     </g>
    </g>
    <g id="xtick_18">
     <g id="line2d_35">
      <path d="M 307.10117 501.3525 
L 307.10117 57.8325 
" clip-path="url(#pe9d59e7f95)" style="fill: none; stroke-dasharray: 1.85,0.8; stroke-dashoffset: 0; stroke: #b0b0b0; stroke-opacity: 0.8; stroke-width: 0.5"/>
     </g>
     <g id="line2d_36">
      <g>
       <use xlink:href="#m9b3f3cde89" x="307.10117" y="501.3525" style="stroke: #000000; stroke-width: 0.6"/>
      </g>
     </g>
    </g>
    <g id="xtick_19">
     <g id="line2d_37">
      <path d="M 323.624532 501.3525 
L 323.624532 57.8325 
" clip-path="url(#pe9d59e7f95)" style="fill: none; stroke-dasharray: 1.85,0.8; stroke-dashoffset: 0; stroke: #b0b0b0; stroke-opacity: 0.8; stroke-width: 0.5"/>
     </g>
     <g id="line2d_38">
      <g>
       <use xlink:href="#m9b3f3cde89" x="323.624532" y="501.3525" style="stroke: #000000; stroke-width: 0.6"/>
      </g>
     </g>
    </g>
    <g id="xtick_20">
     <g id="line2d_39">
      <path d="M 340.147894 501.3525 
L 340.147894 57.8325 
" clip-path="url(#pe9d59e7f95)" style="fill: none; stroke-dasharray: 1.85,0.8; stroke-dashoffset: 0; stroke: #b0b0b0; stroke-opacity: 0.8; stroke-width: 0.5"/>
     </g>
     <g id="line2d_40">
      <g>
       <use xlink:href="#m9b3f3cde89" x="340.147894" y="501.3525" style="stroke: #000000; stroke-width: 0.6"/>
      </g>
     </g>
    </g>
    <g id="xtick_21">
     <g id="line2d_41">
      <path d="M 356.671256 501.3525 
L 356.671256 57.8325 
" clip-path="url(#pe9d59e7f95)" style="fill: none; stroke-dasharray: 1.85,0.8; stroke-dashoffset: 0; stroke: #b0b0b0; stroke-opacity: 0.8; stroke-width: 0.5"/>
     </g>
     <g id="line2d_42">
      <g>
       <use xlink:href="#m9b3f3cde89" x="356.671256" y="501.3525" style="stroke: #000000; stroke-width: 0.6"/>
      </g>
     </g>
    </g>
    <g id="xtick_22">
     <g id="line2d_43">
      <path d="M 389.717981 501.3525 
L 389.717981 57.8325 
" clip-path="url(#pe9d59e7f95)" style="fill: none; stroke-dasharray: 1.85,0.8; stroke-dashoffset: 0; stroke: #b0b0b0; stroke-opacity: 0.8; stroke-width: 0.5"/>
     </g>
     <g id="line2d_44">
      <g>
       <use xlink:href="#m9b3f3cde89" x="389.717981" y="501.3525" style="stroke: #000000; stroke-width: 0.6"/>
      </g>
     </g>
    </g>
    <g id="xtick_23">
     <g id="line2d_45">
      <path d="M 406.241343 501.3525 
L 406.241343 57.8325 
" clip-path="url(#pe9d59e7f95)" style="fill: none; stroke-dasharray: 1.85,0.8; stroke-dashoffset: 0; stroke: #b0b0b0; stroke-opacity: 0.8; stroke-width: 0.5"/>
     </g>
     <g id="line2d_46">
      <g>
       <use xlink:href="#m9b3f3cde89" x="406.241343" y="501.3525" style="stroke: #000000; stroke-width: 0.6"/>
      </g>
     </g>
    </g>
    <g id="xtick_24">
     <g id="line2d_47">
      <path d="M 422.764705 501.3525 
L 422.764705 57.8325 
" clip-path="url(#pe9d59e7f95)" style="fill: none; stroke-dasharray: 1.85,0.8; stroke-dashoffset: 0; stroke: #b0b0b0; stroke-opacity: 0.8; stroke-width: 0.5"/>
     </g>
     <g id="line2d_48">
      <g>
       <use xlink:href="#m9b3f3cde89" x="422.764705" y="501.3525" style="stroke: #000000; stroke-width: 0.6"/>
      </g>
     </g>
    </g>
    <g id="xtick_25">
     <g id="line2d_49">
      <path d="M 439.288067 501.3525 
L 439.288067 57.8325 
" clip-path="url(#pe9d59e7f95)" style="fill: none; stroke-dasharray: 1.85,0.8; stroke-dashoffset: 0; stroke: #b0b0b0; stroke-opacity: 0.8; stroke-width: 0.5"/>
     </g>
     <g id="line2d_50">
      <g>
       <use xlink:href="#m9b3f3cde89" x="439.288067" y="501.3525" style="stroke: #000000; stroke-width: 0.6"/>
      </g>
     </g>
    </g>
    <g id="xtick_26">
     <g id="line2d_51">
      <path d="M 472.334792 501.3525 
L 472.334792 57.8325 
" clip-path="url(#pe9d59e7f95)" style="fill: none; stroke-dasharray: 1.85,0.8; stroke-dashoffset: 0; stroke: #b0b0b0; stroke-opacity: 0.8; stroke-width: 0.5"/>
     </g>
     <g id="line2d_52">
      <g>
       <use xlink:href="#m9b3f3cde89" x="472.334792" y="501.3525" style="stroke: #000000; stroke-width: 0.6"/>
      </g>
     </g>
    </g>
    <g id="xtick_27">
     <g id="line2d_53">
      <path d="M 488.858154 501.3525 
L 488.858154 57.8325 
" clip-path="url(#pe9d59e7f95)" style="fill: none; stroke-dasharray: 1.85,0.8; stroke-dashoffset: 0; stroke: #b0b0b0; stroke-opacity: 0.8; stroke-width: 0.5"/>
     </g>
     <g id="line2d_54">
      <g>
       <use xlink:href="#m9b3f3cde89" x="488.858154" y="501.3525" style="stroke: #000000; stroke-width: 0.6"/>
      </g>
     </g>
    </g>
    <g id="xtick_28">
     <g id="line2d_55">
      <path d="M 505.381516 501.3525 
L 505.381516 57.8325 
" clip-path="url(#pe9d59e7f95)" style="fill: none; stroke-dasharray: 1.85,0.8; stroke-dashoffset: 0; stroke: #b0b0b0; stroke-opacity: 0.8; stroke-width: 0.5"/>
     </g>
     <g id="line2d_56">
      <g>
       <use xlink:href="#m9b3f3cde89" x="505.381516" y="501.3525" style="stroke: #000000; stroke-width: 0.6"/>
      </g>
     </g>
    </g>
    <g id="xtick_29">
     <g id="line2d_57">
      <path d="M 521.904878 501.3525 
L 521.904878 57.8325 
" clip-path="url(#pe9d59e7f95)" style="fill: none; stroke-dasharray: 1.85,0.8; stroke-dashoffset: 0; stroke: #b0b0b0; stroke-opacity: 0.8; stroke-width: 0.5"/>
     </g>
     <g id="line2d_58">
      <g>
       <use xlink:href="#m9b3f3cde89" x="521.904878" y="501.3525" style="stroke: #000000; stroke-width: 0.6"/>
      </g>
     </g>
    </g>
    <g id="xtick_30">
     <g id="line2d_59">
      <path d="M 554.951603 501.3525 
L 554.951603 57.8325 
" clip-path="url(#pe9d59e7f95)" style="fill: none; stroke-dasharray: 1.85,0.8; stroke-dashoffset: 0; stroke: #b0b0b0; stroke-opacity: 0.8; stroke-width: 0.5"/>
     </g>
     <g id="line2d_60">
      <g>
       <use xlink:href="#m9b3f3cde89" x="554.951603" y="501.3525" style="stroke: #000000; stroke-width: 0.6"/>
      </g>
     </g>
    </g>
    <g id="xtick_31">
     <g id="line2d_61">
      <path d="M 571.474965 501.3525 
L 571.474965 57.8325 
" clip-path="url(#pe9d59e7f95)" style="fill: none; stroke-dasharray: 1.85,0.8; stroke-dashoffset: 0; stroke: #b0b0b0; stroke-opacity: 0.8; stroke-width: 0.5"/>
     </g>
     <g id="line2d_62">
      <g>
       <use xlink:href="#m9b3f3cde89" x="571.474965" y="501.3525" style="stroke: #000000; stroke-width: 0.6"/>
      </g>
     </g>
    </g>
    <g id="xtick_32">
     <g id="line2d_63">
      <path d="M 587.998327 501.3525 
L 587.998327 57.8325 
" clip-path="url(#pe9d59e7f95)" style="fill: none; stroke-dasharray: 1.85,0.8; stroke-dashoffset: 0; stroke: #b0b0b0; stroke-opacity: 0.8; stroke-width: 0.5"/>
     </g>
     <g id="line2d_64">
      <g>
       <use xlink:href="#m9b3f3cde89" x="587.998327" y="501.3525" style="stroke: #000000; stroke-width: 0.6"/>
      </g>
     </g>
    </g>
    <g id="xtick_33">
     <g id="line2d_65">
      <path d="M 604.521689 501.3525 
L 604.521689 57.8325 
" clip-path="url(#pe9d59e7f95)" style="fill: none; stroke-dasharray: 1.85,0.8; stroke-dashoffset: 0; stroke: #b0b0b0; stroke-opacity: 0.8; stroke-width: 0.5"/>
     </g>
     <g id="line2d_66">
      <g>
       <use xlink:href="#m9b3f3cde89" x="604.521689" y="501.3525" style="stroke: #000000; stroke-width: 0.6"/>
      </g>
     </g>
    </g>
    <g id="xtick_34">
     <g id="line2d_67">
      <path d="M 637.568414 501.3525 
L 637.568414 57.8325 
" clip-path="url(#pe9d59e7f95)" style="fill: none; stroke-dasharray: 1.85,0.8; stroke-dashoffset: 0; stroke: #b0b0b0; stroke-opacity: 0.8; stroke-width: 0.5"/>
     </g>
     <g id="line2d_68">
      <g>
       <use xlink:href="#m9b3f3cde89" x="637.568414" y="501.3525" style="stroke: #000000; stroke-width: 0.6"/>
      </g>
     </g>
    </g>
    <g id="xtick_35">
     <g id="line2d_69">
      <path d="M 654.091776 501.3525 
L 654.091776 57.8325 
" clip-path="url(#pe9d59e7f95)" style="fill: none; stroke-dasharray: 1.85,0.8; stroke-dashoffset: 0; stroke: #b0b0b0; stroke-opacity: 0.8; stroke-width: 0.5"/>
     </g>
     <g id="line2d_70">
      <g>
       <use xlink:href="#m9b3f3cde89" x="654.091776" y="501.3525" style="stroke: #000000; stroke-width: 0.6"/>
      </g>
     </g>
    </g>
    <g id="xtick_36">
     <g id="line2d_71">
      <path d="M 670.615138 501.3525 
L 670.615138 57.8325 
" clip-path="url(#pe9d59e7f95)" style="fill: none; stroke-dasharray: 1.85,0.8; stroke-dashoffset: 0; stroke: #b0b0b0; stroke-opacity: 0.8; stroke-width: 0.5"/>
     </g>
     <g id="line2d_72">
      <g>
       <use xlink:href="#m9b3f3cde89" x="670.615138" y="501.3525" style="stroke: #000000; stroke-width: 0.6"/>
      </g>
     </g>
    </g>
    <g id="xtick_37">
     <g id="line2d_73">
      <path d="M 687.1385 501.3525 
L 687.1385 57.8325 
" clip-path="url(#pe9d59e7f95)" style="fill: none; stroke-dasharray: 1.85,0.8; stroke-dashoffset: 0; stroke: #b0b0b0; stroke-opacity: 0.8; stroke-width: 0.5"/>
     </g>
     <g id="line2d_74">
      <g>
       <use xlink:href="#m9b3f3cde89" x="687.1385" y="501.3525" style="stroke: #000000; stroke-width: 0.6"/>
      </g>
     </g>
    </g>
    <g id="xtick_38">
     <g id="line2d_75">
      <path d="M 720.185225 501.3525 
L 720.185225 57.8325 
" clip-path="url(#pe9d59e7f95)" style="fill: none; stroke-dasharray: 1.85,0.8; stroke-dashoffset: 0; stroke: #b0b0b0; stroke-opacity: 0.8; stroke-width: 0.5"/>
     </g>
     <g id="line2d_76">
      <g>
       <use xlink:href="#m9b3f3cde89" x="720.185225" y="501.3525" style="stroke: #000000; stroke-width: 0.6"/>
      </g>
     </g>
    </g>
    <g id="xtick_39">
     <g id="line2d_77">
      <path d="M 736.708587 501.3525 
L 736.708587 57.8325 
" clip-path="url(#pe9d59e7f95)" style="fill: none; stroke-dasharray: 1.85,0.8; stroke-dashoffset: 0; stroke: #b0b0b0; stroke-opacity: 0.8; stroke-width: 0.5"/>
     </g>
     <g id="line2d_78">
      <g>
       <use xlink:href="#m9b3f3cde89" x="736.708587" y="501.3525" style="stroke: #000000; stroke-width: 0.6"/>
      </g>
     </g>
    </g>
    <g id="xtick_40">
     <g id="line2d_79">
      <path d="M 753.231949 501.3525 
L 753.231949 57.8325 
" clip-path="url(#pe9d59e7f95)" style="fill: none; stroke-dasharray: 1.85,0.8; stroke-dashoffset: 0; stroke: #b0b0b0; stroke-opacity: 0.8; stroke-width: 0.5"/>
     </g>
     <g id="line2d_80">
      <g>
       <use xlink:href="#m9b3f3cde89" x="753.231949" y="501.3525" style="stroke: #000000; stroke-width: 0.6"/>
      </g>
     </g>
    </g>
    <g id="text_9">
     <!-- Time (S) -->
     <g transform="translate(396.990625 542.305625) scale(0.2 -0.2)">
      <defs>
       <path id="AptosDisplay-54" d="M 1244 0 
L 1244 3734 
L 50 3734 
L 50 4206 
L 2997 4206 
L 2997 3734 
L 1806 3734 
L 1806 0 
L 1244 0 
z
" transform="scale(0.015625)"/>
       <path id="AptosDisplay-69" d="M 413 0 
L 413 3044 
L 934 3044 
L 934 0 
L 413 0 
z
M 675 3616 
Q 525 3616 437 3702 
Q 350 3788 350 3919 
Q 350 4050 437 4136 
Q 525 4222 675 4222 
Q 822 4222 912 4136 
Q 1003 4050 1003 3919 
Q 1003 3788 912 3702 
Q 822 3616 675 3616 
z
" transform="scale(0.015625)"/>
       <path id="AptosDisplay-6d" d="M 413 0 
L 413 3044 
L 919 3044 
L 931 2575 
Q 1063 2756 1303 2914 
Q 1544 3072 1903 3072 
Q 2403 3072 2618 2778 
Q 2834 2484 2834 1963 
L 2834 0 
L 2316 0 
L 2316 1891 
Q 2316 2106 2275 2275 
Q 2234 2444 2120 2539 
Q 2006 2634 1788 2634 
Q 1488 2634 1277 2482 
Q 1066 2331 934 2156 
L 934 0 
L 413 0 
z
M 4206 0 
L 4206 1891 
Q 4206 2106 4164 2275 
Q 4122 2444 4009 2539 
Q 3897 2634 3681 2634 
Q 3381 2634 3165 2484 
Q 2950 2334 2822 2159 
L 2744 2544 
Q 2916 2741 3175 2906 
Q 3434 3072 3800 3072 
Q 4291 3072 4509 2778 
Q 4728 2484 4728 1963 
L 4728 0 
L 4206 0 
z
" transform="scale(0.015625)"/>
       <path id="AptosDisplay-65" d="M 1663 -56 
Q 1188 -56 878 151 
Q 569 359 417 717 
Q 266 1075 266 1522 
Q 266 1988 412 2342 
Q 559 2697 857 2897 
Q 1156 3097 1606 3097 
Q 2209 3097 2550 2722 
Q 2891 2347 2891 1644 
Q 2891 1597 2889 1533 
Q 2888 1469 2881 1441 
L 791 1441 
Q 794 1144 881 895 
Q 969 647 1161 497 
Q 1353 347 1663 347 
Q 1997 347 2183 511 
Q 2369 675 2378 984 
L 2894 984 
Q 2884 663 2732 430 
Q 2581 197 2309 70 
Q 2038 -56 1663 -56 
z
M 794 1822 
L 2375 1822 
Q 2366 2247 2166 2472 
Q 1966 2697 1606 2697 
Q 1241 2697 1036 2473 
Q 831 2250 794 1822 
z
" transform="scale(0.015625)"/>
       <path id="AptosDisplay-20" transform="scale(0.015625)"/>
       <path id="AptosDisplay-28" d="M 1219 -1116 
Q 969 -678 787 -267 
Q 606 144 511 581 
Q 416 1019 416 1528 
Q 416 2028 509 2486 
Q 603 2944 783 3378 
Q 963 3813 1219 4231 
L 1647 4231 
Q 1278 3600 1101 2886 
Q 925 2172 925 1428 
Q 925 766 1125 103 
Q 1325 -559 1647 -1116 
L 1219 -1116 
z
" transform="scale(0.015625)"/>
       <path id="AptosDisplay-53" d="M 1778 -56 
Q 1328 -56 962 81 
Q 597 219 384 512 
Q 172 806 172 1275 
L 734 1275 
Q 738 941 883 750 
Q 1028 559 1267 481 
Q 1506 403 1794 403 
Q 2063 403 2283 483 
Q 2503 563 2634 723 
Q 2766 884 2766 1134 
Q 2766 1356 2662 1497 
Q 2559 1638 2321 1742 
Q 2084 1847 1678 1950 
Q 1203 2075 897 2223 
Q 591 2372 442 2594 
Q 294 2816 294 3156 
Q 294 3516 462 3761 
Q 631 4006 945 4134 
Q 1259 4263 1697 4263 
Q 2103 4263 2440 4131 
Q 2778 4000 2979 3737 
Q 3181 3475 3181 3084 
L 2616 3084 
Q 2622 3441 2356 3623 
Q 2091 3806 1700 3806 
Q 1300 3806 1073 3645 
Q 847 3484 847 3175 
Q 847 2991 944 2867 
Q 1041 2744 1280 2644 
Q 1519 2544 1941 2434 
Q 2428 2303 2731 2153 
Q 3034 2003 3178 1768 
Q 3322 1534 3322 1153 
Q 3322 747 3117 480 
Q 2913 213 2564 78 
Q 2216 -56 1778 -56 
z
" transform="scale(0.015625)"/>
       <path id="AptosDisplay-29" d="M 234 -1116 
Q 609 -481 786 233 
Q 963 947 963 1694 
Q 963 2356 759 3015 
Q 556 3675 234 4231 
L 663 4231 
Q 919 3800 1098 3389 
Q 1278 2978 1373 2540 
Q 1469 2103 1469 1594 
Q 1469 1094 1375 634 
Q 1281 175 1100 -259 
Q 919 -694 663 -1116 
L 234 -1116 
z
" transform="scale(0.015625)"/>
      </defs>
      <use xlink:href="#AptosDisplay-54"/>
      <use xlink:href="#AptosDisplay-69" x="47.705078"/>
      <use xlink:href="#AptosDisplay-6d" x="68.75"/>
      <use xlink:href="#AptosDisplay-65" x="148.730469"/>
      <use xlink:href="#AptosDisplay-20" x="198.144531"/>
      <use xlink:href="#AptosDisplay-28" x="217.431641"/>
      <use xlink:href="#AptosDisplay-53" x="246.875"/>
      <use xlink:href="#AptosDisplay-29" x="301.464844"/>
     </g>
    </g>
   </g>
   <g id="matplotlib.axis_2">
    <g id="ytick_1">
     <g id="line2d_81">
      <path d="M 95.28125 432.835771 
L 764.88125 432.835771 
" clip-path="url(#pe9d59e7f95)" style="fill: none; stroke: #b0b0b0; stroke-opacity: 0.8; stroke-linecap: square"/>
     </g>
     <g id="line2d_82">
      <defs>
       <path id="mfd7857bc48" d="M 0 0 
L -3.5 0 
" style="stroke: #000000; stroke-width: 0.8"/>
      </defs>
      <g>
       <use xlink:href="#mfd7857bc48" x="95.28125" y="432.835771" style="stroke: #000000; stroke-width: 0.8"/>
      </g>
     </g>
     <g id="text_10">
      <!-- 840 -->
      <g transform="translate(56.903125 439.407646) scale(0.2 -0.2)">
       <defs>
        <path id="AptosDisplay-38" d="M 1675 -56 
Q 1391 -56 1137 16 
Q 884 88 686 234 
Q 488 381 373 606 
Q 259 831 259 1141 
Q 259 1531 495 1797 
Q 731 2063 1084 2150 
Q 781 2250 604 2490 
Q 428 2731 428 3081 
Q 428 3447 609 3681 
Q 791 3916 1075 4025 
Q 1359 4134 1669 4134 
Q 1981 4134 2265 4023 
Q 2550 3913 2733 3680 
Q 2916 3447 2916 3081 
Q 2916 2725 2716 2481 
Q 2516 2238 2238 2150 
Q 2606 2063 2843 1800 
Q 3081 1538 3081 1141 
Q 3081 831 2968 606 
Q 2856 381 2661 234 
Q 2466 88 2211 16 
Q 1956 -56 1675 -56 
z
M 1672 388 
Q 1909 388 2109 470 
Q 2309 553 2429 725 
Q 2550 897 2550 1163 
Q 2550 1416 2426 1587 
Q 2303 1759 2104 1846 
Q 1906 1934 1672 1928 
Q 1453 1934 1253 1850 
Q 1053 1766 926 1594 
Q 800 1422 800 1163 
Q 800 775 1058 581 
Q 1316 388 1672 388 
z
M 1672 2363 
Q 1863 2356 2030 2434 
Q 2197 2513 2300 2667 
Q 2403 2822 2403 3050 
Q 2403 3388 2189 3544 
Q 1975 3700 1675 3700 
Q 1484 3700 1317 3631 
Q 1150 3563 1047 3419 
Q 944 3275 944 3050 
Q 944 2825 1048 2670 
Q 1153 2516 1320 2436 
Q 1488 2356 1672 2363 
z
" transform="scale(0.015625)"/>
        <path id="AptosDisplay-34" d="M 2106 0 
L 2106 825 
L 125 825 
L 125 1297 
L 2100 4103 
L 2631 4103 
L 2631 1284 
L 3191 1284 
L 3191 825 
L 2631 825 
L 2631 0 
L 2106 0 
z
M 638 1284 
L 2113 1284 
L 2113 3369 
L 638 1284 
z
" transform="scale(0.015625)"/>
       </defs>
       <use xlink:href="#AptosDisplay-38"/>
       <use xlink:href="#AptosDisplay-34" x="52.294922"/>
       <use xlink:href="#AptosDisplay-30" x="104.589844"/>
      </g>
     </g>
    </g>
    <g id="ytick_2">
     <g id="line2d_83">
      <path d="M 95.28125 349.691465 
L 764.88125 349.691465 
" clip-path="url(#pe9d59e7f95)" style="fill: none; stroke: #b0b0b0; stroke-opacity: 0.8; stroke-linecap: square"/>
     </g>
     <g id="line2d_84">
      <g>
       <use xlink:href="#mfd7857bc48" x="95.28125" y="349.691465" style="stroke: #000000; stroke-width: 0.8"/>
      </g>
     </g>
     <g id="text_11">
      <!-- 860 -->
      <g transform="translate(56.903125 356.26334) scale(0.2 -0.2)">
       <defs>
        <path id="AptosDisplay-36" d="M 1759 -56 
Q 1325 -56 984 151 
Q 644 359 447 815 
Q 250 1272 250 2013 
Q 250 2738 439 3206 
Q 628 3675 968 3903 
Q 1309 4131 1759 4131 
Q 2253 4131 2595 3875 
Q 2938 3619 3034 3097 
L 2503 3097 
Q 2441 3388 2250 3534 
Q 2059 3681 1759 3681 
Q 1306 3681 1047 3279 
Q 788 2878 788 2013 
L 788 1850 
Q 788 1313 922 992 
Q 1056 672 1279 531 
Q 1503 391 1763 391 
Q 2175 391 2369 644 
Q 2563 897 2563 1272 
Q 2563 1650 2373 1869 
Q 2184 2088 1838 2088 
Q 1422 2088 1114 1897 
Q 806 1706 644 1456 
L 597 1856 
Q 728 2047 922 2201 
Q 1116 2356 1362 2447 
Q 1609 2538 1909 2538 
Q 2253 2538 2523 2395 
Q 2794 2253 2951 1975 
Q 3109 1697 3109 1291 
Q 3109 897 2951 592 
Q 2794 288 2492 116 
Q 2191 -56 1759 -56 
z
" transform="scale(0.015625)"/>
       </defs>
       <use xlink:href="#AptosDisplay-38"/>
       <use xlink:href="#AptosDisplay-36" x="52.294922"/>
       <use xlink:href="#AptosDisplay-30" x="104.589844"/>
      </g>
     </g>
    </g>
    <g id="ytick_3">
     <g id="line2d_85">
      <path d="M 95.28125 266.547158 
L 764.88125 266.547158 
" clip-path="url(#pe9d59e7f95)" style="fill: none; stroke: #b0b0b0; stroke-opacity: 0.8; stroke-linecap: square"/>
     </g>
     <g id="line2d_86">
      <g>
       <use xlink:href="#mfd7857bc48" x="95.28125" y="266.547158" style="stroke: #000000; stroke-width: 0.8"/>
      </g>
     </g>
     <g id="text_12">
      <!-- 880 -->
      <g transform="translate(56.903125 273.119033) scale(0.2 -0.2)">
       <use xlink:href="#AptosDisplay-38"/>
       <use xlink:href="#AptosDisplay-38" x="52.294922"/>
       <use xlink:href="#AptosDisplay-30" x="104.589844"/>
      </g>
     </g>
    </g>
    <g id="ytick_4">
     <g id="line2d_87">
      <path d="M 95.28125 183.402852 
L 764.88125 183.402852 
" clip-path="url(#pe9d59e7f95)" style="fill: none; stroke: #b0b0b0; stroke-opacity: 0.8; stroke-linecap: square"/>
     </g>
     <g id="line2d_88">
      <g>
       <use xlink:href="#mfd7857bc48" x="95.28125" y="183.402852" style="stroke: #000000; stroke-width: 0.8"/>
      </g>
     </g>
     <g id="text_13">
      <!-- 900 -->
      <g transform="translate(56.903125 189.974727) scale(0.2 -0.2)">
       <defs>
        <path id="AptosDisplay-39" d="M 1547 -56 
Q 1200 -56 926 64 
Q 653 184 481 415 
Q 309 647 256 978 
L 788 978 
Q 834 713 1029 552 
Q 1225 391 1547 391 
Q 2022 391 2294 778 
Q 2566 1166 2566 2019 
L 2566 2197 
Q 2566 2753 2439 3079 
Q 2313 3406 2102 3547 
Q 1891 3688 1634 3688 
Q 1206 3688 998 3433 
Q 791 3178 791 2800 
Q 791 2422 991 2203 
Q 1191 1984 1547 1984 
Q 1831 1984 2045 2071 
Q 2259 2159 2417 2300 
Q 2575 2441 2681 2594 
L 2731 2209 
Q 2609 2038 2432 1884 
Q 2256 1731 2020 1634 
Q 1784 1538 1484 1538 
Q 1122 1538 842 1683 
Q 563 1828 405 2108 
Q 247 2388 247 2784 
Q 247 3175 414 3479 
Q 581 3784 892 3959 
Q 1203 4134 1631 4134 
Q 2056 4134 2389 3926 
Q 2722 3719 2914 3262 
Q 3106 2806 3106 2066 
Q 3106 1338 2912 869 
Q 2719 400 2369 172 
Q 2019 -56 1547 -56 
z
" transform="scale(0.015625)"/>
       </defs>
       <use xlink:href="#AptosDisplay-39"/>
       <use xlink:href="#AptosDisplay-30" x="52.294922"/>
       <use xlink:href="#AptosDisplay-30" x="104.589844"/>
      </g>
     </g>
    </g>
    <g id="ytick_5">
     <g id="line2d_89">
      <path d="M 95.28125 100.258545 
L 764.88125 100.258545 
" clip-path="url(#pe9d59e7f95)" style="fill: none; stroke: #b0b0b0; stroke-opacity: 0.8; stroke-linecap: square"/>
     </g>
     <g id="line2d_90">
      <g>
       <use xlink:href="#mfd7857bc48" x="95.28125" y="100.258545" style="stroke: #000000; stroke-width: 0.8"/>
      </g>
     </g>
     <g id="text_14">
      <!-- 920 -->
      <g transform="translate(56.903125 106.83042) scale(0.2 -0.2)">
       <use xlink:href="#AptosDisplay-39"/>
       <use xlink:href="#AptosDisplay-32" x="52.294922"/>
       <use xlink:href="#AptosDisplay-30" x="104.589844"/>
      </g>
     </g>
    </g>
    <g id="ytick_6">
     <g id="line2d_91">
      <path d="M 95.28125 495.194001 
L 764.88125 495.194001 
" clip-path="url(#pe9d59e7f95)" style="fill: none; stroke-dasharray: 1.85,0.8; stroke-dashoffset: 0; stroke: #b0b0b0; stroke-opacity: 0.8; stroke-width: 0.5"/>
     </g>
     <g id="line2d_92">
      <defs>
       <path id="m7ea4cde802" d="M 0 0 
L -2 0 
" style="stroke: #000000; stroke-width: 0.6"/>
      </defs>
      <g>
       <use xlink:href="#m7ea4cde802" x="95.28125" y="495.194001" style="stroke: #000000; stroke-width: 0.6"/>
      </g>
     </g>
    </g>
    <g id="ytick_7">
     <g id="line2d_93">
      <path d="M 95.28125 474.407925 
L 764.88125 474.407925 
" clip-path="url(#pe9d59e7f95)" style="fill: none; stroke-dasharray: 1.85,0.8; stroke-dashoffset: 0; stroke: #b0b0b0; stroke-opacity: 0.8; stroke-width: 0.5"/>
     </g>
     <g id="line2d_94">
      <g>
       <use xlink:href="#m7ea4cde802" x="95.28125" y="474.407925" style="stroke: #000000; stroke-width: 0.6"/>
      </g>
     </g>
    </g>
    <g id="ytick_8">
     <g id="line2d_95">
      <path d="M 95.28125 453.621848 
L 764.88125 453.621848 
" clip-path="url(#pe9d59e7f95)" style="fill: none; stroke-dasharray: 1.85,0.8; stroke-dashoffset: 0; stroke: #b0b0b0; stroke-opacity: 0.8; stroke-width: 0.5"/>
     </g>
     <g id="line2d_96">
      <g>
       <use xlink:href="#m7ea4cde802" x="95.28125" y="453.621848" style="stroke: #000000; stroke-width: 0.6"/>
      </g>
     </g>
    </g>
    <g id="ytick_9">
     <g id="line2d_97">
      <path d="M 95.28125 412.049695 
L 764.88125 412.049695 
" clip-path="url(#pe9d59e7f95)" style="fill: none; stroke-dasharray: 1.85,0.8; stroke-dashoffset: 0; stroke: #b0b0b0; stroke-opacity: 0.8; stroke-width: 0.5"/>
     </g>
     <g id="line2d_98">
      <g>
       <use xlink:href="#m7ea4cde802" x="95.28125" y="412.049695" style="stroke: #000000; stroke-width: 0.6"/>
      </g>
     </g>
    </g>
    <g id="ytick_10">
     <g id="line2d_99">
      <path d="M 95.28125 391.263618 
L 764.88125 391.263618 
" clip-path="url(#pe9d59e7f95)" style="fill: none; stroke-dasharray: 1.85,0.8; stroke-dashoffset: 0; stroke: #b0b0b0; stroke-opacity: 0.8; stroke-width: 0.5"/>
     </g>
     <g id="line2d_100">
      <g>
       <use xlink:href="#m7ea4cde802" x="95.28125" y="391.263618" style="stroke: #000000; stroke-width: 0.6"/>
      </g>
     </g>
    </g>
    <g id="ytick_11">
     <g id="line2d_101">
      <path d="M 95.28125 370.477541 
L 764.88125 370.477541 
" clip-path="url(#pe9d59e7f95)" style="fill: none; stroke-dasharray: 1.85,0.8; stroke-dashoffset: 0; stroke: #b0b0b0; stroke-opacity: 0.8; stroke-width: 0.5"/>
     </g>
     <g id="line2d_102">
      <g>
       <use xlink:href="#m7ea4cde802" x="95.28125" y="370.477541" style="stroke: #000000; stroke-width: 0.6"/>
      </g>
     </g>
    </g>
    <g id="ytick_12">
     <g id="line2d_103">
      <path d="M 95.28125 328.905388 
L 764.88125 328.905388 
" clip-path="url(#pe9d59e7f95)" style="fill: none; stroke-dasharray: 1.85,0.8; stroke-dashoffset: 0; stroke: #b0b0b0; stroke-opacity: 0.8; stroke-width: 0.5"/>
     </g>
     <g id="line2d_104">
      <g>
       <use xlink:href="#m7ea4cde802" x="95.28125" y="328.905388" style="stroke: #000000; stroke-width: 0.6"/>
      </g>
     </g>
    </g>
    <g id="ytick_13">
     <g id="line2d_105">
      <path d="M 95.28125 308.119312 
L 764.88125 308.119312 
" clip-path="url(#pe9d59e7f95)" style="fill: none; stroke-dasharray: 1.85,0.8; stroke-dashoffset: 0; stroke: #b0b0b0; stroke-opacity: 0.8; stroke-width: 0.5"/>
     </g>
     <g id="line2d_106">
      <g>
       <use xlink:href="#m7ea4cde802" x="95.28125" y="308.119312" style="stroke: #000000; stroke-width: 0.6"/>
      </g>
     </g>
    </g>
    <g id="ytick_14">
     <g id="line2d_107">
      <path d="M 95.28125 287.333235 
L 764.88125 287.333235 
" clip-path="url(#pe9d59e7f95)" style="fill: none; stroke-dasharray: 1.85,0.8; stroke-dashoffset: 0; stroke: #b0b0b0; stroke-opacity: 0.8; stroke-width: 0.5"/>
     </g>
     <g id="line2d_108">
      <g>
       <use xlink:href="#m7ea4cde802" x="95.28125" y="287.333235" style="stroke: #000000; stroke-width: 0.6"/>
      </g>
     </g>
    </g>
    <g id="ytick_15">
     <g id="line2d_109">
      <path d="M 95.28125 245.761082 
L 764.88125 245.761082 
" clip-path="url(#pe9d59e7f95)" style="fill: none; stroke-dasharray: 1.85,0.8; stroke-dashoffset: 0; stroke: #b0b0b0; stroke-opacity: 0.8; stroke-width: 0.5"/>
     </g>
     <g id="line2d_110">
      <g>
       <use xlink:href="#m7ea4cde802" x="95.28125" y="245.761082" style="stroke: #000000; stroke-width: 0.6"/>
      </g>
     </g>
    </g>
    <g id="ytick_16">
     <g id="line2d_111">
      <path d="M 95.28125 224.975005 
L 764.88125 224.975005 
" clip-path="url(#pe9d59e7f95)" style="fill: none; stroke-dasharray: 1.85,0.8; stroke-dashoffset: 0; stroke: #b0b0b0; stroke-opacity: 0.8; stroke-width: 0.5"/>
     </g>
     <g id="line2d_112">
      <g>
       <use xlink:href="#m7ea4cde802" x="95.28125" y="224.975005" style="stroke: #000000; stroke-width: 0.6"/>
      </g>
     </g>
    </g>
    <g id="ytick_17">
     <g id="line2d_113">
      <path d="M 95.28125 204.188928 
L 764.88125 204.188928 
" clip-path="url(#pe9d59e7f95)" style="fill: none; stroke-dasharray: 1.85,0.8; stroke-dashoffset: 0; stroke: #b0b0b0; stroke-opacity: 0.8; stroke-width: 0.5"/>
     </g>
     <g id="line2d_114">
      <g>
       <use xlink:href="#m7ea4cde802" x="95.28125" y="204.188928" style="stroke: #000000; stroke-width: 0.6"/>
      </g>
     </g>
    </g>
    <g id="ytick_18">
     <g id="line2d_115">
      <path d="M 95.28125 162.616775 
L 764.88125 162.616775 
" clip-path="url(#pe9d59e7f95)" style="fill: none; stroke-dasharray: 1.85,0.8; stroke-dashoffset: 0; stroke: #b0b0b0; stroke-opacity: 0.8; stroke-width: 0.5"/>
     </g>
     <g id="line2d_116">
      <g>
       <use xlink:href="#m7ea4cde802" x="95.28125" y="162.616775" style="stroke: #000000; stroke-width: 0.6"/>
      </g>
     </g>
    </g>
    <g id="ytick_19">
     <g id="line2d_117">
      <path d="M 95.28125 141.830699 
L 764.88125 141.830699 
" clip-path="url(#pe9d59e7f95)" style="fill: none; stroke-dasharray: 1.85,0.8; stroke-dashoffset: 0; stroke: #b0b0b0; stroke-opacity: 0.8; stroke-width: 0.5"/>
     </g>
     <g id="line2d_118">
      <g>
       <use xlink:href="#m7ea4cde802" x="95.28125" y="141.830699" style="stroke: #000000; stroke-width: 0.6"/>
      </g>
     </g>
    </g>
    <g id="ytick_20">
     <g id="line2d_119">
      <path d="M 95.28125 121.044622 
L 764.88125 121.044622 
" clip-path="url(#pe9d59e7f95)" style="fill: none; stroke-dasharray: 1.85,0.8; stroke-dashoffset: 0; stroke: #b0b0b0; stroke-opacity: 0.8; stroke-width: 0.5"/>
     </g>
     <g id="line2d_120">
      <g>
       <use xlink:href="#m7ea4cde802" x="95.28125" y="121.044622" style="stroke: #000000; stroke-width: 0.6"/>
      </g>
     </g>
    </g>
    <g id="ytick_21">
     <g id="line2d_121">
      <path d="M 95.28125 79.472469 
L 764.88125 79.472469 
" clip-path="url(#pe9d59e7f95)" style="fill: none; stroke-dasharray: 1.85,0.8; stroke-dashoffset: 0; stroke: #b0b0b0; stroke-opacity: 0.8; stroke-width: 0.5"/>
     </g>
     <g id="line2d_122">
      <g>
       <use xlink:href="#m7ea4cde802" x="95.28125" y="79.472469" style="stroke: #000000; stroke-width: 0.6"/>
      </g>
     </g>
    </g>
    <g id="ytick_22">
     <g id="line2d_123">
      <path d="M 95.28125 58.686392 
L 764.88125 58.686392 
" clip-path="url(#pe9d59e7f95)" style="fill: none; stroke-dasharray: 1.85,0.8; stroke-dashoffset: 0; stroke: #b0b0b0; stroke-opacity: 0.8; stroke-width: 0.5"/>
     </g>
     <g id="line2d_124">
      <g>
       <use xlink:href="#m7ea4cde802" x="95.28125" y="58.686392" style="stroke: #000000; stroke-width: 0.6"/>
      </g>
     </g>
    </g>
    <g id="text_15">
     <!-- Light (W/m^2) -->
     <g transform="translate(49.221875 337.558125) rotate(-90) scale(0.2 -0.2)">
      <defs>
       <path id="AptosDisplay-4c" d="M 472 0 
L 472 4206 
L 1034 4206 
L 1034 484 
L 3000 484 
L 3000 0 
L 472 0 
z
" transform="scale(0.015625)"/>
       <path id="AptosDisplay-67" d="M 1397 -1178 
Q 925 -1178 640 -1065 
Q 356 -953 229 -765 
Q 103 -578 103 -359 
Q 103 -94 329 112 
Q 556 319 1031 403 
L 1128 575 
L 1475 575 
Q 2184 575 2489 376 
Q 2794 178 2794 -238 
Q 2794 -650 2437 -914 
Q 2081 -1178 1397 -1178 
z
M 1384 -800 
Q 1878 -800 2086 -650 
Q 2294 -500 2294 -278 
Q 2294 -147 2225 -51 
Q 2156 44 1975 97 
Q 1794 150 1456 150 
L 1034 150 
Q 819 97 708 -31 
Q 597 -159 597 -328 
Q 597 -516 778 -658 
Q 959 -800 1384 -800 
z
M 1025 216 
Q 722 228 550 312 
Q 378 397 306 511 
Q 234 625 234 722 
Q 234 866 362 1009 
Q 491 1153 772 1241 
L 1038 1069 
Q 866 1031 772 953 
Q 678 875 678 791 
Q 678 731 734 682 
Q 791 634 928 606 
Q 1066 578 1303 575 
L 1025 216 
z
M 1363 984 
Q 1003 984 753 1128 
Q 503 1272 375 1509 
Q 247 1747 247 2022 
Q 247 2313 376 2550 
Q 506 2788 754 2928 
Q 1003 3069 1366 3069 
Q 1738 3069 1983 2928 
Q 2228 2788 2351 2550 
Q 2475 2313 2475 2022 
Q 2475 1741 2350 1505 
Q 2225 1269 1979 1126 
Q 1734 984 1363 984 
z
M 1366 1341 
Q 1641 1341 1812 1512 
Q 1984 1684 1984 2022 
Q 1984 2375 1817 2545 
Q 1650 2716 1372 2716 
Q 1094 2716 919 2541 
Q 744 2366 744 2025 
Q 744 1681 931 1511 
Q 1119 1341 1366 1341 
z
M 2131 2734 
L 1922 2931 
Q 2038 3225 2252 3331 
Q 2466 3438 2794 3447 
L 2794 3006 
Q 2588 3006 2416 2961 
Q 2244 2916 2131 2734 
z
" transform="scale(0.015625)"/>
       <path id="AptosDisplay-68" d="M 413 0 
L 413 4206 
L 931 4206 
L 931 2575 
Q 1069 2756 1317 2914 
Q 1566 3072 1950 3072 
Q 2428 3072 2637 2783 
Q 2847 2494 2847 1963 
L 2847 0 
L 2328 0 
L 2328 1891 
Q 2328 2106 2287 2275 
Q 2247 2444 2139 2539 
Q 2031 2634 1822 2634 
Q 1503 2634 1284 2482 
Q 1066 2331 934 2156 
L 934 0 
L 413 0 
z
" transform="scale(0.015625)"/>
       <path id="AptosDisplay-74" d="M 1466 0 
Q 1100 0 901 117 
Q 703 234 629 454 
Q 556 675 556 984 
L 556 2622 
L 50 2622 
L 50 3044 
L 556 3044 
L 556 3741 
L 1078 3741 
L 1078 3044 
L 1831 3044 
L 1831 2622 
L 1078 2622 
L 1078 1009 
Q 1078 725 1151 575 
Q 1225 425 1500 425 
L 1831 425 
L 1831 0 
L 1466 0 
z
" transform="scale(0.015625)"/>
       <path id="AptosDisplay-57" d="M 1216 0 
L -13 4206 
L 575 4206 
L 1525 697 
L 2531 4206 
L 3156 4206 
L 4163 697 
L 5119 4206 
L 5681 4206 
L 4453 0 
L 3866 0 
L 2831 3556 
L 1813 0 
L 1216 0 
z
" transform="scale(0.015625)"/>
       <path id="AptosDisplay-2f" d="M 72 0 
L 1603 4206 
L 2100 4206 
L 569 0 
L 72 0 
z
" transform="scale(0.015625)"/>
       <path id="AptosDisplay-5e" d="M 428 2438 
L 1459 4206 
L 1884 4206 
L 2916 2438 
L 2366 2438 
L 1672 3650 
L 978 2438 
L 428 2438 
z
" transform="scale(0.015625)"/>
      </defs>
      <use xlink:href="#AptosDisplay-4c"/>
      <use xlink:href="#AptosDisplay-69" x="48.4375"/>
      <use xlink:href="#AptosDisplay-67" x="69.482422"/>
      <use xlink:href="#AptosDisplay-68" x="113.427734"/>
      <use xlink:href="#AptosDisplay-74" x="164.013672"/>
      <use xlink:href="#AptosDisplay-20" x="194.384766"/>
      <use xlink:href="#AptosDisplay-28" x="213.671875"/>
      <use xlink:href="#AptosDisplay-57" x="243.115234"/>
      <use xlink:href="#AptosDisplay-2f" x="331.689453"/>
      <use xlink:href="#AptosDisplay-6d" x="365.625"/>
      <use xlink:href="#AptosDisplay-5e" x="445.605469"/>
      <use xlink:href="#AptosDisplay-32" x="497.900391"/>
      <use xlink:href="#AptosDisplay-29" x="550.195312"/>
     </g>
    </g>
   </g>
   <g id="line2d_125">
    <path d="M 125.717614 272.259172 
L 126.375243 268.596665 
L 127.036178 263.09667 
L 127.697112 261.263338 
L 128.358047 288.755003 
L 129.679916 277.759168 
L 131.001785 277.759168 
L 131.662719 281.425832 
L 132.323654 283.255007 
L 132.984588 274.092504 
L 133.645523 259.430006 
L 134.306457 259.430006 
L 134.967392 270.42584 
L 135.628326 275.925836 
L 136.289261 270.42584 
L 137.61113 281.425832 
L 138.272064 277.759168 
L 138.932999 286.921671 
L 139.593933 286.921671 
L 140.254868 288.755003 
L 140.915802 297.917505 
L 141.576737 299.750837 
L 142.237671 297.917505 
L 142.898606 303.417501 
L 143.55954 303.417501 
L 144.220475 248.434171 
L 144.881409 299.750837 
L 145.542344 296.084173 
L 146.203278 294.254998 
L 146.864213 294.254998 
L 148.186082 297.917505 
L 148.847016 286.921671 
L 149.507951 281.425832 
L 150.168885 294.254998 
L 150.82982 294.254998 
L 151.490754 286.921671 
L 152.812623 286.921671 
L 153.473557 279.5925 
L 154.134492 283.255007 
L 154.795426 275.925836 
L 155.456361 270.42584 
L 156.117295 272.259172 
L 156.77823 285.088339 
L 157.439164 266.763334 
L 158.100099 268.596665 
L 158.761033 264.930002 
L 159.421968 264.930002 
L 160.082902 261.263338 
L 160.743837 259.430006 
L 162.065706 248.434171 
L 162.72664 250.267503 
L 163.387575 239.271669 
L 164.048509 244.767507 
L 164.709444 248.434171 
L 165.370378 241.105001 
L 166.031313 202.617501 
L 166.692247 270.42584 
L 167.356486 226.442502 
L 168.014116 235.605005 
L 168.675051 228.275834 
L 169.33929 224.60917 
L 170.000224 233.771673 
L 170.661159 233.771673 
L 171.322093 244.767507 
L 171.983028 244.767507 
L 172.643962 246.600839 
L 173.304897 242.938332 
L 173.965831 246.600839 
L 174.626766 231.938341 
L 175.948635 257.596674 
L 176.609569 253.934167 
L 177.270504 257.596674 
L 177.931438 285.088339 
L 178.592373 257.596674 
L 179.253307 259.430006 
L 179.914242 263.09667 
L 180.575176 248.434171 
L 181.236111 259.430006 
L 181.897045 255.767499 
L 182.55798 250.267503 
L 183.218914 253.934167 
L 183.879849 255.767499 
L 184.540783 250.267503 
L 185.201718 257.596674 
L 186.523587 250.267503 
L 187.184521 248.434171 
L 187.845456 257.596674 
L 188.50639 253.934167 
L 189.167324 283.255007 
L 189.828259 250.267503 
L 190.489193 250.267503 
L 191.150128 257.596674 
L 191.811062 250.267503 
L 192.471997 244.767507 
L 193.132931 252.100835 
L 193.793866 248.434171 
L 194.4548 248.434171 
L 195.115735 244.767507 
L 195.776669 197.117505 
L 197.098538 303.417501 
L 197.759473 241.105001 
L 198.420407 248.434171 
L 199.081342 237.438337 
L 199.742276 237.438337 
L 200.403211 250.267503 
L 201.064145 253.934167 
L 201.72508 237.438337 
L 202.386014 242.938332 
L 203.046949 233.771673 
L 203.707883 237.438337 
L 204.368818 230.109166 
L 205.029752 230.109166 
L 205.690687 228.275834 
L 206.351621 228.275834 
L 207.012556 233.771673 
L 207.67349 231.938341 
L 208.334425 224.60917 
L 208.995359 230.109166 
L 209.656294 228.275834 
L 210.317228 228.275834 
L 210.978163 233.771673 
L 211.639097 226.442502 
L 212.300032 195.284173 
L 212.960966 226.442502 
L 213.621901 237.438337 
L 214.282835 231.938341 
L 214.94377 231.938341 
L 215.604704 226.442502 
L 216.265638 253.934167 
L 216.926573 226.442502 
L 217.587507 224.60917 
L 218.248442 226.442502 
L 219.570311 222.775838 
L 220.231245 222.775838 
L 220.89218 208.11334 
L 221.553114 209.946672 
L 222.214049 213.613336 
L 222.874983 209.946672 
L 224.196852 217.279999 
L 224.857787 215.446668 
L 225.518721 209.946672 
L 226.179656 209.946672 
L 226.84059 211.780004 
L 227.501525 206.284165 
L 228.162459 211.780004 
L 228.823394 209.946672 
L 229.484328 209.946672 
L 230.145263 211.780004 
L 230.806197 202.617501 
L 231.467132 206.284165 
L 232.128066 204.450833 
L 232.789001 208.11334 
L 233.449935 209.946672 
L 234.11087 202.617501 
L 234.771804 200.784169 
L 235.432739 209.946672 
L 236.093673 241.105001 
L 236.754608 206.284165 
L 237.415542 211.780004 
L 238.076477 219.109174 
L 238.737411 206.284165 
L 239.398346 211.780004 
L 241.381149 200.784169 
L 242.042084 193.454998 
L 243.363952 193.454998 
L 244.024887 187.955003 
L 244.685821 189.788335 
L 245.346756 158.630006 
L 246.00769 182.455007 
L 246.668625 180.625832 
L 247.329559 180.625832 
L 247.990494 176.959168 
L 248.651428 169.62584 
L 249.312363 164.130002 
L 249.973297 171.459172 
L 250.634232 171.459172 
L 251.295166 169.62584 
L 251.956101 165.963334 
L 252.617035 164.130002 
L 253.938904 167.796665 
L 254.599839 143.967507 
L 255.260773 162.29667 
L 255.921708 167.796665 
L 256.582642 165.963334 
L 257.243577 147.634171 
L 257.904511 154.963342 
L 258.565446 165.963334 
L 259.22638 165.963334 
L 259.887315 169.62584 
L 260.548249 167.796665 
L 261.209184 160.463338 
L 261.870118 164.130002 
L 262.531053 164.130002 
L 263.191987 169.62584 
L 263.852922 244.767507 
L 264.513856 151.300835 
L 265.174791 171.459172 
L 265.835725 156.796674 
L 266.49666 204.450833 
L 267.157594 176.959168 
L 267.818529 189.788335 
L 268.479463 167.796665 
L 269.140398 171.459172 
L 269.801332 169.62584 
L 270.462266 176.959168 
L 271.123201 160.463338 
L 271.784135 182.455007 
L 272.44507 178.7925 
L 273.106004 184.288339 
L 273.766939 178.7925 
L 274.427873 171.459172 
L 275.088808 180.625832 
L 275.749742 180.625832 
L 276.410677 186.121671 
L 277.071611 176.959168 
L 277.732546 175.125836 
L 278.39348 182.455007 
L 279.054415 184.288339 
L 279.715349 189.788335 
L 280.376284 184.288339 
L 281.037218 184.288339 
L 281.698153 180.625832 
L 282.359087 191.621666 
L 283.020022 182.455007 
L 283.680956 197.117505 
L 284.341891 193.454998 
L 285.002825 198.950837 
L 286.324694 195.284173 
L 286.985629 162.29667 
L 287.646563 186.121671 
L 288.307498 178.7925 
L 288.968432 197.117505 
L 289.629367 193.454998 
L 290.290301 171.459172 
L 290.951236 191.621666 
L 291.61217 193.454998 
L 292.273105 193.454998 
L 292.934039 197.117505 
L 293.594974 195.284173 
L 294.255908 200.784169 
L 294.916843 204.450833 
L 295.577777 209.946672 
L 296.238712 211.780004 
L 296.899646 209.946672 
L 297.56058 204.450833 
L 298.221515 206.284165 
L 298.882449 231.938341 
L 299.543384 186.121671 
L 300.204318 213.613336 
L 300.865253 228.275834 
L 301.526187 255.767499 
L 302.187122 219.109174 
L 302.848056 222.775838 
L 303.508991 237.438337 
L 304.169925 219.109174 
L 305.491794 222.775838 
L 306.152729 220.942506 
L 306.813663 228.275834 
L 307.474598 233.771673 
L 308.135532 228.275834 
L 308.796467 220.942506 
L 309.457401 228.275834 
L 310.118336 222.775838 
L 310.77927 219.109174 
L 311.440205 220.942506 
L 312.101139 215.446668 
L 312.762074 224.60917 
L 313.423008 231.938341 
L 314.083943 230.109166 
L 314.744877 224.60917 
L 315.405812 231.938341 
L 316.066746 233.771673 
L 316.727681 231.938341 
L 317.388615 235.605005 
L 318.04955 241.105001 
L 318.710484 237.438337 
L 319.371419 248.434171 
L 320.032353 250.267503 
L 320.693288 231.938341 
L 321.354222 255.767499 
L 322.015157 257.596674 
L 322.676091 263.09667 
L 325.319829 259.430006 
L 325.980763 259.430006 
L 326.641698 263.09667 
L 327.302632 261.263338 
L 327.963567 261.263338 
L 328.624501 255.767499 
L 329.285436 255.767499 
L 329.94637 264.930002 
L 330.607305 263.09667 
L 331.268239 239.271669 
L 331.929174 231.938341 
L 332.590108 277.759168 
L 333.251043 248.434171 
L 333.911977 242.938332 
L 334.572912 257.596674 
L 335.233846 250.267503 
L 335.894781 248.434171 
L 336.555715 244.767507 
L 337.877584 244.767507 
L 338.538519 253.934167 
L 339.199453 257.596674 
L 339.860388 241.105001 
L 340.521322 250.267503 
L 341.182257 252.100835 
L 341.843191 250.267503 
L 342.504126 285.088339 
L 343.16506 250.267503 
L 343.825995 270.42584 
L 344.486929 246.600839 
L 345.147864 252.100835 
L 345.808798 255.767499 
L 346.469733 257.596674 
L 347.130667 255.767499 
L 347.791602 252.100835 
L 348.452536 252.100835 
L 349.113471 244.767507 
L 349.774405 241.105001 
L 350.43534 239.271669 
L 351.096274 235.605005 
L 351.757209 237.438337 
L 352.418143 230.109166 
L 353.079077 233.771673 
L 353.740012 228.275834 
L 354.400946 242.938332 
L 355.061881 228.275834 
L 355.722815 195.284173 
L 356.38375 211.780004 
L 357.044684 182.455007 
L 357.705619 209.946672 
L 359.027488 209.946672 
L 359.688422 204.450833 
L 360.349357 206.284165 
L 361.010291 219.109174 
L 361.671226 191.621666 
L 362.33216 200.784169 
L 364.314964 200.784169 
L 364.975898 202.617501 
L 365.636833 206.284165 
L 366.297767 204.450833 
L 366.958702 208.11334 
L 367.619636 204.450833 
L 368.941505 208.11334 
L 369.60244 208.11334 
L 370.263374 204.450833 
L 370.924309 202.617501 
L 371.585243 202.617501 
L 372.246178 200.784169 
L 372.907112 197.117505 
L 373.568047 197.117505 
L 374.228981 193.454998 
L 375.55085 193.454998 
L 376.211785 189.788335 
L 376.872719 131.138341 
L 377.533654 206.284165 
L 378.194588 197.117505 
L 378.855523 198.950837 
L 379.516457 195.284173 
L 380.177391 197.117505 
L 380.838326 200.784169 
L 381.49926 208.11334 
L 382.160195 213.613336 
L 382.821129 211.780004 
L 383.482064 226.442502 
L 384.142998 206.284165 
L 384.803933 224.60917 
L 385.464867 206.284165 
L 386.125802 226.442502 
L 386.786736 233.771673 
L 387.447671 237.438337 
L 388.108605 237.438337 
L 388.76954 175.125836 
L 389.430474 246.600839 
L 390.091409 242.938332 
L 390.752343 253.934167 
L 391.413278 248.434171 
L 392.074212 250.267503 
L 392.735147 253.934167 
L 393.396081 255.767499 
L 394.057016 250.267503 
L 394.71795 248.434171 
L 395.378885 248.434171 
L 396.039819 246.600839 
L 396.700754 250.267503 
L 397.361688 239.271669 
L 398.022623 242.938332 
L 398.683557 239.271669 
L 399.344492 241.105001 
L 400.005426 235.605005 
L 400.666361 261.263338 
L 401.327295 241.105001 
L 401.98823 248.434171 
L 402.649164 239.271669 
L 403.310099 248.434171 
L 403.971033 250.267503 
L 404.631968 255.767499 
L 405.292902 213.613336 
L 405.953837 253.934167 
L 406.614771 259.430006 
L 407.275705 255.767499 
L 407.93664 259.430006 
L 408.597574 257.596674 
L 409.258509 252.100835 
L 409.919443 257.596674 
L 410.580378 253.934167 
L 411.241312 261.263338 
L 411.902247 259.430006 
L 412.563181 253.934167 
L 413.224116 387.721671 
L 413.88505 305.250833 
L 414.54929 426.20917 
L 415.210224 266.763334 
L 415.871159 252.100835 
L 416.532093 259.430006 
L 417.193027 257.596674 
L 419.175831 257.596674 
L 419.836765 259.430006 
L 420.4977 257.596674 
L 421.819569 261.263338 
L 422.480503 259.430006 
L 423.141438 263.09667 
L 424.463307 263.09667 
L 425.124241 268.596665 
L 425.785176 285.088339 
L 426.44611 268.596665 
L 427.107045 264.930002 
L 427.767979 255.767499 
L 428.428914 285.088339 
L 429.089848 279.5925 
L 430.411717 275.925836 
L 431.072652 279.5925 
L 431.733586 266.763334 
L 432.394521 283.255007 
L 433.055455 283.255007 
L 433.71639 277.759168 
L 434.377324 281.425832 
L 435.038259 275.925836 
L 435.699193 77.9925 
L 436.360128 275.925836 
L 437.021062 279.5925 
L 437.681997 252.100835 
L 438.342931 277.759168 
L 439.003866 268.596665 
L 439.6648 270.42584 
L 440.325735 274.092504 
L 440.986669 266.763334 
L 441.647604 264.930002 
L 442.308538 259.430006 
L 442.969473 263.09667 
L 443.630407 253.934167 
L 444.952276 246.600839 
L 445.61321 252.100835 
L 446.274145 250.267503 
L 446.935079 481.1925 
L 447.596014 250.267503 
L 448.256948 253.934167 
L 448.917883 266.763334 
L 449.578817 246.600839 
L 450.239752 244.767507 
L 450.900686 253.934167 
L 451.561621 246.600839 
L 452.222555 264.930002 
L 452.88349 239.271669 
L 453.544424 239.271669 
L 454.205359 252.100835 
L 454.866293 231.938341 
L 455.527228 246.600839 
L 456.849097 242.938332 
L 457.510031 246.600839 
L 458.170966 248.434171 
L 458.8319 244.767507 
L 459.492835 244.767507 
L 460.153769 246.600839 
L 460.814704 252.100835 
L 461.475638 277.759168 
L 462.136573 252.100835 
L 462.797507 248.434171 
L 463.458442 252.100835 
L 464.119376 253.934167 
L 464.780311 259.430006 
L 465.441245 257.596674 
L 466.10218 252.100835 
L 466.763114 253.934167 
L 467.424049 246.600839 
L 468.084983 252.100835 
L 468.745918 255.767499 
L 469.406852 253.934167 
L 470.067787 263.09667 
L 470.728721 360.230006 
L 471.389655 259.430006 
L 472.05059 263.09667 
L 472.711524 255.767499 
L 473.372459 253.934167 
L 474.694328 268.596665 
L 475.355262 252.100835 
L 476.016197 257.596674 
L 476.677131 255.767499 
L 477.338066 250.267503 
L 477.999 252.100835 
L 478.659935 250.267503 
L 479.320869 246.600839 
L 479.981804 239.271669 
L 480.642738 244.767507 
L 481.303673 244.767507 
L 481.964607 235.605005 
L 482.625542 272.259172 
L 483.286476 244.767507 
L 483.947411 237.438337 
L 484.608345 237.438337 
L 485.26928 233.771673 
L 485.930214 242.938332 
L 486.591149 237.438337 
L 487.252083 241.105001 
L 487.913018 233.771673 
L 488.573952 197.117505 
L 489.234887 233.771673 
L 489.895821 224.60917 
L 490.556756 231.938341 
L 491.21769 237.438337 
L 491.878625 235.605005 
L 492.539559 241.105001 
L 493.200494 228.275834 
L 493.861428 237.438337 
L 494.522363 239.271669 
L 495.183297 242.938332 
L 495.844232 237.438337 
L 496.505166 246.600839 
L 497.166101 235.605005 
L 497.827035 239.271669 
L 498.48797 239.271669 
L 499.148904 241.105001 
L 499.809838 233.771673 
L 500.470773 250.267503 
L 501.131707 275.925836 
L 501.792642 252.100835 
L 502.453576 261.263338 
L 503.114511 79.821675 
L 503.775445 259.430006 
L 504.43638 264.930002 
L 505.097314 268.596665 
L 505.758249 266.763334 
L 506.419183 274.092504 
L 507.080118 274.092504 
L 507.741052 268.596665 
L 508.401987 270.42584 
L 509.062921 266.763334 
L 509.723856 268.596665 
L 510.38479 266.763334 
L 511.045725 266.763334 
L 511.706659 263.09667 
L 512.367594 268.596665 
L 513.028528 263.09667 
L 513.689463 268.596665 
L 514.350397 252.100835 
L 515.011332 255.767499 
L 515.672266 255.767499 
L 516.333201 242.938332 
L 516.994135 259.430006 
L 517.65507 266.763334 
L 518.316004 261.263338 
L 518.976939 264.930002 
L 519.637873 266.763334 
L 520.298808 266.763334 
L 520.959742 264.930002 
L 521.620677 274.092504 
L 522.281611 274.092504 
M 524.925349 279.5925 
L 525.586284 290.588335 
L 526.247218 288.755003 
L 526.908152 288.755003 
L 527.569087 285.088339 
L 528.230021 296.084173 
L 528.890956 263.09667 
L 529.55189 292.421666 
L 530.212825 292.421666 
L 530.873759 290.588335 
L 532.195628 301.584169 
L 532.856563 281.425832 
L 533.517497 296.084173 
L 534.178432 290.588335 
L 534.839366 286.921671 
L 535.500301 277.759168 
L 536.82217 274.092504 
L 537.483104 274.092504 
L 538.144039 272.259172 
L 538.804973 266.763334 
L 539.465908 279.5925 
L 540.126842 272.259172 
L 540.787777 274.092504 
L 541.448711 268.596665 
L 542.109646 244.767507 
L 542.77058 263.09667 
L 543.431515 314.413336 
L 544.092449 241.105001 
L 544.753384 274.092504 
L 545.414318 264.930002 
L 546.075253 270.42584 
L 546.736187 277.759168 
L 547.397122 259.430006 
L 548.718991 270.42584 
L 549.379925 257.596674 
L 550.04086 257.596674 
L 550.701794 261.263338 
L 552.023663 228.275834 
L 552.684598 253.934167 
L 553.345532 253.934167 
L 554.006466 252.100835 
L 554.667401 255.767499 
L 555.328335 257.596674 
L 555.98927 252.100835 
L 556.650204 261.263338 
L 557.311139 263.09667 
L 557.972073 261.263338 
L 558.633008 250.267503 
L 559.293942 266.763334 
L 559.954877 261.263338 
L 561.276746 261.263338 
L 561.93768 253.934167 
L 562.598615 255.767499 
L 563.259549 252.100835 
L 564.581418 255.767499 
L 565.242353 193.454998 
L 565.903287 255.767499 
L 566.564222 263.09667 
L 567.225156 259.430006 
L 567.886091 252.100835 
L 568.547025 259.430006 
L 569.20796 250.267503 
L 569.868894 242.938332 
L 570.529829 246.600839 
L 571.190763 253.934167 
L 571.851698 244.767507 
L 572.512632 248.434171 
L 573.173567 248.434171 
L 573.834501 244.767507 
L 574.495436 246.600839 
L 575.15637 242.938332 
L 575.817305 244.767507 
L 576.478239 186.121671 
L 577.139174 244.767507 
L 577.800108 237.438337 
L 578.461043 239.271669 
L 579.121977 233.771673 
L 580.443846 233.771673 
L 581.10478 231.938341 
L 581.765715 235.605005 
L 582.426649 257.596674 
L 583.087584 230.109166 
L 583.748518 235.605005 
L 584.409453 239.271669 
L 585.070387 230.109166 
L 585.731322 226.442502 
L 586.392256 226.442502 
L 587.053191 213.613336 
L 587.714125 230.109166 
L 588.37506 226.442502 
L 589.035994 230.109166 
L 589.696929 226.442502 
L 590.357863 228.275834 
L 591.018798 231.938341 
L 591.679732 220.942506 
L 592.340667 220.942506 
L 593.001601 226.442502 
L 594.32347 222.775838 
L 594.984405 226.442502 
L 595.645339 219.109174 
L 596.306274 230.109166 
L 596.967208 215.446668 
L 597.628143 230.109166 
L 598.289077 239.271669 
L 598.950012 85.321671 
L 599.610946 235.605005 
L 600.271881 219.109174 
L 600.932815 241.105001 
L 601.59375 242.938332 
L 602.254684 235.605005 
L 602.915619 241.105001 
L 603.576553 237.438337 
L 604.237488 241.105001 
L 604.898422 241.105001 
L 605.559357 250.267503 
L 606.220291 244.767507 
L 606.881226 250.267503 
L 607.54216 228.275834 
L 608.203094 252.100835 
L 608.864029 253.934167 
L 609.524963 252.100835 
L 610.185898 248.434171 
L 610.846832 235.605005 
L 612.168701 259.430006 
L 612.829636 303.417501 
L 613.49057 264.930002 
L 614.151505 274.092504 
L 614.812439 264.930002 
L 615.473374 277.759168 
L 616.134308 264.930002 
L 617.456177 261.263338 
L 618.117112 264.930002 
L 618.778046 272.259172 
L 619.438981 270.42584 
L 620.099915 266.763334 
L 620.76085 272.259172 
L 621.421784 281.425832 
L 622.082719 292.421666 
L 622.743653 283.255007 
L 623.404588 356.567499 
L 624.065522 285.088339 
L 624.726457 292.421666 
L 625.387391 296.084173 
L 626.048326 297.917505 
L 626.70926 296.084173 
L 627.370195 296.084173 
L 628.031129 294.254998 
L 628.692064 301.584169 
L 629.352998 299.750837 
L 630.013933 301.584169 
L 630.674867 307.084165 
L 631.335802 303.417501 
L 631.996736 301.584169 
L 632.657671 310.746672 
L 633.318605 312.580004 
L 633.97954 307.084165 
L 634.640474 307.084165 
L 635.301409 327.242502 
L 635.962343 310.746672 
L 636.623277 308.91334 
L 637.284212 301.584169 
L 637.945146 299.750837 
L 638.606081 290.588335 
L 639.267015 308.91334 
L 639.92795 301.584169 
L 641.249819 301.584169 
L 641.910753 294.254998 
L 642.571688 297.917505 
L 643.232622 288.755003 
L 643.893557 301.584169 
L 644.554491 299.750837 
L 645.215426 307.084165 
L 645.87636 307.084165 
L 646.537295 290.588335 
L 647.198229 308.91334 
L 647.859164 318.079999 
L 649.181033 329.075834 
L 649.841967 321.742506 
L 650.502902 332.742498 
L 651.824771 340.071669 
L 653.14664 343.738332 
L 653.807574 340.071669 
L 654.468509 307.084165 
L 655.129443 340.071669 
L 655.790378 345.571664 
L 656.454617 352.900835 
L 657.112247 351.067503 
L 657.776486 362.063338 
L 658.43742 347.400839 
L 659.098355 345.571664 
L 659.759289 376.725836 
L 660.420224 347.400839 
L 661.081158 352.900835 
L 661.742093 336.405005 
L 662.403027 341.905001 
L 663.063962 345.571664 
L 663.724896 340.071669 
L 664.385831 371.229997 
L 665.046765 334.571673 
L 665.7077 338.238337 
L 666.368634 332.742498 
L 667.029569 336.405005 
L 667.690503 330.909166 
L 668.351438 336.405005 
L 669.012372 336.405005 
L 669.673307 327.242502 
L 670.334241 330.909166 
L 670.995176 338.238337 
L 671.65611 336.405005 
L 672.317044 323.575838 
L 672.977979 334.571673 
L 673.638913 340.071669 
L 674.299848 340.071669 
L 674.960782 334.571673 
L 675.621717 338.238337 
L 676.282651 338.238337 
L 676.943586 327.242502 
L 677.60452 343.738332 
L 678.265455 341.905001 
L 678.926389 349.234171 
L 679.587324 338.238337 
L 680.248258 345.571664 
L 680.909193 343.738332 
L 681.570127 349.234171 
L 682.231062 398.717505 
L 682.891996 349.234171 
L 683.552931 345.571664 
L 684.213865 329.075834 
L 684.8748 345.571664 
L 685.535734 351.067503 
L 686.196669 345.571664 
L 687.518538 345.571664 
L 688.179472 347.400839 
L 688.840407 347.400839 
L 689.501341 321.742506 
L 690.162276 345.571664 
L 690.82321 343.738332 
L 691.484145 343.738332 
L 692.145079 345.571664 
L 692.806014 345.571664 
L 693.466948 347.400839 
L 694.127883 345.571664 
L 694.788817 347.400839 
L 695.449752 343.738332 
L 696.110686 347.400839 
L 697.432555 343.738332 
L 698.09349 343.738332 
L 698.754424 338.238337 
L 699.415359 341.905001 
L 700.076293 343.738332 
L 700.737227 341.905001 
L 701.398162 343.738332 
L 702.059096 338.238337 
L 703.380965 341.905001 
L 704.0419 358.400831 
L 704.702834 345.571664 
L 705.363769 360.230006 
L 706.024703 349.234171 
L 706.685638 351.067503 
L 707.346572 347.400839 
L 708.007507 351.067503 
L 708.668441 347.400839 
L 709.329376 354.734167 
L 709.99031 352.900835 
L 710.651245 362.063338 
L 711.312179 354.734167 
L 711.973114 358.400831 
L 712.634048 354.734167 
L 713.955917 358.400831 
L 715.277786 354.734167 
L 715.938721 360.230006 
L 716.599655 351.067503 
L 717.26059 365.730002 
L 717.921524 369.396665 
L 718.582459 371.229997 
L 719.904328 378.559168 
L 720.565262 371.229997 
L 721.226197 380.3925 
L 721.887131 376.725836 
L 724.530869 395.054998 
L 725.191804 395.054998 
L 725.852738 396.884173 
L 726.513673 396.884173 
L 727.174607 398.717505 
L 727.835541 398.717505 
L 728.496476 406.050833 
L 729.15741 402.384169 
L 729.818345 406.050833 
L 730.479279 367.563334 
L 731.140214 391.388335 
L 731.801148 389.555003 
L 732.462083 391.388335 
L 733.123017 391.388335 
L 733.783952 396.884173 
L 734.444886 385.888339 
L 734.444886 385.888339 
" clip-path="url(#pe9d59e7f95)" style="fill: none; stroke: #ac2b37; stroke-width: 1.5; stroke-linecap: square"/>
   </g>
   <g id="patch_3">
    <path d="M 95.28125 501.3525 
L 95.28125 57.8325 
" style="fill: none; stroke: #000000; stroke-width: 0.8; stroke-linejoin: miter; stroke-linecap: square"/>
   </g>
   <g id="patch_4">
    <path d="M 764.88125 501.3525 
L 764.88125 57.8325 
" style="fill: none; stroke: #000000; stroke-width: 0.8; stroke-linejoin: miter; stroke-linecap: square"/>
   </g>
   <g id="patch_5">
    <path d="M 95.28125 501.3525 
L 764.88125 501.3525 
" style="fill: none; stroke: #000000; stroke-width: 0.8; stroke-linejoin: miter; stroke-linecap: square"/>
   </g>
   <g id="patch_6">
    <path d="M 95.28125 57.8325 
L 764.88125 57.8325 
" style="fill: none; stroke: #000000; stroke-width: 0.8; stroke-linejoin: miter; stroke-linecap: square"/>
   </g>
   <g id="text_16">
    <!-- Light vs Time -->
    <g transform="translate(367.59875 51.8325) scale(0.24 -0.24)">
     <defs>
      <path id="AptosDisplay-76" d="M 1103 0 
L -13 3044 
L 538 3044 
L 1391 513 
L 2250 3044 
L 2781 3044 
L 1678 0 
L 1103 0 
z
" transform="scale(0.015625)"/>
      <path id="AptosDisplay-73" d="M 1506 -41 
Q 1247 -41 1017 14 
Q 788 69 613 191 
Q 438 313 339 506 
Q 241 700 241 978 
L 744 978 
Q 744 628 966 487 
Q 1188 347 1519 347 
Q 1816 347 2008 458 
Q 2200 569 2200 822 
Q 2200 1047 2026 1153 
Q 1853 1259 1413 1369 
Q 1056 1453 815 1564 
Q 575 1675 453 1845 
Q 331 2016 331 2275 
Q 331 2475 417 2626 
Q 503 2778 658 2879 
Q 813 2981 1020 3032 
Q 1228 3084 1472 3084 
Q 1713 3084 1923 3028 
Q 2134 2972 2296 2855 
Q 2459 2738 2551 2552 
Q 2644 2366 2644 2109 
L 2138 2109 
Q 2138 2425 1945 2558 
Q 1753 2691 1472 2691 
Q 1191 2691 1016 2594 
Q 841 2497 841 2291 
Q 841 2169 919 2084 
Q 997 2000 1181 1933 
Q 1366 1866 1675 1791 
Q 2019 1709 2248 1596 
Q 2478 1484 2595 1306 
Q 2713 1128 2713 847 
Q 2713 616 2622 447 
Q 2531 278 2367 170 
Q 2203 63 1983 11 
Q 1763 -41 1506 -41 
z
" transform="scale(0.015625)"/>
     </defs>
     <use xlink:href="#AptosDisplay-4c"/>
     <use xlink:href="#AptosDisplay-69" x="48.4375"/>
     <use xlink:href="#AptosDisplay-67" x="69.482422"/>
     <use xlink:href="#AptosDisplay-68" x="113.427734"/>
     <use xlink:href="#AptosDisplay-74" x="164.013672"/>
     <use xlink:href="#AptosDisplay-20" x="194.384766"/>
     <use xlink:href="#AptosDisplay-76" x="213.671875"/>
     <use xlink:href="#AptosDisplay-73" x="256.933594"/>
     <use xlink:href="#AptosDisplay-20" x="303.222656"/>
     <use xlink:href="#AptosDisplay-54" x="322.509766"/>
     <use xlink:href="#AptosDisplay-69" x="370.214844"/>
     <use xlink:href="#AptosDisplay-6d" x="391.259766"/>
     <use xlink:href="#AptosDisplay-65" x="471.240234"/>
    </g>
   </g>
  </g>
 </g>
 <defs>
  <clipPath id="pe9d59e7f95">
   <rect x="95.28125" y="57.8325" width="669.6" height="443.52"/>
  </clipPath>
 </defs>
</svg>
