<?xml version="1.0" encoding="utf-8" standalone="no"?>
<!DOCTYPE svg PUBLIC "-//W3C//DTD SVG 1.1//EN"
  "http://www.w3.org/Graphics/SVG/1.1/DTD/svg11.dtd">
<svg xmlns:xlink="http://www.w3.org/1999/xlink" width="790.265625pt" height="581.830625pt" viewBox="0 0 790.265625 581.830625" xmlns="http://www.w3.org/2000/svg" version="1.1">
 <metadata>
  <rdf:RDF xmlns:dc="http://purl.org/dc/elements/1.1/" xmlns:cc="http://creativecommons.org/ns#" xmlns:rdf="http://www.w3.org/1999/02/22-rdf-syntax-ns#">
   <cc:Work>
    <dc:type rdf:resource="http://purl.org/dc/dcmitype/StillImage"/>
    <dc:date>2025-04-03T01:48:57.263252</dc:date>
    <dc:format>image/svg+xml</dc:format>
    <dc:creator>
     <cc:Agent>
      <dc:title>Matplotlib v3.8.2, https://matplotlib.org/</dc:title>
     </cc:Agent>
    </dc:creator>
   </cc:Work>
  </rdf:RDF>
 </metadata>
 <defs>
  <style type="text/css">*{stroke-linejoin: round; stroke-linecap: butt}</style>
 </defs>
 <g id="figure_1">
  <g id="patch_1">
   <path d="M 0 581.830625 
L 790.265625 581.830625 
L 790.265625 0 
L 0 0 
z
" style="fill: #ffffff"/>
  </g>
  <g id="axes_1">
   <g id="patch_2">
    <path d="M 84.665625 501.3525 
L 754.265625 501.3525 
L 754.265625 57.8325 
L 84.665625 57.8325 
z
" style="fill: #ffffff"/>
   </g>
   <g id="matplotlib.axis_1">
    <g id="xtick_1">
     <g id="line2d_1">
      <path d="M 115.098098 501.3525 
L 115.098098 57.8325 
" clip-path="url(#p878b5c13c4)" style="fill: none; stroke: #b0b0b0; stroke-opacity: 0.8; stroke-linecap: square"/>
     </g>
     <g id="line2d_2">
      <defs>
       <path id="mf3d3e166ce" d="M 0 0 
L 0 3.5 
" style="stroke: #000000; stroke-width: 0.8"/>
      </defs>
      <g>
       <use xlink:href="#mf3d3e166ce" x="115.098098" y="501.3525" style="stroke: #000000; stroke-width: 0.8"/>
      </g>
     </g>
     <g id="text_1">
      <!-- 0 -->
      <g transform="translate(109.868411 521.49625) scale(0.2 -0.2)">
       <defs>
        <path id="AptosDisplay-30" d="M 1672 -56 
Q 1291 -56 1028 105 
Q 766 266 605 552 
Q 444 838 372 1216 
Q 300 1594 300 2031 
Q 300 2475 372 2856 
Q 444 3238 605 3525 
Q 766 3813 1028 3973 
Q 1291 4134 1672 4134 
Q 2053 4134 2317 3975 
Q 2581 3816 2742 3527 
Q 2903 3238 2975 2858 
Q 3047 2478 3047 2038 
Q 3047 1597 2975 1217 
Q 2903 838 2742 552 
Q 2581 266 2318 105 
Q 2056 -56 1672 -56 
z
M 1672 409 
Q 1916 409 2073 550 
Q 2231 691 2322 925 
Q 2413 1159 2448 1448 
Q 2484 1738 2484 2038 
Q 2484 2338 2448 2628 
Q 2413 2919 2322 3153 
Q 2231 3388 2073 3527 
Q 1916 3666 1669 3666 
Q 1428 3666 1268 3527 
Q 1109 3388 1020 3153 
Q 931 2919 893 2628 
Q 856 2338 856 2038 
Q 856 1741 893 1450 
Q 931 1159 1020 925 
Q 1109 691 1268 550 
Q 1428 409 1672 409 
z
" transform="scale(0.015625)"/>
       </defs>
       <use xlink:href="#AptosDisplay-30"/>
      </g>
     </g>
    </g>
    <g id="xtick_2">
     <g id="line2d_3">
      <path d="M 197.664786 501.3525 
L 197.664786 57.8325 
" clip-path="url(#p878b5c13c4)" style="fill: none; stroke: #b0b0b0; stroke-opacity: 0.8; stroke-linecap: square"/>
     </g>
     <g id="line2d_4">
      <g>
       <use xlink:href="#mf3d3e166ce" x="197.664786" y="501.3525" style="stroke: #000000; stroke-width: 0.8"/>
      </g>
     </g>
     <g id="text_2">
      <!-- 25 -->
      <g transform="translate(187.205411 521.49625) scale(0.2 -0.2)">
       <defs>
        <path id="AptosDisplay-32" d="M 247 0 
L 247 413 
L 1725 1741 
Q 2100 2081 2269 2351 
Q 2438 2622 2438 2938 
Q 2438 3256 2263 3461 
Q 2088 3666 1691 3666 
Q 1247 3666 1055 3439 
Q 863 3213 863 2869 
L 341 2869 
Q 341 3250 491 3534 
Q 641 3819 941 3975 
Q 1241 4131 1691 4131 
Q 2103 4131 2390 3986 
Q 2678 3841 2828 3578 
Q 2978 3316 2978 2959 
Q 2978 2638 2853 2375 
Q 2728 2113 2517 1883 
Q 2306 1653 2044 1425 
L 959 463 
L 3097 463 
L 3097 0 
L 247 0 
z
" transform="scale(0.015625)"/>
        <path id="AptosDisplay-35" d="M 1669 -56 
Q 1278 -56 964 83 
Q 650 222 465 483 
Q 281 744 281 1113 
L 816 1113 
Q 816 778 1055 584 
Q 1294 391 1669 391 
Q 2069 391 2291 625 
Q 2513 859 2513 1319 
Q 2513 1772 2291 1989 
Q 2069 2206 1697 2206 
Q 1409 2206 1223 2123 
Q 1038 2041 916 1894 
L 444 1894 
L 622 4078 
L 2788 4078 
L 2788 3613 
L 1041 3613 
L 931 2322 
Q 1044 2453 1251 2550 
Q 1459 2647 1775 2647 
Q 2131 2647 2420 2506 
Q 2709 2366 2881 2072 
Q 3053 1778 3053 1319 
Q 3053 863 2875 558 
Q 2697 253 2384 98 
Q 2072 -56 1669 -56 
z
" transform="scale(0.015625)"/>
       </defs>
       <use xlink:href="#AptosDisplay-32"/>
       <use xlink:href="#AptosDisplay-35" x="52.294922"/>
      </g>
     </g>
    </g>
    <g id="xtick_3">
     <g id="line2d_5">
      <path d="M 280.231474 501.3525 
L 280.231474 57.8325 
" clip-path="url(#p878b5c13c4)" style="fill: none; stroke: #b0b0b0; stroke-opacity: 0.8; stroke-linecap: square"/>
     </g>
     <g id="line2d_6">
      <g>
       <use xlink:href="#mf3d3e166ce" x="280.231474" y="501.3525" style="stroke: #000000; stroke-width: 0.8"/>
      </g>
     </g>
     <g id="text_3">
      <!-- 50 -->
      <g transform="translate(269.772099 521.49625) scale(0.2 -0.2)">
       <use xlink:href="#AptosDisplay-35"/>
       <use xlink:href="#AptosDisplay-30" x="52.294922"/>
      </g>
     </g>
    </g>
    <g id="xtick_4">
     <g id="line2d_7">
      <path d="M 362.798162 501.3525 
L 362.798162 57.8325 
" clip-path="url(#p878b5c13c4)" style="fill: none; stroke: #b0b0b0; stroke-opacity: 0.8; stroke-linecap: square"/>
     </g>
     <g id="line2d_8">
      <g>
       <use xlink:href="#mf3d3e166ce" x="362.798162" y="501.3525" style="stroke: #000000; stroke-width: 0.8"/>
      </g>
     </g>
     <g id="text_4">
      <!-- 75 -->
      <g transform="translate(352.338787 521.49625) scale(0.2 -0.2)">
       <defs>
        <path id="AptosDisplay-37" d="M 766 0 
L 2609 3600 
L 194 3600 
L 194 4078 
L 3141 4078 
L 3141 3622 
L 1334 0 
L 766 0 
z
" transform="scale(0.015625)"/>
       </defs>
       <use xlink:href="#AptosDisplay-37"/>
       <use xlink:href="#AptosDisplay-35" x="52.294922"/>
      </g>
     </g>
    </g>
    <g id="xtick_5">
     <g id="line2d_9">
      <path d="M 445.36485 501.3525 
L 445.36485 57.8325 
" clip-path="url(#p878b5c13c4)" style="fill: none; stroke: #b0b0b0; stroke-opacity: 0.8; stroke-linecap: square"/>
     </g>
     <g id="line2d_10">
      <g>
       <use xlink:href="#mf3d3e166ce" x="445.36485" y="501.3525" style="stroke: #000000; stroke-width: 0.8"/>
      </g>
     </g>
     <g id="text_5">
      <!-- 100 -->
      <g transform="translate(429.675787 521.49625) scale(0.2 -0.2)">
       <defs>
        <path id="AptosDisplay-31" d="M 1659 0 
L 1659 3425 
Q 1575 3309 1420 3201 
Q 1266 3094 1052 3009 
Q 838 2925 578 2888 
L 578 3381 
Q 834 3425 1057 3540 
Q 1281 3656 1453 3806 
Q 1625 3956 1719 4094 
L 2206 4094 
L 2206 0 
L 1659 0 
z
" transform="scale(0.015625)"/>
       </defs>
       <use xlink:href="#AptosDisplay-31"/>
       <use xlink:href="#AptosDisplay-30" x="52.294922"/>
       <use xlink:href="#AptosDisplay-30" x="104.589844"/>
      </g>
     </g>
    </g>
    <g id="xtick_6">
     <g id="line2d_11">
      <path d="M 527.931538 501.3525 
L 527.931538 57.8325 
" clip-path="url(#p878b5c13c4)" style="fill: none; stroke: #b0b0b0; stroke-opacity: 0.8; stroke-linecap: square"/>
     </g>
     <g id="line2d_12">
      <g>
       <use xlink:href="#mf3d3e166ce" x="527.931538" y="501.3525" style="stroke: #000000; stroke-width: 0.8"/>
      </g>
     </g>
     <g id="text_6">
      <!-- 125 -->
      <g transform="translate(512.242475 521.49625) scale(0.2 -0.2)">
       <use xlink:href="#AptosDisplay-31"/>
       <use xlink:href="#AptosDisplay-32" x="52.294922"/>
       <use xlink:href="#AptosDisplay-35" x="104.589844"/>
      </g>
     </g>
    </g>
    <g id="xtick_7">
     <g id="line2d_13">
      <path d="M 610.498226 501.3525 
L 610.498226 57.8325 
" clip-path="url(#p878b5c13c4)" style="fill: none; stroke: #b0b0b0; stroke-opacity: 0.8; stroke-linecap: square"/>
     </g>
     <g id="line2d_14">
      <g>
       <use xlink:href="#mf3d3e166ce" x="610.498226" y="501.3525" style="stroke: #000000; stroke-width: 0.8"/>
      </g>
     </g>
     <g id="text_7">
      <!-- 150 -->
      <g transform="translate(594.809163 521.49625) scale(0.2 -0.2)">
       <use xlink:href="#AptosDisplay-31"/>
       <use xlink:href="#AptosDisplay-35" x="52.294922"/>
       <use xlink:href="#AptosDisplay-30" x="104.589844"/>
      </g>
     </g>
    </g>
    <g id="xtick_8">
     <g id="line2d_15">
      <path d="M 693.064913 501.3525 
L 693.064913 57.8325 
" clip-path="url(#p878b5c13c4)" style="fill: none; stroke: #b0b0b0; stroke-opacity: 0.8; stroke-linecap: square"/>
     </g>
     <g id="line2d_16">
      <g>
       <use xlink:href="#mf3d3e166ce" x="693.064913" y="501.3525" style="stroke: #000000; stroke-width: 0.8"/>
      </g>
     </g>
     <g id="text_8">
      <!-- 175 -->
      <g transform="translate(677.375851 521.49625) scale(0.2 -0.2)">
       <use xlink:href="#AptosDisplay-31"/>
       <use xlink:href="#AptosDisplay-37" x="52.294922"/>
       <use xlink:href="#AptosDisplay-35" x="104.589844"/>
      </g>
     </g>
    </g>
    <g id="xtick_9">
     <g id="line2d_17">
      <path d="M 98.584761 501.3525 
L 98.584761 57.8325 
" clip-path="url(#p878b5c13c4)" style="fill: none; stroke-dasharray: 1.85,0.8; stroke-dashoffset: 0; stroke: #b0b0b0; stroke-opacity: 0.8; stroke-width: 0.5"/>
     </g>
     <g id="line2d_18">
      <defs>
       <path id="m5cfc0c1a1e" d="M 0 0 
L 0 2 
" style="stroke: #000000; stroke-width: 0.6"/>
      </defs>
      <g>
       <use xlink:href="#m5cfc0c1a1e" x="98.584761" y="501.3525" style="stroke: #000000; stroke-width: 0.6"/>
      </g>
     </g>
    </g>
    <g id="xtick_10">
     <g id="line2d_19">
      <path d="M 131.611436 501.3525 
L 131.611436 57.8325 
" clip-path="url(#p878b5c13c4)" style="fill: none; stroke-dasharray: 1.85,0.8; stroke-dashoffset: 0; stroke: #b0b0b0; stroke-opacity: 0.8; stroke-width: 0.5"/>
     </g>
     <g id="line2d_20">
      <g>
       <use xlink:href="#m5cfc0c1a1e" x="131.611436" y="501.3525" style="stroke: #000000; stroke-width: 0.6"/>
      </g>
     </g>
    </g>
    <g id="xtick_11">
     <g id="line2d_21">
      <path d="M 148.124773 501.3525 
L 148.124773 57.8325 
" clip-path="url(#p878b5c13c4)" style="fill: none; stroke-dasharray: 1.85,0.8; stroke-dashoffset: 0; stroke: #b0b0b0; stroke-opacity: 0.8; stroke-width: 0.5"/>
     </g>
     <g id="line2d_22">
      <g>
       <use xlink:href="#m5cfc0c1a1e" x="148.124773" y="501.3525" style="stroke: #000000; stroke-width: 0.6"/>
      </g>
     </g>
    </g>
    <g id="xtick_12">
     <g id="line2d_23">
      <path d="M 164.638111 501.3525 
L 164.638111 57.8325 
" clip-path="url(#p878b5c13c4)" style="fill: none; stroke-dasharray: 1.85,0.8; stroke-dashoffset: 0; stroke: #b0b0b0; stroke-opacity: 0.8; stroke-width: 0.5"/>
     </g>
     <g id="line2d_24">
      <g>
       <use xlink:href="#m5cfc0c1a1e" x="164.638111" y="501.3525" style="stroke: #000000; stroke-width: 0.6"/>
      </g>
     </g>
    </g>
    <g id="xtick_13">
     <g id="line2d_25">
      <path d="M 181.151448 501.3525 
L 181.151448 57.8325 
" clip-path="url(#p878b5c13c4)" style="fill: none; stroke-dasharray: 1.85,0.8; stroke-dashoffset: 0; stroke: #b0b0b0; stroke-opacity: 0.8; stroke-width: 0.5"/>
     </g>
     <g id="line2d_26">
      <g>
       <use xlink:href="#m5cfc0c1a1e" x="181.151448" y="501.3525" style="stroke: #000000; stroke-width: 0.6"/>
      </g>
     </g>
    </g>
    <g id="xtick_14">
     <g id="line2d_27">
      <path d="M 214.178124 501.3525 
L 214.178124 57.8325 
" clip-path="url(#p878b5c13c4)" style="fill: none; stroke-dasharray: 1.85,0.8; stroke-dashoffset: 0; stroke: #b0b0b0; stroke-opacity: 0.8; stroke-width: 0.5"/>
     </g>
     <g id="line2d_28">
      <g>
       <use xlink:href="#m5cfc0c1a1e" x="214.178124" y="501.3525" style="stroke: #000000; stroke-width: 0.6"/>
      </g>
     </g>
    </g>
    <g id="xtick_15">
     <g id="line2d_29">
      <path d="M 230.691461 501.3525 
L 230.691461 57.8325 
" clip-path="url(#p878b5c13c4)" style="fill: none; stroke-dasharray: 1.85,0.8; stroke-dashoffset: 0; stroke: #b0b0b0; stroke-opacity: 0.8; stroke-width: 0.5"/>
     </g>
     <g id="line2d_30">
      <g>
       <use xlink:href="#m5cfc0c1a1e" x="230.691461" y="501.3525" style="stroke: #000000; stroke-width: 0.6"/>
      </g>
     </g>
    </g>
    <g id="xtick_16">
     <g id="line2d_31">
      <path d="M 247.204799 501.3525 
L 247.204799 57.8325 
" clip-path="url(#p878b5c13c4)" style="fill: none; stroke-dasharray: 1.85,0.8; stroke-dashoffset: 0; stroke: #b0b0b0; stroke-opacity: 0.8; stroke-width: 0.5"/>
     </g>
     <g id="line2d_32">
      <g>
       <use xlink:href="#m5cfc0c1a1e" x="247.204799" y="501.3525" style="stroke: #000000; stroke-width: 0.6"/>
      </g>
     </g>
    </g>
    <g id="xtick_17">
     <g id="line2d_33">
      <path d="M 263.718136 501.3525 
L 263.718136 57.8325 
" clip-path="url(#p878b5c13c4)" style="fill: none; stroke-dasharray: 1.85,0.8; stroke-dashoffset: 0; stroke: #b0b0b0; stroke-opacity: 0.8; stroke-width: 0.5"/>
     </g>
     <g id="line2d_34">
      <g>
       <use xlink:href="#m5cfc0c1a1e" x="263.718136" y="501.3525" style="stroke: #000000; stroke-width: 0.6"/>
      </g>
     </g>
    </g>
    <g id="xtick_18">
     <g id="line2d_35">
      <path d="M 296.744811 501.3525 
L 296.744811 57.8325 
" clip-path="url(#p878b5c13c4)" style="fill: none; stroke-dasharray: 1.85,0.8; stroke-dashoffset: 0; stroke: #b0b0b0; stroke-opacity: 0.8; stroke-width: 0.5"/>
     </g>
     <g id="line2d_36">
      <g>
       <use xlink:href="#m5cfc0c1a1e" x="296.744811" y="501.3525" style="stroke: #000000; stroke-width: 0.6"/>
      </g>
     </g>
    </g>
    <g id="xtick_19">
     <g id="line2d_37">
      <path d="M 313.258149 501.3525 
L 313.258149 57.8325 
" clip-path="url(#p878b5c13c4)" style="fill: none; stroke-dasharray: 1.85,0.8; stroke-dashoffset: 0; stroke: #b0b0b0; stroke-opacity: 0.8; stroke-width: 0.5"/>
     </g>
     <g id="line2d_38">
      <g>
       <use xlink:href="#m5cfc0c1a1e" x="313.258149" y="501.3525" style="stroke: #000000; stroke-width: 0.6"/>
      </g>
     </g>
    </g>
    <g id="xtick_20">
     <g id="line2d_39">
      <path d="M 329.771487 501.3525 
L 329.771487 57.8325 
" clip-path="url(#p878b5c13c4)" style="fill: none; stroke-dasharray: 1.85,0.8; stroke-dashoffset: 0; stroke: #b0b0b0; stroke-opacity: 0.8; stroke-width: 0.5"/>
     </g>
     <g id="line2d_40">
      <g>
       <use xlink:href="#m5cfc0c1a1e" x="329.771487" y="501.3525" style="stroke: #000000; stroke-width: 0.6"/>
      </g>
     </g>
    </g>
    <g id="xtick_21">
     <g id="line2d_41">
      <path d="M 346.284824 501.3525 
L 346.284824 57.8325 
" clip-path="url(#p878b5c13c4)" style="fill: none; stroke-dasharray: 1.85,0.8; stroke-dashoffset: 0; stroke: #b0b0b0; stroke-opacity: 0.8; stroke-width: 0.5"/>
     </g>
     <g id="line2d_42">
      <g>
       <use xlink:href="#m5cfc0c1a1e" x="346.284824" y="501.3525" style="stroke: #000000; stroke-width: 0.6"/>
      </g>
     </g>
    </g>
    <g id="xtick_22">
     <g id="line2d_43">
      <path d="M 379.311499 501.3525 
L 379.311499 57.8325 
" clip-path="url(#p878b5c13c4)" style="fill: none; stroke-dasharray: 1.85,0.8; stroke-dashoffset: 0; stroke: #b0b0b0; stroke-opacity: 0.8; stroke-width: 0.5"/>
     </g>
     <g id="line2d_44">
      <g>
       <use xlink:href="#m5cfc0c1a1e" x="379.311499" y="501.3525" style="stroke: #000000; stroke-width: 0.6"/>
      </g>
     </g>
    </g>
    <g id="xtick_23">
     <g id="line2d_45">
      <path d="M 395.824837 501.3525 
L 395.824837 57.8325 
" clip-path="url(#p878b5c13c4)" style="fill: none; stroke-dasharray: 1.85,0.8; stroke-dashoffset: 0; stroke: #b0b0b0; stroke-opacity: 0.8; stroke-width: 0.5"/>
     </g>
     <g id="line2d_46">
      <g>
       <use xlink:href="#m5cfc0c1a1e" x="395.824837" y="501.3525" style="stroke: #000000; stroke-width: 0.6"/>
      </g>
     </g>
    </g>
    <g id="xtick_24">
     <g id="line2d_47">
      <path d="M 412.338175 501.3525 
L 412.338175 57.8325 
" clip-path="url(#p878b5c13c4)" style="fill: none; stroke-dasharray: 1.85,0.8; stroke-dashoffset: 0; stroke: #b0b0b0; stroke-opacity: 0.8; stroke-width: 0.5"/>
     </g>
     <g id="line2d_48">
      <g>
       <use xlink:href="#m5cfc0c1a1e" x="412.338175" y="501.3525" style="stroke: #000000; stroke-width: 0.6"/>
      </g>
     </g>
    </g>
    <g id="xtick_25">
     <g id="line2d_49">
      <path d="M 428.851512 501.3525 
L 428.851512 57.8325 
" clip-path="url(#p878b5c13c4)" style="fill: none; stroke-dasharray: 1.85,0.8; stroke-dashoffset: 0; stroke: #b0b0b0; stroke-opacity: 0.8; stroke-width: 0.5"/>
     </g>
     <g id="line2d_50">
      <g>
       <use xlink:href="#m5cfc0c1a1e" x="428.851512" y="501.3525" style="stroke: #000000; stroke-width: 0.6"/>
      </g>
     </g>
    </g>
    <g id="xtick_26">
     <g id="line2d_51">
      <path d="M 461.878187 501.3525 
L 461.878187 57.8325 
" clip-path="url(#p878b5c13c4)" style="fill: none; stroke-dasharray: 1.85,0.8; stroke-dashoffset: 0; stroke: #b0b0b0; stroke-opacity: 0.8; stroke-width: 0.5"/>
     </g>
     <g id="line2d_52">
      <g>
       <use xlink:href="#m5cfc0c1a1e" x="461.878187" y="501.3525" style="stroke: #000000; stroke-width: 0.6"/>
      </g>
     </g>
    </g>
    <g id="xtick_27">
     <g id="line2d_53">
      <path d="M 478.391525 501.3525 
L 478.391525 57.8325 
" clip-path="url(#p878b5c13c4)" style="fill: none; stroke-dasharray: 1.85,0.8; stroke-dashoffset: 0; stroke: #b0b0b0; stroke-opacity: 0.8; stroke-width: 0.5"/>
     </g>
     <g id="line2d_54">
      <g>
       <use xlink:href="#m5cfc0c1a1e" x="478.391525" y="501.3525" style="stroke: #000000; stroke-width: 0.6"/>
      </g>
     </g>
    </g>
    <g id="xtick_28">
     <g id="line2d_55">
      <path d="M 494.904862 501.3525 
L 494.904862 57.8325 
" clip-path="url(#p878b5c13c4)" style="fill: none; stroke-dasharray: 1.85,0.8; stroke-dashoffset: 0; stroke: #b0b0b0; stroke-opacity: 0.8; stroke-width: 0.5"/>
     </g>
     <g id="line2d_56">
      <g>
       <use xlink:href="#m5cfc0c1a1e" x="494.904862" y="501.3525" style="stroke: #000000; stroke-width: 0.6"/>
      </g>
     </g>
    </g>
    <g id="xtick_29">
     <g id="line2d_57">
      <path d="M 511.4182 501.3525 
L 511.4182 57.8325 
" clip-path="url(#p878b5c13c4)" style="fill: none; stroke-dasharray: 1.85,0.8; stroke-dashoffset: 0; stroke: #b0b0b0; stroke-opacity: 0.8; stroke-width: 0.5"/>
     </g>
     <g id="line2d_58">
      <g>
       <use xlink:href="#m5cfc0c1a1e" x="511.4182" y="501.3525" style="stroke: #000000; stroke-width: 0.6"/>
      </g>
     </g>
    </g>
    <g id="xtick_30">
     <g id="line2d_59">
      <path d="M 544.444875 501.3525 
L 544.444875 57.8325 
" clip-path="url(#p878b5c13c4)" style="fill: none; stroke-dasharray: 1.85,0.8; stroke-dashoffset: 0; stroke: #b0b0b0; stroke-opacity: 0.8; stroke-width: 0.5"/>
     </g>
     <g id="line2d_60">
      <g>
       <use xlink:href="#m5cfc0c1a1e" x="544.444875" y="501.3525" style="stroke: #000000; stroke-width: 0.6"/>
      </g>
     </g>
    </g>
    <g id="xtick_31">
     <g id="line2d_61">
      <path d="M 560.958213 501.3525 
L 560.958213 57.8325 
" clip-path="url(#p878b5c13c4)" style="fill: none; stroke-dasharray: 1.85,0.8; stroke-dashoffset: 0; stroke: #b0b0b0; stroke-opacity: 0.8; stroke-width: 0.5"/>
     </g>
     <g id="line2d_62">
      <g>
       <use xlink:href="#m5cfc0c1a1e" x="560.958213" y="501.3525" style="stroke: #000000; stroke-width: 0.6"/>
      </g>
     </g>
    </g>
    <g id="xtick_32">
     <g id="line2d_63">
      <path d="M 577.47155 501.3525 
L 577.47155 57.8325 
" clip-path="url(#p878b5c13c4)" style="fill: none; stroke-dasharray: 1.85,0.8; stroke-dashoffset: 0; stroke: #b0b0b0; stroke-opacity: 0.8; stroke-width: 0.5"/>
     </g>
     <g id="line2d_64">
      <g>
       <use xlink:href="#m5cfc0c1a1e" x="577.47155" y="501.3525" style="stroke: #000000; stroke-width: 0.6"/>
      </g>
     </g>
    </g>
    <g id="xtick_33">
     <g id="line2d_65">
      <path d="M 593.984888 501.3525 
L 593.984888 57.8325 
" clip-path="url(#p878b5c13c4)" style="fill: none; stroke-dasharray: 1.85,0.8; stroke-dashoffset: 0; stroke: #b0b0b0; stroke-opacity: 0.8; stroke-width: 0.5"/>
     </g>
     <g id="line2d_66">
      <g>
       <use xlink:href="#m5cfc0c1a1e" x="593.984888" y="501.3525" style="stroke: #000000; stroke-width: 0.6"/>
      </g>
     </g>
    </g>
    <g id="xtick_34">
     <g id="line2d_67">
      <path d="M 627.011563 501.3525 
L 627.011563 57.8325 
" clip-path="url(#p878b5c13c4)" style="fill: none; stroke-dasharray: 1.85,0.8; stroke-dashoffset: 0; stroke: #b0b0b0; stroke-opacity: 0.8; stroke-width: 0.5"/>
     </g>
     <g id="line2d_68">
      <g>
       <use xlink:href="#m5cfc0c1a1e" x="627.011563" y="501.3525" style="stroke: #000000; stroke-width: 0.6"/>
      </g>
     </g>
    </g>
    <g id="xtick_35">
     <g id="line2d_69">
      <path d="M 643.524901 501.3525 
L 643.524901 57.8325 
" clip-path="url(#p878b5c13c4)" style="fill: none; stroke-dasharray: 1.85,0.8; stroke-dashoffset: 0; stroke: #b0b0b0; stroke-opacity: 0.8; stroke-width: 0.5"/>
     </g>
     <g id="line2d_70">
      <g>
       <use xlink:href="#m5cfc0c1a1e" x="643.524901" y="501.3525" style="stroke: #000000; stroke-width: 0.6"/>
      </g>
     </g>
    </g>
    <g id="xtick_36">
     <g id="line2d_71">
      <path d="M 660.038238 501.3525 
L 660.038238 57.8325 
" clip-path="url(#p878b5c13c4)" style="fill: none; stroke-dasharray: 1.85,0.8; stroke-dashoffset: 0; stroke: #b0b0b0; stroke-opacity: 0.8; stroke-width: 0.5"/>
     </g>
     <g id="line2d_72">
      <g>
       <use xlink:href="#m5cfc0c1a1e" x="660.038238" y="501.3525" style="stroke: #000000; stroke-width: 0.6"/>
      </g>
     </g>
    </g>
    <g id="xtick_37">
     <g id="line2d_73">
      <path d="M 676.551576 501.3525 
L 676.551576 57.8325 
" clip-path="url(#p878b5c13c4)" style="fill: none; stroke-dasharray: 1.85,0.8; stroke-dashoffset: 0; stroke: #b0b0b0; stroke-opacity: 0.8; stroke-width: 0.5"/>
     </g>
     <g id="line2d_74">
      <g>
       <use xlink:href="#m5cfc0c1a1e" x="676.551576" y="501.3525" style="stroke: #000000; stroke-width: 0.6"/>
      </g>
     </g>
    </g>
    <g id="xtick_38">
     <g id="line2d_75">
      <path d="M 709.578251 501.3525 
L 709.578251 57.8325 
" clip-path="url(#p878b5c13c4)" style="fill: none; stroke-dasharray: 1.85,0.8; stroke-dashoffset: 0; stroke: #b0b0b0; stroke-opacity: 0.8; stroke-width: 0.5"/>
     </g>
     <g id="line2d_76">
      <g>
       <use xlink:href="#m5cfc0c1a1e" x="709.578251" y="501.3525" style="stroke: #000000; stroke-width: 0.6"/>
      </g>
     </g>
    </g>
    <g id="xtick_39">
     <g id="line2d_77">
      <path d="M 726.091589 501.3525 
L 726.091589 57.8325 
" clip-path="url(#p878b5c13c4)" style="fill: none; stroke-dasharray: 1.85,0.8; stroke-dashoffset: 0; stroke: #b0b0b0; stroke-opacity: 0.8; stroke-width: 0.5"/>
     </g>
     <g id="line2d_78">
      <g>
       <use xlink:href="#m5cfc0c1a1e" x="726.091589" y="501.3525" style="stroke: #000000; stroke-width: 0.6"/>
      </g>
     </g>
    </g>
    <g id="xtick_40">
     <g id="line2d_79">
      <path d="M 742.604926 501.3525 
L 742.604926 57.8325 
" clip-path="url(#p878b5c13c4)" style="fill: none; stroke-dasharray: 1.85,0.8; stroke-dashoffset: 0; stroke: #b0b0b0; stroke-opacity: 0.8; stroke-width: 0.5"/>
     </g>
     <g id="line2d_80">
      <g>
       <use xlink:href="#m5cfc0c1a1e" x="742.604926" y="501.3525" style="stroke: #000000; stroke-width: 0.6"/>
      </g>
     </g>
    </g>
    <g id="text_9">
     <!-- Time (S) -->
     <g transform="translate(386.375 542.305625) scale(0.2 -0.2)">
      <defs>
       <path id="AptosDisplay-54" d="M 1244 0 
L 1244 3734 
L 50 3734 
L 50 4206 
L 2997 4206 
L 2997 3734 
L 1806 3734 
L 1806 0 
L 1244 0 
z
" transform="scale(0.015625)"/>
       <path id="AptosDisplay-69" d="M 413 0 
L 413 3044 
L 934 3044 
L 934 0 
L 413 0 
z
M 675 3616 
Q 525 3616 437 3702 
Q 350 3788 350 3919 
Q 350 4050 437 4136 
Q 525 4222 675 4222 
Q 822 4222 912 4136 
Q 1003 4050 1003 3919 
Q 1003 3788 912 3702 
Q 822 3616 675 3616 
z
" transform="scale(0.015625)"/>
       <path id="AptosDisplay-6d" d="M 413 0 
L 413 3044 
L 919 3044 
L 931 2575 
Q 1063 2756 1303 2914 
Q 1544 3072 1903 3072 
Q 2403 3072 2618 2778 
Q 2834 2484 2834 1963 
L 2834 0 
L 2316 0 
L 2316 1891 
Q 2316 2106 2275 2275 
Q 2234 2444 2120 2539 
Q 2006 2634 1788 2634 
Q 1488 2634 1277 2482 
Q 1066 2331 934 2156 
L 934 0 
L 413 0 
z
M 4206 0 
L 4206 1891 
Q 4206 2106 4164 2275 
Q 4122 2444 4009 2539 
Q 3897 2634 3681 2634 
Q 3381 2634 3165 2484 
Q 2950 2334 2822 2159 
L 2744 2544 
Q 2916 2741 3175 2906 
Q 3434 3072 3800 3072 
Q 4291 3072 4509 2778 
Q 4728 2484 4728 1963 
L 4728 0 
L 4206 0 
z
" transform="scale(0.015625)"/>
       <path id="AptosDisplay-65" d="M 1663 -56 
Q 1188 -56 878 151 
Q 569 359 417 717 
Q 266 1075 266 1522 
Q 266 1988 412 2342 
Q 559 2697 857 2897 
Q 1156 3097 1606 3097 
Q 2209 3097 2550 2722 
Q 2891 2347 2891 1644 
Q 2891 1597 2889 1533 
Q 2888 1469 2881 1441 
L 791 1441 
Q 794 1144 881 895 
Q 969 647 1161 497 
Q 1353 347 1663 347 
Q 1997 347 2183 511 
Q 2369 675 2378 984 
L 2894 984 
Q 2884 663 2732 430 
Q 2581 197 2309 70 
Q 2038 -56 1663 -56 
z
M 794 1822 
L 2375 1822 
Q 2366 2247 2166 2472 
Q 1966 2697 1606 2697 
Q 1241 2697 1036 2473 
Q 831 2250 794 1822 
z
" transform="scale(0.015625)"/>
       <path id="AptosDisplay-20" transform="scale(0.015625)"/>
       <path id="AptosDisplay-28" d="M 1219 -1116 
Q 969 -678 787 -267 
Q 606 144 511 581 
Q 416 1019 416 1528 
Q 416 2028 509 2486 
Q 603 2944 783 3378 
Q 963 3813 1219 4231 
L 1647 4231 
Q 1278 3600 1101 2886 
Q 925 2172 925 1428 
Q 925 766 1125 103 
Q 1325 -559 1647 -1116 
L 1219 -1116 
z
" transform="scale(0.015625)"/>
       <path id="AptosDisplay-53" d="M 1778 -56 
Q 1328 -56 962 81 
Q 597 219 384 512 
Q 172 806 172 1275 
L 734 1275 
Q 738 941 883 750 
Q 1028 559 1267 481 
Q 1506 403 1794 403 
Q 2063 403 2283 483 
Q 2503 563 2634 723 
Q 2766 884 2766 1134 
Q 2766 1356 2662 1497 
Q 2559 1638 2321 1742 
Q 2084 1847 1678 1950 
Q 1203 2075 897 2223 
Q 591 2372 442 2594 
Q 294 2816 294 3156 
Q 294 3516 462 3761 
Q 631 4006 945 4134 
Q 1259 4263 1697 4263 
Q 2103 4263 2440 4131 
Q 2778 4000 2979 3737 
Q 3181 3475 3181 3084 
L 2616 3084 
Q 2622 3441 2356 3623 
Q 2091 3806 1700 3806 
Q 1300 3806 1073 3645 
Q 847 3484 847 3175 
Q 847 2991 944 2867 
Q 1041 2744 1280 2644 
Q 1519 2544 1941 2434 
Q 2428 2303 2731 2153 
Q 3034 2003 3178 1768 
Q 3322 1534 3322 1153 
Q 3322 747 3117 480 
Q 2913 213 2564 78 
Q 2216 -56 1778 -56 
z
" transform="scale(0.015625)"/>
       <path id="AptosDisplay-29" d="M 234 -1116 
Q 609 -481 786 233 
Q 963 947 963 1694 
Q 963 2356 759 3015 
Q 556 3675 234 4231 
L 663 4231 
Q 919 3800 1098 3389 
Q 1278 2978 1373 2540 
Q 1469 2103 1469 1594 
Q 1469 1094 1375 634 
Q 1281 175 1100 -259 
Q 919 -694 663 -1116 
L 234 -1116 
z
" transform="scale(0.015625)"/>
      </defs>
      <use xlink:href="#AptosDisplay-54"/>
      <use xlink:href="#AptosDisplay-69" x="47.705078"/>
      <use xlink:href="#AptosDisplay-6d" x="68.75"/>
      <use xlink:href="#AptosDisplay-65" x="148.730469"/>
      <use xlink:href="#AptosDisplay-20" x="198.144531"/>
      <use xlink:href="#AptosDisplay-28" x="217.431641"/>
      <use xlink:href="#AptosDisplay-53" x="246.875"/>
      <use xlink:href="#AptosDisplay-29" x="301.464844"/>
     </g>
    </g>
   </g>
   <g id="matplotlib.axis_2">
    <g id="ytick_1">
     <g id="line2d_81">
      <path d="M 84.665625 481.1925 
L 754.265625 481.1925 
" clip-path="url(#p878b5c13c4)" style="fill: none; stroke: #b0b0b0; stroke-opacity: 0.8; stroke-linecap: square"/>
     </g>
     <g id="line2d_82">
      <defs>
       <path id="mb4fe3d62b2" d="M 0 0 
L -3.5 0 
" style="stroke: #000000; stroke-width: 0.8"/>
      </defs>
      <g>
       <use xlink:href="#mb4fe3d62b2" x="84.665625" y="481.1925" style="stroke: #000000; stroke-width: 0.8"/>
      </g>
     </g>
     <g id="text_10">
      <!-- 0 -->
      <g transform="translate(67.20625 487.764375) scale(0.2 -0.2)">
       <use xlink:href="#AptosDisplay-30"/>
      </g>
     </g>
    </g>
    <g id="ytick_2">
     <g id="line2d_83">
      <path d="M 84.665625 402.385227 
L 754.265625 402.385227 
" clip-path="url(#p878b5c13c4)" style="fill: none; stroke: #b0b0b0; stroke-opacity: 0.8; stroke-linecap: square"/>
     </g>
     <g id="line2d_84">
      <g>
       <use xlink:href="#mb4fe3d62b2" x="84.665625" y="402.385227" style="stroke: #000000; stroke-width: 0.8"/>
      </g>
     </g>
     <g id="text_11">
      <!-- 5 -->
      <g transform="translate(67.20625 408.957102) scale(0.2 -0.2)">
       <use xlink:href="#AptosDisplay-35"/>
      </g>
     </g>
    </g>
    <g id="ytick_3">
     <g id="line2d_85">
      <path d="M 84.665625 323.577955 
L 754.265625 323.577955 
" clip-path="url(#p878b5c13c4)" style="fill: none; stroke: #b0b0b0; stroke-opacity: 0.8; stroke-linecap: square"/>
     </g>
     <g id="line2d_86">
      <g>
       <use xlink:href="#mb4fe3d62b2" x="84.665625" y="323.577955" style="stroke: #000000; stroke-width: 0.8"/>
      </g>
     </g>
     <g id="text_12">
      <!-- 10 -->
      <g transform="translate(56.746875 330.14983) scale(0.2 -0.2)">
       <use xlink:href="#AptosDisplay-31"/>
       <use xlink:href="#AptosDisplay-30" x="52.294922"/>
      </g>
     </g>
    </g>
    <g id="ytick_4">
     <g id="line2d_87">
      <path d="M 84.665625 244.770682 
L 754.265625 244.770682 
" clip-path="url(#p878b5c13c4)" style="fill: none; stroke: #b0b0b0; stroke-opacity: 0.8; stroke-linecap: square"/>
     </g>
     <g id="line2d_88">
      <g>
       <use xlink:href="#mb4fe3d62b2" x="84.665625" y="244.770682" style="stroke: #000000; stroke-width: 0.8"/>
      </g>
     </g>
     <g id="text_13">
      <!-- 15 -->
      <g transform="translate(56.746875 251.342557) scale(0.2 -0.2)">
       <use xlink:href="#AptosDisplay-31"/>
       <use xlink:href="#AptosDisplay-35" x="52.294922"/>
      </g>
     </g>
    </g>
    <g id="ytick_5">
     <g id="line2d_89">
      <path d="M 84.665625 165.963409 
L 754.265625 165.963409 
" clip-path="url(#p878b5c13c4)" style="fill: none; stroke: #b0b0b0; stroke-opacity: 0.8; stroke-linecap: square"/>
     </g>
     <g id="line2d_90">
      <g>
       <use xlink:href="#mb4fe3d62b2" x="84.665625" y="165.963409" style="stroke: #000000; stroke-width: 0.8"/>
      </g>
     </g>
     <g id="text_14">
      <!-- 20 -->
      <g transform="translate(56.746875 172.535284) scale(0.2 -0.2)">
       <use xlink:href="#AptosDisplay-32"/>
       <use xlink:href="#AptosDisplay-30" x="52.294922"/>
      </g>
     </g>
    </g>
    <g id="ytick_6">
     <g id="line2d_91">
      <path d="M 84.665625 87.156136 
L 754.265625 87.156136 
" clip-path="url(#p878b5c13c4)" style="fill: none; stroke: #b0b0b0; stroke-opacity: 0.8; stroke-linecap: square"/>
     </g>
     <g id="line2d_92">
      <g>
       <use xlink:href="#mb4fe3d62b2" x="84.665625" y="87.156136" style="stroke: #000000; stroke-width: 0.8"/>
      </g>
     </g>
     <g id="text_15">
      <!-- 25 -->
      <g transform="translate(56.746875 93.728011) scale(0.2 -0.2)">
       <use xlink:href="#AptosDisplay-32"/>
       <use xlink:href="#AptosDisplay-35" x="52.294922"/>
      </g>
     </g>
    </g>
    <g id="ytick_7">
     <g id="line2d_93">
      <path d="M 84.665625 496.953955 
L 754.265625 496.953955 
" clip-path="url(#p878b5c13c4)" style="fill: none; stroke-dasharray: 1.85,0.8; stroke-dashoffset: 0; stroke: #b0b0b0; stroke-opacity: 0.8; stroke-width: 0.5"/>
     </g>
     <g id="line2d_94">
      <defs>
       <path id="mb392af3a78" d="M 0 0 
L -2 0 
" style="stroke: #000000; stroke-width: 0.6"/>
      </defs>
      <g>
       <use xlink:href="#mb392af3a78" x="84.665625" y="496.953955" style="stroke: #000000; stroke-width: 0.6"/>
      </g>
     </g>
    </g>
    <g id="ytick_8">
     <g id="line2d_95">
      <path d="M 84.665625 465.431045 
L 754.265625 465.431045 
" clip-path="url(#p878b5c13c4)" style="fill: none; stroke-dasharray: 1.85,0.8; stroke-dashoffset: 0; stroke: #b0b0b0; stroke-opacity: 0.8; stroke-width: 0.5"/>
     </g>
     <g id="line2d_96">
      <g>
       <use xlink:href="#mb392af3a78" x="84.665625" y="465.431045" style="stroke: #000000; stroke-width: 0.6"/>
      </g>
     </g>
    </g>
    <g id="ytick_9">
     <g id="line2d_97">
      <path d="M 84.665625 449.669591 
L 754.265625 449.669591 
" clip-path="url(#p878b5c13c4)" style="fill: none; stroke-dasharray: 1.85,0.8; stroke-dashoffset: 0; stroke: #b0b0b0; stroke-opacity: 0.8; stroke-width: 0.5"/>
     </g>
     <g id="line2d_98">
      <g>
       <use xlink:href="#mb392af3a78" x="84.665625" y="449.669591" style="stroke: #000000; stroke-width: 0.6"/>
      </g>
     </g>
    </g>
    <g id="ytick_10">
     <g id="line2d_99">
      <path d="M 84.665625 433.908136 
L 754.265625 433.908136 
" clip-path="url(#p878b5c13c4)" style="fill: none; stroke-dasharray: 1.85,0.8; stroke-dashoffset: 0; stroke: #b0b0b0; stroke-opacity: 0.8; stroke-width: 0.5"/>
     </g>
     <g id="line2d_100">
      <g>
       <use xlink:href="#mb392af3a78" x="84.665625" y="433.908136" style="stroke: #000000; stroke-width: 0.6"/>
      </g>
     </g>
    </g>
    <g id="ytick_11">
     <g id="line2d_101">
      <path d="M 84.665625 418.146682 
L 754.265625 418.146682 
" clip-path="url(#p878b5c13c4)" style="fill: none; stroke-dasharray: 1.85,0.8; stroke-dashoffset: 0; stroke: #b0b0b0; stroke-opacity: 0.8; stroke-width: 0.5"/>
     </g>
     <g id="line2d_102">
      <g>
       <use xlink:href="#mb392af3a78" x="84.665625" y="418.146682" style="stroke: #000000; stroke-width: 0.6"/>
      </g>
     </g>
    </g>
    <g id="ytick_12">
     <g id="line2d_103">
      <path d="M 84.665625 386.623773 
L 754.265625 386.623773 
" clip-path="url(#p878b5c13c4)" style="fill: none; stroke-dasharray: 1.85,0.8; stroke-dashoffset: 0; stroke: #b0b0b0; stroke-opacity: 0.8; stroke-width: 0.5"/>
     </g>
     <g id="line2d_104">
      <g>
       <use xlink:href="#mb392af3a78" x="84.665625" y="386.623773" style="stroke: #000000; stroke-width: 0.6"/>
      </g>
     </g>
    </g>
    <g id="ytick_13">
     <g id="line2d_105">
      <path d="M 84.665625 370.862318 
L 754.265625 370.862318 
" clip-path="url(#p878b5c13c4)" style="fill: none; stroke-dasharray: 1.85,0.8; stroke-dashoffset: 0; stroke: #b0b0b0; stroke-opacity: 0.8; stroke-width: 0.5"/>
     </g>
     <g id="line2d_106">
      <g>
       <use xlink:href="#mb392af3a78" x="84.665625" y="370.862318" style="stroke: #000000; stroke-width: 0.6"/>
      </g>
     </g>
    </g>
    <g id="ytick_14">
     <g id="line2d_107">
      <path d="M 84.665625 355.100864 
L 754.265625 355.100864 
" clip-path="url(#p878b5c13c4)" style="fill: none; stroke-dasharray: 1.85,0.8; stroke-dashoffset: 0; stroke: #b0b0b0; stroke-opacity: 0.8; stroke-width: 0.5"/>
     </g>
     <g id="line2d_108">
      <g>
       <use xlink:href="#mb392af3a78" x="84.665625" y="355.100864" style="stroke: #000000; stroke-width: 0.6"/>
      </g>
     </g>
    </g>
    <g id="ytick_15">
     <g id="line2d_109">
      <path d="M 84.665625 339.339409 
L 754.265625 339.339409 
" clip-path="url(#p878b5c13c4)" style="fill: none; stroke-dasharray: 1.85,0.8; stroke-dashoffset: 0; stroke: #b0b0b0; stroke-opacity: 0.8; stroke-width: 0.5"/>
     </g>
     <g id="line2d_110">
      <g>
       <use xlink:href="#mb392af3a78" x="84.665625" y="339.339409" style="stroke: #000000; stroke-width: 0.6"/>
      </g>
     </g>
    </g>
    <g id="ytick_16">
     <g id="line2d_111">
      <path d="M 84.665625 307.8165 
L 754.265625 307.8165 
" clip-path="url(#p878b5c13c4)" style="fill: none; stroke-dasharray: 1.85,0.8; stroke-dashoffset: 0; stroke: #b0b0b0; stroke-opacity: 0.8; stroke-width: 0.5"/>
     </g>
     <g id="line2d_112">
      <g>
       <use xlink:href="#mb392af3a78" x="84.665625" y="307.8165" style="stroke: #000000; stroke-width: 0.6"/>
      </g>
     </g>
    </g>
    <g id="ytick_17">
     <g id="line2d_113">
      <path d="M 84.665625 292.055045 
L 754.265625 292.055045 
" clip-path="url(#p878b5c13c4)" style="fill: none; stroke-dasharray: 1.85,0.8; stroke-dashoffset: 0; stroke: #b0b0b0; stroke-opacity: 0.8; stroke-width: 0.5"/>
     </g>
     <g id="line2d_114">
      <g>
       <use xlink:href="#mb392af3a78" x="84.665625" y="292.055045" style="stroke: #000000; stroke-width: 0.6"/>
      </g>
     </g>
    </g>
    <g id="ytick_18">
     <g id="line2d_115">
      <path d="M 84.665625 276.293591 
L 754.265625 276.293591 
" clip-path="url(#p878b5c13c4)" style="fill: none; stroke-dasharray: 1.85,0.8; stroke-dashoffset: 0; stroke: #b0b0b0; stroke-opacity: 0.8; stroke-width: 0.5"/>
     </g>
     <g id="line2d_116">
      <g>
       <use xlink:href="#mb392af3a78" x="84.665625" y="276.293591" style="stroke: #000000; stroke-width: 0.6"/>
      </g>
     </g>
    </g>
    <g id="ytick_19">
     <g id="line2d_117">
      <path d="M 84.665625 260.532136 
L 754.265625 260.532136 
" clip-path="url(#p878b5c13c4)" style="fill: none; stroke-dasharray: 1.85,0.8; stroke-dashoffset: 0; stroke: #b0b0b0; stroke-opacity: 0.8; stroke-width: 0.5"/>
     </g>
     <g id="line2d_118">
      <g>
       <use xlink:href="#mb392af3a78" x="84.665625" y="260.532136" style="stroke: #000000; stroke-width: 0.6"/>
      </g>
     </g>
    </g>
    <g id="ytick_20">
     <g id="line2d_119">
      <path d="M 84.665625 229.009227 
L 754.265625 229.009227 
" clip-path="url(#p878b5c13c4)" style="fill: none; stroke-dasharray: 1.85,0.8; stroke-dashoffset: 0; stroke: #b0b0b0; stroke-opacity: 0.8; stroke-width: 0.5"/>
     </g>
     <g id="line2d_120">
      <g>
       <use xlink:href="#mb392af3a78" x="84.665625" y="229.009227" style="stroke: #000000; stroke-width: 0.6"/>
      </g>
     </g>
    </g>
    <g id="ytick_21">
     <g id="line2d_121">
      <path d="M 84.665625 213.247773 
L 754.265625 213.247773 
" clip-path="url(#p878b5c13c4)" style="fill: none; stroke-dasharray: 1.85,0.8; stroke-dashoffset: 0; stroke: #b0b0b0; stroke-opacity: 0.8; stroke-width: 0.5"/>
     </g>
     <g id="line2d_122">
      <g>
       <use xlink:href="#mb392af3a78" x="84.665625" y="213.247773" style="stroke: #000000; stroke-width: 0.6"/>
      </g>
     </g>
    </g>
    <g id="ytick_22">
     <g id="line2d_123">
      <path d="M 84.665625 197.486318 
L 754.265625 197.486318 
" clip-path="url(#p878b5c13c4)" style="fill: none; stroke-dasharray: 1.85,0.8; stroke-dashoffset: 0; stroke: #b0b0b0; stroke-opacity: 0.8; stroke-width: 0.5"/>
     </g>
     <g id="line2d_124">
      <g>
       <use xlink:href="#mb392af3a78" x="84.665625" y="197.486318" style="stroke: #000000; stroke-width: 0.6"/>
      </g>
     </g>
    </g>
    <g id="ytick_23">
     <g id="line2d_125">
      <path d="M 84.665625 181.724864 
L 754.265625 181.724864 
" clip-path="url(#p878b5c13c4)" style="fill: none; stroke-dasharray: 1.85,0.8; stroke-dashoffset: 0; stroke: #b0b0b0; stroke-opacity: 0.8; stroke-width: 0.5"/>
     </g>
     <g id="line2d_126">
      <g>
       <use xlink:href="#mb392af3a78" x="84.665625" y="181.724864" style="stroke: #000000; stroke-width: 0.6"/>
      </g>
     </g>
    </g>
    <g id="ytick_24">
     <g id="line2d_127">
      <path d="M 84.665625 150.201955 
L 754.265625 150.201955 
" clip-path="url(#p878b5c13c4)" style="fill: none; stroke-dasharray: 1.85,0.8; stroke-dashoffset: 0; stroke: #b0b0b0; stroke-opacity: 0.8; stroke-width: 0.5"/>
     </g>
     <g id="line2d_128">
      <g>
       <use xlink:href="#mb392af3a78" x="84.665625" y="150.201955" style="stroke: #000000; stroke-width: 0.6"/>
      </g>
     </g>
    </g>
    <g id="ytick_25">
     <g id="line2d_129">
      <path d="M 84.665625 134.4405 
L 754.265625 134.4405 
" clip-path="url(#p878b5c13c4)" style="fill: none; stroke-dasharray: 1.85,0.8; stroke-dashoffset: 0; stroke: #b0b0b0; stroke-opacity: 0.8; stroke-width: 0.5"/>
     </g>
     <g id="line2d_130">
      <g>
       <use xlink:href="#mb392af3a78" x="84.665625" y="134.4405" style="stroke: #000000; stroke-width: 0.6"/>
      </g>
     </g>
    </g>
    <g id="ytick_26">
     <g id="line2d_131">
      <path d="M 84.665625 118.679045 
L 754.265625 118.679045 
" clip-path="url(#p878b5c13c4)" style="fill: none; stroke-dasharray: 1.85,0.8; stroke-dashoffset: 0; stroke: #b0b0b0; stroke-opacity: 0.8; stroke-width: 0.5"/>
     </g>
     <g id="line2d_132">
      <g>
       <use xlink:href="#mb392af3a78" x="84.665625" y="118.679045" style="stroke: #000000; stroke-width: 0.6"/>
      </g>
     </g>
    </g>
    <g id="ytick_27">
     <g id="line2d_133">
      <path d="M 84.665625 102.917591 
L 754.265625 102.917591 
" clip-path="url(#p878b5c13c4)" style="fill: none; stroke-dasharray: 1.85,0.8; stroke-dashoffset: 0; stroke: #b0b0b0; stroke-opacity: 0.8; stroke-width: 0.5"/>
     </g>
     <g id="line2d_134">
      <g>
       <use xlink:href="#mb392af3a78" x="84.665625" y="102.917591" style="stroke: #000000; stroke-width: 0.6"/>
      </g>
     </g>
    </g>
    <g id="ytick_28">
     <g id="line2d_135">
      <path d="M 84.665625 71.394682 
L 754.265625 71.394682 
" clip-path="url(#p878b5c13c4)" style="fill: none; stroke-dasharray: 1.85,0.8; stroke-dashoffset: 0; stroke: #b0b0b0; stroke-opacity: 0.8; stroke-width: 0.5"/>
     </g>
     <g id="line2d_136">
      <g>
       <use xlink:href="#mb392af3a78" x="84.665625" y="71.394682" style="stroke: #000000; stroke-width: 0.6"/>
      </g>
     </g>
    </g>
    <g id="text_16">
     <!-- Efficiency (%) -->
     <g transform="translate(49.221875 335.120625) rotate(-90) scale(0.2 -0.2)">
      <defs>
       <path id="AptosDisplay-45" d="M 472 0 
L 472 4206 
L 3153 4206 
L 3153 3738 
L 1034 3738 
L 1034 2397 
L 2984 2397 
L 2984 1934 
L 1034 1934 
L 1034 469 
L 3153 469 
L 3153 0 
L 472 0 
z
" transform="scale(0.015625)"/>
       <path id="AptosDisplay-66" d="M 550 0 
L 550 2622 
L 44 2622 
L 44 3044 
L 550 3044 
L 550 3219 
Q 550 3453 589 3636 
Q 628 3819 728 3947 
Q 828 4075 1004 4140 
Q 1181 4206 1463 4206 
L 1781 4206 
L 1781 3797 
L 1494 3797 
Q 1219 3797 1145 3645 
Q 1072 3494 1072 3209 
L 1072 3044 
L 1775 3044 
L 1775 2622 
L 1072 2622 
L 1072 0 
L 550 0 
z
" transform="scale(0.015625)"/>
       <path id="AptosDisplay-63" d="M 1634 -53 
Q 1234 -53 925 122 
Q 616 297 441 645 
Q 266 994 266 1513 
Q 266 2031 437 2384 
Q 609 2738 917 2916 
Q 1225 3094 1634 3094 
Q 1978 3094 2251 2978 
Q 2525 2863 2689 2630 
Q 2853 2397 2866 2041 
L 2350 2041 
Q 2328 2334 2139 2503 
Q 1950 2672 1644 2672 
Q 1228 2672 1015 2367 
Q 803 2063 803 1513 
Q 803 1150 897 894 
Q 991 638 1178 503 
Q 1366 369 1644 369 
Q 1956 369 2159 541 
Q 2363 713 2372 1047 
L 2884 1047 
Q 2878 681 2711 436 
Q 2544 191 2264 69 
Q 1984 -53 1634 -53 
z
" transform="scale(0.015625)"/>
       <path id="AptosDisplay-6e" d="M 413 0 
L 413 3044 
L 919 3044 
L 931 2575 
Q 1066 2756 1316 2914 
Q 1566 3072 1941 3072 
Q 2428 3072 2637 2781 
Q 2847 2491 2847 1963 
L 2847 0 
L 2328 0 
L 2328 1891 
Q 2328 2106 2286 2275 
Q 2244 2444 2133 2539 
Q 2022 2634 1816 2634 
Q 1500 2634 1283 2482 
Q 1066 2331 934 2156 
L 934 0 
L 413 0 
z
" transform="scale(0.015625)"/>
       <path id="AptosDisplay-79" d="M 266 -1128 
L 266 -697 
L 525 -697 
Q 716 -697 831 -598 
Q 947 -500 1038 -275 
L 1153 0 
L -13 3044 
L 538 3044 
L 1428 553 
L 2250 3044 
L 2781 3044 
L 1688 0 
L 1550 -356 
Q 1441 -647 1314 -815 
Q 1188 -984 1013 -1056 
Q 838 -1128 578 -1128 
L 266 -1128 
z
" transform="scale(0.015625)"/>
       <path id="AptosDisplay-25" d="M 1188 0 
L 3669 4078 
L 4094 4078 
L 1613 0 
L 1188 0 
z
M 1197 1606 
Q 878 1606 679 1765 
Q 481 1925 390 2209 
Q 300 2494 300 2872 
Q 300 3253 390 3536 
Q 481 3819 679 3976 
Q 878 4134 1197 4134 
Q 1519 4134 1716 3976 
Q 1913 3819 2005 3536 
Q 2097 3253 2097 2872 
Q 2097 2494 2005 2209 
Q 1913 1925 1714 1765 
Q 1516 1606 1197 1606 
z
M 1197 1953 
Q 1391 1953 1498 2084 
Q 1606 2216 1648 2425 
Q 1691 2634 1691 2872 
Q 1691 3109 1648 3318 
Q 1606 3528 1498 3658 
Q 1391 3788 1197 3788 
Q 1006 3788 898 3658 
Q 791 3528 748 3318 
Q 706 3109 706 2872 
Q 706 2634 748 2425 
Q 791 2216 898 2084 
Q 1006 1953 1197 1953 
z
M 4084 -53 
Q 3769 -53 3570 105 
Q 3372 263 3281 547 
Q 3191 831 3191 1209 
Q 3191 1591 3281 1873 
Q 3372 2156 3570 2314 
Q 3769 2472 4084 2472 
Q 4406 2472 4604 2315 
Q 4803 2159 4893 1875 
Q 4984 1591 4984 1209 
Q 4984 831 4893 547 
Q 4803 263 4604 105 
Q 4406 -53 4084 -53 
z
M 4084 294 
Q 4281 294 4387 423 
Q 4494 553 4536 761 
Q 4578 969 4578 1209 
Q 4578 1447 4536 1656 
Q 4494 1866 4387 1994 
Q 4281 2122 4084 2122 
Q 3894 2122 3787 1994 
Q 3681 1866 3639 1656 
Q 3597 1447 3597 1209 
Q 3597 969 3639 761 
Q 3681 553 3787 423 
Q 3894 294 4084 294 
z
" transform="scale(0.015625)"/>
      </defs>
      <use xlink:href="#AptosDisplay-45"/>
      <use xlink:href="#AptosDisplay-66" x="54.052734"/>
      <use xlink:href="#AptosDisplay-66" x="82.373047"/>
      <use xlink:href="#AptosDisplay-69" x="110.693359"/>
      <use xlink:href="#AptosDisplay-63" x="131.738281"/>
      <use xlink:href="#AptosDisplay-69" x="181.005859"/>
      <use xlink:href="#AptosDisplay-65" x="202.050781"/>
      <use xlink:href="#AptosDisplay-6e" x="251.464844"/>
      <use xlink:href="#AptosDisplay-63" x="302.050781"/>
      <use xlink:href="#AptosDisplay-79" x="351.318359"/>
      <use xlink:href="#AptosDisplay-20" x="394.580078"/>
      <use xlink:href="#AptosDisplay-28" x="413.867188"/>
      <use xlink:href="#AptosDisplay-25" x="443.310547"/>
      <use xlink:href="#AptosDisplay-29" x="525.830078"/>
     </g>
    </g>
   </g>
   <g id="line2d_137">
    <path d="M 115.4713 77.9925 
L 116.12853 419.418954 
L 116.789064 441.301027 
L 117.449597 440.539008 
L 118.770664 449.42922 
L 119.431198 442.177362 
L 120.091731 446.386083 
L 120.752265 451.653376 
L 121.412798 449.616689 
L 122.073332 449.881972 
L 122.733865 449.412581 
L 123.394399 451.110899 
L 124.054932 444.572343 
L 124.715466 449.286069 
L 125.375999 452.453317 
L 126.036533 444.614952 
L 126.697066 450.241372 
L 127.3576 445.913762 
L 128.018133 451.24792 
L 128.678667 451.444829 
L 129.3392 447.532941 
L 129.999734 448.079209 
L 130.660267 451.078215 
L 131.320801 448.377603 
L 131.981334 446.370871 
L 132.641868 451.158379 
L 133.302401 444.574347 
L 133.962935 450.620713 
L 134.623468 444.752086 
L 135.284002 451.898483 
L 135.944535 450.584486 
L 136.605069 448.559763 
L 137.265602 448.519236 
L 137.926136 450.589306 
L 138.586669 447.832438 
L 139.247203 449.519223 
L 139.907736 450.067393 
L 140.56827 445.73331 
L 141.228803 452.50618 
L 141.889337 442.97885 
L 142.54987 451.439346 
L 143.210404 451.08715 
L 143.870937 452.274522 
L 144.531471 446.624381 
L 145.192005 451.323268 
L 146.513072 447.893652 
L 147.173605 451.080158 
L 147.834139 443.624903 
L 148.494672 451.648636 
L 149.155206 444.309348 
L 149.815739 451.20684 
L 150.476273 451.251414 
L 151.136806 450.577698 
L 151.79734 451.809883 
L 152.457873 450.963972 
L 153.118407 450.349714 
L 153.77894 448.046193 
L 154.439474 452.892708 
L 155.100007 442.646387 
L 155.760541 449.995701 
L 156.421074 444.774435 
L 157.08491 452.257031 
L 157.742141 451.41091 
L 158.402675 449.542056 
L 159.066511 448.814318 
L 159.727044 451.779232 
L 160.387578 448.12107 
L 161.048111 449.75831 
L 161.708645 450.582331 
L 162.369178 445.399872 
L 163.029712 450.734836 
L 163.690245 444.325443 
L 164.350779 450.47875 
L 165.011312 452.853148 
L 165.671846 446.993042 
L 166.992913 451.136746 
L 167.653446 446.361854 
L 168.31398 450.356569 
L 168.974513 451.800148 
L 169.635047 445.18016 
L 170.29558 451.673139 
L 170.956114 445.535187 
L 171.616647 450.50249 
L 172.277181 448.859333 
L 172.937714 451.660867 
L 173.598248 450.65116 
L 174.258781 451.871052 
L 174.919315 446.63326 
L 175.579848 450.818864 
L 176.240382 451.656686 
L 176.900915 445.942995 
L 177.561449 450.730535 
L 178.221982 445.508828 
L 178.882516 451.040689 
L 179.543049 450.279916 
L 180.203583 448.823728 
L 180.864116 452.201663 
L 181.52465 449.771998 
L 182.185183 448.922777 
L 182.845717 451.037481 
L 183.50625 451.673185 
L 184.166784 445.087511 
L 184.827317 452.036793 
L 185.487851 444.706904 
L 186.148384 448.716141 
L 186.808918 447.488148 
L 187.469451 448.807008 
L 188.129985 451.423109 
L 188.790518 450.524383 
L 189.451052 448.730597 
L 190.111585 452.289799 
L 190.772119 449.186264 
L 191.432652 446.843614 
L 192.093186 444.958352 
L 192.753719 452.194484 
L 193.414253 445.893609 
L 194.074786 450.570431 
L 194.73532 452.585376 
L 195.395853 452.070457 
L 196.056387 449.940279 
L 196.71692 446.262371 
L 197.377454 446.231937 
L 198.037987 452.159817 
L 198.698521 445.853596 
L 199.359054 451.384918 
L 200.019588 446.257201 
L 200.680121 452.091182 
L 201.340655 448.209832 
L 202.001188 451.924793 
L 202.661722 451.50035 
L 203.322255 452.220111 
L 203.982789 447.047763 
L 204.643322 452.131823 
L 205.303856 448.507456 
L 205.964389 441.190102 
L 206.624923 451.044591 
L 207.285456 446.738745 
L 207.94599 451.685392 
L 208.606523 451.193357 
L 209.267057 450.188827 
L 209.92759 451.836591 
L 210.588124 451.022111 
L 211.248657 448.763394 
L 211.909191 451.376011 
L 212.569725 449.169177 
L 213.230258 446.057638 
L 213.890792 450.976399 
L 214.551325 446.495263 
L 215.211859 451.188 
L 215.872392 449.694175 
L 216.532926 451.280022 
L 217.193459 451.964948 
L 217.853993 448.852075 
L 218.514526 448.008866 
L 219.17506 450.88201 
L 219.835593 447.539263 
L 220.496127 447.03799 
L 221.15666 451.474349 
L 221.817194 444.857584 
L 222.477727 451.821454 
L 223.138261 448.743803 
L 223.798794 452.273111 
L 224.459328 452.270364 
L 225.119861 451.434698 
L 225.780395 448.222393 
L 226.440928 452.203293 
L 227.101462 447.572416 
L 227.761995 444.033702 
L 228.422529 450.33865 
L 229.083062 444.044569 
L 229.743596 451.411248 
L 230.404129 449.035575 
L 231.064663 451.577102 
L 231.725196 452.168143 
L 232.38573 452.331164 
L 233.046263 449.232158 
L 233.706797 451.789614 
L 234.36733 450.156975 
L 235.027864 444.299323 
L 235.688397 452.273096 
L 236.348931 446.90432 
L 237.009464 451.666825 
L 237.669998 449.018541 
L 238.330531 451.760389 
L 238.991065 451.857251 
L 239.651598 452.147124 
L 240.312132 450.447477 
L 240.972665 450.531825 
L 241.633199 450.780676 
L 242.293732 446.061859 
L 242.954266 451.339792 
L 243.614799 443.364418 
L 244.275333 453.800965 
L 244.935866 448.603897 
L 245.5964 452.53396 
L 246.256933 452.609169 
L 246.917467 449.926135 
L 247.578 448.996194 
L 248.238534 452.723897 
L 248.899067 447.644117 
L 249.559601 446.432167 
L 250.220134 452.244879 
L 250.880668 444.446084 
L 251.541201 451.172171 
L 252.201735 450.110657 
L 252.862268 451.827924 
L 253.522802 452.029502 
L 254.183335 447.807966 
L 254.843869 450.317509 
L 255.504402 450.244781 
L 256.164936 449.451647 
L 256.825469 452.016717 
L 257.486003 452.297275 
L 258.146536 443.139737 
L 258.80707 450.865304 
L 259.467603 450.109376 
L 260.128137 452.520259 
L 260.78867 450.284563 
L 261.449204 452.605877 
L 262.109737 449.180602 
L 262.770271 451.980973 
L 263.430804 447.030583 
L 264.091338 447.41458 
L 264.751871 452.420542 
L 265.412405 445.026658 
L 266.072938 450.609612 
L 266.733472 446.758559 
L 267.394005 452.769095 
L 268.054539 451.102023 
L 268.715072 452.801476 
L 269.375606 451.110818 
L 270.036139 448.104422 
L 270.696673 452.448206 
L 271.357206 449.151838 
L 272.01774 448.260214 
L 272.678273 452.312586 
L 273.338807 445.348857 
L 273.99934 451.918409 
L 274.659874 446.563422 
L 275.320407 452.450715 
L 275.980941 450.01218 
L 276.641474 451.40895 
L 277.302008 452.234249 
L 277.962541 447.444926 
L 278.623075 450.186605 
L 279.283608 451.020573 
L 279.944142 444.917576 
L 280.604675 451.879038 
L 281.265209 445.811807 
L 281.925742 451.211472 
L 282.586276 452.995908 
L 283.246809 449.598028 
L 283.907343 449.16903 
L 284.567876 452.268972 
L 285.22841 446.19398 
L 285.888943 449.715994 
L 286.549477 452.211666 
L 287.21001 446.709267 
L 287.870544 451.143853 
L 288.531077 446.094609 
L 289.191611 450.823907 
L 289.852144 449.602841 
L 290.512678 452.286212 
L 291.173211 447.381312 
L 291.833745 451.408302 
L 292.494278 450.029397 
L 293.815345 451.179756 
L 294.475879 445.988474 
L 295.136412 451.388449 
L 295.796946 445.069574 
L 296.457479 451.263694 
L 297.118013 452.020426 
L 297.778546 449.919773 
L 298.43908 451.78564 
L 299.099613 451.052748 
L 299.760147 449.899594 
L 300.42068 451.432086 
L 301.081214 452.049595 
L 301.741747 445.806634 
L 302.402281 451.264208 
L 303.062814 446.031912 
L 303.723348 450.930256 
L 304.383881 449.251048 
L 305.044415 449.69914 
L 305.704948 452.355427 
L 307.026015 447.801272 
L 307.686549 451.670283 
L 308.347082 447.692959 
L 309.007616 446.314839 
L 309.668149 452.194399 
L 310.328683 445.237166 
L 310.989216 452.745218 
L 311.64975 449.287346 
L 312.310283 452.116268 
L 314.952418 452.633622 
L 315.612951 447.477728 
L 316.273485 446.382401 
L 316.934018 451.749036 
L 317.594552 445.743 
L 318.255085 451.022891 
L 318.915619 449.695396 
L 319.576152 449.986452 
L 320.236686 451.288301 
L 320.897219 451.731837 
L 321.557753 449.608113 
L 322.218286 449.864485 
L 322.87882 448.662455 
L 323.539353 445.751621 
L 324.199887 452.192584 
L 324.86042 445.324182 
L 325.520954 449.810687 
L 326.181487 442.639552 
L 326.842021 448.818331 
L 327.502554 451.839686 
L 328.163088 448.993173 
L 328.823621 447.342616 
L 329.484155 449.063182 
L 330.144688 448.27767 
L 330.805222 448.246316 
L 331.465755 452.638591 
L 332.126289 445.860118 
L 332.786822 447.82935 
L 333.447356 444.862617 
L 334.107889 452.266098 
L 334.768423 451.728954 
L 335.428956 447.392818 
L 336.08949 448.654531 
L 336.750023 451.665377 
L 338.07109 447.232127 
L 338.731624 450.04338 
L 339.392157 445.570351 
L 340.052691 452.783746 
L 340.713224 447.39741 
L 341.373758 452.067826 
L 342.034291 452.046251 
L 342.694825 447.555489 
L 343.355358 447.939835 
L 344.015892 452.846741 
L 344.676425 446.882074 
L 345.336959 449.568664 
L 345.997492 450.964838 
L 346.658026 451.913317 
L 347.318559 445.872714 
L 347.979093 450.710328 
L 348.639626 446.35139 
L 349.30016 451.680167 
L 349.960693 451.720116 
L 350.621227 448.357702 
L 351.28176 451.873468 
L 351.942294 452.0485 
L 352.602827 448.226073 
L 353.263361 451.069645 
L 353.923894 445.808376 
L 354.584428 452.64345 
L 355.244961 444.039339 
L 355.905495 451.726009 
L 356.566028 449.095854 
L 357.226562 448.221324 
L 357.887095 451.793785 
L 358.547629 449.441285 
L 359.208162 446.246961 
L 359.868696 451.290628 
L 360.529229 447.725228 
L 361.189763 442.729883 
L 361.850296 449.418392 
L 362.51083 443.203751 
L 363.171363 451.918217 
L 363.831897 448.206318 
L 364.49243 451.56658 
L 365.152964 450.507882 
L 365.813497 450.303626 
L 366.474031 447.262279 
L 367.134564 451.964634 
L 367.795098 449.976535 
L 368.455631 444.643309 
L 369.116165 451.252048 
L 369.776698 444.155343 
L 370.437232 451.41136 
L 371.097765 449.793691 
L 371.758299 451.620704 
L 372.418832 451.401483 
L 373.079366 449.393801 
L 373.739899 448.335049 
L 374.400433 451.461211 
L 375.060966 447.444192 
L 375.7215 449.280965 
L 376.382033 451.646648 
L 377.042567 446.489207 
L 377.7031 450.403723 
L 378.363634 445.084326 
L 379.024167 452.461873 
L 379.684701 451.385828 
L 380.345234 449.281655 
L 381.666301 452.033268 
L 382.326835 447.732516 
L 382.987368 448.908091 
L 383.647902 450.985149 
L 384.308435 446.487816 
L 384.968969 450.289273 
L 385.629502 444.999238 
L 386.290036 451.429302 
L 386.950569 450.902044 
L 387.611103 451.495632 
L 388.271636 448.592717 
L 388.93217 450.418114 
L 389.592703 450.145693 
L 390.253237 451.178011 
L 390.91377 451.871465 
L 391.574304 443.475504 
L 392.234837 450.861284 
L 392.895371 446.542007 
L 393.555904 449.266836 
L 394.216438 450.047391 
L 394.876971 447.967598 
L 395.537505 451.415465 
L 396.858572 447.592655 
L 397.519105 447.516387 
L 398.840172 445.566453 
L 399.500706 451.417952 
L 400.161239 444.085937 
L 400.821773 451.02854 
L 401.482306 448.14329 
L 402.14284 450.721917 
L 402.803373 449.762844 
L 403.463907 450.227604 
L 404.127743 447.751806 
L 404.788277 452.159683 
L 405.44881 446.510813 
L 406.109344 445.383424 
L 406.769877 451.688685 
L 407.430411 440.819922 
L 408.090944 452.244296 
L 408.751478 448.894759 
L 409.412011 450.98143 
L 410.072545 451.937449 
L 410.733078 448.186675 
L 411.393612 448.14192 
L 412.054145 447.681691 
L 412.714679 446.2485 
L 413.375212 446.02511 
L 414.035746 452.604614 
L 414.696279 442.987925 
L 415.356813 450.656035 
L 416.017346 449.382373 
L 416.67788 450.010223 
L 417.338413 448.322253 
L 417.998947 450.294098 
L 418.65948 447.868722 
L 419.320014 451.704053 
L 419.980547 447.169651 
L 420.641081 448.784606 
L 421.301614 451.956722 
L 421.962148 440.735118 
L 422.622681 451.380603 
L 423.283215 446.170591 
L 423.943748 445.435802 
L 424.604282 451.720116 
L 425.264815 450.968288 
L 426.585882 449.078132 
L 427.246416 450.58617 
L 427.906949 448.824654 
L 428.567483 447.556476 
L 429.228016 450.484533 
L 429.88855 444.168373 
L 430.549083 444.349645 
L 431.209617 452.833969 
L 431.87015 450.91226 
L 432.530684 452.616893 
L 433.191217 451.934756 
L 433.851751 450.96115 
L 434.512284 448.818055 
L 435.172818 452.192584 
L 435.833351 448.32516 
L 436.493885 445.620184 
L 437.154418 451.86312 
L 437.814952 444.647916 
L 438.475485 451.052666 
L 439.136019 452.422623 
L 439.796552 450.391221 
L 440.457086 451.275653 
L 441.117619 453.334049 
L 441.778153 447.61368 
L 442.438686 452.198672 
L 443.09922 449.196608 
L 443.759753 444.476566 
L 444.420287 451.555307 
L 445.08082 446.26258 
L 445.741354 450.971186 
L 446.401887 448.672631 
L 447.062421 450.971988 
L 447.722954 450.123552 
L 448.383488 451.898421 
L 449.044021 448.243075 
L 449.704555 450.462473 
L 450.365088 448.588346 
L 451.025622 444.735598 
L 451.686155 451.382134 
L 452.346689 445.871854 
L 453.007222 449.867686 
L 453.667756 448.766631 
L 454.328289 451.611921 
L 454.988823 450.100223 
L 455.649356 450.147805 
L 456.30989 449.420673 
L 456.970423 450.629436 
L 457.630957 449.066949 
L 458.29149 448.127061 
L 458.952024 451.717185 
L 459.612557 441.818061 
L 460.273091 451.035747 
L 460.933624 448.991344 
L 461.594158 449.981699 
L 462.254691 451.813624 
L 462.915225 451.385071 
L 463.575758 446.388282 
L 464.236292 451.981905 
L 464.896825 447.882767 
L 465.557359 447.877644 
L 466.217892 451.169935 
L 466.878426 444.999187 
L 467.538959 452.200114 
L 468.199493 448.653825 
L 468.860026 450.81214 
L 469.52056 450.34943 
L 470.181093 446.331547 
L 470.841627 446.094491 
L 471.50216 451.548583 
L 472.162694 449.218738 
L 472.823227 448.630196 
L 473.483761 449.46318 
L 474.144294 444.435302 
L 474.804828 451.771323 
L 475.465361 446.005206 
L 476.125895 450.854612 
L 476.786428 444.768602 
L 477.446962 450.660297 
L 478.768029 451.995924 
L 479.428562 447.148211 
L 480.089096 452.482834 
L 480.749629 449.374694 
L 481.410163 441.91491 
L 482.070697 451.688374 
L 482.73123 445.558175 
L 483.391764 451.005199 
L 484.052297 451.403336 
L 484.712831 450.865561 
L 485.373364 451.505634 
L 486.033898 451.921669 
L 486.694431 448.074987 
L 487.354965 450.471569 
L 488.015498 449.084085 
L 488.676032 444.821129 
L 489.336565 450.314631 
L 489.997099 446.534206 
L 490.657632 452.130246 
L 491.318166 448.156864 
L 491.978699 450.822415 
L 492.639233 450.787902 
L 493.299766 450.372419 
L 493.9603 447.852891 
L 494.620833 451.370102 
L 495.9419 445.208148 
L 496.602434 449.84002 
L 497.262967 444.24533 
L 497.923501 450.309537 
L 498.584034 448.64167 
L 499.244568 451.503505 
L 499.905101 451.69394 
L 501.226168 448.390551 
L 501.886702 448.582594 
L 502.547235 448.570753 
L 503.207769 447.894861 
L 503.868302 445.273281 
L 504.528836 450.073621 
L 505.189369 443.156045 
L 505.849903 451.233423 
L 506.510436 443.757037 
L 507.17097 452.152619 
L 507.831503 450.925126 
L 508.492037 446.163303 
L 509.15257 451.224592 
L 509.813104 449.089356 
L 510.473637 447.989159 
L 511.134171 450.886673 
L 511.794704 440.304977 
L 115.101989 481.1925 
L 514.436838 448.158581 
L 515.097372 450.204041 
L 515.757905 450.849333 
L 516.418439 449.22432 
L 517.078972 446.823235 
L 517.739506 451.615873 
L 518.400039 450.105782 
L 519.060573 444.765238 
L 519.721106 452.011924 
L 520.38164 442.234569 
L 521.042173 450.650161 
L 521.702707 450.256974 
L 522.36324 450.096148 
L 523.023774 452.07553 
L 523.684307 451.704646 
L 524.344841 447.671108 
L 525.005374 451.357318 
L 525.665908 451.134248 
L 526.326441 445.247915 
L 526.986975 451.223869 
L 527.647508 444.916322 
L 528.308042 450.175483 
L 528.968575 449.520178 
L 529.629109 450.92082 
L 530.289642 450.803578 
L 530.950176 451.163855 
L 531.610709 448.807016 
L 532.271243 451.047418 
L 532.931776 446.599023 
L 533.59231 446.141196 
L 534.252843 450.337567 
L 534.913377 446.149817 
L 535.57391 451.022934 
L 536.234444 448.011328 
L 536.894977 450.796318 
L 537.555511 451.465561 
L 538.216044 450.041394 
L 538.876578 444.73612 
L 539.537111 449.868846 
L 540.197645 447.622445 
L 541.518712 451.013266 
L 542.179245 442.280678 
L 542.839779 450.360677 
L 543.500312 448.871992 
L 544.160846 451.638808 
L 544.821379 449.16907 
L 545.481913 451.618112 
L 546.142446 448.274494 
L 546.80298 450.575907 
L 547.463513 449.964226 
L 548.124047 448.62236 
L 548.78458 449.7594 
L 549.445114 445.418631 
L 550.105647 451.34391 
L 550.766181 443.799944 
L 551.426714 450.859689 
L 552.087248 452.219238 
L 552.747781 450.401296 
L 553.408315 447.928265 
L 554.068848 450.438442 
L 554.729382 447.617619 
L 555.389915 451.493932 
L 556.050449 451.965018 
L 556.710982 444.536137 
L 557.371516 451.489117 
L 558.032049 443.913989 
L 558.692583 449.540607 
L 559.353116 446.967441 
L 560.01365 451.703627 
L 560.674183 451.720116 
L 561.334717 450.898919 
L 561.99525 448.517828 
L 562.655784 450.827265 
L 563.316317 446.67252 
L 563.976851 446.389974 
L 564.637384 451.413773 
L 565.297918 444.873945 
L 565.958451 452.458319 
L 566.618985 448.014619 
L 567.279518 451.146585 
L 567.940052 452.129362 
L 568.600585 451.115191 
L 569.261119 447.669238 
L 569.921652 452.042775 
L 571.242719 444.322197 
L 571.903253 451.436362 
L 572.563786 446.671556 
L 573.22432 450.929117 
L 573.884853 449.057274 
L 574.545387 450.461179 
L 575.20592 450.818782 
L 575.866454 448.932905 
L 576.526987 447.384398 
L 577.187521 448.76864 
L 577.848054 447.563873 
L 578.508588 449.280905 
L 579.169121 451.797038 
L 579.829655 451.731103 
L 580.490188 445.388818 
L 581.150722 448.957918 
L 581.811255 445.534598 
L 582.471789 451.809254 
L 583.132323 451.565706 
L 583.792856 450.681881 
L 584.45339 452.212135 
L 585.113923 451.979394 
L 585.774457 447.808864 
L 586.43499 451.535111 
L 587.095524 444.935613 
L 587.756057 451.602392 
L 588.416591 444.905798 
L 589.077124 450.452779 
L 589.737658 449.900003 
L 590.398191 452.236047 
L 591.058725 450.463425 
L 591.719258 452.545111 
L 592.379792 450.385642 
L 593.040325 450.549672 
L 593.700859 447.553568 
L 594.361392 446.864599 
L 595.021926 450.408409 
L 595.682459 446.168767 
L 596.342993 451.044465 
L 597.003526 448.659351 
L 597.66406 450.986273 
L 598.324593 450.145378 
L 598.985127 448.453805 
L 599.64566 448.452657 
L 600.306194 450.718612 
L 601.627261 445.546367 
L 602.287794 449.94232 
L 602.948328 443.793745 
L 603.608861 451.344236 
L 604.269395 449.002692 
L 605.590462 451.749798 
L 606.250995 448.365791 
L 606.911529 448.804365 
L 607.572062 451.657605 
L 608.232596 448.276478 
L 608.893129 447.359426 
L 609.553663 450.001204 
L 610.214196 442.462683 
L 610.87473 450.651384 
L 611.535263 443.787389 
L 612.195797 451.07657 
L 612.85633 451.417856 
L 613.516864 450.57743 
L 614.177397 448.034195 
L 614.837931 451.052843 
L 615.498464 446.93211 
L 616.158998 448.713124 
L 616.819531 450.845536 
L 617.480065 441.821402 
L 618.140598 451.3242 
L 618.801132 446.237661 
L 619.461665 450.00736 
L 620.122199 451.680761 
L 620.782732 450.051073 
L 621.443266 450.279584 
L 622.103799 449.704193 
L 622.764333 447.096687 
L 623.424866 451.461288 
L 624.0854 450.635736 
L 624.745933 443.651446 
L 625.406467 450.241736 
L 626.067 444.665651 
L 626.727534 450.688604 
L 627.388067 446.188544 
L 628.048601 450.204977 
L 628.709134 450.212925 
L 629.369668 451.986889 
L 630.030201 449.133907 
L 630.690735 451.283262 
L 631.351268 447.402327 
L 632.011802 445.043521 
L 632.672335 451.377127 
L 633.332869 444.77883 
L 633.993402 451.906556 
L 634.653936 449.6535 
L 635.314469 446.302301 
L 635.975003 449.690248 
L 636.635536 450.474006 
L 637.29607 449.432793 
L 637.956603 450.777066 
L 638.617137 447.210975 
L 639.27767 448.423745 
L 639.938204 450.792913 
L 640.598737 443.470497 
L 641.259271 450.843205 
L 641.919804 447.891359 
L 643.240871 452.040314 
L 643.901405 447.625982 
L 644.561938 447.279792 
L 645.222472 451.246533 
L 645.886308 449.062879 
L 646.543539 447.789673 
L 647.207375 450.202261 
L 647.867908 442.801948 
L 648.528442 449.13821 
L 649.188975 441.496597 
L 649.849509 448.930173 
L 650.510043 450.527876 
L 651.170576 451.390421 
L 651.83111 447.54052 
L 652.491643 450.31394 
L 653.152177 447.757858 
L 653.81271 450.64772 
L 654.473244 450.063434 
L 655.133777 445.099453 
L 655.794311 450.766856 
L 656.454844 442.354901 
L 657.115378 443.504854 
L 657.775911 450.478034 
L 658.436445 445.970907 
L 659.096978 451.201561 
L 659.757512 451.281296 
L 660.418045 448.969948 
L 661.078579 447.638613 
L 661.739112 450.903584 
L 662.399646 444.929918 
L 663.060179 445.70997 
L 663.720713 444.274942 
L 664.381246 449.817432 
L 665.04178 448.417756 
L 665.702313 451.054485 
L 666.362847 450.978333 
L 667.02338 447.811433 
L 667.683914 448.293072 
L 668.344447 450.088607 
L 669.004981 448.1152 
L 669.665514 444.745608 
L 670.326048 450.381837 
L 670.986581 443.483312 
L 671.647115 452.74656 
L 672.307648 445.310264 
L 672.968182 450.617575 
L 673.628715 450.02089 
L 674.289249 448.120912 
L 674.949782 447.268441 
L 675.610316 451.572274 
L 676.270849 447.829681 
L 676.931383 448.858861 
L 677.591916 450.759044 
L 678.25245 443.71726 
L 678.912983 451.330703 
L 679.573517 443.797206 
L 680.23405 448.723085 
L 680.894584 450.090914 
L 681.555117 447.822645 
L 682.215651 447.456784 
L 682.876184 449.652403 
L 683.536718 446.955817 
L 684.197251 450.326035 
L 684.857785 451.322198 
L 685.518318 444.617122 
L 686.178852 450.09653 
L 686.839385 443.652727 
L 687.499919 449.842839 
L 688.820986 447.496829 
L 689.481519 450.60482 
L 690.142053 451.027422 
L 690.802586 449.12228 
L 691.46312 450.185255 
L 692.123653 448.852863 
L 692.784187 444.387589 
L 693.44472 451.218386 
L 694.105254 445.292775 
L 694.765787 450.393001 
L 695.426321 447.603978 
L 696.086854 450.016703 
L 696.747388 451.125468 
L 697.407921 448.61953 
L 698.068455 445.559785 
L 698.728988 450.238303 
L 699.389522 448.61754 
L 700.050055 447.520419 
L 700.710589 449.781897 
L 701.371122 443.540324 
L 702.031656 450.794245 
L 702.692189 447.868831 
L 703.352723 450.415251 
L 704.013256 447.844411 
L 704.67379 447.119968 
L 705.334323 447.640288 
L 705.994857 449.858093 
L 706.65539 448.863888 
L 707.315924 448.337682 
L 707.976457 450.650245 
L 708.636991 440.786971 
L 709.297524 450.685404 
L 709.958058 443.485671 
L 710.618591 450.111737 
L 711.279125 450.716168 
L 713.921259 446.919599 
L 714.581792 450.893064 
L 715.242326 447.54864 
L 715.902859 439.536482 
L 716.563393 449.149098 
L 717.223926 443.372372 
L 717.88446 450.86414 
L 718.544993 449.667882 
L 719.205527 451.721864 
L 719.86606 450.426404 
L 720.526594 450.79377 
L 721.187127 447.806128 
L 721.847661 449.936039 
L 723.168728 444.10088 
L 723.829261 450.29247 
L 723.829261 450.29247 
" clip-path="url(#p878b5c13c4)" style="fill: none; stroke: #ac2b37; stroke-width: 1.5; stroke-linecap: square"/>
   </g>
   <g id="patch_3">
    <path d="M 84.665625 501.3525 
L 84.665625 57.8325 
" style="fill: none; stroke: #000000; stroke-width: 0.8; stroke-linejoin: miter; stroke-linecap: square"/>
   </g>
   <g id="patch_4">
    <path d="M 754.265625 501.3525 
L 754.265625 57.8325 
" style="fill: none; stroke: #000000; stroke-width: 0.8; stroke-linejoin: miter; stroke-linecap: square"/>
   </g>
   <g id="patch_5">
    <path d="M 84.665625 501.3525 
L 754.265625 501.3525 
" style="fill: none; stroke: #000000; stroke-width: 0.8; stroke-linejoin: miter; stroke-linecap: square"/>
   </g>
   <g id="patch_6">
    <path d="M 84.665625 57.8325 
L 754.265625 57.8325 
" style="fill: none; stroke: #000000; stroke-width: 0.8; stroke-linejoin: miter; stroke-linecap: square"/>
   </g>
   <g id="text_17">
    <!-- Efficiency vs Time -->
    <g transform="translate(332.95875 51.8325) scale(0.24 -0.24)">
     <defs>
      <path id="AptosDisplay-76" d="M 1103 0 
L -13 3044 
L 538 3044 
L 1391 513 
L 2250 3044 
L 2781 3044 
L 1678 0 
L 1103 0 
z
" transform="scale(0.015625)"/>
      <path id="AptosDisplay-73" d="M 1506 -41 
Q 1247 -41 1017 14 
Q 788 69 613 191 
Q 438 313 339 506 
Q 241 700 241 978 
L 744 978 
Q 744 628 966 487 
Q 1188 347 1519 347 
Q 1816 347 2008 458 
Q 2200 569 2200 822 
Q 2200 1047 2026 1153 
Q 1853 1259 1413 1369 
Q 1056 1453 815 1564 
Q 575 1675 453 1845 
Q 331 2016 331 2275 
Q 331 2475 417 2626 
Q 503 2778 658 2879 
Q 813 2981 1020 3032 
Q 1228 3084 1472 3084 
Q 1713 3084 1923 3028 
Q 2134 2972 2296 2855 
Q 2459 2738 2551 2552 
Q 2644 2366 2644 2109 
L 2138 2109 
Q 2138 2425 1945 2558 
Q 1753 2691 1472 2691 
Q 1191 2691 1016 2594 
Q 841 2497 841 2291 
Q 841 2169 919 2084 
Q 997 2000 1181 1933 
Q 1366 1866 1675 1791 
Q 2019 1709 2248 1596 
Q 2478 1484 2595 1306 
Q 2713 1128 2713 847 
Q 2713 616 2622 447 
Q 2531 278 2367 170 
Q 2203 63 1983 11 
Q 1763 -41 1506 -41 
z
" transform="scale(0.015625)"/>
     </defs>
     <use xlink:href="#AptosDisplay-45"/>
     <use xlink:href="#AptosDisplay-66" x="54.052734"/>
     <use xlink:href="#AptosDisplay-66" x="82.373047"/>
     <use xlink:href="#AptosDisplay-69" x="110.693359"/>
     <use xlink:href="#AptosDisplay-63" x="131.738281"/>
     <use xlink:href="#AptosDisplay-69" x="181.005859"/>
     <use xlink:href="#AptosDisplay-65" x="202.050781"/>
     <use xlink:href="#AptosDisplay-6e" x="251.464844"/>
     <use xlink:href="#AptosDisplay-63" x="302.050781"/>
     <use xlink:href="#AptosDisplay-79" x="351.318359"/>
     <use xlink:href="#AptosDisplay-20" x="394.580078"/>
     <use xlink:href="#AptosDisplay-76" x="413.867188"/>
     <use xlink:href="#AptosDisplay-73" x="457.128906"/>
     <use xlink:href="#AptosDisplay-20" x="503.417969"/>
     <use xlink:href="#AptosDisplay-54" x="522.705078"/>
     <use xlink:href="#AptosDisplay-69" x="570.410156"/>
     <use xlink:href="#AptosDisplay-6d" x="591.455078"/>
     <use xlink:href="#AptosDisplay-65" x="671.435547"/>
    </g>
   </g>
  </g>
 </g>
 <defs>
  <clipPath id="p878b5c13c4">
   <rect x="84.665625" y="57.8325" width="669.6" height="443.52"/>
  </clipPath>
 </defs>
</svg>
