<?xml version="1.0" encoding="utf-8" standalone="no"?>
<!DOCTYPE svg PUBLIC "-//W3C//DTD SVG 1.1//EN"
  "http://www.w3.org/Graphics/SVG/1.1/DTD/svg11.dtd">
<svg xmlns:xlink="http://www.w3.org/1999/xlink" width="800.88125pt" height="581.830625pt" viewBox="0 0 800.88125 581.830625" xmlns="http://www.w3.org/2000/svg" version="1.1">
 <metadata>
  <rdf:RDF xmlns:dc="http://purl.org/dc/elements/1.1/" xmlns:cc="http://creativecommons.org/ns#" xmlns:rdf="http://www.w3.org/1999/02/22-rdf-syntax-ns#">
   <cc:Work>
    <dc:type rdf:resource="http://purl.org/dc/dcmitype/StillImage"/>
    <dc:date>2025-04-03T01:48:18.921645</dc:date>
    <dc:format>image/svg+xml</dc:format>
    <dc:creator>
     <cc:Agent>
      <dc:title>Matplotlib v3.8.2, https://matplotlib.org/</dc:title>
     </cc:Agent>
    </dc:creator>
   </cc:Work>
  </rdf:RDF>
 </metadata>
 <defs>
  <style type="text/css">*{stroke-linejoin: round; stroke-linecap: butt}</style>
 </defs>
 <g id="figure_1">
  <g id="patch_1">
   <path d="M 0 581.830625 
L 800.88125 581.830625 
L 800.88125 0 
L 0 0 
z
" style="fill: #ffffff"/>
  </g>
  <g id="axes_1">
   <g id="patch_2">
    <path d="M 95.28125 501.3525 
L 764.88125 501.3525 
L 764.88125 57.8325 
L 95.28125 57.8325 
z
" style="fill: #ffffff"/>
   </g>
   <g id="matplotlib.axis_1">
    <g id="xtick_1">
     <g id="line2d_1">
      <path d="M 125.359353 501.3525 
L 125.359353 57.8325 
" clip-path="url(#pc4d03dd3a5)" style="fill: none; stroke: #b0b0b0; stroke-opacity: 0.8; stroke-linecap: square"/>
     </g>
     <g id="line2d_2">
      <defs>
       <path id="m4f97472ae8" d="M 0 0 
L 0 3.5 
" style="stroke: #000000; stroke-width: 0.8"/>
      </defs>
      <g>
       <use xlink:href="#m4f97472ae8" x="125.359353" y="501.3525" style="stroke: #000000; stroke-width: 0.8"/>
      </g>
     </g>
     <g id="text_1">
      <!-- 0 -->
      <g transform="translate(120.129665 521.49625) scale(0.2 -0.2)">
       <defs>
        <path id="AptosDisplay-30" d="M 1672 -56 
Q 1291 -56 1028 105 
Q 766 266 605 552 
Q 444 838 372 1216 
Q 300 1594 300 2031 
Q 300 2475 372 2856 
Q 444 3238 605 3525 
Q 766 3813 1028 3973 
Q 1291 4134 1672 4134 
Q 2053 4134 2317 3975 
Q 2581 3816 2742 3527 
Q 2903 3238 2975 2858 
Q 3047 2478 3047 2038 
Q 3047 1597 2975 1217 
Q 2903 838 2742 552 
Q 2581 266 2318 105 
Q 2056 -56 1672 -56 
z
M 1672 409 
Q 1916 409 2073 550 
Q 2231 691 2322 925 
Q 2413 1159 2448 1448 
Q 2484 1738 2484 2038 
Q 2484 2338 2448 2628 
Q 2413 2919 2322 3153 
Q 2231 3388 2073 3527 
Q 1916 3666 1669 3666 
Q 1428 3666 1268 3527 
Q 1109 3388 1020 3153 
Q 931 2919 893 2628 
Q 856 2338 856 2038 
Q 856 1741 893 1450 
Q 931 1159 1020 925 
Q 1109 691 1268 550 
Q 1428 409 1672 409 
z
" transform="scale(0.015625)"/>
       </defs>
       <use xlink:href="#AptosDisplay-30"/>
      </g>
     </g>
    </g>
    <g id="xtick_2">
     <g id="line2d_3">
      <path d="M 206.048751 501.3525 
L 206.048751 57.8325 
" clip-path="url(#pc4d03dd3a5)" style="fill: none; stroke: #b0b0b0; stroke-opacity: 0.8; stroke-linecap: square"/>
     </g>
     <g id="line2d_4">
      <g>
       <use xlink:href="#m4f97472ae8" x="206.048751" y="501.3525" style="stroke: #000000; stroke-width: 0.8"/>
      </g>
     </g>
     <g id="text_2">
      <!-- 25 -->
      <g transform="translate(195.589376 521.49625) scale(0.2 -0.2)">
       <defs>
        <path id="AptosDisplay-32" d="M 247 0 
L 247 413 
L 1725 1741 
Q 2100 2081 2269 2351 
Q 2438 2622 2438 2938 
Q 2438 3256 2263 3461 
Q 2088 3666 1691 3666 
Q 1247 3666 1055 3439 
Q 863 3213 863 2869 
L 341 2869 
Q 341 3250 491 3534 
Q 641 3819 941 3975 
Q 1241 4131 1691 4131 
Q 2103 4131 2390 3986 
Q 2678 3841 2828 3578 
Q 2978 3316 2978 2959 
Q 2978 2638 2853 2375 
Q 2728 2113 2517 1883 
Q 2306 1653 2044 1425 
L 959 463 
L 3097 463 
L 3097 0 
L 247 0 
z
" transform="scale(0.015625)"/>
        <path id="AptosDisplay-35" d="M 1669 -56 
Q 1278 -56 964 83 
Q 650 222 465 483 
Q 281 744 281 1113 
L 816 1113 
Q 816 778 1055 584 
Q 1294 391 1669 391 
Q 2069 391 2291 625 
Q 2513 859 2513 1319 
Q 2513 1772 2291 1989 
Q 2069 2206 1697 2206 
Q 1409 2206 1223 2123 
Q 1038 2041 916 1894 
L 444 1894 
L 622 4078 
L 2788 4078 
L 2788 3613 
L 1041 3613 
L 931 2322 
Q 1044 2453 1251 2550 
Q 1459 2647 1775 2647 
Q 2131 2647 2420 2506 
Q 2709 2366 2881 2072 
Q 3053 1778 3053 1319 
Q 3053 863 2875 558 
Q 2697 253 2384 98 
Q 2072 -56 1669 -56 
z
" transform="scale(0.015625)"/>
       </defs>
       <use xlink:href="#AptosDisplay-32"/>
       <use xlink:href="#AptosDisplay-35" x="52.294922"/>
      </g>
     </g>
    </g>
    <g id="xtick_3">
     <g id="line2d_5">
      <path d="M 286.738148 501.3525 
L 286.738148 57.8325 
" clip-path="url(#pc4d03dd3a5)" style="fill: none; stroke: #b0b0b0; stroke-opacity: 0.8; stroke-linecap: square"/>
     </g>
     <g id="line2d_6">
      <g>
       <use xlink:href="#m4f97472ae8" x="286.738148" y="501.3525" style="stroke: #000000; stroke-width: 0.8"/>
      </g>
     </g>
     <g id="text_3">
      <!-- 50 -->
      <g transform="translate(276.278773 521.49625) scale(0.2 -0.2)">
       <use xlink:href="#AptosDisplay-35"/>
       <use xlink:href="#AptosDisplay-30" x="52.294922"/>
      </g>
     </g>
    </g>
    <g id="xtick_4">
     <g id="line2d_7">
      <path d="M 367.427546 501.3525 
L 367.427546 57.8325 
" clip-path="url(#pc4d03dd3a5)" style="fill: none; stroke: #b0b0b0; stroke-opacity: 0.8; stroke-linecap: square"/>
     </g>
     <g id="line2d_8">
      <g>
       <use xlink:href="#m4f97472ae8" x="367.427546" y="501.3525" style="stroke: #000000; stroke-width: 0.8"/>
      </g>
     </g>
     <g id="text_4">
      <!-- 75 -->
      <g transform="translate(356.968171 521.49625) scale(0.2 -0.2)">
       <defs>
        <path id="AptosDisplay-37" d="M 766 0 
L 2609 3600 
L 194 3600 
L 194 4078 
L 3141 4078 
L 3141 3622 
L 1334 0 
L 766 0 
z
" transform="scale(0.015625)"/>
       </defs>
       <use xlink:href="#AptosDisplay-37"/>
       <use xlink:href="#AptosDisplay-35" x="52.294922"/>
      </g>
     </g>
    </g>
    <g id="xtick_5">
     <g id="line2d_9">
      <path d="M 448.116944 501.3525 
L 448.116944 57.8325 
" clip-path="url(#pc4d03dd3a5)" style="fill: none; stroke: #b0b0b0; stroke-opacity: 0.8; stroke-linecap: square"/>
     </g>
     <g id="line2d_10">
      <g>
       <use xlink:href="#m4f97472ae8" x="448.116944" y="501.3525" style="stroke: #000000; stroke-width: 0.8"/>
      </g>
     </g>
     <g id="text_5">
      <!-- 100 -->
      <g transform="translate(432.427882 521.49625) scale(0.2 -0.2)">
       <defs>
        <path id="AptosDisplay-31" d="M 1659 0 
L 1659 3425 
Q 1575 3309 1420 3201 
Q 1266 3094 1052 3009 
Q 838 2925 578 2888 
L 578 3381 
Q 834 3425 1057 3540 
Q 1281 3656 1453 3806 
Q 1625 3956 1719 4094 
L 2206 4094 
L 2206 0 
L 1659 0 
z
" transform="scale(0.015625)"/>
       </defs>
       <use xlink:href="#AptosDisplay-31"/>
       <use xlink:href="#AptosDisplay-30" x="52.294922"/>
       <use xlink:href="#AptosDisplay-30" x="104.589844"/>
      </g>
     </g>
    </g>
    <g id="xtick_6">
     <g id="line2d_11">
      <path d="M 528.806342 501.3525 
L 528.806342 57.8325 
" clip-path="url(#pc4d03dd3a5)" style="fill: none; stroke: #b0b0b0; stroke-opacity: 0.8; stroke-linecap: square"/>
     </g>
     <g id="line2d_12">
      <g>
       <use xlink:href="#m4f97472ae8" x="528.806342" y="501.3525" style="stroke: #000000; stroke-width: 0.8"/>
      </g>
     </g>
     <g id="text_6">
      <!-- 125 -->
      <g transform="translate(513.11728 521.49625) scale(0.2 -0.2)">
       <use xlink:href="#AptosDisplay-31"/>
       <use xlink:href="#AptosDisplay-32" x="52.294922"/>
       <use xlink:href="#AptosDisplay-35" x="104.589844"/>
      </g>
     </g>
    </g>
    <g id="xtick_7">
     <g id="line2d_13">
      <path d="M 609.49574 501.3525 
L 609.49574 57.8325 
" clip-path="url(#pc4d03dd3a5)" style="fill: none; stroke: #b0b0b0; stroke-opacity: 0.8; stroke-linecap: square"/>
     </g>
     <g id="line2d_14">
      <g>
       <use xlink:href="#m4f97472ae8" x="609.49574" y="501.3525" style="stroke: #000000; stroke-width: 0.8"/>
      </g>
     </g>
     <g id="text_7">
      <!-- 150 -->
      <g transform="translate(593.806677 521.49625) scale(0.2 -0.2)">
       <use xlink:href="#AptosDisplay-31"/>
       <use xlink:href="#AptosDisplay-35" x="52.294922"/>
       <use xlink:href="#AptosDisplay-30" x="104.589844"/>
      </g>
     </g>
    </g>
    <g id="xtick_8">
     <g id="line2d_15">
      <path d="M 690.185138 501.3525 
L 690.185138 57.8325 
" clip-path="url(#pc4d03dd3a5)" style="fill: none; stroke: #b0b0b0; stroke-opacity: 0.8; stroke-linecap: square"/>
     </g>
     <g id="line2d_16">
      <g>
       <use xlink:href="#m4f97472ae8" x="690.185138" y="501.3525" style="stroke: #000000; stroke-width: 0.8"/>
      </g>
     </g>
     <g id="text_8">
      <!-- 175 -->
      <g transform="translate(674.496075 521.49625) scale(0.2 -0.2)">
       <use xlink:href="#AptosDisplay-31"/>
       <use xlink:href="#AptosDisplay-37" x="52.294922"/>
       <use xlink:href="#AptosDisplay-35" x="104.589844"/>
      </g>
     </g>
    </g>
    <g id="xtick_9">
     <g id="line2d_17">
      <path d="M 109.221473 501.3525 
L 109.221473 57.8325 
" clip-path="url(#pc4d03dd3a5)" style="fill: none; stroke-dasharray: 1.85,0.8; stroke-dashoffset: 0; stroke: #b0b0b0; stroke-opacity: 0.8; stroke-width: 0.5"/>
     </g>
     <g id="line2d_18">
      <defs>
       <path id="mc72eec1957" d="M 0 0 
L 0 2 
" style="stroke: #000000; stroke-width: 0.6"/>
      </defs>
      <g>
       <use xlink:href="#mc72eec1957" x="109.221473" y="501.3525" style="stroke: #000000; stroke-width: 0.6"/>
      </g>
     </g>
    </g>
    <g id="xtick_10">
     <g id="line2d_19">
      <path d="M 141.497232 501.3525 
L 141.497232 57.8325 
" clip-path="url(#pc4d03dd3a5)" style="fill: none; stroke-dasharray: 1.85,0.8; stroke-dashoffset: 0; stroke: #b0b0b0; stroke-opacity: 0.8; stroke-width: 0.5"/>
     </g>
     <g id="line2d_20">
      <g>
       <use xlink:href="#mc72eec1957" x="141.497232" y="501.3525" style="stroke: #000000; stroke-width: 0.6"/>
      </g>
     </g>
    </g>
    <g id="xtick_11">
     <g id="line2d_21">
      <path d="M 157.635112 501.3525 
L 157.635112 57.8325 
" clip-path="url(#pc4d03dd3a5)" style="fill: none; stroke-dasharray: 1.85,0.8; stroke-dashoffset: 0; stroke: #b0b0b0; stroke-opacity: 0.8; stroke-width: 0.5"/>
     </g>
     <g id="line2d_22">
      <g>
       <use xlink:href="#mc72eec1957" x="157.635112" y="501.3525" style="stroke: #000000; stroke-width: 0.6"/>
      </g>
     </g>
    </g>
    <g id="xtick_12">
     <g id="line2d_23">
      <path d="M 173.772991 501.3525 
L 173.772991 57.8325 
" clip-path="url(#pc4d03dd3a5)" style="fill: none; stroke-dasharray: 1.85,0.8; stroke-dashoffset: 0; stroke: #b0b0b0; stroke-opacity: 0.8; stroke-width: 0.5"/>
     </g>
     <g id="line2d_24">
      <g>
       <use xlink:href="#mc72eec1957" x="173.772991" y="501.3525" style="stroke: #000000; stroke-width: 0.6"/>
      </g>
     </g>
    </g>
    <g id="xtick_13">
     <g id="line2d_25">
      <path d="M 189.910871 501.3525 
L 189.910871 57.8325 
" clip-path="url(#pc4d03dd3a5)" style="fill: none; stroke-dasharray: 1.85,0.8; stroke-dashoffset: 0; stroke: #b0b0b0; stroke-opacity: 0.8; stroke-width: 0.5"/>
     </g>
     <g id="line2d_26">
      <g>
       <use xlink:href="#mc72eec1957" x="189.910871" y="501.3525" style="stroke: #000000; stroke-width: 0.6"/>
      </g>
     </g>
    </g>
    <g id="xtick_14">
     <g id="line2d_27">
      <path d="M 222.18663 501.3525 
L 222.18663 57.8325 
" clip-path="url(#pc4d03dd3a5)" style="fill: none; stroke-dasharray: 1.85,0.8; stroke-dashoffset: 0; stroke: #b0b0b0; stroke-opacity: 0.8; stroke-width: 0.5"/>
     </g>
     <g id="line2d_28">
      <g>
       <use xlink:href="#mc72eec1957" x="222.18663" y="501.3525" style="stroke: #000000; stroke-width: 0.6"/>
      </g>
     </g>
    </g>
    <g id="xtick_15">
     <g id="line2d_29">
      <path d="M 238.32451 501.3525 
L 238.32451 57.8325 
" clip-path="url(#pc4d03dd3a5)" style="fill: none; stroke-dasharray: 1.85,0.8; stroke-dashoffset: 0; stroke: #b0b0b0; stroke-opacity: 0.8; stroke-width: 0.5"/>
     </g>
     <g id="line2d_30">
      <g>
       <use xlink:href="#mc72eec1957" x="238.32451" y="501.3525" style="stroke: #000000; stroke-width: 0.6"/>
      </g>
     </g>
    </g>
    <g id="xtick_16">
     <g id="line2d_31">
      <path d="M 254.462389 501.3525 
L 254.462389 57.8325 
" clip-path="url(#pc4d03dd3a5)" style="fill: none; stroke-dasharray: 1.85,0.8; stroke-dashoffset: 0; stroke: #b0b0b0; stroke-opacity: 0.8; stroke-width: 0.5"/>
     </g>
     <g id="line2d_32">
      <g>
       <use xlink:href="#mc72eec1957" x="254.462389" y="501.3525" style="stroke: #000000; stroke-width: 0.6"/>
      </g>
     </g>
    </g>
    <g id="xtick_17">
     <g id="line2d_33">
      <path d="M 270.600269 501.3525 
L 270.600269 57.8325 
" clip-path="url(#pc4d03dd3a5)" style="fill: none; stroke-dasharray: 1.85,0.8; stroke-dashoffset: 0; stroke: #b0b0b0; stroke-opacity: 0.8; stroke-width: 0.5"/>
     </g>
     <g id="line2d_34">
      <g>
       <use xlink:href="#mc72eec1957" x="270.600269" y="501.3525" style="stroke: #000000; stroke-width: 0.6"/>
      </g>
     </g>
    </g>
    <g id="xtick_18">
     <g id="line2d_35">
      <path d="M 302.876028 501.3525 
L 302.876028 57.8325 
" clip-path="url(#pc4d03dd3a5)" style="fill: none; stroke-dasharray: 1.85,0.8; stroke-dashoffset: 0; stroke: #b0b0b0; stroke-opacity: 0.8; stroke-width: 0.5"/>
     </g>
     <g id="line2d_36">
      <g>
       <use xlink:href="#mc72eec1957" x="302.876028" y="501.3525" style="stroke: #000000; stroke-width: 0.6"/>
      </g>
     </g>
    </g>
    <g id="xtick_19">
     <g id="line2d_37">
      <path d="M 319.013908 501.3525 
L 319.013908 57.8325 
" clip-path="url(#pc4d03dd3a5)" style="fill: none; stroke-dasharray: 1.85,0.8; stroke-dashoffset: 0; stroke: #b0b0b0; stroke-opacity: 0.8; stroke-width: 0.5"/>
     </g>
     <g id="line2d_38">
      <g>
       <use xlink:href="#mc72eec1957" x="319.013908" y="501.3525" style="stroke: #000000; stroke-width: 0.6"/>
      </g>
     </g>
    </g>
    <g id="xtick_20">
     <g id="line2d_39">
      <path d="M 335.151787 501.3525 
L 335.151787 57.8325 
" clip-path="url(#pc4d03dd3a5)" style="fill: none; stroke-dasharray: 1.85,0.8; stroke-dashoffset: 0; stroke: #b0b0b0; stroke-opacity: 0.8; stroke-width: 0.5"/>
     </g>
     <g id="line2d_40">
      <g>
       <use xlink:href="#mc72eec1957" x="335.151787" y="501.3525" style="stroke: #000000; stroke-width: 0.6"/>
      </g>
     </g>
    </g>
    <g id="xtick_21">
     <g id="line2d_41">
      <path d="M 351.289667 501.3525 
L 351.289667 57.8325 
" clip-path="url(#pc4d03dd3a5)" style="fill: none; stroke-dasharray: 1.85,0.8; stroke-dashoffset: 0; stroke: #b0b0b0; stroke-opacity: 0.8; stroke-width: 0.5"/>
     </g>
     <g id="line2d_42">
      <g>
       <use xlink:href="#mc72eec1957" x="351.289667" y="501.3525" style="stroke: #000000; stroke-width: 0.6"/>
      </g>
     </g>
    </g>
    <g id="xtick_22">
     <g id="line2d_43">
      <path d="M 383.565426 501.3525 
L 383.565426 57.8325 
" clip-path="url(#pc4d03dd3a5)" style="fill: none; stroke-dasharray: 1.85,0.8; stroke-dashoffset: 0; stroke: #b0b0b0; stroke-opacity: 0.8; stroke-width: 0.5"/>
     </g>
     <g id="line2d_44">
      <g>
       <use xlink:href="#mc72eec1957" x="383.565426" y="501.3525" style="stroke: #000000; stroke-width: 0.6"/>
      </g>
     </g>
    </g>
    <g id="xtick_23">
     <g id="line2d_45">
      <path d="M 399.703305 501.3525 
L 399.703305 57.8325 
" clip-path="url(#pc4d03dd3a5)" style="fill: none; stroke-dasharray: 1.85,0.8; stroke-dashoffset: 0; stroke: #b0b0b0; stroke-opacity: 0.8; stroke-width: 0.5"/>
     </g>
     <g id="line2d_46">
      <g>
       <use xlink:href="#mc72eec1957" x="399.703305" y="501.3525" style="stroke: #000000; stroke-width: 0.6"/>
      </g>
     </g>
    </g>
    <g id="xtick_24">
     <g id="line2d_47">
      <path d="M 415.841185 501.3525 
L 415.841185 57.8325 
" clip-path="url(#pc4d03dd3a5)" style="fill: none; stroke-dasharray: 1.85,0.8; stroke-dashoffset: 0; stroke: #b0b0b0; stroke-opacity: 0.8; stroke-width: 0.5"/>
     </g>
     <g id="line2d_48">
      <g>
       <use xlink:href="#mc72eec1957" x="415.841185" y="501.3525" style="stroke: #000000; stroke-width: 0.6"/>
      </g>
     </g>
    </g>
    <g id="xtick_25">
     <g id="line2d_49">
      <path d="M 431.979065 501.3525 
L 431.979065 57.8325 
" clip-path="url(#pc4d03dd3a5)" style="fill: none; stroke-dasharray: 1.85,0.8; stroke-dashoffset: 0; stroke: #b0b0b0; stroke-opacity: 0.8; stroke-width: 0.5"/>
     </g>
     <g id="line2d_50">
      <g>
       <use xlink:href="#mc72eec1957" x="431.979065" y="501.3525" style="stroke: #000000; stroke-width: 0.6"/>
      </g>
     </g>
    </g>
    <g id="xtick_26">
     <g id="line2d_51">
      <path d="M 464.254824 501.3525 
L 464.254824 57.8325 
" clip-path="url(#pc4d03dd3a5)" style="fill: none; stroke-dasharray: 1.85,0.8; stroke-dashoffset: 0; stroke: #b0b0b0; stroke-opacity: 0.8; stroke-width: 0.5"/>
     </g>
     <g id="line2d_52">
      <g>
       <use xlink:href="#mc72eec1957" x="464.254824" y="501.3525" style="stroke: #000000; stroke-width: 0.6"/>
      </g>
     </g>
    </g>
    <g id="xtick_27">
     <g id="line2d_53">
      <path d="M 480.392703 501.3525 
L 480.392703 57.8325 
" clip-path="url(#pc4d03dd3a5)" style="fill: none; stroke-dasharray: 1.85,0.8; stroke-dashoffset: 0; stroke: #b0b0b0; stroke-opacity: 0.8; stroke-width: 0.5"/>
     </g>
     <g id="line2d_54">
      <g>
       <use xlink:href="#mc72eec1957" x="480.392703" y="501.3525" style="stroke: #000000; stroke-width: 0.6"/>
      </g>
     </g>
    </g>
    <g id="xtick_28">
     <g id="line2d_55">
      <path d="M 496.530583 501.3525 
L 496.530583 57.8325 
" clip-path="url(#pc4d03dd3a5)" style="fill: none; stroke-dasharray: 1.85,0.8; stroke-dashoffset: 0; stroke: #b0b0b0; stroke-opacity: 0.8; stroke-width: 0.5"/>
     </g>
     <g id="line2d_56">
      <g>
       <use xlink:href="#mc72eec1957" x="496.530583" y="501.3525" style="stroke: #000000; stroke-width: 0.6"/>
      </g>
     </g>
    </g>
    <g id="xtick_29">
     <g id="line2d_57">
      <path d="M 512.668463 501.3525 
L 512.668463 57.8325 
" clip-path="url(#pc4d03dd3a5)" style="fill: none; stroke-dasharray: 1.85,0.8; stroke-dashoffset: 0; stroke: #b0b0b0; stroke-opacity: 0.8; stroke-width: 0.5"/>
     </g>
     <g id="line2d_58">
      <g>
       <use xlink:href="#mc72eec1957" x="512.668463" y="501.3525" style="stroke: #000000; stroke-width: 0.6"/>
      </g>
     </g>
    </g>
    <g id="xtick_30">
     <g id="line2d_59">
      <path d="M 544.944222 501.3525 
L 544.944222 57.8325 
" clip-path="url(#pc4d03dd3a5)" style="fill: none; stroke-dasharray: 1.85,0.8; stroke-dashoffset: 0; stroke: #b0b0b0; stroke-opacity: 0.8; stroke-width: 0.5"/>
     </g>
     <g id="line2d_60">
      <g>
       <use xlink:href="#mc72eec1957" x="544.944222" y="501.3525" style="stroke: #000000; stroke-width: 0.6"/>
      </g>
     </g>
    </g>
    <g id="xtick_31">
     <g id="line2d_61">
      <path d="M 561.082101 501.3525 
L 561.082101 57.8325 
" clip-path="url(#pc4d03dd3a5)" style="fill: none; stroke-dasharray: 1.85,0.8; stroke-dashoffset: 0; stroke: #b0b0b0; stroke-opacity: 0.8; stroke-width: 0.5"/>
     </g>
     <g id="line2d_62">
      <g>
       <use xlink:href="#mc72eec1957" x="561.082101" y="501.3525" style="stroke: #000000; stroke-width: 0.6"/>
      </g>
     </g>
    </g>
    <g id="xtick_32">
     <g id="line2d_63">
      <path d="M 577.219981 501.3525 
L 577.219981 57.8325 
" clip-path="url(#pc4d03dd3a5)" style="fill: none; stroke-dasharray: 1.85,0.8; stroke-dashoffset: 0; stroke: #b0b0b0; stroke-opacity: 0.8; stroke-width: 0.5"/>
     </g>
     <g id="line2d_64">
      <g>
       <use xlink:href="#mc72eec1957" x="577.219981" y="501.3525" style="stroke: #000000; stroke-width: 0.6"/>
      </g>
     </g>
    </g>
    <g id="xtick_33">
     <g id="line2d_65">
      <path d="M 593.35786 501.3525 
L 593.35786 57.8325 
" clip-path="url(#pc4d03dd3a5)" style="fill: none; stroke-dasharray: 1.85,0.8; stroke-dashoffset: 0; stroke: #b0b0b0; stroke-opacity: 0.8; stroke-width: 0.5"/>
     </g>
     <g id="line2d_66">
      <g>
       <use xlink:href="#mc72eec1957" x="593.35786" y="501.3525" style="stroke: #000000; stroke-width: 0.6"/>
      </g>
     </g>
    </g>
    <g id="xtick_34">
     <g id="line2d_67">
      <path d="M 625.63362 501.3525 
L 625.63362 57.8325 
" clip-path="url(#pc4d03dd3a5)" style="fill: none; stroke-dasharray: 1.85,0.8; stroke-dashoffset: 0; stroke: #b0b0b0; stroke-opacity: 0.8; stroke-width: 0.5"/>
     </g>
     <g id="line2d_68">
      <g>
       <use xlink:href="#mc72eec1957" x="625.63362" y="501.3525" style="stroke: #000000; stroke-width: 0.6"/>
      </g>
     </g>
    </g>
    <g id="xtick_35">
     <g id="line2d_69">
      <path d="M 641.771499 501.3525 
L 641.771499 57.8325 
" clip-path="url(#pc4d03dd3a5)" style="fill: none; stroke-dasharray: 1.85,0.8; stroke-dashoffset: 0; stroke: #b0b0b0; stroke-opacity: 0.8; stroke-width: 0.5"/>
     </g>
     <g id="line2d_70">
      <g>
       <use xlink:href="#mc72eec1957" x="641.771499" y="501.3525" style="stroke: #000000; stroke-width: 0.6"/>
      </g>
     </g>
    </g>
    <g id="xtick_36">
     <g id="line2d_71">
      <path d="M 657.909379 501.3525 
L 657.909379 57.8325 
" clip-path="url(#pc4d03dd3a5)" style="fill: none; stroke-dasharray: 1.85,0.8; stroke-dashoffset: 0; stroke: #b0b0b0; stroke-opacity: 0.8; stroke-width: 0.5"/>
     </g>
     <g id="line2d_72">
      <g>
       <use xlink:href="#mc72eec1957" x="657.909379" y="501.3525" style="stroke: #000000; stroke-width: 0.6"/>
      </g>
     </g>
    </g>
    <g id="xtick_37">
     <g id="line2d_73">
      <path d="M 674.047258 501.3525 
L 674.047258 57.8325 
" clip-path="url(#pc4d03dd3a5)" style="fill: none; stroke-dasharray: 1.85,0.8; stroke-dashoffset: 0; stroke: #b0b0b0; stroke-opacity: 0.8; stroke-width: 0.5"/>
     </g>
     <g id="line2d_74">
      <g>
       <use xlink:href="#mc72eec1957" x="674.047258" y="501.3525" style="stroke: #000000; stroke-width: 0.6"/>
      </g>
     </g>
    </g>
    <g id="xtick_38">
     <g id="line2d_75">
      <path d="M 706.323017 501.3525 
L 706.323017 57.8325 
" clip-path="url(#pc4d03dd3a5)" style="fill: none; stroke-dasharray: 1.85,0.8; stroke-dashoffset: 0; stroke: #b0b0b0; stroke-opacity: 0.8; stroke-width: 0.5"/>
     </g>
     <g id="line2d_76">
      <g>
       <use xlink:href="#mc72eec1957" x="706.323017" y="501.3525" style="stroke: #000000; stroke-width: 0.6"/>
      </g>
     </g>
    </g>
    <g id="xtick_39">
     <g id="line2d_77">
      <path d="M 722.460897 501.3525 
L 722.460897 57.8325 
" clip-path="url(#pc4d03dd3a5)" style="fill: none; stroke-dasharray: 1.85,0.8; stroke-dashoffset: 0; stroke: #b0b0b0; stroke-opacity: 0.8; stroke-width: 0.5"/>
     </g>
     <g id="line2d_78">
      <g>
       <use xlink:href="#mc72eec1957" x="722.460897" y="501.3525" style="stroke: #000000; stroke-width: 0.6"/>
      </g>
     </g>
    </g>
    <g id="xtick_40">
     <g id="line2d_79">
      <path d="M 738.598777 501.3525 
L 738.598777 57.8325 
" clip-path="url(#pc4d03dd3a5)" style="fill: none; stroke-dasharray: 1.85,0.8; stroke-dashoffset: 0; stroke: #b0b0b0; stroke-opacity: 0.8; stroke-width: 0.5"/>
     </g>
     <g id="line2d_80">
      <g>
       <use xlink:href="#mc72eec1957" x="738.598777" y="501.3525" style="stroke: #000000; stroke-width: 0.6"/>
      </g>
     </g>
    </g>
    <g id="xtick_41">
     <g id="line2d_81">
      <path d="M 754.736656 501.3525 
L 754.736656 57.8325 
" clip-path="url(#pc4d03dd3a5)" style="fill: none; stroke-dasharray: 1.85,0.8; stroke-dashoffset: 0; stroke: #b0b0b0; stroke-opacity: 0.8; stroke-width: 0.5"/>
     </g>
     <g id="line2d_82">
      <g>
       <use xlink:href="#mc72eec1957" x="754.736656" y="501.3525" style="stroke: #000000; stroke-width: 0.6"/>
      </g>
     </g>
    </g>
    <g id="text_9">
     <!-- Time (S) -->
     <g transform="translate(396.990625 542.305625) scale(0.2 -0.2)">
      <defs>
       <path id="AptosDisplay-54" d="M 1244 0 
L 1244 3734 
L 50 3734 
L 50 4206 
L 2997 4206 
L 2997 3734 
L 1806 3734 
L 1806 0 
L 1244 0 
z
" transform="scale(0.015625)"/>
       <path id="AptosDisplay-69" d="M 413 0 
L 413 3044 
L 934 3044 
L 934 0 
L 413 0 
z
M 675 3616 
Q 525 3616 437 3702 
Q 350 3788 350 3919 
Q 350 4050 437 4136 
Q 525 4222 675 4222 
Q 822 4222 912 4136 
Q 1003 4050 1003 3919 
Q 1003 3788 912 3702 
Q 822 3616 675 3616 
z
" transform="scale(0.015625)"/>
       <path id="AptosDisplay-6d" d="M 413 0 
L 413 3044 
L 919 3044 
L 931 2575 
Q 1063 2756 1303 2914 
Q 1544 3072 1903 3072 
Q 2403 3072 2618 2778 
Q 2834 2484 2834 1963 
L 2834 0 
L 2316 0 
L 2316 1891 
Q 2316 2106 2275 2275 
Q 2234 2444 2120 2539 
Q 2006 2634 1788 2634 
Q 1488 2634 1277 2482 
Q 1066 2331 934 2156 
L 934 0 
L 413 0 
z
M 4206 0 
L 4206 1891 
Q 4206 2106 4164 2275 
Q 4122 2444 4009 2539 
Q 3897 2634 3681 2634 
Q 3381 2634 3165 2484 
Q 2950 2334 2822 2159 
L 2744 2544 
Q 2916 2741 3175 2906 
Q 3434 3072 3800 3072 
Q 4291 3072 4509 2778 
Q 4728 2484 4728 1963 
L 4728 0 
L 4206 0 
z
" transform="scale(0.015625)"/>
       <path id="AptosDisplay-65" d="M 1663 -56 
Q 1188 -56 878 151 
Q 569 359 417 717 
Q 266 1075 266 1522 
Q 266 1988 412 2342 
Q 559 2697 857 2897 
Q 1156 3097 1606 3097 
Q 2209 3097 2550 2722 
Q 2891 2347 2891 1644 
Q 2891 1597 2889 1533 
Q 2888 1469 2881 1441 
L 791 1441 
Q 794 1144 881 895 
Q 969 647 1161 497 
Q 1353 347 1663 347 
Q 1997 347 2183 511 
Q 2369 675 2378 984 
L 2894 984 
Q 2884 663 2732 430 
Q 2581 197 2309 70 
Q 2038 -56 1663 -56 
z
M 794 1822 
L 2375 1822 
Q 2366 2247 2166 2472 
Q 1966 2697 1606 2697 
Q 1241 2697 1036 2473 
Q 831 2250 794 1822 
z
" transform="scale(0.015625)"/>
       <path id="AptosDisplay-20" transform="scale(0.015625)"/>
       <path id="AptosDisplay-28" d="M 1219 -1116 
Q 969 -678 787 -267 
Q 606 144 511 581 
Q 416 1019 416 1528 
Q 416 2028 509 2486 
Q 603 2944 783 3378 
Q 963 3813 1219 4231 
L 1647 4231 
Q 1278 3600 1101 2886 
Q 925 2172 925 1428 
Q 925 766 1125 103 
Q 1325 -559 1647 -1116 
L 1219 -1116 
z
" transform="scale(0.015625)"/>
       <path id="AptosDisplay-53" d="M 1778 -56 
Q 1328 -56 962 81 
Q 597 219 384 512 
Q 172 806 172 1275 
L 734 1275 
Q 738 941 883 750 
Q 1028 559 1267 481 
Q 1506 403 1794 403 
Q 2063 403 2283 483 
Q 2503 563 2634 723 
Q 2766 884 2766 1134 
Q 2766 1356 2662 1497 
Q 2559 1638 2321 1742 
Q 2084 1847 1678 1950 
Q 1203 2075 897 2223 
Q 591 2372 442 2594 
Q 294 2816 294 3156 
Q 294 3516 462 3761 
Q 631 4006 945 4134 
Q 1259 4263 1697 4263 
Q 2103 4263 2440 4131 
Q 2778 4000 2979 3737 
Q 3181 3475 3181 3084 
L 2616 3084 
Q 2622 3441 2356 3623 
Q 2091 3806 1700 3806 
Q 1300 3806 1073 3645 
Q 847 3484 847 3175 
Q 847 2991 944 2867 
Q 1041 2744 1280 2644 
Q 1519 2544 1941 2434 
Q 2428 2303 2731 2153 
Q 3034 2003 3178 1768 
Q 3322 1534 3322 1153 
Q 3322 747 3117 480 
Q 2913 213 2564 78 
Q 2216 -56 1778 -56 
z
" transform="scale(0.015625)"/>
       <path id="AptosDisplay-29" d="M 234 -1116 
Q 609 -481 786 233 
Q 963 947 963 1694 
Q 963 2356 759 3015 
Q 556 3675 234 4231 
L 663 4231 
Q 919 3800 1098 3389 
Q 1278 2978 1373 2540 
Q 1469 2103 1469 1594 
Q 1469 1094 1375 634 
Q 1281 175 1100 -259 
Q 919 -694 663 -1116 
L 234 -1116 
z
" transform="scale(0.015625)"/>
      </defs>
      <use xlink:href="#AptosDisplay-54"/>
      <use xlink:href="#AptosDisplay-69" x="47.705078"/>
      <use xlink:href="#AptosDisplay-6d" x="68.75"/>
      <use xlink:href="#AptosDisplay-65" x="148.730469"/>
      <use xlink:href="#AptosDisplay-20" x="198.144531"/>
      <use xlink:href="#AptosDisplay-28" x="217.431641"/>
      <use xlink:href="#AptosDisplay-53" x="246.875"/>
      <use xlink:href="#AptosDisplay-29" x="301.464844"/>
     </g>
    </g>
   </g>
   <g id="matplotlib.axis_2">
    <g id="ytick_1">
     <g id="line2d_83">
      <path d="M 95.28125 455.35999 
L 764.88125 455.35999 
" clip-path="url(#pc4d03dd3a5)" style="fill: none; stroke: #b0b0b0; stroke-opacity: 0.8; stroke-linecap: square"/>
     </g>
     <g id="line2d_84">
      <defs>
       <path id="m639e0a75e5" d="M 0 0 
L -3.5 0 
" style="stroke: #000000; stroke-width: 0.8"/>
      </defs>
      <g>
       <use xlink:href="#m639e0a75e5" x="95.28125" y="455.35999" style="stroke: #000000; stroke-width: 0.8"/>
      </g>
     </g>
     <g id="text_10">
      <!-- 400 -->
      <g transform="translate(56.903125 461.931865) scale(0.2 -0.2)">
       <defs>
        <path id="AptosDisplay-34" d="M 2106 0 
L 2106 825 
L 125 825 
L 125 1297 
L 2100 4103 
L 2631 4103 
L 2631 1284 
L 3191 1284 
L 3191 825 
L 2631 825 
L 2631 0 
L 2106 0 
z
M 638 1284 
L 2113 1284 
L 2113 3369 
L 638 1284 
z
" transform="scale(0.015625)"/>
       </defs>
       <use xlink:href="#AptosDisplay-34"/>
       <use xlink:href="#AptosDisplay-30" x="52.294922"/>
       <use xlink:href="#AptosDisplay-30" x="104.589844"/>
      </g>
     </g>
    </g>
    <g id="ytick_2">
     <g id="line2d_85">
      <path d="M 95.28125 388.259076 
L 764.88125 388.259076 
" clip-path="url(#pc4d03dd3a5)" style="fill: none; stroke: #b0b0b0; stroke-opacity: 0.8; stroke-linecap: square"/>
     </g>
     <g id="line2d_86">
      <g>
       <use xlink:href="#m639e0a75e5" x="95.28125" y="388.259076" style="stroke: #000000; stroke-width: 0.8"/>
      </g>
     </g>
     <g id="text_11">
      <!-- 500 -->
      <g transform="translate(56.903125 394.830951) scale(0.2 -0.2)">
       <use xlink:href="#AptosDisplay-35"/>
       <use xlink:href="#AptosDisplay-30" x="52.294922"/>
       <use xlink:href="#AptosDisplay-30" x="104.589844"/>
      </g>
     </g>
    </g>
    <g id="ytick_3">
     <g id="line2d_87">
      <path d="M 95.28125 321.158161 
L 764.88125 321.158161 
" clip-path="url(#pc4d03dd3a5)" style="fill: none; stroke: #b0b0b0; stroke-opacity: 0.8; stroke-linecap: square"/>
     </g>
     <g id="line2d_88">
      <g>
       <use xlink:href="#m639e0a75e5" x="95.28125" y="321.158161" style="stroke: #000000; stroke-width: 0.8"/>
      </g>
     </g>
     <g id="text_12">
      <!-- 600 -->
      <g transform="translate(56.903125 327.730036) scale(0.2 -0.2)">
       <defs>
        <path id="AptosDisplay-36" d="M 1759 -56 
Q 1325 -56 984 151 
Q 644 359 447 815 
Q 250 1272 250 2013 
Q 250 2738 439 3206 
Q 628 3675 968 3903 
Q 1309 4131 1759 4131 
Q 2253 4131 2595 3875 
Q 2938 3619 3034 3097 
L 2503 3097 
Q 2441 3388 2250 3534 
Q 2059 3681 1759 3681 
Q 1306 3681 1047 3279 
Q 788 2878 788 2013 
L 788 1850 
Q 788 1313 922 992 
Q 1056 672 1279 531 
Q 1503 391 1763 391 
Q 2175 391 2369 644 
Q 2563 897 2563 1272 
Q 2563 1650 2373 1869 
Q 2184 2088 1838 2088 
Q 1422 2088 1114 1897 
Q 806 1706 644 1456 
L 597 1856 
Q 728 2047 922 2201 
Q 1116 2356 1362 2447 
Q 1609 2538 1909 2538 
Q 2253 2538 2523 2395 
Q 2794 2253 2951 1975 
Q 3109 1697 3109 1291 
Q 3109 897 2951 592 
Q 2794 288 2492 116 
Q 2191 -56 1759 -56 
z
" transform="scale(0.015625)"/>
       </defs>
       <use xlink:href="#AptosDisplay-36"/>
       <use xlink:href="#AptosDisplay-30" x="52.294922"/>
       <use xlink:href="#AptosDisplay-30" x="104.589844"/>
      </g>
     </g>
    </g>
    <g id="ytick_4">
     <g id="line2d_89">
      <path d="M 95.28125 254.057247 
L 764.88125 254.057247 
" clip-path="url(#pc4d03dd3a5)" style="fill: none; stroke: #b0b0b0; stroke-opacity: 0.8; stroke-linecap: square"/>
     </g>
     <g id="line2d_90">
      <g>
       <use xlink:href="#m639e0a75e5" x="95.28125" y="254.057247" style="stroke: #000000; stroke-width: 0.8"/>
      </g>
     </g>
     <g id="text_13">
      <!-- 700 -->
      <g transform="translate(56.903125 260.629122) scale(0.2 -0.2)">
       <use xlink:href="#AptosDisplay-37"/>
       <use xlink:href="#AptosDisplay-30" x="52.294922"/>
       <use xlink:href="#AptosDisplay-30" x="104.589844"/>
      </g>
     </g>
    </g>
    <g id="ytick_5">
     <g id="line2d_91">
      <path d="M 95.28125 186.956333 
L 764.88125 186.956333 
" clip-path="url(#pc4d03dd3a5)" style="fill: none; stroke: #b0b0b0; stroke-opacity: 0.8; stroke-linecap: square"/>
     </g>
     <g id="line2d_92">
      <g>
       <use xlink:href="#m639e0a75e5" x="95.28125" y="186.956333" style="stroke: #000000; stroke-width: 0.8"/>
      </g>
     </g>
     <g id="text_14">
      <!-- 800 -->
      <g transform="translate(56.903125 193.528208) scale(0.2 -0.2)">
       <defs>
        <path id="AptosDisplay-38" d="M 1675 -56 
Q 1391 -56 1137 16 
Q 884 88 686 234 
Q 488 381 373 606 
Q 259 831 259 1141 
Q 259 1531 495 1797 
Q 731 2063 1084 2150 
Q 781 2250 604 2490 
Q 428 2731 428 3081 
Q 428 3447 609 3681 
Q 791 3916 1075 4025 
Q 1359 4134 1669 4134 
Q 1981 4134 2265 4023 
Q 2550 3913 2733 3680 
Q 2916 3447 2916 3081 
Q 2916 2725 2716 2481 
Q 2516 2238 2238 2150 
Q 2606 2063 2843 1800 
Q 3081 1538 3081 1141 
Q 3081 831 2968 606 
Q 2856 381 2661 234 
Q 2466 88 2211 16 
Q 1956 -56 1675 -56 
z
M 1672 388 
Q 1909 388 2109 470 
Q 2309 553 2429 725 
Q 2550 897 2550 1163 
Q 2550 1416 2426 1587 
Q 2303 1759 2104 1846 
Q 1906 1934 1672 1928 
Q 1453 1934 1253 1850 
Q 1053 1766 926 1594 
Q 800 1422 800 1163 
Q 800 775 1058 581 
Q 1316 388 1672 388 
z
M 1672 2363 
Q 1863 2356 2030 2434 
Q 2197 2513 2300 2667 
Q 2403 2822 2403 3050 
Q 2403 3388 2189 3544 
Q 1975 3700 1675 3700 
Q 1484 3700 1317 3631 
Q 1150 3563 1047 3419 
Q 944 3275 944 3050 
Q 944 2825 1048 2670 
Q 1153 2516 1320 2436 
Q 1488 2356 1672 2363 
z
" transform="scale(0.015625)"/>
       </defs>
       <use xlink:href="#AptosDisplay-38"/>
       <use xlink:href="#AptosDisplay-30" x="52.294922"/>
       <use xlink:href="#AptosDisplay-30" x="104.589844"/>
      </g>
     </g>
    </g>
    <g id="ytick_6">
     <g id="line2d_93">
      <path d="M 95.28125 119.855418 
L 764.88125 119.855418 
" clip-path="url(#pc4d03dd3a5)" style="fill: none; stroke: #b0b0b0; stroke-opacity: 0.8; stroke-linecap: square"/>
     </g>
     <g id="line2d_94">
      <g>
       <use xlink:href="#m639e0a75e5" x="95.28125" y="119.855418" style="stroke: #000000; stroke-width: 0.8"/>
      </g>
     </g>
     <g id="text_15">
      <!-- 900 -->
      <g transform="translate(56.903125 126.427293) scale(0.2 -0.2)">
       <defs>
        <path id="AptosDisplay-39" d="M 1547 -56 
Q 1200 -56 926 64 
Q 653 184 481 415 
Q 309 647 256 978 
L 788 978 
Q 834 713 1029 552 
Q 1225 391 1547 391 
Q 2022 391 2294 778 
Q 2566 1166 2566 2019 
L 2566 2197 
Q 2566 2753 2439 3079 
Q 2313 3406 2102 3547 
Q 1891 3688 1634 3688 
Q 1206 3688 998 3433 
Q 791 3178 791 2800 
Q 791 2422 991 2203 
Q 1191 1984 1547 1984 
Q 1831 1984 2045 2071 
Q 2259 2159 2417 2300 
Q 2575 2441 2681 2594 
L 2731 2209 
Q 2609 2038 2432 1884 
Q 2256 1731 2020 1634 
Q 1784 1538 1484 1538 
Q 1122 1538 842 1683 
Q 563 1828 405 2108 
Q 247 2388 247 2784 
Q 247 3175 414 3479 
Q 581 3784 892 3959 
Q 1203 4134 1631 4134 
Q 2056 4134 2389 3926 
Q 2722 3719 2914 3262 
Q 3106 2806 3106 2066 
Q 3106 1338 2912 869 
Q 2719 400 2369 172 
Q 2019 -56 1547 -56 
z
" transform="scale(0.015625)"/>
       </defs>
       <use xlink:href="#AptosDisplay-39"/>
       <use xlink:href="#AptosDisplay-30" x="52.294922"/>
       <use xlink:href="#AptosDisplay-30" x="104.589844"/>
      </g>
     </g>
    </g>
    <g id="ytick_7">
     <g id="line2d_95">
      <path d="M 95.28125 495.620539 
L 764.88125 495.620539 
" clip-path="url(#pc4d03dd3a5)" style="fill: none; stroke-dasharray: 1.85,0.8; stroke-dashoffset: 0; stroke: #b0b0b0; stroke-opacity: 0.8; stroke-width: 0.5"/>
     </g>
     <g id="line2d_96">
      <defs>
       <path id="m567ff86592" d="M 0 0 
L -2 0 
" style="stroke: #000000; stroke-width: 0.6"/>
      </defs>
      <g>
       <use xlink:href="#m567ff86592" x="95.28125" y="495.620539" style="stroke: #000000; stroke-width: 0.6"/>
      </g>
     </g>
    </g>
    <g id="ytick_8">
     <g id="line2d_97">
      <path d="M 95.28125 482.200356 
L 764.88125 482.200356 
" clip-path="url(#pc4d03dd3a5)" style="fill: none; stroke-dasharray: 1.85,0.8; stroke-dashoffset: 0; stroke: #b0b0b0; stroke-opacity: 0.8; stroke-width: 0.5"/>
     </g>
     <g id="line2d_98">
      <g>
       <use xlink:href="#m567ff86592" x="95.28125" y="482.200356" style="stroke: #000000; stroke-width: 0.6"/>
      </g>
     </g>
    </g>
    <g id="ytick_9">
     <g id="line2d_99">
      <path d="M 95.28125 468.780173 
L 764.88125 468.780173 
" clip-path="url(#pc4d03dd3a5)" style="fill: none; stroke-dasharray: 1.85,0.8; stroke-dashoffset: 0; stroke: #b0b0b0; stroke-opacity: 0.8; stroke-width: 0.5"/>
     </g>
     <g id="line2d_100">
      <g>
       <use xlink:href="#m567ff86592" x="95.28125" y="468.780173" style="stroke: #000000; stroke-width: 0.6"/>
      </g>
     </g>
    </g>
    <g id="ytick_10">
     <g id="line2d_101">
      <path d="M 95.28125 441.939807 
L 764.88125 441.939807 
" clip-path="url(#pc4d03dd3a5)" style="fill: none; stroke-dasharray: 1.85,0.8; stroke-dashoffset: 0; stroke: #b0b0b0; stroke-opacity: 0.8; stroke-width: 0.5"/>
     </g>
     <g id="line2d_102">
      <g>
       <use xlink:href="#m567ff86592" x="95.28125" y="441.939807" style="stroke: #000000; stroke-width: 0.6"/>
      </g>
     </g>
    </g>
    <g id="ytick_11">
     <g id="line2d_103">
      <path d="M 95.28125 428.519624 
L 764.88125 428.519624 
" clip-path="url(#pc4d03dd3a5)" style="fill: none; stroke-dasharray: 1.85,0.8; stroke-dashoffset: 0; stroke: #b0b0b0; stroke-opacity: 0.8; stroke-width: 0.5"/>
     </g>
     <g id="line2d_104">
      <g>
       <use xlink:href="#m567ff86592" x="95.28125" y="428.519624" style="stroke: #000000; stroke-width: 0.6"/>
      </g>
     </g>
    </g>
    <g id="ytick_12">
     <g id="line2d_105">
      <path d="M 95.28125 415.099441 
L 764.88125 415.099441 
" clip-path="url(#pc4d03dd3a5)" style="fill: none; stroke-dasharray: 1.85,0.8; stroke-dashoffset: 0; stroke: #b0b0b0; stroke-opacity: 0.8; stroke-width: 0.5"/>
     </g>
     <g id="line2d_106">
      <g>
       <use xlink:href="#m567ff86592" x="95.28125" y="415.099441" style="stroke: #000000; stroke-width: 0.6"/>
      </g>
     </g>
    </g>
    <g id="ytick_13">
     <g id="line2d_107">
      <path d="M 95.28125 401.679259 
L 764.88125 401.679259 
" clip-path="url(#pc4d03dd3a5)" style="fill: none; stroke-dasharray: 1.85,0.8; stroke-dashoffset: 0; stroke: #b0b0b0; stroke-opacity: 0.8; stroke-width: 0.5"/>
     </g>
     <g id="line2d_108">
      <g>
       <use xlink:href="#m567ff86592" x="95.28125" y="401.679259" style="stroke: #000000; stroke-width: 0.6"/>
      </g>
     </g>
    </g>
    <g id="ytick_14">
     <g id="line2d_109">
      <path d="M 95.28125 374.838893 
L 764.88125 374.838893 
" clip-path="url(#pc4d03dd3a5)" style="fill: none; stroke-dasharray: 1.85,0.8; stroke-dashoffset: 0; stroke: #b0b0b0; stroke-opacity: 0.8; stroke-width: 0.5"/>
     </g>
     <g id="line2d_110">
      <g>
       <use xlink:href="#m567ff86592" x="95.28125" y="374.838893" style="stroke: #000000; stroke-width: 0.6"/>
      </g>
     </g>
    </g>
    <g id="ytick_15">
     <g id="line2d_111">
      <path d="M 95.28125 361.41871 
L 764.88125 361.41871 
" clip-path="url(#pc4d03dd3a5)" style="fill: none; stroke-dasharray: 1.85,0.8; stroke-dashoffset: 0; stroke: #b0b0b0; stroke-opacity: 0.8; stroke-width: 0.5"/>
     </g>
     <g id="line2d_112">
      <g>
       <use xlink:href="#m567ff86592" x="95.28125" y="361.41871" style="stroke: #000000; stroke-width: 0.6"/>
      </g>
     </g>
    </g>
    <g id="ytick_16">
     <g id="line2d_113">
      <path d="M 95.28125 347.998527 
L 764.88125 347.998527 
" clip-path="url(#pc4d03dd3a5)" style="fill: none; stroke-dasharray: 1.85,0.8; stroke-dashoffset: 0; stroke: #b0b0b0; stroke-opacity: 0.8; stroke-width: 0.5"/>
     </g>
     <g id="line2d_114">
      <g>
       <use xlink:href="#m567ff86592" x="95.28125" y="347.998527" style="stroke: #000000; stroke-width: 0.6"/>
      </g>
     </g>
    </g>
    <g id="ytick_17">
     <g id="line2d_115">
      <path d="M 95.28125 334.578344 
L 764.88125 334.578344 
" clip-path="url(#pc4d03dd3a5)" style="fill: none; stroke-dasharray: 1.85,0.8; stroke-dashoffset: 0; stroke: #b0b0b0; stroke-opacity: 0.8; stroke-width: 0.5"/>
     </g>
     <g id="line2d_116">
      <g>
       <use xlink:href="#m567ff86592" x="95.28125" y="334.578344" style="stroke: #000000; stroke-width: 0.6"/>
      </g>
     </g>
    </g>
    <g id="ytick_18">
     <g id="line2d_117">
      <path d="M 95.28125 307.737979 
L 764.88125 307.737979 
" clip-path="url(#pc4d03dd3a5)" style="fill: none; stroke-dasharray: 1.85,0.8; stroke-dashoffset: 0; stroke: #b0b0b0; stroke-opacity: 0.8; stroke-width: 0.5"/>
     </g>
     <g id="line2d_118">
      <g>
       <use xlink:href="#m567ff86592" x="95.28125" y="307.737979" style="stroke: #000000; stroke-width: 0.6"/>
      </g>
     </g>
    </g>
    <g id="ytick_19">
     <g id="line2d_119">
      <path d="M 95.28125 294.317796 
L 764.88125 294.317796 
" clip-path="url(#pc4d03dd3a5)" style="fill: none; stroke-dasharray: 1.85,0.8; stroke-dashoffset: 0; stroke: #b0b0b0; stroke-opacity: 0.8; stroke-width: 0.5"/>
     </g>
     <g id="line2d_120">
      <g>
       <use xlink:href="#m567ff86592" x="95.28125" y="294.317796" style="stroke: #000000; stroke-width: 0.6"/>
      </g>
     </g>
    </g>
    <g id="ytick_20">
     <g id="line2d_121">
      <path d="M 95.28125 280.897613 
L 764.88125 280.897613 
" clip-path="url(#pc4d03dd3a5)" style="fill: none; stroke-dasharray: 1.85,0.8; stroke-dashoffset: 0; stroke: #b0b0b0; stroke-opacity: 0.8; stroke-width: 0.5"/>
     </g>
     <g id="line2d_122">
      <g>
       <use xlink:href="#m567ff86592" x="95.28125" y="280.897613" style="stroke: #000000; stroke-width: 0.6"/>
      </g>
     </g>
    </g>
    <g id="ytick_21">
     <g id="line2d_123">
      <path d="M 95.28125 267.47743 
L 764.88125 267.47743 
" clip-path="url(#pc4d03dd3a5)" style="fill: none; stroke-dasharray: 1.85,0.8; stroke-dashoffset: 0; stroke: #b0b0b0; stroke-opacity: 0.8; stroke-width: 0.5"/>
     </g>
     <g id="line2d_124">
      <g>
       <use xlink:href="#m567ff86592" x="95.28125" y="267.47743" style="stroke: #000000; stroke-width: 0.6"/>
      </g>
     </g>
    </g>
    <g id="ytick_22">
     <g id="line2d_125">
      <path d="M 95.28125 240.637064 
L 764.88125 240.637064 
" clip-path="url(#pc4d03dd3a5)" style="fill: none; stroke-dasharray: 1.85,0.8; stroke-dashoffset: 0; stroke: #b0b0b0; stroke-opacity: 0.8; stroke-width: 0.5"/>
     </g>
     <g id="line2d_126">
      <g>
       <use xlink:href="#m567ff86592" x="95.28125" y="240.637064" style="stroke: #000000; stroke-width: 0.6"/>
      </g>
     </g>
    </g>
    <g id="ytick_23">
     <g id="line2d_127">
      <path d="M 95.28125 227.216881 
L 764.88125 227.216881 
" clip-path="url(#pc4d03dd3a5)" style="fill: none; stroke-dasharray: 1.85,0.8; stroke-dashoffset: 0; stroke: #b0b0b0; stroke-opacity: 0.8; stroke-width: 0.5"/>
     </g>
     <g id="line2d_128">
      <g>
       <use xlink:href="#m567ff86592" x="95.28125" y="227.216881" style="stroke: #000000; stroke-width: 0.6"/>
      </g>
     </g>
    </g>
    <g id="ytick_24">
     <g id="line2d_129">
      <path d="M 95.28125 213.796698 
L 764.88125 213.796698 
" clip-path="url(#pc4d03dd3a5)" style="fill: none; stroke-dasharray: 1.85,0.8; stroke-dashoffset: 0; stroke: #b0b0b0; stroke-opacity: 0.8; stroke-width: 0.5"/>
     </g>
     <g id="line2d_130">
      <g>
       <use xlink:href="#m567ff86592" x="95.28125" y="213.796698" style="stroke: #000000; stroke-width: 0.6"/>
      </g>
     </g>
    </g>
    <g id="ytick_25">
     <g id="line2d_131">
      <path d="M 95.28125 200.376516 
L 764.88125 200.376516 
" clip-path="url(#pc4d03dd3a5)" style="fill: none; stroke-dasharray: 1.85,0.8; stroke-dashoffset: 0; stroke: #b0b0b0; stroke-opacity: 0.8; stroke-width: 0.5"/>
     </g>
     <g id="line2d_132">
      <g>
       <use xlink:href="#m567ff86592" x="95.28125" y="200.376516" style="stroke: #000000; stroke-width: 0.6"/>
      </g>
     </g>
    </g>
    <g id="ytick_26">
     <g id="line2d_133">
      <path d="M 95.28125 173.53615 
L 764.88125 173.53615 
" clip-path="url(#pc4d03dd3a5)" style="fill: none; stroke-dasharray: 1.85,0.8; stroke-dashoffset: 0; stroke: #b0b0b0; stroke-opacity: 0.8; stroke-width: 0.5"/>
     </g>
     <g id="line2d_134">
      <g>
       <use xlink:href="#m567ff86592" x="95.28125" y="173.53615" style="stroke: #000000; stroke-width: 0.6"/>
      </g>
     </g>
    </g>
    <g id="ytick_27">
     <g id="line2d_135">
      <path d="M 95.28125 160.115967 
L 764.88125 160.115967 
" clip-path="url(#pc4d03dd3a5)" style="fill: none; stroke-dasharray: 1.85,0.8; stroke-dashoffset: 0; stroke: #b0b0b0; stroke-opacity: 0.8; stroke-width: 0.5"/>
     </g>
     <g id="line2d_136">
      <g>
       <use xlink:href="#m567ff86592" x="95.28125" y="160.115967" style="stroke: #000000; stroke-width: 0.6"/>
      </g>
     </g>
    </g>
    <g id="ytick_28">
     <g id="line2d_137">
      <path d="M 95.28125 146.695784 
L 764.88125 146.695784 
" clip-path="url(#pc4d03dd3a5)" style="fill: none; stroke-dasharray: 1.85,0.8; stroke-dashoffset: 0; stroke: #b0b0b0; stroke-opacity: 0.8; stroke-width: 0.5"/>
     </g>
     <g id="line2d_138">
      <g>
       <use xlink:href="#m567ff86592" x="95.28125" y="146.695784" style="stroke: #000000; stroke-width: 0.6"/>
      </g>
     </g>
    </g>
    <g id="ytick_29">
     <g id="line2d_139">
      <path d="M 95.28125 133.275601 
L 764.88125 133.275601 
" clip-path="url(#pc4d03dd3a5)" style="fill: none; stroke-dasharray: 1.85,0.8; stroke-dashoffset: 0; stroke: #b0b0b0; stroke-opacity: 0.8; stroke-width: 0.5"/>
     </g>
     <g id="line2d_140">
      <g>
       <use xlink:href="#m567ff86592" x="95.28125" y="133.275601" style="stroke: #000000; stroke-width: 0.6"/>
      </g>
     </g>
    </g>
    <g id="ytick_30">
     <g id="line2d_141">
      <path d="M 95.28125 106.435236 
L 764.88125 106.435236 
" clip-path="url(#pc4d03dd3a5)" style="fill: none; stroke-dasharray: 1.85,0.8; stroke-dashoffset: 0; stroke: #b0b0b0; stroke-opacity: 0.8; stroke-width: 0.5"/>
     </g>
     <g id="line2d_142">
      <g>
       <use xlink:href="#m567ff86592" x="95.28125" y="106.435236" style="stroke: #000000; stroke-width: 0.6"/>
      </g>
     </g>
    </g>
    <g id="ytick_31">
     <g id="line2d_143">
      <path d="M 95.28125 93.015053 
L 764.88125 93.015053 
" clip-path="url(#pc4d03dd3a5)" style="fill: none; stroke-dasharray: 1.85,0.8; stroke-dashoffset: 0; stroke: #b0b0b0; stroke-opacity: 0.8; stroke-width: 0.5"/>
     </g>
     <g id="line2d_144">
      <g>
       <use xlink:href="#m567ff86592" x="95.28125" y="93.015053" style="stroke: #000000; stroke-width: 0.6"/>
      </g>
     </g>
    </g>
    <g id="ytick_32">
     <g id="line2d_145">
      <path d="M 95.28125 79.59487 
L 764.88125 79.59487 
" clip-path="url(#pc4d03dd3a5)" style="fill: none; stroke-dasharray: 1.85,0.8; stroke-dashoffset: 0; stroke: #b0b0b0; stroke-opacity: 0.8; stroke-width: 0.5"/>
     </g>
     <g id="line2d_146">
      <g>
       <use xlink:href="#m567ff86592" x="95.28125" y="79.59487" style="stroke: #000000; stroke-width: 0.6"/>
      </g>
     </g>
    </g>
    <g id="ytick_33">
     <g id="line2d_147">
      <path d="M 95.28125 66.174687 
L 764.88125 66.174687 
" clip-path="url(#pc4d03dd3a5)" style="fill: none; stroke-dasharray: 1.85,0.8; stroke-dashoffset: 0; stroke: #b0b0b0; stroke-opacity: 0.8; stroke-width: 0.5"/>
     </g>
     <g id="line2d_148">
      <g>
       <use xlink:href="#m567ff86592" x="95.28125" y="66.174687" style="stroke: #000000; stroke-width: 0.6"/>
      </g>
     </g>
    </g>
    <g id="text_16">
     <!-- Light (W/m^2) -->
     <g transform="translate(49.221875 337.558125) rotate(-90) scale(0.2 -0.2)">
      <defs>
       <path id="AptosDisplay-4c" d="M 472 0 
L 472 4206 
L 1034 4206 
L 1034 484 
L 3000 484 
L 3000 0 
L 472 0 
z
" transform="scale(0.015625)"/>
       <path id="AptosDisplay-67" d="M 1397 -1178 
Q 925 -1178 640 -1065 
Q 356 -953 229 -765 
Q 103 -578 103 -359 
Q 103 -94 329 112 
Q 556 319 1031 403 
L 1128 575 
L 1475 575 
Q 2184 575 2489 376 
Q 2794 178 2794 -238 
Q 2794 -650 2437 -914 
Q 2081 -1178 1397 -1178 
z
M 1384 -800 
Q 1878 -800 2086 -650 
Q 2294 -500 2294 -278 
Q 2294 -147 2225 -51 
Q 2156 44 1975 97 
Q 1794 150 1456 150 
L 1034 150 
Q 819 97 708 -31 
Q 597 -159 597 -328 
Q 597 -516 778 -658 
Q 959 -800 1384 -800 
z
M 1025 216 
Q 722 228 550 312 
Q 378 397 306 511 
Q 234 625 234 722 
Q 234 866 362 1009 
Q 491 1153 772 1241 
L 1038 1069 
Q 866 1031 772 953 
Q 678 875 678 791 
Q 678 731 734 682 
Q 791 634 928 606 
Q 1066 578 1303 575 
L 1025 216 
z
M 1363 984 
Q 1003 984 753 1128 
Q 503 1272 375 1509 
Q 247 1747 247 2022 
Q 247 2313 376 2550 
Q 506 2788 754 2928 
Q 1003 3069 1366 3069 
Q 1738 3069 1983 2928 
Q 2228 2788 2351 2550 
Q 2475 2313 2475 2022 
Q 2475 1741 2350 1505 
Q 2225 1269 1979 1126 
Q 1734 984 1363 984 
z
M 1366 1341 
Q 1641 1341 1812 1512 
Q 1984 1684 1984 2022 
Q 1984 2375 1817 2545 
Q 1650 2716 1372 2716 
Q 1094 2716 919 2541 
Q 744 2366 744 2025 
Q 744 1681 931 1511 
Q 1119 1341 1366 1341 
z
M 2131 2734 
L 1922 2931 
Q 2038 3225 2252 3331 
Q 2466 3438 2794 3447 
L 2794 3006 
Q 2588 3006 2416 2961 
Q 2244 2916 2131 2734 
z
" transform="scale(0.015625)"/>
       <path id="AptosDisplay-68" d="M 413 0 
L 413 4206 
L 931 4206 
L 931 2575 
Q 1069 2756 1317 2914 
Q 1566 3072 1950 3072 
Q 2428 3072 2637 2783 
Q 2847 2494 2847 1963 
L 2847 0 
L 2328 0 
L 2328 1891 
Q 2328 2106 2287 2275 
Q 2247 2444 2139 2539 
Q 2031 2634 1822 2634 
Q 1503 2634 1284 2482 
Q 1066 2331 934 2156 
L 934 0 
L 413 0 
z
" transform="scale(0.015625)"/>
       <path id="AptosDisplay-74" d="M 1466 0 
Q 1100 0 901 117 
Q 703 234 629 454 
Q 556 675 556 984 
L 556 2622 
L 50 2622 
L 50 3044 
L 556 3044 
L 556 3741 
L 1078 3741 
L 1078 3044 
L 1831 3044 
L 1831 2622 
L 1078 2622 
L 1078 1009 
Q 1078 725 1151 575 
Q 1225 425 1500 425 
L 1831 425 
L 1831 0 
L 1466 0 
z
" transform="scale(0.015625)"/>
       <path id="AptosDisplay-57" d="M 1216 0 
L -13 4206 
L 575 4206 
L 1525 697 
L 2531 4206 
L 3156 4206 
L 4163 697 
L 5119 4206 
L 5681 4206 
L 4453 0 
L 3866 0 
L 2831 3556 
L 1813 0 
L 1216 0 
z
" transform="scale(0.015625)"/>
       <path id="AptosDisplay-2f" d="M 72 0 
L 1603 4206 
L 2100 4206 
L 569 0 
L 72 0 
z
" transform="scale(0.015625)"/>
       <path id="AptosDisplay-5e" d="M 428 2438 
L 1459 4206 
L 1884 4206 
L 2916 2438 
L 2366 2438 
L 1672 3650 
L 978 2438 
L 428 2438 
z
" transform="scale(0.015625)"/>
      </defs>
      <use xlink:href="#AptosDisplay-4c"/>
      <use xlink:href="#AptosDisplay-69" x="48.4375"/>
      <use xlink:href="#AptosDisplay-67" x="69.482422"/>
      <use xlink:href="#AptosDisplay-68" x="113.427734"/>
      <use xlink:href="#AptosDisplay-74" x="164.013672"/>
      <use xlink:href="#AptosDisplay-20" x="194.384766"/>
      <use xlink:href="#AptosDisplay-28" x="213.671875"/>
      <use xlink:href="#AptosDisplay-57" x="243.115234"/>
      <use xlink:href="#AptosDisplay-2f" x="331.689453"/>
      <use xlink:href="#AptosDisplay-6d" x="365.625"/>
      <use xlink:href="#AptosDisplay-5e" x="445.605469"/>
      <use xlink:href="#AptosDisplay-32" x="497.900391"/>
      <use xlink:href="#AptosDisplay-29" x="550.195312"/>
     </g>
    </g>
   </g>
   <g id="line2d_149">
    <path d="M 125.717614 409.604548 
L 126.363129 410.492293 
L 127.008644 410.788208 
L 127.654159 409.604548 
L 128.299674 410.196378 
L 128.94519 410.492293 
L 129.590705 411.675282 
L 130.23622 411.083452 
L 130.881735 411.971197 
L 131.52725 412.267112 
L 132.172765 411.971197 
L 132.818281 413.154186 
L 133.463796 413.450101 
L 134.109311 414.633761 
L 134.754826 414.929005 
L 135.400341 415.520835 
L 136.045857 416.40858 
L 136.691372 417.00041 
L 137.336887 417.295654 
L 137.982402 417.295654 
L 138.627917 417.887484 
L 139.273432 418.77523 
L 139.918948 417.295654 
L 140.564463 417.887484 
L 141.209978 418.183399 
L 141.855493 419.662304 
L 142.501008 419.070474 
L 143.146524 419.366389 
L 143.792039 419.958219 
L 144.437554 419.662304 
L 145.083069 419.958219 
L 145.728584 419.958219 
L 146.374099 420.550049 
L 147.019615 420.254134 
L 147.66513 420.550049 
L 148.310645 420.550049 
L 148.95616 421.437123 
L 149.601675 421.733038 
L 150.247191 422.324868 
L 150.892706 422.028953 
L 151.538221 421.437123 
L 152.183736 421.733038 
L 152.829251 422.620783 
L 153.474767 419.366389 
L 154.120282 424.395602 
L 154.765797 424.395602 
L 155.411312 425.282676 
L 156.056827 426.762251 
L 156.702342 432.086709 
L 157.347858 428.241155 
L 158.638888 430.607805 
L 159.929918 433.565613 
L 161.220949 435.932262 
L 161.866464 437.411837 
L 162.511979 438.002997 
L 163.157494 439.482572 
L 164.448525 441.84855 
L 165.09404 441.553306 
L 165.739555 443.328125 
L 166.38507 444.215199 
L 167.030585 445.694774 
L 167.676101 446.877763 
L 168.321616 444.511114 
L 168.967131 449.540328 
L 169.612646 448.948498 
L 170.258161 448.652583 
L 170.903676 451.906306 
L 171.549192 451.906306 
L 172.194707 453.089966 
L 172.840222 455.456615 
L 173.485737 456.047774 
L 174.776768 459.302169 
L 175.422283 459.598084 
L 176.067798 461.372903 
L 176.713313 461.964733 
L 177.358828 464.035467 
L 178.004343 463.739552 
L 178.649859 464.626626 
L 179.295374 464.922541 
L 179.940889 466.106201 
L 180.586404 464.922541 
L 181.231919 467.585106 
L 181.877435 467.289191 
L 182.52295 466.69736 
L 183.168465 467.881021 
L 183.81398 468.768095 
L 184.459495 469.951755 
L 185.10501 468.47218 
L 186.396041 469.06401 
L 187.041556 468.47218 
L 188.332586 469.06401 
L 188.978102 471.134744 
L 189.623617 465.218456 
L 190.269132 469.65584 
L 190.914647 469.65584 
L 191.560162 468.768095 
L 192.205677 469.951755 
L 192.851193 469.65584 
L 193.496708 469.65584 
L 194.142223 472.318404 
L 194.787738 469.65584 
L 196.078769 468.47218 
L 196.724284 467.585106 
L 197.369799 468.176936 
L 198.660829 465.810286 
L 199.306344 465.810286 
L 200.597375 465.218456 
L 201.24289 470.542914 
L 201.888405 463.739552 
L 202.53392 462.259977 
L 203.179436 462.259977 
L 203.824951 461.668818 
L 204.470466 460.485158 
L 205.115981 460.485158 
L 205.761496 460.189243 
L 206.407012 458.710339 
L 207.052527 458.710339 
L 207.698042 457.823265 
L 208.343557 457.823265 
L 208.989072 457.52735 
L 209.634587 456.639604 
L 210.280103 456.343689 
L 210.925618 455.456615 
L 211.571133 456.343689 
L 212.216648 455.456615 
L 213.507679 454.864785 
L 214.153194 455.1607 
L 214.798709 450.427402 
L 215.444224 453.089966 
L 216.089739 452.498136 
L 216.735254 452.794051 
L 217.38077 453.385881 
L 218.026285 447.765509 
L 218.6718 451.611062 
L 219.317315 451.315147 
L 219.96283 451.315147 
L 220.608346 450.427402 
L 221.253861 449.835572 
L 221.899376 449.540328 
L 222.544891 450.427402 
L 223.190406 449.835572 
L 223.835921 448.948498 
L 224.481437 448.948498 
L 225.126952 446.877763 
L 225.772467 448.356668 
L 226.417982 447.765509 
L 227.063497 448.356668 
L 227.709013 448.060753 
L 228.354528 448.356668 
L 229.000043 447.469593 
L 229.645558 449.244413 
L 230.291073 449.835572 
L 230.936588 448.356668 
L 231.582104 447.765509 
L 232.227619 448.652583 
L 232.873134 448.060753 
L 233.518649 450.131487 
L 234.164164 450.131487 
L 234.80968 449.835572 
L 235.455195 450.131487 
L 236.10071 451.315147 
L 236.746225 451.611062 
L 238.037255 452.794051 
L 238.682771 451.906306 
L 239.328286 449.244413 
L 239.973801 454.864785 
L 240.619316 452.498136 
L 241.264831 456.343689 
L 241.910347 457.823265 
L 242.555862 458.414424 
L 243.201377 460.189243 
L 243.846892 461.372903 
L 244.492407 461.372903 
L 245.137922 462.851807 
L 245.783438 463.739552 
L 246.428953 464.035467 
L 247.074468 464.922541 
L 247.719983 464.922541 
L 248.365498 466.69736 
L 249.011014 465.810286 
L 249.656529 465.514371 
L 250.302044 465.810286 
L 250.947559 465.810286 
L 251.593074 466.106201 
L 252.23859 464.922541 
L 253.52962 464.330711 
L 254.175135 464.626626 
L 254.82065 463.147722 
L 255.466165 464.035467 
L 256.111681 461.668818 
L 256.757196 462.555892 
L 257.402711 461.076988 
L 258.048226 461.076988 
L 258.693741 459.302169 
L 259.339257 458.118509 
L 259.984772 456.639604 
L 260.630287 454.272955 
L 261.275802 454.56887 
L 261.921317 453.681796 
L 262.566832 449.835572 
L 263.212348 450.427402 
L 263.857863 450.131487 
L 264.503378 447.469593 
L 265.148893 446.877763 
L 265.794408 445.990018 
L 266.439924 444.807029 
L 267.085439 443.03221 
L 267.730954 443.328125 
L 268.376469 444.511114 
L 269.021984 430.015975 
L 269.667499 441.553306 
L 270.313015 442.144465 
L 270.95853 440.961476 
L 271.604045 438.594827 
L 272.24956 442.44038 
L 272.895075 444.215199 
L 273.540591 445.398859 
L 274.186106 447.173678 
L 274.831621 445.990018 
L 275.477136 449.540328 
L 276.122651 451.315147 
L 276.768166 451.906306 
L 277.413682 454.864785 
L 278.059197 456.047774 
L 278.704712 456.935519 
L 279.350227 460.485158 
L 279.995742 460.781073 
L 280.641258 461.964733 
L 281.932288 464.922541 
L 282.577803 465.810286 
L 283.223318 467.289191 
L 284.514349 469.65584 
L 285.159864 470.24767 
L 285.805379 471.430659 
L 286.450894 472.318404 
L 287.096409 472.022489 
L 287.741925 474.093223 
L 288.38744 474.389138 
L 289.032955 473.205478 
L 289.67847 474.389138 
L 290.323985 473.501393 
L 290.9695 474.389138 
L 291.615016 477.051032 
L 292.260531 474.684382 
L 292.906046 474.980297 
L 294.197076 474.389138 
L 294.842592 470.24767 
L 295.488107 481.1925 
L 296.133622 474.389138 
L 296.779137 471.430659 
L 297.424652 474.389138 
L 298.070167 474.389138 
L 298.715683 474.684382 
L 299.361198 473.797308 
L 300.006713 473.797308 
L 300.652228 471.430659 
L 301.297743 472.613648 
L 301.943259 471.430659 
L 302.588774 472.613648 
L 303.879804 472.022489 
L 304.525319 471.430659 
L 305.170835 475.276212 
L 305.81635 470.24767 
L 306.461865 470.838829 
L 307.10738 469.951755 
L 307.752895 469.951755 
L 308.39841 469.06401 
L 309.043926 468.768095 
L 309.689441 469.359925 
L 310.334956 467.585106 
L 310.980471 467.289191 
L 311.625986 466.401445 
L 312.271502 466.69736 
L 312.917017 466.401445 
L 313.562532 465.514371 
L 314.208047 465.810286 
L 314.853562 459.598084 
L 315.499077 464.330711 
L 316.144593 463.443637 
L 316.790108 462.259977 
L 317.435623 461.964733 
L 318.081138 461.964733 
L 320.663199 459.893999 
L 321.308714 461.372903 
L 321.954229 459.598084 
L 322.599744 459.302169 
L 323.24526 457.823265 
L 323.890775 457.823265 
L 324.53629 457.52735 
L 325.181805 457.823265 
L 325.82732 456.047774 
L 326.472836 455.456615 
L 327.118351 455.456615 
L 327.763866 453.385881 
L 328.409381 453.97704 
L 329.054896 453.97704 
L 329.700411 451.906306 
L 330.345927 452.498136 
L 330.991442 450.723317 
L 331.636957 451.019232 
L 332.282472 449.835572 
L 332.927987 449.244413 
L 334.219018 446.877763 
L 334.864533 446.581848 
L 336.155563 445.398859 
L 336.801078 443.62404 
L 338.092109 441.257391 
L 338.737624 440.665561 
L 339.383139 437.411837 
L 340.028654 437.411837 
L 340.67417 437.115922 
L 341.319685 436.228177 
L 341.9652 436.228177 
L 342.610715 435.045188 
L 343.25623 445.990018 
L 343.901745 433.861528 
L 344.547261 435.341103 
L 345.192776 432.974454 
L 345.838291 431.790794 
L 346.483806 434.453358 
L 347.129321 432.382624 
L 347.774837 433.270369 
L 348.420352 432.974454 
L 349.065867 432.974454 
L 349.711382 433.270369 
L 350.356897 433.861528 
L 351.002413 432.974454 
L 351.647928 433.270369 
L 352.293443 433.861528 
L 352.938958 434.749273 
L 353.584473 432.974454 
L 354.229988 432.678539 
L 354.875504 432.974454 
L 355.521019 431.494879 
L 356.166534 430.90372 
L 356.812049 431.199635 
L 357.457564 430.607805 
L 358.10308 429.424145 
L 359.39411 428.832986 
L 360.039625 428.832986 
L 360.68514 427.35341 
L 361.330655 428.537071 
L 361.976171 427.35341 
L 362.621686 426.762251 
L 363.912716 427.35341 
L 364.558231 423.803772 
L 365.203747 426.466336 
L 365.849262 427.649325 
L 366.494777 426.170421 
L 367.785807 427.35341 
L 368.431322 426.762251 
L 369.076838 427.35341 
L 369.722353 427.35341 
L 370.367868 423.803772 
L 371.013383 427.058166 
L 371.658898 436.524092 
L 372.304414 426.466336 
L 372.949929 429.128901 
L 373.595444 426.466336 
L 374.240959 426.466336 
L 374.886474 426.170421 
L 375.531989 425.282676 
L 376.177505 425.874506 
L 376.82302 424.987432 
L 377.468535 423.211942 
L 378.11405 422.324868 
L 378.759565 422.324868 
L 379.405081 419.070474 
L 380.050596 420.845964 
L 380.696111 420.254134 
L 381.341626 420.254134 
L 381.987141 419.366389 
L 382.632656 419.070474 
L 383.278172 417.887484 
L 383.923687 419.366389 
L 384.569202 417.00041 
L 385.214717 416.112665 
L 385.860232 416.704495 
L 386.505748 416.112665 
L 387.151263 416.112665 
L 387.796778 415.520835 
L 388.442293 415.22492 
L 389.087808 415.22492 
L 389.733323 416.112665 
L 390.378839 414.337846 
L 391.024354 415.22492 
L 391.669869 415.520835 
L 392.315384 414.041931 
L 392.960899 414.041931 
L 393.606415 413.746016 
L 394.25193 413.746016 
L 394.897445 414.929005 
L 395.54296 413.154186 
L 396.188475 413.450101 
L 397.479506 413.450101 
L 398.125021 412.563027 
L 398.770536 414.337846 
L 399.416051 412.563027 
L 400.707082 411.971197 
L 401.352597 413.154186 
L 401.998112 411.675282 
L 402.643627 410.788208 
L 403.289142 411.379367 
L 403.934658 409.900463 
L 404.580173 409.308633 
L 405.871203 411.083452 
L 406.516718 408.421558 
L 407.162233 408.125643 
L 407.807749 410.788208 
L 408.453264 407.829728 
L 409.098779 408.125643 
L 409.744294 408.125643 
L 410.389809 407.533813 
L 411.035325 407.237898 
L 411.68084 406.646739 
L 412.326355 405.463079 
L 412.97187 405.758994 
L 413.617385 405.167164 
L 415.553931 406.054909 
L 416.199446 405.758994 
L 416.844961 404.576005 
L 417.490476 404.28009 
L 418.135992 402.800515 
L 418.784734 374.402066 
L 419.427022 390.96794 
L 420.075765 197.207339 
L 420.72128 98.995086 
L 421.366795 89.825075 
L 422.01231 88.93733 
L 422.657825 80.654393 
L 423.303341 82.429883 
L 423.948856 83.021043 
L 424.594371 82.133968 
L 425.885401 78.879574 
L 426.530916 78.583659 
L 427.176432 81.838053 
L 427.821947 83.612873 
L 428.467462 83.612873 
L 429.112977 83.021043 
L 429.758492 88.641415 
L 430.404008 88.050256 
L 431.049523 91.599894 
L 431.695038 90.12099 
L 432.340553 91.303979 
L 432.986068 85.091777 
L 433.631584 91.599894 
L 434.277099 91.303979 
L 435.568129 91.895809 
L 436.213644 91.008064 
L 436.859159 91.303979 
L 437.504675 90.12099 
L 438.15019 91.008064 
L 438.795705 91.303979 
L 439.44122 90.12099 
L 440.086735 91.599894 
L 440.732251 91.303979 
L 441.377766 90.12099 
L 442.023281 92.191724 
L 442.668796 91.895809 
L 443.314311 91.895809 
L 443.959826 91.303979 
L 444.605342 91.599894 
L 445.250857 90.712149 
L 445.896372 91.599894 
L 446.541887 90.712149 
L 447.187402 92.782884 
L 447.832918 92.191724 
L 448.478433 92.191724 
L 449.123948 95.741363 
L 449.769463 92.782884 
L 450.414978 91.599894 
L 451.060493 92.782884 
L 451.706009 94.262459 
L 452.351524 92.48764 
L 452.997039 93.966544 
L 453.642554 91.008064 
L 454.288069 91.895809 
L 455.5791 95.741363 
L 456.224615 92.48764 
L 456.87013 93.078799 
L 458.16116 91.895809 
L 458.806676 93.670629 
L 459.452191 93.966544 
L 460.097706 93.078799 
L 460.743221 91.303979 
L 461.388736 90.12099 
L 462.034252 93.078799 
L 462.679767 94.262459 
L 463.325282 92.191724 
L 463.970797 93.374714 
L 464.616312 91.599894 
L 465.261827 91.599894 
L 465.907343 85.387692 
L 466.552858 91.303979 
L 467.198373 90.416905 
L 467.843888 91.895809 
L 468.489403 94.558374 
L 469.134919 91.895809 
L 469.780434 92.48764 
L 470.425949 92.48764 
L 471.071464 91.895809 
L 471.716979 93.374714 
L 472.362494 93.078799 
L 473.00801 93.078799 
L 473.653525 92.782884 
L 474.29904 94.262459 
L 474.944555 93.374714 
L 475.59007 93.966544 
L 476.235586 89.825075 
L 476.881101 95.445448 
L 477.526616 92.782884 
L 478.172131 91.303979 
L 478.817646 93.078799 
L 479.463162 93.078799 
L 480.108677 91.008064 
L 480.754192 91.303979 
L 481.399707 90.416905 
L 482.045222 90.712149 
L 482.690737 88.93733 
L 483.336253 88.641415 
L 483.981768 86.571352 
L 484.627283 87.162511 
L 485.272798 85.979522 
L 485.918313 86.275437 
L 486.563829 86.275437 
L 487.209344 85.979522 
L 487.854859 84.795862 
L 488.500374 85.091777 
L 489.145889 81.838053 
L 489.791404 81.838053 
L 490.43692 86.866596 
L 491.082435 77.9925 
L 491.72795 83.612873 
L 492.373465 87.754341 
L 493.01898 86.866596 
L 493.664496 86.571352 
L 494.310011 87.754341 
L 494.955526 85.979522 
L 495.601041 86.866596 
L 496.246556 87.458426 
L 496.892071 83.908788 
L 497.537587 85.683607 
L 498.183102 86.571352 
L 498.828617 84.795862 
L 499.474132 88.93733 
L 500.119647 84.500618 
L 500.765163 85.091777 
L 502.701708 84.204703 
L 503.347223 85.683607 
L 503.992738 84.795862 
L 504.638254 83.612873 
L 505.283769 83.316958 
L 505.929284 84.204703 
L 506.574799 82.429883 
L 507.220314 85.091777 
L 507.86583 84.500618 
L 508.511345 85.683607 
L 509.15686 82.725127 
L 509.802375 85.091777 
L 510.44789 85.091777 
L 511.093405 84.204703 
L 511.738921 86.275437 
L 512.384436 85.387692 
L 513.029951 87.162511 
L 515.612012 84.795862 
L 516.257527 85.387692 
L 516.903042 85.683607 
L 517.548557 86.275437 
L 518.194072 85.387692 
L 518.839588 85.683607 
L 519.485103 85.683607 
L 520.130618 87.162511 
L 520.776133 87.754341 
L 521.421648 86.275437 
L 522.067164 85.387692 
L 522.712679 86.866596 
L 523.358194 89.233245 
L 524.003709 84.500618 
L 524.649224 87.458426 
L 525.294739 86.571352 
L 525.940255 83.908788 
L 526.58577 82.725127 
L 527.231285 86.275437 
L 527.8768 83.021043 
L 528.522315 83.021043 
L 529.167831 85.683607 
L 529.813346 83.908788 
L 530.458861 87.754341 
L 531.104376 87.458426 
L 531.749891 86.571352 
L 534.331952 85.387692 
L 534.977467 86.275437 
L 535.622982 83.316958 
L 536.268498 81.838053 
L 536.914013 82.429883 
L 537.559528 82.429883 
L 538.205043 86.866596 
L 538.850558 171.174869 
L 539.496074 301.631124 
L 540.138361 465.514371 
L 540.783876 466.69736 
L 541.429391 389.19312 
L 542.723649 88.346171 
L 543.369165 81.542138 
L 544.01468 83.612873 
L 544.660195 83.021043 
L 545.30571 80.359149 
L 545.951225 91.303979 
L 546.596741 88.93733 
L 547.242256 88.93733 
L 547.887771 88.346171 
L 548.533286 89.233245 
L 549.178801 88.050256 
L 549.824316 89.52916 
L 550.469832 88.93733 
L 551.760862 90.12099 
L 552.406377 90.12099 
L 553.051892 93.966544 
L 553.697408 93.670629 
L 554.342923 91.303979 
L 555.633953 92.48764 
L 556.279468 91.008064 
L 557.570499 95.445448 
L 558.216014 94.262459 
L 558.861529 94.262459 
L 559.507044 93.966544 
L 560.152559 95.149533 
L 560.798075 96.629108 
L 561.44359 95.149533 
L 562.089105 96.629108 
L 562.73462 95.445448 
L 563.380135 96.037278 
L 564.02565 97.516182 
L 564.671166 97.220267 
L 565.316681 96.333193 
L 566.607711 96.924352 
L 567.253226 98.699842 
L 567.898742 98.699842 
L 568.544257 98.403927 
L 569.189772 98.403927 
L 569.835287 98.995086 
L 570.480802 96.629108 
L 571.771833 102.249481 
L 572.417348 105.207289 
L 573.062863 99.882831 
L 573.708378 99.882831 
L 574.353893 100.474661 
L 574.999409 99.586916 
L 575.644924 99.291001 
L 576.290439 102.545396 
L 576.935954 99.586916 
L 577.581469 97.812097 
L 578.226985 99.586916 
L 578.8725 98.995086 
L 579.518015 98.699842 
L 580.16353 97.516182 
L 580.809045 97.220267 
L 581.45456 97.812097 
L 582.100076 95.149533 
L 582.745591 98.699842 
L 583.391106 99.586916 
L 584.039849 98.699842 
L 584.685364 100.178746 
L 585.327652 101.953565 
L 585.973167 104.61613 
L 586.621909 106.686864 
L 587.267425 105.207289 
L 587.91294 108.165768 
L 588.555227 113.786141 
L 589.20397 112.011322 
L 590.491773 114.377971 
L 591.140516 116.15279 
L 591.786031 118.519439 
L 593.077061 120.294258 
L 593.722576 122.364993 
L 594.368092 122.956823 
L 595.013607 123.843897 
L 595.659122 125.618716 
L 596.304637 125.618716 
L 597.595668 126.802376 
L 598.241183 126.802376 
L 598.886698 128.87311 
L 599.532213 128.87311 
L 600.177728 129.169025 
L 601.468759 130.352014 
L 602.114274 129.760184 
L 602.759789 131.830919 
L 603.405304 130.647929 
L 604.050819 131.535675 
L 604.696335 130.056099 
L 605.34185 132.718664 
L 605.987365 131.830919 
L 606.63288 134.493483 
L 607.278395 135.381228 
L 607.92391 139.818611 
L 608.569426 137.747877 
L 609.214941 137.747877 
L 609.860456 130.647929 
L 610.505971 141.001601 
L 611.151486 141.889346 
L 611.797002 144.255324 
L 613.088032 144.255324 
L 613.733547 146.326058 
L 614.379062 147.213803 
L 615.024578 149.580452 
L 615.670093 149.580452 
L 616.315608 148.101548 
L 616.961123 153.130091 
L 617.606638 153.426006 
L 618.252153 155.49674 
L 618.897669 156.679729 
L 619.543184 158.159304 
L 620.188699 160.821198 
L 620.834214 162.300773 
L 621.479729 164.075592 
L 622.77076 168.512975 
L 624.06179 172.358529 
L 624.707305 175.908167 
L 625.35282 177.387071 
L 625.998336 179.457806 
L 626.643851 180.937381 
L 627.934881 186.261838 
L 628.580396 187.444827 
L 629.225912 188.924403 
L 630.516942 193.952945 
L 631.162457 195.136605 
L 631.807972 196.023679 
L 632.453487 197.502583 
L 633.099003 198.390329 
L 633.744518 198.390329 
L 634.390033 200.756978 
L 635.035548 201.348808 
L 635.681063 205.194361 
L 636.326579 203.714786 
L 636.972094 200.165148 
L 637.617609 206.673265 
L 638.263124 206.673265 
L 638.908639 205.490276 
L 640.19967 212.293638 
L 640.845185 211.110649 
L 642.136215 211.702479 
L 642.78173 214.068457 
L 643.427246 212.885468 
L 644.072761 213.181383 
L 644.718276 213.181383 
L 645.363791 212.293638 
L 646.009306 210.814734 
L 646.654821 209.926989 
L 647.300337 210.222904 
L 647.945852 209.039915 
L 648.591367 210.814734 
L 649.236882 209.631745 
L 649.882397 209.631745 
L 650.527913 210.222904 
L 651.818943 211.997723 
L 652.464458 213.477298 
L 653.109973 214.364372 
L 653.755488 215.548032 
L 654.401004 217.322852 
L 655.046519 217.026936 
L 655.692034 221.760235 
L 656.337549 219.689501 
L 656.983064 224.422128 
L 657.62858 225.309873 
L 658.274095 227.084693 
L 658.91961 227.676523 
L 659.565125 228.859512 
L 660.21064 230.930246 
L 660.856156 231.817991 
L 661.501671 232.113906 
L 662.147186 232.705065 
L 662.792701 233.59281 
L 663.438216 234.775799 
L 664.083731 235.663544 
L 665.374762 235.663544 
L 666.020277 233.00098 
L 666.665792 229.747257 
L 667.311307 236.255374 
L 667.956823 236.846534 
L 668.602338 236.846534 
L 669.247853 238.030194 
L 669.893368 238.621353 
L 671.184398 239.213183 
L 671.829914 239.805013 
L 672.475429 239.213183 
L 673.120944 240.100928 
L 673.766459 239.213183 
L 674.411974 240.100928 
L 675.05749 241.875747 
L 675.703005 241.579832 
L 676.994035 242.762821 
L 677.63955 242.762821 
L 678.930581 243.946481 
L 679.576096 245.7213 
L 680.221611 248.975024 
L 680.867126 246.313131 
L 681.512641 248.08795 
L 682.158157 248.08795 
L 682.803672 243.058736 
L 683.449187 252.229418 
L 684.094702 251.933503 
L 684.740217 253.708322 
L 685.385732 253.708322 
L 686.676763 258.145706 
L 687.322278 259.328695 
L 687.967793 261.991259 
L 688.613308 263.174248 
L 689.258824 266.132728 
L 689.904339 268.203462 
L 690.549854 268.499377 
L 691.195369 270.866026 
L 691.840884 278.261218 
L 692.486399 274.711579 
L 693.131915 276.190484 
L 693.77743 280.036037 
L 694.422945 279.444878 
L 696.359491 282.994516 
L 697.005006 282.402686 
L 697.650521 282.402686 
L 698.296036 283.290431 
L 698.941551 282.994516 
L 699.587066 283.290431 
L 700.232582 283.290431 
L 700.878097 282.106771 
L 701.523612 282.698601 
L 702.169127 281.515612 
L 702.814642 282.402686 
L 703.460158 280.627867 
L 704.751188 278.853048 
L 705.396703 277.669388 
L 706.042218 275.007495 
L 706.687733 274.119749 
L 707.333249 271.7531 
L 707.978764 268.795292 
L 711.851855 252.820577 
L 712.49737 248.975024 
L 713.142885 244.242396 
L 713.788401 243.946481 
L 715.079431 238.621353 
L 715.724946 236.846534 
L 716.370461 233.59281 
L 717.661492 231.817991 
L 718.307007 228.859512 
L 718.952522 227.084693 
L 719.598037 224.126884 
L 720.243552 224.126884 
L 722.825613 214.956202 
L 723.471128 213.181383 
L 724.116643 211.997723 
L 724.762159 208.744 
L 725.407674 206.96918 
L 726.053189 205.78552 
L 726.698704 202.235882 
L 727.344219 201.644052 
L 727.989735 198.094414 
L 728.63525 197.798498 
L 729.280765 194.544775 
L 729.92628 193.65703 
L 730.571795 191.290381 
L 731.21731 188.036657 
L 732.508341 182.7122 
L 734.444886 172.949688 
L 734.444886 172.949688 
" clip-path="url(#pc4d03dd3a5)" style="fill: none; stroke: #ac2b37; stroke-width: 1.5; stroke-linecap: square"/>
   </g>
   <g id="patch_3">
    <path d="M 95.28125 501.3525 
L 95.28125 57.8325 
" style="fill: none; stroke: #000000; stroke-width: 0.8; stroke-linejoin: miter; stroke-linecap: square"/>
   </g>
   <g id="patch_4">
    <path d="M 764.88125 501.3525 
L 764.88125 57.8325 
" style="fill: none; stroke: #000000; stroke-width: 0.8; stroke-linejoin: miter; stroke-linecap: square"/>
   </g>
   <g id="patch_5">
    <path d="M 95.28125 501.3525 
L 764.88125 501.3525 
" style="fill: none; stroke: #000000; stroke-width: 0.8; stroke-linejoin: miter; stroke-linecap: square"/>
   </g>
   <g id="patch_6">
    <path d="M 95.28125 57.8325 
L 764.88125 57.8325 
" style="fill: none; stroke: #000000; stroke-width: 0.8; stroke-linejoin: miter; stroke-linecap: square"/>
   </g>
   <g id="text_17">
    <!-- Light vs Time -->
    <g transform="translate(367.59875 51.8325) scale(0.24 -0.24)">
     <defs>
      <path id="AptosDisplay-76" d="M 1103 0 
L -13 3044 
L 538 3044 
L 1391 513 
L 2250 3044 
L 2781 3044 
L 1678 0 
L 1103 0 
z
" transform="scale(0.015625)"/>
      <path id="AptosDisplay-73" d="M 1506 -41 
Q 1247 -41 1017 14 
Q 788 69 613 191 
Q 438 313 339 506 
Q 241 700 241 978 
L 744 978 
Q 744 628 966 487 
Q 1188 347 1519 347 
Q 1816 347 2008 458 
Q 2200 569 2200 822 
Q 2200 1047 2026 1153 
Q 1853 1259 1413 1369 
Q 1056 1453 815 1564 
Q 575 1675 453 1845 
Q 331 2016 331 2275 
Q 331 2475 417 2626 
Q 503 2778 658 2879 
Q 813 2981 1020 3032 
Q 1228 3084 1472 3084 
Q 1713 3084 1923 3028 
Q 2134 2972 2296 2855 
Q 2459 2738 2551 2552 
Q 2644 2366 2644 2109 
L 2138 2109 
Q 2138 2425 1945 2558 
Q 1753 2691 1472 2691 
Q 1191 2691 1016 2594 
Q 841 2497 841 2291 
Q 841 2169 919 2084 
Q 997 2000 1181 1933 
Q 1366 1866 1675 1791 
Q 2019 1709 2248 1596 
Q 2478 1484 2595 1306 
Q 2713 1128 2713 847 
Q 2713 616 2622 447 
Q 2531 278 2367 170 
Q 2203 63 1983 11 
Q 1763 -41 1506 -41 
z
" transform="scale(0.015625)"/>
     </defs>
     <use xlink:href="#AptosDisplay-4c"/>
     <use xlink:href="#AptosDisplay-69" x="48.4375"/>
     <use xlink:href="#AptosDisplay-67" x="69.482422"/>
     <use xlink:href="#AptosDisplay-68" x="113.427734"/>
     <use xlink:href="#AptosDisplay-74" x="164.013672"/>
     <use xlink:href="#AptosDisplay-20" x="194.384766"/>
     <use xlink:href="#AptosDisplay-76" x="213.671875"/>
     <use xlink:href="#AptosDisplay-73" x="256.933594"/>
     <use xlink:href="#AptosDisplay-20" x="303.222656"/>
     <use xlink:href="#AptosDisplay-54" x="322.509766"/>
     <use xlink:href="#AptosDisplay-69" x="370.214844"/>
     <use xlink:href="#AptosDisplay-6d" x="391.259766"/>
     <use xlink:href="#AptosDisplay-65" x="471.240234"/>
    </g>
   </g>
  </g>
 </g>
 <defs>
  <clipPath id="pc4d03dd3a5">
   <rect x="95.28125" y="57.8325" width="669.6" height="443.52"/>
  </clipPath>
 </defs>
</svg>
