<?xml version="1.0" encoding="utf-8" standalone="no"?>
<!DOCTYPE svg PUBLIC "-//W3C//DTD SVG 1.1//EN"
  "http://www.w3.org/Graphics/SVG/1.1/DTD/svg11.dtd">
<svg xmlns:xlink="http://www.w3.org/1999/xlink" width="811.184375pt" height="581.830625pt" viewBox="0 0 811.184375 581.830625" xmlns="http://www.w3.org/2000/svg" version="1.1">
 <metadata>
  <rdf:RDF xmlns:dc="http://purl.org/dc/elements/1.1/" xmlns:cc="http://creativecommons.org/ns#" xmlns:rdf="http://www.w3.org/1999/02/22-rdf-syntax-ns#">
   <cc:Work>
    <dc:type rdf:resource="http://purl.org/dc/dcmitype/StillImage"/>
    <dc:date>2025-04-03T01:48:09.281530</dc:date>
    <dc:format>image/svg+xml</dc:format>
    <dc:creator>
     <cc:Agent>
      <dc:title>Matplotlib v3.8.2, https://matplotlib.org/</dc:title>
     </cc:Agent>
    </dc:creator>
   </cc:Work>
  </rdf:RDF>
 </metadata>
 <defs>
  <style type="text/css">*{stroke-linejoin: round; stroke-linecap: butt}</style>
 </defs>
 <g id="figure_1">
  <g id="patch_1">
   <path d="M 0 581.830625 
L 811.184375 581.830625 
L 811.184375 0 
L 0 0 
z
" style="fill: #ffffff"/>
  </g>
  <g id="axes_1">
   <g id="patch_2">
    <path d="M 105.584375 501.3525 
L 775.184375 501.3525 
L 775.184375 57.8325 
L 105.584375 57.8325 
z
" style="fill: #ffffff"/>
   </g>
   <g id="matplotlib.axis_1">
    <g id="xtick_1">
     <g id="line2d_1">
      <path d="M 135.309462 501.3525 
L 135.309462 57.8325 
" clip-path="url(#p7c986f7a18)" style="fill: none; stroke: #b0b0b0; stroke-opacity: 0.8; stroke-linecap: square"/>
     </g>
     <g id="line2d_2">
      <defs>
       <path id="mb04436c125" d="M 0 0 
L 0 3.5 
" style="stroke: #000000; stroke-width: 0.8"/>
      </defs>
      <g>
       <use xlink:href="#mb04436c125" x="135.309462" y="501.3525" style="stroke: #000000; stroke-width: 0.8"/>
      </g>
     </g>
     <g id="text_1">
      <!-- 0 -->
      <g transform="translate(130.079774 521.49625) scale(0.2 -0.2)">
       <defs>
        <path id="AptosDisplay-30" d="M 1672 -56 
Q 1291 -56 1028 105 
Q 766 266 605 552 
Q 444 838 372 1216 
Q 300 1594 300 2031 
Q 300 2475 372 2856 
Q 444 3238 605 3525 
Q 766 3813 1028 3973 
Q 1291 4134 1672 4134 
Q 2053 4134 2317 3975 
Q 2581 3816 2742 3527 
Q 2903 3238 2975 2858 
Q 3047 2478 3047 2038 
Q 3047 1597 2975 1217 
Q 2903 838 2742 552 
Q 2581 266 2318 105 
Q 2056 -56 1672 -56 
z
M 1672 409 
Q 1916 409 2073 550 
Q 2231 691 2322 925 
Q 2413 1159 2448 1448 
Q 2484 1738 2484 2038 
Q 2484 2338 2448 2628 
Q 2413 2919 2322 3153 
Q 2231 3388 2073 3527 
Q 1916 3666 1669 3666 
Q 1428 3666 1268 3527 
Q 1109 3388 1020 3153 
Q 931 2919 893 2628 
Q 856 2338 856 2038 
Q 856 1741 893 1450 
Q 931 1159 1020 925 
Q 1109 691 1268 550 
Q 1428 409 1672 409 
z
" transform="scale(0.015625)"/>
       </defs>
       <use xlink:href="#AptosDisplay-30"/>
      </g>
     </g>
    </g>
    <g id="xtick_2">
     <g id="line2d_3">
      <path d="M 218.016073 501.3525 
L 218.016073 57.8325 
" clip-path="url(#p7c986f7a18)" style="fill: none; stroke: #b0b0b0; stroke-opacity: 0.8; stroke-linecap: square"/>
     </g>
     <g id="line2d_4">
      <g>
       <use xlink:href="#mb04436c125" x="218.016073" y="501.3525" style="stroke: #000000; stroke-width: 0.8"/>
      </g>
     </g>
     <g id="text_2">
      <!-- 25 -->
      <g transform="translate(207.556698 521.49625) scale(0.2 -0.2)">
       <defs>
        <path id="AptosDisplay-32" d="M 247 0 
L 247 413 
L 1725 1741 
Q 2100 2081 2269 2351 
Q 2438 2622 2438 2938 
Q 2438 3256 2263 3461 
Q 2088 3666 1691 3666 
Q 1247 3666 1055 3439 
Q 863 3213 863 2869 
L 341 2869 
Q 341 3250 491 3534 
Q 641 3819 941 3975 
Q 1241 4131 1691 4131 
Q 2103 4131 2390 3986 
Q 2678 3841 2828 3578 
Q 2978 3316 2978 2959 
Q 2978 2638 2853 2375 
Q 2728 2113 2517 1883 
Q 2306 1653 2044 1425 
L 959 463 
L 3097 463 
L 3097 0 
L 247 0 
z
" transform="scale(0.015625)"/>
        <path id="AptosDisplay-35" d="M 1669 -56 
Q 1278 -56 964 83 
Q 650 222 465 483 
Q 281 744 281 1113 
L 816 1113 
Q 816 778 1055 584 
Q 1294 391 1669 391 
Q 2069 391 2291 625 
Q 2513 859 2513 1319 
Q 2513 1772 2291 1989 
Q 2069 2206 1697 2206 
Q 1409 2206 1223 2123 
Q 1038 2041 916 1894 
L 444 1894 
L 622 4078 
L 2788 4078 
L 2788 3613 
L 1041 3613 
L 931 2322 
Q 1044 2453 1251 2550 
Q 1459 2647 1775 2647 
Q 2131 2647 2420 2506 
Q 2709 2366 2881 2072 
Q 3053 1778 3053 1319 
Q 3053 863 2875 558 
Q 2697 253 2384 98 
Q 2072 -56 1669 -56 
z
" transform="scale(0.015625)"/>
       </defs>
       <use xlink:href="#AptosDisplay-32"/>
       <use xlink:href="#AptosDisplay-35" x="52.294922"/>
      </g>
     </g>
    </g>
    <g id="xtick_3">
     <g id="line2d_5">
      <path d="M 300.722684 501.3525 
L 300.722684 57.8325 
" clip-path="url(#p7c986f7a18)" style="fill: none; stroke: #b0b0b0; stroke-opacity: 0.8; stroke-linecap: square"/>
     </g>
     <g id="line2d_6">
      <g>
       <use xlink:href="#mb04436c125" x="300.722684" y="501.3525" style="stroke: #000000; stroke-width: 0.8"/>
      </g>
     </g>
     <g id="text_3">
      <!-- 50 -->
      <g transform="translate(290.263309 521.49625) scale(0.2 -0.2)">
       <use xlink:href="#AptosDisplay-35"/>
       <use xlink:href="#AptosDisplay-30" x="52.294922"/>
      </g>
     </g>
    </g>
    <g id="xtick_4">
     <g id="line2d_7">
      <path d="M 383.429294 501.3525 
L 383.429294 57.8325 
" clip-path="url(#p7c986f7a18)" style="fill: none; stroke: #b0b0b0; stroke-opacity: 0.8; stroke-linecap: square"/>
     </g>
     <g id="line2d_8">
      <g>
       <use xlink:href="#mb04436c125" x="383.429294" y="501.3525" style="stroke: #000000; stroke-width: 0.8"/>
      </g>
     </g>
     <g id="text_4">
      <!-- 75 -->
      <g transform="translate(372.969919 521.49625) scale(0.2 -0.2)">
       <defs>
        <path id="AptosDisplay-37" d="M 766 0 
L 2609 3600 
L 194 3600 
L 194 4078 
L 3141 4078 
L 3141 3622 
L 1334 0 
L 766 0 
z
" transform="scale(0.015625)"/>
       </defs>
       <use xlink:href="#AptosDisplay-37"/>
       <use xlink:href="#AptosDisplay-35" x="52.294922"/>
      </g>
     </g>
    </g>
    <g id="xtick_5">
     <g id="line2d_9">
      <path d="M 466.135905 501.3525 
L 466.135905 57.8325 
" clip-path="url(#p7c986f7a18)" style="fill: none; stroke: #b0b0b0; stroke-opacity: 0.8; stroke-linecap: square"/>
     </g>
     <g id="line2d_10">
      <g>
       <use xlink:href="#mb04436c125" x="466.135905" y="501.3525" style="stroke: #000000; stroke-width: 0.8"/>
      </g>
     </g>
     <g id="text_5">
      <!-- 100 -->
      <g transform="translate(450.446843 521.49625) scale(0.2 -0.2)">
       <defs>
        <path id="AptosDisplay-31" d="M 1659 0 
L 1659 3425 
Q 1575 3309 1420 3201 
Q 1266 3094 1052 3009 
Q 838 2925 578 2888 
L 578 3381 
Q 834 3425 1057 3540 
Q 1281 3656 1453 3806 
Q 1625 3956 1719 4094 
L 2206 4094 
L 2206 0 
L 1659 0 
z
" transform="scale(0.015625)"/>
       </defs>
       <use xlink:href="#AptosDisplay-31"/>
       <use xlink:href="#AptosDisplay-30" x="52.294922"/>
       <use xlink:href="#AptosDisplay-30" x="104.589844"/>
      </g>
     </g>
    </g>
    <g id="xtick_6">
     <g id="line2d_11">
      <path d="M 548.842516 501.3525 
L 548.842516 57.8325 
" clip-path="url(#p7c986f7a18)" style="fill: none; stroke: #b0b0b0; stroke-opacity: 0.8; stroke-linecap: square"/>
     </g>
     <g id="line2d_12">
      <g>
       <use xlink:href="#mb04436c125" x="548.842516" y="501.3525" style="stroke: #000000; stroke-width: 0.8"/>
      </g>
     </g>
     <g id="text_6">
      <!-- 125 -->
      <g transform="translate(533.153454 521.49625) scale(0.2 -0.2)">
       <use xlink:href="#AptosDisplay-31"/>
       <use xlink:href="#AptosDisplay-32" x="52.294922"/>
       <use xlink:href="#AptosDisplay-35" x="104.589844"/>
      </g>
     </g>
    </g>
    <g id="xtick_7">
     <g id="line2d_13">
      <path d="M 631.549127 501.3525 
L 631.549127 57.8325 
" clip-path="url(#p7c986f7a18)" style="fill: none; stroke: #b0b0b0; stroke-opacity: 0.8; stroke-linecap: square"/>
     </g>
     <g id="line2d_14">
      <g>
       <use xlink:href="#mb04436c125" x="631.549127" y="501.3525" style="stroke: #000000; stroke-width: 0.8"/>
      </g>
     </g>
     <g id="text_7">
      <!-- 150 -->
      <g transform="translate(615.860065 521.49625) scale(0.2 -0.2)">
       <use xlink:href="#AptosDisplay-31"/>
       <use xlink:href="#AptosDisplay-35" x="52.294922"/>
       <use xlink:href="#AptosDisplay-30" x="104.589844"/>
      </g>
     </g>
    </g>
    <g id="xtick_8">
     <g id="line2d_15">
      <path d="M 714.255738 501.3525 
L 714.255738 57.8325 
" clip-path="url(#p7c986f7a18)" style="fill: none; stroke: #b0b0b0; stroke-opacity: 0.8; stroke-linecap: square"/>
     </g>
     <g id="line2d_16">
      <g>
       <use xlink:href="#mb04436c125" x="714.255738" y="501.3525" style="stroke: #000000; stroke-width: 0.8"/>
      </g>
     </g>
     <g id="text_8">
      <!-- 175 -->
      <g transform="translate(698.566676 521.49625) scale(0.2 -0.2)">
       <use xlink:href="#AptosDisplay-31"/>
       <use xlink:href="#AptosDisplay-37" x="52.294922"/>
       <use xlink:href="#AptosDisplay-35" x="104.589844"/>
      </g>
     </g>
    </g>
    <g id="xtick_9">
     <g id="line2d_17">
      <path d="M 118.76814 501.3525 
L 118.76814 57.8325 
" clip-path="url(#p7c986f7a18)" style="fill: none; stroke-dasharray: 1.85,0.8; stroke-dashoffset: 0; stroke: #b0b0b0; stroke-opacity: 0.8; stroke-width: 0.5"/>
     </g>
     <g id="line2d_18">
      <defs>
       <path id="m45bcdfe765" d="M 0 0 
L 0 2 
" style="stroke: #000000; stroke-width: 0.6"/>
      </defs>
      <g>
       <use xlink:href="#m45bcdfe765" x="118.76814" y="501.3525" style="stroke: #000000; stroke-width: 0.6"/>
      </g>
     </g>
    </g>
    <g id="xtick_10">
     <g id="line2d_19">
      <path d="M 151.850784 501.3525 
L 151.850784 57.8325 
" clip-path="url(#p7c986f7a18)" style="fill: none; stroke-dasharray: 1.85,0.8; stroke-dashoffset: 0; stroke: #b0b0b0; stroke-opacity: 0.8; stroke-width: 0.5"/>
     </g>
     <g id="line2d_20">
      <g>
       <use xlink:href="#m45bcdfe765" x="151.850784" y="501.3525" style="stroke: #000000; stroke-width: 0.6"/>
      </g>
     </g>
    </g>
    <g id="xtick_11">
     <g id="line2d_21">
      <path d="M 168.392106 501.3525 
L 168.392106 57.8325 
" clip-path="url(#p7c986f7a18)" style="fill: none; stroke-dasharray: 1.85,0.8; stroke-dashoffset: 0; stroke: #b0b0b0; stroke-opacity: 0.8; stroke-width: 0.5"/>
     </g>
     <g id="line2d_22">
      <g>
       <use xlink:href="#m45bcdfe765" x="168.392106" y="501.3525" style="stroke: #000000; stroke-width: 0.6"/>
      </g>
     </g>
    </g>
    <g id="xtick_12">
     <g id="line2d_23">
      <path d="M 184.933428 501.3525 
L 184.933428 57.8325 
" clip-path="url(#p7c986f7a18)" style="fill: none; stroke-dasharray: 1.85,0.8; stroke-dashoffset: 0; stroke: #b0b0b0; stroke-opacity: 0.8; stroke-width: 0.5"/>
     </g>
     <g id="line2d_24">
      <g>
       <use xlink:href="#m45bcdfe765" x="184.933428" y="501.3525" style="stroke: #000000; stroke-width: 0.6"/>
      </g>
     </g>
    </g>
    <g id="xtick_13">
     <g id="line2d_25">
      <path d="M 201.47475 501.3525 
L 201.47475 57.8325 
" clip-path="url(#p7c986f7a18)" style="fill: none; stroke-dasharray: 1.85,0.8; stroke-dashoffset: 0; stroke: #b0b0b0; stroke-opacity: 0.8; stroke-width: 0.5"/>
     </g>
     <g id="line2d_26">
      <g>
       <use xlink:href="#m45bcdfe765" x="201.47475" y="501.3525" style="stroke: #000000; stroke-width: 0.6"/>
      </g>
     </g>
    </g>
    <g id="xtick_14">
     <g id="line2d_27">
      <path d="M 234.557395 501.3525 
L 234.557395 57.8325 
" clip-path="url(#p7c986f7a18)" style="fill: none; stroke-dasharray: 1.85,0.8; stroke-dashoffset: 0; stroke: #b0b0b0; stroke-opacity: 0.8; stroke-width: 0.5"/>
     </g>
     <g id="line2d_28">
      <g>
       <use xlink:href="#m45bcdfe765" x="234.557395" y="501.3525" style="stroke: #000000; stroke-width: 0.6"/>
      </g>
     </g>
    </g>
    <g id="xtick_15">
     <g id="line2d_29">
      <path d="M 251.098717 501.3525 
L 251.098717 57.8325 
" clip-path="url(#p7c986f7a18)" style="fill: none; stroke-dasharray: 1.85,0.8; stroke-dashoffset: 0; stroke: #b0b0b0; stroke-opacity: 0.8; stroke-width: 0.5"/>
     </g>
     <g id="line2d_30">
      <g>
       <use xlink:href="#m45bcdfe765" x="251.098717" y="501.3525" style="stroke: #000000; stroke-width: 0.6"/>
      </g>
     </g>
    </g>
    <g id="xtick_16">
     <g id="line2d_31">
      <path d="M 267.640039 501.3525 
L 267.640039 57.8325 
" clip-path="url(#p7c986f7a18)" style="fill: none; stroke-dasharray: 1.85,0.8; stroke-dashoffset: 0; stroke: #b0b0b0; stroke-opacity: 0.8; stroke-width: 0.5"/>
     </g>
     <g id="line2d_32">
      <g>
       <use xlink:href="#m45bcdfe765" x="267.640039" y="501.3525" style="stroke: #000000; stroke-width: 0.6"/>
      </g>
     </g>
    </g>
    <g id="xtick_17">
     <g id="line2d_33">
      <path d="M 284.181361 501.3525 
L 284.181361 57.8325 
" clip-path="url(#p7c986f7a18)" style="fill: none; stroke-dasharray: 1.85,0.8; stroke-dashoffset: 0; stroke: #b0b0b0; stroke-opacity: 0.8; stroke-width: 0.5"/>
     </g>
     <g id="line2d_34">
      <g>
       <use xlink:href="#m45bcdfe765" x="284.181361" y="501.3525" style="stroke: #000000; stroke-width: 0.6"/>
      </g>
     </g>
    </g>
    <g id="xtick_18">
     <g id="line2d_35">
      <path d="M 317.264006 501.3525 
L 317.264006 57.8325 
" clip-path="url(#p7c986f7a18)" style="fill: none; stroke-dasharray: 1.85,0.8; stroke-dashoffset: 0; stroke: #b0b0b0; stroke-opacity: 0.8; stroke-width: 0.5"/>
     </g>
     <g id="line2d_36">
      <g>
       <use xlink:href="#m45bcdfe765" x="317.264006" y="501.3525" style="stroke: #000000; stroke-width: 0.6"/>
      </g>
     </g>
    </g>
    <g id="xtick_19">
     <g id="line2d_37">
      <path d="M 333.805328 501.3525 
L 333.805328 57.8325 
" clip-path="url(#p7c986f7a18)" style="fill: none; stroke-dasharray: 1.85,0.8; stroke-dashoffset: 0; stroke: #b0b0b0; stroke-opacity: 0.8; stroke-width: 0.5"/>
     </g>
     <g id="line2d_38">
      <g>
       <use xlink:href="#m45bcdfe765" x="333.805328" y="501.3525" style="stroke: #000000; stroke-width: 0.6"/>
      </g>
     </g>
    </g>
    <g id="xtick_20">
     <g id="line2d_39">
      <path d="M 350.34665 501.3525 
L 350.34665 57.8325 
" clip-path="url(#p7c986f7a18)" style="fill: none; stroke-dasharray: 1.85,0.8; stroke-dashoffset: 0; stroke: #b0b0b0; stroke-opacity: 0.8; stroke-width: 0.5"/>
     </g>
     <g id="line2d_40">
      <g>
       <use xlink:href="#m45bcdfe765" x="350.34665" y="501.3525" style="stroke: #000000; stroke-width: 0.6"/>
      </g>
     </g>
    </g>
    <g id="xtick_21">
     <g id="line2d_41">
      <path d="M 366.887972 501.3525 
L 366.887972 57.8325 
" clip-path="url(#p7c986f7a18)" style="fill: none; stroke-dasharray: 1.85,0.8; stroke-dashoffset: 0; stroke: #b0b0b0; stroke-opacity: 0.8; stroke-width: 0.5"/>
     </g>
     <g id="line2d_42">
      <g>
       <use xlink:href="#m45bcdfe765" x="366.887972" y="501.3525" style="stroke: #000000; stroke-width: 0.6"/>
      </g>
     </g>
    </g>
    <g id="xtick_22">
     <g id="line2d_43">
      <path d="M 399.970617 501.3525 
L 399.970617 57.8325 
" clip-path="url(#p7c986f7a18)" style="fill: none; stroke-dasharray: 1.85,0.8; stroke-dashoffset: 0; stroke: #b0b0b0; stroke-opacity: 0.8; stroke-width: 0.5"/>
     </g>
     <g id="line2d_44">
      <g>
       <use xlink:href="#m45bcdfe765" x="399.970617" y="501.3525" style="stroke: #000000; stroke-width: 0.6"/>
      </g>
     </g>
    </g>
    <g id="xtick_23">
     <g id="line2d_45">
      <path d="M 416.511939 501.3525 
L 416.511939 57.8325 
" clip-path="url(#p7c986f7a18)" style="fill: none; stroke-dasharray: 1.85,0.8; stroke-dashoffset: 0; stroke: #b0b0b0; stroke-opacity: 0.8; stroke-width: 0.5"/>
     </g>
     <g id="line2d_46">
      <g>
       <use xlink:href="#m45bcdfe765" x="416.511939" y="501.3525" style="stroke: #000000; stroke-width: 0.6"/>
      </g>
     </g>
    </g>
    <g id="xtick_24">
     <g id="line2d_47">
      <path d="M 433.053261 501.3525 
L 433.053261 57.8325 
" clip-path="url(#p7c986f7a18)" style="fill: none; stroke-dasharray: 1.85,0.8; stroke-dashoffset: 0; stroke: #b0b0b0; stroke-opacity: 0.8; stroke-width: 0.5"/>
     </g>
     <g id="line2d_48">
      <g>
       <use xlink:href="#m45bcdfe765" x="433.053261" y="501.3525" style="stroke: #000000; stroke-width: 0.6"/>
      </g>
     </g>
    </g>
    <g id="xtick_25">
     <g id="line2d_49">
      <path d="M 449.594583 501.3525 
L 449.594583 57.8325 
" clip-path="url(#p7c986f7a18)" style="fill: none; stroke-dasharray: 1.85,0.8; stroke-dashoffset: 0; stroke: #b0b0b0; stroke-opacity: 0.8; stroke-width: 0.5"/>
     </g>
     <g id="line2d_50">
      <g>
       <use xlink:href="#m45bcdfe765" x="449.594583" y="501.3525" style="stroke: #000000; stroke-width: 0.6"/>
      </g>
     </g>
    </g>
    <g id="xtick_26">
     <g id="line2d_51">
      <path d="M 482.677228 501.3525 
L 482.677228 57.8325 
" clip-path="url(#p7c986f7a18)" style="fill: none; stroke-dasharray: 1.85,0.8; stroke-dashoffset: 0; stroke: #b0b0b0; stroke-opacity: 0.8; stroke-width: 0.5"/>
     </g>
     <g id="line2d_52">
      <g>
       <use xlink:href="#m45bcdfe765" x="482.677228" y="501.3525" style="stroke: #000000; stroke-width: 0.6"/>
      </g>
     </g>
    </g>
    <g id="xtick_27">
     <g id="line2d_53">
      <path d="M 499.21855 501.3525 
L 499.21855 57.8325 
" clip-path="url(#p7c986f7a18)" style="fill: none; stroke-dasharray: 1.85,0.8; stroke-dashoffset: 0; stroke: #b0b0b0; stroke-opacity: 0.8; stroke-width: 0.5"/>
     </g>
     <g id="line2d_54">
      <g>
       <use xlink:href="#m45bcdfe765" x="499.21855" y="501.3525" style="stroke: #000000; stroke-width: 0.6"/>
      </g>
     </g>
    </g>
    <g id="xtick_28">
     <g id="line2d_55">
      <path d="M 515.759872 501.3525 
L 515.759872 57.8325 
" clip-path="url(#p7c986f7a18)" style="fill: none; stroke-dasharray: 1.85,0.8; stroke-dashoffset: 0; stroke: #b0b0b0; stroke-opacity: 0.8; stroke-width: 0.5"/>
     </g>
     <g id="line2d_56">
      <g>
       <use xlink:href="#m45bcdfe765" x="515.759872" y="501.3525" style="stroke: #000000; stroke-width: 0.6"/>
      </g>
     </g>
    </g>
    <g id="xtick_29">
     <g id="line2d_57">
      <path d="M 532.301194 501.3525 
L 532.301194 57.8325 
" clip-path="url(#p7c986f7a18)" style="fill: none; stroke-dasharray: 1.85,0.8; stroke-dashoffset: 0; stroke: #b0b0b0; stroke-opacity: 0.8; stroke-width: 0.5"/>
     </g>
     <g id="line2d_58">
      <g>
       <use xlink:href="#m45bcdfe765" x="532.301194" y="501.3525" style="stroke: #000000; stroke-width: 0.6"/>
      </g>
     </g>
    </g>
    <g id="xtick_30">
     <g id="line2d_59">
      <path d="M 565.383838 501.3525 
L 565.383838 57.8325 
" clip-path="url(#p7c986f7a18)" style="fill: none; stroke-dasharray: 1.85,0.8; stroke-dashoffset: 0; stroke: #b0b0b0; stroke-opacity: 0.8; stroke-width: 0.5"/>
     </g>
     <g id="line2d_60">
      <g>
       <use xlink:href="#m45bcdfe765" x="565.383838" y="501.3525" style="stroke: #000000; stroke-width: 0.6"/>
      </g>
     </g>
    </g>
    <g id="xtick_31">
     <g id="line2d_61">
      <path d="M 581.925161 501.3525 
L 581.925161 57.8325 
" clip-path="url(#p7c986f7a18)" style="fill: none; stroke-dasharray: 1.85,0.8; stroke-dashoffset: 0; stroke: #b0b0b0; stroke-opacity: 0.8; stroke-width: 0.5"/>
     </g>
     <g id="line2d_62">
      <g>
       <use xlink:href="#m45bcdfe765" x="581.925161" y="501.3525" style="stroke: #000000; stroke-width: 0.6"/>
      </g>
     </g>
    </g>
    <g id="xtick_32">
     <g id="line2d_63">
      <path d="M 598.466483 501.3525 
L 598.466483 57.8325 
" clip-path="url(#p7c986f7a18)" style="fill: none; stroke-dasharray: 1.85,0.8; stroke-dashoffset: 0; stroke: #b0b0b0; stroke-opacity: 0.8; stroke-width: 0.5"/>
     </g>
     <g id="line2d_64">
      <g>
       <use xlink:href="#m45bcdfe765" x="598.466483" y="501.3525" style="stroke: #000000; stroke-width: 0.6"/>
      </g>
     </g>
    </g>
    <g id="xtick_33">
     <g id="line2d_65">
      <path d="M 615.007805 501.3525 
L 615.007805 57.8325 
" clip-path="url(#p7c986f7a18)" style="fill: none; stroke-dasharray: 1.85,0.8; stroke-dashoffset: 0; stroke: #b0b0b0; stroke-opacity: 0.8; stroke-width: 0.5"/>
     </g>
     <g id="line2d_66">
      <g>
       <use xlink:href="#m45bcdfe765" x="615.007805" y="501.3525" style="stroke: #000000; stroke-width: 0.6"/>
      </g>
     </g>
    </g>
    <g id="xtick_34">
     <g id="line2d_67">
      <path d="M 648.090449 501.3525 
L 648.090449 57.8325 
" clip-path="url(#p7c986f7a18)" style="fill: none; stroke-dasharray: 1.85,0.8; stroke-dashoffset: 0; stroke: #b0b0b0; stroke-opacity: 0.8; stroke-width: 0.5"/>
     </g>
     <g id="line2d_68">
      <g>
       <use xlink:href="#m45bcdfe765" x="648.090449" y="501.3525" style="stroke: #000000; stroke-width: 0.6"/>
      </g>
     </g>
    </g>
    <g id="xtick_35">
     <g id="line2d_69">
      <path d="M 664.631772 501.3525 
L 664.631772 57.8325 
" clip-path="url(#p7c986f7a18)" style="fill: none; stroke-dasharray: 1.85,0.8; stroke-dashoffset: 0; stroke: #b0b0b0; stroke-opacity: 0.8; stroke-width: 0.5"/>
     </g>
     <g id="line2d_70">
      <g>
       <use xlink:href="#m45bcdfe765" x="664.631772" y="501.3525" style="stroke: #000000; stroke-width: 0.6"/>
      </g>
     </g>
    </g>
    <g id="xtick_36">
     <g id="line2d_71">
      <path d="M 681.173094 501.3525 
L 681.173094 57.8325 
" clip-path="url(#p7c986f7a18)" style="fill: none; stroke-dasharray: 1.85,0.8; stroke-dashoffset: 0; stroke: #b0b0b0; stroke-opacity: 0.8; stroke-width: 0.5"/>
     </g>
     <g id="line2d_72">
      <g>
       <use xlink:href="#m45bcdfe765" x="681.173094" y="501.3525" style="stroke: #000000; stroke-width: 0.6"/>
      </g>
     </g>
    </g>
    <g id="xtick_37">
     <g id="line2d_73">
      <path d="M 697.714416 501.3525 
L 697.714416 57.8325 
" clip-path="url(#p7c986f7a18)" style="fill: none; stroke-dasharray: 1.85,0.8; stroke-dashoffset: 0; stroke: #b0b0b0; stroke-opacity: 0.8; stroke-width: 0.5"/>
     </g>
     <g id="line2d_74">
      <g>
       <use xlink:href="#m45bcdfe765" x="697.714416" y="501.3525" style="stroke: #000000; stroke-width: 0.6"/>
      </g>
     </g>
    </g>
    <g id="xtick_38">
     <g id="line2d_75">
      <path d="M 730.79706 501.3525 
L 730.79706 57.8325 
" clip-path="url(#p7c986f7a18)" style="fill: none; stroke-dasharray: 1.85,0.8; stroke-dashoffset: 0; stroke: #b0b0b0; stroke-opacity: 0.8; stroke-width: 0.5"/>
     </g>
     <g id="line2d_76">
      <g>
       <use xlink:href="#m45bcdfe765" x="730.79706" y="501.3525" style="stroke: #000000; stroke-width: 0.6"/>
      </g>
     </g>
    </g>
    <g id="xtick_39">
     <g id="line2d_77">
      <path d="M 747.338382 501.3525 
L 747.338382 57.8325 
" clip-path="url(#p7c986f7a18)" style="fill: none; stroke-dasharray: 1.85,0.8; stroke-dashoffset: 0; stroke: #b0b0b0; stroke-opacity: 0.8; stroke-width: 0.5"/>
     </g>
     <g id="line2d_78">
      <g>
       <use xlink:href="#m45bcdfe765" x="747.338382" y="501.3525" style="stroke: #000000; stroke-width: 0.6"/>
      </g>
     </g>
    </g>
    <g id="xtick_40">
     <g id="line2d_79">
      <path d="M 763.879705 501.3525 
L 763.879705 57.8325 
" clip-path="url(#p7c986f7a18)" style="fill: none; stroke-dasharray: 1.85,0.8; stroke-dashoffset: 0; stroke: #b0b0b0; stroke-opacity: 0.8; stroke-width: 0.5"/>
     </g>
     <g id="line2d_80">
      <g>
       <use xlink:href="#m45bcdfe765" x="763.879705" y="501.3525" style="stroke: #000000; stroke-width: 0.6"/>
      </g>
     </g>
    </g>
    <g id="text_9">
     <!-- Time (S) -->
     <g transform="translate(407.29375 542.305625) scale(0.2 -0.2)">
      <defs>
       <path id="AptosDisplay-54" d="M 1244 0 
L 1244 3734 
L 50 3734 
L 50 4206 
L 2997 4206 
L 2997 3734 
L 1806 3734 
L 1806 0 
L 1244 0 
z
" transform="scale(0.015625)"/>
       <path id="AptosDisplay-69" d="M 413 0 
L 413 3044 
L 934 3044 
L 934 0 
L 413 0 
z
M 675 3616 
Q 525 3616 437 3702 
Q 350 3788 350 3919 
Q 350 4050 437 4136 
Q 525 4222 675 4222 
Q 822 4222 912 4136 
Q 1003 4050 1003 3919 
Q 1003 3788 912 3702 
Q 822 3616 675 3616 
z
" transform="scale(0.015625)"/>
       <path id="AptosDisplay-6d" d="M 413 0 
L 413 3044 
L 919 3044 
L 931 2575 
Q 1063 2756 1303 2914 
Q 1544 3072 1903 3072 
Q 2403 3072 2618 2778 
Q 2834 2484 2834 1963 
L 2834 0 
L 2316 0 
L 2316 1891 
Q 2316 2106 2275 2275 
Q 2234 2444 2120 2539 
Q 2006 2634 1788 2634 
Q 1488 2634 1277 2482 
Q 1066 2331 934 2156 
L 934 0 
L 413 0 
z
M 4206 0 
L 4206 1891 
Q 4206 2106 4164 2275 
Q 4122 2444 4009 2539 
Q 3897 2634 3681 2634 
Q 3381 2634 3165 2484 
Q 2950 2334 2822 2159 
L 2744 2544 
Q 2916 2741 3175 2906 
Q 3434 3072 3800 3072 
Q 4291 3072 4509 2778 
Q 4728 2484 4728 1963 
L 4728 0 
L 4206 0 
z
" transform="scale(0.015625)"/>
       <path id="AptosDisplay-65" d="M 1663 -56 
Q 1188 -56 878 151 
Q 569 359 417 717 
Q 266 1075 266 1522 
Q 266 1988 412 2342 
Q 559 2697 857 2897 
Q 1156 3097 1606 3097 
Q 2209 3097 2550 2722 
Q 2891 2347 2891 1644 
Q 2891 1597 2889 1533 
Q 2888 1469 2881 1441 
L 791 1441 
Q 794 1144 881 895 
Q 969 647 1161 497 
Q 1353 347 1663 347 
Q 1997 347 2183 511 
Q 2369 675 2378 984 
L 2894 984 
Q 2884 663 2732 430 
Q 2581 197 2309 70 
Q 2038 -56 1663 -56 
z
M 794 1822 
L 2375 1822 
Q 2366 2247 2166 2472 
Q 1966 2697 1606 2697 
Q 1241 2697 1036 2473 
Q 831 2250 794 1822 
z
" transform="scale(0.015625)"/>
       <path id="AptosDisplay-20" transform="scale(0.015625)"/>
       <path id="AptosDisplay-28" d="M 1219 -1116 
Q 969 -678 787 -267 
Q 606 144 511 581 
Q 416 1019 416 1528 
Q 416 2028 509 2486 
Q 603 2944 783 3378 
Q 963 3813 1219 4231 
L 1647 4231 
Q 1278 3600 1101 2886 
Q 925 2172 925 1428 
Q 925 766 1125 103 
Q 1325 -559 1647 -1116 
L 1219 -1116 
z
" transform="scale(0.015625)"/>
       <path id="AptosDisplay-53" d="M 1778 -56 
Q 1328 -56 962 81 
Q 597 219 384 512 
Q 172 806 172 1275 
L 734 1275 
Q 738 941 883 750 
Q 1028 559 1267 481 
Q 1506 403 1794 403 
Q 2063 403 2283 483 
Q 2503 563 2634 723 
Q 2766 884 2766 1134 
Q 2766 1356 2662 1497 
Q 2559 1638 2321 1742 
Q 2084 1847 1678 1950 
Q 1203 2075 897 2223 
Q 591 2372 442 2594 
Q 294 2816 294 3156 
Q 294 3516 462 3761 
Q 631 4006 945 4134 
Q 1259 4263 1697 4263 
Q 2103 4263 2440 4131 
Q 2778 4000 2979 3737 
Q 3181 3475 3181 3084 
L 2616 3084 
Q 2622 3441 2356 3623 
Q 2091 3806 1700 3806 
Q 1300 3806 1073 3645 
Q 847 3484 847 3175 
Q 847 2991 944 2867 
Q 1041 2744 1280 2644 
Q 1519 2544 1941 2434 
Q 2428 2303 2731 2153 
Q 3034 2003 3178 1768 
Q 3322 1534 3322 1153 
Q 3322 747 3117 480 
Q 2913 213 2564 78 
Q 2216 -56 1778 -56 
z
" transform="scale(0.015625)"/>
       <path id="AptosDisplay-29" d="M 234 -1116 
Q 609 -481 786 233 
Q 963 947 963 1694 
Q 963 2356 759 3015 
Q 556 3675 234 4231 
L 663 4231 
Q 919 3800 1098 3389 
Q 1278 2978 1373 2540 
Q 1469 2103 1469 1594 
Q 1469 1094 1375 634 
Q 1281 175 1100 -259 
Q 919 -694 663 -1116 
L 234 -1116 
z
" transform="scale(0.015625)"/>
      </defs>
      <use xlink:href="#AptosDisplay-54"/>
      <use xlink:href="#AptosDisplay-69" x="47.705078"/>
      <use xlink:href="#AptosDisplay-6d" x="68.75"/>
      <use xlink:href="#AptosDisplay-65" x="148.730469"/>
      <use xlink:href="#AptosDisplay-20" x="198.144531"/>
      <use xlink:href="#AptosDisplay-28" x="217.431641"/>
      <use xlink:href="#AptosDisplay-53" x="246.875"/>
      <use xlink:href="#AptosDisplay-29" x="301.464844"/>
     </g>
    </g>
   </g>
   <g id="matplotlib.axis_2">
    <g id="ytick_1">
     <g id="line2d_81">
      <path d="M 105.584375 485.964098 
L 775.184375 485.964098 
" clip-path="url(#p7c986f7a18)" style="fill: none; stroke: #b0b0b0; stroke-opacity: 0.8; stroke-linecap: square"/>
     </g>
     <g id="line2d_82">
      <defs>
       <path id="m94d3218513" d="M 0 0 
L -3.5 0 
" style="stroke: #000000; stroke-width: 0.8"/>
      </defs>
      <g>
       <use xlink:href="#m94d3218513" x="105.584375" y="485.964098" style="stroke: #000000; stroke-width: 0.8"/>
      </g>
     </g>
     <g id="text_10">
      <!-- 0 -->
      <g transform="translate(88.125 492.535973) scale(0.2 -0.2)">
       <use xlink:href="#AptosDisplay-30"/>
      </g>
     </g>
    </g>
    <g id="ytick_2">
     <g id="line2d_83">
      <path d="M 105.584375 428.704926 
L 775.184375 428.704926 
" clip-path="url(#p7c986f7a18)" style="fill: none; stroke: #b0b0b0; stroke-opacity: 0.8; stroke-linecap: square"/>
     </g>
     <g id="line2d_84">
      <g>
       <use xlink:href="#m94d3218513" x="105.584375" y="428.704926" style="stroke: #000000; stroke-width: 0.8"/>
      </g>
     </g>
     <g id="text_11">
      <!-- 200 -->
      <g transform="translate(67.20625 435.276801) scale(0.2 -0.2)">
       <use xlink:href="#AptosDisplay-32"/>
       <use xlink:href="#AptosDisplay-30" x="52.294922"/>
       <use xlink:href="#AptosDisplay-30" x="104.589844"/>
      </g>
     </g>
    </g>
    <g id="ytick_3">
     <g id="line2d_85">
      <path d="M 105.584375 371.445754 
L 775.184375 371.445754 
" clip-path="url(#p7c986f7a18)" style="fill: none; stroke: #b0b0b0; stroke-opacity: 0.8; stroke-linecap: square"/>
     </g>
     <g id="line2d_86">
      <g>
       <use xlink:href="#m94d3218513" x="105.584375" y="371.445754" style="stroke: #000000; stroke-width: 0.8"/>
      </g>
     </g>
     <g id="text_12">
      <!-- 400 -->
      <g transform="translate(67.20625 378.017629) scale(0.2 -0.2)">
       <defs>
        <path id="AptosDisplay-34" d="M 2106 0 
L 2106 825 
L 125 825 
L 125 1297 
L 2100 4103 
L 2631 4103 
L 2631 1284 
L 3191 1284 
L 3191 825 
L 2631 825 
L 2631 0 
L 2106 0 
z
M 638 1284 
L 2113 1284 
L 2113 3369 
L 638 1284 
z
" transform="scale(0.015625)"/>
       </defs>
       <use xlink:href="#AptosDisplay-34"/>
       <use xlink:href="#AptosDisplay-30" x="52.294922"/>
       <use xlink:href="#AptosDisplay-30" x="104.589844"/>
      </g>
     </g>
    </g>
    <g id="ytick_4">
     <g id="line2d_87">
      <path d="M 105.584375 314.186583 
L 775.184375 314.186583 
" clip-path="url(#p7c986f7a18)" style="fill: none; stroke: #b0b0b0; stroke-opacity: 0.8; stroke-linecap: square"/>
     </g>
     <g id="line2d_88">
      <g>
       <use xlink:href="#m94d3218513" x="105.584375" y="314.186583" style="stroke: #000000; stroke-width: 0.8"/>
      </g>
     </g>
     <g id="text_13">
      <!-- 600 -->
      <g transform="translate(67.20625 320.758458) scale(0.2 -0.2)">
       <defs>
        <path id="AptosDisplay-36" d="M 1759 -56 
Q 1325 -56 984 151 
Q 644 359 447 815 
Q 250 1272 250 2013 
Q 250 2738 439 3206 
Q 628 3675 968 3903 
Q 1309 4131 1759 4131 
Q 2253 4131 2595 3875 
Q 2938 3619 3034 3097 
L 2503 3097 
Q 2441 3388 2250 3534 
Q 2059 3681 1759 3681 
Q 1306 3681 1047 3279 
Q 788 2878 788 2013 
L 788 1850 
Q 788 1313 922 992 
Q 1056 672 1279 531 
Q 1503 391 1763 391 
Q 2175 391 2369 644 
Q 2563 897 2563 1272 
Q 2563 1650 2373 1869 
Q 2184 2088 1838 2088 
Q 1422 2088 1114 1897 
Q 806 1706 644 1456 
L 597 1856 
Q 728 2047 922 2201 
Q 1116 2356 1362 2447 
Q 1609 2538 1909 2538 
Q 2253 2538 2523 2395 
Q 2794 2253 2951 1975 
Q 3109 1697 3109 1291 
Q 3109 897 2951 592 
Q 2794 288 2492 116 
Q 2191 -56 1759 -56 
z
" transform="scale(0.015625)"/>
       </defs>
       <use xlink:href="#AptosDisplay-36"/>
       <use xlink:href="#AptosDisplay-30" x="52.294922"/>
       <use xlink:href="#AptosDisplay-30" x="104.589844"/>
      </g>
     </g>
    </g>
    <g id="ytick_5">
     <g id="line2d_89">
      <path d="M 105.584375 256.927411 
L 775.184375 256.927411 
" clip-path="url(#p7c986f7a18)" style="fill: none; stroke: #b0b0b0; stroke-opacity: 0.8; stroke-linecap: square"/>
     </g>
     <g id="line2d_90">
      <g>
       <use xlink:href="#m94d3218513" x="105.584375" y="256.927411" style="stroke: #000000; stroke-width: 0.8"/>
      </g>
     </g>
     <g id="text_14">
      <!-- 800 -->
      <g transform="translate(67.20625 263.499286) scale(0.2 -0.2)">
       <defs>
        <path id="AptosDisplay-38" d="M 1675 -56 
Q 1391 -56 1137 16 
Q 884 88 686 234 
Q 488 381 373 606 
Q 259 831 259 1141 
Q 259 1531 495 1797 
Q 731 2063 1084 2150 
Q 781 2250 604 2490 
Q 428 2731 428 3081 
Q 428 3447 609 3681 
Q 791 3916 1075 4025 
Q 1359 4134 1669 4134 
Q 1981 4134 2265 4023 
Q 2550 3913 2733 3680 
Q 2916 3447 2916 3081 
Q 2916 2725 2716 2481 
Q 2516 2238 2238 2150 
Q 2606 2063 2843 1800 
Q 3081 1538 3081 1141 
Q 3081 831 2968 606 
Q 2856 381 2661 234 
Q 2466 88 2211 16 
Q 1956 -56 1675 -56 
z
M 1672 388 
Q 1909 388 2109 470 
Q 2309 553 2429 725 
Q 2550 897 2550 1163 
Q 2550 1416 2426 1587 
Q 2303 1759 2104 1846 
Q 1906 1934 1672 1928 
Q 1453 1934 1253 1850 
Q 1053 1766 926 1594 
Q 800 1422 800 1163 
Q 800 775 1058 581 
Q 1316 388 1672 388 
z
M 1672 2363 
Q 1863 2356 2030 2434 
Q 2197 2513 2300 2667 
Q 2403 2822 2403 3050 
Q 2403 3388 2189 3544 
Q 1975 3700 1675 3700 
Q 1484 3700 1317 3631 
Q 1150 3563 1047 3419 
Q 944 3275 944 3050 
Q 944 2825 1048 2670 
Q 1153 2516 1320 2436 
Q 1488 2356 1672 2363 
z
" transform="scale(0.015625)"/>
       </defs>
       <use xlink:href="#AptosDisplay-38"/>
       <use xlink:href="#AptosDisplay-30" x="52.294922"/>
       <use xlink:href="#AptosDisplay-30" x="104.589844"/>
      </g>
     </g>
    </g>
    <g id="ytick_6">
     <g id="line2d_91">
      <path d="M 105.584375 199.66824 
L 775.184375 199.66824 
" clip-path="url(#p7c986f7a18)" style="fill: none; stroke: #b0b0b0; stroke-opacity: 0.8; stroke-linecap: square"/>
     </g>
     <g id="line2d_92">
      <g>
       <use xlink:href="#m94d3218513" x="105.584375" y="199.66824" style="stroke: #000000; stroke-width: 0.8"/>
      </g>
     </g>
     <g id="text_15">
      <!-- 1000 -->
      <g transform="translate(56.746875 206.240115) scale(0.2 -0.2)">
       <use xlink:href="#AptosDisplay-31"/>
       <use xlink:href="#AptosDisplay-30" x="52.294922"/>
       <use xlink:href="#AptosDisplay-30" x="104.589844"/>
       <use xlink:href="#AptosDisplay-30" x="156.884766"/>
      </g>
     </g>
    </g>
    <g id="ytick_7">
     <g id="line2d_93">
      <path d="M 105.584375 142.409068 
L 775.184375 142.409068 
" clip-path="url(#p7c986f7a18)" style="fill: none; stroke: #b0b0b0; stroke-opacity: 0.8; stroke-linecap: square"/>
     </g>
     <g id="line2d_94">
      <g>
       <use xlink:href="#m94d3218513" x="105.584375" y="142.409068" style="stroke: #000000; stroke-width: 0.8"/>
      </g>
     </g>
     <g id="text_16">
      <!-- 1200 -->
      <g transform="translate(56.746875 148.980943) scale(0.2 -0.2)">
       <use xlink:href="#AptosDisplay-31"/>
       <use xlink:href="#AptosDisplay-32" x="52.294922"/>
       <use xlink:href="#AptosDisplay-30" x="104.589844"/>
       <use xlink:href="#AptosDisplay-30" x="156.884766"/>
      </g>
     </g>
    </g>
    <g id="ytick_8">
     <g id="line2d_95">
      <path d="M 105.584375 85.149896 
L 775.184375 85.149896 
" clip-path="url(#p7c986f7a18)" style="fill: none; stroke: #b0b0b0; stroke-opacity: 0.8; stroke-linecap: square"/>
     </g>
     <g id="line2d_96">
      <g>
       <use xlink:href="#m94d3218513" x="105.584375" y="85.149896" style="stroke: #000000; stroke-width: 0.8"/>
      </g>
     </g>
     <g id="text_17">
      <!-- 1400 -->
      <g transform="translate(56.746875 91.721771) scale(0.2 -0.2)">
       <use xlink:href="#AptosDisplay-31"/>
       <use xlink:href="#AptosDisplay-34" x="52.294922"/>
       <use xlink:href="#AptosDisplay-30" x="104.589844"/>
       <use xlink:href="#AptosDisplay-30" x="156.884766"/>
      </g>
     </g>
    </g>
    <g id="ytick_9">
     <g id="line2d_97">
      <path d="M 105.584375 500.278891 
L 775.184375 500.278891 
" clip-path="url(#p7c986f7a18)" style="fill: none; stroke-dasharray: 1.85,0.8; stroke-dashoffset: 0; stroke: #b0b0b0; stroke-opacity: 0.8; stroke-width: 0.5"/>
     </g>
     <g id="line2d_98">
      <defs>
       <path id="mcf41c2a3f2" d="M 0 0 
L -2 0 
" style="stroke: #000000; stroke-width: 0.6"/>
      </defs>
      <g>
       <use xlink:href="#mcf41c2a3f2" x="105.584375" y="500.278891" style="stroke: #000000; stroke-width: 0.6"/>
      </g>
     </g>
    </g>
    <g id="ytick_10">
     <g id="line2d_99">
      <path d="M 105.584375 471.649305 
L 775.184375 471.649305 
" clip-path="url(#p7c986f7a18)" style="fill: none; stroke-dasharray: 1.85,0.8; stroke-dashoffset: 0; stroke: #b0b0b0; stroke-opacity: 0.8; stroke-width: 0.5"/>
     </g>
     <g id="line2d_100">
      <g>
       <use xlink:href="#mcf41c2a3f2" x="105.584375" y="471.649305" style="stroke: #000000; stroke-width: 0.6"/>
      </g>
     </g>
    </g>
    <g id="ytick_11">
     <g id="line2d_101">
      <path d="M 105.584375 457.334512 
L 775.184375 457.334512 
" clip-path="url(#p7c986f7a18)" style="fill: none; stroke-dasharray: 1.85,0.8; stroke-dashoffset: 0; stroke: #b0b0b0; stroke-opacity: 0.8; stroke-width: 0.5"/>
     </g>
     <g id="line2d_102">
      <g>
       <use xlink:href="#mcf41c2a3f2" x="105.584375" y="457.334512" style="stroke: #000000; stroke-width: 0.6"/>
      </g>
     </g>
    </g>
    <g id="ytick_12">
     <g id="line2d_103">
      <path d="M 105.584375 443.019719 
L 775.184375 443.019719 
" clip-path="url(#p7c986f7a18)" style="fill: none; stroke-dasharray: 1.85,0.8; stroke-dashoffset: 0; stroke: #b0b0b0; stroke-opacity: 0.8; stroke-width: 0.5"/>
     </g>
     <g id="line2d_104">
      <g>
       <use xlink:href="#mcf41c2a3f2" x="105.584375" y="443.019719" style="stroke: #000000; stroke-width: 0.6"/>
      </g>
     </g>
    </g>
    <g id="ytick_13">
     <g id="line2d_105">
      <path d="M 105.584375 414.390133 
L 775.184375 414.390133 
" clip-path="url(#p7c986f7a18)" style="fill: none; stroke-dasharray: 1.85,0.8; stroke-dashoffset: 0; stroke: #b0b0b0; stroke-opacity: 0.8; stroke-width: 0.5"/>
     </g>
     <g id="line2d_106">
      <g>
       <use xlink:href="#mcf41c2a3f2" x="105.584375" y="414.390133" style="stroke: #000000; stroke-width: 0.6"/>
      </g>
     </g>
    </g>
    <g id="ytick_14">
     <g id="line2d_107">
      <path d="M 105.584375 400.07534 
L 775.184375 400.07534 
" clip-path="url(#p7c986f7a18)" style="fill: none; stroke-dasharray: 1.85,0.8; stroke-dashoffset: 0; stroke: #b0b0b0; stroke-opacity: 0.8; stroke-width: 0.5"/>
     </g>
     <g id="line2d_108">
      <g>
       <use xlink:href="#mcf41c2a3f2" x="105.584375" y="400.07534" style="stroke: #000000; stroke-width: 0.6"/>
      </g>
     </g>
    </g>
    <g id="ytick_15">
     <g id="line2d_109">
      <path d="M 105.584375 385.760547 
L 775.184375 385.760547 
" clip-path="url(#p7c986f7a18)" style="fill: none; stroke-dasharray: 1.85,0.8; stroke-dashoffset: 0; stroke: #b0b0b0; stroke-opacity: 0.8; stroke-width: 0.5"/>
     </g>
     <g id="line2d_110">
      <g>
       <use xlink:href="#mcf41c2a3f2" x="105.584375" y="385.760547" style="stroke: #000000; stroke-width: 0.6"/>
      </g>
     </g>
    </g>
    <g id="ytick_16">
     <g id="line2d_111">
      <path d="M 105.584375 357.130962 
L 775.184375 357.130962 
" clip-path="url(#p7c986f7a18)" style="fill: none; stroke-dasharray: 1.85,0.8; stroke-dashoffset: 0; stroke: #b0b0b0; stroke-opacity: 0.8; stroke-width: 0.5"/>
     </g>
     <g id="line2d_112">
      <g>
       <use xlink:href="#mcf41c2a3f2" x="105.584375" y="357.130962" style="stroke: #000000; stroke-width: 0.6"/>
      </g>
     </g>
    </g>
    <g id="ytick_17">
     <g id="line2d_113">
      <path d="M 105.584375 342.816169 
L 775.184375 342.816169 
" clip-path="url(#p7c986f7a18)" style="fill: none; stroke-dasharray: 1.85,0.8; stroke-dashoffset: 0; stroke: #b0b0b0; stroke-opacity: 0.8; stroke-width: 0.5"/>
     </g>
     <g id="line2d_114">
      <g>
       <use xlink:href="#mcf41c2a3f2" x="105.584375" y="342.816169" style="stroke: #000000; stroke-width: 0.6"/>
      </g>
     </g>
    </g>
    <g id="ytick_18">
     <g id="line2d_115">
      <path d="M 105.584375 328.501376 
L 775.184375 328.501376 
" clip-path="url(#p7c986f7a18)" style="fill: none; stroke-dasharray: 1.85,0.8; stroke-dashoffset: 0; stroke: #b0b0b0; stroke-opacity: 0.8; stroke-width: 0.5"/>
     </g>
     <g id="line2d_116">
      <g>
       <use xlink:href="#mcf41c2a3f2" x="105.584375" y="328.501376" style="stroke: #000000; stroke-width: 0.6"/>
      </g>
     </g>
    </g>
    <g id="ytick_19">
     <g id="line2d_117">
      <path d="M 105.584375 299.87179 
L 775.184375 299.87179 
" clip-path="url(#p7c986f7a18)" style="fill: none; stroke-dasharray: 1.85,0.8; stroke-dashoffset: 0; stroke: #b0b0b0; stroke-opacity: 0.8; stroke-width: 0.5"/>
     </g>
     <g id="line2d_118">
      <g>
       <use xlink:href="#mcf41c2a3f2" x="105.584375" y="299.87179" style="stroke: #000000; stroke-width: 0.6"/>
      </g>
     </g>
    </g>
    <g id="ytick_20">
     <g id="line2d_119">
      <path d="M 105.584375 285.556997 
L 775.184375 285.556997 
" clip-path="url(#p7c986f7a18)" style="fill: none; stroke-dasharray: 1.85,0.8; stroke-dashoffset: 0; stroke: #b0b0b0; stroke-opacity: 0.8; stroke-width: 0.5"/>
     </g>
     <g id="line2d_120">
      <g>
       <use xlink:href="#mcf41c2a3f2" x="105.584375" y="285.556997" style="stroke: #000000; stroke-width: 0.6"/>
      </g>
     </g>
    </g>
    <g id="ytick_21">
     <g id="line2d_121">
      <path d="M 105.584375 271.242204 
L 775.184375 271.242204 
" clip-path="url(#p7c986f7a18)" style="fill: none; stroke-dasharray: 1.85,0.8; stroke-dashoffset: 0; stroke: #b0b0b0; stroke-opacity: 0.8; stroke-width: 0.5"/>
     </g>
     <g id="line2d_122">
      <g>
       <use xlink:href="#mcf41c2a3f2" x="105.584375" y="271.242204" style="stroke: #000000; stroke-width: 0.6"/>
      </g>
     </g>
    </g>
    <g id="ytick_22">
     <g id="line2d_123">
      <path d="M 105.584375 242.612618 
L 775.184375 242.612618 
" clip-path="url(#p7c986f7a18)" style="fill: none; stroke-dasharray: 1.85,0.8; stroke-dashoffset: 0; stroke: #b0b0b0; stroke-opacity: 0.8; stroke-width: 0.5"/>
     </g>
     <g id="line2d_124">
      <g>
       <use xlink:href="#mcf41c2a3f2" x="105.584375" y="242.612618" style="stroke: #000000; stroke-width: 0.6"/>
      </g>
     </g>
    </g>
    <g id="ytick_23">
     <g id="line2d_125">
      <path d="M 105.584375 228.297825 
L 775.184375 228.297825 
" clip-path="url(#p7c986f7a18)" style="fill: none; stroke-dasharray: 1.85,0.8; stroke-dashoffset: 0; stroke: #b0b0b0; stroke-opacity: 0.8; stroke-width: 0.5"/>
     </g>
     <g id="line2d_126">
      <g>
       <use xlink:href="#mcf41c2a3f2" x="105.584375" y="228.297825" style="stroke: #000000; stroke-width: 0.6"/>
      </g>
     </g>
    </g>
    <g id="ytick_24">
     <g id="line2d_127">
      <path d="M 105.584375 213.983033 
L 775.184375 213.983033 
" clip-path="url(#p7c986f7a18)" style="fill: none; stroke-dasharray: 1.85,0.8; stroke-dashoffset: 0; stroke: #b0b0b0; stroke-opacity: 0.8; stroke-width: 0.5"/>
     </g>
     <g id="line2d_128">
      <g>
       <use xlink:href="#mcf41c2a3f2" x="105.584375" y="213.983033" style="stroke: #000000; stroke-width: 0.6"/>
      </g>
     </g>
    </g>
    <g id="ytick_25">
     <g id="line2d_129">
      <path d="M 105.584375 185.353447 
L 775.184375 185.353447 
" clip-path="url(#p7c986f7a18)" style="fill: none; stroke-dasharray: 1.85,0.8; stroke-dashoffset: 0; stroke: #b0b0b0; stroke-opacity: 0.8; stroke-width: 0.5"/>
     </g>
     <g id="line2d_130">
      <g>
       <use xlink:href="#mcf41c2a3f2" x="105.584375" y="185.353447" style="stroke: #000000; stroke-width: 0.6"/>
      </g>
     </g>
    </g>
    <g id="ytick_26">
     <g id="line2d_131">
      <path d="M 105.584375 171.038654 
L 775.184375 171.038654 
" clip-path="url(#p7c986f7a18)" style="fill: none; stroke-dasharray: 1.85,0.8; stroke-dashoffset: 0; stroke: #b0b0b0; stroke-opacity: 0.8; stroke-width: 0.5"/>
     </g>
     <g id="line2d_132">
      <g>
       <use xlink:href="#mcf41c2a3f2" x="105.584375" y="171.038654" style="stroke: #000000; stroke-width: 0.6"/>
      </g>
     </g>
    </g>
    <g id="ytick_27">
     <g id="line2d_133">
      <path d="M 105.584375 156.723861 
L 775.184375 156.723861 
" clip-path="url(#p7c986f7a18)" style="fill: none; stroke-dasharray: 1.85,0.8; stroke-dashoffset: 0; stroke: #b0b0b0; stroke-opacity: 0.8; stroke-width: 0.5"/>
     </g>
     <g id="line2d_134">
      <g>
       <use xlink:href="#mcf41c2a3f2" x="105.584375" y="156.723861" style="stroke: #000000; stroke-width: 0.6"/>
      </g>
     </g>
    </g>
    <g id="ytick_28">
     <g id="line2d_135">
      <path d="M 105.584375 128.094275 
L 775.184375 128.094275 
" clip-path="url(#p7c986f7a18)" style="fill: none; stroke-dasharray: 1.85,0.8; stroke-dashoffset: 0; stroke: #b0b0b0; stroke-opacity: 0.8; stroke-width: 0.5"/>
     </g>
     <g id="line2d_136">
      <g>
       <use xlink:href="#mcf41c2a3f2" x="105.584375" y="128.094275" style="stroke: #000000; stroke-width: 0.6"/>
      </g>
     </g>
    </g>
    <g id="ytick_29">
     <g id="line2d_137">
      <path d="M 105.584375 113.779482 
L 775.184375 113.779482 
" clip-path="url(#p7c986f7a18)" style="fill: none; stroke-dasharray: 1.85,0.8; stroke-dashoffset: 0; stroke: #b0b0b0; stroke-opacity: 0.8; stroke-width: 0.5"/>
     </g>
     <g id="line2d_138">
      <g>
       <use xlink:href="#mcf41c2a3f2" x="105.584375" y="113.779482" style="stroke: #000000; stroke-width: 0.6"/>
      </g>
     </g>
    </g>
    <g id="ytick_30">
     <g id="line2d_139">
      <path d="M 105.584375 99.464689 
L 775.184375 99.464689 
" clip-path="url(#p7c986f7a18)" style="fill: none; stroke-dasharray: 1.85,0.8; stroke-dashoffset: 0; stroke: #b0b0b0; stroke-opacity: 0.8; stroke-width: 0.5"/>
     </g>
     <g id="line2d_140">
      <g>
       <use xlink:href="#mcf41c2a3f2" x="105.584375" y="99.464689" style="stroke: #000000; stroke-width: 0.6"/>
      </g>
     </g>
    </g>
    <g id="ytick_31">
     <g id="line2d_141">
      <path d="M 105.584375 70.835104 
L 775.184375 70.835104 
" clip-path="url(#p7c986f7a18)" style="fill: none; stroke-dasharray: 1.85,0.8; stroke-dashoffset: 0; stroke: #b0b0b0; stroke-opacity: 0.8; stroke-width: 0.5"/>
     </g>
     <g id="line2d_142">
      <g>
       <use xlink:href="#mcf41c2a3f2" x="105.584375" y="70.835104" style="stroke: #000000; stroke-width: 0.6"/>
      </g>
     </g>
    </g>
    <g id="text_18">
     <!-- Efficiency (%) -->
     <g transform="translate(49.221875 335.120625) rotate(-90) scale(0.2 -0.2)">
      <defs>
       <path id="AptosDisplay-45" d="M 472 0 
L 472 4206 
L 3153 4206 
L 3153 3738 
L 1034 3738 
L 1034 2397 
L 2984 2397 
L 2984 1934 
L 1034 1934 
L 1034 469 
L 3153 469 
L 3153 0 
L 472 0 
z
" transform="scale(0.015625)"/>
       <path id="AptosDisplay-66" d="M 550 0 
L 550 2622 
L 44 2622 
L 44 3044 
L 550 3044 
L 550 3219 
Q 550 3453 589 3636 
Q 628 3819 728 3947 
Q 828 4075 1004 4140 
Q 1181 4206 1463 4206 
L 1781 4206 
L 1781 3797 
L 1494 3797 
Q 1219 3797 1145 3645 
Q 1072 3494 1072 3209 
L 1072 3044 
L 1775 3044 
L 1775 2622 
L 1072 2622 
L 1072 0 
L 550 0 
z
" transform="scale(0.015625)"/>
       <path id="AptosDisplay-63" d="M 1634 -53 
Q 1234 -53 925 122 
Q 616 297 441 645 
Q 266 994 266 1513 
Q 266 2031 437 2384 
Q 609 2738 917 2916 
Q 1225 3094 1634 3094 
Q 1978 3094 2251 2978 
Q 2525 2863 2689 2630 
Q 2853 2397 2866 2041 
L 2350 2041 
Q 2328 2334 2139 2503 
Q 1950 2672 1644 2672 
Q 1228 2672 1015 2367 
Q 803 2063 803 1513 
Q 803 1150 897 894 
Q 991 638 1178 503 
Q 1366 369 1644 369 
Q 1956 369 2159 541 
Q 2363 713 2372 1047 
L 2884 1047 
Q 2878 681 2711 436 
Q 2544 191 2264 69 
Q 1984 -53 1634 -53 
z
" transform="scale(0.015625)"/>
       <path id="AptosDisplay-6e" d="M 413 0 
L 413 3044 
L 919 3044 
L 931 2575 
Q 1066 2756 1316 2914 
Q 1566 3072 1941 3072 
Q 2428 3072 2637 2781 
Q 2847 2491 2847 1963 
L 2847 0 
L 2328 0 
L 2328 1891 
Q 2328 2106 2286 2275 
Q 2244 2444 2133 2539 
Q 2022 2634 1816 2634 
Q 1500 2634 1283 2482 
Q 1066 2331 934 2156 
L 934 0 
L 413 0 
z
" transform="scale(0.015625)"/>
       <path id="AptosDisplay-79" d="M 266 -1128 
L 266 -697 
L 525 -697 
Q 716 -697 831 -598 
Q 947 -500 1038 -275 
L 1153 0 
L -13 3044 
L 538 3044 
L 1428 553 
L 2250 3044 
L 2781 3044 
L 1688 0 
L 1550 -356 
Q 1441 -647 1314 -815 
Q 1188 -984 1013 -1056 
Q 838 -1128 578 -1128 
L 266 -1128 
z
" transform="scale(0.015625)"/>
       <path id="AptosDisplay-25" d="M 1188 0 
L 3669 4078 
L 4094 4078 
L 1613 0 
L 1188 0 
z
M 1197 1606 
Q 878 1606 679 1765 
Q 481 1925 390 2209 
Q 300 2494 300 2872 
Q 300 3253 390 3536 
Q 481 3819 679 3976 
Q 878 4134 1197 4134 
Q 1519 4134 1716 3976 
Q 1913 3819 2005 3536 
Q 2097 3253 2097 2872 
Q 2097 2494 2005 2209 
Q 1913 1925 1714 1765 
Q 1516 1606 1197 1606 
z
M 1197 1953 
Q 1391 1953 1498 2084 
Q 1606 2216 1648 2425 
Q 1691 2634 1691 2872 
Q 1691 3109 1648 3318 
Q 1606 3528 1498 3658 
Q 1391 3788 1197 3788 
Q 1006 3788 898 3658 
Q 791 3528 748 3318 
Q 706 3109 706 2872 
Q 706 2634 748 2425 
Q 791 2216 898 2084 
Q 1006 1953 1197 1953 
z
M 4084 -53 
Q 3769 -53 3570 105 
Q 3372 263 3281 547 
Q 3191 831 3191 1209 
Q 3191 1591 3281 1873 
Q 3372 2156 3570 2314 
Q 3769 2472 4084 2472 
Q 4406 2472 4604 2315 
Q 4803 2159 4893 1875 
Q 4984 1591 4984 1209 
Q 4984 831 4893 547 
Q 4803 263 4604 105 
Q 4406 -53 4084 -53 
z
M 4084 294 
Q 4281 294 4387 423 
Q 4494 553 4536 761 
Q 4578 969 4578 1209 
Q 4578 1447 4536 1656 
Q 4494 1866 4387 1994 
Q 4281 2122 4084 2122 
Q 3894 2122 3787 1994 
Q 3681 1866 3639 1656 
Q 3597 1447 3597 1209 
Q 3597 969 3639 761 
Q 3681 553 3787 423 
Q 3894 294 4084 294 
z
" transform="scale(0.015625)"/>
      </defs>
      <use xlink:href="#AptosDisplay-45"/>
      <use xlink:href="#AptosDisplay-66" x="54.052734"/>
      <use xlink:href="#AptosDisplay-66" x="82.373047"/>
      <use xlink:href="#AptosDisplay-69" x="110.693359"/>
      <use xlink:href="#AptosDisplay-63" x="131.738281"/>
      <use xlink:href="#AptosDisplay-69" x="181.005859"/>
      <use xlink:href="#AptosDisplay-65" x="202.050781"/>
      <use xlink:href="#AptosDisplay-6e" x="251.464844"/>
      <use xlink:href="#AptosDisplay-63" x="302.050781"/>
      <use xlink:href="#AptosDisplay-79" x="351.318359"/>
      <use xlink:href="#AptosDisplay-20" x="394.580078"/>
      <use xlink:href="#AptosDisplay-28" x="413.867188"/>
      <use xlink:href="#AptosDisplay-25" x="443.310547"/>
      <use xlink:href="#AptosDisplay-29" x="525.830078"/>
     </g>
    </g>
   </g>
   <g id="line2d_143">
    <path d="M 136.020739 472.842204 
L 136.679083 77.9925 
L 137.340736 445.405518 
L 138.002389 448.525409 
L 138.664042 450.727684 
L 139.325695 455.425873 
L 139.987348 457.334512 
L 140.649001 460.515577 
L 141.310653 461.854973 
L 141.972306 464.15108 
L 142.633959 466.877707 
L 143.295612 467.641163 
L 143.957265 471.187537 
L 144.618918 468.581849 
L 145.280571 472.491351 
L 145.942224 474.035104 
L 146.603877 475.977033 
L 147.265529 476.982267 
L 147.927182 478.941746 
L 148.588835 480.141131 
L 149.250488 479.96112 
L 149.912141 480.324937 
L 151.235447 480.54769 
L 151.8971 480.397234 
L 153.220405 480.397234 
L 153.882058 480.160803 
L 154.543711 477.84526 
L 155.205364 477.425449 
L 155.867017 479.393373 
L 157.190323 480.409103 
L 157.851976 479.393373 
L 158.513629 479.891155 
L 159.175281 479.023592 
L 160.498587 480.23818 
L 161.821893 480.155196 
L 162.483546 479.554489 
L 163.806852 479.648748 
L 164.468505 479.554489 
L 165.130157 480.155196 
L 165.79181 479.86271 
L 166.453463 478.910432 
L 167.115116 479.554489 
L 167.776769 480.490794 
L 168.438422 480.8905 
L 169.100075 480.690227 
L 170.423381 479.254038 
L 171.085033 479.393373 
L 171.746686 479.829186 
L 172.408339 479.14753 
L 173.069992 480.23818 
L 173.731645 479.891155 
L 174.393298 479.14753 
L 175.054951 478.806701 
L 175.716604 479.915594 
L 176.378256 479.554489 
L 177.701562 479.554489 
L 178.363215 479.14753 
L 179.024868 480.722061 
L 179.686521 479.797725 
L 180.348174 479.740275 
L 181.009827 476.420902 
L 182.333132 478.924036 
L 182.994785 479.96112 
L 183.656438 480.409103 
L 184.318091 480.324937 
L 184.979744 478.329541 
L 185.641397 479.393373 
L 186.30305 479.915594 
L 186.964703 478.575817 
L 187.626356 479.393373 
L 188.288008 479.601967 
L 188.949661 480.54769 
L 189.611314 480.23818 
L 190.272967 479.499352 
L 190.93462 479.601967 
L 191.596273 477.516023 
L 192.257926 478.429996 
L 192.919579 479.96112 
L 193.581232 479.761021 
L 194.242884 478.359364 
L 194.904537 479.981796 
L 195.56619 480.23818 
L 196.227843 479.51236 
L 196.889496 477.985361 
L 197.551149 478.806701 
L 198.212802 480.490794 
L 198.874455 479.86271 
L 199.536108 478.924036 
L 200.19776 479.981796 
L 200.859413 480.409103 
L 201.521066 480.069771 
L 202.186027 480.825454 
L 202.84768 480.397234 
L 203.509333 479.51236 
L 204.170986 480.318827 
L 205.494292 479.981796 
L 206.155945 479.204334 
L 207.47925 479.891155 
L 208.140903 479.170637 
L 208.802556 480.397234 
L 209.464209 478.156029 
L 210.125862 480.397234 
L 210.787515 480.473492 
L 211.449168 479.127182 
L 212.110821 479.86271 
L 212.772474 479.283861 
L 213.434126 480.155196 
L 214.095779 478.910432 
L 214.757432 478.806701 
L 215.419085 479.023592 
L 216.080738 475.918629 
L 216.742391 478.429996 
L 217.404044 480.422887 
L 218.065697 480.409103 
L 218.72735 481.066932 
L 219.389002 480.758718 
L 220.050655 480.8905 
L 221.373961 480.318827 
L 222.035614 478.602204 
L 222.697267 480.155196 
L 223.35892 479.981796 
L 224.020573 480.473492 
L 224.682226 479.325353 
L 225.343878 479.981796 
L 226.005531 480.397234 
L 226.667184 478.329541 
L 227.328837 480.647175 
L 227.99049 480.23818 
L 229.313796 480.619908 
L 229.975449 479.797725 
L 230.637102 480.23818 
L 231.298754 478.359364 
L 231.960407 476.95108 
L 232.62206 479.499352 
L 233.283713 479.96112 
L 233.945366 479.981796 
L 234.607019 479.037585 
L 235.268672 480.324937 
L 235.930325 480.54769 
L 236.591977 480.619908 
L 237.25363 480.473492 
L 238.576936 478.806701 
L 239.238589 480.397234 
L 239.900242 480.155196 
L 240.561895 480.081306 
L 241.223548 478.699874 
L 241.885201 478.200142 
L 242.546853 477.927723 
L 243.208506 480.148713 
L 243.870159 480.324937 
L 244.531812 479.86271 
L 245.193465 479.648748 
L 245.855118 479.829186 
L 246.516771 479.457374 
L 247.178424 477.852382 
L 247.840077 478.454698 
L 248.501729 476.923176 
L 249.163382 477.114953 
L 249.825035 475.657447 
L 250.486688 478.011435 
L 251.809994 480.59605 
L 252.471647 480.722061 
L 253.1333 480.647175 
L 254.456605 479.457374 
L 255.118258 479.740275 
L 255.779911 478.58981 
L 256.441564 478.11405 
L 257.103217 476.761731 
L 257.76487 479.547122 
L 258.426523 479.07179 
L 259.088176 479.037585 
L 261.073134 480.825454 
L 262.39644 478.806701 
L 263.058093 478.58981 
L 263.719746 479.601967 
L 264.381399 480.069771 
L 265.704705 480.690227 
L 266.366357 480.397234 
L 267.02801 478.916815 
L 267.689663 479.981796 
L 268.351316 479.797725 
L 269.012969 480.758718 
L 269.674622 480.23818 
L 270.336275 478.705893 
L 270.997928 479.891155 
L 272.321233 479.797725 
L 272.982886 480.155196 
L 273.644539 480.23818 
L 274.306192 479.797725 
L 275.629498 480.155196 
L 276.291151 480.318827 
L 277.614456 480.318827 
L 278.276109 480.690227 
L 278.937762 479.891155 
L 280.261068 480.318827 
L 280.922721 479.393373 
L 282.246027 480.473492 
L 282.90768 479.915594 
L 283.569332 478.613258 
L 284.230985 480.069771 
L 284.892638 479.797725 
L 285.554291 479.981796 
L 286.215944 480.397234 
L 286.877597 480.155196 
L 287.53925 480.59605 
L 288.200903 480.23818 
L 288.862556 480.8905 
L 290.185861 475.739246 
L 290.847514 478.806701 
L 291.509167 479.037585 
L 292.17082 480.409103 
L 292.832473 480.23818 
L 293.494126 479.797725 
L 294.155779 480.619908 
L 294.817432 479.127182 
L 295.479084 479.283861 
L 296.140737 479.797725 
L 296.80239 478.806701 
L 297.464043 480.318827 
L 298.125696 477.516023 
L 298.787349 479.761021 
L 299.449002 480.619908 
L 300.110655 479.227725 
L 300.772308 479.891155 
L 301.43396 479.393373 
L 302.095613 479.109126 
L 302.757266 476.420902 
L 303.418919 476.95108 
L 305.403878 475.383599 
L 306.065531 477.017352 
L 306.727184 477.543631 
L 307.388836 479.547122 
L 308.050489 480.422887 
L 308.712142 479.601967 
L 309.373795 478.429996 
L 310.035448 479.023592 
L 310.697101 478.454698 
L 311.358754 480.409103 
L 312.020407 480.069771 
L 312.68206 480.318827 
L 313.343712 480.758718 
L 314.005365 480.54769 
L 314.667018 479.829186 
L 315.328671 478.916815 
L 315.990324 480.397234 
L 316.651977 480.069771 
L 317.31363 479.387031 
L 317.975283 478.49551 
L 318.636935 475.890725 
L 319.298588 479.393373 
L 319.960241 479.434543 
L 320.621894 480.397234 
L 321.283547 479.829186 
L 321.9452 480.473492 
L 323.268506 480.318827 
L 323.930159 479.053508 
L 325.253464 477.375222 
L 325.915117 477.375222 
L 326.57677 477.927723 
L 327.238423 477.927723 
L 327.900076 479.797725 
L 328.561729 479.761021 
L 329.223382 479.915594 
L 329.885035 479.14753 
L 330.546687 480.409103 
L 331.20834 480.318827 
L 333.193299 478.359364 
L 335.839911 479.14753 
L 336.501563 479.981796 
L 337.163216 479.499352 
L 337.824869 478.385678 
L 338.486522 477.572667 
L 339.148175 477.375222 
L 339.809828 480.23818 
L 340.471481 480.490794 
L 341.133134 480.324937 
L 341.794787 479.14753 
L 342.456439 480.758718 
L 343.118092 480.015093 
L 344.441398 479.170637 
L 345.103051 479.053508 
L 345.764704 480.069771 
L 346.426357 480.397234 
L 347.08801 480.069771 
L 347.749663 479.936816 
L 348.411315 480.473492 
L 349.072968 480.069771 
L 349.734621 480.069771 
L 350.396274 479.68912 
L 351.057927 479.51236 
L 351.71958 480.318827 
L 352.381233 480.318827 
L 353.042886 479.499352 
L 353.704539 478.904748 
L 354.366191 479.797725 
L 355.027844 480.23818 
L 355.689497 479.856453 
L 356.35115 479.981796 
L 357.012803 480.397234 
L 357.674456 479.393373 
L 358.336109 478.156029 
L 358.997762 479.393373 
L 359.659415 480.155196 
L 360.321067 480.155196 
L 360.98272 480.397234 
L 361.644373 479.891155 
L 362.306026 479.981796 
L 362.967679 479.023592 
L 363.629332 480.473492 
L 364.290985 479.499352 
L 364.952638 479.797725 
L 365.61429 478.806701 
L 366.275943 478.575817 
L 366.937596 478.916815 
L 367.599249 476.091827 
L 368.260902 478.156029 
L 368.922555 479.434543 
L 369.584208 478.575817 
L 370.245861 480.722061 
L 370.907514 480.409103 
L 371.569166 479.797725 
L 372.230819 478.066281 
L 372.892472 480.490794 
L 373.554125 480.570118 
L 374.877431 480.23818 
L 375.539084 480.619908 
L 376.200737 478.699874 
L 376.86239 477.425449 
L 377.524042 479.170637 
L 378.185695 480.490794 
L 378.847348 480.324937 
L 379.509001 479.283861 
L 380.170654 477.595449 
L 380.832307 476.420902 
L 381.49396 476.230038 
L 382.817266 479.197105 
L 383.478918 480.141131 
L 384.802224 480.409103 
L 385.463877 479.891155 
L 386.12553 478.238654 
L 386.787183 479.023592 
L 387.448836 480.23818 
L 388.110489 480.318827 
L 388.772142 480.069771 
L 389.437103 479.554489 
L 390.760408 479.797725 
L 391.422061 480.318827 
L 392.083714 479.981796 
L 392.745367 479.915594 
L 393.40702 476.58544 
L 394.068673 477.425449 
L 394.730326 477.079054 
L 395.391979 477.154994 
L 396.053632 479.499352 
L 396.715284 479.547122 
L 397.376937 479.891155 
L 398.03859 479.829186 
L 398.700243 480.409103 
L 399.361896 478.47636 
L 400.023549 479.740275 
L 400.685202 479.011198 
L 401.346855 479.35727 
L 402.008508 480.324937 
L 402.67016 479.797725 
L 403.331813 480.619908 
L 403.993466 479.797725 
L 404.655119 479.68912 
L 405.316772 477.784216 
L 405.978425 478.066281 
L 406.640078 477.784216 
L 407.301731 479.797725 
L 407.963384 478.58981 
L 408.625036 480.794867 
L 409.286689 481.066932 
L 410.609995 480.397234 
L 411.271648 478.329541 
L 411.933301 479.740275 
L 412.594954 479.023592 
L 413.256607 480.069771 
L 413.91826 478.385678 
L 414.579912 479.420192 
L 415.241565 479.127182 
L 415.903218 480.397234 
L 416.564871 479.393373 
L 417.226524 480.015093 
L 417.888177 480.473492 
L 419.211483 480.069771 
L 419.873135 478.49551 
L 420.534788 479.457374 
L 421.196441 479.797725 
L 421.858094 480.318827 
L 422.519747 479.981796 
L 423.1814 479.420192 
L 423.843053 479.797725 
L 424.504706 479.797725 
L 425.166359 480.690227 
L 425.828011 480.397234 
L 426.489664 479.420192 
L 427.151317 478.011435 
L 427.81297 477.516023 
L 428.474623 475.447107 
L 429.136276 478.401566 
L 429.797929 480.040735 
L 430.459582 479.655884 
L 431.121235 479.037585 
L 431.782887 479.393373 
L 432.44454 480.324937 
L 433.106193 480.23818 
L 433.767846 480.397234 
L 434.429499 480.8905 
L 435.091152 480.54769 
L 435.752805 478.711269 
L 436.414458 480.758718 
L 437.076111 479.420192 
L 437.737763 478.806701 
L 438.399416 476.923176 
L 439.061069 477.321204 
L 439.722722 477.481257 
L 440.384375 478.676567 
L 441.046028 477.079054 
L 441.707681 478.676567 
L 442.369334 474.86283 
L 443.030987 475.228003 
L 443.692639 477.543631 
L 444.354292 476.230038 
L 445.015945 477.705563 
L 445.677598 478.806701 
L 446.339251 480.23818 
L 447.000904 480.148713 
L 447.662557 480.865678 
L 448.32421 480.069771 
L 448.985863 480.23818 
L 449.647515 479.011198 
L 450.309168 480.647175 
L 450.970821 479.797725 
L 451.632474 480.473492 
L 452.294127 478.47636 
L 452.95578 480.069771 
L 453.617433 480.690227 
L 454.279086 480.95392 
L 454.940739 480.23818 
L 455.602391 480.386906 
L 456.264044 476.744401 
L 456.925697 477.714895 
L 457.58735 479.037585 
L 458.249003 476.781023 
L 458.910656 479.053508 
L 460.233962 480.647175 
L 460.895615 479.701376 
L 461.557267 480.397234 
L 462.21892 478.272567 
L 462.880573 480.722061 
L 463.542226 480.069771 
L 464.203879 480.458408 
L 464.865532 477.912027 
L 465.527185 477.272973 
L 466.188838 479.499352 
L 466.85049 480.324937 
L 467.512143 480.23818 
L 468.173796 478.47636 
L 468.835449 479.023592 
L 469.497102 480.647175 
L 470.158755 480.069771 
L 470.820408 480.386906 
L 471.482061 478.238654 
L 472.143714 478.329541 
L 472.805366 478.200142 
L 474.128672 478.559894 
L 474.790325 476.761731 
L 475.451978 473.239837 
L 476.113631 475.383599 
L 476.775284 477.017352 
L 478.09859 479.317944 
L 478.760242 479.829186 
L 480.083548 479.891155 
L 480.745201 479.554489 
L 481.406854 478.359364 
L 482.068507 479.648748 
L 482.73016 478.11405 
L 483.391813 478.685389 
L 484.053466 478.910432 
L 484.715118 480.155196 
L 485.376771 480.619908 
L 486.038424 480.155196 
L 486.700077 479.325353 
L 488.023383 480.069771 
L 488.685036 479.601967 
L 489.346689 479.457374 
L 490.008342 480.397234 
L 490.669994 479.936816 
L 491.331647 479.999601 
L 491.9933 479.701376 
L 492.654953 480.397234 
L 493.316606 480.069771 
L 493.978259 479.023592 
L 494.639912 477.652282 
L 495.301565 478.329541 
L 495.963218 478.685389 
L 496.62487 479.197105 
L 497.286523 477.912027 
L 497.948176 479.797725 
L 498.609829 479.86271 
L 499.271482 480.155196 
L 499.933135 480.23818 
L 500.594788 480.155196 
L 501.256441 479.420192 
L 501.918094 478.916815 
L 502.579746 480.069771 
L 503.241399 479.283861 
L 503.903052 479.227725 
L 504.564705 479.023592 
L 505.226358 480.318827 
L 505.888011 480.155196 
L 506.549664 479.227725 
L 507.211317 480.069771 
L 507.872969 480.318827 
L 508.534622 480.069771 
L 509.196275 479.092997 
L 509.857928 480.318827 
L 510.519581 479.981796 
L 511.181234 480.091362 
L 511.842887 480.069771 
L 512.50454 480.473492 
L 513.827845 480.397234 
L 514.489498 480.619908 
L 515.812804 479.560111 
L 517.13611 476.420902 
L 517.797763 479.037585 
L 518.459416 479.254038 
L 519.121069 480.570118 
L 519.782721 478.329541 
L 520.444374 479.701376 
L 521.106027 479.981796 
L 521.76768 479.891155 
L 522.429333 480.825454 
L 523.090986 480.473492 
L 523.752639 479.420192 
L 524.414292 479.011198 
L 525.075945 479.68912 
L 525.737597 478.575817 
L 526.39925 480.722061 
L 527.060903 480.23818 
L 527.722556 479.981796 
L 528.384209 480.069771 
L 529.045862 477.927723 
L 529.707515 479.96112 
L 530.369168 480.23818 
L 531.030821 479.891155 
L 531.692473 480.318827 
L 532.354126 478.11405 
L 533.015779 477.714895 
L 535.662391 479.981796 
L 536.324044 478.454698 
L 536.985697 480.722061 
L 537.647349 480.647175 
L 538.309002 480.155196 
L 538.970655 480.23818 
L 539.632308 480.155196 
L 540.293961 479.829186 
L 540.955614 477.714895 
L 542.27892 478.011435 
L 542.940573 477.927723 
L 543.602225 479.393373 
L 544.263878 480.141131 
L 544.925531 480.409103 
L 545.587184 480.324937 
L 546.248837 480.397234 
L 546.91049 477.272973 
L 547.572143 476.95108 
L 548.233796 479.283861 
L 548.895448 480.490794 
L 550.218754 479.68912 
L 550.880407 477.425449 
L 551.54206 477.229648 
L 552.203713 479.499352 
L 552.865366 479.86271 
L 553.527019 480.722061 
L 554.188672 480.23818 
L 554.850324 479.35727 
L 555.511977 479.35727 
L 556.17363 480.23818 
L 556.835283 480.318827 
L 557.496936 480.54769 
L 558.158589 480.318827 
L 558.820242 479.000144 
L 559.481895 479.915594 
L 560.143548 479.393373 
L 560.8052 480.069771 
L 561.466853 480.23818 
L 562.128506 480.23818 
L 562.790159 479.68912 
L 563.451812 479.648748 
L 564.113465 480.23818 
L 564.775118 478.602204 
L 565.436771 479.829186 
L 566.098424 479.891155 
L 566.760076 480.23818 
L 567.421729 479.554489 
L 568.083382 479.393373 
L 568.745035 478.454698 
L 569.406688 477.784216 
L 570.729994 477.321204 
L 571.391647 478.541612 
L 572.0533 478.295459 
L 572.714952 479.053508 
L 573.376605 478.454698 
L 574.038258 479.86271 
L 574.699911 480.23818 
L 575.364872 479.981796 
L 576.023217 478.916815 
L 576.688178 479.891155 
L 577.349831 480.155196 
L 578.011484 479.393373 
L 578.673137 479.68912 
L 579.33479 479.325353 
L 579.996442 480.473492 
L 580.658095 479.393373 
L 581.319748 479.68912 
L 581.981401 480.155196 
L 583.304707 479.51236 
L 583.96636 479.170637 
L 584.628013 479.170637 
L 585.289666 480.318827 
L 585.951318 479.891155 
L 587.274624 477.784216 
L 588.59793 479.197105 
L 589.259583 478.295459 
L 589.921236 479.761021 
L 590.582889 479.761021 
L 591.244542 480.069771 
L 591.906194 480.722061 
L 593.891153 478.329541 
L 594.552806 478.916815 
L 595.214459 480.409103 
L 595.876112 479.053508 
L 596.537765 479.891155 
L 597.199418 477.425449 
L 597.86107 476.761731 
L 598.522723 478.685389 
L 599.184376 477.425449 
L 599.846029 478.806701 
L 600.507682 478.541612 
L 601.169335 479.14753 
L 601.830988 479.127182 
L 602.492641 480.570118 
L 603.154294 478.575817 
L 603.815946 480.23818 
L 604.477599 480.490794 
L 605.800905 479.891155 
L 606.462558 480.155196 
L 607.124211 476.58544 
L 608.447517 478.156029 
L 609.109169 477.114953 
L 610.432475 480.422887 
L 611.094128 480.409103 
L 611.755781 480.056405 
L 612.417434 479.891155 
L 613.079087 478.272567 
L 613.74074 480.155196 
L 614.402393 478.156029 
L 615.064045 481.1925 
L 616.387351 479.283861 
L 617.049004 479.420192 
L 617.710657 479.891155 
L 618.37231 478.429996 
L 619.033963 480.056405 
L 619.695616 480.155196 
L 620.357269 479.981796 
L 621.018921 479.254038 
L 621.680574 477.912027 
L 622.342227 480.056405 
L 623.00388 478.429996 
L 623.665533 479.254038 
L 624.327186 478.806701 
L 624.988839 479.554489 
L 625.650492 479.891155 
L 626.312145 478.58981 
L 626.973797 480.056405 
L 627.63545 480.570118 
L 628.297103 480.318827 
L 628.958756 479.701376 
L 629.620409 479.915594 
L 630.282062 479.35727 
L 630.943715 480.647175 
L 631.605368 479.037585 
L 632.267021 478.699874 
L 632.928673 477.079054 
L 633.590326 476.615661 
L 634.251979 478.104996 
L 634.913632 477.861385 
L 635.575285 479.717643 
L 636.236938 479.96112 
L 636.898591 479.86271 
L 637.560244 480.324937 
L 638.221897 479.797725 
L 639.545202 480.397234 
L 640.206855 480.23818 
L 640.868508 477.784216 
L 641.530161 478.359364 
L 642.191814 476.420902 
L 644.176773 479.197105 
L 644.838425 479.35727 
L 645.500078 478.676567 
L 646.161731 479.393373 
L 646.823384 479.197105 
L 647.485037 478.559894 
L 648.14669 479.023592 
L 648.808343 479.740275 
L 649.469996 478.575817 
L 650.131648 480.23818 
L 650.793301 479.981796 
L 651.454954 479.393373 
L 652.116607 479.51236 
L 652.77826 479.891155 
L 653.439913 480.409103 
L 654.101566 479.761021 
L 654.763219 478.916815 
L 655.424872 478.693092 
L 656.086524 480.570118 
L 657.40983 479.797725 
L 658.071483 479.420192 
L 658.733136 479.499352 
L 659.394789 479.96112 
L 660.056442 478.916815 
L 660.718095 480.794867 
L 661.379748 478.272567 
L 662.0414 478.238654 
L 662.703053 477.272973 
L 663.364706 479.317944 
L 664.026359 479.96112 
L 664.688012 479.655884 
L 665.349665 479.127182 
L 666.011318 480.324937 
L 666.672971 480.409103 
L 667.334624 480.865678 
L 667.996276 479.797725 
L 668.657929 478.49551 
L 669.319582 477.985361 
L 669.981235 476.95108 
L 670.642888 479.655884 
L 671.304541 479.86271 
L 671.966194 481.001636 
L 673.2895 480.23818 
L 674.612805 476.240842 
L 675.274458 478.685389 
L 675.936111 479.601967 
L 676.597764 479.86271 
L 677.259417 476.80263 
L 677.92107 479.35727 
L 678.582723 481.066932 
L 679.244376 480.155196 
L 679.906028 480.397234 
L 680.567681 478.916815 
L 681.229334 480.409103 
L 682.55264 479.981796 
L 683.214293 478.329541 
L 683.875946 478.806701 
L 684.537599 477.927723 
L 685.199252 478.11405 
L 685.860904 476.420902 
L 686.522557 475.608716 
L 687.18421 478.156029 
L 687.845863 479.197105 
L 688.507516 479.936816 
L 689.169169 479.96112 
L 689.830822 480.23818 
L 690.492475 480.155196 
L 692.477433 479.325353 
L 693.139086 479.701376 
L 693.800739 479.037585 
L 694.462392 479.96112 
L 695.785698 479.891155 
L 696.447351 480.95392 
L 697.109003 479.891155 
L 697.770656 479.891155 
L 698.432309 479.701376 
L 699.093962 480.313521 
L 699.755615 478.454698 
L 700.417268 480.069771 
L 701.078921 479.829186 
L 701.740574 478.575817 
L 703.063879 480.619908 
L 703.725532 479.601967 
L 704.387185 479.999601 
L 705.048838 478.705893 
L 705.710491 480.473492 
L 707.033797 480.069771 
L 707.69545 479.037585 
L 708.357103 478.910432 
L 709.018755 476.761731 
L 710.342061 477.784216 
L 711.003714 476.420902 
L 711.665367 478.429996 
L 712.32702 479.547122 
L 712.988673 479.434543 
L 713.650326 480.148713 
L 714.311979 480.690227 
L 714.973631 479.891155 
L 715.635284 479.457374 
L 716.296937 479.915594 
L 716.95859 478.11405 
L 717.620243 478.359364 
L 718.281896 477.079054 
L 718.943549 478.93227 
L 719.605202 479.86271 
L 720.266855 480.148713 
L 720.928507 480.570118 
L 721.59016 479.601967 
L 722.251813 479.420192 
L 723.575119 479.86271 
L 724.236772 478.035905 
L 724.898425 479.797725 
L 725.560078 479.797725 
L 726.221731 480.069771 
L 727.545036 480.069771 
L 728.206689 480.825454 
L 728.868342 480.23818 
L 729.529995 479.227725 
L 730.191648 479.601967 
L 730.853301 479.601967 
L 731.514954 479.891155 
L 732.176607 479.981796 
L 732.838259 480.825454 
L 736.146524 478.806701 
L 736.808177 479.797725 
L 737.46983 480.056405 
L 738.131482 479.891155 
L 738.793135 479.891155 
L 739.454788 480.690227 
L 740.116441 480.8905 
L 740.778094 480.155196 
L 741.439747 479.68912 
L 742.1014 478.156029 
L 742.763053 477.705563 
L 743.424706 479.655884 
L 744.748011 480.148713 
L 744.748011 480.148713 
" clip-path="url(#p7c986f7a18)" style="fill: none; stroke: #ac2b37; stroke-width: 1.5; stroke-linecap: square"/>
   </g>
   <g id="patch_3">
    <path d="M 105.584375 501.3525 
L 105.584375 57.8325 
" style="fill: none; stroke: #000000; stroke-width: 0.8; stroke-linejoin: miter; stroke-linecap: square"/>
   </g>
   <g id="patch_4">
    <path d="M 775.184375 501.3525 
L 775.184375 57.8325 
" style="fill: none; stroke: #000000; stroke-width: 0.8; stroke-linejoin: miter; stroke-linecap: square"/>
   </g>
   <g id="patch_5">
    <path d="M 105.584375 501.3525 
L 775.184375 501.3525 
" style="fill: none; stroke: #000000; stroke-width: 0.8; stroke-linejoin: miter; stroke-linecap: square"/>
   </g>
   <g id="patch_6">
    <path d="M 105.584375 57.8325 
L 775.184375 57.8325 
" style="fill: none; stroke: #000000; stroke-width: 0.8; stroke-linejoin: miter; stroke-linecap: square"/>
   </g>
   <g id="text_19">
    <!-- Efficiency vs Time -->
    <g transform="translate(353.8775 51.8325) scale(0.24 -0.24)">
     <defs>
      <path id="AptosDisplay-76" d="M 1103 0 
L -13 3044 
L 538 3044 
L 1391 513 
L 2250 3044 
L 2781 3044 
L 1678 0 
L 1103 0 
z
" transform="scale(0.015625)"/>
      <path id="AptosDisplay-73" d="M 1506 -41 
Q 1247 -41 1017 14 
Q 788 69 613 191 
Q 438 313 339 506 
Q 241 700 241 978 
L 744 978 
Q 744 628 966 487 
Q 1188 347 1519 347 
Q 1816 347 2008 458 
Q 2200 569 2200 822 
Q 2200 1047 2026 1153 
Q 1853 1259 1413 1369 
Q 1056 1453 815 1564 
Q 575 1675 453 1845 
Q 331 2016 331 2275 
Q 331 2475 417 2626 
Q 503 2778 658 2879 
Q 813 2981 1020 3032 
Q 1228 3084 1472 3084 
Q 1713 3084 1923 3028 
Q 2134 2972 2296 2855 
Q 2459 2738 2551 2552 
Q 2644 2366 2644 2109 
L 2138 2109 
Q 2138 2425 1945 2558 
Q 1753 2691 1472 2691 
Q 1191 2691 1016 2594 
Q 841 2497 841 2291 
Q 841 2169 919 2084 
Q 997 2000 1181 1933 
Q 1366 1866 1675 1791 
Q 2019 1709 2248 1596 
Q 2478 1484 2595 1306 
Q 2713 1128 2713 847 
Q 2713 616 2622 447 
Q 2531 278 2367 170 
Q 2203 63 1983 11 
Q 1763 -41 1506 -41 
z
" transform="scale(0.015625)"/>
     </defs>
     <use xlink:href="#AptosDisplay-45"/>
     <use xlink:href="#AptosDisplay-66" x="54.052734"/>
     <use xlink:href="#AptosDisplay-66" x="82.373047"/>
     <use xlink:href="#AptosDisplay-69" x="110.693359"/>
     <use xlink:href="#AptosDisplay-63" x="131.738281"/>
     <use xlink:href="#AptosDisplay-69" x="181.005859"/>
     <use xlink:href="#AptosDisplay-65" x="202.050781"/>
     <use xlink:href="#AptosDisplay-6e" x="251.464844"/>
     <use xlink:href="#AptosDisplay-63" x="302.050781"/>
     <use xlink:href="#AptosDisplay-79" x="351.318359"/>
     <use xlink:href="#AptosDisplay-20" x="394.580078"/>
     <use xlink:href="#AptosDisplay-76" x="413.867188"/>
     <use xlink:href="#AptosDisplay-73" x="457.128906"/>
     <use xlink:href="#AptosDisplay-20" x="503.417969"/>
     <use xlink:href="#AptosDisplay-54" x="522.705078"/>
     <use xlink:href="#AptosDisplay-69" x="570.410156"/>
     <use xlink:href="#AptosDisplay-6d" x="591.455078"/>
     <use xlink:href="#AptosDisplay-65" x="671.435547"/>
    </g>
   </g>
  </g>
 </g>
 <defs>
  <clipPath id="p7c986f7a18">
   <rect x="105.584375" y="57.8325" width="669.6" height="443.52"/>
  </clipPath>
 </defs>
</svg>
