<?xml version="1.0" encoding="utf-8" standalone="no"?>
<!DOCTYPE svg PUBLIC "-//W3C//DTD SVG 1.1//EN"
  "http://www.w3.org/Graphics/SVG/1.1/DTD/svg11.dtd">
<svg xmlns:xlink="http://www.w3.org/1999/xlink" width="800.88125pt" height="581.830625pt" viewBox="0 0 800.88125 581.830625" xmlns="http://www.w3.org/2000/svg" version="1.1">
 <metadata>
  <rdf:RDF xmlns:dc="http://purl.org/dc/elements/1.1/" xmlns:cc="http://creativecommons.org/ns#" xmlns:rdf="http://www.w3.org/1999/02/22-rdf-syntax-ns#">
   <cc:Work>
    <dc:type rdf:resource="http://purl.org/dc/dcmitype/StillImage"/>
    <dc:date>2025-04-03T01:48:29.643378</dc:date>
    <dc:format>image/svg+xml</dc:format>
    <dc:creator>
     <cc:Agent>
      <dc:title>Matplotlib v3.8.2, https://matplotlib.org/</dc:title>
     </cc:Agent>
    </dc:creator>
   </cc:Work>
  </rdf:RDF>
 </metadata>
 <defs>
  <style type="text/css">*{stroke-linejoin: round; stroke-linecap: butt}</style>
 </defs>
 <g id="figure_1">
  <g id="patch_1">
   <path d="M 0 581.830625 
L 800.88125 581.830625 
L 800.88125 0 
L 0 0 
z
" style="fill: #ffffff"/>
  </g>
  <g id="axes_1">
   <g id="patch_2">
    <path d="M 95.28125 501.3525 
L 764.88125 501.3525 
L 764.88125 57.8325 
L 95.28125 57.8325 
z
" style="fill: #ffffff"/>
   </g>
   <g id="matplotlib.axis_1">
    <g id="xtick_1">
     <g id="line2d_1">
      <path d="M 124.991342 501.3525 
L 124.991342 57.8325 
" clip-path="url(#p8550b3c3e9)" style="fill: none; stroke: #b0b0b0; stroke-opacity: 0.8; stroke-linecap: square"/>
     </g>
     <g id="line2d_2">
      <defs>
       <path id="mda488d262d" d="M 0 0 
L 0 3.5 
" style="stroke: #000000; stroke-width: 0.8"/>
      </defs>
      <g>
       <use xlink:href="#mda488d262d" x="124.991342" y="501.3525" style="stroke: #000000; stroke-width: 0.8"/>
      </g>
     </g>
     <g id="text_1">
      <!-- 0 -->
      <g transform="translate(119.761654 521.49625) scale(0.2 -0.2)">
       <defs>
        <path id="AptosDisplay-30" d="M 1672 -56 
Q 1291 -56 1028 105 
Q 766 266 605 552 
Q 444 838 372 1216 
Q 300 1594 300 2031 
Q 300 2475 372 2856 
Q 444 3238 605 3525 
Q 766 3813 1028 3973 
Q 1291 4134 1672 4134 
Q 2053 4134 2317 3975 
Q 2581 3816 2742 3527 
Q 2903 3238 2975 2858 
Q 3047 2478 3047 2038 
Q 3047 1597 2975 1217 
Q 2903 838 2742 552 
Q 2581 266 2318 105 
Q 2056 -56 1672 -56 
z
M 1672 409 
Q 1916 409 2073 550 
Q 2231 691 2322 925 
Q 2413 1159 2448 1448 
Q 2484 1738 2484 2038 
Q 2484 2338 2448 2628 
Q 2413 2919 2322 3153 
Q 2231 3388 2073 3527 
Q 1916 3666 1669 3666 
Q 1428 3666 1268 3527 
Q 1109 3388 1020 3153 
Q 931 2919 893 2628 
Q 856 2338 856 2038 
Q 856 1741 893 1450 
Q 931 1159 1020 925 
Q 1109 691 1268 550 
Q 1428 409 1672 409 
z
" transform="scale(0.015625)"/>
       </defs>
       <use xlink:href="#AptosDisplay-30"/>
      </g>
     </g>
    </g>
    <g id="xtick_2">
     <g id="line2d_3">
      <path d="M 209.441555 501.3525 
L 209.441555 57.8325 
" clip-path="url(#p8550b3c3e9)" style="fill: none; stroke: #b0b0b0; stroke-opacity: 0.8; stroke-linecap: square"/>
     </g>
     <g id="line2d_4">
      <g>
       <use xlink:href="#mda488d262d" x="209.441555" y="501.3525" style="stroke: #000000; stroke-width: 0.8"/>
      </g>
     </g>
     <g id="text_2">
      <!-- 25 -->
      <g transform="translate(198.98218 521.49625) scale(0.2 -0.2)">
       <defs>
        <path id="AptosDisplay-32" d="M 247 0 
L 247 413 
L 1725 1741 
Q 2100 2081 2269 2351 
Q 2438 2622 2438 2938 
Q 2438 3256 2263 3461 
Q 2088 3666 1691 3666 
Q 1247 3666 1055 3439 
Q 863 3213 863 2869 
L 341 2869 
Q 341 3250 491 3534 
Q 641 3819 941 3975 
Q 1241 4131 1691 4131 
Q 2103 4131 2390 3986 
Q 2678 3841 2828 3578 
Q 2978 3316 2978 2959 
Q 2978 2638 2853 2375 
Q 2728 2113 2517 1883 
Q 2306 1653 2044 1425 
L 959 463 
L 3097 463 
L 3097 0 
L 247 0 
z
" transform="scale(0.015625)"/>
        <path id="AptosDisplay-35" d="M 1669 -56 
Q 1278 -56 964 83 
Q 650 222 465 483 
Q 281 744 281 1113 
L 816 1113 
Q 816 778 1055 584 
Q 1294 391 1669 391 
Q 2069 391 2291 625 
Q 2513 859 2513 1319 
Q 2513 1772 2291 1989 
Q 2069 2206 1697 2206 
Q 1409 2206 1223 2123 
Q 1038 2041 916 1894 
L 444 1894 
L 622 4078 
L 2788 4078 
L 2788 3613 
L 1041 3613 
L 931 2322 
Q 1044 2453 1251 2550 
Q 1459 2647 1775 2647 
Q 2131 2647 2420 2506 
Q 2709 2366 2881 2072 
Q 3053 1778 3053 1319 
Q 3053 863 2875 558 
Q 2697 253 2384 98 
Q 2072 -56 1669 -56 
z
" transform="scale(0.015625)"/>
       </defs>
       <use xlink:href="#AptosDisplay-32"/>
       <use xlink:href="#AptosDisplay-35" x="52.294922"/>
      </g>
     </g>
    </g>
    <g id="xtick_3">
     <g id="line2d_5">
      <path d="M 293.891769 501.3525 
L 293.891769 57.8325 
" clip-path="url(#p8550b3c3e9)" style="fill: none; stroke: #b0b0b0; stroke-opacity: 0.8; stroke-linecap: square"/>
     </g>
     <g id="line2d_6">
      <g>
       <use xlink:href="#mda488d262d" x="293.891769" y="501.3525" style="stroke: #000000; stroke-width: 0.8"/>
      </g>
     </g>
     <g id="text_3">
      <!-- 50 -->
      <g transform="translate(283.432394 521.49625) scale(0.2 -0.2)">
       <use xlink:href="#AptosDisplay-35"/>
       <use xlink:href="#AptosDisplay-30" x="52.294922"/>
      </g>
     </g>
    </g>
    <g id="xtick_4">
     <g id="line2d_7">
      <path d="M 378.341982 501.3525 
L 378.341982 57.8325 
" clip-path="url(#p8550b3c3e9)" style="fill: none; stroke: #b0b0b0; stroke-opacity: 0.8; stroke-linecap: square"/>
     </g>
     <g id="line2d_8">
      <g>
       <use xlink:href="#mda488d262d" x="378.341982" y="501.3525" style="stroke: #000000; stroke-width: 0.8"/>
      </g>
     </g>
     <g id="text_4">
      <!-- 75 -->
      <g transform="translate(367.882607 521.49625) scale(0.2 -0.2)">
       <defs>
        <path id="AptosDisplay-37" d="M 766 0 
L 2609 3600 
L 194 3600 
L 194 4078 
L 3141 4078 
L 3141 3622 
L 1334 0 
L 766 0 
z
" transform="scale(0.015625)"/>
       </defs>
       <use xlink:href="#AptosDisplay-37"/>
       <use xlink:href="#AptosDisplay-35" x="52.294922"/>
      </g>
     </g>
    </g>
    <g id="xtick_5">
     <g id="line2d_9">
      <path d="M 462.792196 501.3525 
L 462.792196 57.8325 
" clip-path="url(#p8550b3c3e9)" style="fill: none; stroke: #b0b0b0; stroke-opacity: 0.8; stroke-linecap: square"/>
     </g>
     <g id="line2d_10">
      <g>
       <use xlink:href="#mda488d262d" x="462.792196" y="501.3525" style="stroke: #000000; stroke-width: 0.8"/>
      </g>
     </g>
     <g id="text_5">
      <!-- 100 -->
      <g transform="translate(447.103133 521.49625) scale(0.2 -0.2)">
       <defs>
        <path id="AptosDisplay-31" d="M 1659 0 
L 1659 3425 
Q 1575 3309 1420 3201 
Q 1266 3094 1052 3009 
Q 838 2925 578 2888 
L 578 3381 
Q 834 3425 1057 3540 
Q 1281 3656 1453 3806 
Q 1625 3956 1719 4094 
L 2206 4094 
L 2206 0 
L 1659 0 
z
" transform="scale(0.015625)"/>
       </defs>
       <use xlink:href="#AptosDisplay-31"/>
       <use xlink:href="#AptosDisplay-30" x="52.294922"/>
       <use xlink:href="#AptosDisplay-30" x="104.589844"/>
      </g>
     </g>
    </g>
    <g id="xtick_6">
     <g id="line2d_11">
      <path d="M 547.242409 501.3525 
L 547.242409 57.8325 
" clip-path="url(#p8550b3c3e9)" style="fill: none; stroke: #b0b0b0; stroke-opacity: 0.8; stroke-linecap: square"/>
     </g>
     <g id="line2d_12">
      <g>
       <use xlink:href="#mda488d262d" x="547.242409" y="501.3525" style="stroke: #000000; stroke-width: 0.8"/>
      </g>
     </g>
     <g id="text_6">
      <!-- 125 -->
      <g transform="translate(531.553347 521.49625) scale(0.2 -0.2)">
       <use xlink:href="#AptosDisplay-31"/>
       <use xlink:href="#AptosDisplay-32" x="52.294922"/>
       <use xlink:href="#AptosDisplay-35" x="104.589844"/>
      </g>
     </g>
    </g>
    <g id="xtick_7">
     <g id="line2d_13">
      <path d="M 631.692623 501.3525 
L 631.692623 57.8325 
" clip-path="url(#p8550b3c3e9)" style="fill: none; stroke: #b0b0b0; stroke-opacity: 0.8; stroke-linecap: square"/>
     </g>
     <g id="line2d_14">
      <g>
       <use xlink:href="#mda488d262d" x="631.692623" y="501.3525" style="stroke: #000000; stroke-width: 0.8"/>
      </g>
     </g>
     <g id="text_7">
      <!-- 150 -->
      <g transform="translate(616.00356 521.49625) scale(0.2 -0.2)">
       <use xlink:href="#AptosDisplay-31"/>
       <use xlink:href="#AptosDisplay-35" x="52.294922"/>
       <use xlink:href="#AptosDisplay-30" x="104.589844"/>
      </g>
     </g>
    </g>
    <g id="xtick_8">
     <g id="line2d_15">
      <path d="M 716.142836 501.3525 
L 716.142836 57.8325 
" clip-path="url(#p8550b3c3e9)" style="fill: none; stroke: #b0b0b0; stroke-opacity: 0.8; stroke-linecap: square"/>
     </g>
     <g id="line2d_16">
      <g>
       <use xlink:href="#mda488d262d" x="716.142836" y="501.3525" style="stroke: #000000; stroke-width: 0.8"/>
      </g>
     </g>
     <g id="text_8">
      <!-- 175 -->
      <g transform="translate(700.453774 521.49625) scale(0.2 -0.2)">
       <use xlink:href="#AptosDisplay-31"/>
       <use xlink:href="#AptosDisplay-37" x="52.294922"/>
       <use xlink:href="#AptosDisplay-35" x="104.589844"/>
      </g>
     </g>
    </g>
    <g id="xtick_9">
     <g id="line2d_17">
      <path d="M 108.101299 501.3525 
L 108.101299 57.8325 
" clip-path="url(#p8550b3c3e9)" style="fill: none; stroke-dasharray: 1.85,0.8; stroke-dashoffset: 0; stroke: #b0b0b0; stroke-opacity: 0.8; stroke-width: 0.5"/>
     </g>
     <g id="line2d_18">
      <defs>
       <path id="m584e90cb19" d="M 0 0 
L 0 2 
" style="stroke: #000000; stroke-width: 0.6"/>
      </defs>
      <g>
       <use xlink:href="#m584e90cb19" x="108.101299" y="501.3525" style="stroke: #000000; stroke-width: 0.6"/>
      </g>
     </g>
    </g>
    <g id="xtick_10">
     <g id="line2d_19">
      <path d="M 141.881384 501.3525 
L 141.881384 57.8325 
" clip-path="url(#p8550b3c3e9)" style="fill: none; stroke-dasharray: 1.85,0.8; stroke-dashoffset: 0; stroke: #b0b0b0; stroke-opacity: 0.8; stroke-width: 0.5"/>
     </g>
     <g id="line2d_20">
      <g>
       <use xlink:href="#m584e90cb19" x="141.881384" y="501.3525" style="stroke: #000000; stroke-width: 0.6"/>
      </g>
     </g>
    </g>
    <g id="xtick_11">
     <g id="line2d_21">
      <path d="M 158.771427 501.3525 
L 158.771427 57.8325 
" clip-path="url(#p8550b3c3e9)" style="fill: none; stroke-dasharray: 1.85,0.8; stroke-dashoffset: 0; stroke: #b0b0b0; stroke-opacity: 0.8; stroke-width: 0.5"/>
     </g>
     <g id="line2d_22">
      <g>
       <use xlink:href="#m584e90cb19" x="158.771427" y="501.3525" style="stroke: #000000; stroke-width: 0.6"/>
      </g>
     </g>
    </g>
    <g id="xtick_12">
     <g id="line2d_23">
      <path d="M 175.66147 501.3525 
L 175.66147 57.8325 
" clip-path="url(#p8550b3c3e9)" style="fill: none; stroke-dasharray: 1.85,0.8; stroke-dashoffset: 0; stroke: #b0b0b0; stroke-opacity: 0.8; stroke-width: 0.5"/>
     </g>
     <g id="line2d_24">
      <g>
       <use xlink:href="#m584e90cb19" x="175.66147" y="501.3525" style="stroke: #000000; stroke-width: 0.6"/>
      </g>
     </g>
    </g>
    <g id="xtick_13">
     <g id="line2d_25">
      <path d="M 192.551513 501.3525 
L 192.551513 57.8325 
" clip-path="url(#p8550b3c3e9)" style="fill: none; stroke-dasharray: 1.85,0.8; stroke-dashoffset: 0; stroke: #b0b0b0; stroke-opacity: 0.8; stroke-width: 0.5"/>
     </g>
     <g id="line2d_26">
      <g>
       <use xlink:href="#m584e90cb19" x="192.551513" y="501.3525" style="stroke: #000000; stroke-width: 0.6"/>
      </g>
     </g>
    </g>
    <g id="xtick_14">
     <g id="line2d_27">
      <path d="M 226.331598 501.3525 
L 226.331598 57.8325 
" clip-path="url(#p8550b3c3e9)" style="fill: none; stroke-dasharray: 1.85,0.8; stroke-dashoffset: 0; stroke: #b0b0b0; stroke-opacity: 0.8; stroke-width: 0.5"/>
     </g>
     <g id="line2d_28">
      <g>
       <use xlink:href="#m584e90cb19" x="226.331598" y="501.3525" style="stroke: #000000; stroke-width: 0.6"/>
      </g>
     </g>
    </g>
    <g id="xtick_15">
     <g id="line2d_29">
      <path d="M 243.221641 501.3525 
L 243.221641 57.8325 
" clip-path="url(#p8550b3c3e9)" style="fill: none; stroke-dasharray: 1.85,0.8; stroke-dashoffset: 0; stroke: #b0b0b0; stroke-opacity: 0.8; stroke-width: 0.5"/>
     </g>
     <g id="line2d_30">
      <g>
       <use xlink:href="#m584e90cb19" x="243.221641" y="501.3525" style="stroke: #000000; stroke-width: 0.6"/>
      </g>
     </g>
    </g>
    <g id="xtick_16">
     <g id="line2d_31">
      <path d="M 260.111683 501.3525 
L 260.111683 57.8325 
" clip-path="url(#p8550b3c3e9)" style="fill: none; stroke-dasharray: 1.85,0.8; stroke-dashoffset: 0; stroke: #b0b0b0; stroke-opacity: 0.8; stroke-width: 0.5"/>
     </g>
     <g id="line2d_32">
      <g>
       <use xlink:href="#m584e90cb19" x="260.111683" y="501.3525" style="stroke: #000000; stroke-width: 0.6"/>
      </g>
     </g>
    </g>
    <g id="xtick_17">
     <g id="line2d_33">
      <path d="M 277.001726 501.3525 
L 277.001726 57.8325 
" clip-path="url(#p8550b3c3e9)" style="fill: none; stroke-dasharray: 1.85,0.8; stroke-dashoffset: 0; stroke: #b0b0b0; stroke-opacity: 0.8; stroke-width: 0.5"/>
     </g>
     <g id="line2d_34">
      <g>
       <use xlink:href="#m584e90cb19" x="277.001726" y="501.3525" style="stroke: #000000; stroke-width: 0.6"/>
      </g>
     </g>
    </g>
    <g id="xtick_18">
     <g id="line2d_35">
      <path d="M 310.781811 501.3525 
L 310.781811 57.8325 
" clip-path="url(#p8550b3c3e9)" style="fill: none; stroke-dasharray: 1.85,0.8; stroke-dashoffset: 0; stroke: #b0b0b0; stroke-opacity: 0.8; stroke-width: 0.5"/>
     </g>
     <g id="line2d_36">
      <g>
       <use xlink:href="#m584e90cb19" x="310.781811" y="501.3525" style="stroke: #000000; stroke-width: 0.6"/>
      </g>
     </g>
    </g>
    <g id="xtick_19">
     <g id="line2d_37">
      <path d="M 327.671854 501.3525 
L 327.671854 57.8325 
" clip-path="url(#p8550b3c3e9)" style="fill: none; stroke-dasharray: 1.85,0.8; stroke-dashoffset: 0; stroke: #b0b0b0; stroke-opacity: 0.8; stroke-width: 0.5"/>
     </g>
     <g id="line2d_38">
      <g>
       <use xlink:href="#m584e90cb19" x="327.671854" y="501.3525" style="stroke: #000000; stroke-width: 0.6"/>
      </g>
     </g>
    </g>
    <g id="xtick_20">
     <g id="line2d_39">
      <path d="M 344.561897 501.3525 
L 344.561897 57.8325 
" clip-path="url(#p8550b3c3e9)" style="fill: none; stroke-dasharray: 1.85,0.8; stroke-dashoffset: 0; stroke: #b0b0b0; stroke-opacity: 0.8; stroke-width: 0.5"/>
     </g>
     <g id="line2d_40">
      <g>
       <use xlink:href="#m584e90cb19" x="344.561897" y="501.3525" style="stroke: #000000; stroke-width: 0.6"/>
      </g>
     </g>
    </g>
    <g id="xtick_21">
     <g id="line2d_41">
      <path d="M 361.45194 501.3525 
L 361.45194 57.8325 
" clip-path="url(#p8550b3c3e9)" style="fill: none; stroke-dasharray: 1.85,0.8; stroke-dashoffset: 0; stroke: #b0b0b0; stroke-opacity: 0.8; stroke-width: 0.5"/>
     </g>
     <g id="line2d_42">
      <g>
       <use xlink:href="#m584e90cb19" x="361.45194" y="501.3525" style="stroke: #000000; stroke-width: 0.6"/>
      </g>
     </g>
    </g>
    <g id="xtick_22">
     <g id="line2d_43">
      <path d="M 395.232025 501.3525 
L 395.232025 57.8325 
" clip-path="url(#p8550b3c3e9)" style="fill: none; stroke-dasharray: 1.85,0.8; stroke-dashoffset: 0; stroke: #b0b0b0; stroke-opacity: 0.8; stroke-width: 0.5"/>
     </g>
     <g id="line2d_44">
      <g>
       <use xlink:href="#m584e90cb19" x="395.232025" y="501.3525" style="stroke: #000000; stroke-width: 0.6"/>
      </g>
     </g>
    </g>
    <g id="xtick_23">
     <g id="line2d_45">
      <path d="M 412.122068 501.3525 
L 412.122068 57.8325 
" clip-path="url(#p8550b3c3e9)" style="fill: none; stroke-dasharray: 1.85,0.8; stroke-dashoffset: 0; stroke: #b0b0b0; stroke-opacity: 0.8; stroke-width: 0.5"/>
     </g>
     <g id="line2d_46">
      <g>
       <use xlink:href="#m584e90cb19" x="412.122068" y="501.3525" style="stroke: #000000; stroke-width: 0.6"/>
      </g>
     </g>
    </g>
    <g id="xtick_24">
     <g id="line2d_47">
      <path d="M 429.01211 501.3525 
L 429.01211 57.8325 
" clip-path="url(#p8550b3c3e9)" style="fill: none; stroke-dasharray: 1.85,0.8; stroke-dashoffset: 0; stroke: #b0b0b0; stroke-opacity: 0.8; stroke-width: 0.5"/>
     </g>
     <g id="line2d_48">
      <g>
       <use xlink:href="#m584e90cb19" x="429.01211" y="501.3525" style="stroke: #000000; stroke-width: 0.6"/>
      </g>
     </g>
    </g>
    <g id="xtick_25">
     <g id="line2d_49">
      <path d="M 445.902153 501.3525 
L 445.902153 57.8325 
" clip-path="url(#p8550b3c3e9)" style="fill: none; stroke-dasharray: 1.85,0.8; stroke-dashoffset: 0; stroke: #b0b0b0; stroke-opacity: 0.8; stroke-width: 0.5"/>
     </g>
     <g id="line2d_50">
      <g>
       <use xlink:href="#m584e90cb19" x="445.902153" y="501.3525" style="stroke: #000000; stroke-width: 0.6"/>
      </g>
     </g>
    </g>
    <g id="xtick_26">
     <g id="line2d_51">
      <path d="M 479.682238 501.3525 
L 479.682238 57.8325 
" clip-path="url(#p8550b3c3e9)" style="fill: none; stroke-dasharray: 1.85,0.8; stroke-dashoffset: 0; stroke: #b0b0b0; stroke-opacity: 0.8; stroke-width: 0.5"/>
     </g>
     <g id="line2d_52">
      <g>
       <use xlink:href="#m584e90cb19" x="479.682238" y="501.3525" style="stroke: #000000; stroke-width: 0.6"/>
      </g>
     </g>
    </g>
    <g id="xtick_27">
     <g id="line2d_53">
      <path d="M 496.572281 501.3525 
L 496.572281 57.8325 
" clip-path="url(#p8550b3c3e9)" style="fill: none; stroke-dasharray: 1.85,0.8; stroke-dashoffset: 0; stroke: #b0b0b0; stroke-opacity: 0.8; stroke-width: 0.5"/>
     </g>
     <g id="line2d_54">
      <g>
       <use xlink:href="#m584e90cb19" x="496.572281" y="501.3525" style="stroke: #000000; stroke-width: 0.6"/>
      </g>
     </g>
    </g>
    <g id="xtick_28">
     <g id="line2d_55">
      <path d="M 513.462324 501.3525 
L 513.462324 57.8325 
" clip-path="url(#p8550b3c3e9)" style="fill: none; stroke-dasharray: 1.85,0.8; stroke-dashoffset: 0; stroke: #b0b0b0; stroke-opacity: 0.8; stroke-width: 0.5"/>
     </g>
     <g id="line2d_56">
      <g>
       <use xlink:href="#m584e90cb19" x="513.462324" y="501.3525" style="stroke: #000000; stroke-width: 0.6"/>
      </g>
     </g>
    </g>
    <g id="xtick_29">
     <g id="line2d_57">
      <path d="M 530.352366 501.3525 
L 530.352366 57.8325 
" clip-path="url(#p8550b3c3e9)" style="fill: none; stroke-dasharray: 1.85,0.8; stroke-dashoffset: 0; stroke: #b0b0b0; stroke-opacity: 0.8; stroke-width: 0.5"/>
     </g>
     <g id="line2d_58">
      <g>
       <use xlink:href="#m584e90cb19" x="530.352366" y="501.3525" style="stroke: #000000; stroke-width: 0.6"/>
      </g>
     </g>
    </g>
    <g id="xtick_30">
     <g id="line2d_59">
      <path d="M 564.132452 501.3525 
L 564.132452 57.8325 
" clip-path="url(#p8550b3c3e9)" style="fill: none; stroke-dasharray: 1.85,0.8; stroke-dashoffset: 0; stroke: #b0b0b0; stroke-opacity: 0.8; stroke-width: 0.5"/>
     </g>
     <g id="line2d_60">
      <g>
       <use xlink:href="#m584e90cb19" x="564.132452" y="501.3525" style="stroke: #000000; stroke-width: 0.6"/>
      </g>
     </g>
    </g>
    <g id="xtick_31">
     <g id="line2d_61">
      <path d="M 581.022495 501.3525 
L 581.022495 57.8325 
" clip-path="url(#p8550b3c3e9)" style="fill: none; stroke-dasharray: 1.85,0.8; stroke-dashoffset: 0; stroke: #b0b0b0; stroke-opacity: 0.8; stroke-width: 0.5"/>
     </g>
     <g id="line2d_62">
      <g>
       <use xlink:href="#m584e90cb19" x="581.022495" y="501.3525" style="stroke: #000000; stroke-width: 0.6"/>
      </g>
     </g>
    </g>
    <g id="xtick_32">
     <g id="line2d_63">
      <path d="M 597.912537 501.3525 
L 597.912537 57.8325 
" clip-path="url(#p8550b3c3e9)" style="fill: none; stroke-dasharray: 1.85,0.8; stroke-dashoffset: 0; stroke: #b0b0b0; stroke-opacity: 0.8; stroke-width: 0.5"/>
     </g>
     <g id="line2d_64">
      <g>
       <use xlink:href="#m584e90cb19" x="597.912537" y="501.3525" style="stroke: #000000; stroke-width: 0.6"/>
      </g>
     </g>
    </g>
    <g id="xtick_33">
     <g id="line2d_65">
      <path d="M 614.80258 501.3525 
L 614.80258 57.8325 
" clip-path="url(#p8550b3c3e9)" style="fill: none; stroke-dasharray: 1.85,0.8; stroke-dashoffset: 0; stroke: #b0b0b0; stroke-opacity: 0.8; stroke-width: 0.5"/>
     </g>
     <g id="line2d_66">
      <g>
       <use xlink:href="#m584e90cb19" x="614.80258" y="501.3525" style="stroke: #000000; stroke-width: 0.6"/>
      </g>
     </g>
    </g>
    <g id="xtick_34">
     <g id="line2d_67">
      <path d="M 648.582665 501.3525 
L 648.582665 57.8325 
" clip-path="url(#p8550b3c3e9)" style="fill: none; stroke-dasharray: 1.85,0.8; stroke-dashoffset: 0; stroke: #b0b0b0; stroke-opacity: 0.8; stroke-width: 0.5"/>
     </g>
     <g id="line2d_68">
      <g>
       <use xlink:href="#m584e90cb19" x="648.582665" y="501.3525" style="stroke: #000000; stroke-width: 0.6"/>
      </g>
     </g>
    </g>
    <g id="xtick_35">
     <g id="line2d_69">
      <path d="M 665.472708 501.3525 
L 665.472708 57.8325 
" clip-path="url(#p8550b3c3e9)" style="fill: none; stroke-dasharray: 1.85,0.8; stroke-dashoffset: 0; stroke: #b0b0b0; stroke-opacity: 0.8; stroke-width: 0.5"/>
     </g>
     <g id="line2d_70">
      <g>
       <use xlink:href="#m584e90cb19" x="665.472708" y="501.3525" style="stroke: #000000; stroke-width: 0.6"/>
      </g>
     </g>
    </g>
    <g id="xtick_36">
     <g id="line2d_71">
      <path d="M 682.362751 501.3525 
L 682.362751 57.8325 
" clip-path="url(#p8550b3c3e9)" style="fill: none; stroke-dasharray: 1.85,0.8; stroke-dashoffset: 0; stroke: #b0b0b0; stroke-opacity: 0.8; stroke-width: 0.5"/>
     </g>
     <g id="line2d_72">
      <g>
       <use xlink:href="#m584e90cb19" x="682.362751" y="501.3525" style="stroke: #000000; stroke-width: 0.6"/>
      </g>
     </g>
    </g>
    <g id="xtick_37">
     <g id="line2d_73">
      <path d="M 699.252793 501.3525 
L 699.252793 57.8325 
" clip-path="url(#p8550b3c3e9)" style="fill: none; stroke-dasharray: 1.85,0.8; stroke-dashoffset: 0; stroke: #b0b0b0; stroke-opacity: 0.8; stroke-width: 0.5"/>
     </g>
     <g id="line2d_74">
      <g>
       <use xlink:href="#m584e90cb19" x="699.252793" y="501.3525" style="stroke: #000000; stroke-width: 0.6"/>
      </g>
     </g>
    </g>
    <g id="xtick_38">
     <g id="line2d_75">
      <path d="M 733.032879 501.3525 
L 733.032879 57.8325 
" clip-path="url(#p8550b3c3e9)" style="fill: none; stroke-dasharray: 1.85,0.8; stroke-dashoffset: 0; stroke: #b0b0b0; stroke-opacity: 0.8; stroke-width: 0.5"/>
     </g>
     <g id="line2d_76">
      <g>
       <use xlink:href="#m584e90cb19" x="733.032879" y="501.3525" style="stroke: #000000; stroke-width: 0.6"/>
      </g>
     </g>
    </g>
    <g id="xtick_39">
     <g id="line2d_77">
      <path d="M 749.922921 501.3525 
L 749.922921 57.8325 
" clip-path="url(#p8550b3c3e9)" style="fill: none; stroke-dasharray: 1.85,0.8; stroke-dashoffset: 0; stroke: #b0b0b0; stroke-opacity: 0.8; stroke-width: 0.5"/>
     </g>
     <g id="line2d_78">
      <g>
       <use xlink:href="#m584e90cb19" x="749.922921" y="501.3525" style="stroke: #000000; stroke-width: 0.6"/>
      </g>
     </g>
    </g>
    <g id="text_9">
     <!-- Time (S) -->
     <g transform="translate(396.990625 542.305625) scale(0.2 -0.2)">
      <defs>
       <path id="AptosDisplay-54" d="M 1244 0 
L 1244 3734 
L 50 3734 
L 50 4206 
L 2997 4206 
L 2997 3734 
L 1806 3734 
L 1806 0 
L 1244 0 
z
" transform="scale(0.015625)"/>
       <path id="AptosDisplay-69" d="M 413 0 
L 413 3044 
L 934 3044 
L 934 0 
L 413 0 
z
M 675 3616 
Q 525 3616 437 3702 
Q 350 3788 350 3919 
Q 350 4050 437 4136 
Q 525 4222 675 4222 
Q 822 4222 912 4136 
Q 1003 4050 1003 3919 
Q 1003 3788 912 3702 
Q 822 3616 675 3616 
z
" transform="scale(0.015625)"/>
       <path id="AptosDisplay-6d" d="M 413 0 
L 413 3044 
L 919 3044 
L 931 2575 
Q 1063 2756 1303 2914 
Q 1544 3072 1903 3072 
Q 2403 3072 2618 2778 
Q 2834 2484 2834 1963 
L 2834 0 
L 2316 0 
L 2316 1891 
Q 2316 2106 2275 2275 
Q 2234 2444 2120 2539 
Q 2006 2634 1788 2634 
Q 1488 2634 1277 2482 
Q 1066 2331 934 2156 
L 934 0 
L 413 0 
z
M 4206 0 
L 4206 1891 
Q 4206 2106 4164 2275 
Q 4122 2444 4009 2539 
Q 3897 2634 3681 2634 
Q 3381 2634 3165 2484 
Q 2950 2334 2822 2159 
L 2744 2544 
Q 2916 2741 3175 2906 
Q 3434 3072 3800 3072 
Q 4291 3072 4509 2778 
Q 4728 2484 4728 1963 
L 4728 0 
L 4206 0 
z
" transform="scale(0.015625)"/>
       <path id="AptosDisplay-65" d="M 1663 -56 
Q 1188 -56 878 151 
Q 569 359 417 717 
Q 266 1075 266 1522 
Q 266 1988 412 2342 
Q 559 2697 857 2897 
Q 1156 3097 1606 3097 
Q 2209 3097 2550 2722 
Q 2891 2347 2891 1644 
Q 2891 1597 2889 1533 
Q 2888 1469 2881 1441 
L 791 1441 
Q 794 1144 881 895 
Q 969 647 1161 497 
Q 1353 347 1663 347 
Q 1997 347 2183 511 
Q 2369 675 2378 984 
L 2894 984 
Q 2884 663 2732 430 
Q 2581 197 2309 70 
Q 2038 -56 1663 -56 
z
M 794 1822 
L 2375 1822 
Q 2366 2247 2166 2472 
Q 1966 2697 1606 2697 
Q 1241 2697 1036 2473 
Q 831 2250 794 1822 
z
" transform="scale(0.015625)"/>
       <path id="AptosDisplay-20" transform="scale(0.015625)"/>
       <path id="AptosDisplay-28" d="M 1219 -1116 
Q 969 -678 787 -267 
Q 606 144 511 581 
Q 416 1019 416 1528 
Q 416 2028 509 2486 
Q 603 2944 783 3378 
Q 963 3813 1219 4231 
L 1647 4231 
Q 1278 3600 1101 2886 
Q 925 2172 925 1428 
Q 925 766 1125 103 
Q 1325 -559 1647 -1116 
L 1219 -1116 
z
" transform="scale(0.015625)"/>
       <path id="AptosDisplay-53" d="M 1778 -56 
Q 1328 -56 962 81 
Q 597 219 384 512 
Q 172 806 172 1275 
L 734 1275 
Q 738 941 883 750 
Q 1028 559 1267 481 
Q 1506 403 1794 403 
Q 2063 403 2283 483 
Q 2503 563 2634 723 
Q 2766 884 2766 1134 
Q 2766 1356 2662 1497 
Q 2559 1638 2321 1742 
Q 2084 1847 1678 1950 
Q 1203 2075 897 2223 
Q 591 2372 442 2594 
Q 294 2816 294 3156 
Q 294 3516 462 3761 
Q 631 4006 945 4134 
Q 1259 4263 1697 4263 
Q 2103 4263 2440 4131 
Q 2778 4000 2979 3737 
Q 3181 3475 3181 3084 
L 2616 3084 
Q 2622 3441 2356 3623 
Q 2091 3806 1700 3806 
Q 1300 3806 1073 3645 
Q 847 3484 847 3175 
Q 847 2991 944 2867 
Q 1041 2744 1280 2644 
Q 1519 2544 1941 2434 
Q 2428 2303 2731 2153 
Q 3034 2003 3178 1768 
Q 3322 1534 3322 1153 
Q 3322 747 3117 480 
Q 2913 213 2564 78 
Q 2216 -56 1778 -56 
z
" transform="scale(0.015625)"/>
       <path id="AptosDisplay-29" d="M 234 -1116 
Q 609 -481 786 233 
Q 963 947 963 1694 
Q 963 2356 759 3015 
Q 556 3675 234 4231 
L 663 4231 
Q 919 3800 1098 3389 
Q 1278 2978 1373 2540 
Q 1469 2103 1469 1594 
Q 1469 1094 1375 634 
Q 1281 175 1100 -259 
Q 919 -694 663 -1116 
L 234 -1116 
z
" transform="scale(0.015625)"/>
      </defs>
      <use xlink:href="#AptosDisplay-54"/>
      <use xlink:href="#AptosDisplay-69" x="47.705078"/>
      <use xlink:href="#AptosDisplay-6d" x="68.75"/>
      <use xlink:href="#AptosDisplay-65" x="148.730469"/>
      <use xlink:href="#AptosDisplay-20" x="198.144531"/>
      <use xlink:href="#AptosDisplay-28" x="217.431641"/>
      <use xlink:href="#AptosDisplay-53" x="246.875"/>
      <use xlink:href="#AptosDisplay-29" x="301.464844"/>
     </g>
    </g>
   </g>
   <g id="matplotlib.axis_2">
    <g id="ytick_1">
     <g id="line2d_79">
      <path d="M 95.28125 481.955124 
L 764.88125 481.955124 
" clip-path="url(#p8550b3c3e9)" style="fill: none; stroke: #b0b0b0; stroke-opacity: 0.8; stroke-linecap: square"/>
     </g>
     <g id="line2d_80">
      <defs>
       <path id="m3ceafc814a" d="M 0 0 
L -3.5 0 
" style="stroke: #000000; stroke-width: 0.8"/>
      </defs>
      <g>
       <use xlink:href="#m3ceafc814a" x="95.28125" y="481.955124" style="stroke: #000000; stroke-width: 0.8"/>
      </g>
     </g>
     <g id="text_10">
      <!-- 840 -->
      <g transform="translate(56.903125 488.526999) scale(0.2 -0.2)">
       <defs>
        <path id="AptosDisplay-38" d="M 1675 -56 
Q 1391 -56 1137 16 
Q 884 88 686 234 
Q 488 381 373 606 
Q 259 831 259 1141 
Q 259 1531 495 1797 
Q 731 2063 1084 2150 
Q 781 2250 604 2490 
Q 428 2731 428 3081 
Q 428 3447 609 3681 
Q 791 3916 1075 4025 
Q 1359 4134 1669 4134 
Q 1981 4134 2265 4023 
Q 2550 3913 2733 3680 
Q 2916 3447 2916 3081 
Q 2916 2725 2716 2481 
Q 2516 2238 2238 2150 
Q 2606 2063 2843 1800 
Q 3081 1538 3081 1141 
Q 3081 831 2968 606 
Q 2856 381 2661 234 
Q 2466 88 2211 16 
Q 1956 -56 1675 -56 
z
M 1672 388 
Q 1909 388 2109 470 
Q 2309 553 2429 725 
Q 2550 897 2550 1163 
Q 2550 1416 2426 1587 
Q 2303 1759 2104 1846 
Q 1906 1934 1672 1928 
Q 1453 1934 1253 1850 
Q 1053 1766 926 1594 
Q 800 1422 800 1163 
Q 800 775 1058 581 
Q 1316 388 1672 388 
z
M 1672 2363 
Q 1863 2356 2030 2434 
Q 2197 2513 2300 2667 
Q 2403 2822 2403 3050 
Q 2403 3388 2189 3544 
Q 1975 3700 1675 3700 
Q 1484 3700 1317 3631 
Q 1150 3563 1047 3419 
Q 944 3275 944 3050 
Q 944 2825 1048 2670 
Q 1153 2516 1320 2436 
Q 1488 2356 1672 2363 
z
" transform="scale(0.015625)"/>
        <path id="AptosDisplay-34" d="M 2106 0 
L 2106 825 
L 125 825 
L 125 1297 
L 2100 4103 
L 2631 4103 
L 2631 1284 
L 3191 1284 
L 3191 825 
L 2631 825 
L 2631 0 
L 2106 0 
z
M 638 1284 
L 2113 1284 
L 2113 3369 
L 638 1284 
z
" transform="scale(0.015625)"/>
       </defs>
       <use xlink:href="#AptosDisplay-38"/>
       <use xlink:href="#AptosDisplay-34" x="52.294922"/>
       <use xlink:href="#AptosDisplay-30" x="104.589844"/>
      </g>
     </g>
    </g>
    <g id="ytick_2">
     <g id="line2d_81">
      <path d="M 95.28125 425.672931 
L 764.88125 425.672931 
" clip-path="url(#p8550b3c3e9)" style="fill: none; stroke: #b0b0b0; stroke-opacity: 0.8; stroke-linecap: square"/>
     </g>
     <g id="line2d_82">
      <g>
       <use xlink:href="#m3ceafc814a" x="95.28125" y="425.672931" style="stroke: #000000; stroke-width: 0.8"/>
      </g>
     </g>
     <g id="text_11">
      <!-- 860 -->
      <g transform="translate(56.903125 432.244806) scale(0.2 -0.2)">
       <defs>
        <path id="AptosDisplay-36" d="M 1759 -56 
Q 1325 -56 984 151 
Q 644 359 447 815 
Q 250 1272 250 2013 
Q 250 2738 439 3206 
Q 628 3675 968 3903 
Q 1309 4131 1759 4131 
Q 2253 4131 2595 3875 
Q 2938 3619 3034 3097 
L 2503 3097 
Q 2441 3388 2250 3534 
Q 2059 3681 1759 3681 
Q 1306 3681 1047 3279 
Q 788 2878 788 2013 
L 788 1850 
Q 788 1313 922 992 
Q 1056 672 1279 531 
Q 1503 391 1763 391 
Q 2175 391 2369 644 
Q 2563 897 2563 1272 
Q 2563 1650 2373 1869 
Q 2184 2088 1838 2088 
Q 1422 2088 1114 1897 
Q 806 1706 644 1456 
L 597 1856 
Q 728 2047 922 2201 
Q 1116 2356 1362 2447 
Q 1609 2538 1909 2538 
Q 2253 2538 2523 2395 
Q 2794 2253 2951 1975 
Q 3109 1697 3109 1291 
Q 3109 897 2951 592 
Q 2794 288 2492 116 
Q 2191 -56 1759 -56 
z
" transform="scale(0.015625)"/>
       </defs>
       <use xlink:href="#AptosDisplay-38"/>
       <use xlink:href="#AptosDisplay-36" x="52.294922"/>
       <use xlink:href="#AptosDisplay-30" x="104.589844"/>
      </g>
     </g>
    </g>
    <g id="ytick_3">
     <g id="line2d_83">
      <path d="M 95.28125 369.390738 
L 764.88125 369.390738 
" clip-path="url(#p8550b3c3e9)" style="fill: none; stroke: #b0b0b0; stroke-opacity: 0.8; stroke-linecap: square"/>
     </g>
     <g id="line2d_84">
      <g>
       <use xlink:href="#m3ceafc814a" x="95.28125" y="369.390738" style="stroke: #000000; stroke-width: 0.8"/>
      </g>
     </g>
     <g id="text_12">
      <!-- 880 -->
      <g transform="translate(56.903125 375.962613) scale(0.2 -0.2)">
       <use xlink:href="#AptosDisplay-38"/>
       <use xlink:href="#AptosDisplay-38" x="52.294922"/>
       <use xlink:href="#AptosDisplay-30" x="104.589844"/>
      </g>
     </g>
    </g>
    <g id="ytick_4">
     <g id="line2d_85">
      <path d="M 95.28125 313.108546 
L 764.88125 313.108546 
" clip-path="url(#p8550b3c3e9)" style="fill: none; stroke: #b0b0b0; stroke-opacity: 0.8; stroke-linecap: square"/>
     </g>
     <g id="line2d_86">
      <g>
       <use xlink:href="#m3ceafc814a" x="95.28125" y="313.108546" style="stroke: #000000; stroke-width: 0.8"/>
      </g>
     </g>
     <g id="text_13">
      <!-- 900 -->
      <g transform="translate(56.903125 319.680421) scale(0.2 -0.2)">
       <defs>
        <path id="AptosDisplay-39" d="M 1547 -56 
Q 1200 -56 926 64 
Q 653 184 481 415 
Q 309 647 256 978 
L 788 978 
Q 834 713 1029 552 
Q 1225 391 1547 391 
Q 2022 391 2294 778 
Q 2566 1166 2566 2019 
L 2566 2197 
Q 2566 2753 2439 3079 
Q 2313 3406 2102 3547 
Q 1891 3688 1634 3688 
Q 1206 3688 998 3433 
Q 791 3178 791 2800 
Q 791 2422 991 2203 
Q 1191 1984 1547 1984 
Q 1831 1984 2045 2071 
Q 2259 2159 2417 2300 
Q 2575 2441 2681 2594 
L 2731 2209 
Q 2609 2038 2432 1884 
Q 2256 1731 2020 1634 
Q 1784 1538 1484 1538 
Q 1122 1538 842 1683 
Q 563 1828 405 2108 
Q 247 2388 247 2784 
Q 247 3175 414 3479 
Q 581 3784 892 3959 
Q 1203 4134 1631 4134 
Q 2056 4134 2389 3926 
Q 2722 3719 2914 3262 
Q 3106 2806 3106 2066 
Q 3106 1338 2912 869 
Q 2719 400 2369 172 
Q 2019 -56 1547 -56 
z
" transform="scale(0.015625)"/>
       </defs>
       <use xlink:href="#AptosDisplay-39"/>
       <use xlink:href="#AptosDisplay-30" x="52.294922"/>
       <use xlink:href="#AptosDisplay-30" x="104.589844"/>
      </g>
     </g>
    </g>
    <g id="ytick_5">
     <g id="line2d_87">
      <path d="M 95.28125 256.826353 
L 764.88125 256.826353 
" clip-path="url(#p8550b3c3e9)" style="fill: none; stroke: #b0b0b0; stroke-opacity: 0.8; stroke-linecap: square"/>
     </g>
     <g id="line2d_88">
      <g>
       <use xlink:href="#m3ceafc814a" x="95.28125" y="256.826353" style="stroke: #000000; stroke-width: 0.8"/>
      </g>
     </g>
     <g id="text_14">
      <!-- 920 -->
      <g transform="translate(56.903125 263.398228) scale(0.2 -0.2)">
       <use xlink:href="#AptosDisplay-39"/>
       <use xlink:href="#AptosDisplay-32" x="52.294922"/>
       <use xlink:href="#AptosDisplay-30" x="104.589844"/>
      </g>
     </g>
    </g>
    <g id="ytick_6">
     <g id="line2d_89">
      <path d="M 95.28125 200.54416 
L 764.88125 200.54416 
" clip-path="url(#p8550b3c3e9)" style="fill: none; stroke: #b0b0b0; stroke-opacity: 0.8; stroke-linecap: square"/>
     </g>
     <g id="line2d_90">
      <g>
       <use xlink:href="#m3ceafc814a" x="95.28125" y="200.54416" style="stroke: #000000; stroke-width: 0.8"/>
      </g>
     </g>
     <g id="text_15">
      <!-- 940 -->
      <g transform="translate(56.903125 207.116035) scale(0.2 -0.2)">
       <use xlink:href="#AptosDisplay-39"/>
       <use xlink:href="#AptosDisplay-34" x="52.294922"/>
       <use xlink:href="#AptosDisplay-30" x="104.589844"/>
      </g>
     </g>
    </g>
    <g id="ytick_7">
     <g id="line2d_91">
      <path d="M 95.28125 144.261968 
L 764.88125 144.261968 
" clip-path="url(#p8550b3c3e9)" style="fill: none; stroke: #b0b0b0; stroke-opacity: 0.8; stroke-linecap: square"/>
     </g>
     <g id="line2d_92">
      <g>
       <use xlink:href="#m3ceafc814a" x="95.28125" y="144.261968" style="stroke: #000000; stroke-width: 0.8"/>
      </g>
     </g>
     <g id="text_16">
      <!-- 960 -->
      <g transform="translate(56.903125 150.833843) scale(0.2 -0.2)">
       <use xlink:href="#AptosDisplay-39"/>
       <use xlink:href="#AptosDisplay-36" x="52.294922"/>
       <use xlink:href="#AptosDisplay-30" x="104.589844"/>
      </g>
     </g>
    </g>
    <g id="ytick_8">
     <g id="line2d_93">
      <path d="M 95.28125 87.979775 
L 764.88125 87.979775 
" clip-path="url(#p8550b3c3e9)" style="fill: none; stroke: #b0b0b0; stroke-opacity: 0.8; stroke-linecap: square"/>
     </g>
     <g id="line2d_94">
      <g>
       <use xlink:href="#m3ceafc814a" x="95.28125" y="87.979775" style="stroke: #000000; stroke-width: 0.8"/>
      </g>
     </g>
     <g id="text_17">
      <!-- 980 -->
      <g transform="translate(56.903125 94.55165) scale(0.2 -0.2)">
       <use xlink:href="#AptosDisplay-39"/>
       <use xlink:href="#AptosDisplay-38" x="52.294922"/>
       <use xlink:href="#AptosDisplay-30" x="104.589844"/>
      </g>
     </g>
    </g>
    <g id="ytick_9">
     <g id="line2d_95">
      <path d="M 95.28125 496.025672 
L 764.88125 496.025672 
" clip-path="url(#p8550b3c3e9)" style="fill: none; stroke-dasharray: 1.85,0.8; stroke-dashoffset: 0; stroke: #b0b0b0; stroke-opacity: 0.8; stroke-width: 0.5"/>
     </g>
     <g id="line2d_96">
      <defs>
       <path id="mcf04643060" d="M 0 0 
L -2 0 
" style="stroke: #000000; stroke-width: 0.6"/>
      </defs>
      <g>
       <use xlink:href="#mcf04643060" x="95.28125" y="496.025672" style="stroke: #000000; stroke-width: 0.6"/>
      </g>
     </g>
    </g>
    <g id="ytick_10">
     <g id="line2d_97">
      <path d="M 95.28125 467.884576 
L 764.88125 467.884576 
" clip-path="url(#p8550b3c3e9)" style="fill: none; stroke-dasharray: 1.85,0.8; stroke-dashoffset: 0; stroke: #b0b0b0; stroke-opacity: 0.8; stroke-width: 0.5"/>
     </g>
     <g id="line2d_98">
      <g>
       <use xlink:href="#mcf04643060" x="95.28125" y="467.884576" style="stroke: #000000; stroke-width: 0.6"/>
      </g>
     </g>
    </g>
    <g id="ytick_11">
     <g id="line2d_99">
      <path d="M 95.28125 453.814027 
L 764.88125 453.814027 
" clip-path="url(#p8550b3c3e9)" style="fill: none; stroke-dasharray: 1.85,0.8; stroke-dashoffset: 0; stroke: #b0b0b0; stroke-opacity: 0.8; stroke-width: 0.5"/>
     </g>
     <g id="line2d_100">
      <g>
       <use xlink:href="#mcf04643060" x="95.28125" y="453.814027" style="stroke: #000000; stroke-width: 0.6"/>
      </g>
     </g>
    </g>
    <g id="ytick_12">
     <g id="line2d_101">
      <path d="M 95.28125 439.743479 
L 764.88125 439.743479 
" clip-path="url(#p8550b3c3e9)" style="fill: none; stroke-dasharray: 1.85,0.8; stroke-dashoffset: 0; stroke: #b0b0b0; stroke-opacity: 0.8; stroke-width: 0.5"/>
     </g>
     <g id="line2d_102">
      <g>
       <use xlink:href="#mcf04643060" x="95.28125" y="439.743479" style="stroke: #000000; stroke-width: 0.6"/>
      </g>
     </g>
    </g>
    <g id="ytick_13">
     <g id="line2d_103">
      <path d="M 95.28125 411.602383 
L 764.88125 411.602383 
" clip-path="url(#p8550b3c3e9)" style="fill: none; stroke-dasharray: 1.85,0.8; stroke-dashoffset: 0; stroke: #b0b0b0; stroke-opacity: 0.8; stroke-width: 0.5"/>
     </g>
     <g id="line2d_104">
      <g>
       <use xlink:href="#mcf04643060" x="95.28125" y="411.602383" style="stroke: #000000; stroke-width: 0.6"/>
      </g>
     </g>
    </g>
    <g id="ytick_14">
     <g id="line2d_105">
      <path d="M 95.28125 397.531835 
L 764.88125 397.531835 
" clip-path="url(#p8550b3c3e9)" style="fill: none; stroke-dasharray: 1.85,0.8; stroke-dashoffset: 0; stroke: #b0b0b0; stroke-opacity: 0.8; stroke-width: 0.5"/>
     </g>
     <g id="line2d_106">
      <g>
       <use xlink:href="#mcf04643060" x="95.28125" y="397.531835" style="stroke: #000000; stroke-width: 0.6"/>
      </g>
     </g>
    </g>
    <g id="ytick_15">
     <g id="line2d_107">
      <path d="M 95.28125 383.461287 
L 764.88125 383.461287 
" clip-path="url(#p8550b3c3e9)" style="fill: none; stroke-dasharray: 1.85,0.8; stroke-dashoffset: 0; stroke: #b0b0b0; stroke-opacity: 0.8; stroke-width: 0.5"/>
     </g>
     <g id="line2d_108">
      <g>
       <use xlink:href="#mcf04643060" x="95.28125" y="383.461287" style="stroke: #000000; stroke-width: 0.6"/>
      </g>
     </g>
    </g>
    <g id="ytick_16">
     <g id="line2d_109">
      <path d="M 95.28125 355.32019 
L 764.88125 355.32019 
" clip-path="url(#p8550b3c3e9)" style="fill: none; stroke-dasharray: 1.85,0.8; stroke-dashoffset: 0; stroke: #b0b0b0; stroke-opacity: 0.8; stroke-width: 0.5"/>
     </g>
     <g id="line2d_110">
      <g>
       <use xlink:href="#mcf04643060" x="95.28125" y="355.32019" style="stroke: #000000; stroke-width: 0.6"/>
      </g>
     </g>
    </g>
    <g id="ytick_17">
     <g id="line2d_111">
      <path d="M 95.28125 341.249642 
L 764.88125 341.249642 
" clip-path="url(#p8550b3c3e9)" style="fill: none; stroke-dasharray: 1.85,0.8; stroke-dashoffset: 0; stroke: #b0b0b0; stroke-opacity: 0.8; stroke-width: 0.5"/>
     </g>
     <g id="line2d_112">
      <g>
       <use xlink:href="#mcf04643060" x="95.28125" y="341.249642" style="stroke: #000000; stroke-width: 0.6"/>
      </g>
     </g>
    </g>
    <g id="ytick_18">
     <g id="line2d_113">
      <path d="M 95.28125 327.179094 
L 764.88125 327.179094 
" clip-path="url(#p8550b3c3e9)" style="fill: none; stroke-dasharray: 1.85,0.8; stroke-dashoffset: 0; stroke: #b0b0b0; stroke-opacity: 0.8; stroke-width: 0.5"/>
     </g>
     <g id="line2d_114">
      <g>
       <use xlink:href="#mcf04643060" x="95.28125" y="327.179094" style="stroke: #000000; stroke-width: 0.6"/>
      </g>
     </g>
    </g>
    <g id="ytick_19">
     <g id="line2d_115">
      <path d="M 95.28125 299.037998 
L 764.88125 299.037998 
" clip-path="url(#p8550b3c3e9)" style="fill: none; stroke-dasharray: 1.85,0.8; stroke-dashoffset: 0; stroke: #b0b0b0; stroke-opacity: 0.8; stroke-width: 0.5"/>
     </g>
     <g id="line2d_116">
      <g>
       <use xlink:href="#mcf04643060" x="95.28125" y="299.037998" style="stroke: #000000; stroke-width: 0.6"/>
      </g>
     </g>
    </g>
    <g id="ytick_20">
     <g id="line2d_117">
      <path d="M 95.28125 284.967449 
L 764.88125 284.967449 
" clip-path="url(#p8550b3c3e9)" style="fill: none; stroke-dasharray: 1.85,0.8; stroke-dashoffset: 0; stroke: #b0b0b0; stroke-opacity: 0.8; stroke-width: 0.5"/>
     </g>
     <g id="line2d_118">
      <g>
       <use xlink:href="#mcf04643060" x="95.28125" y="284.967449" style="stroke: #000000; stroke-width: 0.6"/>
      </g>
     </g>
    </g>
    <g id="ytick_21">
     <g id="line2d_119">
      <path d="M 95.28125 270.896901 
L 764.88125 270.896901 
" clip-path="url(#p8550b3c3e9)" style="fill: none; stroke-dasharray: 1.85,0.8; stroke-dashoffset: 0; stroke: #b0b0b0; stroke-opacity: 0.8; stroke-width: 0.5"/>
     </g>
     <g id="line2d_120">
      <g>
       <use xlink:href="#mcf04643060" x="95.28125" y="270.896901" style="stroke: #000000; stroke-width: 0.6"/>
      </g>
     </g>
    </g>
    <g id="ytick_22">
     <g id="line2d_121">
      <path d="M 95.28125 242.755805 
L 764.88125 242.755805 
" clip-path="url(#p8550b3c3e9)" style="fill: none; stroke-dasharray: 1.85,0.8; stroke-dashoffset: 0; stroke: #b0b0b0; stroke-opacity: 0.8; stroke-width: 0.5"/>
     </g>
     <g id="line2d_122">
      <g>
       <use xlink:href="#mcf04643060" x="95.28125" y="242.755805" style="stroke: #000000; stroke-width: 0.6"/>
      </g>
     </g>
    </g>
    <g id="ytick_23">
     <g id="line2d_123">
      <path d="M 95.28125 228.685257 
L 764.88125 228.685257 
" clip-path="url(#p8550b3c3e9)" style="fill: none; stroke-dasharray: 1.85,0.8; stroke-dashoffset: 0; stroke: #b0b0b0; stroke-opacity: 0.8; stroke-width: 0.5"/>
     </g>
     <g id="line2d_124">
      <g>
       <use xlink:href="#mcf04643060" x="95.28125" y="228.685257" style="stroke: #000000; stroke-width: 0.6"/>
      </g>
     </g>
    </g>
    <g id="ytick_24">
     <g id="line2d_125">
      <path d="M 95.28125 214.614709 
L 764.88125 214.614709 
" clip-path="url(#p8550b3c3e9)" style="fill: none; stroke-dasharray: 1.85,0.8; stroke-dashoffset: 0; stroke: #b0b0b0; stroke-opacity: 0.8; stroke-width: 0.5"/>
     </g>
     <g id="line2d_126">
      <g>
       <use xlink:href="#mcf04643060" x="95.28125" y="214.614709" style="stroke: #000000; stroke-width: 0.6"/>
      </g>
     </g>
    </g>
    <g id="ytick_25">
     <g id="line2d_127">
      <path d="M 95.28125 186.473612 
L 764.88125 186.473612 
" clip-path="url(#p8550b3c3e9)" style="fill: none; stroke-dasharray: 1.85,0.8; stroke-dashoffset: 0; stroke: #b0b0b0; stroke-opacity: 0.8; stroke-width: 0.5"/>
     </g>
     <g id="line2d_128">
      <g>
       <use xlink:href="#mcf04643060" x="95.28125" y="186.473612" style="stroke: #000000; stroke-width: 0.6"/>
      </g>
     </g>
    </g>
    <g id="ytick_26">
     <g id="line2d_129">
      <path d="M 95.28125 172.403064 
L 764.88125 172.403064 
" clip-path="url(#p8550b3c3e9)" style="fill: none; stroke-dasharray: 1.85,0.8; stroke-dashoffset: 0; stroke: #b0b0b0; stroke-opacity: 0.8; stroke-width: 0.5"/>
     </g>
     <g id="line2d_130">
      <g>
       <use xlink:href="#mcf04643060" x="95.28125" y="172.403064" style="stroke: #000000; stroke-width: 0.6"/>
      </g>
     </g>
    </g>
    <g id="ytick_27">
     <g id="line2d_131">
      <path d="M 95.28125 158.332516 
L 764.88125 158.332516 
" clip-path="url(#p8550b3c3e9)" style="fill: none; stroke-dasharray: 1.85,0.8; stroke-dashoffset: 0; stroke: #b0b0b0; stroke-opacity: 0.8; stroke-width: 0.5"/>
     </g>
     <g id="line2d_132">
      <g>
       <use xlink:href="#mcf04643060" x="95.28125" y="158.332516" style="stroke: #000000; stroke-width: 0.6"/>
      </g>
     </g>
    </g>
    <g id="ytick_28">
     <g id="line2d_133">
      <path d="M 95.28125 130.19142 
L 764.88125 130.19142 
" clip-path="url(#p8550b3c3e9)" style="fill: none; stroke-dasharray: 1.85,0.8; stroke-dashoffset: 0; stroke: #b0b0b0; stroke-opacity: 0.8; stroke-width: 0.5"/>
     </g>
     <g id="line2d_134">
      <g>
       <use xlink:href="#mcf04643060" x="95.28125" y="130.19142" style="stroke: #000000; stroke-width: 0.6"/>
      </g>
     </g>
    </g>
    <g id="ytick_29">
     <g id="line2d_135">
      <path d="M 95.28125 116.120871 
L 764.88125 116.120871 
" clip-path="url(#p8550b3c3e9)" style="fill: none; stroke-dasharray: 1.85,0.8; stroke-dashoffset: 0; stroke: #b0b0b0; stroke-opacity: 0.8; stroke-width: 0.5"/>
     </g>
     <g id="line2d_136">
      <g>
       <use xlink:href="#mcf04643060" x="95.28125" y="116.120871" style="stroke: #000000; stroke-width: 0.6"/>
      </g>
     </g>
    </g>
    <g id="ytick_30">
     <g id="line2d_137">
      <path d="M 95.28125 102.050323 
L 764.88125 102.050323 
" clip-path="url(#p8550b3c3e9)" style="fill: none; stroke-dasharray: 1.85,0.8; stroke-dashoffset: 0; stroke: #b0b0b0; stroke-opacity: 0.8; stroke-width: 0.5"/>
     </g>
     <g id="line2d_138">
      <g>
       <use xlink:href="#mcf04643060" x="95.28125" y="102.050323" style="stroke: #000000; stroke-width: 0.6"/>
      </g>
     </g>
    </g>
    <g id="ytick_31">
     <g id="line2d_139">
      <path d="M 95.28125 73.909227 
L 764.88125 73.909227 
" clip-path="url(#p8550b3c3e9)" style="fill: none; stroke-dasharray: 1.85,0.8; stroke-dashoffset: 0; stroke: #b0b0b0; stroke-opacity: 0.8; stroke-width: 0.5"/>
     </g>
     <g id="line2d_140">
      <g>
       <use xlink:href="#mcf04643060" x="95.28125" y="73.909227" style="stroke: #000000; stroke-width: 0.6"/>
      </g>
     </g>
    </g>
    <g id="ytick_32">
     <g id="line2d_141">
      <path d="M 95.28125 59.838679 
L 764.88125 59.838679 
" clip-path="url(#p8550b3c3e9)" style="fill: none; stroke-dasharray: 1.85,0.8; stroke-dashoffset: 0; stroke: #b0b0b0; stroke-opacity: 0.8; stroke-width: 0.5"/>
     </g>
     <g id="line2d_142">
      <g>
       <use xlink:href="#mcf04643060" x="95.28125" y="59.838679" style="stroke: #000000; stroke-width: 0.6"/>
      </g>
     </g>
    </g>
    <g id="text_18">
     <!-- Light (W/m^2) -->
     <g transform="translate(49.221875 337.558125) rotate(-90) scale(0.2 -0.2)">
      <defs>
       <path id="AptosDisplay-4c" d="M 472 0 
L 472 4206 
L 1034 4206 
L 1034 484 
L 3000 484 
L 3000 0 
L 472 0 
z
" transform="scale(0.015625)"/>
       <path id="AptosDisplay-67" d="M 1397 -1178 
Q 925 -1178 640 -1065 
Q 356 -953 229 -765 
Q 103 -578 103 -359 
Q 103 -94 329 112 
Q 556 319 1031 403 
L 1128 575 
L 1475 575 
Q 2184 575 2489 376 
Q 2794 178 2794 -238 
Q 2794 -650 2437 -914 
Q 2081 -1178 1397 -1178 
z
M 1384 -800 
Q 1878 -800 2086 -650 
Q 2294 -500 2294 -278 
Q 2294 -147 2225 -51 
Q 2156 44 1975 97 
Q 1794 150 1456 150 
L 1034 150 
Q 819 97 708 -31 
Q 597 -159 597 -328 
Q 597 -516 778 -658 
Q 959 -800 1384 -800 
z
M 1025 216 
Q 722 228 550 312 
Q 378 397 306 511 
Q 234 625 234 722 
Q 234 866 362 1009 
Q 491 1153 772 1241 
L 1038 1069 
Q 866 1031 772 953 
Q 678 875 678 791 
Q 678 731 734 682 
Q 791 634 928 606 
Q 1066 578 1303 575 
L 1025 216 
z
M 1363 984 
Q 1003 984 753 1128 
Q 503 1272 375 1509 
Q 247 1747 247 2022 
Q 247 2313 376 2550 
Q 506 2788 754 2928 
Q 1003 3069 1366 3069 
Q 1738 3069 1983 2928 
Q 2228 2788 2351 2550 
Q 2475 2313 2475 2022 
Q 2475 1741 2350 1505 
Q 2225 1269 1979 1126 
Q 1734 984 1363 984 
z
M 1366 1341 
Q 1641 1341 1812 1512 
Q 1984 1684 1984 2022 
Q 1984 2375 1817 2545 
Q 1650 2716 1372 2716 
Q 1094 2716 919 2541 
Q 744 2366 744 2025 
Q 744 1681 931 1511 
Q 1119 1341 1366 1341 
z
M 2131 2734 
L 1922 2931 
Q 2038 3225 2252 3331 
Q 2466 3438 2794 3447 
L 2794 3006 
Q 2588 3006 2416 2961 
Q 2244 2916 2131 2734 
z
" transform="scale(0.015625)"/>
       <path id="AptosDisplay-68" d="M 413 0 
L 413 4206 
L 931 4206 
L 931 2575 
Q 1069 2756 1317 2914 
Q 1566 3072 1950 3072 
Q 2428 3072 2637 2783 
Q 2847 2494 2847 1963 
L 2847 0 
L 2328 0 
L 2328 1891 
Q 2328 2106 2287 2275 
Q 2247 2444 2139 2539 
Q 2031 2634 1822 2634 
Q 1503 2634 1284 2482 
Q 1066 2331 934 2156 
L 934 0 
L 413 0 
z
" transform="scale(0.015625)"/>
       <path id="AptosDisplay-74" d="M 1466 0 
Q 1100 0 901 117 
Q 703 234 629 454 
Q 556 675 556 984 
L 556 2622 
L 50 2622 
L 50 3044 
L 556 3044 
L 556 3741 
L 1078 3741 
L 1078 3044 
L 1831 3044 
L 1831 2622 
L 1078 2622 
L 1078 1009 
Q 1078 725 1151 575 
Q 1225 425 1500 425 
L 1831 425 
L 1831 0 
L 1466 0 
z
" transform="scale(0.015625)"/>
       <path id="AptosDisplay-57" d="M 1216 0 
L -13 4206 
L 575 4206 
L 1525 697 
L 2531 4206 
L 3156 4206 
L 4163 697 
L 5119 4206 
L 5681 4206 
L 4453 0 
L 3866 0 
L 2831 3556 
L 1813 0 
L 1216 0 
z
" transform="scale(0.015625)"/>
       <path id="AptosDisplay-2f" d="M 72 0 
L 1603 4206 
L 2100 4206 
L 569 0 
L 72 0 
z
" transform="scale(0.015625)"/>
       <path id="AptosDisplay-5e" d="M 428 2438 
L 1459 4206 
L 1884 4206 
L 2916 2438 
L 2366 2438 
L 1672 3650 
L 978 2438 
L 428 2438 
z
" transform="scale(0.015625)"/>
      </defs>
      <use xlink:href="#AptosDisplay-4c"/>
      <use xlink:href="#AptosDisplay-69" x="48.4375"/>
      <use xlink:href="#AptosDisplay-67" x="69.482422"/>
      <use xlink:href="#AptosDisplay-68" x="113.427734"/>
      <use xlink:href="#AptosDisplay-74" x="164.013672"/>
      <use xlink:href="#AptosDisplay-20" x="194.384766"/>
      <use xlink:href="#AptosDisplay-28" x="213.671875"/>
      <use xlink:href="#AptosDisplay-57" x="243.115234"/>
      <use xlink:href="#AptosDisplay-2f" x="331.689453"/>
      <use xlink:href="#AptosDisplay-6d" x="365.625"/>
      <use xlink:href="#AptosDisplay-5e" x="445.605469"/>
      <use xlink:href="#AptosDisplay-32" x="497.900391"/>
      <use xlink:href="#AptosDisplay-29" x="550.195312"/>
     </g>
    </g>
   </g>
   <g id="line2d_143">
    <path d="M 125.717614 292.619013 
L 126.393215 288.895946 
L 127.068817 281.452626 
L 127.744419 256.640622 
L 128.42002 266.565987 
L 129.095622 286.413902 
L 129.771224 297.580289 
L 131.122427 292.619013 
L 131.798029 292.619013 
L 132.473631 285.175694 
L 133.149232 275.250329 
L 133.824834 275.250329 
L 134.500436 286.413902 
L 135.176038 285.175694 
L 135.851639 282.693649 
L 136.527241 285.175694 
L 137.202843 280.211604 
L 137.878444 287.654924 
L 138.554046 281.452626 
L 139.229648 281.452626 
L 139.905249 275.250329 
L 140.580851 291.377991 
L 141.256453 293.857222 
L 141.932055 283.934671 
L 142.607656 293.857222 
L 143.283258 312.466929 
L 143.95886 297.580289 
L 144.634461 300.062333 
L 145.310063 288.895946 
L 145.985665 297.580289 
L 146.661267 343.484045 
L 147.336868 300.062333 
L 148.01247 301.303356 
L 148.688072 303.782586 
L 149.363673 295.098244 
L 150.039275 311.22872 
L 150.714877 292.619013 
L 151.390479 288.895946 
L 152.06608 317.431018 
L 152.741682 287.654924 
L 153.417284 277.729559 
L 154.092885 277.729559 
L 154.768487 278.970582 
L 155.444089 266.565987 
L 156.11969 264.083942 
L 156.795292 264.083942 
L 157.470894 270.286239 
L 158.146496 262.842919 
L 158.822097 266.565987 
L 159.497699 266.565987 
L 160.173301 272.768284 
L 160.848902 271.527262 
L 161.524504 322.392293 
L 162.200106 285.175694 
L 162.875708 290.136969 
L 163.551309 285.175694 
L 164.226911 287.654924 
L 164.902513 296.339266 
L 165.578114 291.377991 
L 166.253716 287.654924 
L 166.929318 288.895946 
L 167.60492 283.934671 
L 168.280521 282.693649 
L 168.956123 282.693649 
L 169.631725 277.729559 
L 170.307326 282.693649 
L 171.65853 270.286239 
L 172.334131 275.250329 
L 173.009733 264.083942 
L 173.685335 267.807009 
L 174.360937 269.045217 
L 175.036538 275.250329 
L 175.71214 270.286239 
L 176.387742 266.565987 
L 177.063343 269.045217 
L 177.738945 269.045217 
L 179.090149 266.565987 
L 179.76575 262.842919 
L 180.441352 261.601897 
L 181.116954 262.842919 
L 181.792555 260.360875 
L 182.468157 249.197302 
L 183.143759 247.95628 
L 183.819361 239.271937 
L 184.494962 247.95628 
L 185.170564 250.438324 
L 185.846166 244.233212 
L 186.521767 218.180185 
L 187.197369 249.197302 
L 187.872971 242.99219 
L 188.548572 251.676532 
L 189.224174 252.917555 
L 189.899776 240.51296 
L 190.575378 255.399599 
L 191.250979 247.95628 
L 191.926581 251.676532 
L 192.602183 259.122667 
L 193.277784 247.95628 
L 193.953386 252.917555 
L 194.628988 259.122667 
L 195.30459 261.601897 
L 195.980191 259.122667 
L 196.655793 259.122667 
L 197.331395 260.360875 
L 198.006996 264.083942 
L 198.682598 269.045217 
L 199.3582 264.083942 
L 200.033801 265.324964 
L 200.709403 228.10555 
L 201.385005 250.438324 
L 202.060607 252.917555 
L 202.736208 247.95628 
L 203.41181 278.970582 
L 204.087412 240.51296 
L 204.763013 244.233212 
L 206.114217 234.307848 
L 206.789819 233.06964 
L 208.141022 228.10555 
L 208.816624 218.180185 
L 209.492225 229.346573 
L 210.167827 228.10555 
L 210.843429 266.565987 
L 211.519031 238.030915 
L 212.194632 230.587595 
L 212.870234 230.587595 
L 213.545836 235.54887 
L 214.221437 229.346573 
L 214.897039 226.864528 
L 215.572641 230.587595 
L 216.248242 235.54887 
L 216.923844 234.307848 
L 217.599446 238.030915 
L 218.275048 244.233212 
L 218.950649 256.640622 
L 219.626251 241.753982 
L 220.301853 241.753982 
L 220.977454 244.233212 
L 221.653056 247.95628 
L 222.328658 244.233212 
L 223.00426 241.753982 
L 224.355463 244.233212 
L 225.031065 247.95628 
L 225.706666 254.158577 
L 226.382268 246.715257 
L 227.05787 247.95628 
L 227.733472 252.917555 
L 228.409073 249.197302 
L 229.084675 251.676532 
L 229.760277 250.438324 
L 230.435878 254.158577 
L 231.11148 259.122667 
L 231.787082 280.211604 
L 232.462683 262.842919 
L 233.138285 265.324964 
L 233.813887 262.842919 
L 234.489489 262.842919 
L 235.16509 259.122667 
L 235.840692 257.881644 
L 237.191895 262.842919 
L 237.867497 264.083942 
L 239.218701 254.158577 
L 239.894302 250.438324 
L 240.569904 252.917555 
L 241.245506 250.438324 
L 241.921107 246.715257 
L 242.596709 240.51296 
L 243.272311 245.474235 
L 243.947912 240.51296 
L 244.623514 252.917555 
L 245.299116 240.51296 
L 245.974718 239.271937 
L 246.650319 235.54887 
L 247.325921 235.54887 
L 248.001523 234.307848 
L 248.677124 236.789892 
L 249.352726 246.715257 
L 250.028328 246.715257 
L 250.70393 247.95628 
L 251.379531 239.271937 
L 252.055133 240.51296 
L 252.730735 234.307848 
L 253.406336 235.54887 
L 254.081938 239.271937 
L 254.75754 240.51296 
L 255.433142 188.406906 
L 256.108743 231.828617 
L 256.784345 235.54887 
L 257.459947 233.06964 
L 258.135548 231.828617 
L 258.81115 235.54887 
L 259.486752 223.144275 
L 260.162353 228.10555 
L 260.837955 239.271937 
L 261.513557 236.789892 
L 262.189159 260.360875 
L 262.86476 247.95628 
L 263.540362 254.158577 
L 264.891565 254.158577 
L 265.567167 260.360875 
L 266.242769 260.360875 
L 267.593972 262.842919 
L 268.269574 265.324964 
L 268.945176 224.385297 
L 269.620777 262.842919 
L 270.296379 269.045217 
L 270.971981 270.286239 
L 271.647583 272.768284 
L 272.323184 269.045217 
L 272.998786 262.842919 
L 273.674388 260.360875 
L 274.349989 252.917555 
L 275.025591 249.197302 
L 275.701193 275.250329 
L 276.376794 240.51296 
L 277.052396 230.587595 
L 277.727998 223.144275 
L 278.4036 218.180185 
L 279.079201 208.254821 
L 279.754803 203.293546 
L 280.430405 188.406906 
L 281.106006 183.442816 
L 281.781608 177.240519 
L 282.45721 177.240519 
L 283.132812 171.038221 
L 283.808413 173.520266 
L 284.484015 168.556176 
L 285.159617 174.758474 
L 285.835218 172.279243 
L 286.51082 168.556176 
L 287.186422 171.038221 
L 287.862024 175.999496 
L 288.537625 178.481541 
L 289.213227 173.520266 
L 289.888829 179.722563 
L 290.56443 172.279243 
L 291.240032 166.074132 
L 291.915634 174.758474 
L 292.591235 171.038221 
L 293.266837 174.758474 
L 293.942439 182.201794 
L 294.618041 171.038221 
L 295.293642 171.038221 
L 295.969244 178.481541 
L 296.644846 174.758474 
L 297.320447 179.722563 
L 297.996049 171.038221 
L 298.671651 178.481541 
L 299.347253 174.758474 
L 300.022854 182.201794 
L 300.698456 178.481541 
L 301.374058 188.406906 
L 302.725261 183.442816 
L 303.400863 179.722563 
L 304.076464 195.850226 
L 304.752066 182.201794 
L 305.427668 193.368181 
L 307.454473 189.647928 
L 308.130075 194.609203 
L 308.805676 190.886136 
L 309.481278 188.406906 
L 310.15688 203.293546 
L 310.832482 200.811501 
L 311.508083 193.368181 
L 312.183685 194.609203 
L 313.534888 204.534568 
L 314.21049 207.016613 
L 314.886092 197.091248 
L 315.561694 207.016613 
L 316.237295 203.293546 
L 316.916275 249.197302 
L 317.588499 209.495843 
L 318.2641 211.977888 
L 318.94308 218.180185 
L 319.618682 223.144275 
L 320.294283 215.700955 
L 320.969885 204.534568 
L 321.645487 213.21891 
L 322.99669 197.091248 
L 323.672292 199.570478 
L 324.347894 199.570478 
L 325.023495 198.33227 
L 325.699097 192.127158 
L 326.374699 194.609203 
L 327.050301 192.127158 
L 329.752707 184.683839 
L 331.103911 199.570478 
L 331.779513 195.850226 
L 332.455114 199.570478 
L 333.130716 195.850226 
L 333.806318 190.886136 
L 334.481919 189.647928 
L 335.157521 209.495843 
L 336.508724 179.722563 
L 337.184326 180.963586 
L 337.859928 183.442816 
L 338.53553 169.797199 
L 339.211131 164.835923 
L 339.886733 161.112856 
L 340.562335 154.910559 
L 341.237936 153.669536 
L 341.913538 158.630812 
L 342.58914 156.151581 
L 343.264742 156.151581 
L 343.940343 151.187492 
L 344.615945 158.630812 
L 345.291547 158.630812 
L 345.967148 169.797199 
L 346.64275 163.594901 
L 347.318352 303.782586 
L 347.993954 171.038221 
L 348.669555 174.758474 
L 349.345157 182.201794 
L 350.020759 179.722563 
L 351.371962 179.722563 
L 352.047564 182.201794 
L 352.723165 178.481541 
L 353.398767 195.850226 
L 354.074369 180.963586 
L 354.749971 178.481541 
L 355.425572 172.279243 
L 356.101174 180.963586 
L 356.776776 182.201794 
L 357.452377 180.963586 
L 358.127979 180.963586 
L 358.803581 175.999496 
L 359.479183 189.647928 
L 360.154784 190.886136 
L 360.830386 187.165883 
L 361.505988 210.736865 
L 362.181589 188.406906 
L 363.532793 193.368181 
L 364.208394 199.570478 
L 364.883996 199.570478 
L 365.559598 204.534568 
L 366.2352 205.77559 
L 366.910801 205.77559 
L 367.586403 203.293546 
L 368.262005 213.21891 
L 368.937606 208.254821 
L 369.613208 216.939163 
L 370.28881 223.144275 
L 370.964412 221.903253 
L 371.640013 224.385297 
L 372.315615 242.99219 
L 372.991217 215.700955 
L 373.666818 223.144275 
L 374.34242 228.10555 
L 375.018022 234.307848 
L 375.693624 223.144275 
L 376.369225 230.587595 
L 377.044827 229.346573 
L 378.39603 231.828617 
L 379.071632 225.623505 
L 379.747234 246.715257 
L 380.422835 229.346573 
L 381.098437 231.828617 
L 381.774039 231.828617 
L 382.449641 236.789892 
L 383.125242 236.789892 
L 383.800844 264.083942 
L 384.476446 245.474235 
L 385.152047 250.438324 
L 385.827649 246.715257 
L 386.503251 255.399599 
L 387.178853 256.640622 
L 387.854454 264.083942 
L 388.530056 266.565987 
L 389.205658 277.729559 
L 389.881259 278.970582 
L 390.556861 403.033419 
L 391.232463 288.895946 
L 391.908065 295.098244 
L 392.583666 295.098244 
L 393.259268 301.303356 
L 393.93487 305.023609 
L 394.610471 305.023609 
L 395.286073 309.987698 
L 395.961675 313.707951 
L 396.637276 323.633316 
L 397.312878 344.725067 
L 397.98848 329.835613 
L 398.664082 339.760978 
L 399.339683 347.204298 
L 400.015285 349.686343 
L 400.690887 358.370685 
L 401.366488 359.611707 
L 402.04209 365.814005 
L 402.717692 368.29605 
L 403.393294 372.016303 
L 404.068895 225.623505 
L 404.744497 378.221414 
L 406.0957 378.221414 
L 406.771302 373.257325 
L 407.446904 376.980392 
L 408.122505 353.40941 
L 408.798107 379.462437 
L 409.473709 374.498347 
L 410.149311 349.686343 
L 410.824912 374.498347 
L 411.500514 378.221414 
L 412.176116 378.221414 
L 412.851717 372.016303 
L 414.202921 372.016303 
L 414.878523 379.462437 
L 415.554124 363.33196 
L 416.229726 370.778094 
L 416.905328 364.572983 
L 417.580929 369.537072 
L 418.256531 369.537072 
L 418.932133 365.814005 
L 420.283336 370.778094 
L 420.958938 370.778094 
L 421.63454 374.498347 
L 422.310141 430.327468 
L 422.985743 375.73937 
L 423.661345 386.905757 
L 424.336946 386.905757 
L 425.012548 384.423712 
L 426.363752 391.867032 
L 427.039353 390.62601 
L 427.714955 386.905757 
L 428.390557 384.423712 
L 429.066158 389.384987 
L 429.74176 385.664734 
L 430.417362 375.73937 
L 431.092964 369.537072 
L 431.768565 373.257325 
L 432.444167 370.778094 
L 433.119769 364.572983 
L 433.79537 363.33196 
L 434.470972 354.647618 
L 435.146574 368.29605 
L 435.822176 364.572983 
L 436.497777 363.33196 
L 437.173379 369.537072 
L 437.848981 373.257325 
L 438.524582 388.146779 
L 439.200184 375.73937 
L 439.875786 375.73937 
L 440.551387 378.221414 
L 441.226989 376.980392 
L 441.902591 370.778094 
L 442.578193 370.778094 
L 443.253794 357.129663 
L 443.929396 364.572983 
L 444.604998 347.204298 
L 445.280599 481.1925 
L 445.956201 347.204298 
L 446.631803 333.55868 
L 447.307405 314.948973 
L 448.658608 295.098244 
L 450.009811 282.693649 
L 450.685413 282.693649 
L 451.361015 276.491351 
L 452.036616 265.324964 
L 452.712218 327.356383 
L 453.38782 261.601897 
L 454.063422 259.122667 
L 454.739023 257.881644 
L 455.414625 259.122667 
L 456.090227 259.122667 
L 456.765828 249.197302 
L 458.117032 244.233212 
L 458.792634 238.030915 
L 459.468235 238.030915 
L 460.143837 240.51296 
L 460.819439 233.06964 
L 461.49504 235.54887 
L 462.170642 235.54887 
L 462.846244 234.307848 
L 463.521846 241.753982 
L 464.197447 257.881644 
L 464.873049 225.623505 
L 465.548651 239.271937 
L 466.899854 223.144275 
L 467.575456 228.10555 
L 468.251057 228.10555 
L 468.926659 223.144275 
L 469.602261 233.06964 
L 470.277863 236.789892 
L 470.953464 228.10555 
L 471.629066 224.385297 
L 472.304668 236.789892 
L 472.980269 221.903253 
L 473.655871 218.180185 
L 474.331473 236.789892 
L 475.007075 219.421208 
L 475.682676 220.66223 
L 476.358278 219.421208 
L 477.03388 216.939163 
L 477.709481 215.700955 
L 478.385083 220.66223 
L 479.060685 224.385297 
L 479.736287 213.21891 
L 480.411888 221.903253 
L 481.08749 215.700955 
L 481.763092 202.052523 
L 482.438693 214.459933 
L 483.114295 219.421208 
L 483.789897 214.459933 
L 484.465498 213.21891 
L 485.816702 215.700955 
L 486.492304 225.623505 
L 487.843507 215.700955 
L 488.519109 220.66223 
L 489.870312 233.06964 
L 490.545914 229.346573 
L 491.221516 233.06964 
L 491.897117 228.10555 
L 492.572719 269.045217 
L 493.248321 238.030915 
L 493.923922 242.99219 
L 494.599524 77.9925 
L 495.275126 244.233212 
L 495.950728 240.51296 
L 496.626329 241.753982 
L 497.301931 241.753982 
L 497.977533 238.030915 
L 498.653134 241.753982 
L 499.328736 238.030915 
L 500.004338 238.030915 
L 500.679939 247.95628 
L 501.355541 235.54887 
L 502.031143 238.030915 
L 502.706745 239.271937 
L 503.382346 236.789892 
L 504.057948 230.587595 
L 505.409151 220.66223 
L 506.084753 225.623505 
L 506.760355 226.864528 
L 507.435957 225.623505 
L 508.111558 213.21891 
L 508.78716 216.939163 
L 509.462762 210.736865 
L 510.141741 202.052523 
L 510.813965 216.939163 
L 511.492945 214.459933 
L 512.168546 215.700955 
L 512.844148 210.736865 
L 513.51975 211.977888 
L 514.195352 193.368181 
L 514.870953 209.495843 
L 515.546555 214.459933 
L 516.222157 174.758474 
L 516.897758 205.77559 
L 517.57336 208.254821 
L 518.248962 205.77559 
L 518.924564 207.016613 
L 519.600165 204.534568 
L 520.275767 199.570478 
L 520.951369 199.570478 
L 521.62697 219.421208 
L 522.302572 203.293546 
L 522.978174 223.144275 
L 524.329377 190.886136 
L 525.680581 198.33227 
L 526.356182 204.534568 
L 527.031784 189.647928 
L 527.707386 198.33227 
L 528.382987 216.939163 
L 529.058589 199.570478 
L 529.734191 199.570478 
L 530.409793 192.127158 
L 531.085394 198.33227 
L 533.787801 202.052523 
L 534.463403 207.016613 
L 535.139005 238.030915 
L 535.814606 207.016613 
L 536.490208 208.254821 
L 537.16581 214.459933 
L 537.841411 215.700955 
L 538.517013 213.21891 
L 539.192615 189.647928 
L 539.868217 209.495843 
L 540.543818 213.21891 
L 541.21942 211.977888 
L 541.895022 207.016613 
L 542.570623 213.21891 
L 543.246225 208.254821 
L 543.921827 214.459933 
L 544.597428 211.977888 
L 545.27303 208.254821 
L 545.948632 200.811501 
L 546.624234 219.421208 
L 547.299835 202.052523 
L 547.975437 204.534568 
L 549.32664 225.623505 
L 550.002242 210.736865 
L 550.677844 198.33227 
L 551.353446 203.293546 
L 552.029047 202.052523 
L 552.704649 199.570478 
L 553.380251 199.570478 
L 554.055852 203.293546 
L 554.731454 202.052523 
L 555.407056 202.052523 
L 556.082658 205.77559 
L 556.758259 204.534568 
L 557.433861 208.254821 
L 558.109463 205.77559 
L 558.785064 202.052523 
L 559.460666 213.21891 
L 560.811869 218.180185 
L 561.487471 210.736865 
L 562.163073 205.77559 
L 562.838675 213.21891 
L 563.514276 210.736865 
L 564.189878 209.495843 
L 564.86548 215.700955 
L 565.541081 211.977888 
L 566.216683 216.939163 
L 566.892285 209.495843 
L 567.567887 209.495843 
L 568.243488 213.21891 
L 568.91909 205.77559 
L 569.594692 209.495843 
L 570.270293 198.33227 
L 570.945895 197.091248 
L 571.621497 202.052523 
L 572.297098 195.850226 
L 572.9727 194.609203 
L 573.648302 194.609203 
L 574.323904 183.442816 
L 574.999505 183.442816 
L 575.675107 190.886136 
L 576.350709 192.127158 
L 577.02631 188.406906 
L 577.701912 193.368181 
L 578.377514 190.886136 
L 579.053116 204.534568 
L 579.728717 208.254821 
L 580.404319 194.609203 
L 581.079921 207.016613 
L 581.755522 207.016613 
L 582.431124 204.534568 
L 583.106726 205.77559 
L 583.782328 205.77559 
L 584.457929 203.293546 
L 585.133531 209.495843 
L 585.809133 208.254821 
L 586.484734 203.293546 
L 587.835938 210.736865 
L 588.511539 204.534568 
L 589.187141 204.534568 
L 589.862743 214.459933 
L 590.538345 199.570478 
L 591.213946 203.293546 
L 591.889548 203.293546 
L 592.56515 193.368181 
L 593.240751 197.091248 
L 593.916353 190.886136 
L 594.591955 198.33227 
L 595.267557 198.33227 
L 595.943158 193.368181 
L 596.61876 205.77559 
L 597.294362 184.683839 
L 597.969963 188.406906 
L 598.645565 188.406906 
L 599.321167 187.165883 
L 599.996769 187.165883 
L 600.67237 182.201794 
L 601.347972 183.442816 
L 602.023574 187.165883 
L 602.699175 188.406906 
L 603.374777 183.442816 
L 604.050379 174.758474 
L 604.72598 180.963586 
L 605.401582 199.570478 
L 606.077184 190.886136 
L 606.752786 199.570478 
L 607.428387 192.127158 
L 608.103989 180.963586 
L 608.779591 173.520266 
L 609.455192 182.201794 
L 610.130794 183.442816 
L 610.806396 179.722563 
L 611.481998 178.481541 
L 612.157599 178.481541 
L 612.833201 174.758474 
L 613.508803 180.963586 
L 614.184404 179.722563 
L 614.860006 179.722563 
L 615.535608 175.999496 
L 616.211209 179.722563 
L 616.886811 173.520266 
L 618.238015 178.481541 
L 618.913616 172.279243 
L 619.589218 178.481541 
L 620.26482 171.038221 
L 620.940421 174.758474 
L 621.616023 171.038221 
L 622.291625 173.520266 
L 622.967227 177.240519 
L 623.642828 167.315154 
L 624.31843 174.758474 
L 624.994032 166.074132 
L 625.669633 233.06964 
L 626.345235 171.038221 
L 627.020837 156.151581 
L 627.696439 167.315154 
L 629.047642 167.315154 
L 629.723244 163.594901 
L 630.398845 168.556176 
L 631.074447 164.835923 
L 631.750049 130.098554 
L 632.42565 159.871834 
L 633.101252 168.556176 
L 633.776854 171.038221 
L 634.452456 161.112856 
L 635.128057 164.835923 
L 635.803659 163.594901 
L 636.479261 171.038221 
L 637.154862 172.279243 
L 637.830464 171.038221 
L 638.506066 177.240519 
L 639.181668 175.999496 
L 639.857269 179.722563 
L 640.532871 286.413902 
L 641.208473 182.201794 
L 641.884074 185.924861 
L 642.559676 185.924861 
L 643.235278 188.406906 
L 643.91088 188.406906 
L 644.586481 183.442816 
L 645.262083 185.924861 
L 645.937685 183.442816 
L 646.613286 211.977888 
L 647.288888 179.722563 
L 647.96449 179.722563 
L 649.315693 177.240519 
L 649.991295 172.279243 
L 651.342498 174.758474 
L 652.0181 171.038221 
L 652.693702 166.074132 
L 653.369303 166.074132 
L 654.044905 162.353879 
L 654.720507 162.353879 
L 655.396109 156.151581 
L 656.07171 154.910559 
L 656.747312 152.428514 
L 657.422914 154.910559 
L 658.098515 154.910559 
L 658.774117 149.946469 
L 659.449719 159.871834 
L 660.125321 158.630812 
L 660.800922 163.594901 
L 661.476524 175.999496 
L 662.152126 168.556176 
L 662.827727 166.074132 
L 664.178931 163.594901 
L 664.854532 166.074132 
L 665.530134 163.594901 
L 666.205736 164.835923 
L 666.881338 169.797199 
L 667.556939 157.389789 
L 668.232541 158.630812 
L 668.908143 161.112856 
L 669.583744 154.910559 
L 670.259346 156.151581 
L 670.934948 162.353879 
L 671.61055 157.389789 
L 672.286151 162.353879 
L 672.961753 154.910559 
L 673.637355 159.871834 
L 674.312956 162.353879 
L 674.988558 169.797199 
L 675.66416 162.353879 
L 676.339761 161.112856 
L 677.015363 162.353879 
L 677.690965 166.074132 
L 678.366567 167.315154 
L 679.042168 166.074132 
L 679.71777 169.797199 
L 681.744575 169.797199 
L 682.420177 174.758474 
L 683.095779 172.279243 
L 683.77138 174.758474 
L 684.446982 172.279243 
L 685.122584 173.520266 
L 685.798185 169.797199 
L 686.473787 168.556176 
L 687.149389 163.594901 
L 687.824991 172.279243 
L 688.500592 163.594901 
L 689.176194 158.630812 
L 689.851796 149.946469 
L 690.527397 138.782896 
L 691.202999 144.985194 
L 691.878601 144.985194 
L 692.554202 140.021105 
L 693.229804 138.782896 
L 693.905406 140.021105 
L 695.256609 135.059829 
L 695.932211 164.835923 
L 696.607813 147.467239 
L 697.959016 154.910559 
L 698.634618 167.315154 
L 699.31022 173.520266 
L 699.985821 175.999496 
L 700.661423 182.201794 
L 701.337025 218.180185 
L 702.016004 193.368181 
L 702.691606 199.570478 
L 703.367208 198.33227 
L 704.04281 208.254821 
L 704.718411 211.977888 
L 705.394013 218.180185 
L 706.069615 228.10555 
L 706.745216 229.346573 
L 707.420818 234.307848 
L 708.09642 234.307848 
L 708.772021 230.587595 
L 709.447623 246.715257 
L 710.798827 254.158577 
L 711.474428 246.715257 
L 712.15003 255.399599 
L 712.825632 257.881644 
L 713.501233 256.640622 
L 714.176835 254.158577 
L 714.852437 247.95628 
L 715.528039 247.95628 
L 716.879242 255.399599 
L 717.554844 245.474235 
L 718.230445 245.474235 
L 718.906047 239.271937 
L 720.257251 259.122667 
L 720.932852 256.640622 
L 721.608454 257.881644 
L 722.284056 265.324964 
L 722.959657 271.527262 
L 723.635259 283.934671 
L 724.310861 288.895946 
L 724.986462 283.934671 
L 725.662064 300.062333 
L 726.337666 303.782586 
L 727.013268 311.22872 
L 727.688869 311.22872 
L 729.040073 327.356383 
L 729.715674 321.151271 
L 730.391276 319.913063 
L 731.066878 316.189996 
L 731.74248 367.055027 
L 732.418081 328.597405 
L 733.093683 327.356383 
L 733.769285 332.317658 
L 734.444886 334.799703 
L 734.444886 334.799703 
" clip-path="url(#p8550b3c3e9)" style="fill: none; stroke: #ac2b37; stroke-width: 1.5; stroke-linecap: square"/>
   </g>
   <g id="patch_3">
    <path d="M 95.28125 501.3525 
L 95.28125 57.8325 
" style="fill: none; stroke: #000000; stroke-width: 0.8; stroke-linejoin: miter; stroke-linecap: square"/>
   </g>
   <g id="patch_4">
    <path d="M 764.88125 501.3525 
L 764.88125 57.8325 
" style="fill: none; stroke: #000000; stroke-width: 0.8; stroke-linejoin: miter; stroke-linecap: square"/>
   </g>
   <g id="patch_5">
    <path d="M 95.28125 501.3525 
L 764.88125 501.3525 
" style="fill: none; stroke: #000000; stroke-width: 0.8; stroke-linejoin: miter; stroke-linecap: square"/>
   </g>
   <g id="patch_6">
    <path d="M 95.28125 57.8325 
L 764.88125 57.8325 
" style="fill: none; stroke: #000000; stroke-width: 0.8; stroke-linejoin: miter; stroke-linecap: square"/>
   </g>
   <g id="text_19">
    <!-- Light vs Time -->
    <g transform="translate(367.59875 51.8325) scale(0.24 -0.24)">
     <defs>
      <path id="AptosDisplay-76" d="M 1103 0 
L -13 3044 
L 538 3044 
L 1391 513 
L 2250 3044 
L 2781 3044 
L 1678 0 
L 1103 0 
z
" transform="scale(0.015625)"/>
      <path id="AptosDisplay-73" d="M 1506 -41 
Q 1247 -41 1017 14 
Q 788 69 613 191 
Q 438 313 339 506 
Q 241 700 241 978 
L 744 978 
Q 744 628 966 487 
Q 1188 347 1519 347 
Q 1816 347 2008 458 
Q 2200 569 2200 822 
Q 2200 1047 2026 1153 
Q 1853 1259 1413 1369 
Q 1056 1453 815 1564 
Q 575 1675 453 1845 
Q 331 2016 331 2275 
Q 331 2475 417 2626 
Q 503 2778 658 2879 
Q 813 2981 1020 3032 
Q 1228 3084 1472 3084 
Q 1713 3084 1923 3028 
Q 2134 2972 2296 2855 
Q 2459 2738 2551 2552 
Q 2644 2366 2644 2109 
L 2138 2109 
Q 2138 2425 1945 2558 
Q 1753 2691 1472 2691 
Q 1191 2691 1016 2594 
Q 841 2497 841 2291 
Q 841 2169 919 2084 
Q 997 2000 1181 1933 
Q 1366 1866 1675 1791 
Q 2019 1709 2248 1596 
Q 2478 1484 2595 1306 
Q 2713 1128 2713 847 
Q 2713 616 2622 447 
Q 2531 278 2367 170 
Q 2203 63 1983 11 
Q 1763 -41 1506 -41 
z
" transform="scale(0.015625)"/>
     </defs>
     <use xlink:href="#AptosDisplay-4c"/>
     <use xlink:href="#AptosDisplay-69" x="48.4375"/>
     <use xlink:href="#AptosDisplay-67" x="69.482422"/>
     <use xlink:href="#AptosDisplay-68" x="113.427734"/>
     <use xlink:href="#AptosDisplay-74" x="164.013672"/>
     <use xlink:href="#AptosDisplay-20" x="194.384766"/>
     <use xlink:href="#AptosDisplay-76" x="213.671875"/>
     <use xlink:href="#AptosDisplay-73" x="256.933594"/>
     <use xlink:href="#AptosDisplay-20" x="303.222656"/>
     <use xlink:href="#AptosDisplay-54" x="322.509766"/>
     <use xlink:href="#AptosDisplay-69" x="370.214844"/>
     <use xlink:href="#AptosDisplay-6d" x="391.259766"/>
     <use xlink:href="#AptosDisplay-65" x="471.240234"/>
    </g>
   </g>
  </g>
 </g>
 <defs>
  <clipPath id="p8550b3c3e9">
   <rect x="95.28125" y="57.8325" width="669.6" height="443.52"/>
  </clipPath>
 </defs>
</svg>
