<?xml version="1.0" encoding="utf-8" standalone="no"?>
<!DOCTYPE svg PUBLIC "-//W3C//DTD SVG 1.1//EN"
  "http://www.w3.org/Graphics/SVG/1.1/DTD/svg11.dtd">
<svg xmlns:xlink="http://www.w3.org/1999/xlink" width="790.265625pt" height="581.830625pt" viewBox="0 0 790.265625 581.830625" xmlns="http://www.w3.org/2000/svg" version="1.1">
 <metadata>
  <rdf:RDF xmlns:dc="http://purl.org/dc/elements/1.1/" xmlns:cc="http://creativecommons.org/ns#" xmlns:rdf="http://www.w3.org/1999/02/22-rdf-syntax-ns#">
   <cc:Work>
    <dc:type rdf:resource="http://purl.org/dc/dcmitype/StillImage"/>
    <dc:date>2025-04-03T01:48:29.933349</dc:date>
    <dc:format>image/svg+xml</dc:format>
    <dc:creator>
     <cc:Agent>
      <dc:title>Matplotlib v3.8.2, https://matplotlib.org/</dc:title>
     </cc:Agent>
    </dc:creator>
   </cc:Work>
  </rdf:RDF>
 </metadata>
 <defs>
  <style type="text/css">*{stroke-linejoin: round; stroke-linecap: butt}</style>
 </defs>
 <g id="figure_1">
  <g id="patch_1">
   <path d="M 0 581.830625 
L 790.265625 581.830625 
L 790.265625 0 
L 0 0 
z
" style="fill: #ffffff"/>
  </g>
  <g id="axes_1">
   <g id="patch_2">
    <path d="M 84.665625 501.3525 
L 754.265625 501.3525 
L 754.265625 57.8325 
L 84.665625 57.8325 
z
" style="fill: #ffffff"/>
   </g>
   <g id="matplotlib.axis_1">
    <g id="xtick_1">
     <g id="line2d_1">
      <path d="M 114.375717 501.3525 
L 114.375717 57.8325 
" clip-path="url(#p0ee69583f7)" style="fill: none; stroke: #b0b0b0; stroke-opacity: 0.8; stroke-linecap: square"/>
     </g>
     <g id="line2d_2">
      <defs>
       <path id="ma8a84c795b" d="M 0 0 
L 0 3.5 
" style="stroke: #000000; stroke-width: 0.8"/>
      </defs>
      <g>
       <use xlink:href="#ma8a84c795b" x="114.375717" y="501.3525" style="stroke: #000000; stroke-width: 0.8"/>
      </g>
     </g>
     <g id="text_1">
      <!-- 0 -->
      <g transform="translate(109.146029 521.49625) scale(0.2 -0.2)">
       <defs>
        <path id="AptosDisplay-30" d="M 1672 -56 
Q 1291 -56 1028 105 
Q 766 266 605 552 
Q 444 838 372 1216 
Q 300 1594 300 2031 
Q 300 2475 372 2856 
Q 444 3238 605 3525 
Q 766 3813 1028 3973 
Q 1291 4134 1672 4134 
Q 2053 4134 2317 3975 
Q 2581 3816 2742 3527 
Q 2903 3238 2975 2858 
Q 3047 2478 3047 2038 
Q 3047 1597 2975 1217 
Q 2903 838 2742 552 
Q 2581 266 2318 105 
Q 2056 -56 1672 -56 
z
M 1672 409 
Q 1916 409 2073 550 
Q 2231 691 2322 925 
Q 2413 1159 2448 1448 
Q 2484 1738 2484 2038 
Q 2484 2338 2448 2628 
Q 2413 2919 2322 3153 
Q 2231 3388 2073 3527 
Q 1916 3666 1669 3666 
Q 1428 3666 1268 3527 
Q 1109 3388 1020 3153 
Q 931 2919 893 2628 
Q 856 2338 856 2038 
Q 856 1741 893 1450 
Q 931 1159 1020 925 
Q 1109 691 1268 550 
Q 1428 409 1672 409 
z
" transform="scale(0.015625)"/>
       </defs>
       <use xlink:href="#AptosDisplay-30"/>
      </g>
     </g>
    </g>
    <g id="xtick_2">
     <g id="line2d_3">
      <path d="M 198.82593 501.3525 
L 198.82593 57.8325 
" clip-path="url(#p0ee69583f7)" style="fill: none; stroke: #b0b0b0; stroke-opacity: 0.8; stroke-linecap: square"/>
     </g>
     <g id="line2d_4">
      <g>
       <use xlink:href="#ma8a84c795b" x="198.82593" y="501.3525" style="stroke: #000000; stroke-width: 0.8"/>
      </g>
     </g>
     <g id="text_2">
      <!-- 25 -->
      <g transform="translate(188.366555 521.49625) scale(0.2 -0.2)">
       <defs>
        <path id="AptosDisplay-32" d="M 247 0 
L 247 413 
L 1725 1741 
Q 2100 2081 2269 2351 
Q 2438 2622 2438 2938 
Q 2438 3256 2263 3461 
Q 2088 3666 1691 3666 
Q 1247 3666 1055 3439 
Q 863 3213 863 2869 
L 341 2869 
Q 341 3250 491 3534 
Q 641 3819 941 3975 
Q 1241 4131 1691 4131 
Q 2103 4131 2390 3986 
Q 2678 3841 2828 3578 
Q 2978 3316 2978 2959 
Q 2978 2638 2853 2375 
Q 2728 2113 2517 1883 
Q 2306 1653 2044 1425 
L 959 463 
L 3097 463 
L 3097 0 
L 247 0 
z
" transform="scale(0.015625)"/>
        <path id="AptosDisplay-35" d="M 1669 -56 
Q 1278 -56 964 83 
Q 650 222 465 483 
Q 281 744 281 1113 
L 816 1113 
Q 816 778 1055 584 
Q 1294 391 1669 391 
Q 2069 391 2291 625 
Q 2513 859 2513 1319 
Q 2513 1772 2291 1989 
Q 2069 2206 1697 2206 
Q 1409 2206 1223 2123 
Q 1038 2041 916 1894 
L 444 1894 
L 622 4078 
L 2788 4078 
L 2788 3613 
L 1041 3613 
L 931 2322 
Q 1044 2453 1251 2550 
Q 1459 2647 1775 2647 
Q 2131 2647 2420 2506 
Q 2709 2366 2881 2072 
Q 3053 1778 3053 1319 
Q 3053 863 2875 558 
Q 2697 253 2384 98 
Q 2072 -56 1669 -56 
z
" transform="scale(0.015625)"/>
       </defs>
       <use xlink:href="#AptosDisplay-32"/>
       <use xlink:href="#AptosDisplay-35" x="52.294922"/>
      </g>
     </g>
    </g>
    <g id="xtick_3">
     <g id="line2d_5">
      <path d="M 283.276144 501.3525 
L 283.276144 57.8325 
" clip-path="url(#p0ee69583f7)" style="fill: none; stroke: #b0b0b0; stroke-opacity: 0.8; stroke-linecap: square"/>
     </g>
     <g id="line2d_6">
      <g>
       <use xlink:href="#ma8a84c795b" x="283.276144" y="501.3525" style="stroke: #000000; stroke-width: 0.8"/>
      </g>
     </g>
     <g id="text_3">
      <!-- 50 -->
      <g transform="translate(272.816769 521.49625) scale(0.2 -0.2)">
       <use xlink:href="#AptosDisplay-35"/>
       <use xlink:href="#AptosDisplay-30" x="52.294922"/>
      </g>
     </g>
    </g>
    <g id="xtick_4">
     <g id="line2d_7">
      <path d="M 367.726357 501.3525 
L 367.726357 57.8325 
" clip-path="url(#p0ee69583f7)" style="fill: none; stroke: #b0b0b0; stroke-opacity: 0.8; stroke-linecap: square"/>
     </g>
     <g id="line2d_8">
      <g>
       <use xlink:href="#ma8a84c795b" x="367.726357" y="501.3525" style="stroke: #000000; stroke-width: 0.8"/>
      </g>
     </g>
     <g id="text_4">
      <!-- 75 -->
      <g transform="translate(357.266982 521.49625) scale(0.2 -0.2)">
       <defs>
        <path id="AptosDisplay-37" d="M 766 0 
L 2609 3600 
L 194 3600 
L 194 4078 
L 3141 4078 
L 3141 3622 
L 1334 0 
L 766 0 
z
" transform="scale(0.015625)"/>
       </defs>
       <use xlink:href="#AptosDisplay-37"/>
       <use xlink:href="#AptosDisplay-35" x="52.294922"/>
      </g>
     </g>
    </g>
    <g id="xtick_5">
     <g id="line2d_9">
      <path d="M 452.176571 501.3525 
L 452.176571 57.8325 
" clip-path="url(#p0ee69583f7)" style="fill: none; stroke: #b0b0b0; stroke-opacity: 0.8; stroke-linecap: square"/>
     </g>
     <g id="line2d_10">
      <g>
       <use xlink:href="#ma8a84c795b" x="452.176571" y="501.3525" style="stroke: #000000; stroke-width: 0.8"/>
      </g>
     </g>
     <g id="text_5">
      <!-- 100 -->
      <g transform="translate(436.487508 521.49625) scale(0.2 -0.2)">
       <defs>
        <path id="AptosDisplay-31" d="M 1659 0 
L 1659 3425 
Q 1575 3309 1420 3201 
Q 1266 3094 1052 3009 
Q 838 2925 578 2888 
L 578 3381 
Q 834 3425 1057 3540 
Q 1281 3656 1453 3806 
Q 1625 3956 1719 4094 
L 2206 4094 
L 2206 0 
L 1659 0 
z
" transform="scale(0.015625)"/>
       </defs>
       <use xlink:href="#AptosDisplay-31"/>
       <use xlink:href="#AptosDisplay-30" x="52.294922"/>
       <use xlink:href="#AptosDisplay-30" x="104.589844"/>
      </g>
     </g>
    </g>
    <g id="xtick_6">
     <g id="line2d_11">
      <path d="M 536.626784 501.3525 
L 536.626784 57.8325 
" clip-path="url(#p0ee69583f7)" style="fill: none; stroke: #b0b0b0; stroke-opacity: 0.8; stroke-linecap: square"/>
     </g>
     <g id="line2d_12">
      <g>
       <use xlink:href="#ma8a84c795b" x="536.626784" y="501.3525" style="stroke: #000000; stroke-width: 0.8"/>
      </g>
     </g>
     <g id="text_6">
      <!-- 125 -->
      <g transform="translate(520.937722 521.49625) scale(0.2 -0.2)">
       <use xlink:href="#AptosDisplay-31"/>
       <use xlink:href="#AptosDisplay-32" x="52.294922"/>
       <use xlink:href="#AptosDisplay-35" x="104.589844"/>
      </g>
     </g>
    </g>
    <g id="xtick_7">
     <g id="line2d_13">
      <path d="M 621.076998 501.3525 
L 621.076998 57.8325 
" clip-path="url(#p0ee69583f7)" style="fill: none; stroke: #b0b0b0; stroke-opacity: 0.8; stroke-linecap: square"/>
     </g>
     <g id="line2d_14">
      <g>
       <use xlink:href="#ma8a84c795b" x="621.076998" y="501.3525" style="stroke: #000000; stroke-width: 0.8"/>
      </g>
     </g>
     <g id="text_7">
      <!-- 150 -->
      <g transform="translate(605.387935 521.49625) scale(0.2 -0.2)">
       <use xlink:href="#AptosDisplay-31"/>
       <use xlink:href="#AptosDisplay-35" x="52.294922"/>
       <use xlink:href="#AptosDisplay-30" x="104.589844"/>
      </g>
     </g>
    </g>
    <g id="xtick_8">
     <g id="line2d_15">
      <path d="M 705.527211 501.3525 
L 705.527211 57.8325 
" clip-path="url(#p0ee69583f7)" style="fill: none; stroke: #b0b0b0; stroke-opacity: 0.8; stroke-linecap: square"/>
     </g>
     <g id="line2d_16">
      <g>
       <use xlink:href="#ma8a84c795b" x="705.527211" y="501.3525" style="stroke: #000000; stroke-width: 0.8"/>
      </g>
     </g>
     <g id="text_8">
      <!-- 175 -->
      <g transform="translate(689.838149 521.49625) scale(0.2 -0.2)">
       <use xlink:href="#AptosDisplay-31"/>
       <use xlink:href="#AptosDisplay-37" x="52.294922"/>
       <use xlink:href="#AptosDisplay-35" x="104.589844"/>
      </g>
     </g>
    </g>
    <g id="xtick_9">
     <g id="line2d_17">
      <path d="M 97.485674 501.3525 
L 97.485674 57.8325 
" clip-path="url(#p0ee69583f7)" style="fill: none; stroke-dasharray: 1.85,0.8; stroke-dashoffset: 0; stroke: #b0b0b0; stroke-opacity: 0.8; stroke-width: 0.5"/>
     </g>
     <g id="line2d_18">
      <defs>
       <path id="mc6fab17ec5" d="M 0 0 
L 0 2 
" style="stroke: #000000; stroke-width: 0.6"/>
      </defs>
      <g>
       <use xlink:href="#mc6fab17ec5" x="97.485674" y="501.3525" style="stroke: #000000; stroke-width: 0.6"/>
      </g>
     </g>
    </g>
    <g id="xtick_10">
     <g id="line2d_19">
      <path d="M 131.265759 501.3525 
L 131.265759 57.8325 
" clip-path="url(#p0ee69583f7)" style="fill: none; stroke-dasharray: 1.85,0.8; stroke-dashoffset: 0; stroke: #b0b0b0; stroke-opacity: 0.8; stroke-width: 0.5"/>
     </g>
     <g id="line2d_20">
      <g>
       <use xlink:href="#mc6fab17ec5" x="131.265759" y="501.3525" style="stroke: #000000; stroke-width: 0.6"/>
      </g>
     </g>
    </g>
    <g id="xtick_11">
     <g id="line2d_21">
      <path d="M 148.155802 501.3525 
L 148.155802 57.8325 
" clip-path="url(#p0ee69583f7)" style="fill: none; stroke-dasharray: 1.85,0.8; stroke-dashoffset: 0; stroke: #b0b0b0; stroke-opacity: 0.8; stroke-width: 0.5"/>
     </g>
     <g id="line2d_22">
      <g>
       <use xlink:href="#mc6fab17ec5" x="148.155802" y="501.3525" style="stroke: #000000; stroke-width: 0.6"/>
      </g>
     </g>
    </g>
    <g id="xtick_12">
     <g id="line2d_23">
      <path d="M 165.045845 501.3525 
L 165.045845 57.8325 
" clip-path="url(#p0ee69583f7)" style="fill: none; stroke-dasharray: 1.85,0.8; stroke-dashoffset: 0; stroke: #b0b0b0; stroke-opacity: 0.8; stroke-width: 0.5"/>
     </g>
     <g id="line2d_24">
      <g>
       <use xlink:href="#mc6fab17ec5" x="165.045845" y="501.3525" style="stroke: #000000; stroke-width: 0.6"/>
      </g>
     </g>
    </g>
    <g id="xtick_13">
     <g id="line2d_25">
      <path d="M 181.935888 501.3525 
L 181.935888 57.8325 
" clip-path="url(#p0ee69583f7)" style="fill: none; stroke-dasharray: 1.85,0.8; stroke-dashoffset: 0; stroke: #b0b0b0; stroke-opacity: 0.8; stroke-width: 0.5"/>
     </g>
     <g id="line2d_26">
      <g>
       <use xlink:href="#mc6fab17ec5" x="181.935888" y="501.3525" style="stroke: #000000; stroke-width: 0.6"/>
      </g>
     </g>
    </g>
    <g id="xtick_14">
     <g id="line2d_27">
      <path d="M 215.715973 501.3525 
L 215.715973 57.8325 
" clip-path="url(#p0ee69583f7)" style="fill: none; stroke-dasharray: 1.85,0.8; stroke-dashoffset: 0; stroke: #b0b0b0; stroke-opacity: 0.8; stroke-width: 0.5"/>
     </g>
     <g id="line2d_28">
      <g>
       <use xlink:href="#mc6fab17ec5" x="215.715973" y="501.3525" style="stroke: #000000; stroke-width: 0.6"/>
      </g>
     </g>
    </g>
    <g id="xtick_15">
     <g id="line2d_29">
      <path d="M 232.606016 501.3525 
L 232.606016 57.8325 
" clip-path="url(#p0ee69583f7)" style="fill: none; stroke-dasharray: 1.85,0.8; stroke-dashoffset: 0; stroke: #b0b0b0; stroke-opacity: 0.8; stroke-width: 0.5"/>
     </g>
     <g id="line2d_30">
      <g>
       <use xlink:href="#mc6fab17ec5" x="232.606016" y="501.3525" style="stroke: #000000; stroke-width: 0.6"/>
      </g>
     </g>
    </g>
    <g id="xtick_16">
     <g id="line2d_31">
      <path d="M 249.496058 501.3525 
L 249.496058 57.8325 
" clip-path="url(#p0ee69583f7)" style="fill: none; stroke-dasharray: 1.85,0.8; stroke-dashoffset: 0; stroke: #b0b0b0; stroke-opacity: 0.8; stroke-width: 0.5"/>
     </g>
     <g id="line2d_32">
      <g>
       <use xlink:href="#mc6fab17ec5" x="249.496058" y="501.3525" style="stroke: #000000; stroke-width: 0.6"/>
      </g>
     </g>
    </g>
    <g id="xtick_17">
     <g id="line2d_33">
      <path d="M 266.386101 501.3525 
L 266.386101 57.8325 
" clip-path="url(#p0ee69583f7)" style="fill: none; stroke-dasharray: 1.85,0.8; stroke-dashoffset: 0; stroke: #b0b0b0; stroke-opacity: 0.8; stroke-width: 0.5"/>
     </g>
     <g id="line2d_34">
      <g>
       <use xlink:href="#mc6fab17ec5" x="266.386101" y="501.3525" style="stroke: #000000; stroke-width: 0.6"/>
      </g>
     </g>
    </g>
    <g id="xtick_18">
     <g id="line2d_35">
      <path d="M 300.166186 501.3525 
L 300.166186 57.8325 
" clip-path="url(#p0ee69583f7)" style="fill: none; stroke-dasharray: 1.85,0.8; stroke-dashoffset: 0; stroke: #b0b0b0; stroke-opacity: 0.8; stroke-width: 0.5"/>
     </g>
     <g id="line2d_36">
      <g>
       <use xlink:href="#mc6fab17ec5" x="300.166186" y="501.3525" style="stroke: #000000; stroke-width: 0.6"/>
      </g>
     </g>
    </g>
    <g id="xtick_19">
     <g id="line2d_37">
      <path d="M 317.056229 501.3525 
L 317.056229 57.8325 
" clip-path="url(#p0ee69583f7)" style="fill: none; stroke-dasharray: 1.85,0.8; stroke-dashoffset: 0; stroke: #b0b0b0; stroke-opacity: 0.8; stroke-width: 0.5"/>
     </g>
     <g id="line2d_38">
      <g>
       <use xlink:href="#mc6fab17ec5" x="317.056229" y="501.3525" style="stroke: #000000; stroke-width: 0.6"/>
      </g>
     </g>
    </g>
    <g id="xtick_20">
     <g id="line2d_39">
      <path d="M 333.946272 501.3525 
L 333.946272 57.8325 
" clip-path="url(#p0ee69583f7)" style="fill: none; stroke-dasharray: 1.85,0.8; stroke-dashoffset: 0; stroke: #b0b0b0; stroke-opacity: 0.8; stroke-width: 0.5"/>
     </g>
     <g id="line2d_40">
      <g>
       <use xlink:href="#mc6fab17ec5" x="333.946272" y="501.3525" style="stroke: #000000; stroke-width: 0.6"/>
      </g>
     </g>
    </g>
    <g id="xtick_21">
     <g id="line2d_41">
      <path d="M 350.836315 501.3525 
L 350.836315 57.8325 
" clip-path="url(#p0ee69583f7)" style="fill: none; stroke-dasharray: 1.85,0.8; stroke-dashoffset: 0; stroke: #b0b0b0; stroke-opacity: 0.8; stroke-width: 0.5"/>
     </g>
     <g id="line2d_42">
      <g>
       <use xlink:href="#mc6fab17ec5" x="350.836315" y="501.3525" style="stroke: #000000; stroke-width: 0.6"/>
      </g>
     </g>
    </g>
    <g id="xtick_22">
     <g id="line2d_43">
      <path d="M 384.6164 501.3525 
L 384.6164 57.8325 
" clip-path="url(#p0ee69583f7)" style="fill: none; stroke-dasharray: 1.85,0.8; stroke-dashoffset: 0; stroke: #b0b0b0; stroke-opacity: 0.8; stroke-width: 0.5"/>
     </g>
     <g id="line2d_44">
      <g>
       <use xlink:href="#mc6fab17ec5" x="384.6164" y="501.3525" style="stroke: #000000; stroke-width: 0.6"/>
      </g>
     </g>
    </g>
    <g id="xtick_23">
     <g id="line2d_45">
      <path d="M 401.506443 501.3525 
L 401.506443 57.8325 
" clip-path="url(#p0ee69583f7)" style="fill: none; stroke-dasharray: 1.85,0.8; stroke-dashoffset: 0; stroke: #b0b0b0; stroke-opacity: 0.8; stroke-width: 0.5"/>
     </g>
     <g id="line2d_46">
      <g>
       <use xlink:href="#mc6fab17ec5" x="401.506443" y="501.3525" style="stroke: #000000; stroke-width: 0.6"/>
      </g>
     </g>
    </g>
    <g id="xtick_24">
     <g id="line2d_47">
      <path d="M 418.396485 501.3525 
L 418.396485 57.8325 
" clip-path="url(#p0ee69583f7)" style="fill: none; stroke-dasharray: 1.85,0.8; stroke-dashoffset: 0; stroke: #b0b0b0; stroke-opacity: 0.8; stroke-width: 0.5"/>
     </g>
     <g id="line2d_48">
      <g>
       <use xlink:href="#mc6fab17ec5" x="418.396485" y="501.3525" style="stroke: #000000; stroke-width: 0.6"/>
      </g>
     </g>
    </g>
    <g id="xtick_25">
     <g id="line2d_49">
      <path d="M 435.286528 501.3525 
L 435.286528 57.8325 
" clip-path="url(#p0ee69583f7)" style="fill: none; stroke-dasharray: 1.85,0.8; stroke-dashoffset: 0; stroke: #b0b0b0; stroke-opacity: 0.8; stroke-width: 0.5"/>
     </g>
     <g id="line2d_50">
      <g>
       <use xlink:href="#mc6fab17ec5" x="435.286528" y="501.3525" style="stroke: #000000; stroke-width: 0.6"/>
      </g>
     </g>
    </g>
    <g id="xtick_26">
     <g id="line2d_51">
      <path d="M 469.066613 501.3525 
L 469.066613 57.8325 
" clip-path="url(#p0ee69583f7)" style="fill: none; stroke-dasharray: 1.85,0.8; stroke-dashoffset: 0; stroke: #b0b0b0; stroke-opacity: 0.8; stroke-width: 0.5"/>
     </g>
     <g id="line2d_52">
      <g>
       <use xlink:href="#mc6fab17ec5" x="469.066613" y="501.3525" style="stroke: #000000; stroke-width: 0.6"/>
      </g>
     </g>
    </g>
    <g id="xtick_27">
     <g id="line2d_53">
      <path d="M 485.956656 501.3525 
L 485.956656 57.8325 
" clip-path="url(#p0ee69583f7)" style="fill: none; stroke-dasharray: 1.85,0.8; stroke-dashoffset: 0; stroke: #b0b0b0; stroke-opacity: 0.8; stroke-width: 0.5"/>
     </g>
     <g id="line2d_54">
      <g>
       <use xlink:href="#mc6fab17ec5" x="485.956656" y="501.3525" style="stroke: #000000; stroke-width: 0.6"/>
      </g>
     </g>
    </g>
    <g id="xtick_28">
     <g id="line2d_55">
      <path d="M 502.846699 501.3525 
L 502.846699 57.8325 
" clip-path="url(#p0ee69583f7)" style="fill: none; stroke-dasharray: 1.85,0.8; stroke-dashoffset: 0; stroke: #b0b0b0; stroke-opacity: 0.8; stroke-width: 0.5"/>
     </g>
     <g id="line2d_56">
      <g>
       <use xlink:href="#mc6fab17ec5" x="502.846699" y="501.3525" style="stroke: #000000; stroke-width: 0.6"/>
      </g>
     </g>
    </g>
    <g id="xtick_29">
     <g id="line2d_57">
      <path d="M 519.736741 501.3525 
L 519.736741 57.8325 
" clip-path="url(#p0ee69583f7)" style="fill: none; stroke-dasharray: 1.85,0.8; stroke-dashoffset: 0; stroke: #b0b0b0; stroke-opacity: 0.8; stroke-width: 0.5"/>
     </g>
     <g id="line2d_58">
      <g>
       <use xlink:href="#mc6fab17ec5" x="519.736741" y="501.3525" style="stroke: #000000; stroke-width: 0.6"/>
      </g>
     </g>
    </g>
    <g id="xtick_30">
     <g id="line2d_59">
      <path d="M 553.516827 501.3525 
L 553.516827 57.8325 
" clip-path="url(#p0ee69583f7)" style="fill: none; stroke-dasharray: 1.85,0.8; stroke-dashoffset: 0; stroke: #b0b0b0; stroke-opacity: 0.8; stroke-width: 0.5"/>
     </g>
     <g id="line2d_60">
      <g>
       <use xlink:href="#mc6fab17ec5" x="553.516827" y="501.3525" style="stroke: #000000; stroke-width: 0.6"/>
      </g>
     </g>
    </g>
    <g id="xtick_31">
     <g id="line2d_61">
      <path d="M 570.40687 501.3525 
L 570.40687 57.8325 
" clip-path="url(#p0ee69583f7)" style="fill: none; stroke-dasharray: 1.85,0.8; stroke-dashoffset: 0; stroke: #b0b0b0; stroke-opacity: 0.8; stroke-width: 0.5"/>
     </g>
     <g id="line2d_62">
      <g>
       <use xlink:href="#mc6fab17ec5" x="570.40687" y="501.3525" style="stroke: #000000; stroke-width: 0.6"/>
      </g>
     </g>
    </g>
    <g id="xtick_32">
     <g id="line2d_63">
      <path d="M 587.296912 501.3525 
L 587.296912 57.8325 
" clip-path="url(#p0ee69583f7)" style="fill: none; stroke-dasharray: 1.85,0.8; stroke-dashoffset: 0; stroke: #b0b0b0; stroke-opacity: 0.8; stroke-width: 0.5"/>
     </g>
     <g id="line2d_64">
      <g>
       <use xlink:href="#mc6fab17ec5" x="587.296912" y="501.3525" style="stroke: #000000; stroke-width: 0.6"/>
      </g>
     </g>
    </g>
    <g id="xtick_33">
     <g id="line2d_65">
      <path d="M 604.186955 501.3525 
L 604.186955 57.8325 
" clip-path="url(#p0ee69583f7)" style="fill: none; stroke-dasharray: 1.85,0.8; stroke-dashoffset: 0; stroke: #b0b0b0; stroke-opacity: 0.8; stroke-width: 0.5"/>
     </g>
     <g id="line2d_66">
      <g>
       <use xlink:href="#mc6fab17ec5" x="604.186955" y="501.3525" style="stroke: #000000; stroke-width: 0.6"/>
      </g>
     </g>
    </g>
    <g id="xtick_34">
     <g id="line2d_67">
      <path d="M 637.96704 501.3525 
L 637.96704 57.8325 
" clip-path="url(#p0ee69583f7)" style="fill: none; stroke-dasharray: 1.85,0.8; stroke-dashoffset: 0; stroke: #b0b0b0; stroke-opacity: 0.8; stroke-width: 0.5"/>
     </g>
     <g id="line2d_68">
      <g>
       <use xlink:href="#mc6fab17ec5" x="637.96704" y="501.3525" style="stroke: #000000; stroke-width: 0.6"/>
      </g>
     </g>
    </g>
    <g id="xtick_35">
     <g id="line2d_69">
      <path d="M 654.857083 501.3525 
L 654.857083 57.8325 
" clip-path="url(#p0ee69583f7)" style="fill: none; stroke-dasharray: 1.85,0.8; stroke-dashoffset: 0; stroke: #b0b0b0; stroke-opacity: 0.8; stroke-width: 0.5"/>
     </g>
     <g id="line2d_70">
      <g>
       <use xlink:href="#mc6fab17ec5" x="654.857083" y="501.3525" style="stroke: #000000; stroke-width: 0.6"/>
      </g>
     </g>
    </g>
    <g id="xtick_36">
     <g id="line2d_71">
      <path d="M 671.747126 501.3525 
L 671.747126 57.8325 
" clip-path="url(#p0ee69583f7)" style="fill: none; stroke-dasharray: 1.85,0.8; stroke-dashoffset: 0; stroke: #b0b0b0; stroke-opacity: 0.8; stroke-width: 0.5"/>
     </g>
     <g id="line2d_72">
      <g>
       <use xlink:href="#mc6fab17ec5" x="671.747126" y="501.3525" style="stroke: #000000; stroke-width: 0.6"/>
      </g>
     </g>
    </g>
    <g id="xtick_37">
     <g id="line2d_73">
      <path d="M 688.637168 501.3525 
L 688.637168 57.8325 
" clip-path="url(#p0ee69583f7)" style="fill: none; stroke-dasharray: 1.85,0.8; stroke-dashoffset: 0; stroke: #b0b0b0; stroke-opacity: 0.8; stroke-width: 0.5"/>
     </g>
     <g id="line2d_74">
      <g>
       <use xlink:href="#mc6fab17ec5" x="688.637168" y="501.3525" style="stroke: #000000; stroke-width: 0.6"/>
      </g>
     </g>
    </g>
    <g id="xtick_38">
     <g id="line2d_75">
      <path d="M 722.417254 501.3525 
L 722.417254 57.8325 
" clip-path="url(#p0ee69583f7)" style="fill: none; stroke-dasharray: 1.85,0.8; stroke-dashoffset: 0; stroke: #b0b0b0; stroke-opacity: 0.8; stroke-width: 0.5"/>
     </g>
     <g id="line2d_76">
      <g>
       <use xlink:href="#mc6fab17ec5" x="722.417254" y="501.3525" style="stroke: #000000; stroke-width: 0.6"/>
      </g>
     </g>
    </g>
    <g id="xtick_39">
     <g id="line2d_77">
      <path d="M 739.307296 501.3525 
L 739.307296 57.8325 
" clip-path="url(#p0ee69583f7)" style="fill: none; stroke-dasharray: 1.85,0.8; stroke-dashoffset: 0; stroke: #b0b0b0; stroke-opacity: 0.8; stroke-width: 0.5"/>
     </g>
     <g id="line2d_78">
      <g>
       <use xlink:href="#mc6fab17ec5" x="739.307296" y="501.3525" style="stroke: #000000; stroke-width: 0.6"/>
      </g>
     </g>
    </g>
    <g id="text_9">
     <!-- Time (S) -->
     <g transform="translate(386.375 542.305625) scale(0.2 -0.2)">
      <defs>
       <path id="AptosDisplay-54" d="M 1244 0 
L 1244 3734 
L 50 3734 
L 50 4206 
L 2997 4206 
L 2997 3734 
L 1806 3734 
L 1806 0 
L 1244 0 
z
" transform="scale(0.015625)"/>
       <path id="AptosDisplay-69" d="M 413 0 
L 413 3044 
L 934 3044 
L 934 0 
L 413 0 
z
M 675 3616 
Q 525 3616 437 3702 
Q 350 3788 350 3919 
Q 350 4050 437 4136 
Q 525 4222 675 4222 
Q 822 4222 912 4136 
Q 1003 4050 1003 3919 
Q 1003 3788 912 3702 
Q 822 3616 675 3616 
z
" transform="scale(0.015625)"/>
       <path id="AptosDisplay-6d" d="M 413 0 
L 413 3044 
L 919 3044 
L 931 2575 
Q 1063 2756 1303 2914 
Q 1544 3072 1903 3072 
Q 2403 3072 2618 2778 
Q 2834 2484 2834 1963 
L 2834 0 
L 2316 0 
L 2316 1891 
Q 2316 2106 2275 2275 
Q 2234 2444 2120 2539 
Q 2006 2634 1788 2634 
Q 1488 2634 1277 2482 
Q 1066 2331 934 2156 
L 934 0 
L 413 0 
z
M 4206 0 
L 4206 1891 
Q 4206 2106 4164 2275 
Q 4122 2444 4009 2539 
Q 3897 2634 3681 2634 
Q 3381 2634 3165 2484 
Q 2950 2334 2822 2159 
L 2744 2544 
Q 2916 2741 3175 2906 
Q 3434 3072 3800 3072 
Q 4291 3072 4509 2778 
Q 4728 2484 4728 1963 
L 4728 0 
L 4206 0 
z
" transform="scale(0.015625)"/>
       <path id="AptosDisplay-65" d="M 1663 -56 
Q 1188 -56 878 151 
Q 569 359 417 717 
Q 266 1075 266 1522 
Q 266 1988 412 2342 
Q 559 2697 857 2897 
Q 1156 3097 1606 3097 
Q 2209 3097 2550 2722 
Q 2891 2347 2891 1644 
Q 2891 1597 2889 1533 
Q 2888 1469 2881 1441 
L 791 1441 
Q 794 1144 881 895 
Q 969 647 1161 497 
Q 1353 347 1663 347 
Q 1997 347 2183 511 
Q 2369 675 2378 984 
L 2894 984 
Q 2884 663 2732 430 
Q 2581 197 2309 70 
Q 2038 -56 1663 -56 
z
M 794 1822 
L 2375 1822 
Q 2366 2247 2166 2472 
Q 1966 2697 1606 2697 
Q 1241 2697 1036 2473 
Q 831 2250 794 1822 
z
" transform="scale(0.015625)"/>
       <path id="AptosDisplay-20" transform="scale(0.015625)"/>
       <path id="AptosDisplay-28" d="M 1219 -1116 
Q 969 -678 787 -267 
Q 606 144 511 581 
Q 416 1019 416 1528 
Q 416 2028 509 2486 
Q 603 2944 783 3378 
Q 963 3813 1219 4231 
L 1647 4231 
Q 1278 3600 1101 2886 
Q 925 2172 925 1428 
Q 925 766 1125 103 
Q 1325 -559 1647 -1116 
L 1219 -1116 
z
" transform="scale(0.015625)"/>
       <path id="AptosDisplay-53" d="M 1778 -56 
Q 1328 -56 962 81 
Q 597 219 384 512 
Q 172 806 172 1275 
L 734 1275 
Q 738 941 883 750 
Q 1028 559 1267 481 
Q 1506 403 1794 403 
Q 2063 403 2283 483 
Q 2503 563 2634 723 
Q 2766 884 2766 1134 
Q 2766 1356 2662 1497 
Q 2559 1638 2321 1742 
Q 2084 1847 1678 1950 
Q 1203 2075 897 2223 
Q 591 2372 442 2594 
Q 294 2816 294 3156 
Q 294 3516 462 3761 
Q 631 4006 945 4134 
Q 1259 4263 1697 4263 
Q 2103 4263 2440 4131 
Q 2778 4000 2979 3737 
Q 3181 3475 3181 3084 
L 2616 3084 
Q 2622 3441 2356 3623 
Q 2091 3806 1700 3806 
Q 1300 3806 1073 3645 
Q 847 3484 847 3175 
Q 847 2991 944 2867 
Q 1041 2744 1280 2644 
Q 1519 2544 1941 2434 
Q 2428 2303 2731 2153 
Q 3034 2003 3178 1768 
Q 3322 1534 3322 1153 
Q 3322 747 3117 480 
Q 2913 213 2564 78 
Q 2216 -56 1778 -56 
z
" transform="scale(0.015625)"/>
       <path id="AptosDisplay-29" d="M 234 -1116 
Q 609 -481 786 233 
Q 963 947 963 1694 
Q 963 2356 759 3015 
Q 556 3675 234 4231 
L 663 4231 
Q 919 3800 1098 3389 
Q 1278 2978 1373 2540 
Q 1469 2103 1469 1594 
Q 1469 1094 1375 634 
Q 1281 175 1100 -259 
Q 919 -694 663 -1116 
L 234 -1116 
z
" transform="scale(0.015625)"/>
      </defs>
      <use xlink:href="#AptosDisplay-54"/>
      <use xlink:href="#AptosDisplay-69" x="47.705078"/>
      <use xlink:href="#AptosDisplay-6d" x="68.75"/>
      <use xlink:href="#AptosDisplay-65" x="148.730469"/>
      <use xlink:href="#AptosDisplay-20" x="198.144531"/>
      <use xlink:href="#AptosDisplay-28" x="217.431641"/>
      <use xlink:href="#AptosDisplay-53" x="246.875"/>
      <use xlink:href="#AptosDisplay-29" x="301.464844"/>
     </g>
    </g>
   </g>
   <g id="matplotlib.axis_2">
    <g id="ytick_1">
     <g id="line2d_79">
      <path d="M 84.665625 470.079498 
L 754.265625 470.079498 
" clip-path="url(#p0ee69583f7)" style="fill: none; stroke: #b0b0b0; stroke-opacity: 0.8; stroke-linecap: square"/>
     </g>
     <g id="line2d_80">
      <defs>
       <path id="m49a110ecd2" d="M 0 0 
L -3.5 0 
" style="stroke: #000000; stroke-width: 0.8"/>
      </defs>
      <g>
       <use xlink:href="#m49a110ecd2" x="84.665625" y="470.079498" style="stroke: #000000; stroke-width: 0.8"/>
      </g>
     </g>
     <g id="text_10">
      <!-- 2 -->
      <g transform="translate(67.20625 476.651373) scale(0.2 -0.2)">
       <use xlink:href="#AptosDisplay-32"/>
      </g>
     </g>
    </g>
    <g id="ytick_2">
     <g id="line2d_81">
      <path d="M 84.665625 398.212044 
L 754.265625 398.212044 
" clip-path="url(#p0ee69583f7)" style="fill: none; stroke: #b0b0b0; stroke-opacity: 0.8; stroke-linecap: square"/>
     </g>
     <g id="line2d_82">
      <g>
       <use xlink:href="#m49a110ecd2" x="84.665625" y="398.212044" style="stroke: #000000; stroke-width: 0.8"/>
      </g>
     </g>
     <g id="text_11">
      <!-- 4 -->
      <g transform="translate(67.20625 404.783919) scale(0.2 -0.2)">
       <defs>
        <path id="AptosDisplay-34" d="M 2106 0 
L 2106 825 
L 125 825 
L 125 1297 
L 2100 4103 
L 2631 4103 
L 2631 1284 
L 3191 1284 
L 3191 825 
L 2631 825 
L 2631 0 
L 2106 0 
z
M 638 1284 
L 2113 1284 
L 2113 3369 
L 638 1284 
z
" transform="scale(0.015625)"/>
       </defs>
       <use xlink:href="#AptosDisplay-34"/>
      </g>
     </g>
    </g>
    <g id="ytick_3">
     <g id="line2d_83">
      <path d="M 84.665625 326.344589 
L 754.265625 326.344589 
" clip-path="url(#p0ee69583f7)" style="fill: none; stroke: #b0b0b0; stroke-opacity: 0.8; stroke-linecap: square"/>
     </g>
     <g id="line2d_84">
      <g>
       <use xlink:href="#m49a110ecd2" x="84.665625" y="326.344589" style="stroke: #000000; stroke-width: 0.8"/>
      </g>
     </g>
     <g id="text_12">
      <!-- 6 -->
      <g transform="translate(67.20625 332.916464) scale(0.2 -0.2)">
       <defs>
        <path id="AptosDisplay-36" d="M 1759 -56 
Q 1325 -56 984 151 
Q 644 359 447 815 
Q 250 1272 250 2013 
Q 250 2738 439 3206 
Q 628 3675 968 3903 
Q 1309 4131 1759 4131 
Q 2253 4131 2595 3875 
Q 2938 3619 3034 3097 
L 2503 3097 
Q 2441 3388 2250 3534 
Q 2059 3681 1759 3681 
Q 1306 3681 1047 3279 
Q 788 2878 788 2013 
L 788 1850 
Q 788 1313 922 992 
Q 1056 672 1279 531 
Q 1503 391 1763 391 
Q 2175 391 2369 644 
Q 2563 897 2563 1272 
Q 2563 1650 2373 1869 
Q 2184 2088 1838 2088 
Q 1422 2088 1114 1897 
Q 806 1706 644 1456 
L 597 1856 
Q 728 2047 922 2201 
Q 1116 2356 1362 2447 
Q 1609 2538 1909 2538 
Q 2253 2538 2523 2395 
Q 2794 2253 2951 1975 
Q 3109 1697 3109 1291 
Q 3109 897 2951 592 
Q 2794 288 2492 116 
Q 2191 -56 1759 -56 
z
" transform="scale(0.015625)"/>
       </defs>
       <use xlink:href="#AptosDisplay-36"/>
      </g>
     </g>
    </g>
    <g id="ytick_4">
     <g id="line2d_85">
      <path d="M 84.665625 254.477135 
L 754.265625 254.477135 
" clip-path="url(#p0ee69583f7)" style="fill: none; stroke: #b0b0b0; stroke-opacity: 0.8; stroke-linecap: square"/>
     </g>
     <g id="line2d_86">
      <g>
       <use xlink:href="#m49a110ecd2" x="84.665625" y="254.477135" style="stroke: #000000; stroke-width: 0.8"/>
      </g>
     </g>
     <g id="text_13">
      <!-- 8 -->
      <g transform="translate(67.20625 261.04901) scale(0.2 -0.2)">
       <defs>
        <path id="AptosDisplay-38" d="M 1675 -56 
Q 1391 -56 1137 16 
Q 884 88 686 234 
Q 488 381 373 606 
Q 259 831 259 1141 
Q 259 1531 495 1797 
Q 731 2063 1084 2150 
Q 781 2250 604 2490 
Q 428 2731 428 3081 
Q 428 3447 609 3681 
Q 791 3916 1075 4025 
Q 1359 4134 1669 4134 
Q 1981 4134 2265 4023 
Q 2550 3913 2733 3680 
Q 2916 3447 2916 3081 
Q 2916 2725 2716 2481 
Q 2516 2238 2238 2150 
Q 2606 2063 2843 1800 
Q 3081 1538 3081 1141 
Q 3081 831 2968 606 
Q 2856 381 2661 234 
Q 2466 88 2211 16 
Q 1956 -56 1675 -56 
z
M 1672 388 
Q 1909 388 2109 470 
Q 2309 553 2429 725 
Q 2550 897 2550 1163 
Q 2550 1416 2426 1587 
Q 2303 1759 2104 1846 
Q 1906 1934 1672 1928 
Q 1453 1934 1253 1850 
Q 1053 1766 926 1594 
Q 800 1422 800 1163 
Q 800 775 1058 581 
Q 1316 388 1672 388 
z
M 1672 2363 
Q 1863 2356 2030 2434 
Q 2197 2513 2300 2667 
Q 2403 2822 2403 3050 
Q 2403 3388 2189 3544 
Q 1975 3700 1675 3700 
Q 1484 3700 1317 3631 
Q 1150 3563 1047 3419 
Q 944 3275 944 3050 
Q 944 2825 1048 2670 
Q 1153 2516 1320 2436 
Q 1488 2356 1672 2363 
z
" transform="scale(0.015625)"/>
       </defs>
       <use xlink:href="#AptosDisplay-38"/>
      </g>
     </g>
    </g>
    <g id="ytick_5">
     <g id="line2d_87">
      <path d="M 84.665625 182.60968 
L 754.265625 182.60968 
" clip-path="url(#p0ee69583f7)" style="fill: none; stroke: #b0b0b0; stroke-opacity: 0.8; stroke-linecap: square"/>
     </g>
     <g id="line2d_88">
      <g>
       <use xlink:href="#m49a110ecd2" x="84.665625" y="182.60968" style="stroke: #000000; stroke-width: 0.8"/>
      </g>
     </g>
     <g id="text_14">
      <!-- 10 -->
      <g transform="translate(56.746875 189.181555) scale(0.2 -0.2)">
       <use xlink:href="#AptosDisplay-31"/>
       <use xlink:href="#AptosDisplay-30" x="52.294922"/>
      </g>
     </g>
    </g>
    <g id="ytick_6">
     <g id="line2d_89">
      <path d="M 84.665625 110.742226 
L 754.265625 110.742226 
" clip-path="url(#p0ee69583f7)" style="fill: none; stroke: #b0b0b0; stroke-opacity: 0.8; stroke-linecap: square"/>
     </g>
     <g id="line2d_90">
      <g>
       <use xlink:href="#m49a110ecd2" x="84.665625" y="110.742226" style="stroke: #000000; stroke-width: 0.8"/>
      </g>
     </g>
     <g id="text_15">
      <!-- 12 -->
      <g transform="translate(56.746875 117.314101) scale(0.2 -0.2)">
       <use xlink:href="#AptosDisplay-31"/>
       <use xlink:href="#AptosDisplay-32" x="52.294922"/>
      </g>
     </g>
    </g>
    <g id="ytick_7">
     <g id="line2d_91">
      <path d="M 84.665625 488.046362 
L 754.265625 488.046362 
" clip-path="url(#p0ee69583f7)" style="fill: none; stroke-dasharray: 1.85,0.8; stroke-dashoffset: 0; stroke: #b0b0b0; stroke-opacity: 0.8; stroke-width: 0.5"/>
     </g>
     <g id="line2d_92">
      <defs>
       <path id="m34606e2929" d="M 0 0 
L -2 0 
" style="stroke: #000000; stroke-width: 0.6"/>
      </defs>
      <g>
       <use xlink:href="#m34606e2929" x="84.665625" y="488.046362" style="stroke: #000000; stroke-width: 0.6"/>
      </g>
     </g>
    </g>
    <g id="ytick_8">
     <g id="line2d_93">
      <path d="M 84.665625 452.112634 
L 754.265625 452.112634 
" clip-path="url(#p0ee69583f7)" style="fill: none; stroke-dasharray: 1.85,0.8; stroke-dashoffset: 0; stroke: #b0b0b0; stroke-opacity: 0.8; stroke-width: 0.5"/>
     </g>
     <g id="line2d_94">
      <g>
       <use xlink:href="#m34606e2929" x="84.665625" y="452.112634" style="stroke: #000000; stroke-width: 0.6"/>
      </g>
     </g>
    </g>
    <g id="ytick_9">
     <g id="line2d_95">
      <path d="M 84.665625 434.145771 
L 754.265625 434.145771 
" clip-path="url(#p0ee69583f7)" style="fill: none; stroke-dasharray: 1.85,0.8; stroke-dashoffset: 0; stroke: #b0b0b0; stroke-opacity: 0.8; stroke-width: 0.5"/>
     </g>
     <g id="line2d_96">
      <g>
       <use xlink:href="#m34606e2929" x="84.665625" y="434.145771" style="stroke: #000000; stroke-width: 0.6"/>
      </g>
     </g>
    </g>
    <g id="ytick_10">
     <g id="line2d_97">
      <path d="M 84.665625 416.178907 
L 754.265625 416.178907 
" clip-path="url(#p0ee69583f7)" style="fill: none; stroke-dasharray: 1.85,0.8; stroke-dashoffset: 0; stroke: #b0b0b0; stroke-opacity: 0.8; stroke-width: 0.5"/>
     </g>
     <g id="line2d_98">
      <g>
       <use xlink:href="#m34606e2929" x="84.665625" y="416.178907" style="stroke: #000000; stroke-width: 0.6"/>
      </g>
     </g>
    </g>
    <g id="ytick_11">
     <g id="line2d_99">
      <path d="M 84.665625 380.24518 
L 754.265625 380.24518 
" clip-path="url(#p0ee69583f7)" style="fill: none; stroke-dasharray: 1.85,0.8; stroke-dashoffset: 0; stroke: #b0b0b0; stroke-opacity: 0.8; stroke-width: 0.5"/>
     </g>
     <g id="line2d_100">
      <g>
       <use xlink:href="#m34606e2929" x="84.665625" y="380.24518" style="stroke: #000000; stroke-width: 0.6"/>
      </g>
     </g>
    </g>
    <g id="ytick_12">
     <g id="line2d_101">
      <path d="M 84.665625 362.278316 
L 754.265625 362.278316 
" clip-path="url(#p0ee69583f7)" style="fill: none; stroke-dasharray: 1.85,0.8; stroke-dashoffset: 0; stroke: #b0b0b0; stroke-opacity: 0.8; stroke-width: 0.5"/>
     </g>
     <g id="line2d_102">
      <g>
       <use xlink:href="#m34606e2929" x="84.665625" y="362.278316" style="stroke: #000000; stroke-width: 0.6"/>
      </g>
     </g>
    </g>
    <g id="ytick_13">
     <g id="line2d_103">
      <path d="M 84.665625 344.311453 
L 754.265625 344.311453 
" clip-path="url(#p0ee69583f7)" style="fill: none; stroke-dasharray: 1.85,0.8; stroke-dashoffset: 0; stroke: #b0b0b0; stroke-opacity: 0.8; stroke-width: 0.5"/>
     </g>
     <g id="line2d_104">
      <g>
       <use xlink:href="#m34606e2929" x="84.665625" y="344.311453" style="stroke: #000000; stroke-width: 0.6"/>
      </g>
     </g>
    </g>
    <g id="ytick_14">
     <g id="line2d_105">
      <path d="M 84.665625 308.377726 
L 754.265625 308.377726 
" clip-path="url(#p0ee69583f7)" style="fill: none; stroke-dasharray: 1.85,0.8; stroke-dashoffset: 0; stroke: #b0b0b0; stroke-opacity: 0.8; stroke-width: 0.5"/>
     </g>
     <g id="line2d_106">
      <g>
       <use xlink:href="#m34606e2929" x="84.665625" y="308.377726" style="stroke: #000000; stroke-width: 0.6"/>
      </g>
     </g>
    </g>
    <g id="ytick_15">
     <g id="line2d_107">
      <path d="M 84.665625 290.410862 
L 754.265625 290.410862 
" clip-path="url(#p0ee69583f7)" style="fill: none; stroke-dasharray: 1.85,0.8; stroke-dashoffset: 0; stroke: #b0b0b0; stroke-opacity: 0.8; stroke-width: 0.5"/>
     </g>
     <g id="line2d_108">
      <g>
       <use xlink:href="#m34606e2929" x="84.665625" y="290.410862" style="stroke: #000000; stroke-width: 0.6"/>
      </g>
     </g>
    </g>
    <g id="ytick_16">
     <g id="line2d_109">
      <path d="M 84.665625 272.443998 
L 754.265625 272.443998 
" clip-path="url(#p0ee69583f7)" style="fill: none; stroke-dasharray: 1.85,0.8; stroke-dashoffset: 0; stroke: #b0b0b0; stroke-opacity: 0.8; stroke-width: 0.5"/>
     </g>
     <g id="line2d_110">
      <g>
       <use xlink:href="#m34606e2929" x="84.665625" y="272.443998" style="stroke: #000000; stroke-width: 0.6"/>
      </g>
     </g>
    </g>
    <g id="ytick_17">
     <g id="line2d_111">
      <path d="M 84.665625 236.510271 
L 754.265625 236.510271 
" clip-path="url(#p0ee69583f7)" style="fill: none; stroke-dasharray: 1.85,0.8; stroke-dashoffset: 0; stroke: #b0b0b0; stroke-opacity: 0.8; stroke-width: 0.5"/>
     </g>
     <g id="line2d_112">
      <g>
       <use xlink:href="#m34606e2929" x="84.665625" y="236.510271" style="stroke: #000000; stroke-width: 0.6"/>
      </g>
     </g>
    </g>
    <g id="ytick_18">
     <g id="line2d_113">
      <path d="M 84.665625 218.543408 
L 754.265625 218.543408 
" clip-path="url(#p0ee69583f7)" style="fill: none; stroke-dasharray: 1.85,0.8; stroke-dashoffset: 0; stroke: #b0b0b0; stroke-opacity: 0.8; stroke-width: 0.5"/>
     </g>
     <g id="line2d_114">
      <g>
       <use xlink:href="#m34606e2929" x="84.665625" y="218.543408" style="stroke: #000000; stroke-width: 0.6"/>
      </g>
     </g>
    </g>
    <g id="ytick_19">
     <g id="line2d_115">
      <path d="M 84.665625 200.576544 
L 754.265625 200.576544 
" clip-path="url(#p0ee69583f7)" style="fill: none; stroke-dasharray: 1.85,0.8; stroke-dashoffset: 0; stroke: #b0b0b0; stroke-opacity: 0.8; stroke-width: 0.5"/>
     </g>
     <g id="line2d_116">
      <g>
       <use xlink:href="#m34606e2929" x="84.665625" y="200.576544" style="stroke: #000000; stroke-width: 0.6"/>
      </g>
     </g>
    </g>
    <g id="ytick_20">
     <g id="line2d_117">
      <path d="M 84.665625 164.642817 
L 754.265625 164.642817 
" clip-path="url(#p0ee69583f7)" style="fill: none; stroke-dasharray: 1.85,0.8; stroke-dashoffset: 0; stroke: #b0b0b0; stroke-opacity: 0.8; stroke-width: 0.5"/>
     </g>
     <g id="line2d_118">
      <g>
       <use xlink:href="#m34606e2929" x="84.665625" y="164.642817" style="stroke: #000000; stroke-width: 0.6"/>
      </g>
     </g>
    </g>
    <g id="ytick_21">
     <g id="line2d_119">
      <path d="M 84.665625 146.675953 
L 754.265625 146.675953 
" clip-path="url(#p0ee69583f7)" style="fill: none; stroke-dasharray: 1.85,0.8; stroke-dashoffset: 0; stroke: #b0b0b0; stroke-opacity: 0.8; stroke-width: 0.5"/>
     </g>
     <g id="line2d_120">
      <g>
       <use xlink:href="#m34606e2929" x="84.665625" y="146.675953" style="stroke: #000000; stroke-width: 0.6"/>
      </g>
     </g>
    </g>
    <g id="ytick_22">
     <g id="line2d_121">
      <path d="M 84.665625 128.70909 
L 754.265625 128.70909 
" clip-path="url(#p0ee69583f7)" style="fill: none; stroke-dasharray: 1.85,0.8; stroke-dashoffset: 0; stroke: #b0b0b0; stroke-opacity: 0.8; stroke-width: 0.5"/>
     </g>
     <g id="line2d_122">
      <g>
       <use xlink:href="#m34606e2929" x="84.665625" y="128.70909" style="stroke: #000000; stroke-width: 0.6"/>
      </g>
     </g>
    </g>
    <g id="ytick_23">
     <g id="line2d_123">
      <path d="M 84.665625 92.775362 
L 754.265625 92.775362 
" clip-path="url(#p0ee69583f7)" style="fill: none; stroke-dasharray: 1.85,0.8; stroke-dashoffset: 0; stroke: #b0b0b0; stroke-opacity: 0.8; stroke-width: 0.5"/>
     </g>
     <g id="line2d_124">
      <g>
       <use xlink:href="#m34606e2929" x="84.665625" y="92.775362" style="stroke: #000000; stroke-width: 0.6"/>
      </g>
     </g>
    </g>
    <g id="ytick_24">
     <g id="line2d_125">
      <path d="M 84.665625 74.808499 
L 754.265625 74.808499 
" clip-path="url(#p0ee69583f7)" style="fill: none; stroke-dasharray: 1.85,0.8; stroke-dashoffset: 0; stroke: #b0b0b0; stroke-opacity: 0.8; stroke-width: 0.5"/>
     </g>
     <g id="line2d_126">
      <g>
       <use xlink:href="#m34606e2929" x="84.665625" y="74.808499" style="stroke: #000000; stroke-width: 0.6"/>
      </g>
     </g>
    </g>
    <g id="text_16">
     <!-- Efficiency (%) -->
     <g transform="translate(49.221875 335.120625) rotate(-90) scale(0.2 -0.2)">
      <defs>
       <path id="AptosDisplay-45" d="M 472 0 
L 472 4206 
L 3153 4206 
L 3153 3738 
L 1034 3738 
L 1034 2397 
L 2984 2397 
L 2984 1934 
L 1034 1934 
L 1034 469 
L 3153 469 
L 3153 0 
L 472 0 
z
" transform="scale(0.015625)"/>
       <path id="AptosDisplay-66" d="M 550 0 
L 550 2622 
L 44 2622 
L 44 3044 
L 550 3044 
L 550 3219 
Q 550 3453 589 3636 
Q 628 3819 728 3947 
Q 828 4075 1004 4140 
Q 1181 4206 1463 4206 
L 1781 4206 
L 1781 3797 
L 1494 3797 
Q 1219 3797 1145 3645 
Q 1072 3494 1072 3209 
L 1072 3044 
L 1775 3044 
L 1775 2622 
L 1072 2622 
L 1072 0 
L 550 0 
z
" transform="scale(0.015625)"/>
       <path id="AptosDisplay-63" d="M 1634 -53 
Q 1234 -53 925 122 
Q 616 297 441 645 
Q 266 994 266 1513 
Q 266 2031 437 2384 
Q 609 2738 917 2916 
Q 1225 3094 1634 3094 
Q 1978 3094 2251 2978 
Q 2525 2863 2689 2630 
Q 2853 2397 2866 2041 
L 2350 2041 
Q 2328 2334 2139 2503 
Q 1950 2672 1644 2672 
Q 1228 2672 1015 2367 
Q 803 2063 803 1513 
Q 803 1150 897 894 
Q 991 638 1178 503 
Q 1366 369 1644 369 
Q 1956 369 2159 541 
Q 2363 713 2372 1047 
L 2884 1047 
Q 2878 681 2711 436 
Q 2544 191 2264 69 
Q 1984 -53 1634 -53 
z
" transform="scale(0.015625)"/>
       <path id="AptosDisplay-6e" d="M 413 0 
L 413 3044 
L 919 3044 
L 931 2575 
Q 1066 2756 1316 2914 
Q 1566 3072 1941 3072 
Q 2428 3072 2637 2781 
Q 2847 2491 2847 1963 
L 2847 0 
L 2328 0 
L 2328 1891 
Q 2328 2106 2286 2275 
Q 2244 2444 2133 2539 
Q 2022 2634 1816 2634 
Q 1500 2634 1283 2482 
Q 1066 2331 934 2156 
L 934 0 
L 413 0 
z
" transform="scale(0.015625)"/>
       <path id="AptosDisplay-79" d="M 266 -1128 
L 266 -697 
L 525 -697 
Q 716 -697 831 -598 
Q 947 -500 1038 -275 
L 1153 0 
L -13 3044 
L 538 3044 
L 1428 553 
L 2250 3044 
L 2781 3044 
L 1688 0 
L 1550 -356 
Q 1441 -647 1314 -815 
Q 1188 -984 1013 -1056 
Q 838 -1128 578 -1128 
L 266 -1128 
z
" transform="scale(0.015625)"/>
       <path id="AptosDisplay-25" d="M 1188 0 
L 3669 4078 
L 4094 4078 
L 1613 0 
L 1188 0 
z
M 1197 1606 
Q 878 1606 679 1765 
Q 481 1925 390 2209 
Q 300 2494 300 2872 
Q 300 3253 390 3536 
Q 481 3819 679 3976 
Q 878 4134 1197 4134 
Q 1519 4134 1716 3976 
Q 1913 3819 2005 3536 
Q 2097 3253 2097 2872 
Q 2097 2494 2005 2209 
Q 1913 1925 1714 1765 
Q 1516 1606 1197 1606 
z
M 1197 1953 
Q 1391 1953 1498 2084 
Q 1606 2216 1648 2425 
Q 1691 2634 1691 2872 
Q 1691 3109 1648 3318 
Q 1606 3528 1498 3658 
Q 1391 3788 1197 3788 
Q 1006 3788 898 3658 
Q 791 3528 748 3318 
Q 706 3109 706 2872 
Q 706 2634 748 2425 
Q 791 2216 898 2084 
Q 1006 1953 1197 1953 
z
M 4084 -53 
Q 3769 -53 3570 105 
Q 3372 263 3281 547 
Q 3191 831 3191 1209 
Q 3191 1591 3281 1873 
Q 3372 2156 3570 2314 
Q 3769 2472 4084 2472 
Q 4406 2472 4604 2315 
Q 4803 2159 4893 1875 
Q 4984 1591 4984 1209 
Q 4984 831 4893 547 
Q 4803 263 4604 105 
Q 4406 -53 4084 -53 
z
M 4084 294 
Q 4281 294 4387 423 
Q 4494 553 4536 761 
Q 4578 969 4578 1209 
Q 4578 1447 4536 1656 
Q 4494 1866 4387 1994 
Q 4281 2122 4084 2122 
Q 3894 2122 3787 1994 
Q 3681 1866 3639 1656 
Q 3597 1447 3597 1209 
Q 3597 969 3639 761 
Q 3681 553 3787 423 
Q 3894 294 4084 294 
z
" transform="scale(0.015625)"/>
      </defs>
      <use xlink:href="#AptosDisplay-45"/>
      <use xlink:href="#AptosDisplay-66" x="54.052734"/>
      <use xlink:href="#AptosDisplay-66" x="82.373047"/>
      <use xlink:href="#AptosDisplay-69" x="110.693359"/>
      <use xlink:href="#AptosDisplay-63" x="131.738281"/>
      <use xlink:href="#AptosDisplay-69" x="181.005859"/>
      <use xlink:href="#AptosDisplay-65" x="202.050781"/>
      <use xlink:href="#AptosDisplay-6e" x="251.464844"/>
      <use xlink:href="#AptosDisplay-63" x="302.050781"/>
      <use xlink:href="#AptosDisplay-79" x="351.318359"/>
      <use xlink:href="#AptosDisplay-20" x="394.580078"/>
      <use xlink:href="#AptosDisplay-28" x="413.867188"/>
      <use xlink:href="#AptosDisplay-25" x="443.310547"/>
      <use xlink:href="#AptosDisplay-29" x="525.830078"/>
     </g>
    </g>
   </g>
   <g id="line2d_127">
    <path d="M 115.101989 77.9925 
L 115.77759 443.425083 
L 116.453192 449.991123 
L 117.128794 448.88727 
L 117.804395 457.67369 
L 118.479997 452.402927 
L 119.155599 465.427644 
L 119.831201 467.317592 
L 120.506802 465.268546 
L 121.182404 467.378926 
L 121.858006 467.478107 
L 122.533607 471.512138 
L 123.209209 467.364123 
L 123.884811 467.620396 
L 124.560413 464.312357 
L 125.236014 470.387811 
L 125.911616 471.941499 
L 126.587218 471.337628 
L 127.262819 474.60825 
L 127.938421 473.085662 
L 128.614023 474.714616 
L 129.289624 474.027326 
L 129.965226 473.569592 
L 130.640828 476.622255 
L 131.31643 475.729586 
L 131.992031 474.0778 
L 132.667633 473.950089 
L 134.018836 477.679516 
L 134.694438 474.253627 
L 135.37004 475.257147 
L 136.045642 471.53445 
L 136.721243 473.819416 
L 137.396845 475.242461 
L 138.072447 475.274065 
L 138.748048 475.144615 
L 139.42365 474.595394 
L 140.099252 476.515338 
L 140.774854 467.11052 
L 141.450455 474.540575 
L 142.126057 473.557877 
L 142.801659 471.650612 
L 143.47726 472.271891 
L 144.152862 470.357366 
L 144.828464 472.158309 
L 145.504065 467.06058 
L 146.179667 466.99758 
L 146.855269 470.075705 
L 147.530871 471.621185 
L 148.206472 472.805838 
L 148.882074 475.65051 
L 149.557676 475.749596 
L 150.233277 474.865129 
L 150.908879 473.221245 
L 151.584481 472.958409 
L 152.260083 474.634923 
L 152.935684 472.95222 
L 153.611286 473.049051 
L 154.286888 473.996831 
L 154.962489 473.63256 
L 155.638091 475.472881 
L 156.313693 475.090233 
L 156.989295 465.906181 
L 157.664896 473.253843 
L 158.340498 469.629523 
L 159.691701 475.933821 
L 160.367303 475.143414 
L 161.042905 474.987536 
L 161.718506 473.975589 
L 162.394108 475.855606 
L 163.745312 472.128709 
L 164.420913 474.127781 
L 165.096515 475.065819 
L 165.772117 475.093507 
L 166.447718 475.485065 
L 167.12332 475.374119 
L 167.798922 474.019957 
L 168.474524 477.060714 
L 169.150125 473.360479 
L 169.825727 474.578791 
L 170.501329 474.167193 
L 171.17693 474.753378 
L 171.852532 474.838705 
L 172.528134 472.732129 
L 173.203736 473.924409 
L 173.879337 474.561642 
L 174.554939 475.554724 
L 175.230541 475.268594 
L 175.906142 476.545479 
L 176.581744 476.066472 
L 177.257346 476.386728 
L 177.932947 475.714315 
L 178.608549 473.270819 
L 179.284151 475.932862 
L 179.959753 473.677573 
L 180.635354 473.6452 
L 181.310956 476.408094 
L 181.986558 469.243144 
L 182.662159 475.104554 
L 183.337761 476.997382 
L 184.013363 473.705268 
L 185.364566 477.015649 
L 186.040168 476.013508 
L 186.71577 476.675037 
L 187.391371 475.152495 
L 188.066973 475.214612 
L 188.742575 476.27613 
L 189.418176 476.357138 
L 190.093778 476.043346 
L 190.76938 475.044037 
L 191.444982 474.773038 
L 192.796185 476.134887 
L 193.471787 473.805062 
L 194.147388 475.9946 
L 194.82299 475.156281 
L 195.498592 475.484028 
L 196.174194 475.480915 
L 196.849795 475.004323 
L 197.525397 476.166678 
L 198.200999 475.614907 
L 199.552202 476.76335 
L 200.227804 474.236451 
L 200.903406 476.70647 
L 201.579007 475.568367 
L 202.254609 477.696786 
L 202.930211 478.381216 
L 203.605812 476.413308 
L 204.281414 475.672956 
L 204.957016 477.185084 
L 205.632617 476.674875 
L 206.308219 474.6086 
L 206.983821 477.056856 
L 207.659423 474.13127 
L 208.335024 478.534493 
L 209.010626 476.175548 
L 209.686228 475.752358 
L 210.361829 477.112814 
L 211.037431 475.823645 
L 211.713033 458.740979 
L 212.388635 475.642208 
L 213.064236 475.024336 
L 213.739838 475.368416 
L 214.41544 476.764843 
L 215.091041 475.550812 
L 215.766643 476.557605 
L 216.442245 475.141736 
L 217.117847 476.127921 
L 217.793448 470.31826 
L 218.46905 475.551673 
L 219.144652 474.798583 
L 219.820253 476.128083 
L 220.495855 474.013405 
L 221.171457 474.669398 
L 221.847058 474.998119 
L 222.52266 474.721039 
L 223.198262 473.160316 
L 224.549465 476.404589 
L 225.225067 478.096798 
L 225.900669 475.02612 
L 226.57627 472.973671 
L 227.251872 475.828072 
L 227.927474 476.916235 
L 229.278677 477.104394 
L 229.954279 475.12979 
L 231.305482 476.817387 
L 231.981084 476.349903 
L 232.656686 476.730573 
L 233.332287 476.506123 
L 234.683491 476.916077 
L 235.359093 477.992963 
L 236.034694 476.494506 
L 236.710296 474.188504 
L 237.385898 477.984818 
L 238.061499 477.904341 
L 238.737101 476.333633 
L 239.412703 477.915143 
L 240.088305 477.089991 
L 240.763906 476.676317 
L 241.439508 477.977463 
L 242.11511 477.941599 
L 242.790711 470.8678 
L 243.466313 477.645372 
L 244.141915 477.466629 
L 244.817517 476.716564 
L 245.493118 477.70036 
L 246.16872 477.127013 
L 246.844322 474.382133 
L 247.519923 474.635426 
L 248.195525 476.841508 
L 248.871127 472.096289 
L 249.546728 476.53442 
L 250.22233 475.53829 
L 250.897932 478.75732 
L 251.573534 474.038557 
L 252.249135 475.725237 
L 252.924737 476.954483 
L 253.600339 475.596331 
L 254.27594 473.199834 
L 254.951542 474.987502 
L 255.627144 472.764765 
L 256.302746 475.189299 
L 256.978347 473.501758 
L 257.653949 474.657313 
L 258.329551 473.125517 
L 259.005152 460.675195 
L 259.680754 475.539302 
L 260.356356 474.747203 
L 261.707559 477.709227 
L 262.383161 476.057585 
L 263.058763 475.040988 
L 263.734364 475.869021 
L 264.409966 475.328539 
L 265.085568 476.315361 
L 265.761169 474.828628 
L 266.436771 475.393629 
L 267.112373 464.6446 
L 267.787975 477.914795 
L 269.81478 477.901806 
L 270.490381 476.643192 
L 271.165983 469.016443 
L 271.841585 475.628014 
L 273.192788 478.217286 
L 273.86839 477.960449 
L 274.543992 479.199635 
L 275.219593 478.535432 
L 275.895195 481.1925 
L 276.570797 479.20426 
L 277.246399 475.179598 
L 277.922 477.519421 
L 278.597602 477.249464 
L 279.273204 478.156433 
L 279.948805 477.500506 
L 280.624407 481.156812 
L 281.300009 470.832663 
L 281.97561 477.232494 
L 282.651212 477.527854 
L 283.326814 476.484633 
L 284.002416 477.418943 
L 284.678017 478.978973 
L 285.353619 477.689529 
L 286.029221 478.662633 
L 286.704822 478.473997 
L 287.380424 480.401855 
L 288.056026 478.303008 
L 288.731628 477.161194 
L 289.407229 477.179452 
L 290.082831 479.404582 
L 290.758433 477.825846 
L 291.434034 478.791099 
L 292.109636 479.090051 
L 292.785238 476.940392 
L 293.460839 476.718524 
L 294.136441 478.566284 
L 294.812043 477.770834 
L 295.487645 477.428037 
L 296.163246 477.475528 
L 296.838848 476.576519 
L 297.51445 478.101973 
L 298.190051 478.366239 
L 298.865653 478.822339 
L 299.541255 477.712453 
L 300.216857 477.345146 
L 300.892458 478.438927 
L 301.56806 478.813025 
L 302.243662 479.387447 
L 302.919263 476.420265 
L 303.594865 478.748966 
L 304.270467 479.863014 
L 304.946069 477.924666 
L 305.62167 479.008307 
L 306.30065 476.167815 
L 306.972874 476.742948 
L 307.648475 475.465826 
L 308.327455 477.465007 
L 309.003057 475.950979 
L 310.35426 477.425067 
L 311.029862 479.314856 
L 311.705464 477.015439 
L 312.381065 475.748083 
L 313.056667 477.714039 
L 313.732269 477.581715 
L 314.40787 477.78555 
L 315.083472 474.850069 
L 315.759074 476.411811 
L 316.434676 479.92489 
L 319.137082 477.97533 
L 319.812684 478.871189 
L 320.488286 477.154566 
L 321.163888 477.542033 
L 321.839489 476.409826 
L 322.515091 476.081319 
L 323.190693 477.664793 
L 323.866294 478.32743 
L 324.541896 477.28725 
L 325.217498 478.92824 
L 325.893099 476.972061 
L 327.244303 479.349103 
L 327.919905 479.858096 
L 328.595506 476.465957 
L 329.271108 476.570986 
L 329.94671 477.028263 
L 330.622311 478.149542 
L 331.297913 479.651901 
L 331.973515 478.380026 
L 332.649117 479.669584 
L 333.324718 478.498284 
L 334.00032 479.339118 
L 334.675922 477.79668 
L 335.351523 480.084059 
L 336.027125 478.741358 
L 336.702727 477.669439 
L 337.378329 478.042049 
L 338.05393 477.750338 
L 338.729532 474.213778 
L 340.080735 478.069933 
L 340.756337 476.799127 
L 341.431939 478.058201 
L 342.10754 477.088789 
L 342.783142 479.228779 
L 343.458744 477.89338 
L 344.134346 475.233987 
L 344.809947 478.105708 
L 345.485549 478.107367 
L 346.161151 478.885769 
L 346.836752 471.824481 
L 347.512354 478.143023 
L 348.187956 478.335947 
L 348.863558 476.70232 
L 349.539159 479.950167 
L 350.214761 479.168385 
L 350.890363 470.715313 
L 351.565964 472.447749 
L 352.241566 469.09086 
L 352.917168 477.770582 
L 353.592769 480.216907 
L 354.943973 476.908532 
L 355.619575 478.278089 
L 356.295176 478.188745 
L 356.970778 478.77801 
L 357.64638 475.89108 
L 358.321981 478.109959 
L 358.997583 474.986473 
L 359.673185 473.369879 
L 360.348787 477.814551 
L 361.024388 476.986668 
L 362.375592 473.029306 
L 363.051193 475.971924 
L 363.726795 478.252502 
L 364.402397 479.121163 
L 365.077999 477.63421 
L 366.429202 477.699332 
L 367.104804 468.927076 
L 367.780405 477.011523 
L 368.456007 477.973515 
L 369.131609 476.025851 
L 369.80721 472.94307 
L 370.482812 474.356694 
L 371.158414 475.502948 
L 371.834016 475.871237 
L 372.509617 476.591629 
L 373.185219 476.233995 
L 373.860821 478.022081 
L 374.536422 466.766706 
L 375.212024 475.096745 
L 375.887626 476.089033 
L 376.563228 475.476549 
L 377.238829 474.166747 
L 377.914431 473.641157 
L 378.590033 474.547693 
L 379.265634 476.349257 
L 379.941236 476.193367 
L 380.616838 476.166351 
L 381.29244 469.989116 
L 381.968041 476.948746 
L 382.643643 473.654695 
L 383.319245 465.801885 
L 383.994846 473.298506 
L 384.670448 473.728476 
L 385.34605 473.926883 
L 386.021651 473.664335 
L 386.697253 472.950469 
L 387.372855 473.904857 
L 388.048457 473.008917 
L 388.724058 474.375613 
L 389.39966 472.773433 
L 390.075262 476.41156 
L 390.750863 473.840854 
L 391.426465 472.818947 
L 392.102067 471.517434 
L 392.777669 473.149492 
L 393.45327 471.325968 
L 394.128872 472.717504 
L 394.804474 473.810601 
L 395.480075 472.786884 
L 396.155677 472.278411 
L 396.831279 474.267935 
L 397.50688 469.953649 
L 398.182482 468.315991 
L 398.858084 472.697211 
L 399.533686 472.242363 
L 400.209287 474.044146 
L 400.884889 472.055487 
L 401.560491 472.595339 
L 402.236092 473.898966 
L 402.911694 471.625826 
L 403.587296 470.747226 
L 404.262898 471.992463 
L 404.938499 472.478308 
L 405.614101 471.347334 
L 406.289703 471.591394 
L 406.965304 475.426573 
L 407.640906 470.599738 
L 408.316508 457.582704 
L 408.99211 474.843652 
L 409.667711 472.596398 
L 410.343313 472.840124 
L 411.018915 472.808642 
L 411.694516 470.571612 
L 412.370118 471.579199 
L 413.04572 473.445638 
L 413.721321 469.973885 
L 414.396923 468.390872 
L 415.072525 470.106176 
L 415.748127 461.218913 
L 416.423728 470.124622 
L 417.09933 467.205107 
L 417.774932 471.451506 
L 418.450533 469.412254 
L 419.126135 472.190547 
L 419.801737 470.14734 
L 420.477339 473.870494 
L 421.15294 471.474195 
L 421.828542 472.43284 
L 423.179745 473.63944 
L 423.855347 473.694166 
L 424.530949 472.772683 
L 425.206551 473.824434 
L 425.882152 472.071762 
L 426.557754 472.443703 
L 427.233356 471.193722 
L 427.908957 471.429982 
L 428.584559 473.31599 
L 429.260161 470.817141 
L 429.935762 460.877079 
L 430.611364 470.024775 
L 431.286966 466.628028 
L 431.962568 470.636255 
L 432.638169 472.237269 
L 433.989373 473.371831 
L 434.664974 472.312841 
L 435.340576 473.071394 
L 436.016178 473.050651 
L 436.69178 471.08189 
L 437.367381 471.675912 
L 438.042983 465.231833 
L 438.718585 473.718357 
L 439.394186 469.36845 
L 440.069788 468.855644 
L 441.420991 469.546017 
L 442.096593 470.701482 
L 442.772195 471.602383 
L 443.447797 472.14434 
L 444.123398 471.594235 
L 444.799 475.023696 
L 445.474602 474.841694 
L 446.150203 474.514665 
L 446.825805 470.270858 
L 447.501407 473.46659 
L 448.177009 478.419511 
L 448.85261 477.581617 
L 449.528212 477.720157 
L 450.203814 475.701166 
L 450.879415 475.526943 
L 451.555017 476.734201 
L 452.230619 476.906274 
L 452.906221 474.420943 
L 454.257424 477.631963 
L 454.933026 477.697422 
L 455.608627 477.384386 
L 456.284229 477.770653 
L 456.959831 480.036726 
L 457.635432 474.252578 
L 458.311034 476.691798 
L 458.986636 476.873075 
L 459.662238 476.257331 
L 460.337839 476.706233 
L 461.013441 476.506669 
L 461.689043 476.085404 
L 462.364644 476.482671 
L 463.040246 476.111124 
L 463.715848 476.257331 
L 464.39145 476.104117 
L 465.742653 477.09297 
L 466.418255 479.363527 
L 467.093856 477.556657 
L 467.769458 473.176636 
L 468.44506 475.613595 
L 469.120662 475.193815 
L 469.796263 473.588671 
L 470.471865 475.261512 
L 471.147467 473.202609 
L 471.823068 471.811416 
L 472.49867 475.783371 
L 473.174272 476.308394 
L 473.849873 478.255203 
L 474.525475 476.345825 
L 475.201077 476.96585 
L 476.55228 476.131842 
L 477.903484 477.699124 
L 478.579085 477.360991 
L 479.254687 476.631126 
L 479.930289 477.720311 
L 480.605891 476.783028 
L 481.281492 473.988775 
L 481.957094 476.732394 
L 482.632696 474.36108 
L 483.983899 476.181194 
L 484.659501 475.368238 
L 485.335103 475.535458 
L 486.010704 477.035295 
L 486.686306 476.406062 
L 487.361908 475.100627 
L 488.713111 476.998309 
L 489.388713 472.381774 
L 490.064314 476.399766 
L 490.739916 475.362017 
L 491.415518 478.321448 
L 492.09112 476.841131 
L 492.766721 475.011578 
L 493.442323 476.867759 
L 494.117925 476.554379 
L 494.793526 479.291223 
L 495.469128 475.78589 
L 496.14473 475.647282 
L 496.820332 476.356703 
L 497.495933 475.453531 
L 498.171535 476.444058 
L 498.847137 477.903378 
L 499.526116 478.109103 
L 500.19834 475.534783 
L 500.87732 475.109207 
L 501.552921 475.244651 
L 502.228523 476.891927 
L 502.904125 475.517744 
L 503.579727 475.140878 
L 504.255328 475.577686 
L 504.93093 473.632543 
L 505.606532 476.118956 
L 506.282133 475.510705 
L 506.957735 474.572305 
L 507.633337 475.965969 
L 508.308939 474.919409 
L 508.98454 474.131021 
L 509.660142 475.754152 
L 510.335744 472.937467 
L 511.011345 472.874284 
L 511.686947 478.006154 
L 512.362549 478.69258 
L 513.038151 478.345988 
L 513.713752 477.265918 
L 514.389354 478.894067 
L 515.064956 479.460498 
L 515.740557 477.229402 
L 516.416159 473.648035 
L 517.091761 477.875411 
L 517.767362 477.914449 
L 518.442964 476.207527 
L 519.118566 476.777472 
L 519.794168 478.911041 
L 520.469769 471.232735 
L 523.847778 477.033554 
L 525.198981 478.196216 
L 525.874583 476.609911 
L 526.550185 478.011446 
L 527.225786 476.648789 
L 527.901388 477.188 
L 528.57699 475.025841 
L 529.252592 475.779295 
L 529.928193 475.886585 
L 530.603795 475.15057 
L 531.279397 477.053836 
L 531.954998 478.015679 
L 532.6306 476.606888 
L 533.306202 476.178067 
L 533.981803 479.66118 
L 534.657405 479.307514 
L 535.333007 475.375482 
L 536.008609 478.908206 
L 536.68421 476.773276 
L 537.359812 476.479296 
L 538.035414 478.979735 
L 538.711015 477.517699 
L 539.386617 478.608815 
L 540.062219 465.153563 
L 540.737821 477.895446 
L 541.413422 476.059768 
L 542.089024 478.284837 
L 542.764626 479.816504 
L 543.440227 478.862649 
L 544.115829 475.810251 
L 544.791431 477.334464 
L 545.467033 477.86984 
L 546.142634 477.865837 
L 546.818236 477.242303 
L 547.493838 480.057523 
L 548.169439 478.337253 
L 548.845041 475.849495 
L 549.520643 477.453472 
L 550.196244 479.474679 
L 550.871846 478.088178 
L 551.547448 477.61923 
L 552.22305 475.149994 
L 552.898651 477.105142 
L 553.574253 477.355756 
L 554.249855 474.024942 
L 555.601058 469.640829 
L 556.27666 470.559164 
L 556.952262 470.681792 
L 557.627863 471.561493 
L 558.303465 470.297313 
L 558.979067 470.27549 
L 559.654668 472.678 
L 560.33027 466.999783 
L 561.005872 473.243474 
L 561.681473 473.064408 
L 562.357075 473.085 
L 563.032677 478.132927 
L 563.708279 477.049697 
L 564.38388 476.517254 
L 565.735084 478.514401 
L 566.410685 479.111667 
L 567.086287 478.742507 
L 567.761889 477.239772 
L 568.437491 478.623318 
L 569.788694 477.514285 
L 570.464296 477.59526 
L 571.815499 476.757301 
L 572.491101 469.830368 
L 573.166703 477.70253 
L 573.842304 478.452342 
L 574.517906 475.697455 
L 575.193508 476.117948 
L 575.869109 474.867578 
L 576.544711 478.541119 
L 577.220313 476.869067 
L 577.895914 476.364738 
L 579.247118 474.874737 
L 579.92272 476.28649 
L 580.598321 475.134838 
L 581.273923 478.761838 
L 581.949525 478.682783 
L 582.625126 479.828547 
L 583.300728 476.058844 
L 583.97633 476.559404 
L 584.651932 472.576191 
L 585.327533 478.250149 
L 586.003135 475.526015 
L 586.678737 459.819577 
L 587.354338 476.050334 
L 588.02994 480.499664 
L 588.705542 479.831746 
L 589.381144 476.755256 
L 590.056745 478.599133 
L 590.732347 476.856731 
L 591.407949 477.955163 
L 592.08355 477.595005 
L 592.759152 476.018149 
L 593.434754 475.799871 
L 594.110355 477.280872 
L 594.785957 464.306303 
L 595.461559 478.877314 
L 596.137161 479.081678 
L 596.812762 478.589741 
L 597.488364 478.581675 
L 598.163966 478.156433 
L 598.839567 478.696914 
L 600.190771 478.174556 
L 600.866373 478.955941 
L 601.541974 477.930838 
L 602.217576 478.275196 
L 602.893178 475.236653 
L 603.568779 470.14018 
L 604.244381 475.609346 
L 604.919983 476.457863 
L 605.595584 477.58357 
L 606.271186 477.644839 
L 606.946788 476.519779 
L 608.297991 477.240361 
L 608.973593 476.307745 
L 609.649195 476.852003 
L 610.324796 475.275729 
L 611.000398 475.444705 
L 611.676 474.627165 
L 612.351602 473.373871 
L 613.027203 470.98335 
L 613.702805 471.394011 
L 614.378407 471.415876 
L 615.054008 473.43793 
L 615.72961 473.085699 
L 616.405212 469.992395 
L 617.080814 466.159855 
L 617.756415 472.024676 
L 618.432017 472.444813 
L 619.107619 471.703077 
L 619.78322 470.295944 
L 620.458822 470.778111 
L 621.134424 472.686934 
L 621.810025 471.058173 
L 622.485627 466.424589 
L 623.161229 472.983584 
L 623.836831 474.079216 
L 624.512432 471.717054 
L 625.188034 471.324915 
L 625.863636 471.620501 
L 626.539237 471.191114 
L 627.214839 474.533416 
L 628.566043 470.377228 
L 629.241644 472.163691 
L 629.917246 471.561879 
L 630.592848 471.597564 
L 631.268449 471.257653 
L 631.944051 471.805492 
L 632.619653 473.434141 
L 633.295255 476.117853 
L 633.970856 474.353485 
L 634.646458 473.667195 
L 635.32206 476.083108 
L 635.997661 475.966217 
L 636.673263 476.509852 
L 637.348865 476.732394 
L 638.024466 476.137356 
L 638.700068 477.596904 
L 639.37567 477.727058 
L 640.051272 476.47703 
L 640.726873 478.398304 
L 641.402475 478.669246 
L 642.078077 479.598366 
L 642.753678 478.705616 
L 643.42928 478.81468 
L 644.104882 476.545205 
L 644.780484 478.966556 
L 645.456085 478.435737 
L 646.131687 479.345747 
L 646.807289 478.90805 
L 647.48289 475.038936 
L 648.834094 479.686328 
L 649.509696 477.736905 
L 650.185297 479.562009 
L 650.860899 478.214729 
L 651.536501 479.443784 
L 652.212102 477.11175 
L 652.887704 477.67577 
L 653.563306 477.628533 
L 654.238907 478.496697 
L 654.914509 477.27523 
L 655.590111 478.470403 
L 656.265713 477.007443 
L 656.941314 478.063358 
L 657.616916 478.105708 
L 658.292518 479.544411 
L 658.968119 476.90342 
L 660.319323 479.427364 
L 660.994925 479.405809 
L 662.346128 478.214895 
L 663.02173 478.183795 
L 663.697331 479.609375 
L 664.372933 478.114329 
L 665.048535 471.363721 
L 665.724136 476.598234 
L 666.399738 477.793831 
L 667.07534 477.929318 
L 667.750942 477.84826 
L 668.426543 478.051248 
L 669.102145 477.388598 
L 669.777747 477.536989 
L 670.453348 478.474454 
L 671.12895 478.69569 
L 671.804552 478.712024 
L 672.480154 476.458228 
L 673.155755 478.633244 
L 673.831357 480.243854 
L 674.506959 479.264409 
L 675.18256 480.000551 
L 675.858162 475.966031 
L 676.533764 477.927828 
L 677.209366 479.413592 
L 677.884967 480.13417 
L 678.560569 480.47867 
L 679.911772 477.653921 
L 680.587374 478.695012 
L 681.262976 477.511666 
L 681.938577 478.344649 
L 682.614179 478.400651 
L 683.289781 477.364639 
L 683.965383 474.328343 
L 684.640984 475.869021 
L 685.316586 476.750159 
L 685.992188 475.491823 
L 686.667789 475.768133 
L 687.343391 471.765323 
L 688.018993 472.302278 
L 688.694595 474.746788 
L 689.370196 472.688184 
L 690.045798 471.551072 
L 690.7214 470.987038 
L 691.400379 473.027906 
L 692.075981 471.522162 
L 692.751583 472.183591 
L 693.427185 472.181708 
L 694.102786 474.341052 
L 694.778388 473.543787 
L 695.45399 472.061764 
L 696.129591 473.745557 
L 696.805193 471.788534 
L 697.480795 471.412464 
L 698.156396 463.737569 
L 698.831998 472.505326 
L 699.5076 472.611741 
L 700.183202 473.397732 
L 700.858803 470.947058 
L 701.534405 471.662346 
L 702.210007 471.948642 
L 702.885608 469.51724 
L 703.56121 473.094811 
L 704.236812 475.321887 
L 704.912414 474.243617 
L 705.588015 471.876093 
L 706.263617 473.00675 
L 706.939219 475.277571 
L 707.61482 475.287285 
L 708.290422 476.906203 
L 708.966024 477.821881 
L 709.641626 476.751095 
L 710.317227 475.403013 
L 710.992829 477.906647 
L 711.668431 471.64295 
L 712.344032 473.746169 
L 713.019634 473.216342 
L 713.695236 474.041552 
L 714.370837 472.900895 
L 715.046439 470.826926 
L 715.722041 471.743026 
L 716.397643 470.365033 
L 717.073244 470.422343 
L 717.748846 469.172739 
L 718.424448 471.065672 
L 719.100049 472.475963 
L 719.775651 471.143485 
L 720.451253 471.62541 
L 721.126855 470.210289 
L 721.802456 471.402457 
L 722.478058 470.411842 
L 723.15366 471.176833 
L 723.829261 471.71167 
L 723.829261 471.71167 
" clip-path="url(#p0ee69583f7)" style="fill: none; stroke: #ac2b37; stroke-width: 1.5; stroke-linecap: square"/>
   </g>
   <g id="patch_3">
    <path d="M 84.665625 501.3525 
L 84.665625 57.8325 
" style="fill: none; stroke: #000000; stroke-width: 0.8; stroke-linejoin: miter; stroke-linecap: square"/>
   </g>
   <g id="patch_4">
    <path d="M 754.265625 501.3525 
L 754.265625 57.8325 
" style="fill: none; stroke: #000000; stroke-width: 0.8; stroke-linejoin: miter; stroke-linecap: square"/>
   </g>
   <g id="patch_5">
    <path d="M 84.665625 501.3525 
L 754.265625 501.3525 
" style="fill: none; stroke: #000000; stroke-width: 0.8; stroke-linejoin: miter; stroke-linecap: square"/>
   </g>
   <g id="patch_6">
    <path d="M 84.665625 57.8325 
L 754.265625 57.8325 
" style="fill: none; stroke: #000000; stroke-width: 0.8; stroke-linejoin: miter; stroke-linecap: square"/>
   </g>
   <g id="text_17">
    <!-- Efficiency vs Time -->
    <g transform="translate(332.95875 51.8325) scale(0.24 -0.24)">
     <defs>
      <path id="AptosDisplay-76" d="M 1103 0 
L -13 3044 
L 538 3044 
L 1391 513 
L 2250 3044 
L 2781 3044 
L 1678 0 
L 1103 0 
z
" transform="scale(0.015625)"/>
      <path id="AptosDisplay-73" d="M 1506 -41 
Q 1247 -41 1017 14 
Q 788 69 613 191 
Q 438 313 339 506 
Q 241 700 241 978 
L 744 978 
Q 744 628 966 487 
Q 1188 347 1519 347 
Q 1816 347 2008 458 
Q 2200 569 2200 822 
Q 2200 1047 2026 1153 
Q 1853 1259 1413 1369 
Q 1056 1453 815 1564 
Q 575 1675 453 1845 
Q 331 2016 331 2275 
Q 331 2475 417 2626 
Q 503 2778 658 2879 
Q 813 2981 1020 3032 
Q 1228 3084 1472 3084 
Q 1713 3084 1923 3028 
Q 2134 2972 2296 2855 
Q 2459 2738 2551 2552 
Q 2644 2366 2644 2109 
L 2138 2109 
Q 2138 2425 1945 2558 
Q 1753 2691 1472 2691 
Q 1191 2691 1016 2594 
Q 841 2497 841 2291 
Q 841 2169 919 2084 
Q 997 2000 1181 1933 
Q 1366 1866 1675 1791 
Q 2019 1709 2248 1596 
Q 2478 1484 2595 1306 
Q 2713 1128 2713 847 
Q 2713 616 2622 447 
Q 2531 278 2367 170 
Q 2203 63 1983 11 
Q 1763 -41 1506 -41 
z
" transform="scale(0.015625)"/>
     </defs>
     <use xlink:href="#AptosDisplay-45"/>
     <use xlink:href="#AptosDisplay-66" x="54.052734"/>
     <use xlink:href="#AptosDisplay-66" x="82.373047"/>
     <use xlink:href="#AptosDisplay-69" x="110.693359"/>
     <use xlink:href="#AptosDisplay-63" x="131.738281"/>
     <use xlink:href="#AptosDisplay-69" x="181.005859"/>
     <use xlink:href="#AptosDisplay-65" x="202.050781"/>
     <use xlink:href="#AptosDisplay-6e" x="251.464844"/>
     <use xlink:href="#AptosDisplay-63" x="302.050781"/>
     <use xlink:href="#AptosDisplay-79" x="351.318359"/>
     <use xlink:href="#AptosDisplay-20" x="394.580078"/>
     <use xlink:href="#AptosDisplay-76" x="413.867188"/>
     <use xlink:href="#AptosDisplay-73" x="457.128906"/>
     <use xlink:href="#AptosDisplay-20" x="503.417969"/>
     <use xlink:href="#AptosDisplay-54" x="522.705078"/>
     <use xlink:href="#AptosDisplay-69" x="570.410156"/>
     <use xlink:href="#AptosDisplay-6d" x="591.455078"/>
     <use xlink:href="#AptosDisplay-65" x="671.435547"/>
    </g>
   </g>
  </g>
 </g>
 <defs>
  <clipPath id="p0ee69583f7">
   <rect x="84.665625" y="57.8325" width="669.6" height="443.52"/>
  </clipPath>
 </defs>
</svg>
