<?xml version="1.0" encoding="utf-8" standalone="no"?>
<!DOCTYPE svg PUBLIC "-//W3C//DTD SVG 1.1//EN"
  "http://www.w3.org/Graphics/SVG/1.1/DTD/svg11.dtd">
<svg xmlns:xlink="http://www.w3.org/1999/xlink" width="800.88125pt" height="581.830625pt" viewBox="0 0 800.88125 581.830625" xmlns="http://www.w3.org/2000/svg" version="1.1">
 <metadata>
  <rdf:RDF xmlns:dc="http://purl.org/dc/elements/1.1/" xmlns:cc="http://creativecommons.org/ns#" xmlns:rdf="http://www.w3.org/1999/02/22-rdf-syntax-ns#">
   <cc:Work>
    <dc:type rdf:resource="http://purl.org/dc/dcmitype/StillImage"/>
    <dc:date>2025-04-03T01:48:01.391512</dc:date>
    <dc:format>image/svg+xml</dc:format>
    <dc:creator>
     <cc:Agent>
      <dc:title>Matplotlib v3.8.2, https://matplotlib.org/</dc:title>
     </cc:Agent>
    </dc:creator>
   </cc:Work>
  </rdf:RDF>
 </metadata>
 <defs>
  <style type="text/css">*{stroke-linejoin: round; stroke-linecap: butt}</style>
 </defs>
 <g id="figure_1">
  <g id="patch_1">
   <path d="M 0 581.830625 
L 800.88125 581.830625 
L 800.88125 0 
L 0 0 
z
" style="fill: #ffffff"/>
  </g>
  <g id="axes_1">
   <g id="patch_2">
    <path d="M 95.28125 501.3525 
L 764.88125 501.3525 
L 764.88125 57.8325 
L 95.28125 57.8325 
z
" style="fill: #ffffff"/>
   </g>
   <g id="matplotlib.axis_1">
    <g id="xtick_1">
     <g id="line2d_1">
      <path d="M 125.657211 501.3525 
L 125.657211 57.8325 
" clip-path="url(#pbf0566e111)" style="fill: none; stroke: #b0b0b0; stroke-opacity: 0.8; stroke-linecap: square"/>
     </g>
     <g id="line2d_2">
      <defs>
       <path id="m2b7e10acf2" d="M 0 0 
L 0 3.5 
" style="stroke: #000000; stroke-width: 0.8"/>
      </defs>
      <g>
       <use xlink:href="#m2b7e10acf2" x="125.657211" y="501.3525" style="stroke: #000000; stroke-width: 0.8"/>
      </g>
     </g>
     <g id="text_1">
      <!-- 0 -->
      <g transform="translate(120.427523 521.49625) scale(0.2 -0.2)">
       <defs>
        <path id="AptosDisplay-30" d="M 1672 -56 
Q 1291 -56 1028 105 
Q 766 266 605 552 
Q 444 838 372 1216 
Q 300 1594 300 2031 
Q 300 2475 372 2856 
Q 444 3238 605 3525 
Q 766 3813 1028 3973 
Q 1291 4134 1672 4134 
Q 2053 4134 2317 3975 
Q 2581 3816 2742 3527 
Q 2903 3238 2975 2858 
Q 3047 2478 3047 2038 
Q 3047 1597 2975 1217 
Q 2903 838 2742 552 
Q 2581 266 2318 105 
Q 2056 -56 1672 -56 
z
M 1672 409 
Q 1916 409 2073 550 
Q 2231 691 2322 925 
Q 2413 1159 2448 1448 
Q 2484 1738 2484 2038 
Q 2484 2338 2448 2628 
Q 2413 2919 2322 3153 
Q 2231 3388 2073 3527 
Q 1916 3666 1669 3666 
Q 1428 3666 1268 3527 
Q 1109 3388 1020 3153 
Q 931 2919 893 2628 
Q 856 2338 856 2038 
Q 856 1741 893 1450 
Q 931 1159 1020 925 
Q 1109 691 1268 550 
Q 1428 409 1672 409 
z
" transform="scale(0.015625)"/>
       </defs>
       <use xlink:href="#AptosDisplay-30"/>
      </g>
     </g>
    </g>
    <g id="xtick_2">
     <g id="line2d_3">
      <path d="M 259.885937 501.3525 
L 259.885937 57.8325 
" clip-path="url(#pbf0566e111)" style="fill: none; stroke: #b0b0b0; stroke-opacity: 0.8; stroke-linecap: square"/>
     </g>
     <g id="line2d_4">
      <g>
       <use xlink:href="#m2b7e10acf2" x="259.885937" y="501.3525" style="stroke: #000000; stroke-width: 0.8"/>
      </g>
     </g>
     <g id="text_2">
      <!-- 20 -->
      <g transform="translate(249.426562 521.49625) scale(0.2 -0.2)">
       <defs>
        <path id="AptosDisplay-32" d="M 247 0 
L 247 413 
L 1725 1741 
Q 2100 2081 2269 2351 
Q 2438 2622 2438 2938 
Q 2438 3256 2263 3461 
Q 2088 3666 1691 3666 
Q 1247 3666 1055 3439 
Q 863 3213 863 2869 
L 341 2869 
Q 341 3250 491 3534 
Q 641 3819 941 3975 
Q 1241 4131 1691 4131 
Q 2103 4131 2390 3986 
Q 2678 3841 2828 3578 
Q 2978 3316 2978 2959 
Q 2978 2638 2853 2375 
Q 2728 2113 2517 1883 
Q 2306 1653 2044 1425 
L 959 463 
L 3097 463 
L 3097 0 
L 247 0 
z
" transform="scale(0.015625)"/>
       </defs>
       <use xlink:href="#AptosDisplay-32"/>
       <use xlink:href="#AptosDisplay-30" x="52.294922"/>
      </g>
     </g>
    </g>
    <g id="xtick_3">
     <g id="line2d_5">
      <path d="M 394.114663 501.3525 
L 394.114663 57.8325 
" clip-path="url(#pbf0566e111)" style="fill: none; stroke: #b0b0b0; stroke-opacity: 0.8; stroke-linecap: square"/>
     </g>
     <g id="line2d_6">
      <g>
       <use xlink:href="#m2b7e10acf2" x="394.114663" y="501.3525" style="stroke: #000000; stroke-width: 0.8"/>
      </g>
     </g>
     <g id="text_3">
      <!-- 40 -->
      <g transform="translate(383.655288 521.49625) scale(0.2 -0.2)">
       <defs>
        <path id="AptosDisplay-34" d="M 2106 0 
L 2106 825 
L 125 825 
L 125 1297 
L 2100 4103 
L 2631 4103 
L 2631 1284 
L 3191 1284 
L 3191 825 
L 2631 825 
L 2631 0 
L 2106 0 
z
M 638 1284 
L 2113 1284 
L 2113 3369 
L 638 1284 
z
" transform="scale(0.015625)"/>
       </defs>
       <use xlink:href="#AptosDisplay-34"/>
       <use xlink:href="#AptosDisplay-30" x="52.294922"/>
      </g>
     </g>
    </g>
    <g id="xtick_4">
     <g id="line2d_7">
      <path d="M 528.343389 501.3525 
L 528.343389 57.8325 
" clip-path="url(#pbf0566e111)" style="fill: none; stroke: #b0b0b0; stroke-opacity: 0.8; stroke-linecap: square"/>
     </g>
     <g id="line2d_8">
      <g>
       <use xlink:href="#m2b7e10acf2" x="528.343389" y="501.3525" style="stroke: #000000; stroke-width: 0.8"/>
      </g>
     </g>
     <g id="text_4">
      <!-- 60 -->
      <g transform="translate(517.884014 521.49625) scale(0.2 -0.2)">
       <defs>
        <path id="AptosDisplay-36" d="M 1759 -56 
Q 1325 -56 984 151 
Q 644 359 447 815 
Q 250 1272 250 2013 
Q 250 2738 439 3206 
Q 628 3675 968 3903 
Q 1309 4131 1759 4131 
Q 2253 4131 2595 3875 
Q 2938 3619 3034 3097 
L 2503 3097 
Q 2441 3388 2250 3534 
Q 2059 3681 1759 3681 
Q 1306 3681 1047 3279 
Q 788 2878 788 2013 
L 788 1850 
Q 788 1313 922 992 
Q 1056 672 1279 531 
Q 1503 391 1763 391 
Q 2175 391 2369 644 
Q 2563 897 2563 1272 
Q 2563 1650 2373 1869 
Q 2184 2088 1838 2088 
Q 1422 2088 1114 1897 
Q 806 1706 644 1456 
L 597 1856 
Q 728 2047 922 2201 
Q 1116 2356 1362 2447 
Q 1609 2538 1909 2538 
Q 2253 2538 2523 2395 
Q 2794 2253 2951 1975 
Q 3109 1697 3109 1291 
Q 3109 897 2951 592 
Q 2794 288 2492 116 
Q 2191 -56 1759 -56 
z
" transform="scale(0.015625)"/>
       </defs>
       <use xlink:href="#AptosDisplay-36"/>
       <use xlink:href="#AptosDisplay-30" x="52.294922"/>
      </g>
     </g>
    </g>
    <g id="xtick_5">
     <g id="line2d_9">
      <path d="M 662.572115 501.3525 
L 662.572115 57.8325 
" clip-path="url(#pbf0566e111)" style="fill: none; stroke: #b0b0b0; stroke-opacity: 0.8; stroke-linecap: square"/>
     </g>
     <g id="line2d_10">
      <g>
       <use xlink:href="#m2b7e10acf2" x="662.572115" y="501.3525" style="stroke: #000000; stroke-width: 0.8"/>
      </g>
     </g>
     <g id="text_5">
      <!-- 80 -->
      <g transform="translate(652.11274 521.49625) scale(0.2 -0.2)">
       <defs>
        <path id="AptosDisplay-38" d="M 1675 -56 
Q 1391 -56 1137 16 
Q 884 88 686 234 
Q 488 381 373 606 
Q 259 831 259 1141 
Q 259 1531 495 1797 
Q 731 2063 1084 2150 
Q 781 2250 604 2490 
Q 428 2731 428 3081 
Q 428 3447 609 3681 
Q 791 3916 1075 4025 
Q 1359 4134 1669 4134 
Q 1981 4134 2265 4023 
Q 2550 3913 2733 3680 
Q 2916 3447 2916 3081 
Q 2916 2725 2716 2481 
Q 2516 2238 2238 2150 
Q 2606 2063 2843 1800 
Q 3081 1538 3081 1141 
Q 3081 831 2968 606 
Q 2856 381 2661 234 
Q 2466 88 2211 16 
Q 1956 -56 1675 -56 
z
M 1672 388 
Q 1909 388 2109 470 
Q 2309 553 2429 725 
Q 2550 897 2550 1163 
Q 2550 1416 2426 1587 
Q 2303 1759 2104 1846 
Q 1906 1934 1672 1928 
Q 1453 1934 1253 1850 
Q 1053 1766 926 1594 
Q 800 1422 800 1163 
Q 800 775 1058 581 
Q 1316 388 1672 388 
z
M 1672 2363 
Q 1863 2356 2030 2434 
Q 2197 2513 2300 2667 
Q 2403 2822 2403 3050 
Q 2403 3388 2189 3544 
Q 1975 3700 1675 3700 
Q 1484 3700 1317 3631 
Q 1150 3563 1047 3419 
Q 944 3275 944 3050 
Q 944 2825 1048 2670 
Q 1153 2516 1320 2436 
Q 1488 2356 1672 2363 
z
" transform="scale(0.015625)"/>
       </defs>
       <use xlink:href="#AptosDisplay-38"/>
       <use xlink:href="#AptosDisplay-30" x="52.294922"/>
      </g>
     </g>
    </g>
    <g id="xtick_6">
     <g id="line2d_11">
      <path d="M 159.214392 501.3525 
L 159.214392 57.8325 
" clip-path="url(#pbf0566e111)" style="fill: none; stroke-dasharray: 1.85,0.8; stroke-dashoffset: 0; stroke: #b0b0b0; stroke-opacity: 0.8; stroke-width: 0.5"/>
     </g>
     <g id="line2d_12">
      <defs>
       <path id="ma8669462e7" d="M 0 0 
L 0 2 
" style="stroke: #000000; stroke-width: 0.6"/>
      </defs>
      <g>
       <use xlink:href="#ma8669462e7" x="159.214392" y="501.3525" style="stroke: #000000; stroke-width: 0.6"/>
      </g>
     </g>
    </g>
    <g id="xtick_7">
     <g id="line2d_13">
      <path d="M 192.771574 501.3525 
L 192.771574 57.8325 
" clip-path="url(#pbf0566e111)" style="fill: none; stroke-dasharray: 1.85,0.8; stroke-dashoffset: 0; stroke: #b0b0b0; stroke-opacity: 0.8; stroke-width: 0.5"/>
     </g>
     <g id="line2d_14">
      <g>
       <use xlink:href="#ma8669462e7" x="192.771574" y="501.3525" style="stroke: #000000; stroke-width: 0.6"/>
      </g>
     </g>
    </g>
    <g id="xtick_8">
     <g id="line2d_15">
      <path d="M 226.328755 501.3525 
L 226.328755 57.8325 
" clip-path="url(#pbf0566e111)" style="fill: none; stroke-dasharray: 1.85,0.8; stroke-dashoffset: 0; stroke: #b0b0b0; stroke-opacity: 0.8; stroke-width: 0.5"/>
     </g>
     <g id="line2d_16">
      <g>
       <use xlink:href="#ma8669462e7" x="226.328755" y="501.3525" style="stroke: #000000; stroke-width: 0.6"/>
      </g>
     </g>
    </g>
    <g id="xtick_9">
     <g id="line2d_17">
      <path d="M 293.443118 501.3525 
L 293.443118 57.8325 
" clip-path="url(#pbf0566e111)" style="fill: none; stroke-dasharray: 1.85,0.8; stroke-dashoffset: 0; stroke: #b0b0b0; stroke-opacity: 0.8; stroke-width: 0.5"/>
     </g>
     <g id="line2d_18">
      <g>
       <use xlink:href="#ma8669462e7" x="293.443118" y="501.3525" style="stroke: #000000; stroke-width: 0.6"/>
      </g>
     </g>
    </g>
    <g id="xtick_10">
     <g id="line2d_19">
      <path d="M 327.0003 501.3525 
L 327.0003 57.8325 
" clip-path="url(#pbf0566e111)" style="fill: none; stroke-dasharray: 1.85,0.8; stroke-dashoffset: 0; stroke: #b0b0b0; stroke-opacity: 0.8; stroke-width: 0.5"/>
     </g>
     <g id="line2d_20">
      <g>
       <use xlink:href="#ma8669462e7" x="327.0003" y="501.3525" style="stroke: #000000; stroke-width: 0.6"/>
      </g>
     </g>
    </g>
    <g id="xtick_11">
     <g id="line2d_21">
      <path d="M 360.557481 501.3525 
L 360.557481 57.8325 
" clip-path="url(#pbf0566e111)" style="fill: none; stroke-dasharray: 1.85,0.8; stroke-dashoffset: 0; stroke: #b0b0b0; stroke-opacity: 0.8; stroke-width: 0.5"/>
     </g>
     <g id="line2d_22">
      <g>
       <use xlink:href="#ma8669462e7" x="360.557481" y="501.3525" style="stroke: #000000; stroke-width: 0.6"/>
      </g>
     </g>
    </g>
    <g id="xtick_12">
     <g id="line2d_23">
      <path d="M 427.671844 501.3525 
L 427.671844 57.8325 
" clip-path="url(#pbf0566e111)" style="fill: none; stroke-dasharray: 1.85,0.8; stroke-dashoffset: 0; stroke: #b0b0b0; stroke-opacity: 0.8; stroke-width: 0.5"/>
     </g>
     <g id="line2d_24">
      <g>
       <use xlink:href="#ma8669462e7" x="427.671844" y="501.3525" style="stroke: #000000; stroke-width: 0.6"/>
      </g>
     </g>
    </g>
    <g id="xtick_13">
     <g id="line2d_25">
      <path d="M 461.229026 501.3525 
L 461.229026 57.8325 
" clip-path="url(#pbf0566e111)" style="fill: none; stroke-dasharray: 1.85,0.8; stroke-dashoffset: 0; stroke: #b0b0b0; stroke-opacity: 0.8; stroke-width: 0.5"/>
     </g>
     <g id="line2d_26">
      <g>
       <use xlink:href="#ma8669462e7" x="461.229026" y="501.3525" style="stroke: #000000; stroke-width: 0.6"/>
      </g>
     </g>
    </g>
    <g id="xtick_14">
     <g id="line2d_27">
      <path d="M 494.786207 501.3525 
L 494.786207 57.8325 
" clip-path="url(#pbf0566e111)" style="fill: none; stroke-dasharray: 1.85,0.8; stroke-dashoffset: 0; stroke: #b0b0b0; stroke-opacity: 0.8; stroke-width: 0.5"/>
     </g>
     <g id="line2d_28">
      <g>
       <use xlink:href="#ma8669462e7" x="494.786207" y="501.3525" style="stroke: #000000; stroke-width: 0.6"/>
      </g>
     </g>
    </g>
    <g id="xtick_15">
     <g id="line2d_29">
      <path d="M 561.90057 501.3525 
L 561.90057 57.8325 
" clip-path="url(#pbf0566e111)" style="fill: none; stroke-dasharray: 1.85,0.8; stroke-dashoffset: 0; stroke: #b0b0b0; stroke-opacity: 0.8; stroke-width: 0.5"/>
     </g>
     <g id="line2d_30">
      <g>
       <use xlink:href="#ma8669462e7" x="561.90057" y="501.3525" style="stroke: #000000; stroke-width: 0.6"/>
      </g>
     </g>
    </g>
    <g id="xtick_16">
     <g id="line2d_31">
      <path d="M 595.457752 501.3525 
L 595.457752 57.8325 
" clip-path="url(#pbf0566e111)" style="fill: none; stroke-dasharray: 1.85,0.8; stroke-dashoffset: 0; stroke: #b0b0b0; stroke-opacity: 0.8; stroke-width: 0.5"/>
     </g>
     <g id="line2d_32">
      <g>
       <use xlink:href="#ma8669462e7" x="595.457752" y="501.3525" style="stroke: #000000; stroke-width: 0.6"/>
      </g>
     </g>
    </g>
    <g id="xtick_17">
     <g id="line2d_33">
      <path d="M 629.014933 501.3525 
L 629.014933 57.8325 
" clip-path="url(#pbf0566e111)" style="fill: none; stroke-dasharray: 1.85,0.8; stroke-dashoffset: 0; stroke: #b0b0b0; stroke-opacity: 0.8; stroke-width: 0.5"/>
     </g>
     <g id="line2d_34">
      <g>
       <use xlink:href="#ma8669462e7" x="629.014933" y="501.3525" style="stroke: #000000; stroke-width: 0.6"/>
      </g>
     </g>
    </g>
    <g id="xtick_18">
     <g id="line2d_35">
      <path d="M 696.129297 501.3525 
L 696.129297 57.8325 
" clip-path="url(#pbf0566e111)" style="fill: none; stroke-dasharray: 1.85,0.8; stroke-dashoffset: 0; stroke: #b0b0b0; stroke-opacity: 0.8; stroke-width: 0.5"/>
     </g>
     <g id="line2d_36">
      <g>
       <use xlink:href="#ma8669462e7" x="696.129297" y="501.3525" style="stroke: #000000; stroke-width: 0.6"/>
      </g>
     </g>
    </g>
    <g id="xtick_19">
     <g id="line2d_37">
      <path d="M 729.686478 501.3525 
L 729.686478 57.8325 
" clip-path="url(#pbf0566e111)" style="fill: none; stroke-dasharray: 1.85,0.8; stroke-dashoffset: 0; stroke: #b0b0b0; stroke-opacity: 0.8; stroke-width: 0.5"/>
     </g>
     <g id="line2d_38">
      <g>
       <use xlink:href="#ma8669462e7" x="729.686478" y="501.3525" style="stroke: #000000; stroke-width: 0.6"/>
      </g>
     </g>
    </g>
    <g id="xtick_20">
     <g id="line2d_39">
      <path d="M 763.24366 501.3525 
L 763.24366 57.8325 
" clip-path="url(#pbf0566e111)" style="fill: none; stroke-dasharray: 1.85,0.8; stroke-dashoffset: 0; stroke: #b0b0b0; stroke-opacity: 0.8; stroke-width: 0.5"/>
     </g>
     <g id="line2d_40">
      <g>
       <use xlink:href="#ma8669462e7" x="763.24366" y="501.3525" style="stroke: #000000; stroke-width: 0.6"/>
      </g>
     </g>
    </g>
    <g id="text_6">
     <!-- Time (S) -->
     <g transform="translate(396.990625 542.305625) scale(0.2 -0.2)">
      <defs>
       <path id="AptosDisplay-54" d="M 1244 0 
L 1244 3734 
L 50 3734 
L 50 4206 
L 2997 4206 
L 2997 3734 
L 1806 3734 
L 1806 0 
L 1244 0 
z
" transform="scale(0.015625)"/>
       <path id="AptosDisplay-69" d="M 413 0 
L 413 3044 
L 934 3044 
L 934 0 
L 413 0 
z
M 675 3616 
Q 525 3616 437 3702 
Q 350 3788 350 3919 
Q 350 4050 437 4136 
Q 525 4222 675 4222 
Q 822 4222 912 4136 
Q 1003 4050 1003 3919 
Q 1003 3788 912 3702 
Q 822 3616 675 3616 
z
" transform="scale(0.015625)"/>
       <path id="AptosDisplay-6d" d="M 413 0 
L 413 3044 
L 919 3044 
L 931 2575 
Q 1063 2756 1303 2914 
Q 1544 3072 1903 3072 
Q 2403 3072 2618 2778 
Q 2834 2484 2834 1963 
L 2834 0 
L 2316 0 
L 2316 1891 
Q 2316 2106 2275 2275 
Q 2234 2444 2120 2539 
Q 2006 2634 1788 2634 
Q 1488 2634 1277 2482 
Q 1066 2331 934 2156 
L 934 0 
L 413 0 
z
M 4206 0 
L 4206 1891 
Q 4206 2106 4164 2275 
Q 4122 2444 4009 2539 
Q 3897 2634 3681 2634 
Q 3381 2634 3165 2484 
Q 2950 2334 2822 2159 
L 2744 2544 
Q 2916 2741 3175 2906 
Q 3434 3072 3800 3072 
Q 4291 3072 4509 2778 
Q 4728 2484 4728 1963 
L 4728 0 
L 4206 0 
z
" transform="scale(0.015625)"/>
       <path id="AptosDisplay-65" d="M 1663 -56 
Q 1188 -56 878 151 
Q 569 359 417 717 
Q 266 1075 266 1522 
Q 266 1988 412 2342 
Q 559 2697 857 2897 
Q 1156 3097 1606 3097 
Q 2209 3097 2550 2722 
Q 2891 2347 2891 1644 
Q 2891 1597 2889 1533 
Q 2888 1469 2881 1441 
L 791 1441 
Q 794 1144 881 895 
Q 969 647 1161 497 
Q 1353 347 1663 347 
Q 1997 347 2183 511 
Q 2369 675 2378 984 
L 2894 984 
Q 2884 663 2732 430 
Q 2581 197 2309 70 
Q 2038 -56 1663 -56 
z
M 794 1822 
L 2375 1822 
Q 2366 2247 2166 2472 
Q 1966 2697 1606 2697 
Q 1241 2697 1036 2473 
Q 831 2250 794 1822 
z
" transform="scale(0.015625)"/>
       <path id="AptosDisplay-20" transform="scale(0.015625)"/>
       <path id="AptosDisplay-28" d="M 1219 -1116 
Q 969 -678 787 -267 
Q 606 144 511 581 
Q 416 1019 416 1528 
Q 416 2028 509 2486 
Q 603 2944 783 3378 
Q 963 3813 1219 4231 
L 1647 4231 
Q 1278 3600 1101 2886 
Q 925 2172 925 1428 
Q 925 766 1125 103 
Q 1325 -559 1647 -1116 
L 1219 -1116 
z
" transform="scale(0.015625)"/>
       <path id="AptosDisplay-53" d="M 1778 -56 
Q 1328 -56 962 81 
Q 597 219 384 512 
Q 172 806 172 1275 
L 734 1275 
Q 738 941 883 750 
Q 1028 559 1267 481 
Q 1506 403 1794 403 
Q 2063 403 2283 483 
Q 2503 563 2634 723 
Q 2766 884 2766 1134 
Q 2766 1356 2662 1497 
Q 2559 1638 2321 1742 
Q 2084 1847 1678 1950 
Q 1203 2075 897 2223 
Q 591 2372 442 2594 
Q 294 2816 294 3156 
Q 294 3516 462 3761 
Q 631 4006 945 4134 
Q 1259 4263 1697 4263 
Q 2103 4263 2440 4131 
Q 2778 4000 2979 3737 
Q 3181 3475 3181 3084 
L 2616 3084 
Q 2622 3441 2356 3623 
Q 2091 3806 1700 3806 
Q 1300 3806 1073 3645 
Q 847 3484 847 3175 
Q 847 2991 944 2867 
Q 1041 2744 1280 2644 
Q 1519 2544 1941 2434 
Q 2428 2303 2731 2153 
Q 3034 2003 3178 1768 
Q 3322 1534 3322 1153 
Q 3322 747 3117 480 
Q 2913 213 2564 78 
Q 2216 -56 1778 -56 
z
" transform="scale(0.015625)"/>
       <path id="AptosDisplay-29" d="M 234 -1116 
Q 609 -481 786 233 
Q 963 947 963 1694 
Q 963 2356 759 3015 
Q 556 3675 234 4231 
L 663 4231 
Q 919 3800 1098 3389 
Q 1278 2978 1373 2540 
Q 1469 2103 1469 1594 
Q 1469 1094 1375 634 
Q 1281 175 1100 -259 
Q 919 -694 663 -1116 
L 234 -1116 
z
" transform="scale(0.015625)"/>
      </defs>
      <use xlink:href="#AptosDisplay-54"/>
      <use xlink:href="#AptosDisplay-69" x="47.705078"/>
      <use xlink:href="#AptosDisplay-6d" x="68.75"/>
      <use xlink:href="#AptosDisplay-65" x="148.730469"/>
      <use xlink:href="#AptosDisplay-20" x="198.144531"/>
      <use xlink:href="#AptosDisplay-28" x="217.431641"/>
      <use xlink:href="#AptosDisplay-53" x="246.875"/>
      <use xlink:href="#AptosDisplay-29" x="301.464844"/>
     </g>
    </g>
   </g>
   <g id="matplotlib.axis_2">
    <g id="ytick_1">
     <g id="line2d_41">
      <path d="M 95.28125 483.305796 
L 764.88125 483.305796 
" clip-path="url(#pbf0566e111)" style="fill: none; stroke: #b0b0b0; stroke-opacity: 0.8; stroke-linecap: square"/>
     </g>
     <g id="line2d_42">
      <defs>
       <path id="mfa1ab6ffaa" d="M 0 0 
L -3.5 0 
" style="stroke: #000000; stroke-width: 0.8"/>
      </defs>
      <g>
       <use xlink:href="#mfa1ab6ffaa" x="95.28125" y="483.305796" style="stroke: #000000; stroke-width: 0.8"/>
      </g>
     </g>
     <g id="text_7">
      <!-- 760 -->
      <g transform="translate(56.903125 489.877671) scale(0.2 -0.2)">
       <defs>
        <path id="AptosDisplay-37" d="M 766 0 
L 2609 3600 
L 194 3600 
L 194 4078 
L 3141 4078 
L 3141 3622 
L 1334 0 
L 766 0 
z
" transform="scale(0.015625)"/>
       </defs>
       <use xlink:href="#AptosDisplay-37"/>
       <use xlink:href="#AptosDisplay-36" x="52.294922"/>
       <use xlink:href="#AptosDisplay-30" x="104.589844"/>
      </g>
     </g>
    </g>
    <g id="ytick_2">
     <g id="line2d_43">
      <path d="M 95.28125 394.511848 
L 764.88125 394.511848 
" clip-path="url(#pbf0566e111)" style="fill: none; stroke: #b0b0b0; stroke-opacity: 0.8; stroke-linecap: square"/>
     </g>
     <g id="line2d_44">
      <g>
       <use xlink:href="#mfa1ab6ffaa" x="95.28125" y="394.511848" style="stroke: #000000; stroke-width: 0.8"/>
      </g>
     </g>
     <g id="text_8">
      <!-- 780 -->
      <g transform="translate(56.903125 401.083723) scale(0.2 -0.2)">
       <use xlink:href="#AptosDisplay-37"/>
       <use xlink:href="#AptosDisplay-38" x="52.294922"/>
       <use xlink:href="#AptosDisplay-30" x="104.589844"/>
      </g>
     </g>
    </g>
    <g id="ytick_3">
     <g id="line2d_45">
      <path d="M 95.28125 305.717899 
L 764.88125 305.717899 
" clip-path="url(#pbf0566e111)" style="fill: none; stroke: #b0b0b0; stroke-opacity: 0.8; stroke-linecap: square"/>
     </g>
     <g id="line2d_46">
      <g>
       <use xlink:href="#mfa1ab6ffaa" x="95.28125" y="305.717899" style="stroke: #000000; stroke-width: 0.8"/>
      </g>
     </g>
     <g id="text_9">
      <!-- 800 -->
      <g transform="translate(56.903125 312.289774) scale(0.2 -0.2)">
       <use xlink:href="#AptosDisplay-38"/>
       <use xlink:href="#AptosDisplay-30" x="52.294922"/>
       <use xlink:href="#AptosDisplay-30" x="104.589844"/>
      </g>
     </g>
    </g>
    <g id="ytick_4">
     <g id="line2d_47">
      <path d="M 95.28125 216.923951 
L 764.88125 216.923951 
" clip-path="url(#pbf0566e111)" style="fill: none; stroke: #b0b0b0; stroke-opacity: 0.8; stroke-linecap: square"/>
     </g>
     <g id="line2d_48">
      <g>
       <use xlink:href="#mfa1ab6ffaa" x="95.28125" y="216.923951" style="stroke: #000000; stroke-width: 0.8"/>
      </g>
     </g>
     <g id="text_10">
      <!-- 820 -->
      <g transform="translate(56.903125 223.495826) scale(0.2 -0.2)">
       <use xlink:href="#AptosDisplay-38"/>
       <use xlink:href="#AptosDisplay-32" x="52.294922"/>
       <use xlink:href="#AptosDisplay-30" x="104.589844"/>
      </g>
     </g>
    </g>
    <g id="ytick_5">
     <g id="line2d_49">
      <path d="M 95.28125 128.130003 
L 764.88125 128.130003 
" clip-path="url(#pbf0566e111)" style="fill: none; stroke: #b0b0b0; stroke-opacity: 0.8; stroke-linecap: square"/>
     </g>
     <g id="line2d_50">
      <g>
       <use xlink:href="#mfa1ab6ffaa" x="95.28125" y="128.130003" style="stroke: #000000; stroke-width: 0.8"/>
      </g>
     </g>
     <g id="text_11">
      <!-- 840 -->
      <g transform="translate(56.903125 134.701878) scale(0.2 -0.2)">
       <use xlink:href="#AptosDisplay-38"/>
       <use xlink:href="#AptosDisplay-34" x="52.294922"/>
       <use xlink:href="#AptosDisplay-30" x="104.589844"/>
      </g>
     </g>
    </g>
    <g id="ytick_6">
     <g id="line2d_51">
      <path d="M 95.28125 461.107309 
L 764.88125 461.107309 
" clip-path="url(#pbf0566e111)" style="fill: none; stroke-dasharray: 1.85,0.8; stroke-dashoffset: 0; stroke: #b0b0b0; stroke-opacity: 0.8; stroke-width: 0.5"/>
     </g>
     <g id="line2d_52">
      <defs>
       <path id="mc56a962ad5" d="M 0 0 
L -2 0 
" style="stroke: #000000; stroke-width: 0.6"/>
      </defs>
      <g>
       <use xlink:href="#mc56a962ad5" x="95.28125" y="461.107309" style="stroke: #000000; stroke-width: 0.6"/>
      </g>
     </g>
    </g>
    <g id="ytick_7">
     <g id="line2d_53">
      <path d="M 95.28125 438.908822 
L 764.88125 438.908822 
" clip-path="url(#pbf0566e111)" style="fill: none; stroke-dasharray: 1.85,0.8; stroke-dashoffset: 0; stroke: #b0b0b0; stroke-opacity: 0.8; stroke-width: 0.5"/>
     </g>
     <g id="line2d_54">
      <g>
       <use xlink:href="#mc56a962ad5" x="95.28125" y="438.908822" style="stroke: #000000; stroke-width: 0.6"/>
      </g>
     </g>
    </g>
    <g id="ytick_8">
     <g id="line2d_55">
      <path d="M 95.28125 416.710335 
L 764.88125 416.710335 
" clip-path="url(#pbf0566e111)" style="fill: none; stroke-dasharray: 1.85,0.8; stroke-dashoffset: 0; stroke: #b0b0b0; stroke-opacity: 0.8; stroke-width: 0.5"/>
     </g>
     <g id="line2d_56">
      <g>
       <use xlink:href="#mc56a962ad5" x="95.28125" y="416.710335" style="stroke: #000000; stroke-width: 0.6"/>
      </g>
     </g>
    </g>
    <g id="ytick_9">
     <g id="line2d_57">
      <path d="M 95.28125 372.313361 
L 764.88125 372.313361 
" clip-path="url(#pbf0566e111)" style="fill: none; stroke-dasharray: 1.85,0.8; stroke-dashoffset: 0; stroke: #b0b0b0; stroke-opacity: 0.8; stroke-width: 0.5"/>
     </g>
     <g id="line2d_58">
      <g>
       <use xlink:href="#mc56a962ad5" x="95.28125" y="372.313361" style="stroke: #000000; stroke-width: 0.6"/>
      </g>
     </g>
    </g>
    <g id="ytick_10">
     <g id="line2d_59">
      <path d="M 95.28125 350.114874 
L 764.88125 350.114874 
" clip-path="url(#pbf0566e111)" style="fill: none; stroke-dasharray: 1.85,0.8; stroke-dashoffset: 0; stroke: #b0b0b0; stroke-opacity: 0.8; stroke-width: 0.5"/>
     </g>
     <g id="line2d_60">
      <g>
       <use xlink:href="#mc56a962ad5" x="95.28125" y="350.114874" style="stroke: #000000; stroke-width: 0.6"/>
      </g>
     </g>
    </g>
    <g id="ytick_11">
     <g id="line2d_61">
      <path d="M 95.28125 327.916386 
L 764.88125 327.916386 
" clip-path="url(#pbf0566e111)" style="fill: none; stroke-dasharray: 1.85,0.8; stroke-dashoffset: 0; stroke: #b0b0b0; stroke-opacity: 0.8; stroke-width: 0.5"/>
     </g>
     <g id="line2d_62">
      <g>
       <use xlink:href="#mc56a962ad5" x="95.28125" y="327.916386" style="stroke: #000000; stroke-width: 0.6"/>
      </g>
     </g>
    </g>
    <g id="ytick_12">
     <g id="line2d_63">
      <path d="M 95.28125 283.519412 
L 764.88125 283.519412 
" clip-path="url(#pbf0566e111)" style="fill: none; stroke-dasharray: 1.85,0.8; stroke-dashoffset: 0; stroke: #b0b0b0; stroke-opacity: 0.8; stroke-width: 0.5"/>
     </g>
     <g id="line2d_64">
      <g>
       <use xlink:href="#mc56a962ad5" x="95.28125" y="283.519412" style="stroke: #000000; stroke-width: 0.6"/>
      </g>
     </g>
    </g>
    <g id="ytick_13">
     <g id="line2d_65">
      <path d="M 95.28125 261.320925 
L 764.88125 261.320925 
" clip-path="url(#pbf0566e111)" style="fill: none; stroke-dasharray: 1.85,0.8; stroke-dashoffset: 0; stroke: #b0b0b0; stroke-opacity: 0.8; stroke-width: 0.5"/>
     </g>
     <g id="line2d_66">
      <g>
       <use xlink:href="#mc56a962ad5" x="95.28125" y="261.320925" style="stroke: #000000; stroke-width: 0.6"/>
      </g>
     </g>
    </g>
    <g id="ytick_14">
     <g id="line2d_67">
      <path d="M 95.28125 239.122438 
L 764.88125 239.122438 
" clip-path="url(#pbf0566e111)" style="fill: none; stroke-dasharray: 1.85,0.8; stroke-dashoffset: 0; stroke: #b0b0b0; stroke-opacity: 0.8; stroke-width: 0.5"/>
     </g>
     <g id="line2d_68">
      <g>
       <use xlink:href="#mc56a962ad5" x="95.28125" y="239.122438" style="stroke: #000000; stroke-width: 0.6"/>
      </g>
     </g>
    </g>
    <g id="ytick_15">
     <g id="line2d_69">
      <path d="M 95.28125 194.725464 
L 764.88125 194.725464 
" clip-path="url(#pbf0566e111)" style="fill: none; stroke-dasharray: 1.85,0.8; stroke-dashoffset: 0; stroke: #b0b0b0; stroke-opacity: 0.8; stroke-width: 0.5"/>
     </g>
     <g id="line2d_70">
      <g>
       <use xlink:href="#mc56a962ad5" x="95.28125" y="194.725464" style="stroke: #000000; stroke-width: 0.6"/>
      </g>
     </g>
    </g>
    <g id="ytick_16">
     <g id="line2d_71">
      <path d="M 95.28125 172.526977 
L 764.88125 172.526977 
" clip-path="url(#pbf0566e111)" style="fill: none; stroke-dasharray: 1.85,0.8; stroke-dashoffset: 0; stroke: #b0b0b0; stroke-opacity: 0.8; stroke-width: 0.5"/>
     </g>
     <g id="line2d_72">
      <g>
       <use xlink:href="#mc56a962ad5" x="95.28125" y="172.526977" style="stroke: #000000; stroke-width: 0.6"/>
      </g>
     </g>
    </g>
    <g id="ytick_17">
     <g id="line2d_73">
      <path d="M 95.28125 150.32849 
L 764.88125 150.32849 
" clip-path="url(#pbf0566e111)" style="fill: none; stroke-dasharray: 1.85,0.8; stroke-dashoffset: 0; stroke: #b0b0b0; stroke-opacity: 0.8; stroke-width: 0.5"/>
     </g>
     <g id="line2d_74">
      <g>
       <use xlink:href="#mc56a962ad5" x="95.28125" y="150.32849" style="stroke: #000000; stroke-width: 0.6"/>
      </g>
     </g>
    </g>
    <g id="ytick_18">
     <g id="line2d_75">
      <path d="M 95.28125 105.931516 
L 764.88125 105.931516 
" clip-path="url(#pbf0566e111)" style="fill: none; stroke-dasharray: 1.85,0.8; stroke-dashoffset: 0; stroke: #b0b0b0; stroke-opacity: 0.8; stroke-width: 0.5"/>
     </g>
     <g id="line2d_76">
      <g>
       <use xlink:href="#mc56a962ad5" x="95.28125" y="105.931516" style="stroke: #000000; stroke-width: 0.6"/>
      </g>
     </g>
    </g>
    <g id="ytick_19">
     <g id="line2d_77">
      <path d="M 95.28125 83.733029 
L 764.88125 83.733029 
" clip-path="url(#pbf0566e111)" style="fill: none; stroke-dasharray: 1.85,0.8; stroke-dashoffset: 0; stroke: #b0b0b0; stroke-opacity: 0.8; stroke-width: 0.5"/>
     </g>
     <g id="line2d_78">
      <g>
       <use xlink:href="#mc56a962ad5" x="95.28125" y="83.733029" style="stroke: #000000; stroke-width: 0.6"/>
      </g>
     </g>
    </g>
    <g id="ytick_20">
     <g id="line2d_79">
      <path d="M 95.28125 61.534542 
L 764.88125 61.534542 
" clip-path="url(#pbf0566e111)" style="fill: none; stroke-dasharray: 1.85,0.8; stroke-dashoffset: 0; stroke: #b0b0b0; stroke-opacity: 0.8; stroke-width: 0.5"/>
     </g>
     <g id="line2d_80">
      <g>
       <use xlink:href="#mc56a962ad5" x="95.28125" y="61.534542" style="stroke: #000000; stroke-width: 0.6"/>
      </g>
     </g>
    </g>
    <g id="text_12">
     <!-- Light (W/m^2) -->
     <g transform="translate(49.221875 337.558125) rotate(-90) scale(0.2 -0.2)">
      <defs>
       <path id="AptosDisplay-4c" d="M 472 0 
L 472 4206 
L 1034 4206 
L 1034 484 
L 3000 484 
L 3000 0 
L 472 0 
z
" transform="scale(0.015625)"/>
       <path id="AptosDisplay-67" d="M 1397 -1178 
Q 925 -1178 640 -1065 
Q 356 -953 229 -765 
Q 103 -578 103 -359 
Q 103 -94 329 112 
Q 556 319 1031 403 
L 1128 575 
L 1475 575 
Q 2184 575 2489 376 
Q 2794 178 2794 -238 
Q 2794 -650 2437 -914 
Q 2081 -1178 1397 -1178 
z
M 1384 -800 
Q 1878 -800 2086 -650 
Q 2294 -500 2294 -278 
Q 2294 -147 2225 -51 
Q 2156 44 1975 97 
Q 1794 150 1456 150 
L 1034 150 
Q 819 97 708 -31 
Q 597 -159 597 -328 
Q 597 -516 778 -658 
Q 959 -800 1384 -800 
z
M 1025 216 
Q 722 228 550 312 
Q 378 397 306 511 
Q 234 625 234 722 
Q 234 866 362 1009 
Q 491 1153 772 1241 
L 1038 1069 
Q 866 1031 772 953 
Q 678 875 678 791 
Q 678 731 734 682 
Q 791 634 928 606 
Q 1066 578 1303 575 
L 1025 216 
z
M 1363 984 
Q 1003 984 753 1128 
Q 503 1272 375 1509 
Q 247 1747 247 2022 
Q 247 2313 376 2550 
Q 506 2788 754 2928 
Q 1003 3069 1366 3069 
Q 1738 3069 1983 2928 
Q 2228 2788 2351 2550 
Q 2475 2313 2475 2022 
Q 2475 1741 2350 1505 
Q 2225 1269 1979 1126 
Q 1734 984 1363 984 
z
M 1366 1341 
Q 1641 1341 1812 1512 
Q 1984 1684 1984 2022 
Q 1984 2375 1817 2545 
Q 1650 2716 1372 2716 
Q 1094 2716 919 2541 
Q 744 2366 744 2025 
Q 744 1681 931 1511 
Q 1119 1341 1366 1341 
z
M 2131 2734 
L 1922 2931 
Q 2038 3225 2252 3331 
Q 2466 3438 2794 3447 
L 2794 3006 
Q 2588 3006 2416 2961 
Q 2244 2916 2131 2734 
z
" transform="scale(0.015625)"/>
       <path id="AptosDisplay-68" d="M 413 0 
L 413 4206 
L 931 4206 
L 931 2575 
Q 1069 2756 1317 2914 
Q 1566 3072 1950 3072 
Q 2428 3072 2637 2783 
Q 2847 2494 2847 1963 
L 2847 0 
L 2328 0 
L 2328 1891 
Q 2328 2106 2287 2275 
Q 2247 2444 2139 2539 
Q 2031 2634 1822 2634 
Q 1503 2634 1284 2482 
Q 1066 2331 934 2156 
L 934 0 
L 413 0 
z
" transform="scale(0.015625)"/>
       <path id="AptosDisplay-74" d="M 1466 0 
Q 1100 0 901 117 
Q 703 234 629 454 
Q 556 675 556 984 
L 556 2622 
L 50 2622 
L 50 3044 
L 556 3044 
L 556 3741 
L 1078 3741 
L 1078 3044 
L 1831 3044 
L 1831 2622 
L 1078 2622 
L 1078 1009 
Q 1078 725 1151 575 
Q 1225 425 1500 425 
L 1831 425 
L 1831 0 
L 1466 0 
z
" transform="scale(0.015625)"/>
       <path id="AptosDisplay-57" d="M 1216 0 
L -13 4206 
L 575 4206 
L 1525 697 
L 2531 4206 
L 3156 4206 
L 4163 697 
L 5119 4206 
L 5681 4206 
L 4453 0 
L 3866 0 
L 2831 3556 
L 1813 0 
L 1216 0 
z
" transform="scale(0.015625)"/>
       <path id="AptosDisplay-2f" d="M 72 0 
L 1603 4206 
L 2100 4206 
L 569 0 
L 72 0 
z
" transform="scale(0.015625)"/>
       <path id="AptosDisplay-5e" d="M 428 2438 
L 1459 4206 
L 1884 4206 
L 2916 2438 
L 2366 2438 
L 1672 3650 
L 978 2438 
L 428 2438 
z
" transform="scale(0.015625)"/>
      </defs>
      <use xlink:href="#AptosDisplay-4c"/>
      <use xlink:href="#AptosDisplay-69" x="48.4375"/>
      <use xlink:href="#AptosDisplay-67" x="69.482422"/>
      <use xlink:href="#AptosDisplay-68" x="113.427734"/>
      <use xlink:href="#AptosDisplay-74" x="164.013672"/>
      <use xlink:href="#AptosDisplay-20" x="194.384766"/>
      <use xlink:href="#AptosDisplay-28" x="213.671875"/>
      <use xlink:href="#AptosDisplay-57" x="243.115234"/>
      <use xlink:href="#AptosDisplay-2f" x="331.689453"/>
      <use xlink:href="#AptosDisplay-6d" x="365.625"/>
      <use xlink:href="#AptosDisplay-5e" x="445.605469"/>
      <use xlink:href="#AptosDisplay-32" x="497.900391"/>
      <use xlink:href="#AptosDisplay-29" x="550.195312"/>
     </g>
    </g>
   </g>
   <g id="line2d_81">
    <path d="M 126.388757 389.19753 
L 127.724333 395.07125 
L 129.06662 481.1925 
L 130.408908 393.113343 
L 131.751195 377.45453 
L 134.435769 381.370343 
L 135.778057 391.155436 
L 137.120344 397.029156 
L 139.804918 389.19753 
L 141.147206 391.155436 
L 142.489493 387.244063 
L 143.83178 393.113343 
L 145.174067 400.944969 
L 146.516355 387.244063 
L 149.200929 371.58525 
L 150.543217 367.669437 
L 151.885504 371.58525 
L 153.227791 363.753624 
L 155.912366 359.842251 
L 157.254653 363.753624 
L 158.59694 361.795717 
L 159.939227 363.753624 
L 161.281515 357.884344 
L 162.623802 359.842251 
L 163.966089 359.842251 
L 165.308376 361.795717 
L 166.650664 355.926437 
L 167.992951 357.884344 
L 169.335238 355.926437 
L 170.677525 355.926437 
L 172.019813 352.010624 
L 173.3621 350.052718 
L 174.704387 346.141344 
L 176.046674 346.141344 
L 177.388962 348.094811 
L 178.73796 344.183438 
L 180.080248 338.309718 
L 181.422535 334.393905 
L 182.764822 324.608812 
L 184.107109 352.010624 
L 185.449397 434.216062 
L 186.791684 316.781625 
L 188.133971 316.781625 
L 189.476259 306.996532 
L 193.50312 306.996532 
L 194.845408 297.206999 
L 197.529982 297.206999 
L 198.872269 291.33772 
L 200.214557 293.295626 
L 201.556844 289.379813 
L 202.899131 299.164906 
L 204.241418 287.421906 
L 205.583706 287.421906 
L 206.925993 293.295626 
L 208.26828 291.33772 
L 210.952855 291.33772 
L 212.295142 281.548187 
L 213.637429 291.33772 
L 217.664291 297.206999 
L 219.006578 293.295626 
L 220.348866 305.038626 
L 221.691153 303.080719 
L 223.03344 293.295626 
L 224.375727 295.249093 
L 227.060302 291.33772 
L 228.402589 293.295626 
L 229.738165 226.744562 
L 231.080452 295.249093 
L 232.429451 291.33772 
L 233.771738 285.464 
L 235.114025 295.249093 
L 236.456313 303.080719 
L 237.7986 326.566718 
L 239.140887 287.421906 
L 240.483174 285.464 
L 241.825462 224.791095 
L 243.161038 250.235001 
L 244.503325 299.164906 
L 245.845612 283.506093 
L 247.187899 269.805187 
L 248.530187 293.295626 
L 249.872474 334.393905 
L 251.214761 301.122813 
L 252.557048 305.038626 
L 253.899336 297.206999 
L 255.241623 297.206999 
L 256.58391 324.608812 
L 257.926197 299.164906 
L 259.268485 299.164906 
L 260.610772 297.206999 
L 261.953059 312.865812 
L 265.979921 295.249093 
L 267.322208 301.122813 
L 268.664495 301.122813 
L 270.006783 299.164906 
L 271.34907 293.295626 
L 272.691357 293.295626 
L 274.033645 291.33772 
L 275.375932 285.464 
L 276.718219 275.678907 
L 278.067218 291.33772 
L 279.402794 285.464 
L 280.745081 322.650905 
L 282.087368 213.043656 
L 283.429655 312.865812 
L 284.771943 265.893814 
L 286.11423 271.763094 
L 287.456517 267.84728 
L 288.798804 261.978001 
L 290.147803 261.978001 
L 291.49009 252.192907 
L 292.832378 254.146374 
L 294.174665 250.235001 
L 295.516952 260.020094 
L 296.859239 256.104281 
L 298.201527 242.403375 
L 299.543814 248.277094 
L 300.886101 236.534095 
L 302.228388 240.445468 
L 303.570676 248.277094 
L 304.912963 220.875282 
L 306.25525 244.361281 
L 307.597537 238.492001 
L 308.939825 236.534095 
L 310.282112 232.618282 
L 311.624399 240.445468 
L 312.966687 242.403375 
L 314.308974 240.445468 
L 315.651261 248.277094 
L 316.993548 248.277094 
L 319.678123 263.935907 
L 321.02041 254.146374 
L 322.362697 224.791095 
L 323.704985 267.84728 
L 326.389559 256.104281 
L 327.731846 267.84728 
L 329.074134 269.805187 
L 330.416421 267.84728 
L 331.758708 267.84728 
L 333.100995 273.721 
L 334.443283 271.763094 
L 335.78557 265.893814 
L 337.127857 269.805187 
L 338.470144 267.84728 
L 339.812432 260.020094 
L 341.154719 267.84728 
L 342.497006 271.763094 
L 343.839294 273.721 
L 345.181581 277.636813 
L 347.866155 281.548187 
L 349.208443 277.636813 
L 350.55073 271.763094 
L 351.893017 256.104281 
L 353.235304 297.206999 
L 354.577592 269.805187 
L 355.919879 271.763094 
L 357.262166 271.763094 
L 358.604453 260.020094 
L 359.946741 265.893814 
L 361.289028 263.935907 
L 362.631315 263.935907 
L 363.973602 260.020094 
L 365.31589 260.020094 
L 366.658177 252.192907 
L 368.000464 254.146374 
L 369.342751 258.062187 
L 370.685039 250.235001 
L 372.027326 256.104281 
L 373.369613 256.104281 
L 374.7119 258.062187 
L 376.054188 258.062187 
L 377.396475 256.104281 
L 380.08105 263.935907 
L 381.423337 250.235001 
L 382.765624 261.978001 
L 384.107911 260.020094 
L 385.450199 250.235001 
L 386.792486 258.062187 
L 388.134773 260.020094 
L 389.47706 246.319188 
L 390.819348 261.978001 
L 392.161635 250.235001 
L 393.503922 256.104281 
L 394.846209 260.020094 
L 396.188497 248.277094 
L 397.530784 254.146374 
L 398.873071 289.379813 
L 400.215358 250.235001 
L 402.899933 242.403375 
L 404.24222 244.361281 
L 405.584507 244.361281 
L 406.926795 240.445468 
L 408.269082 246.319188 
L 409.611369 240.445468 
L 410.953657 240.445468 
L 412.295944 246.319188 
L 413.638231 236.534095 
L 414.980518 244.361281 
L 416.322806 218.917375 
L 417.665093 236.534095 
L 419.00738 238.492001 
L 420.349667 226.744562 
L 421.691955 244.361281 
L 423.034242 236.534095 
L 424.376529 232.618282 
L 425.718816 234.576188 
L 427.061104 238.492001 
L 428.403391 224.791095 
L 429.745678 195.431376 
L 431.087965 226.744562 
L 432.430253 236.534095 
L 433.77254 222.833188 
L 435.114827 215.001562 
L 436.457114 228.702468 
L 437.799402 209.132282 
L 439.141689 218.917375 
L 440.483976 211.090189 
L 441.826264 215.001562 
L 443.168551 205.216469 
L 444.510838 205.216469 
L 445.853125 213.043656 
L 447.195413 199.342749 
L 448.5377 220.875282 
L 449.879987 218.917375 
L 451.222274 209.132282 
L 452.564562 207.174376 
L 453.906849 201.300656 
L 455.249136 218.917375 
L 456.591423 211.090189 
L 457.933711 215.001562 
L 459.275998 207.174376 
L 461.960572 211.090189 
L 467.329721 211.090189 
L 468.672009 218.917375 
L 470.014296 213.043656 
L 471.356583 203.258563 
L 472.698871 216.959469 
L 474.041158 216.959469 
L 475.383445 224.791095 
L 476.725732 220.875282 
L 478.06802 220.875282 
L 479.410307 201.300656 
L 480.752594 230.660375 
L 482.094881 230.660375 
L 483.437169 168.029564 
L 484.779456 248.277094 
L 486.121743 267.84728 
L 487.46403 234.576188 
L 488.806318 248.277094 
L 490.148605 256.104281 
L 491.490892 258.062187 
L 492.833179 252.192907 
L 494.175467 250.235001 
L 495.517754 242.403375 
L 496.860041 250.235001 
L 498.202328 248.277094 
L 499.544616 240.445468 
L 500.886903 238.492001 
L 502.22919 234.576188 
L 503.571478 226.744562 
L 504.913765 222.833188 
L 507.598339 222.833188 
L 508.940627 218.917375 
L 510.282914 207.174376 
L 511.625201 213.043656 
L 512.967488 209.132282 
L 514.309776 207.174376 
L 515.652063 211.090189 
L 516.99435 199.342749 
L 518.336637 215.001562 
L 519.678925 209.132282 
L 521.021212 197.389283 
L 522.363499 203.258563 
L 523.705786 201.300656 
L 525.048074 201.300656 
L 526.390361 195.431376 
L 531.75951 183.688376 
L 533.101797 236.534095 
L 534.444085 299.164906 
L 535.786372 181.73047 
L 537.128659 207.174376 
L 538.470946 213.043656 
L 539.813234 199.342749 
L 541.155521 205.216469 
L 542.497808 205.216469 
L 543.840095 207.174376 
L 545.182383 218.917375 
L 546.52467 203.258563 
L 547.866957 213.043656 
L 549.209244 218.917375 
L 550.551532 211.090189 
L 551.893819 218.917375 
L 553.236106 220.875282 
L 554.578393 213.043656 
L 555.920681 201.300656 
L 557.262968 218.917375 
L 558.605255 207.174376 
L 559.947542 222.833188 
L 561.28983 213.043656 
L 562.632117 232.618282 
L 563.974404 216.959469 
L 565.316692 220.875282 
L 566.658979 220.875282 
L 568.001266 228.702468 
L 569.343553 216.959469 
L 572.028128 224.791095 
L 573.370415 224.791095 
L 576.05499 240.445468 
L 577.397277 242.403375 
L 578.739564 254.146374 
L 580.081851 246.319188 
L 581.424139 265.893814 
L 582.766426 269.805187 
L 584.108713 275.678907 
L 585.451 277.636813 
L 588.135575 261.978001 
L 589.477862 283.506093 
L 590.820149 291.33772 
L 592.162437 261.978001 
L 593.504724 279.59472 
L 594.847011 287.421906 
L 596.189299 285.464 
L 597.531586 289.379813 
L 598.873873 283.506093 
L 600.21616 283.506093 
L 601.558448 269.805187 
L 602.900735 281.548187 
L 604.243022 275.678907 
L 605.585309 267.84728 
L 606.927597 279.59472 
L 608.269884 279.59472 
L 609.612171 265.893814 
L 610.954458 275.678907 
L 612.296746 265.893814 
L 613.639033 265.893814 
L 614.98132 258.062187 
L 616.323607 256.104281 
L 617.665895 256.104281 
L 619.008182 250.235001 
L 620.350469 197.389283 
L 621.692756 248.277094 
L 623.035044 252.192907 
L 627.061906 240.445468 
L 628.404193 246.319188 
L 629.74648 248.277094 
L 631.088767 244.361281 
L 632.431055 246.319188 
L 633.773342 228.702468 
L 635.115629 244.361281 
L 636.457916 242.403375 
L 637.800204 232.618282 
L 639.142491 224.791095 
L 640.484778 220.875282 
L 641.827065 226.744562 
L 643.169353 218.917375 
L 644.51164 220.875282 
L 645.853927 205.216469 
L 647.196214 191.515563 
L 648.538502 203.258563 
L 649.880789 199.342749 
L 651.223076 193.473469 
L 652.565363 193.473469 
L 653.907651 199.342749 
L 655.249938 191.515563 
L 656.592225 185.641843 
L 657.934513 175.85675 
L 659.2768 173.898844 
L 660.619087 175.85675 
L 661.961374 166.071657 
L 663.303662 166.071657 
L 664.645949 168.029564 
L 665.988236 154.328657 
L 667.330523 162.155844 
L 668.672811 166.071657 
L 670.015098 164.11375 
L 671.357385 168.029564 
L 674.04196 171.940937 
L 675.384247 209.132282 
L 676.726534 136.711938 
L 678.068821 181.73047 
L 679.411109 181.73047 
L 680.753396 189.557656 
L 682.095683 183.688376 
L 683.43797 185.641843 
L 684.780258 199.342749 
L 686.122545 197.389283 
L 687.464832 207.174376 
L 688.807119 207.174376 
L 691.491694 222.833188 
L 692.833981 222.833188 
L 695.518556 238.492001 
L 696.860843 252.192907 
L 698.20313 244.361281 
L 699.545418 254.146374 
L 702.229992 269.805187 
L 703.572279 275.678907 
L 704.914567 291.33772 
L 707.599141 291.33772 
L 708.941428 299.164906 
L 710.283716 301.122813 
L 711.626003 308.949999 
L 712.96829 301.122813 
L 714.310577 310.907906 
L 715.652865 314.823719 
L 716.995152 316.781625 
L 718.337439 314.823719 
L 719.679726 318.739532 
L 721.022014 308.949999 
L 722.364301 310.907906 
L 723.706588 308.949999 
L 725.048876 299.164906 
L 726.391163 303.080719 
L 727.73345 301.122813 
L 729.075737 271.763094 
L 730.418025 271.763094 
L 731.760312 265.893814 
L 733.102599 250.235001 
L 734.444886 246.319188 
L 531.75951 183.688376 
L 533.101797 236.534095 
L 534.444085 299.164906 
L 535.786372 181.73047 
L 537.128659 207.174376 
L 538.470946 213.043656 
L 539.813234 199.342749 
L 541.155521 205.216469 
L 542.497808 205.216469 
L 543.840095 207.174376 
L 545.182383 218.917375 
L 546.52467 203.258563 
L 547.866957 213.043656 
L 549.209244 218.917375 
L 550.551532 211.090189 
L 551.893819 218.917375 
L 553.236106 220.875282 
L 554.578393 213.043656 
L 555.920681 201.300656 
L 557.262968 218.917375 
L 558.605255 207.174376 
L 559.947542 222.833188 
L 561.28983 213.043656 
L 562.632117 232.618282 
L 563.974404 216.959469 
L 565.316692 220.875282 
L 566.658979 220.875282 
L 568.001266 228.702468 
L 569.343553 216.959469 
L 572.028128 224.791095 
L 573.370415 224.791095 
L 576.05499 240.445468 
L 577.397277 242.403375 
L 578.739564 254.146374 
L 580.081851 246.319188 
L 581.424139 265.893814 
L 582.766426 269.805187 
L 584.108713 275.678907 
L 585.451 277.636813 
L 588.135575 261.978001 
L 589.477862 283.506093 
L 590.820149 291.33772 
L 592.162437 261.978001 
L 593.504724 279.59472 
L 594.847011 287.421906 
L 596.189299 285.464 
L 597.531586 289.379813 
L 598.873873 283.506093 
L 600.21616 283.506093 
L 601.558448 269.805187 
L 602.900735 281.548187 
L 604.243022 275.678907 
L 605.585309 267.84728 
L 606.927597 279.59472 
L 608.269884 279.59472 
L 609.612171 265.893814 
L 610.954458 275.678907 
L 612.296746 265.893814 
L 613.639033 265.893814 
L 614.98132 258.062187 
L 616.323607 256.104281 
L 617.665895 256.104281 
L 619.008182 250.235001 
L 620.350469 197.389283 
L 621.692756 248.277094 
L 623.035044 252.192907 
L 627.061906 240.445468 
L 628.404193 246.319188 
L 629.74648 248.277094 
L 631.088767 244.361281 
L 632.431055 246.319188 
L 633.773342 228.702468 
L 635.115629 244.361281 
L 636.457916 242.403375 
L 637.800204 232.618282 
L 639.142491 224.791095 
L 640.484778 220.875282 
L 641.827065 226.744562 
L 643.169353 218.917375 
L 644.51164 220.875282 
L 645.853927 205.216469 
L 647.196214 191.515563 
L 648.538502 203.258563 
L 649.880789 199.342749 
L 651.223076 193.473469 
L 652.565363 193.473469 
L 653.907651 199.342749 
L 655.249938 191.515563 
L 656.592225 185.641843 
L 657.934513 175.85675 
L 659.2768 173.898844 
L 660.619087 175.85675 
L 661.961374 166.071657 
L 663.303662 166.071657 
L 664.645949 168.029564 
L 665.988236 154.328657 
L 667.330523 162.155844 
L 668.672811 166.071657 
L 670.015098 164.11375 
L 671.357385 168.029564 
L 674.04196 171.940937 
L 675.384247 209.132282 
L 676.726534 136.711938 
L 678.068821 181.73047 
L 679.411109 181.73047 
L 680.753396 189.557656 
L 682.095683 183.688376 
L 683.43797 185.641843 
L 684.780258 199.342749 
L 686.122545 197.389283 
L 687.464832 207.174376 
L 688.807119 207.174376 
L 691.491694 222.833188 
L 692.833981 222.833188 
L 695.518556 238.492001 
L 696.860843 252.192907 
L 698.20313 244.361281 
L 699.545418 254.146374 
L 702.229992 269.805187 
L 703.572279 275.678907 
L 704.914567 291.33772 
L 707.599141 291.33772 
L 708.941428 299.164906 
L 710.283716 301.122813 
L 711.626003 308.949999 
L 712.96829 301.122813 
L 714.310577 310.907906 
L 715.652865 314.823719 
L 716.995152 316.781625 
L 718.337439 314.823719 
L 719.679726 318.739532 
L 721.022014 308.949999 
L 722.364301 310.907906 
L 723.706588 308.949999 
L 725.048876 299.164906 
L 726.391163 303.080719 
L 727.73345 301.122813 
L 729.075737 271.763094 
L 730.418025 271.763094 
L 731.760312 265.893814 
L 733.102599 250.235001 
L 734.444886 246.319188 
L 125.717614 201.300656 
L 127.053189 201.300656 
L 128.395477 207.174376 
L 129.737764 195.431376 
L 131.080051 193.473469 
L 132.422339 197.389283 
L 133.764626 205.216469 
L 135.106913 203.258563 
L 136.4492 215.001562 
L 137.791488 203.258563 
L 139.133775 193.473469 
L 140.476062 195.431376 
L 141.818349 209.132282 
L 143.160637 226.744562 
L 144.502924 201.300656 
L 145.845211 199.342749 
L 147.187498 189.557656 
L 148.529786 189.557656 
L 149.872073 209.132282 
L 151.21436 191.515563 
L 152.556647 185.641843 
L 153.898935 177.814657 
L 155.241222 179.772563 
L 156.583509 175.85675 
L 157.925796 168.029564 
L 159.268084 175.85675 
L 160.610371 177.814657 
L 161.952658 160.197937 
L 163.294945 154.328657 
L 164.637233 168.029564 
L 165.97952 156.286564 
L 167.321807 154.328657 
L 168.664095 150.412844 
L 170.006382 150.412844 
L 171.348669 148.454938 
L 172.690956 136.711938 
L 175.375531 152.370751 
L 176.717818 124.968938 
L 178.060105 152.370751 
L 179.402393 148.454938 
L 180.74468 158.240031 
L 182.086967 152.370751 
L 183.429254 160.197937 
L 184.771542 160.197937 
L 186.113829 166.071657 
L 187.456116 179.772563 
L 188.798403 168.029564 
L 190.140691 169.98747 
L 191.482978 177.814657 
L 192.825265 175.85675 
L 194.167552 181.73047 
L 195.50984 183.688376 
L 196.852127 181.73047 
L 198.194414 175.85675 
L 199.536702 168.029564 
L 200.878989 164.11375 
L 203.563563 148.454938 
L 206.248138 140.627751 
L 207.590425 166.071657 
L 208.932712 134.754031 
L 210.275 130.842658 
L 211.617287 124.968938 
L 212.959574 124.968938 
L 214.301861 128.884751 
L 215.644149 138.669845 
L 216.986436 126.926845 
L 218.328723 113.225939 
L 219.67101 115.183845 
L 221.013298 115.183845 
L 222.355585 111.268032 
L 223.697872 109.310126 
L 225.040159 126.926845 
L 226.382447 134.754031 
L 227.724734 124.968938 
L 229.067021 123.011032 
L 230.409309 134.754031 
L 231.751596 87.782033 
L 233.093883 136.711938 
L 234.43617 138.669845 
L 235.778458 138.669845 
L 237.120745 132.796125 
L 238.463032 138.669845 
L 239.805319 132.796125 
L 241.147607 132.796125 
L 242.489894 150.412844 
L 243.832181 150.412844 
L 245.174468 138.669845 
L 246.516756 132.796125 
L 247.859043 130.842658 
L 249.20133 119.095219 
L 250.543617 132.796125 
L 251.885905 132.796125 
L 253.228192 138.669845 
L 254.570479 146.497031 
L 255.912766 138.669845 
L 257.255054 136.711938 
L 258.597341 136.711938 
L 259.939628 142.585658 
L 262.624203 138.669845 
L 263.96649 130.842658 
L 265.308777 134.754031 
L 266.651065 142.585658 
L 267.993352 136.711938 
L 269.335639 132.796125 
L 270.677926 124.968938 
L 272.020214 132.796125 
L 273.362501 136.711938 
L 274.704788 130.842658 
L 276.047075 138.669845 
L 277.389363 130.842658 
L 278.73165 130.842658 
L 280.073937 121.053125 
L 281.416224 134.754031 
L 282.758512 128.884751 
L 284.100799 138.669845 
L 285.443086 132.796125 
L 286.785373 142.585658 
L 288.127661 130.842658 
L 289.469948 150.412844 
L 290.812235 138.669845 
L 292.154523 148.454938 
L 293.49681 142.585658 
L 294.839097 144.539125 
L 296.181384 140.627751 
L 297.523672 173.898844 
L 298.865959 146.497031 
L 300.208246 150.412844 
L 301.550533 128.884751 
L 302.892821 142.585658 
L 304.235108 152.370751 
L 305.577395 148.454938 
L 306.919682 158.240031 
L 308.26197 148.454938 
L 309.604257 152.370751 
L 310.946544 146.497031 
L 312.288831 134.754031 
L 313.631119 150.412844 
L 314.973406 148.454938 
L 316.315693 136.711938 
L 317.65798 138.669845 
L 319.000268 162.155844 
L 320.342555 144.539125 
L 321.684842 158.240031 
L 327.053991 152.370751 
L 328.396279 160.197937 
L 329.738566 152.370751 
L 331.080853 152.370751 
L 332.42314 158.240031 
L 333.765428 168.029564 
L 335.107715 166.071657 
L 337.792289 158.240031 
L 339.134577 158.240031 
L 340.476864 173.898844 
L 341.819151 168.029564 
L 343.161438 168.029564 
L 344.503726 162.155844 
L 345.846013 177.814657 
L 347.1883 179.772563 
L 348.530587 175.85675 
L 349.872875 175.85675 
L 351.215162 173.898844 
L 352.557449 169.98747 
L 353.899737 185.641843 
L 355.242024 166.071657 
L 356.584311 162.155844 
L 357.926598 162.155844 
L 359.268886 158.240031 
L 360.611173 158.240031 
L 361.95346 154.328657 
L 363.295747 154.328657 
L 364.638035 158.240031 
L 365.980322 132.796125 
L 367.322609 140.627751 
L 368.664896 132.796125 
L 370.007184 142.585658 
L 371.349471 128.884751 
L 372.691758 128.884751 
L 374.034045 123.011032 
L 375.376333 113.225939 
L 376.71862 123.011032 
L 378.060907 85.824126 
L 379.403194 130.842658 
L 380.745482 111.268032 
L 382.087769 117.141752 
L 383.430056 113.225939 
L 384.772344 117.141752 
L 386.114631 113.225939 
L 388.799205 113.225939 
L 390.141493 123.011032 
L 391.48378 123.011032 
L 392.832779 117.141752 
L 394.168354 121.053125 
L 395.517353 113.225939 
L 396.852929 115.183845 
L 398.195216 123.011032 
L 399.544215 126.926845 
L 400.879791 128.884751 
L 402.228789 134.754031 
L 403.571077 134.754031 
L 404.913364 148.454938 
L 406.255651 128.884751 
L 407.597938 124.968938 
L 408.940226 142.585658 
L 410.282513 142.585658 
L 411.6248 130.842658 
L 412.967087 132.796125 
L 414.309375 130.842658 
L 415.651662 140.627751 
L 418.336236 140.627751 
L 419.678524 136.711938 
L 421.020811 138.669845 
L 423.705386 138.669845 
L 425.047673 134.754031 
L 429.074535 140.627751 
L 430.416822 164.11375 
L 431.759109 134.754031 
L 433.101396 132.796125 
L 434.443684 128.884751 
L 437.128258 124.968938 
L 438.470545 132.796125 
L 439.812833 117.141752 
L 441.15512 117.141752 
L 442.497407 123.011032 
L 443.839694 119.095219 
L 445.181982 97.567126 
L 446.524269 97.567126 
L 447.866556 124.968938 
L 449.208843 126.926845 
L 450.551131 121.053125 
L 453.235705 113.225939 
L 454.577993 121.053125 
L 455.92028 119.095219 
L 457.262567 119.095219 
L 458.604854 126.926845 
L 459.947142 126.926845 
L 461.289429 121.053125 
L 462.631716 124.968938 
L 463.974003 138.669845 
L 465.316291 126.926845 
L 466.658578 136.711938 
L 468.000865 128.884751 
L 469.343152 134.754031 
L 470.68544 130.842658 
L 472.027727 130.842658 
L 473.370014 134.754031 
L 474.712301 121.053125 
L 476.054589 136.711938 
L 477.396876 123.011032 
L 478.739163 140.627751 
L 480.08145 136.711938 
L 481.423738 138.669845 
L 482.766025 144.539125 
L 484.108312 160.197937 
L 485.4506 142.585658 
L 486.792887 140.627751 
L 488.135174 150.412844 
L 489.477461 136.711938 
L 490.819749 154.328657 
L 493.504323 134.754031 
L 494.84661 134.754031 
L 496.188898 146.497031 
L 500.215759 140.627751 
L 501.558047 140.627751 
L 504.242621 156.286564 
L 505.584908 144.539125 
L 506.927196 152.370751 
L 508.269483 144.539125 
L 509.61177 164.11375 
L 510.954057 156.286564 
L 513.638632 164.11375 
L 514.980919 171.940937 
L 516.323206 166.071657 
L 517.665494 162.155844 
L 519.007781 177.814657 
L 520.350068 152.370751 
L 521.692356 168.029564 
L 523.034643 171.940937 
L 524.37693 183.688376 
L 525.719217 183.688376 
L 527.061505 181.73047 
L 528.403792 185.641843 
L 529.746079 191.515563 
L 531.088366 193.473469 
L 532.430654 199.342749 
L 533.772941 189.557656 
L 535.115228 187.59975 
L 536.457515 177.814657 
L 537.799803 185.641843 
L 539.14209 179.772563 
L 540.484377 183.688376 
L 541.826664 175.85675 
L 543.168952 173.898844 
L 544.511239 168.029564 
L 545.853526 121.053125 
L 547.195813 146.497031 
L 548.538101 160.197937 
L 549.880388 128.884751 
L 551.222675 144.539125 
L 552.564963 134.754031 
L 553.90725 134.754031 
L 555.249537 99.525032 
L 556.591824 113.225939 
L 557.934112 103.436406 
L 560.618686 99.525032 
L 561.960973 99.525032 
L 563.303261 89.7355 
L 564.645548 81.908313 
L 565.987835 85.824126 
L 567.330122 79.950407 
L 568.67241 81.908313 
L 570.014697 77.9925 
L 571.356984 79.950407 
L 571.356984 79.950407 
" clip-path="url(#pbf0566e111)" style="fill: none; stroke: #ac2b37; stroke-width: 1.5; stroke-linecap: square"/>
   </g>
   <g id="patch_3">
    <path d="M 95.28125 501.3525 
L 95.28125 57.8325 
" style="fill: none; stroke: #000000; stroke-width: 0.8; stroke-linejoin: miter; stroke-linecap: square"/>
   </g>
   <g id="patch_4">
    <path d="M 764.88125 501.3525 
L 764.88125 57.8325 
" style="fill: none; stroke: #000000; stroke-width: 0.8; stroke-linejoin: miter; stroke-linecap: square"/>
   </g>
   <g id="patch_5">
    <path d="M 95.28125 501.3525 
L 764.88125 501.3525 
" style="fill: none; stroke: #000000; stroke-width: 0.8; stroke-linejoin: miter; stroke-linecap: square"/>
   </g>
   <g id="patch_6">
    <path d="M 95.28125 57.8325 
L 764.88125 57.8325 
" style="fill: none; stroke: #000000; stroke-width: 0.8; stroke-linejoin: miter; stroke-linecap: square"/>
   </g>
   <g id="text_13">
    <!-- Light vs Time -->
    <g transform="translate(367.59875 51.8325) scale(0.24 -0.24)">
     <defs>
      <path id="AptosDisplay-76" d="M 1103 0 
L -13 3044 
L 538 3044 
L 1391 513 
L 2250 3044 
L 2781 3044 
L 1678 0 
L 1103 0 
z
" transform="scale(0.015625)"/>
      <path id="AptosDisplay-73" d="M 1506 -41 
Q 1247 -41 1017 14 
Q 788 69 613 191 
Q 438 313 339 506 
Q 241 700 241 978 
L 744 978 
Q 744 628 966 487 
Q 1188 347 1519 347 
Q 1816 347 2008 458 
Q 2200 569 2200 822 
Q 2200 1047 2026 1153 
Q 1853 1259 1413 1369 
Q 1056 1453 815 1564 
Q 575 1675 453 1845 
Q 331 2016 331 2275 
Q 331 2475 417 2626 
Q 503 2778 658 2879 
Q 813 2981 1020 3032 
Q 1228 3084 1472 3084 
Q 1713 3084 1923 3028 
Q 2134 2972 2296 2855 
Q 2459 2738 2551 2552 
Q 2644 2366 2644 2109 
L 2138 2109 
Q 2138 2425 1945 2558 
Q 1753 2691 1472 2691 
Q 1191 2691 1016 2594 
Q 841 2497 841 2291 
Q 841 2169 919 2084 
Q 997 2000 1181 1933 
Q 1366 1866 1675 1791 
Q 2019 1709 2248 1596 
Q 2478 1484 2595 1306 
Q 2713 1128 2713 847 
Q 2713 616 2622 447 
Q 2531 278 2367 170 
Q 2203 63 1983 11 
Q 1763 -41 1506 -41 
z
" transform="scale(0.015625)"/>
     </defs>
     <use xlink:href="#AptosDisplay-4c"/>
     <use xlink:href="#AptosDisplay-69" x="48.4375"/>
     <use xlink:href="#AptosDisplay-67" x="69.482422"/>
     <use xlink:href="#AptosDisplay-68" x="113.427734"/>
     <use xlink:href="#AptosDisplay-74" x="164.013672"/>
     <use xlink:href="#AptosDisplay-20" x="194.384766"/>
     <use xlink:href="#AptosDisplay-76" x="213.671875"/>
     <use xlink:href="#AptosDisplay-73" x="256.933594"/>
     <use xlink:href="#AptosDisplay-20" x="303.222656"/>
     <use xlink:href="#AptosDisplay-54" x="322.509766"/>
     <use xlink:href="#AptosDisplay-69" x="370.214844"/>
     <use xlink:href="#AptosDisplay-6d" x="391.259766"/>
     <use xlink:href="#AptosDisplay-65" x="471.240234"/>
    </g>
   </g>
  </g>
 </g>
 <defs>
  <clipPath id="pbf0566e111">
   <rect x="95.28125" y="57.8325" width="669.6" height="443.52"/>
  </clipPath>
 </defs>
</svg>
