<?xml version="1.0" encoding="utf-8" standalone="no"?>
<!DOCTYPE svg PUBLIC "-//W3C//DTD SVG 1.1//EN"
  "http://www.w3.org/Graphics/SVG/1.1/DTD/svg11.dtd">
<svg xmlns:xlink="http://www.w3.org/1999/xlink" width="800.88125pt" height="581.830625pt" viewBox="0 0 800.88125 581.830625" xmlns="http://www.w3.org/2000/svg" version="1.1">
 <metadata>
  <rdf:RDF xmlns:dc="http://purl.org/dc/elements/1.1/" xmlns:cc="http://creativecommons.org/ns#" xmlns:rdf="http://www.w3.org/1999/02/22-rdf-syntax-ns#">
   <cc:Work>
    <dc:type rdf:resource="http://purl.org/dc/dcmitype/StillImage"/>
    <dc:date>2025-04-03T01:48:21.359127</dc:date>
    <dc:format>image/svg+xml</dc:format>
    <dc:creator>
     <cc:Agent>
      <dc:title>Matplotlib v3.8.2, https://matplotlib.org/</dc:title>
     </cc:Agent>
    </dc:creator>
   </cc:Work>
  </rdf:RDF>
 </metadata>
 <defs>
  <style type="text/css">*{stroke-linejoin: round; stroke-linecap: butt}</style>
 </defs>
 <g id="figure_1">
  <g id="patch_1">
   <path d="M 0 581.830625 
L 800.88125 581.830625 
L 800.88125 0 
L 0 0 
z
" style="fill: #ffffff"/>
  </g>
  <g id="axes_1">
   <g id="patch_2">
    <path d="M 95.28125 501.3525 
L 764.88125 501.3525 
L 764.88125 57.8325 
L 95.28125 57.8325 
z
" style="fill: #ffffff"/>
   </g>
   <g id="matplotlib.axis_1">
    <g id="xtick_1">
     <g id="line2d_1">
      <path d="M 125.026933 501.3525 
L 125.026933 57.8325 
" clip-path="url(#p15c801e936)" style="fill: none; stroke: #b0b0b0; stroke-opacity: 0.8; stroke-linecap: square"/>
     </g>
     <g id="line2d_2">
      <defs>
       <path id="mfa19a6ea6c" d="M 0 0 
L 0 3.5 
" style="stroke: #000000; stroke-width: 0.8"/>
      </defs>
      <g>
       <use xlink:href="#mfa19a6ea6c" x="125.026933" y="501.3525" style="stroke: #000000; stroke-width: 0.8"/>
      </g>
     </g>
     <g id="text_1">
      <!-- 0 -->
      <g transform="translate(119.797246 521.49625) scale(0.2 -0.2)">
       <defs>
        <path id="AptosDisplay-30" d="M 1672 -56 
Q 1291 -56 1028 105 
Q 766 266 605 552 
Q 444 838 372 1216 
Q 300 1594 300 2031 
Q 300 2475 372 2856 
Q 444 3238 605 3525 
Q 766 3813 1028 3973 
Q 1291 4134 1672 4134 
Q 2053 4134 2317 3975 
Q 2581 3816 2742 3527 
Q 2903 3238 2975 2858 
Q 3047 2478 3047 2038 
Q 3047 1597 2975 1217 
Q 2903 838 2742 552 
Q 2581 266 2318 105 
Q 2056 -56 1672 -56 
z
M 1672 409 
Q 1916 409 2073 550 
Q 2231 691 2322 925 
Q 2413 1159 2448 1448 
Q 2484 1738 2484 2038 
Q 2484 2338 2448 2628 
Q 2413 2919 2322 3153 
Q 2231 3388 2073 3527 
Q 1916 3666 1669 3666 
Q 1428 3666 1268 3527 
Q 1109 3388 1020 3153 
Q 931 2919 893 2628 
Q 856 2338 856 2038 
Q 856 1741 893 1450 
Q 931 1159 1020 925 
Q 1109 691 1268 550 
Q 1428 409 1672 409 
z
" transform="scale(0.015625)"/>
       </defs>
       <use xlink:href="#AptosDisplay-30"/>
      </g>
     </g>
    </g>
    <g id="xtick_2">
     <g id="line2d_3">
      <path d="M 207.644193 501.3525 
L 207.644193 57.8325 
" clip-path="url(#p15c801e936)" style="fill: none; stroke: #b0b0b0; stroke-opacity: 0.8; stroke-linecap: square"/>
     </g>
     <g id="line2d_4">
      <g>
       <use xlink:href="#mfa19a6ea6c" x="207.644193" y="501.3525" style="stroke: #000000; stroke-width: 0.8"/>
      </g>
     </g>
     <g id="text_2">
      <!-- 25 -->
      <g transform="translate(197.184818 521.49625) scale(0.2 -0.2)">
       <defs>
        <path id="AptosDisplay-32" d="M 247 0 
L 247 413 
L 1725 1741 
Q 2100 2081 2269 2351 
Q 2438 2622 2438 2938 
Q 2438 3256 2263 3461 
Q 2088 3666 1691 3666 
Q 1247 3666 1055 3439 
Q 863 3213 863 2869 
L 341 2869 
Q 341 3250 491 3534 
Q 641 3819 941 3975 
Q 1241 4131 1691 4131 
Q 2103 4131 2390 3986 
Q 2678 3841 2828 3578 
Q 2978 3316 2978 2959 
Q 2978 2638 2853 2375 
Q 2728 2113 2517 1883 
Q 2306 1653 2044 1425 
L 959 463 
L 3097 463 
L 3097 0 
L 247 0 
z
" transform="scale(0.015625)"/>
        <path id="AptosDisplay-35" d="M 1669 -56 
Q 1278 -56 964 83 
Q 650 222 465 483 
Q 281 744 281 1113 
L 816 1113 
Q 816 778 1055 584 
Q 1294 391 1669 391 
Q 2069 391 2291 625 
Q 2513 859 2513 1319 
Q 2513 1772 2291 1989 
Q 2069 2206 1697 2206 
Q 1409 2206 1223 2123 
Q 1038 2041 916 1894 
L 444 1894 
L 622 4078 
L 2788 4078 
L 2788 3613 
L 1041 3613 
L 931 2322 
Q 1044 2453 1251 2550 
Q 1459 2647 1775 2647 
Q 2131 2647 2420 2506 
Q 2709 2366 2881 2072 
Q 3053 1778 3053 1319 
Q 3053 863 2875 558 
Q 2697 253 2384 98 
Q 2072 -56 1669 -56 
z
" transform="scale(0.015625)"/>
       </defs>
       <use xlink:href="#AptosDisplay-32"/>
       <use xlink:href="#AptosDisplay-35" x="52.294922"/>
      </g>
     </g>
    </g>
    <g id="xtick_3">
     <g id="line2d_5">
      <path d="M 290.261452 501.3525 
L 290.261452 57.8325 
" clip-path="url(#p15c801e936)" style="fill: none; stroke: #b0b0b0; stroke-opacity: 0.8; stroke-linecap: square"/>
     </g>
     <g id="line2d_6">
      <g>
       <use xlink:href="#mfa19a6ea6c" x="290.261452" y="501.3525" style="stroke: #000000; stroke-width: 0.8"/>
      </g>
     </g>
     <g id="text_3">
      <!-- 50 -->
      <g transform="translate(279.802077 521.49625) scale(0.2 -0.2)">
       <use xlink:href="#AptosDisplay-35"/>
       <use xlink:href="#AptosDisplay-30" x="52.294922"/>
      </g>
     </g>
    </g>
    <g id="xtick_4">
     <g id="line2d_7">
      <path d="M 372.878712 501.3525 
L 372.878712 57.8325 
" clip-path="url(#p15c801e936)" style="fill: none; stroke: #b0b0b0; stroke-opacity: 0.8; stroke-linecap: square"/>
     </g>
     <g id="line2d_8">
      <g>
       <use xlink:href="#mfa19a6ea6c" x="372.878712" y="501.3525" style="stroke: #000000; stroke-width: 0.8"/>
      </g>
     </g>
     <g id="text_4">
      <!-- 75 -->
      <g transform="translate(362.419337 521.49625) scale(0.2 -0.2)">
       <defs>
        <path id="AptosDisplay-37" d="M 766 0 
L 2609 3600 
L 194 3600 
L 194 4078 
L 3141 4078 
L 3141 3622 
L 1334 0 
L 766 0 
z
" transform="scale(0.015625)"/>
       </defs>
       <use xlink:href="#AptosDisplay-37"/>
       <use xlink:href="#AptosDisplay-35" x="52.294922"/>
      </g>
     </g>
    </g>
    <g id="xtick_5">
     <g id="line2d_9">
      <path d="M 455.495971 501.3525 
L 455.495971 57.8325 
" clip-path="url(#p15c801e936)" style="fill: none; stroke: #b0b0b0; stroke-opacity: 0.8; stroke-linecap: square"/>
     </g>
     <g id="line2d_10">
      <g>
       <use xlink:href="#mfa19a6ea6c" x="455.495971" y="501.3525" style="stroke: #000000; stroke-width: 0.8"/>
      </g>
     </g>
     <g id="text_5">
      <!-- 100 -->
      <g transform="translate(439.806909 521.49625) scale(0.2 -0.2)">
       <defs>
        <path id="AptosDisplay-31" d="M 1659 0 
L 1659 3425 
Q 1575 3309 1420 3201 
Q 1266 3094 1052 3009 
Q 838 2925 578 2888 
L 578 3381 
Q 834 3425 1057 3540 
Q 1281 3656 1453 3806 
Q 1625 3956 1719 4094 
L 2206 4094 
L 2206 0 
L 1659 0 
z
" transform="scale(0.015625)"/>
       </defs>
       <use xlink:href="#AptosDisplay-31"/>
       <use xlink:href="#AptosDisplay-30" x="52.294922"/>
       <use xlink:href="#AptosDisplay-30" x="104.589844"/>
      </g>
     </g>
    </g>
    <g id="xtick_6">
     <g id="line2d_11">
      <path d="M 538.113231 501.3525 
L 538.113231 57.8325 
" clip-path="url(#p15c801e936)" style="fill: none; stroke: #b0b0b0; stroke-opacity: 0.8; stroke-linecap: square"/>
     </g>
     <g id="line2d_12">
      <g>
       <use xlink:href="#mfa19a6ea6c" x="538.113231" y="501.3525" style="stroke: #000000; stroke-width: 0.8"/>
      </g>
     </g>
     <g id="text_6">
      <!-- 125 -->
      <g transform="translate(522.424168 521.49625) scale(0.2 -0.2)">
       <use xlink:href="#AptosDisplay-31"/>
       <use xlink:href="#AptosDisplay-32" x="52.294922"/>
       <use xlink:href="#AptosDisplay-35" x="104.589844"/>
      </g>
     </g>
    </g>
    <g id="xtick_7">
     <g id="line2d_13">
      <path d="M 620.73049 501.3525 
L 620.73049 57.8325 
" clip-path="url(#p15c801e936)" style="fill: none; stroke: #b0b0b0; stroke-opacity: 0.8; stroke-linecap: square"/>
     </g>
     <g id="line2d_14">
      <g>
       <use xlink:href="#mfa19a6ea6c" x="620.73049" y="501.3525" style="stroke: #000000; stroke-width: 0.8"/>
      </g>
     </g>
     <g id="text_7">
      <!-- 150 -->
      <g transform="translate(605.041428 521.49625) scale(0.2 -0.2)">
       <use xlink:href="#AptosDisplay-31"/>
       <use xlink:href="#AptosDisplay-35" x="52.294922"/>
       <use xlink:href="#AptosDisplay-30" x="104.589844"/>
      </g>
     </g>
    </g>
    <g id="xtick_8">
     <g id="line2d_15">
      <path d="M 703.34775 501.3525 
L 703.34775 57.8325 
" clip-path="url(#p15c801e936)" style="fill: none; stroke: #b0b0b0; stroke-opacity: 0.8; stroke-linecap: square"/>
     </g>
     <g id="line2d_16">
      <g>
       <use xlink:href="#mfa19a6ea6c" x="703.34775" y="501.3525" style="stroke: #000000; stroke-width: 0.8"/>
      </g>
     </g>
     <g id="text_8">
      <!-- 175 -->
      <g transform="translate(687.658687 521.49625) scale(0.2 -0.2)">
       <use xlink:href="#AptosDisplay-31"/>
       <use xlink:href="#AptosDisplay-37" x="52.294922"/>
       <use xlink:href="#AptosDisplay-35" x="104.589844"/>
      </g>
     </g>
    </g>
    <g id="xtick_9">
     <g id="line2d_17">
      <path d="M 108.503481 501.3525 
L 108.503481 57.8325 
" clip-path="url(#p15c801e936)" style="fill: none; stroke-dasharray: 1.85,0.8; stroke-dashoffset: 0; stroke: #b0b0b0; stroke-opacity: 0.8; stroke-width: 0.5"/>
     </g>
     <g id="line2d_18">
      <defs>
       <path id="mfdb4b7e05a" d="M 0 0 
L 0 2 
" style="stroke: #000000; stroke-width: 0.6"/>
      </defs>
      <g>
       <use xlink:href="#mfdb4b7e05a" x="108.503481" y="501.3525" style="stroke: #000000; stroke-width: 0.6"/>
      </g>
     </g>
    </g>
    <g id="xtick_10">
     <g id="line2d_19">
      <path d="M 141.550385 501.3525 
L 141.550385 57.8325 
" clip-path="url(#p15c801e936)" style="fill: none; stroke-dasharray: 1.85,0.8; stroke-dashoffset: 0; stroke: #b0b0b0; stroke-opacity: 0.8; stroke-width: 0.5"/>
     </g>
     <g id="line2d_20">
      <g>
       <use xlink:href="#mfdb4b7e05a" x="141.550385" y="501.3525" style="stroke: #000000; stroke-width: 0.6"/>
      </g>
     </g>
    </g>
    <g id="xtick_11">
     <g id="line2d_21">
      <path d="M 158.073837 501.3525 
L 158.073837 57.8325 
" clip-path="url(#p15c801e936)" style="fill: none; stroke-dasharray: 1.85,0.8; stroke-dashoffset: 0; stroke: #b0b0b0; stroke-opacity: 0.8; stroke-width: 0.5"/>
     </g>
     <g id="line2d_22">
      <g>
       <use xlink:href="#mfdb4b7e05a" x="158.073837" y="501.3525" style="stroke: #000000; stroke-width: 0.6"/>
      </g>
     </g>
    </g>
    <g id="xtick_12">
     <g id="line2d_23">
      <path d="M 174.597289 501.3525 
L 174.597289 57.8325 
" clip-path="url(#p15c801e936)" style="fill: none; stroke-dasharray: 1.85,0.8; stroke-dashoffset: 0; stroke: #b0b0b0; stroke-opacity: 0.8; stroke-width: 0.5"/>
     </g>
     <g id="line2d_24">
      <g>
       <use xlink:href="#mfdb4b7e05a" x="174.597289" y="501.3525" style="stroke: #000000; stroke-width: 0.6"/>
      </g>
     </g>
    </g>
    <g id="xtick_13">
     <g id="line2d_25">
      <path d="M 191.120741 501.3525 
L 191.120741 57.8325 
" clip-path="url(#p15c801e936)" style="fill: none; stroke-dasharray: 1.85,0.8; stroke-dashoffset: 0; stroke: #b0b0b0; stroke-opacity: 0.8; stroke-width: 0.5"/>
     </g>
     <g id="line2d_26">
      <g>
       <use xlink:href="#mfdb4b7e05a" x="191.120741" y="501.3525" style="stroke: #000000; stroke-width: 0.6"/>
      </g>
     </g>
    </g>
    <g id="xtick_14">
     <g id="line2d_27">
      <path d="M 224.167645 501.3525 
L 224.167645 57.8325 
" clip-path="url(#p15c801e936)" style="fill: none; stroke-dasharray: 1.85,0.8; stroke-dashoffset: 0; stroke: #b0b0b0; stroke-opacity: 0.8; stroke-width: 0.5"/>
     </g>
     <g id="line2d_28">
      <g>
       <use xlink:href="#mfdb4b7e05a" x="224.167645" y="501.3525" style="stroke: #000000; stroke-width: 0.6"/>
      </g>
     </g>
    </g>
    <g id="xtick_15">
     <g id="line2d_29">
      <path d="M 240.691097 501.3525 
L 240.691097 57.8325 
" clip-path="url(#p15c801e936)" style="fill: none; stroke-dasharray: 1.85,0.8; stroke-dashoffset: 0; stroke: #b0b0b0; stroke-opacity: 0.8; stroke-width: 0.5"/>
     </g>
     <g id="line2d_30">
      <g>
       <use xlink:href="#mfdb4b7e05a" x="240.691097" y="501.3525" style="stroke: #000000; stroke-width: 0.6"/>
      </g>
     </g>
    </g>
    <g id="xtick_16">
     <g id="line2d_31">
      <path d="M 257.214549 501.3525 
L 257.214549 57.8325 
" clip-path="url(#p15c801e936)" style="fill: none; stroke-dasharray: 1.85,0.8; stroke-dashoffset: 0; stroke: #b0b0b0; stroke-opacity: 0.8; stroke-width: 0.5"/>
     </g>
     <g id="line2d_32">
      <g>
       <use xlink:href="#mfdb4b7e05a" x="257.214549" y="501.3525" style="stroke: #000000; stroke-width: 0.6"/>
      </g>
     </g>
    </g>
    <g id="xtick_17">
     <g id="line2d_33">
      <path d="M 273.738 501.3525 
L 273.738 57.8325 
" clip-path="url(#p15c801e936)" style="fill: none; stroke-dasharray: 1.85,0.8; stroke-dashoffset: 0; stroke: #b0b0b0; stroke-opacity: 0.8; stroke-width: 0.5"/>
     </g>
     <g id="line2d_34">
      <g>
       <use xlink:href="#mfdb4b7e05a" x="273.738" y="501.3525" style="stroke: #000000; stroke-width: 0.6"/>
      </g>
     </g>
    </g>
    <g id="xtick_18">
     <g id="line2d_35">
      <path d="M 306.784904 501.3525 
L 306.784904 57.8325 
" clip-path="url(#p15c801e936)" style="fill: none; stroke-dasharray: 1.85,0.8; stroke-dashoffset: 0; stroke: #b0b0b0; stroke-opacity: 0.8; stroke-width: 0.5"/>
     </g>
     <g id="line2d_36">
      <g>
       <use xlink:href="#mfdb4b7e05a" x="306.784904" y="501.3525" style="stroke: #000000; stroke-width: 0.6"/>
      </g>
     </g>
    </g>
    <g id="xtick_19">
     <g id="line2d_37">
      <path d="M 323.308356 501.3525 
L 323.308356 57.8325 
" clip-path="url(#p15c801e936)" style="fill: none; stroke-dasharray: 1.85,0.8; stroke-dashoffset: 0; stroke: #b0b0b0; stroke-opacity: 0.8; stroke-width: 0.5"/>
     </g>
     <g id="line2d_38">
      <g>
       <use xlink:href="#mfdb4b7e05a" x="323.308356" y="501.3525" style="stroke: #000000; stroke-width: 0.6"/>
      </g>
     </g>
    </g>
    <g id="xtick_20">
     <g id="line2d_39">
      <path d="M 339.831808 501.3525 
L 339.831808 57.8325 
" clip-path="url(#p15c801e936)" style="fill: none; stroke-dasharray: 1.85,0.8; stroke-dashoffset: 0; stroke: #b0b0b0; stroke-opacity: 0.8; stroke-width: 0.5"/>
     </g>
     <g id="line2d_40">
      <g>
       <use xlink:href="#mfdb4b7e05a" x="339.831808" y="501.3525" style="stroke: #000000; stroke-width: 0.6"/>
      </g>
     </g>
    </g>
    <g id="xtick_21">
     <g id="line2d_41">
      <path d="M 356.35526 501.3525 
L 356.35526 57.8325 
" clip-path="url(#p15c801e936)" style="fill: none; stroke-dasharray: 1.85,0.8; stroke-dashoffset: 0; stroke: #b0b0b0; stroke-opacity: 0.8; stroke-width: 0.5"/>
     </g>
     <g id="line2d_42">
      <g>
       <use xlink:href="#mfdb4b7e05a" x="356.35526" y="501.3525" style="stroke: #000000; stroke-width: 0.6"/>
      </g>
     </g>
    </g>
    <g id="xtick_22">
     <g id="line2d_43">
      <path d="M 389.402164 501.3525 
L 389.402164 57.8325 
" clip-path="url(#p15c801e936)" style="fill: none; stroke-dasharray: 1.85,0.8; stroke-dashoffset: 0; stroke: #b0b0b0; stroke-opacity: 0.8; stroke-width: 0.5"/>
     </g>
     <g id="line2d_44">
      <g>
       <use xlink:href="#mfdb4b7e05a" x="389.402164" y="501.3525" style="stroke: #000000; stroke-width: 0.6"/>
      </g>
     </g>
    </g>
    <g id="xtick_23">
     <g id="line2d_45">
      <path d="M 405.925616 501.3525 
L 405.925616 57.8325 
" clip-path="url(#p15c801e936)" style="fill: none; stroke-dasharray: 1.85,0.8; stroke-dashoffset: 0; stroke: #b0b0b0; stroke-opacity: 0.8; stroke-width: 0.5"/>
     </g>
     <g id="line2d_46">
      <g>
       <use xlink:href="#mfdb4b7e05a" x="405.925616" y="501.3525" style="stroke: #000000; stroke-width: 0.6"/>
      </g>
     </g>
    </g>
    <g id="xtick_24">
     <g id="line2d_47">
      <path d="M 422.449068 501.3525 
L 422.449068 57.8325 
" clip-path="url(#p15c801e936)" style="fill: none; stroke-dasharray: 1.85,0.8; stroke-dashoffset: 0; stroke: #b0b0b0; stroke-opacity: 0.8; stroke-width: 0.5"/>
     </g>
     <g id="line2d_48">
      <g>
       <use xlink:href="#mfdb4b7e05a" x="422.449068" y="501.3525" style="stroke: #000000; stroke-width: 0.6"/>
      </g>
     </g>
    </g>
    <g id="xtick_25">
     <g id="line2d_49">
      <path d="M 438.972519 501.3525 
L 438.972519 57.8325 
" clip-path="url(#p15c801e936)" style="fill: none; stroke-dasharray: 1.85,0.8; stroke-dashoffset: 0; stroke: #b0b0b0; stroke-opacity: 0.8; stroke-width: 0.5"/>
     </g>
     <g id="line2d_50">
      <g>
       <use xlink:href="#mfdb4b7e05a" x="438.972519" y="501.3525" style="stroke: #000000; stroke-width: 0.6"/>
      </g>
     </g>
    </g>
    <g id="xtick_26">
     <g id="line2d_51">
      <path d="M 472.019423 501.3525 
L 472.019423 57.8325 
" clip-path="url(#p15c801e936)" style="fill: none; stroke-dasharray: 1.85,0.8; stroke-dashoffset: 0; stroke: #b0b0b0; stroke-opacity: 0.8; stroke-width: 0.5"/>
     </g>
     <g id="line2d_52">
      <g>
       <use xlink:href="#mfdb4b7e05a" x="472.019423" y="501.3525" style="stroke: #000000; stroke-width: 0.6"/>
      </g>
     </g>
    </g>
    <g id="xtick_27">
     <g id="line2d_53">
      <path d="M 488.542875 501.3525 
L 488.542875 57.8325 
" clip-path="url(#p15c801e936)" style="fill: none; stroke-dasharray: 1.85,0.8; stroke-dashoffset: 0; stroke: #b0b0b0; stroke-opacity: 0.8; stroke-width: 0.5"/>
     </g>
     <g id="line2d_54">
      <g>
       <use xlink:href="#mfdb4b7e05a" x="488.542875" y="501.3525" style="stroke: #000000; stroke-width: 0.6"/>
      </g>
     </g>
    </g>
    <g id="xtick_28">
     <g id="line2d_55">
      <path d="M 505.066327 501.3525 
L 505.066327 57.8325 
" clip-path="url(#p15c801e936)" style="fill: none; stroke-dasharray: 1.85,0.8; stroke-dashoffset: 0; stroke: #b0b0b0; stroke-opacity: 0.8; stroke-width: 0.5"/>
     </g>
     <g id="line2d_56">
      <g>
       <use xlink:href="#mfdb4b7e05a" x="505.066327" y="501.3525" style="stroke: #000000; stroke-width: 0.6"/>
      </g>
     </g>
    </g>
    <g id="xtick_29">
     <g id="line2d_57">
      <path d="M 521.589779 501.3525 
L 521.589779 57.8325 
" clip-path="url(#p15c801e936)" style="fill: none; stroke-dasharray: 1.85,0.8; stroke-dashoffset: 0; stroke: #b0b0b0; stroke-opacity: 0.8; stroke-width: 0.5"/>
     </g>
     <g id="line2d_58">
      <g>
       <use xlink:href="#mfdb4b7e05a" x="521.589779" y="501.3525" style="stroke: #000000; stroke-width: 0.6"/>
      </g>
     </g>
    </g>
    <g id="xtick_30">
     <g id="line2d_59">
      <path d="M 554.636683 501.3525 
L 554.636683 57.8325 
" clip-path="url(#p15c801e936)" style="fill: none; stroke-dasharray: 1.85,0.8; stroke-dashoffset: 0; stroke: #b0b0b0; stroke-opacity: 0.8; stroke-width: 0.5"/>
     </g>
     <g id="line2d_60">
      <g>
       <use xlink:href="#mfdb4b7e05a" x="554.636683" y="501.3525" style="stroke: #000000; stroke-width: 0.6"/>
      </g>
     </g>
    </g>
    <g id="xtick_31">
     <g id="line2d_61">
      <path d="M 571.160135 501.3525 
L 571.160135 57.8325 
" clip-path="url(#p15c801e936)" style="fill: none; stroke-dasharray: 1.85,0.8; stroke-dashoffset: 0; stroke: #b0b0b0; stroke-opacity: 0.8; stroke-width: 0.5"/>
     </g>
     <g id="line2d_62">
      <g>
       <use xlink:href="#mfdb4b7e05a" x="571.160135" y="501.3525" style="stroke: #000000; stroke-width: 0.6"/>
      </g>
     </g>
    </g>
    <g id="xtick_32">
     <g id="line2d_63">
      <path d="M 587.683587 501.3525 
L 587.683587 57.8325 
" clip-path="url(#p15c801e936)" style="fill: none; stroke-dasharray: 1.85,0.8; stroke-dashoffset: 0; stroke: #b0b0b0; stroke-opacity: 0.8; stroke-width: 0.5"/>
     </g>
     <g id="line2d_64">
      <g>
       <use xlink:href="#mfdb4b7e05a" x="587.683587" y="501.3525" style="stroke: #000000; stroke-width: 0.6"/>
      </g>
     </g>
    </g>
    <g id="xtick_33">
     <g id="line2d_65">
      <path d="M 604.207038 501.3525 
L 604.207038 57.8325 
" clip-path="url(#p15c801e936)" style="fill: none; stroke-dasharray: 1.85,0.8; stroke-dashoffset: 0; stroke: #b0b0b0; stroke-opacity: 0.8; stroke-width: 0.5"/>
     </g>
     <g id="line2d_66">
      <g>
       <use xlink:href="#mfdb4b7e05a" x="604.207038" y="501.3525" style="stroke: #000000; stroke-width: 0.6"/>
      </g>
     </g>
    </g>
    <g id="xtick_34">
     <g id="line2d_67">
      <path d="M 637.253942 501.3525 
L 637.253942 57.8325 
" clip-path="url(#p15c801e936)" style="fill: none; stroke-dasharray: 1.85,0.8; stroke-dashoffset: 0; stroke: #b0b0b0; stroke-opacity: 0.8; stroke-width: 0.5"/>
     </g>
     <g id="line2d_68">
      <g>
       <use xlink:href="#mfdb4b7e05a" x="637.253942" y="501.3525" style="stroke: #000000; stroke-width: 0.6"/>
      </g>
     </g>
    </g>
    <g id="xtick_35">
     <g id="line2d_69">
      <path d="M 653.777394 501.3525 
L 653.777394 57.8325 
" clip-path="url(#p15c801e936)" style="fill: none; stroke-dasharray: 1.85,0.8; stroke-dashoffset: 0; stroke: #b0b0b0; stroke-opacity: 0.8; stroke-width: 0.5"/>
     </g>
     <g id="line2d_70">
      <g>
       <use xlink:href="#mfdb4b7e05a" x="653.777394" y="501.3525" style="stroke: #000000; stroke-width: 0.6"/>
      </g>
     </g>
    </g>
    <g id="xtick_36">
     <g id="line2d_71">
      <path d="M 670.300846 501.3525 
L 670.300846 57.8325 
" clip-path="url(#p15c801e936)" style="fill: none; stroke-dasharray: 1.85,0.8; stroke-dashoffset: 0; stroke: #b0b0b0; stroke-opacity: 0.8; stroke-width: 0.5"/>
     </g>
     <g id="line2d_72">
      <g>
       <use xlink:href="#mfdb4b7e05a" x="670.300846" y="501.3525" style="stroke: #000000; stroke-width: 0.6"/>
      </g>
     </g>
    </g>
    <g id="xtick_37">
     <g id="line2d_73">
      <path d="M 686.824298 501.3525 
L 686.824298 57.8325 
" clip-path="url(#p15c801e936)" style="fill: none; stroke-dasharray: 1.85,0.8; stroke-dashoffset: 0; stroke: #b0b0b0; stroke-opacity: 0.8; stroke-width: 0.5"/>
     </g>
     <g id="line2d_74">
      <g>
       <use xlink:href="#mfdb4b7e05a" x="686.824298" y="501.3525" style="stroke: #000000; stroke-width: 0.6"/>
      </g>
     </g>
    </g>
    <g id="xtick_38">
     <g id="line2d_75">
      <path d="M 719.871202 501.3525 
L 719.871202 57.8325 
" clip-path="url(#p15c801e936)" style="fill: none; stroke-dasharray: 1.85,0.8; stroke-dashoffset: 0; stroke: #b0b0b0; stroke-opacity: 0.8; stroke-width: 0.5"/>
     </g>
     <g id="line2d_76">
      <g>
       <use xlink:href="#mfdb4b7e05a" x="719.871202" y="501.3525" style="stroke: #000000; stroke-width: 0.6"/>
      </g>
     </g>
    </g>
    <g id="xtick_39">
     <g id="line2d_77">
      <path d="M 736.394654 501.3525 
L 736.394654 57.8325 
" clip-path="url(#p15c801e936)" style="fill: none; stroke-dasharray: 1.85,0.8; stroke-dashoffset: 0; stroke: #b0b0b0; stroke-opacity: 0.8; stroke-width: 0.5"/>
     </g>
     <g id="line2d_78">
      <g>
       <use xlink:href="#mfdb4b7e05a" x="736.394654" y="501.3525" style="stroke: #000000; stroke-width: 0.6"/>
      </g>
     </g>
    </g>
    <g id="xtick_40">
     <g id="line2d_79">
      <path d="M 752.918106 501.3525 
L 752.918106 57.8325 
" clip-path="url(#p15c801e936)" style="fill: none; stroke-dasharray: 1.85,0.8; stroke-dashoffset: 0; stroke: #b0b0b0; stroke-opacity: 0.8; stroke-width: 0.5"/>
     </g>
     <g id="line2d_80">
      <g>
       <use xlink:href="#mfdb4b7e05a" x="752.918106" y="501.3525" style="stroke: #000000; stroke-width: 0.6"/>
      </g>
     </g>
    </g>
    <g id="text_9">
     <!-- Time (S) -->
     <g transform="translate(396.990625 542.305625) scale(0.2 -0.2)">
      <defs>
       <path id="AptosDisplay-54" d="M 1244 0 
L 1244 3734 
L 50 3734 
L 50 4206 
L 2997 4206 
L 2997 3734 
L 1806 3734 
L 1806 0 
L 1244 0 
z
" transform="scale(0.015625)"/>
       <path id="AptosDisplay-69" d="M 413 0 
L 413 3044 
L 934 3044 
L 934 0 
L 413 0 
z
M 675 3616 
Q 525 3616 437 3702 
Q 350 3788 350 3919 
Q 350 4050 437 4136 
Q 525 4222 675 4222 
Q 822 4222 912 4136 
Q 1003 4050 1003 3919 
Q 1003 3788 912 3702 
Q 822 3616 675 3616 
z
" transform="scale(0.015625)"/>
       <path id="AptosDisplay-6d" d="M 413 0 
L 413 3044 
L 919 3044 
L 931 2575 
Q 1063 2756 1303 2914 
Q 1544 3072 1903 3072 
Q 2403 3072 2618 2778 
Q 2834 2484 2834 1963 
L 2834 0 
L 2316 0 
L 2316 1891 
Q 2316 2106 2275 2275 
Q 2234 2444 2120 2539 
Q 2006 2634 1788 2634 
Q 1488 2634 1277 2482 
Q 1066 2331 934 2156 
L 934 0 
L 413 0 
z
M 4206 0 
L 4206 1891 
Q 4206 2106 4164 2275 
Q 4122 2444 4009 2539 
Q 3897 2634 3681 2634 
Q 3381 2634 3165 2484 
Q 2950 2334 2822 2159 
L 2744 2544 
Q 2916 2741 3175 2906 
Q 3434 3072 3800 3072 
Q 4291 3072 4509 2778 
Q 4728 2484 4728 1963 
L 4728 0 
L 4206 0 
z
" transform="scale(0.015625)"/>
       <path id="AptosDisplay-65" d="M 1663 -56 
Q 1188 -56 878 151 
Q 569 359 417 717 
Q 266 1075 266 1522 
Q 266 1988 412 2342 
Q 559 2697 857 2897 
Q 1156 3097 1606 3097 
Q 2209 3097 2550 2722 
Q 2891 2347 2891 1644 
Q 2891 1597 2889 1533 
Q 2888 1469 2881 1441 
L 791 1441 
Q 794 1144 881 895 
Q 969 647 1161 497 
Q 1353 347 1663 347 
Q 1997 347 2183 511 
Q 2369 675 2378 984 
L 2894 984 
Q 2884 663 2732 430 
Q 2581 197 2309 70 
Q 2038 -56 1663 -56 
z
M 794 1822 
L 2375 1822 
Q 2366 2247 2166 2472 
Q 1966 2697 1606 2697 
Q 1241 2697 1036 2473 
Q 831 2250 794 1822 
z
" transform="scale(0.015625)"/>
       <path id="AptosDisplay-20" transform="scale(0.015625)"/>
       <path id="AptosDisplay-28" d="M 1219 -1116 
Q 969 -678 787 -267 
Q 606 144 511 581 
Q 416 1019 416 1528 
Q 416 2028 509 2486 
Q 603 2944 783 3378 
Q 963 3813 1219 4231 
L 1647 4231 
Q 1278 3600 1101 2886 
Q 925 2172 925 1428 
Q 925 766 1125 103 
Q 1325 -559 1647 -1116 
L 1219 -1116 
z
" transform="scale(0.015625)"/>
       <path id="AptosDisplay-53" d="M 1778 -56 
Q 1328 -56 962 81 
Q 597 219 384 512 
Q 172 806 172 1275 
L 734 1275 
Q 738 941 883 750 
Q 1028 559 1267 481 
Q 1506 403 1794 403 
Q 2063 403 2283 483 
Q 2503 563 2634 723 
Q 2766 884 2766 1134 
Q 2766 1356 2662 1497 
Q 2559 1638 2321 1742 
Q 2084 1847 1678 1950 
Q 1203 2075 897 2223 
Q 591 2372 442 2594 
Q 294 2816 294 3156 
Q 294 3516 462 3761 
Q 631 4006 945 4134 
Q 1259 4263 1697 4263 
Q 2103 4263 2440 4131 
Q 2778 4000 2979 3737 
Q 3181 3475 3181 3084 
L 2616 3084 
Q 2622 3441 2356 3623 
Q 2091 3806 1700 3806 
Q 1300 3806 1073 3645 
Q 847 3484 847 3175 
Q 847 2991 944 2867 
Q 1041 2744 1280 2644 
Q 1519 2544 1941 2434 
Q 2428 2303 2731 2153 
Q 3034 2003 3178 1768 
Q 3322 1534 3322 1153 
Q 3322 747 3117 480 
Q 2913 213 2564 78 
Q 2216 -56 1778 -56 
z
" transform="scale(0.015625)"/>
       <path id="AptosDisplay-29" d="M 234 -1116 
Q 609 -481 786 233 
Q 963 947 963 1694 
Q 963 2356 759 3015 
Q 556 3675 234 4231 
L 663 4231 
Q 919 3800 1098 3389 
Q 1278 2978 1373 2540 
Q 1469 2103 1469 1594 
Q 1469 1094 1375 634 
Q 1281 175 1100 -259 
Q 919 -694 663 -1116 
L 234 -1116 
z
" transform="scale(0.015625)"/>
      </defs>
      <use xlink:href="#AptosDisplay-54"/>
      <use xlink:href="#AptosDisplay-69" x="47.705078"/>
      <use xlink:href="#AptosDisplay-6d" x="68.75"/>
      <use xlink:href="#AptosDisplay-65" x="148.730469"/>
      <use xlink:href="#AptosDisplay-20" x="198.144531"/>
      <use xlink:href="#AptosDisplay-28" x="217.431641"/>
      <use xlink:href="#AptosDisplay-53" x="246.875"/>
      <use xlink:href="#AptosDisplay-29" x="301.464844"/>
     </g>
    </g>
   </g>
   <g id="matplotlib.axis_2">
    <g id="ytick_1">
     <g id="line2d_81">
      <path d="M 95.28125 489.998902 
L 764.88125 489.998902 
" clip-path="url(#p15c801e936)" style="fill: none; stroke: #b0b0b0; stroke-opacity: 0.8; stroke-linecap: square"/>
     </g>
     <g id="line2d_82">
      <defs>
       <path id="m0e6228d3d8" d="M 0 0 
L -3.5 0 
" style="stroke: #000000; stroke-width: 0.8"/>
      </defs>
      <g>
       <use xlink:href="#m0e6228d3d8" x="95.28125" y="489.998902" style="stroke: #000000; stroke-width: 0.8"/>
      </g>
     </g>
     <g id="text_10">
      <!-- 650 -->
      <g transform="translate(56.903125 496.570777) scale(0.2 -0.2)">
       <defs>
        <path id="AptosDisplay-36" d="M 1759 -56 
Q 1325 -56 984 151 
Q 644 359 447 815 
Q 250 1272 250 2013 
Q 250 2738 439 3206 
Q 628 3675 968 3903 
Q 1309 4131 1759 4131 
Q 2253 4131 2595 3875 
Q 2938 3619 3034 3097 
L 2503 3097 
Q 2441 3388 2250 3534 
Q 2059 3681 1759 3681 
Q 1306 3681 1047 3279 
Q 788 2878 788 2013 
L 788 1850 
Q 788 1313 922 992 
Q 1056 672 1279 531 
Q 1503 391 1763 391 
Q 2175 391 2369 644 
Q 2563 897 2563 1272 
Q 2563 1650 2373 1869 
Q 2184 2088 1838 2088 
Q 1422 2088 1114 1897 
Q 806 1706 644 1456 
L 597 1856 
Q 728 2047 922 2201 
Q 1116 2356 1362 2447 
Q 1609 2538 1909 2538 
Q 2253 2538 2523 2395 
Q 2794 2253 2951 1975 
Q 3109 1697 3109 1291 
Q 3109 897 2951 592 
Q 2794 288 2492 116 
Q 2191 -56 1759 -56 
z
" transform="scale(0.015625)"/>
       </defs>
       <use xlink:href="#AptosDisplay-36"/>
       <use xlink:href="#AptosDisplay-35" x="52.294922"/>
       <use xlink:href="#AptosDisplay-30" x="104.589844"/>
      </g>
     </g>
    </g>
    <g id="ytick_2">
     <g id="line2d_83">
      <path d="M 95.28125 425.952341 
L 764.88125 425.952341 
" clip-path="url(#p15c801e936)" style="fill: none; stroke: #b0b0b0; stroke-opacity: 0.8; stroke-linecap: square"/>
     </g>
     <g id="line2d_84">
      <g>
       <use xlink:href="#m0e6228d3d8" x="95.28125" y="425.952341" style="stroke: #000000; stroke-width: 0.8"/>
      </g>
     </g>
     <g id="text_11">
      <!-- 700 -->
      <g transform="translate(56.903125 432.524216) scale(0.2 -0.2)">
       <use xlink:href="#AptosDisplay-37"/>
       <use xlink:href="#AptosDisplay-30" x="52.294922"/>
       <use xlink:href="#AptosDisplay-30" x="104.589844"/>
      </g>
     </g>
    </g>
    <g id="ytick_3">
     <g id="line2d_85">
      <path d="M 95.28125 361.90578 
L 764.88125 361.90578 
" clip-path="url(#p15c801e936)" style="fill: none; stroke: #b0b0b0; stroke-opacity: 0.8; stroke-linecap: square"/>
     </g>
     <g id="line2d_86">
      <g>
       <use xlink:href="#m0e6228d3d8" x="95.28125" y="361.90578" style="stroke: #000000; stroke-width: 0.8"/>
      </g>
     </g>
     <g id="text_12">
      <!-- 750 -->
      <g transform="translate(56.903125 368.477655) scale(0.2 -0.2)">
       <use xlink:href="#AptosDisplay-37"/>
       <use xlink:href="#AptosDisplay-35" x="52.294922"/>
       <use xlink:href="#AptosDisplay-30" x="104.589844"/>
      </g>
     </g>
    </g>
    <g id="ytick_4">
     <g id="line2d_87">
      <path d="M 95.28125 297.85922 
L 764.88125 297.85922 
" clip-path="url(#p15c801e936)" style="fill: none; stroke: #b0b0b0; stroke-opacity: 0.8; stroke-linecap: square"/>
     </g>
     <g id="line2d_88">
      <g>
       <use xlink:href="#m0e6228d3d8" x="95.28125" y="297.85922" style="stroke: #000000; stroke-width: 0.8"/>
      </g>
     </g>
     <g id="text_13">
      <!-- 800 -->
      <g transform="translate(56.903125 304.431095) scale(0.2 -0.2)">
       <defs>
        <path id="AptosDisplay-38" d="M 1675 -56 
Q 1391 -56 1137 16 
Q 884 88 686 234 
Q 488 381 373 606 
Q 259 831 259 1141 
Q 259 1531 495 1797 
Q 731 2063 1084 2150 
Q 781 2250 604 2490 
Q 428 2731 428 3081 
Q 428 3447 609 3681 
Q 791 3916 1075 4025 
Q 1359 4134 1669 4134 
Q 1981 4134 2265 4023 
Q 2550 3913 2733 3680 
Q 2916 3447 2916 3081 
Q 2916 2725 2716 2481 
Q 2516 2238 2238 2150 
Q 2606 2063 2843 1800 
Q 3081 1538 3081 1141 
Q 3081 831 2968 606 
Q 2856 381 2661 234 
Q 2466 88 2211 16 
Q 1956 -56 1675 -56 
z
M 1672 388 
Q 1909 388 2109 470 
Q 2309 553 2429 725 
Q 2550 897 2550 1163 
Q 2550 1416 2426 1587 
Q 2303 1759 2104 1846 
Q 1906 1934 1672 1928 
Q 1453 1934 1253 1850 
Q 1053 1766 926 1594 
Q 800 1422 800 1163 
Q 800 775 1058 581 
Q 1316 388 1672 388 
z
M 1672 2363 
Q 1863 2356 2030 2434 
Q 2197 2513 2300 2667 
Q 2403 2822 2403 3050 
Q 2403 3388 2189 3544 
Q 1975 3700 1675 3700 
Q 1484 3700 1317 3631 
Q 1150 3563 1047 3419 
Q 944 3275 944 3050 
Q 944 2825 1048 2670 
Q 1153 2516 1320 2436 
Q 1488 2356 1672 2363 
z
" transform="scale(0.015625)"/>
       </defs>
       <use xlink:href="#AptosDisplay-38"/>
       <use xlink:href="#AptosDisplay-30" x="52.294922"/>
       <use xlink:href="#AptosDisplay-30" x="104.589844"/>
      </g>
     </g>
    </g>
    <g id="ytick_5">
     <g id="line2d_89">
      <path d="M 95.28125 233.812659 
L 764.88125 233.812659 
" clip-path="url(#p15c801e936)" style="fill: none; stroke: #b0b0b0; stroke-opacity: 0.8; stroke-linecap: square"/>
     </g>
     <g id="line2d_90">
      <g>
       <use xlink:href="#m0e6228d3d8" x="95.28125" y="233.812659" style="stroke: #000000; stroke-width: 0.8"/>
      </g>
     </g>
     <g id="text_14">
      <!-- 850 -->
      <g transform="translate(56.903125 240.384534) scale(0.2 -0.2)">
       <use xlink:href="#AptosDisplay-38"/>
       <use xlink:href="#AptosDisplay-35" x="52.294922"/>
       <use xlink:href="#AptosDisplay-30" x="104.589844"/>
      </g>
     </g>
    </g>
    <g id="ytick_6">
     <g id="line2d_91">
      <path d="M 95.28125 169.766098 
L 764.88125 169.766098 
" clip-path="url(#p15c801e936)" style="fill: none; stroke: #b0b0b0; stroke-opacity: 0.8; stroke-linecap: square"/>
     </g>
     <g id="line2d_92">
      <g>
       <use xlink:href="#m0e6228d3d8" x="95.28125" y="169.766098" style="stroke: #000000; stroke-width: 0.8"/>
      </g>
     </g>
     <g id="text_15">
      <!-- 900 -->
      <g transform="translate(56.903125 176.337973) scale(0.2 -0.2)">
       <defs>
        <path id="AptosDisplay-39" d="M 1547 -56 
Q 1200 -56 926 64 
Q 653 184 481 415 
Q 309 647 256 978 
L 788 978 
Q 834 713 1029 552 
Q 1225 391 1547 391 
Q 2022 391 2294 778 
Q 2566 1166 2566 2019 
L 2566 2197 
Q 2566 2753 2439 3079 
Q 2313 3406 2102 3547 
Q 1891 3688 1634 3688 
Q 1206 3688 998 3433 
Q 791 3178 791 2800 
Q 791 2422 991 2203 
Q 1191 1984 1547 1984 
Q 1831 1984 2045 2071 
Q 2259 2159 2417 2300 
Q 2575 2441 2681 2594 
L 2731 2209 
Q 2609 2038 2432 1884 
Q 2256 1731 2020 1634 
Q 1784 1538 1484 1538 
Q 1122 1538 842 1683 
Q 563 1828 405 2108 
Q 247 2388 247 2784 
Q 247 3175 414 3479 
Q 581 3784 892 3959 
Q 1203 4134 1631 4134 
Q 2056 4134 2389 3926 
Q 2722 3719 2914 3262 
Q 3106 2806 3106 2066 
Q 3106 1338 2912 869 
Q 2719 400 2369 172 
Q 2019 -56 1547 -56 
z
" transform="scale(0.015625)"/>
       </defs>
       <use xlink:href="#AptosDisplay-39"/>
       <use xlink:href="#AptosDisplay-30" x="52.294922"/>
       <use xlink:href="#AptosDisplay-30" x="104.589844"/>
      </g>
     </g>
    </g>
    <g id="ytick_7">
     <g id="line2d_93">
      <path d="M 95.28125 105.719537 
L 764.88125 105.719537 
" clip-path="url(#p15c801e936)" style="fill: none; stroke: #b0b0b0; stroke-opacity: 0.8; stroke-linecap: square"/>
     </g>
     <g id="line2d_94">
      <g>
       <use xlink:href="#m0e6228d3d8" x="95.28125" y="105.719537" style="stroke: #000000; stroke-width: 0.8"/>
      </g>
     </g>
     <g id="text_16">
      <!-- 950 -->
      <g transform="translate(56.903125 112.291412) scale(0.2 -0.2)">
       <use xlink:href="#AptosDisplay-39"/>
       <use xlink:href="#AptosDisplay-35" x="52.294922"/>
       <use xlink:href="#AptosDisplay-30" x="104.589844"/>
      </g>
     </g>
    </g>
    <g id="ytick_8">
     <g id="line2d_95">
      <path d="M 95.28125 477.18959 
L 764.88125 477.18959 
" clip-path="url(#p15c801e936)" style="fill: none; stroke-dasharray: 1.85,0.8; stroke-dashoffset: 0; stroke: #b0b0b0; stroke-opacity: 0.8; stroke-width: 0.5"/>
     </g>
     <g id="line2d_96">
      <defs>
       <path id="m643cb7c1f4" d="M 0 0 
L -2 0 
" style="stroke: #000000; stroke-width: 0.6"/>
      </defs>
      <g>
       <use xlink:href="#m643cb7c1f4" x="95.28125" y="477.18959" style="stroke: #000000; stroke-width: 0.6"/>
      </g>
     </g>
    </g>
    <g id="ytick_9">
     <g id="line2d_97">
      <path d="M 95.28125 464.380278 
L 764.88125 464.380278 
" clip-path="url(#p15c801e936)" style="fill: none; stroke-dasharray: 1.85,0.8; stroke-dashoffset: 0; stroke: #b0b0b0; stroke-opacity: 0.8; stroke-width: 0.5"/>
     </g>
     <g id="line2d_98">
      <g>
       <use xlink:href="#m643cb7c1f4" x="95.28125" y="464.380278" style="stroke: #000000; stroke-width: 0.6"/>
      </g>
     </g>
    </g>
    <g id="ytick_10">
     <g id="line2d_99">
      <path d="M 95.28125 451.570966 
L 764.88125 451.570966 
" clip-path="url(#p15c801e936)" style="fill: none; stroke-dasharray: 1.85,0.8; stroke-dashoffset: 0; stroke: #b0b0b0; stroke-opacity: 0.8; stroke-width: 0.5"/>
     </g>
     <g id="line2d_100">
      <g>
       <use xlink:href="#m643cb7c1f4" x="95.28125" y="451.570966" style="stroke: #000000; stroke-width: 0.6"/>
      </g>
     </g>
    </g>
    <g id="ytick_11">
     <g id="line2d_101">
      <path d="M 95.28125 438.761653 
L 764.88125 438.761653 
" clip-path="url(#p15c801e936)" style="fill: none; stroke-dasharray: 1.85,0.8; stroke-dashoffset: 0; stroke: #b0b0b0; stroke-opacity: 0.8; stroke-width: 0.5"/>
     </g>
     <g id="line2d_102">
      <g>
       <use xlink:href="#m643cb7c1f4" x="95.28125" y="438.761653" style="stroke: #000000; stroke-width: 0.6"/>
      </g>
     </g>
    </g>
    <g id="ytick_12">
     <g id="line2d_103">
      <path d="M 95.28125 413.143029 
L 764.88125 413.143029 
" clip-path="url(#p15c801e936)" style="fill: none; stroke-dasharray: 1.85,0.8; stroke-dashoffset: 0; stroke: #b0b0b0; stroke-opacity: 0.8; stroke-width: 0.5"/>
     </g>
     <g id="line2d_104">
      <g>
       <use xlink:href="#m643cb7c1f4" x="95.28125" y="413.143029" style="stroke: #000000; stroke-width: 0.6"/>
      </g>
     </g>
    </g>
    <g id="ytick_13">
     <g id="line2d_105">
      <path d="M 95.28125 400.333717 
L 764.88125 400.333717 
" clip-path="url(#p15c801e936)" style="fill: none; stroke-dasharray: 1.85,0.8; stroke-dashoffset: 0; stroke: #b0b0b0; stroke-opacity: 0.8; stroke-width: 0.5"/>
     </g>
     <g id="line2d_106">
      <g>
       <use xlink:href="#m643cb7c1f4" x="95.28125" y="400.333717" style="stroke: #000000; stroke-width: 0.6"/>
      </g>
     </g>
    </g>
    <g id="ytick_14">
     <g id="line2d_107">
      <path d="M 95.28125 387.524405 
L 764.88125 387.524405 
" clip-path="url(#p15c801e936)" style="fill: none; stroke-dasharray: 1.85,0.8; stroke-dashoffset: 0; stroke: #b0b0b0; stroke-opacity: 0.8; stroke-width: 0.5"/>
     </g>
     <g id="line2d_108">
      <g>
       <use xlink:href="#m643cb7c1f4" x="95.28125" y="387.524405" style="stroke: #000000; stroke-width: 0.6"/>
      </g>
     </g>
    </g>
    <g id="ytick_15">
     <g id="line2d_109">
      <path d="M 95.28125 374.715093 
L 764.88125 374.715093 
" clip-path="url(#p15c801e936)" style="fill: none; stroke-dasharray: 1.85,0.8; stroke-dashoffset: 0; stroke: #b0b0b0; stroke-opacity: 0.8; stroke-width: 0.5"/>
     </g>
     <g id="line2d_110">
      <g>
       <use xlink:href="#m643cb7c1f4" x="95.28125" y="374.715093" style="stroke: #000000; stroke-width: 0.6"/>
      </g>
     </g>
    </g>
    <g id="ytick_16">
     <g id="line2d_111">
      <path d="M 95.28125 349.096468 
L 764.88125 349.096468 
" clip-path="url(#p15c801e936)" style="fill: none; stroke-dasharray: 1.85,0.8; stroke-dashoffset: 0; stroke: #b0b0b0; stroke-opacity: 0.8; stroke-width: 0.5"/>
     </g>
     <g id="line2d_112">
      <g>
       <use xlink:href="#m643cb7c1f4" x="95.28125" y="349.096468" style="stroke: #000000; stroke-width: 0.6"/>
      </g>
     </g>
    </g>
    <g id="ytick_17">
     <g id="line2d_113">
      <path d="M 95.28125 336.287156 
L 764.88125 336.287156 
" clip-path="url(#p15c801e936)" style="fill: none; stroke-dasharray: 1.85,0.8; stroke-dashoffset: 0; stroke: #b0b0b0; stroke-opacity: 0.8; stroke-width: 0.5"/>
     </g>
     <g id="line2d_114">
      <g>
       <use xlink:href="#m643cb7c1f4" x="95.28125" y="336.287156" style="stroke: #000000; stroke-width: 0.6"/>
      </g>
     </g>
    </g>
    <g id="ytick_18">
     <g id="line2d_115">
      <path d="M 95.28125 323.477844 
L 764.88125 323.477844 
" clip-path="url(#p15c801e936)" style="fill: none; stroke-dasharray: 1.85,0.8; stroke-dashoffset: 0; stroke: #b0b0b0; stroke-opacity: 0.8; stroke-width: 0.5"/>
     </g>
     <g id="line2d_116">
      <g>
       <use xlink:href="#m643cb7c1f4" x="95.28125" y="323.477844" style="stroke: #000000; stroke-width: 0.6"/>
      </g>
     </g>
    </g>
    <g id="ytick_19">
     <g id="line2d_117">
      <path d="M 95.28125 310.668532 
L 764.88125 310.668532 
" clip-path="url(#p15c801e936)" style="fill: none; stroke-dasharray: 1.85,0.8; stroke-dashoffset: 0; stroke: #b0b0b0; stroke-opacity: 0.8; stroke-width: 0.5"/>
     </g>
     <g id="line2d_118">
      <g>
       <use xlink:href="#m643cb7c1f4" x="95.28125" y="310.668532" style="stroke: #000000; stroke-width: 0.6"/>
      </g>
     </g>
    </g>
    <g id="ytick_20">
     <g id="line2d_119">
      <path d="M 95.28125 285.049907 
L 764.88125 285.049907 
" clip-path="url(#p15c801e936)" style="fill: none; stroke-dasharray: 1.85,0.8; stroke-dashoffset: 0; stroke: #b0b0b0; stroke-opacity: 0.8; stroke-width: 0.5"/>
     </g>
     <g id="line2d_120">
      <g>
       <use xlink:href="#m643cb7c1f4" x="95.28125" y="285.049907" style="stroke: #000000; stroke-width: 0.6"/>
      </g>
     </g>
    </g>
    <g id="ytick_21">
     <g id="line2d_121">
      <path d="M 95.28125 272.240595 
L 764.88125 272.240595 
" clip-path="url(#p15c801e936)" style="fill: none; stroke-dasharray: 1.85,0.8; stroke-dashoffset: 0; stroke: #b0b0b0; stroke-opacity: 0.8; stroke-width: 0.5"/>
     </g>
     <g id="line2d_122">
      <g>
       <use xlink:href="#m643cb7c1f4" x="95.28125" y="272.240595" style="stroke: #000000; stroke-width: 0.6"/>
      </g>
     </g>
    </g>
    <g id="ytick_22">
     <g id="line2d_123">
      <path d="M 95.28125 259.431283 
L 764.88125 259.431283 
" clip-path="url(#p15c801e936)" style="fill: none; stroke-dasharray: 1.85,0.8; stroke-dashoffset: 0; stroke: #b0b0b0; stroke-opacity: 0.8; stroke-width: 0.5"/>
     </g>
     <g id="line2d_124">
      <g>
       <use xlink:href="#m643cb7c1f4" x="95.28125" y="259.431283" style="stroke: #000000; stroke-width: 0.6"/>
      </g>
     </g>
    </g>
    <g id="ytick_23">
     <g id="line2d_125">
      <path d="M 95.28125 246.621971 
L 764.88125 246.621971 
" clip-path="url(#p15c801e936)" style="fill: none; stroke-dasharray: 1.85,0.8; stroke-dashoffset: 0; stroke: #b0b0b0; stroke-opacity: 0.8; stroke-width: 0.5"/>
     </g>
     <g id="line2d_126">
      <g>
       <use xlink:href="#m643cb7c1f4" x="95.28125" y="246.621971" style="stroke: #000000; stroke-width: 0.6"/>
      </g>
     </g>
    </g>
    <g id="ytick_24">
     <g id="line2d_127">
      <path d="M 95.28125 221.003347 
L 764.88125 221.003347 
" clip-path="url(#p15c801e936)" style="fill: none; stroke-dasharray: 1.85,0.8; stroke-dashoffset: 0; stroke: #b0b0b0; stroke-opacity: 0.8; stroke-width: 0.5"/>
     </g>
     <g id="line2d_128">
      <g>
       <use xlink:href="#m643cb7c1f4" x="95.28125" y="221.003347" style="stroke: #000000; stroke-width: 0.6"/>
      </g>
     </g>
    </g>
    <g id="ytick_25">
     <g id="line2d_129">
      <path d="M 95.28125 208.194034 
L 764.88125 208.194034 
" clip-path="url(#p15c801e936)" style="fill: none; stroke-dasharray: 1.85,0.8; stroke-dashoffset: 0; stroke: #b0b0b0; stroke-opacity: 0.8; stroke-width: 0.5"/>
     </g>
     <g id="line2d_130">
      <g>
       <use xlink:href="#m643cb7c1f4" x="95.28125" y="208.194034" style="stroke: #000000; stroke-width: 0.6"/>
      </g>
     </g>
    </g>
    <g id="ytick_26">
     <g id="line2d_131">
      <path d="M 95.28125 195.384722 
L 764.88125 195.384722 
" clip-path="url(#p15c801e936)" style="fill: none; stroke-dasharray: 1.85,0.8; stroke-dashoffset: 0; stroke: #b0b0b0; stroke-opacity: 0.8; stroke-width: 0.5"/>
     </g>
     <g id="line2d_132">
      <g>
       <use xlink:href="#m643cb7c1f4" x="95.28125" y="195.384722" style="stroke: #000000; stroke-width: 0.6"/>
      </g>
     </g>
    </g>
    <g id="ytick_27">
     <g id="line2d_133">
      <path d="M 95.28125 182.57541 
L 764.88125 182.57541 
" clip-path="url(#p15c801e936)" style="fill: none; stroke-dasharray: 1.85,0.8; stroke-dashoffset: 0; stroke: #b0b0b0; stroke-opacity: 0.8; stroke-width: 0.5"/>
     </g>
     <g id="line2d_134">
      <g>
       <use xlink:href="#m643cb7c1f4" x="95.28125" y="182.57541" style="stroke: #000000; stroke-width: 0.6"/>
      </g>
     </g>
    </g>
    <g id="ytick_28">
     <g id="line2d_135">
      <path d="M 95.28125 156.956786 
L 764.88125 156.956786 
" clip-path="url(#p15c801e936)" style="fill: none; stroke-dasharray: 1.85,0.8; stroke-dashoffset: 0; stroke: #b0b0b0; stroke-opacity: 0.8; stroke-width: 0.5"/>
     </g>
     <g id="line2d_136">
      <g>
       <use xlink:href="#m643cb7c1f4" x="95.28125" y="156.956786" style="stroke: #000000; stroke-width: 0.6"/>
      </g>
     </g>
    </g>
    <g id="ytick_29">
     <g id="line2d_137">
      <path d="M 95.28125 144.147474 
L 764.88125 144.147474 
" clip-path="url(#p15c801e936)" style="fill: none; stroke-dasharray: 1.85,0.8; stroke-dashoffset: 0; stroke: #b0b0b0; stroke-opacity: 0.8; stroke-width: 0.5"/>
     </g>
     <g id="line2d_138">
      <g>
       <use xlink:href="#m643cb7c1f4" x="95.28125" y="144.147474" style="stroke: #000000; stroke-width: 0.6"/>
      </g>
     </g>
    </g>
    <g id="ytick_30">
     <g id="line2d_139">
      <path d="M 95.28125 131.338161 
L 764.88125 131.338161 
" clip-path="url(#p15c801e936)" style="fill: none; stroke-dasharray: 1.85,0.8; stroke-dashoffset: 0; stroke: #b0b0b0; stroke-opacity: 0.8; stroke-width: 0.5"/>
     </g>
     <g id="line2d_140">
      <g>
       <use xlink:href="#m643cb7c1f4" x="95.28125" y="131.338161" style="stroke: #000000; stroke-width: 0.6"/>
      </g>
     </g>
    </g>
    <g id="ytick_31">
     <g id="line2d_141">
      <path d="M 95.28125 118.528849 
L 764.88125 118.528849 
" clip-path="url(#p15c801e936)" style="fill: none; stroke-dasharray: 1.85,0.8; stroke-dashoffset: 0; stroke: #b0b0b0; stroke-opacity: 0.8; stroke-width: 0.5"/>
     </g>
     <g id="line2d_142">
      <g>
       <use xlink:href="#m643cb7c1f4" x="95.28125" y="118.528849" style="stroke: #000000; stroke-width: 0.6"/>
      </g>
     </g>
    </g>
    <g id="ytick_32">
     <g id="line2d_143">
      <path d="M 95.28125 92.910225 
L 764.88125 92.910225 
" clip-path="url(#p15c801e936)" style="fill: none; stroke-dasharray: 1.85,0.8; stroke-dashoffset: 0; stroke: #b0b0b0; stroke-opacity: 0.8; stroke-width: 0.5"/>
     </g>
     <g id="line2d_144">
      <g>
       <use xlink:href="#m643cb7c1f4" x="95.28125" y="92.910225" style="stroke: #000000; stroke-width: 0.6"/>
      </g>
     </g>
    </g>
    <g id="ytick_33">
     <g id="line2d_145">
      <path d="M 95.28125 80.100913 
L 764.88125 80.100913 
" clip-path="url(#p15c801e936)" style="fill: none; stroke-dasharray: 1.85,0.8; stroke-dashoffset: 0; stroke: #b0b0b0; stroke-opacity: 0.8; stroke-width: 0.5"/>
     </g>
     <g id="line2d_146">
      <g>
       <use xlink:href="#m643cb7c1f4" x="95.28125" y="80.100913" style="stroke: #000000; stroke-width: 0.6"/>
      </g>
     </g>
    </g>
    <g id="ytick_34">
     <g id="line2d_147">
      <path d="M 95.28125 67.291601 
L 764.88125 67.291601 
" clip-path="url(#p15c801e936)" style="fill: none; stroke-dasharray: 1.85,0.8; stroke-dashoffset: 0; stroke: #b0b0b0; stroke-opacity: 0.8; stroke-width: 0.5"/>
     </g>
     <g id="line2d_148">
      <g>
       <use xlink:href="#m643cb7c1f4" x="95.28125" y="67.291601" style="stroke: #000000; stroke-width: 0.6"/>
      </g>
     </g>
    </g>
    <g id="text_17">
     <!-- Light (W/m^2) -->
     <g transform="translate(49.221875 337.558125) rotate(-90) scale(0.2 -0.2)">
      <defs>
       <path id="AptosDisplay-4c" d="M 472 0 
L 472 4206 
L 1034 4206 
L 1034 484 
L 3000 484 
L 3000 0 
L 472 0 
z
" transform="scale(0.015625)"/>
       <path id="AptosDisplay-67" d="M 1397 -1178 
Q 925 -1178 640 -1065 
Q 356 -953 229 -765 
Q 103 -578 103 -359 
Q 103 -94 329 112 
Q 556 319 1031 403 
L 1128 575 
L 1475 575 
Q 2184 575 2489 376 
Q 2794 178 2794 -238 
Q 2794 -650 2437 -914 
Q 2081 -1178 1397 -1178 
z
M 1384 -800 
Q 1878 -800 2086 -650 
Q 2294 -500 2294 -278 
Q 2294 -147 2225 -51 
Q 2156 44 1975 97 
Q 1794 150 1456 150 
L 1034 150 
Q 819 97 708 -31 
Q 597 -159 597 -328 
Q 597 -516 778 -658 
Q 959 -800 1384 -800 
z
M 1025 216 
Q 722 228 550 312 
Q 378 397 306 511 
Q 234 625 234 722 
Q 234 866 362 1009 
Q 491 1153 772 1241 
L 1038 1069 
Q 866 1031 772 953 
Q 678 875 678 791 
Q 678 731 734 682 
Q 791 634 928 606 
Q 1066 578 1303 575 
L 1025 216 
z
M 1363 984 
Q 1003 984 753 1128 
Q 503 1272 375 1509 
Q 247 1747 247 2022 
Q 247 2313 376 2550 
Q 506 2788 754 2928 
Q 1003 3069 1366 3069 
Q 1738 3069 1983 2928 
Q 2228 2788 2351 2550 
Q 2475 2313 2475 2022 
Q 2475 1741 2350 1505 
Q 2225 1269 1979 1126 
Q 1734 984 1363 984 
z
M 1366 1341 
Q 1641 1341 1812 1512 
Q 1984 1684 1984 2022 
Q 1984 2375 1817 2545 
Q 1650 2716 1372 2716 
Q 1094 2716 919 2541 
Q 744 2366 744 2025 
Q 744 1681 931 1511 
Q 1119 1341 1366 1341 
z
M 2131 2734 
L 1922 2931 
Q 2038 3225 2252 3331 
Q 2466 3438 2794 3447 
L 2794 3006 
Q 2588 3006 2416 2961 
Q 2244 2916 2131 2734 
z
" transform="scale(0.015625)"/>
       <path id="AptosDisplay-68" d="M 413 0 
L 413 4206 
L 931 4206 
L 931 2575 
Q 1069 2756 1317 2914 
Q 1566 3072 1950 3072 
Q 2428 3072 2637 2783 
Q 2847 2494 2847 1963 
L 2847 0 
L 2328 0 
L 2328 1891 
Q 2328 2106 2287 2275 
Q 2247 2444 2139 2539 
Q 2031 2634 1822 2634 
Q 1503 2634 1284 2482 
Q 1066 2331 934 2156 
L 934 0 
L 413 0 
z
" transform="scale(0.015625)"/>
       <path id="AptosDisplay-74" d="M 1466 0 
Q 1100 0 901 117 
Q 703 234 629 454 
Q 556 675 556 984 
L 556 2622 
L 50 2622 
L 50 3044 
L 556 3044 
L 556 3741 
L 1078 3741 
L 1078 3044 
L 1831 3044 
L 1831 2622 
L 1078 2622 
L 1078 1009 
Q 1078 725 1151 575 
Q 1225 425 1500 425 
L 1831 425 
L 1831 0 
L 1466 0 
z
" transform="scale(0.015625)"/>
       <path id="AptosDisplay-57" d="M 1216 0 
L -13 4206 
L 575 4206 
L 1525 697 
L 2531 4206 
L 3156 4206 
L 4163 697 
L 5119 4206 
L 5681 4206 
L 4453 0 
L 3866 0 
L 2831 3556 
L 1813 0 
L 1216 0 
z
" transform="scale(0.015625)"/>
       <path id="AptosDisplay-2f" d="M 72 0 
L 1603 4206 
L 2100 4206 
L 569 0 
L 72 0 
z
" transform="scale(0.015625)"/>
       <path id="AptosDisplay-5e" d="M 428 2438 
L 1459 4206 
L 1884 4206 
L 2916 2438 
L 2366 2438 
L 1672 3650 
L 978 2438 
L 428 2438 
z
" transform="scale(0.015625)"/>
      </defs>
      <use xlink:href="#AptosDisplay-4c"/>
      <use xlink:href="#AptosDisplay-69" x="48.4375"/>
      <use xlink:href="#AptosDisplay-67" x="69.482422"/>
      <use xlink:href="#AptosDisplay-68" x="113.427734"/>
      <use xlink:href="#AptosDisplay-74" x="164.013672"/>
      <use xlink:href="#AptosDisplay-20" x="194.384766"/>
      <use xlink:href="#AptosDisplay-28" x="213.671875"/>
      <use xlink:href="#AptosDisplay-57" x="243.115234"/>
      <use xlink:href="#AptosDisplay-2f" x="331.689453"/>
      <use xlink:href="#AptosDisplay-6d" x="365.625"/>
      <use xlink:href="#AptosDisplay-5e" x="445.605469"/>
      <use xlink:href="#AptosDisplay-32" x="497.900391"/>
      <use xlink:href="#AptosDisplay-29" x="550.195312"/>
     </g>
    </g>
   </g>
   <g id="line2d_149">
    <path d="M 125.717614 140.674869 
L 126.375247 146.321214 
L 127.036185 154.227121 
L 127.697123 138.980197 
L 128.358061 157.051575 
L 129.018999 160.439638 
L 129.679937 164.957482 
L 130.340875 143.498041 
L 131.001814 173.426999 
L 131.662752 181.332907 
L 132.32369 175.686562 
L 132.984628 175.686562 
L 133.645566 176.251453 
L 134.306504 179.074625 
L 134.967442 179.074625 
L 135.62838 180.768016 
L 136.289318 184.15736 
L 136.950256 185.285861 
L 137.611194 181.897798 
L 138.272132 185.850751 
L 138.93307 186.415642 
L 140.258251 190.933486 
L 140.919189 192.626877 
L 141.580127 194.88644 
L 142.241066 199.404284 
L 142.902004 201.662566 
L 143.562942 202.227457 
L 144.884818 206.745301 
L 145.545756 210.133364 
L 146.867632 213.521427 
L 147.52857 217.474381 
L 148.189508 218.604162 
L 149.511384 221.992226 
L 150.172322 224.815398 
L 150.833261 225.380289 
L 151.494199 226.51007 
L 152.155137 228.203461 
L 152.816075 221.427335 
L 153.477013 228.768352 
L 154.137951 225.380289 
L 154.798889 225.945179 
L 155.459827 225.380289 
L 156.120765 224.250507 
L 156.781703 220.297554 
L 157.442641 215.216099 
L 158.103579 215.216099 
L 158.764517 210.133364 
L 159.425456 207.875083 
L 160.086394 203.922129 
L 160.747332 201.662566 
L 161.40827 200.532785 
L 162.069208 189.238814 
L 162.730146 187.545423 
L 163.391084 200.532785 
L 164.052022 194.88644 
L 164.71296 199.404284 
L 165.373898 193.191768 
L 166.034836 194.321549 
L 166.695774 193.756659 
L 167.356712 193.756659 
L 168.017651 191.498377 
L 168.678589 193.191768 
L 169.339527 193.191768 
L 170.000465 195.451331 
L 170.661403 183.027579 
L 171.322341 192.063268 
L 172.644217 196.579831 
L 173.305155 181.332907 
L 174.627031 197.709612 
L 175.287969 197.709612 
L 175.948907 199.969175 
L 176.609845 199.404284 
L 177.270784 206.745301 
L 177.931722 203.357238 
L 178.59266 205.050629 
L 179.253598 207.310192 
L 179.914536 207.875083 
L 180.575474 203.922129 
L 181.236412 209.568474 
L 181.89735 211.828036 
L 182.558288 213.521427 
L 183.219226 212.391646 
L 185.20204 214.086318 
L 185.862979 211.828036 
L 186.523917 213.521427 
L 187.184855 214.086318 
L 187.845793 216.90949 
L 188.506731 214.086318 
L 189.828607 211.828036 
L 190.489545 208.438692 
L 191.811421 208.438692 
L 193.133297 206.180411 
L 193.794235 202.227457 
L 194.455174 202.227457 
L 195.116112 198.839394 
L 195.77705 198.274503 
L 196.437988 196.579831 
L 197.098926 194.321549 
L 197.759864 193.191768 
L 198.420802 189.803705 
L 199.08174 188.673924 
L 199.742678 188.110314 
L 200.403616 190.933486 
L 201.064554 177.944844 
L 201.725492 188.673924 
L 202.38643 191.498377 
L 203.047369 183.027579 
L 203.708307 188.110314 
L 204.369245 190.368596 
L 205.030183 190.933486 
L 205.691121 189.803705 
L 206.352059 189.803705 
L 207.012997 186.980533 
L 207.673935 185.850751 
L 208.334873 185.285861 
L 209.656749 180.768016 
L 210.317687 179.074625 
L 210.978625 174.556781 
L 211.639564 173.426999 
L 212.300502 169.474046 
L 212.96144 170.038936 
L 213.622378 163.827701 
L 214.283316 161.568138 
L 214.944254 161.003247 
L 215.605192 158.744966 
L 216.26613 155.356903 
L 216.927068 154.227121 
L 217.588006 151.96884 
L 218.248944 157.051575 
L 218.909882 149.145667 
L 219.57082 176.816343 
L 220.892697 118.650538 
L 221.553635 203.922129 
L 222.214573 144.627823 
L 222.875511 142.933151 
L 223.536449 144.627823 
L 224.197387 140.674869 
L 225.519263 137.286806 
L 226.180201 134.462353 
L 226.841139 138.415306 
L 227.502077 140.109978 
L 228.163015 137.286806 
L 228.823953 137.850416 
L 229.484892 134.462353 
L 230.14583 137.286806 
L 231.467706 138.415306 
L 232.128644 136.157025 
L 232.789582 138.980197 
L 233.45052 137.286806 
L 234.111458 138.415306 
L 234.772396 136.721915 
L 235.433334 134.462353 
L 236.094272 136.157025 
L 236.75521 135.027243 
L 237.416148 136.157025 
L 238.077087 136.721915 
L 238.738025 134.462353 
L 239.398963 133.333852 
L 240.059901 134.462353 
L 240.720839 131.07429 
L 241.381777 132.204071 
L 242.042715 132.768962 
L 242.703653 132.204071 
L 243.364591 115.827365 
L 244.025529 133.333852 
L 244.686467 129.380899 
L 245.347405 116.392256 
L 246.008343 132.768962 
L 246.669282 132.204071 
L 247.33022 132.204071 
L 247.991158 128.816008 
L 248.652096 131.63918 
L 249.313034 129.944508 
L 249.973972 127.686227 
L 250.63491 140.109978 
L 251.295848 129.944508 
L 252.617724 129.944508 
L 253.278662 131.63918 
L 253.9396 128.816008 
L 254.600538 131.63918 
L 255.261477 133.333852 
L 255.922415 132.204071 
L 257.244291 131.07429 
L 257.905229 133.333852 
L 258.566167 132.204071 
L 259.227105 133.897462 
L 259.888043 131.63918 
L 260.548981 131.07429 
L 261.209919 132.204071 
L 261.870857 131.07429 
L 262.531795 129.380899 
L 263.192733 129.380899 
L 263.853672 129.944508 
L 265.175548 128.816008 
L 266.497424 128.816008 
L 267.158362 127.686227 
L 267.8193 129.380899 
L 268.480238 129.944508 
L 269.141176 131.63918 
L 269.802114 127.686227 
L 270.463052 132.204071 
L 271.12399 132.204071 
L 271.784928 134.462353 
L 272.445867 133.897462 
L 273.106805 137.850416 
L 273.767743 137.286806 
L 274.428681 140.674869 
L 275.089619 138.980197 
L 275.750557 140.109978 
L 276.411495 141.803369 
L 277.072433 139.545088 
L 277.733371 141.23976 
L 278.394309 139.545088 
L 279.055247 139.545088 
L 280.377123 140.674869 
L 281.038062 137.850416 
L 281.699 140.674869 
L 282.359938 140.109978 
L 283.020876 141.803369 
L 283.681814 141.23976 
L 284.342752 140.109978 
L 285.00369 138.415306 
L 285.664628 137.286806 
L 286.325566 137.850416 
L 286.986504 137.286806 
L 287.647442 134.462353 
L 288.30838 134.462353 
L 288.969318 133.897462 
L 289.630256 136.157025 
L 290.291195 135.592134 
L 291.613071 133.333852 
L 292.274009 131.63918 
L 292.934947 132.768962 
L 293.595885 131.63918 
L 294.256823 132.768962 
L 294.917761 132.768962 
L 295.578699 131.63918 
L 296.239637 129.944508 
L 296.900575 131.07429 
L 297.561513 128.251117 
L 298.222451 127.121336 
L 298.88339 128.251117 
L 299.544328 128.251117 
L 300.205266 124.298163 
L 300.866204 125.427945 
L 301.527142 124.863054 
L 302.18808 112.439302 
L 302.849018 123.733273 
L 303.509956 124.298163 
L 304.170894 124.298163 
L 304.831832 120.9101 
L 305.49277 120.34521 
L 306.814646 122.603491 
L 307.475585 119.215428 
L 308.136523 117.522037 
L 308.797461 116.392256 
L 309.458399 116.957147 
L 310.119337 115.262475 
L 310.780275 114.697584 
L 311.441213 113.004193 
L 312.102151 113.569084 
L 312.763089 106.791677 
L 313.424027 112.439302 
L 314.084965 106.791677 
L 314.745903 109.61613 
L 315.406841 109.61613 
L 316.06778 107.356567 
L 316.728718 110.74463 
L 317.389656 109.61613 
L 318.050594 110.74463 
L 318.711532 111.309521 
L 319.37247 113.569084 
L 320.033408 109.051239 
L 320.694346 111.874412 
L 321.355284 111.309521 
L 322.016222 110.17974 
L 322.67716 117.522037 
L 325.320913 109.051239 
L 325.981851 111.874412 
L 326.642789 103.403613 
L 327.303727 110.74463 
L 327.964665 111.309521 
L 328.625603 111.309521 
L 329.286541 109.051239 
L 329.947479 116.392256 
L 330.608417 114.697584 
L 331.269355 114.132693 
L 331.930293 111.309521 
L 332.591231 107.356567 
L 333.25217 113.004193 
L 333.913108 98.322159 
L 334.574046 112.439302 
L 335.234984 113.569084 
L 335.895922 103.968504 
L 336.55686 113.004193 
L 337.217798 113.569084 
L 337.878736 112.439302 
L 338.539674 112.439302 
L 339.200612 116.392256 
L 339.86155 100.01555 
L 340.522488 111.874412 
L 341.183426 111.874412 
L 341.844365 109.051239 
L 342.505303 113.004193 
L 343.166241 109.051239 
L 343.827179 122.038601 
L 344.488117 108.486349 
L 345.809993 110.74463 
L 346.470931 109.051239 
L 347.131869 110.74463 
L 348.453745 115.262475 
L 349.114683 113.004193 
L 349.775621 103.968504 
L 350.436559 115.827365 
L 351.758436 115.827365 
L 353.080312 114.697584 
L 353.74125 115.827365 
L 354.402188 101.710222 
L 355.063126 115.827365 
L 355.724064 119.780319 
L 356.385002 118.085647 
L 357.04594 115.827365 
L 357.706878 116.392256 
L 358.367816 129.380899 
L 359.028754 116.957147 
L 359.689693 115.827365 
L 360.350631 116.957147 
L 361.672507 114.697584 
L 362.333445 117.522037 
L 362.994383 118.085647 
L 363.655321 119.780319 
L 364.316259 120.9101 
L 365.638135 119.780319 
L 366.299073 120.9101 
L 366.960011 125.427945 
L 367.620949 122.038601 
L 368.281888 124.298163 
L 368.942826 124.298163 
L 369.603764 124.863054 
L 370.264702 127.121336 
L 370.92564 126.556445 
L 371.586578 128.251117 
L 372.247516 128.816008 
L 372.908454 127.121336 
L 373.569392 128.816008 
L 374.23033 127.121336 
L 374.891268 120.9101 
L 375.552206 126.556445 
L 376.213144 129.380899 
L 376.874083 126.556445 
L 377.535021 127.121336 
L 378.195959 125.991555 
L 378.856897 125.427945 
L 379.517835 129.944508 
L 380.178773 126.556445 
L 380.839711 127.686227 
L 381.500649 126.556445 
L 382.161587 124.863054 
L 382.822525 128.816008 
L 383.483463 125.991555 
L 384.144401 125.991555 
L 386.127216 127.686227 
L 386.788154 121.474991 
L 387.449092 126.556445 
L 388.11003 124.863054 
L 388.770968 127.121336 
L 389.431906 128.251117 
L 390.092844 126.556445 
L 390.753782 129.380899 
L 391.41472 122.603491 
L 392.075658 132.204071 
L 393.397534 131.07429 
L 394.058473 129.944508 
L 394.719411 132.768962 
L 396.041287 133.897462 
L 396.702225 136.721915 
L 398.024101 137.850416 
L 398.685039 140.674869 
L 399.345977 142.933151 
L 400.006915 143.498041 
L 400.667853 145.192713 
L 401.328791 147.450995 
L 401.989729 150.274168 
L 402.650667 151.96884 
L 403.311606 155.356903 
L 403.972544 154.792012 
L 404.633482 160.439638 
L 405.29442 162.133029 
L 406.616296 173.99189 
L 407.277234 174.556781 
L 407.938172 177.944844 
L 408.59911 183.59247 
L 409.260048 187.545423 
L 409.920986 188.110314 
L 411.242862 195.451331 
L 412.564739 197.709612 
L 413.225677 197.709612 
L 413.886615 198.839394 
L 414.547553 196.016221 
L 415.208491 209.003583 
L 415.869429 215.78099 
L 416.530367 199.969175 
L 417.191305 201.097676 
L 417.852243 163.827701 
L 418.513181 202.792348 
L 419.174119 206.745301 
L 419.835057 223.686898 
L 420.495996 206.180411 
L 421.156934 209.003583 
L 421.817872 210.133364 
L 422.47881 209.568474 
L 423.139748 214.651209 
L 423.800686 214.651209 
L 425.7835 223.122007 
L 426.444438 259.827091 
L 427.105376 225.945179 
L 427.766314 226.51007 
L 428.427252 229.898133 
L 429.088191 231.591524 
L 429.749129 233.851087 
L 430.410067 236.674259 
L 431.071005 242.886776 
L 431.731943 244.580167 
L 432.392881 233.286196 
L 433.714757 268.297889 
L 434.375695 262.651544 
L 435.036633 265.474717 
L 435.697571 263.215154 
L 436.358509 275.638906 
L 437.019447 278.463359 
L 437.680386 281.851422 
L 438.341324 287.497767 
L 439.002262 291.450721 
L 439.6632 293.145393 
L 440.324138 295.403674 
L 441.646014 303.874473 
L 442.306952 307.262536 
L 442.96789 311.78038 
L 443.628828 315.168443 
L 444.289766 321.38096 
L 444.950704 323.074351 
L 445.611642 327.027304 
L 446.272581 327.592195 
L 446.933519 338.321275 
L 447.594457 351.874808 
L 448.255395 346.227182 
L 448.916333 350.745027 
L 449.577271 356.392652 
L 450.238209 358.650934 
L 450.899147 364.29856 
L 451.560085 372.204467 
L 452.221023 370.509795 
L 452.881961 371.639577 
L 453.542899 374.462749 
L 454.864776 378.980594 
L 455.525714 375.02764 
L 456.186652 381.238875 
L 456.84759 389.709673 
L 457.508528 386.32161 
L 458.169466 395.92219 
L 458.830404 391.969236 
L 459.491342 390.839455 
L 460.15228 397.05069 
L 460.813218 402.133425 
L 461.474156 403.263207 
L 462.135094 404.956598 
L 462.796032 405.521488 
L 463.45697 410.039333 
L 464.117909 410.604223 
L 464.778847 412.862505 
L 465.439785 414.557177 
L 466.100723 413.427396 
L 466.761661 414.557177 
L 467.422599 417.94524 
L 468.083537 417.94524 
L 468.744475 419.639912 
L 469.405413 420.203522 
L 470.066351 420.203522 
L 470.727289 421.898194 
L 471.388227 424.721366 
L 472.049165 423.027975 
L 472.710104 429.804101 
L 473.371042 431.497493 
L 474.03198 428.109429 
L 474.692918 423.027975 
L 475.353856 424.156476 
L 476.014794 433.192165 
L 477.33667 435.450446 
L 477.997608 442.227853 
L 478.658546 437.710009 
L 479.980422 443.356354 
L 480.64136 440.533181 
L 481.302299 433.757055 
L 481.963237 437.145118 
L 483.285113 447.874198 
L 483.946051 457.474778 
L 484.606989 481.1925 
L 485.267927 458.039668 
L 485.928865 455.215215 
L 486.589803 446.745698 
L 487.250741 449.56887 
L 487.911679 449.56887 
L 488.572617 443.921244 
L 489.233555 446.745698 
L 489.894494 445.615916 
L 490.555432 440.533181 
L 491.21637 441.662963 
L 491.877308 440.533181 
L 492.538246 438.2749 
L 493.199184 437.145118 
L 493.860122 435.450446 
L 494.52106 434.886837 
L 497.164812 428.109429 
L 497.82575 428.67432 
L 498.486689 424.156476 
L 499.147627 424.721366 
L 499.808565 426.416038 
L 500.469503 422.463085 
L 501.130441 404.956598 
L 501.791379 424.156476 
L 502.452317 406.65127 
L 503.113255 415.686959 
L 503.774193 411.734005 
L 504.435131 413.427396 
L 505.096069 410.039333 
L 505.757007 411.169114 
L 506.417945 408.909551 
L 507.739822 403.263207 
L 508.40076 402.698316 
L 509.722636 395.357299 
L 510.383574 394.227518 
L 511.044512 399.875144 
L 511.70545 390.274564 
L 512.366388 386.886501 
L 513.027326 387.451392 
L 513.688264 386.32161 
L 514.349202 382.368657 
L 515.01014 384.626938 
L 515.671079 384.063329 
L 516.332017 382.933547 
L 516.992955 392.532846 
L 517.653893 384.626938 
L 518.314831 384.063329 
L 518.975769 385.75672 
L 519.636707 386.886501 
L 520.297645 387.451392 
L 520.958583 386.886501 
L 521.619521 389.709673 
L 522.280459 391.404345 
L 524.924212 395.92219 
L 525.58515 398.180472 
L 526.246088 399.310253 
L 526.907026 399.875144 
L 527.567964 397.05069 
L 528.228902 401.003644 
L 528.88984 399.875144 
L 529.550778 399.875144 
L 531.533592 406.65127 
L 532.19453 406.086379 
L 532.855468 409.474442 
L 533.516407 408.344661 
L 534.177345 410.039333 
L 534.838283 412.297615 
L 535.499221 412.862505 
L 536.160159 412.297615 
L 536.821097 412.297615 
L 537.482035 411.169114 
L 538.803911 407.781051 
L 539.464849 402.698316 
L 540.125787 399.310253 
L 540.786725 393.662627 
L 541.447663 389.709673 
L 542.108602 375.59253 
L 542.76954 372.204467 
L 543.430478 371.074686 
L 544.091416 362.038997 
L 544.752354 356.957543 
L 545.413292 350.180136 
L 546.07423 347.356964 
L 546.735168 340.015947 
L 547.396106 338.321275 
L 548.057044 332.67493 
L 548.717982 330.980258 
L 549.37892 328.157086 
L 550.039858 328.721976 
L 550.700797 329.850477 
L 551.361735 328.157086 
L 552.022673 328.157086 
L 552.683611 330.980258 
L 553.344549 332.110039 
L 554.005487 331.545149 
L 554.666425 331.545149 
L 555.327363 332.67493 
L 555.988301 332.110039 
L 557.310177 328.721976 
L 557.971115 323.639241 
L 559.292992 316.863115 
L 560.614868 301.0513 
L 561.936744 290.32222 
L 562.597682 281.851422 
L 563.25862 262.651544 
L 563.919558 280.721641 
L 564.580496 266.604498 
L 565.241434 262.086654 
L 565.902372 259.827091 
L 566.56331 244.015276 
L 567.224248 253.050965 
L 567.885187 267.168108 
L 568.546125 253.615855 
L 569.207063 246.274839 
L 569.868001 248.53312 
L 570.528939 246.274839 
L 571.189877 249.098011 
L 571.850815 246.839729 
L 572.511753 249.098011 
L 573.172691 253.615855 
L 574.494567 255.874137 
L 575.155505 258.69859 
L 575.816443 260.391982 
L 576.477381 261.521763 
L 577.13832 260.956872 
L 577.799258 263.215154 
L 578.460196 262.651544 
L 579.121134 264.344935 
L 579.782072 263.780045 
L 580.44301 251.921183 
L 581.103948 262.651544 
L 581.764886 265.474717 
L 582.425824 259.827091 
L 583.086762 272.250843 
L 583.7477 263.215154 
L 584.408638 259.827091 
L 585.069576 262.651544 
L 585.730515 263.780045 
L 586.391453 263.780045 
L 587.052391 260.391982 
L 587.713329 263.215154 
L 588.374267 263.215154 
L 589.035205 262.651544 
L 589.696143 259.827091 
L 590.357081 260.956872 
L 591.018019 263.780045 
L 591.678957 260.391982 
L 592.339895 260.956872 
L 593.000833 260.391982 
L 593.661771 255.874137 
L 594.32271 260.391982 
L 594.983648 259.2622 
L 596.305524 255.874137 
L 596.966462 255.874137 
L 597.6274 255.309246 
L 598.288338 251.356293 
L 598.949276 251.356293 
L 599.610214 257.003918 
L 600.271152 253.050965 
L 600.93209 251.356293 
L 601.593028 253.050965 
L 602.253966 253.615855 
L 602.914905 255.874137 
L 603.575843 258.69859 
L 604.236781 258.69859 
L 604.897719 260.391982 
L 605.558657 257.568809 
L 606.219595 260.956872 
L 606.880533 263.215154 
L 607.541471 260.391982 
L 608.202409 257.003918 
L 608.863347 257.568809 
L 609.524285 252.486074 
L 610.185223 250.227792 
L 610.846161 251.921183 
L 611.5071 240.062322 
L 612.168038 234.415977 
L 612.828976 226.51007 
L 613.489914 223.686898 
L 614.150852 219.733944 
L 615.472728 207.875083 
L 616.133666 205.61552 
L 616.794604 204.485739 
L 617.455542 200.532785 
L 618.11648 198.274503 
L 618.777418 176.816343 
L 619.438356 194.88644 
L 620.099295 195.451331 
L 620.760233 193.756659 
L 621.421171 189.803705 
L 623.403985 186.415642 
L 624.064923 185.850751 
L 624.725861 184.72097 
L 625.386799 181.897798 
L 626.047737 183.59247 
L 626.708675 183.59247 
L 627.369613 175.686562 
L 628.030551 184.15736 
L 628.69149 180.768016 
L 629.352428 179.074625 
L 630.013366 179.639516 
L 630.674304 180.768016 
L 631.335242 181.332907 
L 631.99618 178.509734 
L 632.657118 177.944844 
L 633.318056 176.816343 
L 633.978994 175.121671 
L 634.639932 175.686562 
L 635.30087 176.816343 
L 635.961808 176.816343 
L 636.622746 174.556781 
L 637.283684 176.816343 
L 637.944623 175.121671 
L 638.605561 172.298499 
L 639.266499 171.733608 
L 639.927437 172.86339 
L 640.59168 174.556781 
L 641.249313 172.298499 
L 641.910251 172.298499 
L 642.574494 170.038936 
L 643.235432 162.697919 
L 643.89637 166.085983 
L 644.557308 164.392591 
L 645.218246 155.921793 
L 645.879184 158.744966 
L 646.540122 163.827701 
L 647.20106 161.003247 
L 647.861998 159.874747 
L 648.522936 157.615184 
L 649.183875 159.309856 
L 649.844813 157.615184 
L 650.505751 156.486684 
L 651.827627 155.356903 
L 652.488565 151.96884 
L 653.810441 148.580777 
L 654.471379 151.96884 
L 655.132317 147.450995 
L 655.793255 145.192713 
L 657.115131 141.803369 
L 657.77607 141.23976 
L 658.437008 137.850416 
L 659.097946 138.415306 
L 659.758884 135.592134 
L 660.419822 136.157025 
L 661.08076 138.415306 
L 661.741698 132.204071 
L 662.402636 132.204071 
L 663.063574 129.944508 
L 663.724512 133.897462 
L 664.38545 132.204071 
L 665.707326 129.944508 
L 666.368265 135.027243 
L 667.029203 133.333852 
L 667.690141 132.204071 
L 668.351079 130.509399 
L 669.012017 140.674869 
L 669.672955 130.509399 
L 670.333893 135.592134 
L 670.994831 129.380899 
L 671.655769 130.509399 
L 672.316707 129.380899 
L 672.977645 133.333852 
L 673.638583 131.07429 
L 674.299521 132.768962 
L 674.96046 129.380899 
L 675.621398 128.816008 
L 676.282336 127.686227 
L 676.943274 127.121336 
L 677.604212 125.427945 
L 678.26515 127.121336 
L 678.926088 127.121336 
L 679.587026 124.863054 
L 680.247964 128.251117 
L 680.908902 122.603491 
L 681.56984 122.603491 
L 682.230778 123.733273 
L 682.891716 120.9101 
L 683.552655 123.733273 
L 684.213593 118.650538 
L 684.874531 120.34521 
L 685.535469 121.474991 
L 686.196407 131.63918 
L 686.857345 120.9101 
L 687.518283 125.991555 
L 688.179221 116.957147 
L 688.840159 119.215428 
L 689.501097 120.9101 
L 690.162035 124.298163 
L 690.822973 77.9925 
L 691.483911 120.9101 
L 692.144849 127.121336 
L 692.805788 116.392256 
L 693.466726 113.004193 
L 694.127664 110.74463 
L 694.788602 119.780319 
L 695.44954 116.392256 
L 696.110478 120.34521 
L 696.771416 119.215428 
L 697.432354 118.650538 
L 698.093292 117.522037 
L 698.75423 119.780319 
L 699.415168 116.392256 
L 700.737044 117.522037 
L 702.058921 117.522037 
L 702.719859 116.392256 
L 703.380797 118.650538 
L 704.041735 119.780319 
L 704.702673 117.522037 
L 705.363611 118.650538 
L 706.024549 116.392256 
L 707.346425 117.522037 
L 708.007363 113.569084 
L 708.668301 96.062597 
L 709.329239 115.262475 
L 709.990178 116.392256 
L 710.651116 116.392256 
L 711.312054 118.650538 
L 711.972992 114.697584 
L 712.63393 111.874412 
L 713.294868 115.262475 
L 713.955806 114.697584 
L 714.616744 110.74463 
L 715.277682 113.569084 
L 715.93862 116.957147 
L 716.599558 112.439302 
L 717.260496 113.569084 
L 718.582373 111.309521 
L 719.243311 118.650538 
L 719.904249 113.004193 
L 720.565187 113.004193 
L 721.887063 114.132693 
L 723.869877 111.874412 
L 724.530815 108.486349 
L 725.191753 111.309521 
L 725.852691 115.262475 
L 726.513629 113.004193 
L 727.174568 113.569084 
L 727.835506 116.957147 
L 728.496444 116.957147 
L 729.81832 113.569084 
L 730.479258 109.051239 
L 731.140196 107.356567 
L 731.801134 111.309521 
L 732.462072 100.01555 
L 733.12301 101.710222 
L 733.783948 105.663176 
L 734.444886 102.838723 
L 734.444886 102.838723 
" clip-path="url(#p15c801e936)" style="fill: none; stroke: #ac2b37; stroke-width: 1.5; stroke-linecap: square"/>
   </g>
   <g id="patch_3">
    <path d="M 95.28125 501.3525 
L 95.28125 57.8325 
" style="fill: none; stroke: #000000; stroke-width: 0.8; stroke-linejoin: miter; stroke-linecap: square"/>
   </g>
   <g id="patch_4">
    <path d="M 764.88125 501.3525 
L 764.88125 57.8325 
" style="fill: none; stroke: #000000; stroke-width: 0.8; stroke-linejoin: miter; stroke-linecap: square"/>
   </g>
   <g id="patch_5">
    <path d="M 95.28125 501.3525 
L 764.88125 501.3525 
" style="fill: none; stroke: #000000; stroke-width: 0.8; stroke-linejoin: miter; stroke-linecap: square"/>
   </g>
   <g id="patch_6">
    <path d="M 95.28125 57.8325 
L 764.88125 57.8325 
" style="fill: none; stroke: #000000; stroke-width: 0.8; stroke-linejoin: miter; stroke-linecap: square"/>
   </g>
   <g id="text_18">
    <!-- Light vs Time -->
    <g transform="translate(367.59875 51.8325) scale(0.24 -0.24)">
     <defs>
      <path id="AptosDisplay-76" d="M 1103 0 
L -13 3044 
L 538 3044 
L 1391 513 
L 2250 3044 
L 2781 3044 
L 1678 0 
L 1103 0 
z
" transform="scale(0.015625)"/>
      <path id="AptosDisplay-73" d="M 1506 -41 
Q 1247 -41 1017 14 
Q 788 69 613 191 
Q 438 313 339 506 
Q 241 700 241 978 
L 744 978 
Q 744 628 966 487 
Q 1188 347 1519 347 
Q 1816 347 2008 458 
Q 2200 569 2200 822 
Q 2200 1047 2026 1153 
Q 1853 1259 1413 1369 
Q 1056 1453 815 1564 
Q 575 1675 453 1845 
Q 331 2016 331 2275 
Q 331 2475 417 2626 
Q 503 2778 658 2879 
Q 813 2981 1020 3032 
Q 1228 3084 1472 3084 
Q 1713 3084 1923 3028 
Q 2134 2972 2296 2855 
Q 2459 2738 2551 2552 
Q 2644 2366 2644 2109 
L 2138 2109 
Q 2138 2425 1945 2558 
Q 1753 2691 1472 2691 
Q 1191 2691 1016 2594 
Q 841 2497 841 2291 
Q 841 2169 919 2084 
Q 997 2000 1181 1933 
Q 1366 1866 1675 1791 
Q 2019 1709 2248 1596 
Q 2478 1484 2595 1306 
Q 2713 1128 2713 847 
Q 2713 616 2622 447 
Q 2531 278 2367 170 
Q 2203 63 1983 11 
Q 1763 -41 1506 -41 
z
" transform="scale(0.015625)"/>
     </defs>
     <use xlink:href="#AptosDisplay-4c"/>
     <use xlink:href="#AptosDisplay-69" x="48.4375"/>
     <use xlink:href="#AptosDisplay-67" x="69.482422"/>
     <use xlink:href="#AptosDisplay-68" x="113.427734"/>
     <use xlink:href="#AptosDisplay-74" x="164.013672"/>
     <use xlink:href="#AptosDisplay-20" x="194.384766"/>
     <use xlink:href="#AptosDisplay-76" x="213.671875"/>
     <use xlink:href="#AptosDisplay-73" x="256.933594"/>
     <use xlink:href="#AptosDisplay-20" x="303.222656"/>
     <use xlink:href="#AptosDisplay-54" x="322.509766"/>
     <use xlink:href="#AptosDisplay-69" x="370.214844"/>
     <use xlink:href="#AptosDisplay-6d" x="391.259766"/>
     <use xlink:href="#AptosDisplay-65" x="471.240234"/>
    </g>
   </g>
  </g>
 </g>
 <defs>
  <clipPath id="p15c801e936">
   <rect x="95.28125" y="57.8325" width="669.6" height="443.52"/>
  </clipPath>
 </defs>
</svg>
