<?xml version="1.0" encoding="utf-8" standalone="no"?>
<!DOCTYPE svg PUBLIC "-//W3C//DTD SVG 1.1//EN"
  "http://www.w3.org/Graphics/SVG/1.1/DTD/svg11.dtd">
<svg xmlns:xlink="http://www.w3.org/1999/xlink" width="790.265625pt" height="581.830625pt" viewBox="0 0 790.265625 581.830625" xmlns="http://www.w3.org/2000/svg" version="1.1">
 <metadata>
  <rdf:RDF xmlns:dc="http://purl.org/dc/elements/1.1/" xmlns:cc="http://creativecommons.org/ns#" xmlns:rdf="http://www.w3.org/1999/02/22-rdf-syntax-ns#">
   <cc:Work>
    <dc:type rdf:resource="http://purl.org/dc/dcmitype/StillImage"/>
    <dc:date>2025-04-03T01:48:21.718671</dc:date>
    <dc:format>image/svg+xml</dc:format>
    <dc:creator>
     <cc:Agent>
      <dc:title>Matplotlib v3.8.2, https://matplotlib.org/</dc:title>
     </cc:Agent>
    </dc:creator>
   </cc:Work>
  </rdf:RDF>
 </metadata>
 <defs>
  <style type="text/css">*{stroke-linejoin: round; stroke-linecap: butt}</style>
 </defs>
 <g id="figure_1">
  <g id="patch_1">
   <path d="M 0 581.830625 
L 790.265625 581.830625 
L 790.265625 0 
L 0 0 
z
" style="fill: #ffffff"/>
  </g>
  <g id="axes_1">
   <g id="patch_2">
    <path d="M 84.665625 501.3525 
L 754.265625 501.3525 
L 754.265625 57.8325 
L 84.665625 57.8325 
z
" style="fill: #ffffff"/>
   </g>
   <g id="matplotlib.axis_1">
    <g id="xtick_1">
     <g id="line2d_1">
      <path d="M 114.411308 501.3525 
L 114.411308 57.8325 
" clip-path="url(#pd5d6cad5c3)" style="fill: none; stroke: #b0b0b0; stroke-opacity: 0.8; stroke-linecap: square"/>
     </g>
     <g id="line2d_2">
      <defs>
       <path id="ma231527703" d="M 0 0 
L 0 3.5 
" style="stroke: #000000; stroke-width: 0.8"/>
      </defs>
      <g>
       <use xlink:href="#ma231527703" x="114.411308" y="501.3525" style="stroke: #000000; stroke-width: 0.8"/>
      </g>
     </g>
     <g id="text_1">
      <!-- 0 -->
      <g transform="translate(109.181621 521.49625) scale(0.2 -0.2)">
       <defs>
        <path id="AptosDisplay-30" d="M 1672 -56 
Q 1291 -56 1028 105 
Q 766 266 605 552 
Q 444 838 372 1216 
Q 300 1594 300 2031 
Q 300 2475 372 2856 
Q 444 3238 605 3525 
Q 766 3813 1028 3973 
Q 1291 4134 1672 4134 
Q 2053 4134 2317 3975 
Q 2581 3816 2742 3527 
Q 2903 3238 2975 2858 
Q 3047 2478 3047 2038 
Q 3047 1597 2975 1217 
Q 2903 838 2742 552 
Q 2581 266 2318 105 
Q 2056 -56 1672 -56 
z
M 1672 409 
Q 1916 409 2073 550 
Q 2231 691 2322 925 
Q 2413 1159 2448 1448 
Q 2484 1738 2484 2038 
Q 2484 2338 2448 2628 
Q 2413 2919 2322 3153 
Q 2231 3388 2073 3527 
Q 1916 3666 1669 3666 
Q 1428 3666 1268 3527 
Q 1109 3388 1020 3153 
Q 931 2919 893 2628 
Q 856 2338 856 2038 
Q 856 1741 893 1450 
Q 931 1159 1020 925 
Q 1109 691 1268 550 
Q 1428 409 1672 409 
z
" transform="scale(0.015625)"/>
       </defs>
       <use xlink:href="#AptosDisplay-30"/>
      </g>
     </g>
    </g>
    <g id="xtick_2">
     <g id="line2d_3">
      <path d="M 197.028568 501.3525 
L 197.028568 57.8325 
" clip-path="url(#pd5d6cad5c3)" style="fill: none; stroke: #b0b0b0; stroke-opacity: 0.8; stroke-linecap: square"/>
     </g>
     <g id="line2d_4">
      <g>
       <use xlink:href="#ma231527703" x="197.028568" y="501.3525" style="stroke: #000000; stroke-width: 0.8"/>
      </g>
     </g>
     <g id="text_2">
      <!-- 25 -->
      <g transform="translate(186.569193 521.49625) scale(0.2 -0.2)">
       <defs>
        <path id="AptosDisplay-32" d="M 247 0 
L 247 413 
L 1725 1741 
Q 2100 2081 2269 2351 
Q 2438 2622 2438 2938 
Q 2438 3256 2263 3461 
Q 2088 3666 1691 3666 
Q 1247 3666 1055 3439 
Q 863 3213 863 2869 
L 341 2869 
Q 341 3250 491 3534 
Q 641 3819 941 3975 
Q 1241 4131 1691 4131 
Q 2103 4131 2390 3986 
Q 2678 3841 2828 3578 
Q 2978 3316 2978 2959 
Q 2978 2638 2853 2375 
Q 2728 2113 2517 1883 
Q 2306 1653 2044 1425 
L 959 463 
L 3097 463 
L 3097 0 
L 247 0 
z
" transform="scale(0.015625)"/>
        <path id="AptosDisplay-35" d="M 1669 -56 
Q 1278 -56 964 83 
Q 650 222 465 483 
Q 281 744 281 1113 
L 816 1113 
Q 816 778 1055 584 
Q 1294 391 1669 391 
Q 2069 391 2291 625 
Q 2513 859 2513 1319 
Q 2513 1772 2291 1989 
Q 2069 2206 1697 2206 
Q 1409 2206 1223 2123 
Q 1038 2041 916 1894 
L 444 1894 
L 622 4078 
L 2788 4078 
L 2788 3613 
L 1041 3613 
L 931 2322 
Q 1044 2453 1251 2550 
Q 1459 2647 1775 2647 
Q 2131 2647 2420 2506 
Q 2709 2366 2881 2072 
Q 3053 1778 3053 1319 
Q 3053 863 2875 558 
Q 2697 253 2384 98 
Q 2072 -56 1669 -56 
z
" transform="scale(0.015625)"/>
       </defs>
       <use xlink:href="#AptosDisplay-32"/>
       <use xlink:href="#AptosDisplay-35" x="52.294922"/>
      </g>
     </g>
    </g>
    <g id="xtick_3">
     <g id="line2d_5">
      <path d="M 279.645827 501.3525 
L 279.645827 57.8325 
" clip-path="url(#pd5d6cad5c3)" style="fill: none; stroke: #b0b0b0; stroke-opacity: 0.8; stroke-linecap: square"/>
     </g>
     <g id="line2d_6">
      <g>
       <use xlink:href="#ma231527703" x="279.645827" y="501.3525" style="stroke: #000000; stroke-width: 0.8"/>
      </g>
     </g>
     <g id="text_3">
      <!-- 50 -->
      <g transform="translate(269.186452 521.49625) scale(0.2 -0.2)">
       <use xlink:href="#AptosDisplay-35"/>
       <use xlink:href="#AptosDisplay-30" x="52.294922"/>
      </g>
     </g>
    </g>
    <g id="xtick_4">
     <g id="line2d_7">
      <path d="M 362.263087 501.3525 
L 362.263087 57.8325 
" clip-path="url(#pd5d6cad5c3)" style="fill: none; stroke: #b0b0b0; stroke-opacity: 0.8; stroke-linecap: square"/>
     </g>
     <g id="line2d_8">
      <g>
       <use xlink:href="#ma231527703" x="362.263087" y="501.3525" style="stroke: #000000; stroke-width: 0.8"/>
      </g>
     </g>
     <g id="text_4">
      <!-- 75 -->
      <g transform="translate(351.803712 521.49625) scale(0.2 -0.2)">
       <defs>
        <path id="AptosDisplay-37" d="M 766 0 
L 2609 3600 
L 194 3600 
L 194 4078 
L 3141 4078 
L 3141 3622 
L 1334 0 
L 766 0 
z
" transform="scale(0.015625)"/>
       </defs>
       <use xlink:href="#AptosDisplay-37"/>
       <use xlink:href="#AptosDisplay-35" x="52.294922"/>
      </g>
     </g>
    </g>
    <g id="xtick_5">
     <g id="line2d_9">
      <path d="M 444.880346 501.3525 
L 444.880346 57.8325 
" clip-path="url(#pd5d6cad5c3)" style="fill: none; stroke: #b0b0b0; stroke-opacity: 0.8; stroke-linecap: square"/>
     </g>
     <g id="line2d_10">
      <g>
       <use xlink:href="#ma231527703" x="444.880346" y="501.3525" style="stroke: #000000; stroke-width: 0.8"/>
      </g>
     </g>
     <g id="text_5">
      <!-- 100 -->
      <g transform="translate(429.191284 521.49625) scale(0.2 -0.2)">
       <defs>
        <path id="AptosDisplay-31" d="M 1659 0 
L 1659 3425 
Q 1575 3309 1420 3201 
Q 1266 3094 1052 3009 
Q 838 2925 578 2888 
L 578 3381 
Q 834 3425 1057 3540 
Q 1281 3656 1453 3806 
Q 1625 3956 1719 4094 
L 2206 4094 
L 2206 0 
L 1659 0 
z
" transform="scale(0.015625)"/>
       </defs>
       <use xlink:href="#AptosDisplay-31"/>
       <use xlink:href="#AptosDisplay-30" x="52.294922"/>
       <use xlink:href="#AptosDisplay-30" x="104.589844"/>
      </g>
     </g>
    </g>
    <g id="xtick_6">
     <g id="line2d_11">
      <path d="M 527.497606 501.3525 
L 527.497606 57.8325 
" clip-path="url(#pd5d6cad5c3)" style="fill: none; stroke: #b0b0b0; stroke-opacity: 0.8; stroke-linecap: square"/>
     </g>
     <g id="line2d_12">
      <g>
       <use xlink:href="#ma231527703" x="527.497606" y="501.3525" style="stroke: #000000; stroke-width: 0.8"/>
      </g>
     </g>
     <g id="text_6">
      <!-- 125 -->
      <g transform="translate(511.808543 521.49625) scale(0.2 -0.2)">
       <use xlink:href="#AptosDisplay-31"/>
       <use xlink:href="#AptosDisplay-32" x="52.294922"/>
       <use xlink:href="#AptosDisplay-35" x="104.589844"/>
      </g>
     </g>
    </g>
    <g id="xtick_7">
     <g id="line2d_13">
      <path d="M 610.114865 501.3525 
L 610.114865 57.8325 
" clip-path="url(#pd5d6cad5c3)" style="fill: none; stroke: #b0b0b0; stroke-opacity: 0.8; stroke-linecap: square"/>
     </g>
     <g id="line2d_14">
      <g>
       <use xlink:href="#ma231527703" x="610.114865" y="501.3525" style="stroke: #000000; stroke-width: 0.8"/>
      </g>
     </g>
     <g id="text_7">
      <!-- 150 -->
      <g transform="translate(594.425803 521.49625) scale(0.2 -0.2)">
       <use xlink:href="#AptosDisplay-31"/>
       <use xlink:href="#AptosDisplay-35" x="52.294922"/>
       <use xlink:href="#AptosDisplay-30" x="104.589844"/>
      </g>
     </g>
    </g>
    <g id="xtick_8">
     <g id="line2d_15">
      <path d="M 692.732125 501.3525 
L 692.732125 57.8325 
" clip-path="url(#pd5d6cad5c3)" style="fill: none; stroke: #b0b0b0; stroke-opacity: 0.8; stroke-linecap: square"/>
     </g>
     <g id="line2d_16">
      <g>
       <use xlink:href="#ma231527703" x="692.732125" y="501.3525" style="stroke: #000000; stroke-width: 0.8"/>
      </g>
     </g>
     <g id="text_8">
      <!-- 175 -->
      <g transform="translate(677.043062 521.49625) scale(0.2 -0.2)">
       <use xlink:href="#AptosDisplay-31"/>
       <use xlink:href="#AptosDisplay-37" x="52.294922"/>
       <use xlink:href="#AptosDisplay-35" x="104.589844"/>
      </g>
     </g>
    </g>
    <g id="xtick_9">
     <g id="line2d_17">
      <path d="M 97.887856 501.3525 
L 97.887856 57.8325 
" clip-path="url(#pd5d6cad5c3)" style="fill: none; stroke-dasharray: 1.85,0.8; stroke-dashoffset: 0; stroke: #b0b0b0; stroke-opacity: 0.8; stroke-width: 0.5"/>
     </g>
     <g id="line2d_18">
      <defs>
       <path id="mfc2270703b" d="M 0 0 
L 0 2 
" style="stroke: #000000; stroke-width: 0.6"/>
      </defs>
      <g>
       <use xlink:href="#mfc2270703b" x="97.887856" y="501.3525" style="stroke: #000000; stroke-width: 0.6"/>
      </g>
     </g>
    </g>
    <g id="xtick_10">
     <g id="line2d_19">
      <path d="M 130.93476 501.3525 
L 130.93476 57.8325 
" clip-path="url(#pd5d6cad5c3)" style="fill: none; stroke-dasharray: 1.85,0.8; stroke-dashoffset: 0; stroke: #b0b0b0; stroke-opacity: 0.8; stroke-width: 0.5"/>
     </g>
     <g id="line2d_20">
      <g>
       <use xlink:href="#mfc2270703b" x="130.93476" y="501.3525" style="stroke: #000000; stroke-width: 0.6"/>
      </g>
     </g>
    </g>
    <g id="xtick_11">
     <g id="line2d_21">
      <path d="M 147.458212 501.3525 
L 147.458212 57.8325 
" clip-path="url(#pd5d6cad5c3)" style="fill: none; stroke-dasharray: 1.85,0.8; stroke-dashoffset: 0; stroke: #b0b0b0; stroke-opacity: 0.8; stroke-width: 0.5"/>
     </g>
     <g id="line2d_22">
      <g>
       <use xlink:href="#mfc2270703b" x="147.458212" y="501.3525" style="stroke: #000000; stroke-width: 0.6"/>
      </g>
     </g>
    </g>
    <g id="xtick_12">
     <g id="line2d_23">
      <path d="M 163.981664 501.3525 
L 163.981664 57.8325 
" clip-path="url(#pd5d6cad5c3)" style="fill: none; stroke-dasharray: 1.85,0.8; stroke-dashoffset: 0; stroke: #b0b0b0; stroke-opacity: 0.8; stroke-width: 0.5"/>
     </g>
     <g id="line2d_24">
      <g>
       <use xlink:href="#mfc2270703b" x="163.981664" y="501.3525" style="stroke: #000000; stroke-width: 0.6"/>
      </g>
     </g>
    </g>
    <g id="xtick_13">
     <g id="line2d_25">
      <path d="M 180.505116 501.3525 
L 180.505116 57.8325 
" clip-path="url(#pd5d6cad5c3)" style="fill: none; stroke-dasharray: 1.85,0.8; stroke-dashoffset: 0; stroke: #b0b0b0; stroke-opacity: 0.8; stroke-width: 0.5"/>
     </g>
     <g id="line2d_26">
      <g>
       <use xlink:href="#mfc2270703b" x="180.505116" y="501.3525" style="stroke: #000000; stroke-width: 0.6"/>
      </g>
     </g>
    </g>
    <g id="xtick_14">
     <g id="line2d_27">
      <path d="M 213.55202 501.3525 
L 213.55202 57.8325 
" clip-path="url(#pd5d6cad5c3)" style="fill: none; stroke-dasharray: 1.85,0.8; stroke-dashoffset: 0; stroke: #b0b0b0; stroke-opacity: 0.8; stroke-width: 0.5"/>
     </g>
     <g id="line2d_28">
      <g>
       <use xlink:href="#mfc2270703b" x="213.55202" y="501.3525" style="stroke: #000000; stroke-width: 0.6"/>
      </g>
     </g>
    </g>
    <g id="xtick_15">
     <g id="line2d_29">
      <path d="M 230.075472 501.3525 
L 230.075472 57.8325 
" clip-path="url(#pd5d6cad5c3)" style="fill: none; stroke-dasharray: 1.85,0.8; stroke-dashoffset: 0; stroke: #b0b0b0; stroke-opacity: 0.8; stroke-width: 0.5"/>
     </g>
     <g id="line2d_30">
      <g>
       <use xlink:href="#mfc2270703b" x="230.075472" y="501.3525" style="stroke: #000000; stroke-width: 0.6"/>
      </g>
     </g>
    </g>
    <g id="xtick_16">
     <g id="line2d_31">
      <path d="M 246.598924 501.3525 
L 246.598924 57.8325 
" clip-path="url(#pd5d6cad5c3)" style="fill: none; stroke-dasharray: 1.85,0.8; stroke-dashoffset: 0; stroke: #b0b0b0; stroke-opacity: 0.8; stroke-width: 0.5"/>
     </g>
     <g id="line2d_32">
      <g>
       <use xlink:href="#mfc2270703b" x="246.598924" y="501.3525" style="stroke: #000000; stroke-width: 0.6"/>
      </g>
     </g>
    </g>
    <g id="xtick_17">
     <g id="line2d_33">
      <path d="M 263.122375 501.3525 
L 263.122375 57.8325 
" clip-path="url(#pd5d6cad5c3)" style="fill: none; stroke-dasharray: 1.85,0.8; stroke-dashoffset: 0; stroke: #b0b0b0; stroke-opacity: 0.8; stroke-width: 0.5"/>
     </g>
     <g id="line2d_34">
      <g>
       <use xlink:href="#mfc2270703b" x="263.122375" y="501.3525" style="stroke: #000000; stroke-width: 0.6"/>
      </g>
     </g>
    </g>
    <g id="xtick_18">
     <g id="line2d_35">
      <path d="M 296.169279 501.3525 
L 296.169279 57.8325 
" clip-path="url(#pd5d6cad5c3)" style="fill: none; stroke-dasharray: 1.85,0.8; stroke-dashoffset: 0; stroke: #b0b0b0; stroke-opacity: 0.8; stroke-width: 0.5"/>
     </g>
     <g id="line2d_36">
      <g>
       <use xlink:href="#mfc2270703b" x="296.169279" y="501.3525" style="stroke: #000000; stroke-width: 0.6"/>
      </g>
     </g>
    </g>
    <g id="xtick_19">
     <g id="line2d_37">
      <path d="M 312.692731 501.3525 
L 312.692731 57.8325 
" clip-path="url(#pd5d6cad5c3)" style="fill: none; stroke-dasharray: 1.85,0.8; stroke-dashoffset: 0; stroke: #b0b0b0; stroke-opacity: 0.8; stroke-width: 0.5"/>
     </g>
     <g id="line2d_38">
      <g>
       <use xlink:href="#mfc2270703b" x="312.692731" y="501.3525" style="stroke: #000000; stroke-width: 0.6"/>
      </g>
     </g>
    </g>
    <g id="xtick_20">
     <g id="line2d_39">
      <path d="M 329.216183 501.3525 
L 329.216183 57.8325 
" clip-path="url(#pd5d6cad5c3)" style="fill: none; stroke-dasharray: 1.85,0.8; stroke-dashoffset: 0; stroke: #b0b0b0; stroke-opacity: 0.8; stroke-width: 0.5"/>
     </g>
     <g id="line2d_40">
      <g>
       <use xlink:href="#mfc2270703b" x="329.216183" y="501.3525" style="stroke: #000000; stroke-width: 0.6"/>
      </g>
     </g>
    </g>
    <g id="xtick_21">
     <g id="line2d_41">
      <path d="M 345.739635 501.3525 
L 345.739635 57.8325 
" clip-path="url(#pd5d6cad5c3)" style="fill: none; stroke-dasharray: 1.85,0.8; stroke-dashoffset: 0; stroke: #b0b0b0; stroke-opacity: 0.8; stroke-width: 0.5"/>
     </g>
     <g id="line2d_42">
      <g>
       <use xlink:href="#mfc2270703b" x="345.739635" y="501.3525" style="stroke: #000000; stroke-width: 0.6"/>
      </g>
     </g>
    </g>
    <g id="xtick_22">
     <g id="line2d_43">
      <path d="M 378.786539 501.3525 
L 378.786539 57.8325 
" clip-path="url(#pd5d6cad5c3)" style="fill: none; stroke-dasharray: 1.85,0.8; stroke-dashoffset: 0; stroke: #b0b0b0; stroke-opacity: 0.8; stroke-width: 0.5"/>
     </g>
     <g id="line2d_44">
      <g>
       <use xlink:href="#mfc2270703b" x="378.786539" y="501.3525" style="stroke: #000000; stroke-width: 0.6"/>
      </g>
     </g>
    </g>
    <g id="xtick_23">
     <g id="line2d_45">
      <path d="M 395.309991 501.3525 
L 395.309991 57.8325 
" clip-path="url(#pd5d6cad5c3)" style="fill: none; stroke-dasharray: 1.85,0.8; stroke-dashoffset: 0; stroke: #b0b0b0; stroke-opacity: 0.8; stroke-width: 0.5"/>
     </g>
     <g id="line2d_46">
      <g>
       <use xlink:href="#mfc2270703b" x="395.309991" y="501.3525" style="stroke: #000000; stroke-width: 0.6"/>
      </g>
     </g>
    </g>
    <g id="xtick_24">
     <g id="line2d_47">
      <path d="M 411.833443 501.3525 
L 411.833443 57.8325 
" clip-path="url(#pd5d6cad5c3)" style="fill: none; stroke-dasharray: 1.85,0.8; stroke-dashoffset: 0; stroke: #b0b0b0; stroke-opacity: 0.8; stroke-width: 0.5"/>
     </g>
     <g id="line2d_48">
      <g>
       <use xlink:href="#mfc2270703b" x="411.833443" y="501.3525" style="stroke: #000000; stroke-width: 0.6"/>
      </g>
     </g>
    </g>
    <g id="xtick_25">
     <g id="line2d_49">
      <path d="M 428.356894 501.3525 
L 428.356894 57.8325 
" clip-path="url(#pd5d6cad5c3)" style="fill: none; stroke-dasharray: 1.85,0.8; stroke-dashoffset: 0; stroke: #b0b0b0; stroke-opacity: 0.8; stroke-width: 0.5"/>
     </g>
     <g id="line2d_50">
      <g>
       <use xlink:href="#mfc2270703b" x="428.356894" y="501.3525" style="stroke: #000000; stroke-width: 0.6"/>
      </g>
     </g>
    </g>
    <g id="xtick_26">
     <g id="line2d_51">
      <path d="M 461.403798 501.3525 
L 461.403798 57.8325 
" clip-path="url(#pd5d6cad5c3)" style="fill: none; stroke-dasharray: 1.85,0.8; stroke-dashoffset: 0; stroke: #b0b0b0; stroke-opacity: 0.8; stroke-width: 0.5"/>
     </g>
     <g id="line2d_52">
      <g>
       <use xlink:href="#mfc2270703b" x="461.403798" y="501.3525" style="stroke: #000000; stroke-width: 0.6"/>
      </g>
     </g>
    </g>
    <g id="xtick_27">
     <g id="line2d_53">
      <path d="M 477.92725 501.3525 
L 477.92725 57.8325 
" clip-path="url(#pd5d6cad5c3)" style="fill: none; stroke-dasharray: 1.85,0.8; stroke-dashoffset: 0; stroke: #b0b0b0; stroke-opacity: 0.8; stroke-width: 0.5"/>
     </g>
     <g id="line2d_54">
      <g>
       <use xlink:href="#mfc2270703b" x="477.92725" y="501.3525" style="stroke: #000000; stroke-width: 0.6"/>
      </g>
     </g>
    </g>
    <g id="xtick_28">
     <g id="line2d_55">
      <path d="M 494.450702 501.3525 
L 494.450702 57.8325 
" clip-path="url(#pd5d6cad5c3)" style="fill: none; stroke-dasharray: 1.85,0.8; stroke-dashoffset: 0; stroke: #b0b0b0; stroke-opacity: 0.8; stroke-width: 0.5"/>
     </g>
     <g id="line2d_56">
      <g>
       <use xlink:href="#mfc2270703b" x="494.450702" y="501.3525" style="stroke: #000000; stroke-width: 0.6"/>
      </g>
     </g>
    </g>
    <g id="xtick_29">
     <g id="line2d_57">
      <path d="M 510.974154 501.3525 
L 510.974154 57.8325 
" clip-path="url(#pd5d6cad5c3)" style="fill: none; stroke-dasharray: 1.85,0.8; stroke-dashoffset: 0; stroke: #b0b0b0; stroke-opacity: 0.8; stroke-width: 0.5"/>
     </g>
     <g id="line2d_58">
      <g>
       <use xlink:href="#mfc2270703b" x="510.974154" y="501.3525" style="stroke: #000000; stroke-width: 0.6"/>
      </g>
     </g>
    </g>
    <g id="xtick_30">
     <g id="line2d_59">
      <path d="M 544.021058 501.3525 
L 544.021058 57.8325 
" clip-path="url(#pd5d6cad5c3)" style="fill: none; stroke-dasharray: 1.85,0.8; stroke-dashoffset: 0; stroke: #b0b0b0; stroke-opacity: 0.8; stroke-width: 0.5"/>
     </g>
     <g id="line2d_60">
      <g>
       <use xlink:href="#mfc2270703b" x="544.021058" y="501.3525" style="stroke: #000000; stroke-width: 0.6"/>
      </g>
     </g>
    </g>
    <g id="xtick_31">
     <g id="line2d_61">
      <path d="M 560.54451 501.3525 
L 560.54451 57.8325 
" clip-path="url(#pd5d6cad5c3)" style="fill: none; stroke-dasharray: 1.85,0.8; stroke-dashoffset: 0; stroke: #b0b0b0; stroke-opacity: 0.8; stroke-width: 0.5"/>
     </g>
     <g id="line2d_62">
      <g>
       <use xlink:href="#mfc2270703b" x="560.54451" y="501.3525" style="stroke: #000000; stroke-width: 0.6"/>
      </g>
     </g>
    </g>
    <g id="xtick_32">
     <g id="line2d_63">
      <path d="M 577.067962 501.3525 
L 577.067962 57.8325 
" clip-path="url(#pd5d6cad5c3)" style="fill: none; stroke-dasharray: 1.85,0.8; stroke-dashoffset: 0; stroke: #b0b0b0; stroke-opacity: 0.8; stroke-width: 0.5"/>
     </g>
     <g id="line2d_64">
      <g>
       <use xlink:href="#mfc2270703b" x="577.067962" y="501.3525" style="stroke: #000000; stroke-width: 0.6"/>
      </g>
     </g>
    </g>
    <g id="xtick_33">
     <g id="line2d_65">
      <path d="M 593.591413 501.3525 
L 593.591413 57.8325 
" clip-path="url(#pd5d6cad5c3)" style="fill: none; stroke-dasharray: 1.85,0.8; stroke-dashoffset: 0; stroke: #b0b0b0; stroke-opacity: 0.8; stroke-width: 0.5"/>
     </g>
     <g id="line2d_66">
      <g>
       <use xlink:href="#mfc2270703b" x="593.591413" y="501.3525" style="stroke: #000000; stroke-width: 0.6"/>
      </g>
     </g>
    </g>
    <g id="xtick_34">
     <g id="line2d_67">
      <path d="M 626.638317 501.3525 
L 626.638317 57.8325 
" clip-path="url(#pd5d6cad5c3)" style="fill: none; stroke-dasharray: 1.85,0.8; stroke-dashoffset: 0; stroke: #b0b0b0; stroke-opacity: 0.8; stroke-width: 0.5"/>
     </g>
     <g id="line2d_68">
      <g>
       <use xlink:href="#mfc2270703b" x="626.638317" y="501.3525" style="stroke: #000000; stroke-width: 0.6"/>
      </g>
     </g>
    </g>
    <g id="xtick_35">
     <g id="line2d_69">
      <path d="M 643.161769 501.3525 
L 643.161769 57.8325 
" clip-path="url(#pd5d6cad5c3)" style="fill: none; stroke-dasharray: 1.85,0.8; stroke-dashoffset: 0; stroke: #b0b0b0; stroke-opacity: 0.8; stroke-width: 0.5"/>
     </g>
     <g id="line2d_70">
      <g>
       <use xlink:href="#mfc2270703b" x="643.161769" y="501.3525" style="stroke: #000000; stroke-width: 0.6"/>
      </g>
     </g>
    </g>
    <g id="xtick_36">
     <g id="line2d_71">
      <path d="M 659.685221 501.3525 
L 659.685221 57.8325 
" clip-path="url(#pd5d6cad5c3)" style="fill: none; stroke-dasharray: 1.85,0.8; stroke-dashoffset: 0; stroke: #b0b0b0; stroke-opacity: 0.8; stroke-width: 0.5"/>
     </g>
     <g id="line2d_72">
      <g>
       <use xlink:href="#mfc2270703b" x="659.685221" y="501.3525" style="stroke: #000000; stroke-width: 0.6"/>
      </g>
     </g>
    </g>
    <g id="xtick_37">
     <g id="line2d_73">
      <path d="M 676.208673 501.3525 
L 676.208673 57.8325 
" clip-path="url(#pd5d6cad5c3)" style="fill: none; stroke-dasharray: 1.85,0.8; stroke-dashoffset: 0; stroke: #b0b0b0; stroke-opacity: 0.8; stroke-width: 0.5"/>
     </g>
     <g id="line2d_74">
      <g>
       <use xlink:href="#mfc2270703b" x="676.208673" y="501.3525" style="stroke: #000000; stroke-width: 0.6"/>
      </g>
     </g>
    </g>
    <g id="xtick_38">
     <g id="line2d_75">
      <path d="M 709.255577 501.3525 
L 709.255577 57.8325 
" clip-path="url(#pd5d6cad5c3)" style="fill: none; stroke-dasharray: 1.85,0.8; stroke-dashoffset: 0; stroke: #b0b0b0; stroke-opacity: 0.8; stroke-width: 0.5"/>
     </g>
     <g id="line2d_76">
      <g>
       <use xlink:href="#mfc2270703b" x="709.255577" y="501.3525" style="stroke: #000000; stroke-width: 0.6"/>
      </g>
     </g>
    </g>
    <g id="xtick_39">
     <g id="line2d_77">
      <path d="M 725.779029 501.3525 
L 725.779029 57.8325 
" clip-path="url(#pd5d6cad5c3)" style="fill: none; stroke-dasharray: 1.85,0.8; stroke-dashoffset: 0; stroke: #b0b0b0; stroke-opacity: 0.8; stroke-width: 0.5"/>
     </g>
     <g id="line2d_78">
      <g>
       <use xlink:href="#mfc2270703b" x="725.779029" y="501.3525" style="stroke: #000000; stroke-width: 0.6"/>
      </g>
     </g>
    </g>
    <g id="xtick_40">
     <g id="line2d_79">
      <path d="M 742.302481 501.3525 
L 742.302481 57.8325 
" clip-path="url(#pd5d6cad5c3)" style="fill: none; stroke-dasharray: 1.85,0.8; stroke-dashoffset: 0; stroke: #b0b0b0; stroke-opacity: 0.8; stroke-width: 0.5"/>
     </g>
     <g id="line2d_80">
      <g>
       <use xlink:href="#mfc2270703b" x="742.302481" y="501.3525" style="stroke: #000000; stroke-width: 0.6"/>
      </g>
     </g>
    </g>
    <g id="text_9">
     <!-- Time (S) -->
     <g transform="translate(386.375 542.305625) scale(0.2 -0.2)">
      <defs>
       <path id="AptosDisplay-54" d="M 1244 0 
L 1244 3734 
L 50 3734 
L 50 4206 
L 2997 4206 
L 2997 3734 
L 1806 3734 
L 1806 0 
L 1244 0 
z
" transform="scale(0.015625)"/>
       <path id="AptosDisplay-69" d="M 413 0 
L 413 3044 
L 934 3044 
L 934 0 
L 413 0 
z
M 675 3616 
Q 525 3616 437 3702 
Q 350 3788 350 3919 
Q 350 4050 437 4136 
Q 525 4222 675 4222 
Q 822 4222 912 4136 
Q 1003 4050 1003 3919 
Q 1003 3788 912 3702 
Q 822 3616 675 3616 
z
" transform="scale(0.015625)"/>
       <path id="AptosDisplay-6d" d="M 413 0 
L 413 3044 
L 919 3044 
L 931 2575 
Q 1063 2756 1303 2914 
Q 1544 3072 1903 3072 
Q 2403 3072 2618 2778 
Q 2834 2484 2834 1963 
L 2834 0 
L 2316 0 
L 2316 1891 
Q 2316 2106 2275 2275 
Q 2234 2444 2120 2539 
Q 2006 2634 1788 2634 
Q 1488 2634 1277 2482 
Q 1066 2331 934 2156 
L 934 0 
L 413 0 
z
M 4206 0 
L 4206 1891 
Q 4206 2106 4164 2275 
Q 4122 2444 4009 2539 
Q 3897 2634 3681 2634 
Q 3381 2634 3165 2484 
Q 2950 2334 2822 2159 
L 2744 2544 
Q 2916 2741 3175 2906 
Q 3434 3072 3800 3072 
Q 4291 3072 4509 2778 
Q 4728 2484 4728 1963 
L 4728 0 
L 4206 0 
z
" transform="scale(0.015625)"/>
       <path id="AptosDisplay-65" d="M 1663 -56 
Q 1188 -56 878 151 
Q 569 359 417 717 
Q 266 1075 266 1522 
Q 266 1988 412 2342 
Q 559 2697 857 2897 
Q 1156 3097 1606 3097 
Q 2209 3097 2550 2722 
Q 2891 2347 2891 1644 
Q 2891 1597 2889 1533 
Q 2888 1469 2881 1441 
L 791 1441 
Q 794 1144 881 895 
Q 969 647 1161 497 
Q 1353 347 1663 347 
Q 1997 347 2183 511 
Q 2369 675 2378 984 
L 2894 984 
Q 2884 663 2732 430 
Q 2581 197 2309 70 
Q 2038 -56 1663 -56 
z
M 794 1822 
L 2375 1822 
Q 2366 2247 2166 2472 
Q 1966 2697 1606 2697 
Q 1241 2697 1036 2473 
Q 831 2250 794 1822 
z
" transform="scale(0.015625)"/>
       <path id="AptosDisplay-20" transform="scale(0.015625)"/>
       <path id="AptosDisplay-28" d="M 1219 -1116 
Q 969 -678 787 -267 
Q 606 144 511 581 
Q 416 1019 416 1528 
Q 416 2028 509 2486 
Q 603 2944 783 3378 
Q 963 3813 1219 4231 
L 1647 4231 
Q 1278 3600 1101 2886 
Q 925 2172 925 1428 
Q 925 766 1125 103 
Q 1325 -559 1647 -1116 
L 1219 -1116 
z
" transform="scale(0.015625)"/>
       <path id="AptosDisplay-53" d="M 1778 -56 
Q 1328 -56 962 81 
Q 597 219 384 512 
Q 172 806 172 1275 
L 734 1275 
Q 738 941 883 750 
Q 1028 559 1267 481 
Q 1506 403 1794 403 
Q 2063 403 2283 483 
Q 2503 563 2634 723 
Q 2766 884 2766 1134 
Q 2766 1356 2662 1497 
Q 2559 1638 2321 1742 
Q 2084 1847 1678 1950 
Q 1203 2075 897 2223 
Q 591 2372 442 2594 
Q 294 2816 294 3156 
Q 294 3516 462 3761 
Q 631 4006 945 4134 
Q 1259 4263 1697 4263 
Q 2103 4263 2440 4131 
Q 2778 4000 2979 3737 
Q 3181 3475 3181 3084 
L 2616 3084 
Q 2622 3441 2356 3623 
Q 2091 3806 1700 3806 
Q 1300 3806 1073 3645 
Q 847 3484 847 3175 
Q 847 2991 944 2867 
Q 1041 2744 1280 2644 
Q 1519 2544 1941 2434 
Q 2428 2303 2731 2153 
Q 3034 2003 3178 1768 
Q 3322 1534 3322 1153 
Q 3322 747 3117 480 
Q 2913 213 2564 78 
Q 2216 -56 1778 -56 
z
" transform="scale(0.015625)"/>
       <path id="AptosDisplay-29" d="M 234 -1116 
Q 609 -481 786 233 
Q 963 947 963 1694 
Q 963 2356 759 3015 
Q 556 3675 234 4231 
L 663 4231 
Q 919 3800 1098 3389 
Q 1278 2978 1373 2540 
Q 1469 2103 1469 1594 
Q 1469 1094 1375 634 
Q 1281 175 1100 -259 
Q 919 -694 663 -1116 
L 234 -1116 
z
" transform="scale(0.015625)"/>
      </defs>
      <use xlink:href="#AptosDisplay-54"/>
      <use xlink:href="#AptosDisplay-69" x="47.705078"/>
      <use xlink:href="#AptosDisplay-6d" x="68.75"/>
      <use xlink:href="#AptosDisplay-65" x="148.730469"/>
      <use xlink:href="#AptosDisplay-20" x="198.144531"/>
      <use xlink:href="#AptosDisplay-28" x="217.431641"/>
      <use xlink:href="#AptosDisplay-53" x="246.875"/>
      <use xlink:href="#AptosDisplay-29" x="301.464844"/>
     </g>
    </g>
   </g>
   <g id="matplotlib.axis_2">
    <g id="ytick_1">
     <g id="line2d_81">
      <path d="M 84.665625 439.965705 
L 754.265625 439.965705 
" clip-path="url(#pd5d6cad5c3)" style="fill: none; stroke: #b0b0b0; stroke-opacity: 0.8; stroke-linecap: square"/>
     </g>
     <g id="line2d_82">
      <defs>
       <path id="md3f84f36bf" d="M 0 0 
L -3.5 0 
" style="stroke: #000000; stroke-width: 0.8"/>
      </defs>
      <g>
       <use xlink:href="#md3f84f36bf" x="84.665625" y="439.965705" style="stroke: #000000; stroke-width: 0.8"/>
      </g>
     </g>
     <g id="text_10">
      <!-- 5 -->
      <g transform="translate(67.20625 446.53758) scale(0.2 -0.2)">
       <use xlink:href="#AptosDisplay-35"/>
      </g>
     </g>
    </g>
    <g id="ytick_2">
     <g id="line2d_83">
      <path d="M 84.665625 378.202875 
L 754.265625 378.202875 
" clip-path="url(#pd5d6cad5c3)" style="fill: none; stroke: #b0b0b0; stroke-opacity: 0.8; stroke-linecap: square"/>
     </g>
     <g id="line2d_84">
      <g>
       <use xlink:href="#md3f84f36bf" x="84.665625" y="378.202875" style="stroke: #000000; stroke-width: 0.8"/>
      </g>
     </g>
     <g id="text_11">
      <!-- 10 -->
      <g transform="translate(56.746875 384.77475) scale(0.2 -0.2)">
       <use xlink:href="#AptosDisplay-31"/>
       <use xlink:href="#AptosDisplay-30" x="52.294922"/>
      </g>
     </g>
    </g>
    <g id="ytick_3">
     <g id="line2d_85">
      <path d="M 84.665625 316.440044 
L 754.265625 316.440044 
" clip-path="url(#pd5d6cad5c3)" style="fill: none; stroke: #b0b0b0; stroke-opacity: 0.8; stroke-linecap: square"/>
     </g>
     <g id="line2d_86">
      <g>
       <use xlink:href="#md3f84f36bf" x="84.665625" y="316.440044" style="stroke: #000000; stroke-width: 0.8"/>
      </g>
     </g>
     <g id="text_12">
      <!-- 15 -->
      <g transform="translate(56.746875 323.011919) scale(0.2 -0.2)">
       <use xlink:href="#AptosDisplay-31"/>
       <use xlink:href="#AptosDisplay-35" x="52.294922"/>
      </g>
     </g>
    </g>
    <g id="ytick_4">
     <g id="line2d_87">
      <path d="M 84.665625 254.677214 
L 754.265625 254.677214 
" clip-path="url(#pd5d6cad5c3)" style="fill: none; stroke: #b0b0b0; stroke-opacity: 0.8; stroke-linecap: square"/>
     </g>
     <g id="line2d_88">
      <g>
       <use xlink:href="#md3f84f36bf" x="84.665625" y="254.677214" style="stroke: #000000; stroke-width: 0.8"/>
      </g>
     </g>
     <g id="text_13">
      <!-- 20 -->
      <g transform="translate(56.746875 261.249089) scale(0.2 -0.2)">
       <use xlink:href="#AptosDisplay-32"/>
       <use xlink:href="#AptosDisplay-30" x="52.294922"/>
      </g>
     </g>
    </g>
    <g id="ytick_5">
     <g id="line2d_89">
      <path d="M 84.665625 192.914383 
L 754.265625 192.914383 
" clip-path="url(#pd5d6cad5c3)" style="fill: none; stroke: #b0b0b0; stroke-opacity: 0.8; stroke-linecap: square"/>
     </g>
     <g id="line2d_90">
      <g>
       <use xlink:href="#md3f84f36bf" x="84.665625" y="192.914383" style="stroke: #000000; stroke-width: 0.8"/>
      </g>
     </g>
     <g id="text_14">
      <!-- 25 -->
      <g transform="translate(56.746875 199.486258) scale(0.2 -0.2)">
       <use xlink:href="#AptosDisplay-32"/>
       <use xlink:href="#AptosDisplay-35" x="52.294922"/>
      </g>
     </g>
    </g>
    <g id="ytick_6">
     <g id="line2d_91">
      <path d="M 84.665625 131.151553 
L 754.265625 131.151553 
" clip-path="url(#pd5d6cad5c3)" style="fill: none; stroke: #b0b0b0; stroke-opacity: 0.8; stroke-linecap: square"/>
     </g>
     <g id="line2d_92">
      <g>
       <use xlink:href="#md3f84f36bf" x="84.665625" y="131.151553" style="stroke: #000000; stroke-width: 0.8"/>
      </g>
     </g>
     <g id="text_15">
      <!-- 30 -->
      <g transform="translate(56.746875 137.723428) scale(0.2 -0.2)">
       <defs>
        <path id="AptosDisplay-33" d="M 1700 -56 
Q 1047 -56 655 275 
Q 263 606 263 1225 
L 781 1225 
Q 781 844 1023 617 
Q 1266 391 1697 391 
Q 2094 391 2322 581 
Q 2550 772 2550 1172 
Q 2550 1556 2297 1737 
Q 2044 1919 1609 1919 
L 1366 1919 
L 1366 2363 
L 1622 2363 
Q 2013 2363 2222 2555 
Q 2431 2747 2431 3066 
Q 2431 3372 2226 3526 
Q 2022 3681 1684 3681 
Q 1306 3681 1095 3481 
Q 884 3281 891 2956 
L 372 2956 
Q 372 3319 536 3583 
Q 700 3847 995 3990 
Q 1291 4134 1681 4134 
Q 2031 4134 2318 4017 
Q 2606 3900 2778 3670 
Q 2950 3441 2950 3097 
Q 2950 2738 2745 2498 
Q 2541 2259 2206 2166 
Q 2591 2097 2841 1836 
Q 3091 1575 3091 1150 
Q 3091 763 2916 494 
Q 2741 225 2428 84 
Q 2116 -56 1700 -56 
z
" transform="scale(0.015625)"/>
       </defs>
       <use xlink:href="#AptosDisplay-33"/>
       <use xlink:href="#AptosDisplay-30" x="52.294922"/>
      </g>
     </g>
    </g>
    <g id="ytick_7">
     <g id="line2d_93">
      <path d="M 84.665625 69.388723 
L 754.265625 69.388723 
" clip-path="url(#pd5d6cad5c3)" style="fill: none; stroke: #b0b0b0; stroke-opacity: 0.8; stroke-linecap: square"/>
     </g>
     <g id="line2d_94">
      <g>
       <use xlink:href="#md3f84f36bf" x="84.665625" y="69.388723" style="stroke: #000000; stroke-width: 0.8"/>
      </g>
     </g>
     <g id="text_16">
      <!-- 35 -->
      <g transform="translate(56.746875 75.960598) scale(0.2 -0.2)">
       <use xlink:href="#AptosDisplay-33"/>
       <use xlink:href="#AptosDisplay-35" x="52.294922"/>
      </g>
     </g>
    </g>
    <g id="ytick_8">
     <g id="line2d_95">
      <path d="M 84.665625 489.37597 
L 754.265625 489.37597 
" clip-path="url(#pd5d6cad5c3)" style="fill: none; stroke-dasharray: 1.85,0.8; stroke-dashoffset: 0; stroke: #b0b0b0; stroke-opacity: 0.8; stroke-width: 0.5"/>
     </g>
     <g id="line2d_96">
      <defs>
       <path id="m3a09803d80" d="M 0 0 
L -2 0 
" style="stroke: #000000; stroke-width: 0.6"/>
      </defs>
      <g>
       <use xlink:href="#m3a09803d80" x="84.665625" y="489.37597" style="stroke: #000000; stroke-width: 0.6"/>
      </g>
     </g>
    </g>
    <g id="ytick_9">
     <g id="line2d_97">
      <path d="M 84.665625 477.023403 
L 754.265625 477.023403 
" clip-path="url(#pd5d6cad5c3)" style="fill: none; stroke-dasharray: 1.85,0.8; stroke-dashoffset: 0; stroke: #b0b0b0; stroke-opacity: 0.8; stroke-width: 0.5"/>
     </g>
     <g id="line2d_98">
      <g>
       <use xlink:href="#m3a09803d80" x="84.665625" y="477.023403" style="stroke: #000000; stroke-width: 0.6"/>
      </g>
     </g>
    </g>
    <g id="ytick_10">
     <g id="line2d_99">
      <path d="M 84.665625 464.670837 
L 754.265625 464.670837 
" clip-path="url(#pd5d6cad5c3)" style="fill: none; stroke-dasharray: 1.85,0.8; stroke-dashoffset: 0; stroke: #b0b0b0; stroke-opacity: 0.8; stroke-width: 0.5"/>
     </g>
     <g id="line2d_100">
      <g>
       <use xlink:href="#m3a09803d80" x="84.665625" y="464.670837" style="stroke: #000000; stroke-width: 0.6"/>
      </g>
     </g>
    </g>
    <g id="ytick_11">
     <g id="line2d_101">
      <path d="M 84.665625 452.318271 
L 754.265625 452.318271 
" clip-path="url(#pd5d6cad5c3)" style="fill: none; stroke-dasharray: 1.85,0.8; stroke-dashoffset: 0; stroke: #b0b0b0; stroke-opacity: 0.8; stroke-width: 0.5"/>
     </g>
     <g id="line2d_102">
      <g>
       <use xlink:href="#m3a09803d80" x="84.665625" y="452.318271" style="stroke: #000000; stroke-width: 0.6"/>
      </g>
     </g>
    </g>
    <g id="ytick_12">
     <g id="line2d_103">
      <path d="M 84.665625 427.613139 
L 754.265625 427.613139 
" clip-path="url(#pd5d6cad5c3)" style="fill: none; stroke-dasharray: 1.85,0.8; stroke-dashoffset: 0; stroke: #b0b0b0; stroke-opacity: 0.8; stroke-width: 0.5"/>
     </g>
     <g id="line2d_104">
      <g>
       <use xlink:href="#m3a09803d80" x="84.665625" y="427.613139" style="stroke: #000000; stroke-width: 0.6"/>
      </g>
     </g>
    </g>
    <g id="ytick_13">
     <g id="line2d_105">
      <path d="M 84.665625 415.260573 
L 754.265625 415.260573 
" clip-path="url(#pd5d6cad5c3)" style="fill: none; stroke-dasharray: 1.85,0.8; stroke-dashoffset: 0; stroke: #b0b0b0; stroke-opacity: 0.8; stroke-width: 0.5"/>
     </g>
     <g id="line2d_106">
      <g>
       <use xlink:href="#m3a09803d80" x="84.665625" y="415.260573" style="stroke: #000000; stroke-width: 0.6"/>
      </g>
     </g>
    </g>
    <g id="ytick_14">
     <g id="line2d_107">
      <path d="M 84.665625 402.908007 
L 754.265625 402.908007 
" clip-path="url(#pd5d6cad5c3)" style="fill: none; stroke-dasharray: 1.85,0.8; stroke-dashoffset: 0; stroke: #b0b0b0; stroke-opacity: 0.8; stroke-width: 0.5"/>
     </g>
     <g id="line2d_108">
      <g>
       <use xlink:href="#m3a09803d80" x="84.665625" y="402.908007" style="stroke: #000000; stroke-width: 0.6"/>
      </g>
     </g>
    </g>
    <g id="ytick_15">
     <g id="line2d_109">
      <path d="M 84.665625 390.555441 
L 754.265625 390.555441 
" clip-path="url(#pd5d6cad5c3)" style="fill: none; stroke-dasharray: 1.85,0.8; stroke-dashoffset: 0; stroke: #b0b0b0; stroke-opacity: 0.8; stroke-width: 0.5"/>
     </g>
     <g id="line2d_110">
      <g>
       <use xlink:href="#m3a09803d80" x="84.665625" y="390.555441" style="stroke: #000000; stroke-width: 0.6"/>
      </g>
     </g>
    </g>
    <g id="ytick_16">
     <g id="line2d_111">
      <path d="M 84.665625 365.850309 
L 754.265625 365.850309 
" clip-path="url(#pd5d6cad5c3)" style="fill: none; stroke-dasharray: 1.85,0.8; stroke-dashoffset: 0; stroke: #b0b0b0; stroke-opacity: 0.8; stroke-width: 0.5"/>
     </g>
     <g id="line2d_112">
      <g>
       <use xlink:href="#m3a09803d80" x="84.665625" y="365.850309" style="stroke: #000000; stroke-width: 0.6"/>
      </g>
     </g>
    </g>
    <g id="ytick_17">
     <g id="line2d_113">
      <path d="M 84.665625 353.497743 
L 754.265625 353.497743 
" clip-path="url(#pd5d6cad5c3)" style="fill: none; stroke-dasharray: 1.85,0.8; stroke-dashoffset: 0; stroke: #b0b0b0; stroke-opacity: 0.8; stroke-width: 0.5"/>
     </g>
     <g id="line2d_114">
      <g>
       <use xlink:href="#m3a09803d80" x="84.665625" y="353.497743" style="stroke: #000000; stroke-width: 0.6"/>
      </g>
     </g>
    </g>
    <g id="ytick_18">
     <g id="line2d_115">
      <path d="M 84.665625 341.145177 
L 754.265625 341.145177 
" clip-path="url(#pd5d6cad5c3)" style="fill: none; stroke-dasharray: 1.85,0.8; stroke-dashoffset: 0; stroke: #b0b0b0; stroke-opacity: 0.8; stroke-width: 0.5"/>
     </g>
     <g id="line2d_116">
      <g>
       <use xlink:href="#m3a09803d80" x="84.665625" y="341.145177" style="stroke: #000000; stroke-width: 0.6"/>
      </g>
     </g>
    </g>
    <g id="ytick_19">
     <g id="line2d_117">
      <path d="M 84.665625 328.79261 
L 754.265625 328.79261 
" clip-path="url(#pd5d6cad5c3)" style="fill: none; stroke-dasharray: 1.85,0.8; stroke-dashoffset: 0; stroke: #b0b0b0; stroke-opacity: 0.8; stroke-width: 0.5"/>
     </g>
     <g id="line2d_118">
      <g>
       <use xlink:href="#m3a09803d80" x="84.665625" y="328.79261" style="stroke: #000000; stroke-width: 0.6"/>
      </g>
     </g>
    </g>
    <g id="ytick_20">
     <g id="line2d_119">
      <path d="M 84.665625 304.087478 
L 754.265625 304.087478 
" clip-path="url(#pd5d6cad5c3)" style="fill: none; stroke-dasharray: 1.85,0.8; stroke-dashoffset: 0; stroke: #b0b0b0; stroke-opacity: 0.8; stroke-width: 0.5"/>
     </g>
     <g id="line2d_120">
      <g>
       <use xlink:href="#m3a09803d80" x="84.665625" y="304.087478" style="stroke: #000000; stroke-width: 0.6"/>
      </g>
     </g>
    </g>
    <g id="ytick_21">
     <g id="line2d_121">
      <path d="M 84.665625 291.734912 
L 754.265625 291.734912 
" clip-path="url(#pd5d6cad5c3)" style="fill: none; stroke-dasharray: 1.85,0.8; stroke-dashoffset: 0; stroke: #b0b0b0; stroke-opacity: 0.8; stroke-width: 0.5"/>
     </g>
     <g id="line2d_122">
      <g>
       <use xlink:href="#m3a09803d80" x="84.665625" y="291.734912" style="stroke: #000000; stroke-width: 0.6"/>
      </g>
     </g>
    </g>
    <g id="ytick_22">
     <g id="line2d_123">
      <path d="M 84.665625 279.382346 
L 754.265625 279.382346 
" clip-path="url(#pd5d6cad5c3)" style="fill: none; stroke-dasharray: 1.85,0.8; stroke-dashoffset: 0; stroke: #b0b0b0; stroke-opacity: 0.8; stroke-width: 0.5"/>
     </g>
     <g id="line2d_124">
      <g>
       <use xlink:href="#m3a09803d80" x="84.665625" y="279.382346" style="stroke: #000000; stroke-width: 0.6"/>
      </g>
     </g>
    </g>
    <g id="ytick_23">
     <g id="line2d_125">
      <path d="M 84.665625 267.02978 
L 754.265625 267.02978 
" clip-path="url(#pd5d6cad5c3)" style="fill: none; stroke-dasharray: 1.85,0.8; stroke-dashoffset: 0; stroke: #b0b0b0; stroke-opacity: 0.8; stroke-width: 0.5"/>
     </g>
     <g id="line2d_126">
      <g>
       <use xlink:href="#m3a09803d80" x="84.665625" y="267.02978" style="stroke: #000000; stroke-width: 0.6"/>
      </g>
     </g>
    </g>
    <g id="ytick_24">
     <g id="line2d_127">
      <path d="M 84.665625 242.324648 
L 754.265625 242.324648 
" clip-path="url(#pd5d6cad5c3)" style="fill: none; stroke-dasharray: 1.85,0.8; stroke-dashoffset: 0; stroke: #b0b0b0; stroke-opacity: 0.8; stroke-width: 0.5"/>
     </g>
     <g id="line2d_128">
      <g>
       <use xlink:href="#m3a09803d80" x="84.665625" y="242.324648" style="stroke: #000000; stroke-width: 0.6"/>
      </g>
     </g>
    </g>
    <g id="ytick_25">
     <g id="line2d_129">
      <path d="M 84.665625 229.972082 
L 754.265625 229.972082 
" clip-path="url(#pd5d6cad5c3)" style="fill: none; stroke-dasharray: 1.85,0.8; stroke-dashoffset: 0; stroke: #b0b0b0; stroke-opacity: 0.8; stroke-width: 0.5"/>
     </g>
     <g id="line2d_130">
      <g>
       <use xlink:href="#m3a09803d80" x="84.665625" y="229.972082" style="stroke: #000000; stroke-width: 0.6"/>
      </g>
     </g>
    </g>
    <g id="ytick_26">
     <g id="line2d_131">
      <path d="M 84.665625 217.619516 
L 754.265625 217.619516 
" clip-path="url(#pd5d6cad5c3)" style="fill: none; stroke-dasharray: 1.85,0.8; stroke-dashoffset: 0; stroke: #b0b0b0; stroke-opacity: 0.8; stroke-width: 0.5"/>
     </g>
     <g id="line2d_132">
      <g>
       <use xlink:href="#m3a09803d80" x="84.665625" y="217.619516" style="stroke: #000000; stroke-width: 0.6"/>
      </g>
     </g>
    </g>
    <g id="ytick_27">
     <g id="line2d_133">
      <path d="M 84.665625 205.26695 
L 754.265625 205.26695 
" clip-path="url(#pd5d6cad5c3)" style="fill: none; stroke-dasharray: 1.85,0.8; stroke-dashoffset: 0; stroke: #b0b0b0; stroke-opacity: 0.8; stroke-width: 0.5"/>
     </g>
     <g id="line2d_134">
      <g>
       <use xlink:href="#m3a09803d80" x="84.665625" y="205.26695" style="stroke: #000000; stroke-width: 0.6"/>
      </g>
     </g>
    </g>
    <g id="ytick_28">
     <g id="line2d_135">
      <path d="M 84.665625 180.561817 
L 754.265625 180.561817 
" clip-path="url(#pd5d6cad5c3)" style="fill: none; stroke-dasharray: 1.85,0.8; stroke-dashoffset: 0; stroke: #b0b0b0; stroke-opacity: 0.8; stroke-width: 0.5"/>
     </g>
     <g id="line2d_136">
      <g>
       <use xlink:href="#m3a09803d80" x="84.665625" y="180.561817" style="stroke: #000000; stroke-width: 0.6"/>
      </g>
     </g>
    </g>
    <g id="ytick_29">
     <g id="line2d_137">
      <path d="M 84.665625 168.209251 
L 754.265625 168.209251 
" clip-path="url(#pd5d6cad5c3)" style="fill: none; stroke-dasharray: 1.85,0.8; stroke-dashoffset: 0; stroke: #b0b0b0; stroke-opacity: 0.8; stroke-width: 0.5"/>
     </g>
     <g id="line2d_138">
      <g>
       <use xlink:href="#m3a09803d80" x="84.665625" y="168.209251" style="stroke: #000000; stroke-width: 0.6"/>
      </g>
     </g>
    </g>
    <g id="ytick_30">
     <g id="line2d_139">
      <path d="M 84.665625 155.856685 
L 754.265625 155.856685 
" clip-path="url(#pd5d6cad5c3)" style="fill: none; stroke-dasharray: 1.85,0.8; stroke-dashoffset: 0; stroke: #b0b0b0; stroke-opacity: 0.8; stroke-width: 0.5"/>
     </g>
     <g id="line2d_140">
      <g>
       <use xlink:href="#m3a09803d80" x="84.665625" y="155.856685" style="stroke: #000000; stroke-width: 0.6"/>
      </g>
     </g>
    </g>
    <g id="ytick_31">
     <g id="line2d_141">
      <path d="M 84.665625 143.504119 
L 754.265625 143.504119 
" clip-path="url(#pd5d6cad5c3)" style="fill: none; stroke-dasharray: 1.85,0.8; stroke-dashoffset: 0; stroke: #b0b0b0; stroke-opacity: 0.8; stroke-width: 0.5"/>
     </g>
     <g id="line2d_142">
      <g>
       <use xlink:href="#m3a09803d80" x="84.665625" y="143.504119" style="stroke: #000000; stroke-width: 0.6"/>
      </g>
     </g>
    </g>
    <g id="ytick_32">
     <g id="line2d_143">
      <path d="M 84.665625 118.798987 
L 754.265625 118.798987 
" clip-path="url(#pd5d6cad5c3)" style="fill: none; stroke-dasharray: 1.85,0.8; stroke-dashoffset: 0; stroke: #b0b0b0; stroke-opacity: 0.8; stroke-width: 0.5"/>
     </g>
     <g id="line2d_144">
      <g>
       <use xlink:href="#m3a09803d80" x="84.665625" y="118.798987" style="stroke: #000000; stroke-width: 0.6"/>
      </g>
     </g>
    </g>
    <g id="ytick_33">
     <g id="line2d_145">
      <path d="M 84.665625 106.446421 
L 754.265625 106.446421 
" clip-path="url(#pd5d6cad5c3)" style="fill: none; stroke-dasharray: 1.85,0.8; stroke-dashoffset: 0; stroke: #b0b0b0; stroke-opacity: 0.8; stroke-width: 0.5"/>
     </g>
     <g id="line2d_146">
      <g>
       <use xlink:href="#m3a09803d80" x="84.665625" y="106.446421" style="stroke: #000000; stroke-width: 0.6"/>
      </g>
     </g>
    </g>
    <g id="ytick_34">
     <g id="line2d_147">
      <path d="M 84.665625 94.093855 
L 754.265625 94.093855 
" clip-path="url(#pd5d6cad5c3)" style="fill: none; stroke-dasharray: 1.85,0.8; stroke-dashoffset: 0; stroke: #b0b0b0; stroke-opacity: 0.8; stroke-width: 0.5"/>
     </g>
     <g id="line2d_148">
      <g>
       <use xlink:href="#m3a09803d80" x="84.665625" y="94.093855" style="stroke: #000000; stroke-width: 0.6"/>
      </g>
     </g>
    </g>
    <g id="ytick_35">
     <g id="line2d_149">
      <path d="M 84.665625 81.741289 
L 754.265625 81.741289 
" clip-path="url(#pd5d6cad5c3)" style="fill: none; stroke-dasharray: 1.85,0.8; stroke-dashoffset: 0; stroke: #b0b0b0; stroke-opacity: 0.8; stroke-width: 0.5"/>
     </g>
     <g id="line2d_150">
      <g>
       <use xlink:href="#m3a09803d80" x="84.665625" y="81.741289" style="stroke: #000000; stroke-width: 0.6"/>
      </g>
     </g>
    </g>
    <g id="text_17">
     <!-- Efficiency (%) -->
     <g transform="translate(49.221875 335.120625) rotate(-90) scale(0.2 -0.2)">
      <defs>
       <path id="AptosDisplay-45" d="M 472 0 
L 472 4206 
L 3153 4206 
L 3153 3738 
L 1034 3738 
L 1034 2397 
L 2984 2397 
L 2984 1934 
L 1034 1934 
L 1034 469 
L 3153 469 
L 3153 0 
L 472 0 
z
" transform="scale(0.015625)"/>
       <path id="AptosDisplay-66" d="M 550 0 
L 550 2622 
L 44 2622 
L 44 3044 
L 550 3044 
L 550 3219 
Q 550 3453 589 3636 
Q 628 3819 728 3947 
Q 828 4075 1004 4140 
Q 1181 4206 1463 4206 
L 1781 4206 
L 1781 3797 
L 1494 3797 
Q 1219 3797 1145 3645 
Q 1072 3494 1072 3209 
L 1072 3044 
L 1775 3044 
L 1775 2622 
L 1072 2622 
L 1072 0 
L 550 0 
z
" transform="scale(0.015625)"/>
       <path id="AptosDisplay-63" d="M 1634 -53 
Q 1234 -53 925 122 
Q 616 297 441 645 
Q 266 994 266 1513 
Q 266 2031 437 2384 
Q 609 2738 917 2916 
Q 1225 3094 1634 3094 
Q 1978 3094 2251 2978 
Q 2525 2863 2689 2630 
Q 2853 2397 2866 2041 
L 2350 2041 
Q 2328 2334 2139 2503 
Q 1950 2672 1644 2672 
Q 1228 2672 1015 2367 
Q 803 2063 803 1513 
Q 803 1150 897 894 
Q 991 638 1178 503 
Q 1366 369 1644 369 
Q 1956 369 2159 541 
Q 2363 713 2372 1047 
L 2884 1047 
Q 2878 681 2711 436 
Q 2544 191 2264 69 
Q 1984 -53 1634 -53 
z
" transform="scale(0.015625)"/>
       <path id="AptosDisplay-6e" d="M 413 0 
L 413 3044 
L 919 3044 
L 931 2575 
Q 1066 2756 1316 2914 
Q 1566 3072 1941 3072 
Q 2428 3072 2637 2781 
Q 2847 2491 2847 1963 
L 2847 0 
L 2328 0 
L 2328 1891 
Q 2328 2106 2286 2275 
Q 2244 2444 2133 2539 
Q 2022 2634 1816 2634 
Q 1500 2634 1283 2482 
Q 1066 2331 934 2156 
L 934 0 
L 413 0 
z
" transform="scale(0.015625)"/>
       <path id="AptosDisplay-79" d="M 266 -1128 
L 266 -697 
L 525 -697 
Q 716 -697 831 -598 
Q 947 -500 1038 -275 
L 1153 0 
L -13 3044 
L 538 3044 
L 1428 553 
L 2250 3044 
L 2781 3044 
L 1688 0 
L 1550 -356 
Q 1441 -647 1314 -815 
Q 1188 -984 1013 -1056 
Q 838 -1128 578 -1128 
L 266 -1128 
z
" transform="scale(0.015625)"/>
       <path id="AptosDisplay-25" d="M 1188 0 
L 3669 4078 
L 4094 4078 
L 1613 0 
L 1188 0 
z
M 1197 1606 
Q 878 1606 679 1765 
Q 481 1925 390 2209 
Q 300 2494 300 2872 
Q 300 3253 390 3536 
Q 481 3819 679 3976 
Q 878 4134 1197 4134 
Q 1519 4134 1716 3976 
Q 1913 3819 2005 3536 
Q 2097 3253 2097 2872 
Q 2097 2494 2005 2209 
Q 1913 1925 1714 1765 
Q 1516 1606 1197 1606 
z
M 1197 1953 
Q 1391 1953 1498 2084 
Q 1606 2216 1648 2425 
Q 1691 2634 1691 2872 
Q 1691 3109 1648 3318 
Q 1606 3528 1498 3658 
Q 1391 3788 1197 3788 
Q 1006 3788 898 3658 
Q 791 3528 748 3318 
Q 706 3109 706 2872 
Q 706 2634 748 2425 
Q 791 2216 898 2084 
Q 1006 1953 1197 1953 
z
M 4084 -53 
Q 3769 -53 3570 105 
Q 3372 263 3281 547 
Q 3191 831 3191 1209 
Q 3191 1591 3281 1873 
Q 3372 2156 3570 2314 
Q 3769 2472 4084 2472 
Q 4406 2472 4604 2315 
Q 4803 2159 4893 1875 
Q 4984 1591 4984 1209 
Q 4984 831 4893 547 
Q 4803 263 4604 105 
Q 4406 -53 4084 -53 
z
M 4084 294 
Q 4281 294 4387 423 
Q 4494 553 4536 761 
Q 4578 969 4578 1209 
Q 4578 1447 4536 1656 
Q 4494 1866 4387 1994 
Q 4281 2122 4084 2122 
Q 3894 2122 3787 1994 
Q 3681 1866 3639 1656 
Q 3597 1447 3597 1209 
Q 3597 969 3639 761 
Q 3681 553 3787 423 
Q 3894 294 4084 294 
z
" transform="scale(0.015625)"/>
      </defs>
      <use xlink:href="#AptosDisplay-45"/>
      <use xlink:href="#AptosDisplay-66" x="54.052734"/>
      <use xlink:href="#AptosDisplay-66" x="82.373047"/>
      <use xlink:href="#AptosDisplay-69" x="110.693359"/>
      <use xlink:href="#AptosDisplay-63" x="131.738281"/>
      <use xlink:href="#AptosDisplay-69" x="181.005859"/>
      <use xlink:href="#AptosDisplay-65" x="202.050781"/>
      <use xlink:href="#AptosDisplay-6e" x="251.464844"/>
      <use xlink:href="#AptosDisplay-63" x="302.050781"/>
      <use xlink:href="#AptosDisplay-79" x="351.318359"/>
      <use xlink:href="#AptosDisplay-20" x="394.580078"/>
      <use xlink:href="#AptosDisplay-28" x="413.867188"/>
      <use xlink:href="#AptosDisplay-25" x="443.310547"/>
      <use xlink:href="#AptosDisplay-29" x="525.830078"/>
     </g>
    </g>
   </g>
   <g id="line2d_151">
    <path d="M 115.101989 234.172954 
L 115.759622 77.9925 
L 116.42056 475.055421 
L 117.081498 468.650294 
L 117.742436 475.857675 
L 118.403374 466.065135 
L 119.064312 477.783519 
L 119.72525 475.756707 
L 120.386189 477.156227 
L 121.047127 473.646179 
L 121.708065 475.662236 
L 122.369003 475.682539 
L 123.029941 476.058251 
L 123.690879 478.211324 
L 124.351817 473.530898 
L 125.012755 479.205575 
L 125.673693 474.200731 
L 126.334631 477.774463 
L 126.995569 479.320952 
L 128.317445 478.462347 
L 128.978384 478.721788 
L 129.642626 476.925899 
L 130.303564 479.17758 
L 130.964502 478.622747 
L 131.625441 474.730833 
L 132.286379 478.644292 
L 132.947317 477.150704 
L 133.608255 478.637256 
L 134.269193 477.986887 
L 135.591069 478.702989 
L 136.252007 478.375935 
L 136.912945 478.727861 
L 137.573883 478.191217 
L 138.895759 478.506766 
L 139.556697 478.603107 
L 140.217636 477.93234 
L 140.878574 477.465271 
L 141.539512 477.900384 
L 142.20045 477.849969 
L 142.861388 478.079881 
L 144.183264 478.797974 
L 144.844202 477.456918 
L 145.50514 479.148713 
L 146.166078 478.027511 
L 146.827016 478.617078 
L 147.487954 478.187079 
L 148.148892 478.28357 
L 148.809831 479.147295 
L 149.470769 478.182776 
L 150.131707 478.516502 
L 151.453583 477.974832 
L 152.114521 478.198036 
L 152.775459 478.641998 
L 154.097335 478.672097 
L 154.758273 478.548131 
L 155.419211 477.811771 
L 156.741087 478.591251 
L 157.402026 478.301473 
L 158.062964 478.757357 
L 158.723902 478.321327 
L 159.38484 478.713274 
L 160.706716 478.950129 
L 161.367654 479.570641 
L 162.028592 477.818719 
L 162.68953 478.8734 
L 163.350468 478.577642 
L 164.011406 478.983105 
L 164.672344 478.969638 
L 165.333282 478.12252 
L 165.99422 478.651901 
L 166.655159 477.354426 
L 167.316097 479.235917 
L 167.977035 478.270675 
L 168.637973 477.813635 
L 169.298911 477.861993 
L 169.959849 478.953831 
L 170.620787 478.438525 
L 171.281725 478.355898 
L 171.942663 478.902728 
L 173.264539 477.911029 
L 173.925477 478.205393 
L 174.586415 478.075789 
L 175.247354 478.378709 
L 175.908292 478.01662 
L 176.56923 479.189448 
L 177.230168 478.108743 
L 177.891106 478.468005 
L 179.212982 477.684136 
L 179.87392 477.59512 
L 180.534858 479.028859 
L 181.195796 479.014829 
L 181.856734 478.403721 
L 182.517672 479.385393 
L 183.17861 478.488354 
L 183.839549 478.197429 
L 184.500487 478.322472 
L 185.822363 478.343313 
L 187.144239 478.626649 
L 187.805177 478.245045 
L 188.466115 479.044778 
L 189.127053 477.702753 
L 189.787991 478.824677 
L 190.448929 478.376921 
L 191.109867 478.833612 
L 192.431744 478.15612 
L 193.092682 478.835991 
L 194.414558 479.17243 
L 195.075496 478.633825 
L 195.736434 478.347886 
L 196.397372 479.322072 
L 197.05831 479.311991 
L 197.719248 478.767918 
L 198.380186 478.408831 
L 199.702062 478.930072 
L 200.363 478.827922 
L 201.023939 478.375548 
L 201.684877 479.144693 
L 202.345815 479.268206 
L 203.667691 479.297829 
L 204.328629 480.156737 
L 204.989567 479.68722 
L 205.650505 479.945644 
L 206.311443 479.380927 
L 206.972381 479.744708 
L 207.633319 479.327509 
L 208.294257 480.046888 
L 208.955195 479.91917 
L 209.616134 479.340905 
L 210.277072 479.420347 
L 210.93801 479.648477 
L 211.598948 480.357519 
L 212.259886 480.001461 
L 212.920824 480.110383 
L 213.581762 479.5804 
L 214.2427 480.619828 
L 214.903638 480.292661 
L 215.564576 480.553692 
L 216.225514 479.81046 
L 216.886452 480.065432 
L 217.54739 480.065411 
L 218.208328 480.458835 
L 218.869267 480.284101 
L 219.530205 479.972323 
L 220.191143 480.216489 
L 221.513019 479.978661 
L 222.173957 480.414259 
L 222.834895 480.416231 
L 224.156771 479.843729 
L 224.817709 480.284934 
L 225.478647 479.87065 
L 226.139585 480.015041 
L 226.800523 479.727246 
L 227.461462 480.46289 
L 228.1224 480.589472 
L 228.783338 479.82559 
L 229.444276 480.739496 
L 230.105214 480.124195 
L 231.42709 480.13294 
L 232.748966 480.390021 
L 233.409904 479.700964 
L 234.070842 479.796784 
L 234.73178 480.067447 
L 235.392718 480.50225 
L 236.053657 480.011245 
L 236.714595 480.771658 
L 237.375533 479.962154 
L 238.036471 480.689962 
L 238.697409 479.779596 
L 239.358347 480.245316 
L 240.019285 480.207987 
L 240.680223 480.86368 
L 241.341161 479.635811 
L 242.663037 480.317117 
L 243.323975 479.940598 
L 243.984913 480.235924 
L 244.645852 480.241858 
L 245.30679 480.526073 
L 245.967728 479.825801 
L 246.628666 480.479008 
L 247.950542 480.085493 
L 248.61148 480.25132 
L 249.272418 480.058373 
L 249.933356 480.08255 
L 250.594294 479.908272 
L 251.255232 479.865079 
L 251.91617 480.50614 
L 252.577108 480.824105 
L 253.238047 480.347768 
L 253.898985 480.448526 
L 254.559923 480.722115 
L 255.220861 480.076461 
L 255.881799 479.966177 
L 256.542737 480.601063 
L 257.203675 480.057367 
L 257.864613 480.160017 
L 258.525551 479.85241 
L 259.186489 479.852271 
L 259.847427 480.111977 
L 260.508365 479.815311 
L 261.169303 480.149207 
L 263.152118 480.204276 
L 263.813056 480.476183 
L 264.473994 479.855832 
L 265.134932 479.957818 
L 265.79587 480.426994 
L 266.456808 479.762187 
L 267.117746 479.748881 
L 267.778684 479.85988 
L 269.10056 479.868194 
L 269.761498 480.262505 
L 270.422437 480.137654 
L 271.083375 480.306214 
L 271.744313 479.739125 
L 272.405251 479.810241 
L 273.066189 479.562526 
L 273.727127 479.993471 
L 274.388065 479.397541 
L 275.049003 480.159829 
L 275.709941 479.181093 
L 276.370879 480.448191 
L 277.031817 479.908786 
L 277.692755 480.952048 
L 278.353693 480.28555 
L 279.014631 479.931958 
L 279.67557 480.708559 
L 280.336508 479.860467 
L 280.997446 480.043088 
L 281.658384 480.051166 
L 282.319322 479.936143 
L 282.98026 479.699521 
L 283.641198 479.813254 
L 284.302136 480.392022 
L 284.963074 480.659288 
L 285.624012 480.559649 
L 286.28495 480.179321 
L 286.945888 480.345082 
L 287.606826 481.064816 
L 288.267765 479.408159 
L 288.928703 480.44291 
L 289.589641 480.095526 
L 291.572455 480.153271 
L 292.233393 480.564242 
L 292.894331 480.23988 
L 293.555269 480.489401 
L 294.216207 480.480381 
L 294.877145 479.533426 
L 295.538083 480.484754 
L 296.199021 480.002488 
L 296.85996 480.235818 
L 297.520898 480.732832 
L 298.181836 479.516476 
L 298.842774 480.551732 
L 299.503712 480.372452 
L 300.16465 480.536239 
L 300.825588 480.966967 
L 301.486526 480.832703 
L 302.808402 481.160594 
L 303.46934 480.612554 
L 304.130278 480.541378 
L 305.452155 481.06355 
L 306.113093 480.084136 
L 306.774031 481.145599 
L 307.434969 480.767914 
L 308.095907 481.064497 
L 308.756845 481.125748 
L 309.417783 479.820925 
L 310.078721 480.65915 
L 310.739659 480.926568 
L 311.400597 480.651779 
L 314.705288 480.683925 
L 315.366226 480.078524 
L 316.027164 479.96367 
L 316.688102 481.011325 
L 317.34904 480.031322 
L 318.670916 480.582274 
L 319.992792 480.09442 
L 320.65373 479.894494 
L 321.975606 480.494635 
L 322.636545 480.137379 
L 323.297483 479.941787 
L 323.958421 480.283698 
L 324.619359 481.1925 
L 325.280297 480.431008 
L 325.941235 480.258193 
L 326.602173 480.837671 
L 327.263111 479.822734 
L 327.924049 479.922764 
L 328.584987 480.562384 
L 329.245925 480.46132 
L 329.906863 481.022444 
L 330.567801 480.795829 
L 331.22874 480.036112 
L 331.889678 480.556305 
L 332.550616 480.489443 
L 333.211554 479.954636 
L 333.872492 480.30073 
L 334.53343 480.417399 
L 335.194368 480.053343 
L 335.855306 479.880304 
L 336.516244 480.55433 
L 337.177182 480.468926 
L 337.83812 480.124432 
L 338.499058 479.919143 
L 339.820934 480.467468 
L 340.481873 480.432982 
L 341.142811 480.624551 
L 342.464687 480.195016 
L 343.125625 480.722115 
L 343.786563 480.214799 
L 344.447501 480.673025 
L 345.108439 479.824751 
L 345.769377 480.361686 
L 346.430315 480.341556 
L 347.091253 480.868223 
L 347.752191 480.348316 
L 348.413129 480.601597 
L 349.074068 480.040255 
L 349.735006 480.200007 
L 350.395944 480.051362 
L 351.71782 479.991442 
L 352.378758 479.583301 
L 353.039696 479.910689 
L 353.700634 479.882884 
L 354.361572 479.973562 
L 355.683448 479.539711 
L 356.344386 480.312286 
L 357.005324 480.768299 
L 357.666263 480.185725 
L 358.327201 479.838958 
L 358.988139 480.108901 
L 360.310015 480.057367 
L 360.970953 479.873996 
L 361.631891 480.062518 
L 362.953767 479.609454 
L 363.614705 479.80713 
L 364.275643 479.707084 
L 364.936581 480.266548 
L 365.597519 479.636986 
L 366.258458 479.654699 
L 366.919396 480.279446 
L 367.580334 479.672494 
L 369.563148 480.002621 
L 370.885024 479.298455 
L 371.545962 479.626883 
L 372.2069 480.107114 
L 372.867838 479.8661 
L 373.528776 479.44114 
L 374.189714 480.115069 
L 374.850653 480.053278 
L 375.511591 479.56596 
L 376.172529 479.707579 
L 376.833467 480.118317 
L 377.494405 479.420223 
L 378.155343 480.092822 
L 378.816281 479.825773 
L 380.138157 479.671441 
L 380.799095 467.912567 
L 381.460033 479.118154 
L 382.120971 479.658913 
L 382.781909 479.670382 
L 383.442848 479.813072 
L 384.103786 478.643016 
L 384.764724 479.70236 
L 385.425662 479.761731 
L 386.0866 479.462614 
L 386.747538 479.521675 
L 387.408476 478.921465 
L 388.069414 479.402416 
L 388.730352 478.657357 
L 389.39129 479.852892 
L 390.052228 479.969515 
L 390.713166 478.694883 
L 392.035042 479.727586 
L 392.695981 478.5774 
L 393.356919 479.436219 
L 394.017857 478.801521 
L 394.678795 478.404297 
L 395.339733 478.902406 
L 396.000671 479.04917 
L 396.661609 477.907805 
L 397.322547 477.882128 
L 397.983485 478.496083 
L 398.644423 478.211692 
L 399.305361 478.311349 
L 399.966299 479.326186 
L 400.627237 477.191656 
L 401.288176 477.941834 
L 401.949114 473.14128 
L 402.610052 478.301815 
L 403.27099 478.424291 
L 403.931928 477.622324 
L 404.592866 478.494257 
L 405.253804 478.001331 
L 405.914742 478.630943 
L 406.57568 478.010549 
L 407.236618 478.623477 
L 407.897556 477.570381 
L 408.558494 478.415559 
L 409.219432 475.093357 
L 409.880371 478.634124 
L 411.202247 477.711173 
L 411.863185 478.519532 
L 413.845999 477.945096 
L 414.506937 478.019578 
L 415.167875 478.2862 
L 415.828813 478.918785 
L 416.489751 477.873086 
L 417.150689 477.577535 
L 417.811627 478.027301 
L 418.472566 478.315175 
L 419.133504 478.051214 
L 419.794442 478.218659 
L 420.45538 477.404549 
L 421.116318 478.183085 
L 421.777256 477.48733 
L 422.438194 477.672704 
L 423.099132 478.17826 
L 423.76007 477.945599 
L 424.421008 477.855781 
L 425.081946 478.302097 
L 425.742884 476.960255 
L 426.403822 476.810021 
L 427.064761 477.834107 
L 427.725699 477.962719 
L 428.386637 477.037553 
L 429.047575 476.842413 
L 429.708513 478.009539 
L 430.369451 478.062404 
L 431.030389 477.153208 
L 431.691327 477.217146 
L 432.352265 477.466137 
L 433.013203 476.898885 
L 433.674141 477.111163 
L 434.335079 476.173607 
L 434.996017 477.484123 
L 435.656956 476.748548 
L 436.317894 476.413686 
L 436.978832 475.830525 
L 437.63977 475.982541 
L 438.300708 475.274211 
L 438.961646 475.835364 
L 439.622584 475.776416 
L 440.283522 475.24046 
L 440.94446 475.390617 
L 441.605398 475.109105 
L 442.266336 475.297934 
L 442.927274 474.315761 
L 443.588212 475.156734 
L 444.910089 474.609839 
L 445.571027 474.764182 
L 446.231965 474.641431 
L 447.553841 475.11511 
L 448.214779 473.895219 
L 448.875717 474.909094 
L 449.536655 474.100718 
L 450.197593 474.489951 
L 451.519469 473.023034 
L 452.180407 473.627565 
L 452.841345 473.843213 
L 453.502284 473.935262 
L 454.163222 473.238873 
L 454.82416 473.736085 
L 456.146036 474.191547 
L 456.806974 473.804339 
L 459.450726 473.388943 
L 460.111664 473.185424 
L 460.772602 473.855792 
L 462.094479 474.131203 
L 462.755417 472.415104 
L 463.416355 472.727438 
L 464.077293 473.711076 
L 464.738231 473.440216 
L 465.399169 472.970427 
L 466.060107 469.946794 
L 466.721045 473.29338 
L 467.381983 473.81155 
L 468.042921 472.531214 
L 468.703859 472.343577 
L 469.364797 473.848665 
L 470.025735 473.986809 
L 470.686674 472.69013 
L 471.347612 472.454375 
L 472.00855 473.159514 
L 472.669488 472.418026 
L 473.330426 472.355595 
L 473.991364 472.702376 
L 474.652302 472.692699 
L 475.974178 471.97775 
L 476.635116 472.238877 
L 477.296054 469.75088 
L 477.956992 472.193012 
L 478.61793 471.619909 
L 479.278869 472.535856 
L 479.939807 473.066288 
L 480.600745 471.851353 
L 481.261683 472.580747 
L 481.922621 473.624715 
L 483.244497 472.149762 
L 483.905435 472.046375 
L 484.566373 470.40058 
L 485.227311 473.535866 
L 485.888249 472.787587 
L 486.549187 473.411627 
L 487.210125 472.626386 
L 487.871064 472.54849 
L 488.532002 473.5658 
L 489.19294 474.330162 
L 489.853878 472.163751 
L 491.175754 473.62956 
L 491.836692 473.281774 
L 492.49763 474.536777 
L 493.158568 474.078336 
L 493.819506 473.983335 
L 494.480444 472.952775 
L 495.141382 472.45138 
L 495.80232 474.097435 
L 496.463259 473.367131 
L 497.124197 473.975039 
L 497.785135 472.880837 
L 498.446073 474.019014 
L 499.107011 474.360145 
L 499.767949 474.05893 
L 500.428887 474.633381 
L 501.089825 474.117737 
L 501.750763 474.820053 
L 502.411701 474.988008 
L 503.733577 474.151996 
L 504.394515 474.533845 
L 505.055454 473.91574 
L 505.716392 475.323641 
L 506.37733 474.490433 
L 507.038268 474.117737 
L 507.699206 474.924161 
L 508.360144 473.960149 
L 509.021082 473.990738 
L 509.68202 474.440098 
L 510.342958 474.27449 
L 511.664834 474.561917 
L 514.308587 473.831883 
L 514.969525 474.307779 
L 515.630463 473.841176 
L 516.291401 473.729031 
L 516.952339 474.780393 
L 517.613277 473.830985 
L 518.274215 474.333553 
L 518.935153 473.980018 
L 519.596091 473.319432 
L 520.257029 474.004572 
L 520.917967 473.579989 
L 521.578905 473.776528 
L 522.900782 472.997368 
L 523.56172 474.001115 
L 524.222658 472.823383 
L 524.883596 474.062489 
L 525.544534 473.056674 
L 526.205472 473.829366 
L 526.86641 473.499955 
L 527.527348 473.35053 
L 528.188286 473.892785 
L 528.849224 473.623414 
L 529.510162 474.07554 
L 530.1711 473.010146 
L 531.492977 474.972075 
L 532.153915 474.842976 
L 532.814853 474.376178 
L 533.475791 474.649286 
L 534.136729 474.261486 
L 534.797667 475.444693 
L 535.458605 475.387486 
L 536.119543 475.870746 
L 536.780481 475.588116 
L 537.441419 475.088587 
L 538.102357 475.480327 
L 538.763295 476.29929 
L 539.424233 475.432708 
L 540.085172 475.422663 
L 540.74611 475.895436 
L 541.407048 476.973894 
L 542.067986 475.52925 
L 542.728924 476.280643 
L 543.389862 475.772883 
L 544.0508 476.207346 
L 545.372676 475.027158 
L 546.033614 476.655458 
L 546.694552 475.488395 
L 547.35549 475.29742 
L 548.016428 476.461401 
L 548.677367 476.359441 
L 549.999243 476.641481 
L 551.321119 477.185084 
L 551.982057 476.526781 
L 552.642995 477.721402 
L 553.964871 478.0277 
L 554.625809 476.947042 
L 555.286747 477.324089 
L 555.947685 478.085253 
L 556.608623 477.082554 
L 557.269562 477.132102 
L 557.9305 477.981636 
L 559.252376 477.700122 
L 559.913314 477.991055 
L 560.574252 477.319444 
L 561.23519 476.989572 
L 561.896128 478.175499 
L 562.557066 477.083064 
L 563.218004 477.672007 
L 563.878942 477.01769 
L 564.53988 478.035359 
L 565.861756 477.72028 
L 567.844571 477.15275 
L 568.505509 477.773843 
L 569.166447 477.479767 
L 569.827385 477.825362 
L 570.488323 477.099961 
L 571.149261 477.064628 
L 571.810199 477.922114 
L 572.471137 477.668739 
L 573.132075 477.159348 
L 573.793013 477.635761 
L 574.453951 477.241382 
L 575.11489 477.868023 
L 575.775828 477.681029 
L 576.436766 478.068675 
L 577.097704 477.617567 
L 578.41958 477.300351 
L 579.080518 477.79776 
L 579.741456 477.294888 
L 580.402394 477.760558 
L 581.063332 477.212207 
L 581.72427 478.05154 
L 582.385208 478.325757 
L 583.046146 477.583233 
L 583.707085 477.839835 
L 584.368023 477.031969 
L 585.028961 477.523218 
L 585.689899 478.363557 
L 586.350837 477.241227 
L 587.011775 477.9451 
L 587.672713 476.545724 
L 588.333651 477.659611 
L 588.994589 478.403305 
L 590.977403 477.661461 
L 591.638341 477.16438 
L 592.29928 478.085253 
L 592.960218 477.274437 
L 593.621156 478.307682 
L 594.282094 477.156265 
L 594.943032 477.665095 
L 596.264908 477.429343 
L 596.925846 478.100719 
L 597.586784 477.117504 
L 598.247722 477.117567 
L 598.90866 477.474248 
L 599.569598 477.447959 
L 600.230536 477.964051 
L 600.891475 478.211696 
L 601.552413 477.85816 
L 602.874289 477.424524 
L 603.535227 477.720327 
L 604.857103 478.56537 
L 605.518041 478.086944 
L 606.178979 477.778082 
L 606.839917 478.009477 
L 607.500855 478.624736 
L 608.161793 478.689412 
L 608.822731 478.072105 
L 610.144608 477.577535 
L 610.805546 478.708472 
L 611.466484 477.457161 
L 612.127422 477.951766 
L 612.78836 478.162432 
L 613.449298 478.056606 
L 614.771174 477.448473 
L 615.432112 478.528451 
L 616.09305 477.991304 
L 616.753988 477.676907 
L 617.414926 477.756585 
L 618.075865 478.551515 
L 618.736803 477.920036 
L 620.058679 477.630132 
L 620.719617 478.473061 
L 621.380555 477.938707 
L 622.041493 478.859516 
L 622.702431 477.89025 
L 623.363369 478.275969 
L 624.024307 478.413009 
L 625.346183 478.102864 
L 626.007121 477.548758 
L 626.668059 478.186212 
L 627.328998 476.839943 
L 627.989936 477.969761 
L 628.650874 477.786595 
L 629.311812 477.383866 
L 629.976055 477.727607 
L 630.633688 478.315048 
L 631.294626 477.295769 
L 631.958869 478.080975 
L 632.619807 477.91891 
L 633.941683 478.091311 
L 634.602621 477.786395 
L 635.263559 478.151407 
L 635.924497 477.615923 
L 636.585435 477.832202 
L 637.246373 478.437854 
L 637.907311 477.952363 
L 638.56825 477.661725 
L 639.229188 477.729565 
L 639.890126 478.812539 
L 640.551064 478.3256 
L 641.212002 478.446625 
L 641.87294 477.894489 
L 643.194816 478.021916 
L 644.516692 477.590131 
L 645.17763 478.068804 
L 645.838568 478.753021 
L 646.499506 478.182683 
L 647.160445 478.590454 
L 647.821383 478.028096 
L 648.482321 478.281208 
L 649.143259 478.216876 
L 649.804197 478.281595 
L 650.465135 478.050715 
L 651.126073 478.324611 
L 651.787011 478.272669 
L 652.447949 478.787875 
L 653.108887 478.856963 
L 653.769825 478.443593 
L 655.091701 478.723044 
L 655.75264 478.372976 
L 656.413578 478.477836 
L 657.074516 478.43498 
L 657.735454 478.794915 
L 658.396392 478.186287 
L 659.05733 478.429054 
L 659.718268 478.493855 
L 660.379206 478.923014 
L 661.040144 478.300604 
L 662.36202 479.219893 
L 663.022958 478.257564 
L 664.344835 478.381539 
L 665.005773 478.691228 
L 665.666711 478.207817 
L 666.327649 478.396548 
L 666.988587 478.833223 
L 668.310463 478.622924 
L 668.971401 478.171262 
L 671.615153 478.675141 
L 672.276091 478.624918 
L 672.93703 479.035017 
L 673.597968 478.648491 
L 674.258906 478.896869 
L 674.919844 478.477836 
L 675.580782 478.982122 
L 676.24172 478.487703 
L 677.563596 478.754257 
L 678.224534 478.568263 
L 678.885472 478.992206 
L 679.54641 479.103637 
L 680.207348 478.940127 
L 680.868286 478.3883 
L 681.529224 479.219024 
L 682.190163 478.479337 
L 682.851101 478.909445 
L 683.512039 477.98926 
L 684.172977 479.478417 
L 684.833915 478.426573 
L 685.494853 478.512765 
L 686.155791 478.302763 
L 686.816729 479.185277 
L 687.477667 477.93445 
L 688.138605 479.051174 
L 688.799543 478.085446 
L 689.460481 479.273861 
L 690.782358 478.524045 
L 692.104234 478.987568 
L 693.42611 478.161223 
L 694.087048 478.112303 
L 694.747986 478.696088 
L 695.408924 478.890036 
L 696.7308 478.612846 
L 697.391738 478.985387 
L 698.052676 478.837242 
L 698.713614 478.025066 
L 699.374553 478.846409 
L 700.035491 478.627894 
L 700.696429 479.080496 
L 701.357367 478.404741 
L 702.018305 478.540799 
L 702.679243 478.978631 
L 703.340181 479.049328 
L 704.001119 478.960568 
L 704.662057 478.602116 
L 705.322995 478.741143 
L 705.983933 478.406134 
L 706.644871 478.813223 
L 707.305809 478.559474 
L 707.966748 479.464315 
L 708.627686 478.698757 
L 709.288624 479.256556 
L 709.949562 478.230411 
L 710.6105 478.965204 
L 711.271438 478.368966 
L 713.254252 478.745843 
L 713.91519 479.150068 
L 715.237066 478.728695 
L 715.898004 477.907625 
L 716.558943 479.194307 
L 717.219881 478.462587 
L 717.880819 478.76673 
L 718.541757 478.732244 
L 719.202695 478.513013 
L 719.863633 478.76743 
L 720.524571 478.435016 
L 721.185509 479.263555 
L 721.846447 478.192489 
L 722.507385 478.421807 
L 723.168323 479.296975 
L 723.829261 479.099912 
L 723.829261 479.099912 
" clip-path="url(#pd5d6cad5c3)" style="fill: none; stroke: #ac2b37; stroke-width: 1.5; stroke-linecap: square"/>
   </g>
   <g id="patch_3">
    <path d="M 84.665625 501.3525 
L 84.665625 57.8325 
" style="fill: none; stroke: #000000; stroke-width: 0.8; stroke-linejoin: miter; stroke-linecap: square"/>
   </g>
   <g id="patch_4">
    <path d="M 754.265625 501.3525 
L 754.265625 57.8325 
" style="fill: none; stroke: #000000; stroke-width: 0.8; stroke-linejoin: miter; stroke-linecap: square"/>
   </g>
   <g id="patch_5">
    <path d="M 84.665625 501.3525 
L 754.265625 501.3525 
" style="fill: none; stroke: #000000; stroke-width: 0.8; stroke-linejoin: miter; stroke-linecap: square"/>
   </g>
   <g id="patch_6">
    <path d="M 84.665625 57.8325 
L 754.265625 57.8325 
" style="fill: none; stroke: #000000; stroke-width: 0.8; stroke-linejoin: miter; stroke-linecap: square"/>
   </g>
   <g id="text_18">
    <!-- Efficiency vs Time -->
    <g transform="translate(332.95875 51.8325) scale(0.24 -0.24)">
     <defs>
      <path id="AptosDisplay-76" d="M 1103 0 
L -13 3044 
L 538 3044 
L 1391 513 
L 2250 3044 
L 2781 3044 
L 1678 0 
L 1103 0 
z
" transform="scale(0.015625)"/>
      <path id="AptosDisplay-73" d="M 1506 -41 
Q 1247 -41 1017 14 
Q 788 69 613 191 
Q 438 313 339 506 
Q 241 700 241 978 
L 744 978 
Q 744 628 966 487 
Q 1188 347 1519 347 
Q 1816 347 2008 458 
Q 2200 569 2200 822 
Q 2200 1047 2026 1153 
Q 1853 1259 1413 1369 
Q 1056 1453 815 1564 
Q 575 1675 453 1845 
Q 331 2016 331 2275 
Q 331 2475 417 2626 
Q 503 2778 658 2879 
Q 813 2981 1020 3032 
Q 1228 3084 1472 3084 
Q 1713 3084 1923 3028 
Q 2134 2972 2296 2855 
Q 2459 2738 2551 2552 
Q 2644 2366 2644 2109 
L 2138 2109 
Q 2138 2425 1945 2558 
Q 1753 2691 1472 2691 
Q 1191 2691 1016 2594 
Q 841 2497 841 2291 
Q 841 2169 919 2084 
Q 997 2000 1181 1933 
Q 1366 1866 1675 1791 
Q 2019 1709 2248 1596 
Q 2478 1484 2595 1306 
Q 2713 1128 2713 847 
Q 2713 616 2622 447 
Q 2531 278 2367 170 
Q 2203 63 1983 11 
Q 1763 -41 1506 -41 
z
" transform="scale(0.015625)"/>
     </defs>
     <use xlink:href="#AptosDisplay-45"/>
     <use xlink:href="#AptosDisplay-66" x="54.052734"/>
     <use xlink:href="#AptosDisplay-66" x="82.373047"/>
     <use xlink:href="#AptosDisplay-69" x="110.693359"/>
     <use xlink:href="#AptosDisplay-63" x="131.738281"/>
     <use xlink:href="#AptosDisplay-69" x="181.005859"/>
     <use xlink:href="#AptosDisplay-65" x="202.050781"/>
     <use xlink:href="#AptosDisplay-6e" x="251.464844"/>
     <use xlink:href="#AptosDisplay-63" x="302.050781"/>
     <use xlink:href="#AptosDisplay-79" x="351.318359"/>
     <use xlink:href="#AptosDisplay-20" x="394.580078"/>
     <use xlink:href="#AptosDisplay-76" x="413.867188"/>
     <use xlink:href="#AptosDisplay-73" x="457.128906"/>
     <use xlink:href="#AptosDisplay-20" x="503.417969"/>
     <use xlink:href="#AptosDisplay-54" x="522.705078"/>
     <use xlink:href="#AptosDisplay-69" x="570.410156"/>
     <use xlink:href="#AptosDisplay-6d" x="591.455078"/>
     <use xlink:href="#AptosDisplay-65" x="671.435547"/>
    </g>
   </g>
  </g>
 </g>
 <defs>
  <clipPath id="pd5d6cad5c3">
   <rect x="84.665625" y="57.8325" width="669.6" height="443.52"/>
  </clipPath>
 </defs>
</svg>
