<?xml version="1.0" encoding="utf-8" standalone="no"?>
<!DOCTYPE svg PUBLIC "-//W3C//DTD SVG 1.1//EN"
  "http://www.w3.org/Graphics/SVG/1.1/DTD/svg11.dtd">
<svg xmlns:xlink="http://www.w3.org/1999/xlink" width="811.340625pt" height="581.830625pt" viewBox="0 0 811.340625 581.830625" xmlns="http://www.w3.org/2000/svg" version="1.1">
 <metadata>
  <rdf:RDF xmlns:dc="http://purl.org/dc/elements/1.1/" xmlns:cc="http://creativecommons.org/ns#" xmlns:rdf="http://www.w3.org/1999/02/22-rdf-syntax-ns#">
   <cc:Work>
    <dc:type rdf:resource="http://purl.org/dc/dcmitype/StillImage"/>
    <dc:date>2025-04-03T01:48:40.336529</dc:date>
    <dc:format>image/svg+xml</dc:format>
    <dc:creator>
     <cc:Agent>
      <dc:title>Matplotlib v3.8.2, https://matplotlib.org/</dc:title>
     </cc:Agent>
    </dc:creator>
   </cc:Work>
  </rdf:RDF>
 </metadata>
 <defs>
  <style type="text/css">*{stroke-linejoin: round; stroke-linecap: butt}</style>
 </defs>
 <g id="figure_1">
  <g id="patch_1">
   <path d="M 0 581.830625 
L 811.340625 581.830625 
L 811.340625 0 
L 0 0 
z
" style="fill: #ffffff"/>
  </g>
  <g id="axes_1">
   <g id="patch_2">
    <path d="M 105.740625 501.3525 
L 775.340625 501.3525 
L 775.340625 57.8325 
L 105.740625 57.8325 
z
" style="fill: #ffffff"/>
   </g>
   <g id="matplotlib.axis_1">
    <g id="xtick_1">
     <g id="line2d_1">
      <path d="M 135.809152 501.3525 
L 135.809152 57.8325 
" clip-path="url(#pe44818d16b)" style="fill: none; stroke: #b0b0b0; stroke-opacity: 0.8; stroke-linecap: square"/>
     </g>
     <g id="line2d_2">
      <defs>
       <path id="md57ebe93ae" d="M 0 0 
L 0 3.5 
" style="stroke: #000000; stroke-width: 0.8"/>
      </defs>
      <g>
       <use xlink:href="#md57ebe93ae" x="135.809152" y="501.3525" style="stroke: #000000; stroke-width: 0.8"/>
      </g>
     </g>
     <g id="text_1">
      <!-- 0 -->
      <g transform="translate(130.579465 521.49625) scale(0.2 -0.2)">
       <defs>
        <path id="AptosDisplay-30" d="M 1672 -56 
Q 1291 -56 1028 105 
Q 766 266 605 552 
Q 444 838 372 1216 
Q 300 1594 300 2031 
Q 300 2475 372 2856 
Q 444 3238 605 3525 
Q 766 3813 1028 3973 
Q 1291 4134 1672 4134 
Q 2053 4134 2317 3975 
Q 2581 3816 2742 3527 
Q 2903 3238 2975 2858 
Q 3047 2478 3047 2038 
Q 3047 1597 2975 1217 
Q 2903 838 2742 552 
Q 2581 266 2318 105 
Q 2056 -56 1672 -56 
z
M 1672 409 
Q 1916 409 2073 550 
Q 2231 691 2322 925 
Q 2413 1159 2448 1448 
Q 2484 1738 2484 2038 
Q 2484 2338 2448 2628 
Q 2413 2919 2322 3153 
Q 2231 3388 2073 3527 
Q 1916 3666 1669 3666 
Q 1428 3666 1268 3527 
Q 1109 3388 1020 3153 
Q 931 2919 893 2628 
Q 856 2338 856 2038 
Q 856 1741 893 1450 
Q 931 1159 1020 925 
Q 1109 691 1268 550 
Q 1428 409 1672 409 
z
" transform="scale(0.015625)"/>
       </defs>
       <use xlink:href="#AptosDisplay-30"/>
      </g>
     </g>
    </g>
    <g id="xtick_2">
     <g id="line2d_3">
      <path d="M 217.188933 501.3525 
L 217.188933 57.8325 
" clip-path="url(#pe44818d16b)" style="fill: none; stroke: #b0b0b0; stroke-opacity: 0.8; stroke-linecap: square"/>
     </g>
     <g id="line2d_4">
      <g>
       <use xlink:href="#md57ebe93ae" x="217.188933" y="501.3525" style="stroke: #000000; stroke-width: 0.8"/>
      </g>
     </g>
     <g id="text_2">
      <!-- 25 -->
      <g transform="translate(206.729558 521.49625) scale(0.2 -0.2)">
       <defs>
        <path id="AptosDisplay-32" d="M 247 0 
L 247 413 
L 1725 1741 
Q 2100 2081 2269 2351 
Q 2438 2622 2438 2938 
Q 2438 3256 2263 3461 
Q 2088 3666 1691 3666 
Q 1247 3666 1055 3439 
Q 863 3213 863 2869 
L 341 2869 
Q 341 3250 491 3534 
Q 641 3819 941 3975 
Q 1241 4131 1691 4131 
Q 2103 4131 2390 3986 
Q 2678 3841 2828 3578 
Q 2978 3316 2978 2959 
Q 2978 2638 2853 2375 
Q 2728 2113 2517 1883 
Q 2306 1653 2044 1425 
L 959 463 
L 3097 463 
L 3097 0 
L 247 0 
z
" transform="scale(0.015625)"/>
        <path id="AptosDisplay-35" d="M 1669 -56 
Q 1278 -56 964 83 
Q 650 222 465 483 
Q 281 744 281 1113 
L 816 1113 
Q 816 778 1055 584 
Q 1294 391 1669 391 
Q 2069 391 2291 625 
Q 2513 859 2513 1319 
Q 2513 1772 2291 1989 
Q 2069 2206 1697 2206 
Q 1409 2206 1223 2123 
Q 1038 2041 916 1894 
L 444 1894 
L 622 4078 
L 2788 4078 
L 2788 3613 
L 1041 3613 
L 931 2322 
Q 1044 2453 1251 2550 
Q 1459 2647 1775 2647 
Q 2131 2647 2420 2506 
Q 2709 2366 2881 2072 
Q 3053 1778 3053 1319 
Q 3053 863 2875 558 
Q 2697 253 2384 98 
Q 2072 -56 1669 -56 
z
" transform="scale(0.015625)"/>
       </defs>
       <use xlink:href="#AptosDisplay-32"/>
       <use xlink:href="#AptosDisplay-35" x="52.294922"/>
      </g>
     </g>
    </g>
    <g id="xtick_3">
     <g id="line2d_5">
      <path d="M 298.568714 501.3525 
L 298.568714 57.8325 
" clip-path="url(#pe44818d16b)" style="fill: none; stroke: #b0b0b0; stroke-opacity: 0.8; stroke-linecap: square"/>
     </g>
     <g id="line2d_6">
      <g>
       <use xlink:href="#md57ebe93ae" x="298.568714" y="501.3525" style="stroke: #000000; stroke-width: 0.8"/>
      </g>
     </g>
     <g id="text_3">
      <!-- 50 -->
      <g transform="translate(288.109339 521.49625) scale(0.2 -0.2)">
       <use xlink:href="#AptosDisplay-35"/>
       <use xlink:href="#AptosDisplay-30" x="52.294922"/>
      </g>
     </g>
    </g>
    <g id="xtick_4">
     <g id="line2d_7">
      <path d="M 379.948495 501.3525 
L 379.948495 57.8325 
" clip-path="url(#pe44818d16b)" style="fill: none; stroke: #b0b0b0; stroke-opacity: 0.8; stroke-linecap: square"/>
     </g>
     <g id="line2d_8">
      <g>
       <use xlink:href="#md57ebe93ae" x="379.948495" y="501.3525" style="stroke: #000000; stroke-width: 0.8"/>
      </g>
     </g>
     <g id="text_4">
      <!-- 75 -->
      <g transform="translate(369.48912 521.49625) scale(0.2 -0.2)">
       <defs>
        <path id="AptosDisplay-37" d="M 766 0 
L 2609 3600 
L 194 3600 
L 194 4078 
L 3141 4078 
L 3141 3622 
L 1334 0 
L 766 0 
z
" transform="scale(0.015625)"/>
       </defs>
       <use xlink:href="#AptosDisplay-37"/>
       <use xlink:href="#AptosDisplay-35" x="52.294922"/>
      </g>
     </g>
    </g>
    <g id="xtick_5">
     <g id="line2d_9">
      <path d="M 461.328276 501.3525 
L 461.328276 57.8325 
" clip-path="url(#pe44818d16b)" style="fill: none; stroke: #b0b0b0; stroke-opacity: 0.8; stroke-linecap: square"/>
     </g>
     <g id="line2d_10">
      <g>
       <use xlink:href="#md57ebe93ae" x="461.328276" y="501.3525" style="stroke: #000000; stroke-width: 0.8"/>
      </g>
     </g>
     <g id="text_5">
      <!-- 100 -->
      <g transform="translate(445.639214 521.49625) scale(0.2 -0.2)">
       <defs>
        <path id="AptosDisplay-31" d="M 1659 0 
L 1659 3425 
Q 1575 3309 1420 3201 
Q 1266 3094 1052 3009 
Q 838 2925 578 2888 
L 578 3381 
Q 834 3425 1057 3540 
Q 1281 3656 1453 3806 
Q 1625 3956 1719 4094 
L 2206 4094 
L 2206 0 
L 1659 0 
z
" transform="scale(0.015625)"/>
       </defs>
       <use xlink:href="#AptosDisplay-31"/>
       <use xlink:href="#AptosDisplay-30" x="52.294922"/>
       <use xlink:href="#AptosDisplay-30" x="104.589844"/>
      </g>
     </g>
    </g>
    <g id="xtick_6">
     <g id="line2d_11">
      <path d="M 542.708057 501.3525 
L 542.708057 57.8325 
" clip-path="url(#pe44818d16b)" style="fill: none; stroke: #b0b0b0; stroke-opacity: 0.8; stroke-linecap: square"/>
     </g>
     <g id="line2d_12">
      <g>
       <use xlink:href="#md57ebe93ae" x="542.708057" y="501.3525" style="stroke: #000000; stroke-width: 0.8"/>
      </g>
     </g>
     <g id="text_6">
      <!-- 125 -->
      <g transform="translate(527.018995 521.49625) scale(0.2 -0.2)">
       <use xlink:href="#AptosDisplay-31"/>
       <use xlink:href="#AptosDisplay-32" x="52.294922"/>
       <use xlink:href="#AptosDisplay-35" x="104.589844"/>
      </g>
     </g>
    </g>
    <g id="xtick_7">
     <g id="line2d_13">
      <path d="M 624.087838 501.3525 
L 624.087838 57.8325 
" clip-path="url(#pe44818d16b)" style="fill: none; stroke: #b0b0b0; stroke-opacity: 0.8; stroke-linecap: square"/>
     </g>
     <g id="line2d_14">
      <g>
       <use xlink:href="#md57ebe93ae" x="624.087838" y="501.3525" style="stroke: #000000; stroke-width: 0.8"/>
      </g>
     </g>
     <g id="text_7">
      <!-- 150 -->
      <g transform="translate(608.398776 521.49625) scale(0.2 -0.2)">
       <use xlink:href="#AptosDisplay-31"/>
       <use xlink:href="#AptosDisplay-35" x="52.294922"/>
       <use xlink:href="#AptosDisplay-30" x="104.589844"/>
      </g>
     </g>
    </g>
    <g id="xtick_8">
     <g id="line2d_15">
      <path d="M 705.467619 501.3525 
L 705.467619 57.8325 
" clip-path="url(#pe44818d16b)" style="fill: none; stroke: #b0b0b0; stroke-opacity: 0.8; stroke-linecap: square"/>
     </g>
     <g id="line2d_16">
      <g>
       <use xlink:href="#md57ebe93ae" x="705.467619" y="501.3525" style="stroke: #000000; stroke-width: 0.8"/>
      </g>
     </g>
     <g id="text_8">
      <!-- 175 -->
      <g transform="translate(689.778557 521.49625) scale(0.2 -0.2)">
       <use xlink:href="#AptosDisplay-31"/>
       <use xlink:href="#AptosDisplay-37" x="52.294922"/>
       <use xlink:href="#AptosDisplay-35" x="104.589844"/>
      </g>
     </g>
    </g>
    <g id="xtick_9">
     <g id="line2d_17">
      <path d="M 119.533196 501.3525 
L 119.533196 57.8325 
" clip-path="url(#pe44818d16b)" style="fill: none; stroke-dasharray: 1.85,0.8; stroke-dashoffset: 0; stroke: #b0b0b0; stroke-opacity: 0.8; stroke-width: 0.5"/>
     </g>
     <g id="line2d_18">
      <defs>
       <path id="ma02ddb8348" d="M 0 0 
L 0 2 
" style="stroke: #000000; stroke-width: 0.6"/>
      </defs>
      <g>
       <use xlink:href="#ma02ddb8348" x="119.533196" y="501.3525" style="stroke: #000000; stroke-width: 0.6"/>
      </g>
     </g>
    </g>
    <g id="xtick_10">
     <g id="line2d_19">
      <path d="M 152.085108 501.3525 
L 152.085108 57.8325 
" clip-path="url(#pe44818d16b)" style="fill: none; stroke-dasharray: 1.85,0.8; stroke-dashoffset: 0; stroke: #b0b0b0; stroke-opacity: 0.8; stroke-width: 0.5"/>
     </g>
     <g id="line2d_20">
      <g>
       <use xlink:href="#ma02ddb8348" x="152.085108" y="501.3525" style="stroke: #000000; stroke-width: 0.6"/>
      </g>
     </g>
    </g>
    <g id="xtick_11">
     <g id="line2d_21">
      <path d="M 168.361064 501.3525 
L 168.361064 57.8325 
" clip-path="url(#pe44818d16b)" style="fill: none; stroke-dasharray: 1.85,0.8; stroke-dashoffset: 0; stroke: #b0b0b0; stroke-opacity: 0.8; stroke-width: 0.5"/>
     </g>
     <g id="line2d_22">
      <g>
       <use xlink:href="#ma02ddb8348" x="168.361064" y="501.3525" style="stroke: #000000; stroke-width: 0.6"/>
      </g>
     </g>
    </g>
    <g id="xtick_12">
     <g id="line2d_23">
      <path d="M 184.637021 501.3525 
L 184.637021 57.8325 
" clip-path="url(#pe44818d16b)" style="fill: none; stroke-dasharray: 1.85,0.8; stroke-dashoffset: 0; stroke: #b0b0b0; stroke-opacity: 0.8; stroke-width: 0.5"/>
     </g>
     <g id="line2d_24">
      <g>
       <use xlink:href="#ma02ddb8348" x="184.637021" y="501.3525" style="stroke: #000000; stroke-width: 0.6"/>
      </g>
     </g>
    </g>
    <g id="xtick_13">
     <g id="line2d_25">
      <path d="M 200.912977 501.3525 
L 200.912977 57.8325 
" clip-path="url(#pe44818d16b)" style="fill: none; stroke-dasharray: 1.85,0.8; stroke-dashoffset: 0; stroke: #b0b0b0; stroke-opacity: 0.8; stroke-width: 0.5"/>
     </g>
     <g id="line2d_26">
      <g>
       <use xlink:href="#ma02ddb8348" x="200.912977" y="501.3525" style="stroke: #000000; stroke-width: 0.6"/>
      </g>
     </g>
    </g>
    <g id="xtick_14">
     <g id="line2d_27">
      <path d="M 233.464889 501.3525 
L 233.464889 57.8325 
" clip-path="url(#pe44818d16b)" style="fill: none; stroke-dasharray: 1.85,0.8; stroke-dashoffset: 0; stroke: #b0b0b0; stroke-opacity: 0.8; stroke-width: 0.5"/>
     </g>
     <g id="line2d_28">
      <g>
       <use xlink:href="#ma02ddb8348" x="233.464889" y="501.3525" style="stroke: #000000; stroke-width: 0.6"/>
      </g>
     </g>
    </g>
    <g id="xtick_15">
     <g id="line2d_29">
      <path d="M 249.740846 501.3525 
L 249.740846 57.8325 
" clip-path="url(#pe44818d16b)" style="fill: none; stroke-dasharray: 1.85,0.8; stroke-dashoffset: 0; stroke: #b0b0b0; stroke-opacity: 0.8; stroke-width: 0.5"/>
     </g>
     <g id="line2d_30">
      <g>
       <use xlink:href="#ma02ddb8348" x="249.740846" y="501.3525" style="stroke: #000000; stroke-width: 0.6"/>
      </g>
     </g>
    </g>
    <g id="xtick_16">
     <g id="line2d_31">
      <path d="M 266.016802 501.3525 
L 266.016802 57.8325 
" clip-path="url(#pe44818d16b)" style="fill: none; stroke-dasharray: 1.85,0.8; stroke-dashoffset: 0; stroke: #b0b0b0; stroke-opacity: 0.8; stroke-width: 0.5"/>
     </g>
     <g id="line2d_32">
      <g>
       <use xlink:href="#ma02ddb8348" x="266.016802" y="501.3525" style="stroke: #000000; stroke-width: 0.6"/>
      </g>
     </g>
    </g>
    <g id="xtick_17">
     <g id="line2d_33">
      <path d="M 282.292758 501.3525 
L 282.292758 57.8325 
" clip-path="url(#pe44818d16b)" style="fill: none; stroke-dasharray: 1.85,0.8; stroke-dashoffset: 0; stroke: #b0b0b0; stroke-opacity: 0.8; stroke-width: 0.5"/>
     </g>
     <g id="line2d_34">
      <g>
       <use xlink:href="#ma02ddb8348" x="282.292758" y="501.3525" style="stroke: #000000; stroke-width: 0.6"/>
      </g>
     </g>
    </g>
    <g id="xtick_18">
     <g id="line2d_35">
      <path d="M 314.84467 501.3525 
L 314.84467 57.8325 
" clip-path="url(#pe44818d16b)" style="fill: none; stroke-dasharray: 1.85,0.8; stroke-dashoffset: 0; stroke: #b0b0b0; stroke-opacity: 0.8; stroke-width: 0.5"/>
     </g>
     <g id="line2d_36">
      <g>
       <use xlink:href="#ma02ddb8348" x="314.84467" y="501.3525" style="stroke: #000000; stroke-width: 0.6"/>
      </g>
     </g>
    </g>
    <g id="xtick_19">
     <g id="line2d_37">
      <path d="M 331.120627 501.3525 
L 331.120627 57.8325 
" clip-path="url(#pe44818d16b)" style="fill: none; stroke-dasharray: 1.85,0.8; stroke-dashoffset: 0; stroke: #b0b0b0; stroke-opacity: 0.8; stroke-width: 0.5"/>
     </g>
     <g id="line2d_38">
      <g>
       <use xlink:href="#ma02ddb8348" x="331.120627" y="501.3525" style="stroke: #000000; stroke-width: 0.6"/>
      </g>
     </g>
    </g>
    <g id="xtick_20">
     <g id="line2d_39">
      <path d="M 347.396583 501.3525 
L 347.396583 57.8325 
" clip-path="url(#pe44818d16b)" style="fill: none; stroke-dasharray: 1.85,0.8; stroke-dashoffset: 0; stroke: #b0b0b0; stroke-opacity: 0.8; stroke-width: 0.5"/>
     </g>
     <g id="line2d_40">
      <g>
       <use xlink:href="#ma02ddb8348" x="347.396583" y="501.3525" style="stroke: #000000; stroke-width: 0.6"/>
      </g>
     </g>
    </g>
    <g id="xtick_21">
     <g id="line2d_41">
      <path d="M 363.672539 501.3525 
L 363.672539 57.8325 
" clip-path="url(#pe44818d16b)" style="fill: none; stroke-dasharray: 1.85,0.8; stroke-dashoffset: 0; stroke: #b0b0b0; stroke-opacity: 0.8; stroke-width: 0.5"/>
     </g>
     <g id="line2d_42">
      <g>
       <use xlink:href="#ma02ddb8348" x="363.672539" y="501.3525" style="stroke: #000000; stroke-width: 0.6"/>
      </g>
     </g>
    </g>
    <g id="xtick_22">
     <g id="line2d_43">
      <path d="M 396.224451 501.3525 
L 396.224451 57.8325 
" clip-path="url(#pe44818d16b)" style="fill: none; stroke-dasharray: 1.85,0.8; stroke-dashoffset: 0; stroke: #b0b0b0; stroke-opacity: 0.8; stroke-width: 0.5"/>
     </g>
     <g id="line2d_44">
      <g>
       <use xlink:href="#ma02ddb8348" x="396.224451" y="501.3525" style="stroke: #000000; stroke-width: 0.6"/>
      </g>
     </g>
    </g>
    <g id="xtick_23">
     <g id="line2d_45">
      <path d="M 412.500408 501.3525 
L 412.500408 57.8325 
" clip-path="url(#pe44818d16b)" style="fill: none; stroke-dasharray: 1.85,0.8; stroke-dashoffset: 0; stroke: #b0b0b0; stroke-opacity: 0.8; stroke-width: 0.5"/>
     </g>
     <g id="line2d_46">
      <g>
       <use xlink:href="#ma02ddb8348" x="412.500408" y="501.3525" style="stroke: #000000; stroke-width: 0.6"/>
      </g>
     </g>
    </g>
    <g id="xtick_24">
     <g id="line2d_47">
      <path d="M 428.776364 501.3525 
L 428.776364 57.8325 
" clip-path="url(#pe44818d16b)" style="fill: none; stroke-dasharray: 1.85,0.8; stroke-dashoffset: 0; stroke: #b0b0b0; stroke-opacity: 0.8; stroke-width: 0.5"/>
     </g>
     <g id="line2d_48">
      <g>
       <use xlink:href="#ma02ddb8348" x="428.776364" y="501.3525" style="stroke: #000000; stroke-width: 0.6"/>
      </g>
     </g>
    </g>
    <g id="xtick_25">
     <g id="line2d_49">
      <path d="M 445.05232 501.3525 
L 445.05232 57.8325 
" clip-path="url(#pe44818d16b)" style="fill: none; stroke-dasharray: 1.85,0.8; stroke-dashoffset: 0; stroke: #b0b0b0; stroke-opacity: 0.8; stroke-width: 0.5"/>
     </g>
     <g id="line2d_50">
      <g>
       <use xlink:href="#ma02ddb8348" x="445.05232" y="501.3525" style="stroke: #000000; stroke-width: 0.6"/>
      </g>
     </g>
    </g>
    <g id="xtick_26">
     <g id="line2d_51">
      <path d="M 477.604232 501.3525 
L 477.604232 57.8325 
" clip-path="url(#pe44818d16b)" style="fill: none; stroke-dasharray: 1.85,0.8; stroke-dashoffset: 0; stroke: #b0b0b0; stroke-opacity: 0.8; stroke-width: 0.5"/>
     </g>
     <g id="line2d_52">
      <g>
       <use xlink:href="#ma02ddb8348" x="477.604232" y="501.3525" style="stroke: #000000; stroke-width: 0.6"/>
      </g>
     </g>
    </g>
    <g id="xtick_27">
     <g id="line2d_53">
      <path d="M 493.880189 501.3525 
L 493.880189 57.8325 
" clip-path="url(#pe44818d16b)" style="fill: none; stroke-dasharray: 1.85,0.8; stroke-dashoffset: 0; stroke: #b0b0b0; stroke-opacity: 0.8; stroke-width: 0.5"/>
     </g>
     <g id="line2d_54">
      <g>
       <use xlink:href="#ma02ddb8348" x="493.880189" y="501.3525" style="stroke: #000000; stroke-width: 0.6"/>
      </g>
     </g>
    </g>
    <g id="xtick_28">
     <g id="line2d_55">
      <path d="M 510.156145 501.3525 
L 510.156145 57.8325 
" clip-path="url(#pe44818d16b)" style="fill: none; stroke-dasharray: 1.85,0.8; stroke-dashoffset: 0; stroke: #b0b0b0; stroke-opacity: 0.8; stroke-width: 0.5"/>
     </g>
     <g id="line2d_56">
      <g>
       <use xlink:href="#ma02ddb8348" x="510.156145" y="501.3525" style="stroke: #000000; stroke-width: 0.6"/>
      </g>
     </g>
    </g>
    <g id="xtick_29">
     <g id="line2d_57">
      <path d="M 526.432101 501.3525 
L 526.432101 57.8325 
" clip-path="url(#pe44818d16b)" style="fill: none; stroke-dasharray: 1.85,0.8; stroke-dashoffset: 0; stroke: #b0b0b0; stroke-opacity: 0.8; stroke-width: 0.5"/>
     </g>
     <g id="line2d_58">
      <g>
       <use xlink:href="#ma02ddb8348" x="526.432101" y="501.3525" style="stroke: #000000; stroke-width: 0.6"/>
      </g>
     </g>
    </g>
    <g id="xtick_30">
     <g id="line2d_59">
      <path d="M 558.984014 501.3525 
L 558.984014 57.8325 
" clip-path="url(#pe44818d16b)" style="fill: none; stroke-dasharray: 1.85,0.8; stroke-dashoffset: 0; stroke: #b0b0b0; stroke-opacity: 0.8; stroke-width: 0.5"/>
     </g>
     <g id="line2d_60">
      <g>
       <use xlink:href="#ma02ddb8348" x="558.984014" y="501.3525" style="stroke: #000000; stroke-width: 0.6"/>
      </g>
     </g>
    </g>
    <g id="xtick_31">
     <g id="line2d_61">
      <path d="M 575.25997 501.3525 
L 575.25997 57.8325 
" clip-path="url(#pe44818d16b)" style="fill: none; stroke-dasharray: 1.85,0.8; stroke-dashoffset: 0; stroke: #b0b0b0; stroke-opacity: 0.8; stroke-width: 0.5"/>
     </g>
     <g id="line2d_62">
      <g>
       <use xlink:href="#ma02ddb8348" x="575.25997" y="501.3525" style="stroke: #000000; stroke-width: 0.6"/>
      </g>
     </g>
    </g>
    <g id="xtick_32">
     <g id="line2d_63">
      <path d="M 591.535926 501.3525 
L 591.535926 57.8325 
" clip-path="url(#pe44818d16b)" style="fill: none; stroke-dasharray: 1.85,0.8; stroke-dashoffset: 0; stroke: #b0b0b0; stroke-opacity: 0.8; stroke-width: 0.5"/>
     </g>
     <g id="line2d_64">
      <g>
       <use xlink:href="#ma02ddb8348" x="591.535926" y="501.3525" style="stroke: #000000; stroke-width: 0.6"/>
      </g>
     </g>
    </g>
    <g id="xtick_33">
     <g id="line2d_65">
      <path d="M 607.811882 501.3525 
L 607.811882 57.8325 
" clip-path="url(#pe44818d16b)" style="fill: none; stroke-dasharray: 1.85,0.8; stroke-dashoffset: 0; stroke: #b0b0b0; stroke-opacity: 0.8; stroke-width: 0.5"/>
     </g>
     <g id="line2d_66">
      <g>
       <use xlink:href="#ma02ddb8348" x="607.811882" y="501.3525" style="stroke: #000000; stroke-width: 0.6"/>
      </g>
     </g>
    </g>
    <g id="xtick_34">
     <g id="line2d_67">
      <path d="M 640.363795 501.3525 
L 640.363795 57.8325 
" clip-path="url(#pe44818d16b)" style="fill: none; stroke-dasharray: 1.85,0.8; stroke-dashoffset: 0; stroke: #b0b0b0; stroke-opacity: 0.8; stroke-width: 0.5"/>
     </g>
     <g id="line2d_68">
      <g>
       <use xlink:href="#ma02ddb8348" x="640.363795" y="501.3525" style="stroke: #000000; stroke-width: 0.6"/>
      </g>
     </g>
    </g>
    <g id="xtick_35">
     <g id="line2d_69">
      <path d="M 656.639751 501.3525 
L 656.639751 57.8325 
" clip-path="url(#pe44818d16b)" style="fill: none; stroke-dasharray: 1.85,0.8; stroke-dashoffset: 0; stroke: #b0b0b0; stroke-opacity: 0.8; stroke-width: 0.5"/>
     </g>
     <g id="line2d_70">
      <g>
       <use xlink:href="#ma02ddb8348" x="656.639751" y="501.3525" style="stroke: #000000; stroke-width: 0.6"/>
      </g>
     </g>
    </g>
    <g id="xtick_36">
     <g id="line2d_71">
      <path d="M 672.915707 501.3525 
L 672.915707 57.8325 
" clip-path="url(#pe44818d16b)" style="fill: none; stroke-dasharray: 1.85,0.8; stroke-dashoffset: 0; stroke: #b0b0b0; stroke-opacity: 0.8; stroke-width: 0.5"/>
     </g>
     <g id="line2d_72">
      <g>
       <use xlink:href="#ma02ddb8348" x="672.915707" y="501.3525" style="stroke: #000000; stroke-width: 0.6"/>
      </g>
     </g>
    </g>
    <g id="xtick_37">
     <g id="line2d_73">
      <path d="M 689.191663 501.3525 
L 689.191663 57.8325 
" clip-path="url(#pe44818d16b)" style="fill: none; stroke-dasharray: 1.85,0.8; stroke-dashoffset: 0; stroke: #b0b0b0; stroke-opacity: 0.8; stroke-width: 0.5"/>
     </g>
     <g id="line2d_74">
      <g>
       <use xlink:href="#ma02ddb8348" x="689.191663" y="501.3525" style="stroke: #000000; stroke-width: 0.6"/>
      </g>
     </g>
    </g>
    <g id="xtick_38">
     <g id="line2d_75">
      <path d="M 721.743576 501.3525 
L 721.743576 57.8325 
" clip-path="url(#pe44818d16b)" style="fill: none; stroke-dasharray: 1.85,0.8; stroke-dashoffset: 0; stroke: #b0b0b0; stroke-opacity: 0.8; stroke-width: 0.5"/>
     </g>
     <g id="line2d_76">
      <g>
       <use xlink:href="#ma02ddb8348" x="721.743576" y="501.3525" style="stroke: #000000; stroke-width: 0.6"/>
      </g>
     </g>
    </g>
    <g id="xtick_39">
     <g id="line2d_77">
      <path d="M 738.019532 501.3525 
L 738.019532 57.8325 
" clip-path="url(#pe44818d16b)" style="fill: none; stroke-dasharray: 1.85,0.8; stroke-dashoffset: 0; stroke: #b0b0b0; stroke-opacity: 0.8; stroke-width: 0.5"/>
     </g>
     <g id="line2d_78">
      <g>
       <use xlink:href="#ma02ddb8348" x="738.019532" y="501.3525" style="stroke: #000000; stroke-width: 0.6"/>
      </g>
     </g>
    </g>
    <g id="xtick_40">
     <g id="line2d_79">
      <path d="M 754.295488 501.3525 
L 754.295488 57.8325 
" clip-path="url(#pe44818d16b)" style="fill: none; stroke-dasharray: 1.85,0.8; stroke-dashoffset: 0; stroke: #b0b0b0; stroke-opacity: 0.8; stroke-width: 0.5"/>
     </g>
     <g id="line2d_80">
      <g>
       <use xlink:href="#ma02ddb8348" x="754.295488" y="501.3525" style="stroke: #000000; stroke-width: 0.6"/>
      </g>
     </g>
    </g>
    <g id="xtick_41">
     <g id="line2d_81">
      <path d="M 770.571444 501.3525 
L 770.571444 57.8325 
" clip-path="url(#pe44818d16b)" style="fill: none; stroke-dasharray: 1.85,0.8; stroke-dashoffset: 0; stroke: #b0b0b0; stroke-opacity: 0.8; stroke-width: 0.5"/>
     </g>
     <g id="line2d_82">
      <g>
       <use xlink:href="#ma02ddb8348" x="770.571444" y="501.3525" style="stroke: #000000; stroke-width: 0.6"/>
      </g>
     </g>
    </g>
    <g id="text_9">
     <!-- Time (S) -->
     <g transform="translate(407.45 542.305625) scale(0.2 -0.2)">
      <defs>
       <path id="AptosDisplay-54" d="M 1244 0 
L 1244 3734 
L 50 3734 
L 50 4206 
L 2997 4206 
L 2997 3734 
L 1806 3734 
L 1806 0 
L 1244 0 
z
" transform="scale(0.015625)"/>
       <path id="AptosDisplay-69" d="M 413 0 
L 413 3044 
L 934 3044 
L 934 0 
L 413 0 
z
M 675 3616 
Q 525 3616 437 3702 
Q 350 3788 350 3919 
Q 350 4050 437 4136 
Q 525 4222 675 4222 
Q 822 4222 912 4136 
Q 1003 4050 1003 3919 
Q 1003 3788 912 3702 
Q 822 3616 675 3616 
z
" transform="scale(0.015625)"/>
       <path id="AptosDisplay-6d" d="M 413 0 
L 413 3044 
L 919 3044 
L 931 2575 
Q 1063 2756 1303 2914 
Q 1544 3072 1903 3072 
Q 2403 3072 2618 2778 
Q 2834 2484 2834 1963 
L 2834 0 
L 2316 0 
L 2316 1891 
Q 2316 2106 2275 2275 
Q 2234 2444 2120 2539 
Q 2006 2634 1788 2634 
Q 1488 2634 1277 2482 
Q 1066 2331 934 2156 
L 934 0 
L 413 0 
z
M 4206 0 
L 4206 1891 
Q 4206 2106 4164 2275 
Q 4122 2444 4009 2539 
Q 3897 2634 3681 2634 
Q 3381 2634 3165 2484 
Q 2950 2334 2822 2159 
L 2744 2544 
Q 2916 2741 3175 2906 
Q 3434 3072 3800 3072 
Q 4291 3072 4509 2778 
Q 4728 2484 4728 1963 
L 4728 0 
L 4206 0 
z
" transform="scale(0.015625)"/>
       <path id="AptosDisplay-65" d="M 1663 -56 
Q 1188 -56 878 151 
Q 569 359 417 717 
Q 266 1075 266 1522 
Q 266 1988 412 2342 
Q 559 2697 857 2897 
Q 1156 3097 1606 3097 
Q 2209 3097 2550 2722 
Q 2891 2347 2891 1644 
Q 2891 1597 2889 1533 
Q 2888 1469 2881 1441 
L 791 1441 
Q 794 1144 881 895 
Q 969 647 1161 497 
Q 1353 347 1663 347 
Q 1997 347 2183 511 
Q 2369 675 2378 984 
L 2894 984 
Q 2884 663 2732 430 
Q 2581 197 2309 70 
Q 2038 -56 1663 -56 
z
M 794 1822 
L 2375 1822 
Q 2366 2247 2166 2472 
Q 1966 2697 1606 2697 
Q 1241 2697 1036 2473 
Q 831 2250 794 1822 
z
" transform="scale(0.015625)"/>
       <path id="AptosDisplay-20" transform="scale(0.015625)"/>
       <path id="AptosDisplay-28" d="M 1219 -1116 
Q 969 -678 787 -267 
Q 606 144 511 581 
Q 416 1019 416 1528 
Q 416 2028 509 2486 
Q 603 2944 783 3378 
Q 963 3813 1219 4231 
L 1647 4231 
Q 1278 3600 1101 2886 
Q 925 2172 925 1428 
Q 925 766 1125 103 
Q 1325 -559 1647 -1116 
L 1219 -1116 
z
" transform="scale(0.015625)"/>
       <path id="AptosDisplay-53" d="M 1778 -56 
Q 1328 -56 962 81 
Q 597 219 384 512 
Q 172 806 172 1275 
L 734 1275 
Q 738 941 883 750 
Q 1028 559 1267 481 
Q 1506 403 1794 403 
Q 2063 403 2283 483 
Q 2503 563 2634 723 
Q 2766 884 2766 1134 
Q 2766 1356 2662 1497 
Q 2559 1638 2321 1742 
Q 2084 1847 1678 1950 
Q 1203 2075 897 2223 
Q 591 2372 442 2594 
Q 294 2816 294 3156 
Q 294 3516 462 3761 
Q 631 4006 945 4134 
Q 1259 4263 1697 4263 
Q 2103 4263 2440 4131 
Q 2778 4000 2979 3737 
Q 3181 3475 3181 3084 
L 2616 3084 
Q 2622 3441 2356 3623 
Q 2091 3806 1700 3806 
Q 1300 3806 1073 3645 
Q 847 3484 847 3175 
Q 847 2991 944 2867 
Q 1041 2744 1280 2644 
Q 1519 2544 1941 2434 
Q 2428 2303 2731 2153 
Q 3034 2003 3178 1768 
Q 3322 1534 3322 1153 
Q 3322 747 3117 480 
Q 2913 213 2564 78 
Q 2216 -56 1778 -56 
z
" transform="scale(0.015625)"/>
       <path id="AptosDisplay-29" d="M 234 -1116 
Q 609 -481 786 233 
Q 963 947 963 1694 
Q 963 2356 759 3015 
Q 556 3675 234 4231 
L 663 4231 
Q 919 3800 1098 3389 
Q 1278 2978 1373 2540 
Q 1469 2103 1469 1594 
Q 1469 1094 1375 634 
Q 1281 175 1100 -259 
Q 919 -694 663 -1116 
L 234 -1116 
z
" transform="scale(0.015625)"/>
      </defs>
      <use xlink:href="#AptosDisplay-54"/>
      <use xlink:href="#AptosDisplay-69" x="47.705078"/>
      <use xlink:href="#AptosDisplay-6d" x="68.75"/>
      <use xlink:href="#AptosDisplay-65" x="148.730469"/>
      <use xlink:href="#AptosDisplay-20" x="198.144531"/>
      <use xlink:href="#AptosDisplay-28" x="217.431641"/>
      <use xlink:href="#AptosDisplay-53" x="246.875"/>
      <use xlink:href="#AptosDisplay-29" x="301.464844"/>
     </g>
    </g>
   </g>
   <g id="matplotlib.axis_2">
    <g id="ytick_1">
     <g id="line2d_83">
      <path d="M 105.740625 489.784901 
L 775.340625 489.784901 
" clip-path="url(#pe44818d16b)" style="fill: none; stroke: #b0b0b0; stroke-opacity: 0.8; stroke-linecap: square"/>
     </g>
     <g id="line2d_84">
      <defs>
       <path id="mc1c2440605" d="M 0 0 
L -3.5 0 
" style="stroke: #000000; stroke-width: 0.8"/>
      </defs>
      <g>
       <use xlink:href="#mc1c2440605" x="105.740625" y="489.784901" style="stroke: #000000; stroke-width: 0.8"/>
      </g>
     </g>
     <g id="text_10">
      <!-- 880 -->
      <g transform="translate(67.3625 496.356776) scale(0.2 -0.2)">
       <defs>
        <path id="AptosDisplay-38" d="M 1675 -56 
Q 1391 -56 1137 16 
Q 884 88 686 234 
Q 488 381 373 606 
Q 259 831 259 1141 
Q 259 1531 495 1797 
Q 731 2063 1084 2150 
Q 781 2250 604 2490 
Q 428 2731 428 3081 
Q 428 3447 609 3681 
Q 791 3916 1075 4025 
Q 1359 4134 1669 4134 
Q 1981 4134 2265 4023 
Q 2550 3913 2733 3680 
Q 2916 3447 2916 3081 
Q 2916 2725 2716 2481 
Q 2516 2238 2238 2150 
Q 2606 2063 2843 1800 
Q 3081 1538 3081 1141 
Q 3081 831 2968 606 
Q 2856 381 2661 234 
Q 2466 88 2211 16 
Q 1956 -56 1675 -56 
z
M 1672 388 
Q 1909 388 2109 470 
Q 2309 553 2429 725 
Q 2550 897 2550 1163 
Q 2550 1416 2426 1587 
Q 2303 1759 2104 1846 
Q 1906 1934 1672 1928 
Q 1453 1934 1253 1850 
Q 1053 1766 926 1594 
Q 800 1422 800 1163 
Q 800 775 1058 581 
Q 1316 388 1672 388 
z
M 1672 2363 
Q 1863 2356 2030 2434 
Q 2197 2513 2300 2667 
Q 2403 2822 2403 3050 
Q 2403 3388 2189 3544 
Q 1975 3700 1675 3700 
Q 1484 3700 1317 3631 
Q 1150 3563 1047 3419 
Q 944 3275 944 3050 
Q 944 2825 1048 2670 
Q 1153 2516 1320 2436 
Q 1488 2356 1672 2363 
z
" transform="scale(0.015625)"/>
       </defs>
       <use xlink:href="#AptosDisplay-38"/>
       <use xlink:href="#AptosDisplay-38" x="52.294922"/>
       <use xlink:href="#AptosDisplay-30" x="104.589844"/>
      </g>
     </g>
    </g>
    <g id="ytick_2">
     <g id="line2d_85">
      <path d="M 105.740625 423.511078 
L 775.340625 423.511078 
" clip-path="url(#pe44818d16b)" style="fill: none; stroke: #b0b0b0; stroke-opacity: 0.8; stroke-linecap: square"/>
     </g>
     <g id="line2d_86">
      <g>
       <use xlink:href="#mc1c2440605" x="105.740625" y="423.511078" style="stroke: #000000; stroke-width: 0.8"/>
      </g>
     </g>
     <g id="text_11">
      <!-- 900 -->
      <g transform="translate(67.3625 430.082953) scale(0.2 -0.2)">
       <defs>
        <path id="AptosDisplay-39" d="M 1547 -56 
Q 1200 -56 926 64 
Q 653 184 481 415 
Q 309 647 256 978 
L 788 978 
Q 834 713 1029 552 
Q 1225 391 1547 391 
Q 2022 391 2294 778 
Q 2566 1166 2566 2019 
L 2566 2197 
Q 2566 2753 2439 3079 
Q 2313 3406 2102 3547 
Q 1891 3688 1634 3688 
Q 1206 3688 998 3433 
Q 791 3178 791 2800 
Q 791 2422 991 2203 
Q 1191 1984 1547 1984 
Q 1831 1984 2045 2071 
Q 2259 2159 2417 2300 
Q 2575 2441 2681 2594 
L 2731 2209 
Q 2609 2038 2432 1884 
Q 2256 1731 2020 1634 
Q 1784 1538 1484 1538 
Q 1122 1538 842 1683 
Q 563 1828 405 2108 
Q 247 2388 247 2784 
Q 247 3175 414 3479 
Q 581 3784 892 3959 
Q 1203 4134 1631 4134 
Q 2056 4134 2389 3926 
Q 2722 3719 2914 3262 
Q 3106 2806 3106 2066 
Q 3106 1338 2912 869 
Q 2719 400 2369 172 
Q 2019 -56 1547 -56 
z
" transform="scale(0.015625)"/>
       </defs>
       <use xlink:href="#AptosDisplay-39"/>
       <use xlink:href="#AptosDisplay-30" x="52.294922"/>
       <use xlink:href="#AptosDisplay-30" x="104.589844"/>
      </g>
     </g>
    </g>
    <g id="ytick_3">
     <g id="line2d_87">
      <path d="M 105.740625 357.237255 
L 775.340625 357.237255 
" clip-path="url(#pe44818d16b)" style="fill: none; stroke: #b0b0b0; stroke-opacity: 0.8; stroke-linecap: square"/>
     </g>
     <g id="line2d_88">
      <g>
       <use xlink:href="#mc1c2440605" x="105.740625" y="357.237255" style="stroke: #000000; stroke-width: 0.8"/>
      </g>
     </g>
     <g id="text_12">
      <!-- 920 -->
      <g transform="translate(67.3625 363.80913) scale(0.2 -0.2)">
       <use xlink:href="#AptosDisplay-39"/>
       <use xlink:href="#AptosDisplay-32" x="52.294922"/>
       <use xlink:href="#AptosDisplay-30" x="104.589844"/>
      </g>
     </g>
    </g>
    <g id="ytick_4">
     <g id="line2d_89">
      <path d="M 105.740625 290.963431 
L 775.340625 290.963431 
" clip-path="url(#pe44818d16b)" style="fill: none; stroke: #b0b0b0; stroke-opacity: 0.8; stroke-linecap: square"/>
     </g>
     <g id="line2d_90">
      <g>
       <use xlink:href="#mc1c2440605" x="105.740625" y="290.963431" style="stroke: #000000; stroke-width: 0.8"/>
      </g>
     </g>
     <g id="text_13">
      <!-- 940 -->
      <g transform="translate(67.3625 297.535306) scale(0.2 -0.2)">
       <defs>
        <path id="AptosDisplay-34" d="M 2106 0 
L 2106 825 
L 125 825 
L 125 1297 
L 2100 4103 
L 2631 4103 
L 2631 1284 
L 3191 1284 
L 3191 825 
L 2631 825 
L 2631 0 
L 2106 0 
z
M 638 1284 
L 2113 1284 
L 2113 3369 
L 638 1284 
z
" transform="scale(0.015625)"/>
       </defs>
       <use xlink:href="#AptosDisplay-39"/>
       <use xlink:href="#AptosDisplay-34" x="52.294922"/>
       <use xlink:href="#AptosDisplay-30" x="104.589844"/>
      </g>
     </g>
    </g>
    <g id="ytick_5">
     <g id="line2d_91">
      <path d="M 105.740625 224.689608 
L 775.340625 224.689608 
" clip-path="url(#pe44818d16b)" style="fill: none; stroke: #b0b0b0; stroke-opacity: 0.8; stroke-linecap: square"/>
     </g>
     <g id="line2d_92">
      <g>
       <use xlink:href="#mc1c2440605" x="105.740625" y="224.689608" style="stroke: #000000; stroke-width: 0.8"/>
      </g>
     </g>
     <g id="text_14">
      <!-- 960 -->
      <g transform="translate(67.3625 231.261483) scale(0.2 -0.2)">
       <defs>
        <path id="AptosDisplay-36" d="M 1759 -56 
Q 1325 -56 984 151 
Q 644 359 447 815 
Q 250 1272 250 2013 
Q 250 2738 439 3206 
Q 628 3675 968 3903 
Q 1309 4131 1759 4131 
Q 2253 4131 2595 3875 
Q 2938 3619 3034 3097 
L 2503 3097 
Q 2441 3388 2250 3534 
Q 2059 3681 1759 3681 
Q 1306 3681 1047 3279 
Q 788 2878 788 2013 
L 788 1850 
Q 788 1313 922 992 
Q 1056 672 1279 531 
Q 1503 391 1763 391 
Q 2175 391 2369 644 
Q 2563 897 2563 1272 
Q 2563 1650 2373 1869 
Q 2184 2088 1838 2088 
Q 1422 2088 1114 1897 
Q 806 1706 644 1456 
L 597 1856 
Q 728 2047 922 2201 
Q 1116 2356 1362 2447 
Q 1609 2538 1909 2538 
Q 2253 2538 2523 2395 
Q 2794 2253 2951 1975 
Q 3109 1697 3109 1291 
Q 3109 897 2951 592 
Q 2794 288 2492 116 
Q 2191 -56 1759 -56 
z
" transform="scale(0.015625)"/>
       </defs>
       <use xlink:href="#AptosDisplay-39"/>
       <use xlink:href="#AptosDisplay-36" x="52.294922"/>
       <use xlink:href="#AptosDisplay-30" x="104.589844"/>
      </g>
     </g>
    </g>
    <g id="ytick_6">
     <g id="line2d_93">
      <path d="M 105.740625 158.415785 
L 775.340625 158.415785 
" clip-path="url(#pe44818d16b)" style="fill: none; stroke: #b0b0b0; stroke-opacity: 0.8; stroke-linecap: square"/>
     </g>
     <g id="line2d_94">
      <g>
       <use xlink:href="#mc1c2440605" x="105.740625" y="158.415785" style="stroke: #000000; stroke-width: 0.8"/>
      </g>
     </g>
     <g id="text_15">
      <!-- 980 -->
      <g transform="translate(67.3625 164.98766) scale(0.2 -0.2)">
       <use xlink:href="#AptosDisplay-39"/>
       <use xlink:href="#AptosDisplay-38" x="52.294922"/>
       <use xlink:href="#AptosDisplay-30" x="104.589844"/>
      </g>
     </g>
    </g>
    <g id="ytick_7">
     <g id="line2d_95">
      <path d="M 105.740625 92.141961 
L 775.340625 92.141961 
" clip-path="url(#pe44818d16b)" style="fill: none; stroke: #b0b0b0; stroke-opacity: 0.8; stroke-linecap: square"/>
     </g>
     <g id="line2d_96">
      <g>
       <use xlink:href="#mc1c2440605" x="105.740625" y="92.141961" style="stroke: #000000; stroke-width: 0.8"/>
      </g>
     </g>
     <g id="text_16">
      <!-- 1000 -->
      <g transform="translate(56.903125 98.713836) scale(0.2 -0.2)">
       <use xlink:href="#AptosDisplay-31"/>
       <use xlink:href="#AptosDisplay-30" x="52.294922"/>
       <use xlink:href="#AptosDisplay-30" x="104.589844"/>
       <use xlink:href="#AptosDisplay-30" x="156.884766"/>
      </g>
     </g>
    </g>
    <g id="ytick_8">
     <g id="line2d_97">
      <path d="M 105.740625 473.216445 
L 775.340625 473.216445 
" clip-path="url(#pe44818d16b)" style="fill: none; stroke-dasharray: 1.85,0.8; stroke-dashoffset: 0; stroke: #b0b0b0; stroke-opacity: 0.8; stroke-width: 0.5"/>
     </g>
     <g id="line2d_98">
      <defs>
       <path id="m16505ff59a" d="M 0 0 
L -2 0 
" style="stroke: #000000; stroke-width: 0.6"/>
      </defs>
      <g>
       <use xlink:href="#m16505ff59a" x="105.740625" y="473.216445" style="stroke: #000000; stroke-width: 0.6"/>
      </g>
     </g>
    </g>
    <g id="ytick_9">
     <g id="line2d_99">
      <path d="M 105.740625 456.64799 
L 775.340625 456.64799 
" clip-path="url(#pe44818d16b)" style="fill: none; stroke-dasharray: 1.85,0.8; stroke-dashoffset: 0; stroke: #b0b0b0; stroke-opacity: 0.8; stroke-width: 0.5"/>
     </g>
     <g id="line2d_100">
      <g>
       <use xlink:href="#m16505ff59a" x="105.740625" y="456.64799" style="stroke: #000000; stroke-width: 0.6"/>
      </g>
     </g>
    </g>
    <g id="ytick_10">
     <g id="line2d_101">
      <path d="M 105.740625 440.079534 
L 775.340625 440.079534 
" clip-path="url(#pe44818d16b)" style="fill: none; stroke-dasharray: 1.85,0.8; stroke-dashoffset: 0; stroke: #b0b0b0; stroke-opacity: 0.8; stroke-width: 0.5"/>
     </g>
     <g id="line2d_102">
      <g>
       <use xlink:href="#m16505ff59a" x="105.740625" y="440.079534" style="stroke: #000000; stroke-width: 0.6"/>
      </g>
     </g>
    </g>
    <g id="ytick_11">
     <g id="line2d_103">
      <path d="M 105.740625 406.942622 
L 775.340625 406.942622 
" clip-path="url(#pe44818d16b)" style="fill: none; stroke-dasharray: 1.85,0.8; stroke-dashoffset: 0; stroke: #b0b0b0; stroke-opacity: 0.8; stroke-width: 0.5"/>
     </g>
     <g id="line2d_104">
      <g>
       <use xlink:href="#m16505ff59a" x="105.740625" y="406.942622" style="stroke: #000000; stroke-width: 0.6"/>
      </g>
     </g>
    </g>
    <g id="ytick_12">
     <g id="line2d_105">
      <path d="M 105.740625 390.374166 
L 775.340625 390.374166 
" clip-path="url(#pe44818d16b)" style="fill: none; stroke-dasharray: 1.85,0.8; stroke-dashoffset: 0; stroke: #b0b0b0; stroke-opacity: 0.8; stroke-width: 0.5"/>
     </g>
     <g id="line2d_106">
      <g>
       <use xlink:href="#m16505ff59a" x="105.740625" y="390.374166" style="stroke: #000000; stroke-width: 0.6"/>
      </g>
     </g>
    </g>
    <g id="ytick_13">
     <g id="line2d_107">
      <path d="M 105.740625 373.80571 
L 775.340625 373.80571 
" clip-path="url(#pe44818d16b)" style="fill: none; stroke-dasharray: 1.85,0.8; stroke-dashoffset: 0; stroke: #b0b0b0; stroke-opacity: 0.8; stroke-width: 0.5"/>
     </g>
     <g id="line2d_108">
      <g>
       <use xlink:href="#m16505ff59a" x="105.740625" y="373.80571" style="stroke: #000000; stroke-width: 0.6"/>
      </g>
     </g>
    </g>
    <g id="ytick_14">
     <g id="line2d_109">
      <path d="M 105.740625 340.668799 
L 775.340625 340.668799 
" clip-path="url(#pe44818d16b)" style="fill: none; stroke-dasharray: 1.85,0.8; stroke-dashoffset: 0; stroke: #b0b0b0; stroke-opacity: 0.8; stroke-width: 0.5"/>
     </g>
     <g id="line2d_110">
      <g>
       <use xlink:href="#m16505ff59a" x="105.740625" y="340.668799" style="stroke: #000000; stroke-width: 0.6"/>
      </g>
     </g>
    </g>
    <g id="ytick_15">
     <g id="line2d_111">
      <path d="M 105.740625 324.100343 
L 775.340625 324.100343 
" clip-path="url(#pe44818d16b)" style="fill: none; stroke-dasharray: 1.85,0.8; stroke-dashoffset: 0; stroke: #b0b0b0; stroke-opacity: 0.8; stroke-width: 0.5"/>
     </g>
     <g id="line2d_112">
      <g>
       <use xlink:href="#m16505ff59a" x="105.740625" y="324.100343" style="stroke: #000000; stroke-width: 0.6"/>
      </g>
     </g>
    </g>
    <g id="ytick_16">
     <g id="line2d_113">
      <path d="M 105.740625 307.531887 
L 775.340625 307.531887 
" clip-path="url(#pe44818d16b)" style="fill: none; stroke-dasharray: 1.85,0.8; stroke-dashoffset: 0; stroke: #b0b0b0; stroke-opacity: 0.8; stroke-width: 0.5"/>
     </g>
     <g id="line2d_114">
      <g>
       <use xlink:href="#m16505ff59a" x="105.740625" y="307.531887" style="stroke: #000000; stroke-width: 0.6"/>
      </g>
     </g>
    </g>
    <g id="ytick_17">
     <g id="line2d_115">
      <path d="M 105.740625 274.394975 
L 775.340625 274.394975 
" clip-path="url(#pe44818d16b)" style="fill: none; stroke-dasharray: 1.85,0.8; stroke-dashoffset: 0; stroke: #b0b0b0; stroke-opacity: 0.8; stroke-width: 0.5"/>
     </g>
     <g id="line2d_116">
      <g>
       <use xlink:href="#m16505ff59a" x="105.740625" y="274.394975" style="stroke: #000000; stroke-width: 0.6"/>
      </g>
     </g>
    </g>
    <g id="ytick_18">
     <g id="line2d_117">
      <path d="M 105.740625 257.82652 
L 775.340625 257.82652 
" clip-path="url(#pe44818d16b)" style="fill: none; stroke-dasharray: 1.85,0.8; stroke-dashoffset: 0; stroke: #b0b0b0; stroke-opacity: 0.8; stroke-width: 0.5"/>
     </g>
     <g id="line2d_118">
      <g>
       <use xlink:href="#m16505ff59a" x="105.740625" y="257.82652" style="stroke: #000000; stroke-width: 0.6"/>
      </g>
     </g>
    </g>
    <g id="ytick_19">
     <g id="line2d_119">
      <path d="M 105.740625 241.258064 
L 775.340625 241.258064 
" clip-path="url(#pe44818d16b)" style="fill: none; stroke-dasharray: 1.85,0.8; stroke-dashoffset: 0; stroke: #b0b0b0; stroke-opacity: 0.8; stroke-width: 0.5"/>
     </g>
     <g id="line2d_120">
      <g>
       <use xlink:href="#m16505ff59a" x="105.740625" y="241.258064" style="stroke: #000000; stroke-width: 0.6"/>
      </g>
     </g>
    </g>
    <g id="ytick_20">
     <g id="line2d_121">
      <path d="M 105.740625 208.121152 
L 775.340625 208.121152 
" clip-path="url(#pe44818d16b)" style="fill: none; stroke-dasharray: 1.85,0.8; stroke-dashoffset: 0; stroke: #b0b0b0; stroke-opacity: 0.8; stroke-width: 0.5"/>
     </g>
     <g id="line2d_122">
      <g>
       <use xlink:href="#m16505ff59a" x="105.740625" y="208.121152" style="stroke: #000000; stroke-width: 0.6"/>
      </g>
     </g>
    </g>
    <g id="ytick_21">
     <g id="line2d_123">
      <path d="M 105.740625 191.552696 
L 775.340625 191.552696 
" clip-path="url(#pe44818d16b)" style="fill: none; stroke-dasharray: 1.85,0.8; stroke-dashoffset: 0; stroke: #b0b0b0; stroke-opacity: 0.8; stroke-width: 0.5"/>
     </g>
     <g id="line2d_124">
      <g>
       <use xlink:href="#m16505ff59a" x="105.740625" y="191.552696" style="stroke: #000000; stroke-width: 0.6"/>
      </g>
     </g>
    </g>
    <g id="ytick_22">
     <g id="line2d_125">
      <path d="M 105.740625 174.98424 
L 775.340625 174.98424 
" clip-path="url(#pe44818d16b)" style="fill: none; stroke-dasharray: 1.85,0.8; stroke-dashoffset: 0; stroke: #b0b0b0; stroke-opacity: 0.8; stroke-width: 0.5"/>
     </g>
     <g id="line2d_126">
      <g>
       <use xlink:href="#m16505ff59a" x="105.740625" y="174.98424" style="stroke: #000000; stroke-width: 0.6"/>
      </g>
     </g>
    </g>
    <g id="ytick_23">
     <g id="line2d_127">
      <path d="M 105.740625 141.847329 
L 775.340625 141.847329 
" clip-path="url(#pe44818d16b)" style="fill: none; stroke-dasharray: 1.85,0.8; stroke-dashoffset: 0; stroke: #b0b0b0; stroke-opacity: 0.8; stroke-width: 0.5"/>
     </g>
     <g id="line2d_128">
      <g>
       <use xlink:href="#m16505ff59a" x="105.740625" y="141.847329" style="stroke: #000000; stroke-width: 0.6"/>
      </g>
     </g>
    </g>
    <g id="ytick_24">
     <g id="line2d_129">
      <path d="M 105.740625 125.278873 
L 775.340625 125.278873 
" clip-path="url(#pe44818d16b)" style="fill: none; stroke-dasharray: 1.85,0.8; stroke-dashoffset: 0; stroke: #b0b0b0; stroke-opacity: 0.8; stroke-width: 0.5"/>
     </g>
     <g id="line2d_130">
      <g>
       <use xlink:href="#m16505ff59a" x="105.740625" y="125.278873" style="stroke: #000000; stroke-width: 0.6"/>
      </g>
     </g>
    </g>
    <g id="ytick_25">
     <g id="line2d_131">
      <path d="M 105.740625 108.710417 
L 775.340625 108.710417 
" clip-path="url(#pe44818d16b)" style="fill: none; stroke-dasharray: 1.85,0.8; stroke-dashoffset: 0; stroke: #b0b0b0; stroke-opacity: 0.8; stroke-width: 0.5"/>
     </g>
     <g id="line2d_132">
      <g>
       <use xlink:href="#m16505ff59a" x="105.740625" y="108.710417" style="stroke: #000000; stroke-width: 0.6"/>
      </g>
     </g>
    </g>
    <g id="ytick_26">
     <g id="line2d_133">
      <path d="M 105.740625 75.573505 
L 775.340625 75.573505 
" clip-path="url(#pe44818d16b)" style="fill: none; stroke-dasharray: 1.85,0.8; stroke-dashoffset: 0; stroke: #b0b0b0; stroke-opacity: 0.8; stroke-width: 0.5"/>
     </g>
     <g id="line2d_134">
      <g>
       <use xlink:href="#m16505ff59a" x="105.740625" y="75.573505" style="stroke: #000000; stroke-width: 0.6"/>
      </g>
     </g>
    </g>
    <g id="ytick_27">
     <g id="line2d_135">
      <path d="M 105.740625 59.00505 
L 775.340625 59.00505 
" clip-path="url(#pe44818d16b)" style="fill: none; stroke-dasharray: 1.85,0.8; stroke-dashoffset: 0; stroke: #b0b0b0; stroke-opacity: 0.8; stroke-width: 0.5"/>
     </g>
     <g id="line2d_136">
      <g>
       <use xlink:href="#m16505ff59a" x="105.740625" y="59.00505" style="stroke: #000000; stroke-width: 0.6"/>
      </g>
     </g>
    </g>
    <g id="text_17">
     <!-- Light (W/m^2) -->
     <g transform="translate(49.221875 337.558125) rotate(-90) scale(0.2 -0.2)">
      <defs>
       <path id="AptosDisplay-4c" d="M 472 0 
L 472 4206 
L 1034 4206 
L 1034 484 
L 3000 484 
L 3000 0 
L 472 0 
z
" transform="scale(0.015625)"/>
       <path id="AptosDisplay-67" d="M 1397 -1178 
Q 925 -1178 640 -1065 
Q 356 -953 229 -765 
Q 103 -578 103 -359 
Q 103 -94 329 112 
Q 556 319 1031 403 
L 1128 575 
L 1475 575 
Q 2184 575 2489 376 
Q 2794 178 2794 -238 
Q 2794 -650 2437 -914 
Q 2081 -1178 1397 -1178 
z
M 1384 -800 
Q 1878 -800 2086 -650 
Q 2294 -500 2294 -278 
Q 2294 -147 2225 -51 
Q 2156 44 1975 97 
Q 1794 150 1456 150 
L 1034 150 
Q 819 97 708 -31 
Q 597 -159 597 -328 
Q 597 -516 778 -658 
Q 959 -800 1384 -800 
z
M 1025 216 
Q 722 228 550 312 
Q 378 397 306 511 
Q 234 625 234 722 
Q 234 866 362 1009 
Q 491 1153 772 1241 
L 1038 1069 
Q 866 1031 772 953 
Q 678 875 678 791 
Q 678 731 734 682 
Q 791 634 928 606 
Q 1066 578 1303 575 
L 1025 216 
z
M 1363 984 
Q 1003 984 753 1128 
Q 503 1272 375 1509 
Q 247 1747 247 2022 
Q 247 2313 376 2550 
Q 506 2788 754 2928 
Q 1003 3069 1366 3069 
Q 1738 3069 1983 2928 
Q 2228 2788 2351 2550 
Q 2475 2313 2475 2022 
Q 2475 1741 2350 1505 
Q 2225 1269 1979 1126 
Q 1734 984 1363 984 
z
M 1366 1341 
Q 1641 1341 1812 1512 
Q 1984 1684 1984 2022 
Q 1984 2375 1817 2545 
Q 1650 2716 1372 2716 
Q 1094 2716 919 2541 
Q 744 2366 744 2025 
Q 744 1681 931 1511 
Q 1119 1341 1366 1341 
z
M 2131 2734 
L 1922 2931 
Q 2038 3225 2252 3331 
Q 2466 3438 2794 3447 
L 2794 3006 
Q 2588 3006 2416 2961 
Q 2244 2916 2131 2734 
z
" transform="scale(0.015625)"/>
       <path id="AptosDisplay-68" d="M 413 0 
L 413 4206 
L 931 4206 
L 931 2575 
Q 1069 2756 1317 2914 
Q 1566 3072 1950 3072 
Q 2428 3072 2637 2783 
Q 2847 2494 2847 1963 
L 2847 0 
L 2328 0 
L 2328 1891 
Q 2328 2106 2287 2275 
Q 2247 2444 2139 2539 
Q 2031 2634 1822 2634 
Q 1503 2634 1284 2482 
Q 1066 2331 934 2156 
L 934 0 
L 413 0 
z
" transform="scale(0.015625)"/>
       <path id="AptosDisplay-74" d="M 1466 0 
Q 1100 0 901 117 
Q 703 234 629 454 
Q 556 675 556 984 
L 556 2622 
L 50 2622 
L 50 3044 
L 556 3044 
L 556 3741 
L 1078 3741 
L 1078 3044 
L 1831 3044 
L 1831 2622 
L 1078 2622 
L 1078 1009 
Q 1078 725 1151 575 
Q 1225 425 1500 425 
L 1831 425 
L 1831 0 
L 1466 0 
z
" transform="scale(0.015625)"/>
       <path id="AptosDisplay-57" d="M 1216 0 
L -13 4206 
L 575 4206 
L 1525 697 
L 2531 4206 
L 3156 4206 
L 4163 697 
L 5119 4206 
L 5681 4206 
L 4453 0 
L 3866 0 
L 2831 3556 
L 1813 0 
L 1216 0 
z
" transform="scale(0.015625)"/>
       <path id="AptosDisplay-2f" d="M 72 0 
L 1603 4206 
L 2100 4206 
L 569 0 
L 72 0 
z
" transform="scale(0.015625)"/>
       <path id="AptosDisplay-5e" d="M 428 2438 
L 1459 4206 
L 1884 4206 
L 2916 2438 
L 2366 2438 
L 1672 3650 
L 978 2438 
L 428 2438 
z
" transform="scale(0.015625)"/>
      </defs>
      <use xlink:href="#AptosDisplay-4c"/>
      <use xlink:href="#AptosDisplay-69" x="48.4375"/>
      <use xlink:href="#AptosDisplay-67" x="69.482422"/>
      <use xlink:href="#AptosDisplay-68" x="113.427734"/>
      <use xlink:href="#AptosDisplay-74" x="164.013672"/>
      <use xlink:href="#AptosDisplay-20" x="194.384766"/>
      <use xlink:href="#AptosDisplay-28" x="213.671875"/>
      <use xlink:href="#AptosDisplay-57" x="243.115234"/>
      <use xlink:href="#AptosDisplay-2f" x="331.689453"/>
      <use xlink:href="#AptosDisplay-6d" x="365.625"/>
      <use xlink:href="#AptosDisplay-5e" x="445.605469"/>
      <use xlink:href="#AptosDisplay-32" x="497.900391"/>
      <use xlink:href="#AptosDisplay-29" x="550.195312"/>
     </g>
    </g>
   </g>
   <g id="line2d_137">
    <path d="M 136.176989 351.1732 
L 136.828027 345.331162 
L 137.479065 336.566449 
L 138.130103 335.105111 
L 138.781142 349.715176 
L 139.43218 343.869824 
L 140.083218 355.557213 
L 140.734256 352.634538 
L 141.385295 358.479889 
L 142.036333 352.634538 
L 142.687371 364.321926 
L 143.338409 354.095875 
L 143.989448 364.321926 
L 144.640486 367.244602 
L 145.291524 361.399251 
L 145.942562 386.235366 
L 146.593601 362.860588 
L 147.244639 359.941227 
L 147.895677 370.167277 
L 148.546715 355.557213 
L 149.197754 357.018551 
L 149.848792 367.244602 
L 150.49983 359.941227 
L 151.150868 358.479889 
L 151.801907 352.634538 
L 152.452945 357.018551 
L 153.103983 343.869824 
L 153.755021 354.095875 
L 154.40606 323.417723 
L 155.057098 355.557213 
L 155.708136 352.634538 
L 156.359174 352.634538 
L 157.010213 348.253838 
L 157.661251 340.947149 
L 158.312289 345.331162 
L 158.963327 343.869824 
L 159.614366 348.253838 
L 160.265404 317.575685 
L 160.916442 340.947149 
L 161.56748 345.331162 
L 162.218519 340.947149 
L 162.869557 343.869824 
L 163.520595 335.105111 
L 164.171633 339.489125 
L 164.822672 335.105111 
L 165.47371 342.408487 
L 166.124748 338.027787 
L 166.775786 335.105111 
L 167.426825 349.715176 
L 168.077863 314.653009 
L 168.728901 336.566449 
L 169.379939 335.105111 
L 171.333054 335.105111 
L 171.984092 339.489125 
L 172.635131 338.027787 
L 173.286169 330.721098 
L 173.937207 342.408487 
L 174.588245 330.721098 
L 175.239284 335.105111 
L 175.890322 321.956385 
L 176.54136 332.182436 
L 177.192398 335.105111 
L 177.843437 332.182436 
L 178.494475 327.801736 
L 179.145513 327.801736 
L 179.796551 330.721098 
L 180.44759 330.721098 
L 181.098628 345.331162 
L 181.749666 324.87906 
L 182.400704 330.721098 
L 183.051743 319.037023 
L 183.702781 329.263074 
L 184.353819 323.417723 
L 185.004857 324.87906 
L 185.655896 321.956385 
L 186.306934 320.495047 
L 186.957972 324.87906 
L 187.60901 324.87906 
L 188.260049 320.495047 
L 188.911087 324.87906 
L 189.562125 314.653009 
L 190.213163 330.721098 
L 190.864202 320.495047 
L 191.51524 321.956385 
L 192.166278 330.721098 
L 192.817316 336.566449 
L 193.468355 321.956385 
L 194.119393 336.566449 
L 194.770431 326.340398 
L 195.421469 263.522755 
L 196.072507 326.340398 
L 196.723546 324.87906 
L 197.374584 321.956385 
L 198.025622 311.730334 
L 198.67666 346.7925 
L 199.327699 326.340398 
L 199.978737 332.182436 
L 200.629775 324.87906 
L 201.280813 327.801736 
L 202.58289 345.331162 
L 203.233928 342.408487 
L 203.884966 342.408487 
L 204.536005 345.331162 
L 205.187043 345.331162 
L 205.838081 343.869824 
L 206.489119 329.263074 
L 207.140158 340.947149 
L 207.791196 339.489125 
L 208.442234 351.1732 
L 209.093272 348.253838 
L 209.744311 352.634538 
L 210.395349 359.941227 
L 211.046387 348.253838 
L 211.697425 359.941227 
L 212.348464 368.70594 
L 212.999502 351.1732 
L 213.65054 348.253838 
L 214.301578 351.1732 
L 214.952617 349.715176 
L 215.603655 355.557213 
L 216.254693 354.095875 
L 216.905731 355.557213 
L 217.55677 352.634538 
L 218.207808 345.331162 
L 218.858846 351.1732 
L 219.509884 354.095875 
L 220.160923 345.331162 
L 220.811961 348.253838 
L 221.462999 311.730334 
L 222.114037 346.7925 
L 222.765076 352.634538 
L 223.416114 346.7925 
L 224.067152 346.7925 
L 224.71819 352.634538 
L 225.369229 348.253838 
L 226.020267 345.331162 
L 226.671305 345.331162 
L 227.322343 343.869824 
L 227.973382 340.947149 
L 228.62442 343.869824 
L 229.275458 340.947149 
L 229.926496 355.557213 
L 230.577535 335.105111 
L 231.228573 346.7925 
L 231.879611 346.7925 
L 232.530649 348.253838 
L 233.181688 357.018551 
L 233.832726 361.399251 
L 234.483764 367.244602 
L 235.134802 367.244602 
L 235.785841 384.774028 
L 236.436879 378.931991 
L 237.087917 389.158042 
L 238.389994 389.158042 
L 239.041032 405.22613 
L 239.69207 405.22613 
L 240.343108 393.538741 
L 240.994147 395.000079 
L 241.645185 395.000079 
L 242.296223 389.158042 
L 243.5983 386.235366 
L 244.249338 378.931991 
L 244.900376 403.764792 
L 245.551414 374.547977 
L 246.202453 384.774028 
L 246.853491 371.625302 
L 247.504529 373.086639 
L 248.155567 371.625302 
L 248.806606 269.364792 
L 249.457644 374.547977 
L 250.108682 362.860588 
L 250.75972 387.696704 
L 251.410759 361.399251 
L 252.061797 361.399251 
L 252.712835 351.1732 
L 253.363873 355.557213 
L 254.014912 355.557213 
L 254.66595 364.321926 
L 255.316988 362.860588 
L 255.968026 362.860588 
L 256.619065 361.399251 
L 257.270103 362.860588 
L 257.921141 368.70594 
L 258.572179 367.244602 
L 259.223218 362.860588 
L 259.874256 365.783264 
L 260.525294 371.625302 
L 261.176332 364.321926 
L 261.827371 367.244602 
L 262.478409 362.860588 
L 263.129447 364.321926 
L 263.780485 362.860588 
L 264.431524 362.860588 
L 265.082562 358.479889 
L 265.7336 362.860588 
L 266.384638 354.095875 
L 267.035677 435.904283 
L 267.686715 365.783264 
L 268.337753 424.216894 
L 268.988791 354.095875 
L 269.63983 361.399251 
L 270.290868 357.018551 
L 270.941906 351.1732 
L 271.592944 349.715176 
L 272.243983 351.1732 
L 272.895021 355.557213 
L 273.546059 349.715176 
L 274.197097 351.1732 
L 274.848136 348.253838 
L 275.499174 352.634538 
L 276.150212 338.027787 
L 276.80125 343.869824 
L 277.452289 345.331162 
L 278.103327 345.331162 
L 278.754365 339.489125 
L 279.405403 339.489125 
L 280.056442 335.105111 
L 280.70748 335.105111 
L 281.358518 336.566449 
L 282.009556 336.566449 
L 282.660595 346.7925 
L 283.962671 338.027787 
L 284.613709 336.566449 
L 285.264748 336.566449 
L 285.915786 332.182436 
L 286.566824 330.721098 
L 287.217862 332.182436 
L 287.868901 332.182436 
L 288.519939 323.417723 
L 289.170977 320.495047 
L 289.822015 298.584921 
L 290.473054 327.801736 
L 291.124092 308.810972 
L 291.77513 313.191672 
L 292.426168 314.653009 
L 293.077207 323.417723 
L 293.728245 316.114347 
L 294.379283 412.529505 
L 295.030321 301.504283 
L 295.68136 305.888296 
L 297.634474 297.123583 
L 298.285513 304.426958 
L 298.936551 298.584921 
L 299.587589 283.974857 
L 300.238627 305.888296 
L 300.889666 297.123583 
L 301.540704 292.73957 
L 302.191742 301.504283 
L 302.84278 298.584921 
L 303.493819 300.042945 
L 304.148112 302.965621 
L 304.79915 297.123583 
L 305.450188 292.73957 
L 306.101227 297.123583 
L 306.752265 295.662245 
L 307.403303 302.965621 
L 308.054341 295.662245 
L 308.70538 292.73957 
L 310.007456 298.584921 
L 310.658494 292.73957 
L 311.309533 294.200908 
L 311.960571 292.73957 
L 312.611609 294.200908 
L 313.262647 291.278232 
L 313.913686 295.662245 
L 314.564724 289.816894 
L 315.215762 434.442945 
L 315.8668 311.730334 
L 316.517839 294.200908 
L 317.168877 330.721098 
L 317.819915 292.73957 
L 318.470953 300.042945 
L 319.121992 298.584921 
L 320.424068 298.584921 
L 321.075106 302.965621 
L 321.726145 304.426958 
L 322.377183 308.810972 
L 323.028221 327.801736 
L 323.679259 305.888296 
L 324.330298 308.810972 
L 324.981336 308.810972 
L 325.632374 304.426958 
L 326.283412 317.575685 
L 326.934451 311.730334 
L 327.585489 338.027787 
L 328.236527 313.191672 
L 328.887565 313.191672 
L 329.538604 302.965621 
L 330.189642 295.662245 
L 332.793795 314.653009 
L 333.444833 313.191672 
L 334.095871 317.575685 
L 334.74691 310.268996 
L 335.397948 316.114347 
L 336.048986 314.653009 
L 336.700024 324.87906 
L 337.351063 317.575685 
L 338.002101 321.956385 
L 338.653139 321.956385 
L 339.304177 324.87906 
L 339.955216 326.340398 
L 340.606254 326.340398 
L 341.257292 321.956385 
L 341.90833 330.721098 
L 342.559369 326.340398 
L 343.210407 206.550462 
L 343.861445 332.182436 
L 344.512483 327.801736 
L 345.163522 329.263074 
L 345.81456 336.566449 
L 346.465598 330.721098 
L 347.116636 327.801736 
L 347.767675 327.801736 
L 348.418713 329.263074 
L 349.069751 324.87906 
L 349.720789 327.801736 
L 350.371828 323.417723 
L 351.022866 311.730334 
L 351.673904 330.721098 
L 352.324942 327.801736 
L 352.975981 327.801736 
L 353.627019 324.87906 
L 354.278057 326.340398 
L 354.929095 323.417723 
L 355.580134 333.643773 
L 356.231172 320.495047 
L 356.88221 333.643773 
L 357.533248 333.643773 
L 358.184287 329.263074 
L 358.835325 326.340398 
L 359.486363 321.956385 
L 360.137401 327.801736 
L 360.78844 323.417723 
L 361.439478 327.801736 
L 362.090516 327.801736 
L 362.741554 320.495047 
L 363.392593 320.495047 
L 364.043631 332.182436 
L 364.694669 333.643773 
L 365.345707 345.331162 
L 365.996746 286.897532 
L 366.647784 323.417723 
L 367.298822 327.801736 
L 367.94986 321.956385 
L 368.600899 314.653009 
L 369.251937 327.801736 
L 369.902975 314.653009 
L 370.554013 319.037023 
L 371.205052 313.191672 
L 371.85609 320.495047 
L 373.158166 314.653009 
L 373.809205 307.349634 
L 374.460243 308.810972 
L 375.111281 304.426958 
L 375.762319 310.268996 
L 376.413358 307.349634 
L 377.064396 313.191672 
L 377.715434 310.268996 
L 378.366472 313.191672 
L 379.017511 308.810972 
L 379.668549 307.349634 
L 380.319587 308.810972 
L 380.970625 301.504283 
L 381.621664 300.042945 
L 382.272702 278.132819 
L 382.92374 297.123583 
L 383.574778 245.993328 
L 384.225817 371.625302 
L 384.876855 300.042945 
L 385.527893 275.210143 
L 386.178931 308.810972 
L 386.829969 321.956385 
L 387.481008 292.73957 
L 388.132046 286.897532 
L 388.783084 294.200908 
L 389.434122 285.436194 
L 390.085161 288.35887 
L 390.736199 278.132819 
L 391.387237 288.35887 
L 392.038275 283.974857 
L 392.689314 281.052181 
L 393.340352 286.897532 
L 393.99139 275.210143 
L 394.642428 285.436194 
L 395.293467 291.278232 
L 395.944505 288.35887 
L 396.595543 294.200908 
L 397.246581 285.436194 
L 397.89762 289.816894 
L 398.548658 292.73957 
L 399.199696 294.200908 
L 399.850734 282.513519 
L 400.501773 282.513519 
L 401.152811 283.974857 
L 401.803849 283.974857 
L 402.454887 281.052181 
L 403.105926 281.052181 
L 403.756964 302.965621 
L 404.408002 266.44543 
L 405.05904 435.904283 
L 405.710079 273.748806 
L 407.012155 267.906768 
L 407.663193 275.210143 
L 408.314232 294.200908 
L 408.96527 270.82613 
L 409.616308 278.132819 
L 410.267346 273.748806 
L 410.918385 285.436194 
L 411.569423 285.436194 
L 412.220461 278.132819 
L 412.871499 297.123583 
L 413.522538 294.200908 
L 414.173576 289.816894 
L 414.824614 291.278232 
L 415.475652 289.816894 
L 416.126691 297.123583 
L 416.777729 294.200908 
L 417.428767 294.200908 
L 418.079805 295.662245 
L 418.730844 294.200908 
L 419.381882 294.200908 
L 420.03292 308.810972 
L 420.683958 295.662245 
L 421.334997 289.816894 
L 421.986035 300.042945 
L 422.637073 297.123583 
L 423.288111 286.897532 
L 423.93915 292.73957 
L 424.590188 288.35887 
L 425.892264 297.123583 
L 426.543303 292.73957 
L 427.194341 286.897532 
L 427.845379 177.333647 
L 428.496417 298.584921 
L 429.147456 305.888296 
L 429.798494 288.35887 
L 430.449532 297.123583 
L 431.10057 302.965621 
L 431.751609 301.504283 
L 432.402647 294.200908 
L 433.053685 291.278232 
L 433.704723 295.662245 
L 434.355762 286.897532 
L 435.0068 294.200908 
L 435.657838 295.662245 
L 436.308876 291.278232 
L 436.959915 298.584921 
L 437.610953 292.73957 
L 438.261991 300.042945 
L 438.913029 289.816894 
L 439.564068 248.916004 
L 440.215106 308.810972 
L 440.866144 304.426958 
L 441.517182 302.965621 
L 442.168221 314.653009 
L 442.819259 305.888296 
L 443.470297 305.888296 
L 444.121335 308.810972 
L 444.772374 305.888296 
L 445.423412 310.268996 
L 446.07445 307.349634 
L 446.725488 335.105111 
L 447.376527 319.037023 
L 448.027565 297.123583 
L 448.678603 308.810972 
L 449.329641 327.801736 
L 449.98068 324.87906 
L 450.631718 327.801736 
L 451.282756 324.87906 
L 451.933794 324.87906 
L 452.584833 317.575685 
L 453.235871 319.037023 
L 453.886909 297.123583 
L 454.537947 314.653009 
L 455.188986 319.037023 
L 455.840024 313.191672 
L 456.491062 319.037023 
L 457.1421 314.653009 
L 457.793139 314.653009 
L 458.444177 304.426958 
L 459.095215 319.037023 
L 459.746253 319.037023 
L 460.397292 313.191672 
L 461.04833 305.888296 
L 461.699368 311.730334 
L 463.001445 320.495047 
L 463.652483 317.575685 
L 464.303521 311.730334 
L 464.954559 308.810972 
L 465.605598 324.87906 
L 466.256636 314.653009 
L 466.907674 301.504283 
L 467.558712 327.801736 
L 468.209751 307.349634 
L 468.860789 316.114347 
L 469.511827 313.191672 
L 470.162865 307.349634 
L 470.813904 311.730334 
L 471.464942 305.888296 
L 472.11598 289.816894 
L 472.767018 301.504283 
L 473.418057 301.504283 
L 474.069095 297.123583 
L 474.720133 302.965621 
L 475.371171 305.888296 
L 476.02221 304.426958 
L 476.673248 273.748806 
L 477.324286 298.584921 
L 477.975324 302.965621 
L 478.626363 305.888296 
L 479.277401 302.965621 
L 479.928439 307.349634 
L 480.579477 305.888296 
L 481.230516 298.584921 
L 481.881554 300.042945 
L 482.532592 300.042945 
L 483.18363 288.35887 
L 483.834669 311.730334 
L 484.485707 298.584921 
L 485.136745 291.278232 
L 485.787783 301.504283 
L 486.438822 294.200908 
L 487.08986 294.200908 
L 487.740898 289.816894 
L 488.391936 302.965621 
L 489.042975 289.816894 
L 489.694013 289.816894 
L 490.345051 301.504283 
L 490.996089 291.278232 
L 491.647128 295.662245 
L 492.298166 291.278232 
L 492.949204 302.965621 
L 493.600242 300.042945 
L 494.251281 323.417723 
L 494.902319 257.680717 
L 495.553357 300.042945 
L 496.204395 298.584921 
L 496.855433 298.584921 
L 497.506472 294.200908 
L 498.15751 300.042945 
L 498.808548 289.816894 
L 499.459586 294.200908 
L 500.110625 301.504283 
L 500.761663 298.584921 
L 501.412701 298.584921 
L 502.063739 292.73957 
L 502.714778 300.042945 
L 503.365816 294.200908 
L 504.016854 301.504283 
L 504.667892 300.042945 
L 505.318931 286.897532 
L 505.969969 294.200908 
L 506.621007 298.584921 
L 507.272045 305.888296 
L 508.574122 302.965621 
L 509.22516 298.584921 
L 509.876198 304.426958 
L 510.527237 305.888296 
L 511.178275 308.810972 
L 511.829313 305.888296 
L 512.480351 304.426958 
L 513.13139 307.349634 
L 513.782428 311.730334 
L 514.433466 307.349634 
L 515.735543 313.191672 
L 516.386581 278.132819 
L 517.037619 311.730334 
L 517.688657 308.810972 
L 518.339696 291.278232 
L 518.990734 319.037023 
L 519.641772 317.575685 
L 520.29281 320.495047 
L 520.943849 320.495047 
L 521.594887 323.417723 
L 522.245925 317.575685 
L 522.896963 327.801736 
L 523.548002 320.495047 
L 524.19904 327.801736 
L 524.850078 324.87906 
L 525.501116 327.801736 
L 526.152155 323.417723 
L 526.803193 292.73957 
L 529.407346 326.340398 
L 530.058384 326.340398 
L 530.709422 324.87906 
L 531.360461 324.87906 
L 532.011499 321.956385 
L 532.662537 320.495047 
L 533.313575 314.653009 
L 533.964614 324.87906 
L 534.615652 324.87906 
L 535.26669 317.575685 
L 535.917728 352.634538 
L 536.568767 323.417723 
L 537.219805 320.495047 
L 537.870843 326.340398 
L 538.521881 323.417723 
L 539.17292 314.653009 
L 539.823958 326.340398 
L 540.474996 319.037023 
L 541.126034 313.191672 
L 541.777073 324.87906 
L 542.428111 330.721098 
L 543.079149 320.495047 
L 543.730187 319.037023 
L 544.381226 320.495047 
L 545.032264 330.721098 
L 545.683302 329.263074 
L 546.33434 311.730334 
L 546.985379 481.1925 
L 547.636417 333.643773 
L 548.287455 405.22613 
L 548.938493 335.105111 
L 549.589532 317.575685 
L 550.24057 313.191672 
L 550.891608 320.495047 
L 551.542646 326.340398 
L 552.193685 320.495047 
L 552.844723 321.956385 
L 553.495761 316.114347 
L 554.146799 314.653009 
L 554.797838 319.037023 
L 555.448876 321.956385 
L 556.099914 317.575685 
L 556.750952 294.200908 
L 557.401991 317.575685 
L 558.053029 319.037023 
L 558.704067 317.575685 
L 559.355105 319.037023 
L 560.006144 316.114347 
L 560.657182 319.037023 
L 561.30822 311.730334 
L 561.959258 316.114347 
L 562.610297 310.268996 
L 563.261335 308.810972 
L 563.912373 308.810972 
L 564.563411 310.268996 
L 565.21445 305.888296 
L 565.865488 314.653009 
L 566.516526 310.268996 
L 567.167564 357.018551 
L 567.818603 311.730334 
L 568.469641 314.653009 
L 569.120679 307.349634 
L 570.422756 313.191672 
L 571.073794 311.730334 
L 571.724832 304.426958 
L 572.37587 308.810972 
L 573.026909 300.042945 
L 573.677947 314.653009 
L 574.328985 310.268996 
L 574.980023 300.042945 
L 575.631062 311.730334 
L 576.2821 310.268996 
L 576.933138 305.888296 
L 577.584176 307.349634 
L 578.235215 336.566449 
L 578.886253 297.123583 
L 579.537291 292.73957 
L 580.188329 297.123583 
L 580.839368 289.816894 
L 581.490406 295.662245 
L 582.141444 283.974857 
L 582.792482 292.73957 
L 583.443521 289.816894 
L 584.097814 77.9925 
L 584.745597 297.123583 
L 585.396635 294.200908 
L 586.047674 289.816894 
L 586.698712 298.584921 
L 587.34975 298.584921 
L 588.000788 305.888296 
L 588.651827 304.426958 
L 589.302865 304.426958 
L 591.25598 308.810972 
L 591.907018 307.349634 
L 592.558056 307.349634 
L 593.209094 305.888296 
L 593.860133 310.268996 
L 594.511171 308.810972 
L 595.162209 298.584921 
L 595.813247 311.730334 
L 596.464286 317.575685 
L 597.766362 314.653009 
L 598.4174 305.888296 
L 599.068439 320.495047 
L 599.719477 317.575685 
L 601.021553 305.888296 
L 601.672592 311.730334 
L 602.326885 301.504283 
L 602.977923 311.730334 
L 603.628961 311.730334 
L 604.28 308.810972 
L 604.931038 308.810972 
L 605.582076 300.042945 
L 606.233114 311.730334 
L 606.884153 319.037023 
L 607.535191 319.037023 
L 608.186229 321.956385 
L 608.837267 317.575685 
L 609.488306 321.956385 
L 610.139344 319.037023 
L 610.790382 321.956385 
L 611.44142 321.956385 
L 612.092459 320.495047 
L 612.743497 320.495047 
L 613.394535 317.575685 
L 614.045573 323.417723 
L 614.696612 317.575685 
L 615.34765 317.575685 
L 615.998688 321.956385 
L 616.649726 320.495047 
L 617.300765 316.114347 
L 617.951803 308.810972 
L 618.602841 308.810972 
L 619.253879 311.730334 
L 619.904918 317.575685 
L 620.555956 319.037023 
L 621.206994 314.653009 
L 621.858032 313.191672 
L 622.509071 314.653009 
L 623.160109 308.810972 
L 624.462185 314.653009 
L 625.113224 308.810972 
L 625.764262 310.268996 
L 626.4153 308.810972 
L 627.066338 332.182436 
L 627.717377 339.489125 
L 628.368415 302.965621 
L 629.019453 305.888296 
L 629.670491 340.947149 
L 630.32153 307.349634 
L 630.972568 308.810972 
L 631.623606 300.042945 
L 632.274644 321.956385 
L 632.925683 308.810972 
L 633.576721 310.268996 
L 634.227759 300.042945 
L 634.878797 305.888296 
L 636.180874 302.965621 
L 636.831912 300.042945 
L 637.48295 301.504283 
L 638.133989 304.426958 
L 638.785027 294.200908 
L 639.436065 302.965621 
L 640.087103 297.123583 
L 640.738142 298.584921 
L 641.38918 298.584921 
L 642.040218 317.575685 
L 642.691256 300.042945 
L 643.342295 292.73957 
L 643.993333 295.662245 
L 644.644371 297.123583 
L 645.295409 307.349634 
L 645.946448 301.504283 
L 646.597486 285.436194 
L 647.248524 291.278232 
L 647.899562 278.132819 
L 648.550601 180.253009 
L 649.201639 282.513519 
L 649.852677 335.105111 
L 650.503715 281.052181 
L 651.154754 244.531991 
L 651.805792 232.844602 
L 652.45683 264.984092 
L 653.107868 263.522755 
L 653.758907 241.609315 
L 654.409945 263.522755 
L 655.060983 259.142055 
L 655.712021 251.835366 
L 656.36306 247.454666 
L 657.014098 250.374028 
L 657.665136 250.374028 
L 658.316174 245.993328 
L 658.967213 248.916004 
L 659.618251 245.993328 
L 660.269289 250.374028 
L 660.920327 248.916004 
L 661.571366 244.531991 
L 662.222404 238.689953 
L 662.873442 248.916004 
L 663.52448 212.3925 
L 664.175519 234.30594 
L 664.826557 235.767277 
L 666.128633 244.531991 
L 667.43071 238.689953 
L 668.081748 273.748806 
L 668.732786 257.680717 
L 669.383825 244.531991 
L 670.034863 251.835366 
L 670.685901 241.609315 
L 671.336939 245.993328 
L 671.987978 244.531991 
L 672.639016 256.219379 
L 673.290054 253.296704 
L 673.941092 256.219379 
L 674.592131 257.680717 
L 675.243169 254.758042 
L 675.894207 260.600079 
L 677.196284 269.364792 
L 677.847322 260.600079 
L 678.49836 269.364792 
L 679.149398 272.287468 
L 679.800437 264.984092 
L 680.451475 254.758042 
L 681.102513 267.906768 
L 681.753551 263.522755 
L 682.40459 263.522755 
L 683.055628 267.906768 
L 683.706666 209.469824 
L 684.357704 262.061417 
L 685.008743 267.906768 
L 685.659781 270.82613 
L 686.310819 270.82613 
L 686.961857 267.906768 
L 687.612895 272.287468 
L 688.263934 307.349634 
L 688.914972 282.513519 
L 689.56601 281.052181 
L 690.868087 281.052181 
L 691.519125 278.132819 
L 692.821201 281.052181 
L 693.47224 281.052181 
L 694.123278 206.550462 
L 694.774316 285.436194 
L 695.425354 256.219379 
L 696.076393 288.35887 
L 696.727431 159.800908 
L 697.378469 291.278232 
L 698.029507 292.73957 
L 698.680546 288.35887 
L 699.331584 286.897532 
L 699.982622 289.816894 
L 700.63366 285.436194 
L 701.284699 294.200908 
L 701.935737 283.974857 
L 702.586775 285.436194 
L 703.237813 282.513519 
L 703.888852 292.73957 
L 704.53989 282.513519 
L 705.190928 276.671481 
L 705.841966 281.052181 
L 706.493005 283.974857 
L 707.144043 281.052181 
L 708.446119 289.816894 
L 709.097158 285.436194 
L 709.748196 269.364792 
L 710.399234 295.662245 
L 711.050272 283.974857 
L 711.701311 295.662245 
L 712.352349 289.816894 
L 713.003387 298.584921 
L 713.654425 295.662245 
L 714.305464 297.123583 
L 714.956502 313.191672 
L 715.60754 292.73957 
L 716.258578 304.426958 
L 716.909617 278.132819 
L 717.560655 304.426958 
L 718.211693 301.504283 
L 718.862731 304.426958 
L 719.51377 301.504283 
L 720.164808 305.888296 
L 720.815846 307.349634 
L 722.117923 304.426958 
L 722.768961 307.349634 
L 723.419999 305.888296 
L 726.024152 301.504283 
L 726.67519 305.888296 
L 727.326229 300.042945 
L 727.977267 302.965621 
L 728.628305 301.504283 
L 729.279343 301.504283 
L 729.930382 297.123583 
L 730.58142 300.042945 
L 731.232458 294.200908 
L 731.883496 286.897532 
L 732.534535 286.897532 
L 733.836611 278.132819 
L 735.138688 286.897532 
L 735.789726 273.748806 
L 736.440764 276.671481 
L 737.091802 273.748806 
L 737.742841 275.210143 
L 738.393879 272.287468 
L 739.044917 279.590843 
L 739.695955 279.590843 
L 740.346994 272.287468 
L 740.998032 266.44543 
L 741.64907 259.142055 
L 742.300108 260.600079 
L 742.951147 244.531991 
L 743.602185 260.600079 
L 744.253223 270.82613 
L 744.904261 262.061417 
L 744.904261 262.061417 
" clip-path="url(#pe44818d16b)" style="fill: none; stroke: #ac2b37; stroke-width: 1.5; stroke-linecap: square"/>
   </g>
   <g id="patch_3">
    <path d="M 105.740625 501.3525 
L 105.740625 57.8325 
" style="fill: none; stroke: #000000; stroke-width: 0.8; stroke-linejoin: miter; stroke-linecap: square"/>
   </g>
   <g id="patch_4">
    <path d="M 775.340625 501.3525 
L 775.340625 57.8325 
" style="fill: none; stroke: #000000; stroke-width: 0.8; stroke-linejoin: miter; stroke-linecap: square"/>
   </g>
   <g id="patch_5">
    <path d="M 105.740625 501.3525 
L 775.340625 501.3525 
" style="fill: none; stroke: #000000; stroke-width: 0.8; stroke-linejoin: miter; stroke-linecap: square"/>
   </g>
   <g id="patch_6">
    <path d="M 105.740625 57.8325 
L 775.340625 57.8325 
" style="fill: none; stroke: #000000; stroke-width: 0.8; stroke-linejoin: miter; stroke-linecap: square"/>
   </g>
   <g id="text_18">
    <!-- Light vs Time -->
    <g transform="translate(378.058125 51.8325) scale(0.24 -0.24)">
     <defs>
      <path id="AptosDisplay-76" d="M 1103 0 
L -13 3044 
L 538 3044 
L 1391 513 
L 2250 3044 
L 2781 3044 
L 1678 0 
L 1103 0 
z
" transform="scale(0.015625)"/>
      <path id="AptosDisplay-73" d="M 1506 -41 
Q 1247 -41 1017 14 
Q 788 69 613 191 
Q 438 313 339 506 
Q 241 700 241 978 
L 744 978 
Q 744 628 966 487 
Q 1188 347 1519 347 
Q 1816 347 2008 458 
Q 2200 569 2200 822 
Q 2200 1047 2026 1153 
Q 1853 1259 1413 1369 
Q 1056 1453 815 1564 
Q 575 1675 453 1845 
Q 331 2016 331 2275 
Q 331 2475 417 2626 
Q 503 2778 658 2879 
Q 813 2981 1020 3032 
Q 1228 3084 1472 3084 
Q 1713 3084 1923 3028 
Q 2134 2972 2296 2855 
Q 2459 2738 2551 2552 
Q 2644 2366 2644 2109 
L 2138 2109 
Q 2138 2425 1945 2558 
Q 1753 2691 1472 2691 
Q 1191 2691 1016 2594 
Q 841 2497 841 2291 
Q 841 2169 919 2084 
Q 997 2000 1181 1933 
Q 1366 1866 1675 1791 
Q 2019 1709 2248 1596 
Q 2478 1484 2595 1306 
Q 2713 1128 2713 847 
Q 2713 616 2622 447 
Q 2531 278 2367 170 
Q 2203 63 1983 11 
Q 1763 -41 1506 -41 
z
" transform="scale(0.015625)"/>
     </defs>
     <use xlink:href="#AptosDisplay-4c"/>
     <use xlink:href="#AptosDisplay-69" x="48.4375"/>
     <use xlink:href="#AptosDisplay-67" x="69.482422"/>
     <use xlink:href="#AptosDisplay-68" x="113.427734"/>
     <use xlink:href="#AptosDisplay-74" x="164.013672"/>
     <use xlink:href="#AptosDisplay-20" x="194.384766"/>
     <use xlink:href="#AptosDisplay-76" x="213.671875"/>
     <use xlink:href="#AptosDisplay-73" x="256.933594"/>
     <use xlink:href="#AptosDisplay-20" x="303.222656"/>
     <use xlink:href="#AptosDisplay-54" x="322.509766"/>
     <use xlink:href="#AptosDisplay-69" x="370.214844"/>
     <use xlink:href="#AptosDisplay-6d" x="391.259766"/>
     <use xlink:href="#AptosDisplay-65" x="471.240234"/>
    </g>
   </g>
  </g>
 </g>
 <defs>
  <clipPath id="pe44818d16b">
   <rect x="105.740625" y="57.8325" width="669.6" height="443.52"/>
  </clipPath>
 </defs>
</svg>
