<?xml version="1.0" encoding="utf-8" standalone="no"?>
<!DOCTYPE svg PUBLIC "-//W3C//DTD SVG 1.1//EN"
  "http://www.w3.org/Graphics/SVG/1.1/DTD/svg11.dtd">
<svg xmlns:xlink="http://www.w3.org/1999/xlink" width="800.88125pt" height="581.830625pt" viewBox="0 0 800.88125 581.830625" xmlns="http://www.w3.org/2000/svg" version="1.1">
 <metadata>
  <rdf:RDF xmlns:dc="http://purl.org/dc/elements/1.1/" xmlns:cc="http://creativecommons.org/ns#" xmlns:rdf="http://www.w3.org/1999/02/22-rdf-syntax-ns#">
   <cc:Work>
    <dc:type rdf:resource="http://purl.org/dc/dcmitype/StillImage"/>
    <dc:date>2025-04-03T01:48:17.103350</dc:date>
    <dc:format>image/svg+xml</dc:format>
    <dc:creator>
     <cc:Agent>
      <dc:title>Matplotlib v3.8.2, https://matplotlib.org/</dc:title>
     </cc:Agent>
    </dc:creator>
   </cc:Work>
  </rdf:RDF>
 </metadata>
 <defs>
  <style type="text/css">*{stroke-linejoin: round; stroke-linecap: butt}</style>
 </defs>
 <g id="figure_1">
  <g id="patch_1">
   <path d="M 0 581.830625 
L 800.88125 581.830625 
L 800.88125 0 
L 0 0 
z
" style="fill: #ffffff"/>
  </g>
  <g id="axes_1">
   <g id="patch_2">
    <path d="M 95.28125 501.3525 
L 764.88125 501.3525 
L 764.88125 57.8325 
L 95.28125 57.8325 
z
" style="fill: #ffffff"/>
   </g>
   <g id="matplotlib.axis_1">
    <g id="xtick_1">
     <g id="line2d_1">
      <path d="M 125.339672 501.3525 
L 125.339672 57.8325 
" clip-path="url(#pa6dabe91e2)" style="fill: none; stroke: #b0b0b0; stroke-opacity: 0.8; stroke-linecap: square"/>
     </g>
     <g id="line2d_2">
      <defs>
       <path id="mfb8ee310db" d="M 0 0 
L 0 3.5 
" style="stroke: #000000; stroke-width: 0.8"/>
      </defs>
      <g>
       <use xlink:href="#mfb8ee310db" x="125.339672" y="501.3525" style="stroke: #000000; stroke-width: 0.8"/>
      </g>
     </g>
     <g id="text_1">
      <!-- 0 -->
      <g transform="translate(120.109984 521.49625) scale(0.2 -0.2)">
       <defs>
        <path id="AptosDisplay-30" d="M 1672 -56 
Q 1291 -56 1028 105 
Q 766 266 605 552 
Q 444 838 372 1216 
Q 300 1594 300 2031 
Q 300 2475 372 2856 
Q 444 3238 605 3525 
Q 766 3813 1028 3973 
Q 1291 4134 1672 4134 
Q 2053 4134 2317 3975 
Q 2581 3816 2742 3527 
Q 2903 3238 2975 2858 
Q 3047 2478 3047 2038 
Q 3047 1597 2975 1217 
Q 2903 838 2742 552 
Q 2581 266 2318 105 
Q 2056 -56 1672 -56 
z
M 1672 409 
Q 1916 409 2073 550 
Q 2231 691 2322 925 
Q 2413 1159 2448 1448 
Q 2484 1738 2484 2038 
Q 2484 2338 2448 2628 
Q 2413 2919 2322 3153 
Q 2231 3388 2073 3527 
Q 1916 3666 1669 3666 
Q 1428 3666 1268 3527 
Q 1109 3388 1020 3153 
Q 931 2919 893 2628 
Q 856 2338 856 2038 
Q 856 1741 893 1450 
Q 931 1159 1020 925 
Q 1109 691 1268 550 
Q 1428 409 1672 409 
z
" transform="scale(0.015625)"/>
       </defs>
       <use xlink:href="#AptosDisplay-30"/>
      </g>
     </g>
    </g>
    <g id="xtick_2">
     <g id="line2d_3">
      <path d="M 208.955137 501.3525 
L 208.955137 57.8325 
" clip-path="url(#pa6dabe91e2)" style="fill: none; stroke: #b0b0b0; stroke-opacity: 0.8; stroke-linecap: square"/>
     </g>
     <g id="line2d_4">
      <g>
       <use xlink:href="#mfb8ee310db" x="208.955137" y="501.3525" style="stroke: #000000; stroke-width: 0.8"/>
      </g>
     </g>
     <g id="text_2">
      <!-- 25 -->
      <g transform="translate(198.495762 521.49625) scale(0.2 -0.2)">
       <defs>
        <path id="AptosDisplay-32" d="M 247 0 
L 247 413 
L 1725 1741 
Q 2100 2081 2269 2351 
Q 2438 2622 2438 2938 
Q 2438 3256 2263 3461 
Q 2088 3666 1691 3666 
Q 1247 3666 1055 3439 
Q 863 3213 863 2869 
L 341 2869 
Q 341 3250 491 3534 
Q 641 3819 941 3975 
Q 1241 4131 1691 4131 
Q 2103 4131 2390 3986 
Q 2678 3841 2828 3578 
Q 2978 3316 2978 2959 
Q 2978 2638 2853 2375 
Q 2728 2113 2517 1883 
Q 2306 1653 2044 1425 
L 959 463 
L 3097 463 
L 3097 0 
L 247 0 
z
" transform="scale(0.015625)"/>
        <path id="AptosDisplay-35" d="M 1669 -56 
Q 1278 -56 964 83 
Q 650 222 465 483 
Q 281 744 281 1113 
L 816 1113 
Q 816 778 1055 584 
Q 1294 391 1669 391 
Q 2069 391 2291 625 
Q 2513 859 2513 1319 
Q 2513 1772 2291 1989 
Q 2069 2206 1697 2206 
Q 1409 2206 1223 2123 
Q 1038 2041 916 1894 
L 444 1894 
L 622 4078 
L 2788 4078 
L 2788 3613 
L 1041 3613 
L 931 2322 
Q 1044 2453 1251 2550 
Q 1459 2647 1775 2647 
Q 2131 2647 2420 2506 
Q 2709 2366 2881 2072 
Q 3053 1778 3053 1319 
Q 3053 863 2875 558 
Q 2697 253 2384 98 
Q 2072 -56 1669 -56 
z
" transform="scale(0.015625)"/>
       </defs>
       <use xlink:href="#AptosDisplay-32"/>
       <use xlink:href="#AptosDisplay-35" x="52.294922"/>
      </g>
     </g>
    </g>
    <g id="xtick_3">
     <g id="line2d_5">
      <path d="M 292.570601 501.3525 
L 292.570601 57.8325 
" clip-path="url(#pa6dabe91e2)" style="fill: none; stroke: #b0b0b0; stroke-opacity: 0.8; stroke-linecap: square"/>
     </g>
     <g id="line2d_6">
      <g>
       <use xlink:href="#mfb8ee310db" x="292.570601" y="501.3525" style="stroke: #000000; stroke-width: 0.8"/>
      </g>
     </g>
     <g id="text_3">
      <!-- 50 -->
      <g transform="translate(282.111226 521.49625) scale(0.2 -0.2)">
       <use xlink:href="#AptosDisplay-35"/>
       <use xlink:href="#AptosDisplay-30" x="52.294922"/>
      </g>
     </g>
    </g>
    <g id="xtick_4">
     <g id="line2d_7">
      <path d="M 376.186066 501.3525 
L 376.186066 57.8325 
" clip-path="url(#pa6dabe91e2)" style="fill: none; stroke: #b0b0b0; stroke-opacity: 0.8; stroke-linecap: square"/>
     </g>
     <g id="line2d_8">
      <g>
       <use xlink:href="#mfb8ee310db" x="376.186066" y="501.3525" style="stroke: #000000; stroke-width: 0.8"/>
      </g>
     </g>
     <g id="text_4">
      <!-- 75 -->
      <g transform="translate(365.726691 521.49625) scale(0.2 -0.2)">
       <defs>
        <path id="AptosDisplay-37" d="M 766 0 
L 2609 3600 
L 194 3600 
L 194 4078 
L 3141 4078 
L 3141 3622 
L 1334 0 
L 766 0 
z
" transform="scale(0.015625)"/>
       </defs>
       <use xlink:href="#AptosDisplay-37"/>
       <use xlink:href="#AptosDisplay-35" x="52.294922"/>
      </g>
     </g>
    </g>
    <g id="xtick_5">
     <g id="line2d_9">
      <path d="M 459.801531 501.3525 
L 459.801531 57.8325 
" clip-path="url(#pa6dabe91e2)" style="fill: none; stroke: #b0b0b0; stroke-opacity: 0.8; stroke-linecap: square"/>
     </g>
     <g id="line2d_10">
      <g>
       <use xlink:href="#mfb8ee310db" x="459.801531" y="501.3525" style="stroke: #000000; stroke-width: 0.8"/>
      </g>
     </g>
     <g id="text_5">
      <!-- 100 -->
      <g transform="translate(444.112468 521.49625) scale(0.2 -0.2)">
       <defs>
        <path id="AptosDisplay-31" d="M 1659 0 
L 1659 3425 
Q 1575 3309 1420 3201 
Q 1266 3094 1052 3009 
Q 838 2925 578 2888 
L 578 3381 
Q 834 3425 1057 3540 
Q 1281 3656 1453 3806 
Q 1625 3956 1719 4094 
L 2206 4094 
L 2206 0 
L 1659 0 
z
" transform="scale(0.015625)"/>
       </defs>
       <use xlink:href="#AptosDisplay-31"/>
       <use xlink:href="#AptosDisplay-30" x="52.294922"/>
       <use xlink:href="#AptosDisplay-30" x="104.589844"/>
      </g>
     </g>
    </g>
    <g id="xtick_6">
     <g id="line2d_11">
      <path d="M 543.416996 501.3525 
L 543.416996 57.8325 
" clip-path="url(#pa6dabe91e2)" style="fill: none; stroke: #b0b0b0; stroke-opacity: 0.8; stroke-linecap: square"/>
     </g>
     <g id="line2d_12">
      <g>
       <use xlink:href="#mfb8ee310db" x="543.416996" y="501.3525" style="stroke: #000000; stroke-width: 0.8"/>
      </g>
     </g>
     <g id="text_6">
      <!-- 125 -->
      <g transform="translate(527.727933 521.49625) scale(0.2 -0.2)">
       <use xlink:href="#AptosDisplay-31"/>
       <use xlink:href="#AptosDisplay-32" x="52.294922"/>
       <use xlink:href="#AptosDisplay-35" x="104.589844"/>
      </g>
     </g>
    </g>
    <g id="xtick_7">
     <g id="line2d_13">
      <path d="M 627.03246 501.3525 
L 627.03246 57.8325 
" clip-path="url(#pa6dabe91e2)" style="fill: none; stroke: #b0b0b0; stroke-opacity: 0.8; stroke-linecap: square"/>
     </g>
     <g id="line2d_14">
      <g>
       <use xlink:href="#mfb8ee310db" x="627.03246" y="501.3525" style="stroke: #000000; stroke-width: 0.8"/>
      </g>
     </g>
     <g id="text_7">
      <!-- 150 -->
      <g transform="translate(611.343398 521.49625) scale(0.2 -0.2)">
       <use xlink:href="#AptosDisplay-31"/>
       <use xlink:href="#AptosDisplay-35" x="52.294922"/>
       <use xlink:href="#AptosDisplay-30" x="104.589844"/>
      </g>
     </g>
    </g>
    <g id="xtick_8">
     <g id="line2d_15">
      <path d="M 710.647925 501.3525 
L 710.647925 57.8325 
" clip-path="url(#pa6dabe91e2)" style="fill: none; stroke: #b0b0b0; stroke-opacity: 0.8; stroke-linecap: square"/>
     </g>
     <g id="line2d_16">
      <g>
       <use xlink:href="#mfb8ee310db" x="710.647925" y="501.3525" style="stroke: #000000; stroke-width: 0.8"/>
      </g>
     </g>
     <g id="text_8">
      <!-- 175 -->
      <g transform="translate(694.958863 521.49625) scale(0.2 -0.2)">
       <use xlink:href="#AptosDisplay-31"/>
       <use xlink:href="#AptosDisplay-37" x="52.294922"/>
       <use xlink:href="#AptosDisplay-35" x="104.589844"/>
      </g>
     </g>
    </g>
    <g id="xtick_9">
     <g id="line2d_17">
      <path d="M 108.616579 501.3525 
L 108.616579 57.8325 
" clip-path="url(#pa6dabe91e2)" style="fill: none; stroke-dasharray: 1.85,0.8; stroke-dashoffset: 0; stroke: #b0b0b0; stroke-opacity: 0.8; stroke-width: 0.5"/>
     </g>
     <g id="line2d_18">
      <defs>
       <path id="ma00e4a00c9" d="M 0 0 
L 0 2 
" style="stroke: #000000; stroke-width: 0.6"/>
      </defs>
      <g>
       <use xlink:href="#ma00e4a00c9" x="108.616579" y="501.3525" style="stroke: #000000; stroke-width: 0.6"/>
      </g>
     </g>
    </g>
    <g id="xtick_10">
     <g id="line2d_19">
      <path d="M 142.062765 501.3525 
L 142.062765 57.8325 
" clip-path="url(#pa6dabe91e2)" style="fill: none; stroke-dasharray: 1.85,0.8; stroke-dashoffset: 0; stroke: #b0b0b0; stroke-opacity: 0.8; stroke-width: 0.5"/>
     </g>
     <g id="line2d_20">
      <g>
       <use xlink:href="#ma00e4a00c9" x="142.062765" y="501.3525" style="stroke: #000000; stroke-width: 0.6"/>
      </g>
     </g>
    </g>
    <g id="xtick_11">
     <g id="line2d_21">
      <path d="M 158.785858 501.3525 
L 158.785858 57.8325 
" clip-path="url(#pa6dabe91e2)" style="fill: none; stroke-dasharray: 1.85,0.8; stroke-dashoffset: 0; stroke: #b0b0b0; stroke-opacity: 0.8; stroke-width: 0.5"/>
     </g>
     <g id="line2d_22">
      <g>
       <use xlink:href="#ma00e4a00c9" x="158.785858" y="501.3525" style="stroke: #000000; stroke-width: 0.6"/>
      </g>
     </g>
    </g>
    <g id="xtick_12">
     <g id="line2d_23">
      <path d="M 175.508951 501.3525 
L 175.508951 57.8325 
" clip-path="url(#pa6dabe91e2)" style="fill: none; stroke-dasharray: 1.85,0.8; stroke-dashoffset: 0; stroke: #b0b0b0; stroke-opacity: 0.8; stroke-width: 0.5"/>
     </g>
     <g id="line2d_24">
      <g>
       <use xlink:href="#ma00e4a00c9" x="175.508951" y="501.3525" style="stroke: #000000; stroke-width: 0.6"/>
      </g>
     </g>
    </g>
    <g id="xtick_13">
     <g id="line2d_25">
      <path d="M 192.232044 501.3525 
L 192.232044 57.8325 
" clip-path="url(#pa6dabe91e2)" style="fill: none; stroke-dasharray: 1.85,0.8; stroke-dashoffset: 0; stroke: #b0b0b0; stroke-opacity: 0.8; stroke-width: 0.5"/>
     </g>
     <g id="line2d_26">
      <g>
       <use xlink:href="#ma00e4a00c9" x="192.232044" y="501.3525" style="stroke: #000000; stroke-width: 0.6"/>
      </g>
     </g>
    </g>
    <g id="xtick_14">
     <g id="line2d_27">
      <path d="M 225.678229 501.3525 
L 225.678229 57.8325 
" clip-path="url(#pa6dabe91e2)" style="fill: none; stroke-dasharray: 1.85,0.8; stroke-dashoffset: 0; stroke: #b0b0b0; stroke-opacity: 0.8; stroke-width: 0.5"/>
     </g>
     <g id="line2d_28">
      <g>
       <use xlink:href="#ma00e4a00c9" x="225.678229" y="501.3525" style="stroke: #000000; stroke-width: 0.6"/>
      </g>
     </g>
    </g>
    <g id="xtick_15">
     <g id="line2d_29">
      <path d="M 242.401322 501.3525 
L 242.401322 57.8325 
" clip-path="url(#pa6dabe91e2)" style="fill: none; stroke-dasharray: 1.85,0.8; stroke-dashoffset: 0; stroke: #b0b0b0; stroke-opacity: 0.8; stroke-width: 0.5"/>
     </g>
     <g id="line2d_30">
      <g>
       <use xlink:href="#ma00e4a00c9" x="242.401322" y="501.3525" style="stroke: #000000; stroke-width: 0.6"/>
      </g>
     </g>
    </g>
    <g id="xtick_16">
     <g id="line2d_31">
      <path d="M 259.124415 501.3525 
L 259.124415 57.8325 
" clip-path="url(#pa6dabe91e2)" style="fill: none; stroke-dasharray: 1.85,0.8; stroke-dashoffset: 0; stroke: #b0b0b0; stroke-opacity: 0.8; stroke-width: 0.5"/>
     </g>
     <g id="line2d_32">
      <g>
       <use xlink:href="#ma00e4a00c9" x="259.124415" y="501.3525" style="stroke: #000000; stroke-width: 0.6"/>
      </g>
     </g>
    </g>
    <g id="xtick_17">
     <g id="line2d_33">
      <path d="M 275.847508 501.3525 
L 275.847508 57.8325 
" clip-path="url(#pa6dabe91e2)" style="fill: none; stroke-dasharray: 1.85,0.8; stroke-dashoffset: 0; stroke: #b0b0b0; stroke-opacity: 0.8; stroke-width: 0.5"/>
     </g>
     <g id="line2d_34">
      <g>
       <use xlink:href="#ma00e4a00c9" x="275.847508" y="501.3525" style="stroke: #000000; stroke-width: 0.6"/>
      </g>
     </g>
    </g>
    <g id="xtick_18">
     <g id="line2d_35">
      <path d="M 309.293694 501.3525 
L 309.293694 57.8325 
" clip-path="url(#pa6dabe91e2)" style="fill: none; stroke-dasharray: 1.85,0.8; stroke-dashoffset: 0; stroke: #b0b0b0; stroke-opacity: 0.8; stroke-width: 0.5"/>
     </g>
     <g id="line2d_36">
      <g>
       <use xlink:href="#ma00e4a00c9" x="309.293694" y="501.3525" style="stroke: #000000; stroke-width: 0.6"/>
      </g>
     </g>
    </g>
    <g id="xtick_19">
     <g id="line2d_37">
      <path d="M 326.016787 501.3525 
L 326.016787 57.8325 
" clip-path="url(#pa6dabe91e2)" style="fill: none; stroke-dasharray: 1.85,0.8; stroke-dashoffset: 0; stroke: #b0b0b0; stroke-opacity: 0.8; stroke-width: 0.5"/>
     </g>
     <g id="line2d_38">
      <g>
       <use xlink:href="#ma00e4a00c9" x="326.016787" y="501.3525" style="stroke: #000000; stroke-width: 0.6"/>
      </g>
     </g>
    </g>
    <g id="xtick_20">
     <g id="line2d_39">
      <path d="M 342.73988 501.3525 
L 342.73988 57.8325 
" clip-path="url(#pa6dabe91e2)" style="fill: none; stroke-dasharray: 1.85,0.8; stroke-dashoffset: 0; stroke: #b0b0b0; stroke-opacity: 0.8; stroke-width: 0.5"/>
     </g>
     <g id="line2d_40">
      <g>
       <use xlink:href="#ma00e4a00c9" x="342.73988" y="501.3525" style="stroke: #000000; stroke-width: 0.6"/>
      </g>
     </g>
    </g>
    <g id="xtick_21">
     <g id="line2d_41">
      <path d="M 359.462973 501.3525 
L 359.462973 57.8325 
" clip-path="url(#pa6dabe91e2)" style="fill: none; stroke-dasharray: 1.85,0.8; stroke-dashoffset: 0; stroke: #b0b0b0; stroke-opacity: 0.8; stroke-width: 0.5"/>
     </g>
     <g id="line2d_42">
      <g>
       <use xlink:href="#ma00e4a00c9" x="359.462973" y="501.3525" style="stroke: #000000; stroke-width: 0.6"/>
      </g>
     </g>
    </g>
    <g id="xtick_22">
     <g id="line2d_43">
      <path d="M 392.909159 501.3525 
L 392.909159 57.8325 
" clip-path="url(#pa6dabe91e2)" style="fill: none; stroke-dasharray: 1.85,0.8; stroke-dashoffset: 0; stroke: #b0b0b0; stroke-opacity: 0.8; stroke-width: 0.5"/>
     </g>
     <g id="line2d_44">
      <g>
       <use xlink:href="#ma00e4a00c9" x="392.909159" y="501.3525" style="stroke: #000000; stroke-width: 0.6"/>
      </g>
     </g>
    </g>
    <g id="xtick_23">
     <g id="line2d_45">
      <path d="M 409.632252 501.3525 
L 409.632252 57.8325 
" clip-path="url(#pa6dabe91e2)" style="fill: none; stroke-dasharray: 1.85,0.8; stroke-dashoffset: 0; stroke: #b0b0b0; stroke-opacity: 0.8; stroke-width: 0.5"/>
     </g>
     <g id="line2d_46">
      <g>
       <use xlink:href="#ma00e4a00c9" x="409.632252" y="501.3525" style="stroke: #000000; stroke-width: 0.6"/>
      </g>
     </g>
    </g>
    <g id="xtick_24">
     <g id="line2d_47">
      <path d="M 426.355345 501.3525 
L 426.355345 57.8325 
" clip-path="url(#pa6dabe91e2)" style="fill: none; stroke-dasharray: 1.85,0.8; stroke-dashoffset: 0; stroke: #b0b0b0; stroke-opacity: 0.8; stroke-width: 0.5"/>
     </g>
     <g id="line2d_48">
      <g>
       <use xlink:href="#ma00e4a00c9" x="426.355345" y="501.3525" style="stroke: #000000; stroke-width: 0.6"/>
      </g>
     </g>
    </g>
    <g id="xtick_25">
     <g id="line2d_49">
      <path d="M 443.078438 501.3525 
L 443.078438 57.8325 
" clip-path="url(#pa6dabe91e2)" style="fill: none; stroke-dasharray: 1.85,0.8; stroke-dashoffset: 0; stroke: #b0b0b0; stroke-opacity: 0.8; stroke-width: 0.5"/>
     </g>
     <g id="line2d_50">
      <g>
       <use xlink:href="#ma00e4a00c9" x="443.078438" y="501.3525" style="stroke: #000000; stroke-width: 0.6"/>
      </g>
     </g>
    </g>
    <g id="xtick_26">
     <g id="line2d_51">
      <path d="M 476.524624 501.3525 
L 476.524624 57.8325 
" clip-path="url(#pa6dabe91e2)" style="fill: none; stroke-dasharray: 1.85,0.8; stroke-dashoffset: 0; stroke: #b0b0b0; stroke-opacity: 0.8; stroke-width: 0.5"/>
     </g>
     <g id="line2d_52">
      <g>
       <use xlink:href="#ma00e4a00c9" x="476.524624" y="501.3525" style="stroke: #000000; stroke-width: 0.6"/>
      </g>
     </g>
    </g>
    <g id="xtick_27">
     <g id="line2d_53">
      <path d="M 493.247717 501.3525 
L 493.247717 57.8325 
" clip-path="url(#pa6dabe91e2)" style="fill: none; stroke-dasharray: 1.85,0.8; stroke-dashoffset: 0; stroke: #b0b0b0; stroke-opacity: 0.8; stroke-width: 0.5"/>
     </g>
     <g id="line2d_54">
      <g>
       <use xlink:href="#ma00e4a00c9" x="493.247717" y="501.3525" style="stroke: #000000; stroke-width: 0.6"/>
      </g>
     </g>
    </g>
    <g id="xtick_28">
     <g id="line2d_55">
      <path d="M 509.97081 501.3525 
L 509.97081 57.8325 
" clip-path="url(#pa6dabe91e2)" style="fill: none; stroke-dasharray: 1.85,0.8; stroke-dashoffset: 0; stroke: #b0b0b0; stroke-opacity: 0.8; stroke-width: 0.5"/>
     </g>
     <g id="line2d_56">
      <g>
       <use xlink:href="#ma00e4a00c9" x="509.97081" y="501.3525" style="stroke: #000000; stroke-width: 0.6"/>
      </g>
     </g>
    </g>
    <g id="xtick_29">
     <g id="line2d_57">
      <path d="M 526.693903 501.3525 
L 526.693903 57.8325 
" clip-path="url(#pa6dabe91e2)" style="fill: none; stroke-dasharray: 1.85,0.8; stroke-dashoffset: 0; stroke: #b0b0b0; stroke-opacity: 0.8; stroke-width: 0.5"/>
     </g>
     <g id="line2d_58">
      <g>
       <use xlink:href="#ma00e4a00c9" x="526.693903" y="501.3525" style="stroke: #000000; stroke-width: 0.6"/>
      </g>
     </g>
    </g>
    <g id="xtick_30">
     <g id="line2d_59">
      <path d="M 560.140089 501.3525 
L 560.140089 57.8325 
" clip-path="url(#pa6dabe91e2)" style="fill: none; stroke-dasharray: 1.85,0.8; stroke-dashoffset: 0; stroke: #b0b0b0; stroke-opacity: 0.8; stroke-width: 0.5"/>
     </g>
     <g id="line2d_60">
      <g>
       <use xlink:href="#ma00e4a00c9" x="560.140089" y="501.3525" style="stroke: #000000; stroke-width: 0.6"/>
      </g>
     </g>
    </g>
    <g id="xtick_31">
     <g id="line2d_61">
      <path d="M 576.863181 501.3525 
L 576.863181 57.8325 
" clip-path="url(#pa6dabe91e2)" style="fill: none; stroke-dasharray: 1.85,0.8; stroke-dashoffset: 0; stroke: #b0b0b0; stroke-opacity: 0.8; stroke-width: 0.5"/>
     </g>
     <g id="line2d_62">
      <g>
       <use xlink:href="#ma00e4a00c9" x="576.863181" y="501.3525" style="stroke: #000000; stroke-width: 0.6"/>
      </g>
     </g>
    </g>
    <g id="xtick_32">
     <g id="line2d_63">
      <path d="M 593.586274 501.3525 
L 593.586274 57.8325 
" clip-path="url(#pa6dabe91e2)" style="fill: none; stroke-dasharray: 1.85,0.8; stroke-dashoffset: 0; stroke: #b0b0b0; stroke-opacity: 0.8; stroke-width: 0.5"/>
     </g>
     <g id="line2d_64">
      <g>
       <use xlink:href="#ma00e4a00c9" x="593.586274" y="501.3525" style="stroke: #000000; stroke-width: 0.6"/>
      </g>
     </g>
    </g>
    <g id="xtick_33">
     <g id="line2d_65">
      <path d="M 610.309367 501.3525 
L 610.309367 57.8325 
" clip-path="url(#pa6dabe91e2)" style="fill: none; stroke-dasharray: 1.85,0.8; stroke-dashoffset: 0; stroke: #b0b0b0; stroke-opacity: 0.8; stroke-width: 0.5"/>
     </g>
     <g id="line2d_66">
      <g>
       <use xlink:href="#ma00e4a00c9" x="610.309367" y="501.3525" style="stroke: #000000; stroke-width: 0.6"/>
      </g>
     </g>
    </g>
    <g id="xtick_34">
     <g id="line2d_67">
      <path d="M 643.755553 501.3525 
L 643.755553 57.8325 
" clip-path="url(#pa6dabe91e2)" style="fill: none; stroke-dasharray: 1.85,0.8; stroke-dashoffset: 0; stroke: #b0b0b0; stroke-opacity: 0.8; stroke-width: 0.5"/>
     </g>
     <g id="line2d_68">
      <g>
       <use xlink:href="#ma00e4a00c9" x="643.755553" y="501.3525" style="stroke: #000000; stroke-width: 0.6"/>
      </g>
     </g>
    </g>
    <g id="xtick_35">
     <g id="line2d_69">
      <path d="M 660.478646 501.3525 
L 660.478646 57.8325 
" clip-path="url(#pa6dabe91e2)" style="fill: none; stroke-dasharray: 1.85,0.8; stroke-dashoffset: 0; stroke: #b0b0b0; stroke-opacity: 0.8; stroke-width: 0.5"/>
     </g>
     <g id="line2d_70">
      <g>
       <use xlink:href="#ma00e4a00c9" x="660.478646" y="501.3525" style="stroke: #000000; stroke-width: 0.6"/>
      </g>
     </g>
    </g>
    <g id="xtick_36">
     <g id="line2d_71">
      <path d="M 677.201739 501.3525 
L 677.201739 57.8325 
" clip-path="url(#pa6dabe91e2)" style="fill: none; stroke-dasharray: 1.85,0.8; stroke-dashoffset: 0; stroke: #b0b0b0; stroke-opacity: 0.8; stroke-width: 0.5"/>
     </g>
     <g id="line2d_72">
      <g>
       <use xlink:href="#ma00e4a00c9" x="677.201739" y="501.3525" style="stroke: #000000; stroke-width: 0.6"/>
      </g>
     </g>
    </g>
    <g id="xtick_37">
     <g id="line2d_73">
      <path d="M 693.924832 501.3525 
L 693.924832 57.8325 
" clip-path="url(#pa6dabe91e2)" style="fill: none; stroke-dasharray: 1.85,0.8; stroke-dashoffset: 0; stroke: #b0b0b0; stroke-opacity: 0.8; stroke-width: 0.5"/>
     </g>
     <g id="line2d_74">
      <g>
       <use xlink:href="#ma00e4a00c9" x="693.924832" y="501.3525" style="stroke: #000000; stroke-width: 0.6"/>
      </g>
     </g>
    </g>
    <g id="xtick_38">
     <g id="line2d_75">
      <path d="M 727.371018 501.3525 
L 727.371018 57.8325 
" clip-path="url(#pa6dabe91e2)" style="fill: none; stroke-dasharray: 1.85,0.8; stroke-dashoffset: 0; stroke: #b0b0b0; stroke-opacity: 0.8; stroke-width: 0.5"/>
     </g>
     <g id="line2d_76">
      <g>
       <use xlink:href="#ma00e4a00c9" x="727.371018" y="501.3525" style="stroke: #000000; stroke-width: 0.6"/>
      </g>
     </g>
    </g>
    <g id="xtick_39">
     <g id="line2d_77">
      <path d="M 744.094111 501.3525 
L 744.094111 57.8325 
" clip-path="url(#pa6dabe91e2)" style="fill: none; stroke-dasharray: 1.85,0.8; stroke-dashoffset: 0; stroke: #b0b0b0; stroke-opacity: 0.8; stroke-width: 0.5"/>
     </g>
     <g id="line2d_78">
      <g>
       <use xlink:href="#ma00e4a00c9" x="744.094111" y="501.3525" style="stroke: #000000; stroke-width: 0.6"/>
      </g>
     </g>
    </g>
    <g id="xtick_40">
     <g id="line2d_79">
      <path d="M 760.817204 501.3525 
L 760.817204 57.8325 
" clip-path="url(#pa6dabe91e2)" style="fill: none; stroke-dasharray: 1.85,0.8; stroke-dashoffset: 0; stroke: #b0b0b0; stroke-opacity: 0.8; stroke-width: 0.5"/>
     </g>
     <g id="line2d_80">
      <g>
       <use xlink:href="#ma00e4a00c9" x="760.817204" y="501.3525" style="stroke: #000000; stroke-width: 0.6"/>
      </g>
     </g>
    </g>
    <g id="text_9">
     <!-- Time (S) -->
     <g transform="translate(396.990625 542.305625) scale(0.2 -0.2)">
      <defs>
       <path id="AptosDisplay-54" d="M 1244 0 
L 1244 3734 
L 50 3734 
L 50 4206 
L 2997 4206 
L 2997 3734 
L 1806 3734 
L 1806 0 
L 1244 0 
z
" transform="scale(0.015625)"/>
       <path id="AptosDisplay-69" d="M 413 0 
L 413 3044 
L 934 3044 
L 934 0 
L 413 0 
z
M 675 3616 
Q 525 3616 437 3702 
Q 350 3788 350 3919 
Q 350 4050 437 4136 
Q 525 4222 675 4222 
Q 822 4222 912 4136 
Q 1003 4050 1003 3919 
Q 1003 3788 912 3702 
Q 822 3616 675 3616 
z
" transform="scale(0.015625)"/>
       <path id="AptosDisplay-6d" d="M 413 0 
L 413 3044 
L 919 3044 
L 931 2575 
Q 1063 2756 1303 2914 
Q 1544 3072 1903 3072 
Q 2403 3072 2618 2778 
Q 2834 2484 2834 1963 
L 2834 0 
L 2316 0 
L 2316 1891 
Q 2316 2106 2275 2275 
Q 2234 2444 2120 2539 
Q 2006 2634 1788 2634 
Q 1488 2634 1277 2482 
Q 1066 2331 934 2156 
L 934 0 
L 413 0 
z
M 4206 0 
L 4206 1891 
Q 4206 2106 4164 2275 
Q 4122 2444 4009 2539 
Q 3897 2634 3681 2634 
Q 3381 2634 3165 2484 
Q 2950 2334 2822 2159 
L 2744 2544 
Q 2916 2741 3175 2906 
Q 3434 3072 3800 3072 
Q 4291 3072 4509 2778 
Q 4728 2484 4728 1963 
L 4728 0 
L 4206 0 
z
" transform="scale(0.015625)"/>
       <path id="AptosDisplay-65" d="M 1663 -56 
Q 1188 -56 878 151 
Q 569 359 417 717 
Q 266 1075 266 1522 
Q 266 1988 412 2342 
Q 559 2697 857 2897 
Q 1156 3097 1606 3097 
Q 2209 3097 2550 2722 
Q 2891 2347 2891 1644 
Q 2891 1597 2889 1533 
Q 2888 1469 2881 1441 
L 791 1441 
Q 794 1144 881 895 
Q 969 647 1161 497 
Q 1353 347 1663 347 
Q 1997 347 2183 511 
Q 2369 675 2378 984 
L 2894 984 
Q 2884 663 2732 430 
Q 2581 197 2309 70 
Q 2038 -56 1663 -56 
z
M 794 1822 
L 2375 1822 
Q 2366 2247 2166 2472 
Q 1966 2697 1606 2697 
Q 1241 2697 1036 2473 
Q 831 2250 794 1822 
z
" transform="scale(0.015625)"/>
       <path id="AptosDisplay-20" transform="scale(0.015625)"/>
       <path id="AptosDisplay-28" d="M 1219 -1116 
Q 969 -678 787 -267 
Q 606 144 511 581 
Q 416 1019 416 1528 
Q 416 2028 509 2486 
Q 603 2944 783 3378 
Q 963 3813 1219 4231 
L 1647 4231 
Q 1278 3600 1101 2886 
Q 925 2172 925 1428 
Q 925 766 1125 103 
Q 1325 -559 1647 -1116 
L 1219 -1116 
z
" transform="scale(0.015625)"/>
       <path id="AptosDisplay-53" d="M 1778 -56 
Q 1328 -56 962 81 
Q 597 219 384 512 
Q 172 806 172 1275 
L 734 1275 
Q 738 941 883 750 
Q 1028 559 1267 481 
Q 1506 403 1794 403 
Q 2063 403 2283 483 
Q 2503 563 2634 723 
Q 2766 884 2766 1134 
Q 2766 1356 2662 1497 
Q 2559 1638 2321 1742 
Q 2084 1847 1678 1950 
Q 1203 2075 897 2223 
Q 591 2372 442 2594 
Q 294 2816 294 3156 
Q 294 3516 462 3761 
Q 631 4006 945 4134 
Q 1259 4263 1697 4263 
Q 2103 4263 2440 4131 
Q 2778 4000 2979 3737 
Q 3181 3475 3181 3084 
L 2616 3084 
Q 2622 3441 2356 3623 
Q 2091 3806 1700 3806 
Q 1300 3806 1073 3645 
Q 847 3484 847 3175 
Q 847 2991 944 2867 
Q 1041 2744 1280 2644 
Q 1519 2544 1941 2434 
Q 2428 2303 2731 2153 
Q 3034 2003 3178 1768 
Q 3322 1534 3322 1153 
Q 3322 747 3117 480 
Q 2913 213 2564 78 
Q 2216 -56 1778 -56 
z
" transform="scale(0.015625)"/>
       <path id="AptosDisplay-29" d="M 234 -1116 
Q 609 -481 786 233 
Q 963 947 963 1694 
Q 963 2356 759 3015 
Q 556 3675 234 4231 
L 663 4231 
Q 919 3800 1098 3389 
Q 1278 2978 1373 2540 
Q 1469 2103 1469 1594 
Q 1469 1094 1375 634 
Q 1281 175 1100 -259 
Q 919 -694 663 -1116 
L 234 -1116 
z
" transform="scale(0.015625)"/>
      </defs>
      <use xlink:href="#AptosDisplay-54"/>
      <use xlink:href="#AptosDisplay-69" x="47.705078"/>
      <use xlink:href="#AptosDisplay-6d" x="68.75"/>
      <use xlink:href="#AptosDisplay-65" x="148.730469"/>
      <use xlink:href="#AptosDisplay-20" x="198.144531"/>
      <use xlink:href="#AptosDisplay-28" x="217.431641"/>
      <use xlink:href="#AptosDisplay-53" x="246.875"/>
      <use xlink:href="#AptosDisplay-29" x="301.464844"/>
     </g>
    </g>
   </g>
   <g id="matplotlib.axis_2">
    <g id="ytick_1">
     <g id="line2d_81">
      <path d="M 95.28125 414.352862 
L 764.88125 414.352862 
" clip-path="url(#pa6dabe91e2)" style="fill: none; stroke: #b0b0b0; stroke-opacity: 0.8; stroke-linecap: square"/>
     </g>
     <g id="line2d_82">
      <defs>
       <path id="mdb68767cf1" d="M 0 0 
L -3.5 0 
" style="stroke: #000000; stroke-width: 0.8"/>
      </defs>
      <g>
       <use xlink:href="#mdb68767cf1" x="95.28125" y="414.352862" style="stroke: #000000; stroke-width: 0.8"/>
      </g>
     </g>
     <g id="text_10">
      <!-- 400 -->
      <g transform="translate(56.903125 420.924737) scale(0.2 -0.2)">
       <defs>
        <path id="AptosDisplay-34" d="M 2106 0 
L 2106 825 
L 125 825 
L 125 1297 
L 2100 4103 
L 2631 4103 
L 2631 1284 
L 3191 1284 
L 3191 825 
L 2631 825 
L 2631 0 
L 2106 0 
z
M 638 1284 
L 2113 1284 
L 2113 3369 
L 638 1284 
z
" transform="scale(0.015625)"/>
       </defs>
       <use xlink:href="#AptosDisplay-34"/>
       <use xlink:href="#AptosDisplay-30" x="52.294922"/>
       <use xlink:href="#AptosDisplay-30" x="104.589844"/>
      </g>
     </g>
    </g>
    <g id="ytick_2">
     <g id="line2d_83">
      <path d="M 95.28125 320.549425 
L 764.88125 320.549425 
" clip-path="url(#pa6dabe91e2)" style="fill: none; stroke: #b0b0b0; stroke-opacity: 0.8; stroke-linecap: square"/>
     </g>
     <g id="line2d_84">
      <g>
       <use xlink:href="#mdb68767cf1" x="95.28125" y="320.549425" style="stroke: #000000; stroke-width: 0.8"/>
      </g>
     </g>
     <g id="text_11">
      <!-- 420 -->
      <g transform="translate(56.903125 327.1213) scale(0.2 -0.2)">
       <use xlink:href="#AptosDisplay-34"/>
       <use xlink:href="#AptosDisplay-32" x="52.294922"/>
       <use xlink:href="#AptosDisplay-30" x="104.589844"/>
      </g>
     </g>
    </g>
    <g id="ytick_3">
     <g id="line2d_85">
      <path d="M 95.28125 226.745989 
L 764.88125 226.745989 
" clip-path="url(#pa6dabe91e2)" style="fill: none; stroke: #b0b0b0; stroke-opacity: 0.8; stroke-linecap: square"/>
     </g>
     <g id="line2d_86">
      <g>
       <use xlink:href="#mdb68767cf1" x="95.28125" y="226.745989" style="stroke: #000000; stroke-width: 0.8"/>
      </g>
     </g>
     <g id="text_12">
      <!-- 440 -->
      <g transform="translate(56.903125 233.317864) scale(0.2 -0.2)">
       <use xlink:href="#AptosDisplay-34"/>
       <use xlink:href="#AptosDisplay-34" x="52.294922"/>
       <use xlink:href="#AptosDisplay-30" x="104.589844"/>
      </g>
     </g>
    </g>
    <g id="ytick_4">
     <g id="line2d_87">
      <path d="M 95.28125 132.942553 
L 764.88125 132.942553 
" clip-path="url(#pa6dabe91e2)" style="fill: none; stroke: #b0b0b0; stroke-opacity: 0.8; stroke-linecap: square"/>
     </g>
     <g id="line2d_88">
      <g>
       <use xlink:href="#mdb68767cf1" x="95.28125" y="132.942553" style="stroke: #000000; stroke-width: 0.8"/>
      </g>
     </g>
     <g id="text_13">
      <!-- 460 -->
      <g transform="translate(56.903125 139.514428) scale(0.2 -0.2)">
       <defs>
        <path id="AptosDisplay-36" d="M 1759 -56 
Q 1325 -56 984 151 
Q 644 359 447 815 
Q 250 1272 250 2013 
Q 250 2738 439 3206 
Q 628 3675 968 3903 
Q 1309 4131 1759 4131 
Q 2253 4131 2595 3875 
Q 2938 3619 3034 3097 
L 2503 3097 
Q 2441 3388 2250 3534 
Q 2059 3681 1759 3681 
Q 1306 3681 1047 3279 
Q 788 2878 788 2013 
L 788 1850 
Q 788 1313 922 992 
Q 1056 672 1279 531 
Q 1503 391 1763 391 
Q 2175 391 2369 644 
Q 2563 897 2563 1272 
Q 2563 1650 2373 1869 
Q 2184 2088 1838 2088 
Q 1422 2088 1114 1897 
Q 806 1706 644 1456 
L 597 1856 
Q 728 2047 922 2201 
Q 1116 2356 1362 2447 
Q 1609 2538 1909 2538 
Q 2253 2538 2523 2395 
Q 2794 2253 2951 1975 
Q 3109 1697 3109 1291 
Q 3109 897 2951 592 
Q 2794 288 2492 116 
Q 2191 -56 1759 -56 
z
" transform="scale(0.015625)"/>
       </defs>
       <use xlink:href="#AptosDisplay-34"/>
       <use xlink:href="#AptosDisplay-36" x="52.294922"/>
       <use xlink:href="#AptosDisplay-30" x="104.589844"/>
      </g>
     </g>
    </g>
    <g id="ytick_5">
     <g id="line2d_89">
      <path d="M 95.28125 484.705439 
L 764.88125 484.705439 
" clip-path="url(#pa6dabe91e2)" style="fill: none; stroke-dasharray: 1.85,0.8; stroke-dashoffset: 0; stroke: #b0b0b0; stroke-opacity: 0.8; stroke-width: 0.5"/>
     </g>
     <g id="line2d_90">
      <defs>
       <path id="m42249f54d3" d="M 0 0 
L -2 0 
" style="stroke: #000000; stroke-width: 0.6"/>
      </defs>
      <g>
       <use xlink:href="#m42249f54d3" x="95.28125" y="484.705439" style="stroke: #000000; stroke-width: 0.6"/>
      </g>
     </g>
    </g>
    <g id="ytick_6">
     <g id="line2d_91">
      <path d="M 95.28125 461.25458 
L 764.88125 461.25458 
" clip-path="url(#pa6dabe91e2)" style="fill: none; stroke-dasharray: 1.85,0.8; stroke-dashoffset: 0; stroke: #b0b0b0; stroke-opacity: 0.8; stroke-width: 0.5"/>
     </g>
     <g id="line2d_92">
      <g>
       <use xlink:href="#m42249f54d3" x="95.28125" y="461.25458" style="stroke: #000000; stroke-width: 0.6"/>
      </g>
     </g>
    </g>
    <g id="ytick_7">
     <g id="line2d_93">
      <path d="M 95.28125 437.803721 
L 764.88125 437.803721 
" clip-path="url(#pa6dabe91e2)" style="fill: none; stroke-dasharray: 1.85,0.8; stroke-dashoffset: 0; stroke: #b0b0b0; stroke-opacity: 0.8; stroke-width: 0.5"/>
     </g>
     <g id="line2d_94">
      <g>
       <use xlink:href="#m42249f54d3" x="95.28125" y="437.803721" style="stroke: #000000; stroke-width: 0.6"/>
      </g>
     </g>
    </g>
    <g id="ytick_8">
     <g id="line2d_95">
      <path d="M 95.28125 390.902002 
L 764.88125 390.902002 
" clip-path="url(#pa6dabe91e2)" style="fill: none; stroke-dasharray: 1.85,0.8; stroke-dashoffset: 0; stroke: #b0b0b0; stroke-opacity: 0.8; stroke-width: 0.5"/>
     </g>
     <g id="line2d_96">
      <g>
       <use xlink:href="#m42249f54d3" x="95.28125" y="390.902002" style="stroke: #000000; stroke-width: 0.6"/>
      </g>
     </g>
    </g>
    <g id="ytick_9">
     <g id="line2d_97">
      <path d="M 95.28125 367.451143 
L 764.88125 367.451143 
" clip-path="url(#pa6dabe91e2)" style="fill: none; stroke-dasharray: 1.85,0.8; stroke-dashoffset: 0; stroke: #b0b0b0; stroke-opacity: 0.8; stroke-width: 0.5"/>
     </g>
     <g id="line2d_98">
      <g>
       <use xlink:href="#m42249f54d3" x="95.28125" y="367.451143" style="stroke: #000000; stroke-width: 0.6"/>
      </g>
     </g>
    </g>
    <g id="ytick_10">
     <g id="line2d_99">
      <path d="M 95.28125 344.000284 
L 764.88125 344.000284 
" clip-path="url(#pa6dabe91e2)" style="fill: none; stroke-dasharray: 1.85,0.8; stroke-dashoffset: 0; stroke: #b0b0b0; stroke-opacity: 0.8; stroke-width: 0.5"/>
     </g>
     <g id="line2d_100">
      <g>
       <use xlink:href="#m42249f54d3" x="95.28125" y="344.000284" style="stroke: #000000; stroke-width: 0.6"/>
      </g>
     </g>
    </g>
    <g id="ytick_11">
     <g id="line2d_101">
      <path d="M 95.28125 297.098566 
L 764.88125 297.098566 
" clip-path="url(#pa6dabe91e2)" style="fill: none; stroke-dasharray: 1.85,0.8; stroke-dashoffset: 0; stroke: #b0b0b0; stroke-opacity: 0.8; stroke-width: 0.5"/>
     </g>
     <g id="line2d_102">
      <g>
       <use xlink:href="#m42249f54d3" x="95.28125" y="297.098566" style="stroke: #000000; stroke-width: 0.6"/>
      </g>
     </g>
    </g>
    <g id="ytick_12">
     <g id="line2d_103">
      <path d="M 95.28125 273.647707 
L 764.88125 273.647707 
" clip-path="url(#pa6dabe91e2)" style="fill: none; stroke-dasharray: 1.85,0.8; stroke-dashoffset: 0; stroke: #b0b0b0; stroke-opacity: 0.8; stroke-width: 0.5"/>
     </g>
     <g id="line2d_104">
      <g>
       <use xlink:href="#m42249f54d3" x="95.28125" y="273.647707" style="stroke: #000000; stroke-width: 0.6"/>
      </g>
     </g>
    </g>
    <g id="ytick_13">
     <g id="line2d_105">
      <path d="M 95.28125 250.196848 
L 764.88125 250.196848 
" clip-path="url(#pa6dabe91e2)" style="fill: none; stroke-dasharray: 1.85,0.8; stroke-dashoffset: 0; stroke: #b0b0b0; stroke-opacity: 0.8; stroke-width: 0.5"/>
     </g>
     <g id="line2d_106">
      <g>
       <use xlink:href="#m42249f54d3" x="95.28125" y="250.196848" style="stroke: #000000; stroke-width: 0.6"/>
      </g>
     </g>
    </g>
    <g id="ytick_14">
     <g id="line2d_107">
      <path d="M 95.28125 203.29513 
L 764.88125 203.29513 
" clip-path="url(#pa6dabe91e2)" style="fill: none; stroke-dasharray: 1.85,0.8; stroke-dashoffset: 0; stroke: #b0b0b0; stroke-opacity: 0.8; stroke-width: 0.5"/>
     </g>
     <g id="line2d_108">
      <g>
       <use xlink:href="#m42249f54d3" x="95.28125" y="203.29513" style="stroke: #000000; stroke-width: 0.6"/>
      </g>
     </g>
    </g>
    <g id="ytick_15">
     <g id="line2d_109">
      <path d="M 95.28125 179.844271 
L 764.88125 179.844271 
" clip-path="url(#pa6dabe91e2)" style="fill: none; stroke-dasharray: 1.85,0.8; stroke-dashoffset: 0; stroke: #b0b0b0; stroke-opacity: 0.8; stroke-width: 0.5"/>
     </g>
     <g id="line2d_110">
      <g>
       <use xlink:href="#m42249f54d3" x="95.28125" y="179.844271" style="stroke: #000000; stroke-width: 0.6"/>
      </g>
     </g>
    </g>
    <g id="ytick_16">
     <g id="line2d_111">
      <path d="M 95.28125 156.393412 
L 764.88125 156.393412 
" clip-path="url(#pa6dabe91e2)" style="fill: none; stroke-dasharray: 1.85,0.8; stroke-dashoffset: 0; stroke: #b0b0b0; stroke-opacity: 0.8; stroke-width: 0.5"/>
     </g>
     <g id="line2d_112">
      <g>
       <use xlink:href="#m42249f54d3" x="95.28125" y="156.393412" style="stroke: #000000; stroke-width: 0.6"/>
      </g>
     </g>
    </g>
    <g id="ytick_17">
     <g id="line2d_113">
      <path d="M 95.28125 109.491694 
L 764.88125 109.491694 
" clip-path="url(#pa6dabe91e2)" style="fill: none; stroke-dasharray: 1.85,0.8; stroke-dashoffset: 0; stroke: #b0b0b0; stroke-opacity: 0.8; stroke-width: 0.5"/>
     </g>
     <g id="line2d_114">
      <g>
       <use xlink:href="#m42249f54d3" x="95.28125" y="109.491694" style="stroke: #000000; stroke-width: 0.6"/>
      </g>
     </g>
    </g>
    <g id="ytick_18">
     <g id="line2d_115">
      <path d="M 95.28125 86.040835 
L 764.88125 86.040835 
" clip-path="url(#pa6dabe91e2)" style="fill: none; stroke-dasharray: 1.85,0.8; stroke-dashoffset: 0; stroke: #b0b0b0; stroke-opacity: 0.8; stroke-width: 0.5"/>
     </g>
     <g id="line2d_116">
      <g>
       <use xlink:href="#m42249f54d3" x="95.28125" y="86.040835" style="stroke: #000000; stroke-width: 0.6"/>
      </g>
     </g>
    </g>
    <g id="ytick_19">
     <g id="line2d_117">
      <path d="M 95.28125 62.589976 
L 764.88125 62.589976 
" clip-path="url(#pa6dabe91e2)" style="fill: none; stroke-dasharray: 1.85,0.8; stroke-dashoffset: 0; stroke: #b0b0b0; stroke-opacity: 0.8; stroke-width: 0.5"/>
     </g>
     <g id="line2d_118">
      <g>
       <use xlink:href="#m42249f54d3" x="95.28125" y="62.589976" style="stroke: #000000; stroke-width: 0.6"/>
      </g>
     </g>
    </g>
    <g id="text_14">
     <!-- Light (W/m^2) -->
     <g transform="translate(49.221875 337.558125) rotate(-90) scale(0.2 -0.2)">
      <defs>
       <path id="AptosDisplay-4c" d="M 472 0 
L 472 4206 
L 1034 4206 
L 1034 484 
L 3000 484 
L 3000 0 
L 472 0 
z
" transform="scale(0.015625)"/>
       <path id="AptosDisplay-67" d="M 1397 -1178 
Q 925 -1178 640 -1065 
Q 356 -953 229 -765 
Q 103 -578 103 -359 
Q 103 -94 329 112 
Q 556 319 1031 403 
L 1128 575 
L 1475 575 
Q 2184 575 2489 376 
Q 2794 178 2794 -238 
Q 2794 -650 2437 -914 
Q 2081 -1178 1397 -1178 
z
M 1384 -800 
Q 1878 -800 2086 -650 
Q 2294 -500 2294 -278 
Q 2294 -147 2225 -51 
Q 2156 44 1975 97 
Q 1794 150 1456 150 
L 1034 150 
Q 819 97 708 -31 
Q 597 -159 597 -328 
Q 597 -516 778 -658 
Q 959 -800 1384 -800 
z
M 1025 216 
Q 722 228 550 312 
Q 378 397 306 511 
Q 234 625 234 722 
Q 234 866 362 1009 
Q 491 1153 772 1241 
L 1038 1069 
Q 866 1031 772 953 
Q 678 875 678 791 
Q 678 731 734 682 
Q 791 634 928 606 
Q 1066 578 1303 575 
L 1025 216 
z
M 1363 984 
Q 1003 984 753 1128 
Q 503 1272 375 1509 
Q 247 1747 247 2022 
Q 247 2313 376 2550 
Q 506 2788 754 2928 
Q 1003 3069 1366 3069 
Q 1738 3069 1983 2928 
Q 2228 2788 2351 2550 
Q 2475 2313 2475 2022 
Q 2475 1741 2350 1505 
Q 2225 1269 1979 1126 
Q 1734 984 1363 984 
z
M 1366 1341 
Q 1641 1341 1812 1512 
Q 1984 1684 1984 2022 
Q 1984 2375 1817 2545 
Q 1650 2716 1372 2716 
Q 1094 2716 919 2541 
Q 744 2366 744 2025 
Q 744 1681 931 1511 
Q 1119 1341 1366 1341 
z
M 2131 2734 
L 1922 2931 
Q 2038 3225 2252 3331 
Q 2466 3438 2794 3447 
L 2794 3006 
Q 2588 3006 2416 2961 
Q 2244 2916 2131 2734 
z
" transform="scale(0.015625)"/>
       <path id="AptosDisplay-68" d="M 413 0 
L 413 4206 
L 931 4206 
L 931 2575 
Q 1069 2756 1317 2914 
Q 1566 3072 1950 3072 
Q 2428 3072 2637 2783 
Q 2847 2494 2847 1963 
L 2847 0 
L 2328 0 
L 2328 1891 
Q 2328 2106 2287 2275 
Q 2247 2444 2139 2539 
Q 2031 2634 1822 2634 
Q 1503 2634 1284 2482 
Q 1066 2331 934 2156 
L 934 0 
L 413 0 
z
" transform="scale(0.015625)"/>
       <path id="AptosDisplay-74" d="M 1466 0 
Q 1100 0 901 117 
Q 703 234 629 454 
Q 556 675 556 984 
L 556 2622 
L 50 2622 
L 50 3044 
L 556 3044 
L 556 3741 
L 1078 3741 
L 1078 3044 
L 1831 3044 
L 1831 2622 
L 1078 2622 
L 1078 1009 
Q 1078 725 1151 575 
Q 1225 425 1500 425 
L 1831 425 
L 1831 0 
L 1466 0 
z
" transform="scale(0.015625)"/>
       <path id="AptosDisplay-57" d="M 1216 0 
L -13 4206 
L 575 4206 
L 1525 697 
L 2531 4206 
L 3156 4206 
L 4163 697 
L 5119 4206 
L 5681 4206 
L 4453 0 
L 3866 0 
L 2831 3556 
L 1813 0 
L 1216 0 
z
" transform="scale(0.015625)"/>
       <path id="AptosDisplay-2f" d="M 72 0 
L 1603 4206 
L 2100 4206 
L 569 0 
L 72 0 
z
" transform="scale(0.015625)"/>
       <path id="AptosDisplay-5e" d="M 428 2438 
L 1459 4206 
L 1884 4206 
L 2916 2438 
L 2366 2438 
L 1672 3650 
L 978 2438 
L 428 2438 
z
" transform="scale(0.015625)"/>
      </defs>
      <use xlink:href="#AptosDisplay-4c"/>
      <use xlink:href="#AptosDisplay-69" x="48.4375"/>
      <use xlink:href="#AptosDisplay-67" x="69.482422"/>
      <use xlink:href="#AptosDisplay-68" x="113.427734"/>
      <use xlink:href="#AptosDisplay-74" x="164.013672"/>
      <use xlink:href="#AptosDisplay-20" x="194.384766"/>
      <use xlink:href="#AptosDisplay-28" x="213.671875"/>
      <use xlink:href="#AptosDisplay-57" x="243.115234"/>
      <use xlink:href="#AptosDisplay-2f" x="331.689453"/>
      <use xlink:href="#AptosDisplay-6d" x="365.625"/>
      <use xlink:href="#AptosDisplay-5e" x="445.605469"/>
      <use xlink:href="#AptosDisplay-32" x="497.900391"/>
      <use xlink:href="#AptosDisplay-29" x="550.195312"/>
     </g>
    </g>
   </g>
   <g id="line2d_119">
    <path d="M 125.717614 127.619208 
L 126.386537 119.345745 
L 127.055461 115.213703 
L 127.724385 173.109184 
L 128.393309 158.635314 
L 129.062232 162.767355 
L 129.731156 152.430217 
L 130.40008 164.835721 
L 131.069003 156.566948 
L 132.406851 173.109184 
L 133.075775 156.566948 
L 133.744698 154.498583 
L 134.413622 164.835721 
L 135.082546 150.361851 
L 135.751469 189.64673 
L 136.420393 160.69899 
L 137.089317 162.767355 
L 137.758241 158.635314 
L 138.427164 152.430217 
L 139.096088 160.69899 
L 140.433935 164.835721 
L 141.102859 154.498583 
L 141.771783 164.835721 
L 143.10963 156.566948 
L 143.778554 160.69899 
L 144.447478 158.635314 
L 145.116401 164.835721 
L 145.785325 152.430217 
L 146.454249 148.293485 
L 147.123173 166.904087 
L 147.792096 156.566948 
L 148.46102 156.566948 
L 149.129944 158.635314 
L 149.798867 158.635314 
L 150.467791 150.361851 
L 151.136715 152.430217 
L 151.805639 148.293485 
L 152.474562 150.361851 
L 153.143486 137.956347 
L 154.481334 142.093078 
L 155.150257 127.619208 
L 155.819181 135.887981 
L 156.488105 150.361851 
L 157.157028 131.751249 
L 157.825952 131.751249 
L 158.494876 133.819615 
L 159.1638 131.751249 
L 159.832723 131.751249 
L 160.501647 140.024712 
L 161.170571 142.093078 
L 161.839494 137.956347 
L 162.508418 146.22981 
L 163.177342 125.550842 
L 163.846266 142.093078 
L 164.515189 140.024712 
L 165.184113 144.161444 
L 165.853037 140.024712 
L 166.52196 144.161444 
L 167.190884 137.956347 
L 167.859808 137.956347 
L 168.528732 133.819615 
L 169.197655 140.024712 
L 169.866579 121.414111 
L 170.535503 135.887981 
L 171.87335 135.887981 
L 172.542274 127.619208 
L 173.880121 131.751249 
L 174.549045 121.414111 
L 175.217969 135.887981 
L 175.886892 131.751249 
L 176.555816 142.093078 
L 177.22474 133.819615 
L 177.893664 127.619208 
L 178.562587 160.69899 
L 179.231511 129.687574 
L 179.900435 123.482476 
L 180.569359 125.550842 
L 181.238282 133.819615 
L 181.907206 125.550842 
L 182.57613 129.687574 
L 183.245053 121.414111 
L 183.913977 123.482476 
L 184.582901 123.482476 
L 185.251825 117.277379 
L 185.920748 125.550842 
L 186.589672 127.619208 
L 187.258596 119.345745 
L 187.927519 123.482476 
L 188.596443 115.213703 
L 189.265367 121.414111 
L 189.934291 117.277379 
L 190.603214 111.076972 
L 191.272138 119.345745 
L 191.941062 144.161444 
L 192.609985 115.213703 
L 193.278909 111.076972 
L 194.616757 115.213703 
L 195.28568 113.145338 
L 195.954604 121.414111 
L 196.623528 77.9925 
L 197.292451 115.213703 
L 197.961375 111.076972 
L 198.630299 115.213703 
L 199.968146 111.076972 
L 200.63707 111.076972 
L 201.305994 109.008606 
L 201.974918 117.277379 
L 202.643841 106.94024 
L 203.312765 111.076972 
L 203.981689 113.145338 
L 204.650612 106.94024 
L 205.319536 106.94024 
L 205.98846 102.808199 
L 206.657384 104.871875 
L 207.326307 77.9925 
L 207.995231 115.213703 
L 208.664155 104.871875 
L 209.333078 111.076972 
L 210.002002 100.739833 
L 210.670926 100.739833 
L 211.33985 94.534736 
L 212.008773 98.671468 
L 213.346621 94.534736 
L 214.015544 86.265963 
L 214.684468 111.076972 
L 215.353392 92.46637 
L 216.022316 94.534736 
L 216.691239 123.482476 
L 217.360163 96.603102 
L 218.029087 96.603102 
L 219.366934 92.46637 
L 220.035858 96.603102 
L 220.704782 96.603102 
L 221.373705 104.871875 
L 222.042629 98.671468 
L 222.711553 106.94024 
L 223.380476 111.076972 
L 224.0494 109.008606 
L 224.718324 113.145338 
L 225.387248 123.482476 
L 226.056171 104.871875 
L 226.725095 109.008606 
L 227.394019 121.414111 
L 228.062943 115.213703 
L 229.40079 119.345745 
L 230.069714 156.566948 
L 230.738637 129.687574 
L 231.407561 119.345745 
L 232.076485 117.277379 
L 232.745409 117.277379 
L 233.414332 123.482476 
L 234.083256 111.076972 
L 234.75218 111.076972 
L 235.421103 117.277379 
L 236.090027 106.94024 
L 236.758951 115.213703 
L 237.427875 113.145338 
L 238.096798 133.819615 
L 238.765722 113.145338 
L 239.434646 119.345745 
L 240.103569 115.213703 
L 241.441417 119.345745 
L 242.110341 113.145338 
L 242.779264 117.277379 
L 243.448188 90.398004 
L 244.117112 121.414111 
L 244.786035 127.619208 
L 245.454959 127.619208 
L 246.123883 133.819615 
L 246.792807 144.161444 
L 247.46173 142.093078 
L 248.130654 152.430217 
L 248.799578 150.361851 
L 249.468501 177.241226 
L 250.137425 177.241226 
L 250.806349 191.715096 
L 251.475273 199.988559 
L 252.144196 202.056925 
L 253.482044 222.731202 
L 254.150968 231.004665 
L 254.819891 220.662836 
L 255.488815 235.136706 
L 256.157739 233.068341 
L 257.495586 259.952406 
L 258.16451 253.747308 
L 258.833434 239.273438 
L 259.502357 251.678942 
L 260.171281 253.747308 
L 260.840205 251.678942 
L 261.509128 245.478535 
L 262.178052 237.205072 
L 262.846976 239.273438 
L 263.5159 245.478535 
L 264.184823 237.205072 
L 264.853747 253.747308 
L 265.522671 251.678942 
L 266.191594 259.952406 
L 266.860518 264.084447 
L 267.529442 278.558317 
L 268.198366 286.83178 
L 268.867289 286.83178 
L 269.536213 301.30565 
L 270.205137 309.574423 
L 270.87406 321.979928 
L 272.880832 340.590529 
L 273.549755 348.859302 
L 274.218679 355.0644 
L 274.887603 359.201131 
L 275.556526 352.996034 
L 276.22545 350.927668 
L 276.894374 357.132765 
L 278.901145 350.927668 
L 279.570069 352.996034 
L 280.238993 346.795627 
L 280.907916 344.727261 
L 281.57684 324.048294 
L 282.245764 340.590529 
L 282.914687 332.321757 
L 283.583611 338.522164 
L 284.252535 334.385432 
L 285.590382 317.847886 
L 286.259306 369.53827 
L 286.92823 334.385432 
L 287.597153 336.453798 
L 288.266077 332.321757 
L 288.935001 338.522164 
L 289.603925 342.658895 
L 290.272848 330.253391 
L 290.941772 344.727261 
L 291.610696 352.996034 
L 292.279619 350.927668 
L 293.617467 381.943774 
L 294.286391 377.807043 
L 294.955314 381.943774 
L 295.624238 392.280913 
L 296.293162 404.686417 
L 296.962085 408.823149 
L 297.631009 402.622742 
L 298.299933 412.959881 
L 298.968857 415.028246 
L 299.63778 448.108028 
L 300.306704 421.228653 
L 300.975628 421.228653 
L 301.644552 423.297019 
L 302.313475 427.433751 
L 302.982399 425.365385 
L 303.651323 429.502116 
L 304.320246 415.028246 
L 304.98917 443.975987 
L 305.658094 433.634158 
L 306.327018 435.702524 
L 306.995941 452.24476 
L 307.664865 437.770889 
L 308.333789 435.702524 
L 309.002712 435.702524 
L 309.671636 437.770889 
L 310.34056 441.907621 
L 311.009484 437.770889 
L 311.678407 441.907621 
L 312.347331 439.839255 
L 313.016255 441.907621 
L 313.685178 437.770889 
L 314.354102 441.907621 
L 315.023026 435.702524 
L 315.69195 439.839255 
L 316.360873 450.176394 
L 317.029797 454.313125 
L 317.698721 460.518223 
L 318.367644 456.381491 
L 319.705492 460.518223 
L 320.374416 481.1925 
L 321.043339 462.581898 
L 321.712263 472.923727 
L 322.381187 470.855361 
L 323.05011 470.855361 
L 323.719034 468.786996 
L 324.387958 474.992093 
L 325.056882 470.855361 
L 327.732577 456.381491 
L 328.4015 433.634158 
L 329.070424 454.313125 
L 329.739348 443.975987 
L 330.408271 441.907621 
L 331.077195 433.634158 
L 331.746119 429.502116 
L 332.415043 421.228653 
L 333.083966 417.096612 
L 333.75289 408.823149 
L 334.421814 406.754783 
L 335.090737 396.417645 
L 337.097509 384.01214 
L 337.766432 369.53827 
L 338.435356 369.53827 
L 339.773203 352.996034 
L 340.442127 342.658895 
L 341.111051 352.996034 
L 341.779975 355.0644 
L 342.448898 330.253391 
L 343.117822 321.979928 
L 343.786746 286.83178 
L 344.455669 319.911562 
L 345.124593 315.779521 
L 345.793517 315.779521 
L 346.462441 309.574423 
L 347.131364 311.642789 
L 347.800288 311.642789 
L 348.469212 321.979928 
L 349.138135 317.847886 
L 349.807059 326.116659 
L 350.475983 332.321757 
L 351.144907 305.437692 
L 351.81383 328.185025 
L 352.482754 328.185025 
L 353.151678 319.911562 
L 353.820602 328.185025 
L 354.489525 332.321757 
L 355.158449 330.253391 
L 355.827373 348.859302 
L 356.496296 352.996034 
L 357.16522 352.996034 
L 357.834144 334.385432 
L 358.503068 336.453798 
L 359.171991 336.453798 
L 359.840915 338.522164 
L 360.509839 332.321757 
L 361.178762 330.253391 
L 361.847686 332.321757 
L 362.51661 311.642789 
L 363.185534 338.522164 
L 363.854457 334.385432 
L 364.523381 332.321757 
L 365.192305 326.116659 
L 365.861228 328.185025 
L 366.530152 326.116659 
L 368.536923 307.506058 
L 369.205847 305.437692 
L 369.874771 301.30565 
L 370.543694 305.437692 
L 371.212618 299.237285 
L 371.881542 295.100553 
L 372.550466 286.83178 
L 373.219389 290.963822 
L 373.888313 286.83178 
L 374.557237 274.426276 
L 375.22616 274.426276 
L 375.895084 282.695049 
L 376.564008 268.221178 
L 377.232932 268.221178 
L 377.901855 266.152813 
L 378.570779 259.952406 
L 379.239703 251.678942 
L 379.908627 245.478535 
L 380.57755 243.41017 
L 381.246474 264.084447 
L 381.915398 210.325698 
L 382.584321 216.530795 
L 383.253245 195.851827 
L 383.922169 195.851827 
L 384.591093 187.583055 
L 385.260016 183.446323 
L 385.92894 187.583055 
L 386.597864 173.109184 
L 387.266787 164.835721 
L 388.604635 168.972453 
L 389.273559 156.566948 
L 389.942482 166.904087 
L 390.611406 158.635314 
L 391.28033 152.430217 
L 391.949253 152.430217 
L 392.618177 160.69899 
L 393.287101 160.69899 
L 393.956025 166.904087 
L 394.624948 162.767355 
L 395.293872 164.835721 
L 395.962796 173.109184 
L 396.631719 166.904087 
L 397.300643 168.972453 
L 397.969567 168.972453 
L 398.638491 171.040819 
L 399.307414 166.904087 
L 399.976338 173.109184 
L 400.645262 166.904087 
L 401.314186 166.904087 
L 401.983109 164.835721 
L 402.652033 160.69899 
L 403.320957 185.514689 
L 403.98988 158.635314 
L 404.658804 185.514689 
L 405.331072 160.69899 
L 405.999996 164.835721 
L 406.66892 160.69899 
L 407.337844 160.69899 
L 408.006767 162.767355 
L 408.675691 160.69899 
L 409.344615 160.69899 
L 410.013538 156.566948 
L 410.682462 162.767355 
L 411.351386 158.635314 
L 412.02031 166.904087 
L 412.689233 177.241226 
L 413.358157 156.566948 
L 414.027081 150.361851 
L 414.696004 160.69899 
L 415.364928 144.161444 
L 416.702776 164.835721 
L 417.371699 158.635314 
L 418.040623 158.635314 
L 418.709547 162.767355 
L 419.378471 162.767355 
L 420.047394 156.566948 
L 420.716318 158.635314 
L 421.385242 158.635314 
L 422.054165 154.498583 
L 422.723089 154.498583 
L 423.392013 158.635314 
L 424.060937 164.835721 
L 424.72986 154.498583 
L 425.398784 171.040819 
L 426.067708 158.635314 
L 426.736631 175.17286 
L 427.405555 162.767355 
L 428.074479 173.109184 
L 428.743403 160.69899 
L 429.412326 162.767355 
L 430.08125 160.69899 
L 430.750174 173.109184 
L 431.419097 166.904087 
L 432.088021 164.835721 
L 432.756945 164.835721 
L 433.425869 156.566948 
L 434.094792 156.566948 
L 434.763716 166.904087 
L 435.43264 160.69899 
L 436.101563 152.430217 
L 436.770487 160.69899 
L 437.439411 158.635314 
L 438.108335 162.767355 
L 438.777258 160.69899 
L 439.446182 156.566948 
L 440.115106 171.040819 
L 440.784029 158.635314 
L 441.452953 162.767355 
L 442.121877 160.69899 
L 442.790801 166.904087 
L 443.459724 164.835721 
L 444.128648 168.972453 
L 444.797572 177.241226 
L 446.135419 177.241226 
L 446.804343 183.446323 
L 447.473267 185.514689 
L 448.14219 183.446323 
L 448.811114 191.715096 
L 449.480038 189.64673 
L 450.148962 197.920193 
L 450.817885 199.988559 
L 451.486809 197.920193 
L 452.155733 210.325698 
L 452.824656 212.394063 
L 453.49358 208.257332 
L 454.162504 206.188966 
L 454.831428 212.394063 
L 455.500351 202.056925 
L 456.169275 212.394063 
L 456.838199 208.257332 
L 457.507122 206.188966 
L 458.176046 210.325698 
L 458.84497 235.136706 
L 459.513894 208.257332 
L 460.182817 199.988559 
L 460.851741 206.188966 
L 461.520665 208.257332 
L 462.189588 206.188966 
L 462.858512 202.056925 
L 463.527436 204.1206 
L 464.19636 199.988559 
L 464.865283 199.988559 
L 466.203131 195.851827 
L 466.872054 191.715096 
L 467.540978 197.920193 
L 468.209902 189.64673 
L 468.878826 193.783462 
L 469.547749 195.851827 
L 470.216673 191.715096 
L 470.885597 199.988559 
L 471.554521 187.583055 
L 472.223444 191.715096 
L 473.561292 195.851827 
L 474.230215 189.64673 
L 474.899139 195.851827 
L 475.568063 197.920193 
L 476.236987 204.1206 
L 476.90591 202.056925 
L 477.574834 197.920193 
L 478.912681 202.056925 
L 480.250529 197.920193 
L 480.919453 183.446323 
L 481.588376 191.715096 
L 482.2573 193.783462 
L 482.926224 191.715096 
L 483.595147 185.514689 
L 484.264071 187.583055 
L 484.932995 179.309591 
L 485.601919 173.109184 
L 486.270842 173.109184 
L 486.939766 171.040819 
L 487.60869 181.377957 
L 488.277613 162.767355 
L 488.946537 162.767355 
L 489.615461 156.566948 
L 490.284385 152.430217 
L 490.953308 144.161444 
L 491.622232 150.361851 
L 492.291156 148.293485 
L 492.96008 154.498583 
L 494.297927 142.093078 
L 494.966851 148.293485 
L 495.635774 144.161444 
L 496.304698 137.956347 
L 496.973622 137.956347 
L 497.642546 140.024712 
L 498.311469 168.972453 
L 498.980393 144.161444 
L 499.649317 140.024712 
L 500.31824 152.430217 
L 500.987164 154.498583 
L 501.656088 144.161444 
L 502.325012 152.430217 
L 502.993935 146.22981 
L 503.662859 152.430217 
L 504.331783 150.361851 
L 505.000706 144.161444 
L 505.66963 152.430217 
L 506.338554 146.22981 
L 507.676401 150.361851 
L 508.345325 160.69899 
L 509.014249 160.69899 
L 509.683172 152.430217 
L 510.352096 140.024712 
L 511.02102 140.024712 
L 511.689944 133.819615 
L 513.027791 133.819615 
L 513.696715 131.751249 
L 514.365638 131.751249 
L 515.034562 123.482476 
L 516.37241 135.887981 
L 517.041333 152.430217 
L 517.710257 131.751249 
L 518.379181 129.687574 
L 519.048105 131.751249 
L 519.717028 137.956347 
L 520.385952 121.414111 
L 521.054876 150.361851 
L 521.723799 131.751249 
L 522.392723 127.619208 
L 523.061647 133.819615 
L 523.730571 127.619208 
L 524.399494 144.161444 
L 525.068418 133.819615 
L 525.737342 125.550842 
L 526.406265 123.482476 
L 527.075189 125.550842 
L 529.750884 117.277379 
L 530.419808 129.687574 
L 531.088731 129.687574 
L 531.757655 109.008606 
L 532.426579 131.751249 
L 533.095503 129.687574 
L 533.764426 129.687574 
L 534.43335 127.619208 
L 535.102274 100.739833 
L 535.771197 129.687574 
L 536.440121 146.22981 
L 537.109045 133.819615 
L 539.115816 121.414111 
L 539.78474 131.751249 
L 540.453663 129.687574 
L 541.122587 133.819615 
L 541.791511 129.687574 
L 542.460435 127.619208 
L 543.129358 109.008606 
L 543.798282 127.619208 
L 544.467206 131.751249 
L 545.13613 131.751249 
L 545.805053 135.887981 
L 547.142901 127.619208 
L 547.811824 131.751249 
L 548.480748 121.414111 
L 549.149672 102.808199 
L 549.818596 129.687574 
L 550.487519 131.751249 
L 551.156443 142.093078 
L 551.825367 123.482476 
L 552.49429 135.887981 
L 553.163214 140.024712 
L 553.832138 135.887981 
L 554.501062 137.956347 
L 555.169985 119.345745 
L 555.838909 131.751249 
L 557.176756 140.024712 
L 557.84568 137.956347 
L 558.514604 148.293485 
L 559.183528 144.161444 
L 559.852451 144.161444 
L 560.521375 148.293485 
L 561.190299 144.161444 
L 561.859222 142.093078 
L 563.19707 150.361851 
L 563.865994 148.293485 
L 564.534917 150.361851 
L 565.203841 148.293485 
L 565.872765 148.293485 
L 566.541688 152.430217 
L 567.210612 148.293485 
L 567.879536 146.22981 
L 568.54846 148.293485 
L 569.217383 179.309591 
L 569.886307 140.024712 
L 570.555231 146.22981 
L 571.224155 144.161444 
L 571.893078 146.22981 
L 572.562002 142.093078 
L 573.230926 175.17286 
L 573.899849 146.22981 
L 574.568773 144.161444 
L 575.237697 181.377957 
L 575.906621 142.093078 
L 576.575544 144.161444 
L 577.244468 150.361851 
L 577.913392 140.024712 
L 578.582315 144.161444 
L 579.251239 140.024712 
L 579.920163 148.293485 
L 580.589087 137.956347 
L 581.25801 100.739833 
L 581.926934 144.161444 
L 582.595858 137.956347 
L 583.264781 144.161444 
L 583.933705 144.161444 
L 584.602629 146.22981 
L 585.940476 146.22981 
L 586.6094 142.093078 
L 587.278324 144.161444 
L 587.947247 142.093078 
L 588.616171 142.093078 
L 589.285095 144.161444 
L 589.954019 140.024712 
L 590.622942 144.161444 
L 591.291866 137.956347 
L 591.96079 142.093078 
L 592.629714 156.566948 
L 593.298637 137.956347 
L 593.967561 129.687574 
L 594.636485 133.819615 
L 595.305408 129.687574 
L 595.974332 123.482476 
L 596.643256 131.751249 
L 597.31218 131.751249 
L 597.981103 123.482476 
L 599.318951 135.887981 
L 599.987874 135.887981 
L 601.325722 119.345745 
L 601.994646 121.414111 
L 602.663569 121.414111 
L 603.332493 125.550842 
L 604.001417 119.345745 
L 604.67034 121.414111 
L 605.339264 119.345745 
L 606.008188 127.619208 
L 606.677112 117.277379 
L 607.346035 125.550842 
L 608.014959 119.345745 
L 608.683883 117.277379 
L 609.352806 117.277379 
L 610.02173 168.972453 
L 610.690654 125.550842 
L 612.028501 121.414111 
L 612.697425 117.277379 
L 613.366349 123.482476 
L 614.035272 119.345745 
L 614.704196 127.619208 
L 615.37312 131.751249 
L 616.042044 127.619208 
L 617.379891 131.751249 
L 618.048815 123.482476 
L 618.717739 125.550842 
L 620.055586 137.956347 
L 620.72451 137.956347 
L 621.393433 133.819615 
L 622.062357 140.024712 
L 623.400205 144.161444 
L 624.069128 150.361851 
L 624.738052 158.635314 
L 625.406976 152.430217 
L 626.075899 154.498583 
L 626.744823 160.69899 
L 627.413747 168.972453 
L 628.082671 179.309591 
L 628.751594 183.446323 
L 629.420518 177.241226 
L 630.089442 189.64673 
L 630.758365 189.64673 
L 631.427289 202.056925 
L 632.096213 199.988559 
L 632.765137 216.530795 
L 633.43406 212.394063 
L 634.102984 216.530795 
L 634.771908 216.530795 
L 635.440831 224.799568 
L 636.109755 222.731202 
L 636.778679 222.731202 
L 637.447603 224.799568 
L 638.116526 193.783462 
L 638.78545 228.936299 
L 639.454374 235.136706 
L 640.123297 228.936299 
L 640.792221 235.136706 
L 641.461145 237.205072 
L 642.130069 247.542211 
L 642.798992 237.205072 
L 643.467916 255.815674 
L 644.13684 243.41017 
L 644.805764 264.084447 
L 645.474687 274.426276 
L 646.143611 282.695049 
L 646.812535 284.763414 
L 647.481458 305.437692 
L 648.150382 305.437692 
L 648.819306 311.642789 
L 649.48823 315.779521 
L 650.157153 326.116659 
L 650.826077 324.048294 
L 652.163924 350.927668 
L 652.832848 350.927668 
L 653.501772 359.201131 
L 654.170696 365.401538 
L 654.839619 359.201131 
L 656.177467 367.469904 
L 656.84639 386.080506 
L 657.515314 388.148872 
L 658.184238 398.48601 
L 658.853162 394.349279 
L 659.522085 396.417645 
L 660.859933 404.686417 
L 661.528856 396.417645 
L 662.19778 396.417645 
L 662.866704 398.48601 
L 663.535628 394.349279 
L 664.204551 396.417645 
L 665.542399 388.148872 
L 666.880246 388.148872 
L 667.54917 371.606636 
L 668.218094 371.606636 
L 668.887017 369.53827 
L 669.555941 365.401538 
L 671.562712 346.795627 
L 672.231636 311.642789 
L 672.90056 338.522164 
L 673.569483 336.453798 
L 674.238407 332.321757 
L 674.907331 334.385432 
L 675.576255 328.185025 
L 676.245178 317.847886 
L 676.914102 313.711155 
L 677.583026 313.711155 
L 678.251949 305.437692 
L 679.589797 309.574423 
L 680.258721 305.437692 
L 680.927644 311.642789 
L 681.596568 301.30565 
L 682.265492 299.237285 
L 682.934415 305.437692 
L 683.603339 315.779521 
L 684.272263 311.642789 
L 685.61011 307.506058 
L 686.279034 311.642789 
L 686.947958 309.574423 
L 687.616881 311.642789 
L 688.285805 305.437692 
L 688.954729 309.574423 
L 689.623653 311.642789 
L 690.292576 301.30565 
L 690.9615 303.374016 
L 691.630424 303.374016 
L 692.299348 295.100553 
L 692.968271 301.30565 
L 693.637195 295.100553 
L 694.306119 301.30565 
L 694.975042 301.30565 
L 695.643966 288.900146 
L 696.31289 290.963822 
L 696.981814 280.626683 
L 698.319661 280.626683 
L 698.988585 270.289544 
L 699.657508 274.426276 
L 700.326432 239.273438 
L 700.995356 268.221178 
L 701.66428 262.016081 
L 702.333203 259.952406 
L 703.002127 262.016081 
L 703.671051 249.610577 
L 704.339974 259.952406 
L 705.008898 245.478535 
L 705.677822 235.136706 
L 706.346746 239.273438 
L 707.015669 228.936299 
L 707.684593 231.004665 
L 708.353517 226.867934 
L 709.02244 220.662836 
L 709.691364 220.662836 
L 710.360288 212.394063 
L 711.029212 218.594471 
L 711.698135 214.462429 
L 712.367059 216.530795 
L 713.035983 214.462429 
L 713.704906 208.257332 
L 714.37383 154.498583 
L 715.042754 206.188966 
L 715.711678 212.394063 
L 717.049525 199.988559 
L 717.718449 202.056925 
L 718.387373 197.920193 
L 719.059641 197.920193 
L 719.728565 193.783462 
L 720.397488 212.394063 
L 721.066412 195.851827 
L 721.735336 189.64673 
L 722.404259 197.920193 
L 723.073183 187.583055 
L 723.742107 183.446323 
L 724.411031 185.514689 
L 725.079954 179.309591 
L 725.748878 177.241226 
L 726.417802 162.767355 
L 727.086725 173.109184 
L 727.755649 177.241226 
L 728.424573 179.309591 
L 729.093497 158.635314 
L 731.100268 171.040819 
L 731.769191 171.040819 
L 732.438115 168.972453 
L 733.107039 185.514689 
L 733.775963 171.040819 
L 734.444886 168.972453 
L 734.444886 168.972453 
" clip-path="url(#pa6dabe91e2)" style="fill: none; stroke: #ac2b37; stroke-width: 1.5; stroke-linecap: square"/>
   </g>
   <g id="patch_3">
    <path d="M 95.28125 501.3525 
L 95.28125 57.8325 
" style="fill: none; stroke: #000000; stroke-width: 0.8; stroke-linejoin: miter; stroke-linecap: square"/>
   </g>
   <g id="patch_4">
    <path d="M 764.88125 501.3525 
L 764.88125 57.8325 
" style="fill: none; stroke: #000000; stroke-width: 0.8; stroke-linejoin: miter; stroke-linecap: square"/>
   </g>
   <g id="patch_5">
    <path d="M 95.28125 501.3525 
L 764.88125 501.3525 
" style="fill: none; stroke: #000000; stroke-width: 0.8; stroke-linejoin: miter; stroke-linecap: square"/>
   </g>
   <g id="patch_6">
    <path d="M 95.28125 57.8325 
L 764.88125 57.8325 
" style="fill: none; stroke: #000000; stroke-width: 0.8; stroke-linejoin: miter; stroke-linecap: square"/>
   </g>
   <g id="text_15">
    <!-- Light vs Time -->
    <g transform="translate(367.59875 51.8325) scale(0.24 -0.24)">
     <defs>
      <path id="AptosDisplay-76" d="M 1103 0 
L -13 3044 
L 538 3044 
L 1391 513 
L 2250 3044 
L 2781 3044 
L 1678 0 
L 1103 0 
z
" transform="scale(0.015625)"/>
      <path id="AptosDisplay-73" d="M 1506 -41 
Q 1247 -41 1017 14 
Q 788 69 613 191 
Q 438 313 339 506 
Q 241 700 241 978 
L 744 978 
Q 744 628 966 487 
Q 1188 347 1519 347 
Q 1816 347 2008 458 
Q 2200 569 2200 822 
Q 2200 1047 2026 1153 
Q 1853 1259 1413 1369 
Q 1056 1453 815 1564 
Q 575 1675 453 1845 
Q 331 2016 331 2275 
Q 331 2475 417 2626 
Q 503 2778 658 2879 
Q 813 2981 1020 3032 
Q 1228 3084 1472 3084 
Q 1713 3084 1923 3028 
Q 2134 2972 2296 2855 
Q 2459 2738 2551 2552 
Q 2644 2366 2644 2109 
L 2138 2109 
Q 2138 2425 1945 2558 
Q 1753 2691 1472 2691 
Q 1191 2691 1016 2594 
Q 841 2497 841 2291 
Q 841 2169 919 2084 
Q 997 2000 1181 1933 
Q 1366 1866 1675 1791 
Q 2019 1709 2248 1596 
Q 2478 1484 2595 1306 
Q 2713 1128 2713 847 
Q 2713 616 2622 447 
Q 2531 278 2367 170 
Q 2203 63 1983 11 
Q 1763 -41 1506 -41 
z
" transform="scale(0.015625)"/>
     </defs>
     <use xlink:href="#AptosDisplay-4c"/>
     <use xlink:href="#AptosDisplay-69" x="48.4375"/>
     <use xlink:href="#AptosDisplay-67" x="69.482422"/>
     <use xlink:href="#AptosDisplay-68" x="113.427734"/>
     <use xlink:href="#AptosDisplay-74" x="164.013672"/>
     <use xlink:href="#AptosDisplay-20" x="194.384766"/>
     <use xlink:href="#AptosDisplay-76" x="213.671875"/>
     <use xlink:href="#AptosDisplay-73" x="256.933594"/>
     <use xlink:href="#AptosDisplay-20" x="303.222656"/>
     <use xlink:href="#AptosDisplay-54" x="322.509766"/>
     <use xlink:href="#AptosDisplay-69" x="370.214844"/>
     <use xlink:href="#AptosDisplay-6d" x="391.259766"/>
     <use xlink:href="#AptosDisplay-65" x="471.240234"/>
    </g>
   </g>
  </g>
 </g>
 <defs>
  <clipPath id="pa6dabe91e2">
   <rect x="95.28125" y="57.8325" width="669.6" height="443.52"/>
  </clipPath>
 </defs>
</svg>
