<?xml version="1.0" encoding="utf-8" standalone="no"?>
<!DOCTYPE svg PUBLIC "-//W3C//DTD SVG 1.1//EN"
  "http://www.w3.org/Graphics/SVG/1.1/DTD/svg11.dtd">
<svg xmlns:xlink="http://www.w3.org/1999/xlink" width="800.725pt" height="581.830625pt" viewBox="0 0 800.725 581.830625" xmlns="http://www.w3.org/2000/svg" version="1.1">
 <metadata>
  <rdf:RDF xmlns:dc="http://purl.org/dc/elements/1.1/" xmlns:cc="http://creativecommons.org/ns#" xmlns:rdf="http://www.w3.org/1999/02/22-rdf-syntax-ns#">
   <cc:Work>
    <dc:type rdf:resource="http://purl.org/dc/dcmitype/StillImage"/>
    <dc:date>2025-04-03T01:48:17.383269</dc:date>
    <dc:format>image/svg+xml</dc:format>
    <dc:creator>
     <cc:Agent>
      <dc:title>Matplotlib v3.8.2, https://matplotlib.org/</dc:title>
     </cc:Agent>
    </dc:creator>
   </cc:Work>
  </rdf:RDF>
 </metadata>
 <defs>
  <style type="text/css">*{stroke-linejoin: round; stroke-linecap: butt}</style>
 </defs>
 <g id="figure_1">
  <g id="patch_1">
   <path d="M 0 581.830625 
L 800.725 581.830625 
L 800.725 0 
L 0 0 
z
" style="fill: #ffffff"/>
  </g>
  <g id="axes_1">
   <g id="patch_2">
    <path d="M 95.125 501.3525 
L 764.725 501.3525 
L 764.725 57.8325 
L 95.125 57.8325 
z
" style="fill: #ffffff"/>
   </g>
   <g id="matplotlib.axis_1">
    <g id="xtick_1">
     <g id="line2d_1">
      <path d="M 125.183422 501.3525 
L 125.183422 57.8325 
" clip-path="url(#p49e8fdca3a)" style="fill: none; stroke: #b0b0b0; stroke-opacity: 0.8; stroke-linecap: square"/>
     </g>
     <g id="line2d_2">
      <defs>
       <path id="m9eabe29902" d="M 0 0 
L 0 3.5 
" style="stroke: #000000; stroke-width: 0.8"/>
      </defs>
      <g>
       <use xlink:href="#m9eabe29902" x="125.183422" y="501.3525" style="stroke: #000000; stroke-width: 0.8"/>
      </g>
     </g>
     <g id="text_1">
      <!-- 0 -->
      <g transform="translate(119.953734 521.49625) scale(0.2 -0.2)">
       <defs>
        <path id="AptosDisplay-30" d="M 1672 -56 
Q 1291 -56 1028 105 
Q 766 266 605 552 
Q 444 838 372 1216 
Q 300 1594 300 2031 
Q 300 2475 372 2856 
Q 444 3238 605 3525 
Q 766 3813 1028 3973 
Q 1291 4134 1672 4134 
Q 2053 4134 2317 3975 
Q 2581 3816 2742 3527 
Q 2903 3238 2975 2858 
Q 3047 2478 3047 2038 
Q 3047 1597 2975 1217 
Q 2903 838 2742 552 
Q 2581 266 2318 105 
Q 2056 -56 1672 -56 
z
M 1672 409 
Q 1916 409 2073 550 
Q 2231 691 2322 925 
Q 2413 1159 2448 1448 
Q 2484 1738 2484 2038 
Q 2484 2338 2448 2628 
Q 2413 2919 2322 3153 
Q 2231 3388 2073 3527 
Q 1916 3666 1669 3666 
Q 1428 3666 1268 3527 
Q 1109 3388 1020 3153 
Q 931 2919 893 2628 
Q 856 2338 856 2038 
Q 856 1741 893 1450 
Q 931 1159 1020 925 
Q 1109 691 1268 550 
Q 1428 409 1672 409 
z
" transform="scale(0.015625)"/>
       </defs>
       <use xlink:href="#AptosDisplay-30"/>
      </g>
     </g>
    </g>
    <g id="xtick_2">
     <g id="line2d_3">
      <path d="M 208.798887 501.3525 
L 208.798887 57.8325 
" clip-path="url(#p49e8fdca3a)" style="fill: none; stroke: #b0b0b0; stroke-opacity: 0.8; stroke-linecap: square"/>
     </g>
     <g id="line2d_4">
      <g>
       <use xlink:href="#m9eabe29902" x="208.798887" y="501.3525" style="stroke: #000000; stroke-width: 0.8"/>
      </g>
     </g>
     <g id="text_2">
      <!-- 25 -->
      <g transform="translate(198.339512 521.49625) scale(0.2 -0.2)">
       <defs>
        <path id="AptosDisplay-32" d="M 247 0 
L 247 413 
L 1725 1741 
Q 2100 2081 2269 2351 
Q 2438 2622 2438 2938 
Q 2438 3256 2263 3461 
Q 2088 3666 1691 3666 
Q 1247 3666 1055 3439 
Q 863 3213 863 2869 
L 341 2869 
Q 341 3250 491 3534 
Q 641 3819 941 3975 
Q 1241 4131 1691 4131 
Q 2103 4131 2390 3986 
Q 2678 3841 2828 3578 
Q 2978 3316 2978 2959 
Q 2978 2638 2853 2375 
Q 2728 2113 2517 1883 
Q 2306 1653 2044 1425 
L 959 463 
L 3097 463 
L 3097 0 
L 247 0 
z
" transform="scale(0.015625)"/>
        <path id="AptosDisplay-35" d="M 1669 -56 
Q 1278 -56 964 83 
Q 650 222 465 483 
Q 281 744 281 1113 
L 816 1113 
Q 816 778 1055 584 
Q 1294 391 1669 391 
Q 2069 391 2291 625 
Q 2513 859 2513 1319 
Q 2513 1772 2291 1989 
Q 2069 2206 1697 2206 
Q 1409 2206 1223 2123 
Q 1038 2041 916 1894 
L 444 1894 
L 622 4078 
L 2788 4078 
L 2788 3613 
L 1041 3613 
L 931 2322 
Q 1044 2453 1251 2550 
Q 1459 2647 1775 2647 
Q 2131 2647 2420 2506 
Q 2709 2366 2881 2072 
Q 3053 1778 3053 1319 
Q 3053 863 2875 558 
Q 2697 253 2384 98 
Q 2072 -56 1669 -56 
z
" transform="scale(0.015625)"/>
       </defs>
       <use xlink:href="#AptosDisplay-32"/>
       <use xlink:href="#AptosDisplay-35" x="52.294922"/>
      </g>
     </g>
    </g>
    <g id="xtick_3">
     <g id="line2d_5">
      <path d="M 292.414351 501.3525 
L 292.414351 57.8325 
" clip-path="url(#p49e8fdca3a)" style="fill: none; stroke: #b0b0b0; stroke-opacity: 0.8; stroke-linecap: square"/>
     </g>
     <g id="line2d_6">
      <g>
       <use xlink:href="#m9eabe29902" x="292.414351" y="501.3525" style="stroke: #000000; stroke-width: 0.8"/>
      </g>
     </g>
     <g id="text_3">
      <!-- 50 -->
      <g transform="translate(281.954976 521.49625) scale(0.2 -0.2)">
       <use xlink:href="#AptosDisplay-35"/>
       <use xlink:href="#AptosDisplay-30" x="52.294922"/>
      </g>
     </g>
    </g>
    <g id="xtick_4">
     <g id="line2d_7">
      <path d="M 376.029816 501.3525 
L 376.029816 57.8325 
" clip-path="url(#p49e8fdca3a)" style="fill: none; stroke: #b0b0b0; stroke-opacity: 0.8; stroke-linecap: square"/>
     </g>
     <g id="line2d_8">
      <g>
       <use xlink:href="#m9eabe29902" x="376.029816" y="501.3525" style="stroke: #000000; stroke-width: 0.8"/>
      </g>
     </g>
     <g id="text_4">
      <!-- 75 -->
      <g transform="translate(365.570441 521.49625) scale(0.2 -0.2)">
       <defs>
        <path id="AptosDisplay-37" d="M 766 0 
L 2609 3600 
L 194 3600 
L 194 4078 
L 3141 4078 
L 3141 3622 
L 1334 0 
L 766 0 
z
" transform="scale(0.015625)"/>
       </defs>
       <use xlink:href="#AptosDisplay-37"/>
       <use xlink:href="#AptosDisplay-35" x="52.294922"/>
      </g>
     </g>
    </g>
    <g id="xtick_5">
     <g id="line2d_9">
      <path d="M 459.645281 501.3525 
L 459.645281 57.8325 
" clip-path="url(#p49e8fdca3a)" style="fill: none; stroke: #b0b0b0; stroke-opacity: 0.8; stroke-linecap: square"/>
     </g>
     <g id="line2d_10">
      <g>
       <use xlink:href="#m9eabe29902" x="459.645281" y="501.3525" style="stroke: #000000; stroke-width: 0.8"/>
      </g>
     </g>
     <g id="text_5">
      <!-- 100 -->
      <g transform="translate(443.956218 521.49625) scale(0.2 -0.2)">
       <defs>
        <path id="AptosDisplay-31" d="M 1659 0 
L 1659 3425 
Q 1575 3309 1420 3201 
Q 1266 3094 1052 3009 
Q 838 2925 578 2888 
L 578 3381 
Q 834 3425 1057 3540 
Q 1281 3656 1453 3806 
Q 1625 3956 1719 4094 
L 2206 4094 
L 2206 0 
L 1659 0 
z
" transform="scale(0.015625)"/>
       </defs>
       <use xlink:href="#AptosDisplay-31"/>
       <use xlink:href="#AptosDisplay-30" x="52.294922"/>
       <use xlink:href="#AptosDisplay-30" x="104.589844"/>
      </g>
     </g>
    </g>
    <g id="xtick_6">
     <g id="line2d_11">
      <path d="M 543.260746 501.3525 
L 543.260746 57.8325 
" clip-path="url(#p49e8fdca3a)" style="fill: none; stroke: #b0b0b0; stroke-opacity: 0.8; stroke-linecap: square"/>
     </g>
     <g id="line2d_12">
      <g>
       <use xlink:href="#m9eabe29902" x="543.260746" y="501.3525" style="stroke: #000000; stroke-width: 0.8"/>
      </g>
     </g>
     <g id="text_6">
      <!-- 125 -->
      <g transform="translate(527.571683 521.49625) scale(0.2 -0.2)">
       <use xlink:href="#AptosDisplay-31"/>
       <use xlink:href="#AptosDisplay-32" x="52.294922"/>
       <use xlink:href="#AptosDisplay-35" x="104.589844"/>
      </g>
     </g>
    </g>
    <g id="xtick_7">
     <g id="line2d_13">
      <path d="M 626.87621 501.3525 
L 626.87621 57.8325 
" clip-path="url(#p49e8fdca3a)" style="fill: none; stroke: #b0b0b0; stroke-opacity: 0.8; stroke-linecap: square"/>
     </g>
     <g id="line2d_14">
      <g>
       <use xlink:href="#m9eabe29902" x="626.87621" y="501.3525" style="stroke: #000000; stroke-width: 0.8"/>
      </g>
     </g>
     <g id="text_7">
      <!-- 150 -->
      <g transform="translate(611.187148 521.49625) scale(0.2 -0.2)">
       <use xlink:href="#AptosDisplay-31"/>
       <use xlink:href="#AptosDisplay-35" x="52.294922"/>
       <use xlink:href="#AptosDisplay-30" x="104.589844"/>
      </g>
     </g>
    </g>
    <g id="xtick_8">
     <g id="line2d_15">
      <path d="M 710.491675 501.3525 
L 710.491675 57.8325 
" clip-path="url(#p49e8fdca3a)" style="fill: none; stroke: #b0b0b0; stroke-opacity: 0.8; stroke-linecap: square"/>
     </g>
     <g id="line2d_16">
      <g>
       <use xlink:href="#m9eabe29902" x="710.491675" y="501.3525" style="stroke: #000000; stroke-width: 0.8"/>
      </g>
     </g>
     <g id="text_8">
      <!-- 175 -->
      <g transform="translate(694.802613 521.49625) scale(0.2 -0.2)">
       <use xlink:href="#AptosDisplay-31"/>
       <use xlink:href="#AptosDisplay-37" x="52.294922"/>
       <use xlink:href="#AptosDisplay-35" x="104.589844"/>
      </g>
     </g>
    </g>
    <g id="xtick_9">
     <g id="line2d_17">
      <path d="M 108.460329 501.3525 
L 108.460329 57.8325 
" clip-path="url(#p49e8fdca3a)" style="fill: none; stroke-dasharray: 1.85,0.8; stroke-dashoffset: 0; stroke: #b0b0b0; stroke-opacity: 0.8; stroke-width: 0.5"/>
     </g>
     <g id="line2d_18">
      <defs>
       <path id="m3a43389dd3" d="M 0 0 
L 0 2 
" style="stroke: #000000; stroke-width: 0.6"/>
      </defs>
      <g>
       <use xlink:href="#m3a43389dd3" x="108.460329" y="501.3525" style="stroke: #000000; stroke-width: 0.6"/>
      </g>
     </g>
    </g>
    <g id="xtick_10">
     <g id="line2d_19">
      <path d="M 141.906515 501.3525 
L 141.906515 57.8325 
" clip-path="url(#p49e8fdca3a)" style="fill: none; stroke-dasharray: 1.85,0.8; stroke-dashoffset: 0; stroke: #b0b0b0; stroke-opacity: 0.8; stroke-width: 0.5"/>
     </g>
     <g id="line2d_20">
      <g>
       <use xlink:href="#m3a43389dd3" x="141.906515" y="501.3525" style="stroke: #000000; stroke-width: 0.6"/>
      </g>
     </g>
    </g>
    <g id="xtick_11">
     <g id="line2d_21">
      <path d="M 158.629608 501.3525 
L 158.629608 57.8325 
" clip-path="url(#p49e8fdca3a)" style="fill: none; stroke-dasharray: 1.85,0.8; stroke-dashoffset: 0; stroke: #b0b0b0; stroke-opacity: 0.8; stroke-width: 0.5"/>
     </g>
     <g id="line2d_22">
      <g>
       <use xlink:href="#m3a43389dd3" x="158.629608" y="501.3525" style="stroke: #000000; stroke-width: 0.6"/>
      </g>
     </g>
    </g>
    <g id="xtick_12">
     <g id="line2d_23">
      <path d="M 175.352701 501.3525 
L 175.352701 57.8325 
" clip-path="url(#p49e8fdca3a)" style="fill: none; stroke-dasharray: 1.85,0.8; stroke-dashoffset: 0; stroke: #b0b0b0; stroke-opacity: 0.8; stroke-width: 0.5"/>
     </g>
     <g id="line2d_24">
      <g>
       <use xlink:href="#m3a43389dd3" x="175.352701" y="501.3525" style="stroke: #000000; stroke-width: 0.6"/>
      </g>
     </g>
    </g>
    <g id="xtick_13">
     <g id="line2d_25">
      <path d="M 192.075794 501.3525 
L 192.075794 57.8325 
" clip-path="url(#p49e8fdca3a)" style="fill: none; stroke-dasharray: 1.85,0.8; stroke-dashoffset: 0; stroke: #b0b0b0; stroke-opacity: 0.8; stroke-width: 0.5"/>
     </g>
     <g id="line2d_26">
      <g>
       <use xlink:href="#m3a43389dd3" x="192.075794" y="501.3525" style="stroke: #000000; stroke-width: 0.6"/>
      </g>
     </g>
    </g>
    <g id="xtick_14">
     <g id="line2d_27">
      <path d="M 225.521979 501.3525 
L 225.521979 57.8325 
" clip-path="url(#p49e8fdca3a)" style="fill: none; stroke-dasharray: 1.85,0.8; stroke-dashoffset: 0; stroke: #b0b0b0; stroke-opacity: 0.8; stroke-width: 0.5"/>
     </g>
     <g id="line2d_28">
      <g>
       <use xlink:href="#m3a43389dd3" x="225.521979" y="501.3525" style="stroke: #000000; stroke-width: 0.6"/>
      </g>
     </g>
    </g>
    <g id="xtick_15">
     <g id="line2d_29">
      <path d="M 242.245072 501.3525 
L 242.245072 57.8325 
" clip-path="url(#p49e8fdca3a)" style="fill: none; stroke-dasharray: 1.85,0.8; stroke-dashoffset: 0; stroke: #b0b0b0; stroke-opacity: 0.8; stroke-width: 0.5"/>
     </g>
     <g id="line2d_30">
      <g>
       <use xlink:href="#m3a43389dd3" x="242.245072" y="501.3525" style="stroke: #000000; stroke-width: 0.6"/>
      </g>
     </g>
    </g>
    <g id="xtick_16">
     <g id="line2d_31">
      <path d="M 258.968165 501.3525 
L 258.968165 57.8325 
" clip-path="url(#p49e8fdca3a)" style="fill: none; stroke-dasharray: 1.85,0.8; stroke-dashoffset: 0; stroke: #b0b0b0; stroke-opacity: 0.8; stroke-width: 0.5"/>
     </g>
     <g id="line2d_32">
      <g>
       <use xlink:href="#m3a43389dd3" x="258.968165" y="501.3525" style="stroke: #000000; stroke-width: 0.6"/>
      </g>
     </g>
    </g>
    <g id="xtick_17">
     <g id="line2d_33">
      <path d="M 275.691258 501.3525 
L 275.691258 57.8325 
" clip-path="url(#p49e8fdca3a)" style="fill: none; stroke-dasharray: 1.85,0.8; stroke-dashoffset: 0; stroke: #b0b0b0; stroke-opacity: 0.8; stroke-width: 0.5"/>
     </g>
     <g id="line2d_34">
      <g>
       <use xlink:href="#m3a43389dd3" x="275.691258" y="501.3525" style="stroke: #000000; stroke-width: 0.6"/>
      </g>
     </g>
    </g>
    <g id="xtick_18">
     <g id="line2d_35">
      <path d="M 309.137444 501.3525 
L 309.137444 57.8325 
" clip-path="url(#p49e8fdca3a)" style="fill: none; stroke-dasharray: 1.85,0.8; stroke-dashoffset: 0; stroke: #b0b0b0; stroke-opacity: 0.8; stroke-width: 0.5"/>
     </g>
     <g id="line2d_36">
      <g>
       <use xlink:href="#m3a43389dd3" x="309.137444" y="501.3525" style="stroke: #000000; stroke-width: 0.6"/>
      </g>
     </g>
    </g>
    <g id="xtick_19">
     <g id="line2d_37">
      <path d="M 325.860537 501.3525 
L 325.860537 57.8325 
" clip-path="url(#p49e8fdca3a)" style="fill: none; stroke-dasharray: 1.85,0.8; stroke-dashoffset: 0; stroke: #b0b0b0; stroke-opacity: 0.8; stroke-width: 0.5"/>
     </g>
     <g id="line2d_38">
      <g>
       <use xlink:href="#m3a43389dd3" x="325.860537" y="501.3525" style="stroke: #000000; stroke-width: 0.6"/>
      </g>
     </g>
    </g>
    <g id="xtick_20">
     <g id="line2d_39">
      <path d="M 342.58363 501.3525 
L 342.58363 57.8325 
" clip-path="url(#p49e8fdca3a)" style="fill: none; stroke-dasharray: 1.85,0.8; stroke-dashoffset: 0; stroke: #b0b0b0; stroke-opacity: 0.8; stroke-width: 0.5"/>
     </g>
     <g id="line2d_40">
      <g>
       <use xlink:href="#m3a43389dd3" x="342.58363" y="501.3525" style="stroke: #000000; stroke-width: 0.6"/>
      </g>
     </g>
    </g>
    <g id="xtick_21">
     <g id="line2d_41">
      <path d="M 359.306723 501.3525 
L 359.306723 57.8325 
" clip-path="url(#p49e8fdca3a)" style="fill: none; stroke-dasharray: 1.85,0.8; stroke-dashoffset: 0; stroke: #b0b0b0; stroke-opacity: 0.8; stroke-width: 0.5"/>
     </g>
     <g id="line2d_42">
      <g>
       <use xlink:href="#m3a43389dd3" x="359.306723" y="501.3525" style="stroke: #000000; stroke-width: 0.6"/>
      </g>
     </g>
    </g>
    <g id="xtick_22">
     <g id="line2d_43">
      <path d="M 392.752909 501.3525 
L 392.752909 57.8325 
" clip-path="url(#p49e8fdca3a)" style="fill: none; stroke-dasharray: 1.85,0.8; stroke-dashoffset: 0; stroke: #b0b0b0; stroke-opacity: 0.8; stroke-width: 0.5"/>
     </g>
     <g id="line2d_44">
      <g>
       <use xlink:href="#m3a43389dd3" x="392.752909" y="501.3525" style="stroke: #000000; stroke-width: 0.6"/>
      </g>
     </g>
    </g>
    <g id="xtick_23">
     <g id="line2d_45">
      <path d="M 409.476002 501.3525 
L 409.476002 57.8325 
" clip-path="url(#p49e8fdca3a)" style="fill: none; stroke-dasharray: 1.85,0.8; stroke-dashoffset: 0; stroke: #b0b0b0; stroke-opacity: 0.8; stroke-width: 0.5"/>
     </g>
     <g id="line2d_46">
      <g>
       <use xlink:href="#m3a43389dd3" x="409.476002" y="501.3525" style="stroke: #000000; stroke-width: 0.6"/>
      </g>
     </g>
    </g>
    <g id="xtick_24">
     <g id="line2d_47">
      <path d="M 426.199095 501.3525 
L 426.199095 57.8325 
" clip-path="url(#p49e8fdca3a)" style="fill: none; stroke-dasharray: 1.85,0.8; stroke-dashoffset: 0; stroke: #b0b0b0; stroke-opacity: 0.8; stroke-width: 0.5"/>
     </g>
     <g id="line2d_48">
      <g>
       <use xlink:href="#m3a43389dd3" x="426.199095" y="501.3525" style="stroke: #000000; stroke-width: 0.6"/>
      </g>
     </g>
    </g>
    <g id="xtick_25">
     <g id="line2d_49">
      <path d="M 442.922188 501.3525 
L 442.922188 57.8325 
" clip-path="url(#p49e8fdca3a)" style="fill: none; stroke-dasharray: 1.85,0.8; stroke-dashoffset: 0; stroke: #b0b0b0; stroke-opacity: 0.8; stroke-width: 0.5"/>
     </g>
     <g id="line2d_50">
      <g>
       <use xlink:href="#m3a43389dd3" x="442.922188" y="501.3525" style="stroke: #000000; stroke-width: 0.6"/>
      </g>
     </g>
    </g>
    <g id="xtick_26">
     <g id="line2d_51">
      <path d="M 476.368374 501.3525 
L 476.368374 57.8325 
" clip-path="url(#p49e8fdca3a)" style="fill: none; stroke-dasharray: 1.85,0.8; stroke-dashoffset: 0; stroke: #b0b0b0; stroke-opacity: 0.8; stroke-width: 0.5"/>
     </g>
     <g id="line2d_52">
      <g>
       <use xlink:href="#m3a43389dd3" x="476.368374" y="501.3525" style="stroke: #000000; stroke-width: 0.6"/>
      </g>
     </g>
    </g>
    <g id="xtick_27">
     <g id="line2d_53">
      <path d="M 493.091467 501.3525 
L 493.091467 57.8325 
" clip-path="url(#p49e8fdca3a)" style="fill: none; stroke-dasharray: 1.85,0.8; stroke-dashoffset: 0; stroke: #b0b0b0; stroke-opacity: 0.8; stroke-width: 0.5"/>
     </g>
     <g id="line2d_54">
      <g>
       <use xlink:href="#m3a43389dd3" x="493.091467" y="501.3525" style="stroke: #000000; stroke-width: 0.6"/>
      </g>
     </g>
    </g>
    <g id="xtick_28">
     <g id="line2d_55">
      <path d="M 509.81456 501.3525 
L 509.81456 57.8325 
" clip-path="url(#p49e8fdca3a)" style="fill: none; stroke-dasharray: 1.85,0.8; stroke-dashoffset: 0; stroke: #b0b0b0; stroke-opacity: 0.8; stroke-width: 0.5"/>
     </g>
     <g id="line2d_56">
      <g>
       <use xlink:href="#m3a43389dd3" x="509.81456" y="501.3525" style="stroke: #000000; stroke-width: 0.6"/>
      </g>
     </g>
    </g>
    <g id="xtick_29">
     <g id="line2d_57">
      <path d="M 526.537653 501.3525 
L 526.537653 57.8325 
" clip-path="url(#p49e8fdca3a)" style="fill: none; stroke-dasharray: 1.85,0.8; stroke-dashoffset: 0; stroke: #b0b0b0; stroke-opacity: 0.8; stroke-width: 0.5"/>
     </g>
     <g id="line2d_58">
      <g>
       <use xlink:href="#m3a43389dd3" x="526.537653" y="501.3525" style="stroke: #000000; stroke-width: 0.6"/>
      </g>
     </g>
    </g>
    <g id="xtick_30">
     <g id="line2d_59">
      <path d="M 559.983839 501.3525 
L 559.983839 57.8325 
" clip-path="url(#p49e8fdca3a)" style="fill: none; stroke-dasharray: 1.85,0.8; stroke-dashoffset: 0; stroke: #b0b0b0; stroke-opacity: 0.8; stroke-width: 0.5"/>
     </g>
     <g id="line2d_60">
      <g>
       <use xlink:href="#m3a43389dd3" x="559.983839" y="501.3525" style="stroke: #000000; stroke-width: 0.6"/>
      </g>
     </g>
    </g>
    <g id="xtick_31">
     <g id="line2d_61">
      <path d="M 576.706931 501.3525 
L 576.706931 57.8325 
" clip-path="url(#p49e8fdca3a)" style="fill: none; stroke-dasharray: 1.85,0.8; stroke-dashoffset: 0; stroke: #b0b0b0; stroke-opacity: 0.8; stroke-width: 0.5"/>
     </g>
     <g id="line2d_62">
      <g>
       <use xlink:href="#m3a43389dd3" x="576.706931" y="501.3525" style="stroke: #000000; stroke-width: 0.6"/>
      </g>
     </g>
    </g>
    <g id="xtick_32">
     <g id="line2d_63">
      <path d="M 593.430024 501.3525 
L 593.430024 57.8325 
" clip-path="url(#p49e8fdca3a)" style="fill: none; stroke-dasharray: 1.85,0.8; stroke-dashoffset: 0; stroke: #b0b0b0; stroke-opacity: 0.8; stroke-width: 0.5"/>
     </g>
     <g id="line2d_64">
      <g>
       <use xlink:href="#m3a43389dd3" x="593.430024" y="501.3525" style="stroke: #000000; stroke-width: 0.6"/>
      </g>
     </g>
    </g>
    <g id="xtick_33">
     <g id="line2d_65">
      <path d="M 610.153117 501.3525 
L 610.153117 57.8325 
" clip-path="url(#p49e8fdca3a)" style="fill: none; stroke-dasharray: 1.85,0.8; stroke-dashoffset: 0; stroke: #b0b0b0; stroke-opacity: 0.8; stroke-width: 0.5"/>
     </g>
     <g id="line2d_66">
      <g>
       <use xlink:href="#m3a43389dd3" x="610.153117" y="501.3525" style="stroke: #000000; stroke-width: 0.6"/>
      </g>
     </g>
    </g>
    <g id="xtick_34">
     <g id="line2d_67">
      <path d="M 643.599303 501.3525 
L 643.599303 57.8325 
" clip-path="url(#p49e8fdca3a)" style="fill: none; stroke-dasharray: 1.85,0.8; stroke-dashoffset: 0; stroke: #b0b0b0; stroke-opacity: 0.8; stroke-width: 0.5"/>
     </g>
     <g id="line2d_68">
      <g>
       <use xlink:href="#m3a43389dd3" x="643.599303" y="501.3525" style="stroke: #000000; stroke-width: 0.6"/>
      </g>
     </g>
    </g>
    <g id="xtick_35">
     <g id="line2d_69">
      <path d="M 660.322396 501.3525 
L 660.322396 57.8325 
" clip-path="url(#p49e8fdca3a)" style="fill: none; stroke-dasharray: 1.85,0.8; stroke-dashoffset: 0; stroke: #b0b0b0; stroke-opacity: 0.8; stroke-width: 0.5"/>
     </g>
     <g id="line2d_70">
      <g>
       <use xlink:href="#m3a43389dd3" x="660.322396" y="501.3525" style="stroke: #000000; stroke-width: 0.6"/>
      </g>
     </g>
    </g>
    <g id="xtick_36">
     <g id="line2d_71">
      <path d="M 677.045489 501.3525 
L 677.045489 57.8325 
" clip-path="url(#p49e8fdca3a)" style="fill: none; stroke-dasharray: 1.85,0.8; stroke-dashoffset: 0; stroke: #b0b0b0; stroke-opacity: 0.8; stroke-width: 0.5"/>
     </g>
     <g id="line2d_72">
      <g>
       <use xlink:href="#m3a43389dd3" x="677.045489" y="501.3525" style="stroke: #000000; stroke-width: 0.6"/>
      </g>
     </g>
    </g>
    <g id="xtick_37">
     <g id="line2d_73">
      <path d="M 693.768582 501.3525 
L 693.768582 57.8325 
" clip-path="url(#p49e8fdca3a)" style="fill: none; stroke-dasharray: 1.85,0.8; stroke-dashoffset: 0; stroke: #b0b0b0; stroke-opacity: 0.8; stroke-width: 0.5"/>
     </g>
     <g id="line2d_74">
      <g>
       <use xlink:href="#m3a43389dd3" x="693.768582" y="501.3525" style="stroke: #000000; stroke-width: 0.6"/>
      </g>
     </g>
    </g>
    <g id="xtick_38">
     <g id="line2d_75">
      <path d="M 727.214768 501.3525 
L 727.214768 57.8325 
" clip-path="url(#p49e8fdca3a)" style="fill: none; stroke-dasharray: 1.85,0.8; stroke-dashoffset: 0; stroke: #b0b0b0; stroke-opacity: 0.8; stroke-width: 0.5"/>
     </g>
     <g id="line2d_76">
      <g>
       <use xlink:href="#m3a43389dd3" x="727.214768" y="501.3525" style="stroke: #000000; stroke-width: 0.6"/>
      </g>
     </g>
    </g>
    <g id="xtick_39">
     <g id="line2d_77">
      <path d="M 743.937861 501.3525 
L 743.937861 57.8325 
" clip-path="url(#p49e8fdca3a)" style="fill: none; stroke-dasharray: 1.85,0.8; stroke-dashoffset: 0; stroke: #b0b0b0; stroke-opacity: 0.8; stroke-width: 0.5"/>
     </g>
     <g id="line2d_78">
      <g>
       <use xlink:href="#m3a43389dd3" x="743.937861" y="501.3525" style="stroke: #000000; stroke-width: 0.6"/>
      </g>
     </g>
    </g>
    <g id="xtick_40">
     <g id="line2d_79">
      <path d="M 760.660954 501.3525 
L 760.660954 57.8325 
" clip-path="url(#p49e8fdca3a)" style="fill: none; stroke-dasharray: 1.85,0.8; stroke-dashoffset: 0; stroke: #b0b0b0; stroke-opacity: 0.8; stroke-width: 0.5"/>
     </g>
     <g id="line2d_80">
      <g>
       <use xlink:href="#m3a43389dd3" x="760.660954" y="501.3525" style="stroke: #000000; stroke-width: 0.6"/>
      </g>
     </g>
    </g>
    <g id="text_9">
     <!-- Time (S) -->
     <g transform="translate(396.834375 542.305625) scale(0.2 -0.2)">
      <defs>
       <path id="AptosDisplay-54" d="M 1244 0 
L 1244 3734 
L 50 3734 
L 50 4206 
L 2997 4206 
L 2997 3734 
L 1806 3734 
L 1806 0 
L 1244 0 
z
" transform="scale(0.015625)"/>
       <path id="AptosDisplay-69" d="M 413 0 
L 413 3044 
L 934 3044 
L 934 0 
L 413 0 
z
M 675 3616 
Q 525 3616 437 3702 
Q 350 3788 350 3919 
Q 350 4050 437 4136 
Q 525 4222 675 4222 
Q 822 4222 912 4136 
Q 1003 4050 1003 3919 
Q 1003 3788 912 3702 
Q 822 3616 675 3616 
z
" transform="scale(0.015625)"/>
       <path id="AptosDisplay-6d" d="M 413 0 
L 413 3044 
L 919 3044 
L 931 2575 
Q 1063 2756 1303 2914 
Q 1544 3072 1903 3072 
Q 2403 3072 2618 2778 
Q 2834 2484 2834 1963 
L 2834 0 
L 2316 0 
L 2316 1891 
Q 2316 2106 2275 2275 
Q 2234 2444 2120 2539 
Q 2006 2634 1788 2634 
Q 1488 2634 1277 2482 
Q 1066 2331 934 2156 
L 934 0 
L 413 0 
z
M 4206 0 
L 4206 1891 
Q 4206 2106 4164 2275 
Q 4122 2444 4009 2539 
Q 3897 2634 3681 2634 
Q 3381 2634 3165 2484 
Q 2950 2334 2822 2159 
L 2744 2544 
Q 2916 2741 3175 2906 
Q 3434 3072 3800 3072 
Q 4291 3072 4509 2778 
Q 4728 2484 4728 1963 
L 4728 0 
L 4206 0 
z
" transform="scale(0.015625)"/>
       <path id="AptosDisplay-65" d="M 1663 -56 
Q 1188 -56 878 151 
Q 569 359 417 717 
Q 266 1075 266 1522 
Q 266 1988 412 2342 
Q 559 2697 857 2897 
Q 1156 3097 1606 3097 
Q 2209 3097 2550 2722 
Q 2891 2347 2891 1644 
Q 2891 1597 2889 1533 
Q 2888 1469 2881 1441 
L 791 1441 
Q 794 1144 881 895 
Q 969 647 1161 497 
Q 1353 347 1663 347 
Q 1997 347 2183 511 
Q 2369 675 2378 984 
L 2894 984 
Q 2884 663 2732 430 
Q 2581 197 2309 70 
Q 2038 -56 1663 -56 
z
M 794 1822 
L 2375 1822 
Q 2366 2247 2166 2472 
Q 1966 2697 1606 2697 
Q 1241 2697 1036 2473 
Q 831 2250 794 1822 
z
" transform="scale(0.015625)"/>
       <path id="AptosDisplay-20" transform="scale(0.015625)"/>
       <path id="AptosDisplay-28" d="M 1219 -1116 
Q 969 -678 787 -267 
Q 606 144 511 581 
Q 416 1019 416 1528 
Q 416 2028 509 2486 
Q 603 2944 783 3378 
Q 963 3813 1219 4231 
L 1647 4231 
Q 1278 3600 1101 2886 
Q 925 2172 925 1428 
Q 925 766 1125 103 
Q 1325 -559 1647 -1116 
L 1219 -1116 
z
" transform="scale(0.015625)"/>
       <path id="AptosDisplay-53" d="M 1778 -56 
Q 1328 -56 962 81 
Q 597 219 384 512 
Q 172 806 172 1275 
L 734 1275 
Q 738 941 883 750 
Q 1028 559 1267 481 
Q 1506 403 1794 403 
Q 2063 403 2283 483 
Q 2503 563 2634 723 
Q 2766 884 2766 1134 
Q 2766 1356 2662 1497 
Q 2559 1638 2321 1742 
Q 2084 1847 1678 1950 
Q 1203 2075 897 2223 
Q 591 2372 442 2594 
Q 294 2816 294 3156 
Q 294 3516 462 3761 
Q 631 4006 945 4134 
Q 1259 4263 1697 4263 
Q 2103 4263 2440 4131 
Q 2778 4000 2979 3737 
Q 3181 3475 3181 3084 
L 2616 3084 
Q 2622 3441 2356 3623 
Q 2091 3806 1700 3806 
Q 1300 3806 1073 3645 
Q 847 3484 847 3175 
Q 847 2991 944 2867 
Q 1041 2744 1280 2644 
Q 1519 2544 1941 2434 
Q 2428 2303 2731 2153 
Q 3034 2003 3178 1768 
Q 3322 1534 3322 1153 
Q 3322 747 3117 480 
Q 2913 213 2564 78 
Q 2216 -56 1778 -56 
z
" transform="scale(0.015625)"/>
       <path id="AptosDisplay-29" d="M 234 -1116 
Q 609 -481 786 233 
Q 963 947 963 1694 
Q 963 2356 759 3015 
Q 556 3675 234 4231 
L 663 4231 
Q 919 3800 1098 3389 
Q 1278 2978 1373 2540 
Q 1469 2103 1469 1594 
Q 1469 1094 1375 634 
Q 1281 175 1100 -259 
Q 919 -694 663 -1116 
L 234 -1116 
z
" transform="scale(0.015625)"/>
      </defs>
      <use xlink:href="#AptosDisplay-54"/>
      <use xlink:href="#AptosDisplay-69" x="47.705078"/>
      <use xlink:href="#AptosDisplay-6d" x="68.75"/>
      <use xlink:href="#AptosDisplay-65" x="148.730469"/>
      <use xlink:href="#AptosDisplay-20" x="198.144531"/>
      <use xlink:href="#AptosDisplay-28" x="217.431641"/>
      <use xlink:href="#AptosDisplay-53" x="246.875"/>
      <use xlink:href="#AptosDisplay-29" x="301.464844"/>
     </g>
    </g>
   </g>
   <g id="matplotlib.axis_2">
    <g id="ytick_1">
     <g id="line2d_81">
      <path d="M 95.125 442.625543 
L 764.725 442.625543 
" clip-path="url(#p49e8fdca3a)" style="fill: none; stroke: #b0b0b0; stroke-opacity: 0.8; stroke-linecap: square"/>
     </g>
     <g id="line2d_82">
      <defs>
       <path id="ma857b72114" d="M 0 0 
L -3.5 0 
" style="stroke: #000000; stroke-width: 0.8"/>
      </defs>
      <g>
       <use xlink:href="#ma857b72114" x="95.125" y="442.625543" style="stroke: #000000; stroke-width: 0.8"/>
      </g>
     </g>
     <g id="text_10">
      <!-- 60 -->
      <g transform="translate(67.20625 449.197418) scale(0.2 -0.2)">
       <defs>
        <path id="AptosDisplay-36" d="M 1759 -56 
Q 1325 -56 984 151 
Q 644 359 447 815 
Q 250 1272 250 2013 
Q 250 2738 439 3206 
Q 628 3675 968 3903 
Q 1309 4131 1759 4131 
Q 2253 4131 2595 3875 
Q 2938 3619 3034 3097 
L 2503 3097 
Q 2441 3388 2250 3534 
Q 2059 3681 1759 3681 
Q 1306 3681 1047 3279 
Q 788 2878 788 2013 
L 788 1850 
Q 788 1313 922 992 
Q 1056 672 1279 531 
Q 1503 391 1763 391 
Q 2175 391 2369 644 
Q 2563 897 2563 1272 
Q 2563 1650 2373 1869 
Q 2184 2088 1838 2088 
Q 1422 2088 1114 1897 
Q 806 1706 644 1456 
L 597 1856 
Q 728 2047 922 2201 
Q 1116 2356 1362 2447 
Q 1609 2538 1909 2538 
Q 2253 2538 2523 2395 
Q 2794 2253 2951 1975 
Q 3109 1697 3109 1291 
Q 3109 897 2951 592 
Q 2794 288 2492 116 
Q 2191 -56 1759 -56 
z
" transform="scale(0.015625)"/>
       </defs>
       <use xlink:href="#AptosDisplay-36"/>
       <use xlink:href="#AptosDisplay-30" x="52.294922"/>
      </g>
     </g>
    </g>
    <g id="ytick_2">
     <g id="line2d_83">
      <path d="M 95.125 365.49163 
L 764.725 365.49163 
" clip-path="url(#p49e8fdca3a)" style="fill: none; stroke: #b0b0b0; stroke-opacity: 0.8; stroke-linecap: square"/>
     </g>
     <g id="line2d_84">
      <g>
       <use xlink:href="#ma857b72114" x="95.125" y="365.49163" style="stroke: #000000; stroke-width: 0.8"/>
      </g>
     </g>
     <g id="text_11">
      <!-- 80 -->
      <g transform="translate(67.20625 372.063505) scale(0.2 -0.2)">
       <defs>
        <path id="AptosDisplay-38" d="M 1675 -56 
Q 1391 -56 1137 16 
Q 884 88 686 234 
Q 488 381 373 606 
Q 259 831 259 1141 
Q 259 1531 495 1797 
Q 731 2063 1084 2150 
Q 781 2250 604 2490 
Q 428 2731 428 3081 
Q 428 3447 609 3681 
Q 791 3916 1075 4025 
Q 1359 4134 1669 4134 
Q 1981 4134 2265 4023 
Q 2550 3913 2733 3680 
Q 2916 3447 2916 3081 
Q 2916 2725 2716 2481 
Q 2516 2238 2238 2150 
Q 2606 2063 2843 1800 
Q 3081 1538 3081 1141 
Q 3081 831 2968 606 
Q 2856 381 2661 234 
Q 2466 88 2211 16 
Q 1956 -56 1675 -56 
z
M 1672 388 
Q 1909 388 2109 470 
Q 2309 553 2429 725 
Q 2550 897 2550 1163 
Q 2550 1416 2426 1587 
Q 2303 1759 2104 1846 
Q 1906 1934 1672 1928 
Q 1453 1934 1253 1850 
Q 1053 1766 926 1594 
Q 800 1422 800 1163 
Q 800 775 1058 581 
Q 1316 388 1672 388 
z
M 1672 2363 
Q 1863 2356 2030 2434 
Q 2197 2513 2300 2667 
Q 2403 2822 2403 3050 
Q 2403 3388 2189 3544 
Q 1975 3700 1675 3700 
Q 1484 3700 1317 3631 
Q 1150 3563 1047 3419 
Q 944 3275 944 3050 
Q 944 2825 1048 2670 
Q 1153 2516 1320 2436 
Q 1488 2356 1672 2363 
z
" transform="scale(0.015625)"/>
       </defs>
       <use xlink:href="#AptosDisplay-38"/>
       <use xlink:href="#AptosDisplay-30" x="52.294922"/>
      </g>
     </g>
    </g>
    <g id="ytick_3">
     <g id="line2d_85">
      <path d="M 95.125 288.357717 
L 764.725 288.357717 
" clip-path="url(#p49e8fdca3a)" style="fill: none; stroke: #b0b0b0; stroke-opacity: 0.8; stroke-linecap: square"/>
     </g>
     <g id="line2d_86">
      <g>
       <use xlink:href="#ma857b72114" x="95.125" y="288.357717" style="stroke: #000000; stroke-width: 0.8"/>
      </g>
     </g>
     <g id="text_12">
      <!-- 100 -->
      <g transform="translate(56.746875 294.929592) scale(0.2 -0.2)">
       <use xlink:href="#AptosDisplay-31"/>
       <use xlink:href="#AptosDisplay-30" x="52.294922"/>
       <use xlink:href="#AptosDisplay-30" x="104.589844"/>
      </g>
     </g>
    </g>
    <g id="ytick_4">
     <g id="line2d_87">
      <path d="M 95.125 211.223804 
L 764.725 211.223804 
" clip-path="url(#p49e8fdca3a)" style="fill: none; stroke: #b0b0b0; stroke-opacity: 0.8; stroke-linecap: square"/>
     </g>
     <g id="line2d_88">
      <g>
       <use xlink:href="#ma857b72114" x="95.125" y="211.223804" style="stroke: #000000; stroke-width: 0.8"/>
      </g>
     </g>
     <g id="text_13">
      <!-- 120 -->
      <g transform="translate(56.746875 217.795679) scale(0.2 -0.2)">
       <use xlink:href="#AptosDisplay-31"/>
       <use xlink:href="#AptosDisplay-32" x="52.294922"/>
       <use xlink:href="#AptosDisplay-30" x="104.589844"/>
      </g>
     </g>
    </g>
    <g id="ytick_5">
     <g id="line2d_89">
      <path d="M 95.125 134.089891 
L 764.725 134.089891 
" clip-path="url(#p49e8fdca3a)" style="fill: none; stroke: #b0b0b0; stroke-opacity: 0.8; stroke-linecap: square"/>
     </g>
     <g id="line2d_90">
      <g>
       <use xlink:href="#ma857b72114" x="95.125" y="134.089891" style="stroke: #000000; stroke-width: 0.8"/>
      </g>
     </g>
     <g id="text_14">
      <!-- 140 -->
      <g transform="translate(56.746875 140.661766) scale(0.2 -0.2)">
       <defs>
        <path id="AptosDisplay-34" d="M 2106 0 
L 2106 825 
L 125 825 
L 125 1297 
L 2100 4103 
L 2631 4103 
L 2631 1284 
L 3191 1284 
L 3191 825 
L 2631 825 
L 2631 0 
L 2106 0 
z
M 638 1284 
L 2113 1284 
L 2113 3369 
L 638 1284 
z
" transform="scale(0.015625)"/>
       </defs>
       <use xlink:href="#AptosDisplay-31"/>
       <use xlink:href="#AptosDisplay-34" x="52.294922"/>
       <use xlink:href="#AptosDisplay-30" x="104.589844"/>
      </g>
     </g>
    </g>
    <g id="ytick_6">
     <g id="line2d_91">
      <path d="M 95.125 500.475978 
L 764.725 500.475978 
" clip-path="url(#p49e8fdca3a)" style="fill: none; stroke-dasharray: 1.85,0.8; stroke-dashoffset: 0; stroke: #b0b0b0; stroke-opacity: 0.8; stroke-width: 0.5"/>
     </g>
     <g id="line2d_92">
      <defs>
       <path id="m67552ba137" d="M 0 0 
L -2 0 
" style="stroke: #000000; stroke-width: 0.6"/>
      </defs>
      <g>
       <use xlink:href="#m67552ba137" x="95.125" y="500.475978" style="stroke: #000000; stroke-width: 0.6"/>
      </g>
     </g>
    </g>
    <g id="ytick_7">
     <g id="line2d_93">
      <path d="M 95.125 481.1925 
L 764.725 481.1925 
" clip-path="url(#p49e8fdca3a)" style="fill: none; stroke-dasharray: 1.85,0.8; stroke-dashoffset: 0; stroke: #b0b0b0; stroke-opacity: 0.8; stroke-width: 0.5"/>
     </g>
     <g id="line2d_94">
      <g>
       <use xlink:href="#m67552ba137" x="95.125" y="481.1925" style="stroke: #000000; stroke-width: 0.6"/>
      </g>
     </g>
    </g>
    <g id="ytick_8">
     <g id="line2d_95">
      <path d="M 95.125 461.909022 
L 764.725 461.909022 
" clip-path="url(#p49e8fdca3a)" style="fill: none; stroke-dasharray: 1.85,0.8; stroke-dashoffset: 0; stroke: #b0b0b0; stroke-opacity: 0.8; stroke-width: 0.5"/>
     </g>
     <g id="line2d_96">
      <g>
       <use xlink:href="#m67552ba137" x="95.125" y="461.909022" style="stroke: #000000; stroke-width: 0.6"/>
      </g>
     </g>
    </g>
    <g id="ytick_9">
     <g id="line2d_97">
      <path d="M 95.125 423.342065 
L 764.725 423.342065 
" clip-path="url(#p49e8fdca3a)" style="fill: none; stroke-dasharray: 1.85,0.8; stroke-dashoffset: 0; stroke: #b0b0b0; stroke-opacity: 0.8; stroke-width: 0.5"/>
     </g>
     <g id="line2d_98">
      <g>
       <use xlink:href="#m67552ba137" x="95.125" y="423.342065" style="stroke: #000000; stroke-width: 0.6"/>
      </g>
     </g>
    </g>
    <g id="ytick_10">
     <g id="line2d_99">
      <path d="M 95.125 404.058587 
L 764.725 404.058587 
" clip-path="url(#p49e8fdca3a)" style="fill: none; stroke-dasharray: 1.85,0.8; stroke-dashoffset: 0; stroke: #b0b0b0; stroke-opacity: 0.8; stroke-width: 0.5"/>
     </g>
     <g id="line2d_100">
      <g>
       <use xlink:href="#m67552ba137" x="95.125" y="404.058587" style="stroke: #000000; stroke-width: 0.6"/>
      </g>
     </g>
    </g>
    <g id="ytick_11">
     <g id="line2d_101">
      <path d="M 95.125 384.775109 
L 764.725 384.775109 
" clip-path="url(#p49e8fdca3a)" style="fill: none; stroke-dasharray: 1.85,0.8; stroke-dashoffset: 0; stroke: #b0b0b0; stroke-opacity: 0.8; stroke-width: 0.5"/>
     </g>
     <g id="line2d_102">
      <g>
       <use xlink:href="#m67552ba137" x="95.125" y="384.775109" style="stroke: #000000; stroke-width: 0.6"/>
      </g>
     </g>
    </g>
    <g id="ytick_12">
     <g id="line2d_103">
      <path d="M 95.125 346.208152 
L 764.725 346.208152 
" clip-path="url(#p49e8fdca3a)" style="fill: none; stroke-dasharray: 1.85,0.8; stroke-dashoffset: 0; stroke: #b0b0b0; stroke-opacity: 0.8; stroke-width: 0.5"/>
     </g>
     <g id="line2d_104">
      <g>
       <use xlink:href="#m67552ba137" x="95.125" y="346.208152" style="stroke: #000000; stroke-width: 0.6"/>
      </g>
     </g>
    </g>
    <g id="ytick_13">
     <g id="line2d_105">
      <path d="M 95.125 326.924674 
L 764.725 326.924674 
" clip-path="url(#p49e8fdca3a)" style="fill: none; stroke-dasharray: 1.85,0.8; stroke-dashoffset: 0; stroke: #b0b0b0; stroke-opacity: 0.8; stroke-width: 0.5"/>
     </g>
     <g id="line2d_106">
      <g>
       <use xlink:href="#m67552ba137" x="95.125" y="326.924674" style="stroke: #000000; stroke-width: 0.6"/>
      </g>
     </g>
    </g>
    <g id="ytick_14">
     <g id="line2d_107">
      <path d="M 95.125 307.641196 
L 764.725 307.641196 
" clip-path="url(#p49e8fdca3a)" style="fill: none; stroke-dasharray: 1.85,0.8; stroke-dashoffset: 0; stroke: #b0b0b0; stroke-opacity: 0.8; stroke-width: 0.5"/>
     </g>
     <g id="line2d_108">
      <g>
       <use xlink:href="#m67552ba137" x="95.125" y="307.641196" style="stroke: #000000; stroke-width: 0.6"/>
      </g>
     </g>
    </g>
    <g id="ytick_15">
     <g id="line2d_109">
      <path d="M 95.125 269.074239 
L 764.725 269.074239 
" clip-path="url(#p49e8fdca3a)" style="fill: none; stroke-dasharray: 1.85,0.8; stroke-dashoffset: 0; stroke: #b0b0b0; stroke-opacity: 0.8; stroke-width: 0.5"/>
     </g>
     <g id="line2d_110">
      <g>
       <use xlink:href="#m67552ba137" x="95.125" y="269.074239" style="stroke: #000000; stroke-width: 0.6"/>
      </g>
     </g>
    </g>
    <g id="ytick_16">
     <g id="line2d_111">
      <path d="M 95.125 249.790761 
L 764.725 249.790761 
" clip-path="url(#p49e8fdca3a)" style="fill: none; stroke-dasharray: 1.85,0.8; stroke-dashoffset: 0; stroke: #b0b0b0; stroke-opacity: 0.8; stroke-width: 0.5"/>
     </g>
     <g id="line2d_112">
      <g>
       <use xlink:href="#m67552ba137" x="95.125" y="249.790761" style="stroke: #000000; stroke-width: 0.6"/>
      </g>
     </g>
    </g>
    <g id="ytick_17">
     <g id="line2d_113">
      <path d="M 95.125 230.507283 
L 764.725 230.507283 
" clip-path="url(#p49e8fdca3a)" style="fill: none; stroke-dasharray: 1.85,0.8; stroke-dashoffset: 0; stroke: #b0b0b0; stroke-opacity: 0.8; stroke-width: 0.5"/>
     </g>
     <g id="line2d_114">
      <g>
       <use xlink:href="#m67552ba137" x="95.125" y="230.507283" style="stroke: #000000; stroke-width: 0.6"/>
      </g>
     </g>
    </g>
    <g id="ytick_18">
     <g id="line2d_115">
      <path d="M 95.125 191.940326 
L 764.725 191.940326 
" clip-path="url(#p49e8fdca3a)" style="fill: none; stroke-dasharray: 1.85,0.8; stroke-dashoffset: 0; stroke: #b0b0b0; stroke-opacity: 0.8; stroke-width: 0.5"/>
     </g>
     <g id="line2d_116">
      <g>
       <use xlink:href="#m67552ba137" x="95.125" y="191.940326" style="stroke: #000000; stroke-width: 0.6"/>
      </g>
     </g>
    </g>
    <g id="ytick_19">
     <g id="line2d_117">
      <path d="M 95.125 172.656848 
L 764.725 172.656848 
" clip-path="url(#p49e8fdca3a)" style="fill: none; stroke-dasharray: 1.85,0.8; stroke-dashoffset: 0; stroke: #b0b0b0; stroke-opacity: 0.8; stroke-width: 0.5"/>
     </g>
     <g id="line2d_118">
      <g>
       <use xlink:href="#m67552ba137" x="95.125" y="172.656848" style="stroke: #000000; stroke-width: 0.6"/>
      </g>
     </g>
    </g>
    <g id="ytick_20">
     <g id="line2d_119">
      <path d="M 95.125 153.37337 
L 764.725 153.37337 
" clip-path="url(#p49e8fdca3a)" style="fill: none; stroke-dasharray: 1.85,0.8; stroke-dashoffset: 0; stroke: #b0b0b0; stroke-opacity: 0.8; stroke-width: 0.5"/>
     </g>
     <g id="line2d_120">
      <g>
       <use xlink:href="#m67552ba137" x="95.125" y="153.37337" style="stroke: #000000; stroke-width: 0.6"/>
      </g>
     </g>
    </g>
    <g id="ytick_21">
     <g id="line2d_121">
      <path d="M 95.125 114.806413 
L 764.725 114.806413 
" clip-path="url(#p49e8fdca3a)" style="fill: none; stroke-dasharray: 1.85,0.8; stroke-dashoffset: 0; stroke: #b0b0b0; stroke-opacity: 0.8; stroke-width: 0.5"/>
     </g>
     <g id="line2d_122">
      <g>
       <use xlink:href="#m67552ba137" x="95.125" y="114.806413" style="stroke: #000000; stroke-width: 0.6"/>
      </g>
     </g>
    </g>
    <g id="ytick_22">
     <g id="line2d_123">
      <path d="M 95.125 95.522935 
L 764.725 95.522935 
" clip-path="url(#p49e8fdca3a)" style="fill: none; stroke-dasharray: 1.85,0.8; stroke-dashoffset: 0; stroke: #b0b0b0; stroke-opacity: 0.8; stroke-width: 0.5"/>
     </g>
     <g id="line2d_124">
      <g>
       <use xlink:href="#m67552ba137" x="95.125" y="95.522935" style="stroke: #000000; stroke-width: 0.6"/>
      </g>
     </g>
    </g>
    <g id="ytick_23">
     <g id="line2d_125">
      <path d="M 95.125 76.239457 
L 764.725 76.239457 
" clip-path="url(#p49e8fdca3a)" style="fill: none; stroke-dasharray: 1.85,0.8; stroke-dashoffset: 0; stroke: #b0b0b0; stroke-opacity: 0.8; stroke-width: 0.5"/>
     </g>
     <g id="line2d_126">
      <g>
       <use xlink:href="#m67552ba137" x="95.125" y="76.239457" style="stroke: #000000; stroke-width: 0.6"/>
      </g>
     </g>
    </g>
    <g id="text_15">
     <!-- Efficiency (%) -->
     <g transform="translate(49.221875 335.120625) rotate(-90) scale(0.2 -0.2)">
      <defs>
       <path id="AptosDisplay-45" d="M 472 0 
L 472 4206 
L 3153 4206 
L 3153 3738 
L 1034 3738 
L 1034 2397 
L 2984 2397 
L 2984 1934 
L 1034 1934 
L 1034 469 
L 3153 469 
L 3153 0 
L 472 0 
z
" transform="scale(0.015625)"/>
       <path id="AptosDisplay-66" d="M 550 0 
L 550 2622 
L 44 2622 
L 44 3044 
L 550 3044 
L 550 3219 
Q 550 3453 589 3636 
Q 628 3819 728 3947 
Q 828 4075 1004 4140 
Q 1181 4206 1463 4206 
L 1781 4206 
L 1781 3797 
L 1494 3797 
Q 1219 3797 1145 3645 
Q 1072 3494 1072 3209 
L 1072 3044 
L 1775 3044 
L 1775 2622 
L 1072 2622 
L 1072 0 
L 550 0 
z
" transform="scale(0.015625)"/>
       <path id="AptosDisplay-63" d="M 1634 -53 
Q 1234 -53 925 122 
Q 616 297 441 645 
Q 266 994 266 1513 
Q 266 2031 437 2384 
Q 609 2738 917 2916 
Q 1225 3094 1634 3094 
Q 1978 3094 2251 2978 
Q 2525 2863 2689 2630 
Q 2853 2397 2866 2041 
L 2350 2041 
Q 2328 2334 2139 2503 
Q 1950 2672 1644 2672 
Q 1228 2672 1015 2367 
Q 803 2063 803 1513 
Q 803 1150 897 894 
Q 991 638 1178 503 
Q 1366 369 1644 369 
Q 1956 369 2159 541 
Q 2363 713 2372 1047 
L 2884 1047 
Q 2878 681 2711 436 
Q 2544 191 2264 69 
Q 1984 -53 1634 -53 
z
" transform="scale(0.015625)"/>
       <path id="AptosDisplay-6e" d="M 413 0 
L 413 3044 
L 919 3044 
L 931 2575 
Q 1066 2756 1316 2914 
Q 1566 3072 1941 3072 
Q 2428 3072 2637 2781 
Q 2847 2491 2847 1963 
L 2847 0 
L 2328 0 
L 2328 1891 
Q 2328 2106 2286 2275 
Q 2244 2444 2133 2539 
Q 2022 2634 1816 2634 
Q 1500 2634 1283 2482 
Q 1066 2331 934 2156 
L 934 0 
L 413 0 
z
" transform="scale(0.015625)"/>
       <path id="AptosDisplay-79" d="M 266 -1128 
L 266 -697 
L 525 -697 
Q 716 -697 831 -598 
Q 947 -500 1038 -275 
L 1153 0 
L -13 3044 
L 538 3044 
L 1428 553 
L 2250 3044 
L 2781 3044 
L 1688 0 
L 1550 -356 
Q 1441 -647 1314 -815 
Q 1188 -984 1013 -1056 
Q 838 -1128 578 -1128 
L 266 -1128 
z
" transform="scale(0.015625)"/>
       <path id="AptosDisplay-25" d="M 1188 0 
L 3669 4078 
L 4094 4078 
L 1613 0 
L 1188 0 
z
M 1197 1606 
Q 878 1606 679 1765 
Q 481 1925 390 2209 
Q 300 2494 300 2872 
Q 300 3253 390 3536 
Q 481 3819 679 3976 
Q 878 4134 1197 4134 
Q 1519 4134 1716 3976 
Q 1913 3819 2005 3536 
Q 2097 3253 2097 2872 
Q 2097 2494 2005 2209 
Q 1913 1925 1714 1765 
Q 1516 1606 1197 1606 
z
M 1197 1953 
Q 1391 1953 1498 2084 
Q 1606 2216 1648 2425 
Q 1691 2634 1691 2872 
Q 1691 3109 1648 3318 
Q 1606 3528 1498 3658 
Q 1391 3788 1197 3788 
Q 1006 3788 898 3658 
Q 791 3528 748 3318 
Q 706 3109 706 2872 
Q 706 2634 748 2425 
Q 791 2216 898 2084 
Q 1006 1953 1197 1953 
z
M 4084 -53 
Q 3769 -53 3570 105 
Q 3372 263 3281 547 
Q 3191 831 3191 1209 
Q 3191 1591 3281 1873 
Q 3372 2156 3570 2314 
Q 3769 2472 4084 2472 
Q 4406 2472 4604 2315 
Q 4803 2159 4893 1875 
Q 4984 1591 4984 1209 
Q 4984 831 4893 547 
Q 4803 263 4604 105 
Q 4406 -53 4084 -53 
z
M 4084 294 
Q 4281 294 4387 423 
Q 4494 553 4536 761 
Q 4578 969 4578 1209 
Q 4578 1447 4536 1656 
Q 4494 1866 4387 1994 
Q 4281 2122 4084 2122 
Q 3894 2122 3787 1994 
Q 3681 1866 3639 1656 
Q 3597 1447 3597 1209 
Q 3597 969 3639 761 
Q 3681 553 3787 423 
Q 3894 294 4084 294 
z
" transform="scale(0.015625)"/>
      </defs>
      <use xlink:href="#AptosDisplay-45"/>
      <use xlink:href="#AptosDisplay-66" x="54.052734"/>
      <use xlink:href="#AptosDisplay-66" x="82.373047"/>
      <use xlink:href="#AptosDisplay-69" x="110.693359"/>
      <use xlink:href="#AptosDisplay-63" x="131.738281"/>
      <use xlink:href="#AptosDisplay-69" x="181.005859"/>
      <use xlink:href="#AptosDisplay-65" x="202.050781"/>
      <use xlink:href="#AptosDisplay-6e" x="251.464844"/>
      <use xlink:href="#AptosDisplay-63" x="302.050781"/>
      <use xlink:href="#AptosDisplay-79" x="351.318359"/>
      <use xlink:href="#AptosDisplay-20" x="394.580078"/>
      <use xlink:href="#AptosDisplay-28" x="413.867188"/>
      <use xlink:href="#AptosDisplay-25" x="443.310547"/>
      <use xlink:href="#AptosDisplay-29" x="525.830078"/>
     </g>
    </g>
   </g>
   <g id="line2d_127">
    <path d="M 125.561364 481.1925 
L 126.230287 326.924674 
L 126.899211 205.714239 
L 127.568135 169.690159 
L 128.237059 169.690159 
L 128.905982 205.714239 
L 129.574906 127.662065 
L 130.24383 169.690159 
L 130.912753 169.690159 
L 131.581677 205.714239 
L 132.250601 205.714239 
L 132.919525 233.262065 
L 133.588448 127.662065 
L 134.257372 205.714239 
L 136.933067 205.714239 
L 137.601991 169.690159 
L 138.270914 169.690159 
L 138.939838 205.714239 
L 139.608762 169.690159 
L 140.277685 205.714239 
L 140.946609 169.690159 
L 141.615533 205.714239 
L 142.95338 205.714239 
L 143.622304 169.690159 
L 144.291228 205.714239 
L 144.960151 169.690159 
L 145.629075 233.262065 
L 146.297999 127.662065 
L 146.966923 205.714239 
L 147.635846 205.714239 
L 148.30477 236.935109 
L 148.973694 169.690159 
L 149.642617 169.690159 
L 150.311541 205.714239 
L 150.980465 169.690159 
L 151.649389 205.714239 
L 152.318312 205.714239 
L 152.987236 127.662065 
L 153.65616 205.714239 
L 155.662931 205.714239 
L 156.331855 169.690159 
L 157.000778 205.714239 
L 157.669702 169.690159 
L 158.338626 205.714239 
L 159.00755 205.714239 
L 159.676473 169.690159 
L 160.345397 205.714239 
L 162.352168 205.714239 
L 163.021092 169.690159 
L 163.690016 233.262065 
L 164.358939 205.714239 
L 165.027863 205.714239 
L 165.696787 169.690159 
L 166.36571 169.690159 
L 167.034634 205.714239 
L 167.703558 199.357048 
L 168.372482 169.690159 
L 169.710329 169.690159 
L 170.379253 205.714239 
L 171.7171 205.714239 
L 172.386024 159.801196 
L 173.054948 205.714239 
L 173.723871 169.690159 
L 175.061719 169.690159 
L 175.730642 236.935109 
L 176.399566 169.690159 
L 178.406337 169.690159 
L 179.075261 205.714239 
L 180.413109 205.714239 
L 181.082032 169.690159 
L 181.750956 169.690159 
L 182.41988 127.662065 
L 183.088803 169.690159 
L 183.757727 169.690159 
L 184.426651 205.714239 
L 187.102346 205.714239 
L 187.771269 169.690159 
L 189.109117 169.690159 
L 189.778041 236.935109 
L 190.446964 205.714239 
L 191.784812 205.714239 
L 192.453735 127.662065 
L 193.122659 205.714239 
L 193.791583 169.690159 
L 194.460507 169.690159 
L 195.12943 205.714239 
L 195.798354 169.690159 
L 196.467278 205.714239 
L 197.136201 205.714239 
L 197.805125 169.690159 
L 198.474049 169.690159 
L 199.142973 205.714239 
L 199.811896 205.714239 
L 200.48082 169.690159 
L 201.149744 205.714239 
L 201.818668 169.690159 
L 202.487591 205.714239 
L 203.156515 205.714239 
L 203.825439 236.935109 
L 204.494362 199.357048 
L 205.163286 169.690159 
L 205.83221 205.714239 
L 206.501134 169.690159 
L 207.838981 236.935109 
L 208.507905 169.690159 
L 209.176828 205.714239 
L 211.1836 205.714239 
L 211.852523 169.690159 
L 215.197142 169.690159 
L 215.866066 205.714239 
L 216.534989 169.690159 
L 217.203913 127.662065 
L 217.872837 127.662065 
L 218.54176 169.690159 
L 219.210684 169.690159 
L 219.879608 205.714239 
L 220.548532 127.662065 
L 221.217455 205.714239 
L 221.886379 169.690159 
L 223.224226 169.690159 
L 223.89315 205.714239 
L 224.562074 169.690159 
L 225.230998 205.714239 
L 225.899921 169.690159 
L 226.568845 205.714239 
L 227.237769 169.690159 
L 227.906693 169.690159 
L 228.575616 205.714239 
L 229.24454 205.714239 
L 229.913464 169.690159 
L 230.582387 169.690159 
L 231.251311 205.714239 
L 231.920235 169.690159 
L 232.589159 169.690159 
L 233.258082 205.714239 
L 233.927006 205.714239 
L 234.59593 169.690159 
L 235.264853 205.714239 
L 235.933777 169.690159 
L 236.602701 205.714239 
L 237.271625 169.690159 
L 237.940548 205.714239 
L 238.609472 205.714239 
L 239.278396 169.690159 
L 239.947319 205.714239 
L 240.616243 169.690159 
L 241.954091 169.690159 
L 242.623014 205.714239 
L 243.960862 205.714239 
L 244.629785 169.690159 
L 245.298709 205.714239 
L 245.967633 127.662065 
L 246.636557 205.714239 
L 248.643328 205.714239 
L 249.312251 169.690159 
L 249.981175 233.262065 
L 250.650099 236.935109 
L 251.319023 169.690159 
L 251.987946 205.714239 
L 252.65687 169.690159 
L 253.325794 205.714239 
L 253.994718 205.714239 
L 254.663641 169.690159 
L 255.332565 199.357048 
L 256.001489 169.690159 
L 256.670412 205.714239 
L 257.339336 262.646413 
L 258.00826 233.262065 
L 258.677184 233.262065 
L 259.346107 169.690159 
L 260.015031 205.714239 
L 261.352878 262.646413 
L 262.021802 169.690159 
L 262.690726 169.690159 
L 263.35965 205.714239 
L 264.028573 199.357048 
L 264.697497 127.662065 
L 265.366421 233.262065 
L 266.035344 233.262065 
L 266.704268 205.714239 
L 267.373192 233.262065 
L 268.042116 199.357048 
L 269.379963 199.357048 
L 270.048887 262.646413 
L 270.71781 199.357048 
L 272.055658 262.646413 
L 272.724582 262.646413 
L 273.393505 199.357048 
L 274.062429 233.262065 
L 274.731353 199.357048 
L 275.400276 233.262065 
L 276.738124 233.262065 
L 277.407048 262.646413 
L 278.075971 233.262065 
L 281.42059 233.262065 
L 282.089514 199.357048 
L 282.758437 262.646413 
L 283.427361 233.262065 
L 284.096285 233.262065 
L 284.765209 169.690159 
L 285.434132 233.262065 
L 286.103056 199.357048 
L 286.77198 199.357048 
L 287.440903 233.262065 
L 288.778751 233.262065 
L 289.447675 205.714239 
L 290.116598 233.262065 
L 290.785522 169.690159 
L 291.454446 205.714239 
L 292.123369 233.262065 
L 292.792293 233.262065 
L 293.461217 262.646413 
L 294.130141 233.262065 
L 294.799064 169.690159 
L 295.467988 262.646413 
L 296.805835 199.357048 
L 297.474759 233.262065 
L 298.143683 236.935109 
L 298.812607 233.262065 
L 300.150454 233.262065 
L 300.819378 262.646413 
L 301.488302 262.646413 
L 302.157225 199.357048 
L 303.495073 262.646413 
L 304.163996 233.262065 
L 308.177539 233.262065 
L 308.846462 199.357048 
L 309.515386 233.262065 
L 310.853234 233.262065 
L 311.522157 262.646413 
L 312.191081 262.646413 
L 313.528928 199.357048 
L 314.197852 233.262065 
L 314.866776 233.262065 
L 315.5357 262.646413 
L 316.204623 262.646413 
L 316.873547 233.262065 
L 318.211394 233.262065 
L 318.880318 199.357048 
L 319.549242 233.262065 
L 320.218166 199.357048 
L 320.887089 233.262065 
L 321.556013 199.357048 
L 322.224937 233.262065 
L 322.89386 199.357048 
L 323.562784 233.262065 
L 324.900632 233.262065 
L 327.576327 199.357048 
L 328.24525 233.262065 
L 329.583098 233.262065 
L 330.252021 262.646413 
L 331.589869 199.357048 
L 332.258793 199.357048 
L 332.927716 262.646413 
L 333.59664 199.357048 
L 334.934487 199.357048 
L 335.603411 262.646413 
L 336.272335 233.262065 
L 336.941259 233.262065 
L 337.610182 205.714239 
L 338.94803 262.646413 
L 340.285877 199.357048 
L 340.954801 262.646413 
L 342.292648 199.357048 
L 342.961572 199.357048 
L 343.630496 233.262065 
L 344.299419 233.262065 
L 344.968343 205.714239 
L 345.637267 233.262065 
L 346.306191 233.262065 
L 346.975114 199.357048 
L 347.644038 233.262065 
L 348.981885 233.262065 
L 349.650809 199.357048 
L 350.319733 233.262065 
L 350.988657 199.357048 
L 351.65758 233.262065 
L 352.326504 159.801196 
L 352.995428 262.646413 
L 353.664352 199.357048 
L 354.333275 199.357048 
L 355.002199 233.262065 
L 355.671123 169.690159 
L 356.340046 233.262065 
L 357.00897 233.262065 
L 357.677894 199.357048 
L 358.346818 205.714239 
L 359.015741 262.646413 
L 360.353589 199.357048 
L 361.022512 233.262065 
L 361.691436 205.714239 
L 362.36036 233.262065 
L 363.029284 169.690159 
L 363.698207 159.801196 
L 364.367131 233.262065 
L 365.036055 199.357048 
L 365.704978 199.357048 
L 366.373902 233.262065 
L 369.049597 233.262065 
L 369.718521 205.714239 
L 370.387444 233.262065 
L 371.056368 205.714239 
L 371.725292 199.357048 
L 372.394216 233.262065 
L 373.063139 199.357048 
L 373.732063 199.357048 
L 374.400987 205.714239 
L 375.06991 236.935109 
L 375.738834 169.690159 
L 376.407758 205.714239 
L 377.076682 233.262065 
L 377.745605 205.714239 
L 378.414529 233.262065 
L 379.083453 233.262065 
L 379.752377 236.935109 
L 380.4213 169.690159 
L 381.090224 233.262065 
L 381.759148 205.714239 
L 383.765919 205.714239 
L 384.434843 233.262065 
L 385.103766 205.714239 
L 385.77269 199.357048 
L 386.441614 199.357048 
L 387.110537 205.714239 
L 387.779461 169.690159 
L 388.448385 169.690159 
L 389.117309 205.714239 
L 389.786232 169.690159 
L 390.455156 169.690159 
L 391.12408 199.357048 
L 391.793003 205.714239 
L 392.461927 169.690159 
L 393.799775 169.690159 
L 394.468698 205.714239 
L 395.137622 169.690159 
L 395.806546 205.714239 
L 396.475469 169.690159 
L 397.144393 236.935109 
L 397.813317 205.714239 
L 398.482241 127.662065 
L 399.151164 169.690159 
L 399.820088 199.357048 
L 400.489012 169.690159 
L 401.157936 205.714239 
L 401.826859 205.714239 
L 402.495783 169.690159 
L 403.164707 169.690159 
L 403.83363 159.801196 
L 404.502554 169.690159 
L 406.51267 169.690159 
L 407.181594 205.714239 
L 407.850517 199.357048 
L 408.519441 205.714239 
L 409.188365 169.690159 
L 409.857288 205.714239 
L 410.526212 169.690159 
L 412.532983 169.690159 
L 413.201907 205.714239 
L 413.870831 169.690159 
L 414.539754 205.714239 
L 415.208678 199.357048 
L 415.877602 169.690159 
L 416.546526 169.690159 
L 417.215449 127.662065 
L 417.884373 169.690159 
L 418.553297 127.662065 
L 419.222221 205.714239 
L 419.891144 169.690159 
L 420.560068 205.714239 
L 421.228992 169.690159 
L 421.897915 169.690159 
L 422.566839 205.714239 
L 423.235763 205.714239 
L 423.904687 127.662065 
L 424.57361 199.357048 
L 425.242534 169.690159 
L 425.911458 169.690159 
L 426.580381 205.714239 
L 427.249305 205.714239 
L 427.918229 169.690159 
L 428.587153 127.662065 
L 429.256076 236.935109 
L 429.925 205.714239 
L 430.593924 127.662065 
L 431.262847 233.262065 
L 431.931771 159.801196 
L 432.600695 169.690159 
L 433.269619 169.690159 
L 433.938542 199.357048 
L 434.607466 169.690159 
L 435.945313 233.262065 
L 436.614237 169.690159 
L 437.283161 199.357048 
L 437.952085 199.357048 
L 438.621008 205.714239 
L 439.289932 262.646413 
L 439.958856 169.690159 
L 441.965627 169.690159 
L 442.634551 199.357048 
L 443.303474 199.357048 
L 443.972398 127.662065 
L 445.310246 205.714239 
L 445.979169 169.690159 
L 446.648093 169.690159 
L 447.317017 199.357048 
L 447.98594 205.714239 
L 448.654864 169.690159 
L 449.323788 205.714239 
L 453.33733 205.714239 
L 454.006254 169.690159 
L 454.675178 205.714239 
L 455.344101 169.690159 
L 456.013025 169.690159 
L 456.681949 199.357048 
L 457.350872 169.690159 
L 458.019796 169.690159 
L 458.68872 205.714239 
L 459.357644 233.262065 
L 460.026567 169.690159 
L 460.695491 205.714239 
L 461.364415 205.714239 
L 462.033338 169.690159 
L 463.371186 236.935109 
L 464.04011 169.690159 
L 464.709033 127.662065 
L 465.377957 236.935109 
L 466.046881 205.714239 
L 466.715804 233.262065 
L 467.384728 169.690159 
L 468.053652 233.262065 
L 468.722576 169.690159 
L 469.391499 205.714239 
L 470.060423 205.714239 
L 470.729347 169.690159 
L 471.398271 127.662065 
L 472.067194 169.690159 
L 472.736118 169.690159 
L 473.405042 205.714239 
L 474.073965 205.714239 
L 474.742889 169.690159 
L 475.411813 205.714239 
L 476.080737 205.714239 
L 476.74966 169.690159 
L 477.418584 169.690159 
L 478.087508 205.714239 
L 478.756431 169.690159 
L 479.425355 169.690159 
L 480.094279 199.357048 
L 480.763203 205.714239 
L 481.432126 169.690159 
L 482.10105 199.357048 
L 482.769974 199.357048 
L 483.438897 205.714239 
L 484.107821 169.690159 
L 485.445669 169.690159 
L 486.114592 199.357048 
L 486.783516 199.357048 
L 487.45244 169.690159 
L 488.121363 233.262065 
L 488.790287 169.690159 
L 489.459211 169.690159 
L 490.128135 205.714239 
L 490.797058 169.690159 
L 491.465982 127.662065 
L 492.134906 169.690159 
L 493.472753 169.690159 
L 494.141677 127.662065 
L 495.479524 205.714239 
L 496.148448 169.690159 
L 497.486296 169.690159 
L 498.824143 233.262065 
L 499.493067 233.262065 
L 500.16199 205.714239 
L 500.830914 199.357048 
L 501.499838 169.690159 
L 502.168762 262.646413 
L 502.837685 169.690159 
L 503.506609 233.262065 
L 504.175533 236.935109 
L 505.51338 169.690159 
L 506.182304 127.662065 
L 506.851228 169.690159 
L 507.520151 199.357048 
L 508.189075 169.690159 
L 508.857999 169.690159 
L 509.526922 199.357048 
L 510.195846 159.801196 
L 510.86477 127.662065 
L 511.533694 127.662065 
L 512.202617 169.690159 
L 512.871541 169.690159 
L 513.540465 233.262065 
L 514.209388 169.690159 
L 514.878312 169.690159 
L 515.547236 199.357048 
L 516.21616 169.690159 
L 516.885083 169.690159 
L 517.554007 205.714239 
L 518.222931 199.357048 
L 518.891855 199.357048 
L 519.560778 205.714239 
L 520.229702 199.357048 
L 520.898626 159.801196 
L 521.567549 127.662065 
L 522.236473 169.690159 
L 522.905397 127.662065 
L 523.574321 127.662065 
L 524.243244 233.262065 
L 524.912168 199.357048 
L 525.581092 205.714239 
L 526.250015 159.801196 
L 526.918939 159.801196 
L 529.594634 199.357048 
L 530.263558 199.357048 
L 530.932481 233.262065 
L 531.601405 169.690159 
L 532.270329 169.690159 
L 532.939253 127.662065 
L 534.2771 127.662065 
L 534.946024 169.690159 
L 535.614947 169.690159 
L 536.283871 199.357048 
L 536.952795 169.690159 
L 538.290642 233.262065 
L 538.959566 205.714239 
L 539.62849 169.690159 
L 540.297413 205.714239 
L 540.966337 199.357048 
L 541.635261 205.714239 
L 542.304185 199.357048 
L 542.973108 169.690159 
L 543.642032 199.357048 
L 544.310956 169.690159 
L 544.97988 199.357048 
L 545.648803 127.662065 
L 546.317727 169.690159 
L 546.986651 113.05337 
L 547.655574 169.690159 
L 548.324498 159.801196 
L 548.993422 159.801196 
L 549.662346 127.662065 
L 550.331269 159.801196 
L 551.000193 127.662065 
L 551.669117 169.690159 
L 552.33804 199.357048 
L 553.006964 127.662065 
L 553.675888 159.801196 
L 554.344812 205.714239 
L 555.013735 199.357048 
L 555.682659 127.662065 
L 556.351583 199.357048 
L 557.020506 159.801196 
L 557.68943 159.801196 
L 558.358354 169.690159 
L 559.027278 199.357048 
L 559.696201 169.690159 
L 560.365125 169.690159 
L 561.034049 159.801196 
L 561.702972 169.690159 
L 562.371896 233.262065 
L 563.04082 159.801196 
L 563.709744 233.262065 
L 564.378667 127.662065 
L 565.047591 127.662065 
L 565.716515 199.357048 
L 566.385438 233.262065 
L 567.054362 159.801196 
L 567.723286 127.662065 
L 568.39221 169.690159 
L 569.061133 159.801196 
L 569.730057 205.714239 
L 570.398981 159.801196 
L 571.067905 205.714239 
L 571.736828 169.690159 
L 572.405752 199.357048 
L 573.074676 169.690159 
L 573.743599 127.662065 
L 574.412523 199.357048 
L 575.750371 199.357048 
L 576.419294 127.662065 
L 577.088218 205.714239 
L 577.757142 199.357048 
L 578.426065 169.690159 
L 579.094989 199.357048 
L 579.763913 159.801196 
L 580.432837 169.690159 
L 581.10176 199.357048 
L 581.770684 169.690159 
L 582.439608 169.690159 
L 583.108531 159.801196 
L 583.777455 205.714239 
L 584.446379 199.357048 
L 585.115303 205.714239 
L 585.784226 233.262065 
L 586.45315 169.690159 
L 587.122074 169.690159 
L 587.790997 199.357048 
L 589.128845 199.357048 
L 589.797769 169.690159 
L 590.466692 169.690159 
L 591.135616 199.357048 
L 591.80454 199.357048 
L 592.473464 127.662065 
L 593.811311 205.714239 
L 594.480235 159.801196 
L 595.149158 169.690159 
L 595.818082 169.690159 
L 596.487006 127.662065 
L 597.824853 127.662065 
L 599.162701 205.714239 
L 599.831624 169.690159 
L 600.500548 233.262065 
L 601.169472 236.935109 
L 601.838396 169.690159 
L 602.507319 169.690159 
L 603.176243 233.262065 
L 603.845167 169.690159 
L 604.51409 199.357048 
L 605.183014 159.801196 
L 605.851938 233.262065 
L 606.520862 169.690159 
L 609.196556 169.690159 
L 609.86548 199.357048 
L 610.534404 169.690159 
L 611.203328 199.357048 
L 611.872251 127.662065 
L 612.541175 127.662065 
L 613.210099 159.801196 
L 613.879022 205.714239 
L 614.547946 169.690159 
L 615.21687 233.262065 
L 615.885794 205.714239 
L 616.554717 127.662065 
L 617.223641 169.690159 
L 617.892565 169.690159 
L 618.561489 159.801196 
L 619.230412 199.357048 
L 619.899336 205.714239 
L 620.56826 199.357048 
L 621.906107 199.357048 
L 622.575031 169.690159 
L 623.243955 127.662065 
L 623.912878 159.801196 
L 624.581802 205.714239 
L 625.250726 199.357048 
L 625.919649 199.357048 
L 626.588573 169.690159 
L 627.257497 205.714239 
L 627.926421 199.357048 
L 628.595344 169.690159 
L 629.264268 205.714239 
L 629.933192 199.357048 
L 630.602115 127.662065 
L 631.271039 205.714239 
L 631.939963 169.690159 
L 632.608887 169.690159 
L 633.27781 127.662065 
L 633.946734 169.690159 
L 635.284581 233.262065 
L 635.953505 169.690159 
L 637.960276 169.690159 
L 638.6292 205.714239 
L 639.298124 199.357048 
L 639.967047 199.357048 
L 640.635971 205.714239 
L 641.304895 233.262065 
L 641.973819 205.714239 
L 642.642742 169.690159 
L 643.311666 233.262065 
L 643.98059 169.690159 
L 644.649514 169.690159 
L 645.318437 205.714239 
L 645.987361 233.262065 
L 646.656285 205.714239 
L 647.325208 169.690159 
L 647.994132 199.357048 
L 648.663056 199.357048 
L 649.33198 233.262065 
L 650.000903 205.714239 
L 650.669827 199.357048 
L 651.338751 199.357048 
L 652.007674 233.262065 
L 652.676598 199.357048 
L 653.345522 199.357048 
L 654.014446 233.262065 
L 654.683369 199.357048 
L 656.69014 199.357048 
L 657.359064 233.262065 
L 658.027988 199.357048 
L 658.696912 233.262065 
L 659.365835 199.357048 
L 660.034759 233.262065 
L 660.703683 159.801196 
L 661.372606 233.262065 
L 662.04153 233.262065 
L 662.710454 199.357048 
L 663.379378 199.357048 
L 664.048301 233.262065 
L 664.717225 199.357048 
L 666.055072 199.357048 
L 666.723996 233.262065 
L 667.39292 199.357048 
L 668.061844 233.262065 
L 668.730767 233.262065 
L 669.399691 199.357048 
L 671.406462 199.357048 
L 672.075386 169.690159 
L 672.74431 233.262065 
L 673.413233 199.357048 
L 674.082157 233.262065 
L 675.420005 233.262065 
L 676.088928 199.357048 
L 676.757852 159.801196 
L 677.426776 233.262065 
L 678.095699 233.262065 
L 678.764623 199.357048 
L 679.433547 159.801196 
L 680.102471 199.357048 
L 680.771394 199.357048 
L 681.440318 159.801196 
L 682.109242 233.262065 
L 682.778165 199.357048 
L 684.116013 199.357048 
L 684.784937 233.262065 
L 685.45386 199.357048 
L 688.798479 199.357048 
L 689.467403 205.714239 
L 690.136326 233.262065 
L 690.80525 159.801196 
L 691.474174 199.357048 
L 693.480945 199.357048 
L 694.149869 205.714239 
L 694.818792 159.801196 
L 695.487716 199.357048 
L 696.825564 199.357048 
L 697.494487 262.646413 
L 698.163411 159.801196 
L 698.832335 199.357048 
L 699.501258 205.714239 
L 700.170182 169.690159 
L 700.839106 199.357048 
L 701.50803 199.357048 
L 702.176953 233.262065 
L 702.845877 199.357048 
L 703.514801 233.262065 
L 704.183724 199.357048 
L 704.852648 233.262065 
L 705.521572 199.357048 
L 706.190496 199.357048 
L 706.859419 205.714239 
L 707.528343 199.357048 
L 708.197267 159.801196 
L 708.86619 205.714239 
L 709.535114 236.935109 
L 710.204038 199.357048 
L 710.872962 169.690159 
L 711.541885 205.714239 
L 712.210809 205.714239 
L 712.879733 233.262065 
L 713.548656 169.690159 
L 714.21758 169.690159 
L 714.886504 159.801196 
L 715.555428 169.690159 
L 716.224351 199.357048 
L 716.893275 199.357048 
L 717.562199 262.646413 
L 718.231123 169.690159 
L 718.903391 236.935109 
L 719.572315 236.935109 
L 720.241238 205.714239 
L 721.579086 205.714239 
L 722.248009 169.690159 
L 722.916933 77.9925 
L 723.585857 205.714239 
L 724.254781 169.690159 
L 724.923704 159.801196 
L 725.592628 199.357048 
L 726.261552 127.662065 
L 726.930475 199.357048 
L 727.599399 169.690159 
L 728.268323 169.690159 
L 728.937247 159.801196 
L 730.944018 127.662065 
L 732.281865 205.714239 
L 732.950789 169.690159 
L 733.619713 159.801196 
L 734.288636 205.714239 
L 734.288636 205.714239 
" clip-path="url(#p49e8fdca3a)" style="fill: none; stroke: #ac2b37; stroke-width: 1.5; stroke-linecap: square"/>
   </g>
   <g id="patch_3">
    <path d="M 95.125 501.3525 
L 95.125 57.8325 
" style="fill: none; stroke: #000000; stroke-width: 0.8; stroke-linejoin: miter; stroke-linecap: square"/>
   </g>
   <g id="patch_4">
    <path d="M 764.725 501.3525 
L 764.725 57.8325 
" style="fill: none; stroke: #000000; stroke-width: 0.8; stroke-linejoin: miter; stroke-linecap: square"/>
   </g>
   <g id="patch_5">
    <path d="M 95.125 501.3525 
L 764.725 501.3525 
" style="fill: none; stroke: #000000; stroke-width: 0.8; stroke-linejoin: miter; stroke-linecap: square"/>
   </g>
   <g id="patch_6">
    <path d="M 95.125 57.8325 
L 764.725 57.8325 
" style="fill: none; stroke: #000000; stroke-width: 0.8; stroke-linejoin: miter; stroke-linecap: square"/>
   </g>
   <g id="text_16">
    <!-- Efficiency vs Time -->
    <g transform="translate(343.418125 51.8325) scale(0.24 -0.24)">
     <defs>
      <path id="AptosDisplay-76" d="M 1103 0 
L -13 3044 
L 538 3044 
L 1391 513 
L 2250 3044 
L 2781 3044 
L 1678 0 
L 1103 0 
z
" transform="scale(0.015625)"/>
      <path id="AptosDisplay-73" d="M 1506 -41 
Q 1247 -41 1017 14 
Q 788 69 613 191 
Q 438 313 339 506 
Q 241 700 241 978 
L 744 978 
Q 744 628 966 487 
Q 1188 347 1519 347 
Q 1816 347 2008 458 
Q 2200 569 2200 822 
Q 2200 1047 2026 1153 
Q 1853 1259 1413 1369 
Q 1056 1453 815 1564 
Q 575 1675 453 1845 
Q 331 2016 331 2275 
Q 331 2475 417 2626 
Q 503 2778 658 2879 
Q 813 2981 1020 3032 
Q 1228 3084 1472 3084 
Q 1713 3084 1923 3028 
Q 2134 2972 2296 2855 
Q 2459 2738 2551 2552 
Q 2644 2366 2644 2109 
L 2138 2109 
Q 2138 2425 1945 2558 
Q 1753 2691 1472 2691 
Q 1191 2691 1016 2594 
Q 841 2497 841 2291 
Q 841 2169 919 2084 
Q 997 2000 1181 1933 
Q 1366 1866 1675 1791 
Q 2019 1709 2248 1596 
Q 2478 1484 2595 1306 
Q 2713 1128 2713 847 
Q 2713 616 2622 447 
Q 2531 278 2367 170 
Q 2203 63 1983 11 
Q 1763 -41 1506 -41 
z
" transform="scale(0.015625)"/>
     </defs>
     <use xlink:href="#AptosDisplay-45"/>
     <use xlink:href="#AptosDisplay-66" x="54.052734"/>
     <use xlink:href="#AptosDisplay-66" x="82.373047"/>
     <use xlink:href="#AptosDisplay-69" x="110.693359"/>
     <use xlink:href="#AptosDisplay-63" x="131.738281"/>
     <use xlink:href="#AptosDisplay-69" x="181.005859"/>
     <use xlink:href="#AptosDisplay-65" x="202.050781"/>
     <use xlink:href="#AptosDisplay-6e" x="251.464844"/>
     <use xlink:href="#AptosDisplay-63" x="302.050781"/>
     <use xlink:href="#AptosDisplay-79" x="351.318359"/>
     <use xlink:href="#AptosDisplay-20" x="394.580078"/>
     <use xlink:href="#AptosDisplay-76" x="413.867188"/>
     <use xlink:href="#AptosDisplay-73" x="457.128906"/>
     <use xlink:href="#AptosDisplay-20" x="503.417969"/>
     <use xlink:href="#AptosDisplay-54" x="522.705078"/>
     <use xlink:href="#AptosDisplay-69" x="570.410156"/>
     <use xlink:href="#AptosDisplay-6d" x="591.455078"/>
     <use xlink:href="#AptosDisplay-65" x="671.435547"/>
    </g>
   </g>
  </g>
 </g>
 <defs>
  <clipPath id="p49e8fdca3a">
   <rect x="95.125" y="57.8325" width="669.6" height="443.52"/>
  </clipPath>
 </defs>
</svg>
