<?xml version="1.0" encoding="utf-8" standalone="no"?>
<!DOCTYPE svg PUBLIC "-//W3C//DTD SVG 1.1//EN"
  "http://www.w3.org/Graphics/SVG/1.1/DTD/svg11.dtd">
<svg xmlns:xlink="http://www.w3.org/1999/xlink" width="800.88125pt" height="581.830625pt" viewBox="0 0 800.88125 581.830625" xmlns="http://www.w3.org/2000/svg" version="1.1">
 <metadata>
  <rdf:RDF xmlns:dc="http://purl.org/dc/elements/1.1/" xmlns:cc="http://creativecommons.org/ns#" xmlns:rdf="http://www.w3.org/1999/02/22-rdf-syntax-ns#">
   <cc:Work>
    <dc:type rdf:resource="http://purl.org/dc/dcmitype/StillImage"/>
    <dc:date>2025-04-03T01:47:59.615458</dc:date>
    <dc:format>image/svg+xml</dc:format>
    <dc:creator>
     <cc:Agent>
      <dc:title>Matplotlib v3.8.2, https://matplotlib.org/</dc:title>
     </cc:Agent>
    </dc:creator>
   </cc:Work>
  </rdf:RDF>
 </metadata>
 <defs>
  <style type="text/css">*{stroke-linejoin: round; stroke-linecap: butt}</style>
 </defs>
 <g id="figure_1">
  <g id="patch_1">
   <path d="M 0 581.830625 
L 800.88125 581.830625 
L 800.88125 0 
L 0 0 
z
" style="fill: #ffffff"/>
  </g>
  <g id="axes_1">
   <g id="patch_2">
    <path d="M 95.28125 501.3525 
L 764.88125 501.3525 
L 764.88125 57.8325 
L 95.28125 57.8325 
z
" style="fill: #ffffff"/>
   </g>
   <g id="matplotlib.axis_1">
    <g id="xtick_1">
     <g id="line2d_1">
      <path d="M 124.503644 501.3525 
L 124.503644 57.8325 
" clip-path="url(#pf5cf0e0ee2)" style="fill: none; stroke: #b0b0b0; stroke-opacity: 0.8; stroke-linecap: square"/>
     </g>
     <g id="line2d_2">
      <defs>
       <path id="m2745766663" d="M 0 0 
L 0 3.5 
" style="stroke: #000000; stroke-width: 0.8"/>
      </defs>
      <g>
       <use xlink:href="#m2745766663" x="124.503644" y="501.3525" style="stroke: #000000; stroke-width: 0.8"/>
      </g>
     </g>
     <g id="text_1">
      <!-- 0 -->
      <g transform="translate(119.273957 521.49625) scale(0.2 -0.2)">
       <defs>
        <path id="AptosDisplay-30" d="M 1672 -56 
Q 1291 -56 1028 105 
Q 766 266 605 552 
Q 444 838 372 1216 
Q 300 1594 300 2031 
Q 300 2475 372 2856 
Q 444 3238 605 3525 
Q 766 3813 1028 3973 
Q 1291 4134 1672 4134 
Q 2053 4134 2317 3975 
Q 2581 3816 2742 3527 
Q 2903 3238 2975 2858 
Q 3047 2478 3047 2038 
Q 3047 1597 2975 1217 
Q 2903 838 2742 552 
Q 2581 266 2318 105 
Q 2056 -56 1672 -56 
z
M 1672 409 
Q 1916 409 2073 550 
Q 2231 691 2322 925 
Q 2413 1159 2448 1448 
Q 2484 1738 2484 2038 
Q 2484 2338 2448 2628 
Q 2413 2919 2322 3153 
Q 2231 3388 2073 3527 
Q 1916 3666 1669 3666 
Q 1428 3666 1268 3527 
Q 1109 3388 1020 3153 
Q 931 2919 893 2628 
Q 856 2338 856 2038 
Q 856 1741 893 1450 
Q 931 1159 1020 925 
Q 1109 691 1268 550 
Q 1428 409 1672 409 
z
" transform="scale(0.015625)"/>
       </defs>
       <use xlink:href="#AptosDisplay-30"/>
      </g>
     </g>
    </g>
    <g id="xtick_2">
     <g id="line2d_3">
      <path d="M 240.672971 501.3525 
L 240.672971 57.8325 
" clip-path="url(#pf5cf0e0ee2)" style="fill: none; stroke: #b0b0b0; stroke-opacity: 0.8; stroke-linecap: square"/>
     </g>
     <g id="line2d_4">
      <g>
       <use xlink:href="#m2745766663" x="240.672971" y="501.3525" style="stroke: #000000; stroke-width: 0.8"/>
      </g>
     </g>
     <g id="text_2">
      <!-- 20 -->
      <g transform="translate(230.213596 521.49625) scale(0.2 -0.2)">
       <defs>
        <path id="AptosDisplay-32" d="M 247 0 
L 247 413 
L 1725 1741 
Q 2100 2081 2269 2351 
Q 2438 2622 2438 2938 
Q 2438 3256 2263 3461 
Q 2088 3666 1691 3666 
Q 1247 3666 1055 3439 
Q 863 3213 863 2869 
L 341 2869 
Q 341 3250 491 3534 
Q 641 3819 941 3975 
Q 1241 4131 1691 4131 
Q 2103 4131 2390 3986 
Q 2678 3841 2828 3578 
Q 2978 3316 2978 2959 
Q 2978 2638 2853 2375 
Q 2728 2113 2517 1883 
Q 2306 1653 2044 1425 
L 959 463 
L 3097 463 
L 3097 0 
L 247 0 
z
" transform="scale(0.015625)"/>
       </defs>
       <use xlink:href="#AptosDisplay-32"/>
       <use xlink:href="#AptosDisplay-30" x="52.294922"/>
      </g>
     </g>
    </g>
    <g id="xtick_3">
     <g id="line2d_5">
      <path d="M 356.842298 501.3525 
L 356.842298 57.8325 
" clip-path="url(#pf5cf0e0ee2)" style="fill: none; stroke: #b0b0b0; stroke-opacity: 0.8; stroke-linecap: square"/>
     </g>
     <g id="line2d_6">
      <g>
       <use xlink:href="#m2745766663" x="356.842298" y="501.3525" style="stroke: #000000; stroke-width: 0.8"/>
      </g>
     </g>
     <g id="text_3">
      <!-- 40 -->
      <g transform="translate(346.382923 521.49625) scale(0.2 -0.2)">
       <defs>
        <path id="AptosDisplay-34" d="M 2106 0 
L 2106 825 
L 125 825 
L 125 1297 
L 2100 4103 
L 2631 4103 
L 2631 1284 
L 3191 1284 
L 3191 825 
L 2631 825 
L 2631 0 
L 2106 0 
z
M 638 1284 
L 2113 1284 
L 2113 3369 
L 638 1284 
z
" transform="scale(0.015625)"/>
       </defs>
       <use xlink:href="#AptosDisplay-34"/>
       <use xlink:href="#AptosDisplay-30" x="52.294922"/>
      </g>
     </g>
    </g>
    <g id="xtick_4">
     <g id="line2d_7">
      <path d="M 473.011625 501.3525 
L 473.011625 57.8325 
" clip-path="url(#pf5cf0e0ee2)" style="fill: none; stroke: #b0b0b0; stroke-opacity: 0.8; stroke-linecap: square"/>
     </g>
     <g id="line2d_8">
      <g>
       <use xlink:href="#m2745766663" x="473.011625" y="501.3525" style="stroke: #000000; stroke-width: 0.8"/>
      </g>
     </g>
     <g id="text_4">
      <!-- 60 -->
      <g transform="translate(462.55225 521.49625) scale(0.2 -0.2)">
       <defs>
        <path id="AptosDisplay-36" d="M 1759 -56 
Q 1325 -56 984 151 
Q 644 359 447 815 
Q 250 1272 250 2013 
Q 250 2738 439 3206 
Q 628 3675 968 3903 
Q 1309 4131 1759 4131 
Q 2253 4131 2595 3875 
Q 2938 3619 3034 3097 
L 2503 3097 
Q 2441 3388 2250 3534 
Q 2059 3681 1759 3681 
Q 1306 3681 1047 3279 
Q 788 2878 788 2013 
L 788 1850 
Q 788 1313 922 992 
Q 1056 672 1279 531 
Q 1503 391 1763 391 
Q 2175 391 2369 644 
Q 2563 897 2563 1272 
Q 2563 1650 2373 1869 
Q 2184 2088 1838 2088 
Q 1422 2088 1114 1897 
Q 806 1706 644 1456 
L 597 1856 
Q 728 2047 922 2201 
Q 1116 2356 1362 2447 
Q 1609 2538 1909 2538 
Q 2253 2538 2523 2395 
Q 2794 2253 2951 1975 
Q 3109 1697 3109 1291 
Q 3109 897 2951 592 
Q 2794 288 2492 116 
Q 2191 -56 1759 -56 
z
" transform="scale(0.015625)"/>
       </defs>
       <use xlink:href="#AptosDisplay-36"/>
       <use xlink:href="#AptosDisplay-30" x="52.294922"/>
      </g>
     </g>
    </g>
    <g id="xtick_5">
     <g id="line2d_9">
      <path d="M 589.180952 501.3525 
L 589.180952 57.8325 
" clip-path="url(#pf5cf0e0ee2)" style="fill: none; stroke: #b0b0b0; stroke-opacity: 0.8; stroke-linecap: square"/>
     </g>
     <g id="line2d_10">
      <g>
       <use xlink:href="#m2745766663" x="589.180952" y="501.3525" style="stroke: #000000; stroke-width: 0.8"/>
      </g>
     </g>
     <g id="text_5">
      <!-- 80 -->
      <g transform="translate(578.721577 521.49625) scale(0.2 -0.2)">
       <defs>
        <path id="AptosDisplay-38" d="M 1675 -56 
Q 1391 -56 1137 16 
Q 884 88 686 234 
Q 488 381 373 606 
Q 259 831 259 1141 
Q 259 1531 495 1797 
Q 731 2063 1084 2150 
Q 781 2250 604 2490 
Q 428 2731 428 3081 
Q 428 3447 609 3681 
Q 791 3916 1075 4025 
Q 1359 4134 1669 4134 
Q 1981 4134 2265 4023 
Q 2550 3913 2733 3680 
Q 2916 3447 2916 3081 
Q 2916 2725 2716 2481 
Q 2516 2238 2238 2150 
Q 2606 2063 2843 1800 
Q 3081 1538 3081 1141 
Q 3081 831 2968 606 
Q 2856 381 2661 234 
Q 2466 88 2211 16 
Q 1956 -56 1675 -56 
z
M 1672 388 
Q 1909 388 2109 470 
Q 2309 553 2429 725 
Q 2550 897 2550 1163 
Q 2550 1416 2426 1587 
Q 2303 1759 2104 1846 
Q 1906 1934 1672 1928 
Q 1453 1934 1253 1850 
Q 1053 1766 926 1594 
Q 800 1422 800 1163 
Q 800 775 1058 581 
Q 1316 388 1672 388 
z
M 1672 2363 
Q 1863 2356 2030 2434 
Q 2197 2513 2300 2667 
Q 2403 2822 2403 3050 
Q 2403 3388 2189 3544 
Q 1975 3700 1675 3700 
Q 1484 3700 1317 3631 
Q 1150 3563 1047 3419 
Q 944 3275 944 3050 
Q 944 2825 1048 2670 
Q 1153 2516 1320 2436 
Q 1488 2356 1672 2363 
z
" transform="scale(0.015625)"/>
       </defs>
       <use xlink:href="#AptosDisplay-38"/>
       <use xlink:href="#AptosDisplay-30" x="52.294922"/>
      </g>
     </g>
    </g>
    <g id="xtick_6">
     <g id="line2d_11">
      <path d="M 705.350278 501.3525 
L 705.350278 57.8325 
" clip-path="url(#pf5cf0e0ee2)" style="fill: none; stroke: #b0b0b0; stroke-opacity: 0.8; stroke-linecap: square"/>
     </g>
     <g id="line2d_12">
      <g>
       <use xlink:href="#m2745766663" x="705.350278" y="501.3525" style="stroke: #000000; stroke-width: 0.8"/>
      </g>
     </g>
     <g id="text_6">
      <!-- 100 -->
      <g transform="translate(689.661216 521.49625) scale(0.2 -0.2)">
       <defs>
        <path id="AptosDisplay-31" d="M 1659 0 
L 1659 3425 
Q 1575 3309 1420 3201 
Q 1266 3094 1052 3009 
Q 838 2925 578 2888 
L 578 3381 
Q 834 3425 1057 3540 
Q 1281 3656 1453 3806 
Q 1625 3956 1719 4094 
L 2206 4094 
L 2206 0 
L 1659 0 
z
" transform="scale(0.015625)"/>
       </defs>
       <use xlink:href="#AptosDisplay-31"/>
       <use xlink:href="#AptosDisplay-30" x="52.294922"/>
       <use xlink:href="#AptosDisplay-30" x="104.589844"/>
      </g>
     </g>
    </g>
    <g id="xtick_7">
     <g id="line2d_13">
      <path d="M 95.461312 501.3525 
L 95.461312 57.8325 
" clip-path="url(#pf5cf0e0ee2)" style="fill: none; stroke-dasharray: 1.85,0.8; stroke-dashoffset: 0; stroke: #b0b0b0; stroke-opacity: 0.8; stroke-width: 0.5"/>
     </g>
     <g id="line2d_14">
      <defs>
       <path id="mef80cbe3b4" d="M 0 0 
L 0 2 
" style="stroke: #000000; stroke-width: 0.6"/>
      </defs>
      <g>
       <use xlink:href="#mef80cbe3b4" x="95.461312" y="501.3525" style="stroke: #000000; stroke-width: 0.6"/>
      </g>
     </g>
    </g>
    <g id="xtick_8">
     <g id="line2d_15">
      <path d="M 153.545976 501.3525 
L 153.545976 57.8325 
" clip-path="url(#pf5cf0e0ee2)" style="fill: none; stroke-dasharray: 1.85,0.8; stroke-dashoffset: 0; stroke: #b0b0b0; stroke-opacity: 0.8; stroke-width: 0.5"/>
     </g>
     <g id="line2d_16">
      <g>
       <use xlink:href="#mef80cbe3b4" x="153.545976" y="501.3525" style="stroke: #000000; stroke-width: 0.6"/>
      </g>
     </g>
    </g>
    <g id="xtick_9">
     <g id="line2d_17">
      <path d="M 182.588308 501.3525 
L 182.588308 57.8325 
" clip-path="url(#pf5cf0e0ee2)" style="fill: none; stroke-dasharray: 1.85,0.8; stroke-dashoffset: 0; stroke: #b0b0b0; stroke-opacity: 0.8; stroke-width: 0.5"/>
     </g>
     <g id="line2d_18">
      <g>
       <use xlink:href="#mef80cbe3b4" x="182.588308" y="501.3525" style="stroke: #000000; stroke-width: 0.6"/>
      </g>
     </g>
    </g>
    <g id="xtick_10">
     <g id="line2d_19">
      <path d="M 211.630639 501.3525 
L 211.630639 57.8325 
" clip-path="url(#pf5cf0e0ee2)" style="fill: none; stroke-dasharray: 1.85,0.8; stroke-dashoffset: 0; stroke: #b0b0b0; stroke-opacity: 0.8; stroke-width: 0.5"/>
     </g>
     <g id="line2d_20">
      <g>
       <use xlink:href="#mef80cbe3b4" x="211.630639" y="501.3525" style="stroke: #000000; stroke-width: 0.6"/>
      </g>
     </g>
    </g>
    <g id="xtick_11">
     <g id="line2d_21">
      <path d="M 269.715303 501.3525 
L 269.715303 57.8325 
" clip-path="url(#pf5cf0e0ee2)" style="fill: none; stroke-dasharray: 1.85,0.8; stroke-dashoffset: 0; stroke: #b0b0b0; stroke-opacity: 0.8; stroke-width: 0.5"/>
     </g>
     <g id="line2d_22">
      <g>
       <use xlink:href="#mef80cbe3b4" x="269.715303" y="501.3525" style="stroke: #000000; stroke-width: 0.6"/>
      </g>
     </g>
    </g>
    <g id="xtick_12">
     <g id="line2d_23">
      <path d="M 298.757634 501.3525 
L 298.757634 57.8325 
" clip-path="url(#pf5cf0e0ee2)" style="fill: none; stroke-dasharray: 1.85,0.8; stroke-dashoffset: 0; stroke: #b0b0b0; stroke-opacity: 0.8; stroke-width: 0.5"/>
     </g>
     <g id="line2d_24">
      <g>
       <use xlink:href="#mef80cbe3b4" x="298.757634" y="501.3525" style="stroke: #000000; stroke-width: 0.6"/>
      </g>
     </g>
    </g>
    <g id="xtick_13">
     <g id="line2d_25">
      <path d="M 327.799966 501.3525 
L 327.799966 57.8325 
" clip-path="url(#pf5cf0e0ee2)" style="fill: none; stroke-dasharray: 1.85,0.8; stroke-dashoffset: 0; stroke: #b0b0b0; stroke-opacity: 0.8; stroke-width: 0.5"/>
     </g>
     <g id="line2d_26">
      <g>
       <use xlink:href="#mef80cbe3b4" x="327.799966" y="501.3525" style="stroke: #000000; stroke-width: 0.6"/>
      </g>
     </g>
    </g>
    <g id="xtick_14">
     <g id="line2d_27">
      <path d="M 385.88463 501.3525 
L 385.88463 57.8325 
" clip-path="url(#pf5cf0e0ee2)" style="fill: none; stroke-dasharray: 1.85,0.8; stroke-dashoffset: 0; stroke: #b0b0b0; stroke-opacity: 0.8; stroke-width: 0.5"/>
     </g>
     <g id="line2d_28">
      <g>
       <use xlink:href="#mef80cbe3b4" x="385.88463" y="501.3525" style="stroke: #000000; stroke-width: 0.6"/>
      </g>
     </g>
    </g>
    <g id="xtick_15">
     <g id="line2d_29">
      <path d="M 414.926961 501.3525 
L 414.926961 57.8325 
" clip-path="url(#pf5cf0e0ee2)" style="fill: none; stroke-dasharray: 1.85,0.8; stroke-dashoffset: 0; stroke: #b0b0b0; stroke-opacity: 0.8; stroke-width: 0.5"/>
     </g>
     <g id="line2d_30">
      <g>
       <use xlink:href="#mef80cbe3b4" x="414.926961" y="501.3525" style="stroke: #000000; stroke-width: 0.6"/>
      </g>
     </g>
    </g>
    <g id="xtick_16">
     <g id="line2d_31">
      <path d="M 443.969293 501.3525 
L 443.969293 57.8325 
" clip-path="url(#pf5cf0e0ee2)" style="fill: none; stroke-dasharray: 1.85,0.8; stroke-dashoffset: 0; stroke: #b0b0b0; stroke-opacity: 0.8; stroke-width: 0.5"/>
     </g>
     <g id="line2d_32">
      <g>
       <use xlink:href="#mef80cbe3b4" x="443.969293" y="501.3525" style="stroke: #000000; stroke-width: 0.6"/>
      </g>
     </g>
    </g>
    <g id="xtick_17">
     <g id="line2d_33">
      <path d="M 502.053956 501.3525 
L 502.053956 57.8325 
" clip-path="url(#pf5cf0e0ee2)" style="fill: none; stroke-dasharray: 1.85,0.8; stroke-dashoffset: 0; stroke: #b0b0b0; stroke-opacity: 0.8; stroke-width: 0.5"/>
     </g>
     <g id="line2d_34">
      <g>
       <use xlink:href="#mef80cbe3b4" x="502.053956" y="501.3525" style="stroke: #000000; stroke-width: 0.6"/>
      </g>
     </g>
    </g>
    <g id="xtick_18">
     <g id="line2d_35">
      <path d="M 531.096288 501.3525 
L 531.096288 57.8325 
" clip-path="url(#pf5cf0e0ee2)" style="fill: none; stroke-dasharray: 1.85,0.8; stroke-dashoffset: 0; stroke: #b0b0b0; stroke-opacity: 0.8; stroke-width: 0.5"/>
     </g>
     <g id="line2d_36">
      <g>
       <use xlink:href="#mef80cbe3b4" x="531.096288" y="501.3525" style="stroke: #000000; stroke-width: 0.6"/>
      </g>
     </g>
    </g>
    <g id="xtick_19">
     <g id="line2d_37">
      <path d="M 560.13862 501.3525 
L 560.13862 57.8325 
" clip-path="url(#pf5cf0e0ee2)" style="fill: none; stroke-dasharray: 1.85,0.8; stroke-dashoffset: 0; stroke: #b0b0b0; stroke-opacity: 0.8; stroke-width: 0.5"/>
     </g>
     <g id="line2d_38">
      <g>
       <use xlink:href="#mef80cbe3b4" x="560.13862" y="501.3525" style="stroke: #000000; stroke-width: 0.6"/>
      </g>
     </g>
    </g>
    <g id="xtick_20">
     <g id="line2d_39">
      <path d="M 618.223283 501.3525 
L 618.223283 57.8325 
" clip-path="url(#pf5cf0e0ee2)" style="fill: none; stroke-dasharray: 1.85,0.8; stroke-dashoffset: 0; stroke: #b0b0b0; stroke-opacity: 0.8; stroke-width: 0.5"/>
     </g>
     <g id="line2d_40">
      <g>
       <use xlink:href="#mef80cbe3b4" x="618.223283" y="501.3525" style="stroke: #000000; stroke-width: 0.6"/>
      </g>
     </g>
    </g>
    <g id="xtick_21">
     <g id="line2d_41">
      <path d="M 647.265615 501.3525 
L 647.265615 57.8325 
" clip-path="url(#pf5cf0e0ee2)" style="fill: none; stroke-dasharray: 1.85,0.8; stroke-dashoffset: 0; stroke: #b0b0b0; stroke-opacity: 0.8; stroke-width: 0.5"/>
     </g>
     <g id="line2d_42">
      <g>
       <use xlink:href="#mef80cbe3b4" x="647.265615" y="501.3525" style="stroke: #000000; stroke-width: 0.6"/>
      </g>
     </g>
    </g>
    <g id="xtick_22">
     <g id="line2d_43">
      <path d="M 676.307947 501.3525 
L 676.307947 57.8325 
" clip-path="url(#pf5cf0e0ee2)" style="fill: none; stroke-dasharray: 1.85,0.8; stroke-dashoffset: 0; stroke: #b0b0b0; stroke-opacity: 0.8; stroke-width: 0.5"/>
     </g>
     <g id="line2d_44">
      <g>
       <use xlink:href="#mef80cbe3b4" x="676.307947" y="501.3525" style="stroke: #000000; stroke-width: 0.6"/>
      </g>
     </g>
    </g>
    <g id="xtick_23">
     <g id="line2d_45">
      <path d="M 734.39261 501.3525 
L 734.39261 57.8325 
" clip-path="url(#pf5cf0e0ee2)" style="fill: none; stroke-dasharray: 1.85,0.8; stroke-dashoffset: 0; stroke: #b0b0b0; stroke-opacity: 0.8; stroke-width: 0.5"/>
     </g>
     <g id="line2d_46">
      <g>
       <use xlink:href="#mef80cbe3b4" x="734.39261" y="501.3525" style="stroke: #000000; stroke-width: 0.6"/>
      </g>
     </g>
    </g>
    <g id="xtick_24">
     <g id="line2d_47">
      <path d="M 763.434942 501.3525 
L 763.434942 57.8325 
" clip-path="url(#pf5cf0e0ee2)" style="fill: none; stroke-dasharray: 1.85,0.8; stroke-dashoffset: 0; stroke: #b0b0b0; stroke-opacity: 0.8; stroke-width: 0.5"/>
     </g>
     <g id="line2d_48">
      <g>
       <use xlink:href="#mef80cbe3b4" x="763.434942" y="501.3525" style="stroke: #000000; stroke-width: 0.6"/>
      </g>
     </g>
    </g>
    <g id="text_7">
     <!-- Time (S) -->
     <g transform="translate(396.990625 542.305625) scale(0.2 -0.2)">
      <defs>
       <path id="AptosDisplay-54" d="M 1244 0 
L 1244 3734 
L 50 3734 
L 50 4206 
L 2997 4206 
L 2997 3734 
L 1806 3734 
L 1806 0 
L 1244 0 
z
" transform="scale(0.015625)"/>
       <path id="AptosDisplay-69" d="M 413 0 
L 413 3044 
L 934 3044 
L 934 0 
L 413 0 
z
M 675 3616 
Q 525 3616 437 3702 
Q 350 3788 350 3919 
Q 350 4050 437 4136 
Q 525 4222 675 4222 
Q 822 4222 912 4136 
Q 1003 4050 1003 3919 
Q 1003 3788 912 3702 
Q 822 3616 675 3616 
z
" transform="scale(0.015625)"/>
       <path id="AptosDisplay-6d" d="M 413 0 
L 413 3044 
L 919 3044 
L 931 2575 
Q 1063 2756 1303 2914 
Q 1544 3072 1903 3072 
Q 2403 3072 2618 2778 
Q 2834 2484 2834 1963 
L 2834 0 
L 2316 0 
L 2316 1891 
Q 2316 2106 2275 2275 
Q 2234 2444 2120 2539 
Q 2006 2634 1788 2634 
Q 1488 2634 1277 2482 
Q 1066 2331 934 2156 
L 934 0 
L 413 0 
z
M 4206 0 
L 4206 1891 
Q 4206 2106 4164 2275 
Q 4122 2444 4009 2539 
Q 3897 2634 3681 2634 
Q 3381 2634 3165 2484 
Q 2950 2334 2822 2159 
L 2744 2544 
Q 2916 2741 3175 2906 
Q 3434 3072 3800 3072 
Q 4291 3072 4509 2778 
Q 4728 2484 4728 1963 
L 4728 0 
L 4206 0 
z
" transform="scale(0.015625)"/>
       <path id="AptosDisplay-65" d="M 1663 -56 
Q 1188 -56 878 151 
Q 569 359 417 717 
Q 266 1075 266 1522 
Q 266 1988 412 2342 
Q 559 2697 857 2897 
Q 1156 3097 1606 3097 
Q 2209 3097 2550 2722 
Q 2891 2347 2891 1644 
Q 2891 1597 2889 1533 
Q 2888 1469 2881 1441 
L 791 1441 
Q 794 1144 881 895 
Q 969 647 1161 497 
Q 1353 347 1663 347 
Q 1997 347 2183 511 
Q 2369 675 2378 984 
L 2894 984 
Q 2884 663 2732 430 
Q 2581 197 2309 70 
Q 2038 -56 1663 -56 
z
M 794 1822 
L 2375 1822 
Q 2366 2247 2166 2472 
Q 1966 2697 1606 2697 
Q 1241 2697 1036 2473 
Q 831 2250 794 1822 
z
" transform="scale(0.015625)"/>
       <path id="AptosDisplay-20" transform="scale(0.015625)"/>
       <path id="AptosDisplay-28" d="M 1219 -1116 
Q 969 -678 787 -267 
Q 606 144 511 581 
Q 416 1019 416 1528 
Q 416 2028 509 2486 
Q 603 2944 783 3378 
Q 963 3813 1219 4231 
L 1647 4231 
Q 1278 3600 1101 2886 
Q 925 2172 925 1428 
Q 925 766 1125 103 
Q 1325 -559 1647 -1116 
L 1219 -1116 
z
" transform="scale(0.015625)"/>
       <path id="AptosDisplay-53" d="M 1778 -56 
Q 1328 -56 962 81 
Q 597 219 384 512 
Q 172 806 172 1275 
L 734 1275 
Q 738 941 883 750 
Q 1028 559 1267 481 
Q 1506 403 1794 403 
Q 2063 403 2283 483 
Q 2503 563 2634 723 
Q 2766 884 2766 1134 
Q 2766 1356 2662 1497 
Q 2559 1638 2321 1742 
Q 2084 1847 1678 1950 
Q 1203 2075 897 2223 
Q 591 2372 442 2594 
Q 294 2816 294 3156 
Q 294 3516 462 3761 
Q 631 4006 945 4134 
Q 1259 4263 1697 4263 
Q 2103 4263 2440 4131 
Q 2778 4000 2979 3737 
Q 3181 3475 3181 3084 
L 2616 3084 
Q 2622 3441 2356 3623 
Q 2091 3806 1700 3806 
Q 1300 3806 1073 3645 
Q 847 3484 847 3175 
Q 847 2991 944 2867 
Q 1041 2744 1280 2644 
Q 1519 2544 1941 2434 
Q 2428 2303 2731 2153 
Q 3034 2003 3178 1768 
Q 3322 1534 3322 1153 
Q 3322 747 3117 480 
Q 2913 213 2564 78 
Q 2216 -56 1778 -56 
z
" transform="scale(0.015625)"/>
       <path id="AptosDisplay-29" d="M 234 -1116 
Q 609 -481 786 233 
Q 963 947 963 1694 
Q 963 2356 759 3015 
Q 556 3675 234 4231 
L 663 4231 
Q 919 3800 1098 3389 
Q 1278 2978 1373 2540 
Q 1469 2103 1469 1594 
Q 1469 1094 1375 634 
Q 1281 175 1100 -259 
Q 919 -694 663 -1116 
L 234 -1116 
z
" transform="scale(0.015625)"/>
      </defs>
      <use xlink:href="#AptosDisplay-54"/>
      <use xlink:href="#AptosDisplay-69" x="47.705078"/>
      <use xlink:href="#AptosDisplay-6d" x="68.75"/>
      <use xlink:href="#AptosDisplay-65" x="148.730469"/>
      <use xlink:href="#AptosDisplay-20" x="198.144531"/>
      <use xlink:href="#AptosDisplay-28" x="217.431641"/>
      <use xlink:href="#AptosDisplay-53" x="246.875"/>
      <use xlink:href="#AptosDisplay-29" x="301.464844"/>
     </g>
    </g>
   </g>
   <g id="matplotlib.axis_2">
    <g id="ytick_1">
     <g id="line2d_49">
      <path d="M 95.28125 453.990378 
L 764.88125 453.990378 
" clip-path="url(#pf5cf0e0ee2)" style="fill: none; stroke: #b0b0b0; stroke-opacity: 0.8; stroke-linecap: square"/>
     </g>
     <g id="line2d_50">
      <defs>
       <path id="mbd861331b7" d="M 0 0 
L -3.5 0 
" style="stroke: #000000; stroke-width: 0.8"/>
      </defs>
      <g>
       <use xlink:href="#mbd861331b7" x="95.28125" y="453.990378" style="stroke: #000000; stroke-width: 0.8"/>
      </g>
     </g>
     <g id="text_8">
      <!-- 100 -->
      <g transform="translate(56.903125 460.562253) scale(0.2 -0.2)">
       <use xlink:href="#AptosDisplay-31"/>
       <use xlink:href="#AptosDisplay-30" x="52.294922"/>
       <use xlink:href="#AptosDisplay-30" x="104.589844"/>
      </g>
     </g>
    </g>
    <g id="ytick_2">
     <g id="line2d_51">
      <path d="M 95.28125 402.924802 
L 764.88125 402.924802 
" clip-path="url(#pf5cf0e0ee2)" style="fill: none; stroke: #b0b0b0; stroke-opacity: 0.8; stroke-linecap: square"/>
     </g>
     <g id="line2d_52">
      <g>
       <use xlink:href="#mbd861331b7" x="95.28125" y="402.924802" style="stroke: #000000; stroke-width: 0.8"/>
      </g>
     </g>
     <g id="text_9">
      <!-- 200 -->
      <g transform="translate(56.903125 409.496677) scale(0.2 -0.2)">
       <use xlink:href="#AptosDisplay-32"/>
       <use xlink:href="#AptosDisplay-30" x="52.294922"/>
       <use xlink:href="#AptosDisplay-30" x="104.589844"/>
      </g>
     </g>
    </g>
    <g id="ytick_3">
     <g id="line2d_53">
      <path d="M 95.28125 351.859226 
L 764.88125 351.859226 
" clip-path="url(#pf5cf0e0ee2)" style="fill: none; stroke: #b0b0b0; stroke-opacity: 0.8; stroke-linecap: square"/>
     </g>
     <g id="line2d_54">
      <g>
       <use xlink:href="#mbd861331b7" x="95.28125" y="351.859226" style="stroke: #000000; stroke-width: 0.8"/>
      </g>
     </g>
     <g id="text_10">
      <!-- 300 -->
      <g transform="translate(56.903125 358.431101) scale(0.2 -0.2)">
       <defs>
        <path id="AptosDisplay-33" d="M 1700 -56 
Q 1047 -56 655 275 
Q 263 606 263 1225 
L 781 1225 
Q 781 844 1023 617 
Q 1266 391 1697 391 
Q 2094 391 2322 581 
Q 2550 772 2550 1172 
Q 2550 1556 2297 1737 
Q 2044 1919 1609 1919 
L 1366 1919 
L 1366 2363 
L 1622 2363 
Q 2013 2363 2222 2555 
Q 2431 2747 2431 3066 
Q 2431 3372 2226 3526 
Q 2022 3681 1684 3681 
Q 1306 3681 1095 3481 
Q 884 3281 891 2956 
L 372 2956 
Q 372 3319 536 3583 
Q 700 3847 995 3990 
Q 1291 4134 1681 4134 
Q 2031 4134 2318 4017 
Q 2606 3900 2778 3670 
Q 2950 3441 2950 3097 
Q 2950 2738 2745 2498 
Q 2541 2259 2206 2166 
Q 2591 2097 2841 1836 
Q 3091 1575 3091 1150 
Q 3091 763 2916 494 
Q 2741 225 2428 84 
Q 2116 -56 1700 -56 
z
" transform="scale(0.015625)"/>
       </defs>
       <use xlink:href="#AptosDisplay-33"/>
       <use xlink:href="#AptosDisplay-30" x="52.294922"/>
       <use xlink:href="#AptosDisplay-30" x="104.589844"/>
      </g>
     </g>
    </g>
    <g id="ytick_4">
     <g id="line2d_55">
      <path d="M 95.28125 300.79365 
L 764.88125 300.79365 
" clip-path="url(#pf5cf0e0ee2)" style="fill: none; stroke: #b0b0b0; stroke-opacity: 0.8; stroke-linecap: square"/>
     </g>
     <g id="line2d_56">
      <g>
       <use xlink:href="#mbd861331b7" x="95.28125" y="300.79365" style="stroke: #000000; stroke-width: 0.8"/>
      </g>
     </g>
     <g id="text_11">
      <!-- 400 -->
      <g transform="translate(56.903125 307.365525) scale(0.2 -0.2)">
       <use xlink:href="#AptosDisplay-34"/>
       <use xlink:href="#AptosDisplay-30" x="52.294922"/>
       <use xlink:href="#AptosDisplay-30" x="104.589844"/>
      </g>
     </g>
    </g>
    <g id="ytick_5">
     <g id="line2d_57">
      <path d="M 95.28125 249.728075 
L 764.88125 249.728075 
" clip-path="url(#pf5cf0e0ee2)" style="fill: none; stroke: #b0b0b0; stroke-opacity: 0.8; stroke-linecap: square"/>
     </g>
     <g id="line2d_58">
      <g>
       <use xlink:href="#mbd861331b7" x="95.28125" y="249.728075" style="stroke: #000000; stroke-width: 0.8"/>
      </g>
     </g>
     <g id="text_12">
      <!-- 500 -->
      <g transform="translate(56.903125 256.29995) scale(0.2 -0.2)">
       <defs>
        <path id="AptosDisplay-35" d="M 1669 -56 
Q 1278 -56 964 83 
Q 650 222 465 483 
Q 281 744 281 1113 
L 816 1113 
Q 816 778 1055 584 
Q 1294 391 1669 391 
Q 2069 391 2291 625 
Q 2513 859 2513 1319 
Q 2513 1772 2291 1989 
Q 2069 2206 1697 2206 
Q 1409 2206 1223 2123 
Q 1038 2041 916 1894 
L 444 1894 
L 622 4078 
L 2788 4078 
L 2788 3613 
L 1041 3613 
L 931 2322 
Q 1044 2453 1251 2550 
Q 1459 2647 1775 2647 
Q 2131 2647 2420 2506 
Q 2709 2366 2881 2072 
Q 3053 1778 3053 1319 
Q 3053 863 2875 558 
Q 2697 253 2384 98 
Q 2072 -56 1669 -56 
z
" transform="scale(0.015625)"/>
       </defs>
       <use xlink:href="#AptosDisplay-35"/>
       <use xlink:href="#AptosDisplay-30" x="52.294922"/>
       <use xlink:href="#AptosDisplay-30" x="104.589844"/>
      </g>
     </g>
    </g>
    <g id="ytick_6">
     <g id="line2d_59">
      <path d="M 95.28125 198.662499 
L 764.88125 198.662499 
" clip-path="url(#pf5cf0e0ee2)" style="fill: none; stroke: #b0b0b0; stroke-opacity: 0.8; stroke-linecap: square"/>
     </g>
     <g id="line2d_60">
      <g>
       <use xlink:href="#mbd861331b7" x="95.28125" y="198.662499" style="stroke: #000000; stroke-width: 0.8"/>
      </g>
     </g>
     <g id="text_13">
      <!-- 600 -->
      <g transform="translate(56.903125 205.234374) scale(0.2 -0.2)">
       <use xlink:href="#AptosDisplay-36"/>
       <use xlink:href="#AptosDisplay-30" x="52.294922"/>
       <use xlink:href="#AptosDisplay-30" x="104.589844"/>
      </g>
     </g>
    </g>
    <g id="ytick_7">
     <g id="line2d_61">
      <path d="M 95.28125 147.596923 
L 764.88125 147.596923 
" clip-path="url(#pf5cf0e0ee2)" style="fill: none; stroke: #b0b0b0; stroke-opacity: 0.8; stroke-linecap: square"/>
     </g>
     <g id="line2d_62">
      <g>
       <use xlink:href="#mbd861331b7" x="95.28125" y="147.596923" style="stroke: #000000; stroke-width: 0.8"/>
      </g>
     </g>
     <g id="text_14">
      <!-- 700 -->
      <g transform="translate(56.903125 154.168798) scale(0.2 -0.2)">
       <defs>
        <path id="AptosDisplay-37" d="M 766 0 
L 2609 3600 
L 194 3600 
L 194 4078 
L 3141 4078 
L 3141 3622 
L 1334 0 
L 766 0 
z
" transform="scale(0.015625)"/>
       </defs>
       <use xlink:href="#AptosDisplay-37"/>
       <use xlink:href="#AptosDisplay-30" x="52.294922"/>
       <use xlink:href="#AptosDisplay-30" x="104.589844"/>
      </g>
     </g>
    </g>
    <g id="ytick_8">
     <g id="line2d_63">
      <path d="M 95.28125 96.531347 
L 764.88125 96.531347 
" clip-path="url(#pf5cf0e0ee2)" style="fill: none; stroke: #b0b0b0; stroke-opacity: 0.8; stroke-linecap: square"/>
     </g>
     <g id="line2d_64">
      <g>
       <use xlink:href="#mbd861331b7" x="95.28125" y="96.531347" style="stroke: #000000; stroke-width: 0.8"/>
      </g>
     </g>
     <g id="text_15">
      <!-- 800 -->
      <g transform="translate(56.903125 103.103222) scale(0.2 -0.2)">
       <use xlink:href="#AptosDisplay-38"/>
       <use xlink:href="#AptosDisplay-30" x="52.294922"/>
       <use xlink:href="#AptosDisplay-30" x="104.589844"/>
      </g>
     </g>
    </g>
    <g id="ytick_9">
     <g id="line2d_65">
      <path d="M 95.28125 494.842839 
L 764.88125 494.842839 
" clip-path="url(#pf5cf0e0ee2)" style="fill: none; stroke-dasharray: 1.85,0.8; stroke-dashoffset: 0; stroke: #b0b0b0; stroke-opacity: 0.8; stroke-width: 0.5"/>
     </g>
     <g id="line2d_66">
      <defs>
       <path id="m9dbde3891b" d="M 0 0 
L -2 0 
" style="stroke: #000000; stroke-width: 0.6"/>
      </defs>
      <g>
       <use xlink:href="#m9dbde3891b" x="95.28125" y="494.842839" style="stroke: #000000; stroke-width: 0.6"/>
      </g>
     </g>
    </g>
    <g id="ytick_10">
     <g id="line2d_67">
      <path d="M 95.28125 484.629724 
L 764.88125 484.629724 
" clip-path="url(#pf5cf0e0ee2)" style="fill: none; stroke-dasharray: 1.85,0.8; stroke-dashoffset: 0; stroke: #b0b0b0; stroke-opacity: 0.8; stroke-width: 0.5"/>
     </g>
     <g id="line2d_68">
      <g>
       <use xlink:href="#m9dbde3891b" x="95.28125" y="484.629724" style="stroke: #000000; stroke-width: 0.6"/>
      </g>
     </g>
    </g>
    <g id="ytick_11">
     <g id="line2d_69">
      <path d="M 95.28125 474.416609 
L 764.88125 474.416609 
" clip-path="url(#pf5cf0e0ee2)" style="fill: none; stroke-dasharray: 1.85,0.8; stroke-dashoffset: 0; stroke: #b0b0b0; stroke-opacity: 0.8; stroke-width: 0.5"/>
     </g>
     <g id="line2d_70">
      <g>
       <use xlink:href="#m9dbde3891b" x="95.28125" y="474.416609" style="stroke: #000000; stroke-width: 0.6"/>
      </g>
     </g>
    </g>
    <g id="ytick_12">
     <g id="line2d_71">
      <path d="M 95.28125 464.203494 
L 764.88125 464.203494 
" clip-path="url(#pf5cf0e0ee2)" style="fill: none; stroke-dasharray: 1.85,0.8; stroke-dashoffset: 0; stroke: #b0b0b0; stroke-opacity: 0.8; stroke-width: 0.5"/>
     </g>
     <g id="line2d_72">
      <g>
       <use xlink:href="#m9dbde3891b" x="95.28125" y="464.203494" style="stroke: #000000; stroke-width: 0.6"/>
      </g>
     </g>
    </g>
    <g id="ytick_13">
     <g id="line2d_73">
      <path d="M 95.28125 443.777263 
L 764.88125 443.777263 
" clip-path="url(#pf5cf0e0ee2)" style="fill: none; stroke-dasharray: 1.85,0.8; stroke-dashoffset: 0; stroke: #b0b0b0; stroke-opacity: 0.8; stroke-width: 0.5"/>
     </g>
     <g id="line2d_74">
      <g>
       <use xlink:href="#m9dbde3891b" x="95.28125" y="443.777263" style="stroke: #000000; stroke-width: 0.6"/>
      </g>
     </g>
    </g>
    <g id="ytick_14">
     <g id="line2d_75">
      <path d="M 95.28125 433.564148 
L 764.88125 433.564148 
" clip-path="url(#pf5cf0e0ee2)" style="fill: none; stroke-dasharray: 1.85,0.8; stroke-dashoffset: 0; stroke: #b0b0b0; stroke-opacity: 0.8; stroke-width: 0.5"/>
     </g>
     <g id="line2d_76">
      <g>
       <use xlink:href="#m9dbde3891b" x="95.28125" y="433.564148" style="stroke: #000000; stroke-width: 0.6"/>
      </g>
     </g>
    </g>
    <g id="ytick_15">
     <g id="line2d_77">
      <path d="M 95.28125 423.351033 
L 764.88125 423.351033 
" clip-path="url(#pf5cf0e0ee2)" style="fill: none; stroke-dasharray: 1.85,0.8; stroke-dashoffset: 0; stroke: #b0b0b0; stroke-opacity: 0.8; stroke-width: 0.5"/>
     </g>
     <g id="line2d_78">
      <g>
       <use xlink:href="#m9dbde3891b" x="95.28125" y="423.351033" style="stroke: #000000; stroke-width: 0.6"/>
      </g>
     </g>
    </g>
    <g id="ytick_16">
     <g id="line2d_79">
      <path d="M 95.28125 413.137918 
L 764.88125 413.137918 
" clip-path="url(#pf5cf0e0ee2)" style="fill: none; stroke-dasharray: 1.85,0.8; stroke-dashoffset: 0; stroke: #b0b0b0; stroke-opacity: 0.8; stroke-width: 0.5"/>
     </g>
     <g id="line2d_80">
      <g>
       <use xlink:href="#m9dbde3891b" x="95.28125" y="413.137918" style="stroke: #000000; stroke-width: 0.6"/>
      </g>
     </g>
    </g>
    <g id="ytick_17">
     <g id="line2d_81">
      <path d="M 95.28125 392.711687 
L 764.88125 392.711687 
" clip-path="url(#pf5cf0e0ee2)" style="fill: none; stroke-dasharray: 1.85,0.8; stroke-dashoffset: 0; stroke: #b0b0b0; stroke-opacity: 0.8; stroke-width: 0.5"/>
     </g>
     <g id="line2d_82">
      <g>
       <use xlink:href="#m9dbde3891b" x="95.28125" y="392.711687" style="stroke: #000000; stroke-width: 0.6"/>
      </g>
     </g>
    </g>
    <g id="ytick_18">
     <g id="line2d_83">
      <path d="M 95.28125 382.498572 
L 764.88125 382.498572 
" clip-path="url(#pf5cf0e0ee2)" style="fill: none; stroke-dasharray: 1.85,0.8; stroke-dashoffset: 0; stroke: #b0b0b0; stroke-opacity: 0.8; stroke-width: 0.5"/>
     </g>
     <g id="line2d_84">
      <g>
       <use xlink:href="#m9dbde3891b" x="95.28125" y="382.498572" style="stroke: #000000; stroke-width: 0.6"/>
      </g>
     </g>
    </g>
    <g id="ytick_19">
     <g id="line2d_85">
      <path d="M 95.28125 372.285457 
L 764.88125 372.285457 
" clip-path="url(#pf5cf0e0ee2)" style="fill: none; stroke-dasharray: 1.85,0.8; stroke-dashoffset: 0; stroke: #b0b0b0; stroke-opacity: 0.8; stroke-width: 0.5"/>
     </g>
     <g id="line2d_86">
      <g>
       <use xlink:href="#m9dbde3891b" x="95.28125" y="372.285457" style="stroke: #000000; stroke-width: 0.6"/>
      </g>
     </g>
    </g>
    <g id="ytick_20">
     <g id="line2d_87">
      <path d="M 95.28125 362.072342 
L 764.88125 362.072342 
" clip-path="url(#pf5cf0e0ee2)" style="fill: none; stroke-dasharray: 1.85,0.8; stroke-dashoffset: 0; stroke: #b0b0b0; stroke-opacity: 0.8; stroke-width: 0.5"/>
     </g>
     <g id="line2d_88">
      <g>
       <use xlink:href="#m9dbde3891b" x="95.28125" y="362.072342" style="stroke: #000000; stroke-width: 0.6"/>
      </g>
     </g>
    </g>
    <g id="ytick_21">
     <g id="line2d_89">
      <path d="M 95.28125 341.646111 
L 764.88125 341.646111 
" clip-path="url(#pf5cf0e0ee2)" style="fill: none; stroke-dasharray: 1.85,0.8; stroke-dashoffset: 0; stroke: #b0b0b0; stroke-opacity: 0.8; stroke-width: 0.5"/>
     </g>
     <g id="line2d_90">
      <g>
       <use xlink:href="#m9dbde3891b" x="95.28125" y="341.646111" style="stroke: #000000; stroke-width: 0.6"/>
      </g>
     </g>
    </g>
    <g id="ytick_22">
     <g id="line2d_91">
      <path d="M 95.28125 331.432996 
L 764.88125 331.432996 
" clip-path="url(#pf5cf0e0ee2)" style="fill: none; stroke-dasharray: 1.85,0.8; stroke-dashoffset: 0; stroke: #b0b0b0; stroke-opacity: 0.8; stroke-width: 0.5"/>
     </g>
     <g id="line2d_92">
      <g>
       <use xlink:href="#m9dbde3891b" x="95.28125" y="331.432996" style="stroke: #000000; stroke-width: 0.6"/>
      </g>
     </g>
    </g>
    <g id="ytick_23">
     <g id="line2d_93">
      <path d="M 95.28125 321.219881 
L 764.88125 321.219881 
" clip-path="url(#pf5cf0e0ee2)" style="fill: none; stroke-dasharray: 1.85,0.8; stroke-dashoffset: 0; stroke: #b0b0b0; stroke-opacity: 0.8; stroke-width: 0.5"/>
     </g>
     <g id="line2d_94">
      <g>
       <use xlink:href="#m9dbde3891b" x="95.28125" y="321.219881" style="stroke: #000000; stroke-width: 0.6"/>
      </g>
     </g>
    </g>
    <g id="ytick_24">
     <g id="line2d_95">
      <path d="M 95.28125 311.006766 
L 764.88125 311.006766 
" clip-path="url(#pf5cf0e0ee2)" style="fill: none; stroke-dasharray: 1.85,0.8; stroke-dashoffset: 0; stroke: #b0b0b0; stroke-opacity: 0.8; stroke-width: 0.5"/>
     </g>
     <g id="line2d_96">
      <g>
       <use xlink:href="#m9dbde3891b" x="95.28125" y="311.006766" style="stroke: #000000; stroke-width: 0.6"/>
      </g>
     </g>
    </g>
    <g id="ytick_25">
     <g id="line2d_97">
      <path d="M 95.28125 290.580535 
L 764.88125 290.580535 
" clip-path="url(#pf5cf0e0ee2)" style="fill: none; stroke-dasharray: 1.85,0.8; stroke-dashoffset: 0; stroke: #b0b0b0; stroke-opacity: 0.8; stroke-width: 0.5"/>
     </g>
     <g id="line2d_98">
      <g>
       <use xlink:href="#m9dbde3891b" x="95.28125" y="290.580535" style="stroke: #000000; stroke-width: 0.6"/>
      </g>
     </g>
    </g>
    <g id="ytick_26">
     <g id="line2d_99">
      <path d="M 95.28125 280.36742 
L 764.88125 280.36742 
" clip-path="url(#pf5cf0e0ee2)" style="fill: none; stroke-dasharray: 1.85,0.8; stroke-dashoffset: 0; stroke: #b0b0b0; stroke-opacity: 0.8; stroke-width: 0.5"/>
     </g>
     <g id="line2d_100">
      <g>
       <use xlink:href="#m9dbde3891b" x="95.28125" y="280.36742" style="stroke: #000000; stroke-width: 0.6"/>
      </g>
     </g>
    </g>
    <g id="ytick_27">
     <g id="line2d_101">
      <path d="M 95.28125 270.154305 
L 764.88125 270.154305 
" clip-path="url(#pf5cf0e0ee2)" style="fill: none; stroke-dasharray: 1.85,0.8; stroke-dashoffset: 0; stroke: #b0b0b0; stroke-opacity: 0.8; stroke-width: 0.5"/>
     </g>
     <g id="line2d_102">
      <g>
       <use xlink:href="#m9dbde3891b" x="95.28125" y="270.154305" style="stroke: #000000; stroke-width: 0.6"/>
      </g>
     </g>
    </g>
    <g id="ytick_28">
     <g id="line2d_103">
      <path d="M 95.28125 259.94119 
L 764.88125 259.94119 
" clip-path="url(#pf5cf0e0ee2)" style="fill: none; stroke-dasharray: 1.85,0.8; stroke-dashoffset: 0; stroke: #b0b0b0; stroke-opacity: 0.8; stroke-width: 0.5"/>
     </g>
     <g id="line2d_104">
      <g>
       <use xlink:href="#m9dbde3891b" x="95.28125" y="259.94119" style="stroke: #000000; stroke-width: 0.6"/>
      </g>
     </g>
    </g>
    <g id="ytick_29">
     <g id="line2d_105">
      <path d="M 95.28125 239.514959 
L 764.88125 239.514959 
" clip-path="url(#pf5cf0e0ee2)" style="fill: none; stroke-dasharray: 1.85,0.8; stroke-dashoffset: 0; stroke: #b0b0b0; stroke-opacity: 0.8; stroke-width: 0.5"/>
     </g>
     <g id="line2d_106">
      <g>
       <use xlink:href="#m9dbde3891b" x="95.28125" y="239.514959" style="stroke: #000000; stroke-width: 0.6"/>
      </g>
     </g>
    </g>
    <g id="ytick_30">
     <g id="line2d_107">
      <path d="M 95.28125 229.301844 
L 764.88125 229.301844 
" clip-path="url(#pf5cf0e0ee2)" style="fill: none; stroke-dasharray: 1.85,0.8; stroke-dashoffset: 0; stroke: #b0b0b0; stroke-opacity: 0.8; stroke-width: 0.5"/>
     </g>
     <g id="line2d_108">
      <g>
       <use xlink:href="#m9dbde3891b" x="95.28125" y="229.301844" style="stroke: #000000; stroke-width: 0.6"/>
      </g>
     </g>
    </g>
    <g id="ytick_31">
     <g id="line2d_109">
      <path d="M 95.28125 219.088729 
L 764.88125 219.088729 
" clip-path="url(#pf5cf0e0ee2)" style="fill: none; stroke-dasharray: 1.85,0.8; stroke-dashoffset: 0; stroke: #b0b0b0; stroke-opacity: 0.8; stroke-width: 0.5"/>
     </g>
     <g id="line2d_110">
      <g>
       <use xlink:href="#m9dbde3891b" x="95.28125" y="219.088729" style="stroke: #000000; stroke-width: 0.6"/>
      </g>
     </g>
    </g>
    <g id="ytick_32">
     <g id="line2d_111">
      <path d="M 95.28125 208.875614 
L 764.88125 208.875614 
" clip-path="url(#pf5cf0e0ee2)" style="fill: none; stroke-dasharray: 1.85,0.8; stroke-dashoffset: 0; stroke: #b0b0b0; stroke-opacity: 0.8; stroke-width: 0.5"/>
     </g>
     <g id="line2d_112">
      <g>
       <use xlink:href="#m9dbde3891b" x="95.28125" y="208.875614" style="stroke: #000000; stroke-width: 0.6"/>
      </g>
     </g>
    </g>
    <g id="ytick_33">
     <g id="line2d_113">
      <path d="M 95.28125 188.449383 
L 764.88125 188.449383 
" clip-path="url(#pf5cf0e0ee2)" style="fill: none; stroke-dasharray: 1.85,0.8; stroke-dashoffset: 0; stroke: #b0b0b0; stroke-opacity: 0.8; stroke-width: 0.5"/>
     </g>
     <g id="line2d_114">
      <g>
       <use xlink:href="#m9dbde3891b" x="95.28125" y="188.449383" style="stroke: #000000; stroke-width: 0.6"/>
      </g>
     </g>
    </g>
    <g id="ytick_34">
     <g id="line2d_115">
      <path d="M 95.28125 178.236268 
L 764.88125 178.236268 
" clip-path="url(#pf5cf0e0ee2)" style="fill: none; stroke-dasharray: 1.85,0.8; stroke-dashoffset: 0; stroke: #b0b0b0; stroke-opacity: 0.8; stroke-width: 0.5"/>
     </g>
     <g id="line2d_116">
      <g>
       <use xlink:href="#m9dbde3891b" x="95.28125" y="178.236268" style="stroke: #000000; stroke-width: 0.6"/>
      </g>
     </g>
    </g>
    <g id="ytick_35">
     <g id="line2d_117">
      <path d="M 95.28125 168.023153 
L 764.88125 168.023153 
" clip-path="url(#pf5cf0e0ee2)" style="fill: none; stroke-dasharray: 1.85,0.8; stroke-dashoffset: 0; stroke: #b0b0b0; stroke-opacity: 0.8; stroke-width: 0.5"/>
     </g>
     <g id="line2d_118">
      <g>
       <use xlink:href="#m9dbde3891b" x="95.28125" y="168.023153" style="stroke: #000000; stroke-width: 0.6"/>
      </g>
     </g>
    </g>
    <g id="ytick_36">
     <g id="line2d_119">
      <path d="M 95.28125 157.810038 
L 764.88125 157.810038 
" clip-path="url(#pf5cf0e0ee2)" style="fill: none; stroke-dasharray: 1.85,0.8; stroke-dashoffset: 0; stroke: #b0b0b0; stroke-opacity: 0.8; stroke-width: 0.5"/>
     </g>
     <g id="line2d_120">
      <g>
       <use xlink:href="#m9dbde3891b" x="95.28125" y="157.810038" style="stroke: #000000; stroke-width: 0.6"/>
      </g>
     </g>
    </g>
    <g id="ytick_37">
     <g id="line2d_121">
      <path d="M 95.28125 137.383807 
L 764.88125 137.383807 
" clip-path="url(#pf5cf0e0ee2)" style="fill: none; stroke-dasharray: 1.85,0.8; stroke-dashoffset: 0; stroke: #b0b0b0; stroke-opacity: 0.8; stroke-width: 0.5"/>
     </g>
     <g id="line2d_122">
      <g>
       <use xlink:href="#m9dbde3891b" x="95.28125" y="137.383807" style="stroke: #000000; stroke-width: 0.6"/>
      </g>
     </g>
    </g>
    <g id="ytick_38">
     <g id="line2d_123">
      <path d="M 95.28125 127.170692 
L 764.88125 127.170692 
" clip-path="url(#pf5cf0e0ee2)" style="fill: none; stroke-dasharray: 1.85,0.8; stroke-dashoffset: 0; stroke: #b0b0b0; stroke-opacity: 0.8; stroke-width: 0.5"/>
     </g>
     <g id="line2d_124">
      <g>
       <use xlink:href="#m9dbde3891b" x="95.28125" y="127.170692" style="stroke: #000000; stroke-width: 0.6"/>
      </g>
     </g>
    </g>
    <g id="ytick_39">
     <g id="line2d_125">
      <path d="M 95.28125 116.957577 
L 764.88125 116.957577 
" clip-path="url(#pf5cf0e0ee2)" style="fill: none; stroke-dasharray: 1.85,0.8; stroke-dashoffset: 0; stroke: #b0b0b0; stroke-opacity: 0.8; stroke-width: 0.5"/>
     </g>
     <g id="line2d_126">
      <g>
       <use xlink:href="#m9dbde3891b" x="95.28125" y="116.957577" style="stroke: #000000; stroke-width: 0.6"/>
      </g>
     </g>
    </g>
    <g id="ytick_40">
     <g id="line2d_127">
      <path d="M 95.28125 106.744462 
L 764.88125 106.744462 
" clip-path="url(#pf5cf0e0ee2)" style="fill: none; stroke-dasharray: 1.85,0.8; stroke-dashoffset: 0; stroke: #b0b0b0; stroke-opacity: 0.8; stroke-width: 0.5"/>
     </g>
     <g id="line2d_128">
      <g>
       <use xlink:href="#m9dbde3891b" x="95.28125" y="106.744462" style="stroke: #000000; stroke-width: 0.6"/>
      </g>
     </g>
    </g>
    <g id="ytick_41">
     <g id="line2d_129">
      <path d="M 95.28125 86.318232 
L 764.88125 86.318232 
" clip-path="url(#pf5cf0e0ee2)" style="fill: none; stroke-dasharray: 1.85,0.8; stroke-dashoffset: 0; stroke: #b0b0b0; stroke-opacity: 0.8; stroke-width: 0.5"/>
     </g>
     <g id="line2d_130">
      <g>
       <use xlink:href="#m9dbde3891b" x="95.28125" y="86.318232" style="stroke: #000000; stroke-width: 0.6"/>
      </g>
     </g>
    </g>
    <g id="ytick_42">
     <g id="line2d_131">
      <path d="M 95.28125 76.105116 
L 764.88125 76.105116 
" clip-path="url(#pf5cf0e0ee2)" style="fill: none; stroke-dasharray: 1.85,0.8; stroke-dashoffset: 0; stroke: #b0b0b0; stroke-opacity: 0.8; stroke-width: 0.5"/>
     </g>
     <g id="line2d_132">
      <g>
       <use xlink:href="#m9dbde3891b" x="95.28125" y="76.105116" style="stroke: #000000; stroke-width: 0.6"/>
      </g>
     </g>
    </g>
    <g id="ytick_43">
     <g id="line2d_133">
      <path d="M 95.28125 65.892001 
L 764.88125 65.892001 
" clip-path="url(#pf5cf0e0ee2)" style="fill: none; stroke-dasharray: 1.85,0.8; stroke-dashoffset: 0; stroke: #b0b0b0; stroke-opacity: 0.8; stroke-width: 0.5"/>
     </g>
     <g id="line2d_134">
      <g>
       <use xlink:href="#m9dbde3891b" x="95.28125" y="65.892001" style="stroke: #000000; stroke-width: 0.6"/>
      </g>
     </g>
    </g>
    <g id="text_16">
     <!-- Light (W/m^2) -->
     <g transform="translate(49.221875 337.558125) rotate(-90) scale(0.2 -0.2)">
      <defs>
       <path id="AptosDisplay-4c" d="M 472 0 
L 472 4206 
L 1034 4206 
L 1034 484 
L 3000 484 
L 3000 0 
L 472 0 
z
" transform="scale(0.015625)"/>
       <path id="AptosDisplay-67" d="M 1397 -1178 
Q 925 -1178 640 -1065 
Q 356 -953 229 -765 
Q 103 -578 103 -359 
Q 103 -94 329 112 
Q 556 319 1031 403 
L 1128 575 
L 1475 575 
Q 2184 575 2489 376 
Q 2794 178 2794 -238 
Q 2794 -650 2437 -914 
Q 2081 -1178 1397 -1178 
z
M 1384 -800 
Q 1878 -800 2086 -650 
Q 2294 -500 2294 -278 
Q 2294 -147 2225 -51 
Q 2156 44 1975 97 
Q 1794 150 1456 150 
L 1034 150 
Q 819 97 708 -31 
Q 597 -159 597 -328 
Q 597 -516 778 -658 
Q 959 -800 1384 -800 
z
M 1025 216 
Q 722 228 550 312 
Q 378 397 306 511 
Q 234 625 234 722 
Q 234 866 362 1009 
Q 491 1153 772 1241 
L 1038 1069 
Q 866 1031 772 953 
Q 678 875 678 791 
Q 678 731 734 682 
Q 791 634 928 606 
Q 1066 578 1303 575 
L 1025 216 
z
M 1363 984 
Q 1003 984 753 1128 
Q 503 1272 375 1509 
Q 247 1747 247 2022 
Q 247 2313 376 2550 
Q 506 2788 754 2928 
Q 1003 3069 1366 3069 
Q 1738 3069 1983 2928 
Q 2228 2788 2351 2550 
Q 2475 2313 2475 2022 
Q 2475 1741 2350 1505 
Q 2225 1269 1979 1126 
Q 1734 984 1363 984 
z
M 1366 1341 
Q 1641 1341 1812 1512 
Q 1984 1684 1984 2022 
Q 1984 2375 1817 2545 
Q 1650 2716 1372 2716 
Q 1094 2716 919 2541 
Q 744 2366 744 2025 
Q 744 1681 931 1511 
Q 1119 1341 1366 1341 
z
M 2131 2734 
L 1922 2931 
Q 2038 3225 2252 3331 
Q 2466 3438 2794 3447 
L 2794 3006 
Q 2588 3006 2416 2961 
Q 2244 2916 2131 2734 
z
" transform="scale(0.015625)"/>
       <path id="AptosDisplay-68" d="M 413 0 
L 413 4206 
L 931 4206 
L 931 2575 
Q 1069 2756 1317 2914 
Q 1566 3072 1950 3072 
Q 2428 3072 2637 2783 
Q 2847 2494 2847 1963 
L 2847 0 
L 2328 0 
L 2328 1891 
Q 2328 2106 2287 2275 
Q 2247 2444 2139 2539 
Q 2031 2634 1822 2634 
Q 1503 2634 1284 2482 
Q 1066 2331 934 2156 
L 934 0 
L 413 0 
z
" transform="scale(0.015625)"/>
       <path id="AptosDisplay-74" d="M 1466 0 
Q 1100 0 901 117 
Q 703 234 629 454 
Q 556 675 556 984 
L 556 2622 
L 50 2622 
L 50 3044 
L 556 3044 
L 556 3741 
L 1078 3741 
L 1078 3044 
L 1831 3044 
L 1831 2622 
L 1078 2622 
L 1078 1009 
Q 1078 725 1151 575 
Q 1225 425 1500 425 
L 1831 425 
L 1831 0 
L 1466 0 
z
" transform="scale(0.015625)"/>
       <path id="AptosDisplay-57" d="M 1216 0 
L -13 4206 
L 575 4206 
L 1525 697 
L 2531 4206 
L 3156 4206 
L 4163 697 
L 5119 4206 
L 5681 4206 
L 4453 0 
L 3866 0 
L 2831 3556 
L 1813 0 
L 1216 0 
z
" transform="scale(0.015625)"/>
       <path id="AptosDisplay-2f" d="M 72 0 
L 1603 4206 
L 2100 4206 
L 569 0 
L 72 0 
z
" transform="scale(0.015625)"/>
       <path id="AptosDisplay-5e" d="M 428 2438 
L 1459 4206 
L 1884 4206 
L 2916 2438 
L 2366 2438 
L 1672 3650 
L 978 2438 
L 428 2438 
z
" transform="scale(0.015625)"/>
      </defs>
      <use xlink:href="#AptosDisplay-4c"/>
      <use xlink:href="#AptosDisplay-69" x="48.4375"/>
      <use xlink:href="#AptosDisplay-67" x="69.482422"/>
      <use xlink:href="#AptosDisplay-68" x="113.427734"/>
      <use xlink:href="#AptosDisplay-74" x="164.013672"/>
      <use xlink:href="#AptosDisplay-20" x="194.384766"/>
      <use xlink:href="#AptosDisplay-28" x="213.671875"/>
      <use xlink:href="#AptosDisplay-57" x="243.115234"/>
      <use xlink:href="#AptosDisplay-2f" x="331.689453"/>
      <use xlink:href="#AptosDisplay-6d" x="365.625"/>
      <use xlink:href="#AptosDisplay-5e" x="445.605469"/>
      <use xlink:href="#AptosDisplay-32" x="497.900391"/>
      <use xlink:href="#AptosDisplay-29" x="550.195312"/>
     </g>
    </g>
   </g>
   <g id="line2d_135">
    <path d="M 125.717614 261.920491 
L 126.873498 262.595578 
L 128.035192 264.171462 
L 129.196885 254.71616 
L 131.520272 259.218612 
L 132.681965 259.218612 
L 133.843658 259.66901 
L 135.005351 260.344608 
L 136.167045 259.218612 
L 138.490431 259.66901 
L 139.652124 262.370379 
L 140.813818 259.443811 
L 143.137204 259.894209 
L 144.298897 259.894209 
L 145.460591 260.569807 
L 146.622284 257.19284 
L 147.783977 260.569807 
L 148.945671 259.894209 
L 150.107364 260.794496 
L 151.269057 260.569807 
L 152.43075 261.019695 
L 153.592444 260.569807 
L 154.754137 262.370379 
L 155.91583 262.145691 
L 157.077523 260.344608 
L 158.239217 260.119409 
L 159.40091 259.443811 
L 160.562603 257.867927 
L 161.724296 259.218612 
L 162.88599 265.972545 
L 164.047683 265.522147 
L 165.209376 257.41804 
L 166.37107 258.768724 
L 167.532763 257.642728 
L 168.694456 257.41804 
L 169.856149 256.967641 
L 171.017843 256.742442 
L 172.179536 257.642728 
L 173.341229 256.742442 
L 174.502922 256.292044 
L 175.664616 255.166558 
L 176.826309 255.842156 
L 177.993811 255.391758 
L 179.149696 255.391758 
L 180.311389 255.166558 
L 181.473082 254.266272 
L 182.634775 253.815874 
L 184.958162 254.71616 
L 186.125664 253.815874 
L 187.281548 254.266272 
L 188.44905 254.041073 
L 189.610743 254.941359 
L 190.772437 254.490961 
L 191.93413 255.391758 
L 193.095823 254.71616 
L 194.257516 254.490961 
L 195.41921 250.664107 
L 196.580903 254.490961 
L 197.742596 249.988509 
L 198.90429 254.266272 
L 200.065983 254.71616 
L 201.227676 255.616957 
L 202.389369 254.490961 
L 203.551063 254.490961 
L 204.712756 255.616957 
L 205.874449 255.616957 
L 208.197836 255.166558 
L 209.359529 255.391758 
L 210.521222 258.768724 
L 211.682916 255.842156 
L 212.844609 255.842156 
L 214.006302 257.41804 
L 215.167995 256.517243 
L 216.329689 256.292044 
L 218.653075 256.292044 
L 219.814768 255.842156 
L 220.976462 255.616957 
L 222.138155 254.941359 
L 223.29404 471.28731 
L 224.455733 475.564563 
L 225.623235 290.061198 
L 226.784928 227.025851 
L 227.946621 326.306012 
L 229.108315 165.1165 
L 230.270008 92.625851 
L 231.431701 90.599569 
L 232.593394 84.071346 
L 233.755088 82.270263 
L 234.916781 77.9925 
L 236.078474 81.819865 
L 237.240167 81.144267 
L 238.401861 79.118496 
L 239.563554 91.500366 
L 240.725247 114.237824 
L 241.88694 129.546263 
L 243.048634 116.489306 
L 244.210327 108.835087 
L 245.37202 104.557323 
L 246.533714 96.678416 
L 247.695407 104.107436 
L 248.8571 108.609887 
L 250.018793 107.034004 
L 251.180487 106.583605 
L 252.34218 108.835087 
L 253.503873 109.960572 
L 254.665566 112.88714 
L 255.82726 113.562738 
L 258.150646 114.012625 
L 259.31234 113.337538 
L 260.474033 115.36382 
L 261.635726 115.138621 
L 262.797419 113.787937 
L 263.959113 116.038907 
L 265.120806 115.588509 
L 267.444192 117.389592 
L 269.767579 116.939704 
L 270.929272 117.83999 
L 272.090965 117.83999 
L 273.252659 116.939704 
L 274.414352 116.489306 
L 275.576045 118.065189 
L 276.737739 117.164393 
L 277.899432 116.939704 
L 279.061125 116.038907 
L 280.222818 114.688223 
L 281.384512 116.489306 
L 282.546205 116.038907 
L 284.869591 114.688223 
L 286.031285 114.237824 
L 287.192978 111.536456 
L 288.354671 113.337538 
L 290.678058 114.237824 
L 291.839751 112.88714 
L 293.001444 111.986854 
L 295.324831 111.086057 
L 296.486524 106.583605 
L 297.648217 109.510173 
L 298.809911 109.060286 
L 299.971604 108.384688 
L 301.133297 108.384688 
L 302.29499 109.510173 
L 303.456684 107.034004 
L 304.618377 106.583605 
L 305.78007 105.908518 
L 306.941764 106.583605 
L 308.103457 105.908518 
L 309.26515 105.908518 
L 310.426843 105.232921 
L 311.588537 105.45812 
L 312.75023 99.379785 
L 313.911923 107.034004 
L 315.073616 104.332635 
L 316.23531 102.531552 
L 317.397003 104.107436 
L 318.558696 102.756751 
L 319.720389 100.054871 
L 320.882083 102.531552 
L 322.043776 98.704187 
L 323.205469 98.253789 
L 324.367163 94.652133 
L 325.528856 95.777619 
L 326.684741 97.353502 
L 327.846434 98.478988 
L 329.008127 98.0291 
L 330.16982 98.0291 
L 331.331514 98.478988 
L 332.493207 98.704187 
L 333.6549 100.50527 
L 334.816594 99.604984 
L 335.978287 98.478988 
L 337.13998 101.180867 
L 338.307482 101.630755 
L 339.469175 100.50527 
L 340.630868 101.405556 
L 341.792562 101.180867 
L 342.954255 99.154585 
L 344.115948 96.903104 
L 345.277641 99.604984 
L 346.439335 96.903104 
L 347.601028 96.678416 
L 348.762721 94.652133 
L 349.924414 86.772715 
L 351.086108 96.903104 
L 352.247801 96.903104 
L 353.409494 96.002818 
L 354.571188 95.777619 
L 355.732881 96.002818 
L 356.894574 99.604984 
L 358.050459 96.678416 
L 359.212152 98.0291 
L 360.373845 94.652133 
L 361.541347 96.228017 
L 362.70304 96.453216 
L 363.864734 94.201735 
L 365.026427 96.678416 
L 366.18812 95.102532 
L 367.349813 95.32722 
L 368.511507 96.903104 
L 369.6732 98.704187 
L 370.834893 98.704187 
L 371.996587 97.578702 
L 373.15828 95.55242 
L 374.319973 96.903104 
L 375.481666 99.604984 
L 376.64336 101.405556 
L 378.966746 101.855954 
L 380.128439 103.206639 
L 381.290133 102.081153 
L 382.451826 102.98144 
L 383.613519 101.630755 
L 384.775213 104.557323 
L 385.936906 105.007722 
L 387.098599 108.835087 
L 388.260292 105.232921 
L 389.421986 105.007722 
L 390.583679 106.358406 
L 391.745372 106.133207 
L 392.907065 109.060286 
L 394.068759 101.855954 
L 395.230452 107.034004 
L 396.392145 106.808805 
L 397.553838 106.808805 
L 398.715532 108.609887 
L 399.877225 109.735373 
L 401.038918 111.536456 
L 402.200612 109.284974 
L 403.362305 109.284974 
L 404.523998 109.060286 
L 405.685691 109.735373 
L 406.847385 110.860858 
L 408.009078 109.510173 
L 409.170771 109.510173 
L 410.332464 108.835087 
L 411.494158 108.835087 
L 412.655851 108.609887 
L 413.817544 109.735373 
L 414.979238 108.159489 
L 416.140931 107.709091 
L 417.302624 105.908518 
L 418.464317 106.583605 
L 419.626011 107.484402 
L 420.787704 106.358406 
L 421.949397 106.808805 
L 423.11109 104.557323 
L 424.272784 105.232921 
L 426.59617 106.133207 
L 428.919557 106.133207 
L 431.242943 105.232921 
L 434.728023 105.232921 
L 435.889716 109.284974 
L 437.05141 105.908518 
L 438.213103 105.908518 
L 439.374796 105.45812 
L 440.536489 102.306353 
L 441.698183 105.45812 
L 442.859876 104.557323 
L 444.021569 104.782522 
L 445.183262 104.557323 
L 446.344956 104.557323 
L 447.506649 104.782522 
L 448.668342 103.431838 
L 449.830036 101.630755 
L 450.991729 102.756751 
L 452.153422 104.332635 
L 453.315115 103.431838 
L 454.476809 104.332635 
L 455.638502 102.306353 
L 456.800195 102.306353 
L 457.961888 101.630755 
L 459.123582 98.0291 
L 460.285275 101.855954 
L 461.446968 102.531552 
L 462.608662 100.955668 
L 464.932048 101.405556 
L 466.093741 100.50527 
L 467.255435 98.253789 
L 468.417128 100.730469 
L 469.578821 101.180867 
L 471.902208 100.730469 
L 476.548981 103.431838 
L 477.710674 356.022603 
L 478.872367 461.38161 
L 480.034061 455.528473 
L 481.195754 223.198487 
L 482.357447 103.431838 
L 483.51914 102.081153 
L 484.680834 105.45812 
L 485.842527 107.93429 
L 487.00422 107.034004 
L 488.165913 126.169807 
L 490.4893 96.903104 
L 491.650993 102.98144 
L 492.812687 97.128303 
L 493.97438 445.847972 
L 495.136073 459.580527 
L 497.45946 95.102532 
L 498.621153 98.253789 
L 499.782846 102.306353 
L 500.944539 100.955668 
L 502.106233 100.730469 
L 503.267926 99.604984 
L 504.429619 96.903104 
L 505.591312 96.678416 
L 506.753006 95.32722 
L 507.914699 98.253789 
L 509.076392 97.578702 
L 510.238086 97.353502 
L 511.399779 98.478988 
L 512.561472 98.929386 
L 513.723165 102.306353 
L 514.884859 99.379785 
L 516.046552 99.829672 
L 517.208245 100.054871 
L 518.369938 101.855954 
L 519.531632 103.882236 
L 520.693325 102.531552 
L 521.855018 102.081153 
L 523.016711 102.756751 
L 524.178405 103.206639 
L 525.340098 103.431838 
L 526.501791 103.431838 
L 527.663485 104.332635 
L 528.825178 103.431838 
L 529.986871 105.232921 
L 531.148564 102.98144 
L 532.310258 109.960572 
L 533.471951 102.081153 
L 534.633644 102.531552 
L 535.795337 101.405556 
L 536.957031 103.206639 
L 538.118724 105.45812 
L 539.280417 104.782522 
L 540.442111 108.384688 
L 541.603804 104.782522 
L 542.765497 107.709091 
L 543.92719 105.232921 
L 545.088884 105.007722 
L 546.250577 98.704187 
L 547.41227 105.683319 
L 548.573963 105.683319 
L 549.735657 105.007722 
L 550.89735 105.232921 
L 552.059043 106.133207 
L 553.220736 107.93429 
L 554.38243 105.908518 
L 555.544123 108.384688 
L 556.705816 107.93429 
L 557.86751 107.034004 
L 559.029203 107.484402 
L 560.190896 108.384688 
L 561.352589 108.384688 
L 562.514283 108.159489 
L 563.675976 109.510173 
L 564.837669 107.93429 
L 565.999362 109.060286 
L 567.161056 109.060286 
L 568.322749 109.510173 
L 569.484442 110.185771 
L 570.646135 109.735373 
L 571.807829 109.060286 
L 572.969522 109.060286 
L 574.131215 108.384688 
L 575.292909 108.835087 
L 576.454602 108.609887 
L 577.616295 106.583605 
L 579.939682 105.232921 
L 581.101375 104.782522 
L 582.263068 104.107436 
L 583.424761 104.332635 
L 584.586455 103.431838 
L 585.748148 103.206639 
L 588.071535 100.50527 
L 589.233228 100.054871 
L 590.394921 80.46918 
L 591.556614 101.180867 
L 592.718308 99.604984 
L 595.041694 98.704187 
L 596.203387 99.379785 
L 597.365081 99.604984 
L 598.526774 98.478988 
L 599.688467 99.154585 
L 600.85016 99.379785 
L 602.011854 97.803901 
L 603.173547 98.478988 
L 604.33524 98.478988 
L 605.496934 99.829672 
L 606.658627 98.253789 
L 607.82032 97.578702 
L 608.982013 92.175453 
L 610.143707 96.903104 
L 611.3054 97.128303 
L 612.467093 98.0291 
L 613.628786 98.0291 
L 615.952173 97.128303 
L 617.113866 98.929386 
L 618.27556 97.803901 
L 619.437253 96.903104 
L 620.598946 98.0291 
L 621.760639 98.478988 
L 622.922333 98.704187 
L 624.084026 98.0291 
L 625.245719 98.929386 
L 626.407412 99.379785 
L 627.569106 98.929386 
L 628.730799 99.829672 
L 629.892492 98.478988 
L 632.215879 99.829672 
L 633.377572 99.829672 
L 634.539265 97.803901 
L 635.700959 100.280071 
L 636.862652 98.478988 
L 638.024345 91.500366 
L 639.186038 99.379785 
L 640.347732 108.384688 
L 641.509425 103.431838 
L 642.671118 105.908518 
L 643.832811 105.232921 
L 644.994505 105.683319 
L 646.156198 106.808805 
L 647.317891 106.808805 
L 648.479584 99.604984 
L 649.641278 101.855954 
L 650.802971 100.730469 
L 651.964664 102.98144 
L 653.126358 102.756751 
L 654.288051 102.081153 
L 655.449744 105.908518 
L 657.773131 99.379785 
L 658.934824 98.253789 
L 660.096517 95.55242 
L 661.25821 98.253789 
L 662.419904 98.0291 
L 663.581597 96.903104 
L 664.74329 96.678416 
L 665.904984 97.353502 
L 667.066677 97.353502 
L 668.22837 96.678416 
L 669.390063 99.829672 
L 670.551757 97.353502 
L 671.71345 98.0291 
L 672.875143 98.253789 
L 674.036836 98.0291 
L 675.19853 97.578702 
L 676.360223 96.228017 
L 677.521916 98.478988 
L 678.683609 99.829672 
L 679.845303 99.154585 
L 681.006996 99.604984 
L 682.168689 99.379785 
L 683.330383 100.280071 
L 684.492076 101.855954 
L 685.653769 97.128303 
L 686.815462 96.678416 
L 687.977156 350.619865 
L 689.138849 465.884062 
L 690.300542 466.784858 
L 691.462235 468.135543 
L 692.623929 481.1925 
L 693.785622 123.243239 
L 694.947315 98.929386 
L 696.109009 98.478988 
L 697.270702 98.704187 
L 698.432395 98.704187 
L 699.594088 99.154585 
L 700.755782 98.929386 
L 701.917475 98.0291 
L 703.079168 96.002818 
L 704.240861 96.228017 
L 705.402555 98.478988 
L 706.564248 97.353502 
L 707.725941 93.526648 
L 708.887634 97.803901 
L 710.049328 98.704187 
L 711.211021 98.704187 
L 712.372714 98.478988 
L 713.534408 96.903104 
L 714.696101 97.353502 
L 715.857794 98.0291 
L 718.181181 98.0291 
L 719.342874 97.803901 
L 720.504567 97.803901 
L 721.66626 98.253789 
L 722.827954 98.0291 
L 723.989647 97.578702 
L 725.15134 97.803901 
L 726.313033 98.478988 
L 727.474727 98.0291 
L 728.63642 98.0291 
L 729.798113 98.478988 
L 730.959807 97.803901 
L 732.1215 93.976536 
L 733.283193 98.704187 
L 734.444886 97.803901 
L 734.444886 97.803901 
" clip-path="url(#pf5cf0e0ee2)" style="fill: none; stroke: #ac2b37; stroke-width: 1.5; stroke-linecap: square"/>
   </g>
   <g id="patch_3">
    <path d="M 95.28125 501.3525 
L 95.28125 57.8325 
" style="fill: none; stroke: #000000; stroke-width: 0.8; stroke-linejoin: miter; stroke-linecap: square"/>
   </g>
   <g id="patch_4">
    <path d="M 764.88125 501.3525 
L 764.88125 57.8325 
" style="fill: none; stroke: #000000; stroke-width: 0.8; stroke-linejoin: miter; stroke-linecap: square"/>
   </g>
   <g id="patch_5">
    <path d="M 95.28125 501.3525 
L 764.88125 501.3525 
" style="fill: none; stroke: #000000; stroke-width: 0.8; stroke-linejoin: miter; stroke-linecap: square"/>
   </g>
   <g id="patch_6">
    <path d="M 95.28125 57.8325 
L 764.88125 57.8325 
" style="fill: none; stroke: #000000; stroke-width: 0.8; stroke-linejoin: miter; stroke-linecap: square"/>
   </g>
   <g id="text_17">
    <!-- Light vs Time -->
    <g transform="translate(367.59875 51.8325) scale(0.24 -0.24)">
     <defs>
      <path id="AptosDisplay-76" d="M 1103 0 
L -13 3044 
L 538 3044 
L 1391 513 
L 2250 3044 
L 2781 3044 
L 1678 0 
L 1103 0 
z
" transform="scale(0.015625)"/>
      <path id="AptosDisplay-73" d="M 1506 -41 
Q 1247 -41 1017 14 
Q 788 69 613 191 
Q 438 313 339 506 
Q 241 700 241 978 
L 744 978 
Q 744 628 966 487 
Q 1188 347 1519 347 
Q 1816 347 2008 458 
Q 2200 569 2200 822 
Q 2200 1047 2026 1153 
Q 1853 1259 1413 1369 
Q 1056 1453 815 1564 
Q 575 1675 453 1845 
Q 331 2016 331 2275 
Q 331 2475 417 2626 
Q 503 2778 658 2879 
Q 813 2981 1020 3032 
Q 1228 3084 1472 3084 
Q 1713 3084 1923 3028 
Q 2134 2972 2296 2855 
Q 2459 2738 2551 2552 
Q 2644 2366 2644 2109 
L 2138 2109 
Q 2138 2425 1945 2558 
Q 1753 2691 1472 2691 
Q 1191 2691 1016 2594 
Q 841 2497 841 2291 
Q 841 2169 919 2084 
Q 997 2000 1181 1933 
Q 1366 1866 1675 1791 
Q 2019 1709 2248 1596 
Q 2478 1484 2595 1306 
Q 2713 1128 2713 847 
Q 2713 616 2622 447 
Q 2531 278 2367 170 
Q 2203 63 1983 11 
Q 1763 -41 1506 -41 
z
" transform="scale(0.015625)"/>
     </defs>
     <use xlink:href="#AptosDisplay-4c"/>
     <use xlink:href="#AptosDisplay-69" x="48.4375"/>
     <use xlink:href="#AptosDisplay-67" x="69.482422"/>
     <use xlink:href="#AptosDisplay-68" x="113.427734"/>
     <use xlink:href="#AptosDisplay-74" x="164.013672"/>
     <use xlink:href="#AptosDisplay-20" x="194.384766"/>
     <use xlink:href="#AptosDisplay-76" x="213.671875"/>
     <use xlink:href="#AptosDisplay-73" x="256.933594"/>
     <use xlink:href="#AptosDisplay-20" x="303.222656"/>
     <use xlink:href="#AptosDisplay-54" x="322.509766"/>
     <use xlink:href="#AptosDisplay-69" x="370.214844"/>
     <use xlink:href="#AptosDisplay-6d" x="391.259766"/>
     <use xlink:href="#AptosDisplay-65" x="471.240234"/>
    </g>
   </g>
  </g>
 </g>
 <defs>
  <clipPath id="pf5cf0e0ee2">
   <rect x="95.28125" y="57.8325" width="669.6" height="443.52"/>
  </clipPath>
 </defs>
</svg>
