<?xml version="1.0" encoding="utf-8" standalone="no"?>
<!DOCTYPE svg PUBLIC "-//W3C//DTD SVG 1.1//EN"
  "http://www.w3.org/Graphics/SVG/1.1/DTD/svg11.dtd">
<svg xmlns:xlink="http://www.w3.org/1999/xlink" width="811.340625pt" height="581.830625pt" viewBox="0 0 811.340625 581.830625" xmlns="http://www.w3.org/2000/svg" version="1.1">
 <metadata>
  <rdf:RDF xmlns:dc="http://purl.org/dc/elements/1.1/" xmlns:cc="http://creativecommons.org/ns#" xmlns:rdf="http://www.w3.org/1999/02/22-rdf-syntax-ns#">
   <cc:Work>
    <dc:type rdf:resource="http://purl.org/dc/dcmitype/StillImage"/>
    <dc:date>2025-03-23T22:45:16.995845</dc:date>
    <dc:format>image/svg+xml</dc:format>
    <dc:creator>
     <cc:Agent>
      <dc:title>Matplotlib v3.8.2, https://matplotlib.org/</dc:title>
     </cc:Agent>
    </dc:creator>
   </cc:Work>
  </rdf:RDF>
 </metadata>
 <defs>
  <style type="text/css">*{stroke-linejoin: round; stroke-linecap: butt}</style>
 </defs>
 <g id="figure_1">
  <g id="patch_1">
   <path d="M 0 581.830625 
L 811.340625 581.830625 
L 811.340625 0 
L 0 0 
z
" style="fill: #ffffff"/>
  </g>
  <g id="axes_1">
   <g id="patch_2">
    <path d="M 105.740625 501.3525 
L 775.340625 501.3525 
L 775.340625 57.8325 
L 105.740625 57.8325 
z
" style="fill: #ffffff"/>
   </g>
   <g id="matplotlib.axis_1">
    <g id="xtick_1">
     <g id="line2d_1">
      <path d="M 135.265188 501.3525 
L 135.265188 57.8325 
" clip-path="url(#p3c1d305358)" style="fill: none; stroke: #b0b0b0; stroke-opacity: 0.8; stroke-linecap: square"/>
     </g>
     <g id="line2d_2">
      <defs>
       <path id="m560b31c86c" d="M 0 0 
L 0 3.5 
" style="stroke: #000000; stroke-width: 0.8"/>
      </defs>
      <g>
       <use xlink:href="#m560b31c86c" x="135.265188" y="501.3525" style="stroke: #000000; stroke-width: 0.8"/>
      </g>
     </g>
     <g id="text_1">
      <!-- 0 -->
      <g transform="translate(130.035501 521.49625) scale(0.2 -0.2)">
       <defs>
        <path id="AptosDisplay-30" d="M 1672 -56 
Q 1291 -56 1028 105 
Q 766 266 605 552 
Q 444 838 372 1216 
Q 300 1594 300 2031 
Q 300 2475 372 2856 
Q 444 3238 605 3525 
Q 766 3813 1028 3973 
Q 1291 4134 1672 4134 
Q 2053 4134 2317 3975 
Q 2581 3816 2742 3527 
Q 2903 3238 2975 2858 
Q 3047 2478 3047 2038 
Q 3047 1597 2975 1217 
Q 2903 838 2742 552 
Q 2581 266 2318 105 
Q 2056 -56 1672 -56 
z
M 1672 409 
Q 1916 409 2073 550 
Q 2231 691 2322 925 
Q 2413 1159 2448 1448 
Q 2484 1738 2484 2038 
Q 2484 2338 2448 2628 
Q 2413 2919 2322 3153 
Q 2231 3388 2073 3527 
Q 1916 3666 1669 3666 
Q 1428 3666 1268 3527 
Q 1109 3388 1020 3153 
Q 931 2919 893 2628 
Q 856 2338 856 2038 
Q 856 1741 893 1450 
Q 931 1159 1020 925 
Q 1109 691 1268 550 
Q 1428 409 1672 409 
z
" transform="scale(0.015625)"/>
       </defs>
       <use xlink:href="#AptosDisplay-30"/>
      </g>
     </g>
    </g>
    <g id="xtick_2">
     <g id="line2d_3">
      <path d="M 220.880236 501.3525 
L 220.880236 57.8325 
" clip-path="url(#p3c1d305358)" style="fill: none; stroke: #b0b0b0; stroke-opacity: 0.8; stroke-linecap: square"/>
     </g>
     <g id="line2d_4">
      <g>
       <use xlink:href="#m560b31c86c" x="220.880236" y="501.3525" style="stroke: #000000; stroke-width: 0.8"/>
      </g>
     </g>
     <g id="text_2">
      <!-- 20 -->
      <g transform="translate(210.420861 521.49625) scale(0.2 -0.2)">
       <defs>
        <path id="AptosDisplay-32" d="M 247 0 
L 247 413 
L 1725 1741 
Q 2100 2081 2269 2351 
Q 2438 2622 2438 2938 
Q 2438 3256 2263 3461 
Q 2088 3666 1691 3666 
Q 1247 3666 1055 3439 
Q 863 3213 863 2869 
L 341 2869 
Q 341 3250 491 3534 
Q 641 3819 941 3975 
Q 1241 4131 1691 4131 
Q 2103 4131 2390 3986 
Q 2678 3841 2828 3578 
Q 2978 3316 2978 2959 
Q 2978 2638 2853 2375 
Q 2728 2113 2517 1883 
Q 2306 1653 2044 1425 
L 959 463 
L 3097 463 
L 3097 0 
L 247 0 
z
" transform="scale(0.015625)"/>
       </defs>
       <use xlink:href="#AptosDisplay-32"/>
       <use xlink:href="#AptosDisplay-30" x="52.294922"/>
      </g>
     </g>
    </g>
    <g id="xtick_3">
     <g id="line2d_5">
      <path d="M 306.495285 501.3525 
L 306.495285 57.8325 
" clip-path="url(#p3c1d305358)" style="fill: none; stroke: #b0b0b0; stroke-opacity: 0.8; stroke-linecap: square"/>
     </g>
     <g id="line2d_6">
      <g>
       <use xlink:href="#m560b31c86c" x="306.495285" y="501.3525" style="stroke: #000000; stroke-width: 0.8"/>
      </g>
     </g>
     <g id="text_3">
      <!-- 40 -->
      <g transform="translate(296.03591 521.49625) scale(0.2 -0.2)">
       <defs>
        <path id="AptosDisplay-34" d="M 2106 0 
L 2106 825 
L 125 825 
L 125 1297 
L 2100 4103 
L 2631 4103 
L 2631 1284 
L 3191 1284 
L 3191 825 
L 2631 825 
L 2631 0 
L 2106 0 
z
M 638 1284 
L 2113 1284 
L 2113 3369 
L 638 1284 
z
" transform="scale(0.015625)"/>
       </defs>
       <use xlink:href="#AptosDisplay-34"/>
       <use xlink:href="#AptosDisplay-30" x="52.294922"/>
      </g>
     </g>
    </g>
    <g id="xtick_4">
     <g id="line2d_7">
      <path d="M 392.110333 501.3525 
L 392.110333 57.8325 
" clip-path="url(#p3c1d305358)" style="fill: none; stroke: #b0b0b0; stroke-opacity: 0.8; stroke-linecap: square"/>
     </g>
     <g id="line2d_8">
      <g>
       <use xlink:href="#m560b31c86c" x="392.110333" y="501.3525" style="stroke: #000000; stroke-width: 0.8"/>
      </g>
     </g>
     <g id="text_4">
      <!-- 60 -->
      <g transform="translate(381.650958 521.49625) scale(0.2 -0.2)">
       <defs>
        <path id="AptosDisplay-36" d="M 1759 -56 
Q 1325 -56 984 151 
Q 644 359 447 815 
Q 250 1272 250 2013 
Q 250 2738 439 3206 
Q 628 3675 968 3903 
Q 1309 4131 1759 4131 
Q 2253 4131 2595 3875 
Q 2938 3619 3034 3097 
L 2503 3097 
Q 2441 3388 2250 3534 
Q 2059 3681 1759 3681 
Q 1306 3681 1047 3279 
Q 788 2878 788 2013 
L 788 1850 
Q 788 1313 922 992 
Q 1056 672 1279 531 
Q 1503 391 1763 391 
Q 2175 391 2369 644 
Q 2563 897 2563 1272 
Q 2563 1650 2373 1869 
Q 2184 2088 1838 2088 
Q 1422 2088 1114 1897 
Q 806 1706 644 1456 
L 597 1856 
Q 728 2047 922 2201 
Q 1116 2356 1362 2447 
Q 1609 2538 1909 2538 
Q 2253 2538 2523 2395 
Q 2794 2253 2951 1975 
Q 3109 1697 3109 1291 
Q 3109 897 2951 592 
Q 2794 288 2492 116 
Q 2191 -56 1759 -56 
z
" transform="scale(0.015625)"/>
       </defs>
       <use xlink:href="#AptosDisplay-36"/>
       <use xlink:href="#AptosDisplay-30" x="52.294922"/>
      </g>
     </g>
    </g>
    <g id="xtick_5">
     <g id="line2d_9">
      <path d="M 477.725381 501.3525 
L 477.725381 57.8325 
" clip-path="url(#p3c1d305358)" style="fill: none; stroke: #b0b0b0; stroke-opacity: 0.8; stroke-linecap: square"/>
     </g>
     <g id="line2d_10">
      <g>
       <use xlink:href="#m560b31c86c" x="477.725381" y="501.3525" style="stroke: #000000; stroke-width: 0.8"/>
      </g>
     </g>
     <g id="text_5">
      <!-- 80 -->
      <g transform="translate(467.266006 521.49625) scale(0.2 -0.2)">
       <defs>
        <path id="AptosDisplay-38" d="M 1675 -56 
Q 1391 -56 1137 16 
Q 884 88 686 234 
Q 488 381 373 606 
Q 259 831 259 1141 
Q 259 1531 495 1797 
Q 731 2063 1084 2150 
Q 781 2250 604 2490 
Q 428 2731 428 3081 
Q 428 3447 609 3681 
Q 791 3916 1075 4025 
Q 1359 4134 1669 4134 
Q 1981 4134 2265 4023 
Q 2550 3913 2733 3680 
Q 2916 3447 2916 3081 
Q 2916 2725 2716 2481 
Q 2516 2238 2238 2150 
Q 2606 2063 2843 1800 
Q 3081 1538 3081 1141 
Q 3081 831 2968 606 
Q 2856 381 2661 234 
Q 2466 88 2211 16 
Q 1956 -56 1675 -56 
z
M 1672 388 
Q 1909 388 2109 470 
Q 2309 553 2429 725 
Q 2550 897 2550 1163 
Q 2550 1416 2426 1587 
Q 2303 1759 2104 1846 
Q 1906 1934 1672 1928 
Q 1453 1934 1253 1850 
Q 1053 1766 926 1594 
Q 800 1422 800 1163 
Q 800 775 1058 581 
Q 1316 388 1672 388 
z
M 1672 2363 
Q 1863 2356 2030 2434 
Q 2197 2513 2300 2667 
Q 2403 2822 2403 3050 
Q 2403 3388 2189 3544 
Q 1975 3700 1675 3700 
Q 1484 3700 1317 3631 
Q 1150 3563 1047 3419 
Q 944 3275 944 3050 
Q 944 2825 1048 2670 
Q 1153 2516 1320 2436 
Q 1488 2356 1672 2363 
z
" transform="scale(0.015625)"/>
       </defs>
       <use xlink:href="#AptosDisplay-38"/>
       <use xlink:href="#AptosDisplay-30" x="52.294922"/>
      </g>
     </g>
    </g>
    <g id="xtick_6">
     <g id="line2d_11">
      <path d="M 563.340429 501.3525 
L 563.340429 57.8325 
" clip-path="url(#p3c1d305358)" style="fill: none; stroke: #b0b0b0; stroke-opacity: 0.8; stroke-linecap: square"/>
     </g>
     <g id="line2d_12">
      <g>
       <use xlink:href="#m560b31c86c" x="563.340429" y="501.3525" style="stroke: #000000; stroke-width: 0.8"/>
      </g>
     </g>
     <g id="text_6">
      <!-- 100 -->
      <g transform="translate(547.651366 521.49625) scale(0.2 -0.2)">
       <defs>
        <path id="AptosDisplay-31" d="M 1659 0 
L 1659 3425 
Q 1575 3309 1420 3201 
Q 1266 3094 1052 3009 
Q 838 2925 578 2888 
L 578 3381 
Q 834 3425 1057 3540 
Q 1281 3656 1453 3806 
Q 1625 3956 1719 4094 
L 2206 4094 
L 2206 0 
L 1659 0 
z
" transform="scale(0.015625)"/>
       </defs>
       <use xlink:href="#AptosDisplay-31"/>
       <use xlink:href="#AptosDisplay-30" x="52.294922"/>
       <use xlink:href="#AptosDisplay-30" x="104.589844"/>
      </g>
     </g>
    </g>
    <g id="xtick_7">
     <g id="line2d_13">
      <path d="M 648.955477 501.3525 
L 648.955477 57.8325 
" clip-path="url(#p3c1d305358)" style="fill: none; stroke: #b0b0b0; stroke-opacity: 0.8; stroke-linecap: square"/>
     </g>
     <g id="line2d_14">
      <g>
       <use xlink:href="#m560b31c86c" x="648.955477" y="501.3525" style="stroke: #000000; stroke-width: 0.8"/>
      </g>
     </g>
     <g id="text_7">
      <!-- 120 -->
      <g transform="translate(633.266414 521.49625) scale(0.2 -0.2)">
       <use xlink:href="#AptosDisplay-31"/>
       <use xlink:href="#AptosDisplay-32" x="52.294922"/>
       <use xlink:href="#AptosDisplay-30" x="104.589844"/>
      </g>
     </g>
    </g>
    <g id="xtick_8">
     <g id="line2d_15">
      <path d="M 734.570525 501.3525 
L 734.570525 57.8325 
" clip-path="url(#p3c1d305358)" style="fill: none; stroke: #b0b0b0; stroke-opacity: 0.8; stroke-linecap: square"/>
     </g>
     <g id="line2d_16">
      <g>
       <use xlink:href="#m560b31c86c" x="734.570525" y="501.3525" style="stroke: #000000; stroke-width: 0.8"/>
      </g>
     </g>
     <g id="text_8">
      <!-- 140 -->
      <g transform="translate(718.881463 521.49625) scale(0.2 -0.2)">
       <use xlink:href="#AptosDisplay-31"/>
       <use xlink:href="#AptosDisplay-34" x="52.294922"/>
       <use xlink:href="#AptosDisplay-30" x="104.589844"/>
      </g>
     </g>
    </g>
    <g id="xtick_9">
     <g id="line2d_17">
      <path d="M 113.861426 501.3525 
L 113.861426 57.8325 
" clip-path="url(#p3c1d305358)" style="fill: none; stroke-dasharray: 1.85,0.8; stroke-dashoffset: 0; stroke: #b0b0b0; stroke-opacity: 0.8; stroke-width: 0.5"/>
     </g>
     <g id="line2d_18">
      <defs>
       <path id="mfa641b10eb" d="M 0 0 
L 0 2 
" style="stroke: #000000; stroke-width: 0.6"/>
      </defs>
      <g>
       <use xlink:href="#mfa641b10eb" x="113.861426" y="501.3525" style="stroke: #000000; stroke-width: 0.6"/>
      </g>
     </g>
    </g>
    <g id="xtick_10">
     <g id="line2d_19">
      <path d="M 156.66895 501.3525 
L 156.66895 57.8325 
" clip-path="url(#p3c1d305358)" style="fill: none; stroke-dasharray: 1.85,0.8; stroke-dashoffset: 0; stroke: #b0b0b0; stroke-opacity: 0.8; stroke-width: 0.5"/>
     </g>
     <g id="line2d_20">
      <g>
       <use xlink:href="#mfa641b10eb" x="156.66895" y="501.3525" style="stroke: #000000; stroke-width: 0.6"/>
      </g>
     </g>
    </g>
    <g id="xtick_11">
     <g id="line2d_21">
      <path d="M 178.072712 501.3525 
L 178.072712 57.8325 
" clip-path="url(#p3c1d305358)" style="fill: none; stroke-dasharray: 1.85,0.8; stroke-dashoffset: 0; stroke: #b0b0b0; stroke-opacity: 0.8; stroke-width: 0.5"/>
     </g>
     <g id="line2d_22">
      <g>
       <use xlink:href="#mfa641b10eb" x="178.072712" y="501.3525" style="stroke: #000000; stroke-width: 0.6"/>
      </g>
     </g>
    </g>
    <g id="xtick_12">
     <g id="line2d_23">
      <path d="M 199.476474 501.3525 
L 199.476474 57.8325 
" clip-path="url(#p3c1d305358)" style="fill: none; stroke-dasharray: 1.85,0.8; stroke-dashoffset: 0; stroke: #b0b0b0; stroke-opacity: 0.8; stroke-width: 0.5"/>
     </g>
     <g id="line2d_24">
      <g>
       <use xlink:href="#mfa641b10eb" x="199.476474" y="501.3525" style="stroke: #000000; stroke-width: 0.6"/>
      </g>
     </g>
    </g>
    <g id="xtick_13">
     <g id="line2d_25">
      <path d="M 242.283998 501.3525 
L 242.283998 57.8325 
" clip-path="url(#p3c1d305358)" style="fill: none; stroke-dasharray: 1.85,0.8; stroke-dashoffset: 0; stroke: #b0b0b0; stroke-opacity: 0.8; stroke-width: 0.5"/>
     </g>
     <g id="line2d_26">
      <g>
       <use xlink:href="#mfa641b10eb" x="242.283998" y="501.3525" style="stroke: #000000; stroke-width: 0.6"/>
      </g>
     </g>
    </g>
    <g id="xtick_14">
     <g id="line2d_27">
      <path d="M 263.687761 501.3525 
L 263.687761 57.8325 
" clip-path="url(#p3c1d305358)" style="fill: none; stroke-dasharray: 1.85,0.8; stroke-dashoffset: 0; stroke: #b0b0b0; stroke-opacity: 0.8; stroke-width: 0.5"/>
     </g>
     <g id="line2d_28">
      <g>
       <use xlink:href="#mfa641b10eb" x="263.687761" y="501.3525" style="stroke: #000000; stroke-width: 0.6"/>
      </g>
     </g>
    </g>
    <g id="xtick_15">
     <g id="line2d_29">
      <path d="M 285.091523 501.3525 
L 285.091523 57.8325 
" clip-path="url(#p3c1d305358)" style="fill: none; stroke-dasharray: 1.85,0.8; stroke-dashoffset: 0; stroke: #b0b0b0; stroke-opacity: 0.8; stroke-width: 0.5"/>
     </g>
     <g id="line2d_30">
      <g>
       <use xlink:href="#mfa641b10eb" x="285.091523" y="501.3525" style="stroke: #000000; stroke-width: 0.6"/>
      </g>
     </g>
    </g>
    <g id="xtick_16">
     <g id="line2d_31">
      <path d="M 327.899047 501.3525 
L 327.899047 57.8325 
" clip-path="url(#p3c1d305358)" style="fill: none; stroke-dasharray: 1.85,0.8; stroke-dashoffset: 0; stroke: #b0b0b0; stroke-opacity: 0.8; stroke-width: 0.5"/>
     </g>
     <g id="line2d_32">
      <g>
       <use xlink:href="#mfa641b10eb" x="327.899047" y="501.3525" style="stroke: #000000; stroke-width: 0.6"/>
      </g>
     </g>
    </g>
    <g id="xtick_17">
     <g id="line2d_33">
      <path d="M 349.302809 501.3525 
L 349.302809 57.8325 
" clip-path="url(#p3c1d305358)" style="fill: none; stroke-dasharray: 1.85,0.8; stroke-dashoffset: 0; stroke: #b0b0b0; stroke-opacity: 0.8; stroke-width: 0.5"/>
     </g>
     <g id="line2d_34">
      <g>
       <use xlink:href="#mfa641b10eb" x="349.302809" y="501.3525" style="stroke: #000000; stroke-width: 0.6"/>
      </g>
     </g>
    </g>
    <g id="xtick_18">
     <g id="line2d_35">
      <path d="M 370.706571 501.3525 
L 370.706571 57.8325 
" clip-path="url(#p3c1d305358)" style="fill: none; stroke-dasharray: 1.85,0.8; stroke-dashoffset: 0; stroke: #b0b0b0; stroke-opacity: 0.8; stroke-width: 0.5"/>
     </g>
     <g id="line2d_36">
      <g>
       <use xlink:href="#mfa641b10eb" x="370.706571" y="501.3525" style="stroke: #000000; stroke-width: 0.6"/>
      </g>
     </g>
    </g>
    <g id="xtick_19">
     <g id="line2d_37">
      <path d="M 413.514095 501.3525 
L 413.514095 57.8325 
" clip-path="url(#p3c1d305358)" style="fill: none; stroke-dasharray: 1.85,0.8; stroke-dashoffset: 0; stroke: #b0b0b0; stroke-opacity: 0.8; stroke-width: 0.5"/>
     </g>
     <g id="line2d_38">
      <g>
       <use xlink:href="#mfa641b10eb" x="413.514095" y="501.3525" style="stroke: #000000; stroke-width: 0.6"/>
      </g>
     </g>
    </g>
    <g id="xtick_20">
     <g id="line2d_39">
      <path d="M 434.917857 501.3525 
L 434.917857 57.8325 
" clip-path="url(#p3c1d305358)" style="fill: none; stroke-dasharray: 1.85,0.8; stroke-dashoffset: 0; stroke: #b0b0b0; stroke-opacity: 0.8; stroke-width: 0.5"/>
     </g>
     <g id="line2d_40">
      <g>
       <use xlink:href="#mfa641b10eb" x="434.917857" y="501.3525" style="stroke: #000000; stroke-width: 0.6"/>
      </g>
     </g>
    </g>
    <g id="xtick_21">
     <g id="line2d_41">
      <path d="M 456.321619 501.3525 
L 456.321619 57.8325 
" clip-path="url(#p3c1d305358)" style="fill: none; stroke-dasharray: 1.85,0.8; stroke-dashoffset: 0; stroke: #b0b0b0; stroke-opacity: 0.8; stroke-width: 0.5"/>
     </g>
     <g id="line2d_42">
      <g>
       <use xlink:href="#mfa641b10eb" x="456.321619" y="501.3525" style="stroke: #000000; stroke-width: 0.6"/>
      </g>
     </g>
    </g>
    <g id="xtick_22">
     <g id="line2d_43">
      <path d="M 499.129143 501.3525 
L 499.129143 57.8325 
" clip-path="url(#p3c1d305358)" style="fill: none; stroke-dasharray: 1.85,0.8; stroke-dashoffset: 0; stroke: #b0b0b0; stroke-opacity: 0.8; stroke-width: 0.5"/>
     </g>
     <g id="line2d_44">
      <g>
       <use xlink:href="#mfa641b10eb" x="499.129143" y="501.3525" style="stroke: #000000; stroke-width: 0.6"/>
      </g>
     </g>
    </g>
    <g id="xtick_23">
     <g id="line2d_45">
      <path d="M 520.532905 501.3525 
L 520.532905 57.8325 
" clip-path="url(#p3c1d305358)" style="fill: none; stroke-dasharray: 1.85,0.8; stroke-dashoffset: 0; stroke: #b0b0b0; stroke-opacity: 0.8; stroke-width: 0.5"/>
     </g>
     <g id="line2d_46">
      <g>
       <use xlink:href="#mfa641b10eb" x="520.532905" y="501.3525" style="stroke: #000000; stroke-width: 0.6"/>
      </g>
     </g>
    </g>
    <g id="xtick_24">
     <g id="line2d_47">
      <path d="M 541.936667 501.3525 
L 541.936667 57.8325 
" clip-path="url(#p3c1d305358)" style="fill: none; stroke-dasharray: 1.85,0.8; stroke-dashoffset: 0; stroke: #b0b0b0; stroke-opacity: 0.8; stroke-width: 0.5"/>
     </g>
     <g id="line2d_48">
      <g>
       <use xlink:href="#mfa641b10eb" x="541.936667" y="501.3525" style="stroke: #000000; stroke-width: 0.6"/>
      </g>
     </g>
    </g>
    <g id="xtick_25">
     <g id="line2d_49">
      <path d="M 584.744191 501.3525 
L 584.744191 57.8325 
" clip-path="url(#p3c1d305358)" style="fill: none; stroke-dasharray: 1.85,0.8; stroke-dashoffset: 0; stroke: #b0b0b0; stroke-opacity: 0.8; stroke-width: 0.5"/>
     </g>
     <g id="line2d_50">
      <g>
       <use xlink:href="#mfa641b10eb" x="584.744191" y="501.3525" style="stroke: #000000; stroke-width: 0.6"/>
      </g>
     </g>
    </g>
    <g id="xtick_26">
     <g id="line2d_51">
      <path d="M 606.147953 501.3525 
L 606.147953 57.8325 
" clip-path="url(#p3c1d305358)" style="fill: none; stroke-dasharray: 1.85,0.8; stroke-dashoffset: 0; stroke: #b0b0b0; stroke-opacity: 0.8; stroke-width: 0.5"/>
     </g>
     <g id="line2d_52">
      <g>
       <use xlink:href="#mfa641b10eb" x="606.147953" y="501.3525" style="stroke: #000000; stroke-width: 0.6"/>
      </g>
     </g>
    </g>
    <g id="xtick_27">
     <g id="line2d_53">
      <path d="M 627.551715 501.3525 
L 627.551715 57.8325 
" clip-path="url(#p3c1d305358)" style="fill: none; stroke-dasharray: 1.85,0.8; stroke-dashoffset: 0; stroke: #b0b0b0; stroke-opacity: 0.8; stroke-width: 0.5"/>
     </g>
     <g id="line2d_54">
      <g>
       <use xlink:href="#mfa641b10eb" x="627.551715" y="501.3525" style="stroke: #000000; stroke-width: 0.6"/>
      </g>
     </g>
    </g>
    <g id="xtick_28">
     <g id="line2d_55">
      <path d="M 670.359239 501.3525 
L 670.359239 57.8325 
" clip-path="url(#p3c1d305358)" style="fill: none; stroke-dasharray: 1.85,0.8; stroke-dashoffset: 0; stroke: #b0b0b0; stroke-opacity: 0.8; stroke-width: 0.5"/>
     </g>
     <g id="line2d_56">
      <g>
       <use xlink:href="#mfa641b10eb" x="670.359239" y="501.3525" style="stroke: #000000; stroke-width: 0.6"/>
      </g>
     </g>
    </g>
    <g id="xtick_29">
     <g id="line2d_57">
      <path d="M 691.763001 501.3525 
L 691.763001 57.8325 
" clip-path="url(#p3c1d305358)" style="fill: none; stroke-dasharray: 1.85,0.8; stroke-dashoffset: 0; stroke: #b0b0b0; stroke-opacity: 0.8; stroke-width: 0.5"/>
     </g>
     <g id="line2d_58">
      <g>
       <use xlink:href="#mfa641b10eb" x="691.763001" y="501.3525" style="stroke: #000000; stroke-width: 0.6"/>
      </g>
     </g>
    </g>
    <g id="xtick_30">
     <g id="line2d_59">
      <path d="M 713.166763 501.3525 
L 713.166763 57.8325 
" clip-path="url(#p3c1d305358)" style="fill: none; stroke-dasharray: 1.85,0.8; stroke-dashoffset: 0; stroke: #b0b0b0; stroke-opacity: 0.8; stroke-width: 0.5"/>
     </g>
     <g id="line2d_60">
      <g>
       <use xlink:href="#mfa641b10eb" x="713.166763" y="501.3525" style="stroke: #000000; stroke-width: 0.6"/>
      </g>
     </g>
    </g>
    <g id="xtick_31">
     <g id="line2d_61">
      <path d="M 755.974287 501.3525 
L 755.974287 57.8325 
" clip-path="url(#p3c1d305358)" style="fill: none; stroke-dasharray: 1.85,0.8; stroke-dashoffset: 0; stroke: #b0b0b0; stroke-opacity: 0.8; stroke-width: 0.5"/>
     </g>
     <g id="line2d_62">
      <g>
       <use xlink:href="#mfa641b10eb" x="755.974287" y="501.3525" style="stroke: #000000; stroke-width: 0.6"/>
      </g>
     </g>
    </g>
    <g id="text_9">
     <!-- Time (S) -->
     <g transform="translate(407.45 542.305625) scale(0.2 -0.2)">
      <defs>
       <path id="AptosDisplay-54" d="M 1244 0 
L 1244 3734 
L 50 3734 
L 50 4206 
L 2997 4206 
L 2997 3734 
L 1806 3734 
L 1806 0 
L 1244 0 
z
" transform="scale(0.015625)"/>
       <path id="AptosDisplay-69" d="M 413 0 
L 413 3044 
L 934 3044 
L 934 0 
L 413 0 
z
M 675 3616 
Q 525 3616 437 3702 
Q 350 3788 350 3919 
Q 350 4050 437 4136 
Q 525 4222 675 4222 
Q 822 4222 912 4136 
Q 1003 4050 1003 3919 
Q 1003 3788 912 3702 
Q 822 3616 675 3616 
z
" transform="scale(0.015625)"/>
       <path id="AptosDisplay-6d" d="M 413 0 
L 413 3044 
L 919 3044 
L 931 2575 
Q 1063 2756 1303 2914 
Q 1544 3072 1903 3072 
Q 2403 3072 2618 2778 
Q 2834 2484 2834 1963 
L 2834 0 
L 2316 0 
L 2316 1891 
Q 2316 2106 2275 2275 
Q 2234 2444 2120 2539 
Q 2006 2634 1788 2634 
Q 1488 2634 1277 2482 
Q 1066 2331 934 2156 
L 934 0 
L 413 0 
z
M 4206 0 
L 4206 1891 
Q 4206 2106 4164 2275 
Q 4122 2444 4009 2539 
Q 3897 2634 3681 2634 
Q 3381 2634 3165 2484 
Q 2950 2334 2822 2159 
L 2744 2544 
Q 2916 2741 3175 2906 
Q 3434 3072 3800 3072 
Q 4291 3072 4509 2778 
Q 4728 2484 4728 1963 
L 4728 0 
L 4206 0 
z
" transform="scale(0.015625)"/>
       <path id="AptosDisplay-65" d="M 1663 -56 
Q 1188 -56 878 151 
Q 569 359 417 717 
Q 266 1075 266 1522 
Q 266 1988 412 2342 
Q 559 2697 857 2897 
Q 1156 3097 1606 3097 
Q 2209 3097 2550 2722 
Q 2891 2347 2891 1644 
Q 2891 1597 2889 1533 
Q 2888 1469 2881 1441 
L 791 1441 
Q 794 1144 881 895 
Q 969 647 1161 497 
Q 1353 347 1663 347 
Q 1997 347 2183 511 
Q 2369 675 2378 984 
L 2894 984 
Q 2884 663 2732 430 
Q 2581 197 2309 70 
Q 2038 -56 1663 -56 
z
M 794 1822 
L 2375 1822 
Q 2366 2247 2166 2472 
Q 1966 2697 1606 2697 
Q 1241 2697 1036 2473 
Q 831 2250 794 1822 
z
" transform="scale(0.015625)"/>
       <path id="AptosDisplay-20" transform="scale(0.015625)"/>
       <path id="AptosDisplay-28" d="M 1219 -1116 
Q 969 -678 787 -267 
Q 606 144 511 581 
Q 416 1019 416 1528 
Q 416 2028 509 2486 
Q 603 2944 783 3378 
Q 963 3813 1219 4231 
L 1647 4231 
Q 1278 3600 1101 2886 
Q 925 2172 925 1428 
Q 925 766 1125 103 
Q 1325 -559 1647 -1116 
L 1219 -1116 
z
" transform="scale(0.015625)"/>
       <path id="AptosDisplay-53" d="M 1778 -56 
Q 1328 -56 962 81 
Q 597 219 384 512 
Q 172 806 172 1275 
L 734 1275 
Q 738 941 883 750 
Q 1028 559 1267 481 
Q 1506 403 1794 403 
Q 2063 403 2283 483 
Q 2503 563 2634 723 
Q 2766 884 2766 1134 
Q 2766 1356 2662 1497 
Q 2559 1638 2321 1742 
Q 2084 1847 1678 1950 
Q 1203 2075 897 2223 
Q 591 2372 442 2594 
Q 294 2816 294 3156 
Q 294 3516 462 3761 
Q 631 4006 945 4134 
Q 1259 4263 1697 4263 
Q 2103 4263 2440 4131 
Q 2778 4000 2979 3737 
Q 3181 3475 3181 3084 
L 2616 3084 
Q 2622 3441 2356 3623 
Q 2091 3806 1700 3806 
Q 1300 3806 1073 3645 
Q 847 3484 847 3175 
Q 847 2991 944 2867 
Q 1041 2744 1280 2644 
Q 1519 2544 1941 2434 
Q 2428 2303 2731 2153 
Q 3034 2003 3178 1768 
Q 3322 1534 3322 1153 
Q 3322 747 3117 480 
Q 2913 213 2564 78 
Q 2216 -56 1778 -56 
z
" transform="scale(0.015625)"/>
       <path id="AptosDisplay-29" d="M 234 -1116 
Q 609 -481 786 233 
Q 963 947 963 1694 
Q 963 2356 759 3015 
Q 556 3675 234 4231 
L 663 4231 
Q 919 3800 1098 3389 
Q 1278 2978 1373 2540 
Q 1469 2103 1469 1594 
Q 1469 1094 1375 634 
Q 1281 175 1100 -259 
Q 919 -694 663 -1116 
L 234 -1116 
z
" transform="scale(0.015625)"/>
      </defs>
      <use xlink:href="#AptosDisplay-54"/>
      <use xlink:href="#AptosDisplay-69" x="47.705078"/>
      <use xlink:href="#AptosDisplay-6d" x="68.75"/>
      <use xlink:href="#AptosDisplay-65" x="148.730469"/>
      <use xlink:href="#AptosDisplay-20" x="198.144531"/>
      <use xlink:href="#AptosDisplay-28" x="217.431641"/>
      <use xlink:href="#AptosDisplay-53" x="246.875"/>
      <use xlink:href="#AptosDisplay-29" x="301.464844"/>
     </g>
    </g>
   </g>
   <g id="matplotlib.axis_2">
    <g id="ytick_1">
     <g id="line2d_63">
      <path d="M 105.740625 481.1925 
L 775.340625 481.1925 
" clip-path="url(#p3c1d305358)" style="fill: none; stroke: #b0b0b0; stroke-opacity: 0.8; stroke-linecap: square"/>
     </g>
     <g id="line2d_64">
      <defs>
       <path id="m238be6fa8a" d="M 0 0 
L -3.5 0 
" style="stroke: #000000; stroke-width: 0.8"/>
      </defs>
      <g>
       <use xlink:href="#m238be6fa8a" x="105.740625" y="481.1925" style="stroke: #000000; stroke-width: 0.8"/>
      </g>
     </g>
     <g id="text_10">
      <!-- 0 -->
      <g transform="translate(88.28125 487.764375) scale(0.2 -0.2)">
       <use xlink:href="#AptosDisplay-30"/>
      </g>
     </g>
    </g>
    <g id="ytick_2">
     <g id="line2d_65">
      <path d="M 105.740625 399.167007 
L 775.340625 399.167007 
" clip-path="url(#p3c1d305358)" style="fill: none; stroke: #b0b0b0; stroke-opacity: 0.8; stroke-linecap: square"/>
     </g>
     <g id="line2d_66">
      <g>
       <use xlink:href="#m238be6fa8a" x="105.740625" y="399.167007" style="stroke: #000000; stroke-width: 0.8"/>
      </g>
     </g>
     <g id="text_11">
      <!-- 200 -->
      <g transform="translate(67.3625 405.738882) scale(0.2 -0.2)">
       <use xlink:href="#AptosDisplay-32"/>
       <use xlink:href="#AptosDisplay-30" x="52.294922"/>
       <use xlink:href="#AptosDisplay-30" x="104.589844"/>
      </g>
     </g>
    </g>
    <g id="ytick_3">
     <g id="line2d_67">
      <path d="M 105.740625 317.141515 
L 775.340625 317.141515 
" clip-path="url(#p3c1d305358)" style="fill: none; stroke: #b0b0b0; stroke-opacity: 0.8; stroke-linecap: square"/>
     </g>
     <g id="line2d_68">
      <g>
       <use xlink:href="#m238be6fa8a" x="105.740625" y="317.141515" style="stroke: #000000; stroke-width: 0.8"/>
      </g>
     </g>
     <g id="text_12">
      <!-- 400 -->
      <g transform="translate(67.3625 323.71339) scale(0.2 -0.2)">
       <use xlink:href="#AptosDisplay-34"/>
       <use xlink:href="#AptosDisplay-30" x="52.294922"/>
       <use xlink:href="#AptosDisplay-30" x="104.589844"/>
      </g>
     </g>
    </g>
    <g id="ytick_4">
     <g id="line2d_69">
      <path d="M 105.740625 235.116022 
L 775.340625 235.116022 
" clip-path="url(#p3c1d305358)" style="fill: none; stroke: #b0b0b0; stroke-opacity: 0.8; stroke-linecap: square"/>
     </g>
     <g id="line2d_70">
      <g>
       <use xlink:href="#m238be6fa8a" x="105.740625" y="235.116022" style="stroke: #000000; stroke-width: 0.8"/>
      </g>
     </g>
     <g id="text_13">
      <!-- 600 -->
      <g transform="translate(67.3625 241.687897) scale(0.2 -0.2)">
       <use xlink:href="#AptosDisplay-36"/>
       <use xlink:href="#AptosDisplay-30" x="52.294922"/>
       <use xlink:href="#AptosDisplay-30" x="104.589844"/>
      </g>
     </g>
    </g>
    <g id="ytick_5">
     <g id="line2d_71">
      <path d="M 105.740625 153.09053 
L 775.340625 153.09053 
" clip-path="url(#p3c1d305358)" style="fill: none; stroke: #b0b0b0; stroke-opacity: 0.8; stroke-linecap: square"/>
     </g>
     <g id="line2d_72">
      <g>
       <use xlink:href="#m238be6fa8a" x="105.740625" y="153.09053" style="stroke: #000000; stroke-width: 0.8"/>
      </g>
     </g>
     <g id="text_14">
      <!-- 800 -->
      <g transform="translate(67.3625 159.662405) scale(0.2 -0.2)">
       <use xlink:href="#AptosDisplay-38"/>
       <use xlink:href="#AptosDisplay-30" x="52.294922"/>
       <use xlink:href="#AptosDisplay-30" x="104.589844"/>
      </g>
     </g>
    </g>
    <g id="ytick_6">
     <g id="line2d_73">
      <path d="M 105.740625 71.065037 
L 775.340625 71.065037 
" clip-path="url(#p3c1d305358)" style="fill: none; stroke: #b0b0b0; stroke-opacity: 0.8; stroke-linecap: square"/>
     </g>
     <g id="line2d_74">
      <g>
       <use xlink:href="#m238be6fa8a" x="105.740625" y="71.065037" style="stroke: #000000; stroke-width: 0.8"/>
      </g>
     </g>
     <g id="text_15">
      <!-- 1000 -->
      <g transform="translate(56.903125 77.636912) scale(0.2 -0.2)">
       <use xlink:href="#AptosDisplay-31"/>
       <use xlink:href="#AptosDisplay-30" x="52.294922"/>
       <use xlink:href="#AptosDisplay-30" x="104.589844"/>
       <use xlink:href="#AptosDisplay-30" x="156.884766"/>
      </g>
     </g>
    </g>
    <g id="ytick_7">
     <g id="line2d_75">
      <path d="M 105.740625 460.686127 
L 775.340625 460.686127 
" clip-path="url(#p3c1d305358)" style="fill: none; stroke-dasharray: 1.85,0.8; stroke-dashoffset: 0; stroke: #b0b0b0; stroke-opacity: 0.8; stroke-width: 0.5"/>
     </g>
     <g id="line2d_76">
      <defs>
       <path id="ma123a54fad" d="M 0 0 
L -2 0 
" style="stroke: #000000; stroke-width: 0.6"/>
      </defs>
      <g>
       <use xlink:href="#ma123a54fad" x="105.740625" y="460.686127" style="stroke: #000000; stroke-width: 0.6"/>
      </g>
     </g>
    </g>
    <g id="ytick_8">
     <g id="line2d_77">
      <path d="M 105.740625 440.179754 
L 775.340625 440.179754 
" clip-path="url(#p3c1d305358)" style="fill: none; stroke-dasharray: 1.85,0.8; stroke-dashoffset: 0; stroke: #b0b0b0; stroke-opacity: 0.8; stroke-width: 0.5"/>
     </g>
     <g id="line2d_78">
      <g>
       <use xlink:href="#ma123a54fad" x="105.740625" y="440.179754" style="stroke: #000000; stroke-width: 0.6"/>
      </g>
     </g>
    </g>
    <g id="ytick_9">
     <g id="line2d_79">
      <path d="M 105.740625 419.673381 
L 775.340625 419.673381 
" clip-path="url(#p3c1d305358)" style="fill: none; stroke-dasharray: 1.85,0.8; stroke-dashoffset: 0; stroke: #b0b0b0; stroke-opacity: 0.8; stroke-width: 0.5"/>
     </g>
     <g id="line2d_80">
      <g>
       <use xlink:href="#ma123a54fad" x="105.740625" y="419.673381" style="stroke: #000000; stroke-width: 0.6"/>
      </g>
     </g>
    </g>
    <g id="ytick_10">
     <g id="line2d_81">
      <path d="M 105.740625 378.660634 
L 775.340625 378.660634 
" clip-path="url(#p3c1d305358)" style="fill: none; stroke-dasharray: 1.85,0.8; stroke-dashoffset: 0; stroke: #b0b0b0; stroke-opacity: 0.8; stroke-width: 0.5"/>
     </g>
     <g id="line2d_82">
      <g>
       <use xlink:href="#ma123a54fad" x="105.740625" y="378.660634" style="stroke: #000000; stroke-width: 0.6"/>
      </g>
     </g>
    </g>
    <g id="ytick_11">
     <g id="line2d_83">
      <path d="M 105.740625 358.154261 
L 775.340625 358.154261 
" clip-path="url(#p3c1d305358)" style="fill: none; stroke-dasharray: 1.85,0.8; stroke-dashoffset: 0; stroke: #b0b0b0; stroke-opacity: 0.8; stroke-width: 0.5"/>
     </g>
     <g id="line2d_84">
      <g>
       <use xlink:href="#ma123a54fad" x="105.740625" y="358.154261" style="stroke: #000000; stroke-width: 0.6"/>
      </g>
     </g>
    </g>
    <g id="ytick_12">
     <g id="line2d_85">
      <path d="M 105.740625 337.647888 
L 775.340625 337.647888 
" clip-path="url(#p3c1d305358)" style="fill: none; stroke-dasharray: 1.85,0.8; stroke-dashoffset: 0; stroke: #b0b0b0; stroke-opacity: 0.8; stroke-width: 0.5"/>
     </g>
     <g id="line2d_86">
      <g>
       <use xlink:href="#ma123a54fad" x="105.740625" y="337.647888" style="stroke: #000000; stroke-width: 0.6"/>
      </g>
     </g>
    </g>
    <g id="ytick_13">
     <g id="line2d_87">
      <path d="M 105.740625 296.635142 
L 775.340625 296.635142 
" clip-path="url(#p3c1d305358)" style="fill: none; stroke-dasharray: 1.85,0.8; stroke-dashoffset: 0; stroke: #b0b0b0; stroke-opacity: 0.8; stroke-width: 0.5"/>
     </g>
     <g id="line2d_88">
      <g>
       <use xlink:href="#ma123a54fad" x="105.740625" y="296.635142" style="stroke: #000000; stroke-width: 0.6"/>
      </g>
     </g>
    </g>
    <g id="ytick_14">
     <g id="line2d_89">
      <path d="M 105.740625 276.128769 
L 775.340625 276.128769 
" clip-path="url(#p3c1d305358)" style="fill: none; stroke-dasharray: 1.85,0.8; stroke-dashoffset: 0; stroke: #b0b0b0; stroke-opacity: 0.8; stroke-width: 0.5"/>
     </g>
     <g id="line2d_90">
      <g>
       <use xlink:href="#ma123a54fad" x="105.740625" y="276.128769" style="stroke: #000000; stroke-width: 0.6"/>
      </g>
     </g>
    </g>
    <g id="ytick_15">
     <g id="line2d_91">
      <path d="M 105.740625 255.622395 
L 775.340625 255.622395 
" clip-path="url(#p3c1d305358)" style="fill: none; stroke-dasharray: 1.85,0.8; stroke-dashoffset: 0; stroke: #b0b0b0; stroke-opacity: 0.8; stroke-width: 0.5"/>
     </g>
     <g id="line2d_92">
      <g>
       <use xlink:href="#ma123a54fad" x="105.740625" y="255.622395" style="stroke: #000000; stroke-width: 0.6"/>
      </g>
     </g>
    </g>
    <g id="ytick_16">
     <g id="line2d_93">
      <path d="M 105.740625 214.609649 
L 775.340625 214.609649 
" clip-path="url(#p3c1d305358)" style="fill: none; stroke-dasharray: 1.85,0.8; stroke-dashoffset: 0; stroke: #b0b0b0; stroke-opacity: 0.8; stroke-width: 0.5"/>
     </g>
     <g id="line2d_94">
      <g>
       <use xlink:href="#ma123a54fad" x="105.740625" y="214.609649" style="stroke: #000000; stroke-width: 0.6"/>
      </g>
     </g>
    </g>
    <g id="ytick_17">
     <g id="line2d_95">
      <path d="M 105.740625 194.103276 
L 775.340625 194.103276 
" clip-path="url(#p3c1d305358)" style="fill: none; stroke-dasharray: 1.85,0.8; stroke-dashoffset: 0; stroke: #b0b0b0; stroke-opacity: 0.8; stroke-width: 0.5"/>
     </g>
     <g id="line2d_96">
      <g>
       <use xlink:href="#ma123a54fad" x="105.740625" y="194.103276" style="stroke: #000000; stroke-width: 0.6"/>
      </g>
     </g>
    </g>
    <g id="ytick_18">
     <g id="line2d_97">
      <path d="M 105.740625 173.596903 
L 775.340625 173.596903 
" clip-path="url(#p3c1d305358)" style="fill: none; stroke-dasharray: 1.85,0.8; stroke-dashoffset: 0; stroke: #b0b0b0; stroke-opacity: 0.8; stroke-width: 0.5"/>
     </g>
     <g id="line2d_98">
      <g>
       <use xlink:href="#ma123a54fad" x="105.740625" y="173.596903" style="stroke: #000000; stroke-width: 0.6"/>
      </g>
     </g>
    </g>
    <g id="ytick_19">
     <g id="line2d_99">
      <path d="M 105.740625 132.584156 
L 775.340625 132.584156 
" clip-path="url(#p3c1d305358)" style="fill: none; stroke-dasharray: 1.85,0.8; stroke-dashoffset: 0; stroke: #b0b0b0; stroke-opacity: 0.8; stroke-width: 0.5"/>
     </g>
     <g id="line2d_100">
      <g>
       <use xlink:href="#ma123a54fad" x="105.740625" y="132.584156" style="stroke: #000000; stroke-width: 0.6"/>
      </g>
     </g>
    </g>
    <g id="ytick_20">
     <g id="line2d_101">
      <path d="M 105.740625 112.077783 
L 775.340625 112.077783 
" clip-path="url(#p3c1d305358)" style="fill: none; stroke-dasharray: 1.85,0.8; stroke-dashoffset: 0; stroke: #b0b0b0; stroke-opacity: 0.8; stroke-width: 0.5"/>
     </g>
     <g id="line2d_102">
      <g>
       <use xlink:href="#ma123a54fad" x="105.740625" y="112.077783" style="stroke: #000000; stroke-width: 0.6"/>
      </g>
     </g>
    </g>
    <g id="ytick_21">
     <g id="line2d_103">
      <path d="M 105.740625 91.57141 
L 775.340625 91.57141 
" clip-path="url(#p3c1d305358)" style="fill: none; stroke-dasharray: 1.85,0.8; stroke-dashoffset: 0; stroke: #b0b0b0; stroke-opacity: 0.8; stroke-width: 0.5"/>
     </g>
     <g id="line2d_104">
      <g>
       <use xlink:href="#ma123a54fad" x="105.740625" y="91.57141" style="stroke: #000000; stroke-width: 0.6"/>
      </g>
     </g>
    </g>
    <g id="text_16">
     <!-- Light (W/m^2) -->
     <g transform="translate(49.221875 337.558125) rotate(-90) scale(0.2 -0.2)">
      <defs>
       <path id="AptosDisplay-4c" d="M 472 0 
L 472 4206 
L 1034 4206 
L 1034 484 
L 3000 484 
L 3000 0 
L 472 0 
z
" transform="scale(0.015625)"/>
       <path id="AptosDisplay-67" d="M 1397 -1178 
Q 925 -1178 640 -1065 
Q 356 -953 229 -765 
Q 103 -578 103 -359 
Q 103 -94 329 112 
Q 556 319 1031 403 
L 1128 575 
L 1475 575 
Q 2184 575 2489 376 
Q 2794 178 2794 -238 
Q 2794 -650 2437 -914 
Q 2081 -1178 1397 -1178 
z
M 1384 -800 
Q 1878 -800 2086 -650 
Q 2294 -500 2294 -278 
Q 2294 -147 2225 -51 
Q 2156 44 1975 97 
Q 1794 150 1456 150 
L 1034 150 
Q 819 97 708 -31 
Q 597 -159 597 -328 
Q 597 -516 778 -658 
Q 959 -800 1384 -800 
z
M 1025 216 
Q 722 228 550 312 
Q 378 397 306 511 
Q 234 625 234 722 
Q 234 866 362 1009 
Q 491 1153 772 1241 
L 1038 1069 
Q 866 1031 772 953 
Q 678 875 678 791 
Q 678 731 734 682 
Q 791 634 928 606 
Q 1066 578 1303 575 
L 1025 216 
z
M 1363 984 
Q 1003 984 753 1128 
Q 503 1272 375 1509 
Q 247 1747 247 2022 
Q 247 2313 376 2550 
Q 506 2788 754 2928 
Q 1003 3069 1366 3069 
Q 1738 3069 1983 2928 
Q 2228 2788 2351 2550 
Q 2475 2313 2475 2022 
Q 2475 1741 2350 1505 
Q 2225 1269 1979 1126 
Q 1734 984 1363 984 
z
M 1366 1341 
Q 1641 1341 1812 1512 
Q 1984 1684 1984 2022 
Q 1984 2375 1817 2545 
Q 1650 2716 1372 2716 
Q 1094 2716 919 2541 
Q 744 2366 744 2025 
Q 744 1681 931 1511 
Q 1119 1341 1366 1341 
z
M 2131 2734 
L 1922 2931 
Q 2038 3225 2252 3331 
Q 2466 3438 2794 3447 
L 2794 3006 
Q 2588 3006 2416 2961 
Q 2244 2916 2131 2734 
z
" transform="scale(0.015625)"/>
       <path id="AptosDisplay-68" d="M 413 0 
L 413 4206 
L 931 4206 
L 931 2575 
Q 1069 2756 1317 2914 
Q 1566 3072 1950 3072 
Q 2428 3072 2637 2783 
Q 2847 2494 2847 1963 
L 2847 0 
L 2328 0 
L 2328 1891 
Q 2328 2106 2287 2275 
Q 2247 2444 2139 2539 
Q 2031 2634 1822 2634 
Q 1503 2634 1284 2482 
Q 1066 2331 934 2156 
L 934 0 
L 413 0 
z
" transform="scale(0.015625)"/>
       <path id="AptosDisplay-74" d="M 1466 0 
Q 1100 0 901 117 
Q 703 234 629 454 
Q 556 675 556 984 
L 556 2622 
L 50 2622 
L 50 3044 
L 556 3044 
L 556 3741 
L 1078 3741 
L 1078 3044 
L 1831 3044 
L 1831 2622 
L 1078 2622 
L 1078 1009 
Q 1078 725 1151 575 
Q 1225 425 1500 425 
L 1831 425 
L 1831 0 
L 1466 0 
z
" transform="scale(0.015625)"/>
       <path id="AptosDisplay-57" d="M 1216 0 
L -13 4206 
L 575 4206 
L 1525 697 
L 2531 4206 
L 3156 4206 
L 4163 697 
L 5119 4206 
L 5681 4206 
L 4453 0 
L 3866 0 
L 2831 3556 
L 1813 0 
L 1216 0 
z
" transform="scale(0.015625)"/>
       <path id="AptosDisplay-2f" d="M 72 0 
L 1603 4206 
L 2100 4206 
L 569 0 
L 72 0 
z
" transform="scale(0.015625)"/>
       <path id="AptosDisplay-5e" d="M 428 2438 
L 1459 4206 
L 1884 4206 
L 2916 2438 
L 2366 2438 
L 1672 3650 
L 978 2438 
L 428 2438 
z
" transform="scale(0.015625)"/>
      </defs>
      <use xlink:href="#AptosDisplay-4c"/>
      <use xlink:href="#AptosDisplay-69" x="48.4375"/>
      <use xlink:href="#AptosDisplay-67" x="69.482422"/>
      <use xlink:href="#AptosDisplay-68" x="113.427734"/>
      <use xlink:href="#AptosDisplay-74" x="164.013672"/>
      <use xlink:href="#AptosDisplay-20" x="194.384766"/>
      <use xlink:href="#AptosDisplay-28" x="213.671875"/>
      <use xlink:href="#AptosDisplay-57" x="243.115234"/>
      <use xlink:href="#AptosDisplay-2f" x="331.689453"/>
      <use xlink:href="#AptosDisplay-6d" x="365.625"/>
      <use xlink:href="#AptosDisplay-5e" x="445.605469"/>
      <use xlink:href="#AptosDisplay-32" x="497.900391"/>
      <use xlink:href="#AptosDisplay-29" x="550.195312"/>
     </g>
    </g>
   </g>
   <g id="line2d_105">
    <path d="M 136.176989 466.185526 
L 137.033139 467.089447 
L 137.88929 466.547258 
L 138.74544 466.728125 
L 139.601591 466.366392 
L 140.457741 466.908581 
L 141.313892 466.728125 
L 142.170042 467.270313 
L 143.026192 467.089447 
L 144.738493 467.812912 
L 145.594644 468.535966 
L 146.450794 467.270313 
L 147.306945 463.654219 
L 148.163095 461.303779 
L 149.019246 466.728125 
L 149.875396 467.812912 
L 151.587697 468.174234 
L 152.443848 467.993778 
L 153.299998 468.174234 
L 154.156149 468.174234 
L 155.012299 467.632046 
L 155.86845 468.3551 
L 156.7246 468.3551 
L 157.580751 467.993778 
L 158.436901 468.174234 
L 159.293052 467.993778 
L 160.149202 468.3551 
L 161.005353 467.632046 
L 161.861503 470.886407 
L 162.717654 467.993778 
L 163.573804 467.632046 
L 164.429955 467.812912 
L 165.286105 467.812912 
L 166.142255 467.632046 
L 166.998406 467.812912 
L 167.854556 467.812912 
L 168.710707 468.3551 
L 169.566857 469.620754 
L 170.423008 468.897699 
L 172.991459 467.270313 
L 173.84761 468.174234 
L 174.70376 467.993778 
L 175.559911 467.632046 
L 176.416061 469.80162 
L 177.272212 470.525085 
L 178.128362 467.812912 
L 178.984513 464.015952 
L 179.840663 466.908581 
L 180.696814 470.705541 
L 181.552964 470.886407 
L 182.409115 468.535966 
L 184.121416 466.185526 
L 184.977566 468.716833 
L 185.833717 468.3551 
L 186.689867 468.897699 
L 187.546017 468.535966 
L 188.402168 468.3551 
L 189.258318 467.812912 
L 190.114469 468.174234 
L 190.970619 466.728125 
L 191.82677 459.676393 
L 192.68292 454.794646 
L 193.539071 456.241165 
L 194.395221 449.008978 
L 195.251372 97.158166 
L 196.107522 85.948153 
L 196.963673 86.309885 
L 197.819823 87.575538 
L 198.675974 87.03294 
L 199.532124 451.901607 
L 200.388275 456.060299 
L 201.244425 451.901607 
L 202.100576 452.444205 
L 202.956726 448.828112 
L 203.812877 418.271565 
L 204.669027 264.043132 
L 205.525178 134.585168 
L 206.381328 323.52884 
L 207.237479 232.040476 
L 208.093629 118.312541 
L 208.94978 336.546696 
L 209.80593 330.580161 
L 210.66208 360.955842 
L 211.518231 446.115939 
L 212.374381 453.528992 
L 213.230532 438.702885 
L 214.086682 452.986394 
L 214.942833 452.805938 
L 215.798983 449.732032 
L 216.655134 452.082473 
L 217.511284 452.263339 
L 218.367435 428.93939 
L 219.223585 376.505004 
L 220.079736 427.673737 
L 220.935886 450.093765 
L 221.792037 452.805938 
L 222.648187 452.805938 
L 223.504338 449.189844 
L 224.360488 316.838841 
L 225.216639 450.81682 
L 226.072789 452.805938 
L 226.92894 452.805938 
L 227.78509 452.986394 
L 228.641241 452.444205 
L 229.497391 452.986394 
L 230.353542 452.805938 
L 231.209692 449.732032 
L 232.065843 452.805938 
L 233.778143 453.528992 
L 234.634294 454.071591 
L 235.490444 452.444205 
L 236.346595 452.805938 
L 237.202745 452.625072 
L 238.058896 452.986394 
L 238.915046 452.082473 
L 239.771197 453.16726 
L 240.627347 453.16726 
L 241.483498 453.348126 
L 242.339648 453.16726 
L 243.195799 453.16726 
L 244.051949 453.348126 
L 244.9081 452.805938 
L 245.76425 453.16726 
L 247.476551 452.444205 
L 248.332702 452.444205 
L 249.188852 451.359418 
L 250.045003 452.444205 
L 250.901153 445.754206 
L 251.757304 429.481579 
L 252.613454 415.921124 
L 253.469605 362.040629 
L 254.325755 391.512388 
L 255.181905 427.312005 
L 256.038056 435.267657 
L 256.894206 445.935072 
L 257.750357 400.91415 
L 258.606507 392.777632 
L 259.462658 397.659789 
L 260.318808 451.901607 
L 261.174959 452.625072 
L 262.031109 453.16726 
L 262.88726 453.16726 
L 263.74341 453.348126 
L 264.599561 452.986394 
L 265.455711 435.086791 
L 266.311862 452.625072 
L 267.168012 452.805938 
L 268.024163 453.348126 
L 268.880313 453.16726 
L 270.592614 453.528992 
L 271.448765 436.713767 
L 272.304915 368.549762 
L 273.161066 453.528992 
L 274.017216 453.528992 
L 274.873367 453.16726 
L 275.729517 453.528992 
L 276.585668 453.348126 
L 277.441818 453.528992 
L 278.297968 452.986394 
L 279.154119 453.528992 
L 280.010269 453.16726 
L 280.86642 452.625072 
L 281.72257 447.743324 
L 282.578721 452.625072 
L 283.434871 453.16726 
L 284.291022 456.241165 
L 285.147172 452.986394 
L 286.003323 448.466379 
L 286.859473 451.901607 
L 287.715624 452.986394 
L 289.427925 453.709859 
L 290.284075 454.794646 
L 291.140226 452.986394 
L 291.996376 454.61378 
L 292.852527 460.038125 
L 293.708677 457.687685 
L 294.564828 461.484645 
L 295.420978 469.620754 
L 296.277129 466.728125 
L 297.133279 469.439887 
L 297.98943 468.897699 
L 298.84558 469.620754 
L 299.701731 469.620754 
L 300.557881 469.982486 
L 301.414031 469.982486 
L 302.270182 470.163352 
L 303.126332 469.80162 
L 303.982483 470.344218 
L 304.838633 469.982486 
L 305.694784 469.982486 
L 306.550934 469.439887 
L 307.407085 469.620754 
L 309.119386 462.2077 
L 309.975536 454.794646 
L 310.831687 91.191632 
L 311.687837 88.841192 
L 312.543988 89.202924 
L 313.400138 88.660325 
L 314.256289 87.575538 
L 315.112439 87.394672 
L 315.96859 86.309885 
L 316.82474 87.756405 
L 317.680891 88.660325 
L 318.537041 88.117727 
L 319.393192 88.660325 
L 320.249342 89.745113 
L 321.961643 87.213806 
L 322.817793 88.660325 
L 323.673944 89.022058 
L 324.530094 88.660325 
L 325.386245 87.756405 
L 326.242395 139.105593 
L 327.098546 451.901607 
L 327.954696 352.638457 
L 328.810847 87.756405 
L 329.666997 87.756405 
L 330.523148 85.767286 
L 331.379298 87.756405 
L 332.235449 85.405964 
L 333.091599 87.03294 
L 333.94775 86.671617 
L 334.8039 88.841192 
L 335.660051 88.841192 
L 336.516201 85.948153 
L 337.372352 87.756405 
L 338.228502 88.841192 
L 339.084653 88.117727 
L 339.940803 452.625072 
L 340.796954 455.517701 
L 341.653104 452.805938 
L 342.509255 452.082473 
L 343.365405 452.625072 
L 344.221556 452.263339 
L 345.077706 452.263339 
L 345.933856 452.625072 
L 346.790007 453.348126 
L 347.646157 452.444205 
L 348.502308 458.772472 
L 349.358458 452.986394 
L 350.214609 452.625072 
L 351.070759 452.444205 
L 351.92691 448.104647 
L 352.78306 418.814164 
L 353.639211 441.053325 
L 354.495361 424.961564 
L 355.351512 420.079817 
L 356.207662 392.235443 
L 357.063813 418.99503 
L 357.919963 450.997686 
L 358.776114 451.359418 
L 359.632264 448.828112 
L 360.488415 444.669419 
L 361.344565 452.263339 
L 362.200716 450.997686 
L 363.056866 452.263339 
L 363.913017 452.444205 
L 364.769167 451.901607 
L 365.625318 451.901607 
L 366.481468 451.721151 
L 367.337619 448.647245 
L 368.193769 436.713767 
L 369.90607 398.925442 
L 370.76222 225.893076 
L 371.618371 167.130423 
L 372.474521 173.820422 
L 373.330672 233.125264 
L 374.186822 262.596613 
L 375.042973 214.683062 
L 375.899123 129.161233 
L 376.755274 89.202924 
L 377.611424 89.564246 
L 378.467575 438.522018 
L 379.323725 425.865485 
L 380.179876 264.585731 
L 381.036026 210.343503 
L 381.892177 449.008978 
L 382.748327 454.252047 
L 383.604478 453.348126 
L 384.460628 452.625072 
L 385.316779 452.263339 
L 386.172929 438.702885 
L 387.02908 342.694096 
L 387.88523 302.554921 
L 388.741381 204.196103 
L 389.597531 230.955689 
L 390.453681 240.719184 
L 391.309832 216.852636 
L 394.734434 454.61378 
L 395.590584 454.071591 
L 396.446735 454.071591 
L 397.302885 454.432913 
L 398.159036 454.432913 
L 399.015186 454.071591 
L 399.871337 452.986394 
L 400.727487 453.528992 
L 401.583638 454.432913 
L 402.439788 449.189844 
L 403.295939 448.828112 
L 404.152089 453.528992 
L 405.00824 456.422032 
L 405.86439 454.252047 
L 406.720541 453.890725 
L 407.576691 447.381592 
L 408.432842 423.153312 
L 409.288992 377.590202 
L 410.145143 384.822389 
L 411.001293 390.246735 
L 411.857444 411.581566 
L 412.713594 375.239351 
L 413.569744 372.346722 
L 414.425895 347.937576 
L 415.282045 436.352444 
L 416.138196 422.249391 
L 416.994346 405.615031 
L 417.850497 453.709859 
L 418.706647 453.16726 
L 419.562798 449.551166 
L 420.418948 453.890725 
L 421.275099 453.528992 
L 422.131249 453.890725 
L 422.9874 454.61378 
L 423.84355 454.975512 
L 424.699701 454.794646 
L 425.555851 455.156378 
L 426.412002 455.337244 
L 427.268152 455.879433 
L 428.124303 457.687685 
L 428.980453 456.060299 
L 429.836604 456.422032 
L 430.692754 457.145086 
L 431.548905 456.422032 
L 432.405055 453.16726 
L 433.261206 456.602898 
L 434.117356 457.145086 
L 434.973506 454.975512 
L 436.685807 460.76118 
L 437.541958 461.484645 
L 438.398108 457.506819 
L 439.254259 452.805938 
L 440.110409 454.61378 
L 440.96656 455.698567 
L 441.82271 456.422032 
L 443.535011 454.252047 
L 444.391162 454.794646 
L 445.247312 456.060299 
L 446.103463 455.517701 
L 446.959613 455.156378 
L 447.815764 454.252047 
L 449.528065 456.96422 
L 450.384215 456.96422 
L 451.240366 456.060299 
L 452.096516 456.422032 
L 452.952667 456.241165 
L 453.808817 456.422032 
L 454.664968 455.517701 
L 455.521118 459.134205 
L 456.377269 459.134205 
L 457.233419 459.314661 
L 458.089569 459.314661 
L 458.94572 458.953338 
L 459.80187 459.134205 
L 460.658021 458.953338 
L 461.514171 458.591606 
L 462.370322 458.049007 
L 464.082623 459.134205 
L 464.938773 459.134205 
L 465.794924 458.591606 
L 466.651074 458.953338 
L 467.507225 458.591606 
L 468.363375 458.591606 
L 469.219526 458.41074 
L 470.075676 457.506819 
L 470.931827 447.381592 
L 471.787977 455.517701 
L 472.644128 454.975512 
L 473.500278 91.191632 
L 474.356429 88.298593 
L 475.212579 88.479459 
L 476.92488 87.756405 
L 477.781031 85.044232 
L 478.637181 87.213806 
L 479.493332 84.501633 
L 480.349482 86.309885 
L 481.205632 85.948153 
L 482.061783 85.948153 
L 482.917933 86.490751 
L 483.774084 85.225098 
L 485.486385 84.501633 
L 486.342535 85.044232 
L 487.198686 84.320767 
L 488.054836 84.501633 
L 488.910987 82.332059 
L 489.767137 84.140311 
L 490.623288 82.693791 
L 491.479438 83.959444 
L 492.335589 83.597712 
L 493.191739 82.874657 
L 494.04789 82.874657 
L 494.90404 83.23598 
L 495.760191 87.394672 
L 496.616341 82.512925 
L 497.472492 83.778578 
L 498.328642 82.332059 
L 499.184793 83.597712 
L 500.045224 82.874657 
L 500.901374 79.077697 
L 501.757525 82.874657 
L 502.613675 82.332059 
L 503.469826 82.332059 
L 504.325976 82.874657 
L 506.038277 85.58642 
L 506.894428 82.693791 
L 507.750578 81.428138 
L 508.606729 82.874657 
L 509.462879 83.055113 
L 510.31903 81.066405 
L 511.17518 82.512925 
L 512.031331 81.609004 
L 512.887481 82.693791 
L 513.743631 83.055113 
L 514.599782 81.78946 
L 515.455932 78.173366 
L 516.312083 82.332059 
L 517.168233 82.332059 
L 518.024384 82.512925 
L 519.736685 77.9925 
L 520.592835 81.970326 
L 521.448986 83.23598 
L 522.305136 83.416846 
L 523.161287 84.320767 
L 524.017437 83.055113 
L 524.873588 82.693791 
L 525.729738 84.320767 
L 526.585889 82.693791 
L 527.442039 83.778578 
L 528.29819 82.693791 
L 529.15434 83.778578 
L 530.010491 83.959444 
L 530.866641 83.416846 
L 531.722792 84.140311 
L 533.435093 83.416846 
L 534.291243 83.23598 
L 535.147394 85.58642 
L 536.003544 84.501633 
L 536.859694 84.501633 
L 537.715845 83.959444 
L 538.571995 83.778578 
L 539.428146 83.959444 
L 540.284296 83.778578 
L 541.140447 84.320767 
L 541.996597 83.778578 
L 542.852748 84.682499 
L 543.708898 84.863365 
L 544.565049 85.225098 
L 545.421199 84.863365 
L 546.27735 85.044232 
L 547.1335 84.501633 
L 547.989651 83.778578 
L 548.845801 84.863365 
L 549.701952 85.767286 
L 550.558102 86.852073 
L 551.414253 86.852073 
L 552.270403 87.03294 
L 553.126554 84.501633 
L 553.982704 86.671617 
L 554.838855 89.925979 
L 555.695005 458.953338 
L 556.551156 474.141179 
L 557.407306 471.067273 
L 558.263457 470.886407 
L 559.119607 475.045099 
L 559.975757 474.864233 
L 560.831908 473.960312 
L 561.688058 472.513793 
L 562.544209 473.055981 
L 563.400359 472.694659 
L 564.25651 472.875525 
L 565.11266 472.513793 
L 565.968811 472.875525 
L 566.824961 471.609872 
L 567.681112 471.609872 
L 568.537262 469.439887 
L 569.393413 471.248139 
L 570.249563 468.3551 
L 571.105714 467.993778 
L 571.961864 463.654219 
L 572.818015 456.060299 
L 573.674165 349.926694 
L 574.530316 88.841192 
L 575.386466 87.213806 
L 576.242617 89.745113 
L 577.098767 86.309885 
L 577.954918 86.129019 
L 578.811068 85.405964 
L 579.667219 86.309885 
L 580.523369 85.225098 
L 581.379519 85.948153 
L 583.09182 87.756405 
L 583.947971 88.298593 
L 584.804121 89.745113 
L 585.660272 450.274631 
L 586.516422 111.622952 
L 587.372573 87.03294 
L 588.228723 88.479459 
L 589.084874 87.394672 
L 589.941024 87.937271 
L 590.797175 86.671617 
L 591.653325 87.394672 
L 592.509476 87.394672 
L 593.365626 87.575538 
L 594.221777 87.213806 
L 595.077927 87.756405 
L 595.934078 86.852073 
L 596.790228 88.117727 
L 597.646379 86.852073 
L 598.502529 87.756405 
L 599.35868 87.756405 
L 600.21483 89.022058 
L 601.070981 89.925979 
L 601.927131 88.117727 
L 602.783282 88.660325 
L 603.639432 88.660325 
L 604.495582 89.745113 
L 605.351733 87.756405 
L 606.207883 89.022058 
L 607.064034 88.841192 
L 607.920184 88.298593 
L 608.776335 88.660325 
L 609.632485 86.671617 
L 610.488636 88.841192 
L 611.344786 88.298593 
L 612.200937 88.298593 
L 613.057087 448.647245 
L 613.913238 451.721151 
L 614.769388 452.082473 
L 615.625539 452.986394 
L 617.33784 452.986394 
L 618.19399 455.337244 
L 619.050141 456.060299 
L 619.906291 456.96422 
L 620.762442 457.506819 
L 621.618592 459.495527 
L 622.474743 460.038125 
L 623.330893 461.484645 
L 625.043194 466.366392 
L 625.899345 462.569432 
L 626.755495 464.377274 
L 627.611645 467.451179 
L 628.467796 467.632046 
L 629.323946 472.513793 
L 630.180097 473.779446 
L 631.036247 474.683367 
L 631.892398 476.491619 
L 632.748548 474.321635 
L 633.604699 474.683367 
L 634.460849 469.259431 
L 635.317 467.632046 
L 636.17315 466.908581 
L 637.885451 464.739006 
L 638.741602 460.942046 
L 639.597752 458.591606 
L 640.453903 446.296805 
L 641.310053 90.287711 
L 642.166204 89.022058 
L 643.022354 87.394672 
L 643.878505 88.298593 
L 645.590806 87.575538 
L 646.446956 87.575538 
L 647.303107 83.416846 
L 648.159257 87.756405 
L 649.015407 86.852073 
L 649.871558 87.756405 
L 653.29616 87.756405 
L 654.15231 87.03294 
L 655.008461 88.298593 
L 655.864611 87.213806 
L 656.720762 87.575538 
L 657.576912 87.575538 
L 658.433063 83.959444 
L 659.289213 92.457285 
L 660.145364 87.756405 
L 661.001514 89.745113 
L 661.857665 452.625072 
L 662.713815 453.890725 
L 663.569966 452.263339 
L 664.426116 453.16726 
L 665.282267 454.61378 
L 666.138417 459.857259 
L 666.994568 458.229873 
L 667.850718 461.845967 
L 668.706869 462.026834 
L 669.563019 463.654219 
L 670.41917 464.55814 
L 671.27532 464.377274 
L 672.13147 462.750298 
L 672.987621 460.76118 
L 673.843771 459.314661 
L 674.699922 460.038125 
L 675.556072 460.218992 
L 676.412223 461.303779 
L 677.268373 473.055981 
L 678.124524 465.100739 
L 678.980674 465.642927 
L 679.836825 467.812912 
L 680.692975 470.705541 
L 681.549126 474.502501 
L 682.405276 475.587288 
L 683.261427 475.406832 
L 684.117577 476.310753 
L 684.973728 475.587288 
L 685.829878 475.406832 
L 686.686029 475.587288 
L 687.542179 475.045099 
L 688.39833 475.045099 
L 689.25448 475.225966 
L 690.110631 475.587288 
L 690.966781 475.045099 
L 691.822932 475.045099 
L 692.679082 474.864233 
L 694.391383 474.864233 
L 695.247533 475.225966 
L 696.103684 473.960312 
L 696.959834 475.406832 
L 697.815985 474.864233 
L 699.528286 475.94902 
L 700.384436 473.779446 
L 701.240587 475.045099 
L 702.096737 475.406832 
L 702.952888 479.022926 
L 703.809038 474.864233 
L 704.665189 475.225966 
L 705.521339 475.225966 
L 706.37749 481.1925 
L 707.23364 474.864233 
L 708.089791 474.864233 
L 708.945941 475.225966 
L 709.802092 478.299461 
L 710.658242 471.790328 
L 711.514393 474.864233 
L 712.370543 474.502501 
L 713.226694 474.321635 
L 714.082844 475.225966 
L 714.938995 473.960312 
L 715.795145 473.779446 
L 716.651295 474.321635 
L 717.507446 473.960312 
L 718.363596 473.779446 
L 719.219747 471.429006 
L 720.075897 466.547258 
L 720.932048 459.676393 
L 721.788198 456.783354 
L 723.500499 453.16726 
L 724.35665 448.104647 
L 725.2128 93.542073 
L 726.068951 91.191632 
L 726.925101 88.479459 
L 727.781252 84.863365 
L 728.637402 86.852073 
L 729.493553 90.106845 
L 730.349703 88.117727 
L 731.205854 88.298593 
L 732.062004 86.671617 
L 732.918155 86.671617 
L 734.630456 88.841192 
L 735.486606 88.479459 
L 736.342757 89.202924 
L 737.198907 92.638152 
L 738.055058 89.022058 
L 738.911208 90.8299 
L 739.767358 88.841192 
L 740.623509 87.394672 
L 741.479659 87.756405 
L 742.33581 87.213806 
L 743.19196 86.309885 
L 744.048111 86.129019 
L 744.904261 86.852073 
L 744.904261 86.852073 
" clip-path="url(#p3c1d305358)" style="fill: none; stroke: #ac2b37; stroke-width: 1.5; stroke-linecap: square"/>
   </g>
   <g id="patch_3">
    <path d="M 105.740625 501.3525 
L 105.740625 57.8325 
" style="fill: none; stroke: #000000; stroke-width: 0.8; stroke-linejoin: miter; stroke-linecap: square"/>
   </g>
   <g id="patch_4">
    <path d="M 775.340625 501.3525 
L 775.340625 57.8325 
" style="fill: none; stroke: #000000; stroke-width: 0.8; stroke-linejoin: miter; stroke-linecap: square"/>
   </g>
   <g id="patch_5">
    <path d="M 105.740625 501.3525 
L 775.340625 501.3525 
" style="fill: none; stroke: #000000; stroke-width: 0.8; stroke-linejoin: miter; stroke-linecap: square"/>
   </g>
   <g id="patch_6">
    <path d="M 105.740625 57.8325 
L 775.340625 57.8325 
" style="fill: none; stroke: #000000; stroke-width: 0.8; stroke-linejoin: miter; stroke-linecap: square"/>
   </g>
   <g id="text_17">
    <!-- Light vs Time -->
    <g transform="translate(378.058125 51.8325) scale(0.24 -0.24)">
     <defs>
      <path id="AptosDisplay-76" d="M 1103 0 
L -13 3044 
L 538 3044 
L 1391 513 
L 2250 3044 
L 2781 3044 
L 1678 0 
L 1103 0 
z
" transform="scale(0.015625)"/>
      <path id="AptosDisplay-73" d="M 1506 -41 
Q 1247 -41 1017 14 
Q 788 69 613 191 
Q 438 313 339 506 
Q 241 700 241 978 
L 744 978 
Q 744 628 966 487 
Q 1188 347 1519 347 
Q 1816 347 2008 458 
Q 2200 569 2200 822 
Q 2200 1047 2026 1153 
Q 1853 1259 1413 1369 
Q 1056 1453 815 1564 
Q 575 1675 453 1845 
Q 331 2016 331 2275 
Q 331 2475 417 2626 
Q 503 2778 658 2879 
Q 813 2981 1020 3032 
Q 1228 3084 1472 3084 
Q 1713 3084 1923 3028 
Q 2134 2972 2296 2855 
Q 2459 2738 2551 2552 
Q 2644 2366 2644 2109 
L 2138 2109 
Q 2138 2425 1945 2558 
Q 1753 2691 1472 2691 
Q 1191 2691 1016 2594 
Q 841 2497 841 2291 
Q 841 2169 919 2084 
Q 997 2000 1181 1933 
Q 1366 1866 1675 1791 
Q 2019 1709 2248 1596 
Q 2478 1484 2595 1306 
Q 2713 1128 2713 847 
Q 2713 616 2622 447 
Q 2531 278 2367 170 
Q 2203 63 1983 11 
Q 1763 -41 1506 -41 
z
" transform="scale(0.015625)"/>
     </defs>
     <use xlink:href="#AptosDisplay-4c"/>
     <use xlink:href="#AptosDisplay-69" x="48.4375"/>
     <use xlink:href="#AptosDisplay-67" x="69.482422"/>
     <use xlink:href="#AptosDisplay-68" x="113.427734"/>
     <use xlink:href="#AptosDisplay-74" x="164.013672"/>
     <use xlink:href="#AptosDisplay-20" x="194.384766"/>
     <use xlink:href="#AptosDisplay-76" x="213.671875"/>
     <use xlink:href="#AptosDisplay-73" x="256.933594"/>
     <use xlink:href="#AptosDisplay-20" x="303.222656"/>
     <use xlink:href="#AptosDisplay-54" x="322.509766"/>
     <use xlink:href="#AptosDisplay-69" x="370.214844"/>
     <use xlink:href="#AptosDisplay-6d" x="391.259766"/>
     <use xlink:href="#AptosDisplay-65" x="471.240234"/>
    </g>
   </g>
  </g>
 </g>
 <defs>
  <clipPath id="p3c1d305358">
   <rect x="105.740625" y="57.8325" width="669.6" height="443.52"/>
  </clipPath>
 </defs>
</svg>
