<?xml version="1.0" encoding="utf-8" standalone="no"?>
<!DOCTYPE svg PUBLIC "-//W3C//DTD SVG 1.1//EN"
  "http://www.w3.org/Graphics/SVG/1.1/DTD/svg11.dtd">
<svg xmlns:xlink="http://www.w3.org/1999/xlink" width="800.88125pt" height="581.830625pt" viewBox="0 0 800.88125 581.830625" xmlns="http://www.w3.org/2000/svg" version="1.1">
 <metadata>
  <rdf:RDF xmlns:dc="http://purl.org/dc/elements/1.1/" xmlns:cc="http://creativecommons.org/ns#" xmlns:rdf="http://www.w3.org/1999/02/22-rdf-syntax-ns#">
   <cc:Work>
    <dc:type rdf:resource="http://purl.org/dc/dcmitype/StillImage"/>
    <dc:date>2025-04-03T01:48:33.363509</dc:date>
    <dc:format>image/svg+xml</dc:format>
    <dc:creator>
     <cc:Agent>
      <dc:title>Matplotlib v3.8.2, https://matplotlib.org/</dc:title>
     </cc:Agent>
    </dc:creator>
   </cc:Work>
  </rdf:RDF>
 </metadata>
 <defs>
  <style type="text/css">*{stroke-linejoin: round; stroke-linecap: butt}</style>
 </defs>
 <g id="figure_1">
  <g id="patch_1">
   <path d="M 0 581.830625 
L 800.88125 581.830625 
L 800.88125 0 
L 0 0 
z
" style="fill: #ffffff"/>
  </g>
  <g id="axes_1">
   <g id="patch_2">
    <path d="M 95.28125 501.3525 
L 764.88125 501.3525 
L 764.88125 57.8325 
L 95.28125 57.8325 
z
" style="fill: #ffffff"/>
   </g>
   <g id="matplotlib.axis_1">
    <g id="xtick_1">
     <g id="line2d_1">
      <path d="M 125.37467 501.3525 
L 125.37467 57.8325 
" clip-path="url(#p9bc75e57ba)" style="fill: none; stroke: #b0b0b0; stroke-opacity: 0.8; stroke-linecap: square"/>
     </g>
     <g id="line2d_2">
      <defs>
       <path id="m9217b2924f" d="M 0 0 
L 0 3.5 
" style="stroke: #000000; stroke-width: 0.8"/>
      </defs>
      <g>
       <use xlink:href="#m9217b2924f" x="125.37467" y="501.3525" style="stroke: #000000; stroke-width: 0.8"/>
      </g>
     </g>
     <g id="text_1">
      <!-- 0 -->
      <g transform="translate(120.144983 521.49625) scale(0.2 -0.2)">
       <defs>
        <path id="AptosDisplay-30" d="M 1672 -56 
Q 1291 -56 1028 105 
Q 766 266 605 552 
Q 444 838 372 1216 
Q 300 1594 300 2031 
Q 300 2475 372 2856 
Q 444 3238 605 3525 
Q 766 3813 1028 3973 
Q 1291 4134 1672 4134 
Q 2053 4134 2317 3975 
Q 2581 3816 2742 3527 
Q 2903 3238 2975 2858 
Q 3047 2478 3047 2038 
Q 3047 1597 2975 1217 
Q 2903 838 2742 552 
Q 2581 266 2318 105 
Q 2056 -56 1672 -56 
z
M 1672 409 
Q 1916 409 2073 550 
Q 2231 691 2322 925 
Q 2413 1159 2448 1448 
Q 2484 1738 2484 2038 
Q 2484 2338 2448 2628 
Q 2413 2919 2322 3153 
Q 2231 3388 2073 3527 
Q 1916 3666 1669 3666 
Q 1428 3666 1268 3527 
Q 1109 3388 1020 3153 
Q 931 2919 893 2628 
Q 856 2338 856 2038 
Q 856 1741 893 1450 
Q 931 1159 1020 925 
Q 1109 691 1268 550 
Q 1428 409 1672 409 
z
" transform="scale(0.015625)"/>
       </defs>
       <use xlink:href="#AptosDisplay-30"/>
      </g>
     </g>
    </g>
    <g id="xtick_2">
     <g id="line2d_3">
      <path d="M 201.924496 501.3525 
L 201.924496 57.8325 
" clip-path="url(#p9bc75e57ba)" style="fill: none; stroke: #b0b0b0; stroke-opacity: 0.8; stroke-linecap: square"/>
     </g>
     <g id="line2d_4">
      <g>
       <use xlink:href="#m9217b2924f" x="201.924496" y="501.3525" style="stroke: #000000; stroke-width: 0.8"/>
      </g>
     </g>
     <g id="text_2">
      <!-- 25 -->
      <g transform="translate(191.465121 521.49625) scale(0.2 -0.2)">
       <defs>
        <path id="AptosDisplay-32" d="M 247 0 
L 247 413 
L 1725 1741 
Q 2100 2081 2269 2351 
Q 2438 2622 2438 2938 
Q 2438 3256 2263 3461 
Q 2088 3666 1691 3666 
Q 1247 3666 1055 3439 
Q 863 3213 863 2869 
L 341 2869 
Q 341 3250 491 3534 
Q 641 3819 941 3975 
Q 1241 4131 1691 4131 
Q 2103 4131 2390 3986 
Q 2678 3841 2828 3578 
Q 2978 3316 2978 2959 
Q 2978 2638 2853 2375 
Q 2728 2113 2517 1883 
Q 2306 1653 2044 1425 
L 959 463 
L 3097 463 
L 3097 0 
L 247 0 
z
" transform="scale(0.015625)"/>
        <path id="AptosDisplay-35" d="M 1669 -56 
Q 1278 -56 964 83 
Q 650 222 465 483 
Q 281 744 281 1113 
L 816 1113 
Q 816 778 1055 584 
Q 1294 391 1669 391 
Q 2069 391 2291 625 
Q 2513 859 2513 1319 
Q 2513 1772 2291 1989 
Q 2069 2206 1697 2206 
Q 1409 2206 1223 2123 
Q 1038 2041 916 1894 
L 444 1894 
L 622 4078 
L 2788 4078 
L 2788 3613 
L 1041 3613 
L 931 2322 
Q 1044 2453 1251 2550 
Q 1459 2647 1775 2647 
Q 2131 2647 2420 2506 
Q 2709 2366 2881 2072 
Q 3053 1778 3053 1319 
Q 3053 863 2875 558 
Q 2697 253 2384 98 
Q 2072 -56 1669 -56 
z
" transform="scale(0.015625)"/>
       </defs>
       <use xlink:href="#AptosDisplay-32"/>
       <use xlink:href="#AptosDisplay-35" x="52.294922"/>
      </g>
     </g>
    </g>
    <g id="xtick_3">
     <g id="line2d_5">
      <path d="M 278.474321 501.3525 
L 278.474321 57.8325 
" clip-path="url(#p9bc75e57ba)" style="fill: none; stroke: #b0b0b0; stroke-opacity: 0.8; stroke-linecap: square"/>
     </g>
     <g id="line2d_6">
      <g>
       <use xlink:href="#m9217b2924f" x="278.474321" y="501.3525" style="stroke: #000000; stroke-width: 0.8"/>
      </g>
     </g>
     <g id="text_3">
      <!-- 50 -->
      <g transform="translate(268.014946 521.49625) scale(0.2 -0.2)">
       <use xlink:href="#AptosDisplay-35"/>
       <use xlink:href="#AptosDisplay-30" x="52.294922"/>
      </g>
     </g>
    </g>
    <g id="xtick_4">
     <g id="line2d_7">
      <path d="M 355.024146 501.3525 
L 355.024146 57.8325 
" clip-path="url(#p9bc75e57ba)" style="fill: none; stroke: #b0b0b0; stroke-opacity: 0.8; stroke-linecap: square"/>
     </g>
     <g id="line2d_8">
      <g>
       <use xlink:href="#m9217b2924f" x="355.024146" y="501.3525" style="stroke: #000000; stroke-width: 0.8"/>
      </g>
     </g>
     <g id="text_4">
      <!-- 75 -->
      <g transform="translate(344.564771 521.49625) scale(0.2 -0.2)">
       <defs>
        <path id="AptosDisplay-37" d="M 766 0 
L 2609 3600 
L 194 3600 
L 194 4078 
L 3141 4078 
L 3141 3622 
L 1334 0 
L 766 0 
z
" transform="scale(0.015625)"/>
       </defs>
       <use xlink:href="#AptosDisplay-37"/>
       <use xlink:href="#AptosDisplay-35" x="52.294922"/>
      </g>
     </g>
    </g>
    <g id="xtick_5">
     <g id="line2d_9">
      <path d="M 431.573972 501.3525 
L 431.573972 57.8325 
" clip-path="url(#p9bc75e57ba)" style="fill: none; stroke: #b0b0b0; stroke-opacity: 0.8; stroke-linecap: square"/>
     </g>
     <g id="line2d_10">
      <g>
       <use xlink:href="#m9217b2924f" x="431.573972" y="501.3525" style="stroke: #000000; stroke-width: 0.8"/>
      </g>
     </g>
     <g id="text_5">
      <!-- 100 -->
      <g transform="translate(415.884909 521.49625) scale(0.2 -0.2)">
       <defs>
        <path id="AptosDisplay-31" d="M 1659 0 
L 1659 3425 
Q 1575 3309 1420 3201 
Q 1266 3094 1052 3009 
Q 838 2925 578 2888 
L 578 3381 
Q 834 3425 1057 3540 
Q 1281 3656 1453 3806 
Q 1625 3956 1719 4094 
L 2206 4094 
L 2206 0 
L 1659 0 
z
" transform="scale(0.015625)"/>
       </defs>
       <use xlink:href="#AptosDisplay-31"/>
       <use xlink:href="#AptosDisplay-30" x="52.294922"/>
       <use xlink:href="#AptosDisplay-30" x="104.589844"/>
      </g>
     </g>
    </g>
    <g id="xtick_6">
     <g id="line2d_11">
      <path d="M 508.123797 501.3525 
L 508.123797 57.8325 
" clip-path="url(#p9bc75e57ba)" style="fill: none; stroke: #b0b0b0; stroke-opacity: 0.8; stroke-linecap: square"/>
     </g>
     <g id="line2d_12">
      <g>
       <use xlink:href="#m9217b2924f" x="508.123797" y="501.3525" style="stroke: #000000; stroke-width: 0.8"/>
      </g>
     </g>
     <g id="text_6">
      <!-- 125 -->
      <g transform="translate(492.434734 521.49625) scale(0.2 -0.2)">
       <use xlink:href="#AptosDisplay-31"/>
       <use xlink:href="#AptosDisplay-32" x="52.294922"/>
       <use xlink:href="#AptosDisplay-35" x="104.589844"/>
      </g>
     </g>
    </g>
    <g id="xtick_7">
     <g id="line2d_13">
      <path d="M 584.673622 501.3525 
L 584.673622 57.8325 
" clip-path="url(#p9bc75e57ba)" style="fill: none; stroke: #b0b0b0; stroke-opacity: 0.8; stroke-linecap: square"/>
     </g>
     <g id="line2d_14">
      <g>
       <use xlink:href="#m9217b2924f" x="584.673622" y="501.3525" style="stroke: #000000; stroke-width: 0.8"/>
      </g>
     </g>
     <g id="text_7">
      <!-- 150 -->
      <g transform="translate(568.98456 521.49625) scale(0.2 -0.2)">
       <use xlink:href="#AptosDisplay-31"/>
       <use xlink:href="#AptosDisplay-35" x="52.294922"/>
       <use xlink:href="#AptosDisplay-30" x="104.589844"/>
      </g>
     </g>
    </g>
    <g id="xtick_8">
     <g id="line2d_15">
      <path d="M 661.223447 501.3525 
L 661.223447 57.8325 
" clip-path="url(#p9bc75e57ba)" style="fill: none; stroke: #b0b0b0; stroke-opacity: 0.8; stroke-linecap: square"/>
     </g>
     <g id="line2d_16">
      <g>
       <use xlink:href="#m9217b2924f" x="661.223447" y="501.3525" style="stroke: #000000; stroke-width: 0.8"/>
      </g>
     </g>
     <g id="text_8">
      <!-- 175 -->
      <g transform="translate(645.534385 521.49625) scale(0.2 -0.2)">
       <use xlink:href="#AptosDisplay-31"/>
       <use xlink:href="#AptosDisplay-37" x="52.294922"/>
       <use xlink:href="#AptosDisplay-35" x="104.589844"/>
      </g>
     </g>
    </g>
    <g id="xtick_9">
     <g id="line2d_17">
      <path d="M 737.773273 501.3525 
L 737.773273 57.8325 
" clip-path="url(#p9bc75e57ba)" style="fill: none; stroke: #b0b0b0; stroke-opacity: 0.8; stroke-linecap: square"/>
     </g>
     <g id="line2d_18">
      <g>
       <use xlink:href="#m9217b2924f" x="737.773273" y="501.3525" style="stroke: #000000; stroke-width: 0.8"/>
      </g>
     </g>
     <g id="text_9">
      <!-- 200 -->
      <g transform="translate(722.08421 521.49625) scale(0.2 -0.2)">
       <use xlink:href="#AptosDisplay-32"/>
       <use xlink:href="#AptosDisplay-30" x="52.294922"/>
       <use xlink:href="#AptosDisplay-30" x="104.589844"/>
      </g>
     </g>
    </g>
    <g id="xtick_10">
     <g id="line2d_19">
      <path d="M 110.064705 501.3525 
L 110.064705 57.8325 
" clip-path="url(#p9bc75e57ba)" style="fill: none; stroke-dasharray: 1.85,0.8; stroke-dashoffset: 0; stroke: #b0b0b0; stroke-opacity: 0.8; stroke-width: 0.5"/>
     </g>
     <g id="line2d_20">
      <defs>
       <path id="m115805ccbe" d="M 0 0 
L 0 2 
" style="stroke: #000000; stroke-width: 0.6"/>
      </defs>
      <g>
       <use xlink:href="#m115805ccbe" x="110.064705" y="501.3525" style="stroke: #000000; stroke-width: 0.6"/>
      </g>
     </g>
    </g>
    <g id="xtick_11">
     <g id="line2d_21">
      <path d="M 140.684635 501.3525 
L 140.684635 57.8325 
" clip-path="url(#p9bc75e57ba)" style="fill: none; stroke-dasharray: 1.85,0.8; stroke-dashoffset: 0; stroke: #b0b0b0; stroke-opacity: 0.8; stroke-width: 0.5"/>
     </g>
     <g id="line2d_22">
      <g>
       <use xlink:href="#m115805ccbe" x="140.684635" y="501.3525" style="stroke: #000000; stroke-width: 0.6"/>
      </g>
     </g>
    </g>
    <g id="xtick_12">
     <g id="line2d_23">
      <path d="M 155.994601 501.3525 
L 155.994601 57.8325 
" clip-path="url(#p9bc75e57ba)" style="fill: none; stroke-dasharray: 1.85,0.8; stroke-dashoffset: 0; stroke: #b0b0b0; stroke-opacity: 0.8; stroke-width: 0.5"/>
     </g>
     <g id="line2d_24">
      <g>
       <use xlink:href="#m115805ccbe" x="155.994601" y="501.3525" style="stroke: #000000; stroke-width: 0.6"/>
      </g>
     </g>
    </g>
    <g id="xtick_13">
     <g id="line2d_25">
      <path d="M 171.304566 501.3525 
L 171.304566 57.8325 
" clip-path="url(#p9bc75e57ba)" style="fill: none; stroke-dasharray: 1.85,0.8; stroke-dashoffset: 0; stroke: #b0b0b0; stroke-opacity: 0.8; stroke-width: 0.5"/>
     </g>
     <g id="line2d_26">
      <g>
       <use xlink:href="#m115805ccbe" x="171.304566" y="501.3525" style="stroke: #000000; stroke-width: 0.6"/>
      </g>
     </g>
    </g>
    <g id="xtick_14">
     <g id="line2d_27">
      <path d="M 186.614531 501.3525 
L 186.614531 57.8325 
" clip-path="url(#p9bc75e57ba)" style="fill: none; stroke-dasharray: 1.85,0.8; stroke-dashoffset: 0; stroke: #b0b0b0; stroke-opacity: 0.8; stroke-width: 0.5"/>
     </g>
     <g id="line2d_28">
      <g>
       <use xlink:href="#m115805ccbe" x="186.614531" y="501.3525" style="stroke: #000000; stroke-width: 0.6"/>
      </g>
     </g>
    </g>
    <g id="xtick_15">
     <g id="line2d_29">
      <path d="M 217.234461 501.3525 
L 217.234461 57.8325 
" clip-path="url(#p9bc75e57ba)" style="fill: none; stroke-dasharray: 1.85,0.8; stroke-dashoffset: 0; stroke: #b0b0b0; stroke-opacity: 0.8; stroke-width: 0.5"/>
     </g>
     <g id="line2d_30">
      <g>
       <use xlink:href="#m115805ccbe" x="217.234461" y="501.3525" style="stroke: #000000; stroke-width: 0.6"/>
      </g>
     </g>
    </g>
    <g id="xtick_16">
     <g id="line2d_31">
      <path d="M 232.544426 501.3525 
L 232.544426 57.8325 
" clip-path="url(#p9bc75e57ba)" style="fill: none; stroke-dasharray: 1.85,0.8; stroke-dashoffset: 0; stroke: #b0b0b0; stroke-opacity: 0.8; stroke-width: 0.5"/>
     </g>
     <g id="line2d_32">
      <g>
       <use xlink:href="#m115805ccbe" x="232.544426" y="501.3525" style="stroke: #000000; stroke-width: 0.6"/>
      </g>
     </g>
    </g>
    <g id="xtick_17">
     <g id="line2d_33">
      <path d="M 247.854391 501.3525 
L 247.854391 57.8325 
" clip-path="url(#p9bc75e57ba)" style="fill: none; stroke-dasharray: 1.85,0.8; stroke-dashoffset: 0; stroke: #b0b0b0; stroke-opacity: 0.8; stroke-width: 0.5"/>
     </g>
     <g id="line2d_34">
      <g>
       <use xlink:href="#m115805ccbe" x="247.854391" y="501.3525" style="stroke: #000000; stroke-width: 0.6"/>
      </g>
     </g>
    </g>
    <g id="xtick_18">
     <g id="line2d_35">
      <path d="M 263.164356 501.3525 
L 263.164356 57.8325 
" clip-path="url(#p9bc75e57ba)" style="fill: none; stroke-dasharray: 1.85,0.8; stroke-dashoffset: 0; stroke: #b0b0b0; stroke-opacity: 0.8; stroke-width: 0.5"/>
     </g>
     <g id="line2d_36">
      <g>
       <use xlink:href="#m115805ccbe" x="263.164356" y="501.3525" style="stroke: #000000; stroke-width: 0.6"/>
      </g>
     </g>
    </g>
    <g id="xtick_19">
     <g id="line2d_37">
      <path d="M 293.784286 501.3525 
L 293.784286 57.8325 
" clip-path="url(#p9bc75e57ba)" style="fill: none; stroke-dasharray: 1.85,0.8; stroke-dashoffset: 0; stroke: #b0b0b0; stroke-opacity: 0.8; stroke-width: 0.5"/>
     </g>
     <g id="line2d_38">
      <g>
       <use xlink:href="#m115805ccbe" x="293.784286" y="501.3525" style="stroke: #000000; stroke-width: 0.6"/>
      </g>
     </g>
    </g>
    <g id="xtick_20">
     <g id="line2d_39">
      <path d="M 309.094251 501.3525 
L 309.094251 57.8325 
" clip-path="url(#p9bc75e57ba)" style="fill: none; stroke-dasharray: 1.85,0.8; stroke-dashoffset: 0; stroke: #b0b0b0; stroke-opacity: 0.8; stroke-width: 0.5"/>
     </g>
     <g id="line2d_40">
      <g>
       <use xlink:href="#m115805ccbe" x="309.094251" y="501.3525" style="stroke: #000000; stroke-width: 0.6"/>
      </g>
     </g>
    </g>
    <g id="xtick_21">
     <g id="line2d_41">
      <path d="M 324.404216 501.3525 
L 324.404216 57.8325 
" clip-path="url(#p9bc75e57ba)" style="fill: none; stroke-dasharray: 1.85,0.8; stroke-dashoffset: 0; stroke: #b0b0b0; stroke-opacity: 0.8; stroke-width: 0.5"/>
     </g>
     <g id="line2d_42">
      <g>
       <use xlink:href="#m115805ccbe" x="324.404216" y="501.3525" style="stroke: #000000; stroke-width: 0.6"/>
      </g>
     </g>
    </g>
    <g id="xtick_22">
     <g id="line2d_43">
      <path d="M 339.714181 501.3525 
L 339.714181 57.8325 
" clip-path="url(#p9bc75e57ba)" style="fill: none; stroke-dasharray: 1.85,0.8; stroke-dashoffset: 0; stroke: #b0b0b0; stroke-opacity: 0.8; stroke-width: 0.5"/>
     </g>
     <g id="line2d_44">
      <g>
       <use xlink:href="#m115805ccbe" x="339.714181" y="501.3525" style="stroke: #000000; stroke-width: 0.6"/>
      </g>
     </g>
    </g>
    <g id="xtick_23">
     <g id="line2d_45">
      <path d="M 370.334111 501.3525 
L 370.334111 57.8325 
" clip-path="url(#p9bc75e57ba)" style="fill: none; stroke-dasharray: 1.85,0.8; stroke-dashoffset: 0; stroke: #b0b0b0; stroke-opacity: 0.8; stroke-width: 0.5"/>
     </g>
     <g id="line2d_46">
      <g>
       <use xlink:href="#m115805ccbe" x="370.334111" y="501.3525" style="stroke: #000000; stroke-width: 0.6"/>
      </g>
     </g>
    </g>
    <g id="xtick_24">
     <g id="line2d_47">
      <path d="M 385.644076 501.3525 
L 385.644076 57.8325 
" clip-path="url(#p9bc75e57ba)" style="fill: none; stroke-dasharray: 1.85,0.8; stroke-dashoffset: 0; stroke: #b0b0b0; stroke-opacity: 0.8; stroke-width: 0.5"/>
     </g>
     <g id="line2d_48">
      <g>
       <use xlink:href="#m115805ccbe" x="385.644076" y="501.3525" style="stroke: #000000; stroke-width: 0.6"/>
      </g>
     </g>
    </g>
    <g id="xtick_25">
     <g id="line2d_49">
      <path d="M 400.954041 501.3525 
L 400.954041 57.8325 
" clip-path="url(#p9bc75e57ba)" style="fill: none; stroke-dasharray: 1.85,0.8; stroke-dashoffset: 0; stroke: #b0b0b0; stroke-opacity: 0.8; stroke-width: 0.5"/>
     </g>
     <g id="line2d_50">
      <g>
       <use xlink:href="#m115805ccbe" x="400.954041" y="501.3525" style="stroke: #000000; stroke-width: 0.6"/>
      </g>
     </g>
    </g>
    <g id="xtick_26">
     <g id="line2d_51">
      <path d="M 416.264007 501.3525 
L 416.264007 57.8325 
" clip-path="url(#p9bc75e57ba)" style="fill: none; stroke-dasharray: 1.85,0.8; stroke-dashoffset: 0; stroke: #b0b0b0; stroke-opacity: 0.8; stroke-width: 0.5"/>
     </g>
     <g id="line2d_52">
      <g>
       <use xlink:href="#m115805ccbe" x="416.264007" y="501.3525" style="stroke: #000000; stroke-width: 0.6"/>
      </g>
     </g>
    </g>
    <g id="xtick_27">
     <g id="line2d_53">
      <path d="M 446.883937 501.3525 
L 446.883937 57.8325 
" clip-path="url(#p9bc75e57ba)" style="fill: none; stroke-dasharray: 1.85,0.8; stroke-dashoffset: 0; stroke: #b0b0b0; stroke-opacity: 0.8; stroke-width: 0.5"/>
     </g>
     <g id="line2d_54">
      <g>
       <use xlink:href="#m115805ccbe" x="446.883937" y="501.3525" style="stroke: #000000; stroke-width: 0.6"/>
      </g>
     </g>
    </g>
    <g id="xtick_28">
     <g id="line2d_55">
      <path d="M 462.193902 501.3525 
L 462.193902 57.8325 
" clip-path="url(#p9bc75e57ba)" style="fill: none; stroke-dasharray: 1.85,0.8; stroke-dashoffset: 0; stroke: #b0b0b0; stroke-opacity: 0.8; stroke-width: 0.5"/>
     </g>
     <g id="line2d_56">
      <g>
       <use xlink:href="#m115805ccbe" x="462.193902" y="501.3525" style="stroke: #000000; stroke-width: 0.6"/>
      </g>
     </g>
    </g>
    <g id="xtick_29">
     <g id="line2d_57">
      <path d="M 477.503867 501.3525 
L 477.503867 57.8325 
" clip-path="url(#p9bc75e57ba)" style="fill: none; stroke-dasharray: 1.85,0.8; stroke-dashoffset: 0; stroke: #b0b0b0; stroke-opacity: 0.8; stroke-width: 0.5"/>
     </g>
     <g id="line2d_58">
      <g>
       <use xlink:href="#m115805ccbe" x="477.503867" y="501.3525" style="stroke: #000000; stroke-width: 0.6"/>
      </g>
     </g>
    </g>
    <g id="xtick_30">
     <g id="line2d_59">
      <path d="M 492.813832 501.3525 
L 492.813832 57.8325 
" clip-path="url(#p9bc75e57ba)" style="fill: none; stroke-dasharray: 1.85,0.8; stroke-dashoffset: 0; stroke: #b0b0b0; stroke-opacity: 0.8; stroke-width: 0.5"/>
     </g>
     <g id="line2d_60">
      <g>
       <use xlink:href="#m115805ccbe" x="492.813832" y="501.3525" style="stroke: #000000; stroke-width: 0.6"/>
      </g>
     </g>
    </g>
    <g id="xtick_31">
     <g id="line2d_61">
      <path d="M 523.433762 501.3525 
L 523.433762 57.8325 
" clip-path="url(#p9bc75e57ba)" style="fill: none; stroke-dasharray: 1.85,0.8; stroke-dashoffset: 0; stroke: #b0b0b0; stroke-opacity: 0.8; stroke-width: 0.5"/>
     </g>
     <g id="line2d_62">
      <g>
       <use xlink:href="#m115805ccbe" x="523.433762" y="501.3525" style="stroke: #000000; stroke-width: 0.6"/>
      </g>
     </g>
    </g>
    <g id="xtick_32">
     <g id="line2d_63">
      <path d="M 538.743727 501.3525 
L 538.743727 57.8325 
" clip-path="url(#p9bc75e57ba)" style="fill: none; stroke-dasharray: 1.85,0.8; stroke-dashoffset: 0; stroke: #b0b0b0; stroke-opacity: 0.8; stroke-width: 0.5"/>
     </g>
     <g id="line2d_64">
      <g>
       <use xlink:href="#m115805ccbe" x="538.743727" y="501.3525" style="stroke: #000000; stroke-width: 0.6"/>
      </g>
     </g>
    </g>
    <g id="xtick_33">
     <g id="line2d_65">
      <path d="M 554.053692 501.3525 
L 554.053692 57.8325 
" clip-path="url(#p9bc75e57ba)" style="fill: none; stroke-dasharray: 1.85,0.8; stroke-dashoffset: 0; stroke: #b0b0b0; stroke-opacity: 0.8; stroke-width: 0.5"/>
     </g>
     <g id="line2d_66">
      <g>
       <use xlink:href="#m115805ccbe" x="554.053692" y="501.3525" style="stroke: #000000; stroke-width: 0.6"/>
      </g>
     </g>
    </g>
    <g id="xtick_34">
     <g id="line2d_67">
      <path d="M 569.363657 501.3525 
L 569.363657 57.8325 
" clip-path="url(#p9bc75e57ba)" style="fill: none; stroke-dasharray: 1.85,0.8; stroke-dashoffset: 0; stroke: #b0b0b0; stroke-opacity: 0.8; stroke-width: 0.5"/>
     </g>
     <g id="line2d_68">
      <g>
       <use xlink:href="#m115805ccbe" x="569.363657" y="501.3525" style="stroke: #000000; stroke-width: 0.6"/>
      </g>
     </g>
    </g>
    <g id="xtick_35">
     <g id="line2d_69">
      <path d="M 599.983587 501.3525 
L 599.983587 57.8325 
" clip-path="url(#p9bc75e57ba)" style="fill: none; stroke-dasharray: 1.85,0.8; stroke-dashoffset: 0; stroke: #b0b0b0; stroke-opacity: 0.8; stroke-width: 0.5"/>
     </g>
     <g id="line2d_70">
      <g>
       <use xlink:href="#m115805ccbe" x="599.983587" y="501.3525" style="stroke: #000000; stroke-width: 0.6"/>
      </g>
     </g>
    </g>
    <g id="xtick_36">
     <g id="line2d_71">
      <path d="M 615.293552 501.3525 
L 615.293552 57.8325 
" clip-path="url(#p9bc75e57ba)" style="fill: none; stroke-dasharray: 1.85,0.8; stroke-dashoffset: 0; stroke: #b0b0b0; stroke-opacity: 0.8; stroke-width: 0.5"/>
     </g>
     <g id="line2d_72">
      <g>
       <use xlink:href="#m115805ccbe" x="615.293552" y="501.3525" style="stroke: #000000; stroke-width: 0.6"/>
      </g>
     </g>
    </g>
    <g id="xtick_37">
     <g id="line2d_73">
      <path d="M 630.603517 501.3525 
L 630.603517 57.8325 
" clip-path="url(#p9bc75e57ba)" style="fill: none; stroke-dasharray: 1.85,0.8; stroke-dashoffset: 0; stroke: #b0b0b0; stroke-opacity: 0.8; stroke-width: 0.5"/>
     </g>
     <g id="line2d_74">
      <g>
       <use xlink:href="#m115805ccbe" x="630.603517" y="501.3525" style="stroke: #000000; stroke-width: 0.6"/>
      </g>
     </g>
    </g>
    <g id="xtick_38">
     <g id="line2d_75">
      <path d="M 645.913482 501.3525 
L 645.913482 57.8325 
" clip-path="url(#p9bc75e57ba)" style="fill: none; stroke-dasharray: 1.85,0.8; stroke-dashoffset: 0; stroke: #b0b0b0; stroke-opacity: 0.8; stroke-width: 0.5"/>
     </g>
     <g id="line2d_76">
      <g>
       <use xlink:href="#m115805ccbe" x="645.913482" y="501.3525" style="stroke: #000000; stroke-width: 0.6"/>
      </g>
     </g>
    </g>
    <g id="xtick_39">
     <g id="line2d_77">
      <path d="M 676.533413 501.3525 
L 676.533413 57.8325 
" clip-path="url(#p9bc75e57ba)" style="fill: none; stroke-dasharray: 1.85,0.8; stroke-dashoffset: 0; stroke: #b0b0b0; stroke-opacity: 0.8; stroke-width: 0.5"/>
     </g>
     <g id="line2d_78">
      <g>
       <use xlink:href="#m115805ccbe" x="676.533413" y="501.3525" style="stroke: #000000; stroke-width: 0.6"/>
      </g>
     </g>
    </g>
    <g id="xtick_40">
     <g id="line2d_79">
      <path d="M 691.843378 501.3525 
L 691.843378 57.8325 
" clip-path="url(#p9bc75e57ba)" style="fill: none; stroke-dasharray: 1.85,0.8; stroke-dashoffset: 0; stroke: #b0b0b0; stroke-opacity: 0.8; stroke-width: 0.5"/>
     </g>
     <g id="line2d_80">
      <g>
       <use xlink:href="#m115805ccbe" x="691.843378" y="501.3525" style="stroke: #000000; stroke-width: 0.6"/>
      </g>
     </g>
    </g>
    <g id="xtick_41">
     <g id="line2d_81">
      <path d="M 707.153343 501.3525 
L 707.153343 57.8325 
" clip-path="url(#p9bc75e57ba)" style="fill: none; stroke-dasharray: 1.85,0.8; stroke-dashoffset: 0; stroke: #b0b0b0; stroke-opacity: 0.8; stroke-width: 0.5"/>
     </g>
     <g id="line2d_82">
      <g>
       <use xlink:href="#m115805ccbe" x="707.153343" y="501.3525" style="stroke: #000000; stroke-width: 0.6"/>
      </g>
     </g>
    </g>
    <g id="xtick_42">
     <g id="line2d_83">
      <path d="M 722.463308 501.3525 
L 722.463308 57.8325 
" clip-path="url(#p9bc75e57ba)" style="fill: none; stroke-dasharray: 1.85,0.8; stroke-dashoffset: 0; stroke: #b0b0b0; stroke-opacity: 0.8; stroke-width: 0.5"/>
     </g>
     <g id="line2d_84">
      <g>
       <use xlink:href="#m115805ccbe" x="722.463308" y="501.3525" style="stroke: #000000; stroke-width: 0.6"/>
      </g>
     </g>
    </g>
    <g id="xtick_43">
     <g id="line2d_85">
      <path d="M 753.083238 501.3525 
L 753.083238 57.8325 
" clip-path="url(#p9bc75e57ba)" style="fill: none; stroke-dasharray: 1.85,0.8; stroke-dashoffset: 0; stroke: #b0b0b0; stroke-opacity: 0.8; stroke-width: 0.5"/>
     </g>
     <g id="line2d_86">
      <g>
       <use xlink:href="#m115805ccbe" x="753.083238" y="501.3525" style="stroke: #000000; stroke-width: 0.6"/>
      </g>
     </g>
    </g>
    <g id="text_10">
     <!-- Time (S) -->
     <g transform="translate(396.990625 542.305625) scale(0.2 -0.2)">
      <defs>
       <path id="AptosDisplay-54" d="M 1244 0 
L 1244 3734 
L 50 3734 
L 50 4206 
L 2997 4206 
L 2997 3734 
L 1806 3734 
L 1806 0 
L 1244 0 
z
" transform="scale(0.015625)"/>
       <path id="AptosDisplay-69" d="M 413 0 
L 413 3044 
L 934 3044 
L 934 0 
L 413 0 
z
M 675 3616 
Q 525 3616 437 3702 
Q 350 3788 350 3919 
Q 350 4050 437 4136 
Q 525 4222 675 4222 
Q 822 4222 912 4136 
Q 1003 4050 1003 3919 
Q 1003 3788 912 3702 
Q 822 3616 675 3616 
z
" transform="scale(0.015625)"/>
       <path id="AptosDisplay-6d" d="M 413 0 
L 413 3044 
L 919 3044 
L 931 2575 
Q 1063 2756 1303 2914 
Q 1544 3072 1903 3072 
Q 2403 3072 2618 2778 
Q 2834 2484 2834 1963 
L 2834 0 
L 2316 0 
L 2316 1891 
Q 2316 2106 2275 2275 
Q 2234 2444 2120 2539 
Q 2006 2634 1788 2634 
Q 1488 2634 1277 2482 
Q 1066 2331 934 2156 
L 934 0 
L 413 0 
z
M 4206 0 
L 4206 1891 
Q 4206 2106 4164 2275 
Q 4122 2444 4009 2539 
Q 3897 2634 3681 2634 
Q 3381 2634 3165 2484 
Q 2950 2334 2822 2159 
L 2744 2544 
Q 2916 2741 3175 2906 
Q 3434 3072 3800 3072 
Q 4291 3072 4509 2778 
Q 4728 2484 4728 1963 
L 4728 0 
L 4206 0 
z
" transform="scale(0.015625)"/>
       <path id="AptosDisplay-65" d="M 1663 -56 
Q 1188 -56 878 151 
Q 569 359 417 717 
Q 266 1075 266 1522 
Q 266 1988 412 2342 
Q 559 2697 857 2897 
Q 1156 3097 1606 3097 
Q 2209 3097 2550 2722 
Q 2891 2347 2891 1644 
Q 2891 1597 2889 1533 
Q 2888 1469 2881 1441 
L 791 1441 
Q 794 1144 881 895 
Q 969 647 1161 497 
Q 1353 347 1663 347 
Q 1997 347 2183 511 
Q 2369 675 2378 984 
L 2894 984 
Q 2884 663 2732 430 
Q 2581 197 2309 70 
Q 2038 -56 1663 -56 
z
M 794 1822 
L 2375 1822 
Q 2366 2247 2166 2472 
Q 1966 2697 1606 2697 
Q 1241 2697 1036 2473 
Q 831 2250 794 1822 
z
" transform="scale(0.015625)"/>
       <path id="AptosDisplay-20" transform="scale(0.015625)"/>
       <path id="AptosDisplay-28" d="M 1219 -1116 
Q 969 -678 787 -267 
Q 606 144 511 581 
Q 416 1019 416 1528 
Q 416 2028 509 2486 
Q 603 2944 783 3378 
Q 963 3813 1219 4231 
L 1647 4231 
Q 1278 3600 1101 2886 
Q 925 2172 925 1428 
Q 925 766 1125 103 
Q 1325 -559 1647 -1116 
L 1219 -1116 
z
" transform="scale(0.015625)"/>
       <path id="AptosDisplay-53" d="M 1778 -56 
Q 1328 -56 962 81 
Q 597 219 384 512 
Q 172 806 172 1275 
L 734 1275 
Q 738 941 883 750 
Q 1028 559 1267 481 
Q 1506 403 1794 403 
Q 2063 403 2283 483 
Q 2503 563 2634 723 
Q 2766 884 2766 1134 
Q 2766 1356 2662 1497 
Q 2559 1638 2321 1742 
Q 2084 1847 1678 1950 
Q 1203 2075 897 2223 
Q 591 2372 442 2594 
Q 294 2816 294 3156 
Q 294 3516 462 3761 
Q 631 4006 945 4134 
Q 1259 4263 1697 4263 
Q 2103 4263 2440 4131 
Q 2778 4000 2979 3737 
Q 3181 3475 3181 3084 
L 2616 3084 
Q 2622 3441 2356 3623 
Q 2091 3806 1700 3806 
Q 1300 3806 1073 3645 
Q 847 3484 847 3175 
Q 847 2991 944 2867 
Q 1041 2744 1280 2644 
Q 1519 2544 1941 2434 
Q 2428 2303 2731 2153 
Q 3034 2003 3178 1768 
Q 3322 1534 3322 1153 
Q 3322 747 3117 480 
Q 2913 213 2564 78 
Q 2216 -56 1778 -56 
z
" transform="scale(0.015625)"/>
       <path id="AptosDisplay-29" d="M 234 -1116 
Q 609 -481 786 233 
Q 963 947 963 1694 
Q 963 2356 759 3015 
Q 556 3675 234 4231 
L 663 4231 
Q 919 3800 1098 3389 
Q 1278 2978 1373 2540 
Q 1469 2103 1469 1594 
Q 1469 1094 1375 634 
Q 1281 175 1100 -259 
Q 919 -694 663 -1116 
L 234 -1116 
z
" transform="scale(0.015625)"/>
      </defs>
      <use xlink:href="#AptosDisplay-54"/>
      <use xlink:href="#AptosDisplay-69" x="47.705078"/>
      <use xlink:href="#AptosDisplay-6d" x="68.75"/>
      <use xlink:href="#AptosDisplay-65" x="148.730469"/>
      <use xlink:href="#AptosDisplay-20" x="198.144531"/>
      <use xlink:href="#AptosDisplay-28" x="217.431641"/>
      <use xlink:href="#AptosDisplay-53" x="246.875"/>
      <use xlink:href="#AptosDisplay-29" x="301.464844"/>
     </g>
    </g>
   </g>
   <g id="matplotlib.axis_2">
    <g id="ytick_1">
     <g id="line2d_87">
      <path d="M 95.28125 500.254504 
L 764.88125 500.254504 
" clip-path="url(#p9bc75e57ba)" style="fill: none; stroke: #b0b0b0; stroke-opacity: 0.8; stroke-linecap: square"/>
     </g>
     <g id="line2d_88">
      <defs>
       <path id="me213ccc643" d="M 0 0 
L -3.5 0 
" style="stroke: #000000; stroke-width: 0.8"/>
      </defs>
      <g>
       <use xlink:href="#me213ccc643" x="95.28125" y="500.254504" style="stroke: #000000; stroke-width: 0.8"/>
      </g>
     </g>
     <g id="text_11">
      <!-- 0 -->
      <g transform="translate(77.821875 506.826379) scale(0.2 -0.2)">
       <use xlink:href="#AptosDisplay-30"/>
      </g>
     </g>
    </g>
    <g id="ytick_2">
     <g id="line2d_89">
      <path d="M 95.28125 406.258083 
L 764.88125 406.258083 
" clip-path="url(#p9bc75e57ba)" style="fill: none; stroke: #b0b0b0; stroke-opacity: 0.8; stroke-linecap: square"/>
     </g>
     <g id="line2d_90">
      <g>
       <use xlink:href="#me213ccc643" x="95.28125" y="406.258083" style="stroke: #000000; stroke-width: 0.8"/>
      </g>
     </g>
     <g id="text_12">
      <!-- 200 -->
      <g transform="translate(56.903125 412.829958) scale(0.2 -0.2)">
       <use xlink:href="#AptosDisplay-32"/>
       <use xlink:href="#AptosDisplay-30" x="52.294922"/>
       <use xlink:href="#AptosDisplay-30" x="104.589844"/>
      </g>
     </g>
    </g>
    <g id="ytick_3">
     <g id="line2d_91">
      <path d="M 95.28125 312.261661 
L 764.88125 312.261661 
" clip-path="url(#p9bc75e57ba)" style="fill: none; stroke: #b0b0b0; stroke-opacity: 0.8; stroke-linecap: square"/>
     </g>
     <g id="line2d_92">
      <g>
       <use xlink:href="#me213ccc643" x="95.28125" y="312.261661" style="stroke: #000000; stroke-width: 0.8"/>
      </g>
     </g>
     <g id="text_13">
      <!-- 400 -->
      <g transform="translate(56.903125 318.833536) scale(0.2 -0.2)">
       <defs>
        <path id="AptosDisplay-34" d="M 2106 0 
L 2106 825 
L 125 825 
L 125 1297 
L 2100 4103 
L 2631 4103 
L 2631 1284 
L 3191 1284 
L 3191 825 
L 2631 825 
L 2631 0 
L 2106 0 
z
M 638 1284 
L 2113 1284 
L 2113 3369 
L 638 1284 
z
" transform="scale(0.015625)"/>
       </defs>
       <use xlink:href="#AptosDisplay-34"/>
       <use xlink:href="#AptosDisplay-30" x="52.294922"/>
       <use xlink:href="#AptosDisplay-30" x="104.589844"/>
      </g>
     </g>
    </g>
    <g id="ytick_4">
     <g id="line2d_93">
      <path d="M 95.28125 218.26524 
L 764.88125 218.26524 
" clip-path="url(#p9bc75e57ba)" style="fill: none; stroke: #b0b0b0; stroke-opacity: 0.8; stroke-linecap: square"/>
     </g>
     <g id="line2d_94">
      <g>
       <use xlink:href="#me213ccc643" x="95.28125" y="218.26524" style="stroke: #000000; stroke-width: 0.8"/>
      </g>
     </g>
     <g id="text_14">
      <!-- 600 -->
      <g transform="translate(56.903125 224.837115) scale(0.2 -0.2)">
       <defs>
        <path id="AptosDisplay-36" d="M 1759 -56 
Q 1325 -56 984 151 
Q 644 359 447 815 
Q 250 1272 250 2013 
Q 250 2738 439 3206 
Q 628 3675 968 3903 
Q 1309 4131 1759 4131 
Q 2253 4131 2595 3875 
Q 2938 3619 3034 3097 
L 2503 3097 
Q 2441 3388 2250 3534 
Q 2059 3681 1759 3681 
Q 1306 3681 1047 3279 
Q 788 2878 788 2013 
L 788 1850 
Q 788 1313 922 992 
Q 1056 672 1279 531 
Q 1503 391 1763 391 
Q 2175 391 2369 644 
Q 2563 897 2563 1272 
Q 2563 1650 2373 1869 
Q 2184 2088 1838 2088 
Q 1422 2088 1114 1897 
Q 806 1706 644 1456 
L 597 1856 
Q 728 2047 922 2201 
Q 1116 2356 1362 2447 
Q 1609 2538 1909 2538 
Q 2253 2538 2523 2395 
Q 2794 2253 2951 1975 
Q 3109 1697 3109 1291 
Q 3109 897 2951 592 
Q 2794 288 2492 116 
Q 2191 -56 1759 -56 
z
" transform="scale(0.015625)"/>
       </defs>
       <use xlink:href="#AptosDisplay-36"/>
       <use xlink:href="#AptosDisplay-30" x="52.294922"/>
       <use xlink:href="#AptosDisplay-30" x="104.589844"/>
      </g>
     </g>
    </g>
    <g id="ytick_5">
     <g id="line2d_95">
      <path d="M 95.28125 124.268818 
L 764.88125 124.268818 
" clip-path="url(#p9bc75e57ba)" style="fill: none; stroke: #b0b0b0; stroke-opacity: 0.8; stroke-linecap: square"/>
     </g>
     <g id="line2d_96">
      <g>
       <use xlink:href="#me213ccc643" x="95.28125" y="124.268818" style="stroke: #000000; stroke-width: 0.8"/>
      </g>
     </g>
     <g id="text_15">
      <!-- 800 -->
      <g transform="translate(56.903125 130.840693) scale(0.2 -0.2)">
       <defs>
        <path id="AptosDisplay-38" d="M 1675 -56 
Q 1391 -56 1137 16 
Q 884 88 686 234 
Q 488 381 373 606 
Q 259 831 259 1141 
Q 259 1531 495 1797 
Q 731 2063 1084 2150 
Q 781 2250 604 2490 
Q 428 2731 428 3081 
Q 428 3447 609 3681 
Q 791 3916 1075 4025 
Q 1359 4134 1669 4134 
Q 1981 4134 2265 4023 
Q 2550 3913 2733 3680 
Q 2916 3447 2916 3081 
Q 2916 2725 2716 2481 
Q 2516 2238 2238 2150 
Q 2606 2063 2843 1800 
Q 3081 1538 3081 1141 
Q 3081 831 2968 606 
Q 2856 381 2661 234 
Q 2466 88 2211 16 
Q 1956 -56 1675 -56 
z
M 1672 388 
Q 1909 388 2109 470 
Q 2309 553 2429 725 
Q 2550 897 2550 1163 
Q 2550 1416 2426 1587 
Q 2303 1759 2104 1846 
Q 1906 1934 1672 1928 
Q 1453 1934 1253 1850 
Q 1053 1766 926 1594 
Q 800 1422 800 1163 
Q 800 775 1058 581 
Q 1316 388 1672 388 
z
M 1672 2363 
Q 1863 2356 2030 2434 
Q 2197 2513 2300 2667 
Q 2403 2822 2403 3050 
Q 2403 3388 2189 3544 
Q 1975 3700 1675 3700 
Q 1484 3700 1317 3631 
Q 1150 3563 1047 3419 
Q 944 3275 944 3050 
Q 944 2825 1048 2670 
Q 1153 2516 1320 2436 
Q 1488 2356 1672 2363 
z
" transform="scale(0.015625)"/>
       </defs>
       <use xlink:href="#AptosDisplay-38"/>
       <use xlink:href="#AptosDisplay-30" x="52.294922"/>
       <use xlink:href="#AptosDisplay-30" x="104.589844"/>
      </g>
     </g>
    </g>
    <g id="ytick_6">
     <g id="line2d_97">
      <path d="M 95.28125 476.755399 
L 764.88125 476.755399 
" clip-path="url(#p9bc75e57ba)" style="fill: none; stroke-dasharray: 1.85,0.8; stroke-dashoffset: 0; stroke: #b0b0b0; stroke-opacity: 0.8; stroke-width: 0.5"/>
     </g>
     <g id="line2d_98">
      <defs>
       <path id="mff963f3a43" d="M 0 0 
L -2 0 
" style="stroke: #000000; stroke-width: 0.6"/>
      </defs>
      <g>
       <use xlink:href="#mff963f3a43" x="95.28125" y="476.755399" style="stroke: #000000; stroke-width: 0.6"/>
      </g>
     </g>
    </g>
    <g id="ytick_7">
     <g id="line2d_99">
      <path d="M 95.28125 453.256294 
L 764.88125 453.256294 
" clip-path="url(#p9bc75e57ba)" style="fill: none; stroke-dasharray: 1.85,0.8; stroke-dashoffset: 0; stroke: #b0b0b0; stroke-opacity: 0.8; stroke-width: 0.5"/>
     </g>
     <g id="line2d_100">
      <g>
       <use xlink:href="#mff963f3a43" x="95.28125" y="453.256294" style="stroke: #000000; stroke-width: 0.6"/>
      </g>
     </g>
    </g>
    <g id="ytick_8">
     <g id="line2d_101">
      <path d="M 95.28125 429.757188 
L 764.88125 429.757188 
" clip-path="url(#p9bc75e57ba)" style="fill: none; stroke-dasharray: 1.85,0.8; stroke-dashoffset: 0; stroke: #b0b0b0; stroke-opacity: 0.8; stroke-width: 0.5"/>
     </g>
     <g id="line2d_102">
      <g>
       <use xlink:href="#mff963f3a43" x="95.28125" y="429.757188" style="stroke: #000000; stroke-width: 0.6"/>
      </g>
     </g>
    </g>
    <g id="ytick_9">
     <g id="line2d_103">
      <path d="M 95.28125 382.758977 
L 764.88125 382.758977 
" clip-path="url(#p9bc75e57ba)" style="fill: none; stroke-dasharray: 1.85,0.8; stroke-dashoffset: 0; stroke: #b0b0b0; stroke-opacity: 0.8; stroke-width: 0.5"/>
     </g>
     <g id="line2d_104">
      <g>
       <use xlink:href="#mff963f3a43" x="95.28125" y="382.758977" style="stroke: #000000; stroke-width: 0.6"/>
      </g>
     </g>
    </g>
    <g id="ytick_10">
     <g id="line2d_105">
      <path d="M 95.28125 359.259872 
L 764.88125 359.259872 
" clip-path="url(#p9bc75e57ba)" style="fill: none; stroke-dasharray: 1.85,0.8; stroke-dashoffset: 0; stroke: #b0b0b0; stroke-opacity: 0.8; stroke-width: 0.5"/>
     </g>
     <g id="line2d_106">
      <g>
       <use xlink:href="#mff963f3a43" x="95.28125" y="359.259872" style="stroke: #000000; stroke-width: 0.6"/>
      </g>
     </g>
    </g>
    <g id="ytick_11">
     <g id="line2d_107">
      <path d="M 95.28125 335.760767 
L 764.88125 335.760767 
" clip-path="url(#p9bc75e57ba)" style="fill: none; stroke-dasharray: 1.85,0.8; stroke-dashoffset: 0; stroke: #b0b0b0; stroke-opacity: 0.8; stroke-width: 0.5"/>
     </g>
     <g id="line2d_108">
      <g>
       <use xlink:href="#mff963f3a43" x="95.28125" y="335.760767" style="stroke: #000000; stroke-width: 0.6"/>
      </g>
     </g>
    </g>
    <g id="ytick_12">
     <g id="line2d_109">
      <path d="M 95.28125 288.762556 
L 764.88125 288.762556 
" clip-path="url(#p9bc75e57ba)" style="fill: none; stroke-dasharray: 1.85,0.8; stroke-dashoffset: 0; stroke: #b0b0b0; stroke-opacity: 0.8; stroke-width: 0.5"/>
     </g>
     <g id="line2d_110">
      <g>
       <use xlink:href="#mff963f3a43" x="95.28125" y="288.762556" style="stroke: #000000; stroke-width: 0.6"/>
      </g>
     </g>
    </g>
    <g id="ytick_13">
     <g id="line2d_111">
      <path d="M 95.28125 265.263451 
L 764.88125 265.263451 
" clip-path="url(#p9bc75e57ba)" style="fill: none; stroke-dasharray: 1.85,0.8; stroke-dashoffset: 0; stroke: #b0b0b0; stroke-opacity: 0.8; stroke-width: 0.5"/>
     </g>
     <g id="line2d_112">
      <g>
       <use xlink:href="#mff963f3a43" x="95.28125" y="265.263451" style="stroke: #000000; stroke-width: 0.6"/>
      </g>
     </g>
    </g>
    <g id="ytick_14">
     <g id="line2d_113">
      <path d="M 95.28125 241.764345 
L 764.88125 241.764345 
" clip-path="url(#p9bc75e57ba)" style="fill: none; stroke-dasharray: 1.85,0.8; stroke-dashoffset: 0; stroke: #b0b0b0; stroke-opacity: 0.8; stroke-width: 0.5"/>
     </g>
     <g id="line2d_114">
      <g>
       <use xlink:href="#mff963f3a43" x="95.28125" y="241.764345" style="stroke: #000000; stroke-width: 0.6"/>
      </g>
     </g>
    </g>
    <g id="ytick_15">
     <g id="line2d_115">
      <path d="M 95.28125 194.766134 
L 764.88125 194.766134 
" clip-path="url(#p9bc75e57ba)" style="fill: none; stroke-dasharray: 1.85,0.8; stroke-dashoffset: 0; stroke: #b0b0b0; stroke-opacity: 0.8; stroke-width: 0.5"/>
     </g>
     <g id="line2d_116">
      <g>
       <use xlink:href="#mff963f3a43" x="95.28125" y="194.766134" style="stroke: #000000; stroke-width: 0.6"/>
      </g>
     </g>
    </g>
    <g id="ytick_16">
     <g id="line2d_117">
      <path d="M 95.28125 171.267029 
L 764.88125 171.267029 
" clip-path="url(#p9bc75e57ba)" style="fill: none; stroke-dasharray: 1.85,0.8; stroke-dashoffset: 0; stroke: #b0b0b0; stroke-opacity: 0.8; stroke-width: 0.5"/>
     </g>
     <g id="line2d_118">
      <g>
       <use xlink:href="#mff963f3a43" x="95.28125" y="171.267029" style="stroke: #000000; stroke-width: 0.6"/>
      </g>
     </g>
    </g>
    <g id="ytick_17">
     <g id="line2d_119">
      <path d="M 95.28125 147.767924 
L 764.88125 147.767924 
" clip-path="url(#p9bc75e57ba)" style="fill: none; stroke-dasharray: 1.85,0.8; stroke-dashoffset: 0; stroke: #b0b0b0; stroke-opacity: 0.8; stroke-width: 0.5"/>
     </g>
     <g id="line2d_120">
      <g>
       <use xlink:href="#mff963f3a43" x="95.28125" y="147.767924" style="stroke: #000000; stroke-width: 0.6"/>
      </g>
     </g>
    </g>
    <g id="ytick_18">
     <g id="line2d_121">
      <path d="M 95.28125 100.769713 
L 764.88125 100.769713 
" clip-path="url(#p9bc75e57ba)" style="fill: none; stroke-dasharray: 1.85,0.8; stroke-dashoffset: 0; stroke: #b0b0b0; stroke-opacity: 0.8; stroke-width: 0.5"/>
     </g>
     <g id="line2d_122">
      <g>
       <use xlink:href="#mff963f3a43" x="95.28125" y="100.769713" style="stroke: #000000; stroke-width: 0.6"/>
      </g>
     </g>
    </g>
    <g id="ytick_19">
     <g id="line2d_123">
      <path d="M 95.28125 77.270607 
L 764.88125 77.270607 
" clip-path="url(#p9bc75e57ba)" style="fill: none; stroke-dasharray: 1.85,0.8; stroke-dashoffset: 0; stroke: #b0b0b0; stroke-opacity: 0.8; stroke-width: 0.5"/>
     </g>
     <g id="line2d_124">
      <g>
       <use xlink:href="#mff963f3a43" x="95.28125" y="77.270607" style="stroke: #000000; stroke-width: 0.6"/>
      </g>
     </g>
    </g>
    <g id="text_16">
     <!-- Light (W/m^2) -->
     <g transform="translate(49.221875 337.558125) rotate(-90) scale(0.2 -0.2)">
      <defs>
       <path id="AptosDisplay-4c" d="M 472 0 
L 472 4206 
L 1034 4206 
L 1034 484 
L 3000 484 
L 3000 0 
L 472 0 
z
" transform="scale(0.015625)"/>
       <path id="AptosDisplay-67" d="M 1397 -1178 
Q 925 -1178 640 -1065 
Q 356 -953 229 -765 
Q 103 -578 103 -359 
Q 103 -94 329 112 
Q 556 319 1031 403 
L 1128 575 
L 1475 575 
Q 2184 575 2489 376 
Q 2794 178 2794 -238 
Q 2794 -650 2437 -914 
Q 2081 -1178 1397 -1178 
z
M 1384 -800 
Q 1878 -800 2086 -650 
Q 2294 -500 2294 -278 
Q 2294 -147 2225 -51 
Q 2156 44 1975 97 
Q 1794 150 1456 150 
L 1034 150 
Q 819 97 708 -31 
Q 597 -159 597 -328 
Q 597 -516 778 -658 
Q 959 -800 1384 -800 
z
M 1025 216 
Q 722 228 550 312 
Q 378 397 306 511 
Q 234 625 234 722 
Q 234 866 362 1009 
Q 491 1153 772 1241 
L 1038 1069 
Q 866 1031 772 953 
Q 678 875 678 791 
Q 678 731 734 682 
Q 791 634 928 606 
Q 1066 578 1303 575 
L 1025 216 
z
M 1363 984 
Q 1003 984 753 1128 
Q 503 1272 375 1509 
Q 247 1747 247 2022 
Q 247 2313 376 2550 
Q 506 2788 754 2928 
Q 1003 3069 1366 3069 
Q 1738 3069 1983 2928 
Q 2228 2788 2351 2550 
Q 2475 2313 2475 2022 
Q 2475 1741 2350 1505 
Q 2225 1269 1979 1126 
Q 1734 984 1363 984 
z
M 1366 1341 
Q 1641 1341 1812 1512 
Q 1984 1684 1984 2022 
Q 1984 2375 1817 2545 
Q 1650 2716 1372 2716 
Q 1094 2716 919 2541 
Q 744 2366 744 2025 
Q 744 1681 931 1511 
Q 1119 1341 1366 1341 
z
M 2131 2734 
L 1922 2931 
Q 2038 3225 2252 3331 
Q 2466 3438 2794 3447 
L 2794 3006 
Q 2588 3006 2416 2961 
Q 2244 2916 2131 2734 
z
" transform="scale(0.015625)"/>
       <path id="AptosDisplay-68" d="M 413 0 
L 413 4206 
L 931 4206 
L 931 2575 
Q 1069 2756 1317 2914 
Q 1566 3072 1950 3072 
Q 2428 3072 2637 2783 
Q 2847 2494 2847 1963 
L 2847 0 
L 2328 0 
L 2328 1891 
Q 2328 2106 2287 2275 
Q 2247 2444 2139 2539 
Q 2031 2634 1822 2634 
Q 1503 2634 1284 2482 
Q 1066 2331 934 2156 
L 934 0 
L 413 0 
z
" transform="scale(0.015625)"/>
       <path id="AptosDisplay-74" d="M 1466 0 
Q 1100 0 901 117 
Q 703 234 629 454 
Q 556 675 556 984 
L 556 2622 
L 50 2622 
L 50 3044 
L 556 3044 
L 556 3741 
L 1078 3741 
L 1078 3044 
L 1831 3044 
L 1831 2622 
L 1078 2622 
L 1078 1009 
Q 1078 725 1151 575 
Q 1225 425 1500 425 
L 1831 425 
L 1831 0 
L 1466 0 
z
" transform="scale(0.015625)"/>
       <path id="AptosDisplay-57" d="M 1216 0 
L -13 4206 
L 575 4206 
L 1525 697 
L 2531 4206 
L 3156 4206 
L 4163 697 
L 5119 4206 
L 5681 4206 
L 4453 0 
L 3866 0 
L 2831 3556 
L 1813 0 
L 1216 0 
z
" transform="scale(0.015625)"/>
       <path id="AptosDisplay-2f" d="M 72 0 
L 1603 4206 
L 2100 4206 
L 569 0 
L 72 0 
z
" transform="scale(0.015625)"/>
       <path id="AptosDisplay-5e" d="M 428 2438 
L 1459 4206 
L 1884 4206 
L 2916 2438 
L 2366 2438 
L 1672 3650 
L 978 2438 
L 428 2438 
z
" transform="scale(0.015625)"/>
      </defs>
      <use xlink:href="#AptosDisplay-4c"/>
      <use xlink:href="#AptosDisplay-69" x="48.4375"/>
      <use xlink:href="#AptosDisplay-67" x="69.482422"/>
      <use xlink:href="#AptosDisplay-68" x="113.427734"/>
      <use xlink:href="#AptosDisplay-74" x="164.013672"/>
      <use xlink:href="#AptosDisplay-20" x="194.384766"/>
      <use xlink:href="#AptosDisplay-28" x="213.671875"/>
      <use xlink:href="#AptosDisplay-57" x="243.115234"/>
      <use xlink:href="#AptosDisplay-2f" x="331.689453"/>
      <use xlink:href="#AptosDisplay-6d" x="365.625"/>
      <use xlink:href="#AptosDisplay-5e" x="445.605469"/>
      <use xlink:href="#AptosDisplay-32" x="497.900391"/>
      <use xlink:href="#AptosDisplay-29" x="550.195312"/>
     </g>
    </g>
   </g>
   <g id="line2d_125">
    <path d="M 125.717614 88.352316 
L 126.330012 88.352316 
L 126.942411 87.937791 
L 127.554809 86.487427 
L 128.167208 86.280164 
L 128.779607 88.76637 
L 129.392005 85.244324 
L 130.004404 89.180894 
L 130.616802 90.216735 
L 131.229201 86.487427 
L 131.8416 88.352316 
L 132.453998 88.145053 
L 133.066397 87.523267 
L 133.678795 87.730529 
L 134.291194 86.487427 
L 134.903593 88.145053 
L 135.515991 86.901951 
L 136.12839 87.108743 
L 136.740788 84.8298 
L 137.353187 86.694689 
L 137.965586 86.487427 
L 138.577984 86.901951 
L 139.190383 86.901951 
L 139.802781 87.108743 
L 140.41518 86.694689 
L 141.027579 85.244324 
L 141.639977 85.86564 
L 142.252376 86.072902 
L 142.864775 84.622538 
L 143.477173 85.037062 
L 144.089572 85.037062 
L 144.70197 83.793959 
L 145.314369 83.793959 
L 145.926768 85.037062 
L 146.539166 84.001221 
L 147.151565 84.415275 
L 147.763963 85.244324 
L 148.376362 84.001221 
L 148.988761 84.622538 
L 149.601159 84.415275 
L 150.213558 84.001221 
L 150.825956 82.964911 
L 151.438355 82.343594 
L 152.050754 82.343594 
L 152.663152 81.514546 
L 153.887949 80.685967 
L 154.500348 81.721808 
L 155.112747 80.478705 
L 155.725145 77.9925 
L 156.337544 78.613816 
L 156.949942 78.821078 
L 157.562341 77.9925 
L 158.17474 77.9925 
L 158.787138 79.650127 
L 159.399537 79.857389 
L 160.011935 80.89323 
L 160.624334 80.271443 
L 161.236733 79.028341 
L 161.849131 80.064181 
L 163.073928 80.478705 
L 163.686327 81.721808 
L 164.298726 81.307284 
L 164.911124 78.199762 
L 165.523523 81.92907 
L 166.135921 79.857389 
L 166.74832 83.172173 
L 167.360719 82.550856 
L 167.973117 82.550856 
L 168.585516 81.721808 
L 170.422712 82.343594 
L 171.03511 81.721808 
L 171.647509 80.685967 
L 172.259907 80.685967 
L 172.872306 81.721808 
L 173.484705 80.89323 
L 174.097103 80.89323 
L 174.709502 80.064181 
L 175.3219 79.857389 
L 175.934299 80.271443 
L 176.546698 80.271443 
L 177.159096 81.307284 
L 177.771495 81.721808 
L 178.383893 82.343594 
L 178.996292 81.307284 
L 179.608691 79.857389 
L 180.221089 83.172173 
L 180.833488 81.721808 
L 181.445886 82.550856 
L 182.670684 83.793959 
L 183.283082 82.136332 
L 183.895481 88.145053 
L 184.507879 82.757649 
L 185.120278 82.550856 
L 185.732677 81.92907 
L 186.345075 83.172173 
L 186.957474 83.172173 
L 187.569872 83.586697 
L 188.182271 84.208013 
L 188.79467 83.793959 
L 189.407068 84.415275 
L 190.019467 84.622538 
L 190.631865 84.622538 
L 191.244264 85.037062 
L 191.856663 86.072902 
L 192.469061 85.86564 
L 193.08146 84.208013 
L 193.693858 85.244324 
L 194.306257 85.451586 
L 194.918656 85.244324 
L 195.531054 86.487427 
L 196.143453 86.280164 
L 196.755852 86.487427 
L 197.36825 86.072902 
L 197.980649 86.280164 
L 198.593047 86.280164 
L 199.205446 87.730529 
L 199.817845 87.937791 
L 200.430243 87.730529 
L 201.042642 88.973632 
L 201.65504 88.973632 
L 202.267439 90.216735 
L 202.879838 89.388156 
L 203.492236 91.874362 
L 204.104635 90.423997 
L 204.717033 91.667099 
L 205.329432 90.838521 
L 205.941831 92.081624 
L 206.554229 92.496148 
L 207.166628 92.70341 
L 207.779026 93.946513 
L 208.391425 93.946513 
L 209.003824 93.324726 
L 209.616222 94.775091 
L 210.228621 94.775091 
L 210.841019 96.225456 
L 211.453418 99.954764 
L 212.065817 87.730529 
L 212.678215 99.54071 
L 213.290614 99.954764 
L 214.515411 101.198337 
L 215.12781 102.234177 
L 215.740208 103.891804 
L 216.352607 104.720382 
L 216.965005 105.134907 
L 218.189803 105.134907 
L 218.802201 109.486001 
L 219.4146 112.179468 
L 220.026998 125.647276 
L 220.636335 425.664584 
L 221.248734 429.808416 
L 221.861132 429.808416 
L 222.473531 429.601154 
L 223.085929 428.979838 
L 223.698328 427.114949 
L 224.310727 426.907687 
L 224.923125 426.907687 
L 226.147922 421.934806 
L 226.760321 324.553573 
L 227.375782 106.999796 
L 227.98818 114.458412 
L 228.600579 108.035636 
L 229.212977 109.900525 
L 229.825376 110.729104 
L 230.437775 114.665674 
L 231.047111 359.984114 
L 231.65951 419.863125 
L 232.271908 408.674731 
L 232.884307 422.142068 
L 233.496706 419.448601 
L 234.109104 366.614152 
L 234.724565 117.980928 
L 235.336963 118.602714 
L 235.9463 311.293028 
L 236.558699 423.385171 
L 237.171097 424.421481 
L 237.783496 427.114949 
L 239.008293 435.402613 
L 239.620692 438.096081 
L 240.845489 441.204072 
L 241.457887 443.483016 
L 242.070286 446.591007 
L 243.907482 460.887393 
L 244.51988 464.202647 
L 245.744678 468.553741 
L 246.357076 473.31936 
L 248.194272 476.841406 
L 248.806671 475.183779 
L 249.419069 481.1925 
L 250.031468 467.103376 
L 250.643867 473.112098 
L 251.256265 472.697573 
L 251.868664 464.617171 
L 252.481062 460.058815 
L 253.093461 450.528047 
L 253.70586 463.166806 
L 254.318258 462.54502 
L 254.930657 458.815712 
L 256.155454 445.762429 
L 256.767853 437.267502 
L 257.380251 438.925129 
L 257.99265 433.537724 
L 258.60811 149.681691 
L 259.220509 118.18819 
L 259.832908 113.837095 
L 260.445306 115.28746 
L 261.057705 117.566403 
L 261.670103 228.000919 
L 262.282502 144.087494 
L 262.894901 113.629833 
L 263.507299 114.872936 
L 264.119698 111.143628 
L 264.732096 127.097641 
L 265.341433 410.125096 
L 265.953832 415.51203 
L 266.56623 418.620022 
L 267.178629 416.547871 
L 267.791027 406.188055 
L 268.406488 121.088919 
L 269.018887 114.044357 
L 269.631285 114.044357 
L 270.243684 133.313154 
L 270.85302 418.205498 
L 271.465419 423.385171 
L 272.077818 424.006957 
L 272.693278 133.520416 
L 273.305677 116.323301 
L 273.915013 359.56959 
L 274.530474 135.592567 
L 275.142873 119.845817 
L 275.755271 119.22403 
L 276.364608 409.296047 
L 276.977006 428.565314 
L 277.589405 430.015678 
L 278.201804 428.772576 
L 278.814202 427.114949 
L 279.426601 420.898965 
L 280.042061 148.231326 
L 280.65446 120.053079 
L 281.266859 119.22403 
L 281.879257 115.28746 
L 282.491656 113.629833 
L 283.716453 105.756693 
L 284.328852 104.927645 
L 284.94125 104.927645 
L 285.553649 106.378009 
L 286.166047 112.593993 
L 286.775384 402.458747 
L 287.387783 428.358051 
L 288.000181 417.584182 
L 288.61258 428.772576 
L 289.224978 432.709146 
L 289.837377 435.402613 
L 290.449776 436.852978 
L 291.062174 442.861699 
L 291.674573 462.54502 
L 292.286971 437.682026 
L 293.511769 435.817137 
L 294.124167 434.159511 
L 294.736566 433.12367 
L 295.961363 430.22294 
L 296.573762 428.358051 
L 297.18616 428.565314 
L 297.798559 404.530899 
L 298.414019 108.45016 
L 299.026418 104.927645 
L 299.638817 102.441439 
L 300.251215 100.783812 
L 300.863614 99.954764 
L 302.70081 106.999796 
L 303.313208 108.45016 
L 303.925607 105.342169 
L 304.538006 103.684542 
L 305.150404 104.720382 
L 305.762803 106.792534 
L 306.375201 115.494722 
L 306.984538 354.803972 
L 307.599999 111.557682 
L 308.209335 271.511863 
L 310.661992 108.45016 
L 311.27439 110.314579 
L 311.883727 313.986966 
L 312.496125 415.51203 
L 313.108524 411.57546 
L 313.720923 307.149196 
L 314.336383 112.386731 
L 314.948782 105.134907 
L 315.56118 102.441439 
L 316.173579 99.126185 
L 317.398376 94.360567 
L 318.010775 93.324726 
L 318.623173 94.567829 
L 319.235572 95.396877 
L 319.847971 98.711661 
L 320.460369 106.792534 
L 321.069706 397.693129 
L 321.682104 432.709146 
L 322.294503 433.537724 
L 322.906902 432.087359 
L 323.5193 431.258781 
L 324.134761 114.665674 
L 324.747159 100.991074 
L 325.359558 98.090345 
L 325.971957 96.847242 
L 326.584355 99.333448 
L 327.196754 101.198337 
L 327.809152 107.206588 
L 328.418489 426.079108 
L 329.030888 431.673305 
L 329.643286 431.258781 
L 330.255685 434.159511 
L 330.868083 430.430203 
L 331.483544 157.140777 
L 332.095943 111.143628 
L 332.708341 110.936366 
L 333.32074 108.864215 
L 334.545537 103.891804 
L 335.157936 104.720382 
L 335.770334 113.008047 
L 336.379671 422.34933 
L 336.992069 428.150789 
L 337.604468 432.087359 
L 338.216867 433.330932 
L 338.829265 438.510605 
L 339.441664 426.079108 
L 340.057124 110.936366 
L 340.669523 104.099066 
L 341.281922 99.747972 
L 341.89432 97.261296 
L 343.119117 95.189615 
L 343.731516 96.225456 
L 344.343915 96.225456 
L 344.956313 95.396877 
L 345.568712 86.280164 
L 346.18111 94.360567 
L 346.793509 97.054504 
L 347.405908 94.567829 
L 348.018306 93.117464 
L 348.630705 94.567829 
L 349.243103 94.567829 
L 349.855502 94.982353 
L 350.467901 94.360567 
L 351.692698 95.189615 
L 352.305097 95.396877 
L 352.917495 96.018194 
L 353.529894 96.847242 
L 354.142292 97.468559 
L 355.36709 99.126185 
L 355.979488 94.567829 
L 356.591887 99.954764 
L 357.204285 102.234177 
L 357.816684 103.684542 
L 358.429083 101.612391 
L 359.041481 101.612391 
L 359.65388 101.198337 
L 360.266278 101.819653 
L 360.878677 100.783812 
L 362.103474 100.783812 
L 363.94067 100.162026 
L 364.553069 98.297607 
L 365.165467 98.918923 
L 365.777866 98.711661 
L 366.390264 98.711661 
L 367.002663 97.883083 
L 367.615062 98.711661 
L 368.22746 98.297607 
L 368.839859 97.468559 
L 369.452257 97.054504 
L 370.064656 97.261296 
L 370.677055 96.63998 
L 371.289453 87.523267 
L 371.901852 96.432718 
L 372.51425 95.189615 
L 373.126649 95.396877 
L 373.739048 94.153775 
L 374.963845 93.324726 
L 375.576243 92.288886 
L 376.188642 90.838521 
L 376.801041 91.253045 
L 377.413439 89.80268 
L 378.025838 90.631259 
L 378.638236 89.595418 
L 379.250635 89.180894 
L 379.863034 90.838521 
L 380.475432 90.423997 
L 381.087831 89.595418 
L 381.700229 86.487427 
L 382.312628 89.595418 
L 382.925027 90.009473 
L 383.537425 91.459837 
L 384.149824 91.253045 
L 384.762222 90.631259 
L 385.374621 91.253045 
L 385.98702 91.459837 
L 386.599418 91.874362 
L 387.824215 90.631259 
L 388.436614 92.496148 
L 389.049013 91.667099 
L 389.661411 92.70341 
L 390.27381 93.117464 
L 390.886208 93.117464 
L 391.498607 92.70341 
L 392.111006 93.117464 
L 392.723404 93.739251 
L 393.335803 93.324726 
L 393.948201 94.360567 
L 394.5606 93.946513 
L 395.172999 94.153775 
L 395.785397 93.739251 
L 396.397796 94.153775 
L 397.013256 93.117464 
L 398.238054 94.360567 
L 398.84739 94.360567 
L 399.459789 93.946513 
L 400.684586 103.062756 
L 401.296985 110.107317 
L 401.906321 420.898965 
L 402.51872 423.178379 
L 403.134181 107.828374 
L 403.746579 99.747972 
L 404.358978 93.739251 
L 404.971376 94.775091 
L 405.583775 94.153775 
L 406.196174 93.946513 
L 406.808572 95.396877 
L 408.033369 103.270018 
L 408.642706 420.070387 
L 409.255105 428.358051 
L 409.867503 428.565314 
L 410.479902 425.042798 
L 411.095362 111.764944 
L 411.707761 97.468559 
L 412.32016 98.711661 
L 412.932558 98.918923 
L 414.157355 97.261296 
L 414.769754 99.747972 
L 415.382153 99.747972 
L 415.994551 95.396877 
L 416.60695 98.297607 
L 417.219348 98.504869 
L 417.831747 98.297607 
L 418.447208 100.369288 
L 419.056544 100.162026 
L 420.281341 105.342169 
L 420.89374 106.170747 
L 421.503077 293.889121 
L 422.115475 432.916408 
L 422.727874 324.139519 
L 423.343334 106.170747 
L 423.955733 105.549431 
L 424.568132 106.585271 
L 425.18053 113.215309 
L 425.792929 112.386731 
L 426.405327 112.593993 
L 427.017726 109.693263 
L 427.630125 110.729104 
L 428.242523 112.593993 
L 428.854922 116.323301 
L 429.46732 123.575125 
L 430.076657 429.808416 
L 430.689056 430.015678 
L 431.301454 438.096081 
L 431.913853 316.265909 
L 432.529313 113.837095 
L 433.141712 110.936366 
L 433.754111 109.693263 
L 434.366509 110.107317 
L 434.978908 111.557682 
L 435.591306 112.179468 
L 436.816104 114.044357 
L 437.428502 116.323301 
L 438.040901 117.152349 
L 438.653299 118.602714 
L 439.26876 119.016768 
L 439.881159 119.845817 
L 440.493557 121.503444 
L 441.105956 121.503444 
L 441.718354 121.710236 
L 442.330753 122.953808 
L 442.943152 122.953808 
L 443.55555 123.782387 
L 444.167949 123.575125 
L 444.780347 123.782387 
L 445.392746 124.404173 
L 446.005145 124.404173 
L 446.617543 125.232752 
L 447.229942 125.440014 
L 447.84234 124.818227 
L 448.454739 125.440014 
L 449.067138 125.647276 
L 449.679536 127.097641 
L 450.291935 125.647276 
L 450.904333 125.440014 
L 451.516732 125.440014 
L 452.129131 125.232752 
L 452.741529 125.440014 
L 453.353928 122.953808 
L 453.966326 123.367863 
L 454.578725 123.367863 
L 455.191124 121.917498 
L 455.803522 122.12476 
L 456.415921 122.12476 
L 457.640718 120.467133 
L 458.865515 120.053079 
L 459.477914 120.674395 
L 460.090313 120.467133 
L 460.702711 122.12476 
L 461.31511 121.296181 
L 461.927508 121.296181 
L 462.539907 122.746546 
L 463.152306 118.809506 
L 463.764704 125.440014 
L 464.377103 123.989649 
L 464.989501 123.989649 
L 465.6019 124.818227 
L 466.214299 126.268592 
L 466.826697 125.854068 
L 467.439096 127.097641 
L 468.051494 127.304433 
L 468.663893 128.754797 
L 469.276292 128.754797 
L 469.88869 129.169322 
L 471.113487 129.169322 
L 472.338285 131.448735 
L 472.950683 131.655527 
L 473.563082 131.448735 
L 474.17548 131.448735 
L 474.787879 133.105892 
L 475.400278 134.142202 
L 476.012676 134.763519 
L 476.625075 135.178043 
L 477.237473 136.628408 
L 477.849872 138.700559 
L 478.462271 138.700559 
L 479.074669 137.87151 
L 479.687068 162.113187 
L 480.299466 139.736399 
L 480.911865 140.150924 
L 481.524264 138.700559 
L 482.136662 139.321875 
L 482.749061 139.529137 
L 483.361459 141.186764 
L 483.973858 141.808081 
L 484.586257 141.394026 
L 485.198655 141.601288 
L 486.423452 143.67297 
L 487.035851 143.67297 
L 487.64825 143.051653 
L 488.260648 142.015343 
L 488.873047 142.637129 
L 489.485445 144.916072 
L 490.097844 146.159175 
L 490.710243 142.015343 
L 491.322641 141.186764 
L 491.93504 142.429867 
L 492.547438 139.943661 
L 493.159837 142.015343 
L 495.609431 142.222605 
L 496.22183 143.465707 
L 496.834229 143.465707 
L 497.446627 144.087494 
L 498.059026 145.952383 
L 498.671424 145.330596 
L 499.283823 144.916072 
L 499.896222 144.916072 
L 500.50862 145.123334 
L 501.121019 146.366437 
L 502.345816 145.952383 
L 502.958215 145.537859 
L 503.570613 146.366437 
L 504.183012 146.780961 
L 504.79541 147.60954 
L 505.407809 147.195485 
L 506.020208 155.068626 
L 506.632606 145.952383 
L 507.245005 146.573699 
L 507.857403 146.780961 
L 509.082201 147.60954 
L 509.694599 147.60954 
L 510.306998 148.231326 
L 510.919397 149.474429 
L 511.531795 148.64585 
L 512.144194 149.267167 
L 513.368991 150.096215 
L 513.98139 150.717531 
L 514.593788 151.753372 
L 515.206187 151.753372 
L 515.818585 152.167896 
L 517.043383 153.825523 
L 517.655781 154.032785 
L 518.26818 153.410999 
L 518.880578 154.654101 
L 519.492977 155.068626 
L 520.105376 155.275888 
L 520.717774 156.726253 
L 521.330173 157.348039 
L 521.942571 157.348039 
L 522.55497 158.383879 
L 523.167369 158.383879 
L 523.779767 159.834244 
L 524.392166 160.455561 
L 525.004564 160.248768 
L 525.616963 158.591142 
L 526.229362 161.905925 
L 526.84176 161.905925 
L 527.454159 160.870085 
L 528.066557 160.248768 
L 528.678956 158.591142 
L 529.291355 160.455561 
L 529.903753 157.554831 
L 530.516152 157.762093 
L 531.12855 158.176617 
L 531.740949 155.897674 
L 532.353348 156.104466 
L 532.965746 155.690412 
L 533.578145 156.104466 
L 534.190543 151.753372 
L 534.802942 155.275888 
L 535.415341 154.861364 
L 536.027739 153.203737 
L 536.640138 154.240047 
L 537.252536 154.654101 
L 537.864935 153.825523 
L 539.089732 150.303477 
L 539.702131 149.681691 
L 541.539327 145.745121 
L 542.151725 143.051653 
L 542.764124 143.880232 
L 543.988921 142.637129 
L 544.60132 141.394026 
L 545.213718 143.051653 
L 545.826117 141.808081 
L 546.438515 143.67297 
L 547.050914 142.429867 
L 547.663313 143.258445 
L 548.275711 143.258445 
L 548.88811 144.294756 
L 549.500508 144.087494 
L 550.112907 145.952383 
L 550.725306 145.745121 
L 551.337704 144.916072 
L 551.950103 145.330596 
L 552.562501 144.70881 
L 553.787299 143.880232 
L 554.399697 144.087494 
L 555.624494 143.67297 
L 556.236893 143.258445 
L 556.849292 142.429867 
L 557.46169 142.844391 
L 558.074089 142.637129 
L 558.686487 139.943661 
L 559.298886 143.67297 
L 559.911285 142.637129 
L 560.523683 139.736399 
L 561.748481 139.736399 
L 562.360879 138.700559 
L 562.973278 138.286035 
L 563.585676 138.493297 
L 564.198075 137.042932 
L 564.810474 137.042932 
L 565.422872 136.83567 
L 566.035271 135.592567 
L 566.647669 137.042932 
L 567.260068 140.150924 
L 567.872467 136.213883 
L 568.484865 136.006621 
L 569.097264 136.421146 
L 569.709662 135.799829 
L 570.322061 128.548005 
L 570.93446 136.213883 
L 572.159257 137.456986 
L 572.771655 137.664248 
L 573.384054 136.421146 
L 573.996453 139.736399 
L 574.608851 139.943661 
L 575.22125 144.087494 
L 575.833648 139.943661 
L 576.446047 140.564978 
L 577.058446 141.394026 
L 577.670844 141.394026 
L 578.283243 141.808081 
L 578.895641 141.601288 
L 579.50804 141.601288 
L 580.120439 141.394026 
L 580.732837 142.015343 
L 581.345236 139.736399 
L 581.957634 143.051653 
L 582.570033 142.015343 
L 583.182432 142.637129 
L 583.79483 142.844391 
L 584.407229 143.465707 
L 585.019627 145.330596 
L 585.632026 144.70881 
L 586.244425 144.916072 
L 586.856823 150.096215 
L 587.469222 149.681691 
L 588.08162 150.717531 
L 588.694019 152.996945 
L 589.306418 153.410999 
L 589.918816 155.068626 
L 590.531215 155.275888 
L 591.143613 155.897674 
L 592.368411 158.591142 
L 592.980809 158.591142 
L 593.593208 157.762093 
L 594.818005 161.491871 
L 595.430404 158.383879 
L 596.655201 158.798404 
L 597.267599 159.41972 
L 597.879998 159.005196 
L 598.492397 159.005196 
L 599.104795 159.626982 
L 599.717194 159.834244 
L 600.329592 159.626982 
L 600.941991 159.626982 
L 601.55439 160.041506 
L 602.166788 160.662823 
L 602.779187 160.455561 
L 603.391585 161.284609 
L 604.003984 160.870085 
L 604.616383 160.041506 
L 605.228781 160.041506 
L 605.84118 161.491871 
L 606.453578 160.248768 
L 607.065977 161.077347 
L 607.678376 160.662823 
L 608.903173 161.077347 
L 609.515571 161.699133 
L 610.12797 161.905925 
L 610.740369 164.185339 
L 611.352767 163.563552 
L 611.965166 163.978076 
L 612.577564 164.806655 
L 613.189963 165.842965 
L 613.802362 165.635703 
L 614.41476 163.35629 
L 615.027159 163.978076 
L 615.639558 163.978076 
L 616.251956 163.35629 
L 616.864355 162.113187 
L 617.476753 163.35629 
L 618.089152 163.35629 
L 618.701551 160.248768 
L 619.313949 162.942236 
L 619.926348 160.662823 
L 620.538746 163.149498 
L 621.151145 163.978076 
L 621.763544 163.563552 
L 622.375942 165.013917 
L 622.988341 165.428441 
L 623.600739 168.329171 
L 624.213138 166.878806 
L 624.825537 165.842965 
L 625.437935 165.221179 
L 626.050334 165.221179 
L 626.662732 164.392601 
L 627.275131 164.185339 
L 627.88753 165.635703 
L 628.499928 163.35629 
L 629.112327 162.942236 
L 629.724725 162.734974 
L 630.337124 162.113187 
L 630.949523 161.905925 
L 631.561921 162.734974 
L 632.17432 165.428441 
L 632.786718 165.635703 
L 633.399117 168.121909 
L 634.011516 168.536433 
L 634.623914 169.779536 
L 635.236313 172.473003 
L 636.46111 175.373733 
L 637.073509 174.337892 
L 637.685907 175.580995 
L 638.298306 175.373733 
L 639.523103 173.301582 
L 640.135502 171.644425 
L 640.7479 169.572274 
L 641.972697 165.013917 
L 642.585096 163.563552 
L 643.197495 160.870085 
L 643.809893 159.212458 
L 645.647089 152.996945 
L 646.259488 151.960634 
L 646.871886 152.167896 
L 647.484285 148.64585 
L 648.096683 146.988223 
L 648.709082 144.916072 
L 649.321481 144.916072 
L 649.933879 142.844391 
L 650.546278 141.186764 
L 651.158676 140.357716 
L 652.383474 137.87151 
L 652.995872 137.042932 
L 653.608271 136.628408 
L 654.220669 135.799829 
L 654.833068 149.267167 
L 655.445467 135.385305 
L 656.057865 262.188358 
L 656.670264 141.394026 
L 657.282662 140.979502 
L 657.895061 137.042932 
L 658.504398 415.304768 
L 659.119858 136.83567 
L 659.732257 139.321875 
L 660.344655 128.96206 
L 660.957054 130.412424 
L 661.569453 130.619686 
L 662.181851 130.619686 
L 662.79425 131.034211 
L 663.406648 133.105892 
L 664.019047 133.727678 
L 664.631446 135.385305 
L 665.243844 133.93494 
L 665.856243 163.149498 
L 666.468642 139.943661 
L 667.08104 141.186764 
L 667.693439 142.844391 
L 668.305837 143.258445 
L 669.530635 142.844391 
L 670.143033 143.051653 
L 670.755432 141.808081 
L 671.36783 139.529137 
L 671.980229 139.321875 
L 672.592628 138.078772 
L 673.205026 157.348039 
L 673.817425 135.592567 
L 674.423699 462.54502 
L 675.036098 443.89754 
L 676.263957 396.450026 
L 676.879418 152.58242 
L 677.491816 141.601288 
L 678.104215 136.213883 
L 680.553809 132.8991 
L 681.166208 133.105892 
L 681.778607 133.727678 
L 682.391005 132.691838 
L 683.003404 178.0672 
L 683.615802 137.664248 
L 684.225139 445.555167 
L 684.8406 131.862789 
L 685.452998 136.006621 
L 686.065397 135.799829 
L 686.677795 131.241473 
L 687.290194 128.548005 
L 687.902593 127.097641 
L 688.514991 127.097641 
L 689.12739 127.718957 
L 689.739788 128.754797 
L 690.352187 128.754797 
L 691.576984 129.583846 
L 692.189383 129.583846 
L 694.026579 131.448735 
L 694.638977 132.484575 
L 695.251376 132.277313 
L 695.863774 132.8991 
L 696.476173 136.213883 
L 697.70097 140.357716 
L 698.313369 140.564978 
L 698.925767 141.394026 
L 700.150565 139.321875 
L 700.762963 136.83567 
L 701.375362 138.700559 
L 701.98776 139.321875 
L 702.600159 139.736399 
L 703.212558 141.186764 
L 703.824956 141.186764 
L 705.049753 143.67297 
L 705.662152 141.808081 
L 706.274551 143.051653 
L 706.886949 142.222605 
L 707.499348 142.844391 
L 708.111746 142.429867 
L 708.724145 142.222605 
L 709.336544 140.150924 
L 709.948942 140.564978 
L 710.561341 140.564978 
L 711.173739 139.529137 
L 711.786138 140.357716 
L 712.398537 139.736399 
L 713.010935 137.250194 
L 713.623334 137.042932 
L 714.235732 136.628408 
L 714.848131 136.006621 
L 715.46053 134.142202 
L 716.072928 134.970781 
L 716.685327 133.727678 
L 717.297725 133.93494 
L 717.910124 133.727678 
L 718.522523 133.93494 
L 719.134921 132.277313 
L 719.74732 133.313154 
L 720.359719 134.970781 
L 720.972117 132.8991 
L 721.584516 131.448735 
L 722.196914 133.105892 
L 722.809313 132.484575 
L 723.421712 130.619686 
L 724.03411 130.412424 
L 724.646509 129.583846 
L 725.258907 131.862789 
L 725.871306 130.412424 
L 726.483705 130.412424 
L 727.096103 129.583846 
L 727.708502 130.619686 
L 728.3209 129.791108 
L 728.933299 129.169322 
L 729.545698 130.205162 
L 730.158096 130.205162 
L 730.770495 128.96206 
L 731.382893 129.169322 
L 732.607691 127.304433 
L 733.220089 126.890378 
L 733.832488 126.268592 
L 734.444886 126.683116 
L 734.444886 126.683116 
" clip-path="url(#p9bc75e57ba)" style="fill: none; stroke: #ac2b37; stroke-width: 1.5; stroke-linecap: square"/>
   </g>
   <g id="patch_3">
    <path d="M 95.28125 501.3525 
L 95.28125 57.8325 
" style="fill: none; stroke: #000000; stroke-width: 0.8; stroke-linejoin: miter; stroke-linecap: square"/>
   </g>
   <g id="patch_4">
    <path d="M 764.88125 501.3525 
L 764.88125 57.8325 
" style="fill: none; stroke: #000000; stroke-width: 0.8; stroke-linejoin: miter; stroke-linecap: square"/>
   </g>
   <g id="patch_5">
    <path d="M 95.28125 501.3525 
L 764.88125 501.3525 
" style="fill: none; stroke: #000000; stroke-width: 0.8; stroke-linejoin: miter; stroke-linecap: square"/>
   </g>
   <g id="patch_6">
    <path d="M 95.28125 57.8325 
L 764.88125 57.8325 
" style="fill: none; stroke: #000000; stroke-width: 0.8; stroke-linejoin: miter; stroke-linecap: square"/>
   </g>
   <g id="text_17">
    <!-- Light vs Time -->
    <g transform="translate(367.59875 51.8325) scale(0.24 -0.24)">
     <defs>
      <path id="AptosDisplay-76" d="M 1103 0 
L -13 3044 
L 538 3044 
L 1391 513 
L 2250 3044 
L 2781 3044 
L 1678 0 
L 1103 0 
z
" transform="scale(0.015625)"/>
      <path id="AptosDisplay-73" d="M 1506 -41 
Q 1247 -41 1017 14 
Q 788 69 613 191 
Q 438 313 339 506 
Q 241 700 241 978 
L 744 978 
Q 744 628 966 487 
Q 1188 347 1519 347 
Q 1816 347 2008 458 
Q 2200 569 2200 822 
Q 2200 1047 2026 1153 
Q 1853 1259 1413 1369 
Q 1056 1453 815 1564 
Q 575 1675 453 1845 
Q 331 2016 331 2275 
Q 331 2475 417 2626 
Q 503 2778 658 2879 
Q 813 2981 1020 3032 
Q 1228 3084 1472 3084 
Q 1713 3084 1923 3028 
Q 2134 2972 2296 2855 
Q 2459 2738 2551 2552 
Q 2644 2366 2644 2109 
L 2138 2109 
Q 2138 2425 1945 2558 
Q 1753 2691 1472 2691 
Q 1191 2691 1016 2594 
Q 841 2497 841 2291 
Q 841 2169 919 2084 
Q 997 2000 1181 1933 
Q 1366 1866 1675 1791 
Q 2019 1709 2248 1596 
Q 2478 1484 2595 1306 
Q 2713 1128 2713 847 
Q 2713 616 2622 447 
Q 2531 278 2367 170 
Q 2203 63 1983 11 
Q 1763 -41 1506 -41 
z
" transform="scale(0.015625)"/>
     </defs>
     <use xlink:href="#AptosDisplay-4c"/>
     <use xlink:href="#AptosDisplay-69" x="48.4375"/>
     <use xlink:href="#AptosDisplay-67" x="69.482422"/>
     <use xlink:href="#AptosDisplay-68" x="113.427734"/>
     <use xlink:href="#AptosDisplay-74" x="164.013672"/>
     <use xlink:href="#AptosDisplay-20" x="194.384766"/>
     <use xlink:href="#AptosDisplay-76" x="213.671875"/>
     <use xlink:href="#AptosDisplay-73" x="256.933594"/>
     <use xlink:href="#AptosDisplay-20" x="303.222656"/>
     <use xlink:href="#AptosDisplay-54" x="322.509766"/>
     <use xlink:href="#AptosDisplay-69" x="370.214844"/>
     <use xlink:href="#AptosDisplay-6d" x="391.259766"/>
     <use xlink:href="#AptosDisplay-65" x="471.240234"/>
    </g>
   </g>
  </g>
 </g>
 <defs>
  <clipPath id="p9bc75e57ba">
   <rect x="95.28125" y="57.8325" width="669.6" height="443.52"/>
  </clipPath>
 </defs>
</svg>
