<?xml version="1.0" encoding="utf-8" standalone="no"?>
<!DOCTYPE svg PUBLIC "-//W3C//DTD SVG 1.1//EN"
  "http://www.w3.org/Graphics/SVG/1.1/DTD/svg11.dtd">
<svg xmlns:xlink="http://www.w3.org/1999/xlink" width="790.265625pt" height="581.830625pt" viewBox="0 0 790.265625 581.830625" xmlns="http://www.w3.org/2000/svg" version="1.1">
 <metadata>
  <rdf:RDF xmlns:dc="http://purl.org/dc/elements/1.1/" xmlns:cc="http://creativecommons.org/ns#" xmlns:rdf="http://www.w3.org/1999/02/22-rdf-syntax-ns#">
   <cc:Work>
    <dc:type rdf:resource="http://purl.org/dc/dcmitype/StillImage"/>
    <dc:date>2025-04-03T01:48:33.723531</dc:date>
    <dc:format>image/svg+xml</dc:format>
    <dc:creator>
     <cc:Agent>
      <dc:title>Matplotlib v3.8.2, https://matplotlib.org/</dc:title>
     </cc:Agent>
    </dc:creator>
   </cc:Work>
  </rdf:RDF>
 </metadata>
 <defs>
  <style type="text/css">*{stroke-linejoin: round; stroke-linecap: butt}</style>
 </defs>
 <g id="figure_1">
  <g id="patch_1">
   <path d="M 0 581.830625 
L 790.265625 581.830625 
L 790.265625 0 
L 0 0 
z
" style="fill: #ffffff"/>
  </g>
  <g id="axes_1">
   <g id="patch_2">
    <path d="M 84.665625 501.3525 
L 754.265625 501.3525 
L 754.265625 57.8325 
L 84.665625 57.8325 
z
" style="fill: #ffffff"/>
   </g>
   <g id="matplotlib.axis_1">
    <g id="xtick_1">
     <g id="line2d_1">
      <path d="M 114.759045 501.3525 
L 114.759045 57.8325 
" clip-path="url(#p1723fe65fa)" style="fill: none; stroke: #b0b0b0; stroke-opacity: 0.8; stroke-linecap: square"/>
     </g>
     <g id="line2d_2">
      <defs>
       <path id="mf881af43cd" d="M 0 0 
L 0 3.5 
" style="stroke: #000000; stroke-width: 0.8"/>
      </defs>
      <g>
       <use xlink:href="#mf881af43cd" x="114.759045" y="501.3525" style="stroke: #000000; stroke-width: 0.8"/>
      </g>
     </g>
     <g id="text_1">
      <!-- 0 -->
      <g transform="translate(109.529358 521.49625) scale(0.2 -0.2)">
       <defs>
        <path id="AptosDisplay-30" d="M 1672 -56 
Q 1291 -56 1028 105 
Q 766 266 605 552 
Q 444 838 372 1216 
Q 300 1594 300 2031 
Q 300 2475 372 2856 
Q 444 3238 605 3525 
Q 766 3813 1028 3973 
Q 1291 4134 1672 4134 
Q 2053 4134 2317 3975 
Q 2581 3816 2742 3527 
Q 2903 3238 2975 2858 
Q 3047 2478 3047 2038 
Q 3047 1597 2975 1217 
Q 2903 838 2742 552 
Q 2581 266 2318 105 
Q 2056 -56 1672 -56 
z
M 1672 409 
Q 1916 409 2073 550 
Q 2231 691 2322 925 
Q 2413 1159 2448 1448 
Q 2484 1738 2484 2038 
Q 2484 2338 2448 2628 
Q 2413 2919 2322 3153 
Q 2231 3388 2073 3527 
Q 1916 3666 1669 3666 
Q 1428 3666 1268 3527 
Q 1109 3388 1020 3153 
Q 931 2919 893 2628 
Q 856 2338 856 2038 
Q 856 1741 893 1450 
Q 931 1159 1020 925 
Q 1109 691 1268 550 
Q 1428 409 1672 409 
z
" transform="scale(0.015625)"/>
       </defs>
       <use xlink:href="#AptosDisplay-30"/>
      </g>
     </g>
    </g>
    <g id="xtick_2">
     <g id="line2d_3">
      <path d="M 191.308871 501.3525 
L 191.308871 57.8325 
" clip-path="url(#p1723fe65fa)" style="fill: none; stroke: #b0b0b0; stroke-opacity: 0.8; stroke-linecap: square"/>
     </g>
     <g id="line2d_4">
      <g>
       <use xlink:href="#mf881af43cd" x="191.308871" y="501.3525" style="stroke: #000000; stroke-width: 0.8"/>
      </g>
     </g>
     <g id="text_2">
      <!-- 25 -->
      <g transform="translate(180.849496 521.49625) scale(0.2 -0.2)">
       <defs>
        <path id="AptosDisplay-32" d="M 247 0 
L 247 413 
L 1725 1741 
Q 2100 2081 2269 2351 
Q 2438 2622 2438 2938 
Q 2438 3256 2263 3461 
Q 2088 3666 1691 3666 
Q 1247 3666 1055 3439 
Q 863 3213 863 2869 
L 341 2869 
Q 341 3250 491 3534 
Q 641 3819 941 3975 
Q 1241 4131 1691 4131 
Q 2103 4131 2390 3986 
Q 2678 3841 2828 3578 
Q 2978 3316 2978 2959 
Q 2978 2638 2853 2375 
Q 2728 2113 2517 1883 
Q 2306 1653 2044 1425 
L 959 463 
L 3097 463 
L 3097 0 
L 247 0 
z
" transform="scale(0.015625)"/>
        <path id="AptosDisplay-35" d="M 1669 -56 
Q 1278 -56 964 83 
Q 650 222 465 483 
Q 281 744 281 1113 
L 816 1113 
Q 816 778 1055 584 
Q 1294 391 1669 391 
Q 2069 391 2291 625 
Q 2513 859 2513 1319 
Q 2513 1772 2291 1989 
Q 2069 2206 1697 2206 
Q 1409 2206 1223 2123 
Q 1038 2041 916 1894 
L 444 1894 
L 622 4078 
L 2788 4078 
L 2788 3613 
L 1041 3613 
L 931 2322 
Q 1044 2453 1251 2550 
Q 1459 2647 1775 2647 
Q 2131 2647 2420 2506 
Q 2709 2366 2881 2072 
Q 3053 1778 3053 1319 
Q 3053 863 2875 558 
Q 2697 253 2384 98 
Q 2072 -56 1669 -56 
z
" transform="scale(0.015625)"/>
       </defs>
       <use xlink:href="#AptosDisplay-32"/>
       <use xlink:href="#AptosDisplay-35" x="52.294922"/>
      </g>
     </g>
    </g>
    <g id="xtick_3">
     <g id="line2d_5">
      <path d="M 267.858696 501.3525 
L 267.858696 57.8325 
" clip-path="url(#p1723fe65fa)" style="fill: none; stroke: #b0b0b0; stroke-opacity: 0.8; stroke-linecap: square"/>
     </g>
     <g id="line2d_6">
      <g>
       <use xlink:href="#mf881af43cd" x="267.858696" y="501.3525" style="stroke: #000000; stroke-width: 0.8"/>
      </g>
     </g>
     <g id="text_3">
      <!-- 50 -->
      <g transform="translate(257.399321 521.49625) scale(0.2 -0.2)">
       <use xlink:href="#AptosDisplay-35"/>
       <use xlink:href="#AptosDisplay-30" x="52.294922"/>
      </g>
     </g>
    </g>
    <g id="xtick_4">
     <g id="line2d_7">
      <path d="M 344.408521 501.3525 
L 344.408521 57.8325 
" clip-path="url(#p1723fe65fa)" style="fill: none; stroke: #b0b0b0; stroke-opacity: 0.8; stroke-linecap: square"/>
     </g>
     <g id="line2d_8">
      <g>
       <use xlink:href="#mf881af43cd" x="344.408521" y="501.3525" style="stroke: #000000; stroke-width: 0.8"/>
      </g>
     </g>
     <g id="text_4">
      <!-- 75 -->
      <g transform="translate(333.949146 521.49625) scale(0.2 -0.2)">
       <defs>
        <path id="AptosDisplay-37" d="M 766 0 
L 2609 3600 
L 194 3600 
L 194 4078 
L 3141 4078 
L 3141 3622 
L 1334 0 
L 766 0 
z
" transform="scale(0.015625)"/>
       </defs>
       <use xlink:href="#AptosDisplay-37"/>
       <use xlink:href="#AptosDisplay-35" x="52.294922"/>
      </g>
     </g>
    </g>
    <g id="xtick_5">
     <g id="line2d_9">
      <path d="M 420.958347 501.3525 
L 420.958347 57.8325 
" clip-path="url(#p1723fe65fa)" style="fill: none; stroke: #b0b0b0; stroke-opacity: 0.8; stroke-linecap: square"/>
     </g>
     <g id="line2d_10">
      <g>
       <use xlink:href="#mf881af43cd" x="420.958347" y="501.3525" style="stroke: #000000; stroke-width: 0.8"/>
      </g>
     </g>
     <g id="text_5">
      <!-- 100 -->
      <g transform="translate(405.269284 521.49625) scale(0.2 -0.2)">
       <defs>
        <path id="AptosDisplay-31" d="M 1659 0 
L 1659 3425 
Q 1575 3309 1420 3201 
Q 1266 3094 1052 3009 
Q 838 2925 578 2888 
L 578 3381 
Q 834 3425 1057 3540 
Q 1281 3656 1453 3806 
Q 1625 3956 1719 4094 
L 2206 4094 
L 2206 0 
L 1659 0 
z
" transform="scale(0.015625)"/>
       </defs>
       <use xlink:href="#AptosDisplay-31"/>
       <use xlink:href="#AptosDisplay-30" x="52.294922"/>
       <use xlink:href="#AptosDisplay-30" x="104.589844"/>
      </g>
     </g>
    </g>
    <g id="xtick_6">
     <g id="line2d_11">
      <path d="M 497.508172 501.3525 
L 497.508172 57.8325 
" clip-path="url(#p1723fe65fa)" style="fill: none; stroke: #b0b0b0; stroke-opacity: 0.8; stroke-linecap: square"/>
     </g>
     <g id="line2d_12">
      <g>
       <use xlink:href="#mf881af43cd" x="497.508172" y="501.3525" style="stroke: #000000; stroke-width: 0.8"/>
      </g>
     </g>
     <g id="text_6">
      <!-- 125 -->
      <g transform="translate(481.819109 521.49625) scale(0.2 -0.2)">
       <use xlink:href="#AptosDisplay-31"/>
       <use xlink:href="#AptosDisplay-32" x="52.294922"/>
       <use xlink:href="#AptosDisplay-35" x="104.589844"/>
      </g>
     </g>
    </g>
    <g id="xtick_7">
     <g id="line2d_13">
      <path d="M 574.057997 501.3525 
L 574.057997 57.8325 
" clip-path="url(#p1723fe65fa)" style="fill: none; stroke: #b0b0b0; stroke-opacity: 0.8; stroke-linecap: square"/>
     </g>
     <g id="line2d_14">
      <g>
       <use xlink:href="#mf881af43cd" x="574.057997" y="501.3525" style="stroke: #000000; stroke-width: 0.8"/>
      </g>
     </g>
     <g id="text_7">
      <!-- 150 -->
      <g transform="translate(558.368935 521.49625) scale(0.2 -0.2)">
       <use xlink:href="#AptosDisplay-31"/>
       <use xlink:href="#AptosDisplay-35" x="52.294922"/>
       <use xlink:href="#AptosDisplay-30" x="104.589844"/>
      </g>
     </g>
    </g>
    <g id="xtick_8">
     <g id="line2d_15">
      <path d="M 650.607822 501.3525 
L 650.607822 57.8325 
" clip-path="url(#p1723fe65fa)" style="fill: none; stroke: #b0b0b0; stroke-opacity: 0.8; stroke-linecap: square"/>
     </g>
     <g id="line2d_16">
      <g>
       <use xlink:href="#mf881af43cd" x="650.607822" y="501.3525" style="stroke: #000000; stroke-width: 0.8"/>
      </g>
     </g>
     <g id="text_8">
      <!-- 175 -->
      <g transform="translate(634.91876 521.49625) scale(0.2 -0.2)">
       <use xlink:href="#AptosDisplay-31"/>
       <use xlink:href="#AptosDisplay-37" x="52.294922"/>
       <use xlink:href="#AptosDisplay-35" x="104.589844"/>
      </g>
     </g>
    </g>
    <g id="xtick_9">
     <g id="line2d_17">
      <path d="M 727.157648 501.3525 
L 727.157648 57.8325 
" clip-path="url(#p1723fe65fa)" style="fill: none; stroke: #b0b0b0; stroke-opacity: 0.8; stroke-linecap: square"/>
     </g>
     <g id="line2d_18">
      <g>
       <use xlink:href="#mf881af43cd" x="727.157648" y="501.3525" style="stroke: #000000; stroke-width: 0.8"/>
      </g>
     </g>
     <g id="text_9">
      <!-- 200 -->
      <g transform="translate(711.468585 521.49625) scale(0.2 -0.2)">
       <use xlink:href="#AptosDisplay-32"/>
       <use xlink:href="#AptosDisplay-30" x="52.294922"/>
       <use xlink:href="#AptosDisplay-30" x="104.589844"/>
      </g>
     </g>
    </g>
    <g id="xtick_10">
     <g id="line2d_19">
      <path d="M 99.44908 501.3525 
L 99.44908 57.8325 
" clip-path="url(#p1723fe65fa)" style="fill: none; stroke-dasharray: 1.85,0.8; stroke-dashoffset: 0; stroke: #b0b0b0; stroke-opacity: 0.8; stroke-width: 0.5"/>
     </g>
     <g id="line2d_20">
      <defs>
       <path id="m00f562b7ff" d="M 0 0 
L 0 2 
" style="stroke: #000000; stroke-width: 0.6"/>
      </defs>
      <g>
       <use xlink:href="#m00f562b7ff" x="99.44908" y="501.3525" style="stroke: #000000; stroke-width: 0.6"/>
      </g>
     </g>
    </g>
    <g id="xtick_11">
     <g id="line2d_21">
      <path d="M 130.06901 501.3525 
L 130.06901 57.8325 
" clip-path="url(#p1723fe65fa)" style="fill: none; stroke-dasharray: 1.85,0.8; stroke-dashoffset: 0; stroke: #b0b0b0; stroke-opacity: 0.8; stroke-width: 0.5"/>
     </g>
     <g id="line2d_22">
      <g>
       <use xlink:href="#m00f562b7ff" x="130.06901" y="501.3525" style="stroke: #000000; stroke-width: 0.6"/>
      </g>
     </g>
    </g>
    <g id="xtick_12">
     <g id="line2d_23">
      <path d="M 145.378976 501.3525 
L 145.378976 57.8325 
" clip-path="url(#p1723fe65fa)" style="fill: none; stroke-dasharray: 1.85,0.8; stroke-dashoffset: 0; stroke: #b0b0b0; stroke-opacity: 0.8; stroke-width: 0.5"/>
     </g>
     <g id="line2d_24">
      <g>
       <use xlink:href="#m00f562b7ff" x="145.378976" y="501.3525" style="stroke: #000000; stroke-width: 0.6"/>
      </g>
     </g>
    </g>
    <g id="xtick_13">
     <g id="line2d_25">
      <path d="M 160.688941 501.3525 
L 160.688941 57.8325 
" clip-path="url(#p1723fe65fa)" style="fill: none; stroke-dasharray: 1.85,0.8; stroke-dashoffset: 0; stroke: #b0b0b0; stroke-opacity: 0.8; stroke-width: 0.5"/>
     </g>
     <g id="line2d_26">
      <g>
       <use xlink:href="#m00f562b7ff" x="160.688941" y="501.3525" style="stroke: #000000; stroke-width: 0.6"/>
      </g>
     </g>
    </g>
    <g id="xtick_14">
     <g id="line2d_27">
      <path d="M 175.998906 501.3525 
L 175.998906 57.8325 
" clip-path="url(#p1723fe65fa)" style="fill: none; stroke-dasharray: 1.85,0.8; stroke-dashoffset: 0; stroke: #b0b0b0; stroke-opacity: 0.8; stroke-width: 0.5"/>
     </g>
     <g id="line2d_28">
      <g>
       <use xlink:href="#m00f562b7ff" x="175.998906" y="501.3525" style="stroke: #000000; stroke-width: 0.6"/>
      </g>
     </g>
    </g>
    <g id="xtick_15">
     <g id="line2d_29">
      <path d="M 206.618836 501.3525 
L 206.618836 57.8325 
" clip-path="url(#p1723fe65fa)" style="fill: none; stroke-dasharray: 1.85,0.8; stroke-dashoffset: 0; stroke: #b0b0b0; stroke-opacity: 0.8; stroke-width: 0.5"/>
     </g>
     <g id="line2d_30">
      <g>
       <use xlink:href="#m00f562b7ff" x="206.618836" y="501.3525" style="stroke: #000000; stroke-width: 0.6"/>
      </g>
     </g>
    </g>
    <g id="xtick_16">
     <g id="line2d_31">
      <path d="M 221.928801 501.3525 
L 221.928801 57.8325 
" clip-path="url(#p1723fe65fa)" style="fill: none; stroke-dasharray: 1.85,0.8; stroke-dashoffset: 0; stroke: #b0b0b0; stroke-opacity: 0.8; stroke-width: 0.5"/>
     </g>
     <g id="line2d_32">
      <g>
       <use xlink:href="#m00f562b7ff" x="221.928801" y="501.3525" style="stroke: #000000; stroke-width: 0.6"/>
      </g>
     </g>
    </g>
    <g id="xtick_17">
     <g id="line2d_33">
      <path d="M 237.238766 501.3525 
L 237.238766 57.8325 
" clip-path="url(#p1723fe65fa)" style="fill: none; stroke-dasharray: 1.85,0.8; stroke-dashoffset: 0; stroke: #b0b0b0; stroke-opacity: 0.8; stroke-width: 0.5"/>
     </g>
     <g id="line2d_34">
      <g>
       <use xlink:href="#m00f562b7ff" x="237.238766" y="501.3525" style="stroke: #000000; stroke-width: 0.6"/>
      </g>
     </g>
    </g>
    <g id="xtick_18">
     <g id="line2d_35">
      <path d="M 252.548731 501.3525 
L 252.548731 57.8325 
" clip-path="url(#p1723fe65fa)" style="fill: none; stroke-dasharray: 1.85,0.8; stroke-dashoffset: 0; stroke: #b0b0b0; stroke-opacity: 0.8; stroke-width: 0.5"/>
     </g>
     <g id="line2d_36">
      <g>
       <use xlink:href="#m00f562b7ff" x="252.548731" y="501.3525" style="stroke: #000000; stroke-width: 0.6"/>
      </g>
     </g>
    </g>
    <g id="xtick_19">
     <g id="line2d_37">
      <path d="M 283.168661 501.3525 
L 283.168661 57.8325 
" clip-path="url(#p1723fe65fa)" style="fill: none; stroke-dasharray: 1.85,0.8; stroke-dashoffset: 0; stroke: #b0b0b0; stroke-opacity: 0.8; stroke-width: 0.5"/>
     </g>
     <g id="line2d_38">
      <g>
       <use xlink:href="#m00f562b7ff" x="283.168661" y="501.3525" style="stroke: #000000; stroke-width: 0.6"/>
      </g>
     </g>
    </g>
    <g id="xtick_20">
     <g id="line2d_39">
      <path d="M 298.478626 501.3525 
L 298.478626 57.8325 
" clip-path="url(#p1723fe65fa)" style="fill: none; stroke-dasharray: 1.85,0.8; stroke-dashoffset: 0; stroke: #b0b0b0; stroke-opacity: 0.8; stroke-width: 0.5"/>
     </g>
     <g id="line2d_40">
      <g>
       <use xlink:href="#m00f562b7ff" x="298.478626" y="501.3525" style="stroke: #000000; stroke-width: 0.6"/>
      </g>
     </g>
    </g>
    <g id="xtick_21">
     <g id="line2d_41">
      <path d="M 313.788591 501.3525 
L 313.788591 57.8325 
" clip-path="url(#p1723fe65fa)" style="fill: none; stroke-dasharray: 1.85,0.8; stroke-dashoffset: 0; stroke: #b0b0b0; stroke-opacity: 0.8; stroke-width: 0.5"/>
     </g>
     <g id="line2d_42">
      <g>
       <use xlink:href="#m00f562b7ff" x="313.788591" y="501.3525" style="stroke: #000000; stroke-width: 0.6"/>
      </g>
     </g>
    </g>
    <g id="xtick_22">
     <g id="line2d_43">
      <path d="M 329.098556 501.3525 
L 329.098556 57.8325 
" clip-path="url(#p1723fe65fa)" style="fill: none; stroke-dasharray: 1.85,0.8; stroke-dashoffset: 0; stroke: #b0b0b0; stroke-opacity: 0.8; stroke-width: 0.5"/>
     </g>
     <g id="line2d_44">
      <g>
       <use xlink:href="#m00f562b7ff" x="329.098556" y="501.3525" style="stroke: #000000; stroke-width: 0.6"/>
      </g>
     </g>
    </g>
    <g id="xtick_23">
     <g id="line2d_45">
      <path d="M 359.718486 501.3525 
L 359.718486 57.8325 
" clip-path="url(#p1723fe65fa)" style="fill: none; stroke-dasharray: 1.85,0.8; stroke-dashoffset: 0; stroke: #b0b0b0; stroke-opacity: 0.8; stroke-width: 0.5"/>
     </g>
     <g id="line2d_46">
      <g>
       <use xlink:href="#m00f562b7ff" x="359.718486" y="501.3525" style="stroke: #000000; stroke-width: 0.6"/>
      </g>
     </g>
    </g>
    <g id="xtick_24">
     <g id="line2d_47">
      <path d="M 375.028451 501.3525 
L 375.028451 57.8325 
" clip-path="url(#p1723fe65fa)" style="fill: none; stroke-dasharray: 1.85,0.8; stroke-dashoffset: 0; stroke: #b0b0b0; stroke-opacity: 0.8; stroke-width: 0.5"/>
     </g>
     <g id="line2d_48">
      <g>
       <use xlink:href="#m00f562b7ff" x="375.028451" y="501.3525" style="stroke: #000000; stroke-width: 0.6"/>
      </g>
     </g>
    </g>
    <g id="xtick_25">
     <g id="line2d_49">
      <path d="M 390.338416 501.3525 
L 390.338416 57.8325 
" clip-path="url(#p1723fe65fa)" style="fill: none; stroke-dasharray: 1.85,0.8; stroke-dashoffset: 0; stroke: #b0b0b0; stroke-opacity: 0.8; stroke-width: 0.5"/>
     </g>
     <g id="line2d_50">
      <g>
       <use xlink:href="#m00f562b7ff" x="390.338416" y="501.3525" style="stroke: #000000; stroke-width: 0.6"/>
      </g>
     </g>
    </g>
    <g id="xtick_26">
     <g id="line2d_51">
      <path d="M 405.648382 501.3525 
L 405.648382 57.8325 
" clip-path="url(#p1723fe65fa)" style="fill: none; stroke-dasharray: 1.85,0.8; stroke-dashoffset: 0; stroke: #b0b0b0; stroke-opacity: 0.8; stroke-width: 0.5"/>
     </g>
     <g id="line2d_52">
      <g>
       <use xlink:href="#m00f562b7ff" x="405.648382" y="501.3525" style="stroke: #000000; stroke-width: 0.6"/>
      </g>
     </g>
    </g>
    <g id="xtick_27">
     <g id="line2d_53">
      <path d="M 436.268312 501.3525 
L 436.268312 57.8325 
" clip-path="url(#p1723fe65fa)" style="fill: none; stroke-dasharray: 1.85,0.8; stroke-dashoffset: 0; stroke: #b0b0b0; stroke-opacity: 0.8; stroke-width: 0.5"/>
     </g>
     <g id="line2d_54">
      <g>
       <use xlink:href="#m00f562b7ff" x="436.268312" y="501.3525" style="stroke: #000000; stroke-width: 0.6"/>
      </g>
     </g>
    </g>
    <g id="xtick_28">
     <g id="line2d_55">
      <path d="M 451.578277 501.3525 
L 451.578277 57.8325 
" clip-path="url(#p1723fe65fa)" style="fill: none; stroke-dasharray: 1.85,0.8; stroke-dashoffset: 0; stroke: #b0b0b0; stroke-opacity: 0.8; stroke-width: 0.5"/>
     </g>
     <g id="line2d_56">
      <g>
       <use xlink:href="#m00f562b7ff" x="451.578277" y="501.3525" style="stroke: #000000; stroke-width: 0.6"/>
      </g>
     </g>
    </g>
    <g id="xtick_29">
     <g id="line2d_57">
      <path d="M 466.888242 501.3525 
L 466.888242 57.8325 
" clip-path="url(#p1723fe65fa)" style="fill: none; stroke-dasharray: 1.85,0.8; stroke-dashoffset: 0; stroke: #b0b0b0; stroke-opacity: 0.8; stroke-width: 0.5"/>
     </g>
     <g id="line2d_58">
      <g>
       <use xlink:href="#m00f562b7ff" x="466.888242" y="501.3525" style="stroke: #000000; stroke-width: 0.6"/>
      </g>
     </g>
    </g>
    <g id="xtick_30">
     <g id="line2d_59">
      <path d="M 482.198207 501.3525 
L 482.198207 57.8325 
" clip-path="url(#p1723fe65fa)" style="fill: none; stroke-dasharray: 1.85,0.8; stroke-dashoffset: 0; stroke: #b0b0b0; stroke-opacity: 0.8; stroke-width: 0.5"/>
     </g>
     <g id="line2d_60">
      <g>
       <use xlink:href="#m00f562b7ff" x="482.198207" y="501.3525" style="stroke: #000000; stroke-width: 0.6"/>
      </g>
     </g>
    </g>
    <g id="xtick_31">
     <g id="line2d_61">
      <path d="M 512.818137 501.3525 
L 512.818137 57.8325 
" clip-path="url(#p1723fe65fa)" style="fill: none; stroke-dasharray: 1.85,0.8; stroke-dashoffset: 0; stroke: #b0b0b0; stroke-opacity: 0.8; stroke-width: 0.5"/>
     </g>
     <g id="line2d_62">
      <g>
       <use xlink:href="#m00f562b7ff" x="512.818137" y="501.3525" style="stroke: #000000; stroke-width: 0.6"/>
      </g>
     </g>
    </g>
    <g id="xtick_32">
     <g id="line2d_63">
      <path d="M 528.128102 501.3525 
L 528.128102 57.8325 
" clip-path="url(#p1723fe65fa)" style="fill: none; stroke-dasharray: 1.85,0.8; stroke-dashoffset: 0; stroke: #b0b0b0; stroke-opacity: 0.8; stroke-width: 0.5"/>
     </g>
     <g id="line2d_64">
      <g>
       <use xlink:href="#m00f562b7ff" x="528.128102" y="501.3525" style="stroke: #000000; stroke-width: 0.6"/>
      </g>
     </g>
    </g>
    <g id="xtick_33">
     <g id="line2d_65">
      <path d="M 543.438067 501.3525 
L 543.438067 57.8325 
" clip-path="url(#p1723fe65fa)" style="fill: none; stroke-dasharray: 1.85,0.8; stroke-dashoffset: 0; stroke: #b0b0b0; stroke-opacity: 0.8; stroke-width: 0.5"/>
     </g>
     <g id="line2d_66">
      <g>
       <use xlink:href="#m00f562b7ff" x="543.438067" y="501.3525" style="stroke: #000000; stroke-width: 0.6"/>
      </g>
     </g>
    </g>
    <g id="xtick_34">
     <g id="line2d_67">
      <path d="M 558.748032 501.3525 
L 558.748032 57.8325 
" clip-path="url(#p1723fe65fa)" style="fill: none; stroke-dasharray: 1.85,0.8; stroke-dashoffset: 0; stroke: #b0b0b0; stroke-opacity: 0.8; stroke-width: 0.5"/>
     </g>
     <g id="line2d_68">
      <g>
       <use xlink:href="#m00f562b7ff" x="558.748032" y="501.3525" style="stroke: #000000; stroke-width: 0.6"/>
      </g>
     </g>
    </g>
    <g id="xtick_35">
     <g id="line2d_69">
      <path d="M 589.367962 501.3525 
L 589.367962 57.8325 
" clip-path="url(#p1723fe65fa)" style="fill: none; stroke-dasharray: 1.85,0.8; stroke-dashoffset: 0; stroke: #b0b0b0; stroke-opacity: 0.8; stroke-width: 0.5"/>
     </g>
     <g id="line2d_70">
      <g>
       <use xlink:href="#m00f562b7ff" x="589.367962" y="501.3525" style="stroke: #000000; stroke-width: 0.6"/>
      </g>
     </g>
    </g>
    <g id="xtick_36">
     <g id="line2d_71">
      <path d="M 604.677927 501.3525 
L 604.677927 57.8325 
" clip-path="url(#p1723fe65fa)" style="fill: none; stroke-dasharray: 1.85,0.8; stroke-dashoffset: 0; stroke: #b0b0b0; stroke-opacity: 0.8; stroke-width: 0.5"/>
     </g>
     <g id="line2d_72">
      <g>
       <use xlink:href="#m00f562b7ff" x="604.677927" y="501.3525" style="stroke: #000000; stroke-width: 0.6"/>
      </g>
     </g>
    </g>
    <g id="xtick_37">
     <g id="line2d_73">
      <path d="M 619.987892 501.3525 
L 619.987892 57.8325 
" clip-path="url(#p1723fe65fa)" style="fill: none; stroke-dasharray: 1.85,0.8; stroke-dashoffset: 0; stroke: #b0b0b0; stroke-opacity: 0.8; stroke-width: 0.5"/>
     </g>
     <g id="line2d_74">
      <g>
       <use xlink:href="#m00f562b7ff" x="619.987892" y="501.3525" style="stroke: #000000; stroke-width: 0.6"/>
      </g>
     </g>
    </g>
    <g id="xtick_38">
     <g id="line2d_75">
      <path d="M 635.297857 501.3525 
L 635.297857 57.8325 
" clip-path="url(#p1723fe65fa)" style="fill: none; stroke-dasharray: 1.85,0.8; stroke-dashoffset: 0; stroke: #b0b0b0; stroke-opacity: 0.8; stroke-width: 0.5"/>
     </g>
     <g id="line2d_76">
      <g>
       <use xlink:href="#m00f562b7ff" x="635.297857" y="501.3525" style="stroke: #000000; stroke-width: 0.6"/>
      </g>
     </g>
    </g>
    <g id="xtick_39">
     <g id="line2d_77">
      <path d="M 665.917788 501.3525 
L 665.917788 57.8325 
" clip-path="url(#p1723fe65fa)" style="fill: none; stroke-dasharray: 1.85,0.8; stroke-dashoffset: 0; stroke: #b0b0b0; stroke-opacity: 0.8; stroke-width: 0.5"/>
     </g>
     <g id="line2d_78">
      <g>
       <use xlink:href="#m00f562b7ff" x="665.917788" y="501.3525" style="stroke: #000000; stroke-width: 0.6"/>
      </g>
     </g>
    </g>
    <g id="xtick_40">
     <g id="line2d_79">
      <path d="M 681.227753 501.3525 
L 681.227753 57.8325 
" clip-path="url(#p1723fe65fa)" style="fill: none; stroke-dasharray: 1.85,0.8; stroke-dashoffset: 0; stroke: #b0b0b0; stroke-opacity: 0.8; stroke-width: 0.5"/>
     </g>
     <g id="line2d_80">
      <g>
       <use xlink:href="#m00f562b7ff" x="681.227753" y="501.3525" style="stroke: #000000; stroke-width: 0.6"/>
      </g>
     </g>
    </g>
    <g id="xtick_41">
     <g id="line2d_81">
      <path d="M 696.537718 501.3525 
L 696.537718 57.8325 
" clip-path="url(#p1723fe65fa)" style="fill: none; stroke-dasharray: 1.85,0.8; stroke-dashoffset: 0; stroke: #b0b0b0; stroke-opacity: 0.8; stroke-width: 0.5"/>
     </g>
     <g id="line2d_82">
      <g>
       <use xlink:href="#m00f562b7ff" x="696.537718" y="501.3525" style="stroke: #000000; stroke-width: 0.6"/>
      </g>
     </g>
    </g>
    <g id="xtick_42">
     <g id="line2d_83">
      <path d="M 711.847683 501.3525 
L 711.847683 57.8325 
" clip-path="url(#p1723fe65fa)" style="fill: none; stroke-dasharray: 1.85,0.8; stroke-dashoffset: 0; stroke: #b0b0b0; stroke-opacity: 0.8; stroke-width: 0.5"/>
     </g>
     <g id="line2d_84">
      <g>
       <use xlink:href="#m00f562b7ff" x="711.847683" y="501.3525" style="stroke: #000000; stroke-width: 0.6"/>
      </g>
     </g>
    </g>
    <g id="xtick_43">
     <g id="line2d_85">
      <path d="M 742.467613 501.3525 
L 742.467613 57.8325 
" clip-path="url(#p1723fe65fa)" style="fill: none; stroke-dasharray: 1.85,0.8; stroke-dashoffset: 0; stroke: #b0b0b0; stroke-opacity: 0.8; stroke-width: 0.5"/>
     </g>
     <g id="line2d_86">
      <g>
       <use xlink:href="#m00f562b7ff" x="742.467613" y="501.3525" style="stroke: #000000; stroke-width: 0.6"/>
      </g>
     </g>
    </g>
    <g id="text_10">
     <!-- Time (S) -->
     <g transform="translate(386.375 542.305625) scale(0.2 -0.2)">
      <defs>
       <path id="AptosDisplay-54" d="M 1244 0 
L 1244 3734 
L 50 3734 
L 50 4206 
L 2997 4206 
L 2997 3734 
L 1806 3734 
L 1806 0 
L 1244 0 
z
" transform="scale(0.015625)"/>
       <path id="AptosDisplay-69" d="M 413 0 
L 413 3044 
L 934 3044 
L 934 0 
L 413 0 
z
M 675 3616 
Q 525 3616 437 3702 
Q 350 3788 350 3919 
Q 350 4050 437 4136 
Q 525 4222 675 4222 
Q 822 4222 912 4136 
Q 1003 4050 1003 3919 
Q 1003 3788 912 3702 
Q 822 3616 675 3616 
z
" transform="scale(0.015625)"/>
       <path id="AptosDisplay-6d" d="M 413 0 
L 413 3044 
L 919 3044 
L 931 2575 
Q 1063 2756 1303 2914 
Q 1544 3072 1903 3072 
Q 2403 3072 2618 2778 
Q 2834 2484 2834 1963 
L 2834 0 
L 2316 0 
L 2316 1891 
Q 2316 2106 2275 2275 
Q 2234 2444 2120 2539 
Q 2006 2634 1788 2634 
Q 1488 2634 1277 2482 
Q 1066 2331 934 2156 
L 934 0 
L 413 0 
z
M 4206 0 
L 4206 1891 
Q 4206 2106 4164 2275 
Q 4122 2444 4009 2539 
Q 3897 2634 3681 2634 
Q 3381 2634 3165 2484 
Q 2950 2334 2822 2159 
L 2744 2544 
Q 2916 2741 3175 2906 
Q 3434 3072 3800 3072 
Q 4291 3072 4509 2778 
Q 4728 2484 4728 1963 
L 4728 0 
L 4206 0 
z
" transform="scale(0.015625)"/>
       <path id="AptosDisplay-65" d="M 1663 -56 
Q 1188 -56 878 151 
Q 569 359 417 717 
Q 266 1075 266 1522 
Q 266 1988 412 2342 
Q 559 2697 857 2897 
Q 1156 3097 1606 3097 
Q 2209 3097 2550 2722 
Q 2891 2347 2891 1644 
Q 2891 1597 2889 1533 
Q 2888 1469 2881 1441 
L 791 1441 
Q 794 1144 881 895 
Q 969 647 1161 497 
Q 1353 347 1663 347 
Q 1997 347 2183 511 
Q 2369 675 2378 984 
L 2894 984 
Q 2884 663 2732 430 
Q 2581 197 2309 70 
Q 2038 -56 1663 -56 
z
M 794 1822 
L 2375 1822 
Q 2366 2247 2166 2472 
Q 1966 2697 1606 2697 
Q 1241 2697 1036 2473 
Q 831 2250 794 1822 
z
" transform="scale(0.015625)"/>
       <path id="AptosDisplay-20" transform="scale(0.015625)"/>
       <path id="AptosDisplay-28" d="M 1219 -1116 
Q 969 -678 787 -267 
Q 606 144 511 581 
Q 416 1019 416 1528 
Q 416 2028 509 2486 
Q 603 2944 783 3378 
Q 963 3813 1219 4231 
L 1647 4231 
Q 1278 3600 1101 2886 
Q 925 2172 925 1428 
Q 925 766 1125 103 
Q 1325 -559 1647 -1116 
L 1219 -1116 
z
" transform="scale(0.015625)"/>
       <path id="AptosDisplay-53" d="M 1778 -56 
Q 1328 -56 962 81 
Q 597 219 384 512 
Q 172 806 172 1275 
L 734 1275 
Q 738 941 883 750 
Q 1028 559 1267 481 
Q 1506 403 1794 403 
Q 2063 403 2283 483 
Q 2503 563 2634 723 
Q 2766 884 2766 1134 
Q 2766 1356 2662 1497 
Q 2559 1638 2321 1742 
Q 2084 1847 1678 1950 
Q 1203 2075 897 2223 
Q 591 2372 442 2594 
Q 294 2816 294 3156 
Q 294 3516 462 3761 
Q 631 4006 945 4134 
Q 1259 4263 1697 4263 
Q 2103 4263 2440 4131 
Q 2778 4000 2979 3737 
Q 3181 3475 3181 3084 
L 2616 3084 
Q 2622 3441 2356 3623 
Q 2091 3806 1700 3806 
Q 1300 3806 1073 3645 
Q 847 3484 847 3175 
Q 847 2991 944 2867 
Q 1041 2744 1280 2644 
Q 1519 2544 1941 2434 
Q 2428 2303 2731 2153 
Q 3034 2003 3178 1768 
Q 3322 1534 3322 1153 
Q 3322 747 3117 480 
Q 2913 213 2564 78 
Q 2216 -56 1778 -56 
z
" transform="scale(0.015625)"/>
       <path id="AptosDisplay-29" d="M 234 -1116 
Q 609 -481 786 233 
Q 963 947 963 1694 
Q 963 2356 759 3015 
Q 556 3675 234 4231 
L 663 4231 
Q 919 3800 1098 3389 
Q 1278 2978 1373 2540 
Q 1469 2103 1469 1594 
Q 1469 1094 1375 634 
Q 1281 175 1100 -259 
Q 919 -694 663 -1116 
L 234 -1116 
z
" transform="scale(0.015625)"/>
      </defs>
      <use xlink:href="#AptosDisplay-54"/>
      <use xlink:href="#AptosDisplay-69" x="47.705078"/>
      <use xlink:href="#AptosDisplay-6d" x="68.75"/>
      <use xlink:href="#AptosDisplay-65" x="148.730469"/>
      <use xlink:href="#AptosDisplay-20" x="198.144531"/>
      <use xlink:href="#AptosDisplay-28" x="217.431641"/>
      <use xlink:href="#AptosDisplay-53" x="246.875"/>
      <use xlink:href="#AptosDisplay-29" x="301.464844"/>
     </g>
    </g>
   </g>
   <g id="matplotlib.axis_2">
    <g id="ytick_1">
     <g id="line2d_87">
      <path d="M 84.665625 497.395687 
L 754.265625 497.395687 
" clip-path="url(#p1723fe65fa)" style="fill: none; stroke: #b0b0b0; stroke-opacity: 0.8; stroke-linecap: square"/>
     </g>
     <g id="line2d_88">
      <defs>
       <path id="m83f4d97102" d="M 0 0 
L -3.5 0 
" style="stroke: #000000; stroke-width: 0.8"/>
      </defs>
      <g>
       <use xlink:href="#m83f4d97102" x="84.665625" y="497.395687" style="stroke: #000000; stroke-width: 0.8"/>
      </g>
     </g>
     <g id="text_11">
      <!-- 0 -->
      <g transform="translate(67.20625 503.967562) scale(0.2 -0.2)">
       <use xlink:href="#AptosDisplay-30"/>
      </g>
     </g>
    </g>
    <g id="ytick_2">
     <g id="line2d_89">
      <path d="M 84.665625 428.11086 
L 754.265625 428.11086 
" clip-path="url(#p1723fe65fa)" style="fill: none; stroke: #b0b0b0; stroke-opacity: 0.8; stroke-linecap: square"/>
     </g>
     <g id="line2d_90">
      <g>
       <use xlink:href="#m83f4d97102" x="84.665625" y="428.11086" style="stroke: #000000; stroke-width: 0.8"/>
      </g>
     </g>
     <g id="text_12">
      <!-- 5 -->
      <g transform="translate(67.20625 434.682735) scale(0.2 -0.2)">
       <use xlink:href="#AptosDisplay-35"/>
      </g>
     </g>
    </g>
    <g id="ytick_3">
     <g id="line2d_91">
      <path d="M 84.665625 358.826033 
L 754.265625 358.826033 
" clip-path="url(#p1723fe65fa)" style="fill: none; stroke: #b0b0b0; stroke-opacity: 0.8; stroke-linecap: square"/>
     </g>
     <g id="line2d_92">
      <g>
       <use xlink:href="#m83f4d97102" x="84.665625" y="358.826033" style="stroke: #000000; stroke-width: 0.8"/>
      </g>
     </g>
     <g id="text_13">
      <!-- 10 -->
      <g transform="translate(56.746875 365.397908) scale(0.2 -0.2)">
       <use xlink:href="#AptosDisplay-31"/>
       <use xlink:href="#AptosDisplay-30" x="52.294922"/>
      </g>
     </g>
    </g>
    <g id="ytick_4">
     <g id="line2d_93">
      <path d="M 84.665625 289.541206 
L 754.265625 289.541206 
" clip-path="url(#p1723fe65fa)" style="fill: none; stroke: #b0b0b0; stroke-opacity: 0.8; stroke-linecap: square"/>
     </g>
     <g id="line2d_94">
      <g>
       <use xlink:href="#m83f4d97102" x="84.665625" y="289.541206" style="stroke: #000000; stroke-width: 0.8"/>
      </g>
     </g>
     <g id="text_14">
      <!-- 15 -->
      <g transform="translate(56.746875 296.113081) scale(0.2 -0.2)">
       <use xlink:href="#AptosDisplay-31"/>
       <use xlink:href="#AptosDisplay-35" x="52.294922"/>
      </g>
     </g>
    </g>
    <g id="ytick_5">
     <g id="line2d_95">
      <path d="M 84.665625 220.256379 
L 754.265625 220.256379 
" clip-path="url(#p1723fe65fa)" style="fill: none; stroke: #b0b0b0; stroke-opacity: 0.8; stroke-linecap: square"/>
     </g>
     <g id="line2d_96">
      <g>
       <use xlink:href="#m83f4d97102" x="84.665625" y="220.256379" style="stroke: #000000; stroke-width: 0.8"/>
      </g>
     </g>
     <g id="text_15">
      <!-- 20 -->
      <g transform="translate(56.746875 226.828254) scale(0.2 -0.2)">
       <use xlink:href="#AptosDisplay-32"/>
       <use xlink:href="#AptosDisplay-30" x="52.294922"/>
      </g>
     </g>
    </g>
    <g id="ytick_6">
     <g id="line2d_97">
      <path d="M 84.665625 150.971552 
L 754.265625 150.971552 
" clip-path="url(#p1723fe65fa)" style="fill: none; stroke: #b0b0b0; stroke-opacity: 0.8; stroke-linecap: square"/>
     </g>
     <g id="line2d_98">
      <g>
       <use xlink:href="#m83f4d97102" x="84.665625" y="150.971552" style="stroke: #000000; stroke-width: 0.8"/>
      </g>
     </g>
     <g id="text_16">
      <!-- 25 -->
      <g transform="translate(56.746875 157.543427) scale(0.2 -0.2)">
       <use xlink:href="#AptosDisplay-32"/>
       <use xlink:href="#AptosDisplay-35" x="52.294922"/>
      </g>
     </g>
    </g>
    <g id="ytick_7">
     <g id="line2d_99">
      <path d="M 84.665625 81.686725 
L 754.265625 81.686725 
" clip-path="url(#p1723fe65fa)" style="fill: none; stroke: #b0b0b0; stroke-opacity: 0.8; stroke-linecap: square"/>
     </g>
     <g id="line2d_100">
      <g>
       <use xlink:href="#m83f4d97102" x="84.665625" y="81.686725" style="stroke: #000000; stroke-width: 0.8"/>
      </g>
     </g>
     <g id="text_17">
      <!-- 30 -->
      <g transform="translate(56.746875 88.2586) scale(0.2 -0.2)">
       <defs>
        <path id="AptosDisplay-33" d="M 1700 -56 
Q 1047 -56 655 275 
Q 263 606 263 1225 
L 781 1225 
Q 781 844 1023 617 
Q 1266 391 1697 391 
Q 2094 391 2322 581 
Q 2550 772 2550 1172 
Q 2550 1556 2297 1737 
Q 2044 1919 1609 1919 
L 1366 1919 
L 1366 2363 
L 1622 2363 
Q 2013 2363 2222 2555 
Q 2431 2747 2431 3066 
Q 2431 3372 2226 3526 
Q 2022 3681 1684 3681 
Q 1306 3681 1095 3481 
Q 884 3281 891 2956 
L 372 2956 
Q 372 3319 536 3583 
Q 700 3847 995 3990 
Q 1291 4134 1681 4134 
Q 2031 4134 2318 4017 
Q 2606 3900 2778 3670 
Q 2950 3441 2950 3097 
Q 2950 2738 2745 2498 
Q 2541 2259 2206 2166 
Q 2591 2097 2841 1836 
Q 3091 1575 3091 1150 
Q 3091 763 2916 494 
Q 2741 225 2428 84 
Q 2116 -56 1700 -56 
z
" transform="scale(0.015625)"/>
       </defs>
       <use xlink:href="#AptosDisplay-33"/>
       <use xlink:href="#AptosDisplay-30" x="52.294922"/>
      </g>
     </g>
    </g>
    <g id="ytick_8">
     <g id="line2d_101">
      <path d="M 84.665625 483.538721 
L 754.265625 483.538721 
" clip-path="url(#p1723fe65fa)" style="fill: none; stroke-dasharray: 1.85,0.8; stroke-dashoffset: 0; stroke: #b0b0b0; stroke-opacity: 0.8; stroke-width: 0.5"/>
     </g>
     <g id="line2d_102">
      <defs>
       <path id="mc3b4a7c116" d="M 0 0 
L -2 0 
" style="stroke: #000000; stroke-width: 0.6"/>
      </defs>
      <g>
       <use xlink:href="#mc3b4a7c116" x="84.665625" y="483.538721" style="stroke: #000000; stroke-width: 0.6"/>
      </g>
     </g>
    </g>
    <g id="ytick_9">
     <g id="line2d_103">
      <path d="M 84.665625 469.681756 
L 754.265625 469.681756 
" clip-path="url(#p1723fe65fa)" style="fill: none; stroke-dasharray: 1.85,0.8; stroke-dashoffset: 0; stroke: #b0b0b0; stroke-opacity: 0.8; stroke-width: 0.5"/>
     </g>
     <g id="line2d_104">
      <g>
       <use xlink:href="#mc3b4a7c116" x="84.665625" y="469.681756" style="stroke: #000000; stroke-width: 0.6"/>
      </g>
     </g>
    </g>
    <g id="ytick_10">
     <g id="line2d_105">
      <path d="M 84.665625 455.824791 
L 754.265625 455.824791 
" clip-path="url(#p1723fe65fa)" style="fill: none; stroke-dasharray: 1.85,0.8; stroke-dashoffset: 0; stroke: #b0b0b0; stroke-opacity: 0.8; stroke-width: 0.5"/>
     </g>
     <g id="line2d_106">
      <g>
       <use xlink:href="#mc3b4a7c116" x="84.665625" y="455.824791" style="stroke: #000000; stroke-width: 0.6"/>
      </g>
     </g>
    </g>
    <g id="ytick_11">
     <g id="line2d_107">
      <path d="M 84.665625 441.967825 
L 754.265625 441.967825 
" clip-path="url(#p1723fe65fa)" style="fill: none; stroke-dasharray: 1.85,0.8; stroke-dashoffset: 0; stroke: #b0b0b0; stroke-opacity: 0.8; stroke-width: 0.5"/>
     </g>
     <g id="line2d_108">
      <g>
       <use xlink:href="#mc3b4a7c116" x="84.665625" y="441.967825" style="stroke: #000000; stroke-width: 0.6"/>
      </g>
     </g>
    </g>
    <g id="ytick_12">
     <g id="line2d_109">
      <path d="M 84.665625 414.253894 
L 754.265625 414.253894 
" clip-path="url(#p1723fe65fa)" style="fill: none; stroke-dasharray: 1.85,0.8; stroke-dashoffset: 0; stroke: #b0b0b0; stroke-opacity: 0.8; stroke-width: 0.5"/>
     </g>
     <g id="line2d_110">
      <g>
       <use xlink:href="#mc3b4a7c116" x="84.665625" y="414.253894" style="stroke: #000000; stroke-width: 0.6"/>
      </g>
     </g>
    </g>
    <g id="ytick_13">
     <g id="line2d_111">
      <path d="M 84.665625 400.396929 
L 754.265625 400.396929 
" clip-path="url(#p1723fe65fa)" style="fill: none; stroke-dasharray: 1.85,0.8; stroke-dashoffset: 0; stroke: #b0b0b0; stroke-opacity: 0.8; stroke-width: 0.5"/>
     </g>
     <g id="line2d_112">
      <g>
       <use xlink:href="#mc3b4a7c116" x="84.665625" y="400.396929" style="stroke: #000000; stroke-width: 0.6"/>
      </g>
     </g>
    </g>
    <g id="ytick_14">
     <g id="line2d_113">
      <path d="M 84.665625 386.539964 
L 754.265625 386.539964 
" clip-path="url(#p1723fe65fa)" style="fill: none; stroke-dasharray: 1.85,0.8; stroke-dashoffset: 0; stroke: #b0b0b0; stroke-opacity: 0.8; stroke-width: 0.5"/>
     </g>
     <g id="line2d_114">
      <g>
       <use xlink:href="#mc3b4a7c116" x="84.665625" y="386.539964" style="stroke: #000000; stroke-width: 0.6"/>
      </g>
     </g>
    </g>
    <g id="ytick_15">
     <g id="line2d_115">
      <path d="M 84.665625 372.682998 
L 754.265625 372.682998 
" clip-path="url(#p1723fe65fa)" style="fill: none; stroke-dasharray: 1.85,0.8; stroke-dashoffset: 0; stroke: #b0b0b0; stroke-opacity: 0.8; stroke-width: 0.5"/>
     </g>
     <g id="line2d_116">
      <g>
       <use xlink:href="#mc3b4a7c116" x="84.665625" y="372.682998" style="stroke: #000000; stroke-width: 0.6"/>
      </g>
     </g>
    </g>
    <g id="ytick_16">
     <g id="line2d_117">
      <path d="M 84.665625 344.969067 
L 754.265625 344.969067 
" clip-path="url(#p1723fe65fa)" style="fill: none; stroke-dasharray: 1.85,0.8; stroke-dashoffset: 0; stroke: #b0b0b0; stroke-opacity: 0.8; stroke-width: 0.5"/>
     </g>
     <g id="line2d_118">
      <g>
       <use xlink:href="#mc3b4a7c116" x="84.665625" y="344.969067" style="stroke: #000000; stroke-width: 0.6"/>
      </g>
     </g>
    </g>
    <g id="ytick_17">
     <g id="line2d_119">
      <path d="M 84.665625 331.112102 
L 754.265625 331.112102 
" clip-path="url(#p1723fe65fa)" style="fill: none; stroke-dasharray: 1.85,0.8; stroke-dashoffset: 0; stroke: #b0b0b0; stroke-opacity: 0.8; stroke-width: 0.5"/>
     </g>
     <g id="line2d_120">
      <g>
       <use xlink:href="#mc3b4a7c116" x="84.665625" y="331.112102" style="stroke: #000000; stroke-width: 0.6"/>
      </g>
     </g>
    </g>
    <g id="ytick_18">
     <g id="line2d_121">
      <path d="M 84.665625 317.255137 
L 754.265625 317.255137 
" clip-path="url(#p1723fe65fa)" style="fill: none; stroke-dasharray: 1.85,0.8; stroke-dashoffset: 0; stroke: #b0b0b0; stroke-opacity: 0.8; stroke-width: 0.5"/>
     </g>
     <g id="line2d_122">
      <g>
       <use xlink:href="#mc3b4a7c116" x="84.665625" y="317.255137" style="stroke: #000000; stroke-width: 0.6"/>
      </g>
     </g>
    </g>
    <g id="ytick_19">
     <g id="line2d_123">
      <path d="M 84.665625 303.398171 
L 754.265625 303.398171 
" clip-path="url(#p1723fe65fa)" style="fill: none; stroke-dasharray: 1.85,0.8; stroke-dashoffset: 0; stroke: #b0b0b0; stroke-opacity: 0.8; stroke-width: 0.5"/>
     </g>
     <g id="line2d_124">
      <g>
       <use xlink:href="#mc3b4a7c116" x="84.665625" y="303.398171" style="stroke: #000000; stroke-width: 0.6"/>
      </g>
     </g>
    </g>
    <g id="ytick_20">
     <g id="line2d_125">
      <path d="M 84.665625 275.684241 
L 754.265625 275.684241 
" clip-path="url(#p1723fe65fa)" style="fill: none; stroke-dasharray: 1.85,0.8; stroke-dashoffset: 0; stroke: #b0b0b0; stroke-opacity: 0.8; stroke-width: 0.5"/>
     </g>
     <g id="line2d_126">
      <g>
       <use xlink:href="#mc3b4a7c116" x="84.665625" y="275.684241" style="stroke: #000000; stroke-width: 0.6"/>
      </g>
     </g>
    </g>
    <g id="ytick_21">
     <g id="line2d_127">
      <path d="M 84.665625 261.827275 
L 754.265625 261.827275 
" clip-path="url(#p1723fe65fa)" style="fill: none; stroke-dasharray: 1.85,0.8; stroke-dashoffset: 0; stroke: #b0b0b0; stroke-opacity: 0.8; stroke-width: 0.5"/>
     </g>
     <g id="line2d_128">
      <g>
       <use xlink:href="#mc3b4a7c116" x="84.665625" y="261.827275" style="stroke: #000000; stroke-width: 0.6"/>
      </g>
     </g>
    </g>
    <g id="ytick_22">
     <g id="line2d_129">
      <path d="M 84.665625 247.97031 
L 754.265625 247.97031 
" clip-path="url(#p1723fe65fa)" style="fill: none; stroke-dasharray: 1.85,0.8; stroke-dashoffset: 0; stroke: #b0b0b0; stroke-opacity: 0.8; stroke-width: 0.5"/>
     </g>
     <g id="line2d_130">
      <g>
       <use xlink:href="#mc3b4a7c116" x="84.665625" y="247.97031" style="stroke: #000000; stroke-width: 0.6"/>
      </g>
     </g>
    </g>
    <g id="ytick_23">
     <g id="line2d_131">
      <path d="M 84.665625 234.113344 
L 754.265625 234.113344 
" clip-path="url(#p1723fe65fa)" style="fill: none; stroke-dasharray: 1.85,0.8; stroke-dashoffset: 0; stroke: #b0b0b0; stroke-opacity: 0.8; stroke-width: 0.5"/>
     </g>
     <g id="line2d_132">
      <g>
       <use xlink:href="#mc3b4a7c116" x="84.665625" y="234.113344" style="stroke: #000000; stroke-width: 0.6"/>
      </g>
     </g>
    </g>
    <g id="ytick_24">
     <g id="line2d_133">
      <path d="M 84.665625 206.399414 
L 754.265625 206.399414 
" clip-path="url(#p1723fe65fa)" style="fill: none; stroke-dasharray: 1.85,0.8; stroke-dashoffset: 0; stroke: #b0b0b0; stroke-opacity: 0.8; stroke-width: 0.5"/>
     </g>
     <g id="line2d_134">
      <g>
       <use xlink:href="#mc3b4a7c116" x="84.665625" y="206.399414" style="stroke: #000000; stroke-width: 0.6"/>
      </g>
     </g>
    </g>
    <g id="ytick_25">
     <g id="line2d_135">
      <path d="M 84.665625 192.542448 
L 754.265625 192.542448 
" clip-path="url(#p1723fe65fa)" style="fill: none; stroke-dasharray: 1.85,0.8; stroke-dashoffset: 0; stroke: #b0b0b0; stroke-opacity: 0.8; stroke-width: 0.5"/>
     </g>
     <g id="line2d_136">
      <g>
       <use xlink:href="#mc3b4a7c116" x="84.665625" y="192.542448" style="stroke: #000000; stroke-width: 0.6"/>
      </g>
     </g>
    </g>
    <g id="ytick_26">
     <g id="line2d_137">
      <path d="M 84.665625 178.685483 
L 754.265625 178.685483 
" clip-path="url(#p1723fe65fa)" style="fill: none; stroke-dasharray: 1.85,0.8; stroke-dashoffset: 0; stroke: #b0b0b0; stroke-opacity: 0.8; stroke-width: 0.5"/>
     </g>
     <g id="line2d_138">
      <g>
       <use xlink:href="#mc3b4a7c116" x="84.665625" y="178.685483" style="stroke: #000000; stroke-width: 0.6"/>
      </g>
     </g>
    </g>
    <g id="ytick_27">
     <g id="line2d_139">
      <path d="M 84.665625 164.828517 
L 754.265625 164.828517 
" clip-path="url(#p1723fe65fa)" style="fill: none; stroke-dasharray: 1.85,0.8; stroke-dashoffset: 0; stroke: #b0b0b0; stroke-opacity: 0.8; stroke-width: 0.5"/>
     </g>
     <g id="line2d_140">
      <g>
       <use xlink:href="#mc3b4a7c116" x="84.665625" y="164.828517" style="stroke: #000000; stroke-width: 0.6"/>
      </g>
     </g>
    </g>
    <g id="ytick_28">
     <g id="line2d_141">
      <path d="M 84.665625 137.114587 
L 754.265625 137.114587 
" clip-path="url(#p1723fe65fa)" style="fill: none; stroke-dasharray: 1.85,0.8; stroke-dashoffset: 0; stroke: #b0b0b0; stroke-opacity: 0.8; stroke-width: 0.5"/>
     </g>
     <g id="line2d_142">
      <g>
       <use xlink:href="#mc3b4a7c116" x="84.665625" y="137.114587" style="stroke: #000000; stroke-width: 0.6"/>
      </g>
     </g>
    </g>
    <g id="ytick_29">
     <g id="line2d_143">
      <path d="M 84.665625 123.257621 
L 754.265625 123.257621 
" clip-path="url(#p1723fe65fa)" style="fill: none; stroke-dasharray: 1.85,0.8; stroke-dashoffset: 0; stroke: #b0b0b0; stroke-opacity: 0.8; stroke-width: 0.5"/>
     </g>
     <g id="line2d_144">
      <g>
       <use xlink:href="#mc3b4a7c116" x="84.665625" y="123.257621" style="stroke: #000000; stroke-width: 0.6"/>
      </g>
     </g>
    </g>
    <g id="ytick_30">
     <g id="line2d_145">
      <path d="M 84.665625 109.400656 
L 754.265625 109.400656 
" clip-path="url(#p1723fe65fa)" style="fill: none; stroke-dasharray: 1.85,0.8; stroke-dashoffset: 0; stroke: #b0b0b0; stroke-opacity: 0.8; stroke-width: 0.5"/>
     </g>
     <g id="line2d_146">
      <g>
       <use xlink:href="#mc3b4a7c116" x="84.665625" y="109.400656" style="stroke: #000000; stroke-width: 0.6"/>
      </g>
     </g>
    </g>
    <g id="ytick_31">
     <g id="line2d_147">
      <path d="M 84.665625 95.54369 
L 754.265625 95.54369 
" clip-path="url(#p1723fe65fa)" style="fill: none; stroke-dasharray: 1.85,0.8; stroke-dashoffset: 0; stroke: #b0b0b0; stroke-opacity: 0.8; stroke-width: 0.5"/>
     </g>
     <g id="line2d_148">
      <g>
       <use xlink:href="#mc3b4a7c116" x="84.665625" y="95.54369" style="stroke: #000000; stroke-width: 0.6"/>
      </g>
     </g>
    </g>
    <g id="ytick_32">
     <g id="line2d_149">
      <path d="M 84.665625 67.82976 
L 754.265625 67.82976 
" clip-path="url(#p1723fe65fa)" style="fill: none; stroke-dasharray: 1.85,0.8; stroke-dashoffset: 0; stroke: #b0b0b0; stroke-opacity: 0.8; stroke-width: 0.5"/>
     </g>
     <g id="line2d_150">
      <g>
       <use xlink:href="#mc3b4a7c116" x="84.665625" y="67.82976" style="stroke: #000000; stroke-width: 0.6"/>
      </g>
     </g>
    </g>
    <g id="text_18">
     <!-- Efficiency (%) -->
     <g transform="translate(49.221875 335.120625) rotate(-90) scale(0.2 -0.2)">
      <defs>
       <path id="AptosDisplay-45" d="M 472 0 
L 472 4206 
L 3153 4206 
L 3153 3738 
L 1034 3738 
L 1034 2397 
L 2984 2397 
L 2984 1934 
L 1034 1934 
L 1034 469 
L 3153 469 
L 3153 0 
L 472 0 
z
" transform="scale(0.015625)"/>
       <path id="AptosDisplay-66" d="M 550 0 
L 550 2622 
L 44 2622 
L 44 3044 
L 550 3044 
L 550 3219 
Q 550 3453 589 3636 
Q 628 3819 728 3947 
Q 828 4075 1004 4140 
Q 1181 4206 1463 4206 
L 1781 4206 
L 1781 3797 
L 1494 3797 
Q 1219 3797 1145 3645 
Q 1072 3494 1072 3209 
L 1072 3044 
L 1775 3044 
L 1775 2622 
L 1072 2622 
L 1072 0 
L 550 0 
z
" transform="scale(0.015625)"/>
       <path id="AptosDisplay-63" d="M 1634 -53 
Q 1234 -53 925 122 
Q 616 297 441 645 
Q 266 994 266 1513 
Q 266 2031 437 2384 
Q 609 2738 917 2916 
Q 1225 3094 1634 3094 
Q 1978 3094 2251 2978 
Q 2525 2863 2689 2630 
Q 2853 2397 2866 2041 
L 2350 2041 
Q 2328 2334 2139 2503 
Q 1950 2672 1644 2672 
Q 1228 2672 1015 2367 
Q 803 2063 803 1513 
Q 803 1150 897 894 
Q 991 638 1178 503 
Q 1366 369 1644 369 
Q 1956 369 2159 541 
Q 2363 713 2372 1047 
L 2884 1047 
Q 2878 681 2711 436 
Q 2544 191 2264 69 
Q 1984 -53 1634 -53 
z
" transform="scale(0.015625)"/>
       <path id="AptosDisplay-6e" d="M 413 0 
L 413 3044 
L 919 3044 
L 931 2575 
Q 1066 2756 1316 2914 
Q 1566 3072 1941 3072 
Q 2428 3072 2637 2781 
Q 2847 2491 2847 1963 
L 2847 0 
L 2328 0 
L 2328 1891 
Q 2328 2106 2286 2275 
Q 2244 2444 2133 2539 
Q 2022 2634 1816 2634 
Q 1500 2634 1283 2482 
Q 1066 2331 934 2156 
L 934 0 
L 413 0 
z
" transform="scale(0.015625)"/>
       <path id="AptosDisplay-79" d="M 266 -1128 
L 266 -697 
L 525 -697 
Q 716 -697 831 -598 
Q 947 -500 1038 -275 
L 1153 0 
L -13 3044 
L 538 3044 
L 1428 553 
L 2250 3044 
L 2781 3044 
L 1688 0 
L 1550 -356 
Q 1441 -647 1314 -815 
Q 1188 -984 1013 -1056 
Q 838 -1128 578 -1128 
L 266 -1128 
z
" transform="scale(0.015625)"/>
       <path id="AptosDisplay-25" d="M 1188 0 
L 3669 4078 
L 4094 4078 
L 1613 0 
L 1188 0 
z
M 1197 1606 
Q 878 1606 679 1765 
Q 481 1925 390 2209 
Q 300 2494 300 2872 
Q 300 3253 390 3536 
Q 481 3819 679 3976 
Q 878 4134 1197 4134 
Q 1519 4134 1716 3976 
Q 1913 3819 2005 3536 
Q 2097 3253 2097 2872 
Q 2097 2494 2005 2209 
Q 1913 1925 1714 1765 
Q 1516 1606 1197 1606 
z
M 1197 1953 
Q 1391 1953 1498 2084 
Q 1606 2216 1648 2425 
Q 1691 2634 1691 2872 
Q 1691 3109 1648 3318 
Q 1606 3528 1498 3658 
Q 1391 3788 1197 3788 
Q 1006 3788 898 3658 
Q 791 3528 748 3318 
Q 706 3109 706 2872 
Q 706 2634 748 2425 
Q 791 2216 898 2084 
Q 1006 1953 1197 1953 
z
M 4084 -53 
Q 3769 -53 3570 105 
Q 3372 263 3281 547 
Q 3191 831 3191 1209 
Q 3191 1591 3281 1873 
Q 3372 2156 3570 2314 
Q 3769 2472 4084 2472 
Q 4406 2472 4604 2315 
Q 4803 2159 4893 1875 
Q 4984 1591 4984 1209 
Q 4984 831 4893 547 
Q 4803 263 4604 105 
Q 4406 -53 4084 -53 
z
M 4084 294 
Q 4281 294 4387 423 
Q 4494 553 4536 761 
Q 4578 969 4578 1209 
Q 4578 1447 4536 1656 
Q 4494 1866 4387 1994 
Q 4281 2122 4084 2122 
Q 3894 2122 3787 1994 
Q 3681 1866 3639 1656 
Q 3597 1447 3597 1209 
Q 3597 969 3639 761 
Q 3681 553 3787 423 
Q 3894 294 4084 294 
z
" transform="scale(0.015625)"/>
      </defs>
      <use xlink:href="#AptosDisplay-45"/>
      <use xlink:href="#AptosDisplay-66" x="54.052734"/>
      <use xlink:href="#AptosDisplay-66" x="82.373047"/>
      <use xlink:href="#AptosDisplay-69" x="110.693359"/>
      <use xlink:href="#AptosDisplay-63" x="131.738281"/>
      <use xlink:href="#AptosDisplay-69" x="181.005859"/>
      <use xlink:href="#AptosDisplay-65" x="202.050781"/>
      <use xlink:href="#AptosDisplay-6e" x="251.464844"/>
      <use xlink:href="#AptosDisplay-63" x="302.050781"/>
      <use xlink:href="#AptosDisplay-79" x="351.318359"/>
      <use xlink:href="#AptosDisplay-20" x="394.580078"/>
      <use xlink:href="#AptosDisplay-28" x="413.867188"/>
      <use xlink:href="#AptosDisplay-25" x="443.310547"/>
      <use xlink:href="#AptosDisplay-29" x="525.830078"/>
     </g>
    </g>
   </g>
   <g id="line2d_151">
    <path d="M 115.101989 134.475165 
L 116.326786 365.376598 
L 116.939184 352.048169 
L 117.551583 367.426908 
L 118.163982 391.809582 
L 118.77638 382.653936 
L 119.388779 417.688954 
L 120.001177 415.570217 
L 120.613576 440.772235 
L 121.225975 444.741071 
L 121.838373 455.508584 
L 122.450772 456.845779 
L 123.06317 462.487203 
L 123.675569 463.819801 
L 124.287968 466.86339 
L 124.900366 467.328291 
L 125.512765 468.017834 
L 126.125163 467.867783 
L 126.737562 466.604185 
L 127.349961 469.547902 
L 127.962359 468.985945 
L 129.187156 469.16546 
L 129.799555 469.976695 
L 130.411954 469.802931 
L 131.024352 470.222302 
L 131.636751 470.057474 
L 132.24915 469.203069 
L 132.861548 470.866259 
L 133.473947 470.130496 
L 134.086345 470.128732 
L 134.698744 471.301448 
L 135.311143 470.442452 
L 135.923541 469.983292 
L 136.53594 470.771138 
L 137.148338 470.491737 
L 137.760737 471.038103 
L 138.373136 469.941169 
L 138.985534 470.974698 
L 140.210331 469.853355 
L 141.435129 470.920129 
L 142.047527 470.996723 
L 142.659926 469.512769 
L 143.272324 469.991907 
L 144.497122 470.584786 
L 145.10952 470.322557 
L 145.721919 471.067663 
L 146.334317 470.69891 
L 146.946716 470.565811 
L 147.559115 471.118082 
L 148.171513 471.268824 
L 148.783912 470.362538 
L 149.39631 470.378874 
L 150.008709 470.944454 
L 150.621108 470.310691 
L 151.233506 471.632405 
L 151.845905 470.182644 
L 152.458303 470.796393 
L 153.070702 469.97081 
L 153.683101 471.423349 
L 154.295499 470.365946 
L 154.907898 471.035393 
L 155.520296 469.558353 
L 156.132695 471.148236 
L 156.745094 470.819148 
L 157.357492 470.994208 
L 157.969891 470.242024 
L 158.582289 471.052179 
L 159.194688 470.592373 
L 159.807087 470.519777 
L 160.419485 470.634675 
L 161.031884 471.094315 
L 161.644282 470.360773 
L 162.256681 470.669228 
L 162.86908 471.635363 
L 163.481478 471.14557 
L 164.093877 470.3632 
L 164.706275 471.035821 
L 165.318674 471.344536 
L 165.931073 470.493039 
L 166.543471 472.013327 
L 167.15587 471.166883 
L 168.380667 471.07252 
L 168.993066 471.827279 
L 169.605464 470.207487 
L 170.217863 471.039779 
L 170.830261 470.958611 
L 171.44266 471.556501 
L 172.055059 471.327363 
L 172.667457 470.37106 
L 173.279856 471.183027 
L 173.892254 470.897155 
L 174.504653 469.995903 
L 175.117052 470.653552 
L 175.72945 470.161029 
L 176.341849 470.075901 
L 176.954247 470.385155 
L 177.566646 471.717978 
L 178.179045 471.764964 
L 178.791443 470.64179 
L 180.01624 470.44351 
L 180.628639 471.102177 
L 181.241038 470.86122 
L 181.853436 470.390375 
L 182.465835 470.705471 
L 183.078233 470.739667 
L 183.690632 470.547112 
L 184.915429 470.81896 
L 185.527828 469.782429 
L 186.140227 470.776497 
L 186.752625 471.496785 
L 187.365024 470.190072 
L 187.977422 470.606173 
L 188.589821 471.317142 
L 189.20222 470.798278 
L 189.814618 470.738208 
L 191.039415 471.471115 
L 191.651814 471.139202 
L 192.264213 471.253114 
L 192.876611 470.661072 
L 195.938604 470.164557 
L 196.551003 470.474753 
L 197.163401 470.587536 
L 197.7758 469.913568 
L 198.388199 470.679637 
L 199.000597 470.726828 
L 199.612996 470.155745 
L 200.225394 470.660582 
L 200.837793 470.222302 
L 201.450192 470.094567 
L 202.06259 469.538787 
L 202.674989 469.820006 
L 203.287387 469.80569 
L 203.899786 469.544011 
L 204.512185 417.78812 
L 205.124583 426.755132 
L 205.736982 418.49097 
L 206.34938 421.405877 
L 206.961779 400.964467 
L 207.574178 426.069454 
L 208.186576 398.613359 
L 208.798975 399.14926 
L 209.411373 412.496542 
L 210.02071 387.169826 
L 210.633109 376.933695 
L 211.245507 397.027998 
L 211.857906 374.760762 
L 212.470304 375.415358 
L 213.082703 380.8242 
L 213.695102 393.675886 
L 214.3075 411.544823 
L 214.919899 412.747822 
L 215.532297 400.345245 
L 216.144696 418.939184 
L 216.760157 414.894365 
L 217.372555 386.320556 
L 217.984954 364.496402 
L 218.597352 397.47682 
L 219.209751 399.417144 
L 219.82215 399.529479 
L 220.431486 396.76297 
L 221.043885 404.452626 
L 221.656283 420.191783 
L 222.268682 403.752477 
L 222.881081 417.736661 
L 223.493479 417.099679 
L 224.10894 407.654278 
L 224.721338 369.858971 
L 225.330675 372.649283 
L 225.943074 381.145977 
L 226.555472 380.088043 
L 227.167871 418.895637 
L 227.780269 418.507022 
L 228.392668 422.274523 
L 229.005067 395.100154 
L 229.617465 419.878682 
L 230.229864 398.676604 
L 230.842262 392.477553 
L 231.454661 397.745868 
L 232.06706 382.330751 
L 232.679458 377.468223 
L 233.291857 379.730398 
L 233.904255 409.450748 
L 235.129053 340.568545 
L 235.741451 331.20573 
L 236.35385 375.505713 
L 236.966249 373.633316 
L 237.578647 348.836723 
L 238.191046 344.048987 
L 238.803444 342.401249 
L 239.415843 360.48555 
L 240.028242 383.248271 
L 240.64064 366.389289 
L 241.253039 380.860077 
L 241.865437 401.044176 
L 243.090235 387.516666 
L 243.702633 310.43663 
L 244.315032 353.292469 
L 244.92743 347.746216 
L 245.539829 317.510458 
L 246.152228 381.175977 
L 246.764626 391.804233 
L 247.377025 412.557123 
L 247.992485 395.888104 
L 248.604884 450.955389 
L 249.217283 303.51222 
L 249.829681 341.663736 
L 250.44208 331.20573 
L 251.054478 300.716178 
L 251.666877 354.876712 
L 252.279276 326.7989 
L 252.891674 353.219168 
L 253.504073 356.311664 
L 254.116471 376.352131 
L 254.725808 374.117295 
L 255.950605 399.177385 
L 256.563004 396.826381 
L 257.175402 400.642911 
L 257.790863 414.651069 
L 258.403262 77.9925 
L 259.01566 336.780861 
L 259.628059 293.440352 
L 260.237395 332.610152 
L 260.849794 329.43247 
L 261.462193 338.8794 
L 262.077653 381.43374 
L 262.690052 353.098193 
L 263.299388 339.769765 
L 263.914849 302.660226 
L 264.527248 346.701188 
L 265.139646 336.394392 
L 265.748983 365.570574 
L 266.361381 366.828536 
L 266.97378 341.060693 
L 267.586179 383.718785 
L 268.198577 386.102511 
L 268.810976 421.143977 
L 269.426436 421.173445 
L 270.038835 393.257355 
L 270.651234 331.642512 
L 271.263632 325.885113 
L 271.876031 281.130909 
L 272.488429 355.959075 
L 273.100828 321.968631 
L 273.713227 366.499271 
L 274.325625 346.46401 
L 274.938024 369.253305 
L 275.550422 373.286465 
L 276.159759 379.556926 
L 276.772158 390.366494 
L 277.384556 377.192485 
L 277.996955 404.736945 
L 278.609353 397.667527 
L 279.221752 392.408142 
L 279.834151 413.789415 
L 280.446549 406.266707 
L 281.058948 410.043388 
L 281.671346 389.114482 
L 282.283745 395.299519 
L 283.508542 418.710708 
L 284.120941 404.882805 
L 284.733339 424.36657 
L 285.958137 397.785855 
L 286.570535 408.12112 
L 287.182934 390.845893 
L 287.798394 413.21507 
L 288.410793 370.362702 
L 289.023192 343.718815 
L 289.63559 369.510142 
L 290.247989 334.88338 
L 290.860388 368.293525 
L 291.472786 383.98586 
L 292.085185 392.418676 
L 292.697583 388.566439 
L 293.309982 394.947759 
L 293.922381 398.838547 
L 294.534779 400.404879 
L 295.147178 407.04068 
L 295.759576 400.263764 
L 296.368913 397.733968 
L 296.984374 401.95602 
L 297.59371 363.436323 
L 300.046367 305.566673 
L 300.658765 377.56827 
L 301.268102 367.32661 
L 301.8805 330.633005 
L 302.492899 393.819864 
L 303.105298 355.161092 
L 303.720758 392.071286 
L 304.333157 416.367669 
L 304.945555 395.159279 
L 305.557954 366.109085 
L 306.170353 390.623794 
L 306.782751 368.41348 
L 307.39515 366.520693 
L 308.007548 367.366111 
L 308.619947 398.944778 
L 309.232346 440.706395 
L 309.844744 430.60275 
L 310.454081 407.764604 
L 311.066479 396.551803 
L 311.678878 413.519982 
L 312.291277 403.520874 
L 312.903675 431.554842 
L 313.519136 416.883133 
L 314.131534 427.066365 
L 314.743933 367.155356 
L 315.356332 143.967643 
L 315.96873 362.24973 
L 316.581129 389.775261 
L 317.193527 388.212033 
L 317.802864 424.992778 
L 318.415263 423.665355 
L 319.64006 412.579174 
L 320.252458 410.484105 
L 320.867919 403.146848 
L 321.480318 381.123752 
L 322.092716 369.677873 
L 322.705115 395.224513 
L 323.317513 398.314794 
L 323.929912 400.535301 
L 324.542311 401.054587 
L 325.154709 412.557123 
L 325.764046 400.685988 
L 326.376444 400.682761 
L 326.988843 405.174373 
L 327.601242 384.265882 
L 328.21364 389.10775 
L 328.826039 386.880012 
L 329.441499 413.781291 
L 330.053898 413.070829 
L 330.666297 387.87328 
L 331.278695 412.441539 
L 331.891094 398.278543 
L 332.503492 418.48989 
L 333.115891 419.848567 
L 333.72829 427.526913 
L 334.340688 452.202862 
L 334.953087 442.666977 
L 335.565485 458.544382 
L 336.177884 453.405321 
L 336.790283 463.742169 
L 337.402681 466.483498 
L 338.01508 466.619917 
L 338.627478 466.630604 
L 339.239877 469.076761 
L 339.852276 469.568534 
L 340.464674 468.889486 
L 341.077073 470.006761 
L 341.689472 470.855505 
L 342.30187 469.232392 
L 342.914269 469.352979 
L 343.526667 469.906191 
L 344.139066 469.572586 
L 344.751465 469.547785 
L 345.363863 470.141848 
L 345.976262 469.054961 
L 346.58866 469.70143 
L 347.201059 470.81088 
L 347.813458 470.822289 
L 348.425856 469.311761 
L 349.038255 470.242295 
L 349.650653 470.315334 
L 350.263052 470.545937 
L 350.875451 469.171462 
L 351.487849 470.241125 
L 352.100248 470.145901 
L 352.712646 470.243923 
L 353.325045 469.518465 
L 353.937444 470.506839 
L 355.162241 469.856149 
L 355.774639 470.150891 
L 356.387038 471.126903 
L 356.999437 470.414715 
L 358.224234 470.005785 
L 358.836632 470.119048 
L 360.06143 470.083113 
L 360.673828 469.543231 
L 361.286227 470.657177 
L 361.898625 470.256979 
L 362.511024 470.649572 
L 363.123423 469.791009 
L 363.735821 470.142415 
L 364.34822 469.866239 
L 364.960618 470.403443 
L 365.573017 470.436052 
L 366.185416 470.107991 
L 366.797814 469.963993 
L 367.410213 470.63979 
L 368.022611 470.116207 
L 368.63501 470.826077 
L 369.859807 470.449613 
L 370.472206 469.638385 
L 371.084604 470.175129 
L 371.697003 470.504802 
L 372.309402 470.543587 
L 372.9218 470.257122 
L 373.534199 470.684142 
L 374.146597 470.526225 
L 374.758996 471.505395 
L 375.371395 470.516244 
L 377.20859 470.844277 
L 377.820989 469.108726 
L 378.433388 470.293871 
L 379.045786 470.380715 
L 379.658185 470.592488 
L 380.270583 470.606308 
L 380.882982 470.777949 
L 381.495381 471.594416 
L 382.107779 470.970678 
L 382.720178 469.837177 
L 383.332576 469.539201 
L 383.944975 470.236588 
L 384.557374 470.426482 
L 385.169772 469.523937 
L 386.397631 470.785223 
L 387.01003 469.514036 
L 387.622429 461.151539 
L 388.231765 481.1925 
L 388.844164 405.067211 
L 389.456562 420.115314 
L 390.068961 404.528976 
L 390.68136 385.768218 
L 391.290696 411.90419 
L 391.903095 405.293438 
L 392.518556 413.316084 
L 393.130954 418.960034 
L 393.743353 415.325827 
L 394.355751 390.95527 
L 394.96815 401.958626 
L 395.580549 390.640223 
L 396.192947 413.28664 
L 396.805346 413.215305 
L 397.417744 398.992818 
L 398.027081 415.782701 
L 398.63948 370.17859 
L 399.251878 407.894011 
L 399.864277 386.472396 
L 400.479737 419.039412 
L 401.092136 415.920992 
L 401.704535 375.373043 
L 402.316933 353.214663 
L 402.929332 390.756771 
L 403.54173 393.796753 
L 404.154129 416.410654 
L 404.766528 403.256756 
L 405.378926 427.823154 
L 405.991325 442.2603 
L 406.603723 453.745452 
L 407.216122 455.155873 
L 407.831583 458.907692 
L 408.440919 446.510997 
L 409.053318 425.464615 
L 409.665716 410.107716 
L 410.278115 391.914482 
L 410.887452 404.934274 
L 411.49985 414.026052 
L 412.112249 380.144441 
L 412.727709 422.350839 
L 413.340108 400.264159 
L 413.952507 366.444983 
L 414.564905 398.118334 
L 415.177304 393.468446 
L 415.789702 395.433973 
L 416.402101 411.894049 
L 417.0145 376.006282 
L 417.626898 400.003062 
L 418.239297 390.190727 
L 418.851695 395.966877 
L 420.073431 384.788293 
L 420.685829 366.669598 
L 421.298228 390.481128 
L 421.913688 408.634818 
L 422.526087 350.687475 
L 423.138486 376.986158 
L 423.750884 372.586992 
L 424.363283 410.077823 
L 424.975681 392.152912 
L 425.58808 421.938603 
L 426.200479 422.380536 
L 426.812877 447.194844 
L 427.425276 452.324119 
L 428.037674 454.61817 
L 428.653135 454.557772 
L 429.265534 460.066138 
L 429.877932 461.786099 
L 430.490331 459.911213 
L 431.102729 464.492311 
L 431.715128 463.759029 
L 432.327527 464.045705 
L 432.939925 464.947755 
L 433.552324 466.974814 
L 434.164722 467.870668 
L 434.777121 469.124625 
L 435.38952 467.307592 
L 436.001918 468.316514 
L 436.614317 469.574512 
L 437.226715 468.756618 
L 437.839114 469.646366 
L 438.451513 468.88374 
L 439.063911 469.555208 
L 439.67631 469.45606 
L 440.288708 469.164581 
L 440.901107 468.442028 
L 442.125904 469.374786 
L 442.738303 468.934252 
L 443.350701 469.01395 
L 443.9631 469.832807 
L 444.575499 469.609543 
L 445.187897 469.958487 
L 445.800296 469.588286 
L 446.412694 470.1701 
L 447.025093 469.939257 
L 447.637492 469.524021 
L 448.24989 469.246508 
L 448.862289 469.356186 
L 449.474688 469.330166 
L 450.087086 468.431122 
L 450.699485 469.775384 
L 451.311883 468.661495 
L 451.924282 469.07011 
L 452.536681 469.050283 
L 453.149079 469.843826 
L 453.761478 469.910925 
L 454.373876 468.890199 
L 454.986275 468.882437 
L 455.598674 469.380173 
L 456.211072 468.295981 
L 456.823471 469.250838 
L 458.048268 469.227274 
L 458.660667 470.337106 
L 459.273065 469.506767 
L 459.885464 468.963042 
L 460.497862 469.187517 
L 461.110261 468.734339 
L 461.72266 468.716658 
L 462.335058 469.594129 
L 462.947457 469.773829 
L 463.559855 469.528329 
L 464.172254 469.16187 
L 464.784653 468.558716 
L 465.397051 468.219716 
L 466.621848 469.069337 
L 467.234247 469.179605 
L 467.846646 467.919769 
L 468.459044 468.268902 
L 469.071443 467.971641 
L 469.683841 469.150751 
L 470.29624 467.604659 
L 470.908639 469.290376 
L 472.133436 468.352172 
L 472.745834 468.266437 
L 473.358233 467.705724 
L 473.970632 467.916305 
L 474.58303 467.724959 
L 475.195429 468.118065 
L 475.807827 467.928676 
L 476.420226 468.209083 
L 477.032625 467.982915 
L 477.645023 468.769603 
L 478.257422 468.409303 
L 478.86982 467.741527 
L 479.482219 467.92341 
L 480.094618 467.703972 
L 480.707016 469.838295 
L 481.931813 468.537495 
L 482.544212 467.722662 
L 484.993806 468.194229 
L 486.218604 469.277506 
L 486.831002 469.300583 
L 487.443401 467.574869 
L 488.055799 467.855644 
L 488.668198 468.774163 
L 489.280597 467.909197 
L 489.892995 467.370856 
L 490.505394 467.609449 
L 491.117792 467.657186 
L 491.730191 467.530053 
L 492.34259 468.091434 
L 492.954988 468.366924 
L 493.567387 467.959175 
L 494.179785 468.39039 
L 494.792184 468.266416 
L 495.404583 467.638124 
L 496.016981 468.433503 
L 496.62938 468.692921 
L 497.241778 467.722289 
L 497.854177 467.892825 
L 498.466576 467.607557 
L 499.078974 467.786786 
L 499.691373 468.131068 
L 500.303772 467.467219 
L 501.528569 466.6934 
L 502.140967 467.221246 
L 502.753366 467.387081 
L 503.365765 469.002029 
L 503.978163 467.026365 
L 504.590562 466.429413 
L 505.20296 466.746131 
L 505.815359 466.888286 
L 506.427758 466.496186 
L 507.040156 466.803642 
L 507.652555 466.554475 
L 508.877352 467.754657 
L 509.489751 467.9642 
L 510.102149 466.898308 
L 510.714548 467.617614 
L 511.326946 466.566893 
L 511.939345 467.28142 
L 512.551744 466.92309 
L 513.164142 466.890086 
L 513.776541 465.516165 
L 514.388939 465.196929 
L 515.001338 466.563454 
L 515.613737 465.774776 
L 516.226135 466.592152 
L 516.838534 465.554385 
L 517.450932 464.854314 
L 518.063331 465.779343 
L 518.67573 464.632216 
L 519.288128 466.094905 
L 519.900527 466.064984 
L 520.512925 467.185435 
L 521.125324 465.368661 
L 521.737723 466.558605 
L 522.350121 465.453581 
L 522.96252 466.507206 
L 523.574918 466.590525 
L 524.187317 466.401375 
L 524.799716 467.220938 
L 525.412114 465.789705 
L 526.024513 467.506702 
L 526.636911 465.708615 
L 527.24931 466.279348 
L 527.861709 467.3593 
L 528.474107 467.328686 
L 529.086506 468.250684 
L 529.698904 466.299487 
L 530.311303 467.681212 
L 530.923702 467.24912 
L 532.148499 468.226657 
L 532.760897 466.768799 
L 533.373296 467.873746 
L 533.985695 467.607169 
L 534.598093 467.88823 
L 535.210492 468.646796 
L 535.82289 467.934031 
L 536.435289 468.39718 
L 537.047688 468.09676 
L 538.272485 468.010196 
L 538.884883 469.369249 
L 539.497282 467.397046 
L 540.109681 468.646796 
L 540.722079 468.184693 
L 541.946876 468.659658 
L 542.559275 467.308594 
L 543.171674 467.838045 
L 543.784072 468.602206 
L 544.396471 468.191509 
L 545.008869 468.211619 
L 545.621268 467.707674 
L 546.233667 468.349943 
L 546.846065 468.136892 
L 547.458464 467.722489 
L 548.070862 468.681331 
L 548.683261 468.703227 
L 549.29566 469.469218 
L 549.908058 467.143973 
L 551.132856 469.749265 
L 551.745254 467.94943 
L 552.357653 468.860129 
L 552.970051 468.041213 
L 553.58245 467.43832 
L 554.194849 467.933971 
L 554.807247 467.978386 
L 555.419646 468.774614 
L 556.032044 469.28566 
L 556.644443 470.425807 
L 557.256842 468.825463 
L 557.86924 468.281961 
L 559.094037 467.872084 
L 559.706436 468.442051 
L 560.318835 467.787485 
L 560.931233 468.684595 
L 561.543632 467.187978 
L 562.15603 468.870704 
L 562.768429 468.411344 
L 563.380828 468.411344 
L 563.993226 467.601071 
L 564.605625 469.441448 
L 565.218023 467.175665 
L 565.830422 467.790003 
L 566.442821 467.959366 
L 567.055219 468.253892 
L 567.667618 468.00464 
L 568.280016 468.335641 
L 568.892415 468.34423 
L 569.504814 468.180953 
L 570.117212 469.226463 
L 570.729611 467.496979 
L 571.342009 468.708377 
L 571.954408 467.903944 
L 572.566807 468.180465 
L 573.179205 467.587681 
L 573.791604 468.992191 
L 574.404002 467.057503 
L 575.016401 468.44706 
L 575.6288 468.034205 
L 576.241198 467.92909 
L 576.853597 467.449231 
L 577.465995 468.476218 
L 578.078394 467.065923 
L 578.690793 467.750537 
L 579.303191 466.060614 
L 579.91559 467.464926 
L 580.527988 466.180192 
L 581.140387 466.054052 
L 581.752786 466.641934 
L 582.365184 465.53849 
L 582.977583 466.570289 
L 583.589981 466.098659 
L 584.20238 466.300869 
L 584.814779 467.271849 
L 585.427177 466.473462 
L 586.039576 467.640649 
L 586.651974 466.269694 
L 587.264373 466.870893 
L 587.876772 465.559522 
L 588.48917 465.983757 
L 589.101569 465.90467 
L 589.713967 466.683679 
L 590.326366 465.327985 
L 590.938765 466.856416 
L 592.163562 465.917356 
L 592.77596 466.809998 
L 593.388359 465.594035 
L 594.000758 465.771907 
L 594.613156 464.205351 
L 595.225555 466.668318 
L 595.837953 466.279747 
L 596.450352 466.579323 
L 597.062751 465.906818 
L 597.675149 465.780729 
L 598.287548 465.033545 
L 598.899946 465.859922 
L 599.512345 464.779972 
L 600.124744 466.414667 
L 600.737142 466.942822 
L 601.349541 466.478264 
L 601.961939 465.185429 
L 603.186737 463.459057 
L 603.799135 464.295016 
L 604.411534 464.760483 
L 605.023933 465.466319 
L 605.636331 465.812591 
L 606.24873 465.441624 
L 606.861128 465.250826 
L 607.473527 465.396097 
L 608.085926 466.54617 
L 608.698324 464.717729 
L 609.310723 464.368822 
L 609.923121 465.8834 
L 610.53552 465.598186 
L 611.147919 464.96409 
L 611.760317 465.653525 
L 612.372716 465.337328 
L 612.985114 465.391931 
L 613.597513 465.6673 
L 614.209912 464.120802 
L 614.82231 466.108197 
L 616.047107 465.689633 
L 617.271905 466.182887 
L 619.1091 464.569111 
L 619.721499 466.425094 
L 620.333898 465.432411 
L 620.946296 465.448521 
L 621.558695 466.339222 
L 622.171093 465.181268 
L 622.783492 465.04965 
L 623.395891 465.053784 
L 624.008289 465.505475 
L 624.620688 463.889733 
L 625.233086 465.233841 
L 625.845485 464.336728 
L 626.457884 464.522426 
L 627.070282 463.482852 
L 627.682681 464.143763 
L 628.295079 463.344918 
L 628.907478 463.771125 
L 629.519877 463.982018 
L 630.132275 466.11324 
L 630.744674 465.77291 
L 631.357072 464.374665 
L 631.969471 463.485536 
L 632.58187 465.656375 
L 633.194268 465.790614 
L 633.806667 465.455367 
L 634.419065 465.257347 
L 635.031464 466.71877 
L 635.643863 465.368802 
L 636.256261 467.187113 
L 636.86866 467.602338 
L 638.093457 468.641114 
L 638.705856 467.501108 
L 639.318254 467.050719 
L 639.930653 468.51834 
L 640.543051 467.725004 
L 641.15545 467.406289 
L 641.767849 467.310214 
L 642.380247 468.938244 
L 642.992646 468.577185 
L 643.605044 469.163634 
L 644.217443 468.268646 
L 644.829842 439.738976 
L 645.44224 460.798556 
L 646.054639 437.941235 
L 646.667037 385.119721 
L 647.279436 397.437379 
L 647.888773 385.530988 
L 648.504233 414.594053 
L 649.116632 396.220674 
L 649.72903 400.23061 
L 650.341429 416.84748 
L 650.953828 399.97489 
L 651.566226 437.673173 
L 652.178625 443.188796 
L 652.791023 452.626794 
L 653.403422 457.088476 
L 654.015821 454.961212 
L 654.628219 462.600264 
L 655.240618 459.712445 
L 655.853017 463.152774 
L 656.465415 461.197821 
L 657.077814 465.301513 
L 657.690212 465.010952 
L 658.302611 467.399182 
L 658.91501 466.264389 
L 659.527408 467.684246 
L 660.139807 467.002242 
L 660.752205 467.004206 
L 661.364604 467.939796 
L 661.977003 467.514754 
L 662.589401 463.812575 
L 663.2018 453.06004 
L 663.808074 461.794468 
L 664.420473 429.568548 
L 665.032872 435.323476 
L 665.648332 416.70292 
L 666.263793 439.055118 
L 666.876191 442.132789 
L 667.48859 453.361938 
L 670.550583 384.292119 
L 671.162982 386.224834 
L 671.77538 424.55064 
L 672.387779 422.33216 
L 673.000177 390.649298 
L 673.609514 414.567933 
L 674.224975 398.966099 
L 674.837373 424.327919 
L 675.449772 387.828984 
L 676.06217 377.527465 
L 676.674569 408.44895 
L 677.286968 429.626376 
L 678.511765 451.665872 
L 679.124163 447.241521 
L 679.736562 457.939187 
L 680.348961 454.732465 
L 680.961359 458.913331 
L 681.573758 461.304964 
L 682.186156 464.738512 
L 682.798555 463.501495 
L 683.410954 466.113392 
L 684.023352 467.61996 
L 684.635751 467.026147 
L 685.248149 468.011309 
L 685.860548 467.343621 
L 686.472947 450.520706 
L 687.085345 437.678459 
L 687.697744 447.985539 
L 688.310142 465.297138 
L 688.922541 440.891848 
L 689.53494 427.381546 
L 690.147338 467.121979 
L 690.759737 465.119259 
L 691.372135 465.614081 
L 691.984534 467.409293 
L 692.596933 466.194223 
L 693.209331 467.797947 
L 693.82173 467.275634 
L 694.434128 467.869779 
L 695.046527 468.293149 
L 695.658926 467.15606 
L 696.271324 467.290337 
L 697.496121 469.302829 
L 698.10852 468.380625 
L 698.720919 468.381163 
L 699.333317 469.692998 
L 699.945716 467.869581 
L 700.558114 468.601781 
L 701.782912 467.613854 
L 702.39531 468.652622 
L 703.007709 468.404511 
L 703.620107 467.844478 
L 704.232506 468.296642 
L 704.844905 469.401817 
L 705.457303 467.320213 
L 706.069702 469.608846 
L 706.6821 469.326695 
L 707.294499 468.650204 
L 708.519296 468.363267 
L 709.131695 468.270555 
L 709.744094 468.330855 
L 710.356492 467.797004 
L 710.968891 468.713104 
L 711.581289 468.015231 
L 712.193688 468.610726 
L 712.806087 467.13268 
L 714.030884 468.831966 
L 714.643282 468.920803 
L 715.255681 468.39105 
L 715.86808 468.886329 
L 716.480478 468.257398 
L 717.092877 469.790621 
L 717.705275 468.41588 
L 718.930073 468.628303 
L 719.542471 469.194205 
L 720.15487 468.180158 
L 721.379667 468.654836 
L 721.992066 468.371666 
L 722.604464 468.553714 
L 723.216863 468.973984 
L 723.829261 468.322291 
L 723.829261 468.322291 
" clip-path="url(#p1723fe65fa)" style="fill: none; stroke: #ac2b37; stroke-width: 1.5; stroke-linecap: square"/>
   </g>
   <g id="patch_3">
    <path d="M 84.665625 501.3525 
L 84.665625 57.8325 
" style="fill: none; stroke: #000000; stroke-width: 0.8; stroke-linejoin: miter; stroke-linecap: square"/>
   </g>
   <g id="patch_4">
    <path d="M 754.265625 501.3525 
L 754.265625 57.8325 
" style="fill: none; stroke: #000000; stroke-width: 0.8; stroke-linejoin: miter; stroke-linecap: square"/>
   </g>
   <g id="patch_5">
    <path d="M 84.665625 501.3525 
L 754.265625 501.3525 
" style="fill: none; stroke: #000000; stroke-width: 0.8; stroke-linejoin: miter; stroke-linecap: square"/>
   </g>
   <g id="patch_6">
    <path d="M 84.665625 57.8325 
L 754.265625 57.8325 
" style="fill: none; stroke: #000000; stroke-width: 0.8; stroke-linejoin: miter; stroke-linecap: square"/>
   </g>
   <g id="text_19">
    <!-- Efficiency vs Time -->
    <g transform="translate(332.95875 51.8325) scale(0.24 -0.24)">
     <defs>
      <path id="AptosDisplay-76" d="M 1103 0 
L -13 3044 
L 538 3044 
L 1391 513 
L 2250 3044 
L 2781 3044 
L 1678 0 
L 1103 0 
z
" transform="scale(0.015625)"/>
      <path id="AptosDisplay-73" d="M 1506 -41 
Q 1247 -41 1017 14 
Q 788 69 613 191 
Q 438 313 339 506 
Q 241 700 241 978 
L 744 978 
Q 744 628 966 487 
Q 1188 347 1519 347 
Q 1816 347 2008 458 
Q 2200 569 2200 822 
Q 2200 1047 2026 1153 
Q 1853 1259 1413 1369 
Q 1056 1453 815 1564 
Q 575 1675 453 1845 
Q 331 2016 331 2275 
Q 331 2475 417 2626 
Q 503 2778 658 2879 
Q 813 2981 1020 3032 
Q 1228 3084 1472 3084 
Q 1713 3084 1923 3028 
Q 2134 2972 2296 2855 
Q 2459 2738 2551 2552 
Q 2644 2366 2644 2109 
L 2138 2109 
Q 2138 2425 1945 2558 
Q 1753 2691 1472 2691 
Q 1191 2691 1016 2594 
Q 841 2497 841 2291 
Q 841 2169 919 2084 
Q 997 2000 1181 1933 
Q 1366 1866 1675 1791 
Q 2019 1709 2248 1596 
Q 2478 1484 2595 1306 
Q 2713 1128 2713 847 
Q 2713 616 2622 447 
Q 2531 278 2367 170 
Q 2203 63 1983 11 
Q 1763 -41 1506 -41 
z
" transform="scale(0.015625)"/>
     </defs>
     <use xlink:href="#AptosDisplay-45"/>
     <use xlink:href="#AptosDisplay-66" x="54.052734"/>
     <use xlink:href="#AptosDisplay-66" x="82.373047"/>
     <use xlink:href="#AptosDisplay-69" x="110.693359"/>
     <use xlink:href="#AptosDisplay-63" x="131.738281"/>
     <use xlink:href="#AptosDisplay-69" x="181.005859"/>
     <use xlink:href="#AptosDisplay-65" x="202.050781"/>
     <use xlink:href="#AptosDisplay-6e" x="251.464844"/>
     <use xlink:href="#AptosDisplay-63" x="302.050781"/>
     <use xlink:href="#AptosDisplay-79" x="351.318359"/>
     <use xlink:href="#AptosDisplay-20" x="394.580078"/>
     <use xlink:href="#AptosDisplay-76" x="413.867188"/>
     <use xlink:href="#AptosDisplay-73" x="457.128906"/>
     <use xlink:href="#AptosDisplay-20" x="503.417969"/>
     <use xlink:href="#AptosDisplay-54" x="522.705078"/>
     <use xlink:href="#AptosDisplay-69" x="570.410156"/>
     <use xlink:href="#AptosDisplay-6d" x="591.455078"/>
     <use xlink:href="#AptosDisplay-65" x="671.435547"/>
    </g>
   </g>
  </g>
 </g>
 <defs>
  <clipPath id="p1723fe65fa">
   <rect x="84.665625" y="57.8325" width="669.6" height="443.52"/>
  </clipPath>
 </defs>
</svg>
