<?xml version="1.0" encoding="utf-8" standalone="no"?>
<!DOCTYPE svg PUBLIC "-//W3C//DTD SVG 1.1//EN"
  "http://www.w3.org/Graphics/SVG/1.1/DTD/svg11.dtd">
<svg xmlns:xlink="http://www.w3.org/1999/xlink" width="800.88125pt" height="581.830625pt" viewBox="0 0 800.88125 581.830625" xmlns="http://www.w3.org/2000/svg" version="1.1">
 <metadata>
  <rdf:RDF xmlns:dc="http://purl.org/dc/elements/1.1/" xmlns:cc="http://creativecommons.org/ns#" xmlns:rdf="http://www.w3.org/1999/02/22-rdf-syntax-ns#">
   <cc:Work>
    <dc:type rdf:resource="http://purl.org/dc/dcmitype/StillImage"/>
    <dc:date>2025-04-03T01:48:07.052438</dc:date>
    <dc:format>image/svg+xml</dc:format>
    <dc:creator>
     <cc:Agent>
      <dc:title>Matplotlib v3.8.2, https://matplotlib.org/</dc:title>
     </cc:Agent>
    </dc:creator>
   </cc:Work>
  </rdf:RDF>
 </metadata>
 <defs>
  <style type="text/css">*{stroke-linejoin: round; stroke-linecap: butt}</style>
 </defs>
 <g id="figure_1">
  <g id="patch_1">
   <path d="M 0 581.830625 
L 800.88125 581.830625 
L 800.88125 0 
L 0 0 
z
" style="fill: #ffffff"/>
  </g>
  <g id="axes_1">
   <g id="patch_2">
    <path d="M 95.28125 501.3525 
L 764.88125 501.3525 
L 764.88125 57.8325 
L 95.28125 57.8325 
z
" style="fill: #ffffff"/>
   </g>
   <g id="matplotlib.axis_1">
    <g id="xtick_1">
     <g id="line2d_1">
      <path d="M 125.366803 501.3525 
L 125.366803 57.8325 
" clip-path="url(#p6b3af6e24e)" style="fill: none; stroke: #b0b0b0; stroke-opacity: 0.8; stroke-linecap: square"/>
     </g>
     <g id="line2d_2">
      <defs>
       <path id="m2fd17108e0" d="M 0 0 
L 0 3.5 
" style="stroke: #000000; stroke-width: 0.8"/>
      </defs>
      <g>
       <use xlink:href="#m2fd17108e0" x="125.366803" y="501.3525" style="stroke: #000000; stroke-width: 0.8"/>
      </g>
     </g>
     <g id="text_1">
      <!-- 0 -->
      <g transform="translate(120.137116 521.49625) scale(0.2 -0.2)">
       <defs>
        <path id="AptosDisplay-30" d="M 1672 -56 
Q 1291 -56 1028 105 
Q 766 266 605 552 
Q 444 838 372 1216 
Q 300 1594 300 2031 
Q 300 2475 372 2856 
Q 444 3238 605 3525 
Q 766 3813 1028 3973 
Q 1291 4134 1672 4134 
Q 2053 4134 2317 3975 
Q 2581 3816 2742 3527 
Q 2903 3238 2975 2858 
Q 3047 2478 3047 2038 
Q 3047 1597 2975 1217 
Q 2903 838 2742 552 
Q 2581 266 2318 105 
Q 2056 -56 1672 -56 
z
M 1672 409 
Q 1916 409 2073 550 
Q 2231 691 2322 925 
Q 2413 1159 2448 1448 
Q 2484 1738 2484 2038 
Q 2484 2338 2448 2628 
Q 2413 2919 2322 3153 
Q 2231 3388 2073 3527 
Q 1916 3666 1669 3666 
Q 1428 3666 1268 3527 
Q 1109 3388 1020 3153 
Q 931 2919 893 2628 
Q 856 2338 856 2038 
Q 856 1741 893 1450 
Q 931 1159 1020 925 
Q 1109 691 1268 550 
Q 1428 409 1672 409 
z
" transform="scale(0.015625)"/>
       </defs>
       <use xlink:href="#AptosDisplay-30"/>
      </g>
     </g>
    </g>
    <g id="xtick_2">
     <g id="line2d_3">
      <path d="M 206.572883 501.3525 
L 206.572883 57.8325 
" clip-path="url(#p6b3af6e24e)" style="fill: none; stroke: #b0b0b0; stroke-opacity: 0.8; stroke-linecap: square"/>
     </g>
     <g id="line2d_4">
      <g>
       <use xlink:href="#m2fd17108e0" x="206.572883" y="501.3525" style="stroke: #000000; stroke-width: 0.8"/>
      </g>
     </g>
     <g id="text_2">
      <!-- 25 -->
      <g transform="translate(196.113508 521.49625) scale(0.2 -0.2)">
       <defs>
        <path id="AptosDisplay-32" d="M 247 0 
L 247 413 
L 1725 1741 
Q 2100 2081 2269 2351 
Q 2438 2622 2438 2938 
Q 2438 3256 2263 3461 
Q 2088 3666 1691 3666 
Q 1247 3666 1055 3439 
Q 863 3213 863 2869 
L 341 2869 
Q 341 3250 491 3534 
Q 641 3819 941 3975 
Q 1241 4131 1691 4131 
Q 2103 4131 2390 3986 
Q 2678 3841 2828 3578 
Q 2978 3316 2978 2959 
Q 2978 2638 2853 2375 
Q 2728 2113 2517 1883 
Q 2306 1653 2044 1425 
L 959 463 
L 3097 463 
L 3097 0 
L 247 0 
z
" transform="scale(0.015625)"/>
        <path id="AptosDisplay-35" d="M 1669 -56 
Q 1278 -56 964 83 
Q 650 222 465 483 
Q 281 744 281 1113 
L 816 1113 
Q 816 778 1055 584 
Q 1294 391 1669 391 
Q 2069 391 2291 625 
Q 2513 859 2513 1319 
Q 2513 1772 2291 1989 
Q 2069 2206 1697 2206 
Q 1409 2206 1223 2123 
Q 1038 2041 916 1894 
L 444 1894 
L 622 4078 
L 2788 4078 
L 2788 3613 
L 1041 3613 
L 931 2322 
Q 1044 2453 1251 2550 
Q 1459 2647 1775 2647 
Q 2131 2647 2420 2506 
Q 2709 2366 2881 2072 
Q 3053 1778 3053 1319 
Q 3053 863 2875 558 
Q 2697 253 2384 98 
Q 2072 -56 1669 -56 
z
" transform="scale(0.015625)"/>
       </defs>
       <use xlink:href="#AptosDisplay-32"/>
       <use xlink:href="#AptosDisplay-35" x="52.294922"/>
      </g>
     </g>
    </g>
    <g id="xtick_3">
     <g id="line2d_5">
      <path d="M 287.778964 501.3525 
L 287.778964 57.8325 
" clip-path="url(#p6b3af6e24e)" style="fill: none; stroke: #b0b0b0; stroke-opacity: 0.8; stroke-linecap: square"/>
     </g>
     <g id="line2d_6">
      <g>
       <use xlink:href="#m2fd17108e0" x="287.778964" y="501.3525" style="stroke: #000000; stroke-width: 0.8"/>
      </g>
     </g>
     <g id="text_3">
      <!-- 50 -->
      <g transform="translate(277.319589 521.49625) scale(0.2 -0.2)">
       <use xlink:href="#AptosDisplay-35"/>
       <use xlink:href="#AptosDisplay-30" x="52.294922"/>
      </g>
     </g>
    </g>
    <g id="xtick_4">
     <g id="line2d_7">
      <path d="M 368.985044 501.3525 
L 368.985044 57.8325 
" clip-path="url(#p6b3af6e24e)" style="fill: none; stroke: #b0b0b0; stroke-opacity: 0.8; stroke-linecap: square"/>
     </g>
     <g id="line2d_8">
      <g>
       <use xlink:href="#m2fd17108e0" x="368.985044" y="501.3525" style="stroke: #000000; stroke-width: 0.8"/>
      </g>
     </g>
     <g id="text_4">
      <!-- 75 -->
      <g transform="translate(358.525669 521.49625) scale(0.2 -0.2)">
       <defs>
        <path id="AptosDisplay-37" d="M 766 0 
L 2609 3600 
L 194 3600 
L 194 4078 
L 3141 4078 
L 3141 3622 
L 1334 0 
L 766 0 
z
" transform="scale(0.015625)"/>
       </defs>
       <use xlink:href="#AptosDisplay-37"/>
       <use xlink:href="#AptosDisplay-35" x="52.294922"/>
      </g>
     </g>
    </g>
    <g id="xtick_5">
     <g id="line2d_9">
      <path d="M 450.191124 501.3525 
L 450.191124 57.8325 
" clip-path="url(#p6b3af6e24e)" style="fill: none; stroke: #b0b0b0; stroke-opacity: 0.8; stroke-linecap: square"/>
     </g>
     <g id="line2d_10">
      <g>
       <use xlink:href="#m2fd17108e0" x="450.191124" y="501.3525" style="stroke: #000000; stroke-width: 0.8"/>
      </g>
     </g>
     <g id="text_5">
      <!-- 100 -->
      <g transform="translate(434.502061 521.49625) scale(0.2 -0.2)">
       <defs>
        <path id="AptosDisplay-31" d="M 1659 0 
L 1659 3425 
Q 1575 3309 1420 3201 
Q 1266 3094 1052 3009 
Q 838 2925 578 2888 
L 578 3381 
Q 834 3425 1057 3540 
Q 1281 3656 1453 3806 
Q 1625 3956 1719 4094 
L 2206 4094 
L 2206 0 
L 1659 0 
z
" transform="scale(0.015625)"/>
       </defs>
       <use xlink:href="#AptosDisplay-31"/>
       <use xlink:href="#AptosDisplay-30" x="52.294922"/>
       <use xlink:href="#AptosDisplay-30" x="104.589844"/>
      </g>
     </g>
    </g>
    <g id="xtick_6">
     <g id="line2d_11">
      <path d="M 531.397204 501.3525 
L 531.397204 57.8325 
" clip-path="url(#p6b3af6e24e)" style="fill: none; stroke: #b0b0b0; stroke-opacity: 0.8; stroke-linecap: square"/>
     </g>
     <g id="line2d_12">
      <g>
       <use xlink:href="#m2fd17108e0" x="531.397204" y="501.3525" style="stroke: #000000; stroke-width: 0.8"/>
      </g>
     </g>
     <g id="text_6">
      <!-- 125 -->
      <g transform="translate(515.708141 521.49625) scale(0.2 -0.2)">
       <use xlink:href="#AptosDisplay-31"/>
       <use xlink:href="#AptosDisplay-32" x="52.294922"/>
       <use xlink:href="#AptosDisplay-35" x="104.589844"/>
      </g>
     </g>
    </g>
    <g id="xtick_7">
     <g id="line2d_13">
      <path d="M 612.603284 501.3525 
L 612.603284 57.8325 
" clip-path="url(#p6b3af6e24e)" style="fill: none; stroke: #b0b0b0; stroke-opacity: 0.8; stroke-linecap: square"/>
     </g>
     <g id="line2d_14">
      <g>
       <use xlink:href="#m2fd17108e0" x="612.603284" y="501.3525" style="stroke: #000000; stroke-width: 0.8"/>
      </g>
     </g>
     <g id="text_7">
      <!-- 150 -->
      <g transform="translate(596.914221 521.49625) scale(0.2 -0.2)">
       <use xlink:href="#AptosDisplay-31"/>
       <use xlink:href="#AptosDisplay-35" x="52.294922"/>
       <use xlink:href="#AptosDisplay-30" x="104.589844"/>
      </g>
     </g>
    </g>
    <g id="xtick_8">
     <g id="line2d_15">
      <path d="M 693.809364 501.3525 
L 693.809364 57.8325 
" clip-path="url(#p6b3af6e24e)" style="fill: none; stroke: #b0b0b0; stroke-opacity: 0.8; stroke-linecap: square"/>
     </g>
     <g id="line2d_16">
      <g>
       <use xlink:href="#m2fd17108e0" x="693.809364" y="501.3525" style="stroke: #000000; stroke-width: 0.8"/>
      </g>
     </g>
     <g id="text_8">
      <!-- 175 -->
      <g transform="translate(678.120301 521.49625) scale(0.2 -0.2)">
       <use xlink:href="#AptosDisplay-31"/>
       <use xlink:href="#AptosDisplay-37" x="52.294922"/>
       <use xlink:href="#AptosDisplay-35" x="104.589844"/>
      </g>
     </g>
    </g>
    <g id="xtick_9">
     <g id="line2d_17">
      <path d="M 109.125587 501.3525 
L 109.125587 57.8325 
" clip-path="url(#p6b3af6e24e)" style="fill: none; stroke-dasharray: 1.85,0.8; stroke-dashoffset: 0; stroke: #b0b0b0; stroke-opacity: 0.8; stroke-width: 0.5"/>
     </g>
     <g id="line2d_18">
      <defs>
       <path id="m438541b0c2" d="M 0 0 
L 0 2 
" style="stroke: #000000; stroke-width: 0.6"/>
      </defs>
      <g>
       <use xlink:href="#m438541b0c2" x="109.125587" y="501.3525" style="stroke: #000000; stroke-width: 0.6"/>
      </g>
     </g>
    </g>
    <g id="xtick_10">
     <g id="line2d_19">
      <path d="M 141.608019 501.3525 
L 141.608019 57.8325 
" clip-path="url(#p6b3af6e24e)" style="fill: none; stroke-dasharray: 1.85,0.8; stroke-dashoffset: 0; stroke: #b0b0b0; stroke-opacity: 0.8; stroke-width: 0.5"/>
     </g>
     <g id="line2d_20">
      <g>
       <use xlink:href="#m438541b0c2" x="141.608019" y="501.3525" style="stroke: #000000; stroke-width: 0.6"/>
      </g>
     </g>
    </g>
    <g id="xtick_11">
     <g id="line2d_21">
      <path d="M 157.849235 501.3525 
L 157.849235 57.8325 
" clip-path="url(#p6b3af6e24e)" style="fill: none; stroke-dasharray: 1.85,0.8; stroke-dashoffset: 0; stroke: #b0b0b0; stroke-opacity: 0.8; stroke-width: 0.5"/>
     </g>
     <g id="line2d_22">
      <g>
       <use xlink:href="#m438541b0c2" x="157.849235" y="501.3525" style="stroke: #000000; stroke-width: 0.6"/>
      </g>
     </g>
    </g>
    <g id="xtick_12">
     <g id="line2d_23">
      <path d="M 174.090451 501.3525 
L 174.090451 57.8325 
" clip-path="url(#p6b3af6e24e)" style="fill: none; stroke-dasharray: 1.85,0.8; stroke-dashoffset: 0; stroke: #b0b0b0; stroke-opacity: 0.8; stroke-width: 0.5"/>
     </g>
     <g id="line2d_24">
      <g>
       <use xlink:href="#m438541b0c2" x="174.090451" y="501.3525" style="stroke: #000000; stroke-width: 0.6"/>
      </g>
     </g>
    </g>
    <g id="xtick_13">
     <g id="line2d_25">
      <path d="M 190.331667 501.3525 
L 190.331667 57.8325 
" clip-path="url(#p6b3af6e24e)" style="fill: none; stroke-dasharray: 1.85,0.8; stroke-dashoffset: 0; stroke: #b0b0b0; stroke-opacity: 0.8; stroke-width: 0.5"/>
     </g>
     <g id="line2d_26">
      <g>
       <use xlink:href="#m438541b0c2" x="190.331667" y="501.3525" style="stroke: #000000; stroke-width: 0.6"/>
      </g>
     </g>
    </g>
    <g id="xtick_14">
     <g id="line2d_27">
      <path d="M 222.814099 501.3525 
L 222.814099 57.8325 
" clip-path="url(#p6b3af6e24e)" style="fill: none; stroke-dasharray: 1.85,0.8; stroke-dashoffset: 0; stroke: #b0b0b0; stroke-opacity: 0.8; stroke-width: 0.5"/>
     </g>
     <g id="line2d_28">
      <g>
       <use xlink:href="#m438541b0c2" x="222.814099" y="501.3525" style="stroke: #000000; stroke-width: 0.6"/>
      </g>
     </g>
    </g>
    <g id="xtick_15">
     <g id="line2d_29">
      <path d="M 239.055315 501.3525 
L 239.055315 57.8325 
" clip-path="url(#p6b3af6e24e)" style="fill: none; stroke-dasharray: 1.85,0.8; stroke-dashoffset: 0; stroke: #b0b0b0; stroke-opacity: 0.8; stroke-width: 0.5"/>
     </g>
     <g id="line2d_30">
      <g>
       <use xlink:href="#m438541b0c2" x="239.055315" y="501.3525" style="stroke: #000000; stroke-width: 0.6"/>
      </g>
     </g>
    </g>
    <g id="xtick_16">
     <g id="line2d_31">
      <path d="M 255.296531 501.3525 
L 255.296531 57.8325 
" clip-path="url(#p6b3af6e24e)" style="fill: none; stroke-dasharray: 1.85,0.8; stroke-dashoffset: 0; stroke: #b0b0b0; stroke-opacity: 0.8; stroke-width: 0.5"/>
     </g>
     <g id="line2d_32">
      <g>
       <use xlink:href="#m438541b0c2" x="255.296531" y="501.3525" style="stroke: #000000; stroke-width: 0.6"/>
      </g>
     </g>
    </g>
    <g id="xtick_17">
     <g id="line2d_33">
      <path d="M 271.537748 501.3525 
L 271.537748 57.8325 
" clip-path="url(#p6b3af6e24e)" style="fill: none; stroke-dasharray: 1.85,0.8; stroke-dashoffset: 0; stroke: #b0b0b0; stroke-opacity: 0.8; stroke-width: 0.5"/>
     </g>
     <g id="line2d_34">
      <g>
       <use xlink:href="#m438541b0c2" x="271.537748" y="501.3525" style="stroke: #000000; stroke-width: 0.6"/>
      </g>
     </g>
    </g>
    <g id="xtick_18">
     <g id="line2d_35">
      <path d="M 304.02018 501.3525 
L 304.02018 57.8325 
" clip-path="url(#p6b3af6e24e)" style="fill: none; stroke-dasharray: 1.85,0.8; stroke-dashoffset: 0; stroke: #b0b0b0; stroke-opacity: 0.8; stroke-width: 0.5"/>
     </g>
     <g id="line2d_36">
      <g>
       <use xlink:href="#m438541b0c2" x="304.02018" y="501.3525" style="stroke: #000000; stroke-width: 0.6"/>
      </g>
     </g>
    </g>
    <g id="xtick_19">
     <g id="line2d_37">
      <path d="M 320.261396 501.3525 
L 320.261396 57.8325 
" clip-path="url(#p6b3af6e24e)" style="fill: none; stroke-dasharray: 1.85,0.8; stroke-dashoffset: 0; stroke: #b0b0b0; stroke-opacity: 0.8; stroke-width: 0.5"/>
     </g>
     <g id="line2d_38">
      <g>
       <use xlink:href="#m438541b0c2" x="320.261396" y="501.3525" style="stroke: #000000; stroke-width: 0.6"/>
      </g>
     </g>
    </g>
    <g id="xtick_20">
     <g id="line2d_39">
      <path d="M 336.502612 501.3525 
L 336.502612 57.8325 
" clip-path="url(#p6b3af6e24e)" style="fill: none; stroke-dasharray: 1.85,0.8; stroke-dashoffset: 0; stroke: #b0b0b0; stroke-opacity: 0.8; stroke-width: 0.5"/>
     </g>
     <g id="line2d_40">
      <g>
       <use xlink:href="#m438541b0c2" x="336.502612" y="501.3525" style="stroke: #000000; stroke-width: 0.6"/>
      </g>
     </g>
    </g>
    <g id="xtick_21">
     <g id="line2d_41">
      <path d="M 352.743828 501.3525 
L 352.743828 57.8325 
" clip-path="url(#p6b3af6e24e)" style="fill: none; stroke-dasharray: 1.85,0.8; stroke-dashoffset: 0; stroke: #b0b0b0; stroke-opacity: 0.8; stroke-width: 0.5"/>
     </g>
     <g id="line2d_42">
      <g>
       <use xlink:href="#m438541b0c2" x="352.743828" y="501.3525" style="stroke: #000000; stroke-width: 0.6"/>
      </g>
     </g>
    </g>
    <g id="xtick_22">
     <g id="line2d_43">
      <path d="M 385.22626 501.3525 
L 385.22626 57.8325 
" clip-path="url(#p6b3af6e24e)" style="fill: none; stroke-dasharray: 1.85,0.8; stroke-dashoffset: 0; stroke: #b0b0b0; stroke-opacity: 0.8; stroke-width: 0.5"/>
     </g>
     <g id="line2d_44">
      <g>
       <use xlink:href="#m438541b0c2" x="385.22626" y="501.3525" style="stroke: #000000; stroke-width: 0.6"/>
      </g>
     </g>
    </g>
    <g id="xtick_23">
     <g id="line2d_45">
      <path d="M 401.467476 501.3525 
L 401.467476 57.8325 
" clip-path="url(#p6b3af6e24e)" style="fill: none; stroke-dasharray: 1.85,0.8; stroke-dashoffset: 0; stroke: #b0b0b0; stroke-opacity: 0.8; stroke-width: 0.5"/>
     </g>
     <g id="line2d_46">
      <g>
       <use xlink:href="#m438541b0c2" x="401.467476" y="501.3525" style="stroke: #000000; stroke-width: 0.6"/>
      </g>
     </g>
    </g>
    <g id="xtick_24">
     <g id="line2d_47">
      <path d="M 417.708692 501.3525 
L 417.708692 57.8325 
" clip-path="url(#p6b3af6e24e)" style="fill: none; stroke-dasharray: 1.85,0.8; stroke-dashoffset: 0; stroke: #b0b0b0; stroke-opacity: 0.8; stroke-width: 0.5"/>
     </g>
     <g id="line2d_48">
      <g>
       <use xlink:href="#m438541b0c2" x="417.708692" y="501.3525" style="stroke: #000000; stroke-width: 0.6"/>
      </g>
     </g>
    </g>
    <g id="xtick_25">
     <g id="line2d_49">
      <path d="M 433.949908 501.3525 
L 433.949908 57.8325 
" clip-path="url(#p6b3af6e24e)" style="fill: none; stroke-dasharray: 1.85,0.8; stroke-dashoffset: 0; stroke: #b0b0b0; stroke-opacity: 0.8; stroke-width: 0.5"/>
     </g>
     <g id="line2d_50">
      <g>
       <use xlink:href="#m438541b0c2" x="433.949908" y="501.3525" style="stroke: #000000; stroke-width: 0.6"/>
      </g>
     </g>
    </g>
    <g id="xtick_26">
     <g id="line2d_51">
      <path d="M 466.43234 501.3525 
L 466.43234 57.8325 
" clip-path="url(#p6b3af6e24e)" style="fill: none; stroke-dasharray: 1.85,0.8; stroke-dashoffset: 0; stroke: #b0b0b0; stroke-opacity: 0.8; stroke-width: 0.5"/>
     </g>
     <g id="line2d_52">
      <g>
       <use xlink:href="#m438541b0c2" x="466.43234" y="501.3525" style="stroke: #000000; stroke-width: 0.6"/>
      </g>
     </g>
    </g>
    <g id="xtick_27">
     <g id="line2d_53">
      <path d="M 482.673556 501.3525 
L 482.673556 57.8325 
" clip-path="url(#p6b3af6e24e)" style="fill: none; stroke-dasharray: 1.85,0.8; stroke-dashoffset: 0; stroke: #b0b0b0; stroke-opacity: 0.8; stroke-width: 0.5"/>
     </g>
     <g id="line2d_54">
      <g>
       <use xlink:href="#m438541b0c2" x="482.673556" y="501.3525" style="stroke: #000000; stroke-width: 0.6"/>
      </g>
     </g>
    </g>
    <g id="xtick_28">
     <g id="line2d_55">
      <path d="M 498.914772 501.3525 
L 498.914772 57.8325 
" clip-path="url(#p6b3af6e24e)" style="fill: none; stroke-dasharray: 1.85,0.8; stroke-dashoffset: 0; stroke: #b0b0b0; stroke-opacity: 0.8; stroke-width: 0.5"/>
     </g>
     <g id="line2d_56">
      <g>
       <use xlink:href="#m438541b0c2" x="498.914772" y="501.3525" style="stroke: #000000; stroke-width: 0.6"/>
      </g>
     </g>
    </g>
    <g id="xtick_29">
     <g id="line2d_57">
      <path d="M 515.155988 501.3525 
L 515.155988 57.8325 
" clip-path="url(#p6b3af6e24e)" style="fill: none; stroke-dasharray: 1.85,0.8; stroke-dashoffset: 0; stroke: #b0b0b0; stroke-opacity: 0.8; stroke-width: 0.5"/>
     </g>
     <g id="line2d_58">
      <g>
       <use xlink:href="#m438541b0c2" x="515.155988" y="501.3525" style="stroke: #000000; stroke-width: 0.6"/>
      </g>
     </g>
    </g>
    <g id="xtick_30">
     <g id="line2d_59">
      <path d="M 547.63842 501.3525 
L 547.63842 57.8325 
" clip-path="url(#p6b3af6e24e)" style="fill: none; stroke-dasharray: 1.85,0.8; stroke-dashoffset: 0; stroke: #b0b0b0; stroke-opacity: 0.8; stroke-width: 0.5"/>
     </g>
     <g id="line2d_60">
      <g>
       <use xlink:href="#m438541b0c2" x="547.63842" y="501.3525" style="stroke: #000000; stroke-width: 0.6"/>
      </g>
     </g>
    </g>
    <g id="xtick_31">
     <g id="line2d_61">
      <path d="M 563.879636 501.3525 
L 563.879636 57.8325 
" clip-path="url(#p6b3af6e24e)" style="fill: none; stroke-dasharray: 1.85,0.8; stroke-dashoffset: 0; stroke: #b0b0b0; stroke-opacity: 0.8; stroke-width: 0.5"/>
     </g>
     <g id="line2d_62">
      <g>
       <use xlink:href="#m438541b0c2" x="563.879636" y="501.3525" style="stroke: #000000; stroke-width: 0.6"/>
      </g>
     </g>
    </g>
    <g id="xtick_32">
     <g id="line2d_63">
      <path d="M 580.120852 501.3525 
L 580.120852 57.8325 
" clip-path="url(#p6b3af6e24e)" style="fill: none; stroke-dasharray: 1.85,0.8; stroke-dashoffset: 0; stroke: #b0b0b0; stroke-opacity: 0.8; stroke-width: 0.5"/>
     </g>
     <g id="line2d_64">
      <g>
       <use xlink:href="#m438541b0c2" x="580.120852" y="501.3525" style="stroke: #000000; stroke-width: 0.6"/>
      </g>
     </g>
    </g>
    <g id="xtick_33">
     <g id="line2d_65">
      <path d="M 596.362068 501.3525 
L 596.362068 57.8325 
" clip-path="url(#p6b3af6e24e)" style="fill: none; stroke-dasharray: 1.85,0.8; stroke-dashoffset: 0; stroke: #b0b0b0; stroke-opacity: 0.8; stroke-width: 0.5"/>
     </g>
     <g id="line2d_66">
      <g>
       <use xlink:href="#m438541b0c2" x="596.362068" y="501.3525" style="stroke: #000000; stroke-width: 0.6"/>
      </g>
     </g>
    </g>
    <g id="xtick_34">
     <g id="line2d_67">
      <path d="M 628.8445 501.3525 
L 628.8445 57.8325 
" clip-path="url(#p6b3af6e24e)" style="fill: none; stroke-dasharray: 1.85,0.8; stroke-dashoffset: 0; stroke: #b0b0b0; stroke-opacity: 0.8; stroke-width: 0.5"/>
     </g>
     <g id="line2d_68">
      <g>
       <use xlink:href="#m438541b0c2" x="628.8445" y="501.3525" style="stroke: #000000; stroke-width: 0.6"/>
      </g>
     </g>
    </g>
    <g id="xtick_35">
     <g id="line2d_69">
      <path d="M 645.085716 501.3525 
L 645.085716 57.8325 
" clip-path="url(#p6b3af6e24e)" style="fill: none; stroke-dasharray: 1.85,0.8; stroke-dashoffset: 0; stroke: #b0b0b0; stroke-opacity: 0.8; stroke-width: 0.5"/>
     </g>
     <g id="line2d_70">
      <g>
       <use xlink:href="#m438541b0c2" x="645.085716" y="501.3525" style="stroke: #000000; stroke-width: 0.6"/>
      </g>
     </g>
    </g>
    <g id="xtick_36">
     <g id="line2d_71">
      <path d="M 661.326932 501.3525 
L 661.326932 57.8325 
" clip-path="url(#p6b3af6e24e)" style="fill: none; stroke-dasharray: 1.85,0.8; stroke-dashoffset: 0; stroke: #b0b0b0; stroke-opacity: 0.8; stroke-width: 0.5"/>
     </g>
     <g id="line2d_72">
      <g>
       <use xlink:href="#m438541b0c2" x="661.326932" y="501.3525" style="stroke: #000000; stroke-width: 0.6"/>
      </g>
     </g>
    </g>
    <g id="xtick_37">
     <g id="line2d_73">
      <path d="M 677.568148 501.3525 
L 677.568148 57.8325 
" clip-path="url(#p6b3af6e24e)" style="fill: none; stroke-dasharray: 1.85,0.8; stroke-dashoffset: 0; stroke: #b0b0b0; stroke-opacity: 0.8; stroke-width: 0.5"/>
     </g>
     <g id="line2d_74">
      <g>
       <use xlink:href="#m438541b0c2" x="677.568148" y="501.3525" style="stroke: #000000; stroke-width: 0.6"/>
      </g>
     </g>
    </g>
    <g id="xtick_38">
     <g id="line2d_75">
      <path d="M 710.05058 501.3525 
L 710.05058 57.8325 
" clip-path="url(#p6b3af6e24e)" style="fill: none; stroke-dasharray: 1.85,0.8; stroke-dashoffset: 0; stroke: #b0b0b0; stroke-opacity: 0.8; stroke-width: 0.5"/>
     </g>
     <g id="line2d_76">
      <g>
       <use xlink:href="#m438541b0c2" x="710.05058" y="501.3525" style="stroke: #000000; stroke-width: 0.6"/>
      </g>
     </g>
    </g>
    <g id="xtick_39">
     <g id="line2d_77">
      <path d="M 726.291796 501.3525 
L 726.291796 57.8325 
" clip-path="url(#p6b3af6e24e)" style="fill: none; stroke-dasharray: 1.85,0.8; stroke-dashoffset: 0; stroke: #b0b0b0; stroke-opacity: 0.8; stroke-width: 0.5"/>
     </g>
     <g id="line2d_78">
      <g>
       <use xlink:href="#m438541b0c2" x="726.291796" y="501.3525" style="stroke: #000000; stroke-width: 0.6"/>
      </g>
     </g>
    </g>
    <g id="xtick_40">
     <g id="line2d_79">
      <path d="M 742.533012 501.3525 
L 742.533012 57.8325 
" clip-path="url(#p6b3af6e24e)" style="fill: none; stroke-dasharray: 1.85,0.8; stroke-dashoffset: 0; stroke: #b0b0b0; stroke-opacity: 0.8; stroke-width: 0.5"/>
     </g>
     <g id="line2d_80">
      <g>
       <use xlink:href="#m438541b0c2" x="742.533012" y="501.3525" style="stroke: #000000; stroke-width: 0.6"/>
      </g>
     </g>
    </g>
    <g id="xtick_41">
     <g id="line2d_81">
      <path d="M 758.774228 501.3525 
L 758.774228 57.8325 
" clip-path="url(#p6b3af6e24e)" style="fill: none; stroke-dasharray: 1.85,0.8; stroke-dashoffset: 0; stroke: #b0b0b0; stroke-opacity: 0.8; stroke-width: 0.5"/>
     </g>
     <g id="line2d_82">
      <g>
       <use xlink:href="#m438541b0c2" x="758.774228" y="501.3525" style="stroke: #000000; stroke-width: 0.6"/>
      </g>
     </g>
    </g>
    <g id="text_9">
     <!-- Time (S) -->
     <g transform="translate(396.990625 542.305625) scale(0.2 -0.2)">
      <defs>
       <path id="AptosDisplay-54" d="M 1244 0 
L 1244 3734 
L 50 3734 
L 50 4206 
L 2997 4206 
L 2997 3734 
L 1806 3734 
L 1806 0 
L 1244 0 
z
" transform="scale(0.015625)"/>
       <path id="AptosDisplay-69" d="M 413 0 
L 413 3044 
L 934 3044 
L 934 0 
L 413 0 
z
M 675 3616 
Q 525 3616 437 3702 
Q 350 3788 350 3919 
Q 350 4050 437 4136 
Q 525 4222 675 4222 
Q 822 4222 912 4136 
Q 1003 4050 1003 3919 
Q 1003 3788 912 3702 
Q 822 3616 675 3616 
z
" transform="scale(0.015625)"/>
       <path id="AptosDisplay-6d" d="M 413 0 
L 413 3044 
L 919 3044 
L 931 2575 
Q 1063 2756 1303 2914 
Q 1544 3072 1903 3072 
Q 2403 3072 2618 2778 
Q 2834 2484 2834 1963 
L 2834 0 
L 2316 0 
L 2316 1891 
Q 2316 2106 2275 2275 
Q 2234 2444 2120 2539 
Q 2006 2634 1788 2634 
Q 1488 2634 1277 2482 
Q 1066 2331 934 2156 
L 934 0 
L 413 0 
z
M 4206 0 
L 4206 1891 
Q 4206 2106 4164 2275 
Q 4122 2444 4009 2539 
Q 3897 2634 3681 2634 
Q 3381 2634 3165 2484 
Q 2950 2334 2822 2159 
L 2744 2544 
Q 2916 2741 3175 2906 
Q 3434 3072 3800 3072 
Q 4291 3072 4509 2778 
Q 4728 2484 4728 1963 
L 4728 0 
L 4206 0 
z
" transform="scale(0.015625)"/>
       <path id="AptosDisplay-65" d="M 1663 -56 
Q 1188 -56 878 151 
Q 569 359 417 717 
Q 266 1075 266 1522 
Q 266 1988 412 2342 
Q 559 2697 857 2897 
Q 1156 3097 1606 3097 
Q 2209 3097 2550 2722 
Q 2891 2347 2891 1644 
Q 2891 1597 2889 1533 
Q 2888 1469 2881 1441 
L 791 1441 
Q 794 1144 881 895 
Q 969 647 1161 497 
Q 1353 347 1663 347 
Q 1997 347 2183 511 
Q 2369 675 2378 984 
L 2894 984 
Q 2884 663 2732 430 
Q 2581 197 2309 70 
Q 2038 -56 1663 -56 
z
M 794 1822 
L 2375 1822 
Q 2366 2247 2166 2472 
Q 1966 2697 1606 2697 
Q 1241 2697 1036 2473 
Q 831 2250 794 1822 
z
" transform="scale(0.015625)"/>
       <path id="AptosDisplay-20" transform="scale(0.015625)"/>
       <path id="AptosDisplay-28" d="M 1219 -1116 
Q 969 -678 787 -267 
Q 606 144 511 581 
Q 416 1019 416 1528 
Q 416 2028 509 2486 
Q 603 2944 783 3378 
Q 963 3813 1219 4231 
L 1647 4231 
Q 1278 3600 1101 2886 
Q 925 2172 925 1428 
Q 925 766 1125 103 
Q 1325 -559 1647 -1116 
L 1219 -1116 
z
" transform="scale(0.015625)"/>
       <path id="AptosDisplay-53" d="M 1778 -56 
Q 1328 -56 962 81 
Q 597 219 384 512 
Q 172 806 172 1275 
L 734 1275 
Q 738 941 883 750 
Q 1028 559 1267 481 
Q 1506 403 1794 403 
Q 2063 403 2283 483 
Q 2503 563 2634 723 
Q 2766 884 2766 1134 
Q 2766 1356 2662 1497 
Q 2559 1638 2321 1742 
Q 2084 1847 1678 1950 
Q 1203 2075 897 2223 
Q 591 2372 442 2594 
Q 294 2816 294 3156 
Q 294 3516 462 3761 
Q 631 4006 945 4134 
Q 1259 4263 1697 4263 
Q 2103 4263 2440 4131 
Q 2778 4000 2979 3737 
Q 3181 3475 3181 3084 
L 2616 3084 
Q 2622 3441 2356 3623 
Q 2091 3806 1700 3806 
Q 1300 3806 1073 3645 
Q 847 3484 847 3175 
Q 847 2991 944 2867 
Q 1041 2744 1280 2644 
Q 1519 2544 1941 2434 
Q 2428 2303 2731 2153 
Q 3034 2003 3178 1768 
Q 3322 1534 3322 1153 
Q 3322 747 3117 480 
Q 2913 213 2564 78 
Q 2216 -56 1778 -56 
z
" transform="scale(0.015625)"/>
       <path id="AptosDisplay-29" d="M 234 -1116 
Q 609 -481 786 233 
Q 963 947 963 1694 
Q 963 2356 759 3015 
Q 556 3675 234 4231 
L 663 4231 
Q 919 3800 1098 3389 
Q 1278 2978 1373 2540 
Q 1469 2103 1469 1594 
Q 1469 1094 1375 634 
Q 1281 175 1100 -259 
Q 919 -694 663 -1116 
L 234 -1116 
z
" transform="scale(0.015625)"/>
      </defs>
      <use xlink:href="#AptosDisplay-54"/>
      <use xlink:href="#AptosDisplay-69" x="47.705078"/>
      <use xlink:href="#AptosDisplay-6d" x="68.75"/>
      <use xlink:href="#AptosDisplay-65" x="148.730469"/>
      <use xlink:href="#AptosDisplay-20" x="198.144531"/>
      <use xlink:href="#AptosDisplay-28" x="217.431641"/>
      <use xlink:href="#AptosDisplay-53" x="246.875"/>
      <use xlink:href="#AptosDisplay-29" x="301.464844"/>
     </g>
    </g>
   </g>
   <g id="matplotlib.axis_2">
    <g id="ytick_1">
     <g id="line2d_83">
      <path d="M 95.28125 458.824913 
L 764.88125 458.824913 
" clip-path="url(#p6b3af6e24e)" style="fill: none; stroke: #b0b0b0; stroke-opacity: 0.8; stroke-linecap: square"/>
     </g>
     <g id="line2d_84">
      <defs>
       <path id="m0195ee19c7" d="M 0 0 
L -3.5 0 
" style="stroke: #000000; stroke-width: 0.8"/>
      </defs>
      <g>
       <use xlink:href="#m0195ee19c7" x="95.28125" y="458.824913" style="stroke: #000000; stroke-width: 0.8"/>
      </g>
     </g>
     <g id="text_10">
      <!-- 870 -->
      <g transform="translate(56.903125 465.396788) scale(0.2 -0.2)">
       <defs>
        <path id="AptosDisplay-38" d="M 1675 -56 
Q 1391 -56 1137 16 
Q 884 88 686 234 
Q 488 381 373 606 
Q 259 831 259 1141 
Q 259 1531 495 1797 
Q 731 2063 1084 2150 
Q 781 2250 604 2490 
Q 428 2731 428 3081 
Q 428 3447 609 3681 
Q 791 3916 1075 4025 
Q 1359 4134 1669 4134 
Q 1981 4134 2265 4023 
Q 2550 3913 2733 3680 
Q 2916 3447 2916 3081 
Q 2916 2725 2716 2481 
Q 2516 2238 2238 2150 
Q 2606 2063 2843 1800 
Q 3081 1538 3081 1141 
Q 3081 831 2968 606 
Q 2856 381 2661 234 
Q 2466 88 2211 16 
Q 1956 -56 1675 -56 
z
M 1672 388 
Q 1909 388 2109 470 
Q 2309 553 2429 725 
Q 2550 897 2550 1163 
Q 2550 1416 2426 1587 
Q 2303 1759 2104 1846 
Q 1906 1934 1672 1928 
Q 1453 1934 1253 1850 
Q 1053 1766 926 1594 
Q 800 1422 800 1163 
Q 800 775 1058 581 
Q 1316 388 1672 388 
z
M 1672 2363 
Q 1863 2356 2030 2434 
Q 2197 2513 2300 2667 
Q 2403 2822 2403 3050 
Q 2403 3388 2189 3544 
Q 1975 3700 1675 3700 
Q 1484 3700 1317 3631 
Q 1150 3563 1047 3419 
Q 944 3275 944 3050 
Q 944 2825 1048 2670 
Q 1153 2516 1320 2436 
Q 1488 2356 1672 2363 
z
" transform="scale(0.015625)"/>
       </defs>
       <use xlink:href="#AptosDisplay-38"/>
       <use xlink:href="#AptosDisplay-37" x="52.294922"/>
       <use xlink:href="#AptosDisplay-30" x="104.589844"/>
      </g>
     </g>
    </g>
    <g id="ytick_2">
     <g id="line2d_85">
      <path d="M 95.28125 379.98252 
L 764.88125 379.98252 
" clip-path="url(#p6b3af6e24e)" style="fill: none; stroke: #b0b0b0; stroke-opacity: 0.8; stroke-linecap: square"/>
     </g>
     <g id="line2d_86">
      <g>
       <use xlink:href="#m0195ee19c7" x="95.28125" y="379.98252" style="stroke: #000000; stroke-width: 0.8"/>
      </g>
     </g>
     <g id="text_11">
      <!-- 880 -->
      <g transform="translate(56.903125 386.554395) scale(0.2 -0.2)">
       <use xlink:href="#AptosDisplay-38"/>
       <use xlink:href="#AptosDisplay-38" x="52.294922"/>
       <use xlink:href="#AptosDisplay-30" x="104.589844"/>
      </g>
     </g>
    </g>
    <g id="ytick_3">
     <g id="line2d_87">
      <path d="M 95.28125 301.140126 
L 764.88125 301.140126 
" clip-path="url(#p6b3af6e24e)" style="fill: none; stroke: #b0b0b0; stroke-opacity: 0.8; stroke-linecap: square"/>
     </g>
     <g id="line2d_88">
      <g>
       <use xlink:href="#m0195ee19c7" x="95.28125" y="301.140126" style="stroke: #000000; stroke-width: 0.8"/>
      </g>
     </g>
     <g id="text_12">
      <!-- 890 -->
      <g transform="translate(56.903125 307.712001) scale(0.2 -0.2)">
       <defs>
        <path id="AptosDisplay-39" d="M 1547 -56 
Q 1200 -56 926 64 
Q 653 184 481 415 
Q 309 647 256 978 
L 788 978 
Q 834 713 1029 552 
Q 1225 391 1547 391 
Q 2022 391 2294 778 
Q 2566 1166 2566 2019 
L 2566 2197 
Q 2566 2753 2439 3079 
Q 2313 3406 2102 3547 
Q 1891 3688 1634 3688 
Q 1206 3688 998 3433 
Q 791 3178 791 2800 
Q 791 2422 991 2203 
Q 1191 1984 1547 1984 
Q 1831 1984 2045 2071 
Q 2259 2159 2417 2300 
Q 2575 2441 2681 2594 
L 2731 2209 
Q 2609 2038 2432 1884 
Q 2256 1731 2020 1634 
Q 1784 1538 1484 1538 
Q 1122 1538 842 1683 
Q 563 1828 405 2108 
Q 247 2388 247 2784 
Q 247 3175 414 3479 
Q 581 3784 892 3959 
Q 1203 4134 1631 4134 
Q 2056 4134 2389 3926 
Q 2722 3719 2914 3262 
Q 3106 2806 3106 2066 
Q 3106 1338 2912 869 
Q 2719 400 2369 172 
Q 2019 -56 1547 -56 
z
" transform="scale(0.015625)"/>
       </defs>
       <use xlink:href="#AptosDisplay-38"/>
       <use xlink:href="#AptosDisplay-39" x="52.294922"/>
       <use xlink:href="#AptosDisplay-30" x="104.589844"/>
      </g>
     </g>
    </g>
    <g id="ytick_4">
     <g id="line2d_89">
      <path d="M 95.28125 222.297733 
L 764.88125 222.297733 
" clip-path="url(#p6b3af6e24e)" style="fill: none; stroke: #b0b0b0; stroke-opacity: 0.8; stroke-linecap: square"/>
     </g>
     <g id="line2d_90">
      <g>
       <use xlink:href="#m0195ee19c7" x="95.28125" y="222.297733" style="stroke: #000000; stroke-width: 0.8"/>
      </g>
     </g>
     <g id="text_13">
      <!-- 900 -->
      <g transform="translate(56.903125 228.869608) scale(0.2 -0.2)">
       <use xlink:href="#AptosDisplay-39"/>
       <use xlink:href="#AptosDisplay-30" x="52.294922"/>
       <use xlink:href="#AptosDisplay-30" x="104.589844"/>
      </g>
     </g>
    </g>
    <g id="ytick_5">
     <g id="line2d_91">
      <path d="M 95.28125 143.455339 
L 764.88125 143.455339 
" clip-path="url(#p6b3af6e24e)" style="fill: none; stroke: #b0b0b0; stroke-opacity: 0.8; stroke-linecap: square"/>
     </g>
     <g id="line2d_92">
      <g>
       <use xlink:href="#m0195ee19c7" x="95.28125" y="143.455339" style="stroke: #000000; stroke-width: 0.8"/>
      </g>
     </g>
     <g id="text_14">
      <!-- 910 -->
      <g transform="translate(56.903125 150.027214) scale(0.2 -0.2)">
       <use xlink:href="#AptosDisplay-39"/>
       <use xlink:href="#AptosDisplay-31" x="52.294922"/>
       <use xlink:href="#AptosDisplay-30" x="104.589844"/>
      </g>
     </g>
    </g>
    <g id="ytick_6">
     <g id="line2d_93">
      <path d="M 95.28125 64.612946 
L 764.88125 64.612946 
" clip-path="url(#p6b3af6e24e)" style="fill: none; stroke: #b0b0b0; stroke-opacity: 0.8; stroke-linecap: square"/>
     </g>
     <g id="line2d_94">
      <g>
       <use xlink:href="#m0195ee19c7" x="95.28125" y="64.612946" style="stroke: #000000; stroke-width: 0.8"/>
      </g>
     </g>
     <g id="text_15">
      <!-- 920 -->
      <g transform="translate(56.903125 71.184821) scale(0.2 -0.2)">
       <use xlink:href="#AptosDisplay-39"/>
       <use xlink:href="#AptosDisplay-32" x="52.294922"/>
       <use xlink:href="#AptosDisplay-30" x="104.589844"/>
      </g>
     </g>
    </g>
    <g id="ytick_7">
     <g id="line2d_95">
      <path d="M 95.28125 490.36187 
L 764.88125 490.36187 
" clip-path="url(#p6b3af6e24e)" style="fill: none; stroke-dasharray: 1.85,0.8; stroke-dashoffset: 0; stroke: #b0b0b0; stroke-opacity: 0.8; stroke-width: 0.5"/>
     </g>
     <g id="line2d_96">
      <defs>
       <path id="m18014d04fb" d="M 0 0 
L -2 0 
" style="stroke: #000000; stroke-width: 0.6"/>
      </defs>
      <g>
       <use xlink:href="#m18014d04fb" x="95.28125" y="490.36187" style="stroke: #000000; stroke-width: 0.6"/>
      </g>
     </g>
    </g>
    <g id="ytick_8">
     <g id="line2d_97">
      <path d="M 95.28125 474.593392 
L 764.88125 474.593392 
" clip-path="url(#p6b3af6e24e)" style="fill: none; stroke-dasharray: 1.85,0.8; stroke-dashoffset: 0; stroke: #b0b0b0; stroke-opacity: 0.8; stroke-width: 0.5"/>
     </g>
     <g id="line2d_98">
      <g>
       <use xlink:href="#m18014d04fb" x="95.28125" y="474.593392" style="stroke: #000000; stroke-width: 0.6"/>
      </g>
     </g>
    </g>
    <g id="ytick_9">
     <g id="line2d_99">
      <path d="M 95.28125 443.056434 
L 764.88125 443.056434 
" clip-path="url(#p6b3af6e24e)" style="fill: none; stroke-dasharray: 1.85,0.8; stroke-dashoffset: 0; stroke: #b0b0b0; stroke-opacity: 0.8; stroke-width: 0.5"/>
     </g>
     <g id="line2d_100">
      <g>
       <use xlink:href="#m18014d04fb" x="95.28125" y="443.056434" style="stroke: #000000; stroke-width: 0.6"/>
      </g>
     </g>
    </g>
    <g id="ytick_10">
     <g id="line2d_101">
      <path d="M 95.28125 427.287956 
L 764.88125 427.287956 
" clip-path="url(#p6b3af6e24e)" style="fill: none; stroke-dasharray: 1.85,0.8; stroke-dashoffset: 0; stroke: #b0b0b0; stroke-opacity: 0.8; stroke-width: 0.5"/>
     </g>
     <g id="line2d_102">
      <g>
       <use xlink:href="#m18014d04fb" x="95.28125" y="427.287956" style="stroke: #000000; stroke-width: 0.6"/>
      </g>
     </g>
    </g>
    <g id="ytick_11">
     <g id="line2d_103">
      <path d="M 95.28125 411.519477 
L 764.88125 411.519477 
" clip-path="url(#p6b3af6e24e)" style="fill: none; stroke-dasharray: 1.85,0.8; stroke-dashoffset: 0; stroke: #b0b0b0; stroke-opacity: 0.8; stroke-width: 0.5"/>
     </g>
     <g id="line2d_104">
      <g>
       <use xlink:href="#m18014d04fb" x="95.28125" y="411.519477" style="stroke: #000000; stroke-width: 0.6"/>
      </g>
     </g>
    </g>
    <g id="ytick_12">
     <g id="line2d_105">
      <path d="M 95.28125 395.750998 
L 764.88125 395.750998 
" clip-path="url(#p6b3af6e24e)" style="fill: none; stroke-dasharray: 1.85,0.8; stroke-dashoffset: 0; stroke: #b0b0b0; stroke-opacity: 0.8; stroke-width: 0.5"/>
     </g>
     <g id="line2d_106">
      <g>
       <use xlink:href="#m18014d04fb" x="95.28125" y="395.750998" style="stroke: #000000; stroke-width: 0.6"/>
      </g>
     </g>
    </g>
    <g id="ytick_13">
     <g id="line2d_107">
      <path d="M 95.28125 364.214041 
L 764.88125 364.214041 
" clip-path="url(#p6b3af6e24e)" style="fill: none; stroke-dasharray: 1.85,0.8; stroke-dashoffset: 0; stroke: #b0b0b0; stroke-opacity: 0.8; stroke-width: 0.5"/>
     </g>
     <g id="line2d_108">
      <g>
       <use xlink:href="#m18014d04fb" x="95.28125" y="364.214041" style="stroke: #000000; stroke-width: 0.6"/>
      </g>
     </g>
    </g>
    <g id="ytick_14">
     <g id="line2d_109">
      <path d="M 95.28125 348.445562 
L 764.88125 348.445562 
" clip-path="url(#p6b3af6e24e)" style="fill: none; stroke-dasharray: 1.85,0.8; stroke-dashoffset: 0; stroke: #b0b0b0; stroke-opacity: 0.8; stroke-width: 0.5"/>
     </g>
     <g id="line2d_110">
      <g>
       <use xlink:href="#m18014d04fb" x="95.28125" y="348.445562" style="stroke: #000000; stroke-width: 0.6"/>
      </g>
     </g>
    </g>
    <g id="ytick_15">
     <g id="line2d_111">
      <path d="M 95.28125 332.677083 
L 764.88125 332.677083 
" clip-path="url(#p6b3af6e24e)" style="fill: none; stroke-dasharray: 1.85,0.8; stroke-dashoffset: 0; stroke: #b0b0b0; stroke-opacity: 0.8; stroke-width: 0.5"/>
     </g>
     <g id="line2d_112">
      <g>
       <use xlink:href="#m18014d04fb" x="95.28125" y="332.677083" style="stroke: #000000; stroke-width: 0.6"/>
      </g>
     </g>
    </g>
    <g id="ytick_16">
     <g id="line2d_113">
      <path d="M 95.28125 316.908605 
L 764.88125 316.908605 
" clip-path="url(#p6b3af6e24e)" style="fill: none; stroke-dasharray: 1.85,0.8; stroke-dashoffset: 0; stroke: #b0b0b0; stroke-opacity: 0.8; stroke-width: 0.5"/>
     </g>
     <g id="line2d_114">
      <g>
       <use xlink:href="#m18014d04fb" x="95.28125" y="316.908605" style="stroke: #000000; stroke-width: 0.6"/>
      </g>
     </g>
    </g>
    <g id="ytick_17">
     <g id="line2d_115">
      <path d="M 95.28125 285.371647 
L 764.88125 285.371647 
" clip-path="url(#p6b3af6e24e)" style="fill: none; stroke-dasharray: 1.85,0.8; stroke-dashoffset: 0; stroke: #b0b0b0; stroke-opacity: 0.8; stroke-width: 0.5"/>
     </g>
     <g id="line2d_116">
      <g>
       <use xlink:href="#m18014d04fb" x="95.28125" y="285.371647" style="stroke: #000000; stroke-width: 0.6"/>
      </g>
     </g>
    </g>
    <g id="ytick_18">
     <g id="line2d_117">
      <path d="M 95.28125 269.603169 
L 764.88125 269.603169 
" clip-path="url(#p6b3af6e24e)" style="fill: none; stroke-dasharray: 1.85,0.8; stroke-dashoffset: 0; stroke: #b0b0b0; stroke-opacity: 0.8; stroke-width: 0.5"/>
     </g>
     <g id="line2d_118">
      <g>
       <use xlink:href="#m18014d04fb" x="95.28125" y="269.603169" style="stroke: #000000; stroke-width: 0.6"/>
      </g>
     </g>
    </g>
    <g id="ytick_19">
     <g id="line2d_119">
      <path d="M 95.28125 253.83469 
L 764.88125 253.83469 
" clip-path="url(#p6b3af6e24e)" style="fill: none; stroke-dasharray: 1.85,0.8; stroke-dashoffset: 0; stroke: #b0b0b0; stroke-opacity: 0.8; stroke-width: 0.5"/>
     </g>
     <g id="line2d_120">
      <g>
       <use xlink:href="#m18014d04fb" x="95.28125" y="253.83469" style="stroke: #000000; stroke-width: 0.6"/>
      </g>
     </g>
    </g>
    <g id="ytick_20">
     <g id="line2d_121">
      <path d="M 95.28125 238.066211 
L 764.88125 238.066211 
" clip-path="url(#p6b3af6e24e)" style="fill: none; stroke-dasharray: 1.85,0.8; stroke-dashoffset: 0; stroke: #b0b0b0; stroke-opacity: 0.8; stroke-width: 0.5"/>
     </g>
     <g id="line2d_122">
      <g>
       <use xlink:href="#m18014d04fb" x="95.28125" y="238.066211" style="stroke: #000000; stroke-width: 0.6"/>
      </g>
     </g>
    </g>
    <g id="ytick_21">
     <g id="line2d_123">
      <path d="M 95.28125 206.529254 
L 764.88125 206.529254 
" clip-path="url(#p6b3af6e24e)" style="fill: none; stroke-dasharray: 1.85,0.8; stroke-dashoffset: 0; stroke: #b0b0b0; stroke-opacity: 0.8; stroke-width: 0.5"/>
     </g>
     <g id="line2d_124">
      <g>
       <use xlink:href="#m18014d04fb" x="95.28125" y="206.529254" style="stroke: #000000; stroke-width: 0.6"/>
      </g>
     </g>
    </g>
    <g id="ytick_22">
     <g id="line2d_125">
      <path d="M 95.28125 190.760775 
L 764.88125 190.760775 
" clip-path="url(#p6b3af6e24e)" style="fill: none; stroke-dasharray: 1.85,0.8; stroke-dashoffset: 0; stroke: #b0b0b0; stroke-opacity: 0.8; stroke-width: 0.5"/>
     </g>
     <g id="line2d_126">
      <g>
       <use xlink:href="#m18014d04fb" x="95.28125" y="190.760775" style="stroke: #000000; stroke-width: 0.6"/>
      </g>
     </g>
    </g>
    <g id="ytick_23">
     <g id="line2d_127">
      <path d="M 95.28125 174.992297 
L 764.88125 174.992297 
" clip-path="url(#p6b3af6e24e)" style="fill: none; stroke-dasharray: 1.85,0.8; stroke-dashoffset: 0; stroke: #b0b0b0; stroke-opacity: 0.8; stroke-width: 0.5"/>
     </g>
     <g id="line2d_128">
      <g>
       <use xlink:href="#m18014d04fb" x="95.28125" y="174.992297" style="stroke: #000000; stroke-width: 0.6"/>
      </g>
     </g>
    </g>
    <g id="ytick_24">
     <g id="line2d_129">
      <path d="M 95.28125 159.223818 
L 764.88125 159.223818 
" clip-path="url(#p6b3af6e24e)" style="fill: none; stroke-dasharray: 1.85,0.8; stroke-dashoffset: 0; stroke: #b0b0b0; stroke-opacity: 0.8; stroke-width: 0.5"/>
     </g>
     <g id="line2d_130">
      <g>
       <use xlink:href="#m18014d04fb" x="95.28125" y="159.223818" style="stroke: #000000; stroke-width: 0.6"/>
      </g>
     </g>
    </g>
    <g id="ytick_25">
     <g id="line2d_131">
      <path d="M 95.28125 127.686861 
L 764.88125 127.686861 
" clip-path="url(#p6b3af6e24e)" style="fill: none; stroke-dasharray: 1.85,0.8; stroke-dashoffset: 0; stroke: #b0b0b0; stroke-opacity: 0.8; stroke-width: 0.5"/>
     </g>
     <g id="line2d_132">
      <g>
       <use xlink:href="#m18014d04fb" x="95.28125" y="127.686861" style="stroke: #000000; stroke-width: 0.6"/>
      </g>
     </g>
    </g>
    <g id="ytick_26">
     <g id="line2d_133">
      <path d="M 95.28125 111.918382 
L 764.88125 111.918382 
" clip-path="url(#p6b3af6e24e)" style="fill: none; stroke-dasharray: 1.85,0.8; stroke-dashoffset: 0; stroke: #b0b0b0; stroke-opacity: 0.8; stroke-width: 0.5"/>
     </g>
     <g id="line2d_134">
      <g>
       <use xlink:href="#m18014d04fb" x="95.28125" y="111.918382" style="stroke: #000000; stroke-width: 0.6"/>
      </g>
     </g>
    </g>
    <g id="ytick_27">
     <g id="line2d_135">
      <path d="M 95.28125 96.149903 
L 764.88125 96.149903 
" clip-path="url(#p6b3af6e24e)" style="fill: none; stroke-dasharray: 1.85,0.8; stroke-dashoffset: 0; stroke: #b0b0b0; stroke-opacity: 0.8; stroke-width: 0.5"/>
     </g>
     <g id="line2d_136">
      <g>
       <use xlink:href="#m18014d04fb" x="95.28125" y="96.149903" style="stroke: #000000; stroke-width: 0.6"/>
      </g>
     </g>
    </g>
    <g id="ytick_28">
     <g id="line2d_137">
      <path d="M 95.28125 80.381425 
L 764.88125 80.381425 
" clip-path="url(#p6b3af6e24e)" style="fill: none; stroke-dasharray: 1.85,0.8; stroke-dashoffset: 0; stroke: #b0b0b0; stroke-opacity: 0.8; stroke-width: 0.5"/>
     </g>
     <g id="line2d_138">
      <g>
       <use xlink:href="#m18014d04fb" x="95.28125" y="80.381425" style="stroke: #000000; stroke-width: 0.6"/>
      </g>
     </g>
    </g>
    <g id="text_16">
     <!-- Light (W/m^2) -->
     <g transform="translate(49.221875 337.558125) rotate(-90) scale(0.2 -0.2)">
      <defs>
       <path id="AptosDisplay-4c" d="M 472 0 
L 472 4206 
L 1034 4206 
L 1034 484 
L 3000 484 
L 3000 0 
L 472 0 
z
" transform="scale(0.015625)"/>
       <path id="AptosDisplay-67" d="M 1397 -1178 
Q 925 -1178 640 -1065 
Q 356 -953 229 -765 
Q 103 -578 103 -359 
Q 103 -94 329 112 
Q 556 319 1031 403 
L 1128 575 
L 1475 575 
Q 2184 575 2489 376 
Q 2794 178 2794 -238 
Q 2794 -650 2437 -914 
Q 2081 -1178 1397 -1178 
z
M 1384 -800 
Q 1878 -800 2086 -650 
Q 2294 -500 2294 -278 
Q 2294 -147 2225 -51 
Q 2156 44 1975 97 
Q 1794 150 1456 150 
L 1034 150 
Q 819 97 708 -31 
Q 597 -159 597 -328 
Q 597 -516 778 -658 
Q 959 -800 1384 -800 
z
M 1025 216 
Q 722 228 550 312 
Q 378 397 306 511 
Q 234 625 234 722 
Q 234 866 362 1009 
Q 491 1153 772 1241 
L 1038 1069 
Q 866 1031 772 953 
Q 678 875 678 791 
Q 678 731 734 682 
Q 791 634 928 606 
Q 1066 578 1303 575 
L 1025 216 
z
M 1363 984 
Q 1003 984 753 1128 
Q 503 1272 375 1509 
Q 247 1747 247 2022 
Q 247 2313 376 2550 
Q 506 2788 754 2928 
Q 1003 3069 1366 3069 
Q 1738 3069 1983 2928 
Q 2228 2788 2351 2550 
Q 2475 2313 2475 2022 
Q 2475 1741 2350 1505 
Q 2225 1269 1979 1126 
Q 1734 984 1363 984 
z
M 1366 1341 
Q 1641 1341 1812 1512 
Q 1984 1684 1984 2022 
Q 1984 2375 1817 2545 
Q 1650 2716 1372 2716 
Q 1094 2716 919 2541 
Q 744 2366 744 2025 
Q 744 1681 931 1511 
Q 1119 1341 1366 1341 
z
M 2131 2734 
L 1922 2931 
Q 2038 3225 2252 3331 
Q 2466 3438 2794 3447 
L 2794 3006 
Q 2588 3006 2416 2961 
Q 2244 2916 2131 2734 
z
" transform="scale(0.015625)"/>
       <path id="AptosDisplay-68" d="M 413 0 
L 413 4206 
L 931 4206 
L 931 2575 
Q 1069 2756 1317 2914 
Q 1566 3072 1950 3072 
Q 2428 3072 2637 2783 
Q 2847 2494 2847 1963 
L 2847 0 
L 2328 0 
L 2328 1891 
Q 2328 2106 2287 2275 
Q 2247 2444 2139 2539 
Q 2031 2634 1822 2634 
Q 1503 2634 1284 2482 
Q 1066 2331 934 2156 
L 934 0 
L 413 0 
z
" transform="scale(0.015625)"/>
       <path id="AptosDisplay-74" d="M 1466 0 
Q 1100 0 901 117 
Q 703 234 629 454 
Q 556 675 556 984 
L 556 2622 
L 50 2622 
L 50 3044 
L 556 3044 
L 556 3741 
L 1078 3741 
L 1078 3044 
L 1831 3044 
L 1831 2622 
L 1078 2622 
L 1078 1009 
Q 1078 725 1151 575 
Q 1225 425 1500 425 
L 1831 425 
L 1831 0 
L 1466 0 
z
" transform="scale(0.015625)"/>
       <path id="AptosDisplay-57" d="M 1216 0 
L -13 4206 
L 575 4206 
L 1525 697 
L 2531 4206 
L 3156 4206 
L 4163 697 
L 5119 4206 
L 5681 4206 
L 4453 0 
L 3866 0 
L 2831 3556 
L 1813 0 
L 1216 0 
z
" transform="scale(0.015625)"/>
       <path id="AptosDisplay-2f" d="M 72 0 
L 1603 4206 
L 2100 4206 
L 569 0 
L 72 0 
z
" transform="scale(0.015625)"/>
       <path id="AptosDisplay-5e" d="M 428 2438 
L 1459 4206 
L 1884 4206 
L 2916 2438 
L 2366 2438 
L 1672 3650 
L 978 2438 
L 428 2438 
z
" transform="scale(0.015625)"/>
      </defs>
      <use xlink:href="#AptosDisplay-4c"/>
      <use xlink:href="#AptosDisplay-69" x="48.4375"/>
      <use xlink:href="#AptosDisplay-67" x="69.482422"/>
      <use xlink:href="#AptosDisplay-68" x="113.427734"/>
      <use xlink:href="#AptosDisplay-74" x="164.013672"/>
      <use xlink:href="#AptosDisplay-20" x="194.384766"/>
      <use xlink:href="#AptosDisplay-28" x="213.671875"/>
      <use xlink:href="#AptosDisplay-57" x="243.115234"/>
      <use xlink:href="#AptosDisplay-2f" x="331.689453"/>
      <use xlink:href="#AptosDisplay-6d" x="365.625"/>
      <use xlink:href="#AptosDisplay-5e" x="445.605469"/>
      <use xlink:href="#AptosDisplay-32" x="497.900391"/>
      <use xlink:href="#AptosDisplay-29" x="550.195312"/>
     </g>
    </g>
   </g>
   <g id="line2d_139">
    <path d="M 125.717614 408.200212 
L 126.367262 397.769364 
L 127.016911 383.86945 
L 127.66656 429.054025 
L 128.316208 439.47699 
L 128.965857 422.100126 
L 129.615505 422.100126 
L 130.265154 418.623177 
L 130.914803 481.1925 
L 131.564451 446.430889 
L 132.2141 418.623177 
L 132.863749 429.054025 
L 133.513397 394.292414 
L 134.163046 401.246313 
L 134.812695 397.769364 
L 135.462343 408.200212 
L 136.111992 397.769364 
L 136.761641 380.3925 
L 137.411289 390.815464 
L 138.060938 394.292414 
L 138.710586 376.91555 
L 140.009884 383.86945 
L 140.659532 401.246313 
L 141.309181 411.669277 
L 141.95883 408.200212 
L 142.608478 411.669277 
L 143.258127 401.246313 
L 143.907776 408.200212 
L 144.557424 411.669277 
L 145.207073 408.200212 
L 146.50637 422.100126 
L 147.156019 394.292414 
L 148.455316 422.100126 
L 149.104965 404.723263 
L 149.754613 401.246313 
L 150.404262 394.292414 
L 151.053911 373.438601 
L 151.703559 408.200212 
L 152.353208 411.669277 
L 153.002857 411.669277 
L 153.652505 383.86945 
L 154.302154 418.623177 
L 154.951802 415.146227 
L 155.601451 418.623177 
L 156.2511 394.292414 
L 156.900748 422.100126 
L 157.550397 425.577076 
L 158.200046 418.623177 
L 158.849694 425.577076 
L 159.499343 390.815464 
L 160.148992 415.146227 
L 160.79864 429.054025 
L 161.448289 411.669277 
L 162.747586 404.723263 
L 164.046883 404.723263 
L 164.696532 411.669277 
L 165.346181 436.00004 
L 165.995829 390.815464 
L 166.645478 369.961651 
L 167.295127 380.3925 
L 167.944775 373.438601 
L 168.594424 373.438601 
L 169.244073 383.86945 
L 169.893721 376.91555 
L 170.54337 376.91555 
L 171.193018 387.338515 
L 171.842667 376.91555 
L 172.492316 373.438601 
L 173.141964 387.338515 
L 173.791613 387.338515 
L 174.441262 442.953939 
L 175.09091 401.246313 
L 175.740559 425.577076 
L 176.390208 404.723263 
L 177.039856 411.669277 
L 177.689505 411.669277 
L 178.339154 422.100126 
L 178.988802 439.47699 
L 179.638451 439.47699 
L 180.288099 446.430889 
L 180.937748 442.953939 
L 181.587397 442.953939 
L 182.237045 436.00004 
L 182.886694 439.47699 
L 183.536343 456.861737 
L 184.185991 446.430889 
L 184.83564 432.530975 
L 185.485289 456.861737 
L 186.784586 449.907838 
L 187.434234 456.861737 
L 188.083883 442.953939 
L 188.733532 446.430889 
L 189.38318 446.430889 
L 190.032829 456.861737 
L 190.682478 439.47699 
L 191.332126 453.384788 
L 191.981775 446.430889 
L 192.631424 449.907838 
L 193.281072 474.238601 
L 193.930721 439.47699 
L 194.58037 425.577076 
L 195.230018 446.430889 
L 195.879667 442.953939 
L 196.529315 446.430889 
L 197.182212 415.146227 
L 197.831861 429.054025 
L 198.48151 408.200212 
L 199.131158 422.100126 
L 199.780807 446.430889 
L 200.430456 432.530975 
L 201.080104 415.146227 
L 201.729753 387.338515 
L 202.379401 380.3925 
L 203.02905 376.91555 
L 203.678699 380.3925 
L 204.328347 369.961651 
L 204.977996 387.338515 
L 205.627645 363.007752 
L 206.277293 376.91555 
L 206.926942 373.438601 
L 207.576591 363.007752 
L 208.226239 394.292414 
L 208.875888 359.538687 
L 209.525537 342.153939 
L 210.175185 338.67699 
L 210.824834 307.400212 
L 211.474482 345.630889 
L 212.124131 331.730975 
L 212.77378 331.730975 
L 213.423428 321.300126 
L 214.073077 314.346227 
L 214.722726 314.346227 
L 215.372374 324.777076 
L 216.671672 310.877162 
L 217.32132 293.492414 
L 217.970969 286.546399 
L 218.620617 314.346227 
L 219.270266 293.492414 
L 219.919915 300.446313 
L 220.569563 296.969364 
L 221.219212 310.877162 
L 221.868861 293.492414 
L 222.518509 321.300126 
L 223.168158 310.877162 
L 223.817807 279.5925 
L 224.467455 293.492414 
L 225.117104 293.492414 
L 225.766753 290.015464 
L 226.416401 296.969364 
L 227.06605 307.400212 
L 227.715698 286.546399 
L 228.365347 283.06945 
L 229.014996 300.446313 
L 229.664644 296.969364 
L 230.314293 276.11555 
L 230.963942 307.400212 
L 231.61359 310.877162 
L 232.263239 310.877162 
L 233.562536 283.06945 
L 234.212185 303.923263 
L 234.861834 286.546399 
L 235.511482 283.06945 
L 236.161131 272.638601 
L 236.810779 265.692586 
L 237.460428 296.969364 
L 238.110077 290.015464 
L 238.759725 272.638601 
L 239.409374 279.5925 
L 240.708671 272.638601 
L 241.35832 283.06945 
L 242.657617 276.11555 
L 243.307266 279.5925 
L 243.956914 265.692586 
L 244.606563 276.11555 
L 245.256212 276.11555 
L 245.90586 283.06945 
L 246.555509 269.161651 
L 247.205158 276.11555 
L 247.854806 276.11555 
L 248.504455 269.161651 
L 249.154104 279.5925 
L 249.803752 279.5925 
L 250.453401 303.923263 
L 251.10305 296.969364 
L 251.752698 283.06945 
L 252.402347 300.446313 
L 253.051995 303.923263 
L 253.701644 310.877162 
L 255.000941 331.730975 
L 255.65059 335.207924 
L 256.300239 352.584788 
L 256.949887 359.538687 
L 257.599536 352.584788 
L 258.249185 356.061737 
L 258.898833 352.584788 
L 259.548482 338.67699 
L 260.19813 422.100126 
L 260.847779 369.961651 
L 261.497428 363.007752 
L 262.147076 349.107838 
L 262.796725 349.107838 
L 263.446374 338.67699 
L 264.096022 338.67699 
L 264.745671 342.153939 
L 265.39532 324.777076 
L 266.044968 303.923263 
L 266.694617 276.11555 
L 267.344266 269.161651 
L 267.993914 241.361823 
L 268.643563 220.500126 
L 269.94286 258.738687 
L 270.592509 241.361823 
L 271.242157 220.500126 
L 271.891806 217.031061 
L 272.541455 192.700298 
L 273.191103 178.7925 
L 273.840752 185.746399 
L 274.490401 175.31555 
L 275.140049 168.361651 
L 276.439346 161.415636 
L 277.088995 192.700298 
L 277.738644 178.7925 
L 278.388292 196.169364 
L 279.037941 182.26945 
L 279.68759 199.646313 
L 280.337238 196.169364 
L 280.986887 217.031061 
L 281.636536 223.977076 
L 282.286184 234.407924 
L 282.935833 220.500126 
L 283.585482 244.830889 
L 284.23513 223.977076 
L 284.884779 230.930975 
L 285.534427 283.06945 
L 286.184076 272.638601 
L 286.833725 258.738687 
L 287.483373 265.692586 
L 288.133022 265.692586 
L 288.782671 293.492414 
L 289.432319 269.161651 
L 290.081968 269.161651 
L 290.731617 290.015464 
L 291.381265 276.11555 
L 292.030914 279.5925 
L 292.680563 265.692586 
L 293.330211 272.638601 
L 293.97986 296.969364 
L 294.629508 303.923263 
L 295.928806 283.06945 
L 296.578454 300.446313 
L 297.228103 324.777076 
L 297.877752 310.877162 
L 299.826698 310.877162 
L 300.476346 331.730975 
L 301.125995 328.254025 
L 301.775643 331.730975 
L 302.425292 317.823177 
L 303.074941 331.730975 
L 303.724589 317.823177 
L 304.374238 293.492414 
L 305.023887 303.923263 
L 305.673535 303.923263 
L 306.323184 314.346227 
L 307.622481 286.546399 
L 308.27213 269.161651 
L 308.921779 356.061737 
L 309.571427 300.446313 
L 310.221076 293.492414 
L 310.870724 265.692586 
L 311.520373 283.06945 
L 312.170022 283.06945 
L 312.81967 279.5925 
L 313.469319 269.161651 
L 314.118968 269.161651 
L 314.768616 265.692586 
L 315.418265 269.161651 
L 316.067914 276.11555 
L 316.717562 255.261737 
L 317.367211 272.638601 
L 318.016859 258.738687 
L 318.666508 258.738687 
L 319.316157 262.215636 
L 321.914751 258.738687 
L 322.5644 255.261737 
L 323.214049 237.884874 
L 323.863697 255.261737 
L 324.513346 262.215636 
L 325.162995 251.784788 
L 325.812643 251.784788 
L 326.462292 269.161651 
L 327.11194 262.215636 
L 327.761589 269.161651 
L 328.411238 269.161651 
L 329.060886 293.492414 
L 329.710535 286.546399 
L 330.360184 310.877162 
L 331.009832 310.877162 
L 332.30913 324.777076 
L 332.958778 314.346227 
L 333.608427 307.400212 
L 334.258076 328.254025 
L 334.907724 342.153939 
L 335.557373 349.107838 
L 336.207021 338.67699 
L 336.85667 342.153939 
L 337.506319 342.153939 
L 338.155967 328.254025 
L 338.805616 352.584788 
L 339.455265 349.107838 
L 340.104913 338.67699 
L 340.754562 356.061737 
L 341.404211 356.061737 
L 342.703508 342.153939 
L 343.353156 349.107838 
L 344.002805 359.538687 
L 345.302102 366.484702 
L 345.951751 363.007752 
L 346.6014 352.584788 
L 347.251048 363.007752 
L 347.900697 356.061737 
L 348.550346 317.823177 
L 349.199994 345.630889 
L 349.849643 342.153939 
L 350.499292 331.730975 
L 351.798589 317.823177 
L 352.448237 321.300126 
L 353.097886 296.969364 
L 353.747535 300.446313 
L 354.397183 366.484702 
L 355.046832 296.969364 
L 355.696481 265.692586 
L 356.346129 255.261737 
L 356.995778 262.215636 
L 357.645427 262.215636 
L 358.295075 244.830889 
L 358.944724 196.169364 
L 359.594372 230.930975 
L 360.244021 223.977076 
L 361.543318 223.977076 
L 362.192967 227.454025 
L 362.842616 217.031061 
L 363.492264 196.169364 
L 364.141913 234.407924 
L 364.791562 223.977076 
L 365.44121 230.930975 
L 366.090859 217.031061 
L 366.740508 220.500126 
L 367.390156 230.930975 
L 368.039805 244.830889 
L 368.689453 237.884874 
L 369.339102 241.361823 
L 369.988751 227.454025 
L 370.638399 251.784788 
L 371.288048 241.361823 
L 371.937697 251.784788 
L 372.587345 258.738687 
L 373.236994 199.646313 
L 373.886643 258.738687 
L 374.536291 276.11555 
L 375.18594 272.638601 
L 375.835589 272.638601 
L 376.485237 328.254025 
L 377.134886 283.06945 
L 377.784534 293.492414 
L 378.434183 290.015464 
L 379.73348 310.877162 
L 380.383129 300.446313 
L 381.032778 363.007752 
L 381.682426 328.254025 
L 382.332075 335.207924 
L 382.981724 324.777076 
L 383.631372 317.823177 
L 384.281021 338.67699 
L 385.580318 331.730975 
L 386.229967 345.630889 
L 386.879615 307.400212 
L 387.529264 331.730975 
L 388.178913 345.630889 
L 388.828561 338.67699 
L 389.47821 328.254025 
L 390.127859 356.061737 
L 390.777507 349.107838 
L 391.427156 317.823177 
L 392.076805 324.777076 
L 392.726453 293.492414 
L 393.376102 314.346227 
L 394.02575 269.161651 
L 394.675399 296.969364 
L 395.974696 303.923263 
L 396.624345 296.969364 
L 397.273994 272.638601 
L 397.923642 279.5925 
L 398.573291 272.638601 
L 399.22294 272.638601 
L 399.872588 276.11555 
L 400.522237 272.638601 
L 401.171885 241.361823 
L 401.821534 269.161651 
L 403.120831 283.06945 
L 403.77048 272.638601 
L 404.420129 303.923263 
L 405.069777 296.969364 
L 405.719426 296.969364 
L 406.369075 269.161651 
L 407.018723 290.015464 
L 407.668372 290.015464 
L 408.318021 283.06945 
L 408.967669 279.5925 
L 409.617318 303.923263 
L 410.266966 293.492414 
L 410.916615 290.015464 
L 411.566264 265.692586 
L 412.215912 283.06945 
L 412.865561 296.969364 
L 413.51521 255.261737 
L 414.814507 227.454025 
L 415.464156 147.507838 
L 416.113804 244.830889 
L 416.763453 258.738687 
L 417.413102 251.784788 
L 418.06275 258.738687 
L 418.712399 244.830889 
L 419.362047 262.215636 
L 420.011696 251.784788 
L 420.661345 248.307838 
L 421.310993 241.361823 
L 421.960642 227.454025 
L 422.610291 251.784788 
L 423.259939 248.307838 
L 423.909588 258.738687 
L 424.559237 255.261737 
L 425.208885 248.307838 
L 425.858534 265.692586 
L 426.508182 269.161651 
L 427.157831 262.215636 
L 427.80748 279.5925 
L 428.457128 276.11555 
L 429.106777 265.692586 
L 429.756426 276.11555 
L 430.406074 265.692586 
L 431.055723 241.361823 
L 431.705372 283.06945 
L 433.004669 283.06945 
L 433.654318 262.215636 
L 434.953615 283.06945 
L 435.603263 217.031061 
L 436.252912 290.015464 
L 436.902561 272.638601 
L 437.552209 283.06945 
L 438.201858 269.161651 
L 438.851507 279.5925 
L 440.150804 293.492414 
L 440.800453 283.06945 
L 442.09975 276.11555 
L 442.749398 283.06945 
L 444.048696 255.261737 
L 444.698344 265.692586 
L 445.347993 262.215636 
L 445.997642 234.407924 
L 446.64729 237.884874 
L 447.296939 227.454025 
L 447.946588 223.977076 
L 448.596236 213.554111 
L 449.245885 199.646313 
L 449.895534 168.361651 
L 450.545182 178.7925 
L 451.194831 161.415636 
L 453.143777 140.561823 
L 453.793425 147.507838 
L 454.443074 137.084874 
L 455.092723 123.177076 
L 455.742371 133.607924 
L 456.39202 140.561823 
L 457.041669 123.177076 
L 457.691317 137.084874 
L 458.340966 133.607924 
L 458.990615 116.231061 
L 459.640263 126.654025 
L 460.289912 133.607924 
L 460.93956 147.507838 
L 461.589209 130.130975 
L 462.238858 161.415636 
L 462.888506 88.423349 
L 463.538155 126.654025 
L 464.187804 137.084874 
L 464.837452 77.9925 
L 465.487101 144.038773 
L 466.13675 102.323263 
L 466.786398 130.130975 
L 467.436047 119.70801 
L 468.085695 123.177076 
L 468.735344 119.70801 
L 469.384993 98.846313 
L 470.034641 112.754111 
L 470.68429 123.177076 
L 471.333939 116.231061 
L 471.983587 112.754111 
L 472.633236 123.177076 
L 473.282885 126.654025 
L 473.932533 119.70801 
L 474.582182 130.130975 
L 475.231831 154.461737 
L 475.881479 123.177076 
L 476.531128 130.130975 
L 477.180776 147.507838 
L 477.830425 123.177076 
L 478.480074 116.231061 
L 479.129722 112.754111 
L 479.779371 126.654025 
L 480.42902 112.754111 
L 481.078668 123.177076 
L 481.728317 116.231061 
L 482.377966 126.654025 
L 483.027614 140.561823 
L 483.677263 126.654025 
L 484.97656 133.607924 
L 485.626209 144.038773 
L 486.925506 137.084874 
L 487.575155 105.800212 
L 488.224803 150.984788 
L 488.874452 154.461737 
L 490.173749 168.361651 
L 490.823398 161.415636 
L 491.473047 168.361651 
L 492.122695 168.361651 
L 492.772344 182.26945 
L 493.421992 185.746399 
L 494.071641 217.031061 
L 494.72129 192.700298 
L 495.370938 210.077162 
L 496.020587 210.077162 
L 496.670236 227.454025 
L 497.319884 199.646313 
L 497.969533 182.26945 
L 498.619182 206.600212 
L 499.26883 199.646313 
L 500.568128 220.500126 
L 501.217776 199.646313 
L 501.870673 210.077162 
L 502.517073 210.077162 
L 503.16997 192.700298 
L 503.819619 199.646313 
L 504.469268 220.500126 
L 505.118916 220.500126 
L 505.768565 244.830889 
L 506.418214 192.700298 
L 507.067862 217.031061 
L 507.717511 227.454025 
L 508.367159 217.031061 
L 509.016808 217.031061 
L 509.666457 213.554111 
L 510.965754 220.500126 
L 511.615403 217.031061 
L 512.265051 199.646313 
L 513.564349 220.500126 
L 514.213997 210.077162 
L 514.863646 192.700298 
L 515.513294 196.169364 
L 518.111889 196.169364 
L 518.761538 171.838601 
L 519.411186 199.646313 
L 520.710484 178.7925 
L 521.360132 269.161651 
L 522.009781 199.646313 
L 522.65943 192.700298 
L 523.309078 217.031061 
L 523.958727 168.361651 
L 525.258024 220.500126 
L 525.907673 210.077162 
L 527.20697 265.692586 
L 528.506267 258.738687 
L 529.155916 258.738687 
L 529.805565 269.161651 
L 530.455213 262.215636 
L 531.104862 279.5925 
L 531.75451 290.015464 
L 532.404159 335.207924 
L 533.053808 283.06945 
L 533.703456 293.492414 
L 534.353105 296.969364 
L 535.002754 290.015464 
L 535.652402 262.215636 
L 536.302051 269.161651 
L 536.9517 269.161651 
L 537.601348 265.692586 
L 538.250997 258.738687 
L 538.900646 244.830889 
L 539.550294 237.884874 
L 540.199943 227.454025 
L 540.849591 244.830889 
L 541.49924 237.884874 
L 542.148889 223.977076 
L 542.798537 227.454025 
L 543.448186 220.500126 
L 544.097835 237.884874 
L 544.747483 223.977076 
L 545.397132 251.784788 
L 546.046781 230.930975 
L 546.696429 234.407924 
L 547.995727 192.700298 
L 548.645375 192.700298 
L 549.295024 217.031061 
L 549.944672 230.930975 
L 550.594321 223.977076 
L 551.24397 234.407924 
L 551.893618 234.407924 
L 552.543267 237.884874 
L 553.192916 237.884874 
L 553.842564 227.454025 
L 554.492213 244.830889 
L 555.141862 237.884874 
L 556.441159 244.830889 
L 557.090807 258.738687 
L 557.740456 251.784788 
L 558.390105 251.784788 
L 559.039753 241.361823 
L 559.689402 241.361823 
L 560.339051 248.307838 
L 560.988699 251.784788 
L 561.638348 234.407924 
L 562.287997 244.830889 
L 562.937645 230.930975 
L 563.587294 234.407924 
L 564.236943 234.407924 
L 564.886591 241.361823 
L 565.53624 230.930975 
L 566.185888 227.454025 
L 566.835537 185.746399 
L 567.485186 196.169364 
L 568.134834 223.977076 
L 568.784483 227.454025 
L 569.434132 223.977076 
L 570.08378 217.031061 
L 570.733429 213.554111 
L 571.383078 251.784788 
L 572.032726 217.031061 
L 572.682375 217.031061 
L 573.332023 213.554111 
L 573.981672 192.700298 
L 574.631321 213.554111 
L 575.280969 223.977076 
L 575.930618 192.700298 
L 576.580267 223.977076 
L 577.229915 223.977076 
L 577.879564 230.930975 
L 578.529213 217.031061 
L 579.178861 230.930975 
L 579.82851 234.407924 
L 580.478159 234.407924 
L 581.127807 248.307838 
L 581.777456 244.830889 
L 582.427104 251.784788 
L 583.076753 255.261737 
L 583.726402 237.884874 
L 584.37605 265.692586 
L 585.025699 276.11555 
L 585.675348 283.06945 
L 586.324996 265.692586 
L 586.974645 286.546399 
L 587.624294 272.638601 
L 588.273942 276.11555 
L 588.923591 269.161651 
L 589.57324 272.638601 
L 590.222888 283.06945 
L 590.872537 290.015464 
L 591.522185 269.161651 
L 592.171834 276.11555 
L 592.821483 276.11555 
L 593.471131 279.5925 
L 594.12078 279.5925 
L 594.770429 290.015464 
L 595.420077 237.884874 
L 596.069726 293.492414 
L 596.719375 286.546399 
L 597.369023 286.546399 
L 598.018672 279.5925 
L 598.66832 279.5925 
L 599.317969 272.638601 
L 599.967618 276.11555 
L 600.617266 276.11555 
L 601.266915 262.215636 
L 601.916564 269.161651 
L 602.566212 269.161651 
L 603.215861 258.738687 
L 603.86551 244.830889 
L 605.164807 223.977076 
L 606.464104 210.077162 
L 607.113753 213.554111 
L 607.763401 196.169364 
L 608.41305 199.646313 
L 609.062699 171.838601 
L 610.361996 150.984788 
L 611.011645 171.838601 
L 611.661293 161.415636 
L 612.310942 178.7925 
L 612.960591 171.838601 
L 613.610239 217.031061 
L 614.259888 196.169364 
L 614.909536 192.700298 
L 615.559185 196.169364 
L 616.208834 213.554111 
L 616.858482 220.500126 
L 617.508131 223.977076 
L 618.15778 217.031061 
L 618.807428 241.361823 
L 619.457077 223.977076 
L 620.106726 237.884874 
L 620.756374 237.884874 
L 621.406023 234.407924 
L 622.055672 237.884874 
L 622.70532 244.830889 
L 623.354969 241.361823 
L 624.004617 251.784788 
L 624.654266 255.261737 
L 625.303915 255.261737 
L 625.953563 244.830889 
L 626.603212 244.830889 
L 627.252861 241.361823 
L 627.902509 234.407924 
L 628.552158 262.215636 
L 629.201807 255.261737 
L 629.851455 262.215636 
L 630.501104 272.638601 
L 631.150753 262.215636 
L 631.800401 269.161651 
L 632.45005 258.738687 
L 633.099698 265.692586 
L 633.749347 269.161651 
L 634.398996 258.738687 
L 635.048644 265.692586 
L 635.698293 258.738687 
L 636.347942 290.015464 
L 636.99759 251.784788 
L 637.647239 251.784788 
L 638.296888 272.638601 
L 639.596185 293.492414 
L 640.245833 310.877162 
L 640.895482 303.923263 
L 642.194779 352.584788 
L 642.844428 338.67699 
L 643.494077 376.91555 
L 644.143725 366.484702 
L 644.793374 373.438601 
L 645.443023 376.91555 
L 646.092671 376.91555 
L 646.74232 366.484702 
L 647.391969 387.338515 
L 648.041617 380.3925 
L 648.691266 387.338515 
L 649.990563 394.292414 
L 650.640212 394.292414 
L 651.28986 415.146227 
L 651.939509 380.3925 
L 652.589158 404.723263 
L 653.238806 411.669277 
L 653.888455 376.91555 
L 654.538104 380.3925 
L 655.187752 390.815464 
L 655.837401 404.723263 
L 656.487049 411.669277 
L 657.136698 415.146227 
L 657.786347 390.815464 
L 658.435995 380.3925 
L 659.085644 363.007752 
L 659.735293 352.584788 
L 660.384941 345.630889 
L 661.03459 352.584788 
L 662.333887 314.346227 
L 662.983536 296.969364 
L 663.633185 303.923263 
L 664.282833 293.492414 
L 664.932482 293.492414 
L 665.58213 283.06945 
L 666.231779 265.692586 
L 666.881428 269.161651 
L 667.531076 251.784788 
L 668.180725 251.784788 
L 668.830374 223.977076 
L 669.480022 217.031061 
L 670.77932 210.077162 
L 671.428968 164.892586 
L 672.078617 154.461737 
L 672.728266 182.26945 
L 673.377914 189.223349 
L 674.027563 140.561823 
L 674.677211 182.26945 
L 675.32686 150.984788 
L 675.976509 168.361651 
L 676.626157 175.31555 
L 677.275806 171.838601 
L 677.925455 185.746399 
L 678.575103 161.415636 
L 679.224752 178.7925 
L 679.874401 185.746399 
L 680.524049 178.7925 
L 681.173698 175.31555 
L 681.823346 164.892586 
L 682.472995 189.223349 
L 683.122644 199.646313 
L 683.772292 196.169364 
L 684.421941 189.223349 
L 685.07159 178.7925 
L 685.721238 182.26945 
L 686.370887 161.415636 
L 687.020536 171.838601 
L 687.670184 178.7925 
L 688.319833 182.26945 
L 688.969482 144.038773 
L 689.61913 157.938687 
L 690.268779 154.461737 
L 690.918427 147.507838 
L 691.568076 147.507838 
L 692.217725 144.038773 
L 692.867373 144.038773 
L 693.517022 154.461737 
L 694.816319 133.607924 
L 695.465968 133.607924 
L 696.115617 137.084874 
L 696.765265 144.038773 
L 697.414914 144.038773 
L 698.714211 130.130975 
L 699.36386 140.561823 
L 700.013508 144.038773 
L 700.663157 130.130975 
L 701.312806 144.038773 
L 701.962454 154.461737 
L 702.612103 147.507838 
L 703.261752 150.984788 
L 705.210698 150.984788 
L 705.860346 175.31555 
L 706.509995 171.838601 
L 707.159643 164.892586 
L 707.809292 116.231061 
L 708.458941 140.561823 
L 709.108589 178.7925 
L 709.758238 168.361651 
L 710.407887 171.838601 
L 711.057535 147.507838 
L 711.707184 175.31555 
L 714.305779 157.938687 
L 714.955427 171.838601 
L 715.605076 157.938687 
L 716.254724 140.561823 
L 716.904373 147.507838 
L 717.554022 147.507838 
L 719.502968 137.084874 
L 720.152616 123.177076 
L 720.802265 95.377248 
L 721.451914 189.223349 
L 722.101562 182.26945 
L 722.751211 119.70801 
L 723.400859 123.177076 
L 724.050508 112.754111 
L 725.349805 98.846313 
L 725.999454 116.231061 
L 727.298751 109.277162 
L 727.9484 119.70801 
L 728.598049 137.084874 
L 729.247697 147.507838 
L 729.897346 161.415636 
L 730.546995 150.984788 
L 731.196643 98.846313 
L 732.49594 147.507838 
L 733.795238 175.31555 
L 734.444886 175.31555 
L 734.444886 175.31555 
" clip-path="url(#p6b3af6e24e)" style="fill: none; stroke: #ac2b37; stroke-width: 1.5; stroke-linecap: square"/>
   </g>
   <g id="patch_3">
    <path d="M 95.28125 501.3525 
L 95.28125 57.8325 
" style="fill: none; stroke: #000000; stroke-width: 0.8; stroke-linejoin: miter; stroke-linecap: square"/>
   </g>
   <g id="patch_4">
    <path d="M 764.88125 501.3525 
L 764.88125 57.8325 
" style="fill: none; stroke: #000000; stroke-width: 0.8; stroke-linejoin: miter; stroke-linecap: square"/>
   </g>
   <g id="patch_5">
    <path d="M 95.28125 501.3525 
L 764.88125 501.3525 
" style="fill: none; stroke: #000000; stroke-width: 0.8; stroke-linejoin: miter; stroke-linecap: square"/>
   </g>
   <g id="patch_6">
    <path d="M 95.28125 57.8325 
L 764.88125 57.8325 
" style="fill: none; stroke: #000000; stroke-width: 0.8; stroke-linejoin: miter; stroke-linecap: square"/>
   </g>
   <g id="text_17">
    <!-- Light vs Time -->
    <g transform="translate(367.59875 51.8325) scale(0.24 -0.24)">
     <defs>
      <path id="AptosDisplay-76" d="M 1103 0 
L -13 3044 
L 538 3044 
L 1391 513 
L 2250 3044 
L 2781 3044 
L 1678 0 
L 1103 0 
z
" transform="scale(0.015625)"/>
      <path id="AptosDisplay-73" d="M 1506 -41 
Q 1247 -41 1017 14 
Q 788 69 613 191 
Q 438 313 339 506 
Q 241 700 241 978 
L 744 978 
Q 744 628 966 487 
Q 1188 347 1519 347 
Q 1816 347 2008 458 
Q 2200 569 2200 822 
Q 2200 1047 2026 1153 
Q 1853 1259 1413 1369 
Q 1056 1453 815 1564 
Q 575 1675 453 1845 
Q 331 2016 331 2275 
Q 331 2475 417 2626 
Q 503 2778 658 2879 
Q 813 2981 1020 3032 
Q 1228 3084 1472 3084 
Q 1713 3084 1923 3028 
Q 2134 2972 2296 2855 
Q 2459 2738 2551 2552 
Q 2644 2366 2644 2109 
L 2138 2109 
Q 2138 2425 1945 2558 
Q 1753 2691 1472 2691 
Q 1191 2691 1016 2594 
Q 841 2497 841 2291 
Q 841 2169 919 2084 
Q 997 2000 1181 1933 
Q 1366 1866 1675 1791 
Q 2019 1709 2248 1596 
Q 2478 1484 2595 1306 
Q 2713 1128 2713 847 
Q 2713 616 2622 447 
Q 2531 278 2367 170 
Q 2203 63 1983 11 
Q 1763 -41 1506 -41 
z
" transform="scale(0.015625)"/>
     </defs>
     <use xlink:href="#AptosDisplay-4c"/>
     <use xlink:href="#AptosDisplay-69" x="48.4375"/>
     <use xlink:href="#AptosDisplay-67" x="69.482422"/>
     <use xlink:href="#AptosDisplay-68" x="113.427734"/>
     <use xlink:href="#AptosDisplay-74" x="164.013672"/>
     <use xlink:href="#AptosDisplay-20" x="194.384766"/>
     <use xlink:href="#AptosDisplay-76" x="213.671875"/>
     <use xlink:href="#AptosDisplay-73" x="256.933594"/>
     <use xlink:href="#AptosDisplay-20" x="303.222656"/>
     <use xlink:href="#AptosDisplay-54" x="322.509766"/>
     <use xlink:href="#AptosDisplay-69" x="370.214844"/>
     <use xlink:href="#AptosDisplay-6d" x="391.259766"/>
     <use xlink:href="#AptosDisplay-65" x="471.240234"/>
    </g>
   </g>
  </g>
 </g>
 <defs>
  <clipPath id="p6b3af6e24e">
   <rect x="95.28125" y="57.8325" width="669.6" height="443.52"/>
  </clipPath>
 </defs>
</svg>
