<?xml version="1.0" encoding="utf-8" standalone="no"?>
<!DOCTYPE svg PUBLIC "-//W3C//DTD SVG 1.1//EN"
  "http://www.w3.org/Graphics/SVG/1.1/DTD/svg11.dtd">
<svg xmlns:xlink="http://www.w3.org/1999/xlink" width="800.725pt" height="581.830625pt" viewBox="0 0 800.725 581.830625" xmlns="http://www.w3.org/2000/svg" version="1.1">
 <metadata>
  <rdf:RDF xmlns:dc="http://purl.org/dc/elements/1.1/" xmlns:cc="http://creativecommons.org/ns#" xmlns:rdf="http://www.w3.org/1999/02/22-rdf-syntax-ns#">
   <cc:Work>
    <dc:type rdf:resource="http://purl.org/dc/dcmitype/StillImage"/>
    <dc:date>2025-04-03T01:48:07.332358</dc:date>
    <dc:format>image/svg+xml</dc:format>
    <dc:creator>
     <cc:Agent>
      <dc:title>Matplotlib v3.8.2, https://matplotlib.org/</dc:title>
     </cc:Agent>
    </dc:creator>
   </cc:Work>
  </rdf:RDF>
 </metadata>
 <defs>
  <style type="text/css">*{stroke-linejoin: round; stroke-linecap: butt}</style>
 </defs>
 <g id="figure_1">
  <g id="patch_1">
   <path d="M 0 581.830625 
L 800.725 581.830625 
L 800.725 0 
L 0 0 
z
" style="fill: #ffffff"/>
  </g>
  <g id="axes_1">
   <g id="patch_2">
    <path d="M 95.125 501.3525 
L 764.725 501.3525 
L 764.725 57.8325 
L 95.125 57.8325 
z
" style="fill: #ffffff"/>
   </g>
   <g id="matplotlib.axis_1">
    <g id="xtick_1">
     <g id="line2d_1">
      <path d="M 125.210553 501.3525 
L 125.210553 57.8325 
" clip-path="url(#p93d3268b93)" style="fill: none; stroke: #b0b0b0; stroke-opacity: 0.8; stroke-linecap: square"/>
     </g>
     <g id="line2d_2">
      <defs>
       <path id="m705c685f7f" d="M 0 0 
L 0 3.5 
" style="stroke: #000000; stroke-width: 0.8"/>
      </defs>
      <g>
       <use xlink:href="#m705c685f7f" x="125.210553" y="501.3525" style="stroke: #000000; stroke-width: 0.8"/>
      </g>
     </g>
     <g id="text_1">
      <!-- 0 -->
      <g transform="translate(119.980866 521.49625) scale(0.2 -0.2)">
       <defs>
        <path id="AptosDisplay-30" d="M 1672 -56 
Q 1291 -56 1028 105 
Q 766 266 605 552 
Q 444 838 372 1216 
Q 300 1594 300 2031 
Q 300 2475 372 2856 
Q 444 3238 605 3525 
Q 766 3813 1028 3973 
Q 1291 4134 1672 4134 
Q 2053 4134 2317 3975 
Q 2581 3816 2742 3527 
Q 2903 3238 2975 2858 
Q 3047 2478 3047 2038 
Q 3047 1597 2975 1217 
Q 2903 838 2742 552 
Q 2581 266 2318 105 
Q 2056 -56 1672 -56 
z
M 1672 409 
Q 1916 409 2073 550 
Q 2231 691 2322 925 
Q 2413 1159 2448 1448 
Q 2484 1738 2484 2038 
Q 2484 2338 2448 2628 
Q 2413 2919 2322 3153 
Q 2231 3388 2073 3527 
Q 1916 3666 1669 3666 
Q 1428 3666 1268 3527 
Q 1109 3388 1020 3153 
Q 931 2919 893 2628 
Q 856 2338 856 2038 
Q 856 1741 893 1450 
Q 931 1159 1020 925 
Q 1109 691 1268 550 
Q 1428 409 1672 409 
z
" transform="scale(0.015625)"/>
       </defs>
       <use xlink:href="#AptosDisplay-30"/>
      </g>
     </g>
    </g>
    <g id="xtick_2">
     <g id="line2d_3">
      <path d="M 206.416633 501.3525 
L 206.416633 57.8325 
" clip-path="url(#p93d3268b93)" style="fill: none; stroke: #b0b0b0; stroke-opacity: 0.8; stroke-linecap: square"/>
     </g>
     <g id="line2d_4">
      <g>
       <use xlink:href="#m705c685f7f" x="206.416633" y="501.3525" style="stroke: #000000; stroke-width: 0.8"/>
      </g>
     </g>
     <g id="text_2">
      <!-- 25 -->
      <g transform="translate(195.957258 521.49625) scale(0.2 -0.2)">
       <defs>
        <path id="AptosDisplay-32" d="M 247 0 
L 247 413 
L 1725 1741 
Q 2100 2081 2269 2351 
Q 2438 2622 2438 2938 
Q 2438 3256 2263 3461 
Q 2088 3666 1691 3666 
Q 1247 3666 1055 3439 
Q 863 3213 863 2869 
L 341 2869 
Q 341 3250 491 3534 
Q 641 3819 941 3975 
Q 1241 4131 1691 4131 
Q 2103 4131 2390 3986 
Q 2678 3841 2828 3578 
Q 2978 3316 2978 2959 
Q 2978 2638 2853 2375 
Q 2728 2113 2517 1883 
Q 2306 1653 2044 1425 
L 959 463 
L 3097 463 
L 3097 0 
L 247 0 
z
" transform="scale(0.015625)"/>
        <path id="AptosDisplay-35" d="M 1669 -56 
Q 1278 -56 964 83 
Q 650 222 465 483 
Q 281 744 281 1113 
L 816 1113 
Q 816 778 1055 584 
Q 1294 391 1669 391 
Q 2069 391 2291 625 
Q 2513 859 2513 1319 
Q 2513 1772 2291 1989 
Q 2069 2206 1697 2206 
Q 1409 2206 1223 2123 
Q 1038 2041 916 1894 
L 444 1894 
L 622 4078 
L 2788 4078 
L 2788 3613 
L 1041 3613 
L 931 2322 
Q 1044 2453 1251 2550 
Q 1459 2647 1775 2647 
Q 2131 2647 2420 2506 
Q 2709 2366 2881 2072 
Q 3053 1778 3053 1319 
Q 3053 863 2875 558 
Q 2697 253 2384 98 
Q 2072 -56 1669 -56 
z
" transform="scale(0.015625)"/>
       </defs>
       <use xlink:href="#AptosDisplay-32"/>
       <use xlink:href="#AptosDisplay-35" x="52.294922"/>
      </g>
     </g>
    </g>
    <g id="xtick_3">
     <g id="line2d_5">
      <path d="M 287.622714 501.3525 
L 287.622714 57.8325 
" clip-path="url(#p93d3268b93)" style="fill: none; stroke: #b0b0b0; stroke-opacity: 0.8; stroke-linecap: square"/>
     </g>
     <g id="line2d_6">
      <g>
       <use xlink:href="#m705c685f7f" x="287.622714" y="501.3525" style="stroke: #000000; stroke-width: 0.8"/>
      </g>
     </g>
     <g id="text_3">
      <!-- 50 -->
      <g transform="translate(277.163339 521.49625) scale(0.2 -0.2)">
       <use xlink:href="#AptosDisplay-35"/>
       <use xlink:href="#AptosDisplay-30" x="52.294922"/>
      </g>
     </g>
    </g>
    <g id="xtick_4">
     <g id="line2d_7">
      <path d="M 368.828794 501.3525 
L 368.828794 57.8325 
" clip-path="url(#p93d3268b93)" style="fill: none; stroke: #b0b0b0; stroke-opacity: 0.8; stroke-linecap: square"/>
     </g>
     <g id="line2d_8">
      <g>
       <use xlink:href="#m705c685f7f" x="368.828794" y="501.3525" style="stroke: #000000; stroke-width: 0.8"/>
      </g>
     </g>
     <g id="text_4">
      <!-- 75 -->
      <g transform="translate(358.369419 521.49625) scale(0.2 -0.2)">
       <defs>
        <path id="AptosDisplay-37" d="M 766 0 
L 2609 3600 
L 194 3600 
L 194 4078 
L 3141 4078 
L 3141 3622 
L 1334 0 
L 766 0 
z
" transform="scale(0.015625)"/>
       </defs>
       <use xlink:href="#AptosDisplay-37"/>
       <use xlink:href="#AptosDisplay-35" x="52.294922"/>
      </g>
     </g>
    </g>
    <g id="xtick_5">
     <g id="line2d_9">
      <path d="M 450.034874 501.3525 
L 450.034874 57.8325 
" clip-path="url(#p93d3268b93)" style="fill: none; stroke: #b0b0b0; stroke-opacity: 0.8; stroke-linecap: square"/>
     </g>
     <g id="line2d_10">
      <g>
       <use xlink:href="#m705c685f7f" x="450.034874" y="501.3525" style="stroke: #000000; stroke-width: 0.8"/>
      </g>
     </g>
     <g id="text_5">
      <!-- 100 -->
      <g transform="translate(434.345811 521.49625) scale(0.2 -0.2)">
       <defs>
        <path id="AptosDisplay-31" d="M 1659 0 
L 1659 3425 
Q 1575 3309 1420 3201 
Q 1266 3094 1052 3009 
Q 838 2925 578 2888 
L 578 3381 
Q 834 3425 1057 3540 
Q 1281 3656 1453 3806 
Q 1625 3956 1719 4094 
L 2206 4094 
L 2206 0 
L 1659 0 
z
" transform="scale(0.015625)"/>
       </defs>
       <use xlink:href="#AptosDisplay-31"/>
       <use xlink:href="#AptosDisplay-30" x="52.294922"/>
       <use xlink:href="#AptosDisplay-30" x="104.589844"/>
      </g>
     </g>
    </g>
    <g id="xtick_6">
     <g id="line2d_11">
      <path d="M 531.240954 501.3525 
L 531.240954 57.8325 
" clip-path="url(#p93d3268b93)" style="fill: none; stroke: #b0b0b0; stroke-opacity: 0.8; stroke-linecap: square"/>
     </g>
     <g id="line2d_12">
      <g>
       <use xlink:href="#m705c685f7f" x="531.240954" y="501.3525" style="stroke: #000000; stroke-width: 0.8"/>
      </g>
     </g>
     <g id="text_6">
      <!-- 125 -->
      <g transform="translate(515.551891 521.49625) scale(0.2 -0.2)">
       <use xlink:href="#AptosDisplay-31"/>
       <use xlink:href="#AptosDisplay-32" x="52.294922"/>
       <use xlink:href="#AptosDisplay-35" x="104.589844"/>
      </g>
     </g>
    </g>
    <g id="xtick_7">
     <g id="line2d_13">
      <path d="M 612.447034 501.3525 
L 612.447034 57.8325 
" clip-path="url(#p93d3268b93)" style="fill: none; stroke: #b0b0b0; stroke-opacity: 0.8; stroke-linecap: square"/>
     </g>
     <g id="line2d_14">
      <g>
       <use xlink:href="#m705c685f7f" x="612.447034" y="501.3525" style="stroke: #000000; stroke-width: 0.8"/>
      </g>
     </g>
     <g id="text_7">
      <!-- 150 -->
      <g transform="translate(596.757971 521.49625) scale(0.2 -0.2)">
       <use xlink:href="#AptosDisplay-31"/>
       <use xlink:href="#AptosDisplay-35" x="52.294922"/>
       <use xlink:href="#AptosDisplay-30" x="104.589844"/>
      </g>
     </g>
    </g>
    <g id="xtick_8">
     <g id="line2d_15">
      <path d="M 693.653114 501.3525 
L 693.653114 57.8325 
" clip-path="url(#p93d3268b93)" style="fill: none; stroke: #b0b0b0; stroke-opacity: 0.8; stroke-linecap: square"/>
     </g>
     <g id="line2d_16">
      <g>
       <use xlink:href="#m705c685f7f" x="693.653114" y="501.3525" style="stroke: #000000; stroke-width: 0.8"/>
      </g>
     </g>
     <g id="text_8">
      <!-- 175 -->
      <g transform="translate(677.964051 521.49625) scale(0.2 -0.2)">
       <use xlink:href="#AptosDisplay-31"/>
       <use xlink:href="#AptosDisplay-37" x="52.294922"/>
       <use xlink:href="#AptosDisplay-35" x="104.589844"/>
      </g>
     </g>
    </g>
    <g id="xtick_9">
     <g id="line2d_17">
      <path d="M 108.969337 501.3525 
L 108.969337 57.8325 
" clip-path="url(#p93d3268b93)" style="fill: none; stroke-dasharray: 1.85,0.8; stroke-dashoffset: 0; stroke: #b0b0b0; stroke-opacity: 0.8; stroke-width: 0.5"/>
     </g>
     <g id="line2d_18">
      <defs>
       <path id="m8a1a093516" d="M 0 0 
L 0 2 
" style="stroke: #000000; stroke-width: 0.6"/>
      </defs>
      <g>
       <use xlink:href="#m8a1a093516" x="108.969337" y="501.3525" style="stroke: #000000; stroke-width: 0.6"/>
      </g>
     </g>
    </g>
    <g id="xtick_10">
     <g id="line2d_19">
      <path d="M 141.451769 501.3525 
L 141.451769 57.8325 
" clip-path="url(#p93d3268b93)" style="fill: none; stroke-dasharray: 1.85,0.8; stroke-dashoffset: 0; stroke: #b0b0b0; stroke-opacity: 0.8; stroke-width: 0.5"/>
     </g>
     <g id="line2d_20">
      <g>
       <use xlink:href="#m8a1a093516" x="141.451769" y="501.3525" style="stroke: #000000; stroke-width: 0.6"/>
      </g>
     </g>
    </g>
    <g id="xtick_11">
     <g id="line2d_21">
      <path d="M 157.692985 501.3525 
L 157.692985 57.8325 
" clip-path="url(#p93d3268b93)" style="fill: none; stroke-dasharray: 1.85,0.8; stroke-dashoffset: 0; stroke: #b0b0b0; stroke-opacity: 0.8; stroke-width: 0.5"/>
     </g>
     <g id="line2d_22">
      <g>
       <use xlink:href="#m8a1a093516" x="157.692985" y="501.3525" style="stroke: #000000; stroke-width: 0.6"/>
      </g>
     </g>
    </g>
    <g id="xtick_12">
     <g id="line2d_23">
      <path d="M 173.934201 501.3525 
L 173.934201 57.8325 
" clip-path="url(#p93d3268b93)" style="fill: none; stroke-dasharray: 1.85,0.8; stroke-dashoffset: 0; stroke: #b0b0b0; stroke-opacity: 0.8; stroke-width: 0.5"/>
     </g>
     <g id="line2d_24">
      <g>
       <use xlink:href="#m8a1a093516" x="173.934201" y="501.3525" style="stroke: #000000; stroke-width: 0.6"/>
      </g>
     </g>
    </g>
    <g id="xtick_13">
     <g id="line2d_25">
      <path d="M 190.175417 501.3525 
L 190.175417 57.8325 
" clip-path="url(#p93d3268b93)" style="fill: none; stroke-dasharray: 1.85,0.8; stroke-dashoffset: 0; stroke: #b0b0b0; stroke-opacity: 0.8; stroke-width: 0.5"/>
     </g>
     <g id="line2d_26">
      <g>
       <use xlink:href="#m8a1a093516" x="190.175417" y="501.3525" style="stroke: #000000; stroke-width: 0.6"/>
      </g>
     </g>
    </g>
    <g id="xtick_14">
     <g id="line2d_27">
      <path d="M 222.657849 501.3525 
L 222.657849 57.8325 
" clip-path="url(#p93d3268b93)" style="fill: none; stroke-dasharray: 1.85,0.8; stroke-dashoffset: 0; stroke: #b0b0b0; stroke-opacity: 0.8; stroke-width: 0.5"/>
     </g>
     <g id="line2d_28">
      <g>
       <use xlink:href="#m8a1a093516" x="222.657849" y="501.3525" style="stroke: #000000; stroke-width: 0.6"/>
      </g>
     </g>
    </g>
    <g id="xtick_15">
     <g id="line2d_29">
      <path d="M 238.899065 501.3525 
L 238.899065 57.8325 
" clip-path="url(#p93d3268b93)" style="fill: none; stroke-dasharray: 1.85,0.8; stroke-dashoffset: 0; stroke: #b0b0b0; stroke-opacity: 0.8; stroke-width: 0.5"/>
     </g>
     <g id="line2d_30">
      <g>
       <use xlink:href="#m8a1a093516" x="238.899065" y="501.3525" style="stroke: #000000; stroke-width: 0.6"/>
      </g>
     </g>
    </g>
    <g id="xtick_16">
     <g id="line2d_31">
      <path d="M 255.140281 501.3525 
L 255.140281 57.8325 
" clip-path="url(#p93d3268b93)" style="fill: none; stroke-dasharray: 1.85,0.8; stroke-dashoffset: 0; stroke: #b0b0b0; stroke-opacity: 0.8; stroke-width: 0.5"/>
     </g>
     <g id="line2d_32">
      <g>
       <use xlink:href="#m8a1a093516" x="255.140281" y="501.3525" style="stroke: #000000; stroke-width: 0.6"/>
      </g>
     </g>
    </g>
    <g id="xtick_17">
     <g id="line2d_33">
      <path d="M 271.381498 501.3525 
L 271.381498 57.8325 
" clip-path="url(#p93d3268b93)" style="fill: none; stroke-dasharray: 1.85,0.8; stroke-dashoffset: 0; stroke: #b0b0b0; stroke-opacity: 0.8; stroke-width: 0.5"/>
     </g>
     <g id="line2d_34">
      <g>
       <use xlink:href="#m8a1a093516" x="271.381498" y="501.3525" style="stroke: #000000; stroke-width: 0.6"/>
      </g>
     </g>
    </g>
    <g id="xtick_18">
     <g id="line2d_35">
      <path d="M 303.86393 501.3525 
L 303.86393 57.8325 
" clip-path="url(#p93d3268b93)" style="fill: none; stroke-dasharray: 1.85,0.8; stroke-dashoffset: 0; stroke: #b0b0b0; stroke-opacity: 0.8; stroke-width: 0.5"/>
     </g>
     <g id="line2d_36">
      <g>
       <use xlink:href="#m8a1a093516" x="303.86393" y="501.3525" style="stroke: #000000; stroke-width: 0.6"/>
      </g>
     </g>
    </g>
    <g id="xtick_19">
     <g id="line2d_37">
      <path d="M 320.105146 501.3525 
L 320.105146 57.8325 
" clip-path="url(#p93d3268b93)" style="fill: none; stroke-dasharray: 1.85,0.8; stroke-dashoffset: 0; stroke: #b0b0b0; stroke-opacity: 0.8; stroke-width: 0.5"/>
     </g>
     <g id="line2d_38">
      <g>
       <use xlink:href="#m8a1a093516" x="320.105146" y="501.3525" style="stroke: #000000; stroke-width: 0.6"/>
      </g>
     </g>
    </g>
    <g id="xtick_20">
     <g id="line2d_39">
      <path d="M 336.346362 501.3525 
L 336.346362 57.8325 
" clip-path="url(#p93d3268b93)" style="fill: none; stroke-dasharray: 1.85,0.8; stroke-dashoffset: 0; stroke: #b0b0b0; stroke-opacity: 0.8; stroke-width: 0.5"/>
     </g>
     <g id="line2d_40">
      <g>
       <use xlink:href="#m8a1a093516" x="336.346362" y="501.3525" style="stroke: #000000; stroke-width: 0.6"/>
      </g>
     </g>
    </g>
    <g id="xtick_21">
     <g id="line2d_41">
      <path d="M 352.587578 501.3525 
L 352.587578 57.8325 
" clip-path="url(#p93d3268b93)" style="fill: none; stroke-dasharray: 1.85,0.8; stroke-dashoffset: 0; stroke: #b0b0b0; stroke-opacity: 0.8; stroke-width: 0.5"/>
     </g>
     <g id="line2d_42">
      <g>
       <use xlink:href="#m8a1a093516" x="352.587578" y="501.3525" style="stroke: #000000; stroke-width: 0.6"/>
      </g>
     </g>
    </g>
    <g id="xtick_22">
     <g id="line2d_43">
      <path d="M 385.07001 501.3525 
L 385.07001 57.8325 
" clip-path="url(#p93d3268b93)" style="fill: none; stroke-dasharray: 1.85,0.8; stroke-dashoffset: 0; stroke: #b0b0b0; stroke-opacity: 0.8; stroke-width: 0.5"/>
     </g>
     <g id="line2d_44">
      <g>
       <use xlink:href="#m8a1a093516" x="385.07001" y="501.3525" style="stroke: #000000; stroke-width: 0.6"/>
      </g>
     </g>
    </g>
    <g id="xtick_23">
     <g id="line2d_45">
      <path d="M 401.311226 501.3525 
L 401.311226 57.8325 
" clip-path="url(#p93d3268b93)" style="fill: none; stroke-dasharray: 1.85,0.8; stroke-dashoffset: 0; stroke: #b0b0b0; stroke-opacity: 0.8; stroke-width: 0.5"/>
     </g>
     <g id="line2d_46">
      <g>
       <use xlink:href="#m8a1a093516" x="401.311226" y="501.3525" style="stroke: #000000; stroke-width: 0.6"/>
      </g>
     </g>
    </g>
    <g id="xtick_24">
     <g id="line2d_47">
      <path d="M 417.552442 501.3525 
L 417.552442 57.8325 
" clip-path="url(#p93d3268b93)" style="fill: none; stroke-dasharray: 1.85,0.8; stroke-dashoffset: 0; stroke: #b0b0b0; stroke-opacity: 0.8; stroke-width: 0.5"/>
     </g>
     <g id="line2d_48">
      <g>
       <use xlink:href="#m8a1a093516" x="417.552442" y="501.3525" style="stroke: #000000; stroke-width: 0.6"/>
      </g>
     </g>
    </g>
    <g id="xtick_25">
     <g id="line2d_49">
      <path d="M 433.793658 501.3525 
L 433.793658 57.8325 
" clip-path="url(#p93d3268b93)" style="fill: none; stroke-dasharray: 1.85,0.8; stroke-dashoffset: 0; stroke: #b0b0b0; stroke-opacity: 0.8; stroke-width: 0.5"/>
     </g>
     <g id="line2d_50">
      <g>
       <use xlink:href="#m8a1a093516" x="433.793658" y="501.3525" style="stroke: #000000; stroke-width: 0.6"/>
      </g>
     </g>
    </g>
    <g id="xtick_26">
     <g id="line2d_51">
      <path d="M 466.27609 501.3525 
L 466.27609 57.8325 
" clip-path="url(#p93d3268b93)" style="fill: none; stroke-dasharray: 1.85,0.8; stroke-dashoffset: 0; stroke: #b0b0b0; stroke-opacity: 0.8; stroke-width: 0.5"/>
     </g>
     <g id="line2d_52">
      <g>
       <use xlink:href="#m8a1a093516" x="466.27609" y="501.3525" style="stroke: #000000; stroke-width: 0.6"/>
      </g>
     </g>
    </g>
    <g id="xtick_27">
     <g id="line2d_53">
      <path d="M 482.517306 501.3525 
L 482.517306 57.8325 
" clip-path="url(#p93d3268b93)" style="fill: none; stroke-dasharray: 1.85,0.8; stroke-dashoffset: 0; stroke: #b0b0b0; stroke-opacity: 0.8; stroke-width: 0.5"/>
     </g>
     <g id="line2d_54">
      <g>
       <use xlink:href="#m8a1a093516" x="482.517306" y="501.3525" style="stroke: #000000; stroke-width: 0.6"/>
      </g>
     </g>
    </g>
    <g id="xtick_28">
     <g id="line2d_55">
      <path d="M 498.758522 501.3525 
L 498.758522 57.8325 
" clip-path="url(#p93d3268b93)" style="fill: none; stroke-dasharray: 1.85,0.8; stroke-dashoffset: 0; stroke: #b0b0b0; stroke-opacity: 0.8; stroke-width: 0.5"/>
     </g>
     <g id="line2d_56">
      <g>
       <use xlink:href="#m8a1a093516" x="498.758522" y="501.3525" style="stroke: #000000; stroke-width: 0.6"/>
      </g>
     </g>
    </g>
    <g id="xtick_29">
     <g id="line2d_57">
      <path d="M 514.999738 501.3525 
L 514.999738 57.8325 
" clip-path="url(#p93d3268b93)" style="fill: none; stroke-dasharray: 1.85,0.8; stroke-dashoffset: 0; stroke: #b0b0b0; stroke-opacity: 0.8; stroke-width: 0.5"/>
     </g>
     <g id="line2d_58">
      <g>
       <use xlink:href="#m8a1a093516" x="514.999738" y="501.3525" style="stroke: #000000; stroke-width: 0.6"/>
      </g>
     </g>
    </g>
    <g id="xtick_30">
     <g id="line2d_59">
      <path d="M 547.48217 501.3525 
L 547.48217 57.8325 
" clip-path="url(#p93d3268b93)" style="fill: none; stroke-dasharray: 1.85,0.8; stroke-dashoffset: 0; stroke: #b0b0b0; stroke-opacity: 0.8; stroke-width: 0.5"/>
     </g>
     <g id="line2d_60">
      <g>
       <use xlink:href="#m8a1a093516" x="547.48217" y="501.3525" style="stroke: #000000; stroke-width: 0.6"/>
      </g>
     </g>
    </g>
    <g id="xtick_31">
     <g id="line2d_61">
      <path d="M 563.723386 501.3525 
L 563.723386 57.8325 
" clip-path="url(#p93d3268b93)" style="fill: none; stroke-dasharray: 1.85,0.8; stroke-dashoffset: 0; stroke: #b0b0b0; stroke-opacity: 0.8; stroke-width: 0.5"/>
     </g>
     <g id="line2d_62">
      <g>
       <use xlink:href="#m8a1a093516" x="563.723386" y="501.3525" style="stroke: #000000; stroke-width: 0.6"/>
      </g>
     </g>
    </g>
    <g id="xtick_32">
     <g id="line2d_63">
      <path d="M 579.964602 501.3525 
L 579.964602 57.8325 
" clip-path="url(#p93d3268b93)" style="fill: none; stroke-dasharray: 1.85,0.8; stroke-dashoffset: 0; stroke: #b0b0b0; stroke-opacity: 0.8; stroke-width: 0.5"/>
     </g>
     <g id="line2d_64">
      <g>
       <use xlink:href="#m8a1a093516" x="579.964602" y="501.3525" style="stroke: #000000; stroke-width: 0.6"/>
      </g>
     </g>
    </g>
    <g id="xtick_33">
     <g id="line2d_65">
      <path d="M 596.205818 501.3525 
L 596.205818 57.8325 
" clip-path="url(#p93d3268b93)" style="fill: none; stroke-dasharray: 1.85,0.8; stroke-dashoffset: 0; stroke: #b0b0b0; stroke-opacity: 0.8; stroke-width: 0.5"/>
     </g>
     <g id="line2d_66">
      <g>
       <use xlink:href="#m8a1a093516" x="596.205818" y="501.3525" style="stroke: #000000; stroke-width: 0.6"/>
      </g>
     </g>
    </g>
    <g id="xtick_34">
     <g id="line2d_67">
      <path d="M 628.68825 501.3525 
L 628.68825 57.8325 
" clip-path="url(#p93d3268b93)" style="fill: none; stroke-dasharray: 1.85,0.8; stroke-dashoffset: 0; stroke: #b0b0b0; stroke-opacity: 0.8; stroke-width: 0.5"/>
     </g>
     <g id="line2d_68">
      <g>
       <use xlink:href="#m8a1a093516" x="628.68825" y="501.3525" style="stroke: #000000; stroke-width: 0.6"/>
      </g>
     </g>
    </g>
    <g id="xtick_35">
     <g id="line2d_69">
      <path d="M 644.929466 501.3525 
L 644.929466 57.8325 
" clip-path="url(#p93d3268b93)" style="fill: none; stroke-dasharray: 1.85,0.8; stroke-dashoffset: 0; stroke: #b0b0b0; stroke-opacity: 0.8; stroke-width: 0.5"/>
     </g>
     <g id="line2d_70">
      <g>
       <use xlink:href="#m8a1a093516" x="644.929466" y="501.3525" style="stroke: #000000; stroke-width: 0.6"/>
      </g>
     </g>
    </g>
    <g id="xtick_36">
     <g id="line2d_71">
      <path d="M 661.170682 501.3525 
L 661.170682 57.8325 
" clip-path="url(#p93d3268b93)" style="fill: none; stroke-dasharray: 1.85,0.8; stroke-dashoffset: 0; stroke: #b0b0b0; stroke-opacity: 0.8; stroke-width: 0.5"/>
     </g>
     <g id="line2d_72">
      <g>
       <use xlink:href="#m8a1a093516" x="661.170682" y="501.3525" style="stroke: #000000; stroke-width: 0.6"/>
      </g>
     </g>
    </g>
    <g id="xtick_37">
     <g id="line2d_73">
      <path d="M 677.411898 501.3525 
L 677.411898 57.8325 
" clip-path="url(#p93d3268b93)" style="fill: none; stroke-dasharray: 1.85,0.8; stroke-dashoffset: 0; stroke: #b0b0b0; stroke-opacity: 0.8; stroke-width: 0.5"/>
     </g>
     <g id="line2d_74">
      <g>
       <use xlink:href="#m8a1a093516" x="677.411898" y="501.3525" style="stroke: #000000; stroke-width: 0.6"/>
      </g>
     </g>
    </g>
    <g id="xtick_38">
     <g id="line2d_75">
      <path d="M 709.89433 501.3525 
L 709.89433 57.8325 
" clip-path="url(#p93d3268b93)" style="fill: none; stroke-dasharray: 1.85,0.8; stroke-dashoffset: 0; stroke: #b0b0b0; stroke-opacity: 0.8; stroke-width: 0.5"/>
     </g>
     <g id="line2d_76">
      <g>
       <use xlink:href="#m8a1a093516" x="709.89433" y="501.3525" style="stroke: #000000; stroke-width: 0.6"/>
      </g>
     </g>
    </g>
    <g id="xtick_39">
     <g id="line2d_77">
      <path d="M 726.135546 501.3525 
L 726.135546 57.8325 
" clip-path="url(#p93d3268b93)" style="fill: none; stroke-dasharray: 1.85,0.8; stroke-dashoffset: 0; stroke: #b0b0b0; stroke-opacity: 0.8; stroke-width: 0.5"/>
     </g>
     <g id="line2d_78">
      <g>
       <use xlink:href="#m8a1a093516" x="726.135546" y="501.3525" style="stroke: #000000; stroke-width: 0.6"/>
      </g>
     </g>
    </g>
    <g id="xtick_40">
     <g id="line2d_79">
      <path d="M 742.376762 501.3525 
L 742.376762 57.8325 
" clip-path="url(#p93d3268b93)" style="fill: none; stroke-dasharray: 1.85,0.8; stroke-dashoffset: 0; stroke: #b0b0b0; stroke-opacity: 0.8; stroke-width: 0.5"/>
     </g>
     <g id="line2d_80">
      <g>
       <use xlink:href="#m8a1a093516" x="742.376762" y="501.3525" style="stroke: #000000; stroke-width: 0.6"/>
      </g>
     </g>
    </g>
    <g id="xtick_41">
     <g id="line2d_81">
      <path d="M 758.617978 501.3525 
L 758.617978 57.8325 
" clip-path="url(#p93d3268b93)" style="fill: none; stroke-dasharray: 1.85,0.8; stroke-dashoffset: 0; stroke: #b0b0b0; stroke-opacity: 0.8; stroke-width: 0.5"/>
     </g>
     <g id="line2d_82">
      <g>
       <use xlink:href="#m8a1a093516" x="758.617978" y="501.3525" style="stroke: #000000; stroke-width: 0.6"/>
      </g>
     </g>
    </g>
    <g id="text_9">
     <!-- Time (S) -->
     <g transform="translate(396.834375 542.305625) scale(0.2 -0.2)">
      <defs>
       <path id="AptosDisplay-54" d="M 1244 0 
L 1244 3734 
L 50 3734 
L 50 4206 
L 2997 4206 
L 2997 3734 
L 1806 3734 
L 1806 0 
L 1244 0 
z
" transform="scale(0.015625)"/>
       <path id="AptosDisplay-69" d="M 413 0 
L 413 3044 
L 934 3044 
L 934 0 
L 413 0 
z
M 675 3616 
Q 525 3616 437 3702 
Q 350 3788 350 3919 
Q 350 4050 437 4136 
Q 525 4222 675 4222 
Q 822 4222 912 4136 
Q 1003 4050 1003 3919 
Q 1003 3788 912 3702 
Q 822 3616 675 3616 
z
" transform="scale(0.015625)"/>
       <path id="AptosDisplay-6d" d="M 413 0 
L 413 3044 
L 919 3044 
L 931 2575 
Q 1063 2756 1303 2914 
Q 1544 3072 1903 3072 
Q 2403 3072 2618 2778 
Q 2834 2484 2834 1963 
L 2834 0 
L 2316 0 
L 2316 1891 
Q 2316 2106 2275 2275 
Q 2234 2444 2120 2539 
Q 2006 2634 1788 2634 
Q 1488 2634 1277 2482 
Q 1066 2331 934 2156 
L 934 0 
L 413 0 
z
M 4206 0 
L 4206 1891 
Q 4206 2106 4164 2275 
Q 4122 2444 4009 2539 
Q 3897 2634 3681 2634 
Q 3381 2634 3165 2484 
Q 2950 2334 2822 2159 
L 2744 2544 
Q 2916 2741 3175 2906 
Q 3434 3072 3800 3072 
Q 4291 3072 4509 2778 
Q 4728 2484 4728 1963 
L 4728 0 
L 4206 0 
z
" transform="scale(0.015625)"/>
       <path id="AptosDisplay-65" d="M 1663 -56 
Q 1188 -56 878 151 
Q 569 359 417 717 
Q 266 1075 266 1522 
Q 266 1988 412 2342 
Q 559 2697 857 2897 
Q 1156 3097 1606 3097 
Q 2209 3097 2550 2722 
Q 2891 2347 2891 1644 
Q 2891 1597 2889 1533 
Q 2888 1469 2881 1441 
L 791 1441 
Q 794 1144 881 895 
Q 969 647 1161 497 
Q 1353 347 1663 347 
Q 1997 347 2183 511 
Q 2369 675 2378 984 
L 2894 984 
Q 2884 663 2732 430 
Q 2581 197 2309 70 
Q 2038 -56 1663 -56 
z
M 794 1822 
L 2375 1822 
Q 2366 2247 2166 2472 
Q 1966 2697 1606 2697 
Q 1241 2697 1036 2473 
Q 831 2250 794 1822 
z
" transform="scale(0.015625)"/>
       <path id="AptosDisplay-20" transform="scale(0.015625)"/>
       <path id="AptosDisplay-28" d="M 1219 -1116 
Q 969 -678 787 -267 
Q 606 144 511 581 
Q 416 1019 416 1528 
Q 416 2028 509 2486 
Q 603 2944 783 3378 
Q 963 3813 1219 4231 
L 1647 4231 
Q 1278 3600 1101 2886 
Q 925 2172 925 1428 
Q 925 766 1125 103 
Q 1325 -559 1647 -1116 
L 1219 -1116 
z
" transform="scale(0.015625)"/>
       <path id="AptosDisplay-53" d="M 1778 -56 
Q 1328 -56 962 81 
Q 597 219 384 512 
Q 172 806 172 1275 
L 734 1275 
Q 738 941 883 750 
Q 1028 559 1267 481 
Q 1506 403 1794 403 
Q 2063 403 2283 483 
Q 2503 563 2634 723 
Q 2766 884 2766 1134 
Q 2766 1356 2662 1497 
Q 2559 1638 2321 1742 
Q 2084 1847 1678 1950 
Q 1203 2075 897 2223 
Q 591 2372 442 2594 
Q 294 2816 294 3156 
Q 294 3516 462 3761 
Q 631 4006 945 4134 
Q 1259 4263 1697 4263 
Q 2103 4263 2440 4131 
Q 2778 4000 2979 3737 
Q 3181 3475 3181 3084 
L 2616 3084 
Q 2622 3441 2356 3623 
Q 2091 3806 1700 3806 
Q 1300 3806 1073 3645 
Q 847 3484 847 3175 
Q 847 2991 944 2867 
Q 1041 2744 1280 2644 
Q 1519 2544 1941 2434 
Q 2428 2303 2731 2153 
Q 3034 2003 3178 1768 
Q 3322 1534 3322 1153 
Q 3322 747 3117 480 
Q 2913 213 2564 78 
Q 2216 -56 1778 -56 
z
" transform="scale(0.015625)"/>
       <path id="AptosDisplay-29" d="M 234 -1116 
Q 609 -481 786 233 
Q 963 947 963 1694 
Q 963 2356 759 3015 
Q 556 3675 234 4231 
L 663 4231 
Q 919 3800 1098 3389 
Q 1278 2978 1373 2540 
Q 1469 2103 1469 1594 
Q 1469 1094 1375 634 
Q 1281 175 1100 -259 
Q 919 -694 663 -1116 
L 234 -1116 
z
" transform="scale(0.015625)"/>
      </defs>
      <use xlink:href="#AptosDisplay-54"/>
      <use xlink:href="#AptosDisplay-69" x="47.705078"/>
      <use xlink:href="#AptosDisplay-6d" x="68.75"/>
      <use xlink:href="#AptosDisplay-65" x="148.730469"/>
      <use xlink:href="#AptosDisplay-20" x="198.144531"/>
      <use xlink:href="#AptosDisplay-28" x="217.431641"/>
      <use xlink:href="#AptosDisplay-53" x="246.875"/>
      <use xlink:href="#AptosDisplay-29" x="301.464844"/>
     </g>
    </g>
   </g>
   <g id="matplotlib.axis_2">
    <g id="ytick_1">
     <g id="line2d_83">
      <path d="M 95.125 464.978023 
L 764.725 464.978023 
" clip-path="url(#p93d3268b93)" style="fill: none; stroke: #b0b0b0; stroke-opacity: 0.8; stroke-linecap: square"/>
     </g>
     <g id="line2d_84">
      <defs>
       <path id="m70d2596f45" d="M 0 0 
L -3.5 0 
" style="stroke: #000000; stroke-width: 0.8"/>
      </defs>
      <g>
       <use xlink:href="#m70d2596f45" x="95.125" y="464.978023" style="stroke: #000000; stroke-width: 0.8"/>
      </g>
     </g>
     <g id="text_10">
      <!-- 50 -->
      <g transform="translate(67.20625 471.549898) scale(0.2 -0.2)">
       <use xlink:href="#AptosDisplay-35"/>
       <use xlink:href="#AptosDisplay-30" x="52.294922"/>
      </g>
     </g>
    </g>
    <g id="ytick_2">
     <g id="line2d_85">
      <path d="M 95.125 389.310462 
L 764.725 389.310462 
" clip-path="url(#p93d3268b93)" style="fill: none; stroke: #b0b0b0; stroke-opacity: 0.8; stroke-linecap: square"/>
     </g>
     <g id="line2d_86">
      <g>
       <use xlink:href="#m70d2596f45" x="95.125" y="389.310462" style="stroke: #000000; stroke-width: 0.8"/>
      </g>
     </g>
     <g id="text_11">
      <!-- 100 -->
      <g transform="translate(56.746875 395.882337) scale(0.2 -0.2)">
       <use xlink:href="#AptosDisplay-31"/>
       <use xlink:href="#AptosDisplay-30" x="52.294922"/>
       <use xlink:href="#AptosDisplay-30" x="104.589844"/>
      </g>
     </g>
    </g>
    <g id="ytick_3">
     <g id="line2d_87">
      <path d="M 95.125 313.642902 
L 764.725 313.642902 
" clip-path="url(#p93d3268b93)" style="fill: none; stroke: #b0b0b0; stroke-opacity: 0.8; stroke-linecap: square"/>
     </g>
     <g id="line2d_88">
      <g>
       <use xlink:href="#m70d2596f45" x="95.125" y="313.642902" style="stroke: #000000; stroke-width: 0.8"/>
      </g>
     </g>
     <g id="text_12">
      <!-- 150 -->
      <g transform="translate(56.746875 320.214777) scale(0.2 -0.2)">
       <use xlink:href="#AptosDisplay-31"/>
       <use xlink:href="#AptosDisplay-35" x="52.294922"/>
       <use xlink:href="#AptosDisplay-30" x="104.589844"/>
      </g>
     </g>
    </g>
    <g id="ytick_4">
     <g id="line2d_89">
      <path d="M 95.125 237.975342 
L 764.725 237.975342 
" clip-path="url(#p93d3268b93)" style="fill: none; stroke: #b0b0b0; stroke-opacity: 0.8; stroke-linecap: square"/>
     </g>
     <g id="line2d_90">
      <g>
       <use xlink:href="#m70d2596f45" x="95.125" y="237.975342" style="stroke: #000000; stroke-width: 0.8"/>
      </g>
     </g>
     <g id="text_13">
      <!-- 200 -->
      <g transform="translate(56.746875 244.547217) scale(0.2 -0.2)">
       <use xlink:href="#AptosDisplay-32"/>
       <use xlink:href="#AptosDisplay-30" x="52.294922"/>
       <use xlink:href="#AptosDisplay-30" x="104.589844"/>
      </g>
     </g>
    </g>
    <g id="ytick_5">
     <g id="line2d_91">
      <path d="M 95.125 162.307782 
L 764.725 162.307782 
" clip-path="url(#p93d3268b93)" style="fill: none; stroke: #b0b0b0; stroke-opacity: 0.8; stroke-linecap: square"/>
     </g>
     <g id="line2d_92">
      <g>
       <use xlink:href="#m70d2596f45" x="95.125" y="162.307782" style="stroke: #000000; stroke-width: 0.8"/>
      </g>
     </g>
     <g id="text_14">
      <!-- 250 -->
      <g transform="translate(56.746875 168.879657) scale(0.2 -0.2)">
       <use xlink:href="#AptosDisplay-32"/>
       <use xlink:href="#AptosDisplay-35" x="52.294922"/>
       <use xlink:href="#AptosDisplay-30" x="104.589844"/>
      </g>
     </g>
    </g>
    <g id="ytick_6">
     <g id="line2d_93">
      <path d="M 95.125 86.640221 
L 764.725 86.640221 
" clip-path="url(#p93d3268b93)" style="fill: none; stroke: #b0b0b0; stroke-opacity: 0.8; stroke-linecap: square"/>
     </g>
     <g id="line2d_94">
      <g>
       <use xlink:href="#m70d2596f45" x="95.125" y="86.640221" style="stroke: #000000; stroke-width: 0.8"/>
      </g>
     </g>
     <g id="text_15">
      <!-- 300 -->
      <g transform="translate(56.746875 93.212096) scale(0.2 -0.2)">
       <defs>
        <path id="AptosDisplay-33" d="M 1700 -56 
Q 1047 -56 655 275 
Q 263 606 263 1225 
L 781 1225 
Q 781 844 1023 617 
Q 1266 391 1697 391 
Q 2094 391 2322 581 
Q 2550 772 2550 1172 
Q 2550 1556 2297 1737 
Q 2044 1919 1609 1919 
L 1366 1919 
L 1366 2363 
L 1622 2363 
Q 2013 2363 2222 2555 
Q 2431 2747 2431 3066 
Q 2431 3372 2226 3526 
Q 2022 3681 1684 3681 
Q 1306 3681 1095 3481 
Q 884 3281 891 2956 
L 372 2956 
Q 372 3319 536 3583 
Q 700 3847 995 3990 
Q 1291 4134 1681 4134 
Q 2031 4134 2318 4017 
Q 2606 3900 2778 3670 
Q 2950 3441 2950 3097 
Q 2950 2738 2745 2498 
Q 2541 2259 2206 2166 
Q 2591 2097 2841 1836 
Q 3091 1575 3091 1150 
Q 3091 763 2916 494 
Q 2741 225 2428 84 
Q 2116 -56 1700 -56 
z
" transform="scale(0.015625)"/>
       </defs>
       <use xlink:href="#AptosDisplay-33"/>
       <use xlink:href="#AptosDisplay-30" x="52.294922"/>
       <use xlink:href="#AptosDisplay-30" x="104.589844"/>
      </g>
     </g>
    </g>
    <g id="ytick_7">
     <g id="line2d_95">
      <path d="M 95.125 495.245047 
L 764.725 495.245047 
" clip-path="url(#p93d3268b93)" style="fill: none; stroke-dasharray: 1.85,0.8; stroke-dashoffset: 0; stroke: #b0b0b0; stroke-opacity: 0.8; stroke-width: 0.5"/>
     </g>
     <g id="line2d_96">
      <defs>
       <path id="m50e3f859d3" d="M 0 0 
L -2 0 
" style="stroke: #000000; stroke-width: 0.6"/>
      </defs>
      <g>
       <use xlink:href="#m50e3f859d3" x="95.125" y="495.245047" style="stroke: #000000; stroke-width: 0.6"/>
      </g>
     </g>
    </g>
    <g id="ytick_8">
     <g id="line2d_97">
      <path d="M 95.125 480.111535 
L 764.725 480.111535 
" clip-path="url(#p93d3268b93)" style="fill: none; stroke-dasharray: 1.85,0.8; stroke-dashoffset: 0; stroke: #b0b0b0; stroke-opacity: 0.8; stroke-width: 0.5"/>
     </g>
     <g id="line2d_98">
      <g>
       <use xlink:href="#m50e3f859d3" x="95.125" y="480.111535" style="stroke: #000000; stroke-width: 0.6"/>
      </g>
     </g>
    </g>
    <g id="ytick_9">
     <g id="line2d_99">
      <path d="M 95.125 449.844511 
L 764.725 449.844511 
" clip-path="url(#p93d3268b93)" style="fill: none; stroke-dasharray: 1.85,0.8; stroke-dashoffset: 0; stroke: #b0b0b0; stroke-opacity: 0.8; stroke-width: 0.5"/>
     </g>
     <g id="line2d_100">
      <g>
       <use xlink:href="#m50e3f859d3" x="95.125" y="449.844511" style="stroke: #000000; stroke-width: 0.6"/>
      </g>
     </g>
    </g>
    <g id="ytick_10">
     <g id="line2d_101">
      <path d="M 95.125 434.710999 
L 764.725 434.710999 
" clip-path="url(#p93d3268b93)" style="fill: none; stroke-dasharray: 1.85,0.8; stroke-dashoffset: 0; stroke: #b0b0b0; stroke-opacity: 0.8; stroke-width: 0.5"/>
     </g>
     <g id="line2d_102">
      <g>
       <use xlink:href="#m50e3f859d3" x="95.125" y="434.710999" style="stroke: #000000; stroke-width: 0.6"/>
      </g>
     </g>
    </g>
    <g id="ytick_11">
     <g id="line2d_103">
      <path d="M 95.125 419.577487 
L 764.725 419.577487 
" clip-path="url(#p93d3268b93)" style="fill: none; stroke-dasharray: 1.85,0.8; stroke-dashoffset: 0; stroke: #b0b0b0; stroke-opacity: 0.8; stroke-width: 0.5"/>
     </g>
     <g id="line2d_104">
      <g>
       <use xlink:href="#m50e3f859d3" x="95.125" y="419.577487" style="stroke: #000000; stroke-width: 0.6"/>
      </g>
     </g>
    </g>
    <g id="ytick_12">
     <g id="line2d_105">
      <path d="M 95.125 404.443975 
L 764.725 404.443975 
" clip-path="url(#p93d3268b93)" style="fill: none; stroke-dasharray: 1.85,0.8; stroke-dashoffset: 0; stroke: #b0b0b0; stroke-opacity: 0.8; stroke-width: 0.5"/>
     </g>
     <g id="line2d_106">
      <g>
       <use xlink:href="#m50e3f859d3" x="95.125" y="404.443975" style="stroke: #000000; stroke-width: 0.6"/>
      </g>
     </g>
    </g>
    <g id="ytick_13">
     <g id="line2d_107">
      <path d="M 95.125 374.17695 
L 764.725 374.17695 
" clip-path="url(#p93d3268b93)" style="fill: none; stroke-dasharray: 1.85,0.8; stroke-dashoffset: 0; stroke: #b0b0b0; stroke-opacity: 0.8; stroke-width: 0.5"/>
     </g>
     <g id="line2d_108">
      <g>
       <use xlink:href="#m50e3f859d3" x="95.125" y="374.17695" style="stroke: #000000; stroke-width: 0.6"/>
      </g>
     </g>
    </g>
    <g id="ytick_14">
     <g id="line2d_109">
      <path d="M 95.125 359.043438 
L 764.725 359.043438 
" clip-path="url(#p93d3268b93)" style="fill: none; stroke-dasharray: 1.85,0.8; stroke-dashoffset: 0; stroke: #b0b0b0; stroke-opacity: 0.8; stroke-width: 0.5"/>
     </g>
     <g id="line2d_110">
      <g>
       <use xlink:href="#m50e3f859d3" x="95.125" y="359.043438" style="stroke: #000000; stroke-width: 0.6"/>
      </g>
     </g>
    </g>
    <g id="ytick_15">
     <g id="line2d_111">
      <path d="M 95.125 343.909926 
L 764.725 343.909926 
" clip-path="url(#p93d3268b93)" style="fill: none; stroke-dasharray: 1.85,0.8; stroke-dashoffset: 0; stroke: #b0b0b0; stroke-opacity: 0.8; stroke-width: 0.5"/>
     </g>
     <g id="line2d_112">
      <g>
       <use xlink:href="#m50e3f859d3" x="95.125" y="343.909926" style="stroke: #000000; stroke-width: 0.6"/>
      </g>
     </g>
    </g>
    <g id="ytick_16">
     <g id="line2d_113">
      <path d="M 95.125 328.776414 
L 764.725 328.776414 
" clip-path="url(#p93d3268b93)" style="fill: none; stroke-dasharray: 1.85,0.8; stroke-dashoffset: 0; stroke: #b0b0b0; stroke-opacity: 0.8; stroke-width: 0.5"/>
     </g>
     <g id="line2d_114">
      <g>
       <use xlink:href="#m50e3f859d3" x="95.125" y="328.776414" style="stroke: #000000; stroke-width: 0.6"/>
      </g>
     </g>
    </g>
    <g id="ytick_17">
     <g id="line2d_115">
      <path d="M 95.125 298.50939 
L 764.725 298.50939 
" clip-path="url(#p93d3268b93)" style="fill: none; stroke-dasharray: 1.85,0.8; stroke-dashoffset: 0; stroke: #b0b0b0; stroke-opacity: 0.8; stroke-width: 0.5"/>
     </g>
     <g id="line2d_116">
      <g>
       <use xlink:href="#m50e3f859d3" x="95.125" y="298.50939" style="stroke: #000000; stroke-width: 0.6"/>
      </g>
     </g>
    </g>
    <g id="ytick_18">
     <g id="line2d_117">
      <path d="M 95.125 283.375878 
L 764.725 283.375878 
" clip-path="url(#p93d3268b93)" style="fill: none; stroke-dasharray: 1.85,0.8; stroke-dashoffset: 0; stroke: #b0b0b0; stroke-opacity: 0.8; stroke-width: 0.5"/>
     </g>
     <g id="line2d_118">
      <g>
       <use xlink:href="#m50e3f859d3" x="95.125" y="283.375878" style="stroke: #000000; stroke-width: 0.6"/>
      </g>
     </g>
    </g>
    <g id="ytick_19">
     <g id="line2d_119">
      <path d="M 95.125 268.242366 
L 764.725 268.242366 
" clip-path="url(#p93d3268b93)" style="fill: none; stroke-dasharray: 1.85,0.8; stroke-dashoffset: 0; stroke: #b0b0b0; stroke-opacity: 0.8; stroke-width: 0.5"/>
     </g>
     <g id="line2d_120">
      <g>
       <use xlink:href="#m50e3f859d3" x="95.125" y="268.242366" style="stroke: #000000; stroke-width: 0.6"/>
      </g>
     </g>
    </g>
    <g id="ytick_20">
     <g id="line2d_121">
      <path d="M 95.125 253.108854 
L 764.725 253.108854 
" clip-path="url(#p93d3268b93)" style="fill: none; stroke-dasharray: 1.85,0.8; stroke-dashoffset: 0; stroke: #b0b0b0; stroke-opacity: 0.8; stroke-width: 0.5"/>
     </g>
     <g id="line2d_122">
      <g>
       <use xlink:href="#m50e3f859d3" x="95.125" y="253.108854" style="stroke: #000000; stroke-width: 0.6"/>
      </g>
     </g>
    </g>
    <g id="ytick_21">
     <g id="line2d_123">
      <path d="M 95.125 222.84183 
L 764.725 222.84183 
" clip-path="url(#p93d3268b93)" style="fill: none; stroke-dasharray: 1.85,0.8; stroke-dashoffset: 0; stroke: #b0b0b0; stroke-opacity: 0.8; stroke-width: 0.5"/>
     </g>
     <g id="line2d_124">
      <g>
       <use xlink:href="#m50e3f859d3" x="95.125" y="222.84183" style="stroke: #000000; stroke-width: 0.6"/>
      </g>
     </g>
    </g>
    <g id="ytick_22">
     <g id="line2d_125">
      <path d="M 95.125 207.708318 
L 764.725 207.708318 
" clip-path="url(#p93d3268b93)" style="fill: none; stroke-dasharray: 1.85,0.8; stroke-dashoffset: 0; stroke: #b0b0b0; stroke-opacity: 0.8; stroke-width: 0.5"/>
     </g>
     <g id="line2d_126">
      <g>
       <use xlink:href="#m50e3f859d3" x="95.125" y="207.708318" style="stroke: #000000; stroke-width: 0.6"/>
      </g>
     </g>
    </g>
    <g id="ytick_23">
     <g id="line2d_127">
      <path d="M 95.125 192.574806 
L 764.725 192.574806 
" clip-path="url(#p93d3268b93)" style="fill: none; stroke-dasharray: 1.85,0.8; stroke-dashoffset: 0; stroke: #b0b0b0; stroke-opacity: 0.8; stroke-width: 0.5"/>
     </g>
     <g id="line2d_128">
      <g>
       <use xlink:href="#m50e3f859d3" x="95.125" y="192.574806" style="stroke: #000000; stroke-width: 0.6"/>
      </g>
     </g>
    </g>
    <g id="ytick_24">
     <g id="line2d_129">
      <path d="M 95.125 177.441294 
L 764.725 177.441294 
" clip-path="url(#p93d3268b93)" style="fill: none; stroke-dasharray: 1.85,0.8; stroke-dashoffset: 0; stroke: #b0b0b0; stroke-opacity: 0.8; stroke-width: 0.5"/>
     </g>
     <g id="line2d_130">
      <g>
       <use xlink:href="#m50e3f859d3" x="95.125" y="177.441294" style="stroke: #000000; stroke-width: 0.6"/>
      </g>
     </g>
    </g>
    <g id="ytick_25">
     <g id="line2d_131">
      <path d="M 95.125 147.174269 
L 764.725 147.174269 
" clip-path="url(#p93d3268b93)" style="fill: none; stroke-dasharray: 1.85,0.8; stroke-dashoffset: 0; stroke: #b0b0b0; stroke-opacity: 0.8; stroke-width: 0.5"/>
     </g>
     <g id="line2d_132">
      <g>
       <use xlink:href="#m50e3f859d3" x="95.125" y="147.174269" style="stroke: #000000; stroke-width: 0.6"/>
      </g>
     </g>
    </g>
    <g id="ytick_26">
     <g id="line2d_133">
      <path d="M 95.125 132.040757 
L 764.725 132.040757 
" clip-path="url(#p93d3268b93)" style="fill: none; stroke-dasharray: 1.85,0.8; stroke-dashoffset: 0; stroke: #b0b0b0; stroke-opacity: 0.8; stroke-width: 0.5"/>
     </g>
     <g id="line2d_134">
      <g>
       <use xlink:href="#m50e3f859d3" x="95.125" y="132.040757" style="stroke: #000000; stroke-width: 0.6"/>
      </g>
     </g>
    </g>
    <g id="ytick_27">
     <g id="line2d_135">
      <path d="M 95.125 116.907245 
L 764.725 116.907245 
" clip-path="url(#p93d3268b93)" style="fill: none; stroke-dasharray: 1.85,0.8; stroke-dashoffset: 0; stroke: #b0b0b0; stroke-opacity: 0.8; stroke-width: 0.5"/>
     </g>
     <g id="line2d_136">
      <g>
       <use xlink:href="#m50e3f859d3" x="95.125" y="116.907245" style="stroke: #000000; stroke-width: 0.6"/>
      </g>
     </g>
    </g>
    <g id="ytick_28">
     <g id="line2d_137">
      <path d="M 95.125 101.773733 
L 764.725 101.773733 
" clip-path="url(#p93d3268b93)" style="fill: none; stroke-dasharray: 1.85,0.8; stroke-dashoffset: 0; stroke: #b0b0b0; stroke-opacity: 0.8; stroke-width: 0.5"/>
     </g>
     <g id="line2d_138">
      <g>
       <use xlink:href="#m50e3f859d3" x="95.125" y="101.773733" style="stroke: #000000; stroke-width: 0.6"/>
      </g>
     </g>
    </g>
    <g id="ytick_29">
     <g id="line2d_139">
      <path d="M 95.125 71.506709 
L 764.725 71.506709 
" clip-path="url(#p93d3268b93)" style="fill: none; stroke-dasharray: 1.85,0.8; stroke-dashoffset: 0; stroke: #b0b0b0; stroke-opacity: 0.8; stroke-width: 0.5"/>
     </g>
     <g id="line2d_140">
      <g>
       <use xlink:href="#m50e3f859d3" x="95.125" y="71.506709" style="stroke: #000000; stroke-width: 0.6"/>
      </g>
     </g>
    </g>
    <g id="text_16">
     <!-- Efficiency (%) -->
     <g transform="translate(49.221875 335.120625) rotate(-90) scale(0.2 -0.2)">
      <defs>
       <path id="AptosDisplay-45" d="M 472 0 
L 472 4206 
L 3153 4206 
L 3153 3738 
L 1034 3738 
L 1034 2397 
L 2984 2397 
L 2984 1934 
L 1034 1934 
L 1034 469 
L 3153 469 
L 3153 0 
L 472 0 
z
" transform="scale(0.015625)"/>
       <path id="AptosDisplay-66" d="M 550 0 
L 550 2622 
L 44 2622 
L 44 3044 
L 550 3044 
L 550 3219 
Q 550 3453 589 3636 
Q 628 3819 728 3947 
Q 828 4075 1004 4140 
Q 1181 4206 1463 4206 
L 1781 4206 
L 1781 3797 
L 1494 3797 
Q 1219 3797 1145 3645 
Q 1072 3494 1072 3209 
L 1072 3044 
L 1775 3044 
L 1775 2622 
L 1072 2622 
L 1072 0 
L 550 0 
z
" transform="scale(0.015625)"/>
       <path id="AptosDisplay-63" d="M 1634 -53 
Q 1234 -53 925 122 
Q 616 297 441 645 
Q 266 994 266 1513 
Q 266 2031 437 2384 
Q 609 2738 917 2916 
Q 1225 3094 1634 3094 
Q 1978 3094 2251 2978 
Q 2525 2863 2689 2630 
Q 2853 2397 2866 2041 
L 2350 2041 
Q 2328 2334 2139 2503 
Q 1950 2672 1644 2672 
Q 1228 2672 1015 2367 
Q 803 2063 803 1513 
Q 803 1150 897 894 
Q 991 638 1178 503 
Q 1366 369 1644 369 
Q 1956 369 2159 541 
Q 2363 713 2372 1047 
L 2884 1047 
Q 2878 681 2711 436 
Q 2544 191 2264 69 
Q 1984 -53 1634 -53 
z
" transform="scale(0.015625)"/>
       <path id="AptosDisplay-6e" d="M 413 0 
L 413 3044 
L 919 3044 
L 931 2575 
Q 1066 2756 1316 2914 
Q 1566 3072 1941 3072 
Q 2428 3072 2637 2781 
Q 2847 2491 2847 1963 
L 2847 0 
L 2328 0 
L 2328 1891 
Q 2328 2106 2286 2275 
Q 2244 2444 2133 2539 
Q 2022 2634 1816 2634 
Q 1500 2634 1283 2482 
Q 1066 2331 934 2156 
L 934 0 
L 413 0 
z
" transform="scale(0.015625)"/>
       <path id="AptosDisplay-79" d="M 266 -1128 
L 266 -697 
L 525 -697 
Q 716 -697 831 -598 
Q 947 -500 1038 -275 
L 1153 0 
L -13 3044 
L 538 3044 
L 1428 553 
L 2250 3044 
L 2781 3044 
L 1688 0 
L 1550 -356 
Q 1441 -647 1314 -815 
Q 1188 -984 1013 -1056 
Q 838 -1128 578 -1128 
L 266 -1128 
z
" transform="scale(0.015625)"/>
       <path id="AptosDisplay-25" d="M 1188 0 
L 3669 4078 
L 4094 4078 
L 1613 0 
L 1188 0 
z
M 1197 1606 
Q 878 1606 679 1765 
Q 481 1925 390 2209 
Q 300 2494 300 2872 
Q 300 3253 390 3536 
Q 481 3819 679 3976 
Q 878 4134 1197 4134 
Q 1519 4134 1716 3976 
Q 1913 3819 2005 3536 
Q 2097 3253 2097 2872 
Q 2097 2494 2005 2209 
Q 1913 1925 1714 1765 
Q 1516 1606 1197 1606 
z
M 1197 1953 
Q 1391 1953 1498 2084 
Q 1606 2216 1648 2425 
Q 1691 2634 1691 2872 
Q 1691 3109 1648 3318 
Q 1606 3528 1498 3658 
Q 1391 3788 1197 3788 
Q 1006 3788 898 3658 
Q 791 3528 748 3318 
Q 706 3109 706 2872 
Q 706 2634 748 2425 
Q 791 2216 898 2084 
Q 1006 1953 1197 1953 
z
M 4084 -53 
Q 3769 -53 3570 105 
Q 3372 263 3281 547 
Q 3191 831 3191 1209 
Q 3191 1591 3281 1873 
Q 3372 2156 3570 2314 
Q 3769 2472 4084 2472 
Q 4406 2472 4604 2315 
Q 4803 2159 4893 1875 
Q 4984 1591 4984 1209 
Q 4984 831 4893 547 
Q 4803 263 4604 105 
Q 4406 -53 4084 -53 
z
M 4084 294 
Q 4281 294 4387 423 
Q 4494 553 4536 761 
Q 4578 969 4578 1209 
Q 4578 1447 4536 1656 
Q 4494 1866 4387 1994 
Q 4281 2122 4084 2122 
Q 3894 2122 3787 1994 
Q 3681 1866 3639 1656 
Q 3597 1447 3597 1209 
Q 3597 969 3639 761 
Q 3681 553 3787 423 
Q 3894 294 4084 294 
z
" transform="scale(0.015625)"/>
      </defs>
      <use xlink:href="#AptosDisplay-45"/>
      <use xlink:href="#AptosDisplay-66" x="54.052734"/>
      <use xlink:href="#AptosDisplay-66" x="82.373047"/>
      <use xlink:href="#AptosDisplay-69" x="110.693359"/>
      <use xlink:href="#AptosDisplay-63" x="131.738281"/>
      <use xlink:href="#AptosDisplay-69" x="181.005859"/>
      <use xlink:href="#AptosDisplay-65" x="202.050781"/>
      <use xlink:href="#AptosDisplay-6e" x="251.464844"/>
      <use xlink:href="#AptosDisplay-63" x="302.050781"/>
      <use xlink:href="#AptosDisplay-79" x="351.318359"/>
      <use xlink:href="#AptosDisplay-20" x="394.580078"/>
      <use xlink:href="#AptosDisplay-28" x="413.867188"/>
      <use xlink:href="#AptosDisplay-25" x="443.310547"/>
      <use xlink:href="#AptosDisplay-29" x="525.830078"/>
     </g>
    </g>
   </g>
   <g id="line2d_141">
    <path d="M 125.561364 481.1925 
L 126.211012 77.9925 
L 126.860661 326.254162 
L 127.51031 306.764033 
L 128.159958 306.764033 
L 128.809607 326.254162 
L 129.459255 306.764033 
L 130.758553 306.764033 
L 131.408201 326.254162 
L 132.05785 306.764033 
L 132.707499 326.254162 
L 133.357147 326.254162 
L 134.006796 306.764033 
L 134.656445 326.254162 
L 135.306093 306.764033 
L 135.955742 306.764033 
L 136.605391 326.254162 
L 137.904688 326.254162 
L 138.554336 306.764033 
L 139.203985 326.254162 
L 139.853634 326.254162 
L 140.503282 306.764033 
L 141.152931 306.764033 
L 141.80258 326.254162 
L 142.452228 306.764033 
L 143.101877 326.254162 
L 143.751526 306.764033 
L 144.401174 306.764033 
L 145.050823 326.254162 
L 145.700471 326.254162 
L 146.35012 306.764033 
L 146.999769 326.254162 
L 147.649417 283.375878 
L 148.299066 326.254162 
L 150.897661 326.254162 
L 151.547309 306.764033 
L 152.846607 306.764033 
L 153.496255 326.254162 
L 154.145904 306.764033 
L 154.795552 326.254162 
L 157.394147 326.254162 
L 158.043796 306.764033 
L 158.693444 342.74581 
L 159.343093 326.254162 
L 159.992742 306.764033 
L 160.64239 326.254162 
L 163.240985 326.254162 
L 163.890633 306.764033 
L 164.540282 326.254162 
L 165.189931 326.254162 
L 165.839579 306.764033 
L 166.489228 326.254162 
L 167.138877 326.254162 
L 167.788525 306.764033 
L 168.438174 306.764033 
L 169.087823 326.254162 
L 169.737471 326.254162 
L 170.38712 306.764033 
L 171.036768 326.254162 
L 172.985714 326.254162 
L 173.635363 306.764033 
L 174.285012 326.254162 
L 175.584309 326.254162 
L 176.233958 306.764033 
L 176.883606 326.254162 
L 177.533255 326.254162 
L 178.182904 306.764033 
L 178.832552 306.764033 
L 179.482201 326.254162 
L 184.029741 326.254162 
L 184.67939 306.764033 
L 185.329039 326.254162 
L 185.978687 326.254162 
L 186.628336 306.764033 
L 187.277984 306.764033 
L 187.927633 326.254162 
L 188.577282 326.254162 
L 189.22693 306.764033 
L 189.876579 326.254162 
L 190.526228 326.254162 
L 191.175876 283.375878 
L 191.825525 326.254162 
L 192.475174 306.764033 
L 193.124822 342.74581 
L 193.774471 326.254162 
L 194.42412 306.764033 
L 195.073768 306.764033 
L 195.723417 342.74581 
L 196.373065 326.254162 
L 197.675611 326.254162 
L 198.32526 283.375878 
L 199.624557 326.254162 
L 200.274206 326.254162 
L 200.923854 342.74581 
L 201.573503 326.254162 
L 202.223151 306.764033 
L 202.8728 326.254162 
L 204.821746 326.254162 
L 205.471395 306.764033 
L 206.121043 342.74581 
L 206.770692 326.254162 
L 207.420341 306.764033 
L 208.069989 326.254162 
L 208.719638 306.764033 
L 209.369287 326.254162 
L 210.018935 306.764033 
L 210.668584 326.254162 
L 211.318232 306.764033 
L 211.967881 306.764033 
L 212.61753 326.254162 
L 214.566476 326.254162 
L 215.216124 306.764033 
L 215.865773 326.254162 
L 217.16507 326.254162 
L 217.814719 306.764033 
L 218.464367 326.254162 
L 226.260151 326.254162 
L 226.9098 306.764033 
L 227.559448 306.764033 
L 228.209097 342.74581 
L 228.858746 326.254162 
L 229.508394 326.254162 
L 230.158043 306.764033 
L 230.807692 306.764033 
L 231.45734 326.254162 
L 232.106989 306.764033 
L 233.406286 306.764033 
L 234.055935 326.254162 
L 236.654529 326.254162 
L 237.304178 306.764033 
L 237.953827 306.764033 
L 238.603475 326.254162 
L 246.399259 326.254162 
L 247.048908 306.764033 
L 247.698556 326.254162 
L 250.297151 326.254162 
L 250.9468 306.764033 
L 251.596448 326.254162 
L 252.895745 326.254162 
L 253.545394 306.764033 
L 254.844691 342.74581 
L 255.49434 306.764033 
L 256.143989 326.254162 
L 259.392232 326.254162 
L 260.04188 306.764033 
L 260.691529 326.254162 
L 261.341178 326.254162 
L 261.990826 306.764033 
L 262.640475 306.764033 
L 263.290124 326.254162 
L 265.23907 326.254162 
L 265.888718 306.764033 
L 266.538367 326.254162 
L 267.188016 306.764033 
L 267.837664 326.254162 
L 269.78661 326.254162 
L 270.436259 306.764033 
L 271.085907 326.254162 
L 271.735556 326.254162 
L 272.385205 283.375878 
L 273.034853 326.254162 
L 274.983799 326.254162 
L 275.633448 306.764033 
L 276.283096 326.254162 
L 276.932745 306.764033 
L 277.582394 342.74581 
L 278.232042 326.254162 
L 278.881691 306.764033 
L 279.53134 326.254162 
L 280.830637 326.254162 
L 281.480286 306.764033 
L 282.129934 326.254162 
L 284.728529 326.254162 
L 285.378177 306.764033 
L 286.027826 306.764033 
L 286.677475 326.254162 
L 289.276069 326.254162 
L 289.925718 306.764033 
L 290.575367 326.254162 
L 291.225015 306.764033 
L 291.874664 326.254162 
L 293.82361 326.254162 
L 294.473258 306.764033 
L 295.122907 326.254162 
L 295.772556 306.764033 
L 296.422204 326.254162 
L 297.721502 326.254162 
L 298.37115 306.764033 
L 299.020799 326.254162 
L 304.217988 326.254162 
L 304.867637 306.764033 
L 305.517285 326.254162 
L 306.166934 326.254162 
L 306.816583 306.764033 
L 307.466231 306.764033 
L 308.11588 326.254162 
L 311.364123 326.254162 
L 312.013772 306.764033 
L 313.313069 342.74581 
L 313.962718 283.375878 
L 314.612366 306.764033 
L 315.262015 306.764033 
L 315.911664 326.254162 
L 316.561312 306.764033 
L 317.210961 306.764033 
L 317.860609 326.254162 
L 323.057799 326.254162 
L 323.707447 306.764033 
L 324.357096 326.254162 
L 328.254988 326.254162 
L 328.904636 306.764033 
L 329.554285 306.764033 
L 330.203934 326.254162 
L 331.503231 326.254162 
L 332.15288 306.764033 
L 332.802528 326.254162 
L 333.452177 326.254162 
L 334.101826 306.764033 
L 334.751474 326.254162 
L 336.70042 326.254162 
L 337.350069 306.764033 
L 337.999717 326.254162 
L 338.649366 326.254162 
L 339.299015 342.74581 
L 339.948663 326.254162 
L 340.598312 326.254162 
L 341.247961 306.764033 
L 341.897609 326.254162 
L 342.547258 306.764033 
L 343.196906 306.764033 
L 343.846555 342.74581 
L 344.496204 326.254162 
L 345.795501 326.254162 
L 346.44515 306.764033 
L 347.094798 326.254162 
L 347.744447 326.254162 
L 348.394096 306.764033 
L 349.043744 326.254162 
L 350.343042 326.254162 
L 350.99269 306.764033 
L 351.642339 326.254162 
L 352.291987 306.764033 
L 352.941636 326.254162 
L 353.591285 306.764033 
L 354.240933 326.254162 
L 354.890582 326.254162 
L 355.540231 306.764033 
L 356.839528 306.764033 
L 358.138825 342.74581 
L 358.788474 326.254162 
L 359.438122 306.764033 
L 360.087771 326.254162 
L 360.73742 326.254162 
L 361.387068 306.764033 
L 362.036717 306.764033 
L 362.686366 326.254162 
L 363.336014 326.254162 
L 363.985663 306.764033 
L 365.28496 306.764033 
L 365.934609 326.254162 
L 367.233906 326.254162 
L 367.883555 342.74581 
L 368.533203 326.254162 
L 369.182852 326.254162 
L 369.832501 306.764033 
L 370.482149 342.74581 
L 371.131798 306.764033 
L 371.781447 326.254162 
L 372.431095 326.254162 
L 373.080744 306.764033 
L 373.730393 326.254162 
L 376.328987 326.254162 
L 376.978636 306.764033 
L 377.628284 326.254162 
L 378.277933 306.764033 
L 378.927582 326.254162 
L 380.876528 326.254162 
L 381.526176 306.764033 
L 382.175825 326.254162 
L 382.825474 306.764033 
L 383.475122 306.764033 
L 384.124771 326.254162 
L 385.424068 326.254162 
L 386.073717 306.764033 
L 386.723365 326.254162 
L 388.672311 326.254162 
L 389.32196 283.375878 
L 389.971609 326.254162 
L 391.270906 326.254162 
L 391.920555 306.764033 
L 392.570203 326.254162 
L 393.219852 326.254162 
L 393.8695 306.764033 
L 395.168798 306.764033 
L 395.818446 326.254162 
L 396.468095 326.254162 
L 397.117744 306.764033 
L 397.767392 283.375878 
L 399.06669 326.254162 
L 399.716338 326.254162 
L 400.365987 283.375878 
L 401.015635 326.254162 
L 401.665284 306.764033 
L 402.314933 342.74581 
L 402.964581 326.254162 
L 403.61423 306.764033 
L 404.263879 326.254162 
L 404.913527 306.764033 
L 405.563176 326.254162 
L 409.461068 326.254162 
L 410.110716 342.74581 
L 410.760365 306.764033 
L 411.410014 326.254162 
L 415.307906 326.254162 
L 415.957554 306.764033 
L 416.607203 326.254162 
L 419.205797 326.254162 
L 419.855446 306.764033 
L 420.505095 326.254162 
L 421.154743 326.254162 
L 421.804392 306.764033 
L 422.454041 326.254162 
L 424.402987 326.254162 
L 425.052635 306.764033 
L 425.702284 326.254162 
L 432.19877 326.254162 
L 432.848419 306.764033 
L 433.498068 326.254162 
L 434.797365 326.254162 
L 435.447013 306.764033 
L 436.096662 306.764033 
L 436.746311 326.254162 
L 437.395959 306.764033 
L 438.045608 326.254162 
L 438.695257 326.254162 
L 439.344905 306.764033 
L 440.644203 342.74581 
L 441.293851 306.764033 
L 441.9435 306.764033 
L 442.593148 326.254162 
L 443.242797 306.764033 
L 443.892446 326.254162 
L 446.49104 326.254162 
L 447.140689 342.74581 
L 447.790338 326.254162 
L 448.439986 306.764033 
L 449.089635 306.764033 
L 449.739284 326.254162 
L 450.388932 306.764033 
L 451.038581 326.254162 
L 451.688229 326.254162 
L 452.337878 306.764033 
L 453.637175 342.74581 
L 454.286824 342.74581 
L 454.936473 326.254162 
L 455.586121 326.254162 
L 456.23577 306.764033 
L 456.885419 326.254162 
L 458.834365 326.254162 
L 459.484013 306.764033 
L 460.133662 306.764033 
L 460.78331 326.254162 
L 461.432959 306.764033 
L 462.082608 326.254162 
L 464.031554 326.254162 
L 464.681202 342.74581 
L 465.330851 326.254162 
L 467.279797 326.254162 
L 467.929445 306.764033 
L 468.579094 326.254162 
L 469.228743 326.254162 
L 469.878391 306.764033 
L 470.52804 306.764033 
L 471.177689 326.254162 
L 471.827337 326.254162 
L 472.476986 306.764033 
L 473.126635 326.254162 
L 473.776283 306.764033 
L 474.425932 326.254162 
L 481.572067 326.254162 
L 482.221716 306.764033 
L 482.871364 326.254162 
L 490.017499 326.254162 
L 490.667148 306.764033 
L 491.316797 342.74581 
L 491.966445 342.74581 
L 492.616094 326.254162 
L 495.864337 326.254162 
L 496.513986 306.764033 
L 497.163634 306.764033 
L 497.813283 326.254162 
L 502.360823 326.254162 
L 503.01372 306.764033 
L 503.663369 326.254162 
L 504.313018 326.254162 
L 504.962666 306.764033 
L 505.612315 326.254162 
L 506.911612 326.254162 
L 507.561261 306.764033 
L 508.210909 326.254162 
L 508.860558 306.764033 
L 509.510207 326.254162 
L 512.108801 326.254162 
L 512.75845 306.764033 
L 513.408099 326.254162 
L 517.955639 326.254162 
L 518.605288 342.74581 
L 519.254936 326.254162 
L 519.904585 306.764033 
L 521.203882 306.764033 
L 521.853531 326.254162 
L 525.101774 326.254162 
L 525.751423 342.74581 
L 526.401071 326.254162 
L 530.298963 326.254162 
L 530.948612 306.764033 
L 531.59826 306.764033 
L 532.247909 326.254162 
L 532.897558 326.254162 
L 533.547206 342.74581 
L 534.196855 326.254162 
L 534.846504 342.74581 
L 535.496152 326.254162 
L 536.145801 326.254162 
L 536.79545 306.764033 
L 537.445098 306.764033 
L 538.094747 326.254162 
L 538.744396 306.764033 
L 539.394044 306.764033 
L 540.043693 326.254162 
L 540.693341 306.764033 
L 542.642287 306.764033 
L 543.291936 326.254162 
L 543.941585 306.764033 
L 545.240882 306.764033 
L 545.890531 326.254162 
L 547.189828 326.254162 
L 547.839477 306.764033 
L 548.489125 306.764033 
L 549.138774 326.254162 
L 549.788422 306.764033 
L 550.438071 326.254162 
L 551.737368 326.254162 
L 552.387017 306.764033 
L 553.036666 326.254162 
L 554.985612 326.254162 
L 555.63526 306.764033 
L 556.284909 326.254162 
L 556.934557 306.764033 
L 557.584206 326.254162 
L 558.233855 306.764033 
L 558.883503 326.254162 
L 559.533152 306.764033 
L 560.182801 326.254162 
L 560.832449 306.764033 
L 561.482098 342.74581 
L 562.131747 326.254162 
L 562.781395 326.254162 
L 563.431044 369.132446 
L 564.080693 331.104647 
L 564.730341 342.74581 
L 565.37999 326.254162 
L 566.029638 342.74581 
L 566.679287 342.74581 
L 567.328936 306.764033 
L 567.978584 326.254162 
L 568.628233 306.764033 
L 569.277882 326.254162 
L 571.876476 326.254162 
L 572.526125 306.764033 
L 573.175773 306.764033 
L 573.825422 326.254162 
L 574.475071 306.764033 
L 575.124719 306.764033 
L 575.774368 326.254162 
L 576.424017 326.254162 
L 577.073665 306.764033 
L 578.372963 342.74581 
L 579.022611 369.132446 
L 579.67226 326.254162 
L 580.321909 342.74581 
L 580.971557 342.74581 
L 581.621206 369.132446 
L 582.270854 356.881508 
L 582.920503 326.254162 
L 583.570152 326.254162 
L 584.2198 306.764033 
L 584.869449 326.254162 
L 587.468044 326.254162 
L 588.117692 342.74581 
L 588.767341 306.764033 
L 589.41699 306.764033 
L 590.066638 326.254162 
L 590.716287 326.254162 
L 591.365935 306.764033 
L 593.314881 306.764033 
L 594.614179 342.74581 
L 595.263827 342.74581 
L 595.913476 326.254162 
L 596.563125 306.764033 
L 597.212773 326.254162 
L 597.862422 306.764033 
L 598.51207 326.254162 
L 599.161719 326.254162 
L 599.811368 306.764033 
L 600.461016 306.764033 
L 601.110665 326.254162 
L 601.760314 326.254162 
L 602.409962 306.764033 
L 603.059611 326.254162 
L 606.957503 326.254162 
L 607.607151 306.764033 
L 608.2568 326.254162 
L 610.205746 326.254162 
L 610.855395 306.764033 
L 611.505043 283.375878 
L 612.804341 326.254162 
L 613.453989 326.254162 
L 614.103638 342.74581 
L 614.753286 326.254162 
L 615.402935 326.254162 
L 616.052584 306.764033 
L 616.702232 326.254162 
L 619.300827 326.254162 
L 619.950476 306.764033 
L 620.600124 306.764033 
L 621.249773 326.254162 
L 621.899422 306.764033 
L 622.54907 306.764033 
L 623.198719 326.254162 
L 627.096611 326.254162 
L 627.746259 342.74581 
L 628.395908 342.74581 
L 629.045557 326.254162 
L 630.994503 326.254162 
L 631.644151 306.764033 
L 632.2938 326.254162 
L 633.593097 326.254162 
L 634.242746 306.764033 
L 634.892394 326.254162 
L 635.542043 306.764033 
L 636.191692 326.254162 
L 636.84134 326.254162 
L 637.490989 306.764033 
L 638.140638 326.254162 
L 638.790286 306.764033 
L 639.439935 306.764033 
L 640.089583 326.254162 
L 642.038529 326.254162 
L 642.688178 306.764033 
L 643.337827 306.764033 
L 643.987475 326.254162 
L 644.637124 306.764033 
L 645.286773 326.254162 
L 649.184664 326.254162 
L 649.834313 306.764033 
L 650.483962 326.254162 
L 653.082556 326.254162 
L 653.732205 306.764033 
L 654.381854 306.764033 
L 655.031502 326.254162 
L 655.681151 306.764033 
L 656.330799 326.254162 
L 658.279745 326.254162 
L 658.929394 342.74581 
L 659.579043 326.254162 
L 660.228691 306.764033 
L 660.87834 306.764033 
L 661.527989 326.254162 
L 662.827286 326.254162 
L 663.476935 306.764033 
L 664.126583 326.254162 
L 664.776232 306.764033 
L 665.42588 326.254162 
L 666.075529 306.764033 
L 666.725178 326.254162 
L 669.973421 326.254162 
L 670.62307 306.764033 
L 671.272718 342.74581 
L 671.922367 326.254162 
L 673.221664 326.254162 
L 673.871313 342.74581 
L 674.520961 326.254162 
L 675.820259 326.254162 
L 676.469907 342.74581 
L 677.119556 326.254162 
L 678.418853 326.254162 
L 679.068502 283.375878 
L 679.718151 326.254162 
L 682.316745 326.254162 
L 682.966394 283.375878 
L 684.265691 326.254162 
L 689.46288 326.254162 
L 690.112529 306.764033 
L 690.762177 326.254162 
L 691.411826 306.764033 
L 692.061475 326.254162 
L 694.010421 326.254162 
L 694.660069 342.74581 
L 695.309718 342.74581 
L 695.959367 326.254162 
L 696.609015 326.254162 
L 697.258664 306.764033 
L 697.908312 326.254162 
L 698.557961 326.254162 
L 699.20761 306.764033 
L 699.857258 326.254162 
L 701.806204 326.254162 
L 702.455853 306.764033 
L 703.105502 306.764033 
L 703.75515 326.254162 
L 705.704096 326.254162 
L 706.353745 342.74581 
L 707.003393 326.254162 
L 707.653042 326.254162 
L 708.302691 306.764033 
L 708.952339 342.74581 
L 709.601988 326.254162 
L 710.251637 326.254162 
L 710.901285 306.764033 
L 711.550934 326.254162 
L 714.149529 306.764033 
L 714.799177 326.254162 
L 718.697069 326.254162 
L 719.346718 306.764033 
L 719.996366 306.764033 
L 720.646015 326.254162 
L 723.244609 326.254162 
L 723.894258 306.764033 
L 724.543907 326.254162 
L 725.193555 306.764033 
L 725.843204 326.254162 
L 726.492853 306.764033 
L 727.142501 326.254162 
L 727.79215 306.764033 
L 728.441799 326.254162 
L 731.040393 326.254162 
L 731.690042 306.764033 
L 733.638988 306.764033 
L 734.288636 326.254162 
L 734.288636 326.254162 
" clip-path="url(#p93d3268b93)" style="fill: none; stroke: #ac2b37; stroke-width: 1.5; stroke-linecap: square"/>
   </g>
   <g id="patch_3">
    <path d="M 95.125 501.3525 
L 95.125 57.8325 
" style="fill: none; stroke: #000000; stroke-width: 0.8; stroke-linejoin: miter; stroke-linecap: square"/>
   </g>
   <g id="patch_4">
    <path d="M 764.725 501.3525 
L 764.725 57.8325 
" style="fill: none; stroke: #000000; stroke-width: 0.8; stroke-linejoin: miter; stroke-linecap: square"/>
   </g>
   <g id="patch_5">
    <path d="M 95.125 501.3525 
L 764.725 501.3525 
" style="fill: none; stroke: #000000; stroke-width: 0.8; stroke-linejoin: miter; stroke-linecap: square"/>
   </g>
   <g id="patch_6">
    <path d="M 95.125 57.8325 
L 764.725 57.8325 
" style="fill: none; stroke: #000000; stroke-width: 0.8; stroke-linejoin: miter; stroke-linecap: square"/>
   </g>
   <g id="text_17">
    <!-- Efficiency vs Time -->
    <g transform="translate(343.418125 51.8325) scale(0.24 -0.24)">
     <defs>
      <path id="AptosDisplay-76" d="M 1103 0 
L -13 3044 
L 538 3044 
L 1391 513 
L 2250 3044 
L 2781 3044 
L 1678 0 
L 1103 0 
z
" transform="scale(0.015625)"/>
      <path id="AptosDisplay-73" d="M 1506 -41 
Q 1247 -41 1017 14 
Q 788 69 613 191 
Q 438 313 339 506 
Q 241 700 241 978 
L 744 978 
Q 744 628 966 487 
Q 1188 347 1519 347 
Q 1816 347 2008 458 
Q 2200 569 2200 822 
Q 2200 1047 2026 1153 
Q 1853 1259 1413 1369 
Q 1056 1453 815 1564 
Q 575 1675 453 1845 
Q 331 2016 331 2275 
Q 331 2475 417 2626 
Q 503 2778 658 2879 
Q 813 2981 1020 3032 
Q 1228 3084 1472 3084 
Q 1713 3084 1923 3028 
Q 2134 2972 2296 2855 
Q 2459 2738 2551 2552 
Q 2644 2366 2644 2109 
L 2138 2109 
Q 2138 2425 1945 2558 
Q 1753 2691 1472 2691 
Q 1191 2691 1016 2594 
Q 841 2497 841 2291 
Q 841 2169 919 2084 
Q 997 2000 1181 1933 
Q 1366 1866 1675 1791 
Q 2019 1709 2248 1596 
Q 2478 1484 2595 1306 
Q 2713 1128 2713 847 
Q 2713 616 2622 447 
Q 2531 278 2367 170 
Q 2203 63 1983 11 
Q 1763 -41 1506 -41 
z
" transform="scale(0.015625)"/>
     </defs>
     <use xlink:href="#AptosDisplay-45"/>
     <use xlink:href="#AptosDisplay-66" x="54.052734"/>
     <use xlink:href="#AptosDisplay-66" x="82.373047"/>
     <use xlink:href="#AptosDisplay-69" x="110.693359"/>
     <use xlink:href="#AptosDisplay-63" x="131.738281"/>
     <use xlink:href="#AptosDisplay-69" x="181.005859"/>
     <use xlink:href="#AptosDisplay-65" x="202.050781"/>
     <use xlink:href="#AptosDisplay-6e" x="251.464844"/>
     <use xlink:href="#AptosDisplay-63" x="302.050781"/>
     <use xlink:href="#AptosDisplay-79" x="351.318359"/>
     <use xlink:href="#AptosDisplay-20" x="394.580078"/>
     <use xlink:href="#AptosDisplay-76" x="413.867188"/>
     <use xlink:href="#AptosDisplay-73" x="457.128906"/>
     <use xlink:href="#AptosDisplay-20" x="503.417969"/>
     <use xlink:href="#AptosDisplay-54" x="522.705078"/>
     <use xlink:href="#AptosDisplay-69" x="570.410156"/>
     <use xlink:href="#AptosDisplay-6d" x="591.455078"/>
     <use xlink:href="#AptosDisplay-65" x="671.435547"/>
    </g>
   </g>
  </g>
 </g>
 <defs>
  <clipPath id="p93d3268b93">
   <rect x="95.125" y="57.8325" width="669.6" height="443.52"/>
  </clipPath>
 </defs>
</svg>
