<?xml version="1.0" encoding="utf-8" standalone="no"?>
<!DOCTYPE svg PUBLIC "-//W3C//DTD SVG 1.1//EN"
  "http://www.w3.org/Graphics/SVG/1.1/DTD/svg11.dtd">
<svg xmlns:xlink="http://www.w3.org/1999/xlink" width="800.88125pt" height="581.830625pt" viewBox="0 0 800.88125 581.830625" xmlns="http://www.w3.org/2000/svg" version="1.1">
 <metadata>
  <rdf:RDF xmlns:dc="http://purl.org/dc/elements/1.1/" xmlns:cc="http://creativecommons.org/ns#" xmlns:rdf="http://www.w3.org/1999/02/22-rdf-syntax-ns#">
   <cc:Work>
    <dc:type rdf:resource="http://purl.org/dc/dcmitype/StillImage"/>
    <dc:date>2025-04-03T01:48:37.973209</dc:date>
    <dc:format>image/svg+xml</dc:format>
    <dc:creator>
     <cc:Agent>
      <dc:title>Matplotlib v3.8.2, https://matplotlib.org/</dc:title>
     </cc:Agent>
    </dc:creator>
   </cc:Work>
  </rdf:RDF>
 </metadata>
 <defs>
  <style type="text/css">*{stroke-linejoin: round; stroke-linecap: butt}</style>
 </defs>
 <g id="figure_1">
  <g id="patch_1">
   <path d="M 0 581.830625 
L 800.88125 581.830625 
L 800.88125 0 
L 0 0 
z
" style="fill: #ffffff"/>
  </g>
  <g id="axes_1">
   <g id="patch_2">
    <path d="M 95.28125 501.3525 
L 764.88125 501.3525 
L 764.88125 57.8325 
L 95.28125 57.8325 
z
" style="fill: #ffffff"/>
   </g>
   <g id="matplotlib.axis_1">
    <g id="xtick_1">
     <g id="line2d_1">
      <path d="M 125.363704 501.3525 
L 125.363704 57.8325 
" clip-path="url(#p6f6376b163)" style="fill: none; stroke: #b0b0b0; stroke-opacity: 0.8; stroke-linecap: square"/>
     </g>
     <g id="line2d_2">
      <defs>
       <path id="m9f6208af87" d="M 0 0 
L 0 3.5 
" style="stroke: #000000; stroke-width: 0.8"/>
      </defs>
      <g>
       <use xlink:href="#m9f6208af87" x="125.363704" y="501.3525" style="stroke: #000000; stroke-width: 0.8"/>
      </g>
     </g>
     <g id="text_1">
      <!-- 0 -->
      <g transform="translate(120.134017 521.49625) scale(0.2 -0.2)">
       <defs>
        <path id="AptosDisplay-30" d="M 1672 -56 
Q 1291 -56 1028 105 
Q 766 266 605 552 
Q 444 838 372 1216 
Q 300 1594 300 2031 
Q 300 2475 372 2856 
Q 444 3238 605 3525 
Q 766 3813 1028 3973 
Q 1291 4134 1672 4134 
Q 2053 4134 2317 3975 
Q 2581 3816 2742 3527 
Q 2903 3238 2975 2858 
Q 3047 2478 3047 2038 
Q 3047 1597 2975 1217 
Q 2903 838 2742 552 
Q 2581 266 2318 105 
Q 2056 -56 1672 -56 
z
M 1672 409 
Q 1916 409 2073 550 
Q 2231 691 2322 925 
Q 2413 1159 2448 1448 
Q 2484 1738 2484 2038 
Q 2484 2338 2448 2628 
Q 2413 2919 2322 3153 
Q 2231 3388 2073 3527 
Q 1916 3666 1669 3666 
Q 1428 3666 1268 3527 
Q 1109 3388 1020 3153 
Q 931 2919 893 2628 
Q 856 2338 856 2038 
Q 856 1741 893 1450 
Q 931 1159 1020 925 
Q 1109 691 1268 550 
Q 1428 409 1672 409 
z
" transform="scale(0.015625)"/>
       </defs>
       <use xlink:href="#AptosDisplay-30"/>
      </g>
     </g>
    </g>
    <g id="xtick_2">
     <g id="line2d_3">
      <path d="M 205.797644 501.3525 
L 205.797644 57.8325 
" clip-path="url(#p6f6376b163)" style="fill: none; stroke: #b0b0b0; stroke-opacity: 0.8; stroke-linecap: square"/>
     </g>
     <g id="line2d_4">
      <g>
       <use xlink:href="#m9f6208af87" x="205.797644" y="501.3525" style="stroke: #000000; stroke-width: 0.8"/>
      </g>
     </g>
     <g id="text_2">
      <!-- 25 -->
      <g transform="translate(195.338269 521.49625) scale(0.2 -0.2)">
       <defs>
        <path id="AptosDisplay-32" d="M 247 0 
L 247 413 
L 1725 1741 
Q 2100 2081 2269 2351 
Q 2438 2622 2438 2938 
Q 2438 3256 2263 3461 
Q 2088 3666 1691 3666 
Q 1247 3666 1055 3439 
Q 863 3213 863 2869 
L 341 2869 
Q 341 3250 491 3534 
Q 641 3819 941 3975 
Q 1241 4131 1691 4131 
Q 2103 4131 2390 3986 
Q 2678 3841 2828 3578 
Q 2978 3316 2978 2959 
Q 2978 2638 2853 2375 
Q 2728 2113 2517 1883 
Q 2306 1653 2044 1425 
L 959 463 
L 3097 463 
L 3097 0 
L 247 0 
z
" transform="scale(0.015625)"/>
        <path id="AptosDisplay-35" d="M 1669 -56 
Q 1278 -56 964 83 
Q 650 222 465 483 
Q 281 744 281 1113 
L 816 1113 
Q 816 778 1055 584 
Q 1294 391 1669 391 
Q 2069 391 2291 625 
Q 2513 859 2513 1319 
Q 2513 1772 2291 1989 
Q 2069 2206 1697 2206 
Q 1409 2206 1223 2123 
Q 1038 2041 916 1894 
L 444 1894 
L 622 4078 
L 2788 4078 
L 2788 3613 
L 1041 3613 
L 931 2322 
Q 1044 2453 1251 2550 
Q 1459 2647 1775 2647 
Q 2131 2647 2420 2506 
Q 2709 2366 2881 2072 
Q 3053 1778 3053 1319 
Q 3053 863 2875 558 
Q 2697 253 2384 98 
Q 2072 -56 1669 -56 
z
" transform="scale(0.015625)"/>
       </defs>
       <use xlink:href="#AptosDisplay-32"/>
       <use xlink:href="#AptosDisplay-35" x="52.294922"/>
      </g>
     </g>
    </g>
    <g id="xtick_3">
     <g id="line2d_5">
      <path d="M 286.231584 501.3525 
L 286.231584 57.8325 
" clip-path="url(#p6f6376b163)" style="fill: none; stroke: #b0b0b0; stroke-opacity: 0.8; stroke-linecap: square"/>
     </g>
     <g id="line2d_6">
      <g>
       <use xlink:href="#m9f6208af87" x="286.231584" y="501.3525" style="stroke: #000000; stroke-width: 0.8"/>
      </g>
     </g>
     <g id="text_3">
      <!-- 50 -->
      <g transform="translate(275.772209 521.49625) scale(0.2 -0.2)">
       <use xlink:href="#AptosDisplay-35"/>
       <use xlink:href="#AptosDisplay-30" x="52.294922"/>
      </g>
     </g>
    </g>
    <g id="xtick_4">
     <g id="line2d_7">
      <path d="M 366.665523 501.3525 
L 366.665523 57.8325 
" clip-path="url(#p6f6376b163)" style="fill: none; stroke: #b0b0b0; stroke-opacity: 0.8; stroke-linecap: square"/>
     </g>
     <g id="line2d_8">
      <g>
       <use xlink:href="#m9f6208af87" x="366.665523" y="501.3525" style="stroke: #000000; stroke-width: 0.8"/>
      </g>
     </g>
     <g id="text_4">
      <!-- 75 -->
      <g transform="translate(356.206148 521.49625) scale(0.2 -0.2)">
       <defs>
        <path id="AptosDisplay-37" d="M 766 0 
L 2609 3600 
L 194 3600 
L 194 4078 
L 3141 4078 
L 3141 3622 
L 1334 0 
L 766 0 
z
" transform="scale(0.015625)"/>
       </defs>
       <use xlink:href="#AptosDisplay-37"/>
       <use xlink:href="#AptosDisplay-35" x="52.294922"/>
      </g>
     </g>
    </g>
    <g id="xtick_5">
     <g id="line2d_9">
      <path d="M 447.099463 501.3525 
L 447.099463 57.8325 
" clip-path="url(#p6f6376b163)" style="fill: none; stroke: #b0b0b0; stroke-opacity: 0.8; stroke-linecap: square"/>
     </g>
     <g id="line2d_10">
      <g>
       <use xlink:href="#m9f6208af87" x="447.099463" y="501.3525" style="stroke: #000000; stroke-width: 0.8"/>
      </g>
     </g>
     <g id="text_5">
      <!-- 100 -->
      <g transform="translate(431.4104 521.49625) scale(0.2 -0.2)">
       <defs>
        <path id="AptosDisplay-31" d="M 1659 0 
L 1659 3425 
Q 1575 3309 1420 3201 
Q 1266 3094 1052 3009 
Q 838 2925 578 2888 
L 578 3381 
Q 834 3425 1057 3540 
Q 1281 3656 1453 3806 
Q 1625 3956 1719 4094 
L 2206 4094 
L 2206 0 
L 1659 0 
z
" transform="scale(0.015625)"/>
       </defs>
       <use xlink:href="#AptosDisplay-31"/>
       <use xlink:href="#AptosDisplay-30" x="52.294922"/>
       <use xlink:href="#AptosDisplay-30" x="104.589844"/>
      </g>
     </g>
    </g>
    <g id="xtick_6">
     <g id="line2d_11">
      <path d="M 527.533403 501.3525 
L 527.533403 57.8325 
" clip-path="url(#p6f6376b163)" style="fill: none; stroke: #b0b0b0; stroke-opacity: 0.8; stroke-linecap: square"/>
     </g>
     <g id="line2d_12">
      <g>
       <use xlink:href="#m9f6208af87" x="527.533403" y="501.3525" style="stroke: #000000; stroke-width: 0.8"/>
      </g>
     </g>
     <g id="text_6">
      <!-- 125 -->
      <g transform="translate(511.84434 521.49625) scale(0.2 -0.2)">
       <use xlink:href="#AptosDisplay-31"/>
       <use xlink:href="#AptosDisplay-32" x="52.294922"/>
       <use xlink:href="#AptosDisplay-35" x="104.589844"/>
      </g>
     </g>
    </g>
    <g id="xtick_7">
     <g id="line2d_13">
      <path d="M 607.967342 501.3525 
L 607.967342 57.8325 
" clip-path="url(#p6f6376b163)" style="fill: none; stroke: #b0b0b0; stroke-opacity: 0.8; stroke-linecap: square"/>
     </g>
     <g id="line2d_14">
      <g>
       <use xlink:href="#m9f6208af87" x="607.967342" y="501.3525" style="stroke: #000000; stroke-width: 0.8"/>
      </g>
     </g>
     <g id="text_7">
      <!-- 150 -->
      <g transform="translate(592.27828 521.49625) scale(0.2 -0.2)">
       <use xlink:href="#AptosDisplay-31"/>
       <use xlink:href="#AptosDisplay-35" x="52.294922"/>
       <use xlink:href="#AptosDisplay-30" x="104.589844"/>
      </g>
     </g>
    </g>
    <g id="xtick_8">
     <g id="line2d_15">
      <path d="M 688.401282 501.3525 
L 688.401282 57.8325 
" clip-path="url(#p6f6376b163)" style="fill: none; stroke: #b0b0b0; stroke-opacity: 0.8; stroke-linecap: square"/>
     </g>
     <g id="line2d_16">
      <g>
       <use xlink:href="#m9f6208af87" x="688.401282" y="501.3525" style="stroke: #000000; stroke-width: 0.8"/>
      </g>
     </g>
     <g id="text_8">
      <!-- 175 -->
      <g transform="translate(672.712219 521.49625) scale(0.2 -0.2)">
       <use xlink:href="#AptosDisplay-31"/>
       <use xlink:href="#AptosDisplay-37" x="52.294922"/>
       <use xlink:href="#AptosDisplay-35" x="104.589844"/>
      </g>
     </g>
    </g>
    <g id="xtick_9">
     <g id="line2d_17">
      <path d="M 109.276916 501.3525 
L 109.276916 57.8325 
" clip-path="url(#p6f6376b163)" style="fill: none; stroke-dasharray: 1.85,0.8; stroke-dashoffset: 0; stroke: #b0b0b0; stroke-opacity: 0.8; stroke-width: 0.5"/>
     </g>
     <g id="line2d_18">
      <defs>
       <path id="m257841f293" d="M 0 0 
L 0 2 
" style="stroke: #000000; stroke-width: 0.6"/>
      </defs>
      <g>
       <use xlink:href="#m257841f293" x="109.276916" y="501.3525" style="stroke: #000000; stroke-width: 0.6"/>
      </g>
     </g>
    </g>
    <g id="xtick_10">
     <g id="line2d_19">
      <path d="M 141.450492 501.3525 
L 141.450492 57.8325 
" clip-path="url(#p6f6376b163)" style="fill: none; stroke-dasharray: 1.85,0.8; stroke-dashoffset: 0; stroke: #b0b0b0; stroke-opacity: 0.8; stroke-width: 0.5"/>
     </g>
     <g id="line2d_20">
      <g>
       <use xlink:href="#m257841f293" x="141.450492" y="501.3525" style="stroke: #000000; stroke-width: 0.6"/>
      </g>
     </g>
    </g>
    <g id="xtick_11">
     <g id="line2d_21">
      <path d="M 157.53728 501.3525 
L 157.53728 57.8325 
" clip-path="url(#p6f6376b163)" style="fill: none; stroke-dasharray: 1.85,0.8; stroke-dashoffset: 0; stroke: #b0b0b0; stroke-opacity: 0.8; stroke-width: 0.5"/>
     </g>
     <g id="line2d_22">
      <g>
       <use xlink:href="#m257841f293" x="157.53728" y="501.3525" style="stroke: #000000; stroke-width: 0.6"/>
      </g>
     </g>
    </g>
    <g id="xtick_12">
     <g id="line2d_23">
      <path d="M 173.624068 501.3525 
L 173.624068 57.8325 
" clip-path="url(#p6f6376b163)" style="fill: none; stroke-dasharray: 1.85,0.8; stroke-dashoffset: 0; stroke: #b0b0b0; stroke-opacity: 0.8; stroke-width: 0.5"/>
     </g>
     <g id="line2d_24">
      <g>
       <use xlink:href="#m257841f293" x="173.624068" y="501.3525" style="stroke: #000000; stroke-width: 0.6"/>
      </g>
     </g>
    </g>
    <g id="xtick_13">
     <g id="line2d_25">
      <path d="M 189.710856 501.3525 
L 189.710856 57.8325 
" clip-path="url(#p6f6376b163)" style="fill: none; stroke-dasharray: 1.85,0.8; stroke-dashoffset: 0; stroke: #b0b0b0; stroke-opacity: 0.8; stroke-width: 0.5"/>
     </g>
     <g id="line2d_26">
      <g>
       <use xlink:href="#m257841f293" x="189.710856" y="501.3525" style="stroke: #000000; stroke-width: 0.6"/>
      </g>
     </g>
    </g>
    <g id="xtick_14">
     <g id="line2d_27">
      <path d="M 221.884432 501.3525 
L 221.884432 57.8325 
" clip-path="url(#p6f6376b163)" style="fill: none; stroke-dasharray: 1.85,0.8; stroke-dashoffset: 0; stroke: #b0b0b0; stroke-opacity: 0.8; stroke-width: 0.5"/>
     </g>
     <g id="line2d_28">
      <g>
       <use xlink:href="#m257841f293" x="221.884432" y="501.3525" style="stroke: #000000; stroke-width: 0.6"/>
      </g>
     </g>
    </g>
    <g id="xtick_15">
     <g id="line2d_29">
      <path d="M 237.97122 501.3525 
L 237.97122 57.8325 
" clip-path="url(#p6f6376b163)" style="fill: none; stroke-dasharray: 1.85,0.8; stroke-dashoffset: 0; stroke: #b0b0b0; stroke-opacity: 0.8; stroke-width: 0.5"/>
     </g>
     <g id="line2d_30">
      <g>
       <use xlink:href="#m257841f293" x="237.97122" y="501.3525" style="stroke: #000000; stroke-width: 0.6"/>
      </g>
     </g>
    </g>
    <g id="xtick_16">
     <g id="line2d_31">
      <path d="M 254.058008 501.3525 
L 254.058008 57.8325 
" clip-path="url(#p6f6376b163)" style="fill: none; stroke-dasharray: 1.85,0.8; stroke-dashoffset: 0; stroke: #b0b0b0; stroke-opacity: 0.8; stroke-width: 0.5"/>
     </g>
     <g id="line2d_32">
      <g>
       <use xlink:href="#m257841f293" x="254.058008" y="501.3525" style="stroke: #000000; stroke-width: 0.6"/>
      </g>
     </g>
    </g>
    <g id="xtick_17">
     <g id="line2d_33">
      <path d="M 270.144796 501.3525 
L 270.144796 57.8325 
" clip-path="url(#p6f6376b163)" style="fill: none; stroke-dasharray: 1.85,0.8; stroke-dashoffset: 0; stroke: #b0b0b0; stroke-opacity: 0.8; stroke-width: 0.5"/>
     </g>
     <g id="line2d_34">
      <g>
       <use xlink:href="#m257841f293" x="270.144796" y="501.3525" style="stroke: #000000; stroke-width: 0.6"/>
      </g>
     </g>
    </g>
    <g id="xtick_18">
     <g id="line2d_35">
      <path d="M 302.318372 501.3525 
L 302.318372 57.8325 
" clip-path="url(#p6f6376b163)" style="fill: none; stroke-dasharray: 1.85,0.8; stroke-dashoffset: 0; stroke: #b0b0b0; stroke-opacity: 0.8; stroke-width: 0.5"/>
     </g>
     <g id="line2d_36">
      <g>
       <use xlink:href="#m257841f293" x="302.318372" y="501.3525" style="stroke: #000000; stroke-width: 0.6"/>
      </g>
     </g>
    </g>
    <g id="xtick_19">
     <g id="line2d_37">
      <path d="M 318.405159 501.3525 
L 318.405159 57.8325 
" clip-path="url(#p6f6376b163)" style="fill: none; stroke-dasharray: 1.85,0.8; stroke-dashoffset: 0; stroke: #b0b0b0; stroke-opacity: 0.8; stroke-width: 0.5"/>
     </g>
     <g id="line2d_38">
      <g>
       <use xlink:href="#m257841f293" x="318.405159" y="501.3525" style="stroke: #000000; stroke-width: 0.6"/>
      </g>
     </g>
    </g>
    <g id="xtick_20">
     <g id="line2d_39">
      <path d="M 334.491947 501.3525 
L 334.491947 57.8325 
" clip-path="url(#p6f6376b163)" style="fill: none; stroke-dasharray: 1.85,0.8; stroke-dashoffset: 0; stroke: #b0b0b0; stroke-opacity: 0.8; stroke-width: 0.5"/>
     </g>
     <g id="line2d_40">
      <g>
       <use xlink:href="#m257841f293" x="334.491947" y="501.3525" style="stroke: #000000; stroke-width: 0.6"/>
      </g>
     </g>
    </g>
    <g id="xtick_21">
     <g id="line2d_41">
      <path d="M 350.578735 501.3525 
L 350.578735 57.8325 
" clip-path="url(#p6f6376b163)" style="fill: none; stroke-dasharray: 1.85,0.8; stroke-dashoffset: 0; stroke: #b0b0b0; stroke-opacity: 0.8; stroke-width: 0.5"/>
     </g>
     <g id="line2d_42">
      <g>
       <use xlink:href="#m257841f293" x="350.578735" y="501.3525" style="stroke: #000000; stroke-width: 0.6"/>
      </g>
     </g>
    </g>
    <g id="xtick_22">
     <g id="line2d_43">
      <path d="M 382.752311 501.3525 
L 382.752311 57.8325 
" clip-path="url(#p6f6376b163)" style="fill: none; stroke-dasharray: 1.85,0.8; stroke-dashoffset: 0; stroke: #b0b0b0; stroke-opacity: 0.8; stroke-width: 0.5"/>
     </g>
     <g id="line2d_44">
      <g>
       <use xlink:href="#m257841f293" x="382.752311" y="501.3525" style="stroke: #000000; stroke-width: 0.6"/>
      </g>
     </g>
    </g>
    <g id="xtick_23">
     <g id="line2d_45">
      <path d="M 398.839099 501.3525 
L 398.839099 57.8325 
" clip-path="url(#p6f6376b163)" style="fill: none; stroke-dasharray: 1.85,0.8; stroke-dashoffset: 0; stroke: #b0b0b0; stroke-opacity: 0.8; stroke-width: 0.5"/>
     </g>
     <g id="line2d_46">
      <g>
       <use xlink:href="#m257841f293" x="398.839099" y="501.3525" style="stroke: #000000; stroke-width: 0.6"/>
      </g>
     </g>
    </g>
    <g id="xtick_24">
     <g id="line2d_47">
      <path d="M 414.925887 501.3525 
L 414.925887 57.8325 
" clip-path="url(#p6f6376b163)" style="fill: none; stroke-dasharray: 1.85,0.8; stroke-dashoffset: 0; stroke: #b0b0b0; stroke-opacity: 0.8; stroke-width: 0.5"/>
     </g>
     <g id="line2d_48">
      <g>
       <use xlink:href="#m257841f293" x="414.925887" y="501.3525" style="stroke: #000000; stroke-width: 0.6"/>
      </g>
     </g>
    </g>
    <g id="xtick_25">
     <g id="line2d_49">
      <path d="M 431.012675 501.3525 
L 431.012675 57.8325 
" clip-path="url(#p6f6376b163)" style="fill: none; stroke-dasharray: 1.85,0.8; stroke-dashoffset: 0; stroke: #b0b0b0; stroke-opacity: 0.8; stroke-width: 0.5"/>
     </g>
     <g id="line2d_50">
      <g>
       <use xlink:href="#m257841f293" x="431.012675" y="501.3525" style="stroke: #000000; stroke-width: 0.6"/>
      </g>
     </g>
    </g>
    <g id="xtick_26">
     <g id="line2d_51">
      <path d="M 463.186251 501.3525 
L 463.186251 57.8325 
" clip-path="url(#p6f6376b163)" style="fill: none; stroke-dasharray: 1.85,0.8; stroke-dashoffset: 0; stroke: #b0b0b0; stroke-opacity: 0.8; stroke-width: 0.5"/>
     </g>
     <g id="line2d_52">
      <g>
       <use xlink:href="#m257841f293" x="463.186251" y="501.3525" style="stroke: #000000; stroke-width: 0.6"/>
      </g>
     </g>
    </g>
    <g id="xtick_27">
     <g id="line2d_53">
      <path d="M 479.273039 501.3525 
L 479.273039 57.8325 
" clip-path="url(#p6f6376b163)" style="fill: none; stroke-dasharray: 1.85,0.8; stroke-dashoffset: 0; stroke: #b0b0b0; stroke-opacity: 0.8; stroke-width: 0.5"/>
     </g>
     <g id="line2d_54">
      <g>
       <use xlink:href="#m257841f293" x="479.273039" y="501.3525" style="stroke: #000000; stroke-width: 0.6"/>
      </g>
     </g>
    </g>
    <g id="xtick_28">
     <g id="line2d_55">
      <path d="M 495.359827 501.3525 
L 495.359827 57.8325 
" clip-path="url(#p6f6376b163)" style="fill: none; stroke-dasharray: 1.85,0.8; stroke-dashoffset: 0; stroke: #b0b0b0; stroke-opacity: 0.8; stroke-width: 0.5"/>
     </g>
     <g id="line2d_56">
      <g>
       <use xlink:href="#m257841f293" x="495.359827" y="501.3525" style="stroke: #000000; stroke-width: 0.6"/>
      </g>
     </g>
    </g>
    <g id="xtick_29">
     <g id="line2d_57">
      <path d="M 511.446615 501.3525 
L 511.446615 57.8325 
" clip-path="url(#p6f6376b163)" style="fill: none; stroke-dasharray: 1.85,0.8; stroke-dashoffset: 0; stroke: #b0b0b0; stroke-opacity: 0.8; stroke-width: 0.5"/>
     </g>
     <g id="line2d_58">
      <g>
       <use xlink:href="#m257841f293" x="511.446615" y="501.3525" style="stroke: #000000; stroke-width: 0.6"/>
      </g>
     </g>
    </g>
    <g id="xtick_30">
     <g id="line2d_59">
      <path d="M 543.620191 501.3525 
L 543.620191 57.8325 
" clip-path="url(#p6f6376b163)" style="fill: none; stroke-dasharray: 1.85,0.8; stroke-dashoffset: 0; stroke: #b0b0b0; stroke-opacity: 0.8; stroke-width: 0.5"/>
     </g>
     <g id="line2d_60">
      <g>
       <use xlink:href="#m257841f293" x="543.620191" y="501.3525" style="stroke: #000000; stroke-width: 0.6"/>
      </g>
     </g>
    </g>
    <g id="xtick_31">
     <g id="line2d_61">
      <path d="M 559.706978 501.3525 
L 559.706978 57.8325 
" clip-path="url(#p6f6376b163)" style="fill: none; stroke-dasharray: 1.85,0.8; stroke-dashoffset: 0; stroke: #b0b0b0; stroke-opacity: 0.8; stroke-width: 0.5"/>
     </g>
     <g id="line2d_62">
      <g>
       <use xlink:href="#m257841f293" x="559.706978" y="501.3525" style="stroke: #000000; stroke-width: 0.6"/>
      </g>
     </g>
    </g>
    <g id="xtick_32">
     <g id="line2d_63">
      <path d="M 575.793766 501.3525 
L 575.793766 57.8325 
" clip-path="url(#p6f6376b163)" style="fill: none; stroke-dasharray: 1.85,0.8; stroke-dashoffset: 0; stroke: #b0b0b0; stroke-opacity: 0.8; stroke-width: 0.5"/>
     </g>
     <g id="line2d_64">
      <g>
       <use xlink:href="#m257841f293" x="575.793766" y="501.3525" style="stroke: #000000; stroke-width: 0.6"/>
      </g>
     </g>
    </g>
    <g id="xtick_33">
     <g id="line2d_65">
      <path d="M 591.880554 501.3525 
L 591.880554 57.8325 
" clip-path="url(#p6f6376b163)" style="fill: none; stroke-dasharray: 1.85,0.8; stroke-dashoffset: 0; stroke: #b0b0b0; stroke-opacity: 0.8; stroke-width: 0.5"/>
     </g>
     <g id="line2d_66">
      <g>
       <use xlink:href="#m257841f293" x="591.880554" y="501.3525" style="stroke: #000000; stroke-width: 0.6"/>
      </g>
     </g>
    </g>
    <g id="xtick_34">
     <g id="line2d_67">
      <path d="M 624.05413 501.3525 
L 624.05413 57.8325 
" clip-path="url(#p6f6376b163)" style="fill: none; stroke-dasharray: 1.85,0.8; stroke-dashoffset: 0; stroke: #b0b0b0; stroke-opacity: 0.8; stroke-width: 0.5"/>
     </g>
     <g id="line2d_68">
      <g>
       <use xlink:href="#m257841f293" x="624.05413" y="501.3525" style="stroke: #000000; stroke-width: 0.6"/>
      </g>
     </g>
    </g>
    <g id="xtick_35">
     <g id="line2d_69">
      <path d="M 640.140918 501.3525 
L 640.140918 57.8325 
" clip-path="url(#p6f6376b163)" style="fill: none; stroke-dasharray: 1.85,0.8; stroke-dashoffset: 0; stroke: #b0b0b0; stroke-opacity: 0.8; stroke-width: 0.5"/>
     </g>
     <g id="line2d_70">
      <g>
       <use xlink:href="#m257841f293" x="640.140918" y="501.3525" style="stroke: #000000; stroke-width: 0.6"/>
      </g>
     </g>
    </g>
    <g id="xtick_36">
     <g id="line2d_71">
      <path d="M 656.227706 501.3525 
L 656.227706 57.8325 
" clip-path="url(#p6f6376b163)" style="fill: none; stroke-dasharray: 1.85,0.8; stroke-dashoffset: 0; stroke: #b0b0b0; stroke-opacity: 0.8; stroke-width: 0.5"/>
     </g>
     <g id="line2d_72">
      <g>
       <use xlink:href="#m257841f293" x="656.227706" y="501.3525" style="stroke: #000000; stroke-width: 0.6"/>
      </g>
     </g>
    </g>
    <g id="xtick_37">
     <g id="line2d_73">
      <path d="M 672.314494 501.3525 
L 672.314494 57.8325 
" clip-path="url(#p6f6376b163)" style="fill: none; stroke-dasharray: 1.85,0.8; stroke-dashoffset: 0; stroke: #b0b0b0; stroke-opacity: 0.8; stroke-width: 0.5"/>
     </g>
     <g id="line2d_74">
      <g>
       <use xlink:href="#m257841f293" x="672.314494" y="501.3525" style="stroke: #000000; stroke-width: 0.6"/>
      </g>
     </g>
    </g>
    <g id="xtick_38">
     <g id="line2d_75">
      <path d="M 704.48807 501.3525 
L 704.48807 57.8325 
" clip-path="url(#p6f6376b163)" style="fill: none; stroke-dasharray: 1.85,0.8; stroke-dashoffset: 0; stroke: #b0b0b0; stroke-opacity: 0.8; stroke-width: 0.5"/>
     </g>
     <g id="line2d_76">
      <g>
       <use xlink:href="#m257841f293" x="704.48807" y="501.3525" style="stroke: #000000; stroke-width: 0.6"/>
      </g>
     </g>
    </g>
    <g id="xtick_39">
     <g id="line2d_77">
      <path d="M 720.574858 501.3525 
L 720.574858 57.8325 
" clip-path="url(#p6f6376b163)" style="fill: none; stroke-dasharray: 1.85,0.8; stroke-dashoffset: 0; stroke: #b0b0b0; stroke-opacity: 0.8; stroke-width: 0.5"/>
     </g>
     <g id="line2d_78">
      <g>
       <use xlink:href="#m257841f293" x="720.574858" y="501.3525" style="stroke: #000000; stroke-width: 0.6"/>
      </g>
     </g>
    </g>
    <g id="xtick_40">
     <g id="line2d_79">
      <path d="M 736.661646 501.3525 
L 736.661646 57.8325 
" clip-path="url(#p6f6376b163)" style="fill: none; stroke-dasharray: 1.85,0.8; stroke-dashoffset: 0; stroke: #b0b0b0; stroke-opacity: 0.8; stroke-width: 0.5"/>
     </g>
     <g id="line2d_80">
      <g>
       <use xlink:href="#m257841f293" x="736.661646" y="501.3525" style="stroke: #000000; stroke-width: 0.6"/>
      </g>
     </g>
    </g>
    <g id="xtick_41">
     <g id="line2d_81">
      <path d="M 752.748434 501.3525 
L 752.748434 57.8325 
" clip-path="url(#p6f6376b163)" style="fill: none; stroke-dasharray: 1.85,0.8; stroke-dashoffset: 0; stroke: #b0b0b0; stroke-opacity: 0.8; stroke-width: 0.5"/>
     </g>
     <g id="line2d_82">
      <g>
       <use xlink:href="#m257841f293" x="752.748434" y="501.3525" style="stroke: #000000; stroke-width: 0.6"/>
      </g>
     </g>
    </g>
    <g id="text_9">
     <!-- Time (S) -->
     <g transform="translate(396.990625 542.305625) scale(0.2 -0.2)">
      <defs>
       <path id="AptosDisplay-54" d="M 1244 0 
L 1244 3734 
L 50 3734 
L 50 4206 
L 2997 4206 
L 2997 3734 
L 1806 3734 
L 1806 0 
L 1244 0 
z
" transform="scale(0.015625)"/>
       <path id="AptosDisplay-69" d="M 413 0 
L 413 3044 
L 934 3044 
L 934 0 
L 413 0 
z
M 675 3616 
Q 525 3616 437 3702 
Q 350 3788 350 3919 
Q 350 4050 437 4136 
Q 525 4222 675 4222 
Q 822 4222 912 4136 
Q 1003 4050 1003 3919 
Q 1003 3788 912 3702 
Q 822 3616 675 3616 
z
" transform="scale(0.015625)"/>
       <path id="AptosDisplay-6d" d="M 413 0 
L 413 3044 
L 919 3044 
L 931 2575 
Q 1063 2756 1303 2914 
Q 1544 3072 1903 3072 
Q 2403 3072 2618 2778 
Q 2834 2484 2834 1963 
L 2834 0 
L 2316 0 
L 2316 1891 
Q 2316 2106 2275 2275 
Q 2234 2444 2120 2539 
Q 2006 2634 1788 2634 
Q 1488 2634 1277 2482 
Q 1066 2331 934 2156 
L 934 0 
L 413 0 
z
M 4206 0 
L 4206 1891 
Q 4206 2106 4164 2275 
Q 4122 2444 4009 2539 
Q 3897 2634 3681 2634 
Q 3381 2634 3165 2484 
Q 2950 2334 2822 2159 
L 2744 2544 
Q 2916 2741 3175 2906 
Q 3434 3072 3800 3072 
Q 4291 3072 4509 2778 
Q 4728 2484 4728 1963 
L 4728 0 
L 4206 0 
z
" transform="scale(0.015625)"/>
       <path id="AptosDisplay-65" d="M 1663 -56 
Q 1188 -56 878 151 
Q 569 359 417 717 
Q 266 1075 266 1522 
Q 266 1988 412 2342 
Q 559 2697 857 2897 
Q 1156 3097 1606 3097 
Q 2209 3097 2550 2722 
Q 2891 2347 2891 1644 
Q 2891 1597 2889 1533 
Q 2888 1469 2881 1441 
L 791 1441 
Q 794 1144 881 895 
Q 969 647 1161 497 
Q 1353 347 1663 347 
Q 1997 347 2183 511 
Q 2369 675 2378 984 
L 2894 984 
Q 2884 663 2732 430 
Q 2581 197 2309 70 
Q 2038 -56 1663 -56 
z
M 794 1822 
L 2375 1822 
Q 2366 2247 2166 2472 
Q 1966 2697 1606 2697 
Q 1241 2697 1036 2473 
Q 831 2250 794 1822 
z
" transform="scale(0.015625)"/>
       <path id="AptosDisplay-20" transform="scale(0.015625)"/>
       <path id="AptosDisplay-28" d="M 1219 -1116 
Q 969 -678 787 -267 
Q 606 144 511 581 
Q 416 1019 416 1528 
Q 416 2028 509 2486 
Q 603 2944 783 3378 
Q 963 3813 1219 4231 
L 1647 4231 
Q 1278 3600 1101 2886 
Q 925 2172 925 1428 
Q 925 766 1125 103 
Q 1325 -559 1647 -1116 
L 1219 -1116 
z
" transform="scale(0.015625)"/>
       <path id="AptosDisplay-53" d="M 1778 -56 
Q 1328 -56 962 81 
Q 597 219 384 512 
Q 172 806 172 1275 
L 734 1275 
Q 738 941 883 750 
Q 1028 559 1267 481 
Q 1506 403 1794 403 
Q 2063 403 2283 483 
Q 2503 563 2634 723 
Q 2766 884 2766 1134 
Q 2766 1356 2662 1497 
Q 2559 1638 2321 1742 
Q 2084 1847 1678 1950 
Q 1203 2075 897 2223 
Q 591 2372 442 2594 
Q 294 2816 294 3156 
Q 294 3516 462 3761 
Q 631 4006 945 4134 
Q 1259 4263 1697 4263 
Q 2103 4263 2440 4131 
Q 2778 4000 2979 3737 
Q 3181 3475 3181 3084 
L 2616 3084 
Q 2622 3441 2356 3623 
Q 2091 3806 1700 3806 
Q 1300 3806 1073 3645 
Q 847 3484 847 3175 
Q 847 2991 944 2867 
Q 1041 2744 1280 2644 
Q 1519 2544 1941 2434 
Q 2428 2303 2731 2153 
Q 3034 2003 3178 1768 
Q 3322 1534 3322 1153 
Q 3322 747 3117 480 
Q 2913 213 2564 78 
Q 2216 -56 1778 -56 
z
" transform="scale(0.015625)"/>
       <path id="AptosDisplay-29" d="M 234 -1116 
Q 609 -481 786 233 
Q 963 947 963 1694 
Q 963 2356 759 3015 
Q 556 3675 234 4231 
L 663 4231 
Q 919 3800 1098 3389 
Q 1278 2978 1373 2540 
Q 1469 2103 1469 1594 
Q 1469 1094 1375 634 
Q 1281 175 1100 -259 
Q 919 -694 663 -1116 
L 234 -1116 
z
" transform="scale(0.015625)"/>
      </defs>
      <use xlink:href="#AptosDisplay-54"/>
      <use xlink:href="#AptosDisplay-69" x="47.705078"/>
      <use xlink:href="#AptosDisplay-6d" x="68.75"/>
      <use xlink:href="#AptosDisplay-65" x="148.730469"/>
      <use xlink:href="#AptosDisplay-20" x="198.144531"/>
      <use xlink:href="#AptosDisplay-28" x="217.431641"/>
      <use xlink:href="#AptosDisplay-53" x="246.875"/>
      <use xlink:href="#AptosDisplay-29" x="301.464844"/>
     </g>
    </g>
   </g>
   <g id="matplotlib.axis_2">
    <g id="ytick_1">
     <g id="line2d_83">
      <path d="M 95.28125 467.47082 
L 764.88125 467.47082 
" clip-path="url(#p6f6376b163)" style="fill: none; stroke: #b0b0b0; stroke-opacity: 0.8; stroke-linecap: square"/>
     </g>
     <g id="line2d_84">
      <defs>
       <path id="m728307a822" d="M 0 0 
L -3.5 0 
" style="stroke: #000000; stroke-width: 0.8"/>
      </defs>
      <g>
       <use xlink:href="#m728307a822" x="95.28125" y="467.47082" style="stroke: #000000; stroke-width: 0.8"/>
      </g>
     </g>
     <g id="text_10">
      <!-- 800 -->
      <g transform="translate(56.903125 474.042695) scale(0.2 -0.2)">
       <defs>
        <path id="AptosDisplay-38" d="M 1675 -56 
Q 1391 -56 1137 16 
Q 884 88 686 234 
Q 488 381 373 606 
Q 259 831 259 1141 
Q 259 1531 495 1797 
Q 731 2063 1084 2150 
Q 781 2250 604 2490 
Q 428 2731 428 3081 
Q 428 3447 609 3681 
Q 791 3916 1075 4025 
Q 1359 4134 1669 4134 
Q 1981 4134 2265 4023 
Q 2550 3913 2733 3680 
Q 2916 3447 2916 3081 
Q 2916 2725 2716 2481 
Q 2516 2238 2238 2150 
Q 2606 2063 2843 1800 
Q 3081 1538 3081 1141 
Q 3081 831 2968 606 
Q 2856 381 2661 234 
Q 2466 88 2211 16 
Q 1956 -56 1675 -56 
z
M 1672 388 
Q 1909 388 2109 470 
Q 2309 553 2429 725 
Q 2550 897 2550 1163 
Q 2550 1416 2426 1587 
Q 2303 1759 2104 1846 
Q 1906 1934 1672 1928 
Q 1453 1934 1253 1850 
Q 1053 1766 926 1594 
Q 800 1422 800 1163 
Q 800 775 1058 581 
Q 1316 388 1672 388 
z
M 1672 2363 
Q 1863 2356 2030 2434 
Q 2197 2513 2300 2667 
Q 2403 2822 2403 3050 
Q 2403 3388 2189 3544 
Q 1975 3700 1675 3700 
Q 1484 3700 1317 3631 
Q 1150 3563 1047 3419 
Q 944 3275 944 3050 
Q 944 2825 1048 2670 
Q 1153 2516 1320 2436 
Q 1488 2356 1672 2363 
z
" transform="scale(0.015625)"/>
       </defs>
       <use xlink:href="#AptosDisplay-38"/>
       <use xlink:href="#AptosDisplay-30" x="52.294922"/>
       <use xlink:href="#AptosDisplay-30" x="104.589844"/>
      </g>
     </g>
    </g>
    <g id="ytick_2">
     <g id="line2d_85">
      <path d="M 95.28125 409.030956 
L 764.88125 409.030956 
" clip-path="url(#p6f6376b163)" style="fill: none; stroke: #b0b0b0; stroke-opacity: 0.8; stroke-linecap: square"/>
     </g>
     <g id="line2d_86">
      <g>
       <use xlink:href="#m728307a822" x="95.28125" y="409.030956" style="stroke: #000000; stroke-width: 0.8"/>
      </g>
     </g>
     <g id="text_11">
      <!-- 820 -->
      <g transform="translate(56.903125 415.602831) scale(0.2 -0.2)">
       <use xlink:href="#AptosDisplay-38"/>
       <use xlink:href="#AptosDisplay-32" x="52.294922"/>
       <use xlink:href="#AptosDisplay-30" x="104.589844"/>
      </g>
     </g>
    </g>
    <g id="ytick_3">
     <g id="line2d_87">
      <path d="M 95.28125 350.591091 
L 764.88125 350.591091 
" clip-path="url(#p6f6376b163)" style="fill: none; stroke: #b0b0b0; stroke-opacity: 0.8; stroke-linecap: square"/>
     </g>
     <g id="line2d_88">
      <g>
       <use xlink:href="#m728307a822" x="95.28125" y="350.591091" style="stroke: #000000; stroke-width: 0.8"/>
      </g>
     </g>
     <g id="text_12">
      <!-- 840 -->
      <g transform="translate(56.903125 357.162966) scale(0.2 -0.2)">
       <defs>
        <path id="AptosDisplay-34" d="M 2106 0 
L 2106 825 
L 125 825 
L 125 1297 
L 2100 4103 
L 2631 4103 
L 2631 1284 
L 3191 1284 
L 3191 825 
L 2631 825 
L 2631 0 
L 2106 0 
z
M 638 1284 
L 2113 1284 
L 2113 3369 
L 638 1284 
z
" transform="scale(0.015625)"/>
       </defs>
       <use xlink:href="#AptosDisplay-38"/>
       <use xlink:href="#AptosDisplay-34" x="52.294922"/>
       <use xlink:href="#AptosDisplay-30" x="104.589844"/>
      </g>
     </g>
    </g>
    <g id="ytick_4">
     <g id="line2d_89">
      <path d="M 95.28125 292.151227 
L 764.88125 292.151227 
" clip-path="url(#p6f6376b163)" style="fill: none; stroke: #b0b0b0; stroke-opacity: 0.8; stroke-linecap: square"/>
     </g>
     <g id="line2d_90">
      <g>
       <use xlink:href="#m728307a822" x="95.28125" y="292.151227" style="stroke: #000000; stroke-width: 0.8"/>
      </g>
     </g>
     <g id="text_13">
      <!-- 860 -->
      <g transform="translate(56.903125 298.723102) scale(0.2 -0.2)">
       <defs>
        <path id="AptosDisplay-36" d="M 1759 -56 
Q 1325 -56 984 151 
Q 644 359 447 815 
Q 250 1272 250 2013 
Q 250 2738 439 3206 
Q 628 3675 968 3903 
Q 1309 4131 1759 4131 
Q 2253 4131 2595 3875 
Q 2938 3619 3034 3097 
L 2503 3097 
Q 2441 3388 2250 3534 
Q 2059 3681 1759 3681 
Q 1306 3681 1047 3279 
Q 788 2878 788 2013 
L 788 1850 
Q 788 1313 922 992 
Q 1056 672 1279 531 
Q 1503 391 1763 391 
Q 2175 391 2369 644 
Q 2563 897 2563 1272 
Q 2563 1650 2373 1869 
Q 2184 2088 1838 2088 
Q 1422 2088 1114 1897 
Q 806 1706 644 1456 
L 597 1856 
Q 728 2047 922 2201 
Q 1116 2356 1362 2447 
Q 1609 2538 1909 2538 
Q 2253 2538 2523 2395 
Q 2794 2253 2951 1975 
Q 3109 1697 3109 1291 
Q 3109 897 2951 592 
Q 2794 288 2492 116 
Q 2191 -56 1759 -56 
z
" transform="scale(0.015625)"/>
       </defs>
       <use xlink:href="#AptosDisplay-38"/>
       <use xlink:href="#AptosDisplay-36" x="52.294922"/>
       <use xlink:href="#AptosDisplay-30" x="104.589844"/>
      </g>
     </g>
    </g>
    <g id="ytick_5">
     <g id="line2d_91">
      <path d="M 95.28125 233.711363 
L 764.88125 233.711363 
" clip-path="url(#p6f6376b163)" style="fill: none; stroke: #b0b0b0; stroke-opacity: 0.8; stroke-linecap: square"/>
     </g>
     <g id="line2d_92">
      <g>
       <use xlink:href="#m728307a822" x="95.28125" y="233.711363" style="stroke: #000000; stroke-width: 0.8"/>
      </g>
     </g>
     <g id="text_14">
      <!-- 880 -->
      <g transform="translate(56.903125 240.283238) scale(0.2 -0.2)">
       <use xlink:href="#AptosDisplay-38"/>
       <use xlink:href="#AptosDisplay-38" x="52.294922"/>
       <use xlink:href="#AptosDisplay-30" x="104.589844"/>
      </g>
     </g>
    </g>
    <g id="ytick_6">
     <g id="line2d_93">
      <path d="M 95.28125 175.271498 
L 764.88125 175.271498 
" clip-path="url(#p6f6376b163)" style="fill: none; stroke: #b0b0b0; stroke-opacity: 0.8; stroke-linecap: square"/>
     </g>
     <g id="line2d_94">
      <g>
       <use xlink:href="#m728307a822" x="95.28125" y="175.271498" style="stroke: #000000; stroke-width: 0.8"/>
      </g>
     </g>
     <g id="text_15">
      <!-- 900 -->
      <g transform="translate(56.903125 181.843373) scale(0.2 -0.2)">
       <defs>
        <path id="AptosDisplay-39" d="M 1547 -56 
Q 1200 -56 926 64 
Q 653 184 481 415 
Q 309 647 256 978 
L 788 978 
Q 834 713 1029 552 
Q 1225 391 1547 391 
Q 2022 391 2294 778 
Q 2566 1166 2566 2019 
L 2566 2197 
Q 2566 2753 2439 3079 
Q 2313 3406 2102 3547 
Q 1891 3688 1634 3688 
Q 1206 3688 998 3433 
Q 791 3178 791 2800 
Q 791 2422 991 2203 
Q 1191 1984 1547 1984 
Q 1831 1984 2045 2071 
Q 2259 2159 2417 2300 
Q 2575 2441 2681 2594 
L 2731 2209 
Q 2609 2038 2432 1884 
Q 2256 1731 2020 1634 
Q 1784 1538 1484 1538 
Q 1122 1538 842 1683 
Q 563 1828 405 2108 
Q 247 2388 247 2784 
Q 247 3175 414 3479 
Q 581 3784 892 3959 
Q 1203 4134 1631 4134 
Q 2056 4134 2389 3926 
Q 2722 3719 2914 3262 
Q 3106 2806 3106 2066 
Q 3106 1338 2912 869 
Q 2719 400 2369 172 
Q 2019 -56 1547 -56 
z
" transform="scale(0.015625)"/>
       </defs>
       <use xlink:href="#AptosDisplay-39"/>
       <use xlink:href="#AptosDisplay-30" x="52.294922"/>
       <use xlink:href="#AptosDisplay-30" x="104.589844"/>
      </g>
     </g>
    </g>
    <g id="ytick_7">
     <g id="line2d_95">
      <path d="M 95.28125 116.831634 
L 764.88125 116.831634 
" clip-path="url(#p6f6376b163)" style="fill: none; stroke: #b0b0b0; stroke-opacity: 0.8; stroke-linecap: square"/>
     </g>
     <g id="line2d_96">
      <g>
       <use xlink:href="#m728307a822" x="95.28125" y="116.831634" style="stroke: #000000; stroke-width: 0.8"/>
      </g>
     </g>
     <g id="text_16">
      <!-- 920 -->
      <g transform="translate(56.903125 123.403509) scale(0.2 -0.2)">
       <use xlink:href="#AptosDisplay-39"/>
       <use xlink:href="#AptosDisplay-32" x="52.294922"/>
       <use xlink:href="#AptosDisplay-30" x="104.589844"/>
      </g>
     </g>
    </g>
    <g id="ytick_8">
     <g id="line2d_97">
      <path d="M 95.28125 58.39177 
L 764.88125 58.39177 
" clip-path="url(#p6f6376b163)" style="fill: none; stroke: #b0b0b0; stroke-opacity: 0.8; stroke-linecap: square"/>
     </g>
     <g id="line2d_98">
      <g>
       <use xlink:href="#m728307a822" x="95.28125" y="58.39177" style="stroke: #000000; stroke-width: 0.8"/>
      </g>
     </g>
     <g id="text_17">
      <!-- 940 -->
      <g transform="translate(56.903125 64.963645) scale(0.2 -0.2)">
       <use xlink:href="#AptosDisplay-39"/>
       <use xlink:href="#AptosDisplay-34" x="52.294922"/>
       <use xlink:href="#AptosDisplay-30" x="104.589844"/>
      </g>
     </g>
    </g>
    <g id="ytick_9">
     <g id="line2d_99">
      <path d="M 95.28125 496.690752 
L 764.88125 496.690752 
" clip-path="url(#p6f6376b163)" style="fill: none; stroke-dasharray: 1.85,0.8; stroke-dashoffset: 0; stroke: #b0b0b0; stroke-opacity: 0.8; stroke-width: 0.5"/>
     </g>
     <g id="line2d_100">
      <defs>
       <path id="me958af4a7b" d="M 0 0 
L -2 0 
" style="stroke: #000000; stroke-width: 0.6"/>
      </defs>
      <g>
       <use xlink:href="#me958af4a7b" x="95.28125" y="496.690752" style="stroke: #000000; stroke-width: 0.6"/>
      </g>
     </g>
    </g>
    <g id="ytick_10">
     <g id="line2d_101">
      <path d="M 95.28125 482.080786 
L 764.88125 482.080786 
" clip-path="url(#p6f6376b163)" style="fill: none; stroke-dasharray: 1.85,0.8; stroke-dashoffset: 0; stroke: #b0b0b0; stroke-opacity: 0.8; stroke-width: 0.5"/>
     </g>
     <g id="line2d_102">
      <g>
       <use xlink:href="#me958af4a7b" x="95.28125" y="482.080786" style="stroke: #000000; stroke-width: 0.6"/>
      </g>
     </g>
    </g>
    <g id="ytick_11">
     <g id="line2d_103">
      <path d="M 95.28125 452.860854 
L 764.88125 452.860854 
" clip-path="url(#p6f6376b163)" style="fill: none; stroke-dasharray: 1.85,0.8; stroke-dashoffset: 0; stroke: #b0b0b0; stroke-opacity: 0.8; stroke-width: 0.5"/>
     </g>
     <g id="line2d_104">
      <g>
       <use xlink:href="#me958af4a7b" x="95.28125" y="452.860854" style="stroke: #000000; stroke-width: 0.6"/>
      </g>
     </g>
    </g>
    <g id="ytick_12">
     <g id="line2d_105">
      <path d="M 95.28125 438.250888 
L 764.88125 438.250888 
" clip-path="url(#p6f6376b163)" style="fill: none; stroke-dasharray: 1.85,0.8; stroke-dashoffset: 0; stroke: #b0b0b0; stroke-opacity: 0.8; stroke-width: 0.5"/>
     </g>
     <g id="line2d_106">
      <g>
       <use xlink:href="#me958af4a7b" x="95.28125" y="438.250888" style="stroke: #000000; stroke-width: 0.6"/>
      </g>
     </g>
    </g>
    <g id="ytick_13">
     <g id="line2d_107">
      <path d="M 95.28125 423.640922 
L 764.88125 423.640922 
" clip-path="url(#p6f6376b163)" style="fill: none; stroke-dasharray: 1.85,0.8; stroke-dashoffset: 0; stroke: #b0b0b0; stroke-opacity: 0.8; stroke-width: 0.5"/>
     </g>
     <g id="line2d_108">
      <g>
       <use xlink:href="#me958af4a7b" x="95.28125" y="423.640922" style="stroke: #000000; stroke-width: 0.6"/>
      </g>
     </g>
    </g>
    <g id="ytick_14">
     <g id="line2d_109">
      <path d="M 95.28125 394.420989 
L 764.88125 394.420989 
" clip-path="url(#p6f6376b163)" style="fill: none; stroke-dasharray: 1.85,0.8; stroke-dashoffset: 0; stroke: #b0b0b0; stroke-opacity: 0.8; stroke-width: 0.5"/>
     </g>
     <g id="line2d_110">
      <g>
       <use xlink:href="#me958af4a7b" x="95.28125" y="394.420989" style="stroke: #000000; stroke-width: 0.6"/>
      </g>
     </g>
    </g>
    <g id="ytick_15">
     <g id="line2d_111">
      <path d="M 95.28125 379.811023 
L 764.88125 379.811023 
" clip-path="url(#p6f6376b163)" style="fill: none; stroke-dasharray: 1.85,0.8; stroke-dashoffset: 0; stroke: #b0b0b0; stroke-opacity: 0.8; stroke-width: 0.5"/>
     </g>
     <g id="line2d_112">
      <g>
       <use xlink:href="#me958af4a7b" x="95.28125" y="379.811023" style="stroke: #000000; stroke-width: 0.6"/>
      </g>
     </g>
    </g>
    <g id="ytick_16">
     <g id="line2d_113">
      <path d="M 95.28125 365.201057 
L 764.88125 365.201057 
" clip-path="url(#p6f6376b163)" style="fill: none; stroke-dasharray: 1.85,0.8; stroke-dashoffset: 0; stroke: #b0b0b0; stroke-opacity: 0.8; stroke-width: 0.5"/>
     </g>
     <g id="line2d_114">
      <g>
       <use xlink:href="#me958af4a7b" x="95.28125" y="365.201057" style="stroke: #000000; stroke-width: 0.6"/>
      </g>
     </g>
    </g>
    <g id="ytick_17">
     <g id="line2d_115">
      <path d="M 95.28125 335.981125 
L 764.88125 335.981125 
" clip-path="url(#p6f6376b163)" style="fill: none; stroke-dasharray: 1.85,0.8; stroke-dashoffset: 0; stroke: #b0b0b0; stroke-opacity: 0.8; stroke-width: 0.5"/>
     </g>
     <g id="line2d_116">
      <g>
       <use xlink:href="#me958af4a7b" x="95.28125" y="335.981125" style="stroke: #000000; stroke-width: 0.6"/>
      </g>
     </g>
    </g>
    <g id="ytick_18">
     <g id="line2d_117">
      <path d="M 95.28125 321.371159 
L 764.88125 321.371159 
" clip-path="url(#p6f6376b163)" style="fill: none; stroke-dasharray: 1.85,0.8; stroke-dashoffset: 0; stroke: #b0b0b0; stroke-opacity: 0.8; stroke-width: 0.5"/>
     </g>
     <g id="line2d_118">
      <g>
       <use xlink:href="#me958af4a7b" x="95.28125" y="321.371159" style="stroke: #000000; stroke-width: 0.6"/>
      </g>
     </g>
    </g>
    <g id="ytick_19">
     <g id="line2d_119">
      <path d="M 95.28125 306.761193 
L 764.88125 306.761193 
" clip-path="url(#p6f6376b163)" style="fill: none; stroke-dasharray: 1.85,0.8; stroke-dashoffset: 0; stroke: #b0b0b0; stroke-opacity: 0.8; stroke-width: 0.5"/>
     </g>
     <g id="line2d_120">
      <g>
       <use xlink:href="#me958af4a7b" x="95.28125" y="306.761193" style="stroke: #000000; stroke-width: 0.6"/>
      </g>
     </g>
    </g>
    <g id="ytick_20">
     <g id="line2d_121">
      <path d="M 95.28125 277.541261 
L 764.88125 277.541261 
" clip-path="url(#p6f6376b163)" style="fill: none; stroke-dasharray: 1.85,0.8; stroke-dashoffset: 0; stroke: #b0b0b0; stroke-opacity: 0.8; stroke-width: 0.5"/>
     </g>
     <g id="line2d_122">
      <g>
       <use xlink:href="#me958af4a7b" x="95.28125" y="277.541261" style="stroke: #000000; stroke-width: 0.6"/>
      </g>
     </g>
    </g>
    <g id="ytick_21">
     <g id="line2d_123">
      <path d="M 95.28125 262.931295 
L 764.88125 262.931295 
" clip-path="url(#p6f6376b163)" style="fill: none; stroke-dasharray: 1.85,0.8; stroke-dashoffset: 0; stroke: #b0b0b0; stroke-opacity: 0.8; stroke-width: 0.5"/>
     </g>
     <g id="line2d_124">
      <g>
       <use xlink:href="#me958af4a7b" x="95.28125" y="262.931295" style="stroke: #000000; stroke-width: 0.6"/>
      </g>
     </g>
    </g>
    <g id="ytick_22">
     <g id="line2d_125">
      <path d="M 95.28125 248.321329 
L 764.88125 248.321329 
" clip-path="url(#p6f6376b163)" style="fill: none; stroke-dasharray: 1.85,0.8; stroke-dashoffset: 0; stroke: #b0b0b0; stroke-opacity: 0.8; stroke-width: 0.5"/>
     </g>
     <g id="line2d_126">
      <g>
       <use xlink:href="#me958af4a7b" x="95.28125" y="248.321329" style="stroke: #000000; stroke-width: 0.6"/>
      </g>
     </g>
    </g>
    <g id="ytick_23">
     <g id="line2d_127">
      <path d="M 95.28125 219.101396 
L 764.88125 219.101396 
" clip-path="url(#p6f6376b163)" style="fill: none; stroke-dasharray: 1.85,0.8; stroke-dashoffset: 0; stroke: #b0b0b0; stroke-opacity: 0.8; stroke-width: 0.5"/>
     </g>
     <g id="line2d_128">
      <g>
       <use xlink:href="#me958af4a7b" x="95.28125" y="219.101396" style="stroke: #000000; stroke-width: 0.6"/>
      </g>
     </g>
    </g>
    <g id="ytick_24">
     <g id="line2d_129">
      <path d="M 95.28125 204.49143 
L 764.88125 204.49143 
" clip-path="url(#p6f6376b163)" style="fill: none; stroke-dasharray: 1.85,0.8; stroke-dashoffset: 0; stroke: #b0b0b0; stroke-opacity: 0.8; stroke-width: 0.5"/>
     </g>
     <g id="line2d_130">
      <g>
       <use xlink:href="#me958af4a7b" x="95.28125" y="204.49143" style="stroke: #000000; stroke-width: 0.6"/>
      </g>
     </g>
    </g>
    <g id="ytick_25">
     <g id="line2d_131">
      <path d="M 95.28125 189.881464 
L 764.88125 189.881464 
" clip-path="url(#p6f6376b163)" style="fill: none; stroke-dasharray: 1.85,0.8; stroke-dashoffset: 0; stroke: #b0b0b0; stroke-opacity: 0.8; stroke-width: 0.5"/>
     </g>
     <g id="line2d_132">
      <g>
       <use xlink:href="#me958af4a7b" x="95.28125" y="189.881464" style="stroke: #000000; stroke-width: 0.6"/>
      </g>
     </g>
    </g>
    <g id="ytick_26">
     <g id="line2d_133">
      <path d="M 95.28125 160.661532 
L 764.88125 160.661532 
" clip-path="url(#p6f6376b163)" style="fill: none; stroke-dasharray: 1.85,0.8; stroke-dashoffset: 0; stroke: #b0b0b0; stroke-opacity: 0.8; stroke-width: 0.5"/>
     </g>
     <g id="line2d_134">
      <g>
       <use xlink:href="#me958af4a7b" x="95.28125" y="160.661532" style="stroke: #000000; stroke-width: 0.6"/>
      </g>
     </g>
    </g>
    <g id="ytick_27">
     <g id="line2d_135">
      <path d="M 95.28125 146.051566 
L 764.88125 146.051566 
" clip-path="url(#p6f6376b163)" style="fill: none; stroke-dasharray: 1.85,0.8; stroke-dashoffset: 0; stroke: #b0b0b0; stroke-opacity: 0.8; stroke-width: 0.5"/>
     </g>
     <g id="line2d_136">
      <g>
       <use xlink:href="#me958af4a7b" x="95.28125" y="146.051566" style="stroke: #000000; stroke-width: 0.6"/>
      </g>
     </g>
    </g>
    <g id="ytick_28">
     <g id="line2d_137">
      <path d="M 95.28125 131.4416 
L 764.88125 131.4416 
" clip-path="url(#p6f6376b163)" style="fill: none; stroke-dasharray: 1.85,0.8; stroke-dashoffset: 0; stroke: #b0b0b0; stroke-opacity: 0.8; stroke-width: 0.5"/>
     </g>
     <g id="line2d_138">
      <g>
       <use xlink:href="#me958af4a7b" x="95.28125" y="131.4416" style="stroke: #000000; stroke-width: 0.6"/>
      </g>
     </g>
    </g>
    <g id="ytick_29">
     <g id="line2d_139">
      <path d="M 95.28125 102.221668 
L 764.88125 102.221668 
" clip-path="url(#p6f6376b163)" style="fill: none; stroke-dasharray: 1.85,0.8; stroke-dashoffset: 0; stroke: #b0b0b0; stroke-opacity: 0.8; stroke-width: 0.5"/>
     </g>
     <g id="line2d_140">
      <g>
       <use xlink:href="#me958af4a7b" x="95.28125" y="102.221668" style="stroke: #000000; stroke-width: 0.6"/>
      </g>
     </g>
    </g>
    <g id="ytick_30">
     <g id="line2d_141">
      <path d="M 95.28125 87.611702 
L 764.88125 87.611702 
" clip-path="url(#p6f6376b163)" style="fill: none; stroke-dasharray: 1.85,0.8; stroke-dashoffset: 0; stroke: #b0b0b0; stroke-opacity: 0.8; stroke-width: 0.5"/>
     </g>
     <g id="line2d_142">
      <g>
       <use xlink:href="#me958af4a7b" x="95.28125" y="87.611702" style="stroke: #000000; stroke-width: 0.6"/>
      </g>
     </g>
    </g>
    <g id="ytick_31">
     <g id="line2d_143">
      <path d="M 95.28125 73.001736 
L 764.88125 73.001736 
" clip-path="url(#p6f6376b163)" style="fill: none; stroke-dasharray: 1.85,0.8; stroke-dashoffset: 0; stroke: #b0b0b0; stroke-opacity: 0.8; stroke-width: 0.5"/>
     </g>
     <g id="line2d_144">
      <g>
       <use xlink:href="#me958af4a7b" x="95.28125" y="73.001736" style="stroke: #000000; stroke-width: 0.6"/>
      </g>
     </g>
    </g>
    <g id="text_18">
     <!-- Light (W/m^2) -->
     <g transform="translate(49.221875 337.558125) rotate(-90) scale(0.2 -0.2)">
      <defs>
       <path id="AptosDisplay-4c" d="M 472 0 
L 472 4206 
L 1034 4206 
L 1034 484 
L 3000 484 
L 3000 0 
L 472 0 
z
" transform="scale(0.015625)"/>
       <path id="AptosDisplay-67" d="M 1397 -1178 
Q 925 -1178 640 -1065 
Q 356 -953 229 -765 
Q 103 -578 103 -359 
Q 103 -94 329 112 
Q 556 319 1031 403 
L 1128 575 
L 1475 575 
Q 2184 575 2489 376 
Q 2794 178 2794 -238 
Q 2794 -650 2437 -914 
Q 2081 -1178 1397 -1178 
z
M 1384 -800 
Q 1878 -800 2086 -650 
Q 2294 -500 2294 -278 
Q 2294 -147 2225 -51 
Q 2156 44 1975 97 
Q 1794 150 1456 150 
L 1034 150 
Q 819 97 708 -31 
Q 597 -159 597 -328 
Q 597 -516 778 -658 
Q 959 -800 1384 -800 
z
M 1025 216 
Q 722 228 550 312 
Q 378 397 306 511 
Q 234 625 234 722 
Q 234 866 362 1009 
Q 491 1153 772 1241 
L 1038 1069 
Q 866 1031 772 953 
Q 678 875 678 791 
Q 678 731 734 682 
Q 791 634 928 606 
Q 1066 578 1303 575 
L 1025 216 
z
M 1363 984 
Q 1003 984 753 1128 
Q 503 1272 375 1509 
Q 247 1747 247 2022 
Q 247 2313 376 2550 
Q 506 2788 754 2928 
Q 1003 3069 1366 3069 
Q 1738 3069 1983 2928 
Q 2228 2788 2351 2550 
Q 2475 2313 2475 2022 
Q 2475 1741 2350 1505 
Q 2225 1269 1979 1126 
Q 1734 984 1363 984 
z
M 1366 1341 
Q 1641 1341 1812 1512 
Q 1984 1684 1984 2022 
Q 1984 2375 1817 2545 
Q 1650 2716 1372 2716 
Q 1094 2716 919 2541 
Q 744 2366 744 2025 
Q 744 1681 931 1511 
Q 1119 1341 1366 1341 
z
M 2131 2734 
L 1922 2931 
Q 2038 3225 2252 3331 
Q 2466 3438 2794 3447 
L 2794 3006 
Q 2588 3006 2416 2961 
Q 2244 2916 2131 2734 
z
" transform="scale(0.015625)"/>
       <path id="AptosDisplay-68" d="M 413 0 
L 413 4206 
L 931 4206 
L 931 2575 
Q 1069 2756 1317 2914 
Q 1566 3072 1950 3072 
Q 2428 3072 2637 2783 
Q 2847 2494 2847 1963 
L 2847 0 
L 2328 0 
L 2328 1891 
Q 2328 2106 2287 2275 
Q 2247 2444 2139 2539 
Q 2031 2634 1822 2634 
Q 1503 2634 1284 2482 
Q 1066 2331 934 2156 
L 934 0 
L 413 0 
z
" transform="scale(0.015625)"/>
       <path id="AptosDisplay-74" d="M 1466 0 
Q 1100 0 901 117 
Q 703 234 629 454 
Q 556 675 556 984 
L 556 2622 
L 50 2622 
L 50 3044 
L 556 3044 
L 556 3741 
L 1078 3741 
L 1078 3044 
L 1831 3044 
L 1831 2622 
L 1078 2622 
L 1078 1009 
Q 1078 725 1151 575 
Q 1225 425 1500 425 
L 1831 425 
L 1831 0 
L 1466 0 
z
" transform="scale(0.015625)"/>
       <path id="AptosDisplay-57" d="M 1216 0 
L -13 4206 
L 575 4206 
L 1525 697 
L 2531 4206 
L 3156 4206 
L 4163 697 
L 5119 4206 
L 5681 4206 
L 4453 0 
L 3866 0 
L 2831 3556 
L 1813 0 
L 1216 0 
z
" transform="scale(0.015625)"/>
       <path id="AptosDisplay-2f" d="M 72 0 
L 1603 4206 
L 2100 4206 
L 569 0 
L 72 0 
z
" transform="scale(0.015625)"/>
       <path id="AptosDisplay-5e" d="M 428 2438 
L 1459 4206 
L 1884 4206 
L 2916 2438 
L 2366 2438 
L 1672 3650 
L 978 2438 
L 428 2438 
z
" transform="scale(0.015625)"/>
      </defs>
      <use xlink:href="#AptosDisplay-4c"/>
      <use xlink:href="#AptosDisplay-69" x="48.4375"/>
      <use xlink:href="#AptosDisplay-67" x="69.482422"/>
      <use xlink:href="#AptosDisplay-68" x="113.427734"/>
      <use xlink:href="#AptosDisplay-74" x="164.013672"/>
      <use xlink:href="#AptosDisplay-20" x="194.384766"/>
      <use xlink:href="#AptosDisplay-28" x="213.671875"/>
      <use xlink:href="#AptosDisplay-57" x="243.115234"/>
      <use xlink:href="#AptosDisplay-2f" x="331.689453"/>
      <use xlink:href="#AptosDisplay-6d" x="365.625"/>
      <use xlink:href="#AptosDisplay-5e" x="445.605469"/>
      <use xlink:href="#AptosDisplay-32" x="497.900391"/>
      <use xlink:href="#AptosDisplay-29" x="550.195312"/>
     </g>
    </g>
   </g>
   <g id="line2d_145">
    <path d="M 125.717614 214.540165 
L 126.361085 220.980238 
L 127.004557 223.557436 
L 127.648028 222.268837 
L 128.934971 249.32065 
L 129.578443 251.897848 
L 130.221914 248.032051 
L 130.865386 257.049322 
L 132.152329 254.472124 
L 132.7958 257.049322 
L 133.439272 254.472124 
L 134.082743 255.760723 
L 134.726215 254.472124 
L 135.369686 248.032051 
L 136.013158 244.169176 
L 136.656629 237.726181 
L 137.300101 228.70891 
L 137.943572 239.01478 
L 139.230515 228.70891 
L 139.873987 233.863306 
L 140.517459 231.286108 
L 141.16093 229.997509 
L 141.804402 232.574707 
L 142.447873 222.268837 
L 143.091345 224.846035 
L 143.734816 222.268837 
L 144.378288 214.540165 
L 145.021759 215.828764 
L 145.665231 215.828764 
L 146.308702 211.962967 
L 146.952174 215.828764 
L 147.595645 211.962967 
L 148.239117 222.268837 
L 148.882588 211.962967 
L 149.52606 217.117363 
L 150.169531 219.691639 
L 150.813003 199.082821 
L 151.456474 214.540165 
L 152.743417 219.691639 
L 153.386889 213.251566 
L 154.03036 224.846035 
L 154.673832 223.557436 
L 155.317303 229.997509 
L 155.960775 224.846035 
L 156.604246 227.420311 
L 157.89119 235.151905 
L 158.534661 229.997509 
L 159.178133 229.997509 
L 159.821604 236.437582 
L 160.465076 235.151905 
L 161.108547 241.591978 
L 161.752019 241.591978 
L 162.39549 235.151905 
L 163.038962 235.151905 
L 163.682433 239.01478 
L 164.325905 241.591978 
L 164.969376 241.591978 
L 165.612848 245.454853 
L 166.256319 233.863306 
L 166.899791 246.743452 
L 167.543262 251.897848 
L 168.186734 132.096126 
L 168.830205 229.997509 
L 169.473677 253.186447 
L 170.117148 245.454853 
L 170.76062 257.049322 
L 171.404091 253.186447 
L 172.047563 254.472124 
L 172.691034 248.032051 
L 173.334506 249.32065 
L 173.977977 248.032051 
L 174.621449 249.32065 
L 175.26492 246.743452 
L 175.908392 236.437582 
L 176.551864 240.303379 
L 177.195335 237.726181 
L 177.838807 224.846035 
L 178.482278 239.01478 
L 179.12575 220.980238 
L 179.769221 208.100092 
L 180.412693 209.385769 
L 181.056164 209.385769 
L 181.699636 206.811493 
L 182.343107 200.368498 
L 182.986579 191.354149 
L 183.63005 193.928425 
L 184.273522 208.100092 
L 184.916993 188.776951 
L 185.560465 184.911154 
L 186.203936 182.336878 
L 186.847408 181.048279 
L 187.490879 172.031008 
L 188.134351 174.605284 
L 188.777822 174.605284 
L 189.421294 170.742409 
L 190.064765 175.893883 
L 190.708237 164.302336 
L 191.351708 173.319607 
L 191.99518 166.876612 
L 192.638651 173.319607 
L 193.282123 166.876612 
L 193.925594 173.319607 
L 194.569066 214.540165 
L 195.212538 205.522894 
L 195.856009 179.75968 
L 196.499481 187.488352 
L 197.142952 179.75968 
L 197.786424 188.776951 
L 198.429895 186.199753 
L 199.073367 190.06555 
L 199.716838 192.639826 
L 200.36031 196.505623 
L 201.003781 196.505623 
L 201.647253 214.540165 
L 202.290724 200.368498 
L 202.934196 200.368498 
L 203.577667 211.962967 
L 204.221139 217.117363 
L 204.86461 205.522894 
L 205.508082 214.540165 
L 206.151553 211.962967 
L 206.795025 237.726181 
L 207.438496 211.962967 
L 208.081968 209.385769 
L 208.725439 205.522894 
L 210.012382 208.100092 
L 210.655854 200.368498 
L 211.942797 202.945696 
L 212.586268 200.368498 
L 213.22974 187.488352 
L 213.873212 196.505623 
L 215.160155 196.505623 
L 215.803626 199.082821 
L 216.447098 190.06555 
L 217.090569 192.639826 
L 218.377512 190.06555 
L 219.020984 192.639826 
L 219.664455 183.622555 
L 220.307927 191.354149 
L 220.951398 177.182482 
L 221.59487 188.776951 
L 222.238341 187.488352 
L 222.881813 209.385769 
L 223.525284 186.199753 
L 224.812227 183.622555 
L 225.455699 184.911154 
L 226.09917 184.911154 
L 226.742642 182.336878 
L 227.386113 186.199753 
L 228.029585 183.622555 
L 228.673056 188.776951 
L 229.316528 187.488352 
L 229.959999 187.488352 
L 230.603471 186.199753 
L 231.246942 187.488352 
L 232.533886 179.75968 
L 233.177357 186.199753 
L 233.820829 181.048279 
L 234.4643 183.622555 
L 235.107772 182.336878 
L 235.751243 183.622555 
L 236.394715 190.06555 
L 237.038186 193.928425 
L 237.681658 186.199753 
L 238.325129 186.199753 
L 238.968601 187.488352 
L 239.612072 182.336878 
L 240.255544 187.488352 
L 240.899015 190.06555 
L 241.542487 184.911154 
L 242.185958 190.06555 
L 242.82943 186.199753 
L 243.472901 196.505623 
L 244.116373 184.911154 
L 244.759844 182.336878 
L 245.403316 184.911154 
L 246.046787 186.199753 
L 246.690259 184.911154 
L 247.33373 209.385769 
L 247.977202 183.622555 
L 248.620673 184.911154 
L 249.264145 181.048279 
L 249.907616 187.488352 
L 250.551088 184.911154 
L 251.19456 186.199753 
L 251.838031 184.911154 
L 252.481503 179.75968 
L 253.124974 153.996466 
L 253.768446 187.488352 
L 254.411917 184.911154 
L 255.055389 186.199753 
L 256.342332 183.622555 
L 256.985803 175.893883 
L 257.629275 174.605284 
L 258.272746 181.048279 
L 258.916218 179.75968 
L 260.203161 172.031008 
L 260.846632 163.013737 
L 261.490104 175.893883 
L 262.133575 170.742409 
L 262.777047 174.605284 
L 263.420518 166.876612 
L 264.06399 170.742409 
L 264.707461 166.876612 
L 265.350933 174.605284 
L 265.994404 174.605284 
L 266.637876 183.622555 
L 267.281347 182.336878 
L 267.924819 175.893883 
L 269.211762 188.776951 
L 270.498705 175.893883 
L 271.142177 184.911154 
L 271.785648 190.06555 
L 272.42912 190.06555 
L 273.072591 192.639826 
L 273.716063 193.928425 
L 274.359534 191.354149 
L 275.003006 191.354149 
L 275.646477 195.217024 
L 276.289949 197.794222 
L 276.93342 199.082821 
L 277.576892 191.354149 
L 278.220363 196.505623 
L 278.863835 204.234295 
L 279.507306 206.811493 
L 280.150778 199.082821 
L 280.794249 121.790256 
L 281.437721 209.385769 
L 282.081192 209.385769 
L 282.724664 214.540165 
L 284.655078 218.40304 
L 285.29855 183.622555 
L 285.942021 218.40304 
L 286.585493 215.828764 
L 287.872436 213.251566 
L 288.515908 219.691639 
L 289.159379 213.251566 
L 289.802851 209.385769 
L 290.446322 214.540165 
L 291.089794 215.828764 
L 291.733265 205.522894 
L 292.376737 210.674368 
L 293.020208 214.540165 
L 293.66368 210.674368 
L 294.307151 217.117363 
L 294.950623 211.962967 
L 295.594094 219.691639 
L 296.237566 208.100092 
L 296.881037 206.811493 
L 297.524509 215.828764 
L 298.16798 211.962967 
L 298.811452 210.674368 
L 299.454923 214.540165 
L 300.098395 213.251566 
L 300.741866 204.234295 
L 301.385338 211.962967 
L 302.028809 205.522894 
L 302.672281 204.234295 
L 303.315752 205.522894 
L 304.602695 197.794222 
L 305.246167 202.945696 
L 305.889638 199.082821 
L 306.53311 201.657097 
L 307.176582 179.75968 
L 307.820053 130.807527 
L 308.463525 206.811493 
L 309.106996 210.674368 
L 309.750468 204.234295 
L 310.393939 239.01478 
L 311.037411 209.385769 
L 311.680882 206.811493 
L 312.967825 199.082821 
L 313.611297 204.234295 
L 314.254768 199.082821 
L 314.89824 204.234295 
L 315.541711 210.674368 
L 316.185183 205.522894 
L 316.828654 209.385769 
L 317.472126 204.234295 
L 320.046012 214.540165 
L 320.689483 226.134634 
L 321.332955 226.134634 
L 321.976426 228.70891 
L 322.619898 228.70891 
L 323.263369 220.980238 
L 323.906841 224.846035 
L 324.550312 222.268837 
L 325.193784 218.40304 
L 325.837256 217.117363 
L 326.480727 218.40304 
L 327.124199 211.962967 
L 327.76767 220.980238 
L 328.411142 210.674368 
L 329.054613 215.828764 
L 329.698085 208.100092 
L 330.341556 211.962967 
L 330.985028 223.557436 
L 331.628499 278.949661 
L 332.271971 218.40304 
L 332.915442 222.268837 
L 333.558914 222.268837 
L 334.202385 220.980238 
L 334.845857 227.420311 
L 335.489328 224.846035 
L 336.1328 227.420311 
L 336.776271 228.70891 
L 337.419743 232.574707 
L 338.063214 235.151905 
L 338.706686 236.437582 
L 339.993629 236.437582 
L 340.6371 223.557436 
L 341.280572 233.863306 
L 341.924043 239.01478 
L 342.567515 242.880577 
L 343.210986 241.591978 
L 343.854458 242.880577 
L 344.49793 236.437582 
L 345.141401 242.880577 
L 345.784873 239.01478 
L 346.428344 249.32065 
L 347.071816 248.032051 
L 347.715287 248.032051 
L 349.00223 253.186447 
L 349.645702 253.186447 
L 350.289173 259.62652 
L 350.932645 259.62652 
L 352.219588 272.506666 
L 352.863059 271.220989 
L 353.506531 273.795265 
L 354.150002 269.93239 
L 354.793474 273.795265 
L 356.080417 278.949661 
L 356.723888 282.812537 
L 357.36736 281.523938 
L 358.010831 287.966933 
L 358.654303 388.442591 
L 359.297774 282.812537 
L 359.941246 290.541209 
L 360.584717 289.255532 
L 361.228189 285.389735 
L 361.87166 291.829808 
L 362.515132 291.829808 
L 363.158604 284.101136 
L 363.802075 285.389735 
L 364.445547 285.389735 
L 365.089018 286.678334 
L 365.73249 291.829808 
L 366.375961 290.541209 
L 367.019433 291.829808 
L 367.662904 291.829808 
L 368.306376 304.712876 
L 368.949847 300.847079 
L 369.593319 303.424277 
L 370.23679 307.290074 
L 371.523733 304.712876 
L 372.167205 307.290074 
L 372.810676 306.001475 
L 373.454148 307.290074 
L 374.097619 306.001475 
L 374.741091 307.290074 
L 375.384562 295.695605 
L 376.028034 296.984204 
L 376.671505 266.066593 
L 377.314977 299.55848 
L 377.958448 293.118407 
L 378.60192 289.255532 
L 379.245391 282.812537 
L 379.888863 280.238261 
L 380.532334 276.372463 
L 381.175806 273.795265 
L 381.819278 263.489395 
L 382.462749 262.203718 
L 383.106221 253.186447 
L 383.749692 259.62652 
L 384.393164 255.760723 
L 385.036635 258.337921 
L 385.680107 251.897848 
L 386.323578 255.760723 
L 386.96705 260.915119 
L 387.610521 251.897848 
L 388.253993 253.186447 
L 388.897464 251.897848 
L 389.540936 246.743452 
L 390.184407 253.186447 
L 390.827879 246.743452 
L 392.114822 246.743452 
L 392.758293 245.454853 
L 393.401765 242.880577 
L 394.045236 257.049322 
L 394.688708 239.01478 
L 395.332179 249.32065 
L 395.975651 224.846035 
L 396.619122 244.169176 
L 397.262594 236.437582 
L 397.906065 245.454853 
L 398.549537 246.743452 
L 399.193008 249.32065 
L 399.83648 244.169176 
L 400.479952 245.454853 
L 401.123423 249.32065 
L 401.766895 245.454853 
L 402.410366 253.186447 
L 403.053838 249.32065 
L 403.697309 253.186447 
L 404.340781 250.609249 
L 404.984252 254.472124 
L 405.627724 251.897848 
L 406.271195 251.897848 
L 406.914667 253.186447 
L 407.558138 249.32065 
L 408.845081 254.472124 
L 409.488553 254.472124 
L 410.775496 257.049322 
L 411.418967 257.049322 
L 412.062439 260.915119 
L 412.70591 272.506666 
L 413.349382 333.053288 
L 413.992853 318.881621 
L 414.636325 253.186447 
L 415.279796 262.203718 
L 415.923268 260.915119 
L 416.566739 263.489395 
L 417.210211 262.203718 
L 417.853682 259.62652 
L 418.497154 264.777994 
L 419.140626 264.777994 
L 419.784097 254.472124 
L 421.07104 262.203718 
L 421.714512 259.62652 
L 422.357983 264.777994 
L 423.001455 259.62652 
L 423.644926 259.62652 
L 424.288398 249.32065 
L 425.575341 259.62652 
L 426.218812 263.489395 
L 426.862284 259.62652 
L 427.505755 260.915119 
L 428.149227 267.355192 
L 428.792698 272.506666 
L 429.43617 267.355192 
L 430.079641 277.661062 
L 430.723113 275.083864 
L 431.366584 276.372463 
L 432.010056 280.238261 
L 432.653527 285.389735 
L 433.296999 287.966933 
L 433.94047 298.272803 
L 434.583942 287.966933 
L 435.227413 294.407006 
L 436.514356 294.407006 
L 437.157828 298.272803 
L 438.444771 303.424277 
L 439.088243 316.304423 
L 439.731714 311.152949 
L 440.375186 313.730147 
L 441.018657 315.018746 
L 441.662129 313.730147 
L 442.3056 313.730147 
L 442.949072 241.591978 
L 443.592543 304.712876 
L 444.236015 321.458819 
L 444.879486 324.036017 
L 445.522958 322.747418 
L 446.166429 322.747418 
L 446.809901 316.304423 
L 447.453372 318.881621 
L 448.096844 313.730147 
L 448.740315 312.441548 
L 449.383787 309.86435 
L 450.027258 312.441548 
L 450.67073 312.441548 
L 451.314201 307.290074 
L 451.957673 324.036017 
L 453.244616 289.255532 
L 453.888087 304.712876 
L 454.531559 304.712876 
L 455.17503 312.441548 
L 455.818502 300.847079 
L 456.461974 311.152949 
L 457.105445 308.575751 
L 458.392388 308.575751 
L 459.03586 315.018746 
L 459.679331 316.304423 
L 460.322803 321.458819 
L 460.966274 318.881621 
L 461.609746 321.458819 
L 462.253217 313.730147 
L 462.896689 325.321694 
L 463.54016 326.610293 
L 464.183632 324.036017 
L 464.827103 303.424277 
L 465.470575 325.321694 
L 466.114046 315.018746 
L 466.757518 330.47609 
L 467.400989 315.018746 
L 468.687932 299.55848 
L 469.331404 481.1925 
L 469.974875 294.407006 
L 471.261818 294.407006 
L 471.90529 293.118407 
L 472.548761 286.678334 
L 473.192233 278.949661 
L 473.835704 287.966933 
L 474.479176 276.372463 
L 475.122648 275.083864 
L 476.409591 267.355192 
L 477.053062 259.62652 
L 477.696534 262.203718 
L 478.340005 257.049322 
L 478.983477 255.760723 
L 479.626948 251.897848 
L 480.27042 244.169176 
L 480.913891 284.101136 
L 481.557363 277.661062 
L 482.200834 240.303379 
L 482.844306 236.437582 
L 483.487777 239.01478 
L 484.131249 232.574707 
L 484.77472 237.726181 
L 485.418192 229.997509 
L 486.061663 229.997509 
L 486.705135 228.70891 
L 487.348606 229.997509 
L 487.992078 235.151905 
L 488.635549 229.997509 
L 489.279021 231.286108 
L 489.922492 231.286108 
L 490.565964 233.863306 
L 491.209435 237.726181 
L 491.852907 260.915119 
L 492.496378 233.863306 
L 493.13985 233.863306 
L 493.783322 244.169176 
L 494.426793 236.437582 
L 495.070265 237.726181 
L 495.713736 244.169176 
L 496.357208 227.420311 
L 497.000679 246.743452 
L 497.644151 192.639826 
L 498.287622 239.01478 
L 498.931094 264.777994 
L 499.574565 246.743452 
L 500.218037 254.472124 
L 500.861508 264.777994 
L 501.50498 251.897848 
L 502.148451 259.62652 
L 502.791923 259.62652 
L 503.435394 260.915119 
L 504.078866 257.049322 
L 504.722337 255.760723 
L 505.365809 251.897848 
L 506.00928 249.32065 
L 506.652752 244.169176 
L 507.296223 245.454853 
L 507.939695 248.032051 
L 508.583166 251.897848 
L 509.226638 239.01478 
L 509.870109 241.591978 
L 510.513581 245.454853 
L 511.157053 241.591978 
L 511.800524 245.454853 
L 514.37441 254.472124 
L 515.017882 254.472124 
L 515.661353 255.760723 
L 516.304825 264.777994 
L 516.948296 264.777994 
L 517.591768 268.643791 
L 518.235239 251.897848 
L 518.878711 266.066593 
L 519.522182 266.066593 
L 520.165654 267.355192 
L 520.809125 267.355192 
L 521.452597 264.777994 
L 522.096068 268.643791 
L 522.73954 259.62652 
L 523.383011 268.643791 
L 524.026483 264.777994 
L 524.669954 263.489395 
L 525.313426 272.506666 
L 525.956897 267.355192 
L 526.600369 266.066593 
L 527.24384 257.049322 
L 527.887312 263.489395 
L 528.530783 258.337921 
L 529.174255 259.62652 
L 529.817727 258.337921 
L 530.461198 260.915119 
L 531.10467 264.777994 
L 531.748141 267.355192 
L 532.391613 255.760723 
L 533.035084 260.915119 
L 533.678556 259.62652 
L 534.322027 338.204762 
L 534.965499 271.220989 
L 535.60897 276.372463 
L 536.252442 250.609249 
L 536.895913 246.743452 
L 537.539385 248.032051 
L 538.182856 248.032051 
L 538.826328 245.454853 
L 539.469799 237.726181 
L 540.113271 236.437582 
L 540.756742 231.286108 
L 541.400214 236.437582 
L 542.043685 237.726181 
L 542.687157 231.286108 
L 543.330628 235.151905 
L 543.9741 202.945696 
L 544.617571 224.846035 
L 545.261043 215.828764 
L 545.904514 220.980238 
L 546.547986 222.268837 
L 547.191457 227.420311 
L 547.834929 210.674368 
L 548.478401 201.657097 
L 549.121872 211.962967 
L 549.765344 202.945696 
L 550.408815 206.811493 
L 551.052287 206.811493 
L 552.33923 190.06555 
L 552.982701 192.639826 
L 553.626173 196.505623 
L 554.269644 199.082821 
L 554.913116 191.354149 
L 555.556587 193.928425 
L 556.200059 184.911154 
L 556.84353 192.639826 
L 557.487002 192.639826 
L 558.130473 197.794222 
L 558.773945 196.505623 
L 559.417416 200.368498 
L 560.060888 205.522894 
L 560.704359 206.811493 
L 561.347831 209.385769 
L 561.991302 209.385769 
L 562.634774 192.639826 
L 563.278245 361.390778 
L 563.921717 204.234295 
L 564.565188 193.928425 
L 565.20866 263.489395 
L 565.852131 192.639826 
L 567.139075 190.06555 
L 567.782546 187.488352 
L 568.426018 186.199753 
L 569.069489 192.639826 
L 569.712961 192.639826 
L 571.003121 187.488352 
L 571.643375 190.06555 
L 572.290064 196.505623 
L 572.933536 193.928425 
L 573.577007 201.657097 
L 574.220479 200.368498 
L 574.86395 206.811493 
L 575.507422 210.674368 
L 576.150893 213.251566 
L 576.794365 224.846035 
L 577.437836 219.691639 
L 578.081308 229.997509 
L 578.724779 232.574707 
L 579.368251 240.303379 
L 580.011722 231.286108 
L 580.655194 235.151905 
L 581.298665 236.437582 
L 581.942137 231.286108 
L 582.585608 232.574707 
L 583.22908 236.437582 
L 584.516023 239.01478 
L 585.159494 232.574707 
L 585.802966 228.70891 
L 586.446437 231.286108 
L 587.089909 231.286108 
L 587.73338 226.134634 
L 588.376852 229.997509 
L 589.020323 224.846035 
L 590.307266 219.691639 
L 590.950738 210.674368 
L 591.59421 220.980238 
L 592.237681 215.828764 
L 592.881153 214.540165 
L 593.524624 205.522894 
L 594.168096 218.40304 
L 594.811567 214.540165 
L 595.455039 218.40304 
L 596.09851 231.286108 
L 596.741982 210.674368 
L 597.385453 213.251566 
L 598.028925 201.657097 
L 598.672396 210.674368 
L 599.315868 214.540165 
L 599.959339 205.522894 
L 600.602811 202.945696 
L 601.246282 193.928425 
L 601.889754 222.268837 
L 602.533225 208.100092 
L 603.176697 202.945696 
L 603.820168 173.319607 
L 604.46364 210.674368 
L 605.107111 193.928425 
L 605.750583 202.945696 
L 606.394054 205.522894 
L 607.037526 197.794222 
L 607.680997 206.811493 
L 608.324469 201.657097 
L 608.96794 201.657097 
L 609.611412 202.945696 
L 610.254884 201.657097 
L 610.898355 202.945696 
L 611.541827 201.657097 
L 612.185298 206.811493 
L 613.472241 206.811493 
L 614.115713 184.911154 
L 614.759184 218.40304 
L 615.402656 204.234295 
L 616.046127 202.945696 
L 616.689599 206.811493 
L 617.33307 213.251566 
L 617.976542 204.234295 
L 618.620013 205.522894 
L 619.263485 204.234295 
L 619.906956 205.522894 
L 620.550428 208.100092 
L 621.193899 205.522894 
L 621.837371 209.385769 
L 622.480842 209.385769 
L 623.124314 205.522894 
L 623.767785 206.811493 
L 624.411257 200.368498 
L 625.054728 201.657097 
L 625.6982 197.794222 
L 626.341671 206.811493 
L 626.985143 197.794222 
L 627.628614 197.794222 
L 628.272086 200.368498 
L 628.915558 199.082821 
L 629.559029 205.522894 
L 630.202501 172.031008 
L 630.845972 200.368498 
L 631.489444 196.505623 
L 632.132915 196.505623 
L 632.776387 205.522894 
L 633.419858 187.488352 
L 634.06333 199.082821 
L 634.706801 173.319607 
L 635.350273 193.928425 
L 635.993744 196.505623 
L 636.637216 191.354149 
L 637.280687 190.06555 
L 637.924159 190.06555 
L 638.56763 191.354149 
L 639.211102 182.336878 
L 639.854573 184.911154 
L 640.498045 181.048279 
L 641.141516 183.622555 
L 641.784988 184.911154 
L 642.428459 187.488352 
L 643.071931 173.319607 
L 643.715402 174.605284 
L 644.358874 179.75968 
L 645.002345 179.75968 
L 645.645817 267.355192 
L 646.289288 182.336878 
L 646.93276 249.32065 
L 647.576232 170.742409 
L 648.219703 77.9925 
L 648.863175 172.031008 
L 649.506646 164.302336 
L 650.150118 166.876612 
L 650.793589 166.876612 
L 651.437061 170.742409 
L 652.080532 163.013737 
L 652.724004 165.588013 
L 653.367475 155.282143 
L 654.010947 160.436539 
L 654.654418 164.302336 
L 655.29789 183.622555 
L 655.941361 170.742409 
L 656.584833 187.488352 
L 657.228304 173.319607 
L 657.871776 172.031008 
L 658.515247 160.436539 
L 659.158719 175.893883 
L 659.80219 181.048279 
L 660.445662 178.471081 
L 661.089133 173.319607 
L 661.732605 181.048279 
L 662.376076 166.876612 
L 663.019548 179.75968 
L 663.663019 177.182482 
L 664.306491 177.182482 
L 664.949962 174.605284 
L 665.593434 175.893883 
L 666.236906 175.893883 
L 666.880377 170.742409 
L 667.523849 177.182482 
L 668.16732 172.031008 
L 668.810792 175.893883 
L 669.454263 182.336878 
L 670.097735 165.588013 
L 671.384678 175.893883 
L 672.028149 175.893883 
L 672.671621 179.75968 
L 673.315092 173.319607 
L 673.958564 173.319607 
L 674.602035 165.588013 
L 675.245507 170.742409 
L 675.888978 169.45381 
L 676.53245 166.876612 
L 677.175921 165.588013 
L 677.819393 150.130669 
L 678.462864 163.013737 
L 679.106336 159.14794 
L 679.749807 161.725138 
L 680.393279 165.588013 
L 681.03675 165.588013 
L 681.680222 166.876612 
L 682.323693 166.876612 
L 682.967165 174.605284 
L 683.610636 159.14794 
L 684.254108 163.013737 
L 686.184523 166.876612 
L 686.827994 169.45381 
L 687.471466 163.013737 
L 688.114937 160.436539 
L 688.758409 161.725138 
L 689.40188 160.436539 
L 690.045352 156.570742 
L 690.688823 159.14794 
L 691.332295 159.14794 
L 691.975766 160.436539 
L 692.619238 152.707867 
L 693.262709 157.859341 
L 694.549652 155.282143 
L 695.193124 160.436539 
L 695.836595 155.282143 
L 696.480067 163.013737 
L 697.123538 144.979194 
L 697.76701 159.14794 
L 698.410481 157.859341 
L 699.053953 161.725138 
L 699.697424 164.302336 
L 700.340896 160.436539 
L 700.984367 164.302336 
L 701.627839 175.893883 
L 702.27131 105.044313 
L 702.914782 164.302336 
L 703.558254 157.859341 
L 704.201725 161.725138 
L 704.845197 151.419268 
L 705.488668 151.419268 
L 706.13214 155.282143 
L 708.706026 139.824798 
L 709.349497 151.419268 
L 709.992969 152.707867 
L 710.63644 148.84207 
L 711.279912 151.419268 
L 711.923383 150.130669 
L 712.566855 153.996466 
L 713.210326 148.84207 
L 713.853798 146.267794 
L 714.497269 144.979194 
L 715.140741 157.859341 
L 715.784212 150.130669 
L 716.427684 150.130669 
L 717.071155 148.84207 
L 718.358098 164.302336 
L 719.00157 151.419268 
L 720.288513 165.588013 
L 720.931985 160.436539 
L 721.575456 163.013737 
L 722.218928 163.013737 
L 722.862399 157.859341 
L 723.505871 153.996466 
L 724.149342 164.302336 
L 724.792814 187.488352 
L 725.436285 226.134634 
L 726.079757 138.536199 
L 726.723228 157.859341 
L 727.3667 156.570742 
L 728.010171 147.553471 
L 728.653643 152.707867 
L 729.297114 160.436539 
L 729.940586 163.013737 
L 730.584057 160.436539 
L 731.227529 155.282143 
L 732.514472 172.031008 
L 733.157943 163.013737 
L 733.801415 161.725138 
L 734.444886 157.859341 
L 734.444886 157.859341 
" clip-path="url(#p6f6376b163)" style="fill: none; stroke: #ac2b37; stroke-width: 1.5; stroke-linecap: square"/>
   </g>
   <g id="patch_3">
    <path d="M 95.28125 501.3525 
L 95.28125 57.8325 
" style="fill: none; stroke: #000000; stroke-width: 0.8; stroke-linejoin: miter; stroke-linecap: square"/>
   </g>
   <g id="patch_4">
    <path d="M 764.88125 501.3525 
L 764.88125 57.8325 
" style="fill: none; stroke: #000000; stroke-width: 0.8; stroke-linejoin: miter; stroke-linecap: square"/>
   </g>
   <g id="patch_5">
    <path d="M 95.28125 501.3525 
L 764.88125 501.3525 
" style="fill: none; stroke: #000000; stroke-width: 0.8; stroke-linejoin: miter; stroke-linecap: square"/>
   </g>
   <g id="patch_6">
    <path d="M 95.28125 57.8325 
L 764.88125 57.8325 
" style="fill: none; stroke: #000000; stroke-width: 0.8; stroke-linejoin: miter; stroke-linecap: square"/>
   </g>
   <g id="text_19">
    <!-- Light vs Time -->
    <g transform="translate(367.59875 51.8325) scale(0.24 -0.24)">
     <defs>
      <path id="AptosDisplay-76" d="M 1103 0 
L -13 3044 
L 538 3044 
L 1391 513 
L 2250 3044 
L 2781 3044 
L 1678 0 
L 1103 0 
z
" transform="scale(0.015625)"/>
      <path id="AptosDisplay-73" d="M 1506 -41 
Q 1247 -41 1017 14 
Q 788 69 613 191 
Q 438 313 339 506 
Q 241 700 241 978 
L 744 978 
Q 744 628 966 487 
Q 1188 347 1519 347 
Q 1816 347 2008 458 
Q 2200 569 2200 822 
Q 2200 1047 2026 1153 
Q 1853 1259 1413 1369 
Q 1056 1453 815 1564 
Q 575 1675 453 1845 
Q 331 2016 331 2275 
Q 331 2475 417 2626 
Q 503 2778 658 2879 
Q 813 2981 1020 3032 
Q 1228 3084 1472 3084 
Q 1713 3084 1923 3028 
Q 2134 2972 2296 2855 
Q 2459 2738 2551 2552 
Q 2644 2366 2644 2109 
L 2138 2109 
Q 2138 2425 1945 2558 
Q 1753 2691 1472 2691 
Q 1191 2691 1016 2594 
Q 841 2497 841 2291 
Q 841 2169 919 2084 
Q 997 2000 1181 1933 
Q 1366 1866 1675 1791 
Q 2019 1709 2248 1596 
Q 2478 1484 2595 1306 
Q 2713 1128 2713 847 
Q 2713 616 2622 447 
Q 2531 278 2367 170 
Q 2203 63 1983 11 
Q 1763 -41 1506 -41 
z
" transform="scale(0.015625)"/>
     </defs>
     <use xlink:href="#AptosDisplay-4c"/>
     <use xlink:href="#AptosDisplay-69" x="48.4375"/>
     <use xlink:href="#AptosDisplay-67" x="69.482422"/>
     <use xlink:href="#AptosDisplay-68" x="113.427734"/>
     <use xlink:href="#AptosDisplay-74" x="164.013672"/>
     <use xlink:href="#AptosDisplay-20" x="194.384766"/>
     <use xlink:href="#AptosDisplay-76" x="213.671875"/>
     <use xlink:href="#AptosDisplay-73" x="256.933594"/>
     <use xlink:href="#AptosDisplay-20" x="303.222656"/>
     <use xlink:href="#AptosDisplay-54" x="322.509766"/>
     <use xlink:href="#AptosDisplay-69" x="370.214844"/>
     <use xlink:href="#AptosDisplay-6d" x="391.259766"/>
     <use xlink:href="#AptosDisplay-65" x="471.240234"/>
    </g>
   </g>
  </g>
 </g>
 <defs>
  <clipPath id="p6f6376b163">
   <rect x="95.28125" y="57.8325" width="669.6" height="443.52"/>
  </clipPath>
 </defs>
</svg>
