<?xml version="1.0" encoding="utf-8" standalone="no"?>
<!DOCTYPE svg PUBLIC "-//W3C//DTD SVG 1.1//EN"
  "http://www.w3.org/Graphics/SVG/1.1/DTD/svg11.dtd">
<svg xmlns:xlink="http://www.w3.org/1999/xlink" width="790.265625pt" height="581.830625pt" viewBox="0 0 790.265625 581.830625" xmlns="http://www.w3.org/2000/svg" version="1.1">
 <metadata>
  <rdf:RDF xmlns:dc="http://purl.org/dc/elements/1.1/" xmlns:cc="http://creativecommons.org/ns#" xmlns:rdf="http://www.w3.org/1999/02/22-rdf-syntax-ns#">
   <cc:Work>
    <dc:type rdf:resource="http://purl.org/dc/dcmitype/StillImage"/>
    <dc:date>2025-04-03T01:48:38.329528</dc:date>
    <dc:format>image/svg+xml</dc:format>
    <dc:creator>
     <cc:Agent>
      <dc:title>Matplotlib v3.8.2, https://matplotlib.org/</dc:title>
     </cc:Agent>
    </dc:creator>
   </cc:Work>
  </rdf:RDF>
 </metadata>
 <defs>
  <style type="text/css">*{stroke-linejoin: round; stroke-linecap: butt}</style>
 </defs>
 <g id="figure_1">
  <g id="patch_1">
   <path d="M 0 581.830625 
L 790.265625 581.830625 
L 790.265625 0 
L 0 0 
z
" style="fill: #ffffff"/>
  </g>
  <g id="axes_1">
   <g id="patch_2">
    <path d="M 84.665625 501.3525 
L 754.265625 501.3525 
L 754.265625 57.8325 
L 84.665625 57.8325 
z
" style="fill: #ffffff"/>
   </g>
   <g id="matplotlib.axis_1">
    <g id="xtick_1">
     <g id="line2d_1">
      <path d="M 114.748079 501.3525 
L 114.748079 57.8325 
" clip-path="url(#p8928085aa6)" style="fill: none; stroke: #b0b0b0; stroke-opacity: 0.8; stroke-linecap: square"/>
     </g>
     <g id="line2d_2">
      <defs>
       <path id="m583fcb0bb8" d="M 0 0 
L 0 3.5 
" style="stroke: #000000; stroke-width: 0.8"/>
      </defs>
      <g>
       <use xlink:href="#m583fcb0bb8" x="114.748079" y="501.3525" style="stroke: #000000; stroke-width: 0.8"/>
      </g>
     </g>
     <g id="text_1">
      <!-- 0 -->
      <g transform="translate(109.518392 521.49625) scale(0.2 -0.2)">
       <defs>
        <path id="AptosDisplay-30" d="M 1672 -56 
Q 1291 -56 1028 105 
Q 766 266 605 552 
Q 444 838 372 1216 
Q 300 1594 300 2031 
Q 300 2475 372 2856 
Q 444 3238 605 3525 
Q 766 3813 1028 3973 
Q 1291 4134 1672 4134 
Q 2053 4134 2317 3975 
Q 2581 3816 2742 3527 
Q 2903 3238 2975 2858 
Q 3047 2478 3047 2038 
Q 3047 1597 2975 1217 
Q 2903 838 2742 552 
Q 2581 266 2318 105 
Q 2056 -56 1672 -56 
z
M 1672 409 
Q 1916 409 2073 550 
Q 2231 691 2322 925 
Q 2413 1159 2448 1448 
Q 2484 1738 2484 2038 
Q 2484 2338 2448 2628 
Q 2413 2919 2322 3153 
Q 2231 3388 2073 3527 
Q 1916 3666 1669 3666 
Q 1428 3666 1268 3527 
Q 1109 3388 1020 3153 
Q 931 2919 893 2628 
Q 856 2338 856 2038 
Q 856 1741 893 1450 
Q 931 1159 1020 925 
Q 1109 691 1268 550 
Q 1428 409 1672 409 
z
" transform="scale(0.015625)"/>
       </defs>
       <use xlink:href="#AptosDisplay-30"/>
      </g>
     </g>
    </g>
    <g id="xtick_2">
     <g id="line2d_3">
      <path d="M 195.182019 501.3525 
L 195.182019 57.8325 
" clip-path="url(#p8928085aa6)" style="fill: none; stroke: #b0b0b0; stroke-opacity: 0.8; stroke-linecap: square"/>
     </g>
     <g id="line2d_4">
      <g>
       <use xlink:href="#m583fcb0bb8" x="195.182019" y="501.3525" style="stroke: #000000; stroke-width: 0.8"/>
      </g>
     </g>
     <g id="text_2">
      <!-- 25 -->
      <g transform="translate(184.722644 521.49625) scale(0.2 -0.2)">
       <defs>
        <path id="AptosDisplay-32" d="M 247 0 
L 247 413 
L 1725 1741 
Q 2100 2081 2269 2351 
Q 2438 2622 2438 2938 
Q 2438 3256 2263 3461 
Q 2088 3666 1691 3666 
Q 1247 3666 1055 3439 
Q 863 3213 863 2869 
L 341 2869 
Q 341 3250 491 3534 
Q 641 3819 941 3975 
Q 1241 4131 1691 4131 
Q 2103 4131 2390 3986 
Q 2678 3841 2828 3578 
Q 2978 3316 2978 2959 
Q 2978 2638 2853 2375 
Q 2728 2113 2517 1883 
Q 2306 1653 2044 1425 
L 959 463 
L 3097 463 
L 3097 0 
L 247 0 
z
" transform="scale(0.015625)"/>
        <path id="AptosDisplay-35" d="M 1669 -56 
Q 1278 -56 964 83 
Q 650 222 465 483 
Q 281 744 281 1113 
L 816 1113 
Q 816 778 1055 584 
Q 1294 391 1669 391 
Q 2069 391 2291 625 
Q 2513 859 2513 1319 
Q 2513 1772 2291 1989 
Q 2069 2206 1697 2206 
Q 1409 2206 1223 2123 
Q 1038 2041 916 1894 
L 444 1894 
L 622 4078 
L 2788 4078 
L 2788 3613 
L 1041 3613 
L 931 2322 
Q 1044 2453 1251 2550 
Q 1459 2647 1775 2647 
Q 2131 2647 2420 2506 
Q 2709 2366 2881 2072 
Q 3053 1778 3053 1319 
Q 3053 863 2875 558 
Q 2697 253 2384 98 
Q 2072 -56 1669 -56 
z
" transform="scale(0.015625)"/>
       </defs>
       <use xlink:href="#AptosDisplay-32"/>
       <use xlink:href="#AptosDisplay-35" x="52.294922"/>
      </g>
     </g>
    </g>
    <g id="xtick_3">
     <g id="line2d_5">
      <path d="M 275.615959 501.3525 
L 275.615959 57.8325 
" clip-path="url(#p8928085aa6)" style="fill: none; stroke: #b0b0b0; stroke-opacity: 0.8; stroke-linecap: square"/>
     </g>
     <g id="line2d_6">
      <g>
       <use xlink:href="#m583fcb0bb8" x="275.615959" y="501.3525" style="stroke: #000000; stroke-width: 0.8"/>
      </g>
     </g>
     <g id="text_3">
      <!-- 50 -->
      <g transform="translate(265.156584 521.49625) scale(0.2 -0.2)">
       <use xlink:href="#AptosDisplay-35"/>
       <use xlink:href="#AptosDisplay-30" x="52.294922"/>
      </g>
     </g>
    </g>
    <g id="xtick_4">
     <g id="line2d_7">
      <path d="M 356.049898 501.3525 
L 356.049898 57.8325 
" clip-path="url(#p8928085aa6)" style="fill: none; stroke: #b0b0b0; stroke-opacity: 0.8; stroke-linecap: square"/>
     </g>
     <g id="line2d_8">
      <g>
       <use xlink:href="#m583fcb0bb8" x="356.049898" y="501.3525" style="stroke: #000000; stroke-width: 0.8"/>
      </g>
     </g>
     <g id="text_4">
      <!-- 75 -->
      <g transform="translate(345.590523 521.49625) scale(0.2 -0.2)">
       <defs>
        <path id="AptosDisplay-37" d="M 766 0 
L 2609 3600 
L 194 3600 
L 194 4078 
L 3141 4078 
L 3141 3622 
L 1334 0 
L 766 0 
z
" transform="scale(0.015625)"/>
       </defs>
       <use xlink:href="#AptosDisplay-37"/>
       <use xlink:href="#AptosDisplay-35" x="52.294922"/>
      </g>
     </g>
    </g>
    <g id="xtick_5">
     <g id="line2d_9">
      <path d="M 436.483838 501.3525 
L 436.483838 57.8325 
" clip-path="url(#p8928085aa6)" style="fill: none; stroke: #b0b0b0; stroke-opacity: 0.8; stroke-linecap: square"/>
     </g>
     <g id="line2d_10">
      <g>
       <use xlink:href="#m583fcb0bb8" x="436.483838" y="501.3525" style="stroke: #000000; stroke-width: 0.8"/>
      </g>
     </g>
     <g id="text_5">
      <!-- 100 -->
      <g transform="translate(420.794775 521.49625) scale(0.2 -0.2)">
       <defs>
        <path id="AptosDisplay-31" d="M 1659 0 
L 1659 3425 
Q 1575 3309 1420 3201 
Q 1266 3094 1052 3009 
Q 838 2925 578 2888 
L 578 3381 
Q 834 3425 1057 3540 
Q 1281 3656 1453 3806 
Q 1625 3956 1719 4094 
L 2206 4094 
L 2206 0 
L 1659 0 
z
" transform="scale(0.015625)"/>
       </defs>
       <use xlink:href="#AptosDisplay-31"/>
       <use xlink:href="#AptosDisplay-30" x="52.294922"/>
       <use xlink:href="#AptosDisplay-30" x="104.589844"/>
      </g>
     </g>
    </g>
    <g id="xtick_6">
     <g id="line2d_11">
      <path d="M 516.917778 501.3525 
L 516.917778 57.8325 
" clip-path="url(#p8928085aa6)" style="fill: none; stroke: #b0b0b0; stroke-opacity: 0.8; stroke-linecap: square"/>
     </g>
     <g id="line2d_12">
      <g>
       <use xlink:href="#m583fcb0bb8" x="516.917778" y="501.3525" style="stroke: #000000; stroke-width: 0.8"/>
      </g>
     </g>
     <g id="text_6">
      <!-- 125 -->
      <g transform="translate(501.228715 521.49625) scale(0.2 -0.2)">
       <use xlink:href="#AptosDisplay-31"/>
       <use xlink:href="#AptosDisplay-32" x="52.294922"/>
       <use xlink:href="#AptosDisplay-35" x="104.589844"/>
      </g>
     </g>
    </g>
    <g id="xtick_7">
     <g id="line2d_13">
      <path d="M 597.351717 501.3525 
L 597.351717 57.8325 
" clip-path="url(#p8928085aa6)" style="fill: none; stroke: #b0b0b0; stroke-opacity: 0.8; stroke-linecap: square"/>
     </g>
     <g id="line2d_14">
      <g>
       <use xlink:href="#m583fcb0bb8" x="597.351717" y="501.3525" style="stroke: #000000; stroke-width: 0.8"/>
      </g>
     </g>
     <g id="text_7">
      <!-- 150 -->
      <g transform="translate(581.662655 521.49625) scale(0.2 -0.2)">
       <use xlink:href="#AptosDisplay-31"/>
       <use xlink:href="#AptosDisplay-35" x="52.294922"/>
       <use xlink:href="#AptosDisplay-30" x="104.589844"/>
      </g>
     </g>
    </g>
    <g id="xtick_8">
     <g id="line2d_15">
      <path d="M 677.785657 501.3525 
L 677.785657 57.8325 
" clip-path="url(#p8928085aa6)" style="fill: none; stroke: #b0b0b0; stroke-opacity: 0.8; stroke-linecap: square"/>
     </g>
     <g id="line2d_16">
      <g>
       <use xlink:href="#m583fcb0bb8" x="677.785657" y="501.3525" style="stroke: #000000; stroke-width: 0.8"/>
      </g>
     </g>
     <g id="text_8">
      <!-- 175 -->
      <g transform="translate(662.096594 521.49625) scale(0.2 -0.2)">
       <use xlink:href="#AptosDisplay-31"/>
       <use xlink:href="#AptosDisplay-37" x="52.294922"/>
       <use xlink:href="#AptosDisplay-35" x="104.589844"/>
      </g>
     </g>
    </g>
    <g id="xtick_9">
     <g id="line2d_17">
      <path d="M 98.661291 501.3525 
L 98.661291 57.8325 
" clip-path="url(#p8928085aa6)" style="fill: none; stroke-dasharray: 1.85,0.8; stroke-dashoffset: 0; stroke: #b0b0b0; stroke-opacity: 0.8; stroke-width: 0.5"/>
     </g>
     <g id="line2d_18">
      <defs>
       <path id="m54bc4b28dc" d="M 0 0 
L 0 2 
" style="stroke: #000000; stroke-width: 0.6"/>
      </defs>
      <g>
       <use xlink:href="#m54bc4b28dc" x="98.661291" y="501.3525" style="stroke: #000000; stroke-width: 0.6"/>
      </g>
     </g>
    </g>
    <g id="xtick_10">
     <g id="line2d_19">
      <path d="M 130.834867 501.3525 
L 130.834867 57.8325 
" clip-path="url(#p8928085aa6)" style="fill: none; stroke-dasharray: 1.85,0.8; stroke-dashoffset: 0; stroke: #b0b0b0; stroke-opacity: 0.8; stroke-width: 0.5"/>
     </g>
     <g id="line2d_20">
      <g>
       <use xlink:href="#m54bc4b28dc" x="130.834867" y="501.3525" style="stroke: #000000; stroke-width: 0.6"/>
      </g>
     </g>
    </g>
    <g id="xtick_11">
     <g id="line2d_21">
      <path d="M 146.921655 501.3525 
L 146.921655 57.8325 
" clip-path="url(#p8928085aa6)" style="fill: none; stroke-dasharray: 1.85,0.8; stroke-dashoffset: 0; stroke: #b0b0b0; stroke-opacity: 0.8; stroke-width: 0.5"/>
     </g>
     <g id="line2d_22">
      <g>
       <use xlink:href="#m54bc4b28dc" x="146.921655" y="501.3525" style="stroke: #000000; stroke-width: 0.6"/>
      </g>
     </g>
    </g>
    <g id="xtick_12">
     <g id="line2d_23">
      <path d="M 163.008443 501.3525 
L 163.008443 57.8325 
" clip-path="url(#p8928085aa6)" style="fill: none; stroke-dasharray: 1.85,0.8; stroke-dashoffset: 0; stroke: #b0b0b0; stroke-opacity: 0.8; stroke-width: 0.5"/>
     </g>
     <g id="line2d_24">
      <g>
       <use xlink:href="#m54bc4b28dc" x="163.008443" y="501.3525" style="stroke: #000000; stroke-width: 0.6"/>
      </g>
     </g>
    </g>
    <g id="xtick_13">
     <g id="line2d_25">
      <path d="M 179.095231 501.3525 
L 179.095231 57.8325 
" clip-path="url(#p8928085aa6)" style="fill: none; stroke-dasharray: 1.85,0.8; stroke-dashoffset: 0; stroke: #b0b0b0; stroke-opacity: 0.8; stroke-width: 0.5"/>
     </g>
     <g id="line2d_26">
      <g>
       <use xlink:href="#m54bc4b28dc" x="179.095231" y="501.3525" style="stroke: #000000; stroke-width: 0.6"/>
      </g>
     </g>
    </g>
    <g id="xtick_14">
     <g id="line2d_27">
      <path d="M 211.268807 501.3525 
L 211.268807 57.8325 
" clip-path="url(#p8928085aa6)" style="fill: none; stroke-dasharray: 1.85,0.8; stroke-dashoffset: 0; stroke: #b0b0b0; stroke-opacity: 0.8; stroke-width: 0.5"/>
     </g>
     <g id="line2d_28">
      <g>
       <use xlink:href="#m54bc4b28dc" x="211.268807" y="501.3525" style="stroke: #000000; stroke-width: 0.6"/>
      </g>
     </g>
    </g>
    <g id="xtick_15">
     <g id="line2d_29">
      <path d="M 227.355595 501.3525 
L 227.355595 57.8325 
" clip-path="url(#p8928085aa6)" style="fill: none; stroke-dasharray: 1.85,0.8; stroke-dashoffset: 0; stroke: #b0b0b0; stroke-opacity: 0.8; stroke-width: 0.5"/>
     </g>
     <g id="line2d_30">
      <g>
       <use xlink:href="#m54bc4b28dc" x="227.355595" y="501.3525" style="stroke: #000000; stroke-width: 0.6"/>
      </g>
     </g>
    </g>
    <g id="xtick_16">
     <g id="line2d_31">
      <path d="M 243.442383 501.3525 
L 243.442383 57.8325 
" clip-path="url(#p8928085aa6)" style="fill: none; stroke-dasharray: 1.85,0.8; stroke-dashoffset: 0; stroke: #b0b0b0; stroke-opacity: 0.8; stroke-width: 0.5"/>
     </g>
     <g id="line2d_32">
      <g>
       <use xlink:href="#m54bc4b28dc" x="243.442383" y="501.3525" style="stroke: #000000; stroke-width: 0.6"/>
      </g>
     </g>
    </g>
    <g id="xtick_17">
     <g id="line2d_33">
      <path d="M 259.529171 501.3525 
L 259.529171 57.8325 
" clip-path="url(#p8928085aa6)" style="fill: none; stroke-dasharray: 1.85,0.8; stroke-dashoffset: 0; stroke: #b0b0b0; stroke-opacity: 0.8; stroke-width: 0.5"/>
     </g>
     <g id="line2d_34">
      <g>
       <use xlink:href="#m54bc4b28dc" x="259.529171" y="501.3525" style="stroke: #000000; stroke-width: 0.6"/>
      </g>
     </g>
    </g>
    <g id="xtick_18">
     <g id="line2d_35">
      <path d="M 291.702747 501.3525 
L 291.702747 57.8325 
" clip-path="url(#p8928085aa6)" style="fill: none; stroke-dasharray: 1.85,0.8; stroke-dashoffset: 0; stroke: #b0b0b0; stroke-opacity: 0.8; stroke-width: 0.5"/>
     </g>
     <g id="line2d_36">
      <g>
       <use xlink:href="#m54bc4b28dc" x="291.702747" y="501.3525" style="stroke: #000000; stroke-width: 0.6"/>
      </g>
     </g>
    </g>
    <g id="xtick_19">
     <g id="line2d_37">
      <path d="M 307.789534 501.3525 
L 307.789534 57.8325 
" clip-path="url(#p8928085aa6)" style="fill: none; stroke-dasharray: 1.85,0.8; stroke-dashoffset: 0; stroke: #b0b0b0; stroke-opacity: 0.8; stroke-width: 0.5"/>
     </g>
     <g id="line2d_38">
      <g>
       <use xlink:href="#m54bc4b28dc" x="307.789534" y="501.3525" style="stroke: #000000; stroke-width: 0.6"/>
      </g>
     </g>
    </g>
    <g id="xtick_20">
     <g id="line2d_39">
      <path d="M 323.876322 501.3525 
L 323.876322 57.8325 
" clip-path="url(#p8928085aa6)" style="fill: none; stroke-dasharray: 1.85,0.8; stroke-dashoffset: 0; stroke: #b0b0b0; stroke-opacity: 0.8; stroke-width: 0.5"/>
     </g>
     <g id="line2d_40">
      <g>
       <use xlink:href="#m54bc4b28dc" x="323.876322" y="501.3525" style="stroke: #000000; stroke-width: 0.6"/>
      </g>
     </g>
    </g>
    <g id="xtick_21">
     <g id="line2d_41">
      <path d="M 339.96311 501.3525 
L 339.96311 57.8325 
" clip-path="url(#p8928085aa6)" style="fill: none; stroke-dasharray: 1.85,0.8; stroke-dashoffset: 0; stroke: #b0b0b0; stroke-opacity: 0.8; stroke-width: 0.5"/>
     </g>
     <g id="line2d_42">
      <g>
       <use xlink:href="#m54bc4b28dc" x="339.96311" y="501.3525" style="stroke: #000000; stroke-width: 0.6"/>
      </g>
     </g>
    </g>
    <g id="xtick_22">
     <g id="line2d_43">
      <path d="M 372.136686 501.3525 
L 372.136686 57.8325 
" clip-path="url(#p8928085aa6)" style="fill: none; stroke-dasharray: 1.85,0.8; stroke-dashoffset: 0; stroke: #b0b0b0; stroke-opacity: 0.8; stroke-width: 0.5"/>
     </g>
     <g id="line2d_44">
      <g>
       <use xlink:href="#m54bc4b28dc" x="372.136686" y="501.3525" style="stroke: #000000; stroke-width: 0.6"/>
      </g>
     </g>
    </g>
    <g id="xtick_23">
     <g id="line2d_45">
      <path d="M 388.223474 501.3525 
L 388.223474 57.8325 
" clip-path="url(#p8928085aa6)" style="fill: none; stroke-dasharray: 1.85,0.8; stroke-dashoffset: 0; stroke: #b0b0b0; stroke-opacity: 0.8; stroke-width: 0.5"/>
     </g>
     <g id="line2d_46">
      <g>
       <use xlink:href="#m54bc4b28dc" x="388.223474" y="501.3525" style="stroke: #000000; stroke-width: 0.6"/>
      </g>
     </g>
    </g>
    <g id="xtick_24">
     <g id="line2d_47">
      <path d="M 404.310262 501.3525 
L 404.310262 57.8325 
" clip-path="url(#p8928085aa6)" style="fill: none; stroke-dasharray: 1.85,0.8; stroke-dashoffset: 0; stroke: #b0b0b0; stroke-opacity: 0.8; stroke-width: 0.5"/>
     </g>
     <g id="line2d_48">
      <g>
       <use xlink:href="#m54bc4b28dc" x="404.310262" y="501.3525" style="stroke: #000000; stroke-width: 0.6"/>
      </g>
     </g>
    </g>
    <g id="xtick_25">
     <g id="line2d_49">
      <path d="M 420.39705 501.3525 
L 420.39705 57.8325 
" clip-path="url(#p8928085aa6)" style="fill: none; stroke-dasharray: 1.85,0.8; stroke-dashoffset: 0; stroke: #b0b0b0; stroke-opacity: 0.8; stroke-width: 0.5"/>
     </g>
     <g id="line2d_50">
      <g>
       <use xlink:href="#m54bc4b28dc" x="420.39705" y="501.3525" style="stroke: #000000; stroke-width: 0.6"/>
      </g>
     </g>
    </g>
    <g id="xtick_26">
     <g id="line2d_51">
      <path d="M 452.570626 501.3525 
L 452.570626 57.8325 
" clip-path="url(#p8928085aa6)" style="fill: none; stroke-dasharray: 1.85,0.8; stroke-dashoffset: 0; stroke: #b0b0b0; stroke-opacity: 0.8; stroke-width: 0.5"/>
     </g>
     <g id="line2d_52">
      <g>
       <use xlink:href="#m54bc4b28dc" x="452.570626" y="501.3525" style="stroke: #000000; stroke-width: 0.6"/>
      </g>
     </g>
    </g>
    <g id="xtick_27">
     <g id="line2d_53">
      <path d="M 468.657414 501.3525 
L 468.657414 57.8325 
" clip-path="url(#p8928085aa6)" style="fill: none; stroke-dasharray: 1.85,0.8; stroke-dashoffset: 0; stroke: #b0b0b0; stroke-opacity: 0.8; stroke-width: 0.5"/>
     </g>
     <g id="line2d_54">
      <g>
       <use xlink:href="#m54bc4b28dc" x="468.657414" y="501.3525" style="stroke: #000000; stroke-width: 0.6"/>
      </g>
     </g>
    </g>
    <g id="xtick_28">
     <g id="line2d_55">
      <path d="M 484.744202 501.3525 
L 484.744202 57.8325 
" clip-path="url(#p8928085aa6)" style="fill: none; stroke-dasharray: 1.85,0.8; stroke-dashoffset: 0; stroke: #b0b0b0; stroke-opacity: 0.8; stroke-width: 0.5"/>
     </g>
     <g id="line2d_56">
      <g>
       <use xlink:href="#m54bc4b28dc" x="484.744202" y="501.3525" style="stroke: #000000; stroke-width: 0.6"/>
      </g>
     </g>
    </g>
    <g id="xtick_29">
     <g id="line2d_57">
      <path d="M 500.83099 501.3525 
L 500.83099 57.8325 
" clip-path="url(#p8928085aa6)" style="fill: none; stroke-dasharray: 1.85,0.8; stroke-dashoffset: 0; stroke: #b0b0b0; stroke-opacity: 0.8; stroke-width: 0.5"/>
     </g>
     <g id="line2d_58">
      <g>
       <use xlink:href="#m54bc4b28dc" x="500.83099" y="501.3525" style="stroke: #000000; stroke-width: 0.6"/>
      </g>
     </g>
    </g>
    <g id="xtick_30">
     <g id="line2d_59">
      <path d="M 533.004566 501.3525 
L 533.004566 57.8325 
" clip-path="url(#p8928085aa6)" style="fill: none; stroke-dasharray: 1.85,0.8; stroke-dashoffset: 0; stroke: #b0b0b0; stroke-opacity: 0.8; stroke-width: 0.5"/>
     </g>
     <g id="line2d_60">
      <g>
       <use xlink:href="#m54bc4b28dc" x="533.004566" y="501.3525" style="stroke: #000000; stroke-width: 0.6"/>
      </g>
     </g>
    </g>
    <g id="xtick_31">
     <g id="line2d_61">
      <path d="M 549.091353 501.3525 
L 549.091353 57.8325 
" clip-path="url(#p8928085aa6)" style="fill: none; stroke-dasharray: 1.85,0.8; stroke-dashoffset: 0; stroke: #b0b0b0; stroke-opacity: 0.8; stroke-width: 0.5"/>
     </g>
     <g id="line2d_62">
      <g>
       <use xlink:href="#m54bc4b28dc" x="549.091353" y="501.3525" style="stroke: #000000; stroke-width: 0.6"/>
      </g>
     </g>
    </g>
    <g id="xtick_32">
     <g id="line2d_63">
      <path d="M 565.178141 501.3525 
L 565.178141 57.8325 
" clip-path="url(#p8928085aa6)" style="fill: none; stroke-dasharray: 1.85,0.8; stroke-dashoffset: 0; stroke: #b0b0b0; stroke-opacity: 0.8; stroke-width: 0.5"/>
     </g>
     <g id="line2d_64">
      <g>
       <use xlink:href="#m54bc4b28dc" x="565.178141" y="501.3525" style="stroke: #000000; stroke-width: 0.6"/>
      </g>
     </g>
    </g>
    <g id="xtick_33">
     <g id="line2d_65">
      <path d="M 581.264929 501.3525 
L 581.264929 57.8325 
" clip-path="url(#p8928085aa6)" style="fill: none; stroke-dasharray: 1.85,0.8; stroke-dashoffset: 0; stroke: #b0b0b0; stroke-opacity: 0.8; stroke-width: 0.5"/>
     </g>
     <g id="line2d_66">
      <g>
       <use xlink:href="#m54bc4b28dc" x="581.264929" y="501.3525" style="stroke: #000000; stroke-width: 0.6"/>
      </g>
     </g>
    </g>
    <g id="xtick_34">
     <g id="line2d_67">
      <path d="M 613.438505 501.3525 
L 613.438505 57.8325 
" clip-path="url(#p8928085aa6)" style="fill: none; stroke-dasharray: 1.85,0.8; stroke-dashoffset: 0; stroke: #b0b0b0; stroke-opacity: 0.8; stroke-width: 0.5"/>
     </g>
     <g id="line2d_68">
      <g>
       <use xlink:href="#m54bc4b28dc" x="613.438505" y="501.3525" style="stroke: #000000; stroke-width: 0.6"/>
      </g>
     </g>
    </g>
    <g id="xtick_35">
     <g id="line2d_69">
      <path d="M 629.525293 501.3525 
L 629.525293 57.8325 
" clip-path="url(#p8928085aa6)" style="fill: none; stroke-dasharray: 1.85,0.8; stroke-dashoffset: 0; stroke: #b0b0b0; stroke-opacity: 0.8; stroke-width: 0.5"/>
     </g>
     <g id="line2d_70">
      <g>
       <use xlink:href="#m54bc4b28dc" x="629.525293" y="501.3525" style="stroke: #000000; stroke-width: 0.6"/>
      </g>
     </g>
    </g>
    <g id="xtick_36">
     <g id="line2d_71">
      <path d="M 645.612081 501.3525 
L 645.612081 57.8325 
" clip-path="url(#p8928085aa6)" style="fill: none; stroke-dasharray: 1.85,0.8; stroke-dashoffset: 0; stroke: #b0b0b0; stroke-opacity: 0.8; stroke-width: 0.5"/>
     </g>
     <g id="line2d_72">
      <g>
       <use xlink:href="#m54bc4b28dc" x="645.612081" y="501.3525" style="stroke: #000000; stroke-width: 0.6"/>
      </g>
     </g>
    </g>
    <g id="xtick_37">
     <g id="line2d_73">
      <path d="M 661.698869 501.3525 
L 661.698869 57.8325 
" clip-path="url(#p8928085aa6)" style="fill: none; stroke-dasharray: 1.85,0.8; stroke-dashoffset: 0; stroke: #b0b0b0; stroke-opacity: 0.8; stroke-width: 0.5"/>
     </g>
     <g id="line2d_74">
      <g>
       <use xlink:href="#m54bc4b28dc" x="661.698869" y="501.3525" style="stroke: #000000; stroke-width: 0.6"/>
      </g>
     </g>
    </g>
    <g id="xtick_38">
     <g id="line2d_75">
      <path d="M 693.872445 501.3525 
L 693.872445 57.8325 
" clip-path="url(#p8928085aa6)" style="fill: none; stroke-dasharray: 1.85,0.8; stroke-dashoffset: 0; stroke: #b0b0b0; stroke-opacity: 0.8; stroke-width: 0.5"/>
     </g>
     <g id="line2d_76">
      <g>
       <use xlink:href="#m54bc4b28dc" x="693.872445" y="501.3525" style="stroke: #000000; stroke-width: 0.6"/>
      </g>
     </g>
    </g>
    <g id="xtick_39">
     <g id="line2d_77">
      <path d="M 709.959233 501.3525 
L 709.959233 57.8325 
" clip-path="url(#p8928085aa6)" style="fill: none; stroke-dasharray: 1.85,0.8; stroke-dashoffset: 0; stroke: #b0b0b0; stroke-opacity: 0.8; stroke-width: 0.5"/>
     </g>
     <g id="line2d_78">
      <g>
       <use xlink:href="#m54bc4b28dc" x="709.959233" y="501.3525" style="stroke: #000000; stroke-width: 0.6"/>
      </g>
     </g>
    </g>
    <g id="xtick_40">
     <g id="line2d_79">
      <path d="M 726.046021 501.3525 
L 726.046021 57.8325 
" clip-path="url(#p8928085aa6)" style="fill: none; stroke-dasharray: 1.85,0.8; stroke-dashoffset: 0; stroke: #b0b0b0; stroke-opacity: 0.8; stroke-width: 0.5"/>
     </g>
     <g id="line2d_80">
      <g>
       <use xlink:href="#m54bc4b28dc" x="726.046021" y="501.3525" style="stroke: #000000; stroke-width: 0.6"/>
      </g>
     </g>
    </g>
    <g id="xtick_41">
     <g id="line2d_81">
      <path d="M 742.132809 501.3525 
L 742.132809 57.8325 
" clip-path="url(#p8928085aa6)" style="fill: none; stroke-dasharray: 1.85,0.8; stroke-dashoffset: 0; stroke: #b0b0b0; stroke-opacity: 0.8; stroke-width: 0.5"/>
     </g>
     <g id="line2d_82">
      <g>
       <use xlink:href="#m54bc4b28dc" x="742.132809" y="501.3525" style="stroke: #000000; stroke-width: 0.6"/>
      </g>
     </g>
    </g>
    <g id="text_9">
     <!-- Time (S) -->
     <g transform="translate(386.375 542.305625) scale(0.2 -0.2)">
      <defs>
       <path id="AptosDisplay-54" d="M 1244 0 
L 1244 3734 
L 50 3734 
L 50 4206 
L 2997 4206 
L 2997 3734 
L 1806 3734 
L 1806 0 
L 1244 0 
z
" transform="scale(0.015625)"/>
       <path id="AptosDisplay-69" d="M 413 0 
L 413 3044 
L 934 3044 
L 934 0 
L 413 0 
z
M 675 3616 
Q 525 3616 437 3702 
Q 350 3788 350 3919 
Q 350 4050 437 4136 
Q 525 4222 675 4222 
Q 822 4222 912 4136 
Q 1003 4050 1003 3919 
Q 1003 3788 912 3702 
Q 822 3616 675 3616 
z
" transform="scale(0.015625)"/>
       <path id="AptosDisplay-6d" d="M 413 0 
L 413 3044 
L 919 3044 
L 931 2575 
Q 1063 2756 1303 2914 
Q 1544 3072 1903 3072 
Q 2403 3072 2618 2778 
Q 2834 2484 2834 1963 
L 2834 0 
L 2316 0 
L 2316 1891 
Q 2316 2106 2275 2275 
Q 2234 2444 2120 2539 
Q 2006 2634 1788 2634 
Q 1488 2634 1277 2482 
Q 1066 2331 934 2156 
L 934 0 
L 413 0 
z
M 4206 0 
L 4206 1891 
Q 4206 2106 4164 2275 
Q 4122 2444 4009 2539 
Q 3897 2634 3681 2634 
Q 3381 2634 3165 2484 
Q 2950 2334 2822 2159 
L 2744 2544 
Q 2916 2741 3175 2906 
Q 3434 3072 3800 3072 
Q 4291 3072 4509 2778 
Q 4728 2484 4728 1963 
L 4728 0 
L 4206 0 
z
" transform="scale(0.015625)"/>
       <path id="AptosDisplay-65" d="M 1663 -56 
Q 1188 -56 878 151 
Q 569 359 417 717 
Q 266 1075 266 1522 
Q 266 1988 412 2342 
Q 559 2697 857 2897 
Q 1156 3097 1606 3097 
Q 2209 3097 2550 2722 
Q 2891 2347 2891 1644 
Q 2891 1597 2889 1533 
Q 2888 1469 2881 1441 
L 791 1441 
Q 794 1144 881 895 
Q 969 647 1161 497 
Q 1353 347 1663 347 
Q 1997 347 2183 511 
Q 2369 675 2378 984 
L 2894 984 
Q 2884 663 2732 430 
Q 2581 197 2309 70 
Q 2038 -56 1663 -56 
z
M 794 1822 
L 2375 1822 
Q 2366 2247 2166 2472 
Q 1966 2697 1606 2697 
Q 1241 2697 1036 2473 
Q 831 2250 794 1822 
z
" transform="scale(0.015625)"/>
       <path id="AptosDisplay-20" transform="scale(0.015625)"/>
       <path id="AptosDisplay-28" d="M 1219 -1116 
Q 969 -678 787 -267 
Q 606 144 511 581 
Q 416 1019 416 1528 
Q 416 2028 509 2486 
Q 603 2944 783 3378 
Q 963 3813 1219 4231 
L 1647 4231 
Q 1278 3600 1101 2886 
Q 925 2172 925 1428 
Q 925 766 1125 103 
Q 1325 -559 1647 -1116 
L 1219 -1116 
z
" transform="scale(0.015625)"/>
       <path id="AptosDisplay-53" d="M 1778 -56 
Q 1328 -56 962 81 
Q 597 219 384 512 
Q 172 806 172 1275 
L 734 1275 
Q 738 941 883 750 
Q 1028 559 1267 481 
Q 1506 403 1794 403 
Q 2063 403 2283 483 
Q 2503 563 2634 723 
Q 2766 884 2766 1134 
Q 2766 1356 2662 1497 
Q 2559 1638 2321 1742 
Q 2084 1847 1678 1950 
Q 1203 2075 897 2223 
Q 591 2372 442 2594 
Q 294 2816 294 3156 
Q 294 3516 462 3761 
Q 631 4006 945 4134 
Q 1259 4263 1697 4263 
Q 2103 4263 2440 4131 
Q 2778 4000 2979 3737 
Q 3181 3475 3181 3084 
L 2616 3084 
Q 2622 3441 2356 3623 
Q 2091 3806 1700 3806 
Q 1300 3806 1073 3645 
Q 847 3484 847 3175 
Q 847 2991 944 2867 
Q 1041 2744 1280 2644 
Q 1519 2544 1941 2434 
Q 2428 2303 2731 2153 
Q 3034 2003 3178 1768 
Q 3322 1534 3322 1153 
Q 3322 747 3117 480 
Q 2913 213 2564 78 
Q 2216 -56 1778 -56 
z
" transform="scale(0.015625)"/>
       <path id="AptosDisplay-29" d="M 234 -1116 
Q 609 -481 786 233 
Q 963 947 963 1694 
Q 963 2356 759 3015 
Q 556 3675 234 4231 
L 663 4231 
Q 919 3800 1098 3389 
Q 1278 2978 1373 2540 
Q 1469 2103 1469 1594 
Q 1469 1094 1375 634 
Q 1281 175 1100 -259 
Q 919 -694 663 -1116 
L 234 -1116 
z
" transform="scale(0.015625)"/>
      </defs>
      <use xlink:href="#AptosDisplay-54"/>
      <use xlink:href="#AptosDisplay-69" x="47.705078"/>
      <use xlink:href="#AptosDisplay-6d" x="68.75"/>
      <use xlink:href="#AptosDisplay-65" x="148.730469"/>
      <use xlink:href="#AptosDisplay-20" x="198.144531"/>
      <use xlink:href="#AptosDisplay-28" x="217.431641"/>
      <use xlink:href="#AptosDisplay-53" x="246.875"/>
      <use xlink:href="#AptosDisplay-29" x="301.464844"/>
     </g>
    </g>
   </g>
   <g id="matplotlib.axis_2">
    <g id="ytick_1">
     <g id="line2d_83">
      <path d="M 84.665625 429.169469 
L 754.265625 429.169469 
" clip-path="url(#p8928085aa6)" style="fill: none; stroke: #b0b0b0; stroke-opacity: 0.8; stroke-linecap: square"/>
     </g>
     <g id="line2d_84">
      <defs>
       <path id="mfe06afbb89" d="M 0 0 
L -3.5 0 
" style="stroke: #000000; stroke-width: 0.8"/>
      </defs>
      <g>
       <use xlink:href="#mfe06afbb89" x="84.665625" y="429.169469" style="stroke: #000000; stroke-width: 0.8"/>
      </g>
     </g>
     <g id="text_10">
      <!-- 5 -->
      <g transform="translate(67.20625 435.741344) scale(0.2 -0.2)">
       <use xlink:href="#AptosDisplay-35"/>
      </g>
     </g>
    </g>
    <g id="ytick_2">
     <g id="line2d_85">
      <path d="M 84.665625 349.454451 
L 754.265625 349.454451 
" clip-path="url(#p8928085aa6)" style="fill: none; stroke: #b0b0b0; stroke-opacity: 0.8; stroke-linecap: square"/>
     </g>
     <g id="line2d_86">
      <g>
       <use xlink:href="#mfe06afbb89" x="84.665625" y="349.454451" style="stroke: #000000; stroke-width: 0.8"/>
      </g>
     </g>
     <g id="text_11">
      <!-- 10 -->
      <g transform="translate(56.746875 356.026326) scale(0.2 -0.2)">
       <use xlink:href="#AptosDisplay-31"/>
       <use xlink:href="#AptosDisplay-30" x="52.294922"/>
      </g>
     </g>
    </g>
    <g id="ytick_3">
     <g id="line2d_87">
      <path d="M 84.665625 269.739434 
L 754.265625 269.739434 
" clip-path="url(#p8928085aa6)" style="fill: none; stroke: #b0b0b0; stroke-opacity: 0.8; stroke-linecap: square"/>
     </g>
     <g id="line2d_88">
      <g>
       <use xlink:href="#mfe06afbb89" x="84.665625" y="269.739434" style="stroke: #000000; stroke-width: 0.8"/>
      </g>
     </g>
     <g id="text_12">
      <!-- 15 -->
      <g transform="translate(56.746875 276.311309) scale(0.2 -0.2)">
       <use xlink:href="#AptosDisplay-31"/>
       <use xlink:href="#AptosDisplay-35" x="52.294922"/>
      </g>
     </g>
    </g>
    <g id="ytick_4">
     <g id="line2d_89">
      <path d="M 84.665625 190.024416 
L 754.265625 190.024416 
" clip-path="url(#p8928085aa6)" style="fill: none; stroke: #b0b0b0; stroke-opacity: 0.8; stroke-linecap: square"/>
     </g>
     <g id="line2d_90">
      <g>
       <use xlink:href="#mfe06afbb89" x="84.665625" y="190.024416" style="stroke: #000000; stroke-width: 0.8"/>
      </g>
     </g>
     <g id="text_13">
      <!-- 20 -->
      <g transform="translate(56.746875 196.596291) scale(0.2 -0.2)">
       <use xlink:href="#AptosDisplay-32"/>
       <use xlink:href="#AptosDisplay-30" x="52.294922"/>
      </g>
     </g>
    </g>
    <g id="ytick_5">
     <g id="line2d_91">
      <path d="M 84.665625 110.309399 
L 754.265625 110.309399 
" clip-path="url(#p8928085aa6)" style="fill: none; stroke: #b0b0b0; stroke-opacity: 0.8; stroke-linecap: square"/>
     </g>
     <g id="line2d_92">
      <g>
       <use xlink:href="#mfe06afbb89" x="84.665625" y="110.309399" style="stroke: #000000; stroke-width: 0.8"/>
      </g>
     </g>
     <g id="text_14">
      <!-- 25 -->
      <g transform="translate(56.746875 116.881274) scale(0.2 -0.2)">
       <use xlink:href="#AptosDisplay-32"/>
       <use xlink:href="#AptosDisplay-35" x="52.294922"/>
      </g>
     </g>
    </g>
    <g id="ytick_6">
     <g id="line2d_93">
      <path d="M 84.665625 492.941483 
L 754.265625 492.941483 
" clip-path="url(#p8928085aa6)" style="fill: none; stroke-dasharray: 1.85,0.8; stroke-dashoffset: 0; stroke: #b0b0b0; stroke-opacity: 0.8; stroke-width: 0.5"/>
     </g>
     <g id="line2d_94">
      <defs>
       <path id="mf604cde8ea" d="M 0 0 
L -2 0 
" style="stroke: #000000; stroke-width: 0.6"/>
      </defs>
      <g>
       <use xlink:href="#mf604cde8ea" x="84.665625" y="492.941483" style="stroke: #000000; stroke-width: 0.6"/>
      </g>
     </g>
    </g>
    <g id="ytick_7">
     <g id="line2d_95">
      <path d="M 84.665625 476.998479 
L 754.265625 476.998479 
" clip-path="url(#p8928085aa6)" style="fill: none; stroke-dasharray: 1.85,0.8; stroke-dashoffset: 0; stroke: #b0b0b0; stroke-opacity: 0.8; stroke-width: 0.5"/>
     </g>
     <g id="line2d_96">
      <g>
       <use xlink:href="#mf604cde8ea" x="84.665625" y="476.998479" style="stroke: #000000; stroke-width: 0.6"/>
      </g>
     </g>
    </g>
    <g id="ytick_8">
     <g id="line2d_97">
      <path d="M 84.665625 461.055476 
L 754.265625 461.055476 
" clip-path="url(#p8928085aa6)" style="fill: none; stroke-dasharray: 1.85,0.8; stroke-dashoffset: 0; stroke: #b0b0b0; stroke-opacity: 0.8; stroke-width: 0.5"/>
     </g>
     <g id="line2d_98">
      <g>
       <use xlink:href="#mf604cde8ea" x="84.665625" y="461.055476" style="stroke: #000000; stroke-width: 0.6"/>
      </g>
     </g>
    </g>
    <g id="ytick_9">
     <g id="line2d_99">
      <path d="M 84.665625 445.112472 
L 754.265625 445.112472 
" clip-path="url(#p8928085aa6)" style="fill: none; stroke-dasharray: 1.85,0.8; stroke-dashoffset: 0; stroke: #b0b0b0; stroke-opacity: 0.8; stroke-width: 0.5"/>
     </g>
     <g id="line2d_100">
      <g>
       <use xlink:href="#mf604cde8ea" x="84.665625" y="445.112472" style="stroke: #000000; stroke-width: 0.6"/>
      </g>
     </g>
    </g>
    <g id="ytick_10">
     <g id="line2d_101">
      <path d="M 84.665625 413.226465 
L 754.265625 413.226465 
" clip-path="url(#p8928085aa6)" style="fill: none; stroke-dasharray: 1.85,0.8; stroke-dashoffset: 0; stroke: #b0b0b0; stroke-opacity: 0.8; stroke-width: 0.5"/>
     </g>
     <g id="line2d_102">
      <g>
       <use xlink:href="#mf604cde8ea" x="84.665625" y="413.226465" style="stroke: #000000; stroke-width: 0.6"/>
      </g>
     </g>
    </g>
    <g id="ytick_11">
     <g id="line2d_103">
      <path d="M 84.665625 397.283462 
L 754.265625 397.283462 
" clip-path="url(#p8928085aa6)" style="fill: none; stroke-dasharray: 1.85,0.8; stroke-dashoffset: 0; stroke: #b0b0b0; stroke-opacity: 0.8; stroke-width: 0.5"/>
     </g>
     <g id="line2d_104">
      <g>
       <use xlink:href="#mf604cde8ea" x="84.665625" y="397.283462" style="stroke: #000000; stroke-width: 0.6"/>
      </g>
     </g>
    </g>
    <g id="ytick_12">
     <g id="line2d_105">
      <path d="M 84.665625 381.340458 
L 754.265625 381.340458 
" clip-path="url(#p8928085aa6)" style="fill: none; stroke-dasharray: 1.85,0.8; stroke-dashoffset: 0; stroke: #b0b0b0; stroke-opacity: 0.8; stroke-width: 0.5"/>
     </g>
     <g id="line2d_106">
      <g>
       <use xlink:href="#mf604cde8ea" x="84.665625" y="381.340458" style="stroke: #000000; stroke-width: 0.6"/>
      </g>
     </g>
    </g>
    <g id="ytick_13">
     <g id="line2d_107">
      <path d="M 84.665625 365.397455 
L 754.265625 365.397455 
" clip-path="url(#p8928085aa6)" style="fill: none; stroke-dasharray: 1.85,0.8; stroke-dashoffset: 0; stroke: #b0b0b0; stroke-opacity: 0.8; stroke-width: 0.5"/>
     </g>
     <g id="line2d_108">
      <g>
       <use xlink:href="#mf604cde8ea" x="84.665625" y="365.397455" style="stroke: #000000; stroke-width: 0.6"/>
      </g>
     </g>
    </g>
    <g id="ytick_14">
     <g id="line2d_109">
      <path d="M 84.665625 333.511448 
L 754.265625 333.511448 
" clip-path="url(#p8928085aa6)" style="fill: none; stroke-dasharray: 1.85,0.8; stroke-dashoffset: 0; stroke: #b0b0b0; stroke-opacity: 0.8; stroke-width: 0.5"/>
     </g>
     <g id="line2d_110">
      <g>
       <use xlink:href="#mf604cde8ea" x="84.665625" y="333.511448" style="stroke: #000000; stroke-width: 0.6"/>
      </g>
     </g>
    </g>
    <g id="ytick_15">
     <g id="line2d_111">
      <path d="M 84.665625 317.568444 
L 754.265625 317.568444 
" clip-path="url(#p8928085aa6)" style="fill: none; stroke-dasharray: 1.85,0.8; stroke-dashoffset: 0; stroke: #b0b0b0; stroke-opacity: 0.8; stroke-width: 0.5"/>
     </g>
     <g id="line2d_112">
      <g>
       <use xlink:href="#mf604cde8ea" x="84.665625" y="317.568444" style="stroke: #000000; stroke-width: 0.6"/>
      </g>
     </g>
    </g>
    <g id="ytick_16">
     <g id="line2d_113">
      <path d="M 84.665625 301.625441 
L 754.265625 301.625441 
" clip-path="url(#p8928085aa6)" style="fill: none; stroke-dasharray: 1.85,0.8; stroke-dashoffset: 0; stroke: #b0b0b0; stroke-opacity: 0.8; stroke-width: 0.5"/>
     </g>
     <g id="line2d_114">
      <g>
       <use xlink:href="#mf604cde8ea" x="84.665625" y="301.625441" style="stroke: #000000; stroke-width: 0.6"/>
      </g>
     </g>
    </g>
    <g id="ytick_17">
     <g id="line2d_115">
      <path d="M 84.665625 285.682437 
L 754.265625 285.682437 
" clip-path="url(#p8928085aa6)" style="fill: none; stroke-dasharray: 1.85,0.8; stroke-dashoffset: 0; stroke: #b0b0b0; stroke-opacity: 0.8; stroke-width: 0.5"/>
     </g>
     <g id="line2d_116">
      <g>
       <use xlink:href="#mf604cde8ea" x="84.665625" y="285.682437" style="stroke: #000000; stroke-width: 0.6"/>
      </g>
     </g>
    </g>
    <g id="ytick_18">
     <g id="line2d_117">
      <path d="M 84.665625 253.79643 
L 754.265625 253.79643 
" clip-path="url(#p8928085aa6)" style="fill: none; stroke-dasharray: 1.85,0.8; stroke-dashoffset: 0; stroke: #b0b0b0; stroke-opacity: 0.8; stroke-width: 0.5"/>
     </g>
     <g id="line2d_118">
      <g>
       <use xlink:href="#mf604cde8ea" x="84.665625" y="253.79643" style="stroke: #000000; stroke-width: 0.6"/>
      </g>
     </g>
    </g>
    <g id="ytick_19">
     <g id="line2d_119">
      <path d="M 84.665625 237.853427 
L 754.265625 237.853427 
" clip-path="url(#p8928085aa6)" style="fill: none; stroke-dasharray: 1.85,0.8; stroke-dashoffset: 0; stroke: #b0b0b0; stroke-opacity: 0.8; stroke-width: 0.5"/>
     </g>
     <g id="line2d_120">
      <g>
       <use xlink:href="#mf604cde8ea" x="84.665625" y="237.853427" style="stroke: #000000; stroke-width: 0.6"/>
      </g>
     </g>
    </g>
    <g id="ytick_20">
     <g id="line2d_121">
      <path d="M 84.665625 221.910423 
L 754.265625 221.910423 
" clip-path="url(#p8928085aa6)" style="fill: none; stroke-dasharray: 1.85,0.8; stroke-dashoffset: 0; stroke: #b0b0b0; stroke-opacity: 0.8; stroke-width: 0.5"/>
     </g>
     <g id="line2d_122">
      <g>
       <use xlink:href="#mf604cde8ea" x="84.665625" y="221.910423" style="stroke: #000000; stroke-width: 0.6"/>
      </g>
     </g>
    </g>
    <g id="ytick_21">
     <g id="line2d_123">
      <path d="M 84.665625 205.96742 
L 754.265625 205.96742 
" clip-path="url(#p8928085aa6)" style="fill: none; stroke-dasharray: 1.85,0.8; stroke-dashoffset: 0; stroke: #b0b0b0; stroke-opacity: 0.8; stroke-width: 0.5"/>
     </g>
     <g id="line2d_124">
      <g>
       <use xlink:href="#mf604cde8ea" x="84.665625" y="205.96742" style="stroke: #000000; stroke-width: 0.6"/>
      </g>
     </g>
    </g>
    <g id="ytick_22">
     <g id="line2d_125">
      <path d="M 84.665625 174.081413 
L 754.265625 174.081413 
" clip-path="url(#p8928085aa6)" style="fill: none; stroke-dasharray: 1.85,0.8; stroke-dashoffset: 0; stroke: #b0b0b0; stroke-opacity: 0.8; stroke-width: 0.5"/>
     </g>
     <g id="line2d_126">
      <g>
       <use xlink:href="#mf604cde8ea" x="84.665625" y="174.081413" style="stroke: #000000; stroke-width: 0.6"/>
      </g>
     </g>
    </g>
    <g id="ytick_23">
     <g id="line2d_127">
      <path d="M 84.665625 158.138409 
L 754.265625 158.138409 
" clip-path="url(#p8928085aa6)" style="fill: none; stroke-dasharray: 1.85,0.8; stroke-dashoffset: 0; stroke: #b0b0b0; stroke-opacity: 0.8; stroke-width: 0.5"/>
     </g>
     <g id="line2d_128">
      <g>
       <use xlink:href="#mf604cde8ea" x="84.665625" y="158.138409" style="stroke: #000000; stroke-width: 0.6"/>
      </g>
     </g>
    </g>
    <g id="ytick_24">
     <g id="line2d_129">
      <path d="M 84.665625 142.195406 
L 754.265625 142.195406 
" clip-path="url(#p8928085aa6)" style="fill: none; stroke-dasharray: 1.85,0.8; stroke-dashoffset: 0; stroke: #b0b0b0; stroke-opacity: 0.8; stroke-width: 0.5"/>
     </g>
     <g id="line2d_130">
      <g>
       <use xlink:href="#mf604cde8ea" x="84.665625" y="142.195406" style="stroke: #000000; stroke-width: 0.6"/>
      </g>
     </g>
    </g>
    <g id="ytick_25">
     <g id="line2d_131">
      <path d="M 84.665625 126.252402 
L 754.265625 126.252402 
" clip-path="url(#p8928085aa6)" style="fill: none; stroke-dasharray: 1.85,0.8; stroke-dashoffset: 0; stroke: #b0b0b0; stroke-opacity: 0.8; stroke-width: 0.5"/>
     </g>
     <g id="line2d_132">
      <g>
       <use xlink:href="#mf604cde8ea" x="84.665625" y="126.252402" style="stroke: #000000; stroke-width: 0.6"/>
      </g>
     </g>
    </g>
    <g id="ytick_26">
     <g id="line2d_133">
      <path d="M 84.665625 94.366395 
L 754.265625 94.366395 
" clip-path="url(#p8928085aa6)" style="fill: none; stroke-dasharray: 1.85,0.8; stroke-dashoffset: 0; stroke: #b0b0b0; stroke-opacity: 0.8; stroke-width: 0.5"/>
     </g>
     <g id="line2d_134">
      <g>
       <use xlink:href="#mf604cde8ea" x="84.665625" y="94.366395" style="stroke: #000000; stroke-width: 0.6"/>
      </g>
     </g>
    </g>
    <g id="ytick_27">
     <g id="line2d_135">
      <path d="M 84.665625 78.423392 
L 754.265625 78.423392 
" clip-path="url(#p8928085aa6)" style="fill: none; stroke-dasharray: 1.85,0.8; stroke-dashoffset: 0; stroke: #b0b0b0; stroke-opacity: 0.8; stroke-width: 0.5"/>
     </g>
     <g id="line2d_136">
      <g>
       <use xlink:href="#mf604cde8ea" x="84.665625" y="78.423392" style="stroke: #000000; stroke-width: 0.6"/>
      </g>
     </g>
    </g>
    <g id="ytick_28">
     <g id="line2d_137">
      <path d="M 84.665625 62.480389 
L 754.265625 62.480389 
" clip-path="url(#p8928085aa6)" style="fill: none; stroke-dasharray: 1.85,0.8; stroke-dashoffset: 0; stroke: #b0b0b0; stroke-opacity: 0.8; stroke-width: 0.5"/>
     </g>
     <g id="line2d_138">
      <g>
       <use xlink:href="#mf604cde8ea" x="84.665625" y="62.480389" style="stroke: #000000; stroke-width: 0.6"/>
      </g>
     </g>
    </g>
    <g id="text_15">
     <!-- Efficiency (%) -->
     <g transform="translate(49.221875 335.120625) rotate(-90) scale(0.2 -0.2)">
      <defs>
       <path id="AptosDisplay-45" d="M 472 0 
L 472 4206 
L 3153 4206 
L 3153 3738 
L 1034 3738 
L 1034 2397 
L 2984 2397 
L 2984 1934 
L 1034 1934 
L 1034 469 
L 3153 469 
L 3153 0 
L 472 0 
z
" transform="scale(0.015625)"/>
       <path id="AptosDisplay-66" d="M 550 0 
L 550 2622 
L 44 2622 
L 44 3044 
L 550 3044 
L 550 3219 
Q 550 3453 589 3636 
Q 628 3819 728 3947 
Q 828 4075 1004 4140 
Q 1181 4206 1463 4206 
L 1781 4206 
L 1781 3797 
L 1494 3797 
Q 1219 3797 1145 3645 
Q 1072 3494 1072 3209 
L 1072 3044 
L 1775 3044 
L 1775 2622 
L 1072 2622 
L 1072 0 
L 550 0 
z
" transform="scale(0.015625)"/>
       <path id="AptosDisplay-63" d="M 1634 -53 
Q 1234 -53 925 122 
Q 616 297 441 645 
Q 266 994 266 1513 
Q 266 2031 437 2384 
Q 609 2738 917 2916 
Q 1225 3094 1634 3094 
Q 1978 3094 2251 2978 
Q 2525 2863 2689 2630 
Q 2853 2397 2866 2041 
L 2350 2041 
Q 2328 2334 2139 2503 
Q 1950 2672 1644 2672 
Q 1228 2672 1015 2367 
Q 803 2063 803 1513 
Q 803 1150 897 894 
Q 991 638 1178 503 
Q 1366 369 1644 369 
Q 1956 369 2159 541 
Q 2363 713 2372 1047 
L 2884 1047 
Q 2878 681 2711 436 
Q 2544 191 2264 69 
Q 1984 -53 1634 -53 
z
" transform="scale(0.015625)"/>
       <path id="AptosDisplay-6e" d="M 413 0 
L 413 3044 
L 919 3044 
L 931 2575 
Q 1066 2756 1316 2914 
Q 1566 3072 1941 3072 
Q 2428 3072 2637 2781 
Q 2847 2491 2847 1963 
L 2847 0 
L 2328 0 
L 2328 1891 
Q 2328 2106 2286 2275 
Q 2244 2444 2133 2539 
Q 2022 2634 1816 2634 
Q 1500 2634 1283 2482 
Q 1066 2331 934 2156 
L 934 0 
L 413 0 
z
" transform="scale(0.015625)"/>
       <path id="AptosDisplay-79" d="M 266 -1128 
L 266 -697 
L 525 -697 
Q 716 -697 831 -598 
Q 947 -500 1038 -275 
L 1153 0 
L -13 3044 
L 538 3044 
L 1428 553 
L 2250 3044 
L 2781 3044 
L 1688 0 
L 1550 -356 
Q 1441 -647 1314 -815 
Q 1188 -984 1013 -1056 
Q 838 -1128 578 -1128 
L 266 -1128 
z
" transform="scale(0.015625)"/>
       <path id="AptosDisplay-25" d="M 1188 0 
L 3669 4078 
L 4094 4078 
L 1613 0 
L 1188 0 
z
M 1197 1606 
Q 878 1606 679 1765 
Q 481 1925 390 2209 
Q 300 2494 300 2872 
Q 300 3253 390 3536 
Q 481 3819 679 3976 
Q 878 4134 1197 4134 
Q 1519 4134 1716 3976 
Q 1913 3819 2005 3536 
Q 2097 3253 2097 2872 
Q 2097 2494 2005 2209 
Q 1913 1925 1714 1765 
Q 1516 1606 1197 1606 
z
M 1197 1953 
Q 1391 1953 1498 2084 
Q 1606 2216 1648 2425 
Q 1691 2634 1691 2872 
Q 1691 3109 1648 3318 
Q 1606 3528 1498 3658 
Q 1391 3788 1197 3788 
Q 1006 3788 898 3658 
Q 791 3528 748 3318 
Q 706 3109 706 2872 
Q 706 2634 748 2425 
Q 791 2216 898 2084 
Q 1006 1953 1197 1953 
z
M 4084 -53 
Q 3769 -53 3570 105 
Q 3372 263 3281 547 
Q 3191 831 3191 1209 
Q 3191 1591 3281 1873 
Q 3372 2156 3570 2314 
Q 3769 2472 4084 2472 
Q 4406 2472 4604 2315 
Q 4803 2159 4893 1875 
Q 4984 1591 4984 1209 
Q 4984 831 4893 547 
Q 4803 263 4604 105 
Q 4406 -53 4084 -53 
z
M 4084 294 
Q 4281 294 4387 423 
Q 4494 553 4536 761 
Q 4578 969 4578 1209 
Q 4578 1447 4536 1656 
Q 4494 1866 4387 1994 
Q 4281 2122 4084 2122 
Q 3894 2122 3787 1994 
Q 3681 1866 3639 1656 
Q 3597 1447 3597 1209 
Q 3597 969 3639 761 
Q 3681 553 3787 423 
Q 3894 294 4084 294 
z
" transform="scale(0.015625)"/>
      </defs>
      <use xlink:href="#AptosDisplay-45"/>
      <use xlink:href="#AptosDisplay-66" x="54.052734"/>
      <use xlink:href="#AptosDisplay-66" x="82.373047"/>
      <use xlink:href="#AptosDisplay-69" x="110.693359"/>
      <use xlink:href="#AptosDisplay-63" x="131.738281"/>
      <use xlink:href="#AptosDisplay-69" x="181.005859"/>
      <use xlink:href="#AptosDisplay-65" x="202.050781"/>
      <use xlink:href="#AptosDisplay-6e" x="251.464844"/>
      <use xlink:href="#AptosDisplay-63" x="302.050781"/>
      <use xlink:href="#AptosDisplay-79" x="351.318359"/>
      <use xlink:href="#AptosDisplay-20" x="394.580078"/>
      <use xlink:href="#AptosDisplay-28" x="413.867188"/>
      <use xlink:href="#AptosDisplay-25" x="443.310547"/>
      <use xlink:href="#AptosDisplay-29" x="525.830078"/>
     </g>
    </g>
   </g>
   <g id="line2d_139">
    <path d="M 115.101989 77.9925 
L 115.74546 230.859357 
L 116.388932 327.516531 
L 117.032403 373.722221 
L 117.675875 344.028822 
L 118.319346 391.852095 
L 118.962818 393.97602 
L 119.606289 421.458496 
L 120.249761 442.105063 
L 120.893232 455.96493 
L 121.536704 460.520931 
L 122.180175 463.345803 
L 122.823647 463.470012 
L 123.467118 470.846687 
L 124.11059 473.424166 
L 124.754061 471.401576 
L 125.397533 475.116114 
L 126.041004 473.010593 
L 126.684476 476.191309 
L 127.327947 477.233397 
L 127.971419 476.406336 
L 128.61489 476.920518 
L 129.258362 476.559913 
L 129.901834 478.442927 
L 130.545305 476.521552 
L 131.188777 477.545426 
L 131.832248 476.45833 
L 132.47572 478.404849 
L 133.119191 476.828074 
L 133.762663 478.902072 
L 135.049606 477.10138 
L 135.693077 477.972377 
L 136.336549 477.369635 
L 136.98002 478.040083 
L 137.623492 477.819075 
L 138.266963 476.763034 
L 138.910435 477.641761 
L 139.553906 477.759317 
L 140.197378 476.972092 
L 140.840849 478.68298 
L 141.484321 478.869164 
L 142.771264 478.430082 
L 143.414735 479.855811 
L 144.058207 478.311327 
L 144.701678 478.434668 
L 145.34515 477.94637 
L 145.988621 478.655763 
L 146.632093 478.119999 
L 147.275565 477.942338 
L 147.919036 477.405363 
L 148.562508 478.428514 
L 149.205979 477.265892 
L 149.849451 477.699307 
L 150.492922 478.972351 
L 151.136394 478.069585 
L 151.779865 477.855471 
L 152.423337 478.952703 
L 153.066808 479.545074 
L 153.71028 477.972135 
L 154.353751 477.552681 
L 154.997223 477.382849 
L 155.640694 477.77821 
L 156.284166 477.340483 
L 156.927637 477.654971 
L 157.571109 477.236459 
L 158.21458 477.512447 
L 158.858052 478.330819 
L 159.501523 478.447386 
L 160.144995 478.200812 
L 160.788466 478.322818 
L 162.075409 478.038893 
L 162.718881 477.108929 
L 163.362352 477.980431 
L 164.005824 477.394642 
L 164.649295 478.21211 
L 165.292767 477.599288 
L 165.936239 478.253064 
L 166.57971 478.453857 
L 167.223182 478.393975 
L 167.866653 477.450857 
L 168.510125 478.263584 
L 169.153596 478.325161 
L 169.797068 477.125849 
L 170.440539 478.001557 
L 171.084011 478.198254 
L 171.727482 476.935575 
L 173.014425 478.069076 
L 173.657897 477.146255 
L 174.301368 479.624013 
L 174.94484 477.931121 
L 175.588311 477.780928 
L 176.231783 478.337125 
L 176.875254 478.318663 
L 177.518726 478.735628 
L 178.162197 477.137471 
L 178.805669 478.141069 
L 179.44914 478.048357 
L 180.092612 478.304707 
L 180.736083 478.207876 
L 181.379555 477.923334 
L 182.023026 479.28606 
L 182.666498 478.565611 
L 183.309969 478.309742 
L 183.953441 477.651602 
L 184.596913 478.180503 
L 185.240384 479.609953 
L 185.883856 479.308654 
L 186.527327 479.653204 
L 187.170799 478.272389 
L 187.81427 479.05954 
L 188.457742 478.69655 
L 189.101213 477.980239 
L 189.744685 479.305485 
L 190.388156 478.217145 
L 191.031628 478.294345 
L 191.675099 478.902193 
L 192.318571 477.827751 
L 192.962042 477.930395 
L 193.605514 479.005991 
L 194.248985 478.348246 
L 194.892457 478.344784 
L 195.535928 478.789535 
L 196.1794 478.646335 
L 196.822871 477.535884 
L 197.466343 478.980419 
L 198.753286 478.049164 
L 199.396757 478.276524 
L 200.6837 477.709879 
L 201.327172 478.378996 
L 201.970643 478.675515 
L 202.614115 477.931142 
L 203.901058 478.709467 
L 204.54453 477.249266 
L 205.188001 478.652759 
L 205.831473 479.784238 
L 206.474944 477.703719 
L 207.118416 479.422338 
L 207.761887 478.202598 
L 208.405359 478.169052 
L 209.692302 479.0472 
L 210.335773 478.285898 
L 210.979245 478.688505 
L 211.622716 477.828263 
L 212.266188 478.258694 
L 212.909659 479.462384 
L 213.553131 478.770278 
L 214.196602 478.872808 
L 214.840074 478.824134 
L 215.483545 479.71084 
L 216.127017 478.173844 
L 216.770488 478.789792 
L 217.41396 477.89239 
L 218.057431 478.318483 
L 218.700903 479.347416 
L 219.987846 478.434439 
L 220.631317 479.099608 
L 221.274789 478.863288 
L 222.561732 477.913029 
L 223.205204 478.816749 
L 223.848675 478.987358 
L 224.492147 478.734902 
L 225.135618 479.360406 
L 225.77909 478.665453 
L 226.422561 479.421677 
L 227.066033 479.161724 
L 227.709504 477.770304 
L 228.352976 478.751523 
L 228.996447 478.803347 
L 229.639919 478.674146 
L 230.28339 478.830422 
L 230.926862 478.604955 
L 231.570333 477.936636 
L 232.213805 477.625291 
L 232.857276 478.860904 
L 233.500748 477.598267 
L 234.144219 478.858947 
L 234.787691 479.060081 
L 236.074634 477.556484 
L 236.718105 478.804833 
L 237.361577 479.089733 
L 238.005048 477.907359 
L 238.64852 478.061508 
L 239.291991 478.757629 
L 239.935463 478.736605 
L 240.578935 479.082227 
L 241.222406 478.278932 
L 241.865878 478.790004 
L 242.509349 477.783189 
L 243.152821 478.183133 
L 243.796292 477.957933 
L 244.439764 478.49819 
L 245.083235 478.27354 
L 245.726707 478.513044 
L 246.370178 478.246514 
L 247.01365 478.44096 
L 247.657121 478.899902 
L 248.300593 478.492357 
L 248.944064 478.927786 
L 249.587536 478.595396 
L 250.231007 478.392618 
L 251.51795 478.920881 
L 252.161422 478.130358 
L 252.804893 478.371178 
L 253.448365 479.659944 
L 254.091836 477.835044 
L 254.735308 478.517604 
L 255.378779 478.434109 
L 256.022251 480.266426 
L 256.665722 478.692453 
L 257.309194 478.387181 
L 257.952665 479.77022 
L 258.596137 478.923624 
L 259.239609 478.656211 
L 259.88308 478.96035 
L 260.526552 477.59005 
L 261.170023 479.432055 
L 261.813495 478.979025 
L 262.456966 478.062644 
L 263.100438 479.351655 
L 263.743909 478.464743 
L 264.387381 478.937014 
L 265.030852 478.167649 
L 265.674324 477.865127 
L 266.317795 478.385807 
L 266.961267 479.543987 
L 267.604738 478.61296 
L 268.24821 478.999867 
L 268.891681 478.933401 
L 269.535153 478.160608 
L 270.178624 478.473494 
L 270.822096 477.650667 
L 271.465567 478.602141 
L 272.109039 479.089705 
L 272.75251 478.220134 
L 273.395982 476.902367 
L 274.039453 477.540252 
L 274.682925 478.549132 
L 275.326396 478.915503 
L 275.969868 478.242103 
L 276.613339 476.940849 
L 277.256811 478.24372 
L 277.900283 479.040123 
L 278.543754 478.659226 
L 279.830697 478.536027 
L 280.474169 478.242149 
L 281.11764 478.594556 
L 281.761112 478.670021 
L 282.404583 478.235779 
L 283.048055 478.327268 
L 283.691526 477.80603 
L 284.334998 478.28062 
L 284.978469 478.366095 
L 285.621941 477.901867 
L 286.265412 478.504614 
L 286.908884 477.856457 
L 288.195827 479.284904 
L 288.839298 477.674691 
L 289.48277 478.22953 
L 290.126241 479.085961 
L 290.769713 479.055331 
L 291.413184 479.827731 
L 292.056656 478.452454 
L 292.700127 477.773057 
L 293.343599 478.605233 
L 293.98707 478.351357 
L 294.630542 478.865109 
L 295.274013 478.66939 
L 295.917485 478.35533 
L 296.560957 477.678587 
L 297.204428 478.174736 
L 297.8479 477.872091 
L 298.491371 478.765053 
L 299.134843 478.79721 
L 299.778314 477.918426 
L 300.421786 477.428245 
L 301.065257 477.5142 
L 301.708729 479.345621 
L 302.3522 478.654146 
L 302.995672 478.385807 
L 303.639143 476.561551 
L 304.282615 477.914403 
L 304.926086 478.226449 
L 305.569558 480.292998 
L 306.213029 477.936636 
L 306.856501 477.785249 
L 309.430387 477.306835 
L 310.073858 477.966421 
L 310.71733 477.640119 
L 311.360801 479.086001 
L 312.004273 477.31581 
L 312.647744 478.511489 
L 313.291216 477.609285 
L 313.934687 478.814024 
L 314.578159 477.096672 
L 315.221631 478.628051 
L 315.865102 477.639733 
L 316.508574 477.966631 
L 317.152045 477.887178 
L 318.438988 478.268942 
L 319.725931 477.505434 
L 320.369403 478.048525 
L 321.012874 479.118041 
L 321.656346 477.527216 
L 322.299817 477.760727 
L 322.943289 479.093658 
L 323.58676 478.803347 
L 324.873703 476.840318 
L 325.517175 478.820121 
L 326.160646 479.22195 
L 326.804118 478.232703 
L 327.447589 477.597659 
L 328.091061 477.984341 
L 328.734532 477.829888 
L 329.378004 478.278514 
L 330.021475 477.782643 
L 330.664947 477.829888 
L 331.308418 477.312528 
L 331.95189 478.444583 
L 332.595361 477.592441 
L 333.238833 478.282279 
L 333.882305 477.251876 
L 335.169248 478.159742 
L 335.812719 479.307154 
L 336.456191 480.208236 
L 337.099662 477.667532 
L 337.743134 476.680579 
L 338.386605 477.325694 
L 339.030077 478.232895 
L 339.673548 478.319359 
L 340.31702 478.544974 
L 340.960491 477.504235 
L 341.603963 478.172611 
L 342.247434 477.393788 
L 342.890906 478.433433 
L 343.534377 477.292553 
L 344.177849 477.602085 
L 344.82132 476.906382 
L 345.464792 477.6026 
L 346.108263 477.302477 
L 347.395206 477.966781 
L 348.038678 477.097866 
L 349.325621 477.980051 
L 349.969092 477.408517 
L 350.612564 478.970581 
L 351.899507 477.516729 
L 352.542979 476.273797 
L 353.18645 477.771687 
L 353.829922 478.132511 
L 354.473393 477.262981 
L 355.116865 478.080341 
L 355.760336 477.366473 
L 356.403808 478.228059 
L 357.047279 477.692209 
L 357.690751 478.078766 
L 358.977694 478.187767 
L 359.621165 477.45609 
L 360.264637 478.264975 
L 360.908108 477.847386 
L 361.55158 476.691965 
L 362.195051 476.943079 
L 362.838523 477.902676 
L 363.481994 478.603935 
L 364.125466 478.190716 
L 364.768937 476.50766 
L 365.412409 477.305732 
L 366.05588 477.551026 
L 366.699352 477.667178 
L 367.342823 477.504284 
L 367.986295 476.917906 
L 368.629766 477.240965 
L 369.273238 478.102664 
L 369.916709 478.039188 
L 370.560181 478.308863 
L 371.203653 477.916663 
L 371.847124 478.533583 
L 373.134067 477.418582 
L 373.777539 478.215195 
L 374.42101 478.547528 
L 375.064482 477.305911 
L 375.707953 476.991747 
L 376.351425 477.847056 
L 376.994896 477.17989 
L 377.638368 477.964007 
L 378.281839 478.223279 
L 378.925311 477.728743 
L 379.568782 478.494958 
L 380.212254 478.122323 
L 380.855725 477.314182 
L 381.499197 478.31726 
L 382.142668 477.544616 
L 382.78614 478.677376 
L 384.073083 477.714963 
L 384.716554 477.37756 
L 385.360026 478.806432 
L 386.003497 477.842111 
L 386.646969 477.910357 
L 387.29044 478.820257 
L 387.933912 477.937726 
L 388.577383 477.700728 
L 389.220855 478.353594 
L 389.864327 477.79785 
L 390.507798 478.176591 
L 391.15127 478.387251 
L 391.794741 478.403882 
L 392.438213 477.322493 
L 393.081684 478.856269 
L 393.725156 477.023765 
L 394.368627 478.23122 
L 395.012099 478.487446 
L 396.299042 478.378249 
L 396.942513 479.066206 
L 397.585985 477.888868 
L 398.229456 477.484722 
L 398.872928 477.774555 
L 399.516399 477.716096 
L 400.159871 477.34483 
L 400.803342 477.186504 
L 401.446814 479.617769 
L 402.090285 477.820754 
L 403.377228 477.384335 
L 404.0207 478.467132 
L 404.664171 477.757357 
L 405.307643 478.2345 
L 405.951114 477.696689 
L 406.594586 477.845599 
L 407.238057 477.75298 
L 407.881529 477.308377 
L 408.525001 478.039796 
L 409.168472 477.205676 
L 409.811944 478.056387 
L 410.455415 478.359589 
L 411.098887 477.501602 
L 411.742358 477.060975 
L 412.38583 477.826687 
L 413.029301 477.44071 
L 413.672773 478.065973 
L 414.316244 478.242383 
L 414.959716 478.92582 
L 415.603187 477.705645 
L 416.246659 478.084664 
L 416.89013 476.651093 
L 417.533602 477.758419 
L 419.464016 477.49298 
L 420.750959 477.067866 
L 421.394431 478.994442 
L 422.037902 477.144335 
L 422.681374 477.187987 
L 423.324845 478.168377 
L 423.968317 477.761494 
L 424.611788 476.957937 
L 425.25526 478.190997 
L 425.898731 478.01468 
L 427.185675 477.465563 
L 427.829146 477.746802 
L 428.472618 477.415818 
L 429.116089 477.943613 
L 429.759561 478.040727 
L 430.403032 477.034536 
L 431.046504 477.467592 
L 431.689975 477.246157 
L 432.333447 477.383957 
L 432.976918 477.640433 
L 433.62039 477.361213 
L 434.263861 477.469701 
L 434.907333 476.514227 
L 435.550804 476.862472 
L 436.194276 478.095088 
L 436.837747 478.962828 
L 437.481219 477.153757 
L 438.12469 476.681561 
L 438.768162 478.602342 
L 439.411633 477.638719 
L 440.055105 478.244397 
L 440.698576 476.463272 
L 441.342048 477.377895 
L 441.985519 477.516729 
L 442.628991 478.764423 
L 443.272462 478.33066 
L 443.915934 477.230219 
L 444.559405 477.358534 
L 445.202877 477.14145 
L 446.48982 477.660396 
L 447.133292 476.48139 
L 447.776763 477.246818 
L 449.063706 477.694261 
L 449.707178 477.137265 
L 450.350649 476.820923 
L 450.994121 477.727752 
L 451.637592 476.053721 
L 452.281064 479.337351 
L 453.568007 476.798912 
L 454.211478 477.45045 
L 454.85495 477.355412 
L 455.498421 477.738827 
L 456.141893 477.243716 
L 456.785364 477.089563 
L 457.428836 477.651832 
L 458.072307 478.017836 
L 458.715779 477.599092 
L 459.35925 477.914125 
L 460.002722 478.388679 
L 460.646193 477.48467 
L 461.289665 478.213795 
L 461.933136 477.620408 
L 462.576608 478.935835 
L 463.863551 477.010316 
L 464.507023 477.532136 
L 465.793966 478.049703 
L 466.437437 478.571436 
L 467.080909 478.522437 
L 467.72438 478.043867 
L 468.367852 477.29178 
L 469.011323 478.580401 
L 469.654795 478.430082 
L 470.298266 477.855701 
L 470.941738 478.505972 
L 471.585209 477.743233 
L 472.228681 477.517431 
L 472.872152 477.450857 
L 473.515624 478.260603 
L 474.159095 478.194801 
L 474.802567 478.533048 
L 475.446038 477.57093 
L 476.08951 478.665774 
L 476.732981 478.508419 
L 477.376453 476.981949 
L 478.663396 479.059003 
L 479.306867 478.550344 
L 479.950339 478.440478 
L 480.59381 477.788099 
L 481.880753 478.393061 
L 482.524225 477.544035 
L 483.167697 477.475431 
L 484.45464 479.262986 
L 485.098111 478.443603 
L 485.741583 477.11101 
L 486.385054 478.358997 
L 487.028526 478.641202 
L 487.671997 480.001647 
L 488.315469 478.235866 
L 488.95894 477.000148 
L 489.602412 478.360206 
L 490.245883 478.431558 
L 490.889355 476.930243 
L 492.176298 478.44181 
L 492.819769 477.800851 
L 493.463241 478.457963 
L 494.106712 477.70873 
L 494.750184 478.292685 
L 495.393655 478.218454 
L 496.037127 476.968558 
L 496.680598 478.112221 
L 497.32407 478.831311 
L 497.967541 478.286719 
L 498.611013 476.241292 
L 499.254484 478.582978 
L 499.897956 479.618625 
L 501.184899 477.43344 
L 503.758785 478.301163 
L 505.045728 478.321502 
L 505.6892 477.919328 
L 506.332671 478.64976 
L 506.976143 478.220083 
L 507.619614 477.23083 
L 508.263086 478.134497 
L 508.906557 478.828275 
L 509.550029 477.29062 
L 510.1935 478.49069 
L 510.836972 478.061738 
L 511.480443 479.193931 
L 512.123915 477.61879 
L 512.767386 478.508999 
L 513.410858 477.675775 
L 514.054329 478.21854 
L 514.697801 476.79343 
L 515.341272 478.654959 
L 515.984744 479.557617 
L 516.628215 479.39378 
L 517.271687 477.869572 
L 517.915158 478.283553 
L 518.55863 478.205985 
L 519.202102 478.260264 
L 519.845573 478.82366 
L 520.489045 478.610895 
L 521.132516 477.085508 
L 521.775988 478.205884 
L 522.419459 478.231169 
L 523.062931 478.11124 
L 523.706402 477.232143 
L 524.349874 478.247339 
L 524.993345 478.473691 
L 525.636817 477.281588 
L 526.280288 478.657702 
L 526.92376 478.921638 
L 527.567231 477.758776 
L 528.210703 477.336318 
L 528.854174 478.585346 
L 529.497646 477.690391 
L 530.141117 478.633659 
L 530.784589 478.043237 
L 531.42806 478.741863 
L 532.071532 477.686477 
L 533.358475 479.589066 
L 534.001946 477.855849 
L 534.645418 478.386818 
L 535.288889 479.508233 
L 535.932361 478.725543 
L 536.575832 477.546887 
L 537.862776 478.985277 
L 538.506247 477.684392 
L 539.149719 478.076357 
L 539.79319 478.677691 
L 540.436662 478.392622 
L 541.080133 477.564982 
L 541.723605 478.328742 
L 543.010548 478.512293 
L 543.654019 478.953738 
L 544.297491 478.782312 
L 544.940962 478.037292 
L 545.584434 479.066 
L 546.227905 478.373081 
L 546.871377 478.49401 
L 547.514848 479.408958 
L 548.15832 478.688481 
L 548.801791 478.666032 
L 549.445263 477.854802 
L 550.088734 479.223084 
L 552.019149 477.713529 
L 552.66262 479.467884 
L 553.306092 479.060503 
L 553.949563 477.902 
L 555.236506 479.101829 
L 555.879978 478.121373 
L 556.52345 477.623695 
L 557.166921 479.351793 
L 557.810393 479.014506 
L 558.453864 478.52439 
L 559.097336 478.66675 
L 559.740807 479.86126 
L 560.387496 478.892697 
L 561.02775 477.622131 
L 561.674439 479.348768 
L 562.317911 478.38385 
L 562.961382 478.804841 
L 563.604854 478.176815 
L 564.248325 478.51915 
L 565.535268 478.380877 
L 566.17874 478.044159 
L 566.822211 478.693978 
L 567.465683 478.818475 
L 568.109154 478.553737 
L 568.752626 478.622717 
L 569.396097 478.429385 
L 570.039569 478.573977 
L 570.68304 478.472418 
L 571.326512 477.883288 
L 571.969983 479.129574 
L 572.613455 479.614859 
L 573.256926 478.295267 
L 573.900398 477.90014 
L 574.543869 479.01125 
L 575.187341 479.010929 
L 575.830812 477.916939 
L 576.474284 478.19216 
L 577.117755 478.834929 
L 577.761227 477.740322 
L 579.04817 478.60987 
L 579.691641 478.124444 
L 580.978585 478.299552 
L 581.622056 478.058818 
L 582.265528 479.5213 
L 582.908999 478.538269 
L 583.552471 478.418116 
L 584.195942 479.027765 
L 584.839414 479.068 
L 585.482885 477.705418 
L 586.769828 479.202936 
L 587.4133 478.874886 
L 588.056771 478.408969 
L 588.700243 479.156179 
L 589.343714 478.000388 
L 589.987186 478.388204 
L 590.630657 479.741702 
L 591.274129 477.936686 
L 591.9176 478.98286 
L 592.561072 478.677199 
L 593.204543 477.694442 
L 593.848015 478.683699 
L 594.491486 477.793822 
L 595.134958 478.862259 
L 595.778429 478.816644 
L 596.421901 479.871121 
L 597.065372 478.160071 
L 597.708844 478.500911 
L 598.352315 478.972066 
L 599.639259 478.091395 
L 600.28273 478.103965 
L 601.569673 478.529828 
L 602.213145 478.863606 
L 603.500088 478.258783 
L 604.143559 478.813882 
L 604.787031 478.965924 
L 605.430502 479.574273 
L 606.073974 479.091198 
L 606.717445 479.228661 
L 607.360917 478.139737 
L 608.004388 478.818355 
L 608.64786 478.223312 
L 609.291331 477.382336 
L 609.934803 478.584625 
L 610.578274 479.448801 
L 611.221746 478.851831 
L 611.865217 478.459833 
L 612.508689 478.4181 
L 613.15216 478.96002 
L 613.795632 477.260366 
L 614.439103 478.496954 
L 615.082575 477.957067 
L 615.726046 478.821596 
L 616.369518 478.722266 
L 617.012989 479.007504 
L 617.656461 477.668326 
L 618.299933 479.185344 
L 618.943404 478.962507 
L 619.586876 477.987813 
L 620.230347 478.209738 
L 620.873819 478.933294 
L 622.804233 478.234098 
L 623.447705 479.65325 
L 624.091176 478.821596 
L 624.734648 479.194251 
L 625.378119 478.462583 
L 626.021591 479.199583 
L 626.665062 479.248013 
L 627.308534 478.806326 
L 627.952005 478.021941 
L 628.595477 479.038617 
L 629.238948 479.236618 
L 629.88242 479.227534 
L 630.525891 478.453462 
L 631.169363 478.631196 
L 631.812834 479.338283 
L 632.456306 478.825794 
L 633.099777 478.88335 
L 634.38672 478.270385 
L 635.030192 477.474486 
L 635.673663 478.409056 
L 636.317135 478.978927 
L 636.960607 478.382787 
L 637.604078 480.002794 
L 638.24755 478.404142 
L 639.534493 479.993229 
L 640.177964 478.924161 
L 640.821436 479.54582 
L 641.464907 479.09393 
L 642.108379 479.107005 
L 642.75185 478.695062 
L 643.395322 479.090251 
L 644.038793 478.675025 
L 644.682265 479.800805 
L 645.325736 478.722689 
L 645.969208 478.49797 
L 646.612679 479.064052 
L 647.256151 478.856227 
L 647.899622 476.9039 
L 648.543094 479.904289 
L 649.186565 478.833507 
L 649.830037 478.147899 
L 650.473508 478.947564 
L 651.11698 479.196052 
L 651.760451 479.105888 
L 652.403923 478.670632 
L 653.047394 478.517628 
L 653.690866 479.31179 
L 654.334337 480.778843 
L 654.977809 479.242152 
L 655.621281 478.803347 
L 656.264752 479.815022 
L 657.551695 477.88136 
L 658.195167 478.924264 
L 658.838638 479.185344 
L 659.48211 478.645855 
L 660.125581 479.337306 
L 660.769053 479.49128 
L 661.412524 479.231635 
L 662.055996 478.48181 
L 662.699467 478.798842 
L 663.342939 479.561151 
L 663.98641 478.060714 
L 664.629882 478.712261 
L 665.273353 478.925647 
L 665.916825 478.488748 
L 666.560296 479.126307 
L 667.203768 477.555792 
L 667.847239 478.566122 
L 668.490711 479.260253 
L 669.134182 478.683623 
L 669.777654 479.414252 
L 670.421125 479.939877 
L 671.064597 479.050084 
L 671.708068 479.29209 
L 672.995011 478.343873 
L 673.638483 479.640569 
L 674.281955 479.385105 
L 674.925426 478.055254 
L 676.212369 479.169193 
L 677.499312 478.807828 
L 678.142784 478.878236 
L 678.786255 479.846792 
L 679.429727 480.127545 
L 680.073198 478.699935 
L 680.71667 478.875438 
L 681.360141 480.220976 
L 682.003613 478.607018 
L 682.647084 478.500107 
L 683.290556 480.147714 
L 683.934027 479.264633 
L 684.577499 477.842934 
L 685.22097 478.71049 
L 686.507913 478.54395 
L 687.151385 478.655142 
L 687.794856 479.344186 
L 688.438328 479.03689 
L 689.081799 479.126801 
L 689.725271 478.857162 
L 690.368742 479.08965 
L 691.012214 479.525999 
L 691.655685 478.467439 
L 692.299157 478.073649 
L 693.5861 479.213683 
L 694.229572 478.771866 
L 694.873043 480.058794 
L 695.516515 478.093957 
L 698.733872 479.839623 
L 700.664287 479.05755 
L 701.307758 478.569766 
L 701.95123 479.195029 
L 702.594701 478.569218 
L 703.238173 479.483949 
L 703.881644 478.626888 
L 704.525116 478.177315 
L 705.812059 479.371911 
L 706.45553 478.719913 
L 707.099002 481.1925 
L 707.742473 478.143693 
L 708.385945 480.039981 
L 709.029416 479.955491 
L 709.672888 479.60685 
L 710.31636 479.687134 
L 710.959831 478.667962 
L 711.603303 479.603029 
L 712.246774 478.519873 
L 713.533717 479.964001 
L 714.177189 478.747689 
L 714.82066 478.410905 
L 715.464132 478.295515 
L 716.107603 478.889501 
L 716.751075 479.735786 
L 717.394546 478.872077 
L 718.038018 480.243425 
L 718.681489 479.333565 
L 719.324961 478.843833 
L 719.968432 479.547294 
L 721.255375 478.570608 
L 721.898847 479.179473 
L 722.542318 478.923306 
L 723.18579 478.44647 
L 723.829261 479.684846 
L 723.829261 479.684846 
" clip-path="url(#p8928085aa6)" style="fill: none; stroke: #ac2b37; stroke-width: 1.5; stroke-linecap: square"/>
   </g>
   <g id="patch_3">
    <path d="M 84.665625 501.3525 
L 84.665625 57.8325 
" style="fill: none; stroke: #000000; stroke-width: 0.8; stroke-linejoin: miter; stroke-linecap: square"/>
   </g>
   <g id="patch_4">
    <path d="M 754.265625 501.3525 
L 754.265625 57.8325 
" style="fill: none; stroke: #000000; stroke-width: 0.8; stroke-linejoin: miter; stroke-linecap: square"/>
   </g>
   <g id="patch_5">
    <path d="M 84.665625 501.3525 
L 754.265625 501.3525 
" style="fill: none; stroke: #000000; stroke-width: 0.8; stroke-linejoin: miter; stroke-linecap: square"/>
   </g>
   <g id="patch_6">
    <path d="M 84.665625 57.8325 
L 754.265625 57.8325 
" style="fill: none; stroke: #000000; stroke-width: 0.8; stroke-linejoin: miter; stroke-linecap: square"/>
   </g>
   <g id="text_16">
    <!-- Efficiency vs Time -->
    <g transform="translate(332.95875 51.8325) scale(0.24 -0.24)">
     <defs>
      <path id="AptosDisplay-76" d="M 1103 0 
L -13 3044 
L 538 3044 
L 1391 513 
L 2250 3044 
L 2781 3044 
L 1678 0 
L 1103 0 
z
" transform="scale(0.015625)"/>
      <path id="AptosDisplay-73" d="M 1506 -41 
Q 1247 -41 1017 14 
Q 788 69 613 191 
Q 438 313 339 506 
Q 241 700 241 978 
L 744 978 
Q 744 628 966 487 
Q 1188 347 1519 347 
Q 1816 347 2008 458 
Q 2200 569 2200 822 
Q 2200 1047 2026 1153 
Q 1853 1259 1413 1369 
Q 1056 1453 815 1564 
Q 575 1675 453 1845 
Q 331 2016 331 2275 
Q 331 2475 417 2626 
Q 503 2778 658 2879 
Q 813 2981 1020 3032 
Q 1228 3084 1472 3084 
Q 1713 3084 1923 3028 
Q 2134 2972 2296 2855 
Q 2459 2738 2551 2552 
Q 2644 2366 2644 2109 
L 2138 2109 
Q 2138 2425 1945 2558 
Q 1753 2691 1472 2691 
Q 1191 2691 1016 2594 
Q 841 2497 841 2291 
Q 841 2169 919 2084 
Q 997 2000 1181 1933 
Q 1366 1866 1675 1791 
Q 2019 1709 2248 1596 
Q 2478 1484 2595 1306 
Q 2713 1128 2713 847 
Q 2713 616 2622 447 
Q 2531 278 2367 170 
Q 2203 63 1983 11 
Q 1763 -41 1506 -41 
z
" transform="scale(0.015625)"/>
     </defs>
     <use xlink:href="#AptosDisplay-45"/>
     <use xlink:href="#AptosDisplay-66" x="54.052734"/>
     <use xlink:href="#AptosDisplay-66" x="82.373047"/>
     <use xlink:href="#AptosDisplay-69" x="110.693359"/>
     <use xlink:href="#AptosDisplay-63" x="131.738281"/>
     <use xlink:href="#AptosDisplay-69" x="181.005859"/>
     <use xlink:href="#AptosDisplay-65" x="202.050781"/>
     <use xlink:href="#AptosDisplay-6e" x="251.464844"/>
     <use xlink:href="#AptosDisplay-63" x="302.050781"/>
     <use xlink:href="#AptosDisplay-79" x="351.318359"/>
     <use xlink:href="#AptosDisplay-20" x="394.580078"/>
     <use xlink:href="#AptosDisplay-76" x="413.867188"/>
     <use xlink:href="#AptosDisplay-73" x="457.128906"/>
     <use xlink:href="#AptosDisplay-20" x="503.417969"/>
     <use xlink:href="#AptosDisplay-54" x="522.705078"/>
     <use xlink:href="#AptosDisplay-69" x="570.410156"/>
     <use xlink:href="#AptosDisplay-6d" x="591.455078"/>
     <use xlink:href="#AptosDisplay-65" x="671.435547"/>
    </g>
   </g>
  </g>
 </g>
 <defs>
  <clipPath id="p8928085aa6">
   <rect x="84.665625" y="57.8325" width="669.6" height="443.52"/>
  </clipPath>
 </defs>
</svg>
