<?xml version="1.0" encoding="utf-8" standalone="no"?>
<!DOCTYPE svg PUBLIC "-//W3C//DTD SVG 1.1//EN"
  "http://www.w3.org/Graphics/SVG/1.1/DTD/svg11.dtd">
<svg xmlns:xlink="http://www.w3.org/1999/xlink" width="800.88125pt" height="581.830625pt" viewBox="0 0 800.88125 581.830625" xmlns="http://www.w3.org/2000/svg" version="1.1">
 <metadata>
  <rdf:RDF xmlns:dc="http://purl.org/dc/elements/1.1/" xmlns:cc="http://creativecommons.org/ns#" xmlns:rdf="http://www.w3.org/1999/02/22-rdf-syntax-ns#">
   <cc:Work>
    <dc:type rdf:resource="http://purl.org/dc/dcmitype/StillImage"/>
    <dc:date>2025-04-03T01:48:23.333710</dc:date>
    <dc:format>image/svg+xml</dc:format>
    <dc:creator>
     <cc:Agent>
      <dc:title>Matplotlib v3.8.2, https://matplotlib.org/</dc:title>
     </cc:Agent>
    </dc:creator>
   </cc:Work>
  </rdf:RDF>
 </metadata>
 <defs>
  <style type="text/css">*{stroke-linejoin: round; stroke-linecap: butt}</style>
 </defs>
 <g id="figure_1">
  <g id="patch_1">
   <path d="M 0 581.830625 
L 800.88125 581.830625 
L 800.88125 0 
L 0 0 
z
" style="fill: #ffffff"/>
  </g>
  <g id="axes_1">
   <g id="patch_2">
    <path d="M 95.28125 501.3525 
L 764.88125 501.3525 
L 764.88125 57.8325 
L 95.28125 57.8325 
z
" style="fill: #ffffff"/>
   </g>
   <g id="matplotlib.axis_1">
    <g id="xtick_1">
     <g id="line2d_1">
      <path d="M 125.687578 501.3525 
L 125.687578 57.8325 
" clip-path="url(#pe00c5aff93)" style="fill: none; stroke: #b0b0b0; stroke-opacity: 0.8; stroke-linecap: square"/>
     </g>
     <g id="line2d_2">
      <defs>
       <path id="m21bf65563f" d="M 0 0 
L 0 3.5 
" style="stroke: #000000; stroke-width: 0.8"/>
      </defs>
      <g>
       <use xlink:href="#m21bf65563f" x="125.687578" y="501.3525" style="stroke: #000000; stroke-width: 0.8"/>
      </g>
     </g>
     <g id="text_1">
      <!-- 0 -->
      <g transform="translate(120.45789 521.49625) scale(0.2 -0.2)">
       <defs>
        <path id="AptosDisplay-30" d="M 1672 -56 
Q 1291 -56 1028 105 
Q 766 266 605 552 
Q 444 838 372 1216 
Q 300 1594 300 2031 
Q 300 2475 372 2856 
Q 444 3238 605 3525 
Q 766 3813 1028 3973 
Q 1291 4134 1672 4134 
Q 2053 4134 2317 3975 
Q 2581 3816 2742 3527 
Q 2903 3238 2975 2858 
Q 3047 2478 3047 2038 
Q 3047 1597 2975 1217 
Q 2903 838 2742 552 
Q 2581 266 2318 105 
Q 2056 -56 1672 -56 
z
M 1672 409 
Q 1916 409 2073 550 
Q 2231 691 2322 925 
Q 2413 1159 2448 1448 
Q 2484 1738 2484 2038 
Q 2484 2338 2448 2628 
Q 2413 2919 2322 3153 
Q 2231 3388 2073 3527 
Q 1916 3666 1669 3666 
Q 1428 3666 1268 3527 
Q 1109 3388 1020 3153 
Q 931 2919 893 2628 
Q 856 2338 856 2038 
Q 856 1741 893 1450 
Q 931 1159 1020 925 
Q 1109 691 1268 550 
Q 1428 409 1672 409 
z
" transform="scale(0.015625)"/>
       </defs>
       <use xlink:href="#AptosDisplay-30"/>
      </g>
     </g>
    </g>
    <g id="xtick_2">
     <g id="line2d_3">
      <path d="M 209.120135 501.3525 
L 209.120135 57.8325 
" clip-path="url(#pe00c5aff93)" style="fill: none; stroke: #b0b0b0; stroke-opacity: 0.8; stroke-linecap: square"/>
     </g>
     <g id="line2d_4">
      <g>
       <use xlink:href="#m21bf65563f" x="209.120135" y="501.3525" style="stroke: #000000; stroke-width: 0.8"/>
      </g>
     </g>
     <g id="text_2">
      <!-- 25 -->
      <g transform="translate(198.66076 521.49625) scale(0.2 -0.2)">
       <defs>
        <path id="AptosDisplay-32" d="M 247 0 
L 247 413 
L 1725 1741 
Q 2100 2081 2269 2351 
Q 2438 2622 2438 2938 
Q 2438 3256 2263 3461 
Q 2088 3666 1691 3666 
Q 1247 3666 1055 3439 
Q 863 3213 863 2869 
L 341 2869 
Q 341 3250 491 3534 
Q 641 3819 941 3975 
Q 1241 4131 1691 4131 
Q 2103 4131 2390 3986 
Q 2678 3841 2828 3578 
Q 2978 3316 2978 2959 
Q 2978 2638 2853 2375 
Q 2728 2113 2517 1883 
Q 2306 1653 2044 1425 
L 959 463 
L 3097 463 
L 3097 0 
L 247 0 
z
" transform="scale(0.015625)"/>
        <path id="AptosDisplay-35" d="M 1669 -56 
Q 1278 -56 964 83 
Q 650 222 465 483 
Q 281 744 281 1113 
L 816 1113 
Q 816 778 1055 584 
Q 1294 391 1669 391 
Q 2069 391 2291 625 
Q 2513 859 2513 1319 
Q 2513 1772 2291 1989 
Q 2069 2206 1697 2206 
Q 1409 2206 1223 2123 
Q 1038 2041 916 1894 
L 444 1894 
L 622 4078 
L 2788 4078 
L 2788 3613 
L 1041 3613 
L 931 2322 
Q 1044 2453 1251 2550 
Q 1459 2647 1775 2647 
Q 2131 2647 2420 2506 
Q 2709 2366 2881 2072 
Q 3053 1778 3053 1319 
Q 3053 863 2875 558 
Q 2697 253 2384 98 
Q 2072 -56 1669 -56 
z
" transform="scale(0.015625)"/>
       </defs>
       <use xlink:href="#AptosDisplay-32"/>
       <use xlink:href="#AptosDisplay-35" x="52.294922"/>
      </g>
     </g>
    </g>
    <g id="xtick_3">
     <g id="line2d_5">
      <path d="M 292.552692 501.3525 
L 292.552692 57.8325 
" clip-path="url(#pe00c5aff93)" style="fill: none; stroke: #b0b0b0; stroke-opacity: 0.8; stroke-linecap: square"/>
     </g>
     <g id="line2d_6">
      <g>
       <use xlink:href="#m21bf65563f" x="292.552692" y="501.3525" style="stroke: #000000; stroke-width: 0.8"/>
      </g>
     </g>
     <g id="text_3">
      <!-- 50 -->
      <g transform="translate(282.093317 521.49625) scale(0.2 -0.2)">
       <use xlink:href="#AptosDisplay-35"/>
       <use xlink:href="#AptosDisplay-30" x="52.294922"/>
      </g>
     </g>
    </g>
    <g id="xtick_4">
     <g id="line2d_7">
      <path d="M 375.985249 501.3525 
L 375.985249 57.8325 
" clip-path="url(#pe00c5aff93)" style="fill: none; stroke: #b0b0b0; stroke-opacity: 0.8; stroke-linecap: square"/>
     </g>
     <g id="line2d_8">
      <g>
       <use xlink:href="#m21bf65563f" x="375.985249" y="501.3525" style="stroke: #000000; stroke-width: 0.8"/>
      </g>
     </g>
     <g id="text_4">
      <!-- 75 -->
      <g transform="translate(365.525874 521.49625) scale(0.2 -0.2)">
       <defs>
        <path id="AptosDisplay-37" d="M 766 0 
L 2609 3600 
L 194 3600 
L 194 4078 
L 3141 4078 
L 3141 3622 
L 1334 0 
L 766 0 
z
" transform="scale(0.015625)"/>
       </defs>
       <use xlink:href="#AptosDisplay-37"/>
       <use xlink:href="#AptosDisplay-35" x="52.294922"/>
      </g>
     </g>
    </g>
    <g id="xtick_5">
     <g id="line2d_9">
      <path d="M 459.417806 501.3525 
L 459.417806 57.8325 
" clip-path="url(#pe00c5aff93)" style="fill: none; stroke: #b0b0b0; stroke-opacity: 0.8; stroke-linecap: square"/>
     </g>
     <g id="line2d_10">
      <g>
       <use xlink:href="#m21bf65563f" x="459.417806" y="501.3525" style="stroke: #000000; stroke-width: 0.8"/>
      </g>
     </g>
     <g id="text_5">
      <!-- 100 -->
      <g transform="translate(443.728743 521.49625) scale(0.2 -0.2)">
       <defs>
        <path id="AptosDisplay-31" d="M 1659 0 
L 1659 3425 
Q 1575 3309 1420 3201 
Q 1266 3094 1052 3009 
Q 838 2925 578 2888 
L 578 3381 
Q 834 3425 1057 3540 
Q 1281 3656 1453 3806 
Q 1625 3956 1719 4094 
L 2206 4094 
L 2206 0 
L 1659 0 
z
" transform="scale(0.015625)"/>
       </defs>
       <use xlink:href="#AptosDisplay-31"/>
       <use xlink:href="#AptosDisplay-30" x="52.294922"/>
       <use xlink:href="#AptosDisplay-30" x="104.589844"/>
      </g>
     </g>
    </g>
    <g id="xtick_6">
     <g id="line2d_11">
      <path d="M 542.850363 501.3525 
L 542.850363 57.8325 
" clip-path="url(#pe00c5aff93)" style="fill: none; stroke: #b0b0b0; stroke-opacity: 0.8; stroke-linecap: square"/>
     </g>
     <g id="line2d_12">
      <g>
       <use xlink:href="#m21bf65563f" x="542.850363" y="501.3525" style="stroke: #000000; stroke-width: 0.8"/>
      </g>
     </g>
     <g id="text_6">
      <!-- 125 -->
      <g transform="translate(527.1613 521.49625) scale(0.2 -0.2)">
       <use xlink:href="#AptosDisplay-31"/>
       <use xlink:href="#AptosDisplay-32" x="52.294922"/>
       <use xlink:href="#AptosDisplay-35" x="104.589844"/>
      </g>
     </g>
    </g>
    <g id="xtick_7">
     <g id="line2d_13">
      <path d="M 626.28292 501.3525 
L 626.28292 57.8325 
" clip-path="url(#pe00c5aff93)" style="fill: none; stroke: #b0b0b0; stroke-opacity: 0.8; stroke-linecap: square"/>
     </g>
     <g id="line2d_14">
      <g>
       <use xlink:href="#m21bf65563f" x="626.28292" y="501.3525" style="stroke: #000000; stroke-width: 0.8"/>
      </g>
     </g>
     <g id="text_7">
      <!-- 150 -->
      <g transform="translate(610.593857 521.49625) scale(0.2 -0.2)">
       <use xlink:href="#AptosDisplay-31"/>
       <use xlink:href="#AptosDisplay-35" x="52.294922"/>
       <use xlink:href="#AptosDisplay-30" x="104.589844"/>
      </g>
     </g>
    </g>
    <g id="xtick_8">
     <g id="line2d_15">
      <path d="M 709.715476 501.3525 
L 709.715476 57.8325 
" clip-path="url(#pe00c5aff93)" style="fill: none; stroke: #b0b0b0; stroke-opacity: 0.8; stroke-linecap: square"/>
     </g>
     <g id="line2d_16">
      <g>
       <use xlink:href="#m21bf65563f" x="709.715476" y="501.3525" style="stroke: #000000; stroke-width: 0.8"/>
      </g>
     </g>
     <g id="text_8">
      <!-- 175 -->
      <g transform="translate(694.026414 521.49625) scale(0.2 -0.2)">
       <use xlink:href="#AptosDisplay-31"/>
       <use xlink:href="#AptosDisplay-37" x="52.294922"/>
       <use xlink:href="#AptosDisplay-35" x="104.589844"/>
      </g>
     </g>
    </g>
    <g id="xtick_9">
     <g id="line2d_17">
      <path d="M 109.001067 501.3525 
L 109.001067 57.8325 
" clip-path="url(#pe00c5aff93)" style="fill: none; stroke-dasharray: 1.85,0.8; stroke-dashoffset: 0; stroke: #b0b0b0; stroke-opacity: 0.8; stroke-width: 0.5"/>
     </g>
     <g id="line2d_18">
      <defs>
       <path id="mea65a1a723" d="M 0 0 
L 0 2 
" style="stroke: #000000; stroke-width: 0.6"/>
      </defs>
      <g>
       <use xlink:href="#mea65a1a723" x="109.001067" y="501.3525" style="stroke: #000000; stroke-width: 0.6"/>
      </g>
     </g>
    </g>
    <g id="xtick_10">
     <g id="line2d_19">
      <path d="M 142.374089 501.3525 
L 142.374089 57.8325 
" clip-path="url(#pe00c5aff93)" style="fill: none; stroke-dasharray: 1.85,0.8; stroke-dashoffset: 0; stroke: #b0b0b0; stroke-opacity: 0.8; stroke-width: 0.5"/>
     </g>
     <g id="line2d_20">
      <g>
       <use xlink:href="#mea65a1a723" x="142.374089" y="501.3525" style="stroke: #000000; stroke-width: 0.6"/>
      </g>
     </g>
    </g>
    <g id="xtick_11">
     <g id="line2d_21">
      <path d="M 159.060601 501.3525 
L 159.060601 57.8325 
" clip-path="url(#pe00c5aff93)" style="fill: none; stroke-dasharray: 1.85,0.8; stroke-dashoffset: 0; stroke: #b0b0b0; stroke-opacity: 0.8; stroke-width: 0.5"/>
     </g>
     <g id="line2d_22">
      <g>
       <use xlink:href="#mea65a1a723" x="159.060601" y="501.3525" style="stroke: #000000; stroke-width: 0.6"/>
      </g>
     </g>
    </g>
    <g id="xtick_12">
     <g id="line2d_23">
      <path d="M 175.747112 501.3525 
L 175.747112 57.8325 
" clip-path="url(#pe00c5aff93)" style="fill: none; stroke-dasharray: 1.85,0.8; stroke-dashoffset: 0; stroke: #b0b0b0; stroke-opacity: 0.8; stroke-width: 0.5"/>
     </g>
     <g id="line2d_24">
      <g>
       <use xlink:href="#mea65a1a723" x="175.747112" y="501.3525" style="stroke: #000000; stroke-width: 0.6"/>
      </g>
     </g>
    </g>
    <g id="xtick_13">
     <g id="line2d_25">
      <path d="M 192.433623 501.3525 
L 192.433623 57.8325 
" clip-path="url(#pe00c5aff93)" style="fill: none; stroke-dasharray: 1.85,0.8; stroke-dashoffset: 0; stroke: #b0b0b0; stroke-opacity: 0.8; stroke-width: 0.5"/>
     </g>
     <g id="line2d_26">
      <g>
       <use xlink:href="#mea65a1a723" x="192.433623" y="501.3525" style="stroke: #000000; stroke-width: 0.6"/>
      </g>
     </g>
    </g>
    <g id="xtick_14">
     <g id="line2d_27">
      <path d="M 225.806646 501.3525 
L 225.806646 57.8325 
" clip-path="url(#pe00c5aff93)" style="fill: none; stroke-dasharray: 1.85,0.8; stroke-dashoffset: 0; stroke: #b0b0b0; stroke-opacity: 0.8; stroke-width: 0.5"/>
     </g>
     <g id="line2d_28">
      <g>
       <use xlink:href="#mea65a1a723" x="225.806646" y="501.3525" style="stroke: #000000; stroke-width: 0.6"/>
      </g>
     </g>
    </g>
    <g id="xtick_15">
     <g id="line2d_29">
      <path d="M 242.493158 501.3525 
L 242.493158 57.8325 
" clip-path="url(#pe00c5aff93)" style="fill: none; stroke-dasharray: 1.85,0.8; stroke-dashoffset: 0; stroke: #b0b0b0; stroke-opacity: 0.8; stroke-width: 0.5"/>
     </g>
     <g id="line2d_30">
      <g>
       <use xlink:href="#mea65a1a723" x="242.493158" y="501.3525" style="stroke: #000000; stroke-width: 0.6"/>
      </g>
     </g>
    </g>
    <g id="xtick_16">
     <g id="line2d_31">
      <path d="M 259.179669 501.3525 
L 259.179669 57.8325 
" clip-path="url(#pe00c5aff93)" style="fill: none; stroke-dasharray: 1.85,0.8; stroke-dashoffset: 0; stroke: #b0b0b0; stroke-opacity: 0.8; stroke-width: 0.5"/>
     </g>
     <g id="line2d_32">
      <g>
       <use xlink:href="#mea65a1a723" x="259.179669" y="501.3525" style="stroke: #000000; stroke-width: 0.6"/>
      </g>
     </g>
    </g>
    <g id="xtick_17">
     <g id="line2d_33">
      <path d="M 275.86618 501.3525 
L 275.86618 57.8325 
" clip-path="url(#pe00c5aff93)" style="fill: none; stroke-dasharray: 1.85,0.8; stroke-dashoffset: 0; stroke: #b0b0b0; stroke-opacity: 0.8; stroke-width: 0.5"/>
     </g>
     <g id="line2d_34">
      <g>
       <use xlink:href="#mea65a1a723" x="275.86618" y="501.3525" style="stroke: #000000; stroke-width: 0.6"/>
      </g>
     </g>
    </g>
    <g id="xtick_18">
     <g id="line2d_35">
      <path d="M 309.239203 501.3525 
L 309.239203 57.8325 
" clip-path="url(#pe00c5aff93)" style="fill: none; stroke-dasharray: 1.85,0.8; stroke-dashoffset: 0; stroke: #b0b0b0; stroke-opacity: 0.8; stroke-width: 0.5"/>
     </g>
     <g id="line2d_36">
      <g>
       <use xlink:href="#mea65a1a723" x="309.239203" y="501.3525" style="stroke: #000000; stroke-width: 0.6"/>
      </g>
     </g>
    </g>
    <g id="xtick_19">
     <g id="line2d_37">
      <path d="M 325.925715 501.3525 
L 325.925715 57.8325 
" clip-path="url(#pe00c5aff93)" style="fill: none; stroke-dasharray: 1.85,0.8; stroke-dashoffset: 0; stroke: #b0b0b0; stroke-opacity: 0.8; stroke-width: 0.5"/>
     </g>
     <g id="line2d_38">
      <g>
       <use xlink:href="#mea65a1a723" x="325.925715" y="501.3525" style="stroke: #000000; stroke-width: 0.6"/>
      </g>
     </g>
    </g>
    <g id="xtick_20">
     <g id="line2d_39">
      <path d="M 342.612226 501.3525 
L 342.612226 57.8325 
" clip-path="url(#pe00c5aff93)" style="fill: none; stroke-dasharray: 1.85,0.8; stroke-dashoffset: 0; stroke: #b0b0b0; stroke-opacity: 0.8; stroke-width: 0.5"/>
     </g>
     <g id="line2d_40">
      <g>
       <use xlink:href="#mea65a1a723" x="342.612226" y="501.3525" style="stroke: #000000; stroke-width: 0.6"/>
      </g>
     </g>
    </g>
    <g id="xtick_21">
     <g id="line2d_41">
      <path d="M 359.298737 501.3525 
L 359.298737 57.8325 
" clip-path="url(#pe00c5aff93)" style="fill: none; stroke-dasharray: 1.85,0.8; stroke-dashoffset: 0; stroke: #b0b0b0; stroke-opacity: 0.8; stroke-width: 0.5"/>
     </g>
     <g id="line2d_42">
      <g>
       <use xlink:href="#mea65a1a723" x="359.298737" y="501.3525" style="stroke: #000000; stroke-width: 0.6"/>
      </g>
     </g>
    </g>
    <g id="xtick_22">
     <g id="line2d_43">
      <path d="M 392.67176 501.3525 
L 392.67176 57.8325 
" clip-path="url(#pe00c5aff93)" style="fill: none; stroke-dasharray: 1.85,0.8; stroke-dashoffset: 0; stroke: #b0b0b0; stroke-opacity: 0.8; stroke-width: 0.5"/>
     </g>
     <g id="line2d_44">
      <g>
       <use xlink:href="#mea65a1a723" x="392.67176" y="501.3525" style="stroke: #000000; stroke-width: 0.6"/>
      </g>
     </g>
    </g>
    <g id="xtick_23">
     <g id="line2d_45">
      <path d="M 409.358272 501.3525 
L 409.358272 57.8325 
" clip-path="url(#pe00c5aff93)" style="fill: none; stroke-dasharray: 1.85,0.8; stroke-dashoffset: 0; stroke: #b0b0b0; stroke-opacity: 0.8; stroke-width: 0.5"/>
     </g>
     <g id="line2d_46">
      <g>
       <use xlink:href="#mea65a1a723" x="409.358272" y="501.3525" style="stroke: #000000; stroke-width: 0.6"/>
      </g>
     </g>
    </g>
    <g id="xtick_24">
     <g id="line2d_47">
      <path d="M 426.044783 501.3525 
L 426.044783 57.8325 
" clip-path="url(#pe00c5aff93)" style="fill: none; stroke-dasharray: 1.85,0.8; stroke-dashoffset: 0; stroke: #b0b0b0; stroke-opacity: 0.8; stroke-width: 0.5"/>
     </g>
     <g id="line2d_48">
      <g>
       <use xlink:href="#mea65a1a723" x="426.044783" y="501.3525" style="stroke: #000000; stroke-width: 0.6"/>
      </g>
     </g>
    </g>
    <g id="xtick_25">
     <g id="line2d_49">
      <path d="M 442.731294 501.3525 
L 442.731294 57.8325 
" clip-path="url(#pe00c5aff93)" style="fill: none; stroke-dasharray: 1.85,0.8; stroke-dashoffset: 0; stroke: #b0b0b0; stroke-opacity: 0.8; stroke-width: 0.5"/>
     </g>
     <g id="line2d_50">
      <g>
       <use xlink:href="#mea65a1a723" x="442.731294" y="501.3525" style="stroke: #000000; stroke-width: 0.6"/>
      </g>
     </g>
    </g>
    <g id="xtick_26">
     <g id="line2d_51">
      <path d="M 476.104317 501.3525 
L 476.104317 57.8325 
" clip-path="url(#pe00c5aff93)" style="fill: none; stroke-dasharray: 1.85,0.8; stroke-dashoffset: 0; stroke: #b0b0b0; stroke-opacity: 0.8; stroke-width: 0.5"/>
     </g>
     <g id="line2d_52">
      <g>
       <use xlink:href="#mea65a1a723" x="476.104317" y="501.3525" style="stroke: #000000; stroke-width: 0.6"/>
      </g>
     </g>
    </g>
    <g id="xtick_27">
     <g id="line2d_53">
      <path d="M 492.790828 501.3525 
L 492.790828 57.8325 
" clip-path="url(#pe00c5aff93)" style="fill: none; stroke-dasharray: 1.85,0.8; stroke-dashoffset: 0; stroke: #b0b0b0; stroke-opacity: 0.8; stroke-width: 0.5"/>
     </g>
     <g id="line2d_54">
      <g>
       <use xlink:href="#mea65a1a723" x="492.790828" y="501.3525" style="stroke: #000000; stroke-width: 0.6"/>
      </g>
     </g>
    </g>
    <g id="xtick_28">
     <g id="line2d_55">
      <path d="M 509.47734 501.3525 
L 509.47734 57.8325 
" clip-path="url(#pe00c5aff93)" style="fill: none; stroke-dasharray: 1.85,0.8; stroke-dashoffset: 0; stroke: #b0b0b0; stroke-opacity: 0.8; stroke-width: 0.5"/>
     </g>
     <g id="line2d_56">
      <g>
       <use xlink:href="#mea65a1a723" x="509.47734" y="501.3525" style="stroke: #000000; stroke-width: 0.6"/>
      </g>
     </g>
    </g>
    <g id="xtick_29">
     <g id="line2d_57">
      <path d="M 526.163851 501.3525 
L 526.163851 57.8325 
" clip-path="url(#pe00c5aff93)" style="fill: none; stroke-dasharray: 1.85,0.8; stroke-dashoffset: 0; stroke: #b0b0b0; stroke-opacity: 0.8; stroke-width: 0.5"/>
     </g>
     <g id="line2d_58">
      <g>
       <use xlink:href="#mea65a1a723" x="526.163851" y="501.3525" style="stroke: #000000; stroke-width: 0.6"/>
      </g>
     </g>
    </g>
    <g id="xtick_30">
     <g id="line2d_59">
      <path d="M 559.536874 501.3525 
L 559.536874 57.8325 
" clip-path="url(#pe00c5aff93)" style="fill: none; stroke-dasharray: 1.85,0.8; stroke-dashoffset: 0; stroke: #b0b0b0; stroke-opacity: 0.8; stroke-width: 0.5"/>
     </g>
     <g id="line2d_60">
      <g>
       <use xlink:href="#mea65a1a723" x="559.536874" y="501.3525" style="stroke: #000000; stroke-width: 0.6"/>
      </g>
     </g>
    </g>
    <g id="xtick_31">
     <g id="line2d_61">
      <path d="M 576.223385 501.3525 
L 576.223385 57.8325 
" clip-path="url(#pe00c5aff93)" style="fill: none; stroke-dasharray: 1.85,0.8; stroke-dashoffset: 0; stroke: #b0b0b0; stroke-opacity: 0.8; stroke-width: 0.5"/>
     </g>
     <g id="line2d_62">
      <g>
       <use xlink:href="#mea65a1a723" x="576.223385" y="501.3525" style="stroke: #000000; stroke-width: 0.6"/>
      </g>
     </g>
    </g>
    <g id="xtick_32">
     <g id="line2d_63">
      <path d="M 592.909897 501.3525 
L 592.909897 57.8325 
" clip-path="url(#pe00c5aff93)" style="fill: none; stroke-dasharray: 1.85,0.8; stroke-dashoffset: 0; stroke: #b0b0b0; stroke-opacity: 0.8; stroke-width: 0.5"/>
     </g>
     <g id="line2d_64">
      <g>
       <use xlink:href="#mea65a1a723" x="592.909897" y="501.3525" style="stroke: #000000; stroke-width: 0.6"/>
      </g>
     </g>
    </g>
    <g id="xtick_33">
     <g id="line2d_65">
      <path d="M 609.596408 501.3525 
L 609.596408 57.8325 
" clip-path="url(#pe00c5aff93)" style="fill: none; stroke-dasharray: 1.85,0.8; stroke-dashoffset: 0; stroke: #b0b0b0; stroke-opacity: 0.8; stroke-width: 0.5"/>
     </g>
     <g id="line2d_66">
      <g>
       <use xlink:href="#mea65a1a723" x="609.596408" y="501.3525" style="stroke: #000000; stroke-width: 0.6"/>
      </g>
     </g>
    </g>
    <g id="xtick_34">
     <g id="line2d_67">
      <path d="M 642.969431 501.3525 
L 642.969431 57.8325 
" clip-path="url(#pe00c5aff93)" style="fill: none; stroke-dasharray: 1.85,0.8; stroke-dashoffset: 0; stroke: #b0b0b0; stroke-opacity: 0.8; stroke-width: 0.5"/>
     </g>
     <g id="line2d_68">
      <g>
       <use xlink:href="#mea65a1a723" x="642.969431" y="501.3525" style="stroke: #000000; stroke-width: 0.6"/>
      </g>
     </g>
    </g>
    <g id="xtick_35">
     <g id="line2d_69">
      <path d="M 659.655942 501.3525 
L 659.655942 57.8325 
" clip-path="url(#pe00c5aff93)" style="fill: none; stroke-dasharray: 1.85,0.8; stroke-dashoffset: 0; stroke: #b0b0b0; stroke-opacity: 0.8; stroke-width: 0.5"/>
     </g>
     <g id="line2d_70">
      <g>
       <use xlink:href="#mea65a1a723" x="659.655942" y="501.3525" style="stroke: #000000; stroke-width: 0.6"/>
      </g>
     </g>
    </g>
    <g id="xtick_36">
     <g id="line2d_71">
      <path d="M 676.342454 501.3525 
L 676.342454 57.8325 
" clip-path="url(#pe00c5aff93)" style="fill: none; stroke-dasharray: 1.85,0.8; stroke-dashoffset: 0; stroke: #b0b0b0; stroke-opacity: 0.8; stroke-width: 0.5"/>
     </g>
     <g id="line2d_72">
      <g>
       <use xlink:href="#mea65a1a723" x="676.342454" y="501.3525" style="stroke: #000000; stroke-width: 0.6"/>
      </g>
     </g>
    </g>
    <g id="xtick_37">
     <g id="line2d_73">
      <path d="M 693.028965 501.3525 
L 693.028965 57.8325 
" clip-path="url(#pe00c5aff93)" style="fill: none; stroke-dasharray: 1.85,0.8; stroke-dashoffset: 0; stroke: #b0b0b0; stroke-opacity: 0.8; stroke-width: 0.5"/>
     </g>
     <g id="line2d_74">
      <g>
       <use xlink:href="#mea65a1a723" x="693.028965" y="501.3525" style="stroke: #000000; stroke-width: 0.6"/>
      </g>
     </g>
    </g>
    <g id="xtick_38">
     <g id="line2d_75">
      <path d="M 726.401988 501.3525 
L 726.401988 57.8325 
" clip-path="url(#pe00c5aff93)" style="fill: none; stroke-dasharray: 1.85,0.8; stroke-dashoffset: 0; stroke: #b0b0b0; stroke-opacity: 0.8; stroke-width: 0.5"/>
     </g>
     <g id="line2d_76">
      <g>
       <use xlink:href="#mea65a1a723" x="726.401988" y="501.3525" style="stroke: #000000; stroke-width: 0.6"/>
      </g>
     </g>
    </g>
    <g id="xtick_39">
     <g id="line2d_77">
      <path d="M 743.088499 501.3525 
L 743.088499 57.8325 
" clip-path="url(#pe00c5aff93)" style="fill: none; stroke-dasharray: 1.85,0.8; stroke-dashoffset: 0; stroke: #b0b0b0; stroke-opacity: 0.8; stroke-width: 0.5"/>
     </g>
     <g id="line2d_78">
      <g>
       <use xlink:href="#mea65a1a723" x="743.088499" y="501.3525" style="stroke: #000000; stroke-width: 0.6"/>
      </g>
     </g>
    </g>
    <g id="xtick_40">
     <g id="line2d_79">
      <path d="M 759.775011 501.3525 
L 759.775011 57.8325 
" clip-path="url(#pe00c5aff93)" style="fill: none; stroke-dasharray: 1.85,0.8; stroke-dashoffset: 0; stroke: #b0b0b0; stroke-opacity: 0.8; stroke-width: 0.5"/>
     </g>
     <g id="line2d_80">
      <g>
       <use xlink:href="#mea65a1a723" x="759.775011" y="501.3525" style="stroke: #000000; stroke-width: 0.6"/>
      </g>
     </g>
    </g>
    <g id="text_9">
     <!-- Time (S) -->
     <g transform="translate(396.990625 542.305625) scale(0.2 -0.2)">
      <defs>
       <path id="AptosDisplay-54" d="M 1244 0 
L 1244 3734 
L 50 3734 
L 50 4206 
L 2997 4206 
L 2997 3734 
L 1806 3734 
L 1806 0 
L 1244 0 
z
" transform="scale(0.015625)"/>
       <path id="AptosDisplay-69" d="M 413 0 
L 413 3044 
L 934 3044 
L 934 0 
L 413 0 
z
M 675 3616 
Q 525 3616 437 3702 
Q 350 3788 350 3919 
Q 350 4050 437 4136 
Q 525 4222 675 4222 
Q 822 4222 912 4136 
Q 1003 4050 1003 3919 
Q 1003 3788 912 3702 
Q 822 3616 675 3616 
z
" transform="scale(0.015625)"/>
       <path id="AptosDisplay-6d" d="M 413 0 
L 413 3044 
L 919 3044 
L 931 2575 
Q 1063 2756 1303 2914 
Q 1544 3072 1903 3072 
Q 2403 3072 2618 2778 
Q 2834 2484 2834 1963 
L 2834 0 
L 2316 0 
L 2316 1891 
Q 2316 2106 2275 2275 
Q 2234 2444 2120 2539 
Q 2006 2634 1788 2634 
Q 1488 2634 1277 2482 
Q 1066 2331 934 2156 
L 934 0 
L 413 0 
z
M 4206 0 
L 4206 1891 
Q 4206 2106 4164 2275 
Q 4122 2444 4009 2539 
Q 3897 2634 3681 2634 
Q 3381 2634 3165 2484 
Q 2950 2334 2822 2159 
L 2744 2544 
Q 2916 2741 3175 2906 
Q 3434 3072 3800 3072 
Q 4291 3072 4509 2778 
Q 4728 2484 4728 1963 
L 4728 0 
L 4206 0 
z
" transform="scale(0.015625)"/>
       <path id="AptosDisplay-65" d="M 1663 -56 
Q 1188 -56 878 151 
Q 569 359 417 717 
Q 266 1075 266 1522 
Q 266 1988 412 2342 
Q 559 2697 857 2897 
Q 1156 3097 1606 3097 
Q 2209 3097 2550 2722 
Q 2891 2347 2891 1644 
Q 2891 1597 2889 1533 
Q 2888 1469 2881 1441 
L 791 1441 
Q 794 1144 881 895 
Q 969 647 1161 497 
Q 1353 347 1663 347 
Q 1997 347 2183 511 
Q 2369 675 2378 984 
L 2894 984 
Q 2884 663 2732 430 
Q 2581 197 2309 70 
Q 2038 -56 1663 -56 
z
M 794 1822 
L 2375 1822 
Q 2366 2247 2166 2472 
Q 1966 2697 1606 2697 
Q 1241 2697 1036 2473 
Q 831 2250 794 1822 
z
" transform="scale(0.015625)"/>
       <path id="AptosDisplay-20" transform="scale(0.015625)"/>
       <path id="AptosDisplay-28" d="M 1219 -1116 
Q 969 -678 787 -267 
Q 606 144 511 581 
Q 416 1019 416 1528 
Q 416 2028 509 2486 
Q 603 2944 783 3378 
Q 963 3813 1219 4231 
L 1647 4231 
Q 1278 3600 1101 2886 
Q 925 2172 925 1428 
Q 925 766 1125 103 
Q 1325 -559 1647 -1116 
L 1219 -1116 
z
" transform="scale(0.015625)"/>
       <path id="AptosDisplay-53" d="M 1778 -56 
Q 1328 -56 962 81 
Q 597 219 384 512 
Q 172 806 172 1275 
L 734 1275 
Q 738 941 883 750 
Q 1028 559 1267 481 
Q 1506 403 1794 403 
Q 2063 403 2283 483 
Q 2503 563 2634 723 
Q 2766 884 2766 1134 
Q 2766 1356 2662 1497 
Q 2559 1638 2321 1742 
Q 2084 1847 1678 1950 
Q 1203 2075 897 2223 
Q 591 2372 442 2594 
Q 294 2816 294 3156 
Q 294 3516 462 3761 
Q 631 4006 945 4134 
Q 1259 4263 1697 4263 
Q 2103 4263 2440 4131 
Q 2778 4000 2979 3737 
Q 3181 3475 3181 3084 
L 2616 3084 
Q 2622 3441 2356 3623 
Q 2091 3806 1700 3806 
Q 1300 3806 1073 3645 
Q 847 3484 847 3175 
Q 847 2991 944 2867 
Q 1041 2744 1280 2644 
Q 1519 2544 1941 2434 
Q 2428 2303 2731 2153 
Q 3034 2003 3178 1768 
Q 3322 1534 3322 1153 
Q 3322 747 3117 480 
Q 2913 213 2564 78 
Q 2216 -56 1778 -56 
z
" transform="scale(0.015625)"/>
       <path id="AptosDisplay-29" d="M 234 -1116 
Q 609 -481 786 233 
Q 963 947 963 1694 
Q 963 2356 759 3015 
Q 556 3675 234 4231 
L 663 4231 
Q 919 3800 1098 3389 
Q 1278 2978 1373 2540 
Q 1469 2103 1469 1594 
Q 1469 1094 1375 634 
Q 1281 175 1100 -259 
Q 919 -694 663 -1116 
L 234 -1116 
z
" transform="scale(0.015625)"/>
      </defs>
      <use xlink:href="#AptosDisplay-54"/>
      <use xlink:href="#AptosDisplay-69" x="47.705078"/>
      <use xlink:href="#AptosDisplay-6d" x="68.75"/>
      <use xlink:href="#AptosDisplay-65" x="148.730469"/>
      <use xlink:href="#AptosDisplay-20" x="198.144531"/>
      <use xlink:href="#AptosDisplay-28" x="217.431641"/>
      <use xlink:href="#AptosDisplay-53" x="246.875"/>
      <use xlink:href="#AptosDisplay-29" x="301.464844"/>
     </g>
    </g>
   </g>
   <g id="matplotlib.axis_2">
    <g id="ytick_1">
     <g id="line2d_81">
      <path d="M 95.28125 473.417577 
L 764.88125 473.417577 
" clip-path="url(#pe00c5aff93)" style="fill: none; stroke: #b0b0b0; stroke-opacity: 0.8; stroke-linecap: square"/>
     </g>
     <g id="line2d_82">
      <defs>
       <path id="m296b8c10fe" d="M 0 0 
L -3.5 0 
" style="stroke: #000000; stroke-width: 0.8"/>
      </defs>
      <g>
       <use xlink:href="#m296b8c10fe" x="95.28125" y="473.417577" style="stroke: #000000; stroke-width: 0.8"/>
      </g>
     </g>
     <g id="text_10">
      <!-- 750 -->
      <g transform="translate(56.903125 479.989452) scale(0.2 -0.2)">
       <use xlink:href="#AptosDisplay-37"/>
       <use xlink:href="#AptosDisplay-35" x="52.294922"/>
       <use xlink:href="#AptosDisplay-30" x="104.589844"/>
      </g>
     </g>
    </g>
    <g id="ytick_2">
     <g id="line2d_83">
      <path d="M 95.28125 377.949471 
L 764.88125 377.949471 
" clip-path="url(#pe00c5aff93)" style="fill: none; stroke: #b0b0b0; stroke-opacity: 0.8; stroke-linecap: square"/>
     </g>
     <g id="line2d_84">
      <g>
       <use xlink:href="#m296b8c10fe" x="95.28125" y="377.949471" style="stroke: #000000; stroke-width: 0.8"/>
      </g>
     </g>
     <g id="text_11">
      <!-- 800 -->
      <g transform="translate(56.903125 384.521346) scale(0.2 -0.2)">
       <defs>
        <path id="AptosDisplay-38" d="M 1675 -56 
Q 1391 -56 1137 16 
Q 884 88 686 234 
Q 488 381 373 606 
Q 259 831 259 1141 
Q 259 1531 495 1797 
Q 731 2063 1084 2150 
Q 781 2250 604 2490 
Q 428 2731 428 3081 
Q 428 3447 609 3681 
Q 791 3916 1075 4025 
Q 1359 4134 1669 4134 
Q 1981 4134 2265 4023 
Q 2550 3913 2733 3680 
Q 2916 3447 2916 3081 
Q 2916 2725 2716 2481 
Q 2516 2238 2238 2150 
Q 2606 2063 2843 1800 
Q 3081 1538 3081 1141 
Q 3081 831 2968 606 
Q 2856 381 2661 234 
Q 2466 88 2211 16 
Q 1956 -56 1675 -56 
z
M 1672 388 
Q 1909 388 2109 470 
Q 2309 553 2429 725 
Q 2550 897 2550 1163 
Q 2550 1416 2426 1587 
Q 2303 1759 2104 1846 
Q 1906 1934 1672 1928 
Q 1453 1934 1253 1850 
Q 1053 1766 926 1594 
Q 800 1422 800 1163 
Q 800 775 1058 581 
Q 1316 388 1672 388 
z
M 1672 2363 
Q 1863 2356 2030 2434 
Q 2197 2513 2300 2667 
Q 2403 2822 2403 3050 
Q 2403 3388 2189 3544 
Q 1975 3700 1675 3700 
Q 1484 3700 1317 3631 
Q 1150 3563 1047 3419 
Q 944 3275 944 3050 
Q 944 2825 1048 2670 
Q 1153 2516 1320 2436 
Q 1488 2356 1672 2363 
z
" transform="scale(0.015625)"/>
       </defs>
       <use xlink:href="#AptosDisplay-38"/>
       <use xlink:href="#AptosDisplay-30" x="52.294922"/>
       <use xlink:href="#AptosDisplay-30" x="104.589844"/>
      </g>
     </g>
    </g>
    <g id="ytick_3">
     <g id="line2d_85">
      <path d="M 95.28125 282.481365 
L 764.88125 282.481365 
" clip-path="url(#pe00c5aff93)" style="fill: none; stroke: #b0b0b0; stroke-opacity: 0.8; stroke-linecap: square"/>
     </g>
     <g id="line2d_86">
      <g>
       <use xlink:href="#m296b8c10fe" x="95.28125" y="282.481365" style="stroke: #000000; stroke-width: 0.8"/>
      </g>
     </g>
     <g id="text_12">
      <!-- 850 -->
      <g transform="translate(56.903125 289.05324) scale(0.2 -0.2)">
       <use xlink:href="#AptosDisplay-38"/>
       <use xlink:href="#AptosDisplay-35" x="52.294922"/>
       <use xlink:href="#AptosDisplay-30" x="104.589844"/>
      </g>
     </g>
    </g>
    <g id="ytick_4">
     <g id="line2d_87">
      <path d="M 95.28125 187.013259 
L 764.88125 187.013259 
" clip-path="url(#pe00c5aff93)" style="fill: none; stroke: #b0b0b0; stroke-opacity: 0.8; stroke-linecap: square"/>
     </g>
     <g id="line2d_88">
      <g>
       <use xlink:href="#m296b8c10fe" x="95.28125" y="187.013259" style="stroke: #000000; stroke-width: 0.8"/>
      </g>
     </g>
     <g id="text_13">
      <!-- 900 -->
      <g transform="translate(56.903125 193.585134) scale(0.2 -0.2)">
       <defs>
        <path id="AptosDisplay-39" d="M 1547 -56 
Q 1200 -56 926 64 
Q 653 184 481 415 
Q 309 647 256 978 
L 788 978 
Q 834 713 1029 552 
Q 1225 391 1547 391 
Q 2022 391 2294 778 
Q 2566 1166 2566 2019 
L 2566 2197 
Q 2566 2753 2439 3079 
Q 2313 3406 2102 3547 
Q 1891 3688 1634 3688 
Q 1206 3688 998 3433 
Q 791 3178 791 2800 
Q 791 2422 991 2203 
Q 1191 1984 1547 1984 
Q 1831 1984 2045 2071 
Q 2259 2159 2417 2300 
Q 2575 2441 2681 2594 
L 2731 2209 
Q 2609 2038 2432 1884 
Q 2256 1731 2020 1634 
Q 1784 1538 1484 1538 
Q 1122 1538 842 1683 
Q 563 1828 405 2108 
Q 247 2388 247 2784 
Q 247 3175 414 3479 
Q 581 3784 892 3959 
Q 1203 4134 1631 4134 
Q 2056 4134 2389 3926 
Q 2722 3719 2914 3262 
Q 3106 2806 3106 2066 
Q 3106 1338 2912 869 
Q 2719 400 2369 172 
Q 2019 -56 1547 -56 
z
" transform="scale(0.015625)"/>
       </defs>
       <use xlink:href="#AptosDisplay-39"/>
       <use xlink:href="#AptosDisplay-30" x="52.294922"/>
       <use xlink:href="#AptosDisplay-30" x="104.589844"/>
      </g>
     </g>
    </g>
    <g id="ytick_5">
     <g id="line2d_89">
      <path d="M 95.28125 91.545152 
L 764.88125 91.545152 
" clip-path="url(#pe00c5aff93)" style="fill: none; stroke: #b0b0b0; stroke-opacity: 0.8; stroke-linecap: square"/>
     </g>
     <g id="line2d_90">
      <g>
       <use xlink:href="#m296b8c10fe" x="95.28125" y="91.545152" style="stroke: #000000; stroke-width: 0.8"/>
      </g>
     </g>
     <g id="text_14">
      <!-- 950 -->
      <g transform="translate(56.903125 98.117027) scale(0.2 -0.2)">
       <use xlink:href="#AptosDisplay-39"/>
       <use xlink:href="#AptosDisplay-35" x="52.294922"/>
       <use xlink:href="#AptosDisplay-30" x="104.589844"/>
      </g>
     </g>
    </g>
    <g id="ytick_6">
     <g id="line2d_91">
      <path d="M 95.28125 492.511199 
L 764.88125 492.511199 
" clip-path="url(#pe00c5aff93)" style="fill: none; stroke-dasharray: 1.85,0.8; stroke-dashoffset: 0; stroke: #b0b0b0; stroke-opacity: 0.8; stroke-width: 0.5"/>
     </g>
     <g id="line2d_92">
      <defs>
       <path id="mbc9561bb19" d="M 0 0 
L -2 0 
" style="stroke: #000000; stroke-width: 0.6"/>
      </defs>
      <g>
       <use xlink:href="#mbc9561bb19" x="95.28125" y="492.511199" style="stroke: #000000; stroke-width: 0.6"/>
      </g>
     </g>
    </g>
    <g id="ytick_7">
     <g id="line2d_93">
      <path d="M 95.28125 454.323956 
L 764.88125 454.323956 
" clip-path="url(#pe00c5aff93)" style="fill: none; stroke-dasharray: 1.85,0.8; stroke-dashoffset: 0; stroke: #b0b0b0; stroke-opacity: 0.8; stroke-width: 0.5"/>
     </g>
     <g id="line2d_94">
      <g>
       <use xlink:href="#mbc9561bb19" x="95.28125" y="454.323956" style="stroke: #000000; stroke-width: 0.6"/>
      </g>
     </g>
    </g>
    <g id="ytick_8">
     <g id="line2d_95">
      <path d="M 95.28125 435.230335 
L 764.88125 435.230335 
" clip-path="url(#pe00c5aff93)" style="fill: none; stroke-dasharray: 1.85,0.8; stroke-dashoffset: 0; stroke: #b0b0b0; stroke-opacity: 0.8; stroke-width: 0.5"/>
     </g>
     <g id="line2d_96">
      <g>
       <use xlink:href="#mbc9561bb19" x="95.28125" y="435.230335" style="stroke: #000000; stroke-width: 0.6"/>
      </g>
     </g>
    </g>
    <g id="ytick_9">
     <g id="line2d_97">
      <path d="M 95.28125 416.136714 
L 764.88125 416.136714 
" clip-path="url(#pe00c5aff93)" style="fill: none; stroke-dasharray: 1.85,0.8; stroke-dashoffset: 0; stroke: #b0b0b0; stroke-opacity: 0.8; stroke-width: 0.5"/>
     </g>
     <g id="line2d_98">
      <g>
       <use xlink:href="#mbc9561bb19" x="95.28125" y="416.136714" style="stroke: #000000; stroke-width: 0.6"/>
      </g>
     </g>
    </g>
    <g id="ytick_10">
     <g id="line2d_99">
      <path d="M 95.28125 397.043092 
L 764.88125 397.043092 
" clip-path="url(#pe00c5aff93)" style="fill: none; stroke-dasharray: 1.85,0.8; stroke-dashoffset: 0; stroke: #b0b0b0; stroke-opacity: 0.8; stroke-width: 0.5"/>
     </g>
     <g id="line2d_100">
      <g>
       <use xlink:href="#mbc9561bb19" x="95.28125" y="397.043092" style="stroke: #000000; stroke-width: 0.6"/>
      </g>
     </g>
    </g>
    <g id="ytick_11">
     <g id="line2d_101">
      <path d="M 95.28125 358.85585 
L 764.88125 358.85585 
" clip-path="url(#pe00c5aff93)" style="fill: none; stroke-dasharray: 1.85,0.8; stroke-dashoffset: 0; stroke: #b0b0b0; stroke-opacity: 0.8; stroke-width: 0.5"/>
     </g>
     <g id="line2d_102">
      <g>
       <use xlink:href="#mbc9561bb19" x="95.28125" y="358.85585" style="stroke: #000000; stroke-width: 0.6"/>
      </g>
     </g>
    </g>
    <g id="ytick_12">
     <g id="line2d_103">
      <path d="M 95.28125 339.762229 
L 764.88125 339.762229 
" clip-path="url(#pe00c5aff93)" style="fill: none; stroke-dasharray: 1.85,0.8; stroke-dashoffset: 0; stroke: #b0b0b0; stroke-opacity: 0.8; stroke-width: 0.5"/>
     </g>
     <g id="line2d_104">
      <g>
       <use xlink:href="#mbc9561bb19" x="95.28125" y="339.762229" style="stroke: #000000; stroke-width: 0.6"/>
      </g>
     </g>
    </g>
    <g id="ytick_13">
     <g id="line2d_105">
      <path d="M 95.28125 320.668607 
L 764.88125 320.668607 
" clip-path="url(#pe00c5aff93)" style="fill: none; stroke-dasharray: 1.85,0.8; stroke-dashoffset: 0; stroke: #b0b0b0; stroke-opacity: 0.8; stroke-width: 0.5"/>
     </g>
     <g id="line2d_106">
      <g>
       <use xlink:href="#mbc9561bb19" x="95.28125" y="320.668607" style="stroke: #000000; stroke-width: 0.6"/>
      </g>
     </g>
    </g>
    <g id="ytick_14">
     <g id="line2d_107">
      <path d="M 95.28125 301.574986 
L 764.88125 301.574986 
" clip-path="url(#pe00c5aff93)" style="fill: none; stroke-dasharray: 1.85,0.8; stroke-dashoffset: 0; stroke: #b0b0b0; stroke-opacity: 0.8; stroke-width: 0.5"/>
     </g>
     <g id="line2d_108">
      <g>
       <use xlink:href="#mbc9561bb19" x="95.28125" y="301.574986" style="stroke: #000000; stroke-width: 0.6"/>
      </g>
     </g>
    </g>
    <g id="ytick_15">
     <g id="line2d_109">
      <path d="M 95.28125 263.387744 
L 764.88125 263.387744 
" clip-path="url(#pe00c5aff93)" style="fill: none; stroke-dasharray: 1.85,0.8; stroke-dashoffset: 0; stroke: #b0b0b0; stroke-opacity: 0.8; stroke-width: 0.5"/>
     </g>
     <g id="line2d_110">
      <g>
       <use xlink:href="#mbc9561bb19" x="95.28125" y="263.387744" style="stroke: #000000; stroke-width: 0.6"/>
      </g>
     </g>
    </g>
    <g id="ytick_16">
     <g id="line2d_111">
      <path d="M 95.28125 244.294122 
L 764.88125 244.294122 
" clip-path="url(#pe00c5aff93)" style="fill: none; stroke-dasharray: 1.85,0.8; stroke-dashoffset: 0; stroke: #b0b0b0; stroke-opacity: 0.8; stroke-width: 0.5"/>
     </g>
     <g id="line2d_112">
      <g>
       <use xlink:href="#mbc9561bb19" x="95.28125" y="244.294122" style="stroke: #000000; stroke-width: 0.6"/>
      </g>
     </g>
    </g>
    <g id="ytick_17">
     <g id="line2d_113">
      <path d="M 95.28125 225.200501 
L 764.88125 225.200501 
" clip-path="url(#pe00c5aff93)" style="fill: none; stroke-dasharray: 1.85,0.8; stroke-dashoffset: 0; stroke: #b0b0b0; stroke-opacity: 0.8; stroke-width: 0.5"/>
     </g>
     <g id="line2d_114">
      <g>
       <use xlink:href="#mbc9561bb19" x="95.28125" y="225.200501" style="stroke: #000000; stroke-width: 0.6"/>
      </g>
     </g>
    </g>
    <g id="ytick_18">
     <g id="line2d_115">
      <path d="M 95.28125 206.10688 
L 764.88125 206.10688 
" clip-path="url(#pe00c5aff93)" style="fill: none; stroke-dasharray: 1.85,0.8; stroke-dashoffset: 0; stroke: #b0b0b0; stroke-opacity: 0.8; stroke-width: 0.5"/>
     </g>
     <g id="line2d_116">
      <g>
       <use xlink:href="#mbc9561bb19" x="95.28125" y="206.10688" style="stroke: #000000; stroke-width: 0.6"/>
      </g>
     </g>
    </g>
    <g id="ytick_19">
     <g id="line2d_117">
      <path d="M 95.28125 167.919637 
L 764.88125 167.919637 
" clip-path="url(#pe00c5aff93)" style="fill: none; stroke-dasharray: 1.85,0.8; stroke-dashoffset: 0; stroke: #b0b0b0; stroke-opacity: 0.8; stroke-width: 0.5"/>
     </g>
     <g id="line2d_118">
      <g>
       <use xlink:href="#mbc9561bb19" x="95.28125" y="167.919637" style="stroke: #000000; stroke-width: 0.6"/>
      </g>
     </g>
    </g>
    <g id="ytick_20">
     <g id="line2d_119">
      <path d="M 95.28125 148.826016 
L 764.88125 148.826016 
" clip-path="url(#pe00c5aff93)" style="fill: none; stroke-dasharray: 1.85,0.8; stroke-dashoffset: 0; stroke: #b0b0b0; stroke-opacity: 0.8; stroke-width: 0.5"/>
     </g>
     <g id="line2d_120">
      <g>
       <use xlink:href="#mbc9561bb19" x="95.28125" y="148.826016" style="stroke: #000000; stroke-width: 0.6"/>
      </g>
     </g>
    </g>
    <g id="ytick_21">
     <g id="line2d_121">
      <path d="M 95.28125 129.732395 
L 764.88125 129.732395 
" clip-path="url(#pe00c5aff93)" style="fill: none; stroke-dasharray: 1.85,0.8; stroke-dashoffset: 0; stroke: #b0b0b0; stroke-opacity: 0.8; stroke-width: 0.5"/>
     </g>
     <g id="line2d_122">
      <g>
       <use xlink:href="#mbc9561bb19" x="95.28125" y="129.732395" style="stroke: #000000; stroke-width: 0.6"/>
      </g>
     </g>
    </g>
    <g id="ytick_22">
     <g id="line2d_123">
      <path d="M 95.28125 110.638774 
L 764.88125 110.638774 
" clip-path="url(#pe00c5aff93)" style="fill: none; stroke-dasharray: 1.85,0.8; stroke-dashoffset: 0; stroke: #b0b0b0; stroke-opacity: 0.8; stroke-width: 0.5"/>
     </g>
     <g id="line2d_124">
      <g>
       <use xlink:href="#mbc9561bb19" x="95.28125" y="110.638774" style="stroke: #000000; stroke-width: 0.6"/>
      </g>
     </g>
    </g>
    <g id="ytick_23">
     <g id="line2d_125">
      <path d="M 95.28125 72.451531 
L 764.88125 72.451531 
" clip-path="url(#pe00c5aff93)" style="fill: none; stroke-dasharray: 1.85,0.8; stroke-dashoffset: 0; stroke: #b0b0b0; stroke-opacity: 0.8; stroke-width: 0.5"/>
     </g>
     <g id="line2d_126">
      <g>
       <use xlink:href="#mbc9561bb19" x="95.28125" y="72.451531" style="stroke: #000000; stroke-width: 0.6"/>
      </g>
     </g>
    </g>
    <g id="text_15">
     <!-- Light (W/m^2) -->
     <g transform="translate(49.221875 337.558125) rotate(-90) scale(0.2 -0.2)">
      <defs>
       <path id="AptosDisplay-4c" d="M 472 0 
L 472 4206 
L 1034 4206 
L 1034 484 
L 3000 484 
L 3000 0 
L 472 0 
z
" transform="scale(0.015625)"/>
       <path id="AptosDisplay-67" d="M 1397 -1178 
Q 925 -1178 640 -1065 
Q 356 -953 229 -765 
Q 103 -578 103 -359 
Q 103 -94 329 112 
Q 556 319 1031 403 
L 1128 575 
L 1475 575 
Q 2184 575 2489 376 
Q 2794 178 2794 -238 
Q 2794 -650 2437 -914 
Q 2081 -1178 1397 -1178 
z
M 1384 -800 
Q 1878 -800 2086 -650 
Q 2294 -500 2294 -278 
Q 2294 -147 2225 -51 
Q 2156 44 1975 97 
Q 1794 150 1456 150 
L 1034 150 
Q 819 97 708 -31 
Q 597 -159 597 -328 
Q 597 -516 778 -658 
Q 959 -800 1384 -800 
z
M 1025 216 
Q 722 228 550 312 
Q 378 397 306 511 
Q 234 625 234 722 
Q 234 866 362 1009 
Q 491 1153 772 1241 
L 1038 1069 
Q 866 1031 772 953 
Q 678 875 678 791 
Q 678 731 734 682 
Q 791 634 928 606 
Q 1066 578 1303 575 
L 1025 216 
z
M 1363 984 
Q 1003 984 753 1128 
Q 503 1272 375 1509 
Q 247 1747 247 2022 
Q 247 2313 376 2550 
Q 506 2788 754 2928 
Q 1003 3069 1366 3069 
Q 1738 3069 1983 2928 
Q 2228 2788 2351 2550 
Q 2475 2313 2475 2022 
Q 2475 1741 2350 1505 
Q 2225 1269 1979 1126 
Q 1734 984 1363 984 
z
M 1366 1341 
Q 1641 1341 1812 1512 
Q 1984 1684 1984 2022 
Q 1984 2375 1817 2545 
Q 1650 2716 1372 2716 
Q 1094 2716 919 2541 
Q 744 2366 744 2025 
Q 744 1681 931 1511 
Q 1119 1341 1366 1341 
z
M 2131 2734 
L 1922 2931 
Q 2038 3225 2252 3331 
Q 2466 3438 2794 3447 
L 2794 3006 
Q 2588 3006 2416 2961 
Q 2244 2916 2131 2734 
z
" transform="scale(0.015625)"/>
       <path id="AptosDisplay-68" d="M 413 0 
L 413 4206 
L 931 4206 
L 931 2575 
Q 1069 2756 1317 2914 
Q 1566 3072 1950 3072 
Q 2428 3072 2637 2783 
Q 2847 2494 2847 1963 
L 2847 0 
L 2328 0 
L 2328 1891 
Q 2328 2106 2287 2275 
Q 2247 2444 2139 2539 
Q 2031 2634 1822 2634 
Q 1503 2634 1284 2482 
Q 1066 2331 934 2156 
L 934 0 
L 413 0 
z
" transform="scale(0.015625)"/>
       <path id="AptosDisplay-74" d="M 1466 0 
Q 1100 0 901 117 
Q 703 234 629 454 
Q 556 675 556 984 
L 556 2622 
L 50 2622 
L 50 3044 
L 556 3044 
L 556 3741 
L 1078 3741 
L 1078 3044 
L 1831 3044 
L 1831 2622 
L 1078 2622 
L 1078 1009 
Q 1078 725 1151 575 
Q 1225 425 1500 425 
L 1831 425 
L 1831 0 
L 1466 0 
z
" transform="scale(0.015625)"/>
       <path id="AptosDisplay-57" d="M 1216 0 
L -13 4206 
L 575 4206 
L 1525 697 
L 2531 4206 
L 3156 4206 
L 4163 697 
L 5119 4206 
L 5681 4206 
L 4453 0 
L 3866 0 
L 2831 3556 
L 1813 0 
L 1216 0 
z
" transform="scale(0.015625)"/>
       <path id="AptosDisplay-2f" d="M 72 0 
L 1603 4206 
L 2100 4206 
L 569 0 
L 72 0 
z
" transform="scale(0.015625)"/>
       <path id="AptosDisplay-5e" d="M 428 2438 
L 1459 4206 
L 1884 4206 
L 2916 2438 
L 2366 2438 
L 1672 3650 
L 978 2438 
L 428 2438 
z
" transform="scale(0.015625)"/>
      </defs>
      <use xlink:href="#AptosDisplay-4c"/>
      <use xlink:href="#AptosDisplay-69" x="48.4375"/>
      <use xlink:href="#AptosDisplay-67" x="69.482422"/>
      <use xlink:href="#AptosDisplay-68" x="113.427734"/>
      <use xlink:href="#AptosDisplay-74" x="164.013672"/>
      <use xlink:href="#AptosDisplay-20" x="194.384766"/>
      <use xlink:href="#AptosDisplay-28" x="213.671875"/>
      <use xlink:href="#AptosDisplay-57" x="243.115234"/>
      <use xlink:href="#AptosDisplay-2f" x="331.689453"/>
      <use xlink:href="#AptosDisplay-6d" x="365.625"/>
      <use xlink:href="#AptosDisplay-5e" x="445.605469"/>
      <use xlink:href="#AptosDisplay-32" x="497.900391"/>
      <use xlink:href="#AptosDisplay-29" x="550.195312"/>
     </g>
    </g>
   </g>
   <g id="line2d_127">
    <path d="M 126.385074 268.227977 
L 127.049197 260.653537 
L 127.716658 255.603274 
L 128.384118 284.222703 
L 129.719039 301.899578 
L 130.3865 306.107812 
L 131.05396 311.158075 
L 131.72142 319.576452 
L 132.388881 317.050366 
L 133.056341 317.892395 
L 133.723802 317.050366 
L 134.391262 318.734424 
L 135.058723 316.208337 
L 135.726183 308.631989 
L 136.393644 308.631989 
L 137.061104 305.265783 
L 137.728565 308.631989 
L 139.063485 292.639171 
L 139.730946 287.588909 
L 140.401744 285.904851 
L 141.065867 283.380674 
L 141.736665 274.120268 
L 142.404125 270.754063 
L 143.071585 264.019743 
L 143.739046 258.96948 
L 144.406506 258.127451 
L 145.073967 253.919217 
L 145.741427 251.393131 
L 146.408888 247.184897 
L 147.076348 244.658811 
L 148.411269 233.716256 
L 149.07873 227.823965 
L 149.74619 219.407496 
L 150.41365 217.723439 
L 151.081111 210.989119 
L 151.748571 214.357234 
L 152.416032 196.680359 
L 153.750953 194.996302 
L 155.085874 179.845513 
L 155.753334 175.63537 
L 156.420795 173.951312 
L 157.088255 169.743078 
L 157.755716 163.850787 
L 158.423176 167.218901 
L 159.090636 152.908232 
L 159.758097 152.908232 
L 161.093018 143.649735 
L 161.760478 139.439592 
L 162.427939 136.915415 
L 163.095399 129.339066 
L 163.76286 129.339066 
L 164.43032 124.288803 
L 165.097781 123.446775 
L 165.765241 120.080569 
L 166.432701 117.554483 
L 167.100162 116.712455 
L 167.767622 118.396512 
L 168.435083 115.870426 
L 169.102543 115.030307 
L 170.437464 108.295986 
L 171.104925 89.777083 
L 171.772385 100.719637 
L 172.439846 104.927872 
L 173.107306 97.353432 
L 173.774766 92.303169 
L 174.442227 89.777083 
L 175.109687 88.935054 
L 175.777148 88.935054 
L 176.444608 87.250997 
L 177.112069 90.619112 
L 177.779529 82.200734 
L 178.44699 83.042763 
L 179.11445 81.358705 
L 179.781911 85.568849 
L 180.449371 85.568849 
L 181.784292 83.884792 
L 182.451752 87.250997 
L 183.119213 88.935054 
L 183.786673 96.511403 
L 184.454134 99.03558 
L 185.121594 99.03558 
L 185.789055 101.561666 
L 186.456515 106.611929 
L 187.123976 106.611929 
L 187.791436 114.188278 
L 188.458896 111.662192 
L 189.126357 115.870426 
L 189.793817 115.870426 
L 190.461278 115.030307 
L 191.128738 118.396512 
L 191.796199 125.972861 
L 192.463659 117.554483 
L 193.13112 117.554483 
L 193.79858 130.181095 
L 194.466041 115.870426 
L 195.133501 109.978134 
L 195.800961 107.453958 
L 196.468422 105.7699 
L 197.135882 103.245723 
L 197.803343 104.927872 
L 198.470803 105.7699 
L 199.138264 101.561666 
L 199.805724 105.7699 
L 200.473185 105.7699 
L 201.140645 109.138015 
L 201.808106 113.346249 
L 202.475566 113.346249 
L 203.810487 126.81489 
L 204.477947 126.81489 
L 205.145408 122.604746 
L 205.812868 132.707181 
L 206.480329 141.123649 
L 207.147789 141.965678 
L 207.81525 153.750261 
L 208.48271 157.958495 
L 209.150171 163.850787 
L 210.485091 181.527661 
L 211.152552 194.154273 
L 213.154933 210.989119 
L 213.822394 223.615731 
L 214.489854 216.88141 
L 215.157315 237.9264 
L 216.492236 252.235159 
L 217.159696 262.335685 
L 217.827156 269.070005 
L 218.494617 283.380674 
L 219.162077 280.01256 
L 219.829538 274.962297 
L 220.496998 292.639171 
L 221.831919 307.791869 
L 222.49938 309.474017 
L 223.16684 322.942658 
L 223.834301 327.992921 
L 224.501761 331.361035 
L 225.169222 333.885212 
L 225.836682 339.777504 
L 226.504142 349.03791 
L 227.171603 274.962297 
L 227.839063 360.822493 
L 228.506524 364.188698 
L 229.173984 368.396932 
L 229.841445 423.953642 
L 230.508905 359.138436 
L 231.176366 376.81531 
L 231.843826 376.81531 
L 232.511287 378.499367 
L 233.178747 375.973281 
L 233.846207 375.973281 
L 234.513668 373.447195 
L 235.181128 368.396932 
L 236.516049 355.770321 
L 237.18351 352.404115 
L 237.85097 343.145618 
L 238.518431 336.411298 
L 239.185891 327.150892 
L 239.853352 322.100629 
L 240.520812 313.684161 
L 242.523193 294.323229 
L 243.190654 290.114995 
L 243.858114 286.74688 
L 244.525575 268.227977 
L 245.193035 287.588909 
L 245.860496 290.955114 
L 246.527956 290.955114 
L 247.195417 295.165257 
L 247.862877 303.581726 
L 248.530337 301.057549 
L 249.197798 309.474017 
L 249.865258 313.684161 
L 251.200179 326.308863 
L 251.86764 332.201155 
L 252.5351 333.885212 
L 253.202561 344.827766 
L 253.870021 347.353852 
L 254.537482 351.562087 
L 255.204942 350.720058 
L 255.872402 360.822493 
L 256.539863 369.238961 
L 257.207323 367.554904 
L 257.874784 374.289224 
L 259.209705 381.023544 
L 259.877165 383.54963 
L 260.544626 387.757864 
L 261.212086 388.599893 
L 261.879547 392.808127 
L 262.547007 393.650156 
L 263.214467 398.700419 
L 263.881928 397.85839 
L 264.549388 402.066624 
L 265.216849 385.231778 
L 265.884309 398.700419 
L 266.55177 401.226505 
L 267.886691 404.59271 
L 268.554151 398.700419 
L 269.221612 406.276768 
L 269.889072 396.174333 
L 270.556532 400.384476 
L 271.223993 403.750682 
L 272.558914 402.066624 
L 273.226374 399.542447 
L 273.893835 400.384476 
L 274.561295 397.85839 
L 275.228756 394.492185 
L 275.896216 392.808127 
L 276.563677 387.757864 
L 277.231137 384.38975 
L 277.898597 385.231778 
L 278.566058 380.181515 
L 279.233518 373.447195 
L 279.900979 370.923019 
L 280.568439 370.08099 
L 281.2359 368.396932 
L 281.90336 363.34667 
L 282.570821 366.714784 
L 283.238281 383.54963 
L 283.905742 365.872756 
L 284.573202 367.554904 
L 285.240663 368.396932 
L 285.908123 365.872756 
L 286.575583 369.238961 
L 287.243044 377.657339 
L 287.910504 383.54963 
L 288.577965 385.231778 
L 289.245425 390.282041 
L 289.912886 375.973281 
L 290.580346 373.447195 
L 291.247807 389.441922 
L 291.915267 384.38975 
L 292.582728 389.441922 
L 293.250188 390.282041 
L 293.917648 384.38975 
L 294.585109 387.757864 
L 295.252569 384.38975 
L 295.92003 386.915836 
L 296.58749 381.865573 
L 297.254951 384.38975 
L 297.922411 378.499367 
L 298.589872 369.238961 
L 299.257332 375.973281 
L 299.924793 370.08099 
L 300.592253 370.08099 
L 301.259713 368.396932 
L 301.927174 363.34667 
L 302.594634 360.822493 
L 303.262095 356.612349 
L 303.929555 354.930201 
L 304.597016 356.612349 
L 305.264476 355.770321 
L 305.931937 351.562087 
L 306.599397 358.296407 
L 307.266858 356.612349 
L 307.934318 358.296407 
L 308.601778 360.822493 
L 309.269239 364.188698 
L 309.936699 363.34667 
L 310.60416 367.554904 
L 311.939081 370.923019 
L 312.606541 373.447195 
L 313.274002 374.289224 
L 313.941462 375.973281 
L 314.608923 376.81531 
L 315.276383 348.195881 
L 315.943843 481.1925 
L 316.611304 380.181515 
L 317.278764 371.765047 
L 317.946225 368.396932 
L 318.613685 366.714784 
L 319.281146 362.504641 
L 319.948606 365.872756 
L 320.616067 365.030727 
L 321.283527 362.504641 
L 321.950988 369.238961 
L 322.618448 366.714784 
L 323.285908 365.872756 
L 323.953369 361.662612 
L 325.28829 370.923019 
L 327.958132 384.38975 
L 328.625592 391.966099 
L 329.293053 390.282041 
L 329.960513 393.650156 
L 330.627973 395.334213 
L 331.295434 394.492185 
L 331.962894 397.85839 
L 333.297815 399.542447 
L 333.965276 397.016361 
L 334.632736 402.066624 
L 335.300197 400.384476 
L 335.967657 427.319848 
L 336.635118 398.700419 
L 337.302578 396.174333 
L 337.970038 386.915836 
L 338.637499 387.757864 
L 339.304959 393.650156 
L 339.97242 386.915836 
L 340.63988 388.599893 
L 341.307341 385.231778 
L 341.974801 384.38975 
L 342.642262 382.707602 
L 343.309722 384.38975 
L 343.977183 381.865573 
L 344.644643 378.499367 
L 345.312103 378.499367 
L 345.979564 379.339487 
L 346.647024 464.357654 
L 347.314485 388.599893 
L 347.981945 368.396932 
L 348.649406 368.396932 
L 349.316866 366.714784 
L 349.984327 348.195881 
L 350.651787 359.138436 
L 351.319248 354.088173 
L 351.986708 352.404115 
L 352.654169 349.878029 
L 353.321629 343.985738 
L 353.989089 341.461561 
L 354.65655 336.411298 
L 355.32401 333.885212 
L 357.326392 318.734424 
L 357.993852 317.892395 
L 358.661313 312.842132 
L 359.328773 310.316046 
L 359.996234 312.842132 
L 360.663694 324.626715 
L 361.331154 302.741606 
L 361.998615 293.4812 
L 362.666075 296.007286 
L 363.333536 294.323229 
L 364.000996 284.222703 
L 364.668457 302.741606 
L 365.335917 274.962297 
L 366.003378 281.696617 
L 366.670838 279.170531 
L 367.338299 279.170531 
L 368.673219 275.804326 
L 369.34068 278.330412 
L 370.00814 275.804326 
L 370.675601 276.646354 
L 371.343061 279.170531 
L 372.010522 280.01256 
L 372.677982 278.330412 
L 373.345443 285.062822 
L 374.012903 276.646354 
L 375.347824 287.588909 
L 376.015284 285.062822 
L 377.350205 290.114995 
L 378.017666 293.4812 
L 378.685126 293.4812 
L 379.352587 291.797143 
L 380.687508 296.849315 
L 381.354968 295.165257 
L 382.022429 290.955114 
L 382.689889 299.373492 
L 383.357349 292.639171 
L 384.02481 291.797143 
L 384.69227 285.062822 
L 385.359731 285.904851 
L 386.027191 284.222703 
L 387.362112 274.120268 
L 388.029573 271.596091 
L 388.697033 265.7038 
L 389.364494 263.177714 
L 390.031954 255.603274 
L 390.699414 252.235159 
L 391.366875 246.342868 
L 392.034335 244.658811 
L 392.701796 240.450576 
L 393.369256 251.393131 
L 394.036717 232.874228 
L 394.704177 228.665993 
L 395.371638 229.508022 
L 396.039098 225.299788 
L 396.706559 226.141817 
L 397.374019 225.299788 
L 398.041479 223.615731 
L 398.70894 225.299788 
L 399.3764 224.457759 
L 400.043861 226.141817 
L 400.711321 221.089644 
L 401.378782 219.407496 
L 402.713703 233.716256 
L 403.381163 224.457759 
L 404.716084 219.407496 
L 405.383544 221.089644 
L 406.051005 221.931673 
L 406.718465 218.565468 
L 407.385926 214.357234 
L 408.053386 213.515205 
L 408.720847 217.723439 
L 409.388307 212.673176 
L 410.055768 211.831148 
L 410.723228 207.622913 
L 411.390689 210.14709 
L 412.058149 207.622913 
L 412.72561 208.464942 
L 413.39307 207.622913 
L 414.06053 203.41277 
L 414.727991 195.83833 
L 415.395451 191.630096 
L 416.062912 194.154273 
L 416.730372 188.261981 
L 417.397833 197.522388 
L 418.065293 191.630096 
L 418.732754 176.477398 
L 419.400214 179.003485 
L 420.735135 177.319427 
L 421.402595 173.951312 
L 422.070056 175.63537 
L 422.737516 168.90105 
L 423.404977 164.692815 
L 424.072437 167.218901 
L 424.739898 166.376873 
L 425.407358 163.850787 
L 426.074819 163.008758 
L 426.742279 168.90105 
L 427.40974 166.376873 
L 428.74466 159.642553 
L 429.412121 159.642553 
L 430.079581 173.111193 
L 430.747042 157.116466 
L 431.414502 158.800524 
L 432.081963 156.276347 
L 432.749423 154.59229 
L 433.416884 155.434318 
L 434.084344 152.066204 
L 434.751805 153.750261 
L 435.419265 148.699998 
L 436.086725 79.676557 
L 436.754186 146.173912 
L 437.421646 147.015941 
L 438.089107 147.015941 
L 438.756567 142.807707 
L 439.424028 139.439592 
L 440.091488 139.439592 
L 440.758949 140.281621 
L 441.426409 133.5473 
L 442.09387 133.5473 
L 442.76133 147.015941 
L 443.42879 131.865152 
L 444.096251 127.655009 
L 444.763711 133.5473 
L 445.431172 134.389329 
L 446.098632 127.655009 
L 446.766093 125.972861 
L 447.433553 125.130832 
L 448.101014 125.130832 
L 448.768474 130.181095 
L 449.435935 131.023124 
L 450.103395 120.080569 
L 450.770855 133.5473 
L 451.438316 126.81489 
L 452.105776 130.181095 
L 453.440697 130.181095 
L 454.108158 136.073386 
L 454.775618 128.497038 
L 455.443079 131.865152 
L 456.113876 131.023124 
L 456.781337 144.491764 
L 457.448797 128.497038 
L 458.116258 107.453958 
L 458.783718 133.5473 
L 459.451179 133.5473 
L 460.118639 127.655009 
L 460.7861 129.339066 
L 461.45356 125.972861 
L 462.121021 118.396512 
L 462.788481 107.453958 
L 463.455941 126.81489 
L 464.123402 126.81489 
L 464.790862 127.655009 
L 465.458323 120.922598 
L 466.125783 123.446775 
L 466.793244 123.446775 
L 467.460704 120.922598 
L 468.128165 132.707181 
L 468.795625 120.080569 
L 469.463086 122.604746 
L 470.130546 123.446775 
L 470.798006 118.396512 
L 471.465467 118.396512 
L 472.800388 115.030307 
L 473.467848 119.238541 
L 474.135309 117.554483 
L 474.802769 112.50422 
L 475.47023 120.922598 
L 476.13769 117.554483 
L 476.805151 115.030307 
L 477.472611 120.080569 
L 478.140071 89.777083 
L 478.807532 130.181095 
L 479.474992 121.762717 
L 480.142453 125.130832 
L 480.809913 120.080569 
L 481.477374 140.281621 
L 482.144834 127.655009 
L 482.812295 128.497038 
L 483.479755 127.655009 
L 484.147216 77.9925 
L 484.814676 129.339066 
L 485.482136 131.865152 
L 486.149597 100.719637 
L 486.817057 139.439592 
L 487.484518 136.915415 
L 488.151978 137.757444 
L 488.819439 141.123649 
L 490.15436 142.807707 
L 490.82182 145.331883 
L 491.489281 145.331883 
L 492.156741 146.173912 
L 492.824201 146.173912 
L 493.491662 139.439592 
L 494.159122 146.173912 
L 494.826583 155.434318 
L 495.494043 142.807707 
L 496.161504 143.649735 
L 496.828964 140.281621 
L 497.496425 137.757444 
L 498.163885 132.707181 
L 498.831346 134.389329 
L 499.498806 130.181095 
L 500.833727 125.130832 
L 501.501187 124.288803 
L 502.168648 120.080569 
L 502.836108 123.446775 
L 503.503569 115.870426 
L 504.171029 116.712455 
L 504.83849 112.50422 
L 505.50595 109.978134 
L 506.173411 100.719637 
L 506.840871 107.453958 
L 507.508331 110.820163 
L 508.175792 109.978134 
L 508.843252 122.604746 
L 509.510713 106.611929 
L 510.178173 110.820163 
L 510.845634 109.138015 
L 512.180555 109.138015 
L 512.848015 107.453958 
L 513.515476 112.50422 
L 514.182936 111.662192 
L 514.850397 118.396512 
L 516.185317 121.762717 
L 516.852778 124.288803 
L 517.520238 130.181095 
L 518.187699 126.81489 
L 518.855159 135.231358 
L 519.52262 141.965678 
L 520.19008 145.331883 
L 520.857541 151.224175 
L 521.525001 155.434318 
L 522.192462 157.958495 
L 522.859922 163.850787 
L 523.527382 159.642553 
L 524.194843 169.743078 
L 525.529764 184.053747 
L 526.197224 180.685633 
L 526.864685 187.419953 
L 529.534527 202.572651 
L 530.201987 204.254799 
L 530.869447 208.464942 
L 531.536908 205.938856 
L 532.204368 222.773702 
L 532.871829 221.089644 
L 533.539289 216.88141 
L 534.20675 226.141817 
L 534.87421 231.192079 
L 535.541671 234.558285 
L 536.209131 228.665993 
L 536.876592 240.450576 
L 537.544052 239.608548 
L 538.211512 241.292605 
L 538.878973 246.342868 
L 539.546433 247.184897 
L 540.213894 247.184897 
L 540.881354 241.292605 
L 541.548815 246.342868 
L 542.216275 248.026925 
L 542.883736 254.761246 
L 543.551196 250.551102 
L 544.218657 245.500839 
L 544.886117 255.603274 
L 545.553577 260.653537 
L 546.221038 261.495566 
L 546.888498 263.177714 
L 548.223419 269.912034 
L 548.89088 269.070005 
L 549.55834 275.804326 
L 550.225801 278.330412 
L 550.893261 278.330412 
L 551.560722 280.854588 
L 552.228182 284.222703 
L 552.895642 283.380674 
L 553.563103 285.062822 
L 554.230563 285.904851 
L 554.898024 287.588909 
L 555.565484 290.955114 
L 556.232945 283.380674 
L 556.900405 291.797143 
L 557.567866 292.639171 
L 558.235326 291.797143 
L 558.902787 291.797143 
L 560.237707 293.4812 
L 560.905168 306.949841 
L 561.572628 292.639171 
L 562.240089 287.588909 
L 562.907549 293.4812 
L 563.57501 292.639171 
L 564.24247 289.272966 
L 564.909931 296.007286 
L 565.577391 294.323229 
L 566.244852 286.74688 
L 566.912312 288.430937 
L 567.579772 287.588909 
L 568.247233 290.955114 
L 568.914693 287.588909 
L 569.582154 290.114995 
L 570.249614 288.430937 
L 570.917075 290.114995 
L 571.584535 285.904851 
L 572.251996 287.588909 
L 572.919456 283.380674 
L 573.586917 283.380674 
L 574.254377 286.74688 
L 574.921837 285.904851 
L 575.589298 287.588909 
L 576.256758 284.222703 
L 576.924219 288.430937 
L 577.591679 291.797143 
L 578.25914 296.007286 
L 578.9266 282.538646 
L 579.594061 292.639171 
L 580.261521 287.588909 
L 580.928982 289.272966 
L 581.596442 296.007286 
L 582.263903 278.330412 
L 582.931363 291.797143 
L 583.598823 288.430937 
L 584.266284 286.74688 
L 584.933744 282.538646 
L 585.601205 279.170531 
L 586.936126 277.488383 
L 587.603586 274.120268 
L 588.271047 271.596091 
L 588.938507 273.280149 
L 590.273428 274.962297 
L 590.940888 274.962297 
L 594.278191 279.170531 
L 594.945651 278.330412 
L 595.613112 282.538646 
L 596.280572 283.380674 
L 596.948033 283.380674 
L 597.615493 284.222703 
L 598.282953 282.538646 
L 598.950414 277.488383 
L 599.617874 277.488383 
L 600.285335 273.280149 
L 600.952795 264.019743 
L 601.620256 259.811508 
L 602.287716 263.177714 
L 602.955177 256.443394 
L 603.622637 254.761246 
L 604.290098 244.658811 
L 604.957558 243.818691 
L 605.625018 245.500839 
L 606.959939 232.874228 
L 607.6274 252.235159 
L 608.29486 226.141817 
L 608.962321 218.565468 
L 609.629781 221.931673 
L 610.297242 218.565468 
L 610.964702 214.357234 
L 611.632163 215.197353 
L 612.299623 210.989119 
L 612.967083 221.931673 
L 613.634544 204.254799 
L 614.302004 200.046564 
L 614.969465 201.730622 
L 615.636925 209.305061 
L 616.304386 196.680359 
L 616.971846 194.154273 
L 617.639307 195.83833 
L 618.306767 195.83833 
L 618.974228 193.312244 
L 619.641688 193.312244 
L 620.976609 184.053747 
L 621.644069 184.895776 
L 622.31153 180.685633 
L 622.97899 175.63537 
L 623.646451 172.269164 
L 624.313911 166.376873 
L 624.981372 164.692815 
L 625.648832 163.850787 
L 627.651213 147.85797 
L 628.318674 148.699998 
L 628.986134 147.85797 
L 629.653595 140.281621 
L 630.321055 144.491764 
L 630.988516 145.331883 
L 631.655976 154.59229 
L 632.990897 152.908232 
L 633.658358 159.642553 
L 634.325818 160.484581 
L 635.660739 172.269164 
L 636.328199 143.649735 
L 636.99566 186.577924 
L 637.66312 177.319427 
L 638.330581 189.946039 
L 639.665502 173.951312 
L 640.332962 180.685633 
L 641.000423 184.895776 
L 641.667883 188.261981 
L 642.335344 185.737805 
L 643.002804 181.527661 
L 643.670264 180.685633 
L 644.337725 185.737805 
L 645.005185 183.211719 
L 645.672646 186.577924 
L 646.340106 179.845513 
L 647.007567 187.419953 
L 647.675027 185.737805 
L 648.342488 186.577924 
L 649.009948 213.515205 
L 649.677409 194.154273 
L 650.344869 189.10401 
L 651.012329 168.90105 
L 651.67979 194.996302 
L 652.34725 188.261981 
L 653.014711 185.737805 
L 653.682171 189.10401 
L 654.349632 188.261981 
L 655.017092 189.946039 
L 655.684553 189.10401 
L 656.352013 181.527661 
L 657.019474 191.630096 
L 657.686934 190.788068 
L 658.354394 194.996302 
L 659.021855 197.522388 
L 659.689315 197.522388 
L 660.356776 195.83833 
L 661.024236 197.522388 
L 661.691697 200.046564 
L 662.359157 199.204536 
L 663.026618 209.305061 
L 663.694078 204.254799 
L 664.361539 212.673176 
L 665.028999 205.096827 
L 665.696459 207.622913 
L 666.36392 214.357234 
L 667.03138 215.197353 
L 667.698841 220.249525 
L 668.366301 232.034108 
L 669.033762 221.931673 
L 669.701222 222.773702 
L 670.368683 225.299788 
L 671.036143 223.615731 
L 671.703604 227.823965 
L 672.371064 226.981936 
L 673.038524 245.500839 
L 674.373445 219.407496 
L 675.040906 237.084371 
L 675.708366 236.242342 
L 676.375827 236.242342 
L 677.043287 239.608548 
L 677.710748 257.285422 
L 678.378208 245.500839 
L 679.045669 247.184897 
L 679.713129 242.134634 
L 680.380589 255.603274 
L 681.04805 245.500839 
L 681.71551 248.026925 
L 682.382971 255.603274 
L 683.050431 250.551102 
L 683.717892 247.184897 
L 684.385352 251.393131 
L 685.052813 248.026925 
L 685.720273 247.184897 
L 686.387734 249.710983 
L 687.055194 248.868954 
L 687.722654 273.280149 
L 688.390115 253.919217 
L 689.057575 249.710983 
L 689.725036 253.077188 
L 690.392496 248.868954 
L 691.059957 251.393131 
L 691.727417 250.551102 
L 692.394878 255.603274 
L 693.062338 252.235159 
L 693.729799 249.710983 
L 694.397259 254.761246 
L 695.064719 253.919217 
L 695.73218 254.761246 
L 696.39964 254.761246 
L 697.734561 256.443394 
L 698.402022 253.919217 
L 699.069482 252.235159 
L 699.736943 252.235159 
L 700.404403 245.500839 
L 701.071864 245.500839 
L 701.739324 243.818691 
L 702.406784 245.500839 
L 703.741705 245.500839 
L 704.409166 248.026925 
L 705.076626 244.658811 
L 705.744087 244.658811 
L 707.079008 246.342868 
L 707.746468 248.026925 
L 708.413929 247.184897 
L 709.74885 248.868954 
L 710.41631 248.868954 
L 711.08377 252.235159 
L 712.418691 253.919217 
L 713.086152 255.603274 
L 713.753612 258.127451 
L 714.421073 262.335685 
L 715.088533 260.653537 
L 715.755994 263.177714 
L 716.423454 275.804326 
L 717.090915 253.077188 
L 717.758375 266.545829 
L 718.425835 264.019743 
L 719.093296 266.545829 
L 719.760756 267.387857 
L 720.428217 266.545829 
L 721.095677 264.861771 
L 721.763138 262.335685 
L 723.098059 262.335685 
L 723.765519 264.019743 
L 724.43298 261.495566 
L 725.10044 261.495566 
L 725.7679 264.861771 
L 726.435361 260.653537 
L 727.102821 263.177714 
L 727.770282 264.019743 
L 728.437742 262.335685 
L 730.443461 263.177714 
L 731.107584 262.335685 
L 731.775045 253.077188 
L 732.442505 245.500839 
L 733.109965 241.292605 
L 733.777426 237.9264 
L 734.444886 247.184897 
L 730.443461 263.177714 
L 731.107584 262.335685 
L 731.775045 253.077188 
L 732.442505 245.500839 
L 733.109965 241.292605 
L 733.777426 237.9264 
L 734.444886 247.184897 
L 125.717614 231.192079 
L 126.381737 228.665993 
L 127.049197 243.818691 
L 127.716658 230.350051 
L 128.384118 221.089644 
L 128.384118 221.089644 
" clip-path="url(#pe00c5aff93)" style="fill: none; stroke: #ac2b37; stroke-width: 1.5; stroke-linecap: square"/>
   </g>
   <g id="patch_3">
    <path d="M 95.28125 501.3525 
L 95.28125 57.8325 
" style="fill: none; stroke: #000000; stroke-width: 0.8; stroke-linejoin: miter; stroke-linecap: square"/>
   </g>
   <g id="patch_4">
    <path d="M 764.88125 501.3525 
L 764.88125 57.8325 
" style="fill: none; stroke: #000000; stroke-width: 0.8; stroke-linejoin: miter; stroke-linecap: square"/>
   </g>
   <g id="patch_5">
    <path d="M 95.28125 501.3525 
L 764.88125 501.3525 
" style="fill: none; stroke: #000000; stroke-width: 0.8; stroke-linejoin: miter; stroke-linecap: square"/>
   </g>
   <g id="patch_6">
    <path d="M 95.28125 57.8325 
L 764.88125 57.8325 
" style="fill: none; stroke: #000000; stroke-width: 0.8; stroke-linejoin: miter; stroke-linecap: square"/>
   </g>
   <g id="text_16">
    <!-- Light vs Time -->
    <g transform="translate(367.59875 51.8325) scale(0.24 -0.24)">
     <defs>
      <path id="AptosDisplay-76" d="M 1103 0 
L -13 3044 
L 538 3044 
L 1391 513 
L 2250 3044 
L 2781 3044 
L 1678 0 
L 1103 0 
z
" transform="scale(0.015625)"/>
      <path id="AptosDisplay-73" d="M 1506 -41 
Q 1247 -41 1017 14 
Q 788 69 613 191 
Q 438 313 339 506 
Q 241 700 241 978 
L 744 978 
Q 744 628 966 487 
Q 1188 347 1519 347 
Q 1816 347 2008 458 
Q 2200 569 2200 822 
Q 2200 1047 2026 1153 
Q 1853 1259 1413 1369 
Q 1056 1453 815 1564 
Q 575 1675 453 1845 
Q 331 2016 331 2275 
Q 331 2475 417 2626 
Q 503 2778 658 2879 
Q 813 2981 1020 3032 
Q 1228 3084 1472 3084 
Q 1713 3084 1923 3028 
Q 2134 2972 2296 2855 
Q 2459 2738 2551 2552 
Q 2644 2366 2644 2109 
L 2138 2109 
Q 2138 2425 1945 2558 
Q 1753 2691 1472 2691 
Q 1191 2691 1016 2594 
Q 841 2497 841 2291 
Q 841 2169 919 2084 
Q 997 2000 1181 1933 
Q 1366 1866 1675 1791 
Q 2019 1709 2248 1596 
Q 2478 1484 2595 1306 
Q 2713 1128 2713 847 
Q 2713 616 2622 447 
Q 2531 278 2367 170 
Q 2203 63 1983 11 
Q 1763 -41 1506 -41 
z
" transform="scale(0.015625)"/>
     </defs>
     <use xlink:href="#AptosDisplay-4c"/>
     <use xlink:href="#AptosDisplay-69" x="48.4375"/>
     <use xlink:href="#AptosDisplay-67" x="69.482422"/>
     <use xlink:href="#AptosDisplay-68" x="113.427734"/>
     <use xlink:href="#AptosDisplay-74" x="164.013672"/>
     <use xlink:href="#AptosDisplay-20" x="194.384766"/>
     <use xlink:href="#AptosDisplay-76" x="213.671875"/>
     <use xlink:href="#AptosDisplay-73" x="256.933594"/>
     <use xlink:href="#AptosDisplay-20" x="303.222656"/>
     <use xlink:href="#AptosDisplay-54" x="322.509766"/>
     <use xlink:href="#AptosDisplay-69" x="370.214844"/>
     <use xlink:href="#AptosDisplay-6d" x="391.259766"/>
     <use xlink:href="#AptosDisplay-65" x="471.240234"/>
    </g>
   </g>
  </g>
 </g>
 <defs>
  <clipPath id="pe00c5aff93">
   <rect x="95.28125" y="57.8325" width="669.6" height="443.52"/>
  </clipPath>
 </defs>
</svg>
