<?xml version="1.0" encoding="utf-8" standalone="no"?>
<!DOCTYPE svg PUBLIC "-//W3C//DTD SVG 1.1//EN"
  "http://www.w3.org/Graphics/SVG/1.1/DTD/svg11.dtd">
<svg xmlns:xlink="http://www.w3.org/1999/xlink" width="790.265625pt" height="581.830625pt" viewBox="0 0 790.265625 581.830625" xmlns="http://www.w3.org/2000/svg" version="1.1">
 <metadata>
  <rdf:RDF xmlns:dc="http://purl.org/dc/elements/1.1/" xmlns:cc="http://creativecommons.org/ns#" xmlns:rdf="http://www.w3.org/1999/02/22-rdf-syntax-ns#">
   <cc:Work>
    <dc:type rdf:resource="http://purl.org/dc/dcmitype/StillImage"/>
    <dc:date>2025-04-03T01:48:23.603201</dc:date>
    <dc:format>image/svg+xml</dc:format>
    <dc:creator>
     <cc:Agent>
      <dc:title>Matplotlib v3.8.2, https://matplotlib.org/</dc:title>
     </cc:Agent>
    </dc:creator>
   </cc:Work>
  </rdf:RDF>
 </metadata>
 <defs>
  <style type="text/css">*{stroke-linejoin: round; stroke-linecap: butt}</style>
 </defs>
 <g id="figure_1">
  <g id="patch_1">
   <path d="M 0 581.830625 
L 790.265625 581.830625 
L 790.265625 0 
L 0 0 
z
" style="fill: #ffffff"/>
  </g>
  <g id="axes_1">
   <g id="patch_2">
    <path d="M 84.665625 501.3525 
L 754.265625 501.3525 
L 754.265625 57.8325 
L 84.665625 57.8325 
z
" style="fill: #ffffff"/>
   </g>
   <g id="matplotlib.axis_1">
    <g id="xtick_1">
     <g id="line2d_1">
      <path d="M 115.071953 501.3525 
L 115.071953 57.8325 
" clip-path="url(#p9036a28c74)" style="fill: none; stroke: #b0b0b0; stroke-opacity: 0.8; stroke-linecap: square"/>
     </g>
     <g id="line2d_2">
      <defs>
       <path id="m0e74292a14" d="M 0 0 
L 0 3.5 
" style="stroke: #000000; stroke-width: 0.8"/>
      </defs>
      <g>
       <use xlink:href="#m0e74292a14" x="115.071953" y="501.3525" style="stroke: #000000; stroke-width: 0.8"/>
      </g>
     </g>
     <g id="text_1">
      <!-- 0 -->
      <g transform="translate(109.842265 521.49625) scale(0.2 -0.2)">
       <defs>
        <path id="AptosDisplay-30" d="M 1672 -56 
Q 1291 -56 1028 105 
Q 766 266 605 552 
Q 444 838 372 1216 
Q 300 1594 300 2031 
Q 300 2475 372 2856 
Q 444 3238 605 3525 
Q 766 3813 1028 3973 
Q 1291 4134 1672 4134 
Q 2053 4134 2317 3975 
Q 2581 3816 2742 3527 
Q 2903 3238 2975 2858 
Q 3047 2478 3047 2038 
Q 3047 1597 2975 1217 
Q 2903 838 2742 552 
Q 2581 266 2318 105 
Q 2056 -56 1672 -56 
z
M 1672 409 
Q 1916 409 2073 550 
Q 2231 691 2322 925 
Q 2413 1159 2448 1448 
Q 2484 1738 2484 2038 
Q 2484 2338 2448 2628 
Q 2413 2919 2322 3153 
Q 2231 3388 2073 3527 
Q 1916 3666 1669 3666 
Q 1428 3666 1268 3527 
Q 1109 3388 1020 3153 
Q 931 2919 893 2628 
Q 856 2338 856 2038 
Q 856 1741 893 1450 
Q 931 1159 1020 925 
Q 1109 691 1268 550 
Q 1428 409 1672 409 
z
" transform="scale(0.015625)"/>
       </defs>
       <use xlink:href="#AptosDisplay-30"/>
      </g>
     </g>
    </g>
    <g id="xtick_2">
     <g id="line2d_3">
      <path d="M 198.50451 501.3525 
L 198.50451 57.8325 
" clip-path="url(#p9036a28c74)" style="fill: none; stroke: #b0b0b0; stroke-opacity: 0.8; stroke-linecap: square"/>
     </g>
     <g id="line2d_4">
      <g>
       <use xlink:href="#m0e74292a14" x="198.50451" y="501.3525" style="stroke: #000000; stroke-width: 0.8"/>
      </g>
     </g>
     <g id="text_2">
      <!-- 25 -->
      <g transform="translate(188.045135 521.49625) scale(0.2 -0.2)">
       <defs>
        <path id="AptosDisplay-32" d="M 247 0 
L 247 413 
L 1725 1741 
Q 2100 2081 2269 2351 
Q 2438 2622 2438 2938 
Q 2438 3256 2263 3461 
Q 2088 3666 1691 3666 
Q 1247 3666 1055 3439 
Q 863 3213 863 2869 
L 341 2869 
Q 341 3250 491 3534 
Q 641 3819 941 3975 
Q 1241 4131 1691 4131 
Q 2103 4131 2390 3986 
Q 2678 3841 2828 3578 
Q 2978 3316 2978 2959 
Q 2978 2638 2853 2375 
Q 2728 2113 2517 1883 
Q 2306 1653 2044 1425 
L 959 463 
L 3097 463 
L 3097 0 
L 247 0 
z
" transform="scale(0.015625)"/>
        <path id="AptosDisplay-35" d="M 1669 -56 
Q 1278 -56 964 83 
Q 650 222 465 483 
Q 281 744 281 1113 
L 816 1113 
Q 816 778 1055 584 
Q 1294 391 1669 391 
Q 2069 391 2291 625 
Q 2513 859 2513 1319 
Q 2513 1772 2291 1989 
Q 2069 2206 1697 2206 
Q 1409 2206 1223 2123 
Q 1038 2041 916 1894 
L 444 1894 
L 622 4078 
L 2788 4078 
L 2788 3613 
L 1041 3613 
L 931 2322 
Q 1044 2453 1251 2550 
Q 1459 2647 1775 2647 
Q 2131 2647 2420 2506 
Q 2709 2366 2881 2072 
Q 3053 1778 3053 1319 
Q 3053 863 2875 558 
Q 2697 253 2384 98 
Q 2072 -56 1669 -56 
z
" transform="scale(0.015625)"/>
       </defs>
       <use xlink:href="#AptosDisplay-32"/>
       <use xlink:href="#AptosDisplay-35" x="52.294922"/>
      </g>
     </g>
    </g>
    <g id="xtick_3">
     <g id="line2d_5">
      <path d="M 281.937067 501.3525 
L 281.937067 57.8325 
" clip-path="url(#p9036a28c74)" style="fill: none; stroke: #b0b0b0; stroke-opacity: 0.8; stroke-linecap: square"/>
     </g>
     <g id="line2d_6">
      <g>
       <use xlink:href="#m0e74292a14" x="281.937067" y="501.3525" style="stroke: #000000; stroke-width: 0.8"/>
      </g>
     </g>
     <g id="text_3">
      <!-- 50 -->
      <g transform="translate(271.477692 521.49625) scale(0.2 -0.2)">
       <use xlink:href="#AptosDisplay-35"/>
       <use xlink:href="#AptosDisplay-30" x="52.294922"/>
      </g>
     </g>
    </g>
    <g id="xtick_4">
     <g id="line2d_7">
      <path d="M 365.369624 501.3525 
L 365.369624 57.8325 
" clip-path="url(#p9036a28c74)" style="fill: none; stroke: #b0b0b0; stroke-opacity: 0.8; stroke-linecap: square"/>
     </g>
     <g id="line2d_8">
      <g>
       <use xlink:href="#m0e74292a14" x="365.369624" y="501.3525" style="stroke: #000000; stroke-width: 0.8"/>
      </g>
     </g>
     <g id="text_4">
      <!-- 75 -->
      <g transform="translate(354.910249 521.49625) scale(0.2 -0.2)">
       <defs>
        <path id="AptosDisplay-37" d="M 766 0 
L 2609 3600 
L 194 3600 
L 194 4078 
L 3141 4078 
L 3141 3622 
L 1334 0 
L 766 0 
z
" transform="scale(0.015625)"/>
       </defs>
       <use xlink:href="#AptosDisplay-37"/>
       <use xlink:href="#AptosDisplay-35" x="52.294922"/>
      </g>
     </g>
    </g>
    <g id="xtick_5">
     <g id="line2d_9">
      <path d="M 448.802181 501.3525 
L 448.802181 57.8325 
" clip-path="url(#p9036a28c74)" style="fill: none; stroke: #b0b0b0; stroke-opacity: 0.8; stroke-linecap: square"/>
     </g>
     <g id="line2d_10">
      <g>
       <use xlink:href="#m0e74292a14" x="448.802181" y="501.3525" style="stroke: #000000; stroke-width: 0.8"/>
      </g>
     </g>
     <g id="text_5">
      <!-- 100 -->
      <g transform="translate(433.113118 521.49625) scale(0.2 -0.2)">
       <defs>
        <path id="AptosDisplay-31" d="M 1659 0 
L 1659 3425 
Q 1575 3309 1420 3201 
Q 1266 3094 1052 3009 
Q 838 2925 578 2888 
L 578 3381 
Q 834 3425 1057 3540 
Q 1281 3656 1453 3806 
Q 1625 3956 1719 4094 
L 2206 4094 
L 2206 0 
L 1659 0 
z
" transform="scale(0.015625)"/>
       </defs>
       <use xlink:href="#AptosDisplay-31"/>
       <use xlink:href="#AptosDisplay-30" x="52.294922"/>
       <use xlink:href="#AptosDisplay-30" x="104.589844"/>
      </g>
     </g>
    </g>
    <g id="xtick_6">
     <g id="line2d_11">
      <path d="M 532.234738 501.3525 
L 532.234738 57.8325 
" clip-path="url(#p9036a28c74)" style="fill: none; stroke: #b0b0b0; stroke-opacity: 0.8; stroke-linecap: square"/>
     </g>
     <g id="line2d_12">
      <g>
       <use xlink:href="#m0e74292a14" x="532.234738" y="501.3525" style="stroke: #000000; stroke-width: 0.8"/>
      </g>
     </g>
     <g id="text_6">
      <!-- 125 -->
      <g transform="translate(516.545675 521.49625) scale(0.2 -0.2)">
       <use xlink:href="#AptosDisplay-31"/>
       <use xlink:href="#AptosDisplay-32" x="52.294922"/>
       <use xlink:href="#AptosDisplay-35" x="104.589844"/>
      </g>
     </g>
    </g>
    <g id="xtick_7">
     <g id="line2d_13">
      <path d="M 615.667295 501.3525 
L 615.667295 57.8325 
" clip-path="url(#p9036a28c74)" style="fill: none; stroke: #b0b0b0; stroke-opacity: 0.8; stroke-linecap: square"/>
     </g>
     <g id="line2d_14">
      <g>
       <use xlink:href="#m0e74292a14" x="615.667295" y="501.3525" style="stroke: #000000; stroke-width: 0.8"/>
      </g>
     </g>
     <g id="text_7">
      <!-- 150 -->
      <g transform="translate(599.978232 521.49625) scale(0.2 -0.2)">
       <use xlink:href="#AptosDisplay-31"/>
       <use xlink:href="#AptosDisplay-35" x="52.294922"/>
       <use xlink:href="#AptosDisplay-30" x="104.589844"/>
      </g>
     </g>
    </g>
    <g id="xtick_8">
     <g id="line2d_15">
      <path d="M 699.099851 501.3525 
L 699.099851 57.8325 
" clip-path="url(#p9036a28c74)" style="fill: none; stroke: #b0b0b0; stroke-opacity: 0.8; stroke-linecap: square"/>
     </g>
     <g id="line2d_16">
      <g>
       <use xlink:href="#m0e74292a14" x="699.099851" y="501.3525" style="stroke: #000000; stroke-width: 0.8"/>
      </g>
     </g>
     <g id="text_8">
      <!-- 175 -->
      <g transform="translate(683.410789 521.49625) scale(0.2 -0.2)">
       <use xlink:href="#AptosDisplay-31"/>
       <use xlink:href="#AptosDisplay-37" x="52.294922"/>
       <use xlink:href="#AptosDisplay-35" x="104.589844"/>
      </g>
     </g>
    </g>
    <g id="xtick_9">
     <g id="line2d_17">
      <path d="M 98.385442 501.3525 
L 98.385442 57.8325 
" clip-path="url(#p9036a28c74)" style="fill: none; stroke-dasharray: 1.85,0.8; stroke-dashoffset: 0; stroke: #b0b0b0; stroke-opacity: 0.8; stroke-width: 0.5"/>
     </g>
     <g id="line2d_18">
      <defs>
       <path id="mab29de0670" d="M 0 0 
L 0 2 
" style="stroke: #000000; stroke-width: 0.6"/>
      </defs>
      <g>
       <use xlink:href="#mab29de0670" x="98.385442" y="501.3525" style="stroke: #000000; stroke-width: 0.6"/>
      </g>
     </g>
    </g>
    <g id="xtick_10">
     <g id="line2d_19">
      <path d="M 131.758464 501.3525 
L 131.758464 57.8325 
" clip-path="url(#p9036a28c74)" style="fill: none; stroke-dasharray: 1.85,0.8; stroke-dashoffset: 0; stroke: #b0b0b0; stroke-opacity: 0.8; stroke-width: 0.5"/>
     </g>
     <g id="line2d_20">
      <g>
       <use xlink:href="#mab29de0670" x="131.758464" y="501.3525" style="stroke: #000000; stroke-width: 0.6"/>
      </g>
     </g>
    </g>
    <g id="xtick_11">
     <g id="line2d_21">
      <path d="M 148.444976 501.3525 
L 148.444976 57.8325 
" clip-path="url(#p9036a28c74)" style="fill: none; stroke-dasharray: 1.85,0.8; stroke-dashoffset: 0; stroke: #b0b0b0; stroke-opacity: 0.8; stroke-width: 0.5"/>
     </g>
     <g id="line2d_22">
      <g>
       <use xlink:href="#mab29de0670" x="148.444976" y="501.3525" style="stroke: #000000; stroke-width: 0.6"/>
      </g>
     </g>
    </g>
    <g id="xtick_12">
     <g id="line2d_23">
      <path d="M 165.131487 501.3525 
L 165.131487 57.8325 
" clip-path="url(#p9036a28c74)" style="fill: none; stroke-dasharray: 1.85,0.8; stroke-dashoffset: 0; stroke: #b0b0b0; stroke-opacity: 0.8; stroke-width: 0.5"/>
     </g>
     <g id="line2d_24">
      <g>
       <use xlink:href="#mab29de0670" x="165.131487" y="501.3525" style="stroke: #000000; stroke-width: 0.6"/>
      </g>
     </g>
    </g>
    <g id="xtick_13">
     <g id="line2d_25">
      <path d="M 181.817998 501.3525 
L 181.817998 57.8325 
" clip-path="url(#p9036a28c74)" style="fill: none; stroke-dasharray: 1.85,0.8; stroke-dashoffset: 0; stroke: #b0b0b0; stroke-opacity: 0.8; stroke-width: 0.5"/>
     </g>
     <g id="line2d_26">
      <g>
       <use xlink:href="#mab29de0670" x="181.817998" y="501.3525" style="stroke: #000000; stroke-width: 0.6"/>
      </g>
     </g>
    </g>
    <g id="xtick_14">
     <g id="line2d_27">
      <path d="M 215.191021 501.3525 
L 215.191021 57.8325 
" clip-path="url(#p9036a28c74)" style="fill: none; stroke-dasharray: 1.85,0.8; stroke-dashoffset: 0; stroke: #b0b0b0; stroke-opacity: 0.8; stroke-width: 0.5"/>
     </g>
     <g id="line2d_28">
      <g>
       <use xlink:href="#mab29de0670" x="215.191021" y="501.3525" style="stroke: #000000; stroke-width: 0.6"/>
      </g>
     </g>
    </g>
    <g id="xtick_15">
     <g id="line2d_29">
      <path d="M 231.877533 501.3525 
L 231.877533 57.8325 
" clip-path="url(#p9036a28c74)" style="fill: none; stroke-dasharray: 1.85,0.8; stroke-dashoffset: 0; stroke: #b0b0b0; stroke-opacity: 0.8; stroke-width: 0.5"/>
     </g>
     <g id="line2d_30">
      <g>
       <use xlink:href="#mab29de0670" x="231.877533" y="501.3525" style="stroke: #000000; stroke-width: 0.6"/>
      </g>
     </g>
    </g>
    <g id="xtick_16">
     <g id="line2d_31">
      <path d="M 248.564044 501.3525 
L 248.564044 57.8325 
" clip-path="url(#p9036a28c74)" style="fill: none; stroke-dasharray: 1.85,0.8; stroke-dashoffset: 0; stroke: #b0b0b0; stroke-opacity: 0.8; stroke-width: 0.5"/>
     </g>
     <g id="line2d_32">
      <g>
       <use xlink:href="#mab29de0670" x="248.564044" y="501.3525" style="stroke: #000000; stroke-width: 0.6"/>
      </g>
     </g>
    </g>
    <g id="xtick_17">
     <g id="line2d_33">
      <path d="M 265.250555 501.3525 
L 265.250555 57.8325 
" clip-path="url(#p9036a28c74)" style="fill: none; stroke-dasharray: 1.85,0.8; stroke-dashoffset: 0; stroke: #b0b0b0; stroke-opacity: 0.8; stroke-width: 0.5"/>
     </g>
     <g id="line2d_34">
      <g>
       <use xlink:href="#mab29de0670" x="265.250555" y="501.3525" style="stroke: #000000; stroke-width: 0.6"/>
      </g>
     </g>
    </g>
    <g id="xtick_18">
     <g id="line2d_35">
      <path d="M 298.623578 501.3525 
L 298.623578 57.8325 
" clip-path="url(#p9036a28c74)" style="fill: none; stroke-dasharray: 1.85,0.8; stroke-dashoffset: 0; stroke: #b0b0b0; stroke-opacity: 0.8; stroke-width: 0.5"/>
     </g>
     <g id="line2d_36">
      <g>
       <use xlink:href="#mab29de0670" x="298.623578" y="501.3525" style="stroke: #000000; stroke-width: 0.6"/>
      </g>
     </g>
    </g>
    <g id="xtick_19">
     <g id="line2d_37">
      <path d="M 315.31009 501.3525 
L 315.31009 57.8325 
" clip-path="url(#p9036a28c74)" style="fill: none; stroke-dasharray: 1.85,0.8; stroke-dashoffset: 0; stroke: #b0b0b0; stroke-opacity: 0.8; stroke-width: 0.5"/>
     </g>
     <g id="line2d_38">
      <g>
       <use xlink:href="#mab29de0670" x="315.31009" y="501.3525" style="stroke: #000000; stroke-width: 0.6"/>
      </g>
     </g>
    </g>
    <g id="xtick_20">
     <g id="line2d_39">
      <path d="M 331.996601 501.3525 
L 331.996601 57.8325 
" clip-path="url(#p9036a28c74)" style="fill: none; stroke-dasharray: 1.85,0.8; stroke-dashoffset: 0; stroke: #b0b0b0; stroke-opacity: 0.8; stroke-width: 0.5"/>
     </g>
     <g id="line2d_40">
      <g>
       <use xlink:href="#mab29de0670" x="331.996601" y="501.3525" style="stroke: #000000; stroke-width: 0.6"/>
      </g>
     </g>
    </g>
    <g id="xtick_21">
     <g id="line2d_41">
      <path d="M 348.683112 501.3525 
L 348.683112 57.8325 
" clip-path="url(#p9036a28c74)" style="fill: none; stroke-dasharray: 1.85,0.8; stroke-dashoffset: 0; stroke: #b0b0b0; stroke-opacity: 0.8; stroke-width: 0.5"/>
     </g>
     <g id="line2d_42">
      <g>
       <use xlink:href="#mab29de0670" x="348.683112" y="501.3525" style="stroke: #000000; stroke-width: 0.6"/>
      </g>
     </g>
    </g>
    <g id="xtick_22">
     <g id="line2d_43">
      <path d="M 382.056135 501.3525 
L 382.056135 57.8325 
" clip-path="url(#p9036a28c74)" style="fill: none; stroke-dasharray: 1.85,0.8; stroke-dashoffset: 0; stroke: #b0b0b0; stroke-opacity: 0.8; stroke-width: 0.5"/>
     </g>
     <g id="line2d_44">
      <g>
       <use xlink:href="#mab29de0670" x="382.056135" y="501.3525" style="stroke: #000000; stroke-width: 0.6"/>
      </g>
     </g>
    </g>
    <g id="xtick_23">
     <g id="line2d_45">
      <path d="M 398.742647 501.3525 
L 398.742647 57.8325 
" clip-path="url(#p9036a28c74)" style="fill: none; stroke-dasharray: 1.85,0.8; stroke-dashoffset: 0; stroke: #b0b0b0; stroke-opacity: 0.8; stroke-width: 0.5"/>
     </g>
     <g id="line2d_46">
      <g>
       <use xlink:href="#mab29de0670" x="398.742647" y="501.3525" style="stroke: #000000; stroke-width: 0.6"/>
      </g>
     </g>
    </g>
    <g id="xtick_24">
     <g id="line2d_47">
      <path d="M 415.429158 501.3525 
L 415.429158 57.8325 
" clip-path="url(#p9036a28c74)" style="fill: none; stroke-dasharray: 1.85,0.8; stroke-dashoffset: 0; stroke: #b0b0b0; stroke-opacity: 0.8; stroke-width: 0.5"/>
     </g>
     <g id="line2d_48">
      <g>
       <use xlink:href="#mab29de0670" x="415.429158" y="501.3525" style="stroke: #000000; stroke-width: 0.6"/>
      </g>
     </g>
    </g>
    <g id="xtick_25">
     <g id="line2d_49">
      <path d="M 432.115669 501.3525 
L 432.115669 57.8325 
" clip-path="url(#p9036a28c74)" style="fill: none; stroke-dasharray: 1.85,0.8; stroke-dashoffset: 0; stroke: #b0b0b0; stroke-opacity: 0.8; stroke-width: 0.5"/>
     </g>
     <g id="line2d_50">
      <g>
       <use xlink:href="#mab29de0670" x="432.115669" y="501.3525" style="stroke: #000000; stroke-width: 0.6"/>
      </g>
     </g>
    </g>
    <g id="xtick_26">
     <g id="line2d_51">
      <path d="M 465.488692 501.3525 
L 465.488692 57.8325 
" clip-path="url(#p9036a28c74)" style="fill: none; stroke-dasharray: 1.85,0.8; stroke-dashoffset: 0; stroke: #b0b0b0; stroke-opacity: 0.8; stroke-width: 0.5"/>
     </g>
     <g id="line2d_52">
      <g>
       <use xlink:href="#mab29de0670" x="465.488692" y="501.3525" style="stroke: #000000; stroke-width: 0.6"/>
      </g>
     </g>
    </g>
    <g id="xtick_27">
     <g id="line2d_53">
      <path d="M 482.175203 501.3525 
L 482.175203 57.8325 
" clip-path="url(#p9036a28c74)" style="fill: none; stroke-dasharray: 1.85,0.8; stroke-dashoffset: 0; stroke: #b0b0b0; stroke-opacity: 0.8; stroke-width: 0.5"/>
     </g>
     <g id="line2d_54">
      <g>
       <use xlink:href="#mab29de0670" x="482.175203" y="501.3525" style="stroke: #000000; stroke-width: 0.6"/>
      </g>
     </g>
    </g>
    <g id="xtick_28">
     <g id="line2d_55">
      <path d="M 498.861715 501.3525 
L 498.861715 57.8325 
" clip-path="url(#p9036a28c74)" style="fill: none; stroke-dasharray: 1.85,0.8; stroke-dashoffset: 0; stroke: #b0b0b0; stroke-opacity: 0.8; stroke-width: 0.5"/>
     </g>
     <g id="line2d_56">
      <g>
       <use xlink:href="#mab29de0670" x="498.861715" y="501.3525" style="stroke: #000000; stroke-width: 0.6"/>
      </g>
     </g>
    </g>
    <g id="xtick_29">
     <g id="line2d_57">
      <path d="M 515.548226 501.3525 
L 515.548226 57.8325 
" clip-path="url(#p9036a28c74)" style="fill: none; stroke-dasharray: 1.85,0.8; stroke-dashoffset: 0; stroke: #b0b0b0; stroke-opacity: 0.8; stroke-width: 0.5"/>
     </g>
     <g id="line2d_58">
      <g>
       <use xlink:href="#mab29de0670" x="515.548226" y="501.3525" style="stroke: #000000; stroke-width: 0.6"/>
      </g>
     </g>
    </g>
    <g id="xtick_30">
     <g id="line2d_59">
      <path d="M 548.921249 501.3525 
L 548.921249 57.8325 
" clip-path="url(#p9036a28c74)" style="fill: none; stroke-dasharray: 1.85,0.8; stroke-dashoffset: 0; stroke: #b0b0b0; stroke-opacity: 0.8; stroke-width: 0.5"/>
     </g>
     <g id="line2d_60">
      <g>
       <use xlink:href="#mab29de0670" x="548.921249" y="501.3525" style="stroke: #000000; stroke-width: 0.6"/>
      </g>
     </g>
    </g>
    <g id="xtick_31">
     <g id="line2d_61">
      <path d="M 565.60776 501.3525 
L 565.60776 57.8325 
" clip-path="url(#p9036a28c74)" style="fill: none; stroke-dasharray: 1.85,0.8; stroke-dashoffset: 0; stroke: #b0b0b0; stroke-opacity: 0.8; stroke-width: 0.5"/>
     </g>
     <g id="line2d_62">
      <g>
       <use xlink:href="#mab29de0670" x="565.60776" y="501.3525" style="stroke: #000000; stroke-width: 0.6"/>
      </g>
     </g>
    </g>
    <g id="xtick_32">
     <g id="line2d_63">
      <path d="M 582.294272 501.3525 
L 582.294272 57.8325 
" clip-path="url(#p9036a28c74)" style="fill: none; stroke-dasharray: 1.85,0.8; stroke-dashoffset: 0; stroke: #b0b0b0; stroke-opacity: 0.8; stroke-width: 0.5"/>
     </g>
     <g id="line2d_64">
      <g>
       <use xlink:href="#mab29de0670" x="582.294272" y="501.3525" style="stroke: #000000; stroke-width: 0.6"/>
      </g>
     </g>
    </g>
    <g id="xtick_33">
     <g id="line2d_65">
      <path d="M 598.980783 501.3525 
L 598.980783 57.8325 
" clip-path="url(#p9036a28c74)" style="fill: none; stroke-dasharray: 1.85,0.8; stroke-dashoffset: 0; stroke: #b0b0b0; stroke-opacity: 0.8; stroke-width: 0.5"/>
     </g>
     <g id="line2d_66">
      <g>
       <use xlink:href="#mab29de0670" x="598.980783" y="501.3525" style="stroke: #000000; stroke-width: 0.6"/>
      </g>
     </g>
    </g>
    <g id="xtick_34">
     <g id="line2d_67">
      <path d="M 632.353806 501.3525 
L 632.353806 57.8325 
" clip-path="url(#p9036a28c74)" style="fill: none; stroke-dasharray: 1.85,0.8; stroke-dashoffset: 0; stroke: #b0b0b0; stroke-opacity: 0.8; stroke-width: 0.5"/>
     </g>
     <g id="line2d_68">
      <g>
       <use xlink:href="#mab29de0670" x="632.353806" y="501.3525" style="stroke: #000000; stroke-width: 0.6"/>
      </g>
     </g>
    </g>
    <g id="xtick_35">
     <g id="line2d_69">
      <path d="M 649.040317 501.3525 
L 649.040317 57.8325 
" clip-path="url(#p9036a28c74)" style="fill: none; stroke-dasharray: 1.85,0.8; stroke-dashoffset: 0; stroke: #b0b0b0; stroke-opacity: 0.8; stroke-width: 0.5"/>
     </g>
     <g id="line2d_70">
      <g>
       <use xlink:href="#mab29de0670" x="649.040317" y="501.3525" style="stroke: #000000; stroke-width: 0.6"/>
      </g>
     </g>
    </g>
    <g id="xtick_36">
     <g id="line2d_71">
      <path d="M 665.726829 501.3525 
L 665.726829 57.8325 
" clip-path="url(#p9036a28c74)" style="fill: none; stroke-dasharray: 1.85,0.8; stroke-dashoffset: 0; stroke: #b0b0b0; stroke-opacity: 0.8; stroke-width: 0.5"/>
     </g>
     <g id="line2d_72">
      <g>
       <use xlink:href="#mab29de0670" x="665.726829" y="501.3525" style="stroke: #000000; stroke-width: 0.6"/>
      </g>
     </g>
    </g>
    <g id="xtick_37">
     <g id="line2d_73">
      <path d="M 682.41334 501.3525 
L 682.41334 57.8325 
" clip-path="url(#p9036a28c74)" style="fill: none; stroke-dasharray: 1.85,0.8; stroke-dashoffset: 0; stroke: #b0b0b0; stroke-opacity: 0.8; stroke-width: 0.5"/>
     </g>
     <g id="line2d_74">
      <g>
       <use xlink:href="#mab29de0670" x="682.41334" y="501.3525" style="stroke: #000000; stroke-width: 0.6"/>
      </g>
     </g>
    </g>
    <g id="xtick_38">
     <g id="line2d_75">
      <path d="M 715.786363 501.3525 
L 715.786363 57.8325 
" clip-path="url(#p9036a28c74)" style="fill: none; stroke-dasharray: 1.85,0.8; stroke-dashoffset: 0; stroke: #b0b0b0; stroke-opacity: 0.8; stroke-width: 0.5"/>
     </g>
     <g id="line2d_76">
      <g>
       <use xlink:href="#mab29de0670" x="715.786363" y="501.3525" style="stroke: #000000; stroke-width: 0.6"/>
      </g>
     </g>
    </g>
    <g id="xtick_39">
     <g id="line2d_77">
      <path d="M 732.472874 501.3525 
L 732.472874 57.8325 
" clip-path="url(#p9036a28c74)" style="fill: none; stroke-dasharray: 1.85,0.8; stroke-dashoffset: 0; stroke: #b0b0b0; stroke-opacity: 0.8; stroke-width: 0.5"/>
     </g>
     <g id="line2d_78">
      <g>
       <use xlink:href="#mab29de0670" x="732.472874" y="501.3525" style="stroke: #000000; stroke-width: 0.6"/>
      </g>
     </g>
    </g>
    <g id="xtick_40">
     <g id="line2d_79">
      <path d="M 749.159386 501.3525 
L 749.159386 57.8325 
" clip-path="url(#p9036a28c74)" style="fill: none; stroke-dasharray: 1.85,0.8; stroke-dashoffset: 0; stroke: #b0b0b0; stroke-opacity: 0.8; stroke-width: 0.5"/>
     </g>
     <g id="line2d_80">
      <g>
       <use xlink:href="#mab29de0670" x="749.159386" y="501.3525" style="stroke: #000000; stroke-width: 0.6"/>
      </g>
     </g>
    </g>
    <g id="text_9">
     <!-- Time (S) -->
     <g transform="translate(386.375 542.305625) scale(0.2 -0.2)">
      <defs>
       <path id="AptosDisplay-54" d="M 1244 0 
L 1244 3734 
L 50 3734 
L 50 4206 
L 2997 4206 
L 2997 3734 
L 1806 3734 
L 1806 0 
L 1244 0 
z
" transform="scale(0.015625)"/>
       <path id="AptosDisplay-69" d="M 413 0 
L 413 3044 
L 934 3044 
L 934 0 
L 413 0 
z
M 675 3616 
Q 525 3616 437 3702 
Q 350 3788 350 3919 
Q 350 4050 437 4136 
Q 525 4222 675 4222 
Q 822 4222 912 4136 
Q 1003 4050 1003 3919 
Q 1003 3788 912 3702 
Q 822 3616 675 3616 
z
" transform="scale(0.015625)"/>
       <path id="AptosDisplay-6d" d="M 413 0 
L 413 3044 
L 919 3044 
L 931 2575 
Q 1063 2756 1303 2914 
Q 1544 3072 1903 3072 
Q 2403 3072 2618 2778 
Q 2834 2484 2834 1963 
L 2834 0 
L 2316 0 
L 2316 1891 
Q 2316 2106 2275 2275 
Q 2234 2444 2120 2539 
Q 2006 2634 1788 2634 
Q 1488 2634 1277 2482 
Q 1066 2331 934 2156 
L 934 0 
L 413 0 
z
M 4206 0 
L 4206 1891 
Q 4206 2106 4164 2275 
Q 4122 2444 4009 2539 
Q 3897 2634 3681 2634 
Q 3381 2634 3165 2484 
Q 2950 2334 2822 2159 
L 2744 2544 
Q 2916 2741 3175 2906 
Q 3434 3072 3800 3072 
Q 4291 3072 4509 2778 
Q 4728 2484 4728 1963 
L 4728 0 
L 4206 0 
z
" transform="scale(0.015625)"/>
       <path id="AptosDisplay-65" d="M 1663 -56 
Q 1188 -56 878 151 
Q 569 359 417 717 
Q 266 1075 266 1522 
Q 266 1988 412 2342 
Q 559 2697 857 2897 
Q 1156 3097 1606 3097 
Q 2209 3097 2550 2722 
Q 2891 2347 2891 1644 
Q 2891 1597 2889 1533 
Q 2888 1469 2881 1441 
L 791 1441 
Q 794 1144 881 895 
Q 969 647 1161 497 
Q 1353 347 1663 347 
Q 1997 347 2183 511 
Q 2369 675 2378 984 
L 2894 984 
Q 2884 663 2732 430 
Q 2581 197 2309 70 
Q 2038 -56 1663 -56 
z
M 794 1822 
L 2375 1822 
Q 2366 2247 2166 2472 
Q 1966 2697 1606 2697 
Q 1241 2697 1036 2473 
Q 831 2250 794 1822 
z
" transform="scale(0.015625)"/>
       <path id="AptosDisplay-20" transform="scale(0.015625)"/>
       <path id="AptosDisplay-28" d="M 1219 -1116 
Q 969 -678 787 -267 
Q 606 144 511 581 
Q 416 1019 416 1528 
Q 416 2028 509 2486 
Q 603 2944 783 3378 
Q 963 3813 1219 4231 
L 1647 4231 
Q 1278 3600 1101 2886 
Q 925 2172 925 1428 
Q 925 766 1125 103 
Q 1325 -559 1647 -1116 
L 1219 -1116 
z
" transform="scale(0.015625)"/>
       <path id="AptosDisplay-53" d="M 1778 -56 
Q 1328 -56 962 81 
Q 597 219 384 512 
Q 172 806 172 1275 
L 734 1275 
Q 738 941 883 750 
Q 1028 559 1267 481 
Q 1506 403 1794 403 
Q 2063 403 2283 483 
Q 2503 563 2634 723 
Q 2766 884 2766 1134 
Q 2766 1356 2662 1497 
Q 2559 1638 2321 1742 
Q 2084 1847 1678 1950 
Q 1203 2075 897 2223 
Q 591 2372 442 2594 
Q 294 2816 294 3156 
Q 294 3516 462 3761 
Q 631 4006 945 4134 
Q 1259 4263 1697 4263 
Q 2103 4263 2440 4131 
Q 2778 4000 2979 3737 
Q 3181 3475 3181 3084 
L 2616 3084 
Q 2622 3441 2356 3623 
Q 2091 3806 1700 3806 
Q 1300 3806 1073 3645 
Q 847 3484 847 3175 
Q 847 2991 944 2867 
Q 1041 2744 1280 2644 
Q 1519 2544 1941 2434 
Q 2428 2303 2731 2153 
Q 3034 2003 3178 1768 
Q 3322 1534 3322 1153 
Q 3322 747 3117 480 
Q 2913 213 2564 78 
Q 2216 -56 1778 -56 
z
" transform="scale(0.015625)"/>
       <path id="AptosDisplay-29" d="M 234 -1116 
Q 609 -481 786 233 
Q 963 947 963 1694 
Q 963 2356 759 3015 
Q 556 3675 234 4231 
L 663 4231 
Q 919 3800 1098 3389 
Q 1278 2978 1373 2540 
Q 1469 2103 1469 1594 
Q 1469 1094 1375 634 
Q 1281 175 1100 -259 
Q 919 -694 663 -1116 
L 234 -1116 
z
" transform="scale(0.015625)"/>
      </defs>
      <use xlink:href="#AptosDisplay-54"/>
      <use xlink:href="#AptosDisplay-69" x="47.705078"/>
      <use xlink:href="#AptosDisplay-6d" x="68.75"/>
      <use xlink:href="#AptosDisplay-65" x="148.730469"/>
      <use xlink:href="#AptosDisplay-20" x="198.144531"/>
      <use xlink:href="#AptosDisplay-28" x="217.431641"/>
      <use xlink:href="#AptosDisplay-53" x="246.875"/>
      <use xlink:href="#AptosDisplay-29" x="301.464844"/>
     </g>
    </g>
   </g>
   <g id="matplotlib.axis_2">
    <g id="ytick_1">
     <g id="line2d_81">
      <path d="M 84.665625 488.746929 
L 754.265625 488.746929 
" clip-path="url(#p9036a28c74)" style="fill: none; stroke: #b0b0b0; stroke-opacity: 0.8; stroke-linecap: square"/>
     </g>
     <g id="line2d_82">
      <defs>
       <path id="m11d5f4f441" d="M 0 0 
L -3.5 0 
" style="stroke: #000000; stroke-width: 0.8"/>
      </defs>
      <g>
       <use xlink:href="#m11d5f4f441" x="84.665625" y="488.746929" style="stroke: #000000; stroke-width: 0.8"/>
      </g>
     </g>
     <g id="text_10">
      <!-- 0 -->
      <g transform="translate(67.20625 495.318804) scale(0.2 -0.2)">
       <use xlink:href="#AptosDisplay-30"/>
      </g>
     </g>
    </g>
    <g id="ytick_2">
     <g id="line2d_83">
      <path d="M 84.665625 398.975128 
L 754.265625 398.975128 
" clip-path="url(#p9036a28c74)" style="fill: none; stroke: #b0b0b0; stroke-opacity: 0.8; stroke-linecap: square"/>
     </g>
     <g id="line2d_84">
      <g>
       <use xlink:href="#m11d5f4f441" x="84.665625" y="398.975128" style="stroke: #000000; stroke-width: 0.8"/>
      </g>
     </g>
     <g id="text_11">
      <!-- 20 -->
      <g transform="translate(56.746875 405.547003) scale(0.2 -0.2)">
       <use xlink:href="#AptosDisplay-32"/>
       <use xlink:href="#AptosDisplay-30" x="52.294922"/>
      </g>
     </g>
    </g>
    <g id="ytick_3">
     <g id="line2d_85">
      <path d="M 84.665625 309.203327 
L 754.265625 309.203327 
" clip-path="url(#p9036a28c74)" style="fill: none; stroke: #b0b0b0; stroke-opacity: 0.8; stroke-linecap: square"/>
     </g>
     <g id="line2d_86">
      <g>
       <use xlink:href="#m11d5f4f441" x="84.665625" y="309.203327" style="stroke: #000000; stroke-width: 0.8"/>
      </g>
     </g>
     <g id="text_12">
      <!-- 40 -->
      <g transform="translate(56.746875 315.775202) scale(0.2 -0.2)">
       <defs>
        <path id="AptosDisplay-34" d="M 2106 0 
L 2106 825 
L 125 825 
L 125 1297 
L 2100 4103 
L 2631 4103 
L 2631 1284 
L 3191 1284 
L 3191 825 
L 2631 825 
L 2631 0 
L 2106 0 
z
M 638 1284 
L 2113 1284 
L 2113 3369 
L 638 1284 
z
" transform="scale(0.015625)"/>
       </defs>
       <use xlink:href="#AptosDisplay-34"/>
       <use xlink:href="#AptosDisplay-30" x="52.294922"/>
      </g>
     </g>
    </g>
    <g id="ytick_4">
     <g id="line2d_87">
      <path d="M 84.665625 219.431525 
L 754.265625 219.431525 
" clip-path="url(#p9036a28c74)" style="fill: none; stroke: #b0b0b0; stroke-opacity: 0.8; stroke-linecap: square"/>
     </g>
     <g id="line2d_88">
      <g>
       <use xlink:href="#m11d5f4f441" x="84.665625" y="219.431525" style="stroke: #000000; stroke-width: 0.8"/>
      </g>
     </g>
     <g id="text_13">
      <!-- 60 -->
      <g transform="translate(56.746875 226.0034) scale(0.2 -0.2)">
       <defs>
        <path id="AptosDisplay-36" d="M 1759 -56 
Q 1325 -56 984 151 
Q 644 359 447 815 
Q 250 1272 250 2013 
Q 250 2738 439 3206 
Q 628 3675 968 3903 
Q 1309 4131 1759 4131 
Q 2253 4131 2595 3875 
Q 2938 3619 3034 3097 
L 2503 3097 
Q 2441 3388 2250 3534 
Q 2059 3681 1759 3681 
Q 1306 3681 1047 3279 
Q 788 2878 788 2013 
L 788 1850 
Q 788 1313 922 992 
Q 1056 672 1279 531 
Q 1503 391 1763 391 
Q 2175 391 2369 644 
Q 2563 897 2563 1272 
Q 2563 1650 2373 1869 
Q 2184 2088 1838 2088 
Q 1422 2088 1114 1897 
Q 806 1706 644 1456 
L 597 1856 
Q 728 2047 922 2201 
Q 1116 2356 1362 2447 
Q 1609 2538 1909 2538 
Q 2253 2538 2523 2395 
Q 2794 2253 2951 1975 
Q 3109 1697 3109 1291 
Q 3109 897 2951 592 
Q 2794 288 2492 116 
Q 2191 -56 1759 -56 
z
" transform="scale(0.015625)"/>
       </defs>
       <use xlink:href="#AptosDisplay-36"/>
       <use xlink:href="#AptosDisplay-30" x="52.294922"/>
      </g>
     </g>
    </g>
    <g id="ytick_5">
     <g id="line2d_89">
      <path d="M 84.665625 129.659724 
L 754.265625 129.659724 
" clip-path="url(#p9036a28c74)" style="fill: none; stroke: #b0b0b0; stroke-opacity: 0.8; stroke-linecap: square"/>
     </g>
     <g id="line2d_90">
      <g>
       <use xlink:href="#m11d5f4f441" x="84.665625" y="129.659724" style="stroke: #000000; stroke-width: 0.8"/>
      </g>
     </g>
     <g id="text_14">
      <!-- 80 -->
      <g transform="translate(56.746875 136.231599) scale(0.2 -0.2)">
       <defs>
        <path id="AptosDisplay-38" d="M 1675 -56 
Q 1391 -56 1137 16 
Q 884 88 686 234 
Q 488 381 373 606 
Q 259 831 259 1141 
Q 259 1531 495 1797 
Q 731 2063 1084 2150 
Q 781 2250 604 2490 
Q 428 2731 428 3081 
Q 428 3447 609 3681 
Q 791 3916 1075 4025 
Q 1359 4134 1669 4134 
Q 1981 4134 2265 4023 
Q 2550 3913 2733 3680 
Q 2916 3447 2916 3081 
Q 2916 2725 2716 2481 
Q 2516 2238 2238 2150 
Q 2606 2063 2843 1800 
Q 3081 1538 3081 1141 
Q 3081 831 2968 606 
Q 2856 381 2661 234 
Q 2466 88 2211 16 
Q 1956 -56 1675 -56 
z
M 1672 388 
Q 1909 388 2109 470 
Q 2309 553 2429 725 
Q 2550 897 2550 1163 
Q 2550 1416 2426 1587 
Q 2303 1759 2104 1846 
Q 1906 1934 1672 1928 
Q 1453 1934 1253 1850 
Q 1053 1766 926 1594 
Q 800 1422 800 1163 
Q 800 775 1058 581 
Q 1316 388 1672 388 
z
M 1672 2363 
Q 1863 2356 2030 2434 
Q 2197 2513 2300 2667 
Q 2403 2822 2403 3050 
Q 2403 3388 2189 3544 
Q 1975 3700 1675 3700 
Q 1484 3700 1317 3631 
Q 1150 3563 1047 3419 
Q 944 3275 944 3050 
Q 944 2825 1048 2670 
Q 1153 2516 1320 2436 
Q 1488 2356 1672 2363 
z
" transform="scale(0.015625)"/>
       </defs>
       <use xlink:href="#AptosDisplay-38"/>
       <use xlink:href="#AptosDisplay-30" x="52.294922"/>
      </g>
     </g>
    </g>
    <g id="ytick_6">
     <g id="line2d_91">
      <path d="M 84.665625 466.303979 
L 754.265625 466.303979 
" clip-path="url(#p9036a28c74)" style="fill: none; stroke-dasharray: 1.85,0.8; stroke-dashoffset: 0; stroke: #b0b0b0; stroke-opacity: 0.8; stroke-width: 0.5"/>
     </g>
     <g id="line2d_92">
      <defs>
       <path id="m49052f8c1e" d="M 0 0 
L -2 0 
" style="stroke: #000000; stroke-width: 0.6"/>
      </defs>
      <g>
       <use xlink:href="#m49052f8c1e" x="84.665625" y="466.303979" style="stroke: #000000; stroke-width: 0.6"/>
      </g>
     </g>
    </g>
    <g id="ytick_7">
     <g id="line2d_93">
      <path d="M 84.665625 443.861029 
L 754.265625 443.861029 
" clip-path="url(#p9036a28c74)" style="fill: none; stroke-dasharray: 1.85,0.8; stroke-dashoffset: 0; stroke: #b0b0b0; stroke-opacity: 0.8; stroke-width: 0.5"/>
     </g>
     <g id="line2d_94">
      <g>
       <use xlink:href="#m49052f8c1e" x="84.665625" y="443.861029" style="stroke: #000000; stroke-width: 0.6"/>
      </g>
     </g>
    </g>
    <g id="ytick_8">
     <g id="line2d_95">
      <path d="M 84.665625 421.418078 
L 754.265625 421.418078 
" clip-path="url(#p9036a28c74)" style="fill: none; stroke-dasharray: 1.85,0.8; stroke-dashoffset: 0; stroke: #b0b0b0; stroke-opacity: 0.8; stroke-width: 0.5"/>
     </g>
     <g id="line2d_96">
      <g>
       <use xlink:href="#m49052f8c1e" x="84.665625" y="421.418078" style="stroke: #000000; stroke-width: 0.6"/>
      </g>
     </g>
    </g>
    <g id="ytick_9">
     <g id="line2d_97">
      <path d="M 84.665625 376.532178 
L 754.265625 376.532178 
" clip-path="url(#p9036a28c74)" style="fill: none; stroke-dasharray: 1.85,0.8; stroke-dashoffset: 0; stroke: #b0b0b0; stroke-opacity: 0.8; stroke-width: 0.5"/>
     </g>
     <g id="line2d_98">
      <g>
       <use xlink:href="#m49052f8c1e" x="84.665625" y="376.532178" style="stroke: #000000; stroke-width: 0.6"/>
      </g>
     </g>
    </g>
    <g id="ytick_10">
     <g id="line2d_99">
      <path d="M 84.665625 354.089227 
L 754.265625 354.089227 
" clip-path="url(#p9036a28c74)" style="fill: none; stroke-dasharray: 1.85,0.8; stroke-dashoffset: 0; stroke: #b0b0b0; stroke-opacity: 0.8; stroke-width: 0.5"/>
     </g>
     <g id="line2d_100">
      <g>
       <use xlink:href="#m49052f8c1e" x="84.665625" y="354.089227" style="stroke: #000000; stroke-width: 0.6"/>
      </g>
     </g>
    </g>
    <g id="ytick_11">
     <g id="line2d_101">
      <path d="M 84.665625 331.646277 
L 754.265625 331.646277 
" clip-path="url(#p9036a28c74)" style="fill: none; stroke-dasharray: 1.85,0.8; stroke-dashoffset: 0; stroke: #b0b0b0; stroke-opacity: 0.8; stroke-width: 0.5"/>
     </g>
     <g id="line2d_102">
      <g>
       <use xlink:href="#m49052f8c1e" x="84.665625" y="331.646277" style="stroke: #000000; stroke-width: 0.6"/>
      </g>
     </g>
    </g>
    <g id="ytick_12">
     <g id="line2d_103">
      <path d="M 84.665625 286.760376 
L 754.265625 286.760376 
" clip-path="url(#p9036a28c74)" style="fill: none; stroke-dasharray: 1.85,0.8; stroke-dashoffset: 0; stroke: #b0b0b0; stroke-opacity: 0.8; stroke-width: 0.5"/>
     </g>
     <g id="line2d_104">
      <g>
       <use xlink:href="#m49052f8c1e" x="84.665625" y="286.760376" style="stroke: #000000; stroke-width: 0.6"/>
      </g>
     </g>
    </g>
    <g id="ytick_13">
     <g id="line2d_105">
      <path d="M 84.665625 264.317426 
L 754.265625 264.317426 
" clip-path="url(#p9036a28c74)" style="fill: none; stroke-dasharray: 1.85,0.8; stroke-dashoffset: 0; stroke: #b0b0b0; stroke-opacity: 0.8; stroke-width: 0.5"/>
     </g>
     <g id="line2d_106">
      <g>
       <use xlink:href="#m49052f8c1e" x="84.665625" y="264.317426" style="stroke: #000000; stroke-width: 0.6"/>
      </g>
     </g>
    </g>
    <g id="ytick_14">
     <g id="line2d_107">
      <path d="M 84.665625 241.874476 
L 754.265625 241.874476 
" clip-path="url(#p9036a28c74)" style="fill: none; stroke-dasharray: 1.85,0.8; stroke-dashoffset: 0; stroke: #b0b0b0; stroke-opacity: 0.8; stroke-width: 0.5"/>
     </g>
     <g id="line2d_108">
      <g>
       <use xlink:href="#m49052f8c1e" x="84.665625" y="241.874476" style="stroke: #000000; stroke-width: 0.6"/>
      </g>
     </g>
    </g>
    <g id="ytick_15">
     <g id="line2d_109">
      <path d="M 84.665625 196.988575 
L 754.265625 196.988575 
" clip-path="url(#p9036a28c74)" style="fill: none; stroke-dasharray: 1.85,0.8; stroke-dashoffset: 0; stroke: #b0b0b0; stroke-opacity: 0.8; stroke-width: 0.5"/>
     </g>
     <g id="line2d_110">
      <g>
       <use xlink:href="#m49052f8c1e" x="84.665625" y="196.988575" style="stroke: #000000; stroke-width: 0.6"/>
      </g>
     </g>
    </g>
    <g id="ytick_16">
     <g id="line2d_111">
      <path d="M 84.665625 174.545624 
L 754.265625 174.545624 
" clip-path="url(#p9036a28c74)" style="fill: none; stroke-dasharray: 1.85,0.8; stroke-dashoffset: 0; stroke: #b0b0b0; stroke-opacity: 0.8; stroke-width: 0.5"/>
     </g>
     <g id="line2d_112">
      <g>
       <use xlink:href="#m49052f8c1e" x="84.665625" y="174.545624" style="stroke: #000000; stroke-width: 0.6"/>
      </g>
     </g>
    </g>
    <g id="ytick_17">
     <g id="line2d_113">
      <path d="M 84.665625 152.102674 
L 754.265625 152.102674 
" clip-path="url(#p9036a28c74)" style="fill: none; stroke-dasharray: 1.85,0.8; stroke-dashoffset: 0; stroke: #b0b0b0; stroke-opacity: 0.8; stroke-width: 0.5"/>
     </g>
     <g id="line2d_114">
      <g>
       <use xlink:href="#m49052f8c1e" x="84.665625" y="152.102674" style="stroke: #000000; stroke-width: 0.6"/>
      </g>
     </g>
    </g>
    <g id="ytick_18">
     <g id="line2d_115">
      <path d="M 84.665625 107.216773 
L 754.265625 107.216773 
" clip-path="url(#p9036a28c74)" style="fill: none; stroke-dasharray: 1.85,0.8; stroke-dashoffset: 0; stroke: #b0b0b0; stroke-opacity: 0.8; stroke-width: 0.5"/>
     </g>
     <g id="line2d_116">
      <g>
       <use xlink:href="#m49052f8c1e" x="84.665625" y="107.216773" style="stroke: #000000; stroke-width: 0.6"/>
      </g>
     </g>
    </g>
    <g id="ytick_19">
     <g id="line2d_117">
      <path d="M 84.665625 84.773823 
L 754.265625 84.773823 
" clip-path="url(#p9036a28c74)" style="fill: none; stroke-dasharray: 1.85,0.8; stroke-dashoffset: 0; stroke: #b0b0b0; stroke-opacity: 0.8; stroke-width: 0.5"/>
     </g>
     <g id="line2d_118">
      <g>
       <use xlink:href="#m49052f8c1e" x="84.665625" y="84.773823" style="stroke: #000000; stroke-width: 0.6"/>
      </g>
     </g>
    </g>
    <g id="ytick_20">
     <g id="line2d_119">
      <path d="M 84.665625 62.330873 
L 754.265625 62.330873 
" clip-path="url(#p9036a28c74)" style="fill: none; stroke-dasharray: 1.85,0.8; stroke-dashoffset: 0; stroke: #b0b0b0; stroke-opacity: 0.8; stroke-width: 0.5"/>
     </g>
     <g id="line2d_120">
      <g>
       <use xlink:href="#m49052f8c1e" x="84.665625" y="62.330873" style="stroke: #000000; stroke-width: 0.6"/>
      </g>
     </g>
    </g>
    <g id="text_15">
     <!-- Efficiency (%) -->
     <g transform="translate(49.221875 335.120625) rotate(-90) scale(0.2 -0.2)">
      <defs>
       <path id="AptosDisplay-45" d="M 472 0 
L 472 4206 
L 3153 4206 
L 3153 3738 
L 1034 3738 
L 1034 2397 
L 2984 2397 
L 2984 1934 
L 1034 1934 
L 1034 469 
L 3153 469 
L 3153 0 
L 472 0 
z
" transform="scale(0.015625)"/>
       <path id="AptosDisplay-66" d="M 550 0 
L 550 2622 
L 44 2622 
L 44 3044 
L 550 3044 
L 550 3219 
Q 550 3453 589 3636 
Q 628 3819 728 3947 
Q 828 4075 1004 4140 
Q 1181 4206 1463 4206 
L 1781 4206 
L 1781 3797 
L 1494 3797 
Q 1219 3797 1145 3645 
Q 1072 3494 1072 3209 
L 1072 3044 
L 1775 3044 
L 1775 2622 
L 1072 2622 
L 1072 0 
L 550 0 
z
" transform="scale(0.015625)"/>
       <path id="AptosDisplay-63" d="M 1634 -53 
Q 1234 -53 925 122 
Q 616 297 441 645 
Q 266 994 266 1513 
Q 266 2031 437 2384 
Q 609 2738 917 2916 
Q 1225 3094 1634 3094 
Q 1978 3094 2251 2978 
Q 2525 2863 2689 2630 
Q 2853 2397 2866 2041 
L 2350 2041 
Q 2328 2334 2139 2503 
Q 1950 2672 1644 2672 
Q 1228 2672 1015 2367 
Q 803 2063 803 1513 
Q 803 1150 897 894 
Q 991 638 1178 503 
Q 1366 369 1644 369 
Q 1956 369 2159 541 
Q 2363 713 2372 1047 
L 2884 1047 
Q 2878 681 2711 436 
Q 2544 191 2264 69 
Q 1984 -53 1634 -53 
z
" transform="scale(0.015625)"/>
       <path id="AptosDisplay-6e" d="M 413 0 
L 413 3044 
L 919 3044 
L 931 2575 
Q 1066 2756 1316 2914 
Q 1566 3072 1941 3072 
Q 2428 3072 2637 2781 
Q 2847 2491 2847 1963 
L 2847 0 
L 2328 0 
L 2328 1891 
Q 2328 2106 2286 2275 
Q 2244 2444 2133 2539 
Q 2022 2634 1816 2634 
Q 1500 2634 1283 2482 
Q 1066 2331 934 2156 
L 934 0 
L 413 0 
z
" transform="scale(0.015625)"/>
       <path id="AptosDisplay-79" d="M 266 -1128 
L 266 -697 
L 525 -697 
Q 716 -697 831 -598 
Q 947 -500 1038 -275 
L 1153 0 
L -13 3044 
L 538 3044 
L 1428 553 
L 2250 3044 
L 2781 3044 
L 1688 0 
L 1550 -356 
Q 1441 -647 1314 -815 
Q 1188 -984 1013 -1056 
Q 838 -1128 578 -1128 
L 266 -1128 
z
" transform="scale(0.015625)"/>
       <path id="AptosDisplay-25" d="M 1188 0 
L 3669 4078 
L 4094 4078 
L 1613 0 
L 1188 0 
z
M 1197 1606 
Q 878 1606 679 1765 
Q 481 1925 390 2209 
Q 300 2494 300 2872 
Q 300 3253 390 3536 
Q 481 3819 679 3976 
Q 878 4134 1197 4134 
Q 1519 4134 1716 3976 
Q 1913 3819 2005 3536 
Q 2097 3253 2097 2872 
Q 2097 2494 2005 2209 
Q 1913 1925 1714 1765 
Q 1516 1606 1197 1606 
z
M 1197 1953 
Q 1391 1953 1498 2084 
Q 1606 2216 1648 2425 
Q 1691 2634 1691 2872 
Q 1691 3109 1648 3318 
Q 1606 3528 1498 3658 
Q 1391 3788 1197 3788 
Q 1006 3788 898 3658 
Q 791 3528 748 3318 
Q 706 3109 706 2872 
Q 706 2634 748 2425 
Q 791 2216 898 2084 
Q 1006 1953 1197 1953 
z
M 4084 -53 
Q 3769 -53 3570 105 
Q 3372 263 3281 547 
Q 3191 831 3191 1209 
Q 3191 1591 3281 1873 
Q 3372 2156 3570 2314 
Q 3769 2472 4084 2472 
Q 4406 2472 4604 2315 
Q 4803 2159 4893 1875 
Q 4984 1591 4984 1209 
Q 4984 831 4893 547 
Q 4803 263 4604 105 
Q 4406 -53 4084 -53 
z
M 4084 294 
Q 4281 294 4387 423 
Q 4494 553 4536 761 
Q 4578 969 4578 1209 
Q 4578 1447 4536 1656 
Q 4494 1866 4387 1994 
Q 4281 2122 4084 2122 
Q 3894 2122 3787 1994 
Q 3681 1866 3639 1656 
Q 3597 1447 3597 1209 
Q 3597 969 3639 761 
Q 3681 553 3787 423 
Q 3894 294 4084 294 
z
" transform="scale(0.015625)"/>
      </defs>
      <use xlink:href="#AptosDisplay-45"/>
      <use xlink:href="#AptosDisplay-66" x="54.052734"/>
      <use xlink:href="#AptosDisplay-66" x="82.373047"/>
      <use xlink:href="#AptosDisplay-69" x="110.693359"/>
      <use xlink:href="#AptosDisplay-63" x="131.738281"/>
      <use xlink:href="#AptosDisplay-69" x="181.005859"/>
      <use xlink:href="#AptosDisplay-65" x="202.050781"/>
      <use xlink:href="#AptosDisplay-6e" x="251.464844"/>
      <use xlink:href="#AptosDisplay-63" x="302.050781"/>
      <use xlink:href="#AptosDisplay-79" x="351.318359"/>
      <use xlink:href="#AptosDisplay-20" x="394.580078"/>
      <use xlink:href="#AptosDisplay-28" x="413.867188"/>
      <use xlink:href="#AptosDisplay-25" x="443.310547"/>
      <use xlink:href="#AptosDisplay-29" x="525.830078"/>
     </g>
    </g>
   </g>
   <g id="line2d_121">
    <path d="M 115.769449 77.9925 
L 116.433572 473.376965 
L 117.101033 472.456034 
L 117.768493 477.419155 
L 118.435954 476.899555 
L 119.103414 479.375846 
L 119.770875 478.426895 
L 120.438335 479.058809 
L 121.105795 478.854035 
L 121.773256 479.906421 
L 122.440716 478.855471 
L 123.108177 479.998662 
L 123.775637 479.21088 
L 124.443098 476.274922 
L 125.110558 479.479802 
L 125.778019 478.220309 
L 126.445479 479.883809 
L 127.11294 479.809359 
L 127.7804 478.946191 
L 129.115321 479.498635 
L 129.786119 478.427444 
L 130.450242 479.240615 
L 131.12104 480.292595 
L 131.7885 478.207723 
L 132.45596 479.650278 
L 133.123421 478.215543 
L 133.790881 479.751236 
L 134.458342 479.173766 
L 135.125802 480.250296 
L 135.793263 479.878641 
L 136.460723 479.844019 
L 137.128184 479.516685 
L 137.795644 479.917073 
L 138.463105 479.890258 
L 139.130565 478.334891 
L 139.798025 480.188772 
L 140.465486 478.020606 
L 141.132946 480.180571 
L 141.800407 479.717213 
L 142.467867 480.221037 
L 143.802788 479.544639 
L 144.470249 478.246578 
L 145.137709 479.697653 
L 145.80517 479.712364 
L 146.47263 477.846683 
L 147.140091 480.509402 
L 147.807551 478.90295 
L 148.475011 480.370358 
L 149.142472 480.434331 
L 149.809932 480.0564 
L 150.477393 479.861271 
L 151.144853 480.535964 
L 151.812314 479.676045 
L 152.479774 480.728162 
L 153.147235 480.492343 
L 153.814695 478.59769 
L 154.482156 480.363373 
L 155.149616 478.988674 
L 155.817076 480.391746 
L 156.484537 480.79361 
L 157.151997 480.595357 
L 157.819458 481.1925 
L 158.486918 480.402028 
L 159.154379 479.944557 
L 159.821839 480.775528 
L 160.4893 480.255546 
L 161.15676 478.097563 
L 161.824221 480.899388 
L 162.491681 478.876187 
L 163.159141 480.759244 
L 163.826602 480.553667 
L 164.494062 480.818075 
L 165.828983 480.325965 
L 166.496444 480.072013 
L 167.163904 481.120539 
L 167.831365 481.0227 
L 168.498825 479.659673 
L 169.166286 480.606999 
L 169.833746 479.298738 
L 170.501206 480.405047 
L 171.836127 479.796559 
L 172.503588 481.094003 
L 173.838509 480.024438 
L 174.505969 480.822835 
L 175.17343 480.022166 
L 175.84089 479.400336 
L 176.508351 481.05668 
L 177.175811 477.839815 
L 177.843271 480.811811 
L 179.178192 479.727203 
L 179.845653 479.984799 
L 180.513113 480.52685 
L 181.180574 479.563937 
L 181.848034 479.187817 
L 182.515495 480.353002 
L 183.182955 479.473587 
L 183.850416 479.495481 
L 184.517876 480.646864 
L 185.185336 478.42939 
L 185.852797 480.691508 
L 186.520257 480.740976 
L 187.187718 479.974167 
L 187.855178 480.301856 
L 188.522639 479.795796 
L 189.190099 480.816346 
L 189.85756 480.657869 
L 190.52502 478.429376 
L 191.192481 480.528264 
L 191.859941 479.081665 
L 192.527401 480.510603 
L 193.194862 479.706146 
L 193.862322 480.864266 
L 194.529783 480.542316 
L 195.197243 480.616669 
L 195.864704 479.045427 
L 196.532164 480.538792 
L 197.199625 479.915026 
L 197.867085 478.621295 
L 198.534546 480.274985 
L 199.202006 478.53717 
L 199.869466 479.908402 
L 200.536927 480.503545 
L 201.204387 480.376442 
L 201.871848 479.899853 
L 202.539308 479.943965 
L 203.206769 479.262689 
L 203.874229 479.591524 
L 204.54169 478.474153 
L 205.20915 478.313862 
L 205.876611 480.027403 
L 206.544071 478.110802 
L 207.211531 480.010014 
L 207.878992 479.174844 
L 208.546452 479.763005 
L 209.213913 479.9639 
L 209.881373 479.784205 
L 210.548834 478.600817 
L 211.216294 479.731182 
L 211.883755 478.569063 
L 212.551215 477.820443 
L 213.218676 479.664643 
L 213.886136 478.003511 
L 214.553597 479.949213 
L 215.221057 478.644563 
L 215.888517 478.513253 
L 216.555978 479.872454 
L 217.890899 479.21209 
L 218.558359 479.856643 
L 219.22582 479.397271 
L 219.89328 478.062177 
L 220.560741 479.883346 
L 221.228201 477.886212 
L 221.895662 479.780925 
L 222.563122 478.733184 
L 223.230582 479.870268 
L 223.898043 479.453454 
L 224.565503 478.608217 
L 225.232964 478.727203 
L 225.900424 479.87897 
L 226.567885 478.750407 
L 227.235345 478.014541 
L 227.902806 479.768197 
L 228.570266 477.90198 
L 229.237727 479.856676 
L 229.905187 478.953461 
L 230.572647 479.76091 
L 231.240108 479.69398 
L 231.907568 479.046065 
L 232.575029 479.019335 
L 233.242489 479.806465 
L 233.90995 479.603185 
L 234.57741 478.16221 
L 235.244871 479.727708 
L 235.912331 477.307823 
L 236.579792 479.928719 
L 237.247252 478.979688 
L 237.914712 479.590626 
L 239.249633 479.916596 
L 239.917094 479.169256 
L 240.584554 479.685841 
L 241.252015 478.872274 
L 241.919475 477.838474 
L 242.586936 480.136481 
L 243.254396 477.234459 
L 243.921857 480.212183 
L 244.589317 479.014885 
L 245.924238 479.841193 
L 246.591698 479.084192 
L 247.259159 477.97581 
L 247.926619 479.422142 
L 248.59408 478.922279 
L 249.26154 478.106268 
L 249.929001 479.505471 
L 250.596461 477.703716 
L 251.263922 479.910041 
L 251.931382 478.497455 
L 252.598842 478.863994 
L 253.266303 479.799656 
L 254.601224 478.862932 
L 255.268684 479.941281 
L 255.936145 479.276363 
L 256.603605 476.773975 
L 257.271066 479.709155 
L 257.938526 478.026994 
L 258.605987 480.148801 
L 259.273447 477.593358 
L 259.940907 479.616077 
L 260.608368 479.820683 
L 261.275828 479.486489 
L 261.943289 478.818078 
L 262.610749 478.635089 
L 263.27821 479.721129 
L 263.94567 478.593064 
L 264.613131 478.70822 
L 265.280591 477.195217 
L 265.948052 478.964564 
L 266.615512 478.474431 
L 267.282972 479.774311 
L 268.617893 479.44243 
L 269.285354 479.015707 
L 269.952814 479.92231 
L 271.287735 477.419342 
L 271.955196 479.671302 
L 272.622656 477.832038 
L 273.290117 479.871186 
L 273.957577 478.977707 
L 274.625038 479.874787 
L 275.292498 479.545628 
L 275.959958 479.881008 
L 276.627419 478.877514 
L 277.294879 479.518149 
L 277.96234 478.242578 
L 278.6298 478.550815 
L 279.297261 479.884705 
L 279.964721 477.50857 
L 280.632182 479.728584 
L 281.299642 479.028147 
L 281.967103 479.862072 
L 282.634563 479.311767 
L 283.302023 479.778044 
L 283.969484 478.87081 
L 284.636944 478.499007 
L 285.304405 477.741529 
L 285.971865 478.569373 
L 286.639326 479.912498 
L 287.306786 477.887437 
L 287.974247 479.668598 
L 288.641707 478.616563 
L 289.309168 480.058051 
L 289.976628 479.816539 
L 290.644088 480.055296 
L 291.311549 479.216691 
L 291.979009 479.607324 
L 292.64647 479.057514 
L 293.31393 477.982339 
L 293.981391 479.760075 
L 294.648851 477.899792 
L 295.316312 479.963875 
L 295.983772 477.751105 
L 296.651233 479.733494 
L 297.318693 479.772749 
L 297.986153 479.596774 
L 299.321074 479.666112 
L 299.988535 478.684193 
L 300.655995 478.676621 
L 301.323456 479.957066 
L 301.990916 477.892186 
L 302.658377 479.944305 
L 303.325837 477.75415 
L 303.993298 479.782375 
L 304.660758 479.69221 
L 305.328218 479.038718 
L 305.995679 478.851471 
L 306.663139 479.580826 
L 307.3306 478.937178 
L 307.99806 478.788051 
L 308.665521 479.815445 
L 309.332981 478.083538 
L 310.000442 479.554071 
L 310.667902 478.326108 
L 311.335363 479.48918 
L 312.002823 479.827232 
L 312.670283 479.942813 
L 313.337744 478.635148 
L 314.005204 479.652975 
L 314.672665 479.285914 
L 317.342507 479.571773 
L 318.009967 477.745237 
L 318.677428 479.690474 
L 319.344888 479.856388 
L 320.679809 479.139666 
L 321.347269 479.417417 
L 322.01473 478.673746 
L 322.68219 479.890425 
L 323.349651 478.223192 
L 324.017111 477.601151 
L 324.684572 479.818176 
L 325.352032 477.633071 
L 326.019493 479.303893 
L 326.686953 478.582156 
L 327.354413 478.561412 
L 328.021874 479.752885 
L 328.689334 479.916174 
L 329.356795 479.214681 
L 330.024255 479.986762 
L 331.359176 477.293304 
L 332.026637 479.573541 
L 332.694097 477.880134 
L 333.361558 480.108062 
L 334.029018 478.259061 
L 334.696478 478.915075 
L 335.363939 479.904257 
L 336.031399 479.13435 
L 336.69886 478.110333 
L 337.36632 479.495753 
L 338.033781 479.091896 
L 338.701241 478.84242 
L 339.368702 477.683503 
L 340.036162 479.976903 
L 340.703623 477.977112 
L 341.371083 479.733091 
L 342.038544 478.693025 
L 342.706004 479.6598 
L 343.373464 479.836453 
L 344.040925 477.641716 
L 344.708385 479.547295 
L 345.375846 479.227976 
L 346.043306 477.537691 
L 346.710767 479.586541 
L 347.378227 478.523669 
L 348.045688 479.766286 
L 348.713148 478.823477 
L 349.380609 480.11317 
L 350.048069 480.192631 
L 350.715529 478.736475 
L 351.38299 479.039645 
L 352.05045 479.838685 
L 352.717911 479.097012 
L 353.385371 478.079216 
L 354.052832 479.74038 
L 354.720292 477.978756 
L 355.387753 479.533955 
L 356.055213 478.538593 
L 356.722674 479.433546 
L 357.390134 479.44467 
L 358.057594 478.962762 
L 358.725055 478.184273 
L 359.392515 480.112137 
L 360.059976 478.62358 
L 361.394897 479.896119 
L 362.062357 477.980354 
L 362.729818 480.164857 
L 363.397278 478.602256 
L 364.064739 479.809894 
L 364.732199 479.778861 
L 365.399659 479.496483 
L 366.06712 478.737134 
L 366.73458 479.781225 
L 367.402041 479.18007 
L 368.069501 479.122321 
L 368.736962 479.98246 
L 369.404422 478.312226 
L 370.071883 479.834 
L 370.739343 478.349398 
L 371.406804 479.52826 
L 372.074264 479.930185 
L 372.741724 478.911903 
L 373.409185 479.074055 
L 374.076645 479.49185 
L 374.744106 478.856897 
L 376.079027 479.815986 
L 376.746487 478.185258 
L 377.413948 479.696302 
L 378.081408 477.668811 
L 378.748869 479.937414 
L 379.416329 479.813122 
L 380.083789 478.722477 
L 380.75125 479.230907 
L 381.41871 479.96918 
L 382.086171 479.24943 
L 382.753631 479.419328 
L 383.421092 480.154646 
L 384.088552 477.946375 
L 384.756013 479.831435 
L 385.423473 477.918203 
L 386.090934 479.82568 
L 386.758394 479.809524 
L 387.425854 479.164572 
L 388.093315 479.502588 
L 388.760775 480.219024 
L 389.428236 478.825244 
L 390.095696 478.416633 
L 390.763157 479.539689 
L 391.430617 477.603572 
L 392.098078 480.230734 
L 392.765538 478.13083 
L 393.432999 480.187837 
L 394.100459 480.1636 
L 394.767919 478.693821 
L 395.43538 480.250177 
L 396.10284 480.098789 
L 396.770301 479.26733 
L 397.437761 480.215483 
L 398.105222 480.189431 
L 398.772682 478.188928 
L 399.440143 479.112585 
L 400.107603 478.080128 
L 400.775064 479.773838 
L 402.777445 479.44609 
L 403.444905 480.173812 
L 404.112366 478.815927 
L 404.779826 480.332095 
L 405.447287 479.701791 
L 406.114747 478.884575 
L 406.782208 480.299144 
L 407.449668 478.241523 
L 408.117129 480.243245 
L 408.784589 479.313454 
L 409.45205 479.670822 
L 410.11951 480.340015 
L 410.78697 480.529984 
L 411.454431 479.351624 
L 412.121891 480.639495 
L 412.789352 479.558966 
L 413.456812 478.149882 
L 414.124273 480.155487 
L 414.791733 478.743648 
L 415.459194 480.381365 
L 416.126654 478.906568 
L 416.794115 480.241113 
L 417.461575 480.341494 
L 418.129035 480.255062 
L 418.796496 479.723731 
L 419.463956 479.490982 
L 420.131417 480.196609 
L 420.798877 479.371226 
L 421.466338 478.738251 
L 422.133798 477.921059 
L 422.801259 480.732394 
L 423.468719 478.997835 
L 424.13618 480.047224 
L 424.80364 480.639176 
L 425.4711 480.377455 
L 426.138561 479.771484 
L 426.806021 480.619776 
L 428.140942 478.801156 
L 428.808403 480.654213 
L 429.475863 478.840356 
L 430.143324 480.551229 
L 430.810784 479.758594 
L 431.478245 480.651653 
L 432.145705 480.555054 
L 432.813165 479.968694 
L 433.480626 480.168561 
L 434.148086 480.122484 
L 434.815547 479.035084 
L 435.483007 480.160891 
L 436.150468 480.580843 
L 436.817928 479.104461 
L 437.485389 480.764996 
L 438.152849 479.104175 
L 438.82031 480.474846 
L 439.48777 480.355465 
L 440.15523 479.329552 
L 441.490151 480.469138 
L 442.157612 479.229445 
L 442.825072 479.813976 
L 443.492533 480.627118 
L 444.159993 478.839397 
L 444.827454 480.598457 
L 445.498251 478.618434 
L 446.165712 480.948579 
L 446.833172 480.345595 
L 448.168093 479.99667 
L 448.835554 480.649931 
L 449.503014 479.892319 
L 450.170475 480.00252 
L 450.837935 480.512921 
L 451.505396 478.925295 
L 452.172856 480.766105 
L 452.840316 479.122313 
L 453.507777 480.453972 
L 454.175237 480.854766 
L 454.842698 479.95817 
L 455.510158 480.899959 
L 456.177619 480.46141 
L 456.845079 480.179496 
L 457.51254 480.612886 
L 458.18 480.819969 
L 458.847461 478.910467 
L 459.514921 480.654718 
L 460.182381 478.978327 
L 460.849842 480.914518 
L 461.517302 478.989125 
L 463.519684 480.440537 
L 464.187144 479.974044 
L 464.854605 480.594828 
L 466.189526 479.050338 
L 466.856986 480.850202 
L 467.524446 478.999259 
L 468.191907 479.895735 
L 468.859367 479.673424 
L 469.526828 480.781683 
L 470.194288 480.663686 
L 470.861749 480.019051 
L 471.529209 479.834876 
L 472.19667 480.873289 
L 472.86413 479.865429 
L 473.531591 478.367771 
L 474.199051 480.855552 
L 474.866511 479.181695 
L 475.533972 480.581866 
L 476.201432 479.04972 
L 476.868893 480.304847 
L 477.536353 480.812182 
L 478.871274 478.741187 
L 479.538735 480.75892 
L 480.206195 479.802844 
L 480.873656 478.516654 
L 481.541116 479.931559 
L 482.208576 478.592736 
L 482.876037 480.868928 
L 483.543497 479.704786 
L 484.210958 479.911663 
L 484.878418 480.318851 
L 485.545879 480.874438 
L 486.213339 479.178931 
L 486.8808 479.756205 
L 487.54826 479.821186 
L 488.215721 479.64377 
L 488.883181 480.497462 
L 489.550641 477.523209 
L 490.218102 480.422958 
L 490.885562 480.224422 
L 491.553023 480.487203 
L 492.220483 480.372445 
L 492.887944 480.088286 
L 494.222865 480.417453 
L 494.890325 479.249025 
L 495.557786 479.745409 
L 496.225246 479.902112 
L 496.892706 480.245812 
L 497.560167 478.887726 
L 498.227627 480.73642 
L 498.895088 479.925586 
L 500.230009 480.551867 
L 500.897469 479.77644 
L 501.56493 480.434345 
L 502.23239 479.175152 
L 503.567311 480.08025 
L 504.234772 478.200563 
L 504.902232 480.251475 
L 505.569692 479.076154 
L 506.237153 480.136406 
L 506.904613 480.366805 
L 507.572074 479.935757 
L 508.239534 480.397838 
L 508.906995 480.127112 
L 509.574455 479.675262 
L 510.241916 480.501356 
L 510.909376 480.309485 
L 511.576837 478.731643 
L 512.244297 480.058171 
L 512.911757 478.356674 
L 513.579218 480.510984 
L 514.246678 478.480747 
L 514.914139 480.353686 
L 516.24906 480.181445 
L 518.918902 479.367233 
L 519.586362 480.457856 
L 520.253822 478.634489 
L 520.921283 479.551935 
L 521.588743 479.27089 
L 522.256204 480.200543 
L 522.923664 480.422327 
L 523.591125 479.181604 
L 524.258585 478.970037 
L 524.926046 479.829201 
L 525.593506 479.01344 
L 526.260967 479.397161 
L 526.928427 480.006027 
L 527.595887 478.122045 
L 528.263348 480.14216 
L 528.930808 479.082114 
L 529.598269 480.186782 
L 530.265729 480.180918 
L 530.93319 479.550794 
L 531.60065 479.205074 
L 532.268111 480.047926 
L 532.935571 478.230994 
L 533.603032 477.999497 
L 534.270492 480.166039 
L 534.937952 478.392573 
L 535.605413 479.743745 
L 536.272873 479.215129 
L 536.940334 479.990404 
L 537.607794 480.241924 
L 538.275255 478.089957 
L 538.942715 478.428331 
L 539.610176 480.290233 
L 540.277636 479.052609 
L 540.945097 478.696547 
L 541.612557 480.231536 
L 542.280017 477.936813 
L 542.947478 479.613744 
L 543.614938 478.336434 
L 544.282399 479.900458 
L 544.949859 479.77321 
L 545.61732 479.158 
L 546.28478 479.122808 
L 546.952241 480.020718 
L 547.619701 479.078981 
L 548.287162 478.624007 
L 548.954622 478.865302 
L 549.622082 477.347413 
L 550.289543 480.165488 
L 550.957003 478.732545 
L 551.624464 479.753352 
L 552.291924 480.220823 
L 552.959385 479.280574 
L 554.294306 480.333341 
L 554.961766 478.741768 
L 555.629227 479.771237 
L 556.296687 479.37389 
L 556.964147 478.083099 
L 557.631608 479.660308 
L 558.299068 477.537583 
L 558.966529 480.136302 
L 560.30145 479.029587 
L 560.96891 479.990145 
L 561.636371 479.764465 
L 562.303831 479.14423 
L 562.971292 479.735866 
L 563.638752 478.957462 
L 564.306212 478.353596 
L 564.973673 480.035248 
L 565.641133 478.070377 
L 566.308594 480.219514 
L 566.976054 478.606422 
L 567.643515 479.843699 
L 568.310975 479.86101 
L 568.978436 479.467246 
L 569.645896 478.715601 
L 570.313357 480.00308 
L 570.980817 478.909261 
L 571.648278 478.782776 
L 572.315738 480.298374 
L 572.983198 477.958414 
L 573.650659 479.576314 
L 574.318119 479.861997 
L 574.98558 478.336375 
L 575.65304 479.646924 
L 576.987961 479.997424 
L 577.655422 478.590967 
L 578.322882 480.057451 
L 578.990343 478.413621 
L 579.657803 479.638178 
L 580.325263 477.604956 
L 580.992724 479.839191 
L 581.660184 477.961438 
L 582.327645 480.135387 
L 582.995105 479.771229 
L 584.330026 479.477347 
L 584.997487 479.769749 
L 585.664947 478.977152 
L 586.332408 479.132461 
L 586.999868 480.079697 
L 587.667328 478.056355 
L 588.334789 479.903239 
L 589.002249 478.457627 
L 589.66971 480.138408 
L 590.33717 480.26161 
L 591.004631 479.493312 
L 591.672091 479.12451 
L 592.339552 480.166895 
L 593.007012 479.048141 
L 594.341933 480.241058 
L 595.009393 478.07973 
L 595.676854 479.730734 
L 596.344314 478.28736 
L 597.011775 479.951688 
L 597.679235 480.144706 
L 598.346696 479.737161 
L 599.014156 480.092207 
L 599.681617 480.171159 
L 600.349077 478.882943 
L 601.016538 480.465816 
L 602.351458 477.851943 
L 603.018919 479.70385 
L 603.686379 478.273857 
L 604.35384 479.648436 
L 605.0213 479.446514 
L 605.688761 479.408267 
L 606.356221 480.110101 
L 607.023682 479.656177 
L 607.691142 479.377735 
L 608.358603 480.322465 
L 609.026063 479.612648 
L 609.693523 478.061484 
L 610.360984 480.276227 
L 611.028444 478.877286 
L 611.695905 479.980152 
L 612.363365 479.833664 
L 613.030826 480.246402 
L 613.698286 479.816873 
L 614.365747 480.131336 
L 615.033207 479.524096 
L 615.700668 480.004711 
L 616.368128 479.35352 
L 617.035588 479.282156 
L 617.703049 480.446672 
L 618.370509 478.500209 
L 619.03797 479.610819 
L 619.70543 479.155653 
L 620.372891 480.678268 
L 621.040351 480.325937 
L 621.707812 479.195232 
L 622.375272 479.525792 
L 623.042733 480.349292 
L 623.710193 479.640801 
L 624.377653 479.853479 
L 625.045114 480.249039 
L 625.712574 479.02984 
L 626.380035 480.186077 
L 627.047495 478.554574 
L 627.714956 479.712691 
L 628.382416 480.13304 
L 629.049877 479.581572 
L 629.717337 479.283235 
L 630.384798 479.918754 
L 631.052258 479.473631 
L 631.719719 479.350525 
L 632.387179 479.9714 
L 633.054639 479.118158 
L 633.7221 480.198738 
L 634.38956 478.393117 
L 635.057021 480.243693 
L 635.724481 480.200149 
L 636.391942 479.166884 
L 637.059402 480.266522 
L 637.726863 480.276646 
L 638.394323 479.276266 
L 639.061784 479.564774 
L 639.729244 480.38629 
L 640.396704 478.728463 
L 641.064165 479.88802 
L 641.731625 478.710222 
L 642.399086 480.015522 
L 643.066546 479.081275 
L 643.734007 480.447397 
L 644.401467 480.363674 
L 645.068928 480.038064 
L 645.736388 479.232321 
L 646.403849 480.210405 
L 647.071309 479.100209 
L 647.738769 478.328585 
L 648.40623 480.026885 
L 649.07369 478.433531 
L 649.741151 479.993987 
L 650.408611 479.352206 
L 651.076072 480.180655 
L 653.078453 480.175798 
L 653.745914 479.635308 
L 654.413374 480.027423 
L 655.080834 479.7095 
L 655.748295 478.586582 
L 656.415755 479.80839 
L 657.083216 478.610075 
L 658.418137 479.998759 
L 659.753058 479.59652 
L 660.420518 479.928526 
L 661.087979 479.845775 
L 661.755439 479.105566 
L 663.09036 479.928858 
L 663.75782 478.451151 
L 664.425281 480.271758 
L 665.092741 478.202793 
L 665.760202 480.195934 
L 666.427662 479.610665 
L 667.095123 480.198119 
L 667.762583 478.935552 
L 668.430044 479.708686 
L 669.097504 479.535489 
L 669.764964 479.09707 
L 670.432425 479.969448 
L 671.099885 478.387545 
L 671.767346 480.157666 
L 672.434806 478.146706 
L 673.102267 479.905948 
L 673.769727 480.063152 
L 674.437188 479.637245 
L 675.104648 480.196568 
L 675.772109 480.109236 
L 676.439569 478.947036 
L 677.107029 480.204671 
L 677.77449 479.524624 
L 678.44195 476.315282 
L 679.109411 479.852307 
L 679.776871 478.314846 
L 680.444332 480.108309 
L 681.111792 479.980909 
L 681.779253 478.97278 
L 682.446713 479.68775 
L 683.114174 480.065391 
L 683.781634 479.303663 
L 684.449094 479.686491 
L 685.116555 478.370026 
L 685.784015 478.267544 
L 686.451476 479.859568 
L 687.118936 478.139803 
L 687.786397 479.775632 
L 688.453857 479.024095 
L 689.121318 479.701437 
L 689.788778 479.973488 
L 690.456239 479.6801 
L 691.123699 478.719537 
L 691.791159 480.030996 
L 692.45862 479.502747 
L 693.12608 477.878138 
L 693.793541 480.138167 
L 694.461001 478.417343 
L 695.128462 479.677601 
L 695.795922 479.430901 
L 696.463383 480.034918 
L 697.130843 480.050346 
L 697.798304 479.354531 
L 698.465764 479.236503 
L 699.133225 479.730695 
L 699.800685 479.276843 
L 700.468145 479.232315 
L 701.135606 479.910556 
L 701.803066 478.528775 
L 702.470527 479.564844 
L 703.137987 477.767888 
L 703.805448 480.225029 
L 704.472908 480.025024 
L 705.140369 479.422735 
L 705.807829 479.741859 
L 706.47529 479.872804 
L 707.14275 478.636831 
L 708.477671 480.262969 
L 709.145131 477.993041 
L 709.812592 479.883036 
L 710.480052 477.920927 
L 711.147513 479.883739 
L 711.814973 479.967114 
L 712.482434 479.85725 
L 713.149894 479.229989 
L 713.817355 479.763969 
L 714.484815 479.140671 
L 715.152275 479.444528 
L 715.819736 480.01105 
L 716.487196 477.69677 
L 717.154657 480.234303 
L 717.822117 478.149202 
L 719.827836 479.954746 
L 720.491959 480.078532 
L 721.15942 479.318928 
L 721.82688 478.989637 
L 722.49434 480.044995 
L 723.161801 479.290173 
L 723.829261 477.822521 
L 719.827836 479.954746 
L 720.491959 480.078532 
L 721.15942 479.318928 
L 721.82688 478.989637 
L 722.49434 480.044995 
L 723.161801 479.290173 
L 723.829261 477.822521 
L 115.101989 480.085024 
L 115.766112 478.396126 
L 116.433572 479.811854 
L 117.101033 478.905315 
L 117.768493 480.329378 
L 117.768493 480.329378 
" clip-path="url(#p9036a28c74)" style="fill: none; stroke: #ac2b37; stroke-width: 1.5; stroke-linecap: square"/>
   </g>
   <g id="patch_3">
    <path d="M 84.665625 501.3525 
L 84.665625 57.8325 
" style="fill: none; stroke: #000000; stroke-width: 0.8; stroke-linejoin: miter; stroke-linecap: square"/>
   </g>
   <g id="patch_4">
    <path d="M 754.265625 501.3525 
L 754.265625 57.8325 
" style="fill: none; stroke: #000000; stroke-width: 0.8; stroke-linejoin: miter; stroke-linecap: square"/>
   </g>
   <g id="patch_5">
    <path d="M 84.665625 501.3525 
L 754.265625 501.3525 
" style="fill: none; stroke: #000000; stroke-width: 0.8; stroke-linejoin: miter; stroke-linecap: square"/>
   </g>
   <g id="patch_6">
    <path d="M 84.665625 57.8325 
L 754.265625 57.8325 
" style="fill: none; stroke: #000000; stroke-width: 0.8; stroke-linejoin: miter; stroke-linecap: square"/>
   </g>
   <g id="text_16">
    <!-- Efficiency vs Time -->
    <g transform="translate(332.95875 51.8325) scale(0.24 -0.24)">
     <defs>
      <path id="AptosDisplay-76" d="M 1103 0 
L -13 3044 
L 538 3044 
L 1391 513 
L 2250 3044 
L 2781 3044 
L 1678 0 
L 1103 0 
z
" transform="scale(0.015625)"/>
      <path id="AptosDisplay-73" d="M 1506 -41 
Q 1247 -41 1017 14 
Q 788 69 613 191 
Q 438 313 339 506 
Q 241 700 241 978 
L 744 978 
Q 744 628 966 487 
Q 1188 347 1519 347 
Q 1816 347 2008 458 
Q 2200 569 2200 822 
Q 2200 1047 2026 1153 
Q 1853 1259 1413 1369 
Q 1056 1453 815 1564 
Q 575 1675 453 1845 
Q 331 2016 331 2275 
Q 331 2475 417 2626 
Q 503 2778 658 2879 
Q 813 2981 1020 3032 
Q 1228 3084 1472 3084 
Q 1713 3084 1923 3028 
Q 2134 2972 2296 2855 
Q 2459 2738 2551 2552 
Q 2644 2366 2644 2109 
L 2138 2109 
Q 2138 2425 1945 2558 
Q 1753 2691 1472 2691 
Q 1191 2691 1016 2594 
Q 841 2497 841 2291 
Q 841 2169 919 2084 
Q 997 2000 1181 1933 
Q 1366 1866 1675 1791 
Q 2019 1709 2248 1596 
Q 2478 1484 2595 1306 
Q 2713 1128 2713 847 
Q 2713 616 2622 447 
Q 2531 278 2367 170 
Q 2203 63 1983 11 
Q 1763 -41 1506 -41 
z
" transform="scale(0.015625)"/>
     </defs>
     <use xlink:href="#AptosDisplay-45"/>
     <use xlink:href="#AptosDisplay-66" x="54.052734"/>
     <use xlink:href="#AptosDisplay-66" x="82.373047"/>
     <use xlink:href="#AptosDisplay-69" x="110.693359"/>
     <use xlink:href="#AptosDisplay-63" x="131.738281"/>
     <use xlink:href="#AptosDisplay-69" x="181.005859"/>
     <use xlink:href="#AptosDisplay-65" x="202.050781"/>
     <use xlink:href="#AptosDisplay-6e" x="251.464844"/>
     <use xlink:href="#AptosDisplay-63" x="302.050781"/>
     <use xlink:href="#AptosDisplay-79" x="351.318359"/>
     <use xlink:href="#AptosDisplay-20" x="394.580078"/>
     <use xlink:href="#AptosDisplay-76" x="413.867188"/>
     <use xlink:href="#AptosDisplay-73" x="457.128906"/>
     <use xlink:href="#AptosDisplay-20" x="503.417969"/>
     <use xlink:href="#AptosDisplay-54" x="522.705078"/>
     <use xlink:href="#AptosDisplay-69" x="570.410156"/>
     <use xlink:href="#AptosDisplay-6d" x="591.455078"/>
     <use xlink:href="#AptosDisplay-65" x="671.435547"/>
    </g>
   </g>
  </g>
 </g>
 <defs>
  <clipPath id="p9036a28c74">
   <rect x="84.665625" y="57.8325" width="669.6" height="443.52"/>
  </clipPath>
 </defs>
</svg>
