<?xml version="1.0" encoding="utf-8" standalone="no"?>
<!DOCTYPE svg PUBLIC "-//W3C//DTD SVG 1.1//EN"
  "http://www.w3.org/Graphics/SVG/1.1/DTD/svg11.dtd">
<svg xmlns:xlink="http://www.w3.org/1999/xlink" width="800.88125pt" height="581.830625pt" viewBox="0 0 800.88125 581.830625" xmlns="http://www.w3.org/2000/svg" version="1.1">
 <metadata>
  <rdf:RDF xmlns:dc="http://purl.org/dc/elements/1.1/" xmlns:cc="http://creativecommons.org/ns#" xmlns:rdf="http://www.w3.org/1999/02/22-rdf-syntax-ns#">
   <cc:Work>
    <dc:type rdf:resource="http://purl.org/dc/dcmitype/StillImage"/>
    <dc:date>2025-04-03T01:48:36.083323</dc:date>
    <dc:format>image/svg+xml</dc:format>
    <dc:creator>
     <cc:Agent>
      <dc:title>Matplotlib v3.8.2, https://matplotlib.org/</dc:title>
     </cc:Agent>
    </dc:creator>
   </cc:Work>
  </rdf:RDF>
 </metadata>
 <defs>
  <style type="text/css">*{stroke-linejoin: round; stroke-linecap: butt}</style>
 </defs>
 <g id="figure_1">
  <g id="patch_1">
   <path d="M 0 581.830625 
L 800.88125 581.830625 
L 800.88125 0 
L 0 0 
z
" style="fill: #ffffff"/>
  </g>
  <g id="axes_1">
   <g id="patch_2">
    <path d="M 95.28125 501.3525 
L 764.88125 501.3525 
L 764.88125 57.8325 
L 95.28125 57.8325 
z
" style="fill: #ffffff"/>
   </g>
   <g id="matplotlib.axis_1">
    <g id="xtick_1">
     <g id="line2d_1">
      <path d="M 125.023238 501.3525 
L 125.023238 57.8325 
" clip-path="url(#p9729cc86e5)" style="fill: none; stroke: #b0b0b0; stroke-opacity: 0.8; stroke-linecap: square"/>
     </g>
     <g id="line2d_2">
      <defs>
       <path id="mdb9b10fef7" d="M 0 0 
L 0 3.5 
" style="stroke: #000000; stroke-width: 0.8"/>
      </defs>
      <g>
       <use xlink:href="#mdb9b10fef7" x="125.023238" y="501.3525" style="stroke: #000000; stroke-width: 0.8"/>
      </g>
     </g>
     <g id="text_1">
      <!-- 0 -->
      <g transform="translate(119.793551 521.49625) scale(0.2 -0.2)">
       <defs>
        <path id="AptosDisplay-30" d="M 1672 -56 
Q 1291 -56 1028 105 
Q 766 266 605 552 
Q 444 838 372 1216 
Q 300 1594 300 2031 
Q 300 2475 372 2856 
Q 444 3238 605 3525 
Q 766 3813 1028 3973 
Q 1291 4134 1672 4134 
Q 2053 4134 2317 3975 
Q 2581 3816 2742 3527 
Q 2903 3238 2975 2858 
Q 3047 2478 3047 2038 
Q 3047 1597 2975 1217 
Q 2903 838 2742 552 
Q 2581 266 2318 105 
Q 2056 -56 1672 -56 
z
M 1672 409 
Q 1916 409 2073 550 
Q 2231 691 2322 925 
Q 2413 1159 2448 1448 
Q 2484 1738 2484 2038 
Q 2484 2338 2448 2628 
Q 2413 2919 2322 3153 
Q 2231 3388 2073 3527 
Q 1916 3666 1669 3666 
Q 1428 3666 1268 3527 
Q 1109 3388 1020 3153 
Q 931 2919 893 2628 
Q 856 2338 856 2038 
Q 856 1741 893 1450 
Q 931 1159 1020 925 
Q 1109 691 1268 550 
Q 1428 409 1672 409 
z
" transform="scale(0.015625)"/>
       </defs>
       <use xlink:href="#AptosDisplay-30"/>
      </g>
     </g>
    </g>
    <g id="xtick_2">
     <g id="line2d_3">
      <path d="M 206.141881 501.3525 
L 206.141881 57.8325 
" clip-path="url(#p9729cc86e5)" style="fill: none; stroke: #b0b0b0; stroke-opacity: 0.8; stroke-linecap: square"/>
     </g>
     <g id="line2d_4">
      <g>
       <use xlink:href="#mdb9b10fef7" x="206.141881" y="501.3525" style="stroke: #000000; stroke-width: 0.8"/>
      </g>
     </g>
     <g id="text_2">
      <!-- 25 -->
      <g transform="translate(195.682506 521.49625) scale(0.2 -0.2)">
       <defs>
        <path id="AptosDisplay-32" d="M 247 0 
L 247 413 
L 1725 1741 
Q 2100 2081 2269 2351 
Q 2438 2622 2438 2938 
Q 2438 3256 2263 3461 
Q 2088 3666 1691 3666 
Q 1247 3666 1055 3439 
Q 863 3213 863 2869 
L 341 2869 
Q 341 3250 491 3534 
Q 641 3819 941 3975 
Q 1241 4131 1691 4131 
Q 2103 4131 2390 3986 
Q 2678 3841 2828 3578 
Q 2978 3316 2978 2959 
Q 2978 2638 2853 2375 
Q 2728 2113 2517 1883 
Q 2306 1653 2044 1425 
L 959 463 
L 3097 463 
L 3097 0 
L 247 0 
z
" transform="scale(0.015625)"/>
        <path id="AptosDisplay-35" d="M 1669 -56 
Q 1278 -56 964 83 
Q 650 222 465 483 
Q 281 744 281 1113 
L 816 1113 
Q 816 778 1055 584 
Q 1294 391 1669 391 
Q 2069 391 2291 625 
Q 2513 859 2513 1319 
Q 2513 1772 2291 1989 
Q 2069 2206 1697 2206 
Q 1409 2206 1223 2123 
Q 1038 2041 916 1894 
L 444 1894 
L 622 4078 
L 2788 4078 
L 2788 3613 
L 1041 3613 
L 931 2322 
Q 1044 2453 1251 2550 
Q 1459 2647 1775 2647 
Q 2131 2647 2420 2506 
Q 2709 2366 2881 2072 
Q 3053 1778 3053 1319 
Q 3053 863 2875 558 
Q 2697 253 2384 98 
Q 2072 -56 1669 -56 
z
" transform="scale(0.015625)"/>
       </defs>
       <use xlink:href="#AptosDisplay-32"/>
       <use xlink:href="#AptosDisplay-35" x="52.294922"/>
      </g>
     </g>
    </g>
    <g id="xtick_3">
     <g id="line2d_5">
      <path d="M 287.260523 501.3525 
L 287.260523 57.8325 
" clip-path="url(#p9729cc86e5)" style="fill: none; stroke: #b0b0b0; stroke-opacity: 0.8; stroke-linecap: square"/>
     </g>
     <g id="line2d_6">
      <g>
       <use xlink:href="#mdb9b10fef7" x="287.260523" y="501.3525" style="stroke: #000000; stroke-width: 0.8"/>
      </g>
     </g>
     <g id="text_3">
      <!-- 50 -->
      <g transform="translate(276.801148 521.49625) scale(0.2 -0.2)">
       <use xlink:href="#AptosDisplay-35"/>
       <use xlink:href="#AptosDisplay-30" x="52.294922"/>
      </g>
     </g>
    </g>
    <g id="xtick_4">
     <g id="line2d_7">
      <path d="M 368.379166 501.3525 
L 368.379166 57.8325 
" clip-path="url(#p9729cc86e5)" style="fill: none; stroke: #b0b0b0; stroke-opacity: 0.8; stroke-linecap: square"/>
     </g>
     <g id="line2d_8">
      <g>
       <use xlink:href="#mdb9b10fef7" x="368.379166" y="501.3525" style="stroke: #000000; stroke-width: 0.8"/>
      </g>
     </g>
     <g id="text_4">
      <!-- 75 -->
      <g transform="translate(357.919791 521.49625) scale(0.2 -0.2)">
       <defs>
        <path id="AptosDisplay-37" d="M 766 0 
L 2609 3600 
L 194 3600 
L 194 4078 
L 3141 4078 
L 3141 3622 
L 1334 0 
L 766 0 
z
" transform="scale(0.015625)"/>
       </defs>
       <use xlink:href="#AptosDisplay-37"/>
       <use xlink:href="#AptosDisplay-35" x="52.294922"/>
      </g>
     </g>
    </g>
    <g id="xtick_5">
     <g id="line2d_9">
      <path d="M 449.497808 501.3525 
L 449.497808 57.8325 
" clip-path="url(#p9729cc86e5)" style="fill: none; stroke: #b0b0b0; stroke-opacity: 0.8; stroke-linecap: square"/>
     </g>
     <g id="line2d_10">
      <g>
       <use xlink:href="#mdb9b10fef7" x="449.497808" y="501.3525" style="stroke: #000000; stroke-width: 0.8"/>
      </g>
     </g>
     <g id="text_5">
      <!-- 100 -->
      <g transform="translate(433.808746 521.49625) scale(0.2 -0.2)">
       <defs>
        <path id="AptosDisplay-31" d="M 1659 0 
L 1659 3425 
Q 1575 3309 1420 3201 
Q 1266 3094 1052 3009 
Q 838 2925 578 2888 
L 578 3381 
Q 834 3425 1057 3540 
Q 1281 3656 1453 3806 
Q 1625 3956 1719 4094 
L 2206 4094 
L 2206 0 
L 1659 0 
z
" transform="scale(0.015625)"/>
       </defs>
       <use xlink:href="#AptosDisplay-31"/>
       <use xlink:href="#AptosDisplay-30" x="52.294922"/>
       <use xlink:href="#AptosDisplay-30" x="104.589844"/>
      </g>
     </g>
    </g>
    <g id="xtick_6">
     <g id="line2d_11">
      <path d="M 530.616451 501.3525 
L 530.616451 57.8325 
" clip-path="url(#p9729cc86e5)" style="fill: none; stroke: #b0b0b0; stroke-opacity: 0.8; stroke-linecap: square"/>
     </g>
     <g id="line2d_12">
      <g>
       <use xlink:href="#mdb9b10fef7" x="530.616451" y="501.3525" style="stroke: #000000; stroke-width: 0.8"/>
      </g>
     </g>
     <g id="text_6">
      <!-- 125 -->
      <g transform="translate(514.927388 521.49625) scale(0.2 -0.2)">
       <use xlink:href="#AptosDisplay-31"/>
       <use xlink:href="#AptosDisplay-32" x="52.294922"/>
       <use xlink:href="#AptosDisplay-35" x="104.589844"/>
      </g>
     </g>
    </g>
    <g id="xtick_7">
     <g id="line2d_13">
      <path d="M 611.735093 501.3525 
L 611.735093 57.8325 
" clip-path="url(#p9729cc86e5)" style="fill: none; stroke: #b0b0b0; stroke-opacity: 0.8; stroke-linecap: square"/>
     </g>
     <g id="line2d_14">
      <g>
       <use xlink:href="#mdb9b10fef7" x="611.735093" y="501.3525" style="stroke: #000000; stroke-width: 0.8"/>
      </g>
     </g>
     <g id="text_7">
      <!-- 150 -->
      <g transform="translate(596.046031 521.49625) scale(0.2 -0.2)">
       <use xlink:href="#AptosDisplay-31"/>
       <use xlink:href="#AptosDisplay-35" x="52.294922"/>
       <use xlink:href="#AptosDisplay-30" x="104.589844"/>
      </g>
     </g>
    </g>
    <g id="xtick_8">
     <g id="line2d_15">
      <path d="M 692.853736 501.3525 
L 692.853736 57.8325 
" clip-path="url(#p9729cc86e5)" style="fill: none; stroke: #b0b0b0; stroke-opacity: 0.8; stroke-linecap: square"/>
     </g>
     <g id="line2d_16">
      <g>
       <use xlink:href="#mdb9b10fef7" x="692.853736" y="501.3525" style="stroke: #000000; stroke-width: 0.8"/>
      </g>
     </g>
     <g id="text_8">
      <!-- 175 -->
      <g transform="translate(677.164673 521.49625) scale(0.2 -0.2)">
       <use xlink:href="#AptosDisplay-31"/>
       <use xlink:href="#AptosDisplay-37" x="52.294922"/>
       <use xlink:href="#AptosDisplay-35" x="104.589844"/>
      </g>
     </g>
    </g>
    <g id="xtick_9">
     <g id="line2d_17">
      <path d="M 108.79951 501.3525 
L 108.79951 57.8325 
" clip-path="url(#p9729cc86e5)" style="fill: none; stroke-dasharray: 1.85,0.8; stroke-dashoffset: 0; stroke: #b0b0b0; stroke-opacity: 0.8; stroke-width: 0.5"/>
     </g>
     <g id="line2d_18">
      <defs>
       <path id="m0d13a57812" d="M 0 0 
L 0 2 
" style="stroke: #000000; stroke-width: 0.6"/>
      </defs>
      <g>
       <use xlink:href="#m0d13a57812" x="108.79951" y="501.3525" style="stroke: #000000; stroke-width: 0.6"/>
      </g>
     </g>
    </g>
    <g id="xtick_10">
     <g id="line2d_19">
      <path d="M 141.246967 501.3525 
L 141.246967 57.8325 
" clip-path="url(#p9729cc86e5)" style="fill: none; stroke-dasharray: 1.85,0.8; stroke-dashoffset: 0; stroke: #b0b0b0; stroke-opacity: 0.8; stroke-width: 0.5"/>
     </g>
     <g id="line2d_20">
      <g>
       <use xlink:href="#m0d13a57812" x="141.246967" y="501.3525" style="stroke: #000000; stroke-width: 0.6"/>
      </g>
     </g>
    </g>
    <g id="xtick_11">
     <g id="line2d_21">
      <path d="M 157.470695 501.3525 
L 157.470695 57.8325 
" clip-path="url(#p9729cc86e5)" style="fill: none; stroke-dasharray: 1.85,0.8; stroke-dashoffset: 0; stroke: #b0b0b0; stroke-opacity: 0.8; stroke-width: 0.5"/>
     </g>
     <g id="line2d_22">
      <g>
       <use xlink:href="#m0d13a57812" x="157.470695" y="501.3525" style="stroke: #000000; stroke-width: 0.6"/>
      </g>
     </g>
    </g>
    <g id="xtick_12">
     <g id="line2d_23">
      <path d="M 173.694424 501.3525 
L 173.694424 57.8325 
" clip-path="url(#p9729cc86e5)" style="fill: none; stroke-dasharray: 1.85,0.8; stroke-dashoffset: 0; stroke: #b0b0b0; stroke-opacity: 0.8; stroke-width: 0.5"/>
     </g>
     <g id="line2d_24">
      <g>
       <use xlink:href="#m0d13a57812" x="173.694424" y="501.3525" style="stroke: #000000; stroke-width: 0.6"/>
      </g>
     </g>
    </g>
    <g id="xtick_13">
     <g id="line2d_25">
      <path d="M 189.918152 501.3525 
L 189.918152 57.8325 
" clip-path="url(#p9729cc86e5)" style="fill: none; stroke-dasharray: 1.85,0.8; stroke-dashoffset: 0; stroke: #b0b0b0; stroke-opacity: 0.8; stroke-width: 0.5"/>
     </g>
     <g id="line2d_26">
      <g>
       <use xlink:href="#m0d13a57812" x="189.918152" y="501.3525" style="stroke: #000000; stroke-width: 0.6"/>
      </g>
     </g>
    </g>
    <g id="xtick_14">
     <g id="line2d_27">
      <path d="M 222.365609 501.3525 
L 222.365609 57.8325 
" clip-path="url(#p9729cc86e5)" style="fill: none; stroke-dasharray: 1.85,0.8; stroke-dashoffset: 0; stroke: #b0b0b0; stroke-opacity: 0.8; stroke-width: 0.5"/>
     </g>
     <g id="line2d_28">
      <g>
       <use xlink:href="#m0d13a57812" x="222.365609" y="501.3525" style="stroke: #000000; stroke-width: 0.6"/>
      </g>
     </g>
    </g>
    <g id="xtick_15">
     <g id="line2d_29">
      <path d="M 238.589338 501.3525 
L 238.589338 57.8325 
" clip-path="url(#p9729cc86e5)" style="fill: none; stroke-dasharray: 1.85,0.8; stroke-dashoffset: 0; stroke: #b0b0b0; stroke-opacity: 0.8; stroke-width: 0.5"/>
     </g>
     <g id="line2d_30">
      <g>
       <use xlink:href="#m0d13a57812" x="238.589338" y="501.3525" style="stroke: #000000; stroke-width: 0.6"/>
      </g>
     </g>
    </g>
    <g id="xtick_16">
     <g id="line2d_31">
      <path d="M 254.813066 501.3525 
L 254.813066 57.8325 
" clip-path="url(#p9729cc86e5)" style="fill: none; stroke-dasharray: 1.85,0.8; stroke-dashoffset: 0; stroke: #b0b0b0; stroke-opacity: 0.8; stroke-width: 0.5"/>
     </g>
     <g id="line2d_32">
      <g>
       <use xlink:href="#m0d13a57812" x="254.813066" y="501.3525" style="stroke: #000000; stroke-width: 0.6"/>
      </g>
     </g>
    </g>
    <g id="xtick_17">
     <g id="line2d_33">
      <path d="M 271.036795 501.3525 
L 271.036795 57.8325 
" clip-path="url(#p9729cc86e5)" style="fill: none; stroke-dasharray: 1.85,0.8; stroke-dashoffset: 0; stroke: #b0b0b0; stroke-opacity: 0.8; stroke-width: 0.5"/>
     </g>
     <g id="line2d_34">
      <g>
       <use xlink:href="#m0d13a57812" x="271.036795" y="501.3525" style="stroke: #000000; stroke-width: 0.6"/>
      </g>
     </g>
    </g>
    <g id="xtick_18">
     <g id="line2d_35">
      <path d="M 303.484252 501.3525 
L 303.484252 57.8325 
" clip-path="url(#p9729cc86e5)" style="fill: none; stroke-dasharray: 1.85,0.8; stroke-dashoffset: 0; stroke: #b0b0b0; stroke-opacity: 0.8; stroke-width: 0.5"/>
     </g>
     <g id="line2d_36">
      <g>
       <use xlink:href="#m0d13a57812" x="303.484252" y="501.3525" style="stroke: #000000; stroke-width: 0.6"/>
      </g>
     </g>
    </g>
    <g id="xtick_19">
     <g id="line2d_37">
      <path d="M 319.70798 501.3525 
L 319.70798 57.8325 
" clip-path="url(#p9729cc86e5)" style="fill: none; stroke-dasharray: 1.85,0.8; stroke-dashoffset: 0; stroke: #b0b0b0; stroke-opacity: 0.8; stroke-width: 0.5"/>
     </g>
     <g id="line2d_38">
      <g>
       <use xlink:href="#m0d13a57812" x="319.70798" y="501.3525" style="stroke: #000000; stroke-width: 0.6"/>
      </g>
     </g>
    </g>
    <g id="xtick_20">
     <g id="line2d_39">
      <path d="M 335.931709 501.3525 
L 335.931709 57.8325 
" clip-path="url(#p9729cc86e5)" style="fill: none; stroke-dasharray: 1.85,0.8; stroke-dashoffset: 0; stroke: #b0b0b0; stroke-opacity: 0.8; stroke-width: 0.5"/>
     </g>
     <g id="line2d_40">
      <g>
       <use xlink:href="#m0d13a57812" x="335.931709" y="501.3525" style="stroke: #000000; stroke-width: 0.6"/>
      </g>
     </g>
    </g>
    <g id="xtick_21">
     <g id="line2d_41">
      <path d="M 352.155437 501.3525 
L 352.155437 57.8325 
" clip-path="url(#p9729cc86e5)" style="fill: none; stroke-dasharray: 1.85,0.8; stroke-dashoffset: 0; stroke: #b0b0b0; stroke-opacity: 0.8; stroke-width: 0.5"/>
     </g>
     <g id="line2d_42">
      <g>
       <use xlink:href="#m0d13a57812" x="352.155437" y="501.3525" style="stroke: #000000; stroke-width: 0.6"/>
      </g>
     </g>
    </g>
    <g id="xtick_22">
     <g id="line2d_43">
      <path d="M 384.602894 501.3525 
L 384.602894 57.8325 
" clip-path="url(#p9729cc86e5)" style="fill: none; stroke-dasharray: 1.85,0.8; stroke-dashoffset: 0; stroke: #b0b0b0; stroke-opacity: 0.8; stroke-width: 0.5"/>
     </g>
     <g id="line2d_44">
      <g>
       <use xlink:href="#m0d13a57812" x="384.602894" y="501.3525" style="stroke: #000000; stroke-width: 0.6"/>
      </g>
     </g>
    </g>
    <g id="xtick_23">
     <g id="line2d_45">
      <path d="M 400.826623 501.3525 
L 400.826623 57.8325 
" clip-path="url(#p9729cc86e5)" style="fill: none; stroke-dasharray: 1.85,0.8; stroke-dashoffset: 0; stroke: #b0b0b0; stroke-opacity: 0.8; stroke-width: 0.5"/>
     </g>
     <g id="line2d_46">
      <g>
       <use xlink:href="#m0d13a57812" x="400.826623" y="501.3525" style="stroke: #000000; stroke-width: 0.6"/>
      </g>
     </g>
    </g>
    <g id="xtick_24">
     <g id="line2d_47">
      <path d="M 417.050351 501.3525 
L 417.050351 57.8325 
" clip-path="url(#p9729cc86e5)" style="fill: none; stroke-dasharray: 1.85,0.8; stroke-dashoffset: 0; stroke: #b0b0b0; stroke-opacity: 0.8; stroke-width: 0.5"/>
     </g>
     <g id="line2d_48">
      <g>
       <use xlink:href="#m0d13a57812" x="417.050351" y="501.3525" style="stroke: #000000; stroke-width: 0.6"/>
      </g>
     </g>
    </g>
    <g id="xtick_25">
     <g id="line2d_49">
      <path d="M 433.27408 501.3525 
L 433.27408 57.8325 
" clip-path="url(#p9729cc86e5)" style="fill: none; stroke-dasharray: 1.85,0.8; stroke-dashoffset: 0; stroke: #b0b0b0; stroke-opacity: 0.8; stroke-width: 0.5"/>
     </g>
     <g id="line2d_50">
      <g>
       <use xlink:href="#m0d13a57812" x="433.27408" y="501.3525" style="stroke: #000000; stroke-width: 0.6"/>
      </g>
     </g>
    </g>
    <g id="xtick_26">
     <g id="line2d_51">
      <path d="M 465.721537 501.3525 
L 465.721537 57.8325 
" clip-path="url(#p9729cc86e5)" style="fill: none; stroke-dasharray: 1.85,0.8; stroke-dashoffset: 0; stroke: #b0b0b0; stroke-opacity: 0.8; stroke-width: 0.5"/>
     </g>
     <g id="line2d_52">
      <g>
       <use xlink:href="#m0d13a57812" x="465.721537" y="501.3525" style="stroke: #000000; stroke-width: 0.6"/>
      </g>
     </g>
    </g>
    <g id="xtick_27">
     <g id="line2d_53">
      <path d="M 481.945265 501.3525 
L 481.945265 57.8325 
" clip-path="url(#p9729cc86e5)" style="fill: none; stroke-dasharray: 1.85,0.8; stroke-dashoffset: 0; stroke: #b0b0b0; stroke-opacity: 0.8; stroke-width: 0.5"/>
     </g>
     <g id="line2d_54">
      <g>
       <use xlink:href="#m0d13a57812" x="481.945265" y="501.3525" style="stroke: #000000; stroke-width: 0.6"/>
      </g>
     </g>
    </g>
    <g id="xtick_28">
     <g id="line2d_55">
      <path d="M 498.168994 501.3525 
L 498.168994 57.8325 
" clip-path="url(#p9729cc86e5)" style="fill: none; stroke-dasharray: 1.85,0.8; stroke-dashoffset: 0; stroke: #b0b0b0; stroke-opacity: 0.8; stroke-width: 0.5"/>
     </g>
     <g id="line2d_56">
      <g>
       <use xlink:href="#m0d13a57812" x="498.168994" y="501.3525" style="stroke: #000000; stroke-width: 0.6"/>
      </g>
     </g>
    </g>
    <g id="xtick_29">
     <g id="line2d_57">
      <path d="M 514.392722 501.3525 
L 514.392722 57.8325 
" clip-path="url(#p9729cc86e5)" style="fill: none; stroke-dasharray: 1.85,0.8; stroke-dashoffset: 0; stroke: #b0b0b0; stroke-opacity: 0.8; stroke-width: 0.5"/>
     </g>
     <g id="line2d_58">
      <g>
       <use xlink:href="#m0d13a57812" x="514.392722" y="501.3525" style="stroke: #000000; stroke-width: 0.6"/>
      </g>
     </g>
    </g>
    <g id="xtick_30">
     <g id="line2d_59">
      <path d="M 546.840179 501.3525 
L 546.840179 57.8325 
" clip-path="url(#p9729cc86e5)" style="fill: none; stroke-dasharray: 1.85,0.8; stroke-dashoffset: 0; stroke: #b0b0b0; stroke-opacity: 0.8; stroke-width: 0.5"/>
     </g>
     <g id="line2d_60">
      <g>
       <use xlink:href="#m0d13a57812" x="546.840179" y="501.3525" style="stroke: #000000; stroke-width: 0.6"/>
      </g>
     </g>
    </g>
    <g id="xtick_31">
     <g id="line2d_61">
      <path d="M 563.063908 501.3525 
L 563.063908 57.8325 
" clip-path="url(#p9729cc86e5)" style="fill: none; stroke-dasharray: 1.85,0.8; stroke-dashoffset: 0; stroke: #b0b0b0; stroke-opacity: 0.8; stroke-width: 0.5"/>
     </g>
     <g id="line2d_62">
      <g>
       <use xlink:href="#m0d13a57812" x="563.063908" y="501.3525" style="stroke: #000000; stroke-width: 0.6"/>
      </g>
     </g>
    </g>
    <g id="xtick_32">
     <g id="line2d_63">
      <path d="M 579.287636 501.3525 
L 579.287636 57.8325 
" clip-path="url(#p9729cc86e5)" style="fill: none; stroke-dasharray: 1.85,0.8; stroke-dashoffset: 0; stroke: #b0b0b0; stroke-opacity: 0.8; stroke-width: 0.5"/>
     </g>
     <g id="line2d_64">
      <g>
       <use xlink:href="#m0d13a57812" x="579.287636" y="501.3525" style="stroke: #000000; stroke-width: 0.6"/>
      </g>
     </g>
    </g>
    <g id="xtick_33">
     <g id="line2d_65">
      <path d="M 595.511365 501.3525 
L 595.511365 57.8325 
" clip-path="url(#p9729cc86e5)" style="fill: none; stroke-dasharray: 1.85,0.8; stroke-dashoffset: 0; stroke: #b0b0b0; stroke-opacity: 0.8; stroke-width: 0.5"/>
     </g>
     <g id="line2d_66">
      <g>
       <use xlink:href="#m0d13a57812" x="595.511365" y="501.3525" style="stroke: #000000; stroke-width: 0.6"/>
      </g>
     </g>
    </g>
    <g id="xtick_34">
     <g id="line2d_67">
      <path d="M 627.958822 501.3525 
L 627.958822 57.8325 
" clip-path="url(#p9729cc86e5)" style="fill: none; stroke-dasharray: 1.85,0.8; stroke-dashoffset: 0; stroke: #b0b0b0; stroke-opacity: 0.8; stroke-width: 0.5"/>
     </g>
     <g id="line2d_68">
      <g>
       <use xlink:href="#m0d13a57812" x="627.958822" y="501.3525" style="stroke: #000000; stroke-width: 0.6"/>
      </g>
     </g>
    </g>
    <g id="xtick_35">
     <g id="line2d_69">
      <path d="M 644.18255 501.3525 
L 644.18255 57.8325 
" clip-path="url(#p9729cc86e5)" style="fill: none; stroke-dasharray: 1.85,0.8; stroke-dashoffset: 0; stroke: #b0b0b0; stroke-opacity: 0.8; stroke-width: 0.5"/>
     </g>
     <g id="line2d_70">
      <g>
       <use xlink:href="#m0d13a57812" x="644.18255" y="501.3525" style="stroke: #000000; stroke-width: 0.6"/>
      </g>
     </g>
    </g>
    <g id="xtick_36">
     <g id="line2d_71">
      <path d="M 660.406279 501.3525 
L 660.406279 57.8325 
" clip-path="url(#p9729cc86e5)" style="fill: none; stroke-dasharray: 1.85,0.8; stroke-dashoffset: 0; stroke: #b0b0b0; stroke-opacity: 0.8; stroke-width: 0.5"/>
     </g>
     <g id="line2d_72">
      <g>
       <use xlink:href="#m0d13a57812" x="660.406279" y="501.3525" style="stroke: #000000; stroke-width: 0.6"/>
      </g>
     </g>
    </g>
    <g id="xtick_37">
     <g id="line2d_73">
      <path d="M 676.630007 501.3525 
L 676.630007 57.8325 
" clip-path="url(#p9729cc86e5)" style="fill: none; stroke-dasharray: 1.85,0.8; stroke-dashoffset: 0; stroke: #b0b0b0; stroke-opacity: 0.8; stroke-width: 0.5"/>
     </g>
     <g id="line2d_74">
      <g>
       <use xlink:href="#m0d13a57812" x="676.630007" y="501.3525" style="stroke: #000000; stroke-width: 0.6"/>
      </g>
     </g>
    </g>
    <g id="xtick_38">
     <g id="line2d_75">
      <path d="M 709.077464 501.3525 
L 709.077464 57.8325 
" clip-path="url(#p9729cc86e5)" style="fill: none; stroke-dasharray: 1.85,0.8; stroke-dashoffset: 0; stroke: #b0b0b0; stroke-opacity: 0.8; stroke-width: 0.5"/>
     </g>
     <g id="line2d_76">
      <g>
       <use xlink:href="#m0d13a57812" x="709.077464" y="501.3525" style="stroke: #000000; stroke-width: 0.6"/>
      </g>
     </g>
    </g>
    <g id="xtick_39">
     <g id="line2d_77">
      <path d="M 725.301193 501.3525 
L 725.301193 57.8325 
" clip-path="url(#p9729cc86e5)" style="fill: none; stroke-dasharray: 1.85,0.8; stroke-dashoffset: 0; stroke: #b0b0b0; stroke-opacity: 0.8; stroke-width: 0.5"/>
     </g>
     <g id="line2d_78">
      <g>
       <use xlink:href="#m0d13a57812" x="725.301193" y="501.3525" style="stroke: #000000; stroke-width: 0.6"/>
      </g>
     </g>
    </g>
    <g id="xtick_40">
     <g id="line2d_79">
      <path d="M 741.524921 501.3525 
L 741.524921 57.8325 
" clip-path="url(#p9729cc86e5)" style="fill: none; stroke-dasharray: 1.85,0.8; stroke-dashoffset: 0; stroke: #b0b0b0; stroke-opacity: 0.8; stroke-width: 0.5"/>
     </g>
     <g id="line2d_80">
      <g>
       <use xlink:href="#m0d13a57812" x="741.524921" y="501.3525" style="stroke: #000000; stroke-width: 0.6"/>
      </g>
     </g>
    </g>
    <g id="xtick_41">
     <g id="line2d_81">
      <path d="M 757.74865 501.3525 
L 757.74865 57.8325 
" clip-path="url(#p9729cc86e5)" style="fill: none; stroke-dasharray: 1.85,0.8; stroke-dashoffset: 0; stroke: #b0b0b0; stroke-opacity: 0.8; stroke-width: 0.5"/>
     </g>
     <g id="line2d_82">
      <g>
       <use xlink:href="#m0d13a57812" x="757.74865" y="501.3525" style="stroke: #000000; stroke-width: 0.6"/>
      </g>
     </g>
    </g>
    <g id="text_9">
     <!-- Time (S) -->
     <g transform="translate(396.990625 542.305625) scale(0.2 -0.2)">
      <defs>
       <path id="AptosDisplay-54" d="M 1244 0 
L 1244 3734 
L 50 3734 
L 50 4206 
L 2997 4206 
L 2997 3734 
L 1806 3734 
L 1806 0 
L 1244 0 
z
" transform="scale(0.015625)"/>
       <path id="AptosDisplay-69" d="M 413 0 
L 413 3044 
L 934 3044 
L 934 0 
L 413 0 
z
M 675 3616 
Q 525 3616 437 3702 
Q 350 3788 350 3919 
Q 350 4050 437 4136 
Q 525 4222 675 4222 
Q 822 4222 912 4136 
Q 1003 4050 1003 3919 
Q 1003 3788 912 3702 
Q 822 3616 675 3616 
z
" transform="scale(0.015625)"/>
       <path id="AptosDisplay-6d" d="M 413 0 
L 413 3044 
L 919 3044 
L 931 2575 
Q 1063 2756 1303 2914 
Q 1544 3072 1903 3072 
Q 2403 3072 2618 2778 
Q 2834 2484 2834 1963 
L 2834 0 
L 2316 0 
L 2316 1891 
Q 2316 2106 2275 2275 
Q 2234 2444 2120 2539 
Q 2006 2634 1788 2634 
Q 1488 2634 1277 2482 
Q 1066 2331 934 2156 
L 934 0 
L 413 0 
z
M 4206 0 
L 4206 1891 
Q 4206 2106 4164 2275 
Q 4122 2444 4009 2539 
Q 3897 2634 3681 2634 
Q 3381 2634 3165 2484 
Q 2950 2334 2822 2159 
L 2744 2544 
Q 2916 2741 3175 2906 
Q 3434 3072 3800 3072 
Q 4291 3072 4509 2778 
Q 4728 2484 4728 1963 
L 4728 0 
L 4206 0 
z
" transform="scale(0.015625)"/>
       <path id="AptosDisplay-65" d="M 1663 -56 
Q 1188 -56 878 151 
Q 569 359 417 717 
Q 266 1075 266 1522 
Q 266 1988 412 2342 
Q 559 2697 857 2897 
Q 1156 3097 1606 3097 
Q 2209 3097 2550 2722 
Q 2891 2347 2891 1644 
Q 2891 1597 2889 1533 
Q 2888 1469 2881 1441 
L 791 1441 
Q 794 1144 881 895 
Q 969 647 1161 497 
Q 1353 347 1663 347 
Q 1997 347 2183 511 
Q 2369 675 2378 984 
L 2894 984 
Q 2884 663 2732 430 
Q 2581 197 2309 70 
Q 2038 -56 1663 -56 
z
M 794 1822 
L 2375 1822 
Q 2366 2247 2166 2472 
Q 1966 2697 1606 2697 
Q 1241 2697 1036 2473 
Q 831 2250 794 1822 
z
" transform="scale(0.015625)"/>
       <path id="AptosDisplay-20" transform="scale(0.015625)"/>
       <path id="AptosDisplay-28" d="M 1219 -1116 
Q 969 -678 787 -267 
Q 606 144 511 581 
Q 416 1019 416 1528 
Q 416 2028 509 2486 
Q 603 2944 783 3378 
Q 963 3813 1219 4231 
L 1647 4231 
Q 1278 3600 1101 2886 
Q 925 2172 925 1428 
Q 925 766 1125 103 
Q 1325 -559 1647 -1116 
L 1219 -1116 
z
" transform="scale(0.015625)"/>
       <path id="AptosDisplay-53" d="M 1778 -56 
Q 1328 -56 962 81 
Q 597 219 384 512 
Q 172 806 172 1275 
L 734 1275 
Q 738 941 883 750 
Q 1028 559 1267 481 
Q 1506 403 1794 403 
Q 2063 403 2283 483 
Q 2503 563 2634 723 
Q 2766 884 2766 1134 
Q 2766 1356 2662 1497 
Q 2559 1638 2321 1742 
Q 2084 1847 1678 1950 
Q 1203 2075 897 2223 
Q 591 2372 442 2594 
Q 294 2816 294 3156 
Q 294 3516 462 3761 
Q 631 4006 945 4134 
Q 1259 4263 1697 4263 
Q 2103 4263 2440 4131 
Q 2778 4000 2979 3737 
Q 3181 3475 3181 3084 
L 2616 3084 
Q 2622 3441 2356 3623 
Q 2091 3806 1700 3806 
Q 1300 3806 1073 3645 
Q 847 3484 847 3175 
Q 847 2991 944 2867 
Q 1041 2744 1280 2644 
Q 1519 2544 1941 2434 
Q 2428 2303 2731 2153 
Q 3034 2003 3178 1768 
Q 3322 1534 3322 1153 
Q 3322 747 3117 480 
Q 2913 213 2564 78 
Q 2216 -56 1778 -56 
z
" transform="scale(0.015625)"/>
       <path id="AptosDisplay-29" d="M 234 -1116 
Q 609 -481 786 233 
Q 963 947 963 1694 
Q 963 2356 759 3015 
Q 556 3675 234 4231 
L 663 4231 
Q 919 3800 1098 3389 
Q 1278 2978 1373 2540 
Q 1469 2103 1469 1594 
Q 1469 1094 1375 634 
Q 1281 175 1100 -259 
Q 919 -694 663 -1116 
L 234 -1116 
z
" transform="scale(0.015625)"/>
      </defs>
      <use xlink:href="#AptosDisplay-54"/>
      <use xlink:href="#AptosDisplay-69" x="47.705078"/>
      <use xlink:href="#AptosDisplay-6d" x="68.75"/>
      <use xlink:href="#AptosDisplay-65" x="148.730469"/>
      <use xlink:href="#AptosDisplay-20" x="198.144531"/>
      <use xlink:href="#AptosDisplay-28" x="217.431641"/>
      <use xlink:href="#AptosDisplay-53" x="246.875"/>
      <use xlink:href="#AptosDisplay-29" x="301.464844"/>
     </g>
    </g>
   </g>
   <g id="matplotlib.axis_2">
    <g id="ytick_1">
     <g id="line2d_83">
      <path d="M 95.28125 449.517362 
L 764.88125 449.517362 
" clip-path="url(#p9729cc86e5)" style="fill: none; stroke: #b0b0b0; stroke-opacity: 0.8; stroke-linecap: square"/>
     </g>
     <g id="line2d_84">
      <defs>
       <path id="m1c2d21180e" d="M 0 0 
L -3.5 0 
" style="stroke: #000000; stroke-width: 0.8"/>
      </defs>
      <g>
       <use xlink:href="#m1c2d21180e" x="95.28125" y="449.517362" style="stroke: #000000; stroke-width: 0.8"/>
      </g>
     </g>
     <g id="text_10">
      <!-- 800 -->
      <g transform="translate(56.903125 456.089237) scale(0.2 -0.2)">
       <defs>
        <path id="AptosDisplay-38" d="M 1675 -56 
Q 1391 -56 1137 16 
Q 884 88 686 234 
Q 488 381 373 606 
Q 259 831 259 1141 
Q 259 1531 495 1797 
Q 731 2063 1084 2150 
Q 781 2250 604 2490 
Q 428 2731 428 3081 
Q 428 3447 609 3681 
Q 791 3916 1075 4025 
Q 1359 4134 1669 4134 
Q 1981 4134 2265 4023 
Q 2550 3913 2733 3680 
Q 2916 3447 2916 3081 
Q 2916 2725 2716 2481 
Q 2516 2238 2238 2150 
Q 2606 2063 2843 1800 
Q 3081 1538 3081 1141 
Q 3081 831 2968 606 
Q 2856 381 2661 234 
Q 2466 88 2211 16 
Q 1956 -56 1675 -56 
z
M 1672 388 
Q 1909 388 2109 470 
Q 2309 553 2429 725 
Q 2550 897 2550 1163 
Q 2550 1416 2426 1587 
Q 2303 1759 2104 1846 
Q 1906 1934 1672 1928 
Q 1453 1934 1253 1850 
Q 1053 1766 926 1594 
Q 800 1422 800 1163 
Q 800 775 1058 581 
Q 1316 388 1672 388 
z
M 1672 2363 
Q 1863 2356 2030 2434 
Q 2197 2513 2300 2667 
Q 2403 2822 2403 3050 
Q 2403 3388 2189 3544 
Q 1975 3700 1675 3700 
Q 1484 3700 1317 3631 
Q 1150 3563 1047 3419 
Q 944 3275 944 3050 
Q 944 2825 1048 2670 
Q 1153 2516 1320 2436 
Q 1488 2356 1672 2363 
z
" transform="scale(0.015625)"/>
       </defs>
       <use xlink:href="#AptosDisplay-38"/>
       <use xlink:href="#AptosDisplay-30" x="52.294922"/>
       <use xlink:href="#AptosDisplay-30" x="104.589844"/>
      </g>
     </g>
    </g>
    <g id="ytick_2">
     <g id="line2d_85">
      <path d="M 95.28125 397.552573 
L 764.88125 397.552573 
" clip-path="url(#p9729cc86e5)" style="fill: none; stroke: #b0b0b0; stroke-opacity: 0.8; stroke-linecap: square"/>
     </g>
     <g id="line2d_86">
      <g>
       <use xlink:href="#m1c2d21180e" x="95.28125" y="397.552573" style="stroke: #000000; stroke-width: 0.8"/>
      </g>
     </g>
     <g id="text_11">
      <!-- 820 -->
      <g transform="translate(56.903125 404.124448) scale(0.2 -0.2)">
       <use xlink:href="#AptosDisplay-38"/>
       <use xlink:href="#AptosDisplay-32" x="52.294922"/>
       <use xlink:href="#AptosDisplay-30" x="104.589844"/>
      </g>
     </g>
    </g>
    <g id="ytick_3">
     <g id="line2d_87">
      <path d="M 95.28125 345.587783 
L 764.88125 345.587783 
" clip-path="url(#p9729cc86e5)" style="fill: none; stroke: #b0b0b0; stroke-opacity: 0.8; stroke-linecap: square"/>
     </g>
     <g id="line2d_88">
      <g>
       <use xlink:href="#m1c2d21180e" x="95.28125" y="345.587783" style="stroke: #000000; stroke-width: 0.8"/>
      </g>
     </g>
     <g id="text_12">
      <!-- 840 -->
      <g transform="translate(56.903125 352.159658) scale(0.2 -0.2)">
       <defs>
        <path id="AptosDisplay-34" d="M 2106 0 
L 2106 825 
L 125 825 
L 125 1297 
L 2100 4103 
L 2631 4103 
L 2631 1284 
L 3191 1284 
L 3191 825 
L 2631 825 
L 2631 0 
L 2106 0 
z
M 638 1284 
L 2113 1284 
L 2113 3369 
L 638 1284 
z
" transform="scale(0.015625)"/>
       </defs>
       <use xlink:href="#AptosDisplay-38"/>
       <use xlink:href="#AptosDisplay-34" x="52.294922"/>
       <use xlink:href="#AptosDisplay-30" x="104.589844"/>
      </g>
     </g>
    </g>
    <g id="ytick_4">
     <g id="line2d_89">
      <path d="M 95.28125 293.622993 
L 764.88125 293.622993 
" clip-path="url(#p9729cc86e5)" style="fill: none; stroke: #b0b0b0; stroke-opacity: 0.8; stroke-linecap: square"/>
     </g>
     <g id="line2d_90">
      <g>
       <use xlink:href="#m1c2d21180e" x="95.28125" y="293.622993" style="stroke: #000000; stroke-width: 0.8"/>
      </g>
     </g>
     <g id="text_13">
      <!-- 860 -->
      <g transform="translate(56.903125 300.194868) scale(0.2 -0.2)">
       <defs>
        <path id="AptosDisplay-36" d="M 1759 -56 
Q 1325 -56 984 151 
Q 644 359 447 815 
Q 250 1272 250 2013 
Q 250 2738 439 3206 
Q 628 3675 968 3903 
Q 1309 4131 1759 4131 
Q 2253 4131 2595 3875 
Q 2938 3619 3034 3097 
L 2503 3097 
Q 2441 3388 2250 3534 
Q 2059 3681 1759 3681 
Q 1306 3681 1047 3279 
Q 788 2878 788 2013 
L 788 1850 
Q 788 1313 922 992 
Q 1056 672 1279 531 
Q 1503 391 1763 391 
Q 2175 391 2369 644 
Q 2563 897 2563 1272 
Q 2563 1650 2373 1869 
Q 2184 2088 1838 2088 
Q 1422 2088 1114 1897 
Q 806 1706 644 1456 
L 597 1856 
Q 728 2047 922 2201 
Q 1116 2356 1362 2447 
Q 1609 2538 1909 2538 
Q 2253 2538 2523 2395 
Q 2794 2253 2951 1975 
Q 3109 1697 3109 1291 
Q 3109 897 2951 592 
Q 2794 288 2492 116 
Q 2191 -56 1759 -56 
z
" transform="scale(0.015625)"/>
       </defs>
       <use xlink:href="#AptosDisplay-38"/>
       <use xlink:href="#AptosDisplay-36" x="52.294922"/>
       <use xlink:href="#AptosDisplay-30" x="104.589844"/>
      </g>
     </g>
    </g>
    <g id="ytick_5">
     <g id="line2d_91">
      <path d="M 95.28125 241.658203 
L 764.88125 241.658203 
" clip-path="url(#p9729cc86e5)" style="fill: none; stroke: #b0b0b0; stroke-opacity: 0.8; stroke-linecap: square"/>
     </g>
     <g id="line2d_92">
      <g>
       <use xlink:href="#m1c2d21180e" x="95.28125" y="241.658203" style="stroke: #000000; stroke-width: 0.8"/>
      </g>
     </g>
     <g id="text_14">
      <!-- 880 -->
      <g transform="translate(56.903125 248.230078) scale(0.2 -0.2)">
       <use xlink:href="#AptosDisplay-38"/>
       <use xlink:href="#AptosDisplay-38" x="52.294922"/>
       <use xlink:href="#AptosDisplay-30" x="104.589844"/>
      </g>
     </g>
    </g>
    <g id="ytick_6">
     <g id="line2d_93">
      <path d="M 95.28125 189.693414 
L 764.88125 189.693414 
" clip-path="url(#p9729cc86e5)" style="fill: none; stroke: #b0b0b0; stroke-opacity: 0.8; stroke-linecap: square"/>
     </g>
     <g id="line2d_94">
      <g>
       <use xlink:href="#m1c2d21180e" x="95.28125" y="189.693414" style="stroke: #000000; stroke-width: 0.8"/>
      </g>
     </g>
     <g id="text_15">
      <!-- 900 -->
      <g transform="translate(56.903125 196.265289) scale(0.2 -0.2)">
       <defs>
        <path id="AptosDisplay-39" d="M 1547 -56 
Q 1200 -56 926 64 
Q 653 184 481 415 
Q 309 647 256 978 
L 788 978 
Q 834 713 1029 552 
Q 1225 391 1547 391 
Q 2022 391 2294 778 
Q 2566 1166 2566 2019 
L 2566 2197 
Q 2566 2753 2439 3079 
Q 2313 3406 2102 3547 
Q 1891 3688 1634 3688 
Q 1206 3688 998 3433 
Q 791 3178 791 2800 
Q 791 2422 991 2203 
Q 1191 1984 1547 1984 
Q 1831 1984 2045 2071 
Q 2259 2159 2417 2300 
Q 2575 2441 2681 2594 
L 2731 2209 
Q 2609 2038 2432 1884 
Q 2256 1731 2020 1634 
Q 1784 1538 1484 1538 
Q 1122 1538 842 1683 
Q 563 1828 405 2108 
Q 247 2388 247 2784 
Q 247 3175 414 3479 
Q 581 3784 892 3959 
Q 1203 4134 1631 4134 
Q 2056 4134 2389 3926 
Q 2722 3719 2914 3262 
Q 3106 2806 3106 2066 
Q 3106 1338 2912 869 
Q 2719 400 2369 172 
Q 2019 -56 1547 -56 
z
" transform="scale(0.015625)"/>
       </defs>
       <use xlink:href="#AptosDisplay-39"/>
       <use xlink:href="#AptosDisplay-30" x="52.294922"/>
       <use xlink:href="#AptosDisplay-30" x="104.589844"/>
      </g>
     </g>
    </g>
    <g id="ytick_7">
     <g id="line2d_95">
      <path d="M 95.28125 137.728624 
L 764.88125 137.728624 
" clip-path="url(#p9729cc86e5)" style="fill: none; stroke: #b0b0b0; stroke-opacity: 0.8; stroke-linecap: square"/>
     </g>
     <g id="line2d_96">
      <g>
       <use xlink:href="#m1c2d21180e" x="95.28125" y="137.728624" style="stroke: #000000; stroke-width: 0.8"/>
      </g>
     </g>
     <g id="text_16">
      <!-- 920 -->
      <g transform="translate(56.903125 144.300499) scale(0.2 -0.2)">
       <use xlink:href="#AptosDisplay-39"/>
       <use xlink:href="#AptosDisplay-32" x="52.294922"/>
       <use xlink:href="#AptosDisplay-30" x="104.589844"/>
      </g>
     </g>
    </g>
    <g id="ytick_8">
     <g id="line2d_97">
      <path d="M 95.28125 85.763834 
L 764.88125 85.763834 
" clip-path="url(#p9729cc86e5)" style="fill: none; stroke: #b0b0b0; stroke-opacity: 0.8; stroke-linecap: square"/>
     </g>
     <g id="line2d_98">
      <g>
       <use xlink:href="#m1c2d21180e" x="95.28125" y="85.763834" style="stroke: #000000; stroke-width: 0.8"/>
      </g>
     </g>
     <g id="text_17">
      <!-- 940 -->
      <g transform="translate(56.903125 92.335709) scale(0.2 -0.2)">
       <use xlink:href="#AptosDisplay-39"/>
       <use xlink:href="#AptosDisplay-34" x="52.294922"/>
       <use xlink:href="#AptosDisplay-30" x="104.589844"/>
      </g>
     </g>
    </g>
    <g id="ytick_9">
     <g id="line2d_99">
      <path d="M 95.28125 488.490955 
L 764.88125 488.490955 
" clip-path="url(#p9729cc86e5)" style="fill: none; stroke-dasharray: 1.85,0.8; stroke-dashoffset: 0; stroke: #b0b0b0; stroke-opacity: 0.8; stroke-width: 0.5"/>
     </g>
     <g id="line2d_100">
      <defs>
       <path id="m5edd67b378" d="M 0 0 
L -2 0 
" style="stroke: #000000; stroke-width: 0.6"/>
      </defs>
      <g>
       <use xlink:href="#m5edd67b378" x="95.28125" y="488.490955" style="stroke: #000000; stroke-width: 0.6"/>
      </g>
     </g>
    </g>
    <g id="ytick_10">
     <g id="line2d_101">
      <path d="M 95.28125 475.499757 
L 764.88125 475.499757 
" clip-path="url(#p9729cc86e5)" style="fill: none; stroke-dasharray: 1.85,0.8; stroke-dashoffset: 0; stroke: #b0b0b0; stroke-opacity: 0.8; stroke-width: 0.5"/>
     </g>
     <g id="line2d_102">
      <g>
       <use xlink:href="#m5edd67b378" x="95.28125" y="475.499757" style="stroke: #000000; stroke-width: 0.6"/>
      </g>
     </g>
    </g>
    <g id="ytick_11">
     <g id="line2d_103">
      <path d="M 95.28125 462.50856 
L 764.88125 462.50856 
" clip-path="url(#p9729cc86e5)" style="fill: none; stroke-dasharray: 1.85,0.8; stroke-dashoffset: 0; stroke: #b0b0b0; stroke-opacity: 0.8; stroke-width: 0.5"/>
     </g>
     <g id="line2d_104">
      <g>
       <use xlink:href="#m5edd67b378" x="95.28125" y="462.50856" style="stroke: #000000; stroke-width: 0.6"/>
      </g>
     </g>
    </g>
    <g id="ytick_12">
     <g id="line2d_105">
      <path d="M 95.28125 436.526165 
L 764.88125 436.526165 
" clip-path="url(#p9729cc86e5)" style="fill: none; stroke-dasharray: 1.85,0.8; stroke-dashoffset: 0; stroke: #b0b0b0; stroke-opacity: 0.8; stroke-width: 0.5"/>
     </g>
     <g id="line2d_106">
      <g>
       <use xlink:href="#m5edd67b378" x="95.28125" y="436.526165" style="stroke: #000000; stroke-width: 0.6"/>
      </g>
     </g>
    </g>
    <g id="ytick_13">
     <g id="line2d_107">
      <path d="M 95.28125 423.534968 
L 764.88125 423.534968 
" clip-path="url(#p9729cc86e5)" style="fill: none; stroke-dasharray: 1.85,0.8; stroke-dashoffset: 0; stroke: #b0b0b0; stroke-opacity: 0.8; stroke-width: 0.5"/>
     </g>
     <g id="line2d_108">
      <g>
       <use xlink:href="#m5edd67b378" x="95.28125" y="423.534968" style="stroke: #000000; stroke-width: 0.6"/>
      </g>
     </g>
    </g>
    <g id="ytick_14">
     <g id="line2d_109">
      <path d="M 95.28125 410.54377 
L 764.88125 410.54377 
" clip-path="url(#p9729cc86e5)" style="fill: none; stroke-dasharray: 1.85,0.8; stroke-dashoffset: 0; stroke: #b0b0b0; stroke-opacity: 0.8; stroke-width: 0.5"/>
     </g>
     <g id="line2d_110">
      <g>
       <use xlink:href="#m5edd67b378" x="95.28125" y="410.54377" style="stroke: #000000; stroke-width: 0.6"/>
      </g>
     </g>
    </g>
    <g id="ytick_15">
     <g id="line2d_111">
      <path d="M 95.28125 384.561375 
L 764.88125 384.561375 
" clip-path="url(#p9729cc86e5)" style="fill: none; stroke-dasharray: 1.85,0.8; stroke-dashoffset: 0; stroke: #b0b0b0; stroke-opacity: 0.8; stroke-width: 0.5"/>
     </g>
     <g id="line2d_112">
      <g>
       <use xlink:href="#m5edd67b378" x="95.28125" y="384.561375" style="stroke: #000000; stroke-width: 0.6"/>
      </g>
     </g>
    </g>
    <g id="ytick_16">
     <g id="line2d_113">
      <path d="M 95.28125 371.570178 
L 764.88125 371.570178 
" clip-path="url(#p9729cc86e5)" style="fill: none; stroke-dasharray: 1.85,0.8; stroke-dashoffset: 0; stroke: #b0b0b0; stroke-opacity: 0.8; stroke-width: 0.5"/>
     </g>
     <g id="line2d_114">
      <g>
       <use xlink:href="#m5edd67b378" x="95.28125" y="371.570178" style="stroke: #000000; stroke-width: 0.6"/>
      </g>
     </g>
    </g>
    <g id="ytick_17">
     <g id="line2d_115">
      <path d="M 95.28125 358.57898 
L 764.88125 358.57898 
" clip-path="url(#p9729cc86e5)" style="fill: none; stroke-dasharray: 1.85,0.8; stroke-dashoffset: 0; stroke: #b0b0b0; stroke-opacity: 0.8; stroke-width: 0.5"/>
     </g>
     <g id="line2d_116">
      <g>
       <use xlink:href="#m5edd67b378" x="95.28125" y="358.57898" style="stroke: #000000; stroke-width: 0.6"/>
      </g>
     </g>
    </g>
    <g id="ytick_18">
     <g id="line2d_117">
      <path d="M 95.28125 332.596586 
L 764.88125 332.596586 
" clip-path="url(#p9729cc86e5)" style="fill: none; stroke-dasharray: 1.85,0.8; stroke-dashoffset: 0; stroke: #b0b0b0; stroke-opacity: 0.8; stroke-width: 0.5"/>
     </g>
     <g id="line2d_118">
      <g>
       <use xlink:href="#m5edd67b378" x="95.28125" y="332.596586" style="stroke: #000000; stroke-width: 0.6"/>
      </g>
     </g>
    </g>
    <g id="ytick_19">
     <g id="line2d_119">
      <path d="M 95.28125 319.605388 
L 764.88125 319.605388 
" clip-path="url(#p9729cc86e5)" style="fill: none; stroke-dasharray: 1.85,0.8; stroke-dashoffset: 0; stroke: #b0b0b0; stroke-opacity: 0.8; stroke-width: 0.5"/>
     </g>
     <g id="line2d_120">
      <g>
       <use xlink:href="#m5edd67b378" x="95.28125" y="319.605388" style="stroke: #000000; stroke-width: 0.6"/>
      </g>
     </g>
    </g>
    <g id="ytick_20">
     <g id="line2d_121">
      <path d="M 95.28125 306.614191 
L 764.88125 306.614191 
" clip-path="url(#p9729cc86e5)" style="fill: none; stroke-dasharray: 1.85,0.8; stroke-dashoffset: 0; stroke: #b0b0b0; stroke-opacity: 0.8; stroke-width: 0.5"/>
     </g>
     <g id="line2d_122">
      <g>
       <use xlink:href="#m5edd67b378" x="95.28125" y="306.614191" style="stroke: #000000; stroke-width: 0.6"/>
      </g>
     </g>
    </g>
    <g id="ytick_21">
     <g id="line2d_123">
      <path d="M 95.28125 280.631796 
L 764.88125 280.631796 
" clip-path="url(#p9729cc86e5)" style="fill: none; stroke-dasharray: 1.85,0.8; stroke-dashoffset: 0; stroke: #b0b0b0; stroke-opacity: 0.8; stroke-width: 0.5"/>
     </g>
     <g id="line2d_124">
      <g>
       <use xlink:href="#m5edd67b378" x="95.28125" y="280.631796" style="stroke: #000000; stroke-width: 0.6"/>
      </g>
     </g>
    </g>
    <g id="ytick_22">
     <g id="line2d_125">
      <path d="M 95.28125 267.640598 
L 764.88125 267.640598 
" clip-path="url(#p9729cc86e5)" style="fill: none; stroke-dasharray: 1.85,0.8; stroke-dashoffset: 0; stroke: #b0b0b0; stroke-opacity: 0.8; stroke-width: 0.5"/>
     </g>
     <g id="line2d_126">
      <g>
       <use xlink:href="#m5edd67b378" x="95.28125" y="267.640598" style="stroke: #000000; stroke-width: 0.6"/>
      </g>
     </g>
    </g>
    <g id="ytick_23">
     <g id="line2d_127">
      <path d="M 95.28125 254.649401 
L 764.88125 254.649401 
" clip-path="url(#p9729cc86e5)" style="fill: none; stroke-dasharray: 1.85,0.8; stroke-dashoffset: 0; stroke: #b0b0b0; stroke-opacity: 0.8; stroke-width: 0.5"/>
     </g>
     <g id="line2d_128">
      <g>
       <use xlink:href="#m5edd67b378" x="95.28125" y="254.649401" style="stroke: #000000; stroke-width: 0.6"/>
      </g>
     </g>
    </g>
    <g id="ytick_24">
     <g id="line2d_129">
      <path d="M 95.28125 228.667006 
L 764.88125 228.667006 
" clip-path="url(#p9729cc86e5)" style="fill: none; stroke-dasharray: 1.85,0.8; stroke-dashoffset: 0; stroke: #b0b0b0; stroke-opacity: 0.8; stroke-width: 0.5"/>
     </g>
     <g id="line2d_130">
      <g>
       <use xlink:href="#m5edd67b378" x="95.28125" y="228.667006" style="stroke: #000000; stroke-width: 0.6"/>
      </g>
     </g>
    </g>
    <g id="ytick_25">
     <g id="line2d_131">
      <path d="M 95.28125 215.675809 
L 764.88125 215.675809 
" clip-path="url(#p9729cc86e5)" style="fill: none; stroke-dasharray: 1.85,0.8; stroke-dashoffset: 0; stroke: #b0b0b0; stroke-opacity: 0.8; stroke-width: 0.5"/>
     </g>
     <g id="line2d_132">
      <g>
       <use xlink:href="#m5edd67b378" x="95.28125" y="215.675809" style="stroke: #000000; stroke-width: 0.6"/>
      </g>
     </g>
    </g>
    <g id="ytick_26">
     <g id="line2d_133">
      <path d="M 95.28125 202.684611 
L 764.88125 202.684611 
" clip-path="url(#p9729cc86e5)" style="fill: none; stroke-dasharray: 1.85,0.8; stroke-dashoffset: 0; stroke: #b0b0b0; stroke-opacity: 0.8; stroke-width: 0.5"/>
     </g>
     <g id="line2d_134">
      <g>
       <use xlink:href="#m5edd67b378" x="95.28125" y="202.684611" style="stroke: #000000; stroke-width: 0.6"/>
      </g>
     </g>
    </g>
    <g id="ytick_27">
     <g id="line2d_135">
      <path d="M 95.28125 176.702216 
L 764.88125 176.702216 
" clip-path="url(#p9729cc86e5)" style="fill: none; stroke-dasharray: 1.85,0.8; stroke-dashoffset: 0; stroke: #b0b0b0; stroke-opacity: 0.8; stroke-width: 0.5"/>
     </g>
     <g id="line2d_136">
      <g>
       <use xlink:href="#m5edd67b378" x="95.28125" y="176.702216" style="stroke: #000000; stroke-width: 0.6"/>
      </g>
     </g>
    </g>
    <g id="ytick_28">
     <g id="line2d_137">
      <path d="M 95.28125 163.711019 
L 764.88125 163.711019 
" clip-path="url(#p9729cc86e5)" style="fill: none; stroke-dasharray: 1.85,0.8; stroke-dashoffset: 0; stroke: #b0b0b0; stroke-opacity: 0.8; stroke-width: 0.5"/>
     </g>
     <g id="line2d_138">
      <g>
       <use xlink:href="#m5edd67b378" x="95.28125" y="163.711019" style="stroke: #000000; stroke-width: 0.6"/>
      </g>
     </g>
    </g>
    <g id="ytick_29">
     <g id="line2d_139">
      <path d="M 95.28125 150.719821 
L 764.88125 150.719821 
" clip-path="url(#p9729cc86e5)" style="fill: none; stroke-dasharray: 1.85,0.8; stroke-dashoffset: 0; stroke: #b0b0b0; stroke-opacity: 0.8; stroke-width: 0.5"/>
     </g>
     <g id="line2d_140">
      <g>
       <use xlink:href="#m5edd67b378" x="95.28125" y="150.719821" style="stroke: #000000; stroke-width: 0.6"/>
      </g>
     </g>
    </g>
    <g id="ytick_30">
     <g id="line2d_141">
      <path d="M 95.28125 124.737427 
L 764.88125 124.737427 
" clip-path="url(#p9729cc86e5)" style="fill: none; stroke-dasharray: 1.85,0.8; stroke-dashoffset: 0; stroke: #b0b0b0; stroke-opacity: 0.8; stroke-width: 0.5"/>
     </g>
     <g id="line2d_142">
      <g>
       <use xlink:href="#m5edd67b378" x="95.28125" y="124.737427" style="stroke: #000000; stroke-width: 0.6"/>
      </g>
     </g>
    </g>
    <g id="ytick_31">
     <g id="line2d_143">
      <path d="M 95.28125 111.746229 
L 764.88125 111.746229 
" clip-path="url(#p9729cc86e5)" style="fill: none; stroke-dasharray: 1.85,0.8; stroke-dashoffset: 0; stroke: #b0b0b0; stroke-opacity: 0.8; stroke-width: 0.5"/>
     </g>
     <g id="line2d_144">
      <g>
       <use xlink:href="#m5edd67b378" x="95.28125" y="111.746229" style="stroke: #000000; stroke-width: 0.6"/>
      </g>
     </g>
    </g>
    <g id="ytick_32">
     <g id="line2d_145">
      <path d="M 95.28125 98.755032 
L 764.88125 98.755032 
" clip-path="url(#p9729cc86e5)" style="fill: none; stroke-dasharray: 1.85,0.8; stroke-dashoffset: 0; stroke: #b0b0b0; stroke-opacity: 0.8; stroke-width: 0.5"/>
     </g>
     <g id="line2d_146">
      <g>
       <use xlink:href="#m5edd67b378" x="95.28125" y="98.755032" style="stroke: #000000; stroke-width: 0.6"/>
      </g>
     </g>
    </g>
    <g id="ytick_33">
     <g id="line2d_147">
      <path d="M 95.28125 72.772637 
L 764.88125 72.772637 
" clip-path="url(#p9729cc86e5)" style="fill: none; stroke-dasharray: 1.85,0.8; stroke-dashoffset: 0; stroke: #b0b0b0; stroke-opacity: 0.8; stroke-width: 0.5"/>
     </g>
     <g id="line2d_148">
      <g>
       <use xlink:href="#m5edd67b378" x="95.28125" y="72.772637" style="stroke: #000000; stroke-width: 0.6"/>
      </g>
     </g>
    </g>
    <g id="ytick_34">
     <g id="line2d_149">
      <path d="M 95.28125 59.781439 
L 764.88125 59.781439 
" clip-path="url(#p9729cc86e5)" style="fill: none; stroke-dasharray: 1.85,0.8; stroke-dashoffset: 0; stroke: #b0b0b0; stroke-opacity: 0.8; stroke-width: 0.5"/>
     </g>
     <g id="line2d_150">
      <g>
       <use xlink:href="#m5edd67b378" x="95.28125" y="59.781439" style="stroke: #000000; stroke-width: 0.6"/>
      </g>
     </g>
    </g>
    <g id="text_18">
     <!-- Light (W/m^2) -->
     <g transform="translate(49.221875 337.558125) rotate(-90) scale(0.2 -0.2)">
      <defs>
       <path id="AptosDisplay-4c" d="M 472 0 
L 472 4206 
L 1034 4206 
L 1034 484 
L 3000 484 
L 3000 0 
L 472 0 
z
" transform="scale(0.015625)"/>
       <path id="AptosDisplay-67" d="M 1397 -1178 
Q 925 -1178 640 -1065 
Q 356 -953 229 -765 
Q 103 -578 103 -359 
Q 103 -94 329 112 
Q 556 319 1031 403 
L 1128 575 
L 1475 575 
Q 2184 575 2489 376 
Q 2794 178 2794 -238 
Q 2794 -650 2437 -914 
Q 2081 -1178 1397 -1178 
z
M 1384 -800 
Q 1878 -800 2086 -650 
Q 2294 -500 2294 -278 
Q 2294 -147 2225 -51 
Q 2156 44 1975 97 
Q 1794 150 1456 150 
L 1034 150 
Q 819 97 708 -31 
Q 597 -159 597 -328 
Q 597 -516 778 -658 
Q 959 -800 1384 -800 
z
M 1025 216 
Q 722 228 550 312 
Q 378 397 306 511 
Q 234 625 234 722 
Q 234 866 362 1009 
Q 491 1153 772 1241 
L 1038 1069 
Q 866 1031 772 953 
Q 678 875 678 791 
Q 678 731 734 682 
Q 791 634 928 606 
Q 1066 578 1303 575 
L 1025 216 
z
M 1363 984 
Q 1003 984 753 1128 
Q 503 1272 375 1509 
Q 247 1747 247 2022 
Q 247 2313 376 2550 
Q 506 2788 754 2928 
Q 1003 3069 1366 3069 
Q 1738 3069 1983 2928 
Q 2228 2788 2351 2550 
Q 2475 2313 2475 2022 
Q 2475 1741 2350 1505 
Q 2225 1269 1979 1126 
Q 1734 984 1363 984 
z
M 1366 1341 
Q 1641 1341 1812 1512 
Q 1984 1684 1984 2022 
Q 1984 2375 1817 2545 
Q 1650 2716 1372 2716 
Q 1094 2716 919 2541 
Q 744 2366 744 2025 
Q 744 1681 931 1511 
Q 1119 1341 1366 1341 
z
M 2131 2734 
L 1922 2931 
Q 2038 3225 2252 3331 
Q 2466 3438 2794 3447 
L 2794 3006 
Q 2588 3006 2416 2961 
Q 2244 2916 2131 2734 
z
" transform="scale(0.015625)"/>
       <path id="AptosDisplay-68" d="M 413 0 
L 413 4206 
L 931 4206 
L 931 2575 
Q 1069 2756 1317 2914 
Q 1566 3072 1950 3072 
Q 2428 3072 2637 2783 
Q 2847 2494 2847 1963 
L 2847 0 
L 2328 0 
L 2328 1891 
Q 2328 2106 2287 2275 
Q 2247 2444 2139 2539 
Q 2031 2634 1822 2634 
Q 1503 2634 1284 2482 
Q 1066 2331 934 2156 
L 934 0 
L 413 0 
z
" transform="scale(0.015625)"/>
       <path id="AptosDisplay-74" d="M 1466 0 
Q 1100 0 901 117 
Q 703 234 629 454 
Q 556 675 556 984 
L 556 2622 
L 50 2622 
L 50 3044 
L 556 3044 
L 556 3741 
L 1078 3741 
L 1078 3044 
L 1831 3044 
L 1831 2622 
L 1078 2622 
L 1078 1009 
Q 1078 725 1151 575 
Q 1225 425 1500 425 
L 1831 425 
L 1831 0 
L 1466 0 
z
" transform="scale(0.015625)"/>
       <path id="AptosDisplay-57" d="M 1216 0 
L -13 4206 
L 575 4206 
L 1525 697 
L 2531 4206 
L 3156 4206 
L 4163 697 
L 5119 4206 
L 5681 4206 
L 4453 0 
L 3866 0 
L 2831 3556 
L 1813 0 
L 1216 0 
z
" transform="scale(0.015625)"/>
       <path id="AptosDisplay-2f" d="M 72 0 
L 1603 4206 
L 2100 4206 
L 569 0 
L 72 0 
z
" transform="scale(0.015625)"/>
       <path id="AptosDisplay-5e" d="M 428 2438 
L 1459 4206 
L 1884 4206 
L 2916 2438 
L 2366 2438 
L 1672 3650 
L 978 2438 
L 428 2438 
z
" transform="scale(0.015625)"/>
      </defs>
      <use xlink:href="#AptosDisplay-4c"/>
      <use xlink:href="#AptosDisplay-69" x="48.4375"/>
      <use xlink:href="#AptosDisplay-67" x="69.482422"/>
      <use xlink:href="#AptosDisplay-68" x="113.427734"/>
      <use xlink:href="#AptosDisplay-74" x="164.013672"/>
      <use xlink:href="#AptosDisplay-20" x="194.384766"/>
      <use xlink:href="#AptosDisplay-28" x="213.671875"/>
      <use xlink:href="#AptosDisplay-57" x="243.115234"/>
      <use xlink:href="#AptosDisplay-2f" x="331.689453"/>
      <use xlink:href="#AptosDisplay-6d" x="365.625"/>
      <use xlink:href="#AptosDisplay-5e" x="445.605469"/>
      <use xlink:href="#AptosDisplay-32" x="497.900391"/>
      <use xlink:href="#AptosDisplay-29" x="550.195312"/>
     </g>
    </g>
   </g>
   <g id="line2d_151">
    <path d="M 125.717614 193.68431 
L 126.369808 213.155516 
L 127.018757 210.866467 
L 127.667706 207.428997 
L 128.316655 213.155516 
L 128.965604 222.319507 
L 129.614553 224.611154 
L 130.263502 222.319507 
L 131.561401 252.100528 
L 132.21035 231.483498 
L 132.859299 238.355841 
L 133.508248 240.647488 
L 134.157197 240.647488 
L 134.806146 244.082361 
L 135.455095 245.228185 
L 137.401943 245.228185 
L 138.050892 254.392175 
L 138.699841 248.665655 
L 139.997739 241.793312 
L 140.646689 242.939136 
L 141.295638 246.374008 
L 141.944587 246.374008 
L 142.593536 250.957303 
L 143.242485 249.811479 
L 143.891434 258.97547 
L 144.540383 262.410342 
L 145.189333 268.136862 
L 145.838282 271.574333 
L 146.487231 272.720157 
L 147.13618 276.155029 
L 147.785129 276.155029 
L 148.434078 280.738324 
L 149.083027 269.282686 
L 149.731977 277.300853 
L 150.380926 275.011804 
L 151.029875 268.136862 
L 151.678824 276.155029 
L 152.327773 271.574333 
L 152.976722 271.574333 
L 153.625671 270.428509 
L 154.274621 262.410342 
L 155.572519 260.118695 
L 156.870417 250.957303 
L 157.519366 249.811479 
L 158.168315 245.228185 
L 158.817265 250.957303 
L 159.466214 245.228185 
L 160.115163 244.082361 
L 160.764112 244.082361 
L 161.413061 239.501665 
L 162.06201 242.939136 
L 162.710959 241.793312 
L 163.359909 248.665655 
L 164.008858 252.100528 
L 164.657807 256.683822 
L 165.306756 281.884147 
L 165.955705 268.136862 
L 166.604654 272.720157 
L 167.253603 276.155029 
L 167.902553 283.029971 
L 168.551502 285.31902 
L 169.200451 294.48301 
L 169.8494 308.227697 
L 170.498349 305.938648 
L 171.147298 312.810992 
L 171.796247 313.956815 
L 172.445196 318.537512 
L 174.392044 325.409855 
L 175.689942 336.865493 
L 176.338891 326.555679 
L 176.98784 323.118208 
L 177.63679 321.974983 
L 178.285739 321.974983 
L 178.934688 319.683335 
L 179.583637 320.829159 
L 180.232586 316.245864 
L 180.881535 316.245864 
L 181.530484 309.373521 
L 182.179434 291.048138 
L 182.828383 309.373521 
L 183.477332 305.938648 
L 184.126281 307.084472 
L 184.77523 312.810992 
L 185.424179 302.501178 
L 186.073128 303.647001 
L 186.722078 299.066305 
L 187.371027 307.084472 
L 188.019976 304.792825 
L 189.317874 304.792825 
L 189.966823 309.373521 
L 190.615772 310.519345 
L 191.264722 301.355354 
L 191.913671 307.084472 
L 192.56262 308.227697 
L 193.211569 304.792825 
L 193.860518 303.647001 
L 194.509467 300.20953 
L 195.158416 294.48301 
L 195.807366 294.48301 
L 196.456315 263.556166 
L 197.105264 281.884147 
L 197.754213 283.029971 
L 198.403162 286.464843 
L 199.052111 283.029971 
L 199.70106 288.756491 
L 200.35001 286.464843 
L 200.998959 287.610667 
L 201.647908 293.337187 
L 202.296857 291.048138 
L 202.945806 291.048138 
L 203.594755 296.774658 
L 204.243704 299.066305 
L 204.892654 300.20953 
L 206.190552 300.20953 
L 206.839501 305.938648 
L 207.48845 305.938648 
L 208.137399 313.956815 
L 208.786348 313.956815 
L 209.435298 192.538486 
L 210.084247 317.391688 
L 210.733196 320.829159 
L 212.031094 325.409855 
L 212.680043 323.118208 
L 213.328992 331.136375 
L 213.977941 348.318533 
L 214.626891 332.282199 
L 215.27584 328.847326 
L 215.924789 326.555679 
L 216.573738 332.282199 
L 217.222687 334.573846 
L 217.871636 335.719669 
L 218.520585 335.719669 
L 219.169535 332.282199 
L 219.818484 335.719669 
L 220.467433 352.901827 
L 221.116382 340.300366 
L 222.41428 335.719669 
L 223.063229 339.15714 
L 223.712179 338.011317 
L 224.361128 335.719669 
L 225.010077 338.011317 
L 225.659026 336.865493 
L 226.307975 333.428022 
L 226.956924 333.428022 
L 227.605873 334.573846 
L 228.903772 341.446189 
L 229.552721 226.902801 
L 230.20167 347.175307 
L 230.850619 338.011317 
L 231.499568 338.011317 
L 232.148517 339.15714 
L 232.797467 335.719669 
L 233.446416 339.15714 
L 234.095365 338.011317 
L 234.744314 340.300366 
L 235.393263 338.011317 
L 236.042212 339.15714 
L 236.691161 338.011317 
L 237.340111 334.573846 
L 237.98906 333.428022 
L 238.638009 333.428022 
L 239.286958 332.282199 
L 239.935907 333.428022 
L 240.584856 328.847326 
L 241.233805 320.829159 
L 241.882755 318.537512 
L 242.531704 324.264031 
L 243.180653 324.264031 
L 244.478551 312.810992 
L 245.1275 317.391688 
L 245.776449 312.810992 
L 246.425399 312.810992 
L 247.074348 311.665168 
L 247.723297 316.245864 
L 249.021195 299.066305 
L 249.670144 304.792825 
L 250.319093 304.792825 
L 250.968042 286.464843 
L 251.616992 301.355354 
L 252.265941 297.920481 
L 252.91489 293.337187 
L 253.563839 296.774658 
L 254.861737 294.48301 
L 255.510686 304.792825 
L 256.159636 302.501178 
L 256.808585 310.519345 
L 257.457534 303.647001 
L 258.106483 308.227697 
L 258.755432 315.100041 
L 259.404381 309.373521 
L 260.05333 325.409855 
L 260.70228 324.264031 
L 261.351229 325.409855 
L 262.000178 341.446189 
L 262.649127 335.719669 
L 264.595974 339.15714 
L 265.244924 332.282199 
L 265.893873 341.446189 
L 266.542822 336.865493 
L 267.191771 335.719669 
L 267.84072 339.15714 
L 268.489669 343.737836 
L 269.138618 341.446189 
L 269.787568 341.446189 
L 270.436517 342.592013 
L 271.085466 371.22721 
L 271.734415 351.756003 
L 272.383364 343.737836 
L 273.681262 348.318533 
L 274.330212 348.318533 
L 274.979161 340.300366 
L 275.62811 339.15714 
L 276.277059 342.592013 
L 276.926008 332.282199 
L 278.223906 325.409855 
L 278.872856 324.264031 
L 279.521805 328.847326 
L 280.170754 324.264031 
L 280.819703 315.100041 
L 281.468652 313.956815 
L 282.117601 313.956815 
L 282.76655 319.683335 
L 283.4155 320.829159 
L 284.064449 352.901827 
L 284.713398 323.118208 
L 285.362347 325.409855 
L 286.011296 328.847326 
L 286.660245 333.428022 
L 287.309194 331.136375 
L 287.958143 334.573846 
L 288.607093 335.719669 
L 289.256042 332.282199 
L 289.904991 334.573846 
L 290.55394 333.428022 
L 291.202889 328.847326 
L 292.500787 326.555679 
L 293.149737 323.118208 
L 293.798686 317.391688 
L 294.447635 324.264031 
L 295.745533 328.847326 
L 296.394482 338.011317 
L 297.043431 338.011317 
L 297.692381 350.61018 
L 298.34133 344.88366 
L 298.990279 354.047651 
L 299.639228 356.3367 
L 300.288177 362.065818 
L 300.937126 365.50069 
L 301.586075 365.50069 
L 302.235025 374.664681 
L 302.883974 378.102152 
L 303.532923 380.391201 
L 304.181872 387.263544 
L 304.830821 384.974495 
L 305.47977 391.846839 
L 306.128719 396.427535 
L 306.777669 398.719182 
L 307.426618 402.156653 
L 308.075567 404.445702 
L 308.724516 411.318045 
L 309.373465 411.318045 
L 310.022414 429.646027 
L 310.671363 415.90134 
L 311.320313 313.956815 
L 311.969262 413.609693 
L 312.618211 420.482036 
L 313.919354 418.192987 
L 314.568303 428.500203 
L 315.217252 426.211154 
L 315.866201 422.773683 
L 316.51515 441.101665 
L 317.1641 427.35438 
L 317.813049 434.229321 
L 318.461998 430.79185 
L 319.110947 431.937674 
L 321.706744 431.937674 
L 322.355693 436.51837 
L 323.004642 428.500203 
L 323.653591 429.646027 
L 324.30254 431.937674 
L 324.951489 402.156653 
L 325.600438 429.646027 
L 326.249388 430.79185 
L 326.898337 427.35438 
L 327.547286 428.500203 
L 328.196235 428.500203 
L 328.845184 427.35438 
L 329.494133 427.35438 
L 330.143082 431.937674 
L 330.792032 428.500203 
L 331.440981 428.500203 
L 332.08993 429.646027 
L 332.738879 423.919507 
L 333.387828 437.664194 
L 334.036777 434.229321 
L 334.685726 437.664194 
L 335.334675 439.955841 
L 335.983625 443.390714 
L 336.632574 445.682361 
L 337.281523 444.536537 
L 337.930472 458.281224 
L 338.579421 459.427048 
L 339.22837 465.156166 
L 339.877319 465.156166 
L 340.526269 469.736862 
L 341.175218 465.156166 
L 341.824167 468.591038 
L 342.473116 474.317558 
L 343.122065 466.299391 
L 343.771014 475.463382 
L 344.419963 480.046676 
L 345.068913 473.174333 
L 345.717862 476.609206 
L 346.366811 473.174333 
L 347.01576 474.317558 
L 347.664709 481.1925 
L 348.313658 473.174333 
L 348.962607 475.463382 
L 350.260506 475.463382 
L 350.909455 474.317558 
L 351.558404 472.028509 
L 352.207353 468.591038 
L 352.856302 469.736862 
L 354.154201 467.445215 
L 354.80315 462.864519 
L 355.452099 466.299391 
L 356.101048 467.445215 
L 356.749997 467.445215 
L 357.398946 466.299391 
L 358.047895 461.718695 
L 358.696845 445.682361 
L 359.345794 459.427048 
L 359.994743 457.137999 
L 360.643692 452.554704 
L 361.292641 451.408881 
L 361.94159 446.828185 
L 362.590539 449.119832 
L 363.239489 444.536537 
L 363.888438 446.828185 
L 364.537387 444.536537 
L 365.186336 447.974008 
L 365.835285 446.828185 
L 366.484234 447.974008 
L 367.133183 446.828185 
L 367.782133 451.408881 
L 368.431082 453.700528 
L 369.080031 457.137999 
L 369.72898 451.408881 
L 370.377929 454.846352 
L 371.026878 464.010342 
L 371.675827 451.408881 
L 372.324776 451.408881 
L 373.622675 442.247488 
L 374.271624 450.265655 
L 374.920573 445.682361 
L 375.569522 434.229321 
L 376.218471 428.500203 
L 376.86742 419.336213 
L 377.51637 423.919507 
L 378.165319 422.773683 
L 378.814268 420.482036 
L 379.463217 417.047164 
L 380.112166 423.919507 
L 380.761115 421.62786 
L 381.410064 414.755516 
L 382.059014 411.318045 
L 382.707963 403.299878 
L 384.005861 415.90134 
L 384.65481 406.737349 
L 385.303759 415.90134 
L 385.952708 409.028997 
L 386.601658 413.609693 
L 387.250607 407.883173 
L 387.899556 411.318045 
L 388.548505 417.047164 
L 389.197454 414.755516 
L 389.846403 417.047164 
L 390.495352 414.755516 
L 391.144302 414.755516 
L 391.793251 404.445702 
L 392.4422 421.62786 
L 393.091149 418.192987 
L 393.740098 422.773683 
L 394.389047 428.500203 
L 395.037996 420.482036 
L 395.686946 421.62786 
L 396.335895 417.047164 
L 396.984844 417.047164 
L 397.633793 413.609693 
L 398.282742 415.90134 
L 398.931691 405.591526 
L 399.58064 405.591526 
L 400.878539 403.299878 
L 402.825386 392.992662 
L 404.123284 390.701015 
L 404.772234 378.102152 
L 405.421183 383.828672 
L 406.070132 384.974495 
L 406.719081 375.810505 
L 407.36803 373.518857 
L 408.016979 368.938161 
L 408.665928 366.646514 
L 409.314878 365.50069 
L 409.963827 363.209043 
L 410.612776 368.938161 
L 411.910674 359.774171 
L 412.559623 372.373034 
L 413.208572 358.628347 
L 413.857521 351.756003 
L 414.506471 362.065818 
L 415.15542 358.628347 
L 415.804369 362.065818 
L 416.453318 357.482523 
L 417.102267 354.047651 
L 417.751216 366.646514 
L 418.400165 350.61018 
L 419.049115 351.756003 
L 419.698064 205.137349 
L 420.347013 346.029484 
L 420.995962 348.318533 
L 421.644911 347.175307 
L 422.29386 335.719669 
L 422.942809 333.428022 
L 423.591759 327.701502 
L 424.240708 329.99315 
L 424.889657 319.683335 
L 425.538606 323.118208 
L 426.187555 318.537512 
L 426.836504 315.100041 
L 427.485453 318.537512 
L 428.134403 316.245864 
L 428.783352 315.100041 
L 429.432301 315.100041 
L 430.08125 313.956815 
L 430.730199 313.956815 
L 431.379148 311.665168 
L 432.028097 316.245864 
L 432.677047 304.792825 
L 433.325996 299.066305 
L 434.623894 308.227697 
L 435.272843 301.355354 
L 435.921792 308.227697 
L 436.570741 304.792825 
L 437.219691 302.501178 
L 437.86864 303.647001 
L 438.517589 305.938648 
L 439.166538 307.084472 
L 439.815487 304.792825 
L 440.464436 244.082361 
L 441.113385 309.373521 
L 441.762335 308.227697 
L 442.411284 308.227697 
L 443.060233 305.938648 
L 443.709182 308.227697 
L 444.358131 302.501178 
L 445.00708 305.938648 
L 445.656029 303.647001 
L 446.304979 299.066305 
L 446.953928 316.245864 
L 447.602877 296.774658 
L 448.251826 295.628834 
L 448.900775 299.066305 
L 449.549724 294.48301 
L 450.198673 301.355354 
L 450.847622 294.48301 
L 451.496572 302.501178 
L 452.145521 296.774658 
L 452.79447 299.066305 
L 453.443419 303.647001 
L 454.092368 309.373521 
L 454.741317 308.227697 
L 455.390266 311.665168 
L 456.039216 313.956815 
L 456.688165 323.118208 
L 457.337114 325.409855 
L 457.986063 333.428022 
L 458.635012 346.029484 
L 459.283961 327.701502 
L 459.93291 425.065331 
L 460.58186 338.011317 
L 461.230809 348.318533 
L 461.879758 344.88366 
L 462.528707 349.464356 
L 463.177656 351.756003 
L 463.826605 344.88366 
L 464.475554 348.318533 
L 465.773453 352.901827 
L 466.422402 357.482523 
L 467.071351 352.901827 
L 467.7203 359.774171 
L 468.369249 363.209043 
L 469.018198 359.774171 
L 469.667148 364.354867 
L 470.316097 362.065818 
L 470.965046 360.919994 
L 471.613995 362.065818 
L 472.262944 371.22721 
L 472.911893 363.209043 
L 473.560842 370.083985 
L 474.209792 346.029484 
L 474.858741 357.482523 
L 475.50769 346.029484 
L 476.156639 341.446189 
L 476.805588 333.428022 
L 477.454537 327.701502 
L 478.103486 332.282199 
L 478.752436 321.974983 
L 479.401385 318.537512 
L 480.050334 316.245864 
L 480.699283 316.245864 
L 481.348232 302.501178 
L 481.997181 304.792825 
L 482.64613 303.647001 
L 483.29508 303.647001 
L 483.944029 307.084472 
L 484.592978 301.355354 
L 485.241927 294.48301 
L 485.890876 297.920481 
L 486.539825 294.48301 
L 487.188774 308.227697 
L 487.837724 291.048138 
L 488.486673 278.446676 
L 489.135622 294.48301 
L 489.784571 281.884147 
L 490.43352 280.738324 
L 491.082469 277.300853 
L 491.731418 271.574333 
L 492.380367 262.410342 
L 493.029317 256.683822 
L 493.678266 260.118695 
L 494.327215 262.410342 
L 494.976164 258.97547 
L 495.625113 257.829646 
L 496.277307 255.537999 
L 496.926256 252.100528 
L 497.575205 253.246352 
L 498.224154 246.374008 
L 498.873104 250.957303 
L 499.522053 246.374008 
L 500.171002 246.374008 
L 500.819951 245.228185 
L 501.4689 315.100041 
L 502.117849 253.246352 
L 502.766798 240.647488 
L 503.415748 241.793312 
L 504.064697 245.228185 
L 504.713646 246.374008 
L 505.362595 256.683822 
L 506.011544 248.665655 
L 506.660493 244.082361 
L 507.309442 252.100528 
L 507.958392 253.246352 
L 508.607341 203.994124 
L 509.25629 268.136862 
L 509.905239 256.683822 
L 510.554188 260.118695 
L 511.203137 266.993637 
L 511.852086 257.829646 
L 512.501036 262.410342 
L 513.149985 247.519832 
L 514.447883 272.720157 
L 515.096832 253.246352 
L 517.692629 258.97547 
L 518.341578 248.665655 
L 518.990527 252.100528 
L 519.639476 248.665655 
L 520.288425 246.374008 
L 520.937374 245.228185 
L 521.586324 241.793312 
L 522.235273 249.811479 
L 522.884222 238.355841 
L 524.18212 233.775145 
L 524.831069 233.775145 
L 525.480018 231.483498 
L 526.128968 233.775145 
L 526.777917 225.756978 
L 527.426866 229.19185 
L 528.075815 238.355841 
L 528.724764 226.902801 
L 529.373713 232.629321 
L 530.022662 232.629321 
L 530.671612 226.902801 
L 531.320561 233.775145 
L 531.96951 231.483498 
L 532.618459 234.920969 
L 533.267408 255.537999 
L 533.916357 234.920969 
L 534.565306 234.920969 
L 535.214255 233.775145 
L 535.863205 236.064194 
L 536.512154 234.920969 
L 537.161103 225.756978 
L 537.810052 238.355841 
L 538.459001 230.337674 
L 539.10795 230.337674 
L 539.756899 224.611154 
L 540.405849 230.337674 
L 541.054798 225.756978 
L 541.703747 225.756978 
L 542.352696 244.082361 
L 543.001645 220.02786 
L 543.650594 222.319507 
L 544.299543 226.902801 
L 544.948493 225.756978 
L 545.597442 225.756978 
L 546.246391 222.319507 
L 546.89534 225.756978 
L 547.544289 226.902801 
L 548.193238 241.793312 
L 548.842187 222.319507 
L 549.491137 228.046027 
L 550.140086 225.756978 
L 550.789035 230.337674 
L 551.437984 233.775145 
L 552.086933 228.046027 
L 552.735882 223.465331 
L 553.384831 224.611154 
L 554.033781 221.173683 
L 554.68273 224.611154 
L 555.331679 222.319507 
L 555.980628 216.592987 
L 556.629577 223.465331 
L 557.278526 221.173683 
L 557.927475 165.046514 
L 558.576425 215.447164 
L 559.874323 229.19185 
L 560.523272 233.775145 
L 561.172221 232.629321 
L 561.82117 226.902801 
L 562.470119 229.19185 
L 563.119069 236.064194 
L 563.768018 232.629321 
L 564.416967 232.629321 
L 565.065916 233.775145 
L 565.714865 230.337674 
L 566.363814 230.337674 
L 567.012763 223.465331 
L 567.661713 228.046027 
L 568.310662 231.483498 
L 568.959611 230.337674 
L 569.60856 224.611154 
L 570.257509 222.319507 
L 570.906458 221.173683 
L 571.555407 189.101015 
L 572.204357 220.02786 
L 572.853306 216.592987 
L 573.502255 214.30134 
L 574.151204 214.30134 
L 574.800153 215.447164 
L 575.449102 209.720644 
L 576.098051 217.738811 
L 576.747 254.392175 
L 577.39595 215.447164 
L 578.044899 218.884634 
L 578.693848 215.447164 
L 579.342797 249.811479 
L 579.991746 216.592987 
L 580.640695 215.447164 
L 581.289644 216.592987 
L 581.938594 220.02786 
L 582.587543 218.884634 
L 583.236492 223.465331 
L 583.885441 224.611154 
L 584.53439 224.611154 
L 585.183339 220.02786 
L 585.832288 228.046027 
L 586.481238 226.902801 
L 587.130187 236.064194 
L 587.779136 231.483498 
L 588.428085 231.483498 
L 589.077034 226.902801 
L 589.725983 224.611154 
L 590.374932 228.046027 
L 591.023882 232.629321 
L 591.672831 215.447164 
L 592.32178 224.611154 
L 592.970729 221.173683 
L 593.619678 232.629321 
L 594.268627 220.02786 
L 594.917576 212.009693 
L 595.566526 212.009693 
L 596.215475 205.137349 
L 596.864424 203.994124 
L 597.513373 205.137349 
L 598.162322 218.884634 
L 598.811271 209.720644 
L 599.46022 203.994124 
L 600.10917 206.283173 
L 600.758119 205.137349 
L 601.407068 214.30134 
L 602.056017 206.283173 
L 602.704966 214.30134 
L 603.353915 217.738811 
L 604.002864 225.756978 
L 604.651814 223.465331 
L 605.300763 220.02786 
L 605.949712 218.884634 
L 606.598661 77.9925 
L 607.24761 223.465331 
L 607.896559 229.19185 
L 608.545508 225.756978 
L 609.194458 236.064194 
L 609.843407 234.920969 
L 610.492356 231.483498 
L 611.141305 229.19185 
L 611.790254 234.920969 
L 612.439203 253.246352 
L 613.088152 223.465331 
L 613.737101 233.775145 
L 614.386051 234.920969 
L 615.035 231.483498 
L 615.683949 229.19185 
L 616.332898 224.611154 
L 616.981847 233.775145 
L 617.630796 232.629321 
L 618.279745 229.19185 
L 618.928695 226.902801 
L 619.577644 229.19185 
L 620.226593 226.902801 
L 620.875542 220.02786 
L 621.524491 217.738811 
L 622.17344 212.009693 
L 622.822389 214.30134 
L 623.471339 206.283173 
L 624.120288 212.009693 
L 624.769237 226.902801 
L 625.418186 203.994124 
L 626.067135 300.20953 
L 626.716084 202.8483 
L 627.365033 198.265006 
L 628.013983 202.8483 
L 628.662932 197.119182 
L 629.96083 212.009693 
L 630.609779 209.720644 
L 631.258728 236.064194 
L 631.907677 213.155516 
L 632.556627 200.556653 
L 633.205576 216.592987 
L 633.854525 225.756978 
L 634.503474 223.465331 
L 635.152423 225.756978 
L 635.801372 225.756978 
L 636.450321 224.611154 
L 637.099271 230.337674 
L 637.74822 242.939136 
L 638.397169 230.337674 
L 639.046118 231.483498 
L 640.344016 231.483498 
L 640.992965 232.629321 
L 641.641915 231.483498 
L 642.290864 239.501665 
L 643.588762 234.920969 
L 644.237711 244.082361 
L 644.88666 232.629321 
L 645.535609 247.519832 
L 646.184559 257.829646 
L 646.833508 246.374008 
L 647.482457 254.392175 
L 648.131406 250.957303 
L 649.429304 260.118695 
L 650.078253 260.118695 
L 651.376152 262.410342 
L 652.025101 262.410342 
L 652.67405 250.957303 
L 653.322999 257.829646 
L 654.620897 257.829646 
L 655.269846 258.97547 
L 655.918796 263.556166 
L 656.567745 260.118695 
L 657.216694 257.829646 
L 657.865643 260.118695 
L 658.514592 256.683822 
L 659.163541 307.084472 
L 659.81249 266.993637 
L 660.46144 264.70199 
L 661.110389 266.993637 
L 661.759338 265.847813 
L 662.408287 263.556166 
L 663.057236 266.993637 
L 663.706185 269.282686 
L 664.355134 272.720157 
L 665.004084 271.574333 
L 665.653033 271.574333 
L 666.301982 269.282686 
L 666.950931 264.70199 
L 667.59988 275.011804 
L 668.248829 268.136862 
L 668.897778 264.70199 
L 669.546728 269.282686 
L 670.195677 275.011804 
L 670.844626 273.86598 
L 671.493575 271.574333 
L 672.142524 273.86598 
L 672.791473 268.136862 
L 673.440422 335.719669 
L 674.089372 276.155029 
L 674.738321 277.300853 
L 675.38727 271.574333 
L 676.036219 270.428509 
L 676.685168 266.993637 
L 677.334117 272.720157 
L 677.983066 240.647488 
L 678.632016 269.282686 
L 679.280965 271.574333 
L 679.929914 275.011804 
L 680.582108 283.029971 
L 681.231057 273.86598 
L 681.880006 281.884147 
L 682.528955 286.464843 
L 683.826853 291.048138 
L 685.124752 293.337187 
L 685.773701 295.628834 
L 686.42265 294.48301 
L 687.071599 296.774658 
L 687.720548 295.628834 
L 688.369497 297.920481 
L 689.018447 301.355354 
L 689.667396 300.20953 
L 690.316345 295.628834 
L 690.965294 293.337187 
L 691.614243 296.774658 
L 692.263192 294.48301 
L 692.912141 296.774658 
L 693.561091 297.920481 
L 694.21004 294.48301 
L 694.858989 292.191363 
L 695.507938 301.355354 
L 696.156887 295.628834 
L 696.805836 295.628834 
L 697.454785 302.501178 
L 698.103734 302.501178 
L 698.752684 303.647001 
L 699.401633 303.647001 
L 700.050582 300.20953 
L 700.699531 299.066305 
L 701.34848 300.20953 
L 701.997429 297.920481 
L 702.646378 316.245864 
L 703.295328 292.191363 
L 703.944277 292.191363 
L 705.242175 285.31902 
L 705.891124 283.029971 
L 706.540073 278.446676 
L 707.189022 272.720157 
L 707.837972 275.011804 
L 708.486921 257.829646 
L 709.13587 266.993637 
L 709.784819 265.847813 
L 710.433768 262.410342 
L 711.082717 262.410342 
L 713.678514 260.118695 
L 714.327463 260.118695 
L 714.976412 262.410342 
L 715.625361 262.410342 
L 716.27431 255.537999 
L 716.92326 257.829646 
L 717.572209 252.100528 
L 718.221158 256.683822 
L 718.870107 256.683822 
L 719.519056 252.100528 
L 720.168005 248.665655 
L 720.816954 244.082361 
L 721.465904 226.902801 
L 722.114853 247.519832 
L 722.763802 249.811479 
L 723.412751 246.374008 
L 724.0617 248.665655 
L 724.710649 249.811479 
L 725.359598 245.228185 
L 726.008548 246.374008 
L 726.657497 236.064194 
L 727.306446 249.811479 
L 727.955395 245.228185 
L 729.902242 248.665655 
L 730.551192 255.537999 
L 731.200141 254.392175 
L 731.84909 249.811479 
L 732.498039 260.118695 
L 733.146988 249.811479 
L 734.444886 252.100528 
L 734.444886 252.100528 
" clip-path="url(#p9729cc86e5)" style="fill: none; stroke: #ac2b37; stroke-width: 1.5; stroke-linecap: square"/>
   </g>
   <g id="patch_3">
    <path d="M 95.28125 501.3525 
L 95.28125 57.8325 
" style="fill: none; stroke: #000000; stroke-width: 0.8; stroke-linejoin: miter; stroke-linecap: square"/>
   </g>
   <g id="patch_4">
    <path d="M 764.88125 501.3525 
L 764.88125 57.8325 
" style="fill: none; stroke: #000000; stroke-width: 0.8; stroke-linejoin: miter; stroke-linecap: square"/>
   </g>
   <g id="patch_5">
    <path d="M 95.28125 501.3525 
L 764.88125 501.3525 
" style="fill: none; stroke: #000000; stroke-width: 0.8; stroke-linejoin: miter; stroke-linecap: square"/>
   </g>
   <g id="patch_6">
    <path d="M 95.28125 57.8325 
L 764.88125 57.8325 
" style="fill: none; stroke: #000000; stroke-width: 0.8; stroke-linejoin: miter; stroke-linecap: square"/>
   </g>
   <g id="text_19">
    <!-- Light vs Time -->
    <g transform="translate(367.59875 51.8325) scale(0.24 -0.24)">
     <defs>
      <path id="AptosDisplay-76" d="M 1103 0 
L -13 3044 
L 538 3044 
L 1391 513 
L 2250 3044 
L 2781 3044 
L 1678 0 
L 1103 0 
z
" transform="scale(0.015625)"/>
      <path id="AptosDisplay-73" d="M 1506 -41 
Q 1247 -41 1017 14 
Q 788 69 613 191 
Q 438 313 339 506 
Q 241 700 241 978 
L 744 978 
Q 744 628 966 487 
Q 1188 347 1519 347 
Q 1816 347 2008 458 
Q 2200 569 2200 822 
Q 2200 1047 2026 1153 
Q 1853 1259 1413 1369 
Q 1056 1453 815 1564 
Q 575 1675 453 1845 
Q 331 2016 331 2275 
Q 331 2475 417 2626 
Q 503 2778 658 2879 
Q 813 2981 1020 3032 
Q 1228 3084 1472 3084 
Q 1713 3084 1923 3028 
Q 2134 2972 2296 2855 
Q 2459 2738 2551 2552 
Q 2644 2366 2644 2109 
L 2138 2109 
Q 2138 2425 1945 2558 
Q 1753 2691 1472 2691 
Q 1191 2691 1016 2594 
Q 841 2497 841 2291 
Q 841 2169 919 2084 
Q 997 2000 1181 1933 
Q 1366 1866 1675 1791 
Q 2019 1709 2248 1596 
Q 2478 1484 2595 1306 
Q 2713 1128 2713 847 
Q 2713 616 2622 447 
Q 2531 278 2367 170 
Q 2203 63 1983 11 
Q 1763 -41 1506 -41 
z
" transform="scale(0.015625)"/>
     </defs>
     <use xlink:href="#AptosDisplay-4c"/>
     <use xlink:href="#AptosDisplay-69" x="48.4375"/>
     <use xlink:href="#AptosDisplay-67" x="69.482422"/>
     <use xlink:href="#AptosDisplay-68" x="113.427734"/>
     <use xlink:href="#AptosDisplay-74" x="164.013672"/>
     <use xlink:href="#AptosDisplay-20" x="194.384766"/>
     <use xlink:href="#AptosDisplay-76" x="213.671875"/>
     <use xlink:href="#AptosDisplay-73" x="256.933594"/>
     <use xlink:href="#AptosDisplay-20" x="303.222656"/>
     <use xlink:href="#AptosDisplay-54" x="322.509766"/>
     <use xlink:href="#AptosDisplay-69" x="370.214844"/>
     <use xlink:href="#AptosDisplay-6d" x="391.259766"/>
     <use xlink:href="#AptosDisplay-65" x="471.240234"/>
    </g>
   </g>
  </g>
 </g>
 <defs>
  <clipPath id="p9729cc86e5">
   <rect x="95.28125" y="57.8325" width="669.6" height="443.52"/>
  </clipPath>
 </defs>
</svg>
