<?xml version="1.0" encoding="utf-8" standalone="no"?>
<!DOCTYPE svg PUBLIC "-//W3C//DTD SVG 1.1//EN"
  "http://www.w3.org/Graphics/SVG/1.1/DTD/svg11.dtd">
<svg xmlns:xlink="http://www.w3.org/1999/xlink" width="800.88125pt" height="581.830625pt" viewBox="0 0 800.88125 581.830625" xmlns="http://www.w3.org/2000/svg" version="1.1">
 <metadata>
  <rdf:RDF xmlns:dc="http://purl.org/dc/elements/1.1/" xmlns:cc="http://creativecommons.org/ns#" xmlns:rdf="http://www.w3.org/1999/02/22-rdf-syntax-ns#">
   <cc:Work>
    <dc:type rdf:resource="http://purl.org/dc/dcmitype/StillImage"/>
    <dc:date>2025-04-03T01:48:12.853488</dc:date>
    <dc:format>image/svg+xml</dc:format>
    <dc:creator>
     <cc:Agent>
      <dc:title>Matplotlib v3.8.2, https://matplotlib.org/</dc:title>
     </cc:Agent>
    </dc:creator>
   </cc:Work>
  </rdf:RDF>
 </metadata>
 <defs>
  <style type="text/css">*{stroke-linejoin: round; stroke-linecap: butt}</style>
 </defs>
 <g id="figure_1">
  <g id="patch_1">
   <path d="M 0 581.830625 
L 800.88125 581.830625 
L 800.88125 0 
L 0 0 
z
" style="fill: #ffffff"/>
  </g>
  <g id="axes_1">
   <g id="patch_2">
    <path d="M 95.28125 501.3525 
L 764.88125 501.3525 
L 764.88125 57.8325 
L 95.28125 57.8325 
z
" style="fill: #ffffff"/>
   </g>
   <g id="matplotlib.axis_1">
    <g id="xtick_1">
     <g id="line2d_1">
      <path d="M 125.02006 501.3525 
L 125.02006 57.8325 
" clip-path="url(#p3a380b9aba)" style="fill: none; stroke: #b0b0b0; stroke-opacity: 0.8; stroke-linecap: square"/>
     </g>
     <g id="line2d_2">
      <defs>
       <path id="m3c8148e9cb" d="M 0 0 
L 0 3.5 
" style="stroke: #000000; stroke-width: 0.8"/>
      </defs>
      <g>
       <use xlink:href="#m3c8148e9cb" x="125.02006" y="501.3525" style="stroke: #000000; stroke-width: 0.8"/>
      </g>
     </g>
     <g id="text_1">
      <!-- 0 -->
      <g transform="translate(119.790373 521.49625) scale(0.2 -0.2)">
       <defs>
        <path id="AptosDisplay-30" d="M 1672 -56 
Q 1291 -56 1028 105 
Q 766 266 605 552 
Q 444 838 372 1216 
Q 300 1594 300 2031 
Q 300 2475 372 2856 
Q 444 3238 605 3525 
Q 766 3813 1028 3973 
Q 1291 4134 1672 4134 
Q 2053 4134 2317 3975 
Q 2581 3816 2742 3527 
Q 2903 3238 2975 2858 
Q 3047 2478 3047 2038 
Q 3047 1597 2975 1217 
Q 2903 838 2742 552 
Q 2581 266 2318 105 
Q 2056 -56 1672 -56 
z
M 1672 409 
Q 1916 409 2073 550 
Q 2231 691 2322 925 
Q 2413 1159 2448 1448 
Q 2484 1738 2484 2038 
Q 2484 2338 2448 2628 
Q 2413 2919 2322 3153 
Q 2231 3388 2073 3527 
Q 1916 3666 1669 3666 
Q 1428 3666 1268 3527 
Q 1109 3388 1020 3153 
Q 931 2919 893 2628 
Q 856 2338 856 2038 
Q 856 1741 893 1450 
Q 931 1159 1020 925 
Q 1109 691 1268 550 
Q 1428 409 1672 409 
z
" transform="scale(0.015625)"/>
       </defs>
       <use xlink:href="#AptosDisplay-30"/>
      </g>
     </g>
    </g>
    <g id="xtick_2">
     <g id="line2d_3">
      <path d="M 207.278724 501.3525 
L 207.278724 57.8325 
" clip-path="url(#p3a380b9aba)" style="fill: none; stroke: #b0b0b0; stroke-opacity: 0.8; stroke-linecap: square"/>
     </g>
     <g id="line2d_4">
      <g>
       <use xlink:href="#m3c8148e9cb" x="207.278724" y="501.3525" style="stroke: #000000; stroke-width: 0.8"/>
      </g>
     </g>
     <g id="text_2">
      <!-- 25 -->
      <g transform="translate(196.819349 521.49625) scale(0.2 -0.2)">
       <defs>
        <path id="AptosDisplay-32" d="M 247 0 
L 247 413 
L 1725 1741 
Q 2100 2081 2269 2351 
Q 2438 2622 2438 2938 
Q 2438 3256 2263 3461 
Q 2088 3666 1691 3666 
Q 1247 3666 1055 3439 
Q 863 3213 863 2869 
L 341 2869 
Q 341 3250 491 3534 
Q 641 3819 941 3975 
Q 1241 4131 1691 4131 
Q 2103 4131 2390 3986 
Q 2678 3841 2828 3578 
Q 2978 3316 2978 2959 
Q 2978 2638 2853 2375 
Q 2728 2113 2517 1883 
Q 2306 1653 2044 1425 
L 959 463 
L 3097 463 
L 3097 0 
L 247 0 
z
" transform="scale(0.015625)"/>
        <path id="AptosDisplay-35" d="M 1669 -56 
Q 1278 -56 964 83 
Q 650 222 465 483 
Q 281 744 281 1113 
L 816 1113 
Q 816 778 1055 584 
Q 1294 391 1669 391 
Q 2069 391 2291 625 
Q 2513 859 2513 1319 
Q 2513 1772 2291 1989 
Q 2069 2206 1697 2206 
Q 1409 2206 1223 2123 
Q 1038 2041 916 1894 
L 444 1894 
L 622 4078 
L 2788 4078 
L 2788 3613 
L 1041 3613 
L 931 2322 
Q 1044 2453 1251 2550 
Q 1459 2647 1775 2647 
Q 2131 2647 2420 2506 
Q 2709 2366 2881 2072 
Q 3053 1778 3053 1319 
Q 3053 863 2875 558 
Q 2697 253 2384 98 
Q 2072 -56 1669 -56 
z
" transform="scale(0.015625)"/>
       </defs>
       <use xlink:href="#AptosDisplay-32"/>
       <use xlink:href="#AptosDisplay-35" x="52.294922"/>
      </g>
     </g>
    </g>
    <g id="xtick_3">
     <g id="line2d_5">
      <path d="M 289.537388 501.3525 
L 289.537388 57.8325 
" clip-path="url(#p3a380b9aba)" style="fill: none; stroke: #b0b0b0; stroke-opacity: 0.8; stroke-linecap: square"/>
     </g>
     <g id="line2d_6">
      <g>
       <use xlink:href="#m3c8148e9cb" x="289.537388" y="501.3525" style="stroke: #000000; stroke-width: 0.8"/>
      </g>
     </g>
     <g id="text_3">
      <!-- 50 -->
      <g transform="translate(279.078013 521.49625) scale(0.2 -0.2)">
       <use xlink:href="#AptosDisplay-35"/>
       <use xlink:href="#AptosDisplay-30" x="52.294922"/>
      </g>
     </g>
    </g>
    <g id="xtick_4">
     <g id="line2d_7">
      <path d="M 371.796051 501.3525 
L 371.796051 57.8325 
" clip-path="url(#p3a380b9aba)" style="fill: none; stroke: #b0b0b0; stroke-opacity: 0.8; stroke-linecap: square"/>
     </g>
     <g id="line2d_8">
      <g>
       <use xlink:href="#m3c8148e9cb" x="371.796051" y="501.3525" style="stroke: #000000; stroke-width: 0.8"/>
      </g>
     </g>
     <g id="text_4">
      <!-- 75 -->
      <g transform="translate(361.336676 521.49625) scale(0.2 -0.2)">
       <defs>
        <path id="AptosDisplay-37" d="M 766 0 
L 2609 3600 
L 194 3600 
L 194 4078 
L 3141 4078 
L 3141 3622 
L 1334 0 
L 766 0 
z
" transform="scale(0.015625)"/>
       </defs>
       <use xlink:href="#AptosDisplay-37"/>
       <use xlink:href="#AptosDisplay-35" x="52.294922"/>
      </g>
     </g>
    </g>
    <g id="xtick_5">
     <g id="line2d_9">
      <path d="M 454.054715 501.3525 
L 454.054715 57.8325 
" clip-path="url(#p3a380b9aba)" style="fill: none; stroke: #b0b0b0; stroke-opacity: 0.8; stroke-linecap: square"/>
     </g>
     <g id="line2d_10">
      <g>
       <use xlink:href="#m3c8148e9cb" x="454.054715" y="501.3525" style="stroke: #000000; stroke-width: 0.8"/>
      </g>
     </g>
     <g id="text_5">
      <!-- 100 -->
      <g transform="translate(438.365652 521.49625) scale(0.2 -0.2)">
       <defs>
        <path id="AptosDisplay-31" d="M 1659 0 
L 1659 3425 
Q 1575 3309 1420 3201 
Q 1266 3094 1052 3009 
Q 838 2925 578 2888 
L 578 3381 
Q 834 3425 1057 3540 
Q 1281 3656 1453 3806 
Q 1625 3956 1719 4094 
L 2206 4094 
L 2206 0 
L 1659 0 
z
" transform="scale(0.015625)"/>
       </defs>
       <use xlink:href="#AptosDisplay-31"/>
       <use xlink:href="#AptosDisplay-30" x="52.294922"/>
       <use xlink:href="#AptosDisplay-30" x="104.589844"/>
      </g>
     </g>
    </g>
    <g id="xtick_6">
     <g id="line2d_11">
      <path d="M 536.313379 501.3525 
L 536.313379 57.8325 
" clip-path="url(#p3a380b9aba)" style="fill: none; stroke: #b0b0b0; stroke-opacity: 0.8; stroke-linecap: square"/>
     </g>
     <g id="line2d_12">
      <g>
       <use xlink:href="#m3c8148e9cb" x="536.313379" y="501.3525" style="stroke: #000000; stroke-width: 0.8"/>
      </g>
     </g>
     <g id="text_6">
      <!-- 125 -->
      <g transform="translate(520.624316 521.49625) scale(0.2 -0.2)">
       <use xlink:href="#AptosDisplay-31"/>
       <use xlink:href="#AptosDisplay-32" x="52.294922"/>
       <use xlink:href="#AptosDisplay-35" x="104.589844"/>
      </g>
     </g>
    </g>
    <g id="xtick_7">
     <g id="line2d_13">
      <path d="M 618.572042 501.3525 
L 618.572042 57.8325 
" clip-path="url(#p3a380b9aba)" style="fill: none; stroke: #b0b0b0; stroke-opacity: 0.8; stroke-linecap: square"/>
     </g>
     <g id="line2d_14">
      <g>
       <use xlink:href="#m3c8148e9cb" x="618.572042" y="501.3525" style="stroke: #000000; stroke-width: 0.8"/>
      </g>
     </g>
     <g id="text_7">
      <!-- 150 -->
      <g transform="translate(602.88298 521.49625) scale(0.2 -0.2)">
       <use xlink:href="#AptosDisplay-31"/>
       <use xlink:href="#AptosDisplay-35" x="52.294922"/>
       <use xlink:href="#AptosDisplay-30" x="104.589844"/>
      </g>
     </g>
    </g>
    <g id="xtick_8">
     <g id="line2d_15">
      <path d="M 700.830706 501.3525 
L 700.830706 57.8325 
" clip-path="url(#p3a380b9aba)" style="fill: none; stroke: #b0b0b0; stroke-opacity: 0.8; stroke-linecap: square"/>
     </g>
     <g id="line2d_16">
      <g>
       <use xlink:href="#m3c8148e9cb" x="700.830706" y="501.3525" style="stroke: #000000; stroke-width: 0.8"/>
      </g>
     </g>
     <g id="text_8">
      <!-- 175 -->
      <g transform="translate(685.141644 521.49625) scale(0.2 -0.2)">
       <use xlink:href="#AptosDisplay-31"/>
       <use xlink:href="#AptosDisplay-37" x="52.294922"/>
       <use xlink:href="#AptosDisplay-35" x="104.589844"/>
      </g>
     </g>
    </g>
    <g id="xtick_9">
     <g id="line2d_17">
      <path d="M 108.568327 501.3525 
L 108.568327 57.8325 
" clip-path="url(#p3a380b9aba)" style="fill: none; stroke-dasharray: 1.85,0.8; stroke-dashoffset: 0; stroke: #b0b0b0; stroke-opacity: 0.8; stroke-width: 0.5"/>
     </g>
     <g id="line2d_18">
      <defs>
       <path id="mbcc1b0e906" d="M 0 0 
L 0 2 
" style="stroke: #000000; stroke-width: 0.6"/>
      </defs>
      <g>
       <use xlink:href="#mbcc1b0e906" x="108.568327" y="501.3525" style="stroke: #000000; stroke-width: 0.6"/>
      </g>
     </g>
    </g>
    <g id="xtick_10">
     <g id="line2d_19">
      <path d="M 141.471793 501.3525 
L 141.471793 57.8325 
" clip-path="url(#p3a380b9aba)" style="fill: none; stroke-dasharray: 1.85,0.8; stroke-dashoffset: 0; stroke: #b0b0b0; stroke-opacity: 0.8; stroke-width: 0.5"/>
     </g>
     <g id="line2d_20">
      <g>
       <use xlink:href="#mbcc1b0e906" x="141.471793" y="501.3525" style="stroke: #000000; stroke-width: 0.6"/>
      </g>
     </g>
    </g>
    <g id="xtick_11">
     <g id="line2d_21">
      <path d="M 157.923526 501.3525 
L 157.923526 57.8325 
" clip-path="url(#p3a380b9aba)" style="fill: none; stroke-dasharray: 1.85,0.8; stroke-dashoffset: 0; stroke: #b0b0b0; stroke-opacity: 0.8; stroke-width: 0.5"/>
     </g>
     <g id="line2d_22">
      <g>
       <use xlink:href="#mbcc1b0e906" x="157.923526" y="501.3525" style="stroke: #000000; stroke-width: 0.6"/>
      </g>
     </g>
    </g>
    <g id="xtick_12">
     <g id="line2d_23">
      <path d="M 174.375258 501.3525 
L 174.375258 57.8325 
" clip-path="url(#p3a380b9aba)" style="fill: none; stroke-dasharray: 1.85,0.8; stroke-dashoffset: 0; stroke: #b0b0b0; stroke-opacity: 0.8; stroke-width: 0.5"/>
     </g>
     <g id="line2d_24">
      <g>
       <use xlink:href="#mbcc1b0e906" x="174.375258" y="501.3525" style="stroke: #000000; stroke-width: 0.6"/>
      </g>
     </g>
    </g>
    <g id="xtick_13">
     <g id="line2d_25">
      <path d="M 190.826991 501.3525 
L 190.826991 57.8325 
" clip-path="url(#p3a380b9aba)" style="fill: none; stroke-dasharray: 1.85,0.8; stroke-dashoffset: 0; stroke: #b0b0b0; stroke-opacity: 0.8; stroke-width: 0.5"/>
     </g>
     <g id="line2d_26">
      <g>
       <use xlink:href="#mbcc1b0e906" x="190.826991" y="501.3525" style="stroke: #000000; stroke-width: 0.6"/>
      </g>
     </g>
    </g>
    <g id="xtick_14">
     <g id="line2d_27">
      <path d="M 223.730457 501.3525 
L 223.730457 57.8325 
" clip-path="url(#p3a380b9aba)" style="fill: none; stroke-dasharray: 1.85,0.8; stroke-dashoffset: 0; stroke: #b0b0b0; stroke-opacity: 0.8; stroke-width: 0.5"/>
     </g>
     <g id="line2d_28">
      <g>
       <use xlink:href="#mbcc1b0e906" x="223.730457" y="501.3525" style="stroke: #000000; stroke-width: 0.6"/>
      </g>
     </g>
    </g>
    <g id="xtick_15">
     <g id="line2d_29">
      <path d="M 240.182189 501.3525 
L 240.182189 57.8325 
" clip-path="url(#p3a380b9aba)" style="fill: none; stroke-dasharray: 1.85,0.8; stroke-dashoffset: 0; stroke: #b0b0b0; stroke-opacity: 0.8; stroke-width: 0.5"/>
     </g>
     <g id="line2d_30">
      <g>
       <use xlink:href="#mbcc1b0e906" x="240.182189" y="501.3525" style="stroke: #000000; stroke-width: 0.6"/>
      </g>
     </g>
    </g>
    <g id="xtick_16">
     <g id="line2d_31">
      <path d="M 256.633922 501.3525 
L 256.633922 57.8325 
" clip-path="url(#p3a380b9aba)" style="fill: none; stroke-dasharray: 1.85,0.8; stroke-dashoffset: 0; stroke: #b0b0b0; stroke-opacity: 0.8; stroke-width: 0.5"/>
     </g>
     <g id="line2d_32">
      <g>
       <use xlink:href="#mbcc1b0e906" x="256.633922" y="501.3525" style="stroke: #000000; stroke-width: 0.6"/>
      </g>
     </g>
    </g>
    <g id="xtick_17">
     <g id="line2d_33">
      <path d="M 273.085655 501.3525 
L 273.085655 57.8325 
" clip-path="url(#p3a380b9aba)" style="fill: none; stroke-dasharray: 1.85,0.8; stroke-dashoffset: 0; stroke: #b0b0b0; stroke-opacity: 0.8; stroke-width: 0.5"/>
     </g>
     <g id="line2d_34">
      <g>
       <use xlink:href="#mbcc1b0e906" x="273.085655" y="501.3525" style="stroke: #000000; stroke-width: 0.6"/>
      </g>
     </g>
    </g>
    <g id="xtick_18">
     <g id="line2d_35">
      <path d="M 305.98912 501.3525 
L 305.98912 57.8325 
" clip-path="url(#p3a380b9aba)" style="fill: none; stroke-dasharray: 1.85,0.8; stroke-dashoffset: 0; stroke: #b0b0b0; stroke-opacity: 0.8; stroke-width: 0.5"/>
     </g>
     <g id="line2d_36">
      <g>
       <use xlink:href="#mbcc1b0e906" x="305.98912" y="501.3525" style="stroke: #000000; stroke-width: 0.6"/>
      </g>
     </g>
    </g>
    <g id="xtick_19">
     <g id="line2d_37">
      <path d="M 322.440853 501.3525 
L 322.440853 57.8325 
" clip-path="url(#p3a380b9aba)" style="fill: none; stroke-dasharray: 1.85,0.8; stroke-dashoffset: 0; stroke: #b0b0b0; stroke-opacity: 0.8; stroke-width: 0.5"/>
     </g>
     <g id="line2d_38">
      <g>
       <use xlink:href="#mbcc1b0e906" x="322.440853" y="501.3525" style="stroke: #000000; stroke-width: 0.6"/>
      </g>
     </g>
    </g>
    <g id="xtick_20">
     <g id="line2d_39">
      <path d="M 338.892586 501.3525 
L 338.892586 57.8325 
" clip-path="url(#p3a380b9aba)" style="fill: none; stroke-dasharray: 1.85,0.8; stroke-dashoffset: 0; stroke: #b0b0b0; stroke-opacity: 0.8; stroke-width: 0.5"/>
     </g>
     <g id="line2d_40">
      <g>
       <use xlink:href="#mbcc1b0e906" x="338.892586" y="501.3525" style="stroke: #000000; stroke-width: 0.6"/>
      </g>
     </g>
    </g>
    <g id="xtick_21">
     <g id="line2d_41">
      <path d="M 355.344319 501.3525 
L 355.344319 57.8325 
" clip-path="url(#p3a380b9aba)" style="fill: none; stroke-dasharray: 1.85,0.8; stroke-dashoffset: 0; stroke: #b0b0b0; stroke-opacity: 0.8; stroke-width: 0.5"/>
     </g>
     <g id="line2d_42">
      <g>
       <use xlink:href="#mbcc1b0e906" x="355.344319" y="501.3525" style="stroke: #000000; stroke-width: 0.6"/>
      </g>
     </g>
    </g>
    <g id="xtick_22">
     <g id="line2d_43">
      <path d="M 388.247784 501.3525 
L 388.247784 57.8325 
" clip-path="url(#p3a380b9aba)" style="fill: none; stroke-dasharray: 1.85,0.8; stroke-dashoffset: 0; stroke: #b0b0b0; stroke-opacity: 0.8; stroke-width: 0.5"/>
     </g>
     <g id="line2d_44">
      <g>
       <use xlink:href="#mbcc1b0e906" x="388.247784" y="501.3525" style="stroke: #000000; stroke-width: 0.6"/>
      </g>
     </g>
    </g>
    <g id="xtick_23">
     <g id="line2d_45">
      <path d="M 404.699517 501.3525 
L 404.699517 57.8325 
" clip-path="url(#p3a380b9aba)" style="fill: none; stroke-dasharray: 1.85,0.8; stroke-dashoffset: 0; stroke: #b0b0b0; stroke-opacity: 0.8; stroke-width: 0.5"/>
     </g>
     <g id="line2d_46">
      <g>
       <use xlink:href="#mbcc1b0e906" x="404.699517" y="501.3525" style="stroke: #000000; stroke-width: 0.6"/>
      </g>
     </g>
    </g>
    <g id="xtick_24">
     <g id="line2d_47">
      <path d="M 421.151249 501.3525 
L 421.151249 57.8325 
" clip-path="url(#p3a380b9aba)" style="fill: none; stroke-dasharray: 1.85,0.8; stroke-dashoffset: 0; stroke: #b0b0b0; stroke-opacity: 0.8; stroke-width: 0.5"/>
     </g>
     <g id="line2d_48">
      <g>
       <use xlink:href="#mbcc1b0e906" x="421.151249" y="501.3525" style="stroke: #000000; stroke-width: 0.6"/>
      </g>
     </g>
    </g>
    <g id="xtick_25">
     <g id="line2d_49">
      <path d="M 437.602982 501.3525 
L 437.602982 57.8325 
" clip-path="url(#p3a380b9aba)" style="fill: none; stroke-dasharray: 1.85,0.8; stroke-dashoffset: 0; stroke: #b0b0b0; stroke-opacity: 0.8; stroke-width: 0.5"/>
     </g>
     <g id="line2d_50">
      <g>
       <use xlink:href="#mbcc1b0e906" x="437.602982" y="501.3525" style="stroke: #000000; stroke-width: 0.6"/>
      </g>
     </g>
    </g>
    <g id="xtick_26">
     <g id="line2d_51">
      <path d="M 470.506448 501.3525 
L 470.506448 57.8325 
" clip-path="url(#p3a380b9aba)" style="fill: none; stroke-dasharray: 1.85,0.8; stroke-dashoffset: 0; stroke: #b0b0b0; stroke-opacity: 0.8; stroke-width: 0.5"/>
     </g>
     <g id="line2d_52">
      <g>
       <use xlink:href="#mbcc1b0e906" x="470.506448" y="501.3525" style="stroke: #000000; stroke-width: 0.6"/>
      </g>
     </g>
    </g>
    <g id="xtick_27">
     <g id="line2d_53">
      <path d="M 486.95818 501.3525 
L 486.95818 57.8325 
" clip-path="url(#p3a380b9aba)" style="fill: none; stroke-dasharray: 1.85,0.8; stroke-dashoffset: 0; stroke: #b0b0b0; stroke-opacity: 0.8; stroke-width: 0.5"/>
     </g>
     <g id="line2d_54">
      <g>
       <use xlink:href="#mbcc1b0e906" x="486.95818" y="501.3525" style="stroke: #000000; stroke-width: 0.6"/>
      </g>
     </g>
    </g>
    <g id="xtick_28">
     <g id="line2d_55">
      <path d="M 503.409913 501.3525 
L 503.409913 57.8325 
" clip-path="url(#p3a380b9aba)" style="fill: none; stroke-dasharray: 1.85,0.8; stroke-dashoffset: 0; stroke: #b0b0b0; stroke-opacity: 0.8; stroke-width: 0.5"/>
     </g>
     <g id="line2d_56">
      <g>
       <use xlink:href="#mbcc1b0e906" x="503.409913" y="501.3525" style="stroke: #000000; stroke-width: 0.6"/>
      </g>
     </g>
    </g>
    <g id="xtick_29">
     <g id="line2d_57">
      <path d="M 519.861646 501.3525 
L 519.861646 57.8325 
" clip-path="url(#p3a380b9aba)" style="fill: none; stroke-dasharray: 1.85,0.8; stroke-dashoffset: 0; stroke: #b0b0b0; stroke-opacity: 0.8; stroke-width: 0.5"/>
     </g>
     <g id="line2d_58">
      <g>
       <use xlink:href="#mbcc1b0e906" x="519.861646" y="501.3525" style="stroke: #000000; stroke-width: 0.6"/>
      </g>
     </g>
    </g>
    <g id="xtick_30">
     <g id="line2d_59">
      <path d="M 552.765111 501.3525 
L 552.765111 57.8325 
" clip-path="url(#p3a380b9aba)" style="fill: none; stroke-dasharray: 1.85,0.8; stroke-dashoffset: 0; stroke: #b0b0b0; stroke-opacity: 0.8; stroke-width: 0.5"/>
     </g>
     <g id="line2d_60">
      <g>
       <use xlink:href="#mbcc1b0e906" x="552.765111" y="501.3525" style="stroke: #000000; stroke-width: 0.6"/>
      </g>
     </g>
    </g>
    <g id="xtick_31">
     <g id="line2d_61">
      <path d="M 569.216844 501.3525 
L 569.216844 57.8325 
" clip-path="url(#p3a380b9aba)" style="fill: none; stroke-dasharray: 1.85,0.8; stroke-dashoffset: 0; stroke: #b0b0b0; stroke-opacity: 0.8; stroke-width: 0.5"/>
     </g>
     <g id="line2d_62">
      <g>
       <use xlink:href="#mbcc1b0e906" x="569.216844" y="501.3525" style="stroke: #000000; stroke-width: 0.6"/>
      </g>
     </g>
    </g>
    <g id="xtick_32">
     <g id="line2d_63">
      <path d="M 585.668577 501.3525 
L 585.668577 57.8325 
" clip-path="url(#p3a380b9aba)" style="fill: none; stroke-dasharray: 1.85,0.8; stroke-dashoffset: 0; stroke: #b0b0b0; stroke-opacity: 0.8; stroke-width: 0.5"/>
     </g>
     <g id="line2d_64">
      <g>
       <use xlink:href="#mbcc1b0e906" x="585.668577" y="501.3525" style="stroke: #000000; stroke-width: 0.6"/>
      </g>
     </g>
    </g>
    <g id="xtick_33">
     <g id="line2d_65">
      <path d="M 602.12031 501.3525 
L 602.12031 57.8325 
" clip-path="url(#p3a380b9aba)" style="fill: none; stroke-dasharray: 1.85,0.8; stroke-dashoffset: 0; stroke: #b0b0b0; stroke-opacity: 0.8; stroke-width: 0.5"/>
     </g>
     <g id="line2d_66">
      <g>
       <use xlink:href="#mbcc1b0e906" x="602.12031" y="501.3525" style="stroke: #000000; stroke-width: 0.6"/>
      </g>
     </g>
    </g>
    <g id="xtick_34">
     <g id="line2d_67">
      <path d="M 635.023775 501.3525 
L 635.023775 57.8325 
" clip-path="url(#p3a380b9aba)" style="fill: none; stroke-dasharray: 1.85,0.8; stroke-dashoffset: 0; stroke: #b0b0b0; stroke-opacity: 0.8; stroke-width: 0.5"/>
     </g>
     <g id="line2d_68">
      <g>
       <use xlink:href="#mbcc1b0e906" x="635.023775" y="501.3525" style="stroke: #000000; stroke-width: 0.6"/>
      </g>
     </g>
    </g>
    <g id="xtick_35">
     <g id="line2d_69">
      <path d="M 651.475508 501.3525 
L 651.475508 57.8325 
" clip-path="url(#p3a380b9aba)" style="fill: none; stroke-dasharray: 1.85,0.8; stroke-dashoffset: 0; stroke: #b0b0b0; stroke-opacity: 0.8; stroke-width: 0.5"/>
     </g>
     <g id="line2d_70">
      <g>
       <use xlink:href="#mbcc1b0e906" x="651.475508" y="501.3525" style="stroke: #000000; stroke-width: 0.6"/>
      </g>
     </g>
    </g>
    <g id="xtick_36">
     <g id="line2d_71">
      <path d="M 667.927241 501.3525 
L 667.927241 57.8325 
" clip-path="url(#p3a380b9aba)" style="fill: none; stroke-dasharray: 1.85,0.8; stroke-dashoffset: 0; stroke: #b0b0b0; stroke-opacity: 0.8; stroke-width: 0.5"/>
     </g>
     <g id="line2d_72">
      <g>
       <use xlink:href="#mbcc1b0e906" x="667.927241" y="501.3525" style="stroke: #000000; stroke-width: 0.6"/>
      </g>
     </g>
    </g>
    <g id="xtick_37">
     <g id="line2d_73">
      <path d="M 684.378973 501.3525 
L 684.378973 57.8325 
" clip-path="url(#p3a380b9aba)" style="fill: none; stroke-dasharray: 1.85,0.8; stroke-dashoffset: 0; stroke: #b0b0b0; stroke-opacity: 0.8; stroke-width: 0.5"/>
     </g>
     <g id="line2d_74">
      <g>
       <use xlink:href="#mbcc1b0e906" x="684.378973" y="501.3525" style="stroke: #000000; stroke-width: 0.6"/>
      </g>
     </g>
    </g>
    <g id="xtick_38">
     <g id="line2d_75">
      <path d="M 717.282439 501.3525 
L 717.282439 57.8325 
" clip-path="url(#p3a380b9aba)" style="fill: none; stroke-dasharray: 1.85,0.8; stroke-dashoffset: 0; stroke: #b0b0b0; stroke-opacity: 0.8; stroke-width: 0.5"/>
     </g>
     <g id="line2d_76">
      <g>
       <use xlink:href="#mbcc1b0e906" x="717.282439" y="501.3525" style="stroke: #000000; stroke-width: 0.6"/>
      </g>
     </g>
    </g>
    <g id="xtick_39">
     <g id="line2d_77">
      <path d="M 733.734172 501.3525 
L 733.734172 57.8325 
" clip-path="url(#p3a380b9aba)" style="fill: none; stroke-dasharray: 1.85,0.8; stroke-dashoffset: 0; stroke: #b0b0b0; stroke-opacity: 0.8; stroke-width: 0.5"/>
     </g>
     <g id="line2d_78">
      <g>
       <use xlink:href="#mbcc1b0e906" x="733.734172" y="501.3525" style="stroke: #000000; stroke-width: 0.6"/>
      </g>
     </g>
    </g>
    <g id="xtick_40">
     <g id="line2d_79">
      <path d="M 750.185904 501.3525 
L 750.185904 57.8325 
" clip-path="url(#p3a380b9aba)" style="fill: none; stroke-dasharray: 1.85,0.8; stroke-dashoffset: 0; stroke: #b0b0b0; stroke-opacity: 0.8; stroke-width: 0.5"/>
     </g>
     <g id="line2d_80">
      <g>
       <use xlink:href="#mbcc1b0e906" x="750.185904" y="501.3525" style="stroke: #000000; stroke-width: 0.6"/>
      </g>
     </g>
    </g>
    <g id="text_9">
     <!-- Time (S) -->
     <g transform="translate(396.990625 542.305625) scale(0.2 -0.2)">
      <defs>
       <path id="AptosDisplay-54" d="M 1244 0 
L 1244 3734 
L 50 3734 
L 50 4206 
L 2997 4206 
L 2997 3734 
L 1806 3734 
L 1806 0 
L 1244 0 
z
" transform="scale(0.015625)"/>
       <path id="AptosDisplay-69" d="M 413 0 
L 413 3044 
L 934 3044 
L 934 0 
L 413 0 
z
M 675 3616 
Q 525 3616 437 3702 
Q 350 3788 350 3919 
Q 350 4050 437 4136 
Q 525 4222 675 4222 
Q 822 4222 912 4136 
Q 1003 4050 1003 3919 
Q 1003 3788 912 3702 
Q 822 3616 675 3616 
z
" transform="scale(0.015625)"/>
       <path id="AptosDisplay-6d" d="M 413 0 
L 413 3044 
L 919 3044 
L 931 2575 
Q 1063 2756 1303 2914 
Q 1544 3072 1903 3072 
Q 2403 3072 2618 2778 
Q 2834 2484 2834 1963 
L 2834 0 
L 2316 0 
L 2316 1891 
Q 2316 2106 2275 2275 
Q 2234 2444 2120 2539 
Q 2006 2634 1788 2634 
Q 1488 2634 1277 2482 
Q 1066 2331 934 2156 
L 934 0 
L 413 0 
z
M 4206 0 
L 4206 1891 
Q 4206 2106 4164 2275 
Q 4122 2444 4009 2539 
Q 3897 2634 3681 2634 
Q 3381 2634 3165 2484 
Q 2950 2334 2822 2159 
L 2744 2544 
Q 2916 2741 3175 2906 
Q 3434 3072 3800 3072 
Q 4291 3072 4509 2778 
Q 4728 2484 4728 1963 
L 4728 0 
L 4206 0 
z
" transform="scale(0.015625)"/>
       <path id="AptosDisplay-65" d="M 1663 -56 
Q 1188 -56 878 151 
Q 569 359 417 717 
Q 266 1075 266 1522 
Q 266 1988 412 2342 
Q 559 2697 857 2897 
Q 1156 3097 1606 3097 
Q 2209 3097 2550 2722 
Q 2891 2347 2891 1644 
Q 2891 1597 2889 1533 
Q 2888 1469 2881 1441 
L 791 1441 
Q 794 1144 881 895 
Q 969 647 1161 497 
Q 1353 347 1663 347 
Q 1997 347 2183 511 
Q 2369 675 2378 984 
L 2894 984 
Q 2884 663 2732 430 
Q 2581 197 2309 70 
Q 2038 -56 1663 -56 
z
M 794 1822 
L 2375 1822 
Q 2366 2247 2166 2472 
Q 1966 2697 1606 2697 
Q 1241 2697 1036 2473 
Q 831 2250 794 1822 
z
" transform="scale(0.015625)"/>
       <path id="AptosDisplay-20" transform="scale(0.015625)"/>
       <path id="AptosDisplay-28" d="M 1219 -1116 
Q 969 -678 787 -267 
Q 606 144 511 581 
Q 416 1019 416 1528 
Q 416 2028 509 2486 
Q 603 2944 783 3378 
Q 963 3813 1219 4231 
L 1647 4231 
Q 1278 3600 1101 2886 
Q 925 2172 925 1428 
Q 925 766 1125 103 
Q 1325 -559 1647 -1116 
L 1219 -1116 
z
" transform="scale(0.015625)"/>
       <path id="AptosDisplay-53" d="M 1778 -56 
Q 1328 -56 962 81 
Q 597 219 384 512 
Q 172 806 172 1275 
L 734 1275 
Q 738 941 883 750 
Q 1028 559 1267 481 
Q 1506 403 1794 403 
Q 2063 403 2283 483 
Q 2503 563 2634 723 
Q 2766 884 2766 1134 
Q 2766 1356 2662 1497 
Q 2559 1638 2321 1742 
Q 2084 1847 1678 1950 
Q 1203 2075 897 2223 
Q 591 2372 442 2594 
Q 294 2816 294 3156 
Q 294 3516 462 3761 
Q 631 4006 945 4134 
Q 1259 4263 1697 4263 
Q 2103 4263 2440 4131 
Q 2778 4000 2979 3737 
Q 3181 3475 3181 3084 
L 2616 3084 
Q 2622 3441 2356 3623 
Q 2091 3806 1700 3806 
Q 1300 3806 1073 3645 
Q 847 3484 847 3175 
Q 847 2991 944 2867 
Q 1041 2744 1280 2644 
Q 1519 2544 1941 2434 
Q 2428 2303 2731 2153 
Q 3034 2003 3178 1768 
Q 3322 1534 3322 1153 
Q 3322 747 3117 480 
Q 2913 213 2564 78 
Q 2216 -56 1778 -56 
z
" transform="scale(0.015625)"/>
       <path id="AptosDisplay-29" d="M 234 -1116 
Q 609 -481 786 233 
Q 963 947 963 1694 
Q 963 2356 759 3015 
Q 556 3675 234 4231 
L 663 4231 
Q 919 3800 1098 3389 
Q 1278 2978 1373 2540 
Q 1469 2103 1469 1594 
Q 1469 1094 1375 634 
Q 1281 175 1100 -259 
Q 919 -694 663 -1116 
L 234 -1116 
z
" transform="scale(0.015625)"/>
      </defs>
      <use xlink:href="#AptosDisplay-54"/>
      <use xlink:href="#AptosDisplay-69" x="47.705078"/>
      <use xlink:href="#AptosDisplay-6d" x="68.75"/>
      <use xlink:href="#AptosDisplay-65" x="148.730469"/>
      <use xlink:href="#AptosDisplay-20" x="198.144531"/>
      <use xlink:href="#AptosDisplay-28" x="217.431641"/>
      <use xlink:href="#AptosDisplay-53" x="246.875"/>
      <use xlink:href="#AptosDisplay-29" x="301.464844"/>
     </g>
    </g>
   </g>
   <g id="matplotlib.axis_2">
    <g id="ytick_1">
     <g id="line2d_81">
      <path d="M 95.28125 466.928963 
L 764.88125 466.928963 
" clip-path="url(#p3a380b9aba)" style="fill: none; stroke: #b0b0b0; stroke-opacity: 0.8; stroke-linecap: square"/>
     </g>
     <g id="line2d_82">
      <defs>
       <path id="m10de3be2cd" d="M 0 0 
L -3.5 0 
" style="stroke: #000000; stroke-width: 0.8"/>
      </defs>
      <g>
       <use xlink:href="#m10de3be2cd" x="95.28125" y="466.928963" style="stroke: #000000; stroke-width: 0.8"/>
      </g>
     </g>
     <g id="text_10">
      <!-- 380 -->
      <g transform="translate(56.903125 473.500838) scale(0.2 -0.2)">
       <defs>
        <path id="AptosDisplay-33" d="M 1700 -56 
Q 1047 -56 655 275 
Q 263 606 263 1225 
L 781 1225 
Q 781 844 1023 617 
Q 1266 391 1697 391 
Q 2094 391 2322 581 
Q 2550 772 2550 1172 
Q 2550 1556 2297 1737 
Q 2044 1919 1609 1919 
L 1366 1919 
L 1366 2363 
L 1622 2363 
Q 2013 2363 2222 2555 
Q 2431 2747 2431 3066 
Q 2431 3372 2226 3526 
Q 2022 3681 1684 3681 
Q 1306 3681 1095 3481 
Q 884 3281 891 2956 
L 372 2956 
Q 372 3319 536 3583 
Q 700 3847 995 3990 
Q 1291 4134 1681 4134 
Q 2031 4134 2318 4017 
Q 2606 3900 2778 3670 
Q 2950 3441 2950 3097 
Q 2950 2738 2745 2498 
Q 2541 2259 2206 2166 
Q 2591 2097 2841 1836 
Q 3091 1575 3091 1150 
Q 3091 763 2916 494 
Q 2741 225 2428 84 
Q 2116 -56 1700 -56 
z
" transform="scale(0.015625)"/>
        <path id="AptosDisplay-38" d="M 1675 -56 
Q 1391 -56 1137 16 
Q 884 88 686 234 
Q 488 381 373 606 
Q 259 831 259 1141 
Q 259 1531 495 1797 
Q 731 2063 1084 2150 
Q 781 2250 604 2490 
Q 428 2731 428 3081 
Q 428 3447 609 3681 
Q 791 3916 1075 4025 
Q 1359 4134 1669 4134 
Q 1981 4134 2265 4023 
Q 2550 3913 2733 3680 
Q 2916 3447 2916 3081 
Q 2916 2725 2716 2481 
Q 2516 2238 2238 2150 
Q 2606 2063 2843 1800 
Q 3081 1538 3081 1141 
Q 3081 831 2968 606 
Q 2856 381 2661 234 
Q 2466 88 2211 16 
Q 1956 -56 1675 -56 
z
M 1672 388 
Q 1909 388 2109 470 
Q 2309 553 2429 725 
Q 2550 897 2550 1163 
Q 2550 1416 2426 1587 
Q 2303 1759 2104 1846 
Q 1906 1934 1672 1928 
Q 1453 1934 1253 1850 
Q 1053 1766 926 1594 
Q 800 1422 800 1163 
Q 800 775 1058 581 
Q 1316 388 1672 388 
z
M 1672 2363 
Q 1863 2356 2030 2434 
Q 2197 2513 2300 2667 
Q 2403 2822 2403 3050 
Q 2403 3388 2189 3544 
Q 1975 3700 1675 3700 
Q 1484 3700 1317 3631 
Q 1150 3563 1047 3419 
Q 944 3275 944 3050 
Q 944 2825 1048 2670 
Q 1153 2516 1320 2436 
Q 1488 2356 1672 2363 
z
" transform="scale(0.015625)"/>
       </defs>
       <use xlink:href="#AptosDisplay-33"/>
       <use xlink:href="#AptosDisplay-38" x="52.294922"/>
       <use xlink:href="#AptosDisplay-30" x="104.589844"/>
      </g>
     </g>
    </g>
    <g id="ytick_2">
     <g id="line2d_83">
      <path d="M 95.28125 385.632084 
L 764.88125 385.632084 
" clip-path="url(#p3a380b9aba)" style="fill: none; stroke: #b0b0b0; stroke-opacity: 0.8; stroke-linecap: square"/>
     </g>
     <g id="line2d_84">
      <g>
       <use xlink:href="#m10de3be2cd" x="95.28125" y="385.632084" style="stroke: #000000; stroke-width: 0.8"/>
      </g>
     </g>
     <g id="text_11">
      <!-- 400 -->
      <g transform="translate(56.903125 392.203959) scale(0.2 -0.2)">
       <defs>
        <path id="AptosDisplay-34" d="M 2106 0 
L 2106 825 
L 125 825 
L 125 1297 
L 2100 4103 
L 2631 4103 
L 2631 1284 
L 3191 1284 
L 3191 825 
L 2631 825 
L 2631 0 
L 2106 0 
z
M 638 1284 
L 2113 1284 
L 2113 3369 
L 638 1284 
z
" transform="scale(0.015625)"/>
       </defs>
       <use xlink:href="#AptosDisplay-34"/>
       <use xlink:href="#AptosDisplay-30" x="52.294922"/>
       <use xlink:href="#AptosDisplay-30" x="104.589844"/>
      </g>
     </g>
    </g>
    <g id="ytick_3">
     <g id="line2d_85">
      <path d="M 95.28125 304.335205 
L 764.88125 304.335205 
" clip-path="url(#p3a380b9aba)" style="fill: none; stroke: #b0b0b0; stroke-opacity: 0.8; stroke-linecap: square"/>
     </g>
     <g id="line2d_86">
      <g>
       <use xlink:href="#m10de3be2cd" x="95.28125" y="304.335205" style="stroke: #000000; stroke-width: 0.8"/>
      </g>
     </g>
     <g id="text_12">
      <!-- 420 -->
      <g transform="translate(56.903125 310.90708) scale(0.2 -0.2)">
       <use xlink:href="#AptosDisplay-34"/>
       <use xlink:href="#AptosDisplay-32" x="52.294922"/>
       <use xlink:href="#AptosDisplay-30" x="104.589844"/>
      </g>
     </g>
    </g>
    <g id="ytick_4">
     <g id="line2d_87">
      <path d="M 95.28125 223.038326 
L 764.88125 223.038326 
" clip-path="url(#p3a380b9aba)" style="fill: none; stroke: #b0b0b0; stroke-opacity: 0.8; stroke-linecap: square"/>
     </g>
     <g id="line2d_88">
      <g>
       <use xlink:href="#m10de3be2cd" x="95.28125" y="223.038326" style="stroke: #000000; stroke-width: 0.8"/>
      </g>
     </g>
     <g id="text_13">
      <!-- 440 -->
      <g transform="translate(56.903125 229.610201) scale(0.2 -0.2)">
       <use xlink:href="#AptosDisplay-34"/>
       <use xlink:href="#AptosDisplay-34" x="52.294922"/>
       <use xlink:href="#AptosDisplay-30" x="104.589844"/>
      </g>
     </g>
    </g>
    <g id="ytick_5">
     <g id="line2d_89">
      <path d="M 95.28125 141.741447 
L 764.88125 141.741447 
" clip-path="url(#p3a380b9aba)" style="fill: none; stroke: #b0b0b0; stroke-opacity: 0.8; stroke-linecap: square"/>
     </g>
     <g id="line2d_90">
      <g>
       <use xlink:href="#m10de3be2cd" x="95.28125" y="141.741447" style="stroke: #000000; stroke-width: 0.8"/>
      </g>
     </g>
     <g id="text_14">
      <!-- 460 -->
      <g transform="translate(56.903125 148.313322) scale(0.2 -0.2)">
       <defs>
        <path id="AptosDisplay-36" d="M 1759 -56 
Q 1325 -56 984 151 
Q 644 359 447 815 
Q 250 1272 250 2013 
Q 250 2738 439 3206 
Q 628 3675 968 3903 
Q 1309 4131 1759 4131 
Q 2253 4131 2595 3875 
Q 2938 3619 3034 3097 
L 2503 3097 
Q 2441 3388 2250 3534 
Q 2059 3681 1759 3681 
Q 1306 3681 1047 3279 
Q 788 2878 788 2013 
L 788 1850 
Q 788 1313 922 992 
Q 1056 672 1279 531 
Q 1503 391 1763 391 
Q 2175 391 2369 644 
Q 2563 897 2563 1272 
Q 2563 1650 2373 1869 
Q 2184 2088 1838 2088 
Q 1422 2088 1114 1897 
Q 806 1706 644 1456 
L 597 1856 
Q 728 2047 922 2201 
Q 1116 2356 1362 2447 
Q 1609 2538 1909 2538 
Q 2253 2538 2523 2395 
Q 2794 2253 2951 1975 
Q 3109 1697 3109 1291 
Q 3109 897 2951 592 
Q 2794 288 2492 116 
Q 2191 -56 1759 -56 
z
" transform="scale(0.015625)"/>
       </defs>
       <use xlink:href="#AptosDisplay-34"/>
       <use xlink:href="#AptosDisplay-36" x="52.294922"/>
       <use xlink:href="#AptosDisplay-30" x="104.589844"/>
      </g>
     </g>
    </g>
    <g id="ytick_6">
     <g id="line2d_91">
      <path d="M 95.28125 60.444569 
L 764.88125 60.444569 
" clip-path="url(#p3a380b9aba)" style="fill: none; stroke: #b0b0b0; stroke-opacity: 0.8; stroke-linecap: square"/>
     </g>
     <g id="line2d_92">
      <g>
       <use xlink:href="#m10de3be2cd" x="95.28125" y="60.444569" style="stroke: #000000; stroke-width: 0.8"/>
      </g>
     </g>
     <g id="text_15">
      <!-- 480 -->
      <g transform="translate(56.903125 67.016444) scale(0.2 -0.2)">
       <use xlink:href="#AptosDisplay-34"/>
       <use xlink:href="#AptosDisplay-38" x="52.294922"/>
       <use xlink:href="#AptosDisplay-30" x="104.589844"/>
      </g>
     </g>
    </g>
    <g id="ytick_7">
     <g id="line2d_93">
      <path d="M 95.28125 487.253182 
L 764.88125 487.253182 
" clip-path="url(#p3a380b9aba)" style="fill: none; stroke-dasharray: 1.85,0.8; stroke-dashoffset: 0; stroke: #b0b0b0; stroke-opacity: 0.8; stroke-width: 0.5"/>
     </g>
     <g id="line2d_94">
      <defs>
       <path id="m54c97ab046" d="M 0 0 
L -2 0 
" style="stroke: #000000; stroke-width: 0.6"/>
      </defs>
      <g>
       <use xlink:href="#m54c97ab046" x="95.28125" y="487.253182" style="stroke: #000000; stroke-width: 0.6"/>
      </g>
     </g>
    </g>
    <g id="ytick_8">
     <g id="line2d_95">
      <path d="M 95.28125 446.604743 
L 764.88125 446.604743 
" clip-path="url(#p3a380b9aba)" style="fill: none; stroke-dasharray: 1.85,0.8; stroke-dashoffset: 0; stroke: #b0b0b0; stroke-opacity: 0.8; stroke-width: 0.5"/>
     </g>
     <g id="line2d_96">
      <g>
       <use xlink:href="#m54c97ab046" x="95.28125" y="446.604743" style="stroke: #000000; stroke-width: 0.6"/>
      </g>
     </g>
    </g>
    <g id="ytick_9">
     <g id="line2d_97">
      <path d="M 95.28125 426.280523 
L 764.88125 426.280523 
" clip-path="url(#p3a380b9aba)" style="fill: none; stroke-dasharray: 1.85,0.8; stroke-dashoffset: 0; stroke: #b0b0b0; stroke-opacity: 0.8; stroke-width: 0.5"/>
     </g>
     <g id="line2d_98">
      <g>
       <use xlink:href="#m54c97ab046" x="95.28125" y="426.280523" style="stroke: #000000; stroke-width: 0.6"/>
      </g>
     </g>
    </g>
    <g id="ytick_10">
     <g id="line2d_99">
      <path d="M 95.28125 405.956304 
L 764.88125 405.956304 
" clip-path="url(#p3a380b9aba)" style="fill: none; stroke-dasharray: 1.85,0.8; stroke-dashoffset: 0; stroke: #b0b0b0; stroke-opacity: 0.8; stroke-width: 0.5"/>
     </g>
     <g id="line2d_100">
      <g>
       <use xlink:href="#m54c97ab046" x="95.28125" y="405.956304" style="stroke: #000000; stroke-width: 0.6"/>
      </g>
     </g>
    </g>
    <g id="ytick_11">
     <g id="line2d_101">
      <path d="M 95.28125 365.307864 
L 764.88125 365.307864 
" clip-path="url(#p3a380b9aba)" style="fill: none; stroke-dasharray: 1.85,0.8; stroke-dashoffset: 0; stroke: #b0b0b0; stroke-opacity: 0.8; stroke-width: 0.5"/>
     </g>
     <g id="line2d_102">
      <g>
       <use xlink:href="#m54c97ab046" x="95.28125" y="365.307864" style="stroke: #000000; stroke-width: 0.6"/>
      </g>
     </g>
    </g>
    <g id="ytick_12">
     <g id="line2d_103">
      <path d="M 95.28125 344.983644 
L 764.88125 344.983644 
" clip-path="url(#p3a380b9aba)" style="fill: none; stroke-dasharray: 1.85,0.8; stroke-dashoffset: 0; stroke: #b0b0b0; stroke-opacity: 0.8; stroke-width: 0.5"/>
     </g>
     <g id="line2d_104">
      <g>
       <use xlink:href="#m54c97ab046" x="95.28125" y="344.983644" style="stroke: #000000; stroke-width: 0.6"/>
      </g>
     </g>
    </g>
    <g id="ytick_13">
     <g id="line2d_105">
      <path d="M 95.28125 324.659425 
L 764.88125 324.659425 
" clip-path="url(#p3a380b9aba)" style="fill: none; stroke-dasharray: 1.85,0.8; stroke-dashoffset: 0; stroke: #b0b0b0; stroke-opacity: 0.8; stroke-width: 0.5"/>
     </g>
     <g id="line2d_106">
      <g>
       <use xlink:href="#m54c97ab046" x="95.28125" y="324.659425" style="stroke: #000000; stroke-width: 0.6"/>
      </g>
     </g>
    </g>
    <g id="ytick_14">
     <g id="line2d_107">
      <path d="M 95.28125 284.010985 
L 764.88125 284.010985 
" clip-path="url(#p3a380b9aba)" style="fill: none; stroke-dasharray: 1.85,0.8; stroke-dashoffset: 0; stroke: #b0b0b0; stroke-opacity: 0.8; stroke-width: 0.5"/>
     </g>
     <g id="line2d_108">
      <g>
       <use xlink:href="#m54c97ab046" x="95.28125" y="284.010985" style="stroke: #000000; stroke-width: 0.6"/>
      </g>
     </g>
    </g>
    <g id="ytick_15">
     <g id="line2d_109">
      <path d="M 95.28125 263.686766 
L 764.88125 263.686766 
" clip-path="url(#p3a380b9aba)" style="fill: none; stroke-dasharray: 1.85,0.8; stroke-dashoffset: 0; stroke: #b0b0b0; stroke-opacity: 0.8; stroke-width: 0.5"/>
     </g>
     <g id="line2d_110">
      <g>
       <use xlink:href="#m54c97ab046" x="95.28125" y="263.686766" style="stroke: #000000; stroke-width: 0.6"/>
      </g>
     </g>
    </g>
    <g id="ytick_16">
     <g id="line2d_111">
      <path d="M 95.28125 243.362546 
L 764.88125 243.362546 
" clip-path="url(#p3a380b9aba)" style="fill: none; stroke-dasharray: 1.85,0.8; stroke-dashoffset: 0; stroke: #b0b0b0; stroke-opacity: 0.8; stroke-width: 0.5"/>
     </g>
     <g id="line2d_112">
      <g>
       <use xlink:href="#m54c97ab046" x="95.28125" y="243.362546" style="stroke: #000000; stroke-width: 0.6"/>
      </g>
     </g>
    </g>
    <g id="ytick_17">
     <g id="line2d_113">
      <path d="M 95.28125 202.714107 
L 764.88125 202.714107 
" clip-path="url(#p3a380b9aba)" style="fill: none; stroke-dasharray: 1.85,0.8; stroke-dashoffset: 0; stroke: #b0b0b0; stroke-opacity: 0.8; stroke-width: 0.5"/>
     </g>
     <g id="line2d_114">
      <g>
       <use xlink:href="#m54c97ab046" x="95.28125" y="202.714107" style="stroke: #000000; stroke-width: 0.6"/>
      </g>
     </g>
    </g>
    <g id="ytick_18">
     <g id="line2d_115">
      <path d="M 95.28125 182.389887 
L 764.88125 182.389887 
" clip-path="url(#p3a380b9aba)" style="fill: none; stroke-dasharray: 1.85,0.8; stroke-dashoffset: 0; stroke: #b0b0b0; stroke-opacity: 0.8; stroke-width: 0.5"/>
     </g>
     <g id="line2d_116">
      <g>
       <use xlink:href="#m54c97ab046" x="95.28125" y="182.389887" style="stroke: #000000; stroke-width: 0.6"/>
      </g>
     </g>
    </g>
    <g id="ytick_19">
     <g id="line2d_117">
      <path d="M 95.28125 162.065667 
L 764.88125 162.065667 
" clip-path="url(#p3a380b9aba)" style="fill: none; stroke-dasharray: 1.85,0.8; stroke-dashoffset: 0; stroke: #b0b0b0; stroke-opacity: 0.8; stroke-width: 0.5"/>
     </g>
     <g id="line2d_118">
      <g>
       <use xlink:href="#m54c97ab046" x="95.28125" y="162.065667" style="stroke: #000000; stroke-width: 0.6"/>
      </g>
     </g>
    </g>
    <g id="ytick_20">
     <g id="line2d_119">
      <path d="M 95.28125 121.417228 
L 764.88125 121.417228 
" clip-path="url(#p3a380b9aba)" style="fill: none; stroke-dasharray: 1.85,0.8; stroke-dashoffset: 0; stroke: #b0b0b0; stroke-opacity: 0.8; stroke-width: 0.5"/>
     </g>
     <g id="line2d_120">
      <g>
       <use xlink:href="#m54c97ab046" x="95.28125" y="121.417228" style="stroke: #000000; stroke-width: 0.6"/>
      </g>
     </g>
    </g>
    <g id="ytick_21">
     <g id="line2d_121">
      <path d="M 95.28125 101.093008 
L 764.88125 101.093008 
" clip-path="url(#p3a380b9aba)" style="fill: none; stroke-dasharray: 1.85,0.8; stroke-dashoffset: 0; stroke: #b0b0b0; stroke-opacity: 0.8; stroke-width: 0.5"/>
     </g>
     <g id="line2d_122">
      <g>
       <use xlink:href="#m54c97ab046" x="95.28125" y="101.093008" style="stroke: #000000; stroke-width: 0.6"/>
      </g>
     </g>
    </g>
    <g id="ytick_22">
     <g id="line2d_123">
      <path d="M 95.28125 80.768788 
L 764.88125 80.768788 
" clip-path="url(#p3a380b9aba)" style="fill: none; stroke-dasharray: 1.85,0.8; stroke-dashoffset: 0; stroke: #b0b0b0; stroke-opacity: 0.8; stroke-width: 0.5"/>
     </g>
     <g id="line2d_124">
      <g>
       <use xlink:href="#m54c97ab046" x="95.28125" y="80.768788" style="stroke: #000000; stroke-width: 0.6"/>
      </g>
     </g>
    </g>
    <g id="text_16">
     <!-- Light (W/m^2) -->
     <g transform="translate(49.221875 337.558125) rotate(-90) scale(0.2 -0.2)">
      <defs>
       <path id="AptosDisplay-4c" d="M 472 0 
L 472 4206 
L 1034 4206 
L 1034 484 
L 3000 484 
L 3000 0 
L 472 0 
z
" transform="scale(0.015625)"/>
       <path id="AptosDisplay-67" d="M 1397 -1178 
Q 925 -1178 640 -1065 
Q 356 -953 229 -765 
Q 103 -578 103 -359 
Q 103 -94 329 112 
Q 556 319 1031 403 
L 1128 575 
L 1475 575 
Q 2184 575 2489 376 
Q 2794 178 2794 -238 
Q 2794 -650 2437 -914 
Q 2081 -1178 1397 -1178 
z
M 1384 -800 
Q 1878 -800 2086 -650 
Q 2294 -500 2294 -278 
Q 2294 -147 2225 -51 
Q 2156 44 1975 97 
Q 1794 150 1456 150 
L 1034 150 
Q 819 97 708 -31 
Q 597 -159 597 -328 
Q 597 -516 778 -658 
Q 959 -800 1384 -800 
z
M 1025 216 
Q 722 228 550 312 
Q 378 397 306 511 
Q 234 625 234 722 
Q 234 866 362 1009 
Q 491 1153 772 1241 
L 1038 1069 
Q 866 1031 772 953 
Q 678 875 678 791 
Q 678 731 734 682 
Q 791 634 928 606 
Q 1066 578 1303 575 
L 1025 216 
z
M 1363 984 
Q 1003 984 753 1128 
Q 503 1272 375 1509 
Q 247 1747 247 2022 
Q 247 2313 376 2550 
Q 506 2788 754 2928 
Q 1003 3069 1366 3069 
Q 1738 3069 1983 2928 
Q 2228 2788 2351 2550 
Q 2475 2313 2475 2022 
Q 2475 1741 2350 1505 
Q 2225 1269 1979 1126 
Q 1734 984 1363 984 
z
M 1366 1341 
Q 1641 1341 1812 1512 
Q 1984 1684 1984 2022 
Q 1984 2375 1817 2545 
Q 1650 2716 1372 2716 
Q 1094 2716 919 2541 
Q 744 2366 744 2025 
Q 744 1681 931 1511 
Q 1119 1341 1366 1341 
z
M 2131 2734 
L 1922 2931 
Q 2038 3225 2252 3331 
Q 2466 3438 2794 3447 
L 2794 3006 
Q 2588 3006 2416 2961 
Q 2244 2916 2131 2734 
z
" transform="scale(0.015625)"/>
       <path id="AptosDisplay-68" d="M 413 0 
L 413 4206 
L 931 4206 
L 931 2575 
Q 1069 2756 1317 2914 
Q 1566 3072 1950 3072 
Q 2428 3072 2637 2783 
Q 2847 2494 2847 1963 
L 2847 0 
L 2328 0 
L 2328 1891 
Q 2328 2106 2287 2275 
Q 2247 2444 2139 2539 
Q 2031 2634 1822 2634 
Q 1503 2634 1284 2482 
Q 1066 2331 934 2156 
L 934 0 
L 413 0 
z
" transform="scale(0.015625)"/>
       <path id="AptosDisplay-74" d="M 1466 0 
Q 1100 0 901 117 
Q 703 234 629 454 
Q 556 675 556 984 
L 556 2622 
L 50 2622 
L 50 3044 
L 556 3044 
L 556 3741 
L 1078 3741 
L 1078 3044 
L 1831 3044 
L 1831 2622 
L 1078 2622 
L 1078 1009 
Q 1078 725 1151 575 
Q 1225 425 1500 425 
L 1831 425 
L 1831 0 
L 1466 0 
z
" transform="scale(0.015625)"/>
       <path id="AptosDisplay-57" d="M 1216 0 
L -13 4206 
L 575 4206 
L 1525 697 
L 2531 4206 
L 3156 4206 
L 4163 697 
L 5119 4206 
L 5681 4206 
L 4453 0 
L 3866 0 
L 2831 3556 
L 1813 0 
L 1216 0 
z
" transform="scale(0.015625)"/>
       <path id="AptosDisplay-2f" d="M 72 0 
L 1603 4206 
L 2100 4206 
L 569 0 
L 72 0 
z
" transform="scale(0.015625)"/>
       <path id="AptosDisplay-5e" d="M 428 2438 
L 1459 4206 
L 1884 4206 
L 2916 2438 
L 2366 2438 
L 1672 3650 
L 978 2438 
L 428 2438 
z
" transform="scale(0.015625)"/>
      </defs>
      <use xlink:href="#AptosDisplay-4c"/>
      <use xlink:href="#AptosDisplay-69" x="48.4375"/>
      <use xlink:href="#AptosDisplay-67" x="69.482422"/>
      <use xlink:href="#AptosDisplay-68" x="113.427734"/>
      <use xlink:href="#AptosDisplay-74" x="164.013672"/>
      <use xlink:href="#AptosDisplay-20" x="194.384766"/>
      <use xlink:href="#AptosDisplay-28" x="213.671875"/>
      <use xlink:href="#AptosDisplay-57" x="243.115234"/>
      <use xlink:href="#AptosDisplay-2f" x="331.689453"/>
      <use xlink:href="#AptosDisplay-6d" x="365.625"/>
      <use xlink:href="#AptosDisplay-5e" x="445.605469"/>
      <use xlink:href="#AptosDisplay-32" x="497.900391"/>
      <use xlink:href="#AptosDisplay-29" x="550.195312"/>
     </g>
    </g>
   </g>
   <g id="line2d_125">
    <path d="M 125.717614 140.708977 
L 126.378973 135.335253 
L 127.037043 113.832229 
L 127.695112 142.501573 
L 128.353181 149.671958 
L 129.011251 160.42347 
L 129.66932 160.42347 
L 130.327389 158.630874 
L 130.985458 164.008663 
L 131.643528 172.967579 
L 132.301597 162.216066 
L 132.959666 167.58979 
L 133.617736 165.797194 
L 134.275805 167.58979 
L 134.933874 164.008663 
L 135.591944 167.58979 
L 136.250013 160.42347 
L 136.908082 162.216066 
L 137.566152 156.838278 
L 138.224221 158.630874 
L 138.88229 156.838278 
L 139.540359 156.838278 
L 140.198429 151.464554 
L 141.514567 155.045682 
L 142.172637 164.008663 
L 142.830706 149.671958 
L 143.488775 155.045682 
L 144.146845 155.045682 
L 144.804914 146.086766 
L 145.462983 153.25715 
L 146.121053 153.25715 
L 146.779122 151.464554 
L 147.437191 151.464554 
L 148.095261 156.838278 
L 148.75333 171.174982 
L 149.411399 155.045682 
L 150.069468 155.045682 
L 150.727538 156.838278 
L 151.385607 151.464554 
L 152.043676 142.501573 
L 152.701746 151.464554 
L 153.359815 151.464554 
L 154.017884 153.25715 
L 154.675954 146.086766 
L 155.334023 156.838278 
L 155.992092 149.671958 
L 157.308231 149.671958 
L 157.9663 138.920446 
L 158.624369 142.501573 
L 159.282439 144.294169 
L 159.940508 140.708977 
L 160.598577 156.838278 
L 161.256647 140.708977 
L 161.914716 144.294169 
L 162.572785 142.501573 
L 163.230855 144.294169 
L 163.888924 140.708977 
L 164.546993 146.086766 
L 165.205063 138.920446 
L 165.863132 138.920446 
L 166.521201 137.12785 
L 167.83734 137.12785 
L 168.495409 133.542657 
L 169.811548 144.294169 
L 170.469617 155.045682 
L 171.127686 131.750061 
L 171.785756 142.501573 
L 172.443825 135.335253 
L 173.101894 138.920446 
L 173.759964 133.542657 
L 174.418033 138.920446 
L 175.076102 133.542657 
L 175.734172 131.750061 
L 176.392241 133.542657 
L 177.05031 129.957465 
L 177.708379 135.335253 
L 178.366449 137.12785 
L 179.024518 131.750061 
L 179.685878 131.750061 
L 180.340657 137.12785 
L 181.002016 129.957465 
L 181.660086 126.376337 
L 182.318155 135.335253 
L 182.976224 133.542657 
L 183.634294 133.542657 
L 184.292363 146.086766 
L 184.950432 128.164869 
L 185.608501 128.164869 
L 186.266571 126.376337 
L 186.92464 135.335253 
L 187.582709 129.957465 
L 188.240779 126.376337 
L 188.898848 140.708977 
L 189.556917 99.495524 
L 190.214987 92.32514 
L 190.873056 126.376337 
L 191.531125 117.413357 
L 192.189195 129.957465 
L 192.847264 126.376337 
L 193.505333 128.164869 
L 195.479541 128.164869 
L 196.79568 124.583741 
L 197.453749 126.376337 
L 198.111818 124.583741 
L 198.769888 120.998549 
L 199.427957 128.164869 
L 200.086026 120.998549 
L 200.744096 122.791145 
L 201.402165 126.376337 
L 202.060234 128.164869 
L 202.718304 115.624825 
L 203.376373 142.501573 
L 204.034442 120.998549 
L 204.692511 119.205953 
L 205.350581 124.583741 
L 206.00865 119.205953 
L 207.324789 122.791145 
L 207.982858 119.205953 
L 208.640927 119.205953 
L 209.298997 122.791145 
L 210.615135 112.039633 
L 211.273205 128.164869 
L 211.931274 122.791145 
L 212.589343 153.25715 
L 213.247413 119.205953 
L 213.905482 124.583741 
L 214.563551 133.542657 
L 215.22162 122.791145 
L 215.87969 122.791145 
L 217.195828 126.376337 
L 217.853898 119.205953 
L 218.511967 122.791145 
L 219.170036 117.413357 
L 219.828106 122.791145 
L 220.486175 119.205953 
L 221.144244 119.205953 
L 221.802314 120.998549 
L 222.460383 115.624825 
L 223.118452 144.294169 
L 223.776521 119.205953 
L 224.434591 149.671958 
L 225.09266 122.791145 
L 225.750729 119.205953 
L 226.408799 117.413357 
L 227.066868 119.205953 
L 227.724937 135.335253 
L 228.383007 126.376337 
L 229.041076 119.205953 
L 229.699145 129.957465 
L 230.357215 115.624825 
L 231.015284 124.583741 
L 231.673353 120.998549 
L 232.331422 119.205953 
L 233.647561 126.376337 
L 234.30563 119.205953 
L 234.9637 126.376337 
L 235.621769 119.205953 
L 236.279838 124.583741 
L 236.937908 103.080717 
L 237.595977 120.998549 
L 238.254046 128.164869 
L 238.912116 133.542657 
L 239.570185 128.164869 
L 240.228254 146.086766 
L 240.886324 146.086766 
L 241.544393 153.25715 
L 242.202462 151.464554 
L 242.860531 160.42347 
L 243.518601 167.58979 
L 244.17667 169.382386 
L 244.834739 180.133898 
L 245.492809 174.760175 
L 246.150878 189.096879 
L 246.808947 198.055795 
L 247.467017 194.470603 
L 248.125086 205.222115 
L 248.783155 205.222115 
L 249.441225 214.185096 
L 250.099294 219.55882 
L 250.757363 219.55882 
L 251.415432 232.102928 
L 252.073502 235.688121 
L 252.731571 237.480717 
L 254.04771 258.983741 
L 255.363848 266.150061 
L 256.021918 273.320446 
L 257.338056 300.201259 
L 257.996126 300.201259 
L 258.654195 321.704283 
L 259.312264 321.704283 
L 259.970333 325.289476 
L 260.628403 337.833584 
L 261.286472 341.414711 
L 262.602611 366.502928 
L 263.26068 368.295524 
L 263.918749 375.465909 
L 264.576819 384.424825 
L 265.234888 389.798549 
L 265.892957 400.554126 
L 266.551027 402.342657 
L 267.209096 400.554126 
L 267.867165 409.513042 
L 268.525235 407.720446 
L 269.183304 432.808663 
L 269.841373 405.92785 
L 270.499442 443.560175 
L 271.157512 431.016066 
L 271.815581 447.145367 
L 272.47365 456.104283 
L 273.13172 454.311687 
L 273.789789 450.73056 
L 274.447858 457.896879 
L 275.105928 474.02618 
L 276.422066 454.311687 
L 277.080136 452.519091 
L 277.738205 452.519091 
L 278.396274 445.352771 
L 279.054343 422.05715 
L 279.712413 434.601259 
L 280.370482 427.430874 
L 281.028551 439.974982 
L 281.686621 405.92785 
L 282.34469 402.342657 
L 283.002759 400.554126 
L 283.660829 391.591145 
L 284.318898 379.047037 
L 284.976967 386.217421 
L 285.635037 371.880717 
L 286.293106 375.465909 
L 286.951175 380.839633 
L 287.609244 382.632229 
L 288.925383 379.047037 
L 289.583452 386.217421 
L 290.241522 382.632229 
L 290.899591 388.010018 
L 291.55766 402.342657 
L 292.21573 413.098234 
L 292.873799 414.886766 
L 293.531868 425.642343 
L 294.189938 429.22347 
L 294.848007 434.601259 
L 295.506076 445.352771 
L 296.164146 447.145367 
L 298.138353 447.145367 
L 298.796423 452.519091 
L 299.454492 447.145367 
L 300.112561 439.974982 
L 300.770631 427.430874 
L 301.4287 429.22347 
L 302.086769 418.471958 
L 302.744839 420.264554 
L 304.060977 405.92785 
L 304.719047 400.554126 
L 305.377116 398.76153 
L 306.035185 395.176337 
L 306.693254 395.176337 
L 307.351324 396.968934 
L 308.009393 396.968934 
L 308.667462 402.342657 
L 309.325532 402.342657 
L 309.983601 405.92785 
L 310.64167 413.098234 
L 311.29974 416.679362 
L 311.957809 423.849747 
L 312.615878 425.642343 
L 313.273948 434.601259 
L 313.932017 429.22347 
L 314.590086 432.808663 
L 315.906225 432.808663 
L 317.222363 436.393855 
L 317.880433 434.601259 
L 318.538502 431.016066 
L 319.196571 425.642343 
L 319.854641 448.937963 
L 320.51271 423.849747 
L 321.170779 418.471958 
L 321.828849 414.886766 
L 324.461126 391.591145 
L 325.119195 382.632229 
L 325.777264 377.25444 
L 326.435334 375.465909 
L 327.093403 370.088121 
L 328.409542 366.502928 
L 329.067611 357.544012 
L 329.72568 355.751416 
L 330.38375 355.751416 
L 331.041819 350.377692 
L 331.699888 348.585096 
L 332.357958 352.166224 
L 333.016027 348.585096 
L 333.674096 346.7925 
L 334.332165 352.166224 
L 334.990235 332.455795 
L 335.648304 350.377692 
L 336.306373 344.999904 
L 336.964443 343.207308 
L 338.280581 336.040988 
L 338.938651 330.663199 
L 339.59672 318.119091 
L 340.254789 314.537963 
L 340.912859 309.160175 
L 341.570928 296.616066 
L 342.228997 260.776337 
L 342.887066 273.320446 
L 343.545136 262.568934 
L 344.203205 258.983741 
L 345.519344 232.102928 
L 346.177413 190.885411 
L 346.835482 210.599904 
L 348.151621 192.678007 
L 348.80969 181.926495 
L 349.46776 189.096879 
L 350.125829 167.58979 
L 350.783898 160.42347 
L 351.441968 156.838278 
L 352.100037 149.671958 
L 352.758106 151.464554 
L 353.416175 135.335253 
L 354.074245 144.294169 
L 354.732314 140.708977 
L 355.390383 155.045682 
L 356.048453 137.12785 
L 356.706522 138.920446 
L 357.364591 133.542657 
L 358.022661 133.542657 
L 358.68073 138.920446 
L 359.338799 129.957465 
L 359.996869 137.12785 
L 360.654938 138.920446 
L 361.313007 135.335253 
L 361.971076 142.501573 
L 362.629146 142.501573 
L 363.287215 138.920446 
L 363.945284 131.750061 
L 364.603354 122.791145 
L 365.261423 129.957465 
L 365.919492 135.335253 
L 366.577562 129.957465 
L 367.235631 133.542657 
L 367.8937 128.164869 
L 368.55177 126.376337 
L 369.209839 129.957465 
L 369.867908 122.791145 
L 370.525977 128.164869 
L 371.184047 122.791145 
L 371.842116 120.998549 
L 372.500185 124.583741 
L 373.158255 77.9925 
L 373.816324 120.998549 
L 374.474393 112.039633 
L 375.132463 131.750061 
L 375.790532 126.376337 
L 376.448601 133.542657 
L 377.106671 128.164869 
L 377.76474 133.542657 
L 378.422809 135.335253 
L 379.080879 135.335253 
L 379.738948 144.294169 
L 380.397017 138.920446 
L 381.055086 138.920446 
L 381.713156 135.335253 
L 382.371225 133.542657 
L 383.029294 126.376337 
L 383.687364 137.12785 
L 384.345433 138.920446 
L 385.003502 135.335253 
L 385.661572 153.25715 
L 386.319641 131.750061 
L 386.97771 140.708977 
L 387.63578 138.920446 
L 388.293849 129.957465 
L 388.951918 129.957465 
L 390.268057 133.542657 
L 390.926126 129.957465 
L 391.584195 131.750061 
L 392.242265 128.164869 
L 392.900334 122.791145 
L 393.558403 120.998549 
L 394.216473 113.832229 
L 394.874542 122.791145 
L 395.532611 115.624825 
L 396.190681 120.998549 
L 396.84875 119.205953 
L 397.506819 119.205953 
L 398.164888 113.832229 
L 398.822958 124.583741 
L 400.139096 113.832229 
L 400.797166 122.791145 
L 401.455235 119.205953 
L 402.113304 117.413357 
L 402.771374 124.583741 
L 403.429443 113.832229 
L 404.087512 115.624825 
L 404.745582 113.832229 
L 405.403651 110.247037 
L 406.06172 120.998549 
L 406.71979 112.039633 
L 407.377859 117.413357 
L 408.035928 110.247037 
L 408.693997 115.624825 
L 409.352067 115.624825 
L 410.010136 113.832229 
L 410.668205 104.869248 
L 411.326275 112.039633 
L 412.642413 119.205953 
L 413.300483 112.039633 
L 413.958552 113.832229 
L 414.616621 104.869248 
L 415.274691 115.624825 
L 415.93276 113.832229 
L 416.590829 110.247037 
L 417.248898 119.205953 
L 417.906968 113.832229 
L 418.565037 97.702928 
L 419.223106 103.080717 
L 419.881176 112.039633 
L 420.539245 112.039633 
L 421.858674 108.45444 
L 422.516743 117.413357 
L 423.174813 108.45444 
L 423.832882 119.205953 
L 424.490951 113.832229 
L 425.149021 113.832229 
L 425.80709 112.039633 
L 428.439367 119.205953 
L 429.097436 110.247037 
L 429.755506 113.832229 
L 430.413575 108.45444 
L 431.071644 110.247037 
L 431.729714 108.45444 
L 432.387783 112.039633 
L 433.045852 112.039633 
L 433.703922 108.45444 
L 434.361991 101.288121 
L 435.02006 101.288121 
L 435.678129 110.247037 
L 436.336199 110.247037 
L 436.994268 104.869248 
L 437.652337 113.832229 
L 438.310407 104.869248 
L 438.968476 103.080717 
L 439.626545 104.869248 
L 440.284615 108.45444 
L 440.942684 108.45444 
L 441.600753 122.791145 
L 442.258823 112.039633 
L 442.916892 117.413357 
L 443.574961 81.573628 
L 444.233031 99.495524 
L 444.8911 106.661844 
L 445.549169 106.661844 
L 446.207238 81.573628 
L 446.865308 106.661844 
L 447.523377 106.661844 
L 448.181446 103.080717 
L 448.839516 104.869248 
L 449.497585 104.869248 
L 451.471793 110.247037 
L 452.129862 108.45444 
L 452.787932 108.45444 
L 453.446001 106.661844 
L 454.10407 117.413357 
L 454.762139 112.039633 
L 455.420209 104.869248 
L 456.078278 110.247037 
L 456.736347 104.869248 
L 457.394417 108.45444 
L 458.052486 108.45444 
L 458.710555 110.247037 
L 459.368625 103.080717 
L 460.684763 110.247037 
L 462.000902 110.247037 
L 462.658971 108.45444 
L 463.31704 99.495524 
L 463.97511 106.661844 
L 465.291248 110.247037 
L 465.949318 106.661844 
L 466.607387 113.832229 
L 467.265456 108.45444 
L 468.581595 112.039633 
L 469.239664 112.039633 
L 469.897734 110.247037 
L 470.555803 106.661844 
L 471.213872 112.039633 
L 472.530011 104.869248 
L 473.18808 104.869248 
L 473.846149 108.45444 
L 474.504219 97.702928 
L 475.162288 94.117736 
L 475.820357 108.45444 
L 476.478427 110.247037 
L 477.794565 99.495524 
L 478.452635 108.45444 
L 479.768773 101.288121 
L 480.426843 103.080717 
L 481.084912 106.661844 
L 481.742981 103.080717 
L 482.40105 104.869248 
L 483.05912 101.288121 
L 483.717189 103.080717 
L 484.375258 106.661844 
L 485.691397 110.247037 
L 486.349466 104.869248 
L 487.007536 101.288121 
L 487.665605 103.080717 
L 488.323674 101.288121 
L 488.981744 103.080717 
L 489.639813 99.495524 
L 491.614021 104.869248 
L 492.27209 110.247037 
L 492.930159 104.869248 
L 493.588229 106.661844 
L 494.904367 99.495524 
L 495.562437 104.869248 
L 496.220506 104.869248 
L 496.878575 101.288121 
L 497.536645 104.869248 
L 498.194714 97.702928 
L 498.852783 106.661844 
L 499.510853 101.288121 
L 500.826991 101.288121 
L 501.48506 104.869248 
L 502.14313 81.573628 
L 503.459268 115.624825 
L 504.117338 99.495524 
L 504.775407 103.080717 
L 505.433476 99.495524 
L 506.749615 95.910332 
L 507.407684 101.288121 
L 508.065754 99.495524 
L 508.723823 99.495524 
L 509.381892 97.702928 
L 510.039961 119.205953 
L 510.698031 99.495524 
L 511.3561 92.32514 
L 512.014169 95.910332 
L 512.672239 101.288121 
L 513.330308 97.702928 
L 513.988377 103.080717 
L 514.646447 97.702928 
L 515.304516 99.495524 
L 515.962585 99.495524 
L 516.620655 101.288121 
L 517.278724 97.702928 
L 517.936793 99.495524 
L 518.594862 97.702928 
L 519.252932 101.288121 
L 519.911001 92.32514 
L 520.56907 108.45444 
L 523.201348 99.495524 
L 524.517486 95.910332 
L 525.175556 95.910332 
L 525.833625 97.702928 
L 526.491694 97.702928 
L 527.149764 95.910332 
L 529.123971 101.288121 
L 531.098179 101.288121 
L 531.756249 85.15882 
L 532.414318 99.495524 
L 533.072387 101.288121 
L 533.730457 108.45444 
L 534.388526 106.661844 
L 535.046595 108.45444 
L 535.704665 113.832229 
L 536.362734 110.247037 
L 537.020803 113.832229 
L 537.678872 122.791145 
L 538.336942 120.998549 
L 538.995011 117.413357 
L 539.65308 126.376337 
L 540.31115 122.791145 
L 540.969219 129.957465 
L 541.627288 138.920446 
L 542.285358 135.335253 
L 542.943427 142.501573 
L 543.601496 138.920446 
L 544.259566 151.464554 
L 545.575704 162.216066 
L 546.233773 160.42347 
L 546.891843 164.008663 
L 547.549912 169.382386 
L 548.207981 165.797194 
L 548.866051 172.967579 
L 549.52412 167.58979 
L 550.182189 181.926495 
L 550.840259 183.719091 
L 551.498328 181.926495 
L 552.156397 189.096879 
L 552.814467 185.511687 
L 554.130605 189.096879 
L 554.788675 196.263199 
L 555.446744 194.470603 
L 556.104813 187.304283 
L 557.420952 198.055795 
L 558.079021 198.055795 
L 558.73709 199.848392 
L 559.39516 205.222115 
L 560.053229 203.429519 
L 560.711298 205.222115 
L 561.369368 208.807308 
L 562.027437 207.014711 
L 562.685506 207.014711 
L 563.343576 201.640988 
L 564.001645 212.3925 
L 564.659714 210.599904 
L 565.317783 215.973628 
L 565.975853 219.55882 
L 566.633922 226.729205 
L 567.291991 230.310332 
L 567.950061 226.729205 
L 568.60813 232.102928 
L 569.266199 248.232229 
L 569.924269 246.439633 
L 570.582338 250.024825 
L 571.240407 289.449747 
L 571.898477 251.817421 
L 572.556546 285.864554 
L 573.214615 293.030874 
L 573.872684 291.238278 
L 574.530754 323.496879 
L 575.188823 336.040988 
L 575.846892 352.166224 
L 576.504962 355.751416 
L 577.8211 389.798549 
L 578.47917 391.591145 
L 579.137239 405.92785 
L 579.795308 400.554126 
L 580.453378 429.22347 
L 581.111447 432.808663 
L 581.769516 441.767579 
L 582.427586 447.145367 
L 583.085655 454.311687 
L 583.743724 456.104283 
L 585.059863 456.104283 
L 585.717932 457.896879 
L 586.376001 457.896879 
L 587.034071 463.274668 
L 587.69214 459.689476 
L 588.350209 481.1925 
L 589.008279 461.482072 
L 589.666348 454.311687 
L 590.324417 463.274668 
L 590.982487 459.689476 
L 591.640556 443.560175 
L 592.298625 448.937963 
L 592.956694 441.767579 
L 593.614764 439.974982 
L 594.272833 436.393855 
L 594.930902 429.22347 
L 595.588972 423.849747 
L 596.247041 423.849747 
L 597.56318 395.176337 
L 598.879318 398.76153 
L 599.537388 388.010018 
L 600.195457 348.585096 
L 600.853526 379.047037 
L 601.511595 371.880717 
L 602.169665 384.424825 
L 602.827734 366.502928 
L 603.485803 366.502928 
L 604.143873 359.336608 
L 604.801942 357.544012 
L 606.118081 346.7925 
L 606.77615 339.62618 
L 607.434219 341.414711 
L 608.750358 319.911687 
L 609.408427 312.745367 
L 610.066497 314.537963 
L 610.724566 300.201259 
L 611.382635 303.782386 
L 612.040704 289.449747 
L 612.698774 293.030874 
L 613.356843 309.160175 
L 614.014912 285.864554 
L 614.672982 293.030874 
L 615.331051 275.113042 
L 615.98912 267.942657 
L 616.64719 271.52785 
L 617.305259 258.983741 
L 617.963328 264.36153 
L 618.621398 264.36153 
L 619.279467 267.942657 
L 619.937536 258.983741 
L 620.595605 257.191145 
L 621.253675 253.605953 
L 621.911744 251.817421 
L 622.569813 242.85444 
L 623.227883 255.398549 
L 623.885952 235.688121 
L 624.544021 239.273313 
L 625.202091 237.480717 
L 625.86016 230.310332 
L 626.518229 228.517736 
L 627.176299 223.144012 
L 627.834368 224.936608 
L 628.492437 219.55882 
L 629.150506 219.55882 
L 629.808576 212.3925 
L 631.124714 212.3925 
L 632.440853 201.640988 
L 633.098922 207.014711 
L 633.756992 205.222115 
L 634.415061 205.222115 
L 635.07313 196.263199 
L 635.7312 198.055795 
L 636.389269 183.719091 
L 637.047338 187.304283 
L 637.705408 187.304283 
L 638.363477 190.885411 
L 639.021546 181.926495 
L 639.679615 181.926495 
L 640.337685 180.133898 
L 640.995754 185.511687 
L 641.653823 162.216066 
L 642.311893 165.797194 
L 642.969962 172.967579 
L 643.628031 171.174982 
L 644.286101 164.008663 
L 644.94417 153.25715 
L 645.602239 155.045682 
L 646.260309 162.216066 
L 646.918378 155.045682 
L 647.576447 146.086766 
L 648.234516 138.920446 
L 648.892586 149.671958 
L 649.550655 146.086766 
L 650.208724 144.294169 
L 650.866794 138.920446 
L 651.524863 138.920446 
L 652.182932 156.838278 
L 652.841002 146.086766 
L 653.499071 115.624825 
L 654.15714 135.335253 
L 654.81521 142.501573 
L 655.473279 133.542657 
L 656.131348 138.920446 
L 656.789417 142.501573 
L 657.447487 137.12785 
L 658.105556 140.708977 
L 658.763625 112.039633 
L 659.421695 146.086766 
L 660.079764 140.708977 
L 660.737833 137.12785 
L 661.395903 146.086766 
L 662.057262 126.376337 
L 662.715332 128.164869 
L 663.373401 117.413357 
L 664.03147 122.791145 
L 664.68954 129.957465 
L 665.347609 131.750061 
L 666.005678 131.750061 
L 666.663747 126.376337 
L 667.321817 135.335253 
L 667.979886 128.164869 
L 668.637955 133.542657 
L 669.296025 137.12785 
L 669.954094 138.920446 
L 670.612163 129.957465 
L 671.270233 140.708977 
L 671.928302 138.920446 
L 672.586371 142.501573 
L 673.244441 142.501573 
L 673.90251 146.086766 
L 675.218649 142.501573 
L 675.876718 138.920446 
L 676.534787 144.294169 
L 677.850926 137.12785 
L 678.508995 140.708977 
L 679.167064 138.920446 
L 679.825134 140.708977 
L 680.483203 144.294169 
L 681.141272 140.708977 
L 681.799342 140.708977 
L 682.457411 137.12785 
L 683.11548 140.708977 
L 683.77355 133.542657 
L 684.431619 144.294169 
L 685.089688 138.920446 
L 685.747757 131.750061 
L 686.405827 120.998549 
L 687.063896 131.750061 
L 687.721965 137.12785 
L 688.380035 129.957465 
L 689.038104 133.542657 
L 689.696173 131.750061 
L 690.354243 126.376337 
L 691.012312 129.957465 
L 691.670381 137.12785 
L 692.328451 129.957465 
L 692.98652 129.957465 
L 693.644589 131.750061 
L 694.302658 128.164869 
L 694.960728 135.335253 
L 695.618797 131.750061 
L 696.276866 131.750061 
L 696.934936 137.12785 
L 698.251074 126.376337 
L 698.909144 133.542657 
L 699.567213 124.583741 
L 700.225282 135.335253 
L 700.883352 129.957465 
L 701.541421 149.671958 
L 702.19949 133.542657 
L 702.85756 185.511687 
L 703.515629 133.542657 
L 704.173698 135.335253 
L 704.831767 138.920446 
L 706.805975 138.920446 
L 707.464045 131.750061 
L 708.122114 146.086766 
L 709.438253 142.501573 
L 710.096322 146.086766 
L 710.754391 133.542657 
L 711.412461 137.12785 
L 712.07053 138.920446 
L 713.386668 138.920446 
L 714.044738 144.294169 
L 714.702807 140.708977 
L 715.360876 138.920446 
L 716.018946 142.501573 
L 716.677015 140.708977 
L 717.335084 137.12785 
L 717.993154 131.750061 
L 718.651223 147.879362 
L 719.309292 142.501573 
L 721.941569 147.879362 
L 722.599639 147.879362 
L 723.257708 146.086766 
L 723.915777 135.335253 
L 724.573847 144.294169 
L 725.231916 155.045682 
L 725.889985 149.671958 
L 726.548055 142.501573 
L 727.206124 146.086766 
L 728.522263 138.920446 
L 729.180332 138.920446 
L 730.496471 149.671958 
L 731.15454 149.671958 
L 731.812609 142.501573 
L 732.470678 151.464554 
L 733.128748 146.086766 
L 733.786817 151.464554 
L 734.444886 146.086766 
L 734.444886 146.086766 
" clip-path="url(#p3a380b9aba)" style="fill: none; stroke: #ac2b37; stroke-width: 1.5; stroke-linecap: square"/>
   </g>
   <g id="patch_3">
    <path d="M 95.28125 501.3525 
L 95.28125 57.8325 
" style="fill: none; stroke: #000000; stroke-width: 0.8; stroke-linejoin: miter; stroke-linecap: square"/>
   </g>
   <g id="patch_4">
    <path d="M 764.88125 501.3525 
L 764.88125 57.8325 
" style="fill: none; stroke: #000000; stroke-width: 0.8; stroke-linejoin: miter; stroke-linecap: square"/>
   </g>
   <g id="patch_5">
    <path d="M 95.28125 501.3525 
L 764.88125 501.3525 
" style="fill: none; stroke: #000000; stroke-width: 0.8; stroke-linejoin: miter; stroke-linecap: square"/>
   </g>
   <g id="patch_6">
    <path d="M 95.28125 57.8325 
L 764.88125 57.8325 
" style="fill: none; stroke: #000000; stroke-width: 0.8; stroke-linejoin: miter; stroke-linecap: square"/>
   </g>
   <g id="text_17">
    <!-- Light vs Time -->
    <g transform="translate(367.59875 51.8325) scale(0.24 -0.24)">
     <defs>
      <path id="AptosDisplay-76" d="M 1103 0 
L -13 3044 
L 538 3044 
L 1391 513 
L 2250 3044 
L 2781 3044 
L 1678 0 
L 1103 0 
z
" transform="scale(0.015625)"/>
      <path id="AptosDisplay-73" d="M 1506 -41 
Q 1247 -41 1017 14 
Q 788 69 613 191 
Q 438 313 339 506 
Q 241 700 241 978 
L 744 978 
Q 744 628 966 487 
Q 1188 347 1519 347 
Q 1816 347 2008 458 
Q 2200 569 2200 822 
Q 2200 1047 2026 1153 
Q 1853 1259 1413 1369 
Q 1056 1453 815 1564 
Q 575 1675 453 1845 
Q 331 2016 331 2275 
Q 331 2475 417 2626 
Q 503 2778 658 2879 
Q 813 2981 1020 3032 
Q 1228 3084 1472 3084 
Q 1713 3084 1923 3028 
Q 2134 2972 2296 2855 
Q 2459 2738 2551 2552 
Q 2644 2366 2644 2109 
L 2138 2109 
Q 2138 2425 1945 2558 
Q 1753 2691 1472 2691 
Q 1191 2691 1016 2594 
Q 841 2497 841 2291 
Q 841 2169 919 2084 
Q 997 2000 1181 1933 
Q 1366 1866 1675 1791 
Q 2019 1709 2248 1596 
Q 2478 1484 2595 1306 
Q 2713 1128 2713 847 
Q 2713 616 2622 447 
Q 2531 278 2367 170 
Q 2203 63 1983 11 
Q 1763 -41 1506 -41 
z
" transform="scale(0.015625)"/>
     </defs>
     <use xlink:href="#AptosDisplay-4c"/>
     <use xlink:href="#AptosDisplay-69" x="48.4375"/>
     <use xlink:href="#AptosDisplay-67" x="69.482422"/>
     <use xlink:href="#AptosDisplay-68" x="113.427734"/>
     <use xlink:href="#AptosDisplay-74" x="164.013672"/>
     <use xlink:href="#AptosDisplay-20" x="194.384766"/>
     <use xlink:href="#AptosDisplay-76" x="213.671875"/>
     <use xlink:href="#AptosDisplay-73" x="256.933594"/>
     <use xlink:href="#AptosDisplay-20" x="303.222656"/>
     <use xlink:href="#AptosDisplay-54" x="322.509766"/>
     <use xlink:href="#AptosDisplay-69" x="370.214844"/>
     <use xlink:href="#AptosDisplay-6d" x="391.259766"/>
     <use xlink:href="#AptosDisplay-65" x="471.240234"/>
    </g>
   </g>
  </g>
 </g>
 <defs>
  <clipPath id="p3a380b9aba">
   <rect x="95.28125" y="57.8325" width="669.6" height="443.52"/>
  </clipPath>
 </defs>
</svg>
