<?xml version="1.0" encoding="utf-8" standalone="no"?>
<!DOCTYPE svg PUBLIC "-//W3C//DTD SVG 1.1//EN"
  "http://www.w3.org/Graphics/SVG/1.1/DTD/svg11.dtd">
<svg xmlns:xlink="http://www.w3.org/1999/xlink" width="790.265625pt" height="581.830625pt" viewBox="0 0 790.265625 581.830625" xmlns="http://www.w3.org/2000/svg" version="1.1">
 <metadata>
  <rdf:RDF xmlns:dc="http://purl.org/dc/elements/1.1/" xmlns:cc="http://creativecommons.org/ns#" xmlns:rdf="http://www.w3.org/1999/02/22-rdf-syntax-ns#">
   <cc:Work>
    <dc:type rdf:resource="http://purl.org/dc/dcmitype/StillImage"/>
    <dc:date>2025-04-03T01:48:25.502692</dc:date>
    <dc:format>image/svg+xml</dc:format>
    <dc:creator>
     <cc:Agent>
      <dc:title>Matplotlib v3.8.2, https://matplotlib.org/</dc:title>
     </cc:Agent>
    </dc:creator>
   </cc:Work>
  </rdf:RDF>
 </metadata>
 <defs>
  <style type="text/css">*{stroke-linejoin: round; stroke-linecap: butt}</style>
 </defs>
 <g id="figure_1">
  <g id="patch_1">
   <path d="M 0 581.830625 
L 790.265625 581.830625 
L 790.265625 0 
L 0 0 
z
" style="fill: #ffffff"/>
  </g>
  <g id="axes_1">
   <g id="patch_2">
    <path d="M 84.665625 501.3525 
L 754.265625 501.3525 
L 754.265625 57.8325 
L 84.665625 57.8325 
z
" style="fill: #ffffff"/>
   </g>
   <g id="matplotlib.axis_1">
    <g id="xtick_1">
     <g id="line2d_1">
      <path d="M 114.408919 501.3525 
L 114.408919 57.8325 
" clip-path="url(#p522b3669fb)" style="fill: none; stroke: #b0b0b0; stroke-opacity: 0.8; stroke-linecap: square"/>
     </g>
     <g id="line2d_2">
      <defs>
       <path id="mf351ab94f0" d="M 0 0 
L 0 3.5 
" style="stroke: #000000; stroke-width: 0.8"/>
      </defs>
      <g>
       <use xlink:href="#mf351ab94f0" x="114.408919" y="501.3525" style="stroke: #000000; stroke-width: 0.8"/>
      </g>
     </g>
     <g id="text_1">
      <!-- 0 -->
      <g transform="translate(109.179232 521.49625) scale(0.2 -0.2)">
       <defs>
        <path id="AptosDisplay-30" d="M 1672 -56 
Q 1291 -56 1028 105 
Q 766 266 605 552 
Q 444 838 372 1216 
Q 300 1594 300 2031 
Q 300 2475 372 2856 
Q 444 3238 605 3525 
Q 766 3813 1028 3973 
Q 1291 4134 1672 4134 
Q 2053 4134 2317 3975 
Q 2581 3816 2742 3527 
Q 2903 3238 2975 2858 
Q 3047 2478 3047 2038 
Q 3047 1597 2975 1217 
Q 2903 838 2742 552 
Q 2581 266 2318 105 
Q 2056 -56 1672 -56 
z
M 1672 409 
Q 1916 409 2073 550 
Q 2231 691 2322 925 
Q 2413 1159 2448 1448 
Q 2484 1738 2484 2038 
Q 2484 2338 2448 2628 
Q 2413 2919 2322 3153 
Q 2231 3388 2073 3527 
Q 1916 3666 1669 3666 
Q 1428 3666 1268 3527 
Q 1109 3388 1020 3153 
Q 931 2919 893 2628 
Q 856 2338 856 2038 
Q 856 1741 893 1450 
Q 931 1159 1020 925 
Q 1109 691 1268 550 
Q 1428 409 1672 409 
z
" transform="scale(0.015625)"/>
       </defs>
       <use xlink:href="#AptosDisplay-30"/>
      </g>
     </g>
    </g>
    <g id="xtick_2">
     <g id="line2d_3">
      <path d="M 196.13878 501.3525 
L 196.13878 57.8325 
" clip-path="url(#p522b3669fb)" style="fill: none; stroke: #b0b0b0; stroke-opacity: 0.8; stroke-linecap: square"/>
     </g>
     <g id="line2d_4">
      <g>
       <use xlink:href="#mf351ab94f0" x="196.13878" y="501.3525" style="stroke: #000000; stroke-width: 0.8"/>
      </g>
     </g>
     <g id="text_2">
      <!-- 25 -->
      <g transform="translate(185.679405 521.49625) scale(0.2 -0.2)">
       <defs>
        <path id="AptosDisplay-32" d="M 247 0 
L 247 413 
L 1725 1741 
Q 2100 2081 2269 2351 
Q 2438 2622 2438 2938 
Q 2438 3256 2263 3461 
Q 2088 3666 1691 3666 
Q 1247 3666 1055 3439 
Q 863 3213 863 2869 
L 341 2869 
Q 341 3250 491 3534 
Q 641 3819 941 3975 
Q 1241 4131 1691 4131 
Q 2103 4131 2390 3986 
Q 2678 3841 2828 3578 
Q 2978 3316 2978 2959 
Q 2978 2638 2853 2375 
Q 2728 2113 2517 1883 
Q 2306 1653 2044 1425 
L 959 463 
L 3097 463 
L 3097 0 
L 247 0 
z
" transform="scale(0.015625)"/>
        <path id="AptosDisplay-35" d="M 1669 -56 
Q 1278 -56 964 83 
Q 650 222 465 483 
Q 281 744 281 1113 
L 816 1113 
Q 816 778 1055 584 
Q 1294 391 1669 391 
Q 2069 391 2291 625 
Q 2513 859 2513 1319 
Q 2513 1772 2291 1989 
Q 2069 2206 1697 2206 
Q 1409 2206 1223 2123 
Q 1038 2041 916 1894 
L 444 1894 
L 622 4078 
L 2788 4078 
L 2788 3613 
L 1041 3613 
L 931 2322 
Q 1044 2453 1251 2550 
Q 1459 2647 1775 2647 
Q 2131 2647 2420 2506 
Q 2709 2366 2881 2072 
Q 3053 1778 3053 1319 
Q 3053 863 2875 558 
Q 2697 253 2384 98 
Q 2072 -56 1669 -56 
z
" transform="scale(0.015625)"/>
       </defs>
       <use xlink:href="#AptosDisplay-32"/>
       <use xlink:href="#AptosDisplay-35" x="52.294922"/>
      </g>
     </g>
    </g>
    <g id="xtick_3">
     <g id="line2d_5">
      <path d="M 277.868641 501.3525 
L 277.868641 57.8325 
" clip-path="url(#p522b3669fb)" style="fill: none; stroke: #b0b0b0; stroke-opacity: 0.8; stroke-linecap: square"/>
     </g>
     <g id="line2d_6">
      <g>
       <use xlink:href="#mf351ab94f0" x="277.868641" y="501.3525" style="stroke: #000000; stroke-width: 0.8"/>
      </g>
     </g>
     <g id="text_3">
      <!-- 50 -->
      <g transform="translate(267.409266 521.49625) scale(0.2 -0.2)">
       <use xlink:href="#AptosDisplay-35"/>
       <use xlink:href="#AptosDisplay-30" x="52.294922"/>
      </g>
     </g>
    </g>
    <g id="xtick_4">
     <g id="line2d_7">
      <path d="M 359.598502 501.3525 
L 359.598502 57.8325 
" clip-path="url(#p522b3669fb)" style="fill: none; stroke: #b0b0b0; stroke-opacity: 0.8; stroke-linecap: square"/>
     </g>
     <g id="line2d_8">
      <g>
       <use xlink:href="#mf351ab94f0" x="359.598502" y="501.3525" style="stroke: #000000; stroke-width: 0.8"/>
      </g>
     </g>
     <g id="text_4">
      <!-- 75 -->
      <g transform="translate(349.139127 521.49625) scale(0.2 -0.2)">
       <defs>
        <path id="AptosDisplay-37" d="M 766 0 
L 2609 3600 
L 194 3600 
L 194 4078 
L 3141 4078 
L 3141 3622 
L 1334 0 
L 766 0 
z
" transform="scale(0.015625)"/>
       </defs>
       <use xlink:href="#AptosDisplay-37"/>
       <use xlink:href="#AptosDisplay-35" x="52.294922"/>
      </g>
     </g>
    </g>
    <g id="xtick_5">
     <g id="line2d_9">
      <path d="M 441.328363 501.3525 
L 441.328363 57.8325 
" clip-path="url(#p522b3669fb)" style="fill: none; stroke: #b0b0b0; stroke-opacity: 0.8; stroke-linecap: square"/>
     </g>
     <g id="line2d_10">
      <g>
       <use xlink:href="#mf351ab94f0" x="441.328363" y="501.3525" style="stroke: #000000; stroke-width: 0.8"/>
      </g>
     </g>
     <g id="text_5">
      <!-- 100 -->
      <g transform="translate(425.6393 521.49625) scale(0.2 -0.2)">
       <defs>
        <path id="AptosDisplay-31" d="M 1659 0 
L 1659 3425 
Q 1575 3309 1420 3201 
Q 1266 3094 1052 3009 
Q 838 2925 578 2888 
L 578 3381 
Q 834 3425 1057 3540 
Q 1281 3656 1453 3806 
Q 1625 3956 1719 4094 
L 2206 4094 
L 2206 0 
L 1659 0 
z
" transform="scale(0.015625)"/>
       </defs>
       <use xlink:href="#AptosDisplay-31"/>
       <use xlink:href="#AptosDisplay-30" x="52.294922"/>
       <use xlink:href="#AptosDisplay-30" x="104.589844"/>
      </g>
     </g>
    </g>
    <g id="xtick_6">
     <g id="line2d_11">
      <path d="M 523.058224 501.3525 
L 523.058224 57.8325 
" clip-path="url(#p522b3669fb)" style="fill: none; stroke: #b0b0b0; stroke-opacity: 0.8; stroke-linecap: square"/>
     </g>
     <g id="line2d_12">
      <g>
       <use xlink:href="#mf351ab94f0" x="523.058224" y="501.3525" style="stroke: #000000; stroke-width: 0.8"/>
      </g>
     </g>
     <g id="text_6">
      <!-- 125 -->
      <g transform="translate(507.369161 521.49625) scale(0.2 -0.2)">
       <use xlink:href="#AptosDisplay-31"/>
       <use xlink:href="#AptosDisplay-32" x="52.294922"/>
       <use xlink:href="#AptosDisplay-35" x="104.589844"/>
      </g>
     </g>
    </g>
    <g id="xtick_7">
     <g id="line2d_13">
      <path d="M 604.788084 501.3525 
L 604.788084 57.8325 
" clip-path="url(#p522b3669fb)" style="fill: none; stroke: #b0b0b0; stroke-opacity: 0.8; stroke-linecap: square"/>
     </g>
     <g id="line2d_14">
      <g>
       <use xlink:href="#mf351ab94f0" x="604.788084" y="501.3525" style="stroke: #000000; stroke-width: 0.8"/>
      </g>
     </g>
     <g id="text_7">
      <!-- 150 -->
      <g transform="translate(589.099022 521.49625) scale(0.2 -0.2)">
       <use xlink:href="#AptosDisplay-31"/>
       <use xlink:href="#AptosDisplay-35" x="52.294922"/>
       <use xlink:href="#AptosDisplay-30" x="104.589844"/>
      </g>
     </g>
    </g>
    <g id="xtick_8">
     <g id="line2d_15">
      <path d="M 686.517945 501.3525 
L 686.517945 57.8325 
" clip-path="url(#p522b3669fb)" style="fill: none; stroke: #b0b0b0; stroke-opacity: 0.8; stroke-linecap: square"/>
     </g>
     <g id="line2d_16">
      <g>
       <use xlink:href="#mf351ab94f0" x="686.517945" y="501.3525" style="stroke: #000000; stroke-width: 0.8"/>
      </g>
     </g>
     <g id="text_8">
      <!-- 175 -->
      <g transform="translate(670.828883 521.49625) scale(0.2 -0.2)">
       <use xlink:href="#AptosDisplay-31"/>
       <use xlink:href="#AptosDisplay-37" x="52.294922"/>
       <use xlink:href="#AptosDisplay-35" x="104.589844"/>
      </g>
     </g>
    </g>
    <g id="xtick_9">
     <g id="line2d_17">
      <path d="M 98.062947 501.3525 
L 98.062947 57.8325 
" clip-path="url(#p522b3669fb)" style="fill: none; stroke-dasharray: 1.85,0.8; stroke-dashoffset: 0; stroke: #b0b0b0; stroke-opacity: 0.8; stroke-width: 0.5"/>
     </g>
     <g id="line2d_18">
      <defs>
       <path id="m0b9e6d4931" d="M 0 0 
L 0 2 
" style="stroke: #000000; stroke-width: 0.6"/>
      </defs>
      <g>
       <use xlink:href="#m0b9e6d4931" x="98.062947" y="501.3525" style="stroke: #000000; stroke-width: 0.6"/>
      </g>
     </g>
    </g>
    <g id="xtick_10">
     <g id="line2d_19">
      <path d="M 130.754892 501.3525 
L 130.754892 57.8325 
" clip-path="url(#p522b3669fb)" style="fill: none; stroke-dasharray: 1.85,0.8; stroke-dashoffset: 0; stroke: #b0b0b0; stroke-opacity: 0.8; stroke-width: 0.5"/>
     </g>
     <g id="line2d_20">
      <g>
       <use xlink:href="#m0b9e6d4931" x="130.754892" y="501.3525" style="stroke: #000000; stroke-width: 0.6"/>
      </g>
     </g>
    </g>
    <g id="xtick_11">
     <g id="line2d_21">
      <path d="M 147.100864 501.3525 
L 147.100864 57.8325 
" clip-path="url(#p522b3669fb)" style="fill: none; stroke-dasharray: 1.85,0.8; stroke-dashoffset: 0; stroke: #b0b0b0; stroke-opacity: 0.8; stroke-width: 0.5"/>
     </g>
     <g id="line2d_22">
      <g>
       <use xlink:href="#m0b9e6d4931" x="147.100864" y="501.3525" style="stroke: #000000; stroke-width: 0.6"/>
      </g>
     </g>
    </g>
    <g id="xtick_12">
     <g id="line2d_23">
      <path d="M 163.446836 501.3525 
L 163.446836 57.8325 
" clip-path="url(#p522b3669fb)" style="fill: none; stroke-dasharray: 1.85,0.8; stroke-dashoffset: 0; stroke: #b0b0b0; stroke-opacity: 0.8; stroke-width: 0.5"/>
     </g>
     <g id="line2d_24">
      <g>
       <use xlink:href="#m0b9e6d4931" x="163.446836" y="501.3525" style="stroke: #000000; stroke-width: 0.6"/>
      </g>
     </g>
    </g>
    <g id="xtick_13">
     <g id="line2d_25">
      <path d="M 179.792808 501.3525 
L 179.792808 57.8325 
" clip-path="url(#p522b3669fb)" style="fill: none; stroke-dasharray: 1.85,0.8; stroke-dashoffset: 0; stroke: #b0b0b0; stroke-opacity: 0.8; stroke-width: 0.5"/>
     </g>
     <g id="line2d_26">
      <g>
       <use xlink:href="#m0b9e6d4931" x="179.792808" y="501.3525" style="stroke: #000000; stroke-width: 0.6"/>
      </g>
     </g>
    </g>
    <g id="xtick_14">
     <g id="line2d_27">
      <path d="M 212.484752 501.3525 
L 212.484752 57.8325 
" clip-path="url(#p522b3669fb)" style="fill: none; stroke-dasharray: 1.85,0.8; stroke-dashoffset: 0; stroke: #b0b0b0; stroke-opacity: 0.8; stroke-width: 0.5"/>
     </g>
     <g id="line2d_28">
      <g>
       <use xlink:href="#m0b9e6d4931" x="212.484752" y="501.3525" style="stroke: #000000; stroke-width: 0.6"/>
      </g>
     </g>
    </g>
    <g id="xtick_15">
     <g id="line2d_29">
      <path d="M 228.830725 501.3525 
L 228.830725 57.8325 
" clip-path="url(#p522b3669fb)" style="fill: none; stroke-dasharray: 1.85,0.8; stroke-dashoffset: 0; stroke: #b0b0b0; stroke-opacity: 0.8; stroke-width: 0.5"/>
     </g>
     <g id="line2d_30">
      <g>
       <use xlink:href="#m0b9e6d4931" x="228.830725" y="501.3525" style="stroke: #000000; stroke-width: 0.6"/>
      </g>
     </g>
    </g>
    <g id="xtick_16">
     <g id="line2d_31">
      <path d="M 245.176697 501.3525 
L 245.176697 57.8325 
" clip-path="url(#p522b3669fb)" style="fill: none; stroke-dasharray: 1.85,0.8; stroke-dashoffset: 0; stroke: #b0b0b0; stroke-opacity: 0.8; stroke-width: 0.5"/>
     </g>
     <g id="line2d_32">
      <g>
       <use xlink:href="#m0b9e6d4931" x="245.176697" y="501.3525" style="stroke: #000000; stroke-width: 0.6"/>
      </g>
     </g>
    </g>
    <g id="xtick_17">
     <g id="line2d_33">
      <path d="M 261.522669 501.3525 
L 261.522669 57.8325 
" clip-path="url(#p522b3669fb)" style="fill: none; stroke-dasharray: 1.85,0.8; stroke-dashoffset: 0; stroke: #b0b0b0; stroke-opacity: 0.8; stroke-width: 0.5"/>
     </g>
     <g id="line2d_34">
      <g>
       <use xlink:href="#m0b9e6d4931" x="261.522669" y="501.3525" style="stroke: #000000; stroke-width: 0.6"/>
      </g>
     </g>
    </g>
    <g id="xtick_18">
     <g id="line2d_35">
      <path d="M 294.214613 501.3525 
L 294.214613 57.8325 
" clip-path="url(#p522b3669fb)" style="fill: none; stroke-dasharray: 1.85,0.8; stroke-dashoffset: 0; stroke: #b0b0b0; stroke-opacity: 0.8; stroke-width: 0.5"/>
     </g>
     <g id="line2d_36">
      <g>
       <use xlink:href="#m0b9e6d4931" x="294.214613" y="501.3525" style="stroke: #000000; stroke-width: 0.6"/>
      </g>
     </g>
    </g>
    <g id="xtick_19">
     <g id="line2d_37">
      <path d="M 310.560585 501.3525 
L 310.560585 57.8325 
" clip-path="url(#p522b3669fb)" style="fill: none; stroke-dasharray: 1.85,0.8; stroke-dashoffset: 0; stroke: #b0b0b0; stroke-opacity: 0.8; stroke-width: 0.5"/>
     </g>
     <g id="line2d_38">
      <g>
       <use xlink:href="#m0b9e6d4931" x="310.560585" y="501.3525" style="stroke: #000000; stroke-width: 0.6"/>
      </g>
     </g>
    </g>
    <g id="xtick_20">
     <g id="line2d_39">
      <path d="M 326.906558 501.3525 
L 326.906558 57.8325 
" clip-path="url(#p522b3669fb)" style="fill: none; stroke-dasharray: 1.85,0.8; stroke-dashoffset: 0; stroke: #b0b0b0; stroke-opacity: 0.8; stroke-width: 0.5"/>
     </g>
     <g id="line2d_40">
      <g>
       <use xlink:href="#m0b9e6d4931" x="326.906558" y="501.3525" style="stroke: #000000; stroke-width: 0.6"/>
      </g>
     </g>
    </g>
    <g id="xtick_21">
     <g id="line2d_41">
      <path d="M 343.25253 501.3525 
L 343.25253 57.8325 
" clip-path="url(#p522b3669fb)" style="fill: none; stroke-dasharray: 1.85,0.8; stroke-dashoffset: 0; stroke: #b0b0b0; stroke-opacity: 0.8; stroke-width: 0.5"/>
     </g>
     <g id="line2d_42">
      <g>
       <use xlink:href="#m0b9e6d4931" x="343.25253" y="501.3525" style="stroke: #000000; stroke-width: 0.6"/>
      </g>
     </g>
    </g>
    <g id="xtick_22">
     <g id="line2d_43">
      <path d="M 375.944474 501.3525 
L 375.944474 57.8325 
" clip-path="url(#p522b3669fb)" style="fill: none; stroke-dasharray: 1.85,0.8; stroke-dashoffset: 0; stroke: #b0b0b0; stroke-opacity: 0.8; stroke-width: 0.5"/>
     </g>
     <g id="line2d_44">
      <g>
       <use xlink:href="#m0b9e6d4931" x="375.944474" y="501.3525" style="stroke: #000000; stroke-width: 0.6"/>
      </g>
     </g>
    </g>
    <g id="xtick_23">
     <g id="line2d_45">
      <path d="M 392.290446 501.3525 
L 392.290446 57.8325 
" clip-path="url(#p522b3669fb)" style="fill: none; stroke-dasharray: 1.85,0.8; stroke-dashoffset: 0; stroke: #b0b0b0; stroke-opacity: 0.8; stroke-width: 0.5"/>
     </g>
     <g id="line2d_46">
      <g>
       <use xlink:href="#m0b9e6d4931" x="392.290446" y="501.3525" style="stroke: #000000; stroke-width: 0.6"/>
      </g>
     </g>
    </g>
    <g id="xtick_24">
     <g id="line2d_47">
      <path d="M 408.636418 501.3525 
L 408.636418 57.8325 
" clip-path="url(#p522b3669fb)" style="fill: none; stroke-dasharray: 1.85,0.8; stroke-dashoffset: 0; stroke: #b0b0b0; stroke-opacity: 0.8; stroke-width: 0.5"/>
     </g>
     <g id="line2d_48">
      <g>
       <use xlink:href="#m0b9e6d4931" x="408.636418" y="501.3525" style="stroke: #000000; stroke-width: 0.6"/>
      </g>
     </g>
    </g>
    <g id="xtick_25">
     <g id="line2d_49">
      <path d="M 424.982391 501.3525 
L 424.982391 57.8325 
" clip-path="url(#p522b3669fb)" style="fill: none; stroke-dasharray: 1.85,0.8; stroke-dashoffset: 0; stroke: #b0b0b0; stroke-opacity: 0.8; stroke-width: 0.5"/>
     </g>
     <g id="line2d_50">
      <g>
       <use xlink:href="#m0b9e6d4931" x="424.982391" y="501.3525" style="stroke: #000000; stroke-width: 0.6"/>
      </g>
     </g>
    </g>
    <g id="xtick_26">
     <g id="line2d_51">
      <path d="M 457.674335 501.3525 
L 457.674335 57.8325 
" clip-path="url(#p522b3669fb)" style="fill: none; stroke-dasharray: 1.85,0.8; stroke-dashoffset: 0; stroke: #b0b0b0; stroke-opacity: 0.8; stroke-width: 0.5"/>
     </g>
     <g id="line2d_52">
      <g>
       <use xlink:href="#m0b9e6d4931" x="457.674335" y="501.3525" style="stroke: #000000; stroke-width: 0.6"/>
      </g>
     </g>
    </g>
    <g id="xtick_27">
     <g id="line2d_53">
      <path d="M 474.020307 501.3525 
L 474.020307 57.8325 
" clip-path="url(#p522b3669fb)" style="fill: none; stroke-dasharray: 1.85,0.8; stroke-dashoffset: 0; stroke: #b0b0b0; stroke-opacity: 0.8; stroke-width: 0.5"/>
     </g>
     <g id="line2d_54">
      <g>
       <use xlink:href="#m0b9e6d4931" x="474.020307" y="501.3525" style="stroke: #000000; stroke-width: 0.6"/>
      </g>
     </g>
    </g>
    <g id="xtick_28">
     <g id="line2d_55">
      <path d="M 490.366279 501.3525 
L 490.366279 57.8325 
" clip-path="url(#p522b3669fb)" style="fill: none; stroke-dasharray: 1.85,0.8; stroke-dashoffset: 0; stroke: #b0b0b0; stroke-opacity: 0.8; stroke-width: 0.5"/>
     </g>
     <g id="line2d_56">
      <g>
       <use xlink:href="#m0b9e6d4931" x="490.366279" y="501.3525" style="stroke: #000000; stroke-width: 0.6"/>
      </g>
     </g>
    </g>
    <g id="xtick_29">
     <g id="line2d_57">
      <path d="M 506.712251 501.3525 
L 506.712251 57.8325 
" clip-path="url(#p522b3669fb)" style="fill: none; stroke-dasharray: 1.85,0.8; stroke-dashoffset: 0; stroke: #b0b0b0; stroke-opacity: 0.8; stroke-width: 0.5"/>
     </g>
     <g id="line2d_58">
      <g>
       <use xlink:href="#m0b9e6d4931" x="506.712251" y="501.3525" style="stroke: #000000; stroke-width: 0.6"/>
      </g>
     </g>
    </g>
    <g id="xtick_30">
     <g id="line2d_59">
      <path d="M 539.404196 501.3525 
L 539.404196 57.8325 
" clip-path="url(#p522b3669fb)" style="fill: none; stroke-dasharray: 1.85,0.8; stroke-dashoffset: 0; stroke: #b0b0b0; stroke-opacity: 0.8; stroke-width: 0.5"/>
     </g>
     <g id="line2d_60">
      <g>
       <use xlink:href="#m0b9e6d4931" x="539.404196" y="501.3525" style="stroke: #000000; stroke-width: 0.6"/>
      </g>
     </g>
    </g>
    <g id="xtick_31">
     <g id="line2d_61">
      <path d="M 555.750168 501.3525 
L 555.750168 57.8325 
" clip-path="url(#p522b3669fb)" style="fill: none; stroke-dasharray: 1.85,0.8; stroke-dashoffset: 0; stroke: #b0b0b0; stroke-opacity: 0.8; stroke-width: 0.5"/>
     </g>
     <g id="line2d_62">
      <g>
       <use xlink:href="#m0b9e6d4931" x="555.750168" y="501.3525" style="stroke: #000000; stroke-width: 0.6"/>
      </g>
     </g>
    </g>
    <g id="xtick_32">
     <g id="line2d_63">
      <path d="M 572.09614 501.3525 
L 572.09614 57.8325 
" clip-path="url(#p522b3669fb)" style="fill: none; stroke-dasharray: 1.85,0.8; stroke-dashoffset: 0; stroke: #b0b0b0; stroke-opacity: 0.8; stroke-width: 0.5"/>
     </g>
     <g id="line2d_64">
      <g>
       <use xlink:href="#m0b9e6d4931" x="572.09614" y="501.3525" style="stroke: #000000; stroke-width: 0.6"/>
      </g>
     </g>
    </g>
    <g id="xtick_33">
     <g id="line2d_65">
      <path d="M 588.442112 501.3525 
L 588.442112 57.8325 
" clip-path="url(#p522b3669fb)" style="fill: none; stroke-dasharray: 1.85,0.8; stroke-dashoffset: 0; stroke: #b0b0b0; stroke-opacity: 0.8; stroke-width: 0.5"/>
     </g>
     <g id="line2d_66">
      <g>
       <use xlink:href="#m0b9e6d4931" x="588.442112" y="501.3525" style="stroke: #000000; stroke-width: 0.6"/>
      </g>
     </g>
    </g>
    <g id="xtick_34">
     <g id="line2d_67">
      <path d="M 621.134057 501.3525 
L 621.134057 57.8325 
" clip-path="url(#p522b3669fb)" style="fill: none; stroke-dasharray: 1.85,0.8; stroke-dashoffset: 0; stroke: #b0b0b0; stroke-opacity: 0.8; stroke-width: 0.5"/>
     </g>
     <g id="line2d_68">
      <g>
       <use xlink:href="#m0b9e6d4931" x="621.134057" y="501.3525" style="stroke: #000000; stroke-width: 0.6"/>
      </g>
     </g>
    </g>
    <g id="xtick_35">
     <g id="line2d_69">
      <path d="M 637.480029 501.3525 
L 637.480029 57.8325 
" clip-path="url(#p522b3669fb)" style="fill: none; stroke-dasharray: 1.85,0.8; stroke-dashoffset: 0; stroke: #b0b0b0; stroke-opacity: 0.8; stroke-width: 0.5"/>
     </g>
     <g id="line2d_70">
      <g>
       <use xlink:href="#m0b9e6d4931" x="637.480029" y="501.3525" style="stroke: #000000; stroke-width: 0.6"/>
      </g>
     </g>
    </g>
    <g id="xtick_36">
     <g id="line2d_71">
      <path d="M 653.826001 501.3525 
L 653.826001 57.8325 
" clip-path="url(#p522b3669fb)" style="fill: none; stroke-dasharray: 1.85,0.8; stroke-dashoffset: 0; stroke: #b0b0b0; stroke-opacity: 0.8; stroke-width: 0.5"/>
     </g>
     <g id="line2d_72">
      <g>
       <use xlink:href="#m0b9e6d4931" x="653.826001" y="501.3525" style="stroke: #000000; stroke-width: 0.6"/>
      </g>
     </g>
    </g>
    <g id="xtick_37">
     <g id="line2d_73">
      <path d="M 670.171973 501.3525 
L 670.171973 57.8325 
" clip-path="url(#p522b3669fb)" style="fill: none; stroke-dasharray: 1.85,0.8; stroke-dashoffset: 0; stroke: #b0b0b0; stroke-opacity: 0.8; stroke-width: 0.5"/>
     </g>
     <g id="line2d_74">
      <g>
       <use xlink:href="#m0b9e6d4931" x="670.171973" y="501.3525" style="stroke: #000000; stroke-width: 0.6"/>
      </g>
     </g>
    </g>
    <g id="xtick_38">
     <g id="line2d_75">
      <path d="M 702.863917 501.3525 
L 702.863917 57.8325 
" clip-path="url(#p522b3669fb)" style="fill: none; stroke-dasharray: 1.85,0.8; stroke-dashoffset: 0; stroke: #b0b0b0; stroke-opacity: 0.8; stroke-width: 0.5"/>
     </g>
     <g id="line2d_76">
      <g>
       <use xlink:href="#m0b9e6d4931" x="702.863917" y="501.3525" style="stroke: #000000; stroke-width: 0.6"/>
      </g>
     </g>
    </g>
    <g id="xtick_39">
     <g id="line2d_77">
      <path d="M 719.20989 501.3525 
L 719.20989 57.8325 
" clip-path="url(#p522b3669fb)" style="fill: none; stroke-dasharray: 1.85,0.8; stroke-dashoffset: 0; stroke: #b0b0b0; stroke-opacity: 0.8; stroke-width: 0.5"/>
     </g>
     <g id="line2d_78">
      <g>
       <use xlink:href="#m0b9e6d4931" x="719.20989" y="501.3525" style="stroke: #000000; stroke-width: 0.6"/>
      </g>
     </g>
    </g>
    <g id="xtick_40">
     <g id="line2d_79">
      <path d="M 735.555862 501.3525 
L 735.555862 57.8325 
" clip-path="url(#p522b3669fb)" style="fill: none; stroke-dasharray: 1.85,0.8; stroke-dashoffset: 0; stroke: #b0b0b0; stroke-opacity: 0.8; stroke-width: 0.5"/>
     </g>
     <g id="line2d_80">
      <g>
       <use xlink:href="#m0b9e6d4931" x="735.555862" y="501.3525" style="stroke: #000000; stroke-width: 0.6"/>
      </g>
     </g>
    </g>
    <g id="xtick_41">
     <g id="line2d_81">
      <path d="M 751.901834 501.3525 
L 751.901834 57.8325 
" clip-path="url(#p522b3669fb)" style="fill: none; stroke-dasharray: 1.85,0.8; stroke-dashoffset: 0; stroke: #b0b0b0; stroke-opacity: 0.8; stroke-width: 0.5"/>
     </g>
     <g id="line2d_82">
      <g>
       <use xlink:href="#m0b9e6d4931" x="751.901834" y="501.3525" style="stroke: #000000; stroke-width: 0.6"/>
      </g>
     </g>
    </g>
    <g id="text_9">
     <!-- Time (S) -->
     <g transform="translate(386.375 542.305625) scale(0.2 -0.2)">
      <defs>
       <path id="AptosDisplay-54" d="M 1244 0 
L 1244 3734 
L 50 3734 
L 50 4206 
L 2997 4206 
L 2997 3734 
L 1806 3734 
L 1806 0 
L 1244 0 
z
" transform="scale(0.015625)"/>
       <path id="AptosDisplay-69" d="M 413 0 
L 413 3044 
L 934 3044 
L 934 0 
L 413 0 
z
M 675 3616 
Q 525 3616 437 3702 
Q 350 3788 350 3919 
Q 350 4050 437 4136 
Q 525 4222 675 4222 
Q 822 4222 912 4136 
Q 1003 4050 1003 3919 
Q 1003 3788 912 3702 
Q 822 3616 675 3616 
z
" transform="scale(0.015625)"/>
       <path id="AptosDisplay-6d" d="M 413 0 
L 413 3044 
L 919 3044 
L 931 2575 
Q 1063 2756 1303 2914 
Q 1544 3072 1903 3072 
Q 2403 3072 2618 2778 
Q 2834 2484 2834 1963 
L 2834 0 
L 2316 0 
L 2316 1891 
Q 2316 2106 2275 2275 
Q 2234 2444 2120 2539 
Q 2006 2634 1788 2634 
Q 1488 2634 1277 2482 
Q 1066 2331 934 2156 
L 934 0 
L 413 0 
z
M 4206 0 
L 4206 1891 
Q 4206 2106 4164 2275 
Q 4122 2444 4009 2539 
Q 3897 2634 3681 2634 
Q 3381 2634 3165 2484 
Q 2950 2334 2822 2159 
L 2744 2544 
Q 2916 2741 3175 2906 
Q 3434 3072 3800 3072 
Q 4291 3072 4509 2778 
Q 4728 2484 4728 1963 
L 4728 0 
L 4206 0 
z
" transform="scale(0.015625)"/>
       <path id="AptosDisplay-65" d="M 1663 -56 
Q 1188 -56 878 151 
Q 569 359 417 717 
Q 266 1075 266 1522 
Q 266 1988 412 2342 
Q 559 2697 857 2897 
Q 1156 3097 1606 3097 
Q 2209 3097 2550 2722 
Q 2891 2347 2891 1644 
Q 2891 1597 2889 1533 
Q 2888 1469 2881 1441 
L 791 1441 
Q 794 1144 881 895 
Q 969 647 1161 497 
Q 1353 347 1663 347 
Q 1997 347 2183 511 
Q 2369 675 2378 984 
L 2894 984 
Q 2884 663 2732 430 
Q 2581 197 2309 70 
Q 2038 -56 1663 -56 
z
M 794 1822 
L 2375 1822 
Q 2366 2247 2166 2472 
Q 1966 2697 1606 2697 
Q 1241 2697 1036 2473 
Q 831 2250 794 1822 
z
" transform="scale(0.015625)"/>
       <path id="AptosDisplay-20" transform="scale(0.015625)"/>
       <path id="AptosDisplay-28" d="M 1219 -1116 
Q 969 -678 787 -267 
Q 606 144 511 581 
Q 416 1019 416 1528 
Q 416 2028 509 2486 
Q 603 2944 783 3378 
Q 963 3813 1219 4231 
L 1647 4231 
Q 1278 3600 1101 2886 
Q 925 2172 925 1428 
Q 925 766 1125 103 
Q 1325 -559 1647 -1116 
L 1219 -1116 
z
" transform="scale(0.015625)"/>
       <path id="AptosDisplay-53" d="M 1778 -56 
Q 1328 -56 962 81 
Q 597 219 384 512 
Q 172 806 172 1275 
L 734 1275 
Q 738 941 883 750 
Q 1028 559 1267 481 
Q 1506 403 1794 403 
Q 2063 403 2283 483 
Q 2503 563 2634 723 
Q 2766 884 2766 1134 
Q 2766 1356 2662 1497 
Q 2559 1638 2321 1742 
Q 2084 1847 1678 1950 
Q 1203 2075 897 2223 
Q 591 2372 442 2594 
Q 294 2816 294 3156 
Q 294 3516 462 3761 
Q 631 4006 945 4134 
Q 1259 4263 1697 4263 
Q 2103 4263 2440 4131 
Q 2778 4000 2979 3737 
Q 3181 3475 3181 3084 
L 2616 3084 
Q 2622 3441 2356 3623 
Q 2091 3806 1700 3806 
Q 1300 3806 1073 3645 
Q 847 3484 847 3175 
Q 847 2991 944 2867 
Q 1041 2744 1280 2644 
Q 1519 2544 1941 2434 
Q 2428 2303 2731 2153 
Q 3034 2003 3178 1768 
Q 3322 1534 3322 1153 
Q 3322 747 3117 480 
Q 2913 213 2564 78 
Q 2216 -56 1778 -56 
z
" transform="scale(0.015625)"/>
       <path id="AptosDisplay-29" d="M 234 -1116 
Q 609 -481 786 233 
Q 963 947 963 1694 
Q 963 2356 759 3015 
Q 556 3675 234 4231 
L 663 4231 
Q 919 3800 1098 3389 
Q 1278 2978 1373 2540 
Q 1469 2103 1469 1594 
Q 1469 1094 1375 634 
Q 1281 175 1100 -259 
Q 919 -694 663 -1116 
L 234 -1116 
z
" transform="scale(0.015625)"/>
      </defs>
      <use xlink:href="#AptosDisplay-54"/>
      <use xlink:href="#AptosDisplay-69" x="47.705078"/>
      <use xlink:href="#AptosDisplay-6d" x="68.75"/>
      <use xlink:href="#AptosDisplay-65" x="148.730469"/>
      <use xlink:href="#AptosDisplay-20" x="198.144531"/>
      <use xlink:href="#AptosDisplay-28" x="217.431641"/>
      <use xlink:href="#AptosDisplay-53" x="246.875"/>
      <use xlink:href="#AptosDisplay-29" x="301.464844"/>
     </g>
    </g>
   </g>
   <g id="matplotlib.axis_2">
    <g id="ytick_1">
     <g id="line2d_83">
      <path d="M 84.665625 492.417111 
L 754.265625 492.417111 
" clip-path="url(#p522b3669fb)" style="fill: none; stroke: #b0b0b0; stroke-opacity: 0.8; stroke-linecap: square"/>
     </g>
     <g id="line2d_84">
      <defs>
       <path id="m08d5221523" d="M 0 0 
L -3.5 0 
" style="stroke: #000000; stroke-width: 0.8"/>
      </defs>
      <g>
       <use xlink:href="#m08d5221523" x="84.665625" y="492.417111" style="stroke: #000000; stroke-width: 0.8"/>
      </g>
     </g>
     <g id="text_10">
      <!-- 0 -->
      <g transform="translate(67.20625 498.988986) scale(0.2 -0.2)">
       <use xlink:href="#AptosDisplay-30"/>
      </g>
     </g>
    </g>
    <g id="ytick_2">
     <g id="line2d_85">
      <path d="M 84.665625 428.916566 
L 754.265625 428.916566 
" clip-path="url(#p522b3669fb)" style="fill: none; stroke: #b0b0b0; stroke-opacity: 0.8; stroke-linecap: square"/>
     </g>
     <g id="line2d_86">
      <g>
       <use xlink:href="#m08d5221523" x="84.665625" y="428.916566" style="stroke: #000000; stroke-width: 0.8"/>
      </g>
     </g>
     <g id="text_11">
      <!-- 10 -->
      <g transform="translate(56.746875 435.488441) scale(0.2 -0.2)">
       <use xlink:href="#AptosDisplay-31"/>
       <use xlink:href="#AptosDisplay-30" x="52.294922"/>
      </g>
     </g>
    </g>
    <g id="ytick_3">
     <g id="line2d_87">
      <path d="M 84.665625 365.41602 
L 754.265625 365.41602 
" clip-path="url(#p522b3669fb)" style="fill: none; stroke: #b0b0b0; stroke-opacity: 0.8; stroke-linecap: square"/>
     </g>
     <g id="line2d_88">
      <g>
       <use xlink:href="#m08d5221523" x="84.665625" y="365.41602" style="stroke: #000000; stroke-width: 0.8"/>
      </g>
     </g>
     <g id="text_12">
      <!-- 20 -->
      <g transform="translate(56.746875 371.987895) scale(0.2 -0.2)">
       <use xlink:href="#AptosDisplay-32"/>
       <use xlink:href="#AptosDisplay-30" x="52.294922"/>
      </g>
     </g>
    </g>
    <g id="ytick_4">
     <g id="line2d_89">
      <path d="M 84.665625 301.915475 
L 754.265625 301.915475 
" clip-path="url(#p522b3669fb)" style="fill: none; stroke: #b0b0b0; stroke-opacity: 0.8; stroke-linecap: square"/>
     </g>
     <g id="line2d_90">
      <g>
       <use xlink:href="#m08d5221523" x="84.665625" y="301.915475" style="stroke: #000000; stroke-width: 0.8"/>
      </g>
     </g>
     <g id="text_13">
      <!-- 30 -->
      <g transform="translate(56.746875 308.48735) scale(0.2 -0.2)">
       <defs>
        <path id="AptosDisplay-33" d="M 1700 -56 
Q 1047 -56 655 275 
Q 263 606 263 1225 
L 781 1225 
Q 781 844 1023 617 
Q 1266 391 1697 391 
Q 2094 391 2322 581 
Q 2550 772 2550 1172 
Q 2550 1556 2297 1737 
Q 2044 1919 1609 1919 
L 1366 1919 
L 1366 2363 
L 1622 2363 
Q 2013 2363 2222 2555 
Q 2431 2747 2431 3066 
Q 2431 3372 2226 3526 
Q 2022 3681 1684 3681 
Q 1306 3681 1095 3481 
Q 884 3281 891 2956 
L 372 2956 
Q 372 3319 536 3583 
Q 700 3847 995 3990 
Q 1291 4134 1681 4134 
Q 2031 4134 2318 4017 
Q 2606 3900 2778 3670 
Q 2950 3441 2950 3097 
Q 2950 2738 2745 2498 
Q 2541 2259 2206 2166 
Q 2591 2097 2841 1836 
Q 3091 1575 3091 1150 
Q 3091 763 2916 494 
Q 2741 225 2428 84 
Q 2116 -56 1700 -56 
z
" transform="scale(0.015625)"/>
       </defs>
       <use xlink:href="#AptosDisplay-33"/>
       <use xlink:href="#AptosDisplay-30" x="52.294922"/>
      </g>
     </g>
    </g>
    <g id="ytick_5">
     <g id="line2d_91">
      <path d="M 84.665625 238.41493 
L 754.265625 238.41493 
" clip-path="url(#p522b3669fb)" style="fill: none; stroke: #b0b0b0; stroke-opacity: 0.8; stroke-linecap: square"/>
     </g>
     <g id="line2d_92">
      <g>
       <use xlink:href="#m08d5221523" x="84.665625" y="238.41493" style="stroke: #000000; stroke-width: 0.8"/>
      </g>
     </g>
     <g id="text_14">
      <!-- 40 -->
      <g transform="translate(56.746875 244.986805) scale(0.2 -0.2)">
       <defs>
        <path id="AptosDisplay-34" d="M 2106 0 
L 2106 825 
L 125 825 
L 125 1297 
L 2100 4103 
L 2631 4103 
L 2631 1284 
L 3191 1284 
L 3191 825 
L 2631 825 
L 2631 0 
L 2106 0 
z
M 638 1284 
L 2113 1284 
L 2113 3369 
L 638 1284 
z
" transform="scale(0.015625)"/>
       </defs>
       <use xlink:href="#AptosDisplay-34"/>
       <use xlink:href="#AptosDisplay-30" x="52.294922"/>
      </g>
     </g>
    </g>
    <g id="ytick_6">
     <g id="line2d_93">
      <path d="M 84.665625 174.914385 
L 754.265625 174.914385 
" clip-path="url(#p522b3669fb)" style="fill: none; stroke: #b0b0b0; stroke-opacity: 0.8; stroke-linecap: square"/>
     </g>
     <g id="line2d_94">
      <g>
       <use xlink:href="#m08d5221523" x="84.665625" y="174.914385" style="stroke: #000000; stroke-width: 0.8"/>
      </g>
     </g>
     <g id="text_15">
      <!-- 50 -->
      <g transform="translate(56.746875 181.48626) scale(0.2 -0.2)">
       <use xlink:href="#AptosDisplay-35"/>
       <use xlink:href="#AptosDisplay-30" x="52.294922"/>
      </g>
     </g>
    </g>
    <g id="ytick_7">
     <g id="line2d_95">
      <path d="M 84.665625 111.41384 
L 754.265625 111.41384 
" clip-path="url(#p522b3669fb)" style="fill: none; stroke: #b0b0b0; stroke-opacity: 0.8; stroke-linecap: square"/>
     </g>
     <g id="line2d_96">
      <g>
       <use xlink:href="#m08d5221523" x="84.665625" y="111.41384" style="stroke: #000000; stroke-width: 0.8"/>
      </g>
     </g>
     <g id="text_16">
      <!-- 60 -->
      <g transform="translate(56.746875 117.985715) scale(0.2 -0.2)">
       <defs>
        <path id="AptosDisplay-36" d="M 1759 -56 
Q 1325 -56 984 151 
Q 644 359 447 815 
Q 250 1272 250 2013 
Q 250 2738 439 3206 
Q 628 3675 968 3903 
Q 1309 4131 1759 4131 
Q 2253 4131 2595 3875 
Q 2938 3619 3034 3097 
L 2503 3097 
Q 2441 3388 2250 3534 
Q 2059 3681 1759 3681 
Q 1306 3681 1047 3279 
Q 788 2878 788 2013 
L 788 1850 
Q 788 1313 922 992 
Q 1056 672 1279 531 
Q 1503 391 1763 391 
Q 2175 391 2369 644 
Q 2563 897 2563 1272 
Q 2563 1650 2373 1869 
Q 2184 2088 1838 2088 
Q 1422 2088 1114 1897 
Q 806 1706 644 1456 
L 597 1856 
Q 728 2047 922 2201 
Q 1116 2356 1362 2447 
Q 1609 2538 1909 2538 
Q 2253 2538 2523 2395 
Q 2794 2253 2951 1975 
Q 3109 1697 3109 1291 
Q 3109 897 2951 592 
Q 2794 288 2492 116 
Q 2191 -56 1759 -56 
z
" transform="scale(0.015625)"/>
       </defs>
       <use xlink:href="#AptosDisplay-36"/>
       <use xlink:href="#AptosDisplay-30" x="52.294922"/>
      </g>
     </g>
    </g>
    <g id="ytick_8">
     <g id="line2d_97">
      <path d="M 84.665625 479.717002 
L 754.265625 479.717002 
" clip-path="url(#p522b3669fb)" style="fill: none; stroke-dasharray: 1.85,0.8; stroke-dashoffset: 0; stroke: #b0b0b0; stroke-opacity: 0.8; stroke-width: 0.5"/>
     </g>
     <g id="line2d_98">
      <defs>
       <path id="ma32cbbddaa" d="M 0 0 
L -2 0 
" style="stroke: #000000; stroke-width: 0.6"/>
      </defs>
      <g>
       <use xlink:href="#ma32cbbddaa" x="84.665625" y="479.717002" style="stroke: #000000; stroke-width: 0.6"/>
      </g>
     </g>
    </g>
    <g id="ytick_9">
     <g id="line2d_99">
      <path d="M 84.665625 467.016893 
L 754.265625 467.016893 
" clip-path="url(#p522b3669fb)" style="fill: none; stroke-dasharray: 1.85,0.8; stroke-dashoffset: 0; stroke: #b0b0b0; stroke-opacity: 0.8; stroke-width: 0.5"/>
     </g>
     <g id="line2d_100">
      <g>
       <use xlink:href="#ma32cbbddaa" x="84.665625" y="467.016893" style="stroke: #000000; stroke-width: 0.6"/>
      </g>
     </g>
    </g>
    <g id="ytick_10">
     <g id="line2d_101">
      <path d="M 84.665625 454.316784 
L 754.265625 454.316784 
" clip-path="url(#p522b3669fb)" style="fill: none; stroke-dasharray: 1.85,0.8; stroke-dashoffset: 0; stroke: #b0b0b0; stroke-opacity: 0.8; stroke-width: 0.5"/>
     </g>
     <g id="line2d_102">
      <g>
       <use xlink:href="#ma32cbbddaa" x="84.665625" y="454.316784" style="stroke: #000000; stroke-width: 0.6"/>
      </g>
     </g>
    </g>
    <g id="ytick_11">
     <g id="line2d_103">
      <path d="M 84.665625 441.616675 
L 754.265625 441.616675 
" clip-path="url(#p522b3669fb)" style="fill: none; stroke-dasharray: 1.85,0.8; stroke-dashoffset: 0; stroke: #b0b0b0; stroke-opacity: 0.8; stroke-width: 0.5"/>
     </g>
     <g id="line2d_104">
      <g>
       <use xlink:href="#ma32cbbddaa" x="84.665625" y="441.616675" style="stroke: #000000; stroke-width: 0.6"/>
      </g>
     </g>
    </g>
    <g id="ytick_12">
     <g id="line2d_105">
      <path d="M 84.665625 416.216457 
L 754.265625 416.216457 
" clip-path="url(#p522b3669fb)" style="fill: none; stroke-dasharray: 1.85,0.8; stroke-dashoffset: 0; stroke: #b0b0b0; stroke-opacity: 0.8; stroke-width: 0.5"/>
     </g>
     <g id="line2d_106">
      <g>
       <use xlink:href="#ma32cbbddaa" x="84.665625" y="416.216457" style="stroke: #000000; stroke-width: 0.6"/>
      </g>
     </g>
    </g>
    <g id="ytick_13">
     <g id="line2d_107">
      <path d="M 84.665625 403.516348 
L 754.265625 403.516348 
" clip-path="url(#p522b3669fb)" style="fill: none; stroke-dasharray: 1.85,0.8; stroke-dashoffset: 0; stroke: #b0b0b0; stroke-opacity: 0.8; stroke-width: 0.5"/>
     </g>
     <g id="line2d_108">
      <g>
       <use xlink:href="#ma32cbbddaa" x="84.665625" y="403.516348" style="stroke: #000000; stroke-width: 0.6"/>
      </g>
     </g>
    </g>
    <g id="ytick_14">
     <g id="line2d_109">
      <path d="M 84.665625 390.816239 
L 754.265625 390.816239 
" clip-path="url(#p522b3669fb)" style="fill: none; stroke-dasharray: 1.85,0.8; stroke-dashoffset: 0; stroke: #b0b0b0; stroke-opacity: 0.8; stroke-width: 0.5"/>
     </g>
     <g id="line2d_110">
      <g>
       <use xlink:href="#ma32cbbddaa" x="84.665625" y="390.816239" style="stroke: #000000; stroke-width: 0.6"/>
      </g>
     </g>
    </g>
    <g id="ytick_15">
     <g id="line2d_111">
      <path d="M 84.665625 378.116129 
L 754.265625 378.116129 
" clip-path="url(#p522b3669fb)" style="fill: none; stroke-dasharray: 1.85,0.8; stroke-dashoffset: 0; stroke: #b0b0b0; stroke-opacity: 0.8; stroke-width: 0.5"/>
     </g>
     <g id="line2d_112">
      <g>
       <use xlink:href="#ma32cbbddaa" x="84.665625" y="378.116129" style="stroke: #000000; stroke-width: 0.6"/>
      </g>
     </g>
    </g>
    <g id="ytick_16">
     <g id="line2d_113">
      <path d="M 84.665625 352.715911 
L 754.265625 352.715911 
" clip-path="url(#p522b3669fb)" style="fill: none; stroke-dasharray: 1.85,0.8; stroke-dashoffset: 0; stroke: #b0b0b0; stroke-opacity: 0.8; stroke-width: 0.5"/>
     </g>
     <g id="line2d_114">
      <g>
       <use xlink:href="#ma32cbbddaa" x="84.665625" y="352.715911" style="stroke: #000000; stroke-width: 0.6"/>
      </g>
     </g>
    </g>
    <g id="ytick_17">
     <g id="line2d_115">
      <path d="M 84.665625 340.015802 
L 754.265625 340.015802 
" clip-path="url(#p522b3669fb)" style="fill: none; stroke-dasharray: 1.85,0.8; stroke-dashoffset: 0; stroke: #b0b0b0; stroke-opacity: 0.8; stroke-width: 0.5"/>
     </g>
     <g id="line2d_116">
      <g>
       <use xlink:href="#ma32cbbddaa" x="84.665625" y="340.015802" style="stroke: #000000; stroke-width: 0.6"/>
      </g>
     </g>
    </g>
    <g id="ytick_18">
     <g id="line2d_117">
      <path d="M 84.665625 327.315693 
L 754.265625 327.315693 
" clip-path="url(#p522b3669fb)" style="fill: none; stroke-dasharray: 1.85,0.8; stroke-dashoffset: 0; stroke: #b0b0b0; stroke-opacity: 0.8; stroke-width: 0.5"/>
     </g>
     <g id="line2d_118">
      <g>
       <use xlink:href="#ma32cbbddaa" x="84.665625" y="327.315693" style="stroke: #000000; stroke-width: 0.6"/>
      </g>
     </g>
    </g>
    <g id="ytick_19">
     <g id="line2d_119">
      <path d="M 84.665625 314.615584 
L 754.265625 314.615584 
" clip-path="url(#p522b3669fb)" style="fill: none; stroke-dasharray: 1.85,0.8; stroke-dashoffset: 0; stroke: #b0b0b0; stroke-opacity: 0.8; stroke-width: 0.5"/>
     </g>
     <g id="line2d_120">
      <g>
       <use xlink:href="#ma32cbbddaa" x="84.665625" y="314.615584" style="stroke: #000000; stroke-width: 0.6"/>
      </g>
     </g>
    </g>
    <g id="ytick_20">
     <g id="line2d_121">
      <path d="M 84.665625 289.215366 
L 754.265625 289.215366 
" clip-path="url(#p522b3669fb)" style="fill: none; stroke-dasharray: 1.85,0.8; stroke-dashoffset: 0; stroke: #b0b0b0; stroke-opacity: 0.8; stroke-width: 0.5"/>
     </g>
     <g id="line2d_122">
      <g>
       <use xlink:href="#ma32cbbddaa" x="84.665625" y="289.215366" style="stroke: #000000; stroke-width: 0.6"/>
      </g>
     </g>
    </g>
    <g id="ytick_21">
     <g id="line2d_123">
      <path d="M 84.665625 276.515257 
L 754.265625 276.515257 
" clip-path="url(#p522b3669fb)" style="fill: none; stroke-dasharray: 1.85,0.8; stroke-dashoffset: 0; stroke: #b0b0b0; stroke-opacity: 0.8; stroke-width: 0.5"/>
     </g>
     <g id="line2d_124">
      <g>
       <use xlink:href="#ma32cbbddaa" x="84.665625" y="276.515257" style="stroke: #000000; stroke-width: 0.6"/>
      </g>
     </g>
    </g>
    <g id="ytick_22">
     <g id="line2d_125">
      <path d="M 84.665625 263.815148 
L 754.265625 263.815148 
" clip-path="url(#p522b3669fb)" style="fill: none; stroke-dasharray: 1.85,0.8; stroke-dashoffset: 0; stroke: #b0b0b0; stroke-opacity: 0.8; stroke-width: 0.5"/>
     </g>
     <g id="line2d_126">
      <g>
       <use xlink:href="#ma32cbbddaa" x="84.665625" y="263.815148" style="stroke: #000000; stroke-width: 0.6"/>
      </g>
     </g>
    </g>
    <g id="ytick_23">
     <g id="line2d_127">
      <path d="M 84.665625 251.115039 
L 754.265625 251.115039 
" clip-path="url(#p522b3669fb)" style="fill: none; stroke-dasharray: 1.85,0.8; stroke-dashoffset: 0; stroke: #b0b0b0; stroke-opacity: 0.8; stroke-width: 0.5"/>
     </g>
     <g id="line2d_128">
      <g>
       <use xlink:href="#ma32cbbddaa" x="84.665625" y="251.115039" style="stroke: #000000; stroke-width: 0.6"/>
      </g>
     </g>
    </g>
    <g id="ytick_24">
     <g id="line2d_129">
      <path d="M 84.665625 225.714821 
L 754.265625 225.714821 
" clip-path="url(#p522b3669fb)" style="fill: none; stroke-dasharray: 1.85,0.8; stroke-dashoffset: 0; stroke: #b0b0b0; stroke-opacity: 0.8; stroke-width: 0.5"/>
     </g>
     <g id="line2d_130">
      <g>
       <use xlink:href="#ma32cbbddaa" x="84.665625" y="225.714821" style="stroke: #000000; stroke-width: 0.6"/>
      </g>
     </g>
    </g>
    <g id="ytick_25">
     <g id="line2d_131">
      <path d="M 84.665625 213.014712 
L 754.265625 213.014712 
" clip-path="url(#p522b3669fb)" style="fill: none; stroke-dasharray: 1.85,0.8; stroke-dashoffset: 0; stroke: #b0b0b0; stroke-opacity: 0.8; stroke-width: 0.5"/>
     </g>
     <g id="line2d_132">
      <g>
       <use xlink:href="#ma32cbbddaa" x="84.665625" y="213.014712" style="stroke: #000000; stroke-width: 0.6"/>
      </g>
     </g>
    </g>
    <g id="ytick_26">
     <g id="line2d_133">
      <path d="M 84.665625 200.314603 
L 754.265625 200.314603 
" clip-path="url(#p522b3669fb)" style="fill: none; stroke-dasharray: 1.85,0.8; stroke-dashoffset: 0; stroke: #b0b0b0; stroke-opacity: 0.8; stroke-width: 0.5"/>
     </g>
     <g id="line2d_134">
      <g>
       <use xlink:href="#ma32cbbddaa" x="84.665625" y="200.314603" style="stroke: #000000; stroke-width: 0.6"/>
      </g>
     </g>
    </g>
    <g id="ytick_27">
     <g id="line2d_135">
      <path d="M 84.665625 187.614494 
L 754.265625 187.614494 
" clip-path="url(#p522b3669fb)" style="fill: none; stroke-dasharray: 1.85,0.8; stroke-dashoffset: 0; stroke: #b0b0b0; stroke-opacity: 0.8; stroke-width: 0.5"/>
     </g>
     <g id="line2d_136">
      <g>
       <use xlink:href="#ma32cbbddaa" x="84.665625" y="187.614494" style="stroke: #000000; stroke-width: 0.6"/>
      </g>
     </g>
    </g>
    <g id="ytick_28">
     <g id="line2d_137">
      <path d="M 84.665625 162.214276 
L 754.265625 162.214276 
" clip-path="url(#p522b3669fb)" style="fill: none; stroke-dasharray: 1.85,0.8; stroke-dashoffset: 0; stroke: #b0b0b0; stroke-opacity: 0.8; stroke-width: 0.5"/>
     </g>
     <g id="line2d_138">
      <g>
       <use xlink:href="#ma32cbbddaa" x="84.665625" y="162.214276" style="stroke: #000000; stroke-width: 0.6"/>
      </g>
     </g>
    </g>
    <g id="ytick_29">
     <g id="line2d_139">
      <path d="M 84.665625 149.514167 
L 754.265625 149.514167 
" clip-path="url(#p522b3669fb)" style="fill: none; stroke-dasharray: 1.85,0.8; stroke-dashoffset: 0; stroke: #b0b0b0; stroke-opacity: 0.8; stroke-width: 0.5"/>
     </g>
     <g id="line2d_140">
      <g>
       <use xlink:href="#ma32cbbddaa" x="84.665625" y="149.514167" style="stroke: #000000; stroke-width: 0.6"/>
      </g>
     </g>
    </g>
    <g id="ytick_30">
     <g id="line2d_141">
      <path d="M 84.665625 136.814058 
L 754.265625 136.814058 
" clip-path="url(#p522b3669fb)" style="fill: none; stroke-dasharray: 1.85,0.8; stroke-dashoffset: 0; stroke: #b0b0b0; stroke-opacity: 0.8; stroke-width: 0.5"/>
     </g>
     <g id="line2d_142">
      <g>
       <use xlink:href="#ma32cbbddaa" x="84.665625" y="136.814058" style="stroke: #000000; stroke-width: 0.6"/>
      </g>
     </g>
    </g>
    <g id="ytick_31">
     <g id="line2d_143">
      <path d="M 84.665625 124.113949 
L 754.265625 124.113949 
" clip-path="url(#p522b3669fb)" style="fill: none; stroke-dasharray: 1.85,0.8; stroke-dashoffset: 0; stroke: #b0b0b0; stroke-opacity: 0.8; stroke-width: 0.5"/>
     </g>
     <g id="line2d_144">
      <g>
       <use xlink:href="#ma32cbbddaa" x="84.665625" y="124.113949" style="stroke: #000000; stroke-width: 0.6"/>
      </g>
     </g>
    </g>
    <g id="ytick_32">
     <g id="line2d_145">
      <path d="M 84.665625 98.713731 
L 754.265625 98.713731 
" clip-path="url(#p522b3669fb)" style="fill: none; stroke-dasharray: 1.85,0.8; stroke-dashoffset: 0; stroke: #b0b0b0; stroke-opacity: 0.8; stroke-width: 0.5"/>
     </g>
     <g id="line2d_146">
      <g>
       <use xlink:href="#ma32cbbddaa" x="84.665625" y="98.713731" style="stroke: #000000; stroke-width: 0.6"/>
      </g>
     </g>
    </g>
    <g id="ytick_33">
     <g id="line2d_147">
      <path d="M 84.665625 86.013622 
L 754.265625 86.013622 
" clip-path="url(#p522b3669fb)" style="fill: none; stroke-dasharray: 1.85,0.8; stroke-dashoffset: 0; stroke: #b0b0b0; stroke-opacity: 0.8; stroke-width: 0.5"/>
     </g>
     <g id="line2d_148">
      <g>
       <use xlink:href="#ma32cbbddaa" x="84.665625" y="86.013622" style="stroke: #000000; stroke-width: 0.6"/>
      </g>
     </g>
    </g>
    <g id="ytick_34">
     <g id="line2d_149">
      <path d="M 84.665625 73.313512 
L 754.265625 73.313512 
" clip-path="url(#p522b3669fb)" style="fill: none; stroke-dasharray: 1.85,0.8; stroke-dashoffset: 0; stroke: #b0b0b0; stroke-opacity: 0.8; stroke-width: 0.5"/>
     </g>
     <g id="line2d_150">
      <g>
       <use xlink:href="#ma32cbbddaa" x="84.665625" y="73.313512" style="stroke: #000000; stroke-width: 0.6"/>
      </g>
     </g>
    </g>
    <g id="ytick_35">
     <g id="line2d_151">
      <path d="M 84.665625 60.613403 
L 754.265625 60.613403 
" clip-path="url(#p522b3669fb)" style="fill: none; stroke-dasharray: 1.85,0.8; stroke-dashoffset: 0; stroke: #b0b0b0; stroke-opacity: 0.8; stroke-width: 0.5"/>
     </g>
     <g id="line2d_152">
      <g>
       <use xlink:href="#ma32cbbddaa" x="84.665625" y="60.613403" style="stroke: #000000; stroke-width: 0.6"/>
      </g>
     </g>
    </g>
    <g id="text_17">
     <!-- Efficiency (%) -->
     <g transform="translate(49.221875 335.120625) rotate(-90) scale(0.2 -0.2)">
      <defs>
       <path id="AptosDisplay-45" d="M 472 0 
L 472 4206 
L 3153 4206 
L 3153 3738 
L 1034 3738 
L 1034 2397 
L 2984 2397 
L 2984 1934 
L 1034 1934 
L 1034 469 
L 3153 469 
L 3153 0 
L 472 0 
z
" transform="scale(0.015625)"/>
       <path id="AptosDisplay-66" d="M 550 0 
L 550 2622 
L 44 2622 
L 44 3044 
L 550 3044 
L 550 3219 
Q 550 3453 589 3636 
Q 628 3819 728 3947 
Q 828 4075 1004 4140 
Q 1181 4206 1463 4206 
L 1781 4206 
L 1781 3797 
L 1494 3797 
Q 1219 3797 1145 3645 
Q 1072 3494 1072 3209 
L 1072 3044 
L 1775 3044 
L 1775 2622 
L 1072 2622 
L 1072 0 
L 550 0 
z
" transform="scale(0.015625)"/>
       <path id="AptosDisplay-63" d="M 1634 -53 
Q 1234 -53 925 122 
Q 616 297 441 645 
Q 266 994 266 1513 
Q 266 2031 437 2384 
Q 609 2738 917 2916 
Q 1225 3094 1634 3094 
Q 1978 3094 2251 2978 
Q 2525 2863 2689 2630 
Q 2853 2397 2866 2041 
L 2350 2041 
Q 2328 2334 2139 2503 
Q 1950 2672 1644 2672 
Q 1228 2672 1015 2367 
Q 803 2063 803 1513 
Q 803 1150 897 894 
Q 991 638 1178 503 
Q 1366 369 1644 369 
Q 1956 369 2159 541 
Q 2363 713 2372 1047 
L 2884 1047 
Q 2878 681 2711 436 
Q 2544 191 2264 69 
Q 1984 -53 1634 -53 
z
" transform="scale(0.015625)"/>
       <path id="AptosDisplay-6e" d="M 413 0 
L 413 3044 
L 919 3044 
L 931 2575 
Q 1066 2756 1316 2914 
Q 1566 3072 1941 3072 
Q 2428 3072 2637 2781 
Q 2847 2491 2847 1963 
L 2847 0 
L 2328 0 
L 2328 1891 
Q 2328 2106 2286 2275 
Q 2244 2444 2133 2539 
Q 2022 2634 1816 2634 
Q 1500 2634 1283 2482 
Q 1066 2331 934 2156 
L 934 0 
L 413 0 
z
" transform="scale(0.015625)"/>
       <path id="AptosDisplay-79" d="M 266 -1128 
L 266 -697 
L 525 -697 
Q 716 -697 831 -598 
Q 947 -500 1038 -275 
L 1153 0 
L -13 3044 
L 538 3044 
L 1428 553 
L 2250 3044 
L 2781 3044 
L 1688 0 
L 1550 -356 
Q 1441 -647 1314 -815 
Q 1188 -984 1013 -1056 
Q 838 -1128 578 -1128 
L 266 -1128 
z
" transform="scale(0.015625)"/>
       <path id="AptosDisplay-25" d="M 1188 0 
L 3669 4078 
L 4094 4078 
L 1613 0 
L 1188 0 
z
M 1197 1606 
Q 878 1606 679 1765 
Q 481 1925 390 2209 
Q 300 2494 300 2872 
Q 300 3253 390 3536 
Q 481 3819 679 3976 
Q 878 4134 1197 4134 
Q 1519 4134 1716 3976 
Q 1913 3819 2005 3536 
Q 2097 3253 2097 2872 
Q 2097 2494 2005 2209 
Q 1913 1925 1714 1765 
Q 1516 1606 1197 1606 
z
M 1197 1953 
Q 1391 1953 1498 2084 
Q 1606 2216 1648 2425 
Q 1691 2634 1691 2872 
Q 1691 3109 1648 3318 
Q 1606 3528 1498 3658 
Q 1391 3788 1197 3788 
Q 1006 3788 898 3658 
Q 791 3528 748 3318 
Q 706 3109 706 2872 
Q 706 2634 748 2425 
Q 791 2216 898 2084 
Q 1006 1953 1197 1953 
z
M 4084 -53 
Q 3769 -53 3570 105 
Q 3372 263 3281 547 
Q 3191 831 3191 1209 
Q 3191 1591 3281 1873 
Q 3372 2156 3570 2314 
Q 3769 2472 4084 2472 
Q 4406 2472 4604 2315 
Q 4803 2159 4893 1875 
Q 4984 1591 4984 1209 
Q 4984 831 4893 547 
Q 4803 263 4604 105 
Q 4406 -53 4084 -53 
z
M 4084 294 
Q 4281 294 4387 423 
Q 4494 553 4536 761 
Q 4578 969 4578 1209 
Q 4578 1447 4536 1656 
Q 4494 1866 4387 1994 
Q 4281 2122 4084 2122 
Q 3894 2122 3787 1994 
Q 3681 1866 3639 1656 
Q 3597 1447 3597 1209 
Q 3597 969 3639 761 
Q 3681 553 3787 423 
Q 3894 294 4084 294 
z
" transform="scale(0.015625)"/>
      </defs>
      <use xlink:href="#AptosDisplay-45"/>
      <use xlink:href="#AptosDisplay-66" x="54.052734"/>
      <use xlink:href="#AptosDisplay-66" x="82.373047"/>
      <use xlink:href="#AptosDisplay-69" x="110.693359"/>
      <use xlink:href="#AptosDisplay-63" x="131.738281"/>
      <use xlink:href="#AptosDisplay-69" x="181.005859"/>
      <use xlink:href="#AptosDisplay-65" x="202.050781"/>
      <use xlink:href="#AptosDisplay-6e" x="251.464844"/>
      <use xlink:href="#AptosDisplay-63" x="302.050781"/>
      <use xlink:href="#AptosDisplay-79" x="351.318359"/>
      <use xlink:href="#AptosDisplay-20" x="394.580078"/>
      <use xlink:href="#AptosDisplay-28" x="413.867188"/>
      <use xlink:href="#AptosDisplay-25" x="443.310547"/>
      <use xlink:href="#AptosDisplay-29" x="525.830078"/>
     </g>
    </g>
   </g>
   <g id="line2d_153">
    <path d="M 115.101989 77.9925 
L 115.755828 382.691904 
L 116.409666 422.030964 
L 117.063505 434.320003 
L 117.717344 443.847289 
L 118.371183 430.27672 
L 119.025022 448.623631 
L 119.678861 446.958503 
L 120.3327 448.09999 
L 120.986539 461.92677 
L 121.640378 461.385419 
L 122.294216 471.44278 
L 122.948055 468.647578 
L 123.601894 473.923 
L 124.255733 474.540975 
L 124.909572 476.457852 
L 125.563411 477.458532 
L 126.21725 477.262681 
L 126.871089 478.451075 
L 127.524927 477.466895 
L 128.178766 478.884396 
L 128.832605 478.75543 
L 130.140283 479.203082 
L 130.794122 478.530461 
L 131.447961 479.405721 
L 132.755639 478.893347 
L 133.409477 479.218958 
L 134.063316 478.959043 
L 134.717155 479.02692 
L 135.370994 479.291681 
L 136.678672 479.491598 
L 137.332511 479.21526 
L 137.98635 479.625287 
L 138.640189 479.583448 
L 139.947866 479.881359 
L 140.601705 479.425379 
L 141.255544 479.850501 
L 141.909383 479.640961 
L 142.563222 479.094353 
L 143.217061 479.560486 
L 143.8709 479.291896 
L 144.524739 479.789162 
L 145.178577 479.427007 
L 145.832416 479.376418 
L 146.486255 479.823199 
L 147.140094 479.295433 
L 147.793933 479.968691 
L 148.447772 479.53612 
L 149.101611 479.721097 
L 150.409289 479.595387 
L 151.063127 479.491875 
L 151.716966 479.72178 
L 152.370805 479.436394 
L 153.024644 479.886337 
L 153.678483 479.40164 
L 154.986161 479.822131 
L 155.64 479.31123 
L 156.293838 479.367646 
L 156.947677 479.58596 
L 157.601516 480.065785 
L 158.255355 479.743363 
L 158.909194 479.651978 
L 159.563033 479.719725 
L 160.216872 480.034738 
L 160.870711 480.199737 
L 161.52455 479.565208 
L 162.178388 480.230577 
L 162.832227 479.072893 
L 163.486066 480.0338 
L 164.793744 479.72506 
L 165.447583 479.865881 
L 166.101422 479.536949 
L 166.755261 479.495488 
L 167.4091 479.886982 
L 168.062938 479.639791 
L 168.716777 479.768669 
L 170.024455 479.530867 
L 170.678294 479.756839 
L 171.332133 479.696485 
L 171.985972 479.764619 
L 172.639811 479.217816 
L 173.29365 479.657899 
L 174.601327 479.690099 
L 175.255166 479.897042 
L 175.909005 479.877643 
L 176.562844 479.645095 
L 177.216683 479.833629 
L 177.870522 479.891419 
L 178.524361 479.302569 
L 179.1782 479.526748 
L 179.832038 479.967361 
L 180.485877 479.535504 
L 181.139716 479.462818 
L 181.793555 479.927842 
L 182.447394 479.703331 
L 183.101233 479.875565 
L 183.755072 479.920451 
L 184.408911 480.147777 
L 185.06275 479.652153 
L 185.716588 479.87855 
L 186.370427 479.610854 
L 187.024266 479.943178 
L 187.678105 479.372856 
L 188.331944 479.879489 
L 188.985783 479.688566 
L 189.639622 479.269149 
L 190.293461 479.729313 
L 191.601138 479.447961 
L 192.254977 479.638627 
L 192.908816 479.545608 
L 193.562655 480.075777 
L 194.216494 479.999196 
L 194.870333 480.300876 
L 195.524172 479.780692 
L 196.178011 479.415699 
L 196.831849 479.95125 
L 197.485688 479.669537 
L 198.139527 479.913049 
L 198.793366 479.657275 
L 199.447205 479.858704 
L 200.101044 479.808761 
L 200.754883 479.441002 
L 201.408722 479.303057 
L 202.062561 479.635604 
L 204.024077 479.719028 
L 204.677916 480.165556 
L 205.331755 479.52239 
L 205.985594 480.117502 
L 206.639433 479.636353 
L 207.293272 479.742553 
L 208.600949 479.671212 
L 209.254788 480.018024 
L 209.908627 479.488856 
L 210.562466 479.706612 
L 211.870144 479.601382 
L 212.523983 479.629235 
L 213.177822 479.491761 
L 213.831661 479.887487 
L 214.485499 479.007815 
L 215.139338 479.544902 
L 215.793177 479.900442 
L 216.447016 479.482989 
L 217.100855 479.370278 
L 218.408533 479.851361 
L 219.062372 479.538127 
L 219.716211 479.028769 
L 220.370049 479.610751 
L 221.023888 479.602548 
L 221.677727 479.462186 
L 222.331566 478.881716 
L 222.985405 479.062934 
L 223.639244 479.47285 
L 224.293083 479.649239 
L 224.946922 478.804131 
L 225.60076 479.401361 
L 226.254599 479.198307 
L 226.908438 479.212906 
L 228.216116 479.883421 
L 229.523794 479.768012 
L 230.177633 479.287901 
L 230.831472 479.853055 
L 231.48531 479.408894 
L 232.139149 479.298192 
L 232.792988 479.876359 
L 233.446827 479.085347 
L 234.100666 479.584445 
L 234.754505 479.750873 
L 235.408344 479.360594 
L 236.716022 479.106358 
L 237.36986 479.491522 
L 238.023699 479.195398 
L 238.677538 479.250784 
L 239.331377 479.66007 
L 239.985216 479.55786 
L 241.292894 479.678293 
L 241.946733 479.347647 
L 242.600572 479.554189 
L 243.25441 479.374637 
L 243.908249 479.523957 
L 244.562088 479.871518 
L 245.215927 479.552562 
L 245.869766 479.370044 
L 246.523605 479.670263 
L 247.177444 479.106762 
L 248.485122 479.572139 
L 249.13896 478.879745 
L 249.792799 479.337288 
L 250.446638 479.098861 
L 251.100477 479.40052 
L 251.754316 478.656636 
L 252.408155 479.427112 
L 253.061994 479.625259 
L 253.715833 479.139383 
L 254.369672 478.797185 
L 255.02351 479.496367 
L 255.677349 478.702837 
L 256.331188 479.656597 
L 256.985027 478.939852 
L 257.638866 478.839948 
L 258.292705 478.88633 
L 260.90806 478.546324 
L 261.561899 479.073022 
L 262.215738 478.982919 
L 262.869577 478.596785 
L 263.523416 478.661765 
L 264.831094 478.969843 
L 265.484933 478.8017 
L 266.138771 479.106749 
L 266.79261 478.506322 
L 267.446449 478.424716 
L 268.754127 479.082739 
L 269.407966 479.001775 
L 270.715644 479.361278 
L 271.369483 479.724671 
L 272.023321 479.00448 
L 272.67716 478.825752 
L 273.330999 479.042812 
L 273.984838 479.035697 
L 274.638677 479.203743 
L 275.292516 479.083563 
L 276.600194 479.075859 
L 277.254033 478.834107 
L 278.56171 478.979089 
L 279.215549 479.540036 
L 279.869388 478.834727 
L 280.523227 479.269286 
L 281.177066 479.101931 
L 281.830905 478.792532 
L 282.484744 479.160293 
L 283.138583 478.619423 
L 283.792421 478.563423 
L 284.44626 478.855149 
L 285.100099 478.945005 
L 285.753938 478.615145 
L 286.407777 479.568105 
L 287.061616 478.543875 
L 287.715455 478.803942 
L 288.369294 479.387922 
L 289.023133 478.975687 
L 289.676971 479.178534 
L 290.33081 479.14417 
L 290.984649 478.780872 
L 291.638488 479.518505 
L 292.292327 478.952664 
L 292.946166 478.906357 
L 293.600005 479.270528 
L 294.253844 478.375039 
L 294.907682 479.072901 
L 296.21536 479.040881 
L 296.869199 479.632741 
L 297.523038 478.858405 
L 298.830716 479.313179 
L 299.484555 478.872866 
L 300.138394 479.369054 
L 300.792232 479.311383 
L 301.446071 479.105774 
L 302.09991 479.357691 
L 302.753749 479.302553 
L 303.407588 479.773197 
L 304.061427 479.202712 
L 305.369105 479.078449 
L 306.022944 479.30585 
L 306.676782 479.927463 
L 307.330621 479.401709 
L 307.98446 479.381087 
L 308.638299 479.22897 
L 309.292138 479.553216 
L 309.945977 479.36426 
L 312.561332 479.862948 
L 313.215171 479.754647 
L 313.86901 479.921842 
L 314.522849 479.872286 
L 315.176688 479.261998 
L 315.830527 479.665584 
L 316.484366 479.788103 
L 317.138205 479.304803 
L 317.792044 480.107424 
L 318.445882 479.59894 
L 319.099721 479.643436 
L 319.75356 479.991362 
L 321.061238 479.847429 
L 321.715077 480.256863 
L 322.368916 480.088487 
L 323.022755 479.625682 
L 323.676593 480.089827 
L 324.330432 479.698308 
L 324.984271 480.136454 
L 325.63811 479.847355 
L 326.291949 480.036666 
L 326.945788 479.702546 
L 327.599627 479.921536 
L 328.253466 480.412979 
L 329.561143 479.931986 
L 330.214982 480.047969 
L 330.868821 479.570961 
L 332.176499 480.208649 
L 332.830338 480.024831 
L 333.484177 479.450371 
L 334.138016 479.89261 
L 334.791855 479.555655 
L 335.445693 479.785658 
L 336.099532 479.755088 
L 336.753371 480.506612 
L 337.40721 479.771721 
L 338.061049 480.068512 
L 338.714888 479.835646 
L 339.368727 480.045579 
L 341.330243 480.05446 
L 341.984082 480.39849 
L 342.637921 480.207901 
L 343.29176 481.08823 
L 343.945599 480.318737 
L 344.599438 480.119526 
L 345.253277 480.096723 
L 345.907116 480.61027 
L 346.560955 480.256698 
L 347.214793 480.483529 
L 347.868632 480.189019 
L 348.522471 480.478076 
L 349.17631 480.545229 
L 349.830149 480.302987 
L 350.483988 480.297836 
L 351.137827 480.557184 
L 351.791666 480.690009 
L 352.445505 480.133114 
L 353.099343 480.947545 
L 353.753182 480.364473 
L 354.407021 480.261642 
L 355.06086 480.372051 
L 356.368538 479.906594 
L 357.022377 480.57559 
L 357.676216 480.16262 
L 358.330054 480.204859 
L 358.983893 480.506841 
L 359.637732 481.069934 
L 360.291571 480.447228 
L 360.94541 480.04112 
L 361.599249 480.51946 
L 362.253088 480.377252 
L 362.906927 479.742095 
L 363.560766 480.439463 
L 364.214604 480.530714 
L 365.522282 479.914874 
L 366.176121 480.092459 
L 366.82996 480.645704 
L 367.483799 480.538402 
L 368.137638 480.54844 
L 368.791477 480.062047 
L 369.445316 480.515519 
L 370.099154 480.532571 
L 370.752993 479.737494 
L 371.406832 480.140058 
L 372.060671 480.288193 
L 372.71451 479.907381 
L 373.368349 480.487818 
L 374.022188 480.594948 
L 374.676027 479.940804 
L 375.329866 480.229396 
L 375.983704 480.234752 
L 376.637543 480.471019 
L 379.252899 480.426145 
L 379.906738 480.053828 
L 380.560577 480.833106 
L 381.214416 480.020682 
L 381.868254 479.902762 
L 382.522093 479.929867 
L 383.175932 480.408303 
L 383.829771 479.818057 
L 384.48361 480.127097 
L 385.137449 480.223363 
L 385.791288 480.501247 
L 386.445127 479.934153 
L 387.098966 480.066451 
L 387.752804 480.511748 
L 388.406643 480.323885 
L 389.060482 479.634211 
L 389.714321 480.139606 
L 391.021999 480.216248 
L 392.329677 479.499196 
L 392.983515 479.748673 
L 393.637354 480.141373 
L 394.291193 479.951873 
L 395.598871 480.739213 
L 396.25271 480.073875 
L 396.906549 480.33167 
L 397.560388 479.978928 
L 398.214227 480.116201 
L 398.868065 479.85772 
L 399.521904 480.198557 
L 400.175743 480.214159 
L 401.483421 479.616207 
L 402.13726 479.801988 
L 402.791099 480.217386 
L 403.444938 479.796332 
L 404.752615 479.969244 
L 406.060293 480.10758 
L 406.714132 480.452667 
L 407.367971 479.87845 
L 408.02181 480.161355 
L 408.675649 480.013888 
L 409.329488 480.129905 
L 409.983327 479.321773 
L 410.637165 479.768398 
L 411.291004 479.6074 
L 411.944843 480.054292 
L 412.598682 479.832953 
L 413.252521 480.181236 
L 413.90636 479.968634 
L 414.560199 480.112989 
L 415.214038 479.904522 
L 416.521715 479.846109 
L 417.175554 480.302855 
L 417.829393 479.843747 
L 418.483232 480.099324 
L 419.79091 479.591098 
L 420.444749 479.689013 
L 421.098588 480.050792 
L 421.752427 479.666538 
L 422.406265 480.028562 
L 423.713943 479.637256 
L 424.367782 479.799761 
L 425.021621 480.092761 
L 425.67546 479.869463 
L 426.329299 479.792199 
L 426.983138 480.044703 
L 427.636976 479.543291 
L 428.290815 480.053932 
L 428.944654 479.620594 
L 429.598493 479.509535 
L 430.252332 480.277649 
L 431.56001 479.510908 
L 432.213849 479.91766 
L 432.867688 480.014528 
L 433.521526 479.432546 
L 434.175365 479.894654 
L 435.483043 479.566794 
L 436.136882 480.136234 
L 436.790721 479.905851 
L 437.44456 480.11587 
L 438.098399 479.584976 
L 438.752238 479.648404 
L 439.406076 480.212426 
L 440.059915 479.659627 
L 441.367593 480.271835 
L 442.021432 479.962085 
L 442.675271 479.27091 
L 443.32911 479.673964 
L 443.982949 479.534897 
L 445.290626 479.617218 
L 445.944465 480.317928 
L 446.598304 479.581091 
L 447.252143 479.646972 
L 447.905982 480.082643 
L 448.559821 479.692439 
L 449.867499 479.48737 
L 450.521338 480.000708 
L 451.175176 479.67702 
L 451.829015 479.529483 
L 452.482854 479.826574 
L 453.136693 479.727947 
L 453.790532 479.465569 
L 454.444371 479.33269 
L 455.09821 479.949233 
L 455.752049 479.399096 
L 456.405888 479.563453 
L 457.059726 479.46559 
L 457.713565 480.202798 
L 458.367404 479.538631 
L 459.021243 480.05261 
L 459.675082 479.745615 
L 460.328921 479.737508 
L 461.636599 479.462103 
L 462.944276 479.719755 
L 463.598115 479.435388 
L 464.251954 479.896746 
L 464.905793 479.542841 
L 466.213471 479.742283 
L 466.86731 480.008021 
L 468.174987 479.829946 
L 468.828826 480.11833 
L 469.482665 479.566794 
L 470.136504 479.450834 
L 471.444182 480.074329 
L 472.098021 479.538899 
L 472.75186 479.520282 
L 473.405699 479.653182 
L 474.059537 479.260774 
L 474.713376 479.177478 
L 476.674893 479.769409 
L 477.328732 479.581258 
L 479.944087 479.219784 
L 480.597926 479.702126 
L 481.251765 479.533868 
L 481.905604 479.104173 
L 482.559443 479.596632 
L 483.213282 479.729689 
L 483.867121 479.360723 
L 484.52096 479.488943 
L 485.174799 479.37722 
L 485.828637 478.768258 
L 486.482476 479.517578 
L 487.136315 479.579375 
L 487.790154 479.040384 
L 488.443993 479.520769 
L 489.097832 479.187831 
L 489.751671 479.262858 
L 490.40551 479.687654 
L 491.059348 478.963277 
L 491.713187 478.644569 
L 492.367026 479.035395 
L 493.020865 478.678539 
L 493.674704 478.975965 
L 494.328543 479.070757 
L 494.982382 478.908915 
L 495.636221 477.944052 
L 496.29006 478.641457 
L 496.943898 477.822177 
L 497.597737 477.755361 
L 498.908684 478.396517 
L 499.562523 477.742523 
L 500.870201 477.759469 
L 501.52404 477.073113 
L 502.17461 477.65363 
L 503.485557 477.272329 
L 504.793234 477.159594 
L 505.447073 477.368107 
L 506.100912 476.933655 
L 506.754751 477.500575 
L 507.40859 477.065331 
L 510.023945 477.156452 
L 510.677784 477.546618 
L 511.331623 477.034008 
L 511.985462 477.627287 
L 512.639301 477.588934 
L 513.29314 477.94711 
L 513.946979 477.456018 
L 514.600818 477.213751 
L 515.254657 477.724672 
L 515.908495 477.487793 
L 517.870012 478.071386 
L 518.523851 477.497035 
L 519.17769 477.597139 
L 519.831529 477.562662 
L 520.485368 477.966597 
L 521.139206 477.055492 
L 521.793045 477.712186 
L 522.446884 477.659726 
L 523.100723 477.912879 
L 523.754562 477.283183 
L 524.408401 478.257249 
L 525.716079 477.67523 
L 526.369918 478.297449 
L 527.023756 478.304017 
L 527.677595 478.168577 
L 528.331434 478.630327 
L 528.985273 478.551473 
L 529.639112 478.730438 
L 530.292951 478.648977 
L 530.94679 478.35616 
L 532.254468 478.891031 
L 532.908306 477.997003 
L 533.562145 479.002611 
L 534.215984 478.40003 
L 535.523662 479.525157 
L 536.177501 478.537425 
L 536.83134 478.991149 
L 537.485179 479.013506 
L 538.139018 478.405833 
L 538.792856 479.353663 
L 539.446695 478.856498 
L 540.100534 478.840071 
L 540.754373 479.141736 
L 541.408212 478.647664 
L 542.062051 478.995344 
L 542.71589 478.646281 
L 543.369729 478.823722 
L 544.023568 478.778614 
L 544.677406 479.683338 
L 545.331245 478.82879 
L 545.985084 479.181599 
L 546.638923 479.403223 
L 547.292762 479.432579 
L 547.946601 479.645853 
L 548.60044 479.584702 
L 549.254279 478.97237 
L 549.908117 479.396782 
L 550.561956 479.501624 
L 551.215795 479.324593 
L 551.869634 478.99369 
L 552.523473 479.03893 
L 553.177312 479.641895 
L 553.831151 478.678129 
L 554.48499 479.760718 
L 555.138829 479.495696 
L 555.792667 479.436161 
L 557.100345 480.027797 
L 557.754184 479.366584 
L 558.408023 479.488095 
L 559.061862 479.494445 
L 559.715701 479.622094 
L 560.36954 479.482719 
L 561.01684 479.473608 
L 561.670679 478.175755 
L 562.324518 479.019337 
L 562.978357 474.907998 
L 563.638734 479.395145 
L 564.292573 479.060715 
L 564.946412 479.636866 
L 566.25409 479.69717 
L 566.907929 479.631766 
L 567.561767 479.789162 
L 568.215606 479.601246 
L 568.869445 479.141256 
L 569.523284 479.528335 
L 570.177123 479.71354 
L 571.484801 479.500937 
L 572.13864 479.976104 
L 572.792479 479.877832 
L 573.446317 479.552526 
L 574.753995 480.182261 
L 575.407834 479.5408 
L 576.061673 479.461332 
L 578.02319 479.731286 
L 578.677029 479.876059 
L 579.330867 479.821337 
L 579.984706 479.452877 
L 580.638545 479.813128 
L 581.292384 480.008766 
L 581.946223 480.041401 
L 582.600062 479.37587 
L 583.253901 479.905839 
L 583.90774 479.797064 
L 584.561578 479.941495 
L 585.869256 479.639194 
L 587.176934 480.188071 
L 587.830773 479.560126 
L 588.484612 480.290101 
L 589.138451 479.637379 
L 589.79229 480.024473 
L 590.446128 479.712296 
L 591.753806 480.295661 
L 592.407645 480.195413 
L 593.061484 479.450961 
L 593.715323 480.193589 
L 594.369162 480.226894 
L 595.023001 479.735353 
L 595.67684 480.231021 
L 596.330678 479.700269 
L 596.984517 479.592745 
L 597.638356 479.761476 
L 598.292195 480.468867 
L 598.946034 480.061405 
L 599.599873 480.04561 
L 600.253712 480.250534 
L 600.907551 479.896615 
L 601.56139 480.532841 
L 602.215228 480.111669 
L 602.869067 479.89476 
L 603.522906 480.175731 
L 604.176745 479.754733 
L 604.830584 480.345127 
L 605.484423 479.991602 
L 606.138262 480.199268 
L 606.792101 479.967295 
L 607.44594 480.380018 
L 608.099778 480.591406 
L 608.753617 480.45213 
L 609.407456 479.497002 
L 610.061295 480.2896 
L 610.715134 480.216494 
L 611.368973 480.422032 
L 612.022812 479.993987 
L 612.676651 480.366571 
L 613.33049 480.416959 
L 613.984328 479.858328 
L 614.638167 479.845312 
L 615.292006 479.984482 
L 615.945845 480.455448 
L 617.253523 480.220777 
L 617.907362 480.336226 
L 618.561201 480.156117 
L 619.215039 480.179118 
L 619.868878 480.529185 
L 620.522717 479.971669 
L 621.176556 480.305548 
L 621.830395 480.276472 
L 622.484234 480.388443 
L 623.791912 480.29578 
L 624.445751 480.658333 
L 625.099589 480.121907 
L 625.753428 480.335163 
L 626.407267 480.326302 
L 627.061106 480.033053 
L 627.714945 480.18021 
L 628.368784 480.76592 
L 629.022623 480.325059 
L 629.676462 480.444816 
L 630.330301 480.774371 
L 632.291817 480.329485 
L 632.945656 480.277491 
L 633.599495 480.007098 
L 634.253334 480.606116 
L 634.907173 480.247629 
L 635.561012 480.399057 
L 636.868689 480.150795 
L 637.522528 480.122748 
L 638.176367 480.405577 
L 638.830206 480.298078 
L 639.484045 480.471937 
L 640.137884 480.513139 
L 640.791723 480.229818 
L 642.099401 480.292144 
L 642.753239 480.464289 
L 643.407078 480.038652 
L 644.060917 480.074956 
L 644.714756 480.308486 
L 645.368595 480.750019 
L 646.676273 480.355311 
L 647.330112 480.552877 
L 647.983951 480.447051 
L 648.637789 480.938896 
L 649.291628 480.407551 
L 649.945467 480.55745 
L 650.599306 480.467015 
L 651.253145 480.00375 
L 651.906984 480.568613 
L 652.560823 480.366004 
L 653.214662 480.7252 
L 653.8685 480.314084 
L 654.522339 480.579378 
L 655.176178 481.004271 
L 655.830017 480.394307 
L 656.483856 480.553835 
L 657.137695 481.1925 
L 657.791534 480.600591 
L 658.445373 480.250234 
L 659.099212 480.64926 
L 659.75305 480.465032 
L 660.406889 481.003011 
L 661.060728 480.26585 
L 661.714567 480.679261 
L 663.022245 480.298927 
L 663.676084 480.16262 
L 664.329923 480.218872 
L 664.983762 480.979282 
L 665.6376 480.383845 
L 666.291439 480.222134 
L 666.945278 480.265541 
L 667.599117 480.656598 
L 668.252956 480.147386 
L 668.906795 480.15211 
L 669.560634 480.844697 
L 670.214473 480.952072 
L 670.868312 480.445288 
L 671.52215 480.469601 
L 672.175989 480.616235 
L 672.829828 480.482203 
L 673.483667 480.689588 
L 674.137506 480.745346 
L 674.791345 480.447762 
L 675.445184 480.725795 
L 676.099023 480.438796 
L 676.752862 480.461903 
L 677.4067 480.738147 
L 678.060539 480.863351 
L 678.714378 480.658312 
L 679.368217 480.62598 
L 680.022056 480.772645 
L 680.675895 480.623414 
L 681.329734 479.923259 
L 681.983573 480.542345 
L 682.637412 480.779705 
L 683.29125 480.663419 
L 683.945089 480.716691 
L 684.598928 481.121413 
L 685.252767 480.867719 
L 685.906606 480.33637 
L 686.560445 480.791952 
L 687.868123 480.790293 
L 689.1758 480.794715 
L 689.829639 480.475568 
L 690.483478 480.646486 
L 691.137317 480.385429 
L 691.791156 480.606355 
L 692.444995 480.083869 
L 693.098834 480.883794 
L 693.752673 480.183856 
L 694.406511 480.710653 
L 695.06035 480.315166 
L 695.714189 480.668278 
L 697.675706 479.905497 
L 698.983384 479.9809 
L 699.637223 479.73569 
L 700.291061 479.69455 
L 700.9449 480.038575 
L 701.598739 479.866655 
L 702.252578 479.335754 
L 702.906417 479.810436 
L 703.560256 479.861099 
L 704.214095 479.693618 
L 704.867934 479.921103 
L 707.483289 431.530676 
L 708.137128 466.611374 
L 708.790967 471.85482 
L 709.444806 476.094211 
L 710.098645 474.236022 
L 710.752484 476.747015 
L 711.406323 477.088527 
L 712.060161 478.5868 
L 712.714 478.672235 
L 713.367839 478.451569 
L 714.021678 478.951935 
L 714.675517 478.803551 
L 715.329356 478.79088 
L 715.983195 479.012516 
L 716.637034 479.70358 
L 717.290872 479.039028 
L 717.944711 478.976663 
L 718.59855 478.592553 
L 719.252389 479.166412 
L 719.906228 478.92726 
L 720.560067 479.489593 
L 721.213906 479.110176 
L 721.867745 478.898345 
L 722.521584 479.608366 
L 723.175422 478.316295 
L 723.829261 479.009088 
L 723.829261 479.009088 
" clip-path="url(#p522b3669fb)" style="fill: none; stroke: #ac2b37; stroke-width: 1.5; stroke-linecap: square"/>
   </g>
   <g id="patch_3">
    <path d="M 84.665625 501.3525 
L 84.665625 57.8325 
" style="fill: none; stroke: #000000; stroke-width: 0.8; stroke-linejoin: miter; stroke-linecap: square"/>
   </g>
   <g id="patch_4">
    <path d="M 754.265625 501.3525 
L 754.265625 57.8325 
" style="fill: none; stroke: #000000; stroke-width: 0.8; stroke-linejoin: miter; stroke-linecap: square"/>
   </g>
   <g id="patch_5">
    <path d="M 84.665625 501.3525 
L 754.265625 501.3525 
" style="fill: none; stroke: #000000; stroke-width: 0.8; stroke-linejoin: miter; stroke-linecap: square"/>
   </g>
   <g id="patch_6">
    <path d="M 84.665625 57.8325 
L 754.265625 57.8325 
" style="fill: none; stroke: #000000; stroke-width: 0.8; stroke-linejoin: miter; stroke-linecap: square"/>
   </g>
   <g id="text_18">
    <!-- Efficiency vs Time -->
    <g transform="translate(332.95875 51.8325) scale(0.24 -0.24)">
     <defs>
      <path id="AptosDisplay-76" d="M 1103 0 
L -13 3044 
L 538 3044 
L 1391 513 
L 2250 3044 
L 2781 3044 
L 1678 0 
L 1103 0 
z
" transform="scale(0.015625)"/>
      <path id="AptosDisplay-73" d="M 1506 -41 
Q 1247 -41 1017 14 
Q 788 69 613 191 
Q 438 313 339 506 
Q 241 700 241 978 
L 744 978 
Q 744 628 966 487 
Q 1188 347 1519 347 
Q 1816 347 2008 458 
Q 2200 569 2200 822 
Q 2200 1047 2026 1153 
Q 1853 1259 1413 1369 
Q 1056 1453 815 1564 
Q 575 1675 453 1845 
Q 331 2016 331 2275 
Q 331 2475 417 2626 
Q 503 2778 658 2879 
Q 813 2981 1020 3032 
Q 1228 3084 1472 3084 
Q 1713 3084 1923 3028 
Q 2134 2972 2296 2855 
Q 2459 2738 2551 2552 
Q 2644 2366 2644 2109 
L 2138 2109 
Q 2138 2425 1945 2558 
Q 1753 2691 1472 2691 
Q 1191 2691 1016 2594 
Q 841 2497 841 2291 
Q 841 2169 919 2084 
Q 997 2000 1181 1933 
Q 1366 1866 1675 1791 
Q 2019 1709 2248 1596 
Q 2478 1484 2595 1306 
Q 2713 1128 2713 847 
Q 2713 616 2622 447 
Q 2531 278 2367 170 
Q 2203 63 1983 11 
Q 1763 -41 1506 -41 
z
" transform="scale(0.015625)"/>
     </defs>
     <use xlink:href="#AptosDisplay-45"/>
     <use xlink:href="#AptosDisplay-66" x="54.052734"/>
     <use xlink:href="#AptosDisplay-66" x="82.373047"/>
     <use xlink:href="#AptosDisplay-69" x="110.693359"/>
     <use xlink:href="#AptosDisplay-63" x="131.738281"/>
     <use xlink:href="#AptosDisplay-69" x="181.005859"/>
     <use xlink:href="#AptosDisplay-65" x="202.050781"/>
     <use xlink:href="#AptosDisplay-6e" x="251.464844"/>
     <use xlink:href="#AptosDisplay-63" x="302.050781"/>
     <use xlink:href="#AptosDisplay-79" x="351.318359"/>
     <use xlink:href="#AptosDisplay-20" x="394.580078"/>
     <use xlink:href="#AptosDisplay-76" x="413.867188"/>
     <use xlink:href="#AptosDisplay-73" x="457.128906"/>
     <use xlink:href="#AptosDisplay-20" x="503.417969"/>
     <use xlink:href="#AptosDisplay-54" x="522.705078"/>
     <use xlink:href="#AptosDisplay-69" x="570.410156"/>
     <use xlink:href="#AptosDisplay-6d" x="591.455078"/>
     <use xlink:href="#AptosDisplay-65" x="671.435547"/>
    </g>
   </g>
  </g>
 </g>
 <defs>
  <clipPath id="p522b3669fb">
   <rect x="84.665625" y="57.8325" width="669.6" height="443.52"/>
  </clipPath>
 </defs>
</svg>
