<?xml version="1.0" encoding="utf-8" standalone="no"?>
<!DOCTYPE svg PUBLIC "-//W3C//DTD SVG 1.1//EN"
  "http://www.w3.org/Graphics/SVG/1.1/DTD/svg11.dtd">
<svg xmlns:xlink="http://www.w3.org/1999/xlink" width="800.88125pt" height="581.830625pt" viewBox="0 0 800.88125 581.830625" xmlns="http://www.w3.org/2000/svg" version="1.1">
 <metadata>
  <rdf:RDF xmlns:dc="http://purl.org/dc/elements/1.1/" xmlns:cc="http://creativecommons.org/ns#" xmlns:rdf="http://www.w3.org/1999/02/22-rdf-syntax-ns#">
   <cc:Work>
    <dc:type rdf:resource="http://purl.org/dc/dcmitype/StillImage"/>
    <dc:date>2025-04-03T01:48:25.213348</dc:date>
    <dc:format>image/svg+xml</dc:format>
    <dc:creator>
     <cc:Agent>
      <dc:title>Matplotlib v3.8.2, https://matplotlib.org/</dc:title>
     </cc:Agent>
    </dc:creator>
   </cc:Work>
  </rdf:RDF>
 </metadata>
 <defs>
  <style type="text/css">*{stroke-linejoin: round; stroke-linecap: butt}</style>
 </defs>
 <g id="figure_1">
  <g id="patch_1">
   <path d="M 0 581.830625 
L 800.88125 581.830625 
L 800.88125 0 
L 0 0 
z
" style="fill: #ffffff"/>
  </g>
  <g id="axes_1">
   <g id="patch_2">
    <path d="M 95.28125 501.3525 
L 764.88125 501.3525 
L 764.88125 57.8325 
L 95.28125 57.8325 
z
" style="fill: #ffffff"/>
   </g>
   <g id="matplotlib.axis_1">
    <g id="xtick_1">
     <g id="line2d_1">
      <path d="M 125.024544 501.3525 
L 125.024544 57.8325 
" clip-path="url(#p3fb2eea93b)" style="fill: none; stroke: #b0b0b0; stroke-opacity: 0.8; stroke-linecap: square"/>
     </g>
     <g id="line2d_2">
      <defs>
       <path id="mc7ef42fa2c" d="M 0 0 
L 0 3.5 
" style="stroke: #000000; stroke-width: 0.8"/>
      </defs>
      <g>
       <use xlink:href="#mc7ef42fa2c" x="125.024544" y="501.3525" style="stroke: #000000; stroke-width: 0.8"/>
      </g>
     </g>
     <g id="text_1">
      <!-- 0 -->
      <g transform="translate(119.794857 521.49625) scale(0.2 -0.2)">
       <defs>
        <path id="AptosDisplay-30" d="M 1672 -56 
Q 1291 -56 1028 105 
Q 766 266 605 552 
Q 444 838 372 1216 
Q 300 1594 300 2031 
Q 300 2475 372 2856 
Q 444 3238 605 3525 
Q 766 3813 1028 3973 
Q 1291 4134 1672 4134 
Q 2053 4134 2317 3975 
Q 2581 3816 2742 3527 
Q 2903 3238 2975 2858 
Q 3047 2478 3047 2038 
Q 3047 1597 2975 1217 
Q 2903 838 2742 552 
Q 2581 266 2318 105 
Q 2056 -56 1672 -56 
z
M 1672 409 
Q 1916 409 2073 550 
Q 2231 691 2322 925 
Q 2413 1159 2448 1448 
Q 2484 1738 2484 2038 
Q 2484 2338 2448 2628 
Q 2413 2919 2322 3153 
Q 2231 3388 2073 3527 
Q 1916 3666 1669 3666 
Q 1428 3666 1268 3527 
Q 1109 3388 1020 3153 
Q 931 2919 893 2628 
Q 856 2338 856 2038 
Q 856 1741 893 1450 
Q 931 1159 1020 925 
Q 1109 691 1268 550 
Q 1428 409 1672 409 
z
" transform="scale(0.015625)"/>
       </defs>
       <use xlink:href="#AptosDisplay-30"/>
      </g>
     </g>
    </g>
    <g id="xtick_2">
     <g id="line2d_3">
      <path d="M 206.754405 501.3525 
L 206.754405 57.8325 
" clip-path="url(#p3fb2eea93b)" style="fill: none; stroke: #b0b0b0; stroke-opacity: 0.8; stroke-linecap: square"/>
     </g>
     <g id="line2d_4">
      <g>
       <use xlink:href="#mc7ef42fa2c" x="206.754405" y="501.3525" style="stroke: #000000; stroke-width: 0.8"/>
      </g>
     </g>
     <g id="text_2">
      <!-- 25 -->
      <g transform="translate(196.29503 521.49625) scale(0.2 -0.2)">
       <defs>
        <path id="AptosDisplay-32" d="M 247 0 
L 247 413 
L 1725 1741 
Q 2100 2081 2269 2351 
Q 2438 2622 2438 2938 
Q 2438 3256 2263 3461 
Q 2088 3666 1691 3666 
Q 1247 3666 1055 3439 
Q 863 3213 863 2869 
L 341 2869 
Q 341 3250 491 3534 
Q 641 3819 941 3975 
Q 1241 4131 1691 4131 
Q 2103 4131 2390 3986 
Q 2678 3841 2828 3578 
Q 2978 3316 2978 2959 
Q 2978 2638 2853 2375 
Q 2728 2113 2517 1883 
Q 2306 1653 2044 1425 
L 959 463 
L 3097 463 
L 3097 0 
L 247 0 
z
" transform="scale(0.015625)"/>
        <path id="AptosDisplay-35" d="M 1669 -56 
Q 1278 -56 964 83 
Q 650 222 465 483 
Q 281 744 281 1113 
L 816 1113 
Q 816 778 1055 584 
Q 1294 391 1669 391 
Q 2069 391 2291 625 
Q 2513 859 2513 1319 
Q 2513 1772 2291 1989 
Q 2069 2206 1697 2206 
Q 1409 2206 1223 2123 
Q 1038 2041 916 1894 
L 444 1894 
L 622 4078 
L 2788 4078 
L 2788 3613 
L 1041 3613 
L 931 2322 
Q 1044 2453 1251 2550 
Q 1459 2647 1775 2647 
Q 2131 2647 2420 2506 
Q 2709 2366 2881 2072 
Q 3053 1778 3053 1319 
Q 3053 863 2875 558 
Q 2697 253 2384 98 
Q 2072 -56 1669 -56 
z
" transform="scale(0.015625)"/>
       </defs>
       <use xlink:href="#AptosDisplay-32"/>
       <use xlink:href="#AptosDisplay-35" x="52.294922"/>
      </g>
     </g>
    </g>
    <g id="xtick_3">
     <g id="line2d_5">
      <path d="M 288.484266 501.3525 
L 288.484266 57.8325 
" clip-path="url(#p3fb2eea93b)" style="fill: none; stroke: #b0b0b0; stroke-opacity: 0.8; stroke-linecap: square"/>
     </g>
     <g id="line2d_6">
      <g>
       <use xlink:href="#mc7ef42fa2c" x="288.484266" y="501.3525" style="stroke: #000000; stroke-width: 0.8"/>
      </g>
     </g>
     <g id="text_3">
      <!-- 50 -->
      <g transform="translate(278.024891 521.49625) scale(0.2 -0.2)">
       <use xlink:href="#AptosDisplay-35"/>
       <use xlink:href="#AptosDisplay-30" x="52.294922"/>
      </g>
     </g>
    </g>
    <g id="xtick_4">
     <g id="line2d_7">
      <path d="M 370.214127 501.3525 
L 370.214127 57.8325 
" clip-path="url(#p3fb2eea93b)" style="fill: none; stroke: #b0b0b0; stroke-opacity: 0.8; stroke-linecap: square"/>
     </g>
     <g id="line2d_8">
      <g>
       <use xlink:href="#mc7ef42fa2c" x="370.214127" y="501.3525" style="stroke: #000000; stroke-width: 0.8"/>
      </g>
     </g>
     <g id="text_4">
      <!-- 75 -->
      <g transform="translate(359.754752 521.49625) scale(0.2 -0.2)">
       <defs>
        <path id="AptosDisplay-37" d="M 766 0 
L 2609 3600 
L 194 3600 
L 194 4078 
L 3141 4078 
L 3141 3622 
L 1334 0 
L 766 0 
z
" transform="scale(0.015625)"/>
       </defs>
       <use xlink:href="#AptosDisplay-37"/>
       <use xlink:href="#AptosDisplay-35" x="52.294922"/>
      </g>
     </g>
    </g>
    <g id="xtick_5">
     <g id="line2d_9">
      <path d="M 451.943988 501.3525 
L 451.943988 57.8325 
" clip-path="url(#p3fb2eea93b)" style="fill: none; stroke: #b0b0b0; stroke-opacity: 0.8; stroke-linecap: square"/>
     </g>
     <g id="line2d_10">
      <g>
       <use xlink:href="#mc7ef42fa2c" x="451.943988" y="501.3525" style="stroke: #000000; stroke-width: 0.8"/>
      </g>
     </g>
     <g id="text_5">
      <!-- 100 -->
      <g transform="translate(436.254925 521.49625) scale(0.2 -0.2)">
       <defs>
        <path id="AptosDisplay-31" d="M 1659 0 
L 1659 3425 
Q 1575 3309 1420 3201 
Q 1266 3094 1052 3009 
Q 838 2925 578 2888 
L 578 3381 
Q 834 3425 1057 3540 
Q 1281 3656 1453 3806 
Q 1625 3956 1719 4094 
L 2206 4094 
L 2206 0 
L 1659 0 
z
" transform="scale(0.015625)"/>
       </defs>
       <use xlink:href="#AptosDisplay-31"/>
       <use xlink:href="#AptosDisplay-30" x="52.294922"/>
       <use xlink:href="#AptosDisplay-30" x="104.589844"/>
      </g>
     </g>
    </g>
    <g id="xtick_6">
     <g id="line2d_11">
      <path d="M 533.673849 501.3525 
L 533.673849 57.8325 
" clip-path="url(#p3fb2eea93b)" style="fill: none; stroke: #b0b0b0; stroke-opacity: 0.8; stroke-linecap: square"/>
     </g>
     <g id="line2d_12">
      <g>
       <use xlink:href="#mc7ef42fa2c" x="533.673849" y="501.3525" style="stroke: #000000; stroke-width: 0.8"/>
      </g>
     </g>
     <g id="text_6">
      <!-- 125 -->
      <g transform="translate(517.984786 521.49625) scale(0.2 -0.2)">
       <use xlink:href="#AptosDisplay-31"/>
       <use xlink:href="#AptosDisplay-32" x="52.294922"/>
       <use xlink:href="#AptosDisplay-35" x="104.589844"/>
      </g>
     </g>
    </g>
    <g id="xtick_7">
     <g id="line2d_13">
      <path d="M 615.403709 501.3525 
L 615.403709 57.8325 
" clip-path="url(#p3fb2eea93b)" style="fill: none; stroke: #b0b0b0; stroke-opacity: 0.8; stroke-linecap: square"/>
     </g>
     <g id="line2d_14">
      <g>
       <use xlink:href="#mc7ef42fa2c" x="615.403709" y="501.3525" style="stroke: #000000; stroke-width: 0.8"/>
      </g>
     </g>
     <g id="text_7">
      <!-- 150 -->
      <g transform="translate(599.714647 521.49625) scale(0.2 -0.2)">
       <use xlink:href="#AptosDisplay-31"/>
       <use xlink:href="#AptosDisplay-35" x="52.294922"/>
       <use xlink:href="#AptosDisplay-30" x="104.589844"/>
      </g>
     </g>
    </g>
    <g id="xtick_8">
     <g id="line2d_15">
      <path d="M 697.13357 501.3525 
L 697.13357 57.8325 
" clip-path="url(#p3fb2eea93b)" style="fill: none; stroke: #b0b0b0; stroke-opacity: 0.8; stroke-linecap: square"/>
     </g>
     <g id="line2d_16">
      <g>
       <use xlink:href="#mc7ef42fa2c" x="697.13357" y="501.3525" style="stroke: #000000; stroke-width: 0.8"/>
      </g>
     </g>
     <g id="text_8">
      <!-- 175 -->
      <g transform="translate(681.444508 521.49625) scale(0.2 -0.2)">
       <use xlink:href="#AptosDisplay-31"/>
       <use xlink:href="#AptosDisplay-37" x="52.294922"/>
       <use xlink:href="#AptosDisplay-35" x="104.589844"/>
      </g>
     </g>
    </g>
    <g id="xtick_9">
     <g id="line2d_17">
      <path d="M 108.678572 501.3525 
L 108.678572 57.8325 
" clip-path="url(#p3fb2eea93b)" style="fill: none; stroke-dasharray: 1.85,0.8; stroke-dashoffset: 0; stroke: #b0b0b0; stroke-opacity: 0.8; stroke-width: 0.5"/>
     </g>
     <g id="line2d_18">
      <defs>
       <path id="m1e0efc4699" d="M 0 0 
L 0 2 
" style="stroke: #000000; stroke-width: 0.6"/>
      </defs>
      <g>
       <use xlink:href="#m1e0efc4699" x="108.678572" y="501.3525" style="stroke: #000000; stroke-width: 0.6"/>
      </g>
     </g>
    </g>
    <g id="xtick_10">
     <g id="line2d_19">
      <path d="M 141.370517 501.3525 
L 141.370517 57.8325 
" clip-path="url(#p3fb2eea93b)" style="fill: none; stroke-dasharray: 1.85,0.8; stroke-dashoffset: 0; stroke: #b0b0b0; stroke-opacity: 0.8; stroke-width: 0.5"/>
     </g>
     <g id="line2d_20">
      <g>
       <use xlink:href="#m1e0efc4699" x="141.370517" y="501.3525" style="stroke: #000000; stroke-width: 0.6"/>
      </g>
     </g>
    </g>
    <g id="xtick_11">
     <g id="line2d_21">
      <path d="M 157.716489 501.3525 
L 157.716489 57.8325 
" clip-path="url(#p3fb2eea93b)" style="fill: none; stroke-dasharray: 1.85,0.8; stroke-dashoffset: 0; stroke: #b0b0b0; stroke-opacity: 0.8; stroke-width: 0.5"/>
     </g>
     <g id="line2d_22">
      <g>
       <use xlink:href="#m1e0efc4699" x="157.716489" y="501.3525" style="stroke: #000000; stroke-width: 0.6"/>
      </g>
     </g>
    </g>
    <g id="xtick_12">
     <g id="line2d_23">
      <path d="M 174.062461 501.3525 
L 174.062461 57.8325 
" clip-path="url(#p3fb2eea93b)" style="fill: none; stroke-dasharray: 1.85,0.8; stroke-dashoffset: 0; stroke: #b0b0b0; stroke-opacity: 0.8; stroke-width: 0.5"/>
     </g>
     <g id="line2d_24">
      <g>
       <use xlink:href="#m1e0efc4699" x="174.062461" y="501.3525" style="stroke: #000000; stroke-width: 0.6"/>
      </g>
     </g>
    </g>
    <g id="xtick_13">
     <g id="line2d_25">
      <path d="M 190.408433 501.3525 
L 190.408433 57.8325 
" clip-path="url(#p3fb2eea93b)" style="fill: none; stroke-dasharray: 1.85,0.8; stroke-dashoffset: 0; stroke: #b0b0b0; stroke-opacity: 0.8; stroke-width: 0.5"/>
     </g>
     <g id="line2d_26">
      <g>
       <use xlink:href="#m1e0efc4699" x="190.408433" y="501.3525" style="stroke: #000000; stroke-width: 0.6"/>
      </g>
     </g>
    </g>
    <g id="xtick_14">
     <g id="line2d_27">
      <path d="M 223.100377 501.3525 
L 223.100377 57.8325 
" clip-path="url(#p3fb2eea93b)" style="fill: none; stroke-dasharray: 1.85,0.8; stroke-dashoffset: 0; stroke: #b0b0b0; stroke-opacity: 0.8; stroke-width: 0.5"/>
     </g>
     <g id="line2d_28">
      <g>
       <use xlink:href="#m1e0efc4699" x="223.100377" y="501.3525" style="stroke: #000000; stroke-width: 0.6"/>
      </g>
     </g>
    </g>
    <g id="xtick_15">
     <g id="line2d_29">
      <path d="M 239.44635 501.3525 
L 239.44635 57.8325 
" clip-path="url(#p3fb2eea93b)" style="fill: none; stroke-dasharray: 1.85,0.8; stroke-dashoffset: 0; stroke: #b0b0b0; stroke-opacity: 0.8; stroke-width: 0.5"/>
     </g>
     <g id="line2d_30">
      <g>
       <use xlink:href="#m1e0efc4699" x="239.44635" y="501.3525" style="stroke: #000000; stroke-width: 0.6"/>
      </g>
     </g>
    </g>
    <g id="xtick_16">
     <g id="line2d_31">
      <path d="M 255.792322 501.3525 
L 255.792322 57.8325 
" clip-path="url(#p3fb2eea93b)" style="fill: none; stroke-dasharray: 1.85,0.8; stroke-dashoffset: 0; stroke: #b0b0b0; stroke-opacity: 0.8; stroke-width: 0.5"/>
     </g>
     <g id="line2d_32">
      <g>
       <use xlink:href="#m1e0efc4699" x="255.792322" y="501.3525" style="stroke: #000000; stroke-width: 0.6"/>
      </g>
     </g>
    </g>
    <g id="xtick_17">
     <g id="line2d_33">
      <path d="M 272.138294 501.3525 
L 272.138294 57.8325 
" clip-path="url(#p3fb2eea93b)" style="fill: none; stroke-dasharray: 1.85,0.8; stroke-dashoffset: 0; stroke: #b0b0b0; stroke-opacity: 0.8; stroke-width: 0.5"/>
     </g>
     <g id="line2d_34">
      <g>
       <use xlink:href="#m1e0efc4699" x="272.138294" y="501.3525" style="stroke: #000000; stroke-width: 0.6"/>
      </g>
     </g>
    </g>
    <g id="xtick_18">
     <g id="line2d_35">
      <path d="M 304.830238 501.3525 
L 304.830238 57.8325 
" clip-path="url(#p3fb2eea93b)" style="fill: none; stroke-dasharray: 1.85,0.8; stroke-dashoffset: 0; stroke: #b0b0b0; stroke-opacity: 0.8; stroke-width: 0.5"/>
     </g>
     <g id="line2d_36">
      <g>
       <use xlink:href="#m1e0efc4699" x="304.830238" y="501.3525" style="stroke: #000000; stroke-width: 0.6"/>
      </g>
     </g>
    </g>
    <g id="xtick_19">
     <g id="line2d_37">
      <path d="M 321.17621 501.3525 
L 321.17621 57.8325 
" clip-path="url(#p3fb2eea93b)" style="fill: none; stroke-dasharray: 1.85,0.8; stroke-dashoffset: 0; stroke: #b0b0b0; stroke-opacity: 0.8; stroke-width: 0.5"/>
     </g>
     <g id="line2d_38">
      <g>
       <use xlink:href="#m1e0efc4699" x="321.17621" y="501.3525" style="stroke: #000000; stroke-width: 0.6"/>
      </g>
     </g>
    </g>
    <g id="xtick_20">
     <g id="line2d_39">
      <path d="M 337.522183 501.3525 
L 337.522183 57.8325 
" clip-path="url(#p3fb2eea93b)" style="fill: none; stroke-dasharray: 1.85,0.8; stroke-dashoffset: 0; stroke: #b0b0b0; stroke-opacity: 0.8; stroke-width: 0.5"/>
     </g>
     <g id="line2d_40">
      <g>
       <use xlink:href="#m1e0efc4699" x="337.522183" y="501.3525" style="stroke: #000000; stroke-width: 0.6"/>
      </g>
     </g>
    </g>
    <g id="xtick_21">
     <g id="line2d_41">
      <path d="M 353.868155 501.3525 
L 353.868155 57.8325 
" clip-path="url(#p3fb2eea93b)" style="fill: none; stroke-dasharray: 1.85,0.8; stroke-dashoffset: 0; stroke: #b0b0b0; stroke-opacity: 0.8; stroke-width: 0.5"/>
     </g>
     <g id="line2d_42">
      <g>
       <use xlink:href="#m1e0efc4699" x="353.868155" y="501.3525" style="stroke: #000000; stroke-width: 0.6"/>
      </g>
     </g>
    </g>
    <g id="xtick_22">
     <g id="line2d_43">
      <path d="M 386.560099 501.3525 
L 386.560099 57.8325 
" clip-path="url(#p3fb2eea93b)" style="fill: none; stroke-dasharray: 1.85,0.8; stroke-dashoffset: 0; stroke: #b0b0b0; stroke-opacity: 0.8; stroke-width: 0.5"/>
     </g>
     <g id="line2d_44">
      <g>
       <use xlink:href="#m1e0efc4699" x="386.560099" y="501.3525" style="stroke: #000000; stroke-width: 0.6"/>
      </g>
     </g>
    </g>
    <g id="xtick_23">
     <g id="line2d_45">
      <path d="M 402.906071 501.3525 
L 402.906071 57.8325 
" clip-path="url(#p3fb2eea93b)" style="fill: none; stroke-dasharray: 1.85,0.8; stroke-dashoffset: 0; stroke: #b0b0b0; stroke-opacity: 0.8; stroke-width: 0.5"/>
     </g>
     <g id="line2d_46">
      <g>
       <use xlink:href="#m1e0efc4699" x="402.906071" y="501.3525" style="stroke: #000000; stroke-width: 0.6"/>
      </g>
     </g>
    </g>
    <g id="xtick_24">
     <g id="line2d_47">
      <path d="M 419.252043 501.3525 
L 419.252043 57.8325 
" clip-path="url(#p3fb2eea93b)" style="fill: none; stroke-dasharray: 1.85,0.8; stroke-dashoffset: 0; stroke: #b0b0b0; stroke-opacity: 0.8; stroke-width: 0.5"/>
     </g>
     <g id="line2d_48">
      <g>
       <use xlink:href="#m1e0efc4699" x="419.252043" y="501.3525" style="stroke: #000000; stroke-width: 0.6"/>
      </g>
     </g>
    </g>
    <g id="xtick_25">
     <g id="line2d_49">
      <path d="M 435.598016 501.3525 
L 435.598016 57.8325 
" clip-path="url(#p3fb2eea93b)" style="fill: none; stroke-dasharray: 1.85,0.8; stroke-dashoffset: 0; stroke: #b0b0b0; stroke-opacity: 0.8; stroke-width: 0.5"/>
     </g>
     <g id="line2d_50">
      <g>
       <use xlink:href="#m1e0efc4699" x="435.598016" y="501.3525" style="stroke: #000000; stroke-width: 0.6"/>
      </g>
     </g>
    </g>
    <g id="xtick_26">
     <g id="line2d_51">
      <path d="M 468.28996 501.3525 
L 468.28996 57.8325 
" clip-path="url(#p3fb2eea93b)" style="fill: none; stroke-dasharray: 1.85,0.8; stroke-dashoffset: 0; stroke: #b0b0b0; stroke-opacity: 0.8; stroke-width: 0.5"/>
     </g>
     <g id="line2d_52">
      <g>
       <use xlink:href="#m1e0efc4699" x="468.28996" y="501.3525" style="stroke: #000000; stroke-width: 0.6"/>
      </g>
     </g>
    </g>
    <g id="xtick_27">
     <g id="line2d_53">
      <path d="M 484.635932 501.3525 
L 484.635932 57.8325 
" clip-path="url(#p3fb2eea93b)" style="fill: none; stroke-dasharray: 1.85,0.8; stroke-dashoffset: 0; stroke: #b0b0b0; stroke-opacity: 0.8; stroke-width: 0.5"/>
     </g>
     <g id="line2d_54">
      <g>
       <use xlink:href="#m1e0efc4699" x="484.635932" y="501.3525" style="stroke: #000000; stroke-width: 0.6"/>
      </g>
     </g>
    </g>
    <g id="xtick_28">
     <g id="line2d_55">
      <path d="M 500.981904 501.3525 
L 500.981904 57.8325 
" clip-path="url(#p3fb2eea93b)" style="fill: none; stroke-dasharray: 1.85,0.8; stroke-dashoffset: 0; stroke: #b0b0b0; stroke-opacity: 0.8; stroke-width: 0.5"/>
     </g>
     <g id="line2d_56">
      <g>
       <use xlink:href="#m1e0efc4699" x="500.981904" y="501.3525" style="stroke: #000000; stroke-width: 0.6"/>
      </g>
     </g>
    </g>
    <g id="xtick_29">
     <g id="line2d_57">
      <path d="M 517.327876 501.3525 
L 517.327876 57.8325 
" clip-path="url(#p3fb2eea93b)" style="fill: none; stroke-dasharray: 1.85,0.8; stroke-dashoffset: 0; stroke: #b0b0b0; stroke-opacity: 0.8; stroke-width: 0.5"/>
     </g>
     <g id="line2d_58">
      <g>
       <use xlink:href="#m1e0efc4699" x="517.327876" y="501.3525" style="stroke: #000000; stroke-width: 0.6"/>
      </g>
     </g>
    </g>
    <g id="xtick_30">
     <g id="line2d_59">
      <path d="M 550.019821 501.3525 
L 550.019821 57.8325 
" clip-path="url(#p3fb2eea93b)" style="fill: none; stroke-dasharray: 1.85,0.8; stroke-dashoffset: 0; stroke: #b0b0b0; stroke-opacity: 0.8; stroke-width: 0.5"/>
     </g>
     <g id="line2d_60">
      <g>
       <use xlink:href="#m1e0efc4699" x="550.019821" y="501.3525" style="stroke: #000000; stroke-width: 0.6"/>
      </g>
     </g>
    </g>
    <g id="xtick_31">
     <g id="line2d_61">
      <path d="M 566.365793 501.3525 
L 566.365793 57.8325 
" clip-path="url(#p3fb2eea93b)" style="fill: none; stroke-dasharray: 1.85,0.8; stroke-dashoffset: 0; stroke: #b0b0b0; stroke-opacity: 0.8; stroke-width: 0.5"/>
     </g>
     <g id="line2d_62">
      <g>
       <use xlink:href="#m1e0efc4699" x="566.365793" y="501.3525" style="stroke: #000000; stroke-width: 0.6"/>
      </g>
     </g>
    </g>
    <g id="xtick_32">
     <g id="line2d_63">
      <path d="M 582.711765 501.3525 
L 582.711765 57.8325 
" clip-path="url(#p3fb2eea93b)" style="fill: none; stroke-dasharray: 1.85,0.8; stroke-dashoffset: 0; stroke: #b0b0b0; stroke-opacity: 0.8; stroke-width: 0.5"/>
     </g>
     <g id="line2d_64">
      <g>
       <use xlink:href="#m1e0efc4699" x="582.711765" y="501.3525" style="stroke: #000000; stroke-width: 0.6"/>
      </g>
     </g>
    </g>
    <g id="xtick_33">
     <g id="line2d_65">
      <path d="M 599.057737 501.3525 
L 599.057737 57.8325 
" clip-path="url(#p3fb2eea93b)" style="fill: none; stroke-dasharray: 1.85,0.8; stroke-dashoffset: 0; stroke: #b0b0b0; stroke-opacity: 0.8; stroke-width: 0.5"/>
     </g>
     <g id="line2d_66">
      <g>
       <use xlink:href="#m1e0efc4699" x="599.057737" y="501.3525" style="stroke: #000000; stroke-width: 0.6"/>
      </g>
     </g>
    </g>
    <g id="xtick_34">
     <g id="line2d_67">
      <path d="M 631.749682 501.3525 
L 631.749682 57.8325 
" clip-path="url(#p3fb2eea93b)" style="fill: none; stroke-dasharray: 1.85,0.8; stroke-dashoffset: 0; stroke: #b0b0b0; stroke-opacity: 0.8; stroke-width: 0.5"/>
     </g>
     <g id="line2d_68">
      <g>
       <use xlink:href="#m1e0efc4699" x="631.749682" y="501.3525" style="stroke: #000000; stroke-width: 0.6"/>
      </g>
     </g>
    </g>
    <g id="xtick_35">
     <g id="line2d_69">
      <path d="M 648.095654 501.3525 
L 648.095654 57.8325 
" clip-path="url(#p3fb2eea93b)" style="fill: none; stroke-dasharray: 1.85,0.8; stroke-dashoffset: 0; stroke: #b0b0b0; stroke-opacity: 0.8; stroke-width: 0.5"/>
     </g>
     <g id="line2d_70">
      <g>
       <use xlink:href="#m1e0efc4699" x="648.095654" y="501.3525" style="stroke: #000000; stroke-width: 0.6"/>
      </g>
     </g>
    </g>
    <g id="xtick_36">
     <g id="line2d_71">
      <path d="M 664.441626 501.3525 
L 664.441626 57.8325 
" clip-path="url(#p3fb2eea93b)" style="fill: none; stroke-dasharray: 1.85,0.8; stroke-dashoffset: 0; stroke: #b0b0b0; stroke-opacity: 0.8; stroke-width: 0.5"/>
     </g>
     <g id="line2d_72">
      <g>
       <use xlink:href="#m1e0efc4699" x="664.441626" y="501.3525" style="stroke: #000000; stroke-width: 0.6"/>
      </g>
     </g>
    </g>
    <g id="xtick_37">
     <g id="line2d_73">
      <path d="M 680.787598 501.3525 
L 680.787598 57.8325 
" clip-path="url(#p3fb2eea93b)" style="fill: none; stroke-dasharray: 1.85,0.8; stroke-dashoffset: 0; stroke: #b0b0b0; stroke-opacity: 0.8; stroke-width: 0.5"/>
     </g>
     <g id="line2d_74">
      <g>
       <use xlink:href="#m1e0efc4699" x="680.787598" y="501.3525" style="stroke: #000000; stroke-width: 0.6"/>
      </g>
     </g>
    </g>
    <g id="xtick_38">
     <g id="line2d_75">
      <path d="M 713.479542 501.3525 
L 713.479542 57.8325 
" clip-path="url(#p3fb2eea93b)" style="fill: none; stroke-dasharray: 1.85,0.8; stroke-dashoffset: 0; stroke: #b0b0b0; stroke-opacity: 0.8; stroke-width: 0.5"/>
     </g>
     <g id="line2d_76">
      <g>
       <use xlink:href="#m1e0efc4699" x="713.479542" y="501.3525" style="stroke: #000000; stroke-width: 0.6"/>
      </g>
     </g>
    </g>
    <g id="xtick_39">
     <g id="line2d_77">
      <path d="M 729.825515 501.3525 
L 729.825515 57.8325 
" clip-path="url(#p3fb2eea93b)" style="fill: none; stroke-dasharray: 1.85,0.8; stroke-dashoffset: 0; stroke: #b0b0b0; stroke-opacity: 0.8; stroke-width: 0.5"/>
     </g>
     <g id="line2d_78">
      <g>
       <use xlink:href="#m1e0efc4699" x="729.825515" y="501.3525" style="stroke: #000000; stroke-width: 0.6"/>
      </g>
     </g>
    </g>
    <g id="xtick_40">
     <g id="line2d_79">
      <path d="M 746.171487 501.3525 
L 746.171487 57.8325 
" clip-path="url(#p3fb2eea93b)" style="fill: none; stroke-dasharray: 1.85,0.8; stroke-dashoffset: 0; stroke: #b0b0b0; stroke-opacity: 0.8; stroke-width: 0.5"/>
     </g>
     <g id="line2d_80">
      <g>
       <use xlink:href="#m1e0efc4699" x="746.171487" y="501.3525" style="stroke: #000000; stroke-width: 0.6"/>
      </g>
     </g>
    </g>
    <g id="xtick_41">
     <g id="line2d_81">
      <path d="M 762.517459 501.3525 
L 762.517459 57.8325 
" clip-path="url(#p3fb2eea93b)" style="fill: none; stroke-dasharray: 1.85,0.8; stroke-dashoffset: 0; stroke: #b0b0b0; stroke-opacity: 0.8; stroke-width: 0.5"/>
     </g>
     <g id="line2d_82">
      <g>
       <use xlink:href="#m1e0efc4699" x="762.517459" y="501.3525" style="stroke: #000000; stroke-width: 0.6"/>
      </g>
     </g>
    </g>
    <g id="text_9">
     <!-- Time (S) -->
     <g transform="translate(396.990625 542.305625) scale(0.2 -0.2)">
      <defs>
       <path id="AptosDisplay-54" d="M 1244 0 
L 1244 3734 
L 50 3734 
L 50 4206 
L 2997 4206 
L 2997 3734 
L 1806 3734 
L 1806 0 
L 1244 0 
z
" transform="scale(0.015625)"/>
       <path id="AptosDisplay-69" d="M 413 0 
L 413 3044 
L 934 3044 
L 934 0 
L 413 0 
z
M 675 3616 
Q 525 3616 437 3702 
Q 350 3788 350 3919 
Q 350 4050 437 4136 
Q 525 4222 675 4222 
Q 822 4222 912 4136 
Q 1003 4050 1003 3919 
Q 1003 3788 912 3702 
Q 822 3616 675 3616 
z
" transform="scale(0.015625)"/>
       <path id="AptosDisplay-6d" d="M 413 0 
L 413 3044 
L 919 3044 
L 931 2575 
Q 1063 2756 1303 2914 
Q 1544 3072 1903 3072 
Q 2403 3072 2618 2778 
Q 2834 2484 2834 1963 
L 2834 0 
L 2316 0 
L 2316 1891 
Q 2316 2106 2275 2275 
Q 2234 2444 2120 2539 
Q 2006 2634 1788 2634 
Q 1488 2634 1277 2482 
Q 1066 2331 934 2156 
L 934 0 
L 413 0 
z
M 4206 0 
L 4206 1891 
Q 4206 2106 4164 2275 
Q 4122 2444 4009 2539 
Q 3897 2634 3681 2634 
Q 3381 2634 3165 2484 
Q 2950 2334 2822 2159 
L 2744 2544 
Q 2916 2741 3175 2906 
Q 3434 3072 3800 3072 
Q 4291 3072 4509 2778 
Q 4728 2484 4728 1963 
L 4728 0 
L 4206 0 
z
" transform="scale(0.015625)"/>
       <path id="AptosDisplay-65" d="M 1663 -56 
Q 1188 -56 878 151 
Q 569 359 417 717 
Q 266 1075 266 1522 
Q 266 1988 412 2342 
Q 559 2697 857 2897 
Q 1156 3097 1606 3097 
Q 2209 3097 2550 2722 
Q 2891 2347 2891 1644 
Q 2891 1597 2889 1533 
Q 2888 1469 2881 1441 
L 791 1441 
Q 794 1144 881 895 
Q 969 647 1161 497 
Q 1353 347 1663 347 
Q 1997 347 2183 511 
Q 2369 675 2378 984 
L 2894 984 
Q 2884 663 2732 430 
Q 2581 197 2309 70 
Q 2038 -56 1663 -56 
z
M 794 1822 
L 2375 1822 
Q 2366 2247 2166 2472 
Q 1966 2697 1606 2697 
Q 1241 2697 1036 2473 
Q 831 2250 794 1822 
z
" transform="scale(0.015625)"/>
       <path id="AptosDisplay-20" transform="scale(0.015625)"/>
       <path id="AptosDisplay-28" d="M 1219 -1116 
Q 969 -678 787 -267 
Q 606 144 511 581 
Q 416 1019 416 1528 
Q 416 2028 509 2486 
Q 603 2944 783 3378 
Q 963 3813 1219 4231 
L 1647 4231 
Q 1278 3600 1101 2886 
Q 925 2172 925 1428 
Q 925 766 1125 103 
Q 1325 -559 1647 -1116 
L 1219 -1116 
z
" transform="scale(0.015625)"/>
       <path id="AptosDisplay-53" d="M 1778 -56 
Q 1328 -56 962 81 
Q 597 219 384 512 
Q 172 806 172 1275 
L 734 1275 
Q 738 941 883 750 
Q 1028 559 1267 481 
Q 1506 403 1794 403 
Q 2063 403 2283 483 
Q 2503 563 2634 723 
Q 2766 884 2766 1134 
Q 2766 1356 2662 1497 
Q 2559 1638 2321 1742 
Q 2084 1847 1678 1950 
Q 1203 2075 897 2223 
Q 591 2372 442 2594 
Q 294 2816 294 3156 
Q 294 3516 462 3761 
Q 631 4006 945 4134 
Q 1259 4263 1697 4263 
Q 2103 4263 2440 4131 
Q 2778 4000 2979 3737 
Q 3181 3475 3181 3084 
L 2616 3084 
Q 2622 3441 2356 3623 
Q 2091 3806 1700 3806 
Q 1300 3806 1073 3645 
Q 847 3484 847 3175 
Q 847 2991 944 2867 
Q 1041 2744 1280 2644 
Q 1519 2544 1941 2434 
Q 2428 2303 2731 2153 
Q 3034 2003 3178 1768 
Q 3322 1534 3322 1153 
Q 3322 747 3117 480 
Q 2913 213 2564 78 
Q 2216 -56 1778 -56 
z
" transform="scale(0.015625)"/>
       <path id="AptosDisplay-29" d="M 234 -1116 
Q 609 -481 786 233 
Q 963 947 963 1694 
Q 963 2356 759 3015 
Q 556 3675 234 4231 
L 663 4231 
Q 919 3800 1098 3389 
Q 1278 2978 1373 2540 
Q 1469 2103 1469 1594 
Q 1469 1094 1375 634 
Q 1281 175 1100 -259 
Q 919 -694 663 -1116 
L 234 -1116 
z
" transform="scale(0.015625)"/>
      </defs>
      <use xlink:href="#AptosDisplay-54"/>
      <use xlink:href="#AptosDisplay-69" x="47.705078"/>
      <use xlink:href="#AptosDisplay-6d" x="68.75"/>
      <use xlink:href="#AptosDisplay-65" x="148.730469"/>
      <use xlink:href="#AptosDisplay-20" x="198.144531"/>
      <use xlink:href="#AptosDisplay-28" x="217.431641"/>
      <use xlink:href="#AptosDisplay-53" x="246.875"/>
      <use xlink:href="#AptosDisplay-29" x="301.464844"/>
     </g>
    </g>
   </g>
   <g id="matplotlib.axis_2">
    <g id="ytick_1">
     <g id="line2d_83">
      <path d="M 95.28125 421.48265 
L 764.88125 421.48265 
" clip-path="url(#p3fb2eea93b)" style="fill: none; stroke: #b0b0b0; stroke-opacity: 0.8; stroke-linecap: square"/>
     </g>
     <g id="line2d_84">
      <defs>
       <path id="m238ecad473" d="M 0 0 
L -3.5 0 
" style="stroke: #000000; stroke-width: 0.8"/>
      </defs>
      <g>
       <use xlink:href="#m238ecad473" x="95.28125" y="421.48265" style="stroke: #000000; stroke-width: 0.8"/>
      </g>
     </g>
     <g id="text_10">
      <!-- 200 -->
      <g transform="translate(56.903125 428.054525) scale(0.2 -0.2)">
       <use xlink:href="#AptosDisplay-32"/>
       <use xlink:href="#AptosDisplay-30" x="52.294922"/>
       <use xlink:href="#AptosDisplay-30" x="104.589844"/>
      </g>
     </g>
    </g>
    <g id="ytick_2">
     <g id="line2d_85">
      <path d="M 95.28125 327.96683 
L 764.88125 327.96683 
" clip-path="url(#p3fb2eea93b)" style="fill: none; stroke: #b0b0b0; stroke-opacity: 0.8; stroke-linecap: square"/>
     </g>
     <g id="line2d_86">
      <g>
       <use xlink:href="#m238ecad473" x="95.28125" y="327.96683" style="stroke: #000000; stroke-width: 0.8"/>
      </g>
     </g>
     <g id="text_11">
      <!-- 400 -->
      <g transform="translate(56.903125 334.538705) scale(0.2 -0.2)">
       <defs>
        <path id="AptosDisplay-34" d="M 2106 0 
L 2106 825 
L 125 825 
L 125 1297 
L 2100 4103 
L 2631 4103 
L 2631 1284 
L 3191 1284 
L 3191 825 
L 2631 825 
L 2631 0 
L 2106 0 
z
M 638 1284 
L 2113 1284 
L 2113 3369 
L 638 1284 
z
" transform="scale(0.015625)"/>
       </defs>
       <use xlink:href="#AptosDisplay-34"/>
       <use xlink:href="#AptosDisplay-30" x="52.294922"/>
       <use xlink:href="#AptosDisplay-30" x="104.589844"/>
      </g>
     </g>
    </g>
    <g id="ytick_3">
     <g id="line2d_87">
      <path d="M 95.28125 234.451011 
L 764.88125 234.451011 
" clip-path="url(#p3fb2eea93b)" style="fill: none; stroke: #b0b0b0; stroke-opacity: 0.8; stroke-linecap: square"/>
     </g>
     <g id="line2d_88">
      <g>
       <use xlink:href="#m238ecad473" x="95.28125" y="234.451011" style="stroke: #000000; stroke-width: 0.8"/>
      </g>
     </g>
     <g id="text_12">
      <!-- 600 -->
      <g transform="translate(56.903125 241.022886) scale(0.2 -0.2)">
       <defs>
        <path id="AptosDisplay-36" d="M 1759 -56 
Q 1325 -56 984 151 
Q 644 359 447 815 
Q 250 1272 250 2013 
Q 250 2738 439 3206 
Q 628 3675 968 3903 
Q 1309 4131 1759 4131 
Q 2253 4131 2595 3875 
Q 2938 3619 3034 3097 
L 2503 3097 
Q 2441 3388 2250 3534 
Q 2059 3681 1759 3681 
Q 1306 3681 1047 3279 
Q 788 2878 788 2013 
L 788 1850 
Q 788 1313 922 992 
Q 1056 672 1279 531 
Q 1503 391 1763 391 
Q 2175 391 2369 644 
Q 2563 897 2563 1272 
Q 2563 1650 2373 1869 
Q 2184 2088 1838 2088 
Q 1422 2088 1114 1897 
Q 806 1706 644 1456 
L 597 1856 
Q 728 2047 922 2201 
Q 1116 2356 1362 2447 
Q 1609 2538 1909 2538 
Q 2253 2538 2523 2395 
Q 2794 2253 2951 1975 
Q 3109 1697 3109 1291 
Q 3109 897 2951 592 
Q 2794 288 2492 116 
Q 2191 -56 1759 -56 
z
" transform="scale(0.015625)"/>
       </defs>
       <use xlink:href="#AptosDisplay-36"/>
       <use xlink:href="#AptosDisplay-30" x="52.294922"/>
       <use xlink:href="#AptosDisplay-30" x="104.589844"/>
      </g>
     </g>
    </g>
    <g id="ytick_4">
     <g id="line2d_89">
      <path d="M 95.28125 140.935192 
L 764.88125 140.935192 
" clip-path="url(#p3fb2eea93b)" style="fill: none; stroke: #b0b0b0; stroke-opacity: 0.8; stroke-linecap: square"/>
     </g>
     <g id="line2d_90">
      <g>
       <use xlink:href="#m238ecad473" x="95.28125" y="140.935192" style="stroke: #000000; stroke-width: 0.8"/>
      </g>
     </g>
     <g id="text_13">
      <!-- 800 -->
      <g transform="translate(56.903125 147.507067) scale(0.2 -0.2)">
       <defs>
        <path id="AptosDisplay-38" d="M 1675 -56 
Q 1391 -56 1137 16 
Q 884 88 686 234 
Q 488 381 373 606 
Q 259 831 259 1141 
Q 259 1531 495 1797 
Q 731 2063 1084 2150 
Q 781 2250 604 2490 
Q 428 2731 428 3081 
Q 428 3447 609 3681 
Q 791 3916 1075 4025 
Q 1359 4134 1669 4134 
Q 1981 4134 2265 4023 
Q 2550 3913 2733 3680 
Q 2916 3447 2916 3081 
Q 2916 2725 2716 2481 
Q 2516 2238 2238 2150 
Q 2606 2063 2843 1800 
Q 3081 1538 3081 1141 
Q 3081 831 2968 606 
Q 2856 381 2661 234 
Q 2466 88 2211 16 
Q 1956 -56 1675 -56 
z
M 1672 388 
Q 1909 388 2109 470 
Q 2309 553 2429 725 
Q 2550 897 2550 1163 
Q 2550 1416 2426 1587 
Q 2303 1759 2104 1846 
Q 1906 1934 1672 1928 
Q 1453 1934 1253 1850 
Q 1053 1766 926 1594 
Q 800 1422 800 1163 
Q 800 775 1058 581 
Q 1316 388 1672 388 
z
M 1672 2363 
Q 1863 2356 2030 2434 
Q 2197 2513 2300 2667 
Q 2403 2822 2403 3050 
Q 2403 3388 2189 3544 
Q 1975 3700 1675 3700 
Q 1484 3700 1317 3631 
Q 1150 3563 1047 3419 
Q 944 3275 944 3050 
Q 944 2825 1048 2670 
Q 1153 2516 1320 2436 
Q 1488 2356 1672 2363 
z
" transform="scale(0.015625)"/>
       </defs>
       <use xlink:href="#AptosDisplay-38"/>
       <use xlink:href="#AptosDisplay-30" x="52.294922"/>
       <use xlink:href="#AptosDisplay-30" x="104.589844"/>
      </g>
     </g>
    </g>
    <g id="ytick_5">
     <g id="line2d_91">
      <path d="M 95.28125 491.619514 
L 764.88125 491.619514 
" clip-path="url(#p3fb2eea93b)" style="fill: none; stroke-dasharray: 1.85,0.8; stroke-dashoffset: 0; stroke: #b0b0b0; stroke-opacity: 0.8; stroke-width: 0.5"/>
     </g>
     <g id="line2d_92">
      <defs>
       <path id="m519a960cf2" d="M 0 0 
L -2 0 
" style="stroke: #000000; stroke-width: 0.6"/>
      </defs>
      <g>
       <use xlink:href="#m519a960cf2" x="95.28125" y="491.619514" style="stroke: #000000; stroke-width: 0.6"/>
      </g>
     </g>
    </g>
    <g id="ytick_6">
     <g id="line2d_93">
      <path d="M 95.28125 468.240559 
L 764.88125 468.240559 
" clip-path="url(#p3fb2eea93b)" style="fill: none; stroke-dasharray: 1.85,0.8; stroke-dashoffset: 0; stroke: #b0b0b0; stroke-opacity: 0.8; stroke-width: 0.5"/>
     </g>
     <g id="line2d_94">
      <g>
       <use xlink:href="#m519a960cf2" x="95.28125" y="468.240559" style="stroke: #000000; stroke-width: 0.6"/>
      </g>
     </g>
    </g>
    <g id="ytick_7">
     <g id="line2d_95">
      <path d="M 95.28125 444.861604 
L 764.88125 444.861604 
" clip-path="url(#p3fb2eea93b)" style="fill: none; stroke-dasharray: 1.85,0.8; stroke-dashoffset: 0; stroke: #b0b0b0; stroke-opacity: 0.8; stroke-width: 0.5"/>
     </g>
     <g id="line2d_96">
      <g>
       <use xlink:href="#m519a960cf2" x="95.28125" y="444.861604" style="stroke: #000000; stroke-width: 0.6"/>
      </g>
     </g>
    </g>
    <g id="ytick_8">
     <g id="line2d_97">
      <path d="M 95.28125 398.103695 
L 764.88125 398.103695 
" clip-path="url(#p3fb2eea93b)" style="fill: none; stroke-dasharray: 1.85,0.8; stroke-dashoffset: 0; stroke: #b0b0b0; stroke-opacity: 0.8; stroke-width: 0.5"/>
     </g>
     <g id="line2d_98">
      <g>
       <use xlink:href="#m519a960cf2" x="95.28125" y="398.103695" style="stroke: #000000; stroke-width: 0.6"/>
      </g>
     </g>
    </g>
    <g id="ytick_9">
     <g id="line2d_99">
      <path d="M 95.28125 374.72474 
L 764.88125 374.72474 
" clip-path="url(#p3fb2eea93b)" style="fill: none; stroke-dasharray: 1.85,0.8; stroke-dashoffset: 0; stroke: #b0b0b0; stroke-opacity: 0.8; stroke-width: 0.5"/>
     </g>
     <g id="line2d_100">
      <g>
       <use xlink:href="#m519a960cf2" x="95.28125" y="374.72474" style="stroke: #000000; stroke-width: 0.6"/>
      </g>
     </g>
    </g>
    <g id="ytick_10">
     <g id="line2d_101">
      <path d="M 95.28125 351.345785 
L 764.88125 351.345785 
" clip-path="url(#p3fb2eea93b)" style="fill: none; stroke-dasharray: 1.85,0.8; stroke-dashoffset: 0; stroke: #b0b0b0; stroke-opacity: 0.8; stroke-width: 0.5"/>
     </g>
     <g id="line2d_102">
      <g>
       <use xlink:href="#m519a960cf2" x="95.28125" y="351.345785" style="stroke: #000000; stroke-width: 0.6"/>
      </g>
     </g>
    </g>
    <g id="ytick_11">
     <g id="line2d_103">
      <path d="M 95.28125 304.587876 
L 764.88125 304.587876 
" clip-path="url(#p3fb2eea93b)" style="fill: none; stroke-dasharray: 1.85,0.8; stroke-dashoffset: 0; stroke: #b0b0b0; stroke-opacity: 0.8; stroke-width: 0.5"/>
     </g>
     <g id="line2d_104">
      <g>
       <use xlink:href="#m519a960cf2" x="95.28125" y="304.587876" style="stroke: #000000; stroke-width: 0.6"/>
      </g>
     </g>
    </g>
    <g id="ytick_12">
     <g id="line2d_105">
      <path d="M 95.28125 281.208921 
L 764.88125 281.208921 
" clip-path="url(#p3fb2eea93b)" style="fill: none; stroke-dasharray: 1.85,0.8; stroke-dashoffset: 0; stroke: #b0b0b0; stroke-opacity: 0.8; stroke-width: 0.5"/>
     </g>
     <g id="line2d_106">
      <g>
       <use xlink:href="#m519a960cf2" x="95.28125" y="281.208921" style="stroke: #000000; stroke-width: 0.6"/>
      </g>
     </g>
    </g>
    <g id="ytick_13">
     <g id="line2d_107">
      <path d="M 95.28125 257.829966 
L 764.88125 257.829966 
" clip-path="url(#p3fb2eea93b)" style="fill: none; stroke-dasharray: 1.85,0.8; stroke-dashoffset: 0; stroke: #b0b0b0; stroke-opacity: 0.8; stroke-width: 0.5"/>
     </g>
     <g id="line2d_108">
      <g>
       <use xlink:href="#m519a960cf2" x="95.28125" y="257.829966" style="stroke: #000000; stroke-width: 0.6"/>
      </g>
     </g>
    </g>
    <g id="ytick_14">
     <g id="line2d_109">
      <path d="M 95.28125 211.072057 
L 764.88125 211.072057 
" clip-path="url(#p3fb2eea93b)" style="fill: none; stroke-dasharray: 1.85,0.8; stroke-dashoffset: 0; stroke: #b0b0b0; stroke-opacity: 0.8; stroke-width: 0.5"/>
     </g>
     <g id="line2d_110">
      <g>
       <use xlink:href="#m519a960cf2" x="95.28125" y="211.072057" style="stroke: #000000; stroke-width: 0.6"/>
      </g>
     </g>
    </g>
    <g id="ytick_15">
     <g id="line2d_111">
      <path d="M 95.28125 187.693102 
L 764.88125 187.693102 
" clip-path="url(#p3fb2eea93b)" style="fill: none; stroke-dasharray: 1.85,0.8; stroke-dashoffset: 0; stroke: #b0b0b0; stroke-opacity: 0.8; stroke-width: 0.5"/>
     </g>
     <g id="line2d_112">
      <g>
       <use xlink:href="#m519a960cf2" x="95.28125" y="187.693102" style="stroke: #000000; stroke-width: 0.6"/>
      </g>
     </g>
    </g>
    <g id="ytick_16">
     <g id="line2d_113">
      <path d="M 95.28125 164.314147 
L 764.88125 164.314147 
" clip-path="url(#p3fb2eea93b)" style="fill: none; stroke-dasharray: 1.85,0.8; stroke-dashoffset: 0; stroke: #b0b0b0; stroke-opacity: 0.8; stroke-width: 0.5"/>
     </g>
     <g id="line2d_114">
      <g>
       <use xlink:href="#m519a960cf2" x="95.28125" y="164.314147" style="stroke: #000000; stroke-width: 0.6"/>
      </g>
     </g>
    </g>
    <g id="ytick_17">
     <g id="line2d_115">
      <path d="M 95.28125 117.556238 
L 764.88125 117.556238 
" clip-path="url(#p3fb2eea93b)" style="fill: none; stroke-dasharray: 1.85,0.8; stroke-dashoffset: 0; stroke: #b0b0b0; stroke-opacity: 0.8; stroke-width: 0.5"/>
     </g>
     <g id="line2d_116">
      <g>
       <use xlink:href="#m519a960cf2" x="95.28125" y="117.556238" style="stroke: #000000; stroke-width: 0.6"/>
      </g>
     </g>
    </g>
    <g id="ytick_18">
     <g id="line2d_117">
      <path d="M 95.28125 94.177283 
L 764.88125 94.177283 
" clip-path="url(#p3fb2eea93b)" style="fill: none; stroke-dasharray: 1.85,0.8; stroke-dashoffset: 0; stroke: #b0b0b0; stroke-opacity: 0.8; stroke-width: 0.5"/>
     </g>
     <g id="line2d_118">
      <g>
       <use xlink:href="#m519a960cf2" x="95.28125" y="94.177283" style="stroke: #000000; stroke-width: 0.6"/>
      </g>
     </g>
    </g>
    <g id="ytick_19">
     <g id="line2d_119">
      <path d="M 95.28125 70.798328 
L 764.88125 70.798328 
" clip-path="url(#p3fb2eea93b)" style="fill: none; stroke-dasharray: 1.85,0.8; stroke-dashoffset: 0; stroke: #b0b0b0; stroke-opacity: 0.8; stroke-width: 0.5"/>
     </g>
     <g id="line2d_120">
      <g>
       <use xlink:href="#m519a960cf2" x="95.28125" y="70.798328" style="stroke: #000000; stroke-width: 0.6"/>
      </g>
     </g>
    </g>
    <g id="text_14">
     <!-- Light (W/m^2) -->
     <g transform="translate(49.221875 337.558125) rotate(-90) scale(0.2 -0.2)">
      <defs>
       <path id="AptosDisplay-4c" d="M 472 0 
L 472 4206 
L 1034 4206 
L 1034 484 
L 3000 484 
L 3000 0 
L 472 0 
z
" transform="scale(0.015625)"/>
       <path id="AptosDisplay-67" d="M 1397 -1178 
Q 925 -1178 640 -1065 
Q 356 -953 229 -765 
Q 103 -578 103 -359 
Q 103 -94 329 112 
Q 556 319 1031 403 
L 1128 575 
L 1475 575 
Q 2184 575 2489 376 
Q 2794 178 2794 -238 
Q 2794 -650 2437 -914 
Q 2081 -1178 1397 -1178 
z
M 1384 -800 
Q 1878 -800 2086 -650 
Q 2294 -500 2294 -278 
Q 2294 -147 2225 -51 
Q 2156 44 1975 97 
Q 1794 150 1456 150 
L 1034 150 
Q 819 97 708 -31 
Q 597 -159 597 -328 
Q 597 -516 778 -658 
Q 959 -800 1384 -800 
z
M 1025 216 
Q 722 228 550 312 
Q 378 397 306 511 
Q 234 625 234 722 
Q 234 866 362 1009 
Q 491 1153 772 1241 
L 1038 1069 
Q 866 1031 772 953 
Q 678 875 678 791 
Q 678 731 734 682 
Q 791 634 928 606 
Q 1066 578 1303 575 
L 1025 216 
z
M 1363 984 
Q 1003 984 753 1128 
Q 503 1272 375 1509 
Q 247 1747 247 2022 
Q 247 2313 376 2550 
Q 506 2788 754 2928 
Q 1003 3069 1366 3069 
Q 1738 3069 1983 2928 
Q 2228 2788 2351 2550 
Q 2475 2313 2475 2022 
Q 2475 1741 2350 1505 
Q 2225 1269 1979 1126 
Q 1734 984 1363 984 
z
M 1366 1341 
Q 1641 1341 1812 1512 
Q 1984 1684 1984 2022 
Q 1984 2375 1817 2545 
Q 1650 2716 1372 2716 
Q 1094 2716 919 2541 
Q 744 2366 744 2025 
Q 744 1681 931 1511 
Q 1119 1341 1366 1341 
z
M 2131 2734 
L 1922 2931 
Q 2038 3225 2252 3331 
Q 2466 3438 2794 3447 
L 2794 3006 
Q 2588 3006 2416 2961 
Q 2244 2916 2131 2734 
z
" transform="scale(0.015625)"/>
       <path id="AptosDisplay-68" d="M 413 0 
L 413 4206 
L 931 4206 
L 931 2575 
Q 1069 2756 1317 2914 
Q 1566 3072 1950 3072 
Q 2428 3072 2637 2783 
Q 2847 2494 2847 1963 
L 2847 0 
L 2328 0 
L 2328 1891 
Q 2328 2106 2287 2275 
Q 2247 2444 2139 2539 
Q 2031 2634 1822 2634 
Q 1503 2634 1284 2482 
Q 1066 2331 934 2156 
L 934 0 
L 413 0 
z
" transform="scale(0.015625)"/>
       <path id="AptosDisplay-74" d="M 1466 0 
Q 1100 0 901 117 
Q 703 234 629 454 
Q 556 675 556 984 
L 556 2622 
L 50 2622 
L 50 3044 
L 556 3044 
L 556 3741 
L 1078 3741 
L 1078 3044 
L 1831 3044 
L 1831 2622 
L 1078 2622 
L 1078 1009 
Q 1078 725 1151 575 
Q 1225 425 1500 425 
L 1831 425 
L 1831 0 
L 1466 0 
z
" transform="scale(0.015625)"/>
       <path id="AptosDisplay-57" d="M 1216 0 
L -13 4206 
L 575 4206 
L 1525 697 
L 2531 4206 
L 3156 4206 
L 4163 697 
L 5119 4206 
L 5681 4206 
L 4453 0 
L 3866 0 
L 2831 3556 
L 1813 0 
L 1216 0 
z
" transform="scale(0.015625)"/>
       <path id="AptosDisplay-2f" d="M 72 0 
L 1603 4206 
L 2100 4206 
L 569 0 
L 72 0 
z
" transform="scale(0.015625)"/>
       <path id="AptosDisplay-5e" d="M 428 2438 
L 1459 4206 
L 1884 4206 
L 2916 2438 
L 2366 2438 
L 1672 3650 
L 978 2438 
L 428 2438 
z
" transform="scale(0.015625)"/>
      </defs>
      <use xlink:href="#AptosDisplay-4c"/>
      <use xlink:href="#AptosDisplay-69" x="48.4375"/>
      <use xlink:href="#AptosDisplay-67" x="69.482422"/>
      <use xlink:href="#AptosDisplay-68" x="113.427734"/>
      <use xlink:href="#AptosDisplay-74" x="164.013672"/>
      <use xlink:href="#AptosDisplay-20" x="194.384766"/>
      <use xlink:href="#AptosDisplay-28" x="213.671875"/>
      <use xlink:href="#AptosDisplay-57" x="243.115234"/>
      <use xlink:href="#AptosDisplay-2f" x="331.689453"/>
      <use xlink:href="#AptosDisplay-6d" x="365.625"/>
      <use xlink:href="#AptosDisplay-5e" x="445.605469"/>
      <use xlink:href="#AptosDisplay-32" x="497.900391"/>
      <use xlink:href="#AptosDisplay-29" x="550.195312"/>
     </g>
    </g>
   </g>
   <g id="line2d_121">
    <path d="M 125.717614 99.842471 
L 126.371453 95.513624 
L 127.025291 101.697825 
L 127.67913 104.377521 
L 128.332969 103.553179 
L 128.986808 104.583723 
L 129.640647 104.171318 
L 130.294486 103.346976 
L 130.948325 103.553179 
L 131.602164 103.140774 
L 132.256003 101.904027 
L 132.909841 101.697825 
L 133.56368 101.904027 
L 134.217519 101.904027 
L 134.871358 102.316432 
L 136.179036 102.728369 
L 136.832875 102.316432 
L 137.486714 103.140774 
L 138.140552 103.346976 
L 138.794391 103.965116 
L 139.44823 103.759381 
L 140.102069 94.48308 
L 140.755908 105.20233 
L 141.409747 103.965116 
L 142.063586 105.82047 
L 143.371264 104.996128 
L 144.025102 105.20233 
L 144.678941 105.20233 
L 145.33278 104.377521 
L 145.986619 104.789926 
L 146.640458 102.934572 
L 147.294297 103.965116 
L 147.948136 103.140774 
L 148.601975 103.140774 
L 149.255814 102.11023 
L 149.909652 102.316432 
L 150.563491 102.728369 
L 151.21733 102.522167 
L 151.871169 103.553179 
L 152.525008 103.553179 
L 153.178847 103.759381 
L 153.832686 104.171318 
L 154.486525 104.789926 
L 155.140364 104.583723 
L 155.794202 103.346976 
L 156.448041 104.789926 
L 157.10188 112.210873 
L 157.755719 102.11023 
L 158.409558 96.338433 
L 159.063397 110.149317 
L 159.717236 105.408065 
L 160.371075 105.82047 
L 161.678752 103.759381 
L 162.332591 103.965116 
L 162.98643 102.934572 
L 163.640269 101.491623 
L 164.294108 101.904027 
L 164.947947 100.048674 
L 166.255625 93.86494 
L 166.909463 97.368978 
L 167.563302 99.636269 
L 168.217141 96.956573 
L 168.87098 96.750838 
L 169.524819 96.338433 
L 170.178658 97.57518 
L 170.832497 95.101687 
L 171.486336 95.101687 
L 172.140175 93.86494 
L 172.794013 94.895484 
L 173.447852 94.276877 
L 174.101691 95.101687 
L 174.75553 95.719826 
L 175.409369 96.132231 
L 176.063208 95.307889 
L 176.717047 96.544636 
L 177.370886 96.750838 
L 178.024725 96.544636 
L 178.678563 97.368978 
L 179.332402 98.399522 
L 179.986241 98.605724 
L 180.64008 98.399522 
L 181.293919 99.224332 
L 181.947758 98.811927 
L 182.601597 100.048674 
L 183.255436 100.461078 
L 183.909275 100.048674 
L 184.563113 100.461078 
L 185.216952 100.667281 
L 185.870791 102.522167 
L 186.52463 110.35552 
L 187.178469 101.079218 
L 187.832308 102.11023 
L 188.486147 101.697825 
L 189.139986 101.491623 
L 189.793825 102.934572 
L 190.447663 102.728369 
L 191.101502 101.904027 
L 191.755341 103.140774 
L 192.40918 103.965116 
L 193.063019 100.873483 
L 193.716858 101.491623 
L 195.024536 99.018129 
L 195.678375 100.667281 
L 196.332213 100.667281 
L 196.986052 100.254876 
L 197.639891 96.338433 
L 198.29373 100.667281 
L 198.947569 100.461078 
L 199.601408 99.842471 
L 200.255247 100.048674 
L 200.909086 99.636269 
L 201.562924 99.430534 
L 202.216763 100.048674 
L 203.524441 99.636269 
L 204.17828 100.048674 
L 204.832119 99.224332 
L 205.485958 100.048674 
L 206.139797 100.048674 
L 206.793636 99.842471 
L 207.447474 99.430534 
L 208.101313 99.636269 
L 208.755152 99.018129 
L 209.408991 98.605724 
L 210.716669 98.605724 
L 211.370508 95.719826 
L 212.024347 97.162775 
L 212.678186 97.57518 
L 213.985863 102.11023 
L 214.639702 98.19332 
L 215.293541 98.19332 
L 215.94738 98.811927 
L 216.601219 99.224332 
L 217.255058 100.048674 
L 217.908897 101.491623 
L 218.562736 101.904027 
L 220.524252 104.377521 
L 221.178091 106.645279 
L 221.83193 106.645279 
L 222.485769 108.088228 
L 223.793447 110.149317 
L 224.447286 110.767924 
L 225.101124 111.798469 
L 225.754963 114.06576 
L 226.408802 112.829013 
L 227.062641 113.653822 
L 227.71648 106.439077 
L 228.370319 113.860025 
L 230.331836 115.714911 
L 230.985674 115.096772 
L 231.639513 115.921113 
L 232.293352 115.508709 
L 232.947191 115.302974 
L 233.60103 115.508709 
L 234.254869 113.860025 
L 234.908708 114.06576 
L 235.562547 113.44762 
L 236.216385 113.44762 
L 236.870224 112.417076 
L 237.524063 112.210873 
L 238.177902 111.386064 
L 238.831741 111.798469 
L 239.48558 111.179861 
L 240.139419 110.35552 
L 240.793258 110.974127 
L 241.447097 112.210873 
L 242.100935 110.35552 
L 242.754774 110.767924 
L 243.408613 112.829013 
L 244.062452 114.06576 
L 244.716291 129.32006 
L 245.37013 114.684367 
L 246.023969 115.302974 
L 246.677808 116.127316 
L 247.331647 115.921113 
L 247.985485 115.302974 
L 248.639324 115.714911 
L 249.293163 115.302974 
L 249.947002 115.921113 
L 251.908519 115.302974 
L 252.562358 115.921113 
L 253.870035 119.219416 
L 254.523874 116.333518 
L 255.177713 118.188405 
L 255.831552 117.364063 
L 256.485391 118.600809 
L 257.13923 118.188405 
L 257.793069 119.425619 
L 258.446908 121.07477 
L 259.754585 123.754466 
L 260.408424 126.846099 
L 261.062263 128.289048 
L 262.369941 133.442705 
L 263.02378 137.152945 
L 263.677619 139.008299 
L 264.331458 143.130944 
L 264.985297 146.223044 
L 265.639135 148.490335 
L 266.292974 151.376234 
L 266.946813 153.43779 
L 267.600652 153.643992 
L 268.254491 154.468334 
L 268.90833 156.323688 
L 269.562169 155.498878 
L 270.216008 155.293144 
L 271.523685 153.643992 
L 272.177524 153.231587 
L 272.831363 153.025385 
L 273.485202 152.201043 
L 274.139041 151.788638 
L 274.79288 150.964296 
L 275.446719 150.758094 
L 276.100558 149.727082 
L 276.754396 150.964296 
L 277.408235 149.521347 
L 278.062074 151.788638 
L 278.715913 148.078398 
L 279.369752 146.635449 
L 280.67743 144.573893 
L 281.331269 143.955286 
L 282.638946 143.130944 
L 283.292785 142.512337 
L 283.946624 142.512337 
L 284.600463 142.924741 
L 285.254302 142.512337 
L 285.908141 142.512337 
L 286.56198 142.718539 
L 287.215819 142.306602 
L 287.869658 142.306602 
L 288.523496 141.687995 
L 289.177335 140.863653 
L 289.831174 140.863653 
L 290.485013 140.451248 
L 291.138852 140.451248 
L 291.792691 141.069855 
L 292.44653 140.863653 
L 293.754208 138.389692 
L 294.408046 138.595894 
L 295.061885 137.359147 
L 295.715724 139.008299 
L 296.369563 135.916198 
L 297.023402 135.709996 
L 297.677241 134.679452 
L 298.33108 134.679452 
L 298.984919 133.648907 
L 299.638758 134.885654 
L 300.292596 131.174946 
L 300.946435 133.442705 
L 301.600274 129.526262 
L 302.907952 128.289048 
L 303.561791 128.083313 
L 304.21563 126.846099 
L 304.869469 123.960201 
L 305.523307 125.815555 
L 306.177146 125.40315 
L 306.830985 124.78501 
L 307.484824 124.578808 
L 308.138663 123.960201 
L 309.446341 121.07477 
L 310.10018 120.456163 
L 310.754019 111.592266 
L 311.407857 119.219416 
L 312.061696 117.15786 
L 314.677052 112.210873 
L 315.330891 111.798469 
L 315.98473 110.149317 
L 316.638569 110.35552 
L 317.292407 109.118773 
L 317.946246 108.706368 
L 319.253924 107.057217 
L 319.907763 106.439077 
L 320.561602 106.026672 
L 323.176957 102.934572 
L 323.830796 101.697825 
L 324.484635 99.842471 
L 325.138474 99.430534 
L 327.099991 96.956573 
L 327.75383 94.689282 
L 328.407669 96.956573 
L 329.061507 95.101687 
L 330.369185 95.101687 
L 331.023024 94.070675 
L 332.330702 93.658738 
L 332.984541 94.48308 
L 334.292218 92.833928 
L 334.946057 92.833928 
L 335.599896 93.452535 
L 336.253735 93.658738 
L 336.907574 93.658738 
L 337.561413 92.833928 
L 338.215252 93.86494 
L 338.869091 93.658738 
L 339.52293 94.070675 
L 340.176768 94.276877 
L 340.830607 93.86494 
L 341.484446 94.895484 
L 342.138285 95.101687 
L 342.792124 94.070675 
L 343.445963 95.307889 
L 344.099802 94.070675 
L 344.753641 94.48308 
L 345.40748 95.926029 
L 346.061318 92.009586 
L 346.715157 91.184777 
L 347.368996 91.184777 
L 348.022835 89.741828 
L 349.330513 88.093144 
L 350.638191 86.855929 
L 351.29203 86.650195 
L 351.945868 84.588638 
L 352.599707 84.382436 
L 353.253546 83.764296 
L 353.907385 83.558094 
L 354.561224 79.641184 
L 355.215063 81.908943 
L 355.868902 82.527082 
L 356.522741 82.321347 
L 357.17658 82.733284 
L 357.830418 82.527082 
L 358.484257 80.672196 
L 359.138096 81.908943 
L 359.791935 81.496538 
L 360.445774 81.908943 
L 361.099613 82.733284 
L 361.753452 82.733284 
L 362.407291 83.558094 
L 363.06113 82.115145 
L 363.714968 83.351892 
L 364.368807 83.558094 
L 365.022646 83.351892 
L 365.676485 83.558094 
L 366.984163 83.558094 
L 367.638002 82.939487 
L 368.945679 82.939487 
L 369.599518 83.145689 
L 370.253357 83.145689 
L 370.907196 82.939487 
L 371.561035 83.145689 
L 372.214874 82.527082 
L 372.868713 82.527082 
L 373.522552 81.290335 
L 374.176391 85.825385 
L 374.830229 82.115145 
L 375.484068 82.733284 
L 376.137907 83.764296 
L 376.791746 82.939487 
L 377.445585 82.939487 
L 378.099424 84.176234 
L 378.753263 84.588638 
L 379.407102 84.176234 
L 380.060941 85.207245 
L 380.714779 85.41298 
L 381.368618 86.443992 
L 382.676296 86.855929 
L 383.330135 86.855929 
L 383.983974 88.917486 
L 384.637813 88.711283 
L 385.291652 83.764296 
L 385.945491 88.298878 
L 386.599329 87.886941 
L 387.253168 88.711283 
L 387.907007 88.093144 
L 388.560846 88.505081 
L 389.214685 88.505081 
L 389.868524 88.298878 
L 390.522363 87.474536 
L 391.176202 87.474536 
L 391.830041 86.855929 
L 392.483879 86.855929 
L 393.137718 87.474536 
L 393.791557 88.505081 
L 394.445396 87.886941 
L 395.099235 88.505081 
L 395.753074 87.680739 
L 396.406913 87.474536 
L 397.060752 87.886941 
L 397.714591 87.886941 
L 398.368429 85.41298 
L 399.022268 88.298878 
L 399.676107 90.154232 
L 400.329946 88.298878 
L 400.983785 90.154232 
L 401.637624 89.536093 
L 402.291463 87.680739 
L 403.59914 89.94803 
L 404.252979 89.536093 
L 404.906818 90.772839 
L 405.560657 90.978574 
L 406.214496 90.772839 
L 406.868335 90.978574 
L 407.522174 91.597181 
L 408.176013 91.597181 
L 409.48369 92.421991 
L 410.791368 92.421991 
L 411.445207 94.070675 
L 412.099046 94.070675 
L 412.752885 93.452535 
L 413.406724 94.895484 
L 414.714402 95.719826 
L 415.36824 95.926029 
L 416.022079 96.956573 
L 416.675918 96.750838 
L 417.329757 97.57518 
L 417.983596 97.162775 
L 418.637435 98.399522 
L 419.291274 99.018129 
L 419.945113 98.605724 
L 420.598952 98.605724 
L 421.25279 100.048674 
L 421.906629 98.605724 
L 422.560468 98.399522 
L 423.214307 99.636269 
L 423.868146 99.018129 
L 424.521985 99.636269 
L 425.175824 99.224332 
L 425.829663 99.430534 
L 427.13734 98.605724 
L 428.445018 99.018129 
L 429.098857 99.018129 
L 429.752696 99.430534 
L 430.406535 100.461078 
L 431.060374 100.461078 
L 431.714213 103.553179 
L 432.368052 101.491623 
L 433.02189 101.491623 
L 433.675729 98.19332 
L 434.329568 102.728369 
L 434.983407 103.140774 
L 435.637246 101.904027 
L 436.291085 103.346976 
L 437.598763 102.934572 
L 438.252601 102.522167 
L 438.90644 102.728369 
L 439.560279 101.904027 
L 440.214118 99.636269 
L 440.867957 100.461078 
L 441.521796 99.430534 
L 442.175635 99.224332 
L 442.829474 98.811927 
L 443.483313 96.132231 
L 444.137151 99.018129 
L 445.444829 98.605724 
L 446.098668 99.430534 
L 446.752507 98.811927 
L 447.406346 99.224332 
L 448.060185 94.895484 
L 448.714024 97.781382 
L 449.367863 97.57518 
L 450.021701 97.781382 
L 450.67554 97.781382 
L 451.329379 98.19332 
L 451.983218 98.19332 
L 452.637057 99.018129 
L 453.290896 98.605724 
L 453.944735 98.605724 
L 454.598574 94.895484 
L 455.252413 99.430534 
L 455.906251 100.461078 
L 456.56009 100.048674 
L 457.213929 101.079218 
L 457.867768 104.377521 
L 458.521607 102.316432 
L 459.175446 103.346976 
L 459.829285 101.28542 
L 460.483124 104.789926 
L 461.136963 102.934572 
L 461.790801 106.851014 
L 462.44464 106.851014 
L 463.098479 107.469621 
L 463.752318 109.118773 
L 464.406157 108.293963 
L 465.059996 107.882026 
L 465.713835 106.851014 
L 466.367674 107.882026 
L 467.021513 107.675824 
L 467.675351 107.263419 
L 468.32919 107.675824 
L 468.983029 104.789926 
L 469.636868 107.057217 
L 470.290707 104.171318 
L 470.944546 106.232875 
L 471.598385 106.026672 
L 472.252224 107.263419 
L 472.906062 104.171318 
L 473.559901 104.377521 
L 474.21374 103.965116 
L 474.867579 103.759381 
L 475.521418 103.140774 
L 476.175257 103.346976 
L 476.829096 103.346976 
L 477.482935 103.759381 
L 478.136774 103.346976 
L 478.790612 103.759381 
L 479.444451 104.377521 
L 480.09829 104.583723 
L 480.752129 105.408065 
L 481.405968 106.645279 
L 482.059807 107.469621 
L 482.713646 109.118773 
L 483.367485 109.736912 
L 484.675162 111.386064 
L 485.98284 113.860025 
L 486.636679 114.06576 
L 487.944357 117.570265 
L 488.598196 120.868568 
L 489.252035 119.219416 
L 489.905874 119.837556 
L 491.213551 123.548264 
L 491.86739 124.372606 
L 492.521229 125.40315 
L 493.175068 124.372606 
L 493.828907 128.289048 
L 494.482746 129.32006 
L 495.136585 130.763009 
L 495.790424 132.824098 
L 496.444262 133.85511 
L 497.098101 135.503794 
L 497.75194 134.473249 
L 498.405779 139.832641 
L 499.059618 142.924741 
L 499.713457 149.727082 
L 500.367296 145.81064 
L 501.674973 149.727082 
L 502.328812 152.61298 
L 502.982651 154.880739 
L 503.63649 156.736093 
L 504.290329 159.209586 
L 507.559523 167.454876 
L 508.867201 170.134572 
L 509.524309 170.340774 
L 510.178148 171.783723 
L 510.831987 172.608065 
L 511.485826 173.639077 
L 512.139665 173.845279 
L 512.790235 175.288228 
L 514.101182 176.11257 
L 514.75502 175.493963 
L 515.408859 171.371318 
L 516.062698 174.669621 
L 516.716537 179.204671 
L 517.370376 175.082026 
L 518.024215 158.590979 
L 520.63957 188.89291 
L 521.293409 172.40233 
L 521.947248 171.989926 
L 522.601087 172.196128 
L 523.254926 170.959381 
L 523.908765 170.959381 
L 525.216443 170.134572 
L 525.870282 169.928369 
L 526.52412 165.805724 
L 527.177959 169.31023 
L 527.831798 169.722167 
L 528.485637 168.897825 
L 529.139476 169.104027 
L 529.793315 168.897825 
L 530.447154 169.31023 
L 531.754831 168.073483 
L 532.40867 168.279218 
L 533.062509 166.424332 
L 533.716348 166.424332 
L 534.370187 165.805724 
L 535.024026 161.476877 
L 535.677865 163.332231 
L 536.331704 161.476877 
L 536.985543 160.858738 
L 537.639381 160.033928 
L 538.947059 155.911283 
L 539.600898 155.293144 
L 540.254737 154.468334 
L 540.908576 153.025385 
L 541.562415 152.407245 
L 542.216254 155.293144 
L 542.870093 149.727082 
L 543.523931 145.81064 
L 544.17777 147.047386 
L 544.831609 145.81064 
L 545.485448 146.841184 
L 546.139287 146.016842 
L 546.793126 144.573893 
L 547.446965 143.749551 
L 548.100804 144.36769 
L 548.754643 142.100399 
L 549.408481 139.008299 
L 550.06232 138.389692 
L 550.716159 137.56535 
L 552.023837 134.885654 
L 552.677676 132.824098 
L 553.331515 131.793553 
L 553.985354 129.731997 
L 555.94687 127.258504 
L 556.600709 124.991213 
L 557.254548 124.166403 
L 557.908387 123.754466 
L 558.562226 122.929657 
L 559.216065 122.723454 
L 559.869904 121.69291 
L 560.523742 121.07477 
L 561.177581 121.07477 
L 561.83142 120.249961 
L 562.485259 119.013214 
L 563.139098 118.600809 
L 563.792937 117.98267 
L 564.446776 117.570265 
L 565.100615 117.570265 
L 565.754454 116.951658 
L 566.408292 116.745455 
L 567.062131 117.15786 
L 567.71597 115.508709 
L 568.369809 115.921113 
L 569.023648 114.06576 
L 569.677487 114.684367 
L 570.331326 115.096772 
L 570.985165 108.706368 
L 571.632465 472.122401 
L 572.286304 477.27559 
L 572.940143 481.1925 
L 574.254359 109.531178 
L 574.908198 109.324975 
L 575.562037 109.531178 
L 576.869715 108.293963 
L 577.523554 104.583723 
L 578.177392 107.263419 
L 578.831231 107.469621 
L 579.48507 106.645279 
L 580.138909 106.232875 
L 580.792748 106.851014 
L 581.446587 106.232875 
L 582.100426 107.469621 
L 582.754265 104.789926 
L 583.408104 103.346976 
L 584.061942 104.789926 
L 584.715781 104.583723 
L 585.36962 104.789926 
L 586.023459 102.316432 
L 586.677298 103.553179 
L 587.331137 103.965116 
L 587.984976 103.553179 
L 589.292654 103.140774 
L 589.946492 102.728369 
L 590.600331 102.522167 
L 591.908009 100.873483 
L 592.561848 100.254876 
L 593.215687 100.873483 
L 593.869526 100.254876 
L 594.523365 99.430534 
L 595.177203 99.636269 
L 595.831042 98.19332 
L 596.484881 97.987585 
L 597.13872 97.57518 
L 597.792559 95.926029 
L 598.446398 95.307889 
L 599.100237 95.926029 
L 599.754076 95.513624 
L 600.407915 96.750838 
L 601.061753 95.719826 
L 601.715592 92.421991 
L 603.02327 92.421991 
L 603.677109 92.009586 
L 604.984787 92.009586 
L 605.638626 91.597181 
L 606.292465 91.390979 
L 606.946303 90.978574 
L 607.600142 87.474536 
L 608.253981 91.803384 
L 608.90782 90.772839 
L 609.561659 90.978574 
L 610.215498 90.772839 
L 611.523176 91.184777 
L 612.830853 88.505081 
L 613.484692 89.94803 
L 614.138531 89.536093 
L 614.79237 88.917486 
L 615.446209 88.505081 
L 616.100048 88.917486 
L 616.753887 88.505081 
L 618.061565 88.093144 
L 618.715403 87.680739 
L 619.369242 88.093144 
L 620.023081 87.886941 
L 620.67692 88.093144 
L 621.330759 87.474536 
L 621.984598 87.886941 
L 622.638437 88.505081 
L 623.292276 88.711283 
L 623.946115 87.886941 
L 624.599953 87.268334 
L 625.253792 87.474536 
L 625.907631 87.268334 
L 626.56147 85.001043 
L 627.215309 86.650195 
L 627.869148 90.360435 
L 628.522987 90.154232 
L 629.176826 86.443992 
L 629.830664 87.268334 
L 630.484503 86.443992 
L 631.792181 85.207245 
L 632.44602 86.031587 
L 633.099859 86.650195 
L 633.753698 87.886941 
L 634.407537 87.474536 
L 635.061376 87.474536 
L 635.715214 87.268334 
L 636.369053 87.680739 
L 637.022892 87.474536 
L 637.676731 87.886941 
L 638.33057 86.031587 
L 638.984409 88.505081 
L 639.638248 88.298878 
L 640.292087 88.711283 
L 640.945926 87.886941 
L 641.599764 90.360435 
L 642.253603 88.093144 
L 642.907442 88.298878 
L 643.561281 88.093144 
L 644.21512 87.680739 
L 644.868959 88.711283 
L 645.522798 88.505081 
L 646.830476 88.505081 
L 647.484314 88.917486 
L 648.138153 88.917486 
L 648.791992 88.298878 
L 649.445831 88.505081 
L 650.09967 86.855929 
L 650.753509 86.443992 
L 651.407348 86.650195 
L 652.061187 85.825385 
L 652.715026 86.443992 
L 653.368864 86.23779 
L 654.022703 84.588638 
L 654.676542 85.619183 
L 655.98422 84.382436 
L 656.638059 89.741828 
L 657.291898 84.382436 
L 657.945737 86.031587 
L 658.599576 77.9925 
L 659.253414 78.61064 
L 659.907253 82.939487 
L 660.561092 83.351892 
L 661.214931 83.145689 
L 661.86877 83.970031 
L 662.522609 82.939487 
L 663.176448 83.351892 
L 663.830287 83.970031 
L 664.484125 84.176234 
L 665.137964 83.764296 
L 665.791803 84.176234 
L 666.445642 84.382436 
L 667.099481 85.207245 
L 667.75332 84.588638 
L 668.407159 82.939487 
L 669.060998 85.207245 
L 669.714837 83.351892 
L 670.368675 85.41298 
L 671.022514 85.619183 
L 671.676353 86.031587 
L 672.330192 85.001043 
L 672.984031 85.001043 
L 673.63787 85.41298 
L 674.291709 84.588638 
L 675.599387 86.23779 
L 676.253225 85.001043 
L 676.907064 85.619183 
L 678.214742 84.382436 
L 678.868581 84.794841 
L 679.52242 85.001043 
L 680.176259 84.588638 
L 680.830098 84.794841 
L 681.483937 84.176234 
L 682.137775 84.176234 
L 682.791614 84.588638 
L 683.445453 83.558094 
L 684.099292 81.084133 
L 684.753131 82.527082 
L 685.40697 82.733284 
L 686.060809 89.741828 
L 686.714648 99.842471 
L 687.368487 81.496538 
L 688.676164 81.084133 
L 689.330003 80.053589 
L 689.983842 81.290335 
L 690.637681 81.70274 
L 691.29152 81.290335 
L 691.945359 80.259791 
L 692.599198 80.053589 
L 693.253037 80.259791 
L 693.906875 78.404437 
L 694.560714 80.672196 
L 695.214553 80.259791 
L 695.868392 79.435449 
L 696.522231 81.496538 
L 697.17607 78.816842 
L 697.829909 79.435449 
L 698.483748 81.70274 
L 699.137586 82.939487 
L 699.791425 83.351892 
L 701.099103 83.764296 
L 701.752942 84.588638 
L 702.406781 86.443992 
L 703.06062 87.062132 
L 703.714459 88.093144 
L 704.368298 90.772839 
L 705.022136 92.215789 
L 705.675975 94.276877 
L 706.329814 97.368978 
L 706.983653 98.605724 
L 708.291331 102.934572 
L 710.252848 109.531178 
L 711.560525 113.44762 
L 712.214364 115.714911 
L 712.868203 115.921113 
L 713.522042 116.745455 
L 714.175881 122.517719 
L 715.483559 116.333518 
L 718.098914 122.929657 
L 718.752753 123.754466 
L 719.406592 124.166403 
L 720.060431 124.991213 
L 720.71427 126.434162 
L 721.368109 126.434162 
L 722.021948 128.083313 
L 722.675786 128.289048 
L 723.329625 129.9382 
L 727.906497 138.595894 
L 729.868014 141.069855 
L 730.521853 142.512337 
L 731.175692 144.573893 
L 731.829531 141.27559 
L 732.48337 142.718539 
L 733.137209 142.306602 
L 733.791047 142.100399 
L 734.444886 142.306602 
L 734.444886 142.306602 
" clip-path="url(#p3fb2eea93b)" style="fill: none; stroke: #ac2b37; stroke-width: 1.5; stroke-linecap: square"/>
   </g>
   <g id="patch_3">
    <path d="M 95.28125 501.3525 
L 95.28125 57.8325 
" style="fill: none; stroke: #000000; stroke-width: 0.8; stroke-linejoin: miter; stroke-linecap: square"/>
   </g>
   <g id="patch_4">
    <path d="M 764.88125 501.3525 
L 764.88125 57.8325 
" style="fill: none; stroke: #000000; stroke-width: 0.8; stroke-linejoin: miter; stroke-linecap: square"/>
   </g>
   <g id="patch_5">
    <path d="M 95.28125 501.3525 
L 764.88125 501.3525 
" style="fill: none; stroke: #000000; stroke-width: 0.8; stroke-linejoin: miter; stroke-linecap: square"/>
   </g>
   <g id="patch_6">
    <path d="M 95.28125 57.8325 
L 764.88125 57.8325 
" style="fill: none; stroke: #000000; stroke-width: 0.8; stroke-linejoin: miter; stroke-linecap: square"/>
   </g>
   <g id="text_15">
    <!-- Light vs Time -->
    <g transform="translate(367.59875 51.8325) scale(0.24 -0.24)">
     <defs>
      <path id="AptosDisplay-76" d="M 1103 0 
L -13 3044 
L 538 3044 
L 1391 513 
L 2250 3044 
L 2781 3044 
L 1678 0 
L 1103 0 
z
" transform="scale(0.015625)"/>
      <path id="AptosDisplay-73" d="M 1506 -41 
Q 1247 -41 1017 14 
Q 788 69 613 191 
Q 438 313 339 506 
Q 241 700 241 978 
L 744 978 
Q 744 628 966 487 
Q 1188 347 1519 347 
Q 1816 347 2008 458 
Q 2200 569 2200 822 
Q 2200 1047 2026 1153 
Q 1853 1259 1413 1369 
Q 1056 1453 815 1564 
Q 575 1675 453 1845 
Q 331 2016 331 2275 
Q 331 2475 417 2626 
Q 503 2778 658 2879 
Q 813 2981 1020 3032 
Q 1228 3084 1472 3084 
Q 1713 3084 1923 3028 
Q 2134 2972 2296 2855 
Q 2459 2738 2551 2552 
Q 2644 2366 2644 2109 
L 2138 2109 
Q 2138 2425 1945 2558 
Q 1753 2691 1472 2691 
Q 1191 2691 1016 2594 
Q 841 2497 841 2291 
Q 841 2169 919 2084 
Q 997 2000 1181 1933 
Q 1366 1866 1675 1791 
Q 2019 1709 2248 1596 
Q 2478 1484 2595 1306 
Q 2713 1128 2713 847 
Q 2713 616 2622 447 
Q 2531 278 2367 170 
Q 2203 63 1983 11 
Q 1763 -41 1506 -41 
z
" transform="scale(0.015625)"/>
     </defs>
     <use xlink:href="#AptosDisplay-4c"/>
     <use xlink:href="#AptosDisplay-69" x="48.4375"/>
     <use xlink:href="#AptosDisplay-67" x="69.482422"/>
     <use xlink:href="#AptosDisplay-68" x="113.427734"/>
     <use xlink:href="#AptosDisplay-74" x="164.013672"/>
     <use xlink:href="#AptosDisplay-20" x="194.384766"/>
     <use xlink:href="#AptosDisplay-76" x="213.671875"/>
     <use xlink:href="#AptosDisplay-73" x="256.933594"/>
     <use xlink:href="#AptosDisplay-20" x="303.222656"/>
     <use xlink:href="#AptosDisplay-54" x="322.509766"/>
     <use xlink:href="#AptosDisplay-69" x="370.214844"/>
     <use xlink:href="#AptosDisplay-6d" x="391.259766"/>
     <use xlink:href="#AptosDisplay-65" x="471.240234"/>
    </g>
   </g>
  </g>
 </g>
 <defs>
  <clipPath id="p3fb2eea93b">
   <rect x="95.28125" y="57.8325" width="669.6" height="443.52"/>
  </clipPath>
 </defs>
</svg>
