<?xml version="1.0" encoding="utf-8" standalone="no"?>
<!DOCTYPE svg PUBLIC "-//W3C//DTD SVG 1.1//EN"
  "http://www.w3.org/Graphics/SVG/1.1/DTD/svg11.dtd">
<svg xmlns:xlink="http://www.w3.org/1999/xlink" width="800.725pt" height="581.830625pt" viewBox="0 0 800.725 581.830625" xmlns="http://www.w3.org/2000/svg" version="1.1">
 <metadata>
  <rdf:RDF xmlns:dc="http://purl.org/dc/elements/1.1/" xmlns:cc="http://creativecommons.org/ns#" xmlns:rdf="http://www.w3.org/1999/02/22-rdf-syntax-ns#">
   <cc:Work>
    <dc:type rdf:resource="http://purl.org/dc/dcmitype/StillImage"/>
    <dc:date>2025-04-03T01:48:11.232320</dc:date>
    <dc:format>image/svg+xml</dc:format>
    <dc:creator>
     <cc:Agent>
      <dc:title>Matplotlib v3.8.2, https://matplotlib.org/</dc:title>
     </cc:Agent>
    </dc:creator>
   </cc:Work>
  </rdf:RDF>
 </metadata>
 <defs>
  <style type="text/css">*{stroke-linejoin: round; stroke-linecap: butt}</style>
 </defs>
 <g id="figure_1">
  <g id="patch_1">
   <path d="M 0 581.830625 
L 800.725 581.830625 
L 800.725 0 
L 0 0 
z
" style="fill: #ffffff"/>
  </g>
  <g id="axes_1">
   <g id="patch_2">
    <path d="M 95.125 501.3525 
L 764.725 501.3525 
L 764.725 57.8325 
L 95.125 57.8325 
z
" style="fill: #ffffff"/>
   </g>
   <g id="matplotlib.axis_1">
    <g id="xtick_1">
     <g id="line2d_1">
      <path d="M 124.858491 501.3525 
L 124.858491 57.8325 
" clip-path="url(#p507d75ce6a)" style="fill: none; stroke: #b0b0b0; stroke-opacity: 0.8; stroke-linecap: square"/>
     </g>
     <g id="line2d_2">
      <defs>
       <path id="m4cb5772017" d="M 0 0 
L 0 3.5 
" style="stroke: #000000; stroke-width: 0.8"/>
      </defs>
      <g>
       <use xlink:href="#m4cb5772017" x="124.858491" y="501.3525" style="stroke: #000000; stroke-width: 0.8"/>
      </g>
     </g>
     <g id="text_1">
      <!-- 0 -->
      <g transform="translate(119.628803 521.49625) scale(0.2 -0.2)">
       <defs>
        <path id="AptosDisplay-30" d="M 1672 -56 
Q 1291 -56 1028 105 
Q 766 266 605 552 
Q 444 838 372 1216 
Q 300 1594 300 2031 
Q 300 2475 372 2856 
Q 444 3238 605 3525 
Q 766 3813 1028 3973 
Q 1291 4134 1672 4134 
Q 2053 4134 2317 3975 
Q 2581 3816 2742 3527 
Q 2903 3238 2975 2858 
Q 3047 2478 3047 2038 
Q 3047 1597 2975 1217 
Q 2903 838 2742 552 
Q 2581 266 2318 105 
Q 2056 -56 1672 -56 
z
M 1672 409 
Q 1916 409 2073 550 
Q 2231 691 2322 925 
Q 2413 1159 2448 1448 
Q 2484 1738 2484 2038 
Q 2484 2338 2448 2628 
Q 2413 2919 2322 3153 
Q 2231 3388 2073 3527 
Q 1916 3666 1669 3666 
Q 1428 3666 1268 3527 
Q 1109 3388 1020 3153 
Q 931 2919 893 2628 
Q 856 2338 856 2038 
Q 856 1741 893 1450 
Q 931 1159 1020 925 
Q 1109 691 1268 550 
Q 1428 409 1672 409 
z
" transform="scale(0.015625)"/>
       </defs>
       <use xlink:href="#AptosDisplay-30"/>
      </g>
     </g>
    </g>
    <g id="xtick_2">
     <g id="line2d_3">
      <path d="M 206.587913 501.3525 
L 206.587913 57.8325 
" clip-path="url(#p507d75ce6a)" style="fill: none; stroke: #b0b0b0; stroke-opacity: 0.8; stroke-linecap: square"/>
     </g>
     <g id="line2d_4">
      <g>
       <use xlink:href="#m4cb5772017" x="206.587913" y="501.3525" style="stroke: #000000; stroke-width: 0.8"/>
      </g>
     </g>
     <g id="text_2">
      <!-- 25 -->
      <g transform="translate(196.128538 521.49625) scale(0.2 -0.2)">
       <defs>
        <path id="AptosDisplay-32" d="M 247 0 
L 247 413 
L 1725 1741 
Q 2100 2081 2269 2351 
Q 2438 2622 2438 2938 
Q 2438 3256 2263 3461 
Q 2088 3666 1691 3666 
Q 1247 3666 1055 3439 
Q 863 3213 863 2869 
L 341 2869 
Q 341 3250 491 3534 
Q 641 3819 941 3975 
Q 1241 4131 1691 4131 
Q 2103 4131 2390 3986 
Q 2678 3841 2828 3578 
Q 2978 3316 2978 2959 
Q 2978 2638 2853 2375 
Q 2728 2113 2517 1883 
Q 2306 1653 2044 1425 
L 959 463 
L 3097 463 
L 3097 0 
L 247 0 
z
" transform="scale(0.015625)"/>
        <path id="AptosDisplay-35" d="M 1669 -56 
Q 1278 -56 964 83 
Q 650 222 465 483 
Q 281 744 281 1113 
L 816 1113 
Q 816 778 1055 584 
Q 1294 391 1669 391 
Q 2069 391 2291 625 
Q 2513 859 2513 1319 
Q 2513 1772 2291 1989 
Q 2069 2206 1697 2206 
Q 1409 2206 1223 2123 
Q 1038 2041 916 1894 
L 444 1894 
L 622 4078 
L 2788 4078 
L 2788 3613 
L 1041 3613 
L 931 2322 
Q 1044 2453 1251 2550 
Q 1459 2647 1775 2647 
Q 2131 2647 2420 2506 
Q 2709 2366 2881 2072 
Q 3053 1778 3053 1319 
Q 3053 863 2875 558 
Q 2697 253 2384 98 
Q 2072 -56 1669 -56 
z
" transform="scale(0.015625)"/>
       </defs>
       <use xlink:href="#AptosDisplay-32"/>
       <use xlink:href="#AptosDisplay-35" x="52.294922"/>
      </g>
     </g>
    </g>
    <g id="xtick_3">
     <g id="line2d_5">
      <path d="M 288.317334 501.3525 
L 288.317334 57.8325 
" clip-path="url(#p507d75ce6a)" style="fill: none; stroke: #b0b0b0; stroke-opacity: 0.8; stroke-linecap: square"/>
     </g>
     <g id="line2d_6">
      <g>
       <use xlink:href="#m4cb5772017" x="288.317334" y="501.3525" style="stroke: #000000; stroke-width: 0.8"/>
      </g>
     </g>
     <g id="text_3">
      <!-- 50 -->
      <g transform="translate(277.857959 521.49625) scale(0.2 -0.2)">
       <use xlink:href="#AptosDisplay-35"/>
       <use xlink:href="#AptosDisplay-30" x="52.294922"/>
      </g>
     </g>
    </g>
    <g id="xtick_4">
     <g id="line2d_7">
      <path d="M 370.046756 501.3525 
L 370.046756 57.8325 
" clip-path="url(#p507d75ce6a)" style="fill: none; stroke: #b0b0b0; stroke-opacity: 0.8; stroke-linecap: square"/>
     </g>
     <g id="line2d_8">
      <g>
       <use xlink:href="#m4cb5772017" x="370.046756" y="501.3525" style="stroke: #000000; stroke-width: 0.8"/>
      </g>
     </g>
     <g id="text_4">
      <!-- 75 -->
      <g transform="translate(359.587381 521.49625) scale(0.2 -0.2)">
       <defs>
        <path id="AptosDisplay-37" d="M 766 0 
L 2609 3600 
L 194 3600 
L 194 4078 
L 3141 4078 
L 3141 3622 
L 1334 0 
L 766 0 
z
" transform="scale(0.015625)"/>
       </defs>
       <use xlink:href="#AptosDisplay-37"/>
       <use xlink:href="#AptosDisplay-35" x="52.294922"/>
      </g>
     </g>
    </g>
    <g id="xtick_5">
     <g id="line2d_9">
      <path d="M 451.776178 501.3525 
L 451.776178 57.8325 
" clip-path="url(#p507d75ce6a)" style="fill: none; stroke: #b0b0b0; stroke-opacity: 0.8; stroke-linecap: square"/>
     </g>
     <g id="line2d_10">
      <g>
       <use xlink:href="#m4cb5772017" x="451.776178" y="501.3525" style="stroke: #000000; stroke-width: 0.8"/>
      </g>
     </g>
     <g id="text_5">
      <!-- 100 -->
      <g transform="translate(436.087116 521.49625) scale(0.2 -0.2)">
       <defs>
        <path id="AptosDisplay-31" d="M 1659 0 
L 1659 3425 
Q 1575 3309 1420 3201 
Q 1266 3094 1052 3009 
Q 838 2925 578 2888 
L 578 3381 
Q 834 3425 1057 3540 
Q 1281 3656 1453 3806 
Q 1625 3956 1719 4094 
L 2206 4094 
L 2206 0 
L 1659 0 
z
" transform="scale(0.015625)"/>
       </defs>
       <use xlink:href="#AptosDisplay-31"/>
       <use xlink:href="#AptosDisplay-30" x="52.294922"/>
       <use xlink:href="#AptosDisplay-30" x="104.589844"/>
      </g>
     </g>
    </g>
    <g id="xtick_6">
     <g id="line2d_11">
      <path d="M 533.5056 501.3525 
L 533.5056 57.8325 
" clip-path="url(#p507d75ce6a)" style="fill: none; stroke: #b0b0b0; stroke-opacity: 0.8; stroke-linecap: square"/>
     </g>
     <g id="line2d_12">
      <g>
       <use xlink:href="#m4cb5772017" x="533.5056" y="501.3525" style="stroke: #000000; stroke-width: 0.8"/>
      </g>
     </g>
     <g id="text_6">
      <!-- 125 -->
      <g transform="translate(517.816538 521.49625) scale(0.2 -0.2)">
       <use xlink:href="#AptosDisplay-31"/>
       <use xlink:href="#AptosDisplay-32" x="52.294922"/>
       <use xlink:href="#AptosDisplay-35" x="104.589844"/>
      </g>
     </g>
    </g>
    <g id="xtick_7">
     <g id="line2d_13">
      <path d="M 615.235022 501.3525 
L 615.235022 57.8325 
" clip-path="url(#p507d75ce6a)" style="fill: none; stroke: #b0b0b0; stroke-opacity: 0.8; stroke-linecap: square"/>
     </g>
     <g id="line2d_14">
      <g>
       <use xlink:href="#m4cb5772017" x="615.235022" y="501.3525" style="stroke: #000000; stroke-width: 0.8"/>
      </g>
     </g>
     <g id="text_7">
      <!-- 150 -->
      <g transform="translate(599.54596 521.49625) scale(0.2 -0.2)">
       <use xlink:href="#AptosDisplay-31"/>
       <use xlink:href="#AptosDisplay-35" x="52.294922"/>
       <use xlink:href="#AptosDisplay-30" x="104.589844"/>
      </g>
     </g>
    </g>
    <g id="xtick_8">
     <g id="line2d_15">
      <path d="M 696.964444 501.3525 
L 696.964444 57.8325 
" clip-path="url(#p507d75ce6a)" style="fill: none; stroke: #b0b0b0; stroke-opacity: 0.8; stroke-linecap: square"/>
     </g>
     <g id="line2d_16">
      <g>
       <use xlink:href="#m4cb5772017" x="696.964444" y="501.3525" style="stroke: #000000; stroke-width: 0.8"/>
      </g>
     </g>
     <g id="text_8">
      <!-- 175 -->
      <g transform="translate(681.275381 521.49625) scale(0.2 -0.2)">
       <use xlink:href="#AptosDisplay-31"/>
       <use xlink:href="#AptosDisplay-37" x="52.294922"/>
       <use xlink:href="#AptosDisplay-35" x="104.589844"/>
      </g>
     </g>
    </g>
    <g id="xtick_9">
     <g id="line2d_17">
      <path d="M 108.512606 501.3525 
L 108.512606 57.8325 
" clip-path="url(#p507d75ce6a)" style="fill: none; stroke-dasharray: 1.85,0.8; stroke-dashoffset: 0; stroke: #b0b0b0; stroke-opacity: 0.8; stroke-width: 0.5"/>
     </g>
     <g id="line2d_18">
      <defs>
       <path id="m225c9efa9b" d="M 0 0 
L 0 2 
" style="stroke: #000000; stroke-width: 0.6"/>
      </defs>
      <g>
       <use xlink:href="#m225c9efa9b" x="108.512606" y="501.3525" style="stroke: #000000; stroke-width: 0.6"/>
      </g>
     </g>
    </g>
    <g id="xtick_10">
     <g id="line2d_19">
      <path d="M 141.204375 501.3525 
L 141.204375 57.8325 
" clip-path="url(#p507d75ce6a)" style="fill: none; stroke-dasharray: 1.85,0.8; stroke-dashoffset: 0; stroke: #b0b0b0; stroke-opacity: 0.8; stroke-width: 0.5"/>
     </g>
     <g id="line2d_20">
      <g>
       <use xlink:href="#m225c9efa9b" x="141.204375" y="501.3525" style="stroke: #000000; stroke-width: 0.6"/>
      </g>
     </g>
    </g>
    <g id="xtick_11">
     <g id="line2d_21">
      <path d="M 157.550259 501.3525 
L 157.550259 57.8325 
" clip-path="url(#p507d75ce6a)" style="fill: none; stroke-dasharray: 1.85,0.8; stroke-dashoffset: 0; stroke: #b0b0b0; stroke-opacity: 0.8; stroke-width: 0.5"/>
     </g>
     <g id="line2d_22">
      <g>
       <use xlink:href="#m225c9efa9b" x="157.550259" y="501.3525" style="stroke: #000000; stroke-width: 0.6"/>
      </g>
     </g>
    </g>
    <g id="xtick_12">
     <g id="line2d_23">
      <path d="M 173.896144 501.3525 
L 173.896144 57.8325 
" clip-path="url(#p507d75ce6a)" style="fill: none; stroke-dasharray: 1.85,0.8; stroke-dashoffset: 0; stroke: #b0b0b0; stroke-opacity: 0.8; stroke-width: 0.5"/>
     </g>
     <g id="line2d_24">
      <g>
       <use xlink:href="#m225c9efa9b" x="173.896144" y="501.3525" style="stroke: #000000; stroke-width: 0.6"/>
      </g>
     </g>
    </g>
    <g id="xtick_13">
     <g id="line2d_25">
      <path d="M 190.242028 501.3525 
L 190.242028 57.8325 
" clip-path="url(#p507d75ce6a)" style="fill: none; stroke-dasharray: 1.85,0.8; stroke-dashoffset: 0; stroke: #b0b0b0; stroke-opacity: 0.8; stroke-width: 0.5"/>
     </g>
     <g id="line2d_26">
      <g>
       <use xlink:href="#m225c9efa9b" x="190.242028" y="501.3525" style="stroke: #000000; stroke-width: 0.6"/>
      </g>
     </g>
    </g>
    <g id="xtick_14">
     <g id="line2d_27">
      <path d="M 222.933797 501.3525 
L 222.933797 57.8325 
" clip-path="url(#p507d75ce6a)" style="fill: none; stroke-dasharray: 1.85,0.8; stroke-dashoffset: 0; stroke: #b0b0b0; stroke-opacity: 0.8; stroke-width: 0.5"/>
     </g>
     <g id="line2d_28">
      <g>
       <use xlink:href="#m225c9efa9b" x="222.933797" y="501.3525" style="stroke: #000000; stroke-width: 0.6"/>
      </g>
     </g>
    </g>
    <g id="xtick_15">
     <g id="line2d_29">
      <path d="M 239.279681 501.3525 
L 239.279681 57.8325 
" clip-path="url(#p507d75ce6a)" style="fill: none; stroke-dasharray: 1.85,0.8; stroke-dashoffset: 0; stroke: #b0b0b0; stroke-opacity: 0.8; stroke-width: 0.5"/>
     </g>
     <g id="line2d_30">
      <g>
       <use xlink:href="#m225c9efa9b" x="239.279681" y="501.3525" style="stroke: #000000; stroke-width: 0.6"/>
      </g>
     </g>
    </g>
    <g id="xtick_16">
     <g id="line2d_31">
      <path d="M 255.625566 501.3525 
L 255.625566 57.8325 
" clip-path="url(#p507d75ce6a)" style="fill: none; stroke-dasharray: 1.85,0.8; stroke-dashoffset: 0; stroke: #b0b0b0; stroke-opacity: 0.8; stroke-width: 0.5"/>
     </g>
     <g id="line2d_32">
      <g>
       <use xlink:href="#m225c9efa9b" x="255.625566" y="501.3525" style="stroke: #000000; stroke-width: 0.6"/>
      </g>
     </g>
    </g>
    <g id="xtick_17">
     <g id="line2d_33">
      <path d="M 271.97145 501.3525 
L 271.97145 57.8325 
" clip-path="url(#p507d75ce6a)" style="fill: none; stroke-dasharray: 1.85,0.8; stroke-dashoffset: 0; stroke: #b0b0b0; stroke-opacity: 0.8; stroke-width: 0.5"/>
     </g>
     <g id="line2d_34">
      <g>
       <use xlink:href="#m225c9efa9b" x="271.97145" y="501.3525" style="stroke: #000000; stroke-width: 0.6"/>
      </g>
     </g>
    </g>
    <g id="xtick_18">
     <g id="line2d_35">
      <path d="M 304.663219 501.3525 
L 304.663219 57.8325 
" clip-path="url(#p507d75ce6a)" style="fill: none; stroke-dasharray: 1.85,0.8; stroke-dashoffset: 0; stroke: #b0b0b0; stroke-opacity: 0.8; stroke-width: 0.5"/>
     </g>
     <g id="line2d_36">
      <g>
       <use xlink:href="#m225c9efa9b" x="304.663219" y="501.3525" style="stroke: #000000; stroke-width: 0.6"/>
      </g>
     </g>
    </g>
    <g id="xtick_19">
     <g id="line2d_37">
      <path d="M 321.009103 501.3525 
L 321.009103 57.8325 
" clip-path="url(#p507d75ce6a)" style="fill: none; stroke-dasharray: 1.85,0.8; stroke-dashoffset: 0; stroke: #b0b0b0; stroke-opacity: 0.8; stroke-width: 0.5"/>
     </g>
     <g id="line2d_38">
      <g>
       <use xlink:href="#m225c9efa9b" x="321.009103" y="501.3525" style="stroke: #000000; stroke-width: 0.6"/>
      </g>
     </g>
    </g>
    <g id="xtick_20">
     <g id="line2d_39">
      <path d="M 337.354988 501.3525 
L 337.354988 57.8325 
" clip-path="url(#p507d75ce6a)" style="fill: none; stroke-dasharray: 1.85,0.8; stroke-dashoffset: 0; stroke: #b0b0b0; stroke-opacity: 0.8; stroke-width: 0.5"/>
     </g>
     <g id="line2d_40">
      <g>
       <use xlink:href="#m225c9efa9b" x="337.354988" y="501.3525" style="stroke: #000000; stroke-width: 0.6"/>
      </g>
     </g>
    </g>
    <g id="xtick_21">
     <g id="line2d_41">
      <path d="M 353.700872 501.3525 
L 353.700872 57.8325 
" clip-path="url(#p507d75ce6a)" style="fill: none; stroke-dasharray: 1.85,0.8; stroke-dashoffset: 0; stroke: #b0b0b0; stroke-opacity: 0.8; stroke-width: 0.5"/>
     </g>
     <g id="line2d_42">
      <g>
       <use xlink:href="#m225c9efa9b" x="353.700872" y="501.3525" style="stroke: #000000; stroke-width: 0.6"/>
      </g>
     </g>
    </g>
    <g id="xtick_22">
     <g id="line2d_43">
      <path d="M 386.392641 501.3525 
L 386.392641 57.8325 
" clip-path="url(#p507d75ce6a)" style="fill: none; stroke-dasharray: 1.85,0.8; stroke-dashoffset: 0; stroke: #b0b0b0; stroke-opacity: 0.8; stroke-width: 0.5"/>
     </g>
     <g id="line2d_44">
      <g>
       <use xlink:href="#m225c9efa9b" x="386.392641" y="501.3525" style="stroke: #000000; stroke-width: 0.6"/>
      </g>
     </g>
    </g>
    <g id="xtick_23">
     <g id="line2d_45">
      <path d="M 402.738525 501.3525 
L 402.738525 57.8325 
" clip-path="url(#p507d75ce6a)" style="fill: none; stroke-dasharray: 1.85,0.8; stroke-dashoffset: 0; stroke: #b0b0b0; stroke-opacity: 0.8; stroke-width: 0.5"/>
     </g>
     <g id="line2d_46">
      <g>
       <use xlink:href="#m225c9efa9b" x="402.738525" y="501.3525" style="stroke: #000000; stroke-width: 0.6"/>
      </g>
     </g>
    </g>
    <g id="xtick_24">
     <g id="line2d_47">
      <path d="M 419.084409 501.3525 
L 419.084409 57.8325 
" clip-path="url(#p507d75ce6a)" style="fill: none; stroke-dasharray: 1.85,0.8; stroke-dashoffset: 0; stroke: #b0b0b0; stroke-opacity: 0.8; stroke-width: 0.5"/>
     </g>
     <g id="line2d_48">
      <g>
       <use xlink:href="#m225c9efa9b" x="419.084409" y="501.3525" style="stroke: #000000; stroke-width: 0.6"/>
      </g>
     </g>
    </g>
    <g id="xtick_25">
     <g id="line2d_49">
      <path d="M 435.430294 501.3525 
L 435.430294 57.8325 
" clip-path="url(#p507d75ce6a)" style="fill: none; stroke-dasharray: 1.85,0.8; stroke-dashoffset: 0; stroke: #b0b0b0; stroke-opacity: 0.8; stroke-width: 0.5"/>
     </g>
     <g id="line2d_50">
      <g>
       <use xlink:href="#m225c9efa9b" x="435.430294" y="501.3525" style="stroke: #000000; stroke-width: 0.6"/>
      </g>
     </g>
    </g>
    <g id="xtick_26">
     <g id="line2d_51">
      <path d="M 468.122063 501.3525 
L 468.122063 57.8325 
" clip-path="url(#p507d75ce6a)" style="fill: none; stroke-dasharray: 1.85,0.8; stroke-dashoffset: 0; stroke: #b0b0b0; stroke-opacity: 0.8; stroke-width: 0.5"/>
     </g>
     <g id="line2d_52">
      <g>
       <use xlink:href="#m225c9efa9b" x="468.122063" y="501.3525" style="stroke: #000000; stroke-width: 0.6"/>
      </g>
     </g>
    </g>
    <g id="xtick_27">
     <g id="line2d_53">
      <path d="M 484.467947 501.3525 
L 484.467947 57.8325 
" clip-path="url(#p507d75ce6a)" style="fill: none; stroke-dasharray: 1.85,0.8; stroke-dashoffset: 0; stroke: #b0b0b0; stroke-opacity: 0.8; stroke-width: 0.5"/>
     </g>
     <g id="line2d_54">
      <g>
       <use xlink:href="#m225c9efa9b" x="484.467947" y="501.3525" style="stroke: #000000; stroke-width: 0.6"/>
      </g>
     </g>
    </g>
    <g id="xtick_28">
     <g id="line2d_55">
      <path d="M 500.813831 501.3525 
L 500.813831 57.8325 
" clip-path="url(#p507d75ce6a)" style="fill: none; stroke-dasharray: 1.85,0.8; stroke-dashoffset: 0; stroke: #b0b0b0; stroke-opacity: 0.8; stroke-width: 0.5"/>
     </g>
     <g id="line2d_56">
      <g>
       <use xlink:href="#m225c9efa9b" x="500.813831" y="501.3525" style="stroke: #000000; stroke-width: 0.6"/>
      </g>
     </g>
    </g>
    <g id="xtick_29">
     <g id="line2d_57">
      <path d="M 517.159716 501.3525 
L 517.159716 57.8325 
" clip-path="url(#p507d75ce6a)" style="fill: none; stroke-dasharray: 1.85,0.8; stroke-dashoffset: 0; stroke: #b0b0b0; stroke-opacity: 0.8; stroke-width: 0.5"/>
     </g>
     <g id="line2d_58">
      <g>
       <use xlink:href="#m225c9efa9b" x="517.159716" y="501.3525" style="stroke: #000000; stroke-width: 0.6"/>
      </g>
     </g>
    </g>
    <g id="xtick_30">
     <g id="line2d_59">
      <path d="M 549.851485 501.3525 
L 549.851485 57.8325 
" clip-path="url(#p507d75ce6a)" style="fill: none; stroke-dasharray: 1.85,0.8; stroke-dashoffset: 0; stroke: #b0b0b0; stroke-opacity: 0.8; stroke-width: 0.5"/>
     </g>
     <g id="line2d_60">
      <g>
       <use xlink:href="#m225c9efa9b" x="549.851485" y="501.3525" style="stroke: #000000; stroke-width: 0.6"/>
      </g>
     </g>
    </g>
    <g id="xtick_31">
     <g id="line2d_61">
      <path d="M 566.197369 501.3525 
L 566.197369 57.8325 
" clip-path="url(#p507d75ce6a)" style="fill: none; stroke-dasharray: 1.85,0.8; stroke-dashoffset: 0; stroke: #b0b0b0; stroke-opacity: 0.8; stroke-width: 0.5"/>
     </g>
     <g id="line2d_62">
      <g>
       <use xlink:href="#m225c9efa9b" x="566.197369" y="501.3525" style="stroke: #000000; stroke-width: 0.6"/>
      </g>
     </g>
    </g>
    <g id="xtick_32">
     <g id="line2d_63">
      <path d="M 582.543253 501.3525 
L 582.543253 57.8325 
" clip-path="url(#p507d75ce6a)" style="fill: none; stroke-dasharray: 1.85,0.8; stroke-dashoffset: 0; stroke: #b0b0b0; stroke-opacity: 0.8; stroke-width: 0.5"/>
     </g>
     <g id="line2d_64">
      <g>
       <use xlink:href="#m225c9efa9b" x="582.543253" y="501.3525" style="stroke: #000000; stroke-width: 0.6"/>
      </g>
     </g>
    </g>
    <g id="xtick_33">
     <g id="line2d_65">
      <path d="M 598.889138 501.3525 
L 598.889138 57.8325 
" clip-path="url(#p507d75ce6a)" style="fill: none; stroke-dasharray: 1.85,0.8; stroke-dashoffset: 0; stroke: #b0b0b0; stroke-opacity: 0.8; stroke-width: 0.5"/>
     </g>
     <g id="line2d_66">
      <g>
       <use xlink:href="#m225c9efa9b" x="598.889138" y="501.3525" style="stroke: #000000; stroke-width: 0.6"/>
      </g>
     </g>
    </g>
    <g id="xtick_34">
     <g id="line2d_67">
      <path d="M 631.580906 501.3525 
L 631.580906 57.8325 
" clip-path="url(#p507d75ce6a)" style="fill: none; stroke-dasharray: 1.85,0.8; stroke-dashoffset: 0; stroke: #b0b0b0; stroke-opacity: 0.8; stroke-width: 0.5"/>
     </g>
     <g id="line2d_68">
      <g>
       <use xlink:href="#m225c9efa9b" x="631.580906" y="501.3525" style="stroke: #000000; stroke-width: 0.6"/>
      </g>
     </g>
    </g>
    <g id="xtick_35">
     <g id="line2d_69">
      <path d="M 647.926791 501.3525 
L 647.926791 57.8325 
" clip-path="url(#p507d75ce6a)" style="fill: none; stroke-dasharray: 1.85,0.8; stroke-dashoffset: 0; stroke: #b0b0b0; stroke-opacity: 0.8; stroke-width: 0.5"/>
     </g>
     <g id="line2d_70">
      <g>
       <use xlink:href="#m225c9efa9b" x="647.926791" y="501.3525" style="stroke: #000000; stroke-width: 0.6"/>
      </g>
     </g>
    </g>
    <g id="xtick_36">
     <g id="line2d_71">
      <path d="M 664.272675 501.3525 
L 664.272675 57.8325 
" clip-path="url(#p507d75ce6a)" style="fill: none; stroke-dasharray: 1.85,0.8; stroke-dashoffset: 0; stroke: #b0b0b0; stroke-opacity: 0.8; stroke-width: 0.5"/>
     </g>
     <g id="line2d_72">
      <g>
       <use xlink:href="#m225c9efa9b" x="664.272675" y="501.3525" style="stroke: #000000; stroke-width: 0.6"/>
      </g>
     </g>
    </g>
    <g id="xtick_37">
     <g id="line2d_73">
      <path d="M 680.61856 501.3525 
L 680.61856 57.8325 
" clip-path="url(#p507d75ce6a)" style="fill: none; stroke-dasharray: 1.85,0.8; stroke-dashoffset: 0; stroke: #b0b0b0; stroke-opacity: 0.8; stroke-width: 0.5"/>
     </g>
     <g id="line2d_74">
      <g>
       <use xlink:href="#m225c9efa9b" x="680.61856" y="501.3525" style="stroke: #000000; stroke-width: 0.6"/>
      </g>
     </g>
    </g>
    <g id="xtick_38">
     <g id="line2d_75">
      <path d="M 713.310328 501.3525 
L 713.310328 57.8325 
" clip-path="url(#p507d75ce6a)" style="fill: none; stroke-dasharray: 1.85,0.8; stroke-dashoffset: 0; stroke: #b0b0b0; stroke-opacity: 0.8; stroke-width: 0.5"/>
     </g>
     <g id="line2d_76">
      <g>
       <use xlink:href="#m225c9efa9b" x="713.310328" y="501.3525" style="stroke: #000000; stroke-width: 0.6"/>
      </g>
     </g>
    </g>
    <g id="xtick_39">
     <g id="line2d_77">
      <path d="M 729.656213 501.3525 
L 729.656213 57.8325 
" clip-path="url(#p507d75ce6a)" style="fill: none; stroke-dasharray: 1.85,0.8; stroke-dashoffset: 0; stroke: #b0b0b0; stroke-opacity: 0.8; stroke-width: 0.5"/>
     </g>
     <g id="line2d_78">
      <g>
       <use xlink:href="#m225c9efa9b" x="729.656213" y="501.3525" style="stroke: #000000; stroke-width: 0.6"/>
      </g>
     </g>
    </g>
    <g id="xtick_40">
     <g id="line2d_79">
      <path d="M 746.002097 501.3525 
L 746.002097 57.8325 
" clip-path="url(#p507d75ce6a)" style="fill: none; stroke-dasharray: 1.85,0.8; stroke-dashoffset: 0; stroke: #b0b0b0; stroke-opacity: 0.8; stroke-width: 0.5"/>
     </g>
     <g id="line2d_80">
      <g>
       <use xlink:href="#m225c9efa9b" x="746.002097" y="501.3525" style="stroke: #000000; stroke-width: 0.6"/>
      </g>
     </g>
    </g>
    <g id="xtick_41">
     <g id="line2d_81">
      <path d="M 762.347981 501.3525 
L 762.347981 57.8325 
" clip-path="url(#p507d75ce6a)" style="fill: none; stroke-dasharray: 1.85,0.8; stroke-dashoffset: 0; stroke: #b0b0b0; stroke-opacity: 0.8; stroke-width: 0.5"/>
     </g>
     <g id="line2d_82">
      <g>
       <use xlink:href="#m225c9efa9b" x="762.347981" y="501.3525" style="stroke: #000000; stroke-width: 0.6"/>
      </g>
     </g>
    </g>
    <g id="text_9">
     <!-- Time (S) -->
     <g transform="translate(396.834375 542.305625) scale(0.2 -0.2)">
      <defs>
       <path id="AptosDisplay-54" d="M 1244 0 
L 1244 3734 
L 50 3734 
L 50 4206 
L 2997 4206 
L 2997 3734 
L 1806 3734 
L 1806 0 
L 1244 0 
z
" transform="scale(0.015625)"/>
       <path id="AptosDisplay-69" d="M 413 0 
L 413 3044 
L 934 3044 
L 934 0 
L 413 0 
z
M 675 3616 
Q 525 3616 437 3702 
Q 350 3788 350 3919 
Q 350 4050 437 4136 
Q 525 4222 675 4222 
Q 822 4222 912 4136 
Q 1003 4050 1003 3919 
Q 1003 3788 912 3702 
Q 822 3616 675 3616 
z
" transform="scale(0.015625)"/>
       <path id="AptosDisplay-6d" d="M 413 0 
L 413 3044 
L 919 3044 
L 931 2575 
Q 1063 2756 1303 2914 
Q 1544 3072 1903 3072 
Q 2403 3072 2618 2778 
Q 2834 2484 2834 1963 
L 2834 0 
L 2316 0 
L 2316 1891 
Q 2316 2106 2275 2275 
Q 2234 2444 2120 2539 
Q 2006 2634 1788 2634 
Q 1488 2634 1277 2482 
Q 1066 2331 934 2156 
L 934 0 
L 413 0 
z
M 4206 0 
L 4206 1891 
Q 4206 2106 4164 2275 
Q 4122 2444 4009 2539 
Q 3897 2634 3681 2634 
Q 3381 2634 3165 2484 
Q 2950 2334 2822 2159 
L 2744 2544 
Q 2916 2741 3175 2906 
Q 3434 3072 3800 3072 
Q 4291 3072 4509 2778 
Q 4728 2484 4728 1963 
L 4728 0 
L 4206 0 
z
" transform="scale(0.015625)"/>
       <path id="AptosDisplay-65" d="M 1663 -56 
Q 1188 -56 878 151 
Q 569 359 417 717 
Q 266 1075 266 1522 
Q 266 1988 412 2342 
Q 559 2697 857 2897 
Q 1156 3097 1606 3097 
Q 2209 3097 2550 2722 
Q 2891 2347 2891 1644 
Q 2891 1597 2889 1533 
Q 2888 1469 2881 1441 
L 791 1441 
Q 794 1144 881 895 
Q 969 647 1161 497 
Q 1353 347 1663 347 
Q 1997 347 2183 511 
Q 2369 675 2378 984 
L 2894 984 
Q 2884 663 2732 430 
Q 2581 197 2309 70 
Q 2038 -56 1663 -56 
z
M 794 1822 
L 2375 1822 
Q 2366 2247 2166 2472 
Q 1966 2697 1606 2697 
Q 1241 2697 1036 2473 
Q 831 2250 794 1822 
z
" transform="scale(0.015625)"/>
       <path id="AptosDisplay-20" transform="scale(0.015625)"/>
       <path id="AptosDisplay-28" d="M 1219 -1116 
Q 969 -678 787 -267 
Q 606 144 511 581 
Q 416 1019 416 1528 
Q 416 2028 509 2486 
Q 603 2944 783 3378 
Q 963 3813 1219 4231 
L 1647 4231 
Q 1278 3600 1101 2886 
Q 925 2172 925 1428 
Q 925 766 1125 103 
Q 1325 -559 1647 -1116 
L 1219 -1116 
z
" transform="scale(0.015625)"/>
       <path id="AptosDisplay-53" d="M 1778 -56 
Q 1328 -56 962 81 
Q 597 219 384 512 
Q 172 806 172 1275 
L 734 1275 
Q 738 941 883 750 
Q 1028 559 1267 481 
Q 1506 403 1794 403 
Q 2063 403 2283 483 
Q 2503 563 2634 723 
Q 2766 884 2766 1134 
Q 2766 1356 2662 1497 
Q 2559 1638 2321 1742 
Q 2084 1847 1678 1950 
Q 1203 2075 897 2223 
Q 591 2372 442 2594 
Q 294 2816 294 3156 
Q 294 3516 462 3761 
Q 631 4006 945 4134 
Q 1259 4263 1697 4263 
Q 2103 4263 2440 4131 
Q 2778 4000 2979 3737 
Q 3181 3475 3181 3084 
L 2616 3084 
Q 2622 3441 2356 3623 
Q 2091 3806 1700 3806 
Q 1300 3806 1073 3645 
Q 847 3484 847 3175 
Q 847 2991 944 2867 
Q 1041 2744 1280 2644 
Q 1519 2544 1941 2434 
Q 2428 2303 2731 2153 
Q 3034 2003 3178 1768 
Q 3322 1534 3322 1153 
Q 3322 747 3117 480 
Q 2913 213 2564 78 
Q 2216 -56 1778 -56 
z
" transform="scale(0.015625)"/>
       <path id="AptosDisplay-29" d="M 234 -1116 
Q 609 -481 786 233 
Q 963 947 963 1694 
Q 963 2356 759 3015 
Q 556 3675 234 4231 
L 663 4231 
Q 919 3800 1098 3389 
Q 1278 2978 1373 2540 
Q 1469 2103 1469 1594 
Q 1469 1094 1375 634 
Q 1281 175 1100 -259 
Q 919 -694 663 -1116 
L 234 -1116 
z
" transform="scale(0.015625)"/>
      </defs>
      <use xlink:href="#AptosDisplay-54"/>
      <use xlink:href="#AptosDisplay-69" x="47.705078"/>
      <use xlink:href="#AptosDisplay-6d" x="68.75"/>
      <use xlink:href="#AptosDisplay-65" x="148.730469"/>
      <use xlink:href="#AptosDisplay-20" x="198.144531"/>
      <use xlink:href="#AptosDisplay-28" x="217.431641"/>
      <use xlink:href="#AptosDisplay-53" x="246.875"/>
      <use xlink:href="#AptosDisplay-29" x="301.464844"/>
     </g>
    </g>
   </g>
   <g id="matplotlib.axis_2">
    <g id="ytick_1">
     <g id="line2d_83">
      <path d="M 95.125 475.45211 
L 764.725 475.45211 
" clip-path="url(#p507d75ce6a)" style="fill: none; stroke: #b0b0b0; stroke-opacity: 0.8; stroke-linecap: square"/>
     </g>
     <g id="line2d_84">
      <defs>
       <path id="m7165e4abeb" d="M 0 0 
L -3.5 0 
" style="stroke: #000000; stroke-width: 0.8"/>
      </defs>
      <g>
       <use xlink:href="#m7165e4abeb" x="95.125" y="475.45211" style="stroke: #000000; stroke-width: 0.8"/>
      </g>
     </g>
     <g id="text_10">
      <!-- 50 -->
      <g transform="translate(67.20625 482.023985) scale(0.2 -0.2)">
       <use xlink:href="#AptosDisplay-35"/>
       <use xlink:href="#AptosDisplay-30" x="52.294922"/>
      </g>
     </g>
    </g>
    <g id="ytick_2">
     <g id="line2d_85">
      <path d="M 95.125 425.223698 
L 764.725 425.223698 
" clip-path="url(#p507d75ce6a)" style="fill: none; stroke: #b0b0b0; stroke-opacity: 0.8; stroke-linecap: square"/>
     </g>
     <g id="line2d_86">
      <g>
       <use xlink:href="#m7165e4abeb" x="95.125" y="425.223698" style="stroke: #000000; stroke-width: 0.8"/>
      </g>
     </g>
     <g id="text_11">
      <!-- 75 -->
      <g transform="translate(67.20625 431.795573) scale(0.2 -0.2)">
       <use xlink:href="#AptosDisplay-37"/>
       <use xlink:href="#AptosDisplay-35" x="52.294922"/>
      </g>
     </g>
    </g>
    <g id="ytick_3">
     <g id="line2d_87">
      <path d="M 95.125 374.995286 
L 764.725 374.995286 
" clip-path="url(#p507d75ce6a)" style="fill: none; stroke: #b0b0b0; stroke-opacity: 0.8; stroke-linecap: square"/>
     </g>
     <g id="line2d_88">
      <g>
       <use xlink:href="#m7165e4abeb" x="95.125" y="374.995286" style="stroke: #000000; stroke-width: 0.8"/>
      </g>
     </g>
     <g id="text_12">
      <!-- 100 -->
      <g transform="translate(56.746875 381.567161) scale(0.2 -0.2)">
       <use xlink:href="#AptosDisplay-31"/>
       <use xlink:href="#AptosDisplay-30" x="52.294922"/>
       <use xlink:href="#AptosDisplay-30" x="104.589844"/>
      </g>
     </g>
    </g>
    <g id="ytick_4">
     <g id="line2d_89">
      <path d="M 95.125 324.766873 
L 764.725 324.766873 
" clip-path="url(#p507d75ce6a)" style="fill: none; stroke: #b0b0b0; stroke-opacity: 0.8; stroke-linecap: square"/>
     </g>
     <g id="line2d_90">
      <g>
       <use xlink:href="#m7165e4abeb" x="95.125" y="324.766873" style="stroke: #000000; stroke-width: 0.8"/>
      </g>
     </g>
     <g id="text_13">
      <!-- 125 -->
      <g transform="translate(56.746875 331.338748) scale(0.2 -0.2)">
       <use xlink:href="#AptosDisplay-31"/>
       <use xlink:href="#AptosDisplay-32" x="52.294922"/>
       <use xlink:href="#AptosDisplay-35" x="104.589844"/>
      </g>
     </g>
    </g>
    <g id="ytick_5">
     <g id="line2d_91">
      <path d="M 95.125 274.538461 
L 764.725 274.538461 
" clip-path="url(#p507d75ce6a)" style="fill: none; stroke: #b0b0b0; stroke-opacity: 0.8; stroke-linecap: square"/>
     </g>
     <g id="line2d_92">
      <g>
       <use xlink:href="#m7165e4abeb" x="95.125" y="274.538461" style="stroke: #000000; stroke-width: 0.8"/>
      </g>
     </g>
     <g id="text_14">
      <!-- 150 -->
      <g transform="translate(56.746875 281.110336) scale(0.2 -0.2)">
       <use xlink:href="#AptosDisplay-31"/>
       <use xlink:href="#AptosDisplay-35" x="52.294922"/>
       <use xlink:href="#AptosDisplay-30" x="104.589844"/>
      </g>
     </g>
    </g>
    <g id="ytick_6">
     <g id="line2d_93">
      <path d="M 95.125 224.310049 
L 764.725 224.310049 
" clip-path="url(#p507d75ce6a)" style="fill: none; stroke: #b0b0b0; stroke-opacity: 0.8; stroke-linecap: square"/>
     </g>
     <g id="line2d_94">
      <g>
       <use xlink:href="#m7165e4abeb" x="95.125" y="224.310049" style="stroke: #000000; stroke-width: 0.8"/>
      </g>
     </g>
     <g id="text_15">
      <!-- 175 -->
      <g transform="translate(56.746875 230.881924) scale(0.2 -0.2)">
       <use xlink:href="#AptosDisplay-31"/>
       <use xlink:href="#AptosDisplay-37" x="52.294922"/>
       <use xlink:href="#AptosDisplay-35" x="104.589844"/>
      </g>
     </g>
    </g>
    <g id="ytick_7">
     <g id="line2d_95">
      <path d="M 95.125 174.081636 
L 764.725 174.081636 
" clip-path="url(#p507d75ce6a)" style="fill: none; stroke: #b0b0b0; stroke-opacity: 0.8; stroke-linecap: square"/>
     </g>
     <g id="line2d_96">
      <g>
       <use xlink:href="#m7165e4abeb" x="95.125" y="174.081636" style="stroke: #000000; stroke-width: 0.8"/>
      </g>
     </g>
     <g id="text_16">
      <!-- 200 -->
      <g transform="translate(56.746875 180.653511) scale(0.2 -0.2)">
       <use xlink:href="#AptosDisplay-32"/>
       <use xlink:href="#AptosDisplay-30" x="52.294922"/>
       <use xlink:href="#AptosDisplay-30" x="104.589844"/>
      </g>
     </g>
    </g>
    <g id="ytick_8">
     <g id="line2d_97">
      <path d="M 95.125 123.853224 
L 764.725 123.853224 
" clip-path="url(#p507d75ce6a)" style="fill: none; stroke: #b0b0b0; stroke-opacity: 0.8; stroke-linecap: square"/>
     </g>
     <g id="line2d_98">
      <g>
       <use xlink:href="#m7165e4abeb" x="95.125" y="123.853224" style="stroke: #000000; stroke-width: 0.8"/>
      </g>
     </g>
     <g id="text_17">
      <!-- 225 -->
      <g transform="translate(56.746875 130.425099) scale(0.2 -0.2)">
       <use xlink:href="#AptosDisplay-32"/>
       <use xlink:href="#AptosDisplay-32" x="52.294922"/>
       <use xlink:href="#AptosDisplay-35" x="104.589844"/>
      </g>
     </g>
    </g>
    <g id="ytick_9">
     <g id="line2d_99">
      <path d="M 95.125 73.624812 
L 764.725 73.624812 
" clip-path="url(#p507d75ce6a)" style="fill: none; stroke: #b0b0b0; stroke-opacity: 0.8; stroke-linecap: square"/>
     </g>
     <g id="line2d_100">
      <g>
       <use xlink:href="#m7165e4abeb" x="95.125" y="73.624812" style="stroke: #000000; stroke-width: 0.8"/>
      </g>
     </g>
     <g id="text_18">
      <!-- 250 -->
      <g transform="translate(56.746875 80.196687) scale(0.2 -0.2)">
       <use xlink:href="#AptosDisplay-32"/>
       <use xlink:href="#AptosDisplay-35" x="52.294922"/>
       <use xlink:href="#AptosDisplay-30" x="104.589844"/>
      </g>
     </g>
    </g>
    <g id="ytick_10">
     <g id="line2d_101">
      <path d="M 95.125 495.543475 
L 764.725 495.543475 
" clip-path="url(#p507d75ce6a)" style="fill: none; stroke-dasharray: 1.85,0.8; stroke-dashoffset: 0; stroke: #b0b0b0; stroke-opacity: 0.8; stroke-width: 0.5"/>
     </g>
     <g id="line2d_102">
      <defs>
       <path id="m839cc1b560" d="M 0 0 
L -2 0 
" style="stroke: #000000; stroke-width: 0.6"/>
      </defs>
      <g>
       <use xlink:href="#m839cc1b560" x="95.125" y="495.543475" style="stroke: #000000; stroke-width: 0.6"/>
      </g>
     </g>
    </g>
    <g id="ytick_11">
     <g id="line2d_103">
      <path d="M 95.125 485.497792 
L 764.725 485.497792 
" clip-path="url(#p507d75ce6a)" style="fill: none; stroke-dasharray: 1.85,0.8; stroke-dashoffset: 0; stroke: #b0b0b0; stroke-opacity: 0.8; stroke-width: 0.5"/>
     </g>
     <g id="line2d_104">
      <g>
       <use xlink:href="#m839cc1b560" x="95.125" y="485.497792" style="stroke: #000000; stroke-width: 0.6"/>
      </g>
     </g>
    </g>
    <g id="ytick_12">
     <g id="line2d_105">
      <path d="M 95.125 465.406428 
L 764.725 465.406428 
" clip-path="url(#p507d75ce6a)" style="fill: none; stroke-dasharray: 1.85,0.8; stroke-dashoffset: 0; stroke: #b0b0b0; stroke-opacity: 0.8; stroke-width: 0.5"/>
     </g>
     <g id="line2d_106">
      <g>
       <use xlink:href="#m839cc1b560" x="95.125" y="465.406428" style="stroke: #000000; stroke-width: 0.6"/>
      </g>
     </g>
    </g>
    <g id="ytick_13">
     <g id="line2d_107">
      <path d="M 95.125 455.360745 
L 764.725 455.360745 
" clip-path="url(#p507d75ce6a)" style="fill: none; stroke-dasharray: 1.85,0.8; stroke-dashoffset: 0; stroke: #b0b0b0; stroke-opacity: 0.8; stroke-width: 0.5"/>
     </g>
     <g id="line2d_108">
      <g>
       <use xlink:href="#m839cc1b560" x="95.125" y="455.360745" style="stroke: #000000; stroke-width: 0.6"/>
      </g>
     </g>
    </g>
    <g id="ytick_14">
     <g id="line2d_109">
      <path d="M 95.125 445.315063 
L 764.725 445.315063 
" clip-path="url(#p507d75ce6a)" style="fill: none; stroke-dasharray: 1.85,0.8; stroke-dashoffset: 0; stroke: #b0b0b0; stroke-opacity: 0.8; stroke-width: 0.5"/>
     </g>
     <g id="line2d_110">
      <g>
       <use xlink:href="#m839cc1b560" x="95.125" y="445.315063" style="stroke: #000000; stroke-width: 0.6"/>
      </g>
     </g>
    </g>
    <g id="ytick_15">
     <g id="line2d_111">
      <path d="M 95.125 435.26938 
L 764.725 435.26938 
" clip-path="url(#p507d75ce6a)" style="fill: none; stroke-dasharray: 1.85,0.8; stroke-dashoffset: 0; stroke: #b0b0b0; stroke-opacity: 0.8; stroke-width: 0.5"/>
     </g>
     <g id="line2d_112">
      <g>
       <use xlink:href="#m839cc1b560" x="95.125" y="435.26938" style="stroke: #000000; stroke-width: 0.6"/>
      </g>
     </g>
    </g>
    <g id="ytick_16">
     <g id="line2d_113">
      <path d="M 95.125 415.178015 
L 764.725 415.178015 
" clip-path="url(#p507d75ce6a)" style="fill: none; stroke-dasharray: 1.85,0.8; stroke-dashoffset: 0; stroke: #b0b0b0; stroke-opacity: 0.8; stroke-width: 0.5"/>
     </g>
     <g id="line2d_114">
      <g>
       <use xlink:href="#m839cc1b560" x="95.125" y="415.178015" style="stroke: #000000; stroke-width: 0.6"/>
      </g>
     </g>
    </g>
    <g id="ytick_17">
     <g id="line2d_115">
      <path d="M 95.125 405.132333 
L 764.725 405.132333 
" clip-path="url(#p507d75ce6a)" style="fill: none; stroke-dasharray: 1.85,0.8; stroke-dashoffset: 0; stroke: #b0b0b0; stroke-opacity: 0.8; stroke-width: 0.5"/>
     </g>
     <g id="line2d_116">
      <g>
       <use xlink:href="#m839cc1b560" x="95.125" y="405.132333" style="stroke: #000000; stroke-width: 0.6"/>
      </g>
     </g>
    </g>
    <g id="ytick_18">
     <g id="line2d_117">
      <path d="M 95.125 395.08665 
L 764.725 395.08665 
" clip-path="url(#p507d75ce6a)" style="fill: none; stroke-dasharray: 1.85,0.8; stroke-dashoffset: 0; stroke: #b0b0b0; stroke-opacity: 0.8; stroke-width: 0.5"/>
     </g>
     <g id="line2d_118">
      <g>
       <use xlink:href="#m839cc1b560" x="95.125" y="395.08665" style="stroke: #000000; stroke-width: 0.6"/>
      </g>
     </g>
    </g>
    <g id="ytick_19">
     <g id="line2d_119">
      <path d="M 95.125 385.040968 
L 764.725 385.040968 
" clip-path="url(#p507d75ce6a)" style="fill: none; stroke-dasharray: 1.85,0.8; stroke-dashoffset: 0; stroke: #b0b0b0; stroke-opacity: 0.8; stroke-width: 0.5"/>
     </g>
     <g id="line2d_120">
      <g>
       <use xlink:href="#m839cc1b560" x="95.125" y="385.040968" style="stroke: #000000; stroke-width: 0.6"/>
      </g>
     </g>
    </g>
    <g id="ytick_20">
     <g id="line2d_121">
      <path d="M 95.125 364.949603 
L 764.725 364.949603 
" clip-path="url(#p507d75ce6a)" style="fill: none; stroke-dasharray: 1.85,0.8; stroke-dashoffset: 0; stroke: #b0b0b0; stroke-opacity: 0.8; stroke-width: 0.5"/>
     </g>
     <g id="line2d_122">
      <g>
       <use xlink:href="#m839cc1b560" x="95.125" y="364.949603" style="stroke: #000000; stroke-width: 0.6"/>
      </g>
     </g>
    </g>
    <g id="ytick_21">
     <g id="line2d_123">
      <path d="M 95.125 354.903921 
L 764.725 354.903921 
" clip-path="url(#p507d75ce6a)" style="fill: none; stroke-dasharray: 1.85,0.8; stroke-dashoffset: 0; stroke: #b0b0b0; stroke-opacity: 0.8; stroke-width: 0.5"/>
     </g>
     <g id="line2d_124">
      <g>
       <use xlink:href="#m839cc1b560" x="95.125" y="354.903921" style="stroke: #000000; stroke-width: 0.6"/>
      </g>
     </g>
    </g>
    <g id="ytick_22">
     <g id="line2d_125">
      <path d="M 95.125 344.858238 
L 764.725 344.858238 
" clip-path="url(#p507d75ce6a)" style="fill: none; stroke-dasharray: 1.85,0.8; stroke-dashoffset: 0; stroke: #b0b0b0; stroke-opacity: 0.8; stroke-width: 0.5"/>
     </g>
     <g id="line2d_126">
      <g>
       <use xlink:href="#m839cc1b560" x="95.125" y="344.858238" style="stroke: #000000; stroke-width: 0.6"/>
      </g>
     </g>
    </g>
    <g id="ytick_23">
     <g id="line2d_127">
      <path d="M 95.125 334.812556 
L 764.725 334.812556 
" clip-path="url(#p507d75ce6a)" style="fill: none; stroke-dasharray: 1.85,0.8; stroke-dashoffset: 0; stroke: #b0b0b0; stroke-opacity: 0.8; stroke-width: 0.5"/>
     </g>
     <g id="line2d_128">
      <g>
       <use xlink:href="#m839cc1b560" x="95.125" y="334.812556" style="stroke: #000000; stroke-width: 0.6"/>
      </g>
     </g>
    </g>
    <g id="ytick_24">
     <g id="line2d_129">
      <path d="M 95.125 314.721191 
L 764.725 314.721191 
" clip-path="url(#p507d75ce6a)" style="fill: none; stroke-dasharray: 1.85,0.8; stroke-dashoffset: 0; stroke: #b0b0b0; stroke-opacity: 0.8; stroke-width: 0.5"/>
     </g>
     <g id="line2d_130">
      <g>
       <use xlink:href="#m839cc1b560" x="95.125" y="314.721191" style="stroke: #000000; stroke-width: 0.6"/>
      </g>
     </g>
    </g>
    <g id="ytick_25">
     <g id="line2d_131">
      <path d="M 95.125 304.675508 
L 764.725 304.675508 
" clip-path="url(#p507d75ce6a)" style="fill: none; stroke-dasharray: 1.85,0.8; stroke-dashoffset: 0; stroke: #b0b0b0; stroke-opacity: 0.8; stroke-width: 0.5"/>
     </g>
     <g id="line2d_132">
      <g>
       <use xlink:href="#m839cc1b560" x="95.125" y="304.675508" style="stroke: #000000; stroke-width: 0.6"/>
      </g>
     </g>
    </g>
    <g id="ytick_26">
     <g id="line2d_133">
      <path d="M 95.125 294.629826 
L 764.725 294.629826 
" clip-path="url(#p507d75ce6a)" style="fill: none; stroke-dasharray: 1.85,0.8; stroke-dashoffset: 0; stroke: #b0b0b0; stroke-opacity: 0.8; stroke-width: 0.5"/>
     </g>
     <g id="line2d_134">
      <g>
       <use xlink:href="#m839cc1b560" x="95.125" y="294.629826" style="stroke: #000000; stroke-width: 0.6"/>
      </g>
     </g>
    </g>
    <g id="ytick_27">
     <g id="line2d_135">
      <path d="M 95.125 284.584143 
L 764.725 284.584143 
" clip-path="url(#p507d75ce6a)" style="fill: none; stroke-dasharray: 1.85,0.8; stroke-dashoffset: 0; stroke: #b0b0b0; stroke-opacity: 0.8; stroke-width: 0.5"/>
     </g>
     <g id="line2d_136">
      <g>
       <use xlink:href="#m839cc1b560" x="95.125" y="284.584143" style="stroke: #000000; stroke-width: 0.6"/>
      </g>
     </g>
    </g>
    <g id="ytick_28">
     <g id="line2d_137">
      <path d="M 95.125 264.492779 
L 764.725 264.492779 
" clip-path="url(#p507d75ce6a)" style="fill: none; stroke-dasharray: 1.85,0.8; stroke-dashoffset: 0; stroke: #b0b0b0; stroke-opacity: 0.8; stroke-width: 0.5"/>
     </g>
     <g id="line2d_138">
      <g>
       <use xlink:href="#m839cc1b560" x="95.125" y="264.492779" style="stroke: #000000; stroke-width: 0.6"/>
      </g>
     </g>
    </g>
    <g id="ytick_29">
     <g id="line2d_139">
      <path d="M 95.125 254.447096 
L 764.725 254.447096 
" clip-path="url(#p507d75ce6a)" style="fill: none; stroke-dasharray: 1.85,0.8; stroke-dashoffset: 0; stroke: #b0b0b0; stroke-opacity: 0.8; stroke-width: 0.5"/>
     </g>
     <g id="line2d_140">
      <g>
       <use xlink:href="#m839cc1b560" x="95.125" y="254.447096" style="stroke: #000000; stroke-width: 0.6"/>
      </g>
     </g>
    </g>
    <g id="ytick_30">
     <g id="line2d_141">
      <path d="M 95.125 244.401414 
L 764.725 244.401414 
" clip-path="url(#p507d75ce6a)" style="fill: none; stroke-dasharray: 1.85,0.8; stroke-dashoffset: 0; stroke: #b0b0b0; stroke-opacity: 0.8; stroke-width: 0.5"/>
     </g>
     <g id="line2d_142">
      <g>
       <use xlink:href="#m839cc1b560" x="95.125" y="244.401414" style="stroke: #000000; stroke-width: 0.6"/>
      </g>
     </g>
    </g>
    <g id="ytick_31">
     <g id="line2d_143">
      <path d="M 95.125 234.355731 
L 764.725 234.355731 
" clip-path="url(#p507d75ce6a)" style="fill: none; stroke-dasharray: 1.85,0.8; stroke-dashoffset: 0; stroke: #b0b0b0; stroke-opacity: 0.8; stroke-width: 0.5"/>
     </g>
     <g id="line2d_144">
      <g>
       <use xlink:href="#m839cc1b560" x="95.125" y="234.355731" style="stroke: #000000; stroke-width: 0.6"/>
      </g>
     </g>
    </g>
    <g id="ytick_32">
     <g id="line2d_145">
      <path d="M 95.125 214.264366 
L 764.725 214.264366 
" clip-path="url(#p507d75ce6a)" style="fill: none; stroke-dasharray: 1.85,0.8; stroke-dashoffset: 0; stroke: #b0b0b0; stroke-opacity: 0.8; stroke-width: 0.5"/>
     </g>
     <g id="line2d_146">
      <g>
       <use xlink:href="#m839cc1b560" x="95.125" y="214.264366" style="stroke: #000000; stroke-width: 0.6"/>
      </g>
     </g>
    </g>
    <g id="ytick_33">
     <g id="line2d_147">
      <path d="M 95.125 204.218684 
L 764.725 204.218684 
" clip-path="url(#p507d75ce6a)" style="fill: none; stroke-dasharray: 1.85,0.8; stroke-dashoffset: 0; stroke: #b0b0b0; stroke-opacity: 0.8; stroke-width: 0.5"/>
     </g>
     <g id="line2d_148">
      <g>
       <use xlink:href="#m839cc1b560" x="95.125" y="204.218684" style="stroke: #000000; stroke-width: 0.6"/>
      </g>
     </g>
    </g>
    <g id="ytick_34">
     <g id="line2d_149">
      <path d="M 95.125 194.173001 
L 764.725 194.173001 
" clip-path="url(#p507d75ce6a)" style="fill: none; stroke-dasharray: 1.85,0.8; stroke-dashoffset: 0; stroke: #b0b0b0; stroke-opacity: 0.8; stroke-width: 0.5"/>
     </g>
     <g id="line2d_150">
      <g>
       <use xlink:href="#m839cc1b560" x="95.125" y="194.173001" style="stroke: #000000; stroke-width: 0.6"/>
      </g>
     </g>
    </g>
    <g id="ytick_35">
     <g id="line2d_151">
      <path d="M 95.125 184.127319 
L 764.725 184.127319 
" clip-path="url(#p507d75ce6a)" style="fill: none; stroke-dasharray: 1.85,0.8; stroke-dashoffset: 0; stroke: #b0b0b0; stroke-opacity: 0.8; stroke-width: 0.5"/>
     </g>
     <g id="line2d_152">
      <g>
       <use xlink:href="#m839cc1b560" x="95.125" y="184.127319" style="stroke: #000000; stroke-width: 0.6"/>
      </g>
     </g>
    </g>
    <g id="ytick_36">
     <g id="line2d_153">
      <path d="M 95.125 164.035954 
L 764.725 164.035954 
" clip-path="url(#p507d75ce6a)" style="fill: none; stroke-dasharray: 1.85,0.8; stroke-dashoffset: 0; stroke: #b0b0b0; stroke-opacity: 0.8; stroke-width: 0.5"/>
     </g>
     <g id="line2d_154">
      <g>
       <use xlink:href="#m839cc1b560" x="95.125" y="164.035954" style="stroke: #000000; stroke-width: 0.6"/>
      </g>
     </g>
    </g>
    <g id="ytick_37">
     <g id="line2d_155">
      <path d="M 95.125 153.990272 
L 764.725 153.990272 
" clip-path="url(#p507d75ce6a)" style="fill: none; stroke-dasharray: 1.85,0.8; stroke-dashoffset: 0; stroke: #b0b0b0; stroke-opacity: 0.8; stroke-width: 0.5"/>
     </g>
     <g id="line2d_156">
      <g>
       <use xlink:href="#m839cc1b560" x="95.125" y="153.990272" style="stroke: #000000; stroke-width: 0.6"/>
      </g>
     </g>
    </g>
    <g id="ytick_38">
     <g id="line2d_157">
      <path d="M 95.125 143.944589 
L 764.725 143.944589 
" clip-path="url(#p507d75ce6a)" style="fill: none; stroke-dasharray: 1.85,0.8; stroke-dashoffset: 0; stroke: #b0b0b0; stroke-opacity: 0.8; stroke-width: 0.5"/>
     </g>
     <g id="line2d_158">
      <g>
       <use xlink:href="#m839cc1b560" x="95.125" y="143.944589" style="stroke: #000000; stroke-width: 0.6"/>
      </g>
     </g>
    </g>
    <g id="ytick_39">
     <g id="line2d_159">
      <path d="M 95.125 133.898907 
L 764.725 133.898907 
" clip-path="url(#p507d75ce6a)" style="fill: none; stroke-dasharray: 1.85,0.8; stroke-dashoffset: 0; stroke: #b0b0b0; stroke-opacity: 0.8; stroke-width: 0.5"/>
     </g>
     <g id="line2d_160">
      <g>
       <use xlink:href="#m839cc1b560" x="95.125" y="133.898907" style="stroke: #000000; stroke-width: 0.6"/>
      </g>
     </g>
    </g>
    <g id="ytick_40">
     <g id="line2d_161">
      <path d="M 95.125 113.807542 
L 764.725 113.807542 
" clip-path="url(#p507d75ce6a)" style="fill: none; stroke-dasharray: 1.85,0.8; stroke-dashoffset: 0; stroke: #b0b0b0; stroke-opacity: 0.8; stroke-width: 0.5"/>
     </g>
     <g id="line2d_162">
      <g>
       <use xlink:href="#m839cc1b560" x="95.125" y="113.807542" style="stroke: #000000; stroke-width: 0.6"/>
      </g>
     </g>
    </g>
    <g id="ytick_41">
     <g id="line2d_163">
      <path d="M 95.125 103.761859 
L 764.725 103.761859 
" clip-path="url(#p507d75ce6a)" style="fill: none; stroke-dasharray: 1.85,0.8; stroke-dashoffset: 0; stroke: #b0b0b0; stroke-opacity: 0.8; stroke-width: 0.5"/>
     </g>
     <g id="line2d_164">
      <g>
       <use xlink:href="#m839cc1b560" x="95.125" y="103.761859" style="stroke: #000000; stroke-width: 0.6"/>
      </g>
     </g>
    </g>
    <g id="ytick_42">
     <g id="line2d_165">
      <path d="M 95.125 93.716177 
L 764.725 93.716177 
" clip-path="url(#p507d75ce6a)" style="fill: none; stroke-dasharray: 1.85,0.8; stroke-dashoffset: 0; stroke: #b0b0b0; stroke-opacity: 0.8; stroke-width: 0.5"/>
     </g>
     <g id="line2d_166">
      <g>
       <use xlink:href="#m839cc1b560" x="95.125" y="93.716177" style="stroke: #000000; stroke-width: 0.6"/>
      </g>
     </g>
    </g>
    <g id="ytick_43">
     <g id="line2d_167">
      <path d="M 95.125 83.670494 
L 764.725 83.670494 
" clip-path="url(#p507d75ce6a)" style="fill: none; stroke-dasharray: 1.85,0.8; stroke-dashoffset: 0; stroke: #b0b0b0; stroke-opacity: 0.8; stroke-width: 0.5"/>
     </g>
     <g id="line2d_168">
      <g>
       <use xlink:href="#m839cc1b560" x="95.125" y="83.670494" style="stroke: #000000; stroke-width: 0.6"/>
      </g>
     </g>
    </g>
    <g id="ytick_44">
     <g id="line2d_169">
      <path d="M 95.125 63.57913 
L 764.725 63.57913 
" clip-path="url(#p507d75ce6a)" style="fill: none; stroke-dasharray: 1.85,0.8; stroke-dashoffset: 0; stroke: #b0b0b0; stroke-opacity: 0.8; stroke-width: 0.5"/>
     </g>
     <g id="line2d_170">
      <g>
       <use xlink:href="#m839cc1b560" x="95.125" y="63.57913" style="stroke: #000000; stroke-width: 0.6"/>
      </g>
     </g>
    </g>
    <g id="text_19">
     <!-- Efficiency (%) -->
     <g transform="translate(49.221875 335.120625) rotate(-90) scale(0.2 -0.2)">
      <defs>
       <path id="AptosDisplay-45" d="M 472 0 
L 472 4206 
L 3153 4206 
L 3153 3738 
L 1034 3738 
L 1034 2397 
L 2984 2397 
L 2984 1934 
L 1034 1934 
L 1034 469 
L 3153 469 
L 3153 0 
L 472 0 
z
" transform="scale(0.015625)"/>
       <path id="AptosDisplay-66" d="M 550 0 
L 550 2622 
L 44 2622 
L 44 3044 
L 550 3044 
L 550 3219 
Q 550 3453 589 3636 
Q 628 3819 728 3947 
Q 828 4075 1004 4140 
Q 1181 4206 1463 4206 
L 1781 4206 
L 1781 3797 
L 1494 3797 
Q 1219 3797 1145 3645 
Q 1072 3494 1072 3209 
L 1072 3044 
L 1775 3044 
L 1775 2622 
L 1072 2622 
L 1072 0 
L 550 0 
z
" transform="scale(0.015625)"/>
       <path id="AptosDisplay-63" d="M 1634 -53 
Q 1234 -53 925 122 
Q 616 297 441 645 
Q 266 994 266 1513 
Q 266 2031 437 2384 
Q 609 2738 917 2916 
Q 1225 3094 1634 3094 
Q 1978 3094 2251 2978 
Q 2525 2863 2689 2630 
Q 2853 2397 2866 2041 
L 2350 2041 
Q 2328 2334 2139 2503 
Q 1950 2672 1644 2672 
Q 1228 2672 1015 2367 
Q 803 2063 803 1513 
Q 803 1150 897 894 
Q 991 638 1178 503 
Q 1366 369 1644 369 
Q 1956 369 2159 541 
Q 2363 713 2372 1047 
L 2884 1047 
Q 2878 681 2711 436 
Q 2544 191 2264 69 
Q 1984 -53 1634 -53 
z
" transform="scale(0.015625)"/>
       <path id="AptosDisplay-6e" d="M 413 0 
L 413 3044 
L 919 3044 
L 931 2575 
Q 1066 2756 1316 2914 
Q 1566 3072 1941 3072 
Q 2428 3072 2637 2781 
Q 2847 2491 2847 1963 
L 2847 0 
L 2328 0 
L 2328 1891 
Q 2328 2106 2286 2275 
Q 2244 2444 2133 2539 
Q 2022 2634 1816 2634 
Q 1500 2634 1283 2482 
Q 1066 2331 934 2156 
L 934 0 
L 413 0 
z
" transform="scale(0.015625)"/>
       <path id="AptosDisplay-79" d="M 266 -1128 
L 266 -697 
L 525 -697 
Q 716 -697 831 -598 
Q 947 -500 1038 -275 
L 1153 0 
L -13 3044 
L 538 3044 
L 1428 553 
L 2250 3044 
L 2781 3044 
L 1688 0 
L 1550 -356 
Q 1441 -647 1314 -815 
Q 1188 -984 1013 -1056 
Q 838 -1128 578 -1128 
L 266 -1128 
z
" transform="scale(0.015625)"/>
       <path id="AptosDisplay-25" d="M 1188 0 
L 3669 4078 
L 4094 4078 
L 1613 0 
L 1188 0 
z
M 1197 1606 
Q 878 1606 679 1765 
Q 481 1925 390 2209 
Q 300 2494 300 2872 
Q 300 3253 390 3536 
Q 481 3819 679 3976 
Q 878 4134 1197 4134 
Q 1519 4134 1716 3976 
Q 1913 3819 2005 3536 
Q 2097 3253 2097 2872 
Q 2097 2494 2005 2209 
Q 1913 1925 1714 1765 
Q 1516 1606 1197 1606 
z
M 1197 1953 
Q 1391 1953 1498 2084 
Q 1606 2216 1648 2425 
Q 1691 2634 1691 2872 
Q 1691 3109 1648 3318 
Q 1606 3528 1498 3658 
Q 1391 3788 1197 3788 
Q 1006 3788 898 3658 
Q 791 3528 748 3318 
Q 706 3109 706 2872 
Q 706 2634 748 2425 
Q 791 2216 898 2084 
Q 1006 1953 1197 1953 
z
M 4084 -53 
Q 3769 -53 3570 105 
Q 3372 263 3281 547 
Q 3191 831 3191 1209 
Q 3191 1591 3281 1873 
Q 3372 2156 3570 2314 
Q 3769 2472 4084 2472 
Q 4406 2472 4604 2315 
Q 4803 2159 4893 1875 
Q 4984 1591 4984 1209 
Q 4984 831 4893 547 
Q 4803 263 4604 105 
Q 4406 -53 4084 -53 
z
M 4084 294 
Q 4281 294 4387 423 
Q 4494 553 4536 761 
Q 4578 969 4578 1209 
Q 4578 1447 4536 1656 
Q 4494 1866 4387 1994 
Q 4281 2122 4084 2122 
Q 3894 2122 3787 1994 
Q 3681 1866 3639 1656 
Q 3597 1447 3597 1209 
Q 3597 969 3639 761 
Q 3681 553 3787 423 
Q 3894 294 4084 294 
z
" transform="scale(0.015625)"/>
      </defs>
      <use xlink:href="#AptosDisplay-45"/>
      <use xlink:href="#AptosDisplay-66" x="54.052734"/>
      <use xlink:href="#AptosDisplay-66" x="82.373047"/>
      <use xlink:href="#AptosDisplay-69" x="110.693359"/>
      <use xlink:href="#AptosDisplay-63" x="131.738281"/>
      <use xlink:href="#AptosDisplay-69" x="181.005859"/>
      <use xlink:href="#AptosDisplay-65" x="202.050781"/>
      <use xlink:href="#AptosDisplay-6e" x="251.464844"/>
      <use xlink:href="#AptosDisplay-63" x="302.050781"/>
      <use xlink:href="#AptosDisplay-79" x="351.318359"/>
      <use xlink:href="#AptosDisplay-20" x="394.580078"/>
      <use xlink:href="#AptosDisplay-28" x="413.867188"/>
      <use xlink:href="#AptosDisplay-25" x="443.310547"/>
      <use xlink:href="#AptosDisplay-29" x="525.830078"/>
     </g>
    </g>
   </g>
   <g id="line2d_171">
    <path d="M 125.561364 216.699683 
L 126.21193 77.9925 
L 126.865765 265.406022 
L 128.173436 265.406022 
L 128.827271 291.281265 
L 130.134942 291.281265 
L 130.788777 265.406022 
L 131.442613 234.355731 
L 132.096448 265.406022 
L 132.750284 265.406022 
L 133.404119 291.281265 
L 134.057954 291.281265 
L 134.71179 265.406022 
L 135.365625 291.281265 
L 137.327131 291.281265 
L 137.980967 331.942361 
L 138.634802 331.942361 
L 139.288637 313.175701 
L 139.942473 331.942361 
L 141.250143 331.942361 
L 141.903979 313.175701 
L 142.557814 313.175701 
L 143.21165 331.942361 
L 143.865485 291.281265 
L 144.51932 331.942361 
L 145.173156 331.942361 
L 145.826991 346.293336 
L 146.480826 348.206799 
L 147.134662 348.206799 
L 147.788497 331.942361 
L 148.442333 346.293336 
L 149.096168 331.942361 
L 149.750003 361.601042 
L 150.403839 348.206799 
L 153.01918 348.206799 
L 153.673016 361.601042 
L 154.326851 331.942361 
L 154.980686 328.630597 
L 155.634522 361.601042 
L 156.288357 348.206799 
L 156.942192 361.601042 
L 157.596028 346.293336 
L 158.249863 361.601042 
L 158.903699 346.293336 
L 159.557534 348.206799 
L 160.211369 346.293336 
L 160.865205 348.206799 
L 161.51904 346.293336 
L 162.172875 348.206799 
L 162.826711 361.601042 
L 163.480546 331.942361 
L 164.134382 313.175701 
L 164.788217 361.601042 
L 165.442052 374.995286 
L 166.095888 361.601042 
L 166.749723 374.995286 
L 167.403558 348.206799 
L 168.057394 348.206799 
L 168.711229 346.293336 
L 169.365065 346.293336 
L 170.0189 348.206799 
L 170.672735 348.206799 
L 171.326571 361.601042 
L 171.980406 348.206799 
L 172.634241 374.995286 
L 173.288077 313.175701 
L 173.941912 331.942361 
L 174.595748 313.175701 
L 175.249583 331.942361 
L 175.903418 361.601042 
L 176.557254 313.175701 
L 177.211089 291.281265 
L 177.864924 346.293336 
L 178.51876 346.293336 
L 179.172595 362.438182 
L 179.826431 348.206799 
L 180.480266 313.175701 
L 181.134101 331.942361 
L 182.441772 291.281265 
L 183.749443 291.281265 
L 184.403278 346.293336 
L 185.057114 313.175701 
L 186.364784 313.175701 
L 187.01862 346.293336 
L 187.672455 331.942361 
L 188.32629 328.630597 
L 188.983395 313.175701 
L 189.63723 313.175701 
L 190.291066 346.293336 
L 190.944901 331.942361 
L 192.252572 331.942361 
L 192.906407 346.293336 
L 193.560243 313.175701 
L 194.214078 328.630597 
L 194.867913 361.601042 
L 195.521749 361.601042 
L 196.175584 331.942361 
L 196.82942 346.293336 
L 197.483255 348.206799 
L 198.13709 348.206799 
L 198.790926 331.942361 
L 199.444761 346.293336 
L 200.098596 331.942361 
L 200.752432 331.942361 
L 201.406267 362.438182 
L 202.060103 331.942361 
L 202.713938 361.601042 
L 203.367773 346.293336 
L 204.021609 361.601042 
L 204.675444 348.206799 
L 205.329279 361.601042 
L 207.290786 361.601042 
L 207.944621 346.293336 
L 208.598456 374.995286 
L 209.252292 361.601042 
L 209.906127 331.942361 
L 210.559962 348.206799 
L 211.213798 361.601042 
L 211.867633 348.206799 
L 212.521469 328.630597 
L 213.175304 361.601042 
L 213.829139 374.995286 
L 214.482975 374.995286 
L 215.13681 361.601042 
L 216.444481 386.813735 
L 217.098316 374.995286 
L 218.405987 374.995286 
L 219.059822 362.438182 
L 220.367493 386.157155 
L 221.021328 374.995286 
L 221.675164 386.157155 
L 222.982835 362.438182 
L 223.63667 362.438182 
L 224.290505 374.995286 
L 226.252011 374.995286 
L 226.905847 362.438182 
L 227.559682 374.995286 
L 228.213518 362.438182 
L 228.867353 362.438182 
L 229.521188 386.157155 
L 230.175024 362.438182 
L 230.828859 386.157155 
L 231.482694 405.132333 
L 232.13653 386.157155 
L 232.790365 386.157155 
L 234.098036 405.132333 
L 234.751871 386.157155 
L 235.405707 413.264552 
L 238.674884 413.264552 
L 239.328719 420.657478 
L 239.982554 413.264552 
L 240.63639 420.657478 
L 241.94406 405.132333 
L 242.597896 420.657478 
L 243.251731 420.657478 
L 243.905567 405.132333 
L 244.559402 396.144091 
L 245.213237 413.264552 
L 245.867073 396.144091 
L 247.174743 396.144091 
L 247.828579 386.157155 
L 249.13625 405.132333 
L 249.790085 386.157155 
L 250.44392 413.264552 
L 251.097756 427.407542 
L 251.751591 420.657478 
L 252.405426 420.657478 
L 253.059262 405.132333 
L 253.713097 420.657478 
L 254.366933 427.407542 
L 255.020768 427.407542 
L 255.674603 413.264552 
L 256.328439 420.657478 
L 256.982274 420.657478 
L 257.636109 413.264552 
L 258.94378 413.264552 
L 259.597616 427.407542 
L 260.251451 396.144091 
L 260.905286 422.831869 
L 261.559122 427.407542 
L 262.212957 413.264552 
L 262.866792 420.657478 
L 263.520628 433.5951 
L 264.174463 409.93679 
L 264.828299 404.760271 
L 265.482134 438.139575 
L 266.135969 463.63366 
L 266.789805 399.104923 
L 267.44364 435.878209 
L 268.097475 459.249396 
L 268.751311 420.657478 
L 269.405146 427.407542 
L 270.058982 413.264552 
L 270.712817 420.657478 
L 271.366652 420.657478 
L 272.020488 433.5951 
L 272.674323 420.657478 
L 273.328158 433.5951 
L 273.981994 439.287653 
L 274.635829 420.657478 
L 275.289665 425.223698 
L 275.9435 437.780801 
L 276.597335 421.875137 
L 277.251171 415.178015 
L 277.905006 443.879965 
L 278.558841 451.533818 
L 279.212677 457.000857 
L 279.866512 460.569618 
L 280.520348 452.269766 
L 281.174183 465.406428 
L 281.828018 451.70777 
L 282.481854 458.709306 
L 283.789524 462.489939 
L 284.44336 449.016104 
L 285.097195 449.016104 
L 285.751031 457.336945 
L 286.404866 457.336945 
L 287.058701 455.360745 
L 287.712537 454.043279 
L 288.366372 451.203911 
L 289.020207 452.012184 
L 289.674043 453.317555 
L 290.327878 454.043279 
L 290.981714 461.101135 
L 291.635549 456.008854 
L 292.289384 453.317555 
L 292.94322 461.101135 
L 293.597055 449.016104 
L 294.25089 466.319671 
L 294.904726 463.533504 
L 295.558561 468.971025 
L 296.212397 470.668452 
L 296.866232 467.217944 
L 297.520067 470.668452 
L 298.173903 468.971025 
L 298.827738 472.312834 
L 299.481573 467.217944 
L 300.135409 481.1925 
L 300.789244 455.360745 
L 301.44308 470.668452 
L 302.096915 460.128188 
L 302.75075 457.336945 
L 303.404586 469.363818 
L 304.058421 460.630611 
L 304.712256 454.667939 
L 305.366092 462.489939 
L 306.019927 462.489939 
L 306.673763 458.709306 
L 307.327598 462.489939 
L 307.981433 458.709306 
L 308.635269 463.924278 
L 309.289104 462.489939 
L 309.942939 463.924278 
L 310.596775 470.815641 
L 311.25061 469.173558 
L 311.904446 462.057867 
L 312.558281 462.057867 
L 313.212116 458.709306 
L 313.865952 463.924278 
L 314.519787 453.925648 
L 315.173622 467.479346 
L 315.827458 451.70777 
L 316.481293 465.730482 
L 317.135129 450.337904 
L 317.788964 444.401819 
L 318.442799 445.491303 
L 319.096635 453.317555 
L 320.404305 453.317555 
L 323.019647 439.574673 
L 323.673482 430.804632 
L 324.327318 448.663623 
L 324.981153 443.101607 
L 325.634988 448.663623 
L 326.288824 446.506923 
L 326.942659 448.663623 
L 327.596495 441.966502 
L 328.25033 441.966502 
L 328.904165 450.749612 
L 329.558001 452.768311 
L 330.211836 444.275854 
L 330.865671 446.506923 
L 331.519507 444.275854 
L 332.173342 444.275854 
L 332.827178 441.966502 
L 333.481013 446.506923 
L 334.134848 441.966502 
L 334.788684 441.966502 
L 335.442519 444.275854 
L 336.096354 448.663623 
L 336.75019 439.574673 
L 337.404025 441.966502 
L 338.057861 446.506923 
L 338.711696 444.275854 
L 339.365531 446.506923 
L 340.019367 456.008854 
L 340.673202 441.966502 
L 341.980873 437.347797 
L 342.634708 429.789917 
L 343.288544 439.696291 
L 343.942379 429.789917 
L 344.596214 443.101607 
L 345.25005 435.986929 
L 345.903885 418.329602 
L 346.55772 459.755731 
L 347.211556 445.491303 
L 347.865391 453.317555 
L 348.519227 455.360745 
L 349.173062 449.912239 
L 349.826897 451.203911 
L 350.480733 436.81487 
L 351.788403 451.203911 
L 352.442239 450.337904 
L 353.096074 443.23011 
L 353.74991 454.667939 
L 354.403745 438.027019 
L 355.05758 462.489939 
L 355.711416 451.70777 
L 356.365251 448.054794 
L 357.019086 445.687125 
L 357.672922 456.065705 
L 358.326757 448.054794 
L 358.980593 441.966502 
L 359.634428 438.027019 
L 360.288263 448.054794 
L 360.942099 450.337904 
L 361.595934 450.337904 
L 362.249769 462.057867 
L 362.903605 445.687125 
L 363.55744 450.337904 
L 364.211276 448.054794 
L 364.865111 458.709306 
L 365.518946 445.687125 
L 366.172782 454.667939 
L 366.826617 452.540904 
L 368.134288 460.630611 
L 368.788123 460.630611 
L 369.441959 451.203911 
L 370.749629 455.360745 
L 371.403465 464.633683 
L 372.714405 444.401819 
L 373.36824 449.016104 
L 374.022075 446.75016 
L 374.675911 441.966502 
L 375.329746 453.317555 
L 375.983582 423.363386 
L 376.637417 439.574673 
L 377.291252 439.574673 
L 377.945088 437.095868 
L 378.598923 439.574673 
L 379.252758 434.525256 
L 379.906594 448.663623 
L 380.560429 444.275854 
L 381.214265 429.087422 
L 381.8681 449.912239 
L 382.521935 434.525256 
L 383.175771 432.399185 
L 383.829606 432.399185 
L 385.137277 439.696291 
L 386.444948 432.399185 
L 387.098783 424.275992 
L 387.752618 429.789917 
L 389.060289 426.075027 
L 389.714124 443.162416 
L 390.36796 445.491303 
L 391.021795 438.245879 
L 391.675631 456.008854 
L 392.329466 454.043279 
L 392.983301 445.491303 
L 393.637137 447.739883 
L 394.290972 440.748843 
L 394.944807 443.162416 
L 395.598643 449.912239 
L 396.252478 445.491303 
L 396.906314 449.912239 
L 397.560149 443.162416 
L 398.213984 443.162416 
L 398.86782 447.739883 
L 399.521655 445.491303 
L 400.17549 447.739883 
L 400.829326 446.75016 
L 401.483161 449.016104 
L 402.136997 446.75016 
L 402.790832 457.336945 
L 403.444667 435.26938 
L 404.098503 440.811826 
L 404.752338 443.101607 
L 405.406173 435.986929 
L 406.060009 435.986929 
L 406.713844 448.663623 
L 407.36768 434.9169 
L 408.021515 426.136942 
L 408.67535 437.347797 
L 409.329186 424.275992 
L 409.983021 427.084009 
L 410.636856 432.399185 
L 411.290692 418.329602 
L 411.944527 430.804632 
L 412.598363 421.359974 
L 413.252198 432.399185 
L 414.559869 427.084009 
L 415.213704 439.696291 
L 415.867539 413.632526 
L 416.521375 416.694345 
L 417.17521 417.49625 
L 417.829046 419.642763 
L 418.482881 413.632526 
L 419.136716 403.697235 
L 419.790552 417.49625 
L 420.444387 411.159742 
L 421.098222 411.159742 
L 421.752058 417.49625 
L 422.405893 409.768802 
L 423.059729 399.596957 
L 423.713564 406.511152 
L 424.367399 406.511152 
L 425.021235 415.92214 
L 425.67507 400.109492 
L 426.328905 409.768802 
L 426.982741 384.127724 
L 427.636576 400.109492 
L 428.290412 419.642763 
L 428.944247 407.141469 
L 429.598082 413.632526 
L 430.251918 407.141469 
L 430.905753 407.797514 
L 431.559588 407.141469 
L 432.213424 410.450635 
L 432.867259 419.642763 
L 433.521095 402.571669 
L 434.17493 409.112698 
L 434.828765 409.112698 
L 435.482601 399.104923 
L 436.136436 399.104923 
L 436.790271 405.905078 
L 437.444107 399.596957 
L 438.097942 399.104923 
L 438.751778 395.496678 
L 440.059448 387.296121 
L 440.713284 398.632185 
L 441.367119 391.068377 
L 442.020954 391.3964 
L 442.67479 387.296121 
L 443.328625 387.296121 
L 443.982461 374.995286 
L 444.636296 398.632185 
L 445.290131 409.768802 
L 445.943967 406.511152 
L 446.597802 409.768802 
L 447.251637 403.123196 
L 447.905473 407.141469 
L 448.559308 395.923791 
L 449.213144 413.632526 
L 449.866979 403.697235 
L 450.520814 388.09835 
L 451.17465 410.450635 
L 451.828485 400.109492 
L 452.48232 392.466038 
L 453.136156 400.109492 
L 453.789991 400.109492 
L 454.443827 396.369078 
L 455.097662 407.141469 
L 455.751497 392.466038 
L 456.405333 410.450635 
L 457.059168 396.369078 
L 457.713003 400.109492 
L 458.366839 400.109492 
L 459.020674 407.141469 
L 459.67451 403.697235 
L 460.328345 403.697235 
L 460.98218 413.632526 
L 461.636016 400.109492 
L 462.943686 407.141469 
L 463.597522 407.141469 
L 464.251357 416.694345 
L 464.905193 411.159742 
L 465.559028 392.466038 
L 466.212863 396.369078 
L 466.866699 407.141469 
L 467.520534 388.389529 
L 468.174369 388.389529 
L 469.48204 413.632526 
L 470.135876 403.123196 
L 470.789711 399.596957 
L 471.443546 407.141469 
L 472.097382 403.123196 
L 472.751217 409.768802 
L 473.405052 403.123196 
L 474.058888 409.768802 
L 474.712723 412.903521 
L 475.366559 409.768802 
L 476.020394 409.768802 
L 476.674229 399.104923 
L 477.328065 421.635954 
L 477.9819 403.123196 
L 478.635735 409.768802 
L 479.289571 412.903521 
L 479.943406 399.596957 
L 480.597242 413.632526 
L 481.251077 406.511152 
L 481.904912 415.92214 
L 482.558748 406.511152 
L 483.212583 412.903521 
L 483.866418 409.768802 
L 484.520254 412.903521 
L 485.174089 421.635954 
L 485.827925 403.123196 
L 486.48176 415.92214 
L 487.135595 406.511152 
L 487.789431 412.903521 
L 488.443266 403.123196 
L 489.097101 415.92214 
L 489.750937 403.123196 
L 490.404772 414.390119 
L 491.058608 423.363386 
L 491.712443 400.643836 
L 492.366278 407.797514 
L 493.020114 417.49625 
L 493.673949 420.485168 
L 494.98162 407.797514 
L 495.635455 430.41974 
L 496.289291 429.789917 
L 496.943126 424.275992 
L 497.596961 428.811442 
L 498.250797 432.399185 
L 499.558467 432.399185 
L 500.212303 424.275992 
L 500.866138 424.275992 
L 501.519974 429.789917 
L 502.173809 427.084009 
L 502.827644 431.392099 
L 503.48148 421.359974 
L 504.135315 429.789917 
L 504.78915 427.084009 
L 505.442986 434.9169 
L 506.096821 437.347797 
L 506.750657 432.399185 
L 507.404492 410.450635 
L 508.058327 416.694345 
L 508.712163 419.642763 
L 510.673669 419.642763 
L 511.327504 416.694345 
L 511.98134 410.450635 
L 512.635175 425.223698 
L 513.28901 422.483966 
L 513.942846 416.694345 
L 515.250516 422.483966 
L 515.904352 427.867298 
L 516.558187 422.483966 
L 517.212023 419.642763 
L 517.865858 426.136942 
L 520.481199 423.363386 
L 521.135035 412.201517 
L 521.78887 409.768802 
L 522.442706 415.92214 
L 523.096541 412.903521 
L 523.750376 415.92214 
L 524.404212 409.768802 
L 525.058047 412.903521 
L 525.711882 415.178015 
L 526.365718 409.768802 
L 527.019553 415.92214 
L 527.673389 409.768802 
L 528.327224 415.92214 
L 528.981059 412.201517 
L 529.634895 426.955712 
L 530.28873 415.92214 
L 530.942565 409.768802 
L 531.596401 412.903521 
L 532.250236 412.903521 
L 532.904072 415.92214 
L 533.557907 409.768802 
L 534.211742 416.694345 
L 534.865578 412.903521 
L 535.519413 412.903521 
L 536.173248 421.635954 
L 536.827084 419.642763 
L 537.480919 403.123196 
L 538.134755 407.141469 
L 538.78859 420.485168 
L 539.442425 409.768802 
L 540.096261 421.635954 
L 540.750096 418.830991 
L 541.403931 429.480343 
L 542.057767 427.867298 
L 543.365438 410.450635 
L 544.019273 412.903521 
L 544.673108 412.201517 
L 545.326944 405.321874 
L 545.980779 408.480894 
L 546.634614 391.3964 
L 547.28845 402.041354 
L 548.596121 395.496678 
L 549.249956 398.632185 
L 549.903791 404.760271 
L 551.211462 397.740227 
L 551.865297 391.068377 
L 552.519133 387.296121 
L 553.172968 398.17763 
L 553.826804 386.813735 
L 555.134474 379.095564 
L 555.78831 386.813735 
L 556.442145 370.720527 
L 557.09925 383.195843 
L 557.753085 366.259909 
L 558.403651 401.53105 
L 559.060756 391.068377 
L 559.714591 383.544802 
L 560.368427 401.53105 
L 561.022262 408.480894 
L 561.676097 391.068377 
L 562.329933 391.3964 
L 562.983768 391.068377 
L 563.637603 391.3964 
L 564.291439 394.692702 
L 564.945274 395.08665 
L 565.59911 398.632185 
L 566.252945 394.692702 
L 566.90678 394.692702 
L 567.560616 398.17763 
L 568.214451 394.692702 
L 568.868286 394.692702 
L 569.522122 391.068377 
L 570.175957 409.112698 
L 570.829793 402.571669 
L 571.483628 412.903521 
L 572.137463 415.92214 
L 572.791299 403.123196 
L 573.445134 406.511152 
L 574.098969 412.201517 
L 574.752805 415.92214 
L 575.40664 399.596957 
L 576.060476 415.92214 
L 576.714311 406.511152 
L 577.368146 383.366688 
L 578.021982 394.692702 
L 578.675817 387.296121 
L 579.329652 402.041354 
L 579.983488 387.552389 
L 580.637323 387.552389 
L 581.291159 383.730662 
L 581.944994 391.73809 
L 582.598829 395.496678 
L 583.252665 395.496678 
L 583.9065 388.09835 
L 584.560335 387.819561 
L 585.214171 392.094319 
L 585.868006 379.561505 
L 586.521842 403.697235 
L 587.175677 388.09835 
L 587.829512 388.389529 
L 588.483348 392.094319 
L 589.137183 383.924781 
L 589.791018 395.923791 
L 591.098689 388.09835 
L 591.752525 396.369078 
L 592.40636 395.923791 
L 593.060195 379.667696 
L 593.714031 407.141469 
L 594.367866 400.643836 
L 595.021701 384.340106 
L 595.675537 392.854277 
L 596.329372 414.390119 
L 596.983208 400.109492 
L 597.637043 419.642763 
L 598.290878 410.450635 
L 598.944714 404.295193 
L 599.598549 416.694345 
L 600.252384 396.369078 
L 600.90622 391.73809 
L 601.560055 406.511152 
L 602.213891 395.496678 
L 602.867726 391.73809 
L 603.521561 412.903521 
L 604.175397 403.697235 
L 604.829232 410.450635 
L 605.483067 403.697235 
L 606.136903 420.485168 
L 606.790738 404.295193 
L 607.444574 404.295193 
L 608.098409 400.109492 
L 608.752244 393.949403 
L 609.40608 391.73809 
L 610.059915 399.596957 
L 610.71375 409.768802 
L 611.367586 395.923791 
L 612.021421 395.923791 
L 612.675257 396.369078 
L 613.329092 404.295193 
L 613.982927 414.390119 
L 614.636763 407.797514 
L 615.290598 403.697235 
L 615.944433 423.363386 
L 616.598269 400.643836 
L 617.252104 411.159742 
L 617.90594 400.109492 
L 618.559775 408.480894 
L 619.21361 430.804632 
L 619.867446 428.066815 
L 620.521281 419.196288 
L 621.175116 415.998071 
L 621.828952 428.066815 
L 622.482787 422.269085 
L 623.136623 426.208569 
L 623.790458 428.066815 
L 624.444293 425.223698 
L 625.098129 415.998071 
L 625.751964 425.223698 
L 626.405799 411.897792 
L 627.059635 411.159742 
L 627.71347 411.159742 
L 628.367306 407.141469 
L 629.021141 411.159742 
L 629.674976 404.295193 
L 630.982647 411.159742 
L 631.636482 416.694345 
L 632.290318 406.511152 
L 632.944153 400.109492 
L 633.597989 403.697235 
L 634.251824 400.109492 
L 634.905659 413.632526 
L 635.559495 396.369078 
L 636.21333 400.109492 
L 636.867165 400.109492 
L 637.521001 410.450635 
L 638.174836 407.141469 
L 638.828672 413.632526 
L 639.482507 407.141469 
L 640.136342 410.450635 
L 640.790178 410.450635 
L 641.444013 403.697235 
L 642.751684 410.450635 
L 643.405519 419.642763 
L 644.059355 400.109492 
L 644.71319 416.694345 
L 645.367025 410.450635 
L 646.020861 407.141469 
L 646.674696 400.109492 
L 647.328531 411.897792 
L 647.982367 411.897792 
L 648.636202 424.275992 
L 649.943873 411.897792 
L 650.597708 418.329602 
L 651.251544 411.897792 
L 651.905379 411.897792 
L 652.559214 424.275992 
L 653.21305 418.329602 
L 654.520721 411.897792 
L 655.174556 424.275992 
L 655.828391 418.329602 
L 656.482227 421.359974 
L 657.136062 429.789917 
L 657.789897 428.066815 
L 658.443733 418.329602 
L 659.097568 425.223698 
L 659.751404 435.986929 
L 660.405239 428.066815 
L 661.059074 438.441701 
L 662.366745 415.998071 
L 663.02058 422.269085 
L 663.674416 438.245879 
L 664.982087 438.245879 
L 665.635922 427.232834 
L 666.289757 431.857639 
L 666.943593 438.245879 
L 667.597428 447.739883 
L 668.251263 445.491303 
L 668.905099 445.491303 
L 669.558934 438.245879 
L 670.21277 432.951146 
L 670.866605 438.245879 
L 671.52044 438.245879 
L 672.174276 437.095868 
L 672.828111 440.748843 
L 673.481946 437.095868 
L 674.135782 440.748843 
L 674.789617 434.525256 
L 675.443453 446.506923 
L 676.097288 434.525256 
L 676.751123 437.095868 
L 677.404959 422.269085 
L 678.058794 426.208569 
L 678.712629 433.442893 
L 679.366465 417.49625 
L 680.0203 428.811442 
L 680.674136 414.390119 
L 681.327971 428.811442 
L 681.981806 428.811442 
L 682.635642 426.136942 
L 683.289477 426.136942 
L 683.943312 428.811442 
L 684.597148 428.811442 
L 685.250983 433.883769 
L 685.904819 428.811442 
L 686.558654 416.694345 
L 687.212489 411.159742 
L 687.866325 417.49625 
L 688.52016 427.084009 
L 689.173995 417.49625 
L 689.827831 424.275992 
L 690.481666 433.883769 
L 691.135502 398.17763 
L 691.789337 412.903521 
L 692.443172 430.41974 
L 693.097008 427.867298 
L 693.750843 415.92214 
L 694.404678 419.642763 
L 695.058514 425.223698 
L 695.712349 426.955712 
L 696.366185 426.955712 
L 697.02002 416.694345 
L 697.673855 415.92214 
L 698.327691 421.635954 
L 698.981526 412.903521 
L 699.635361 419.642763 
L 700.289197 431.920819 
L 700.943032 407.141469 
L 701.596868 416.694345 
L 702.250703 422.483966 
L 702.904538 410.450635 
L 703.558374 413.632526 
L 704.212209 400.109492 
L 704.866044 411.52504 
L 705.51988 408.480894 
L 706.173715 412.201517 
L 706.827551 415.178015 
L 707.481386 405.905078 
L 708.135221 402.041354 
L 708.789057 402.571669 
L 709.442892 415.178015 
L 710.096727 412.201517 
L 710.750563 405.905078 
L 711.404398 412.201517 
L 712.058234 402.571669 
L 712.712069 402.571669 
L 713.365904 418.04821 
L 714.01974 415.178015 
L 714.673575 399.104923 
L 715.32741 415.178015 
L 717.942752 398.17763 
L 719.250423 404.760271 
L 720.558093 398.632185 
L 721.211929 405.321874 
L 721.865764 379.270044 
L 722.5196 418.04821 
L 723.173435 409.768802 
L 723.82727 409.112698 
L 724.481106 406.511152 
L 725.134941 395.496678 
L 725.788776 415.92214 
L 726.442612 406.511152 
L 727.096447 409.768802 
L 727.750283 399.596957 
L 728.404118 407.141469 
L 729.057953 400.109492 
L 729.711789 396.369078 
L 730.365624 400.109492 
L 731.019459 241.052853 
L 731.673295 303.240411 
L 732.32713 331.942361 
L 734.288636 331.942361 
L 734.288636 331.942361 
" clip-path="url(#p507d75ce6a)" style="fill: none; stroke: #ac2b37; stroke-width: 1.5; stroke-linecap: square"/>
   </g>
   <g id="patch_3">
    <path d="M 95.125 501.3525 
L 95.125 57.8325 
" style="fill: none; stroke: #000000; stroke-width: 0.8; stroke-linejoin: miter; stroke-linecap: square"/>
   </g>
   <g id="patch_4">
    <path d="M 764.725 501.3525 
L 764.725 57.8325 
" style="fill: none; stroke: #000000; stroke-width: 0.8; stroke-linejoin: miter; stroke-linecap: square"/>
   </g>
   <g id="patch_5">
    <path d="M 95.125 501.3525 
L 764.725 501.3525 
" style="fill: none; stroke: #000000; stroke-width: 0.8; stroke-linejoin: miter; stroke-linecap: square"/>
   </g>
   <g id="patch_6">
    <path d="M 95.125 57.8325 
L 764.725 57.8325 
" style="fill: none; stroke: #000000; stroke-width: 0.8; stroke-linejoin: miter; stroke-linecap: square"/>
   </g>
   <g id="text_20">
    <!-- Efficiency vs Time -->
    <g transform="translate(343.418125 51.8325) scale(0.24 -0.24)">
     <defs>
      <path id="AptosDisplay-76" d="M 1103 0 
L -13 3044 
L 538 3044 
L 1391 513 
L 2250 3044 
L 2781 3044 
L 1678 0 
L 1103 0 
z
" transform="scale(0.015625)"/>
      <path id="AptosDisplay-73" d="M 1506 -41 
Q 1247 -41 1017 14 
Q 788 69 613 191 
Q 438 313 339 506 
Q 241 700 241 978 
L 744 978 
Q 744 628 966 487 
Q 1188 347 1519 347 
Q 1816 347 2008 458 
Q 2200 569 2200 822 
Q 2200 1047 2026 1153 
Q 1853 1259 1413 1369 
Q 1056 1453 815 1564 
Q 575 1675 453 1845 
Q 331 2016 331 2275 
Q 331 2475 417 2626 
Q 503 2778 658 2879 
Q 813 2981 1020 3032 
Q 1228 3084 1472 3084 
Q 1713 3084 1923 3028 
Q 2134 2972 2296 2855 
Q 2459 2738 2551 2552 
Q 2644 2366 2644 2109 
L 2138 2109 
Q 2138 2425 1945 2558 
Q 1753 2691 1472 2691 
Q 1191 2691 1016 2594 
Q 841 2497 841 2291 
Q 841 2169 919 2084 
Q 997 2000 1181 1933 
Q 1366 1866 1675 1791 
Q 2019 1709 2248 1596 
Q 2478 1484 2595 1306 
Q 2713 1128 2713 847 
Q 2713 616 2622 447 
Q 2531 278 2367 170 
Q 2203 63 1983 11 
Q 1763 -41 1506 -41 
z
" transform="scale(0.015625)"/>
     </defs>
     <use xlink:href="#AptosDisplay-45"/>
     <use xlink:href="#AptosDisplay-66" x="54.052734"/>
     <use xlink:href="#AptosDisplay-66" x="82.373047"/>
     <use xlink:href="#AptosDisplay-69" x="110.693359"/>
     <use xlink:href="#AptosDisplay-63" x="131.738281"/>
     <use xlink:href="#AptosDisplay-69" x="181.005859"/>
     <use xlink:href="#AptosDisplay-65" x="202.050781"/>
     <use xlink:href="#AptosDisplay-6e" x="251.464844"/>
     <use xlink:href="#AptosDisplay-63" x="302.050781"/>
     <use xlink:href="#AptosDisplay-79" x="351.318359"/>
     <use xlink:href="#AptosDisplay-20" x="394.580078"/>
     <use xlink:href="#AptosDisplay-76" x="413.867188"/>
     <use xlink:href="#AptosDisplay-73" x="457.128906"/>
     <use xlink:href="#AptosDisplay-20" x="503.417969"/>
     <use xlink:href="#AptosDisplay-54" x="522.705078"/>
     <use xlink:href="#AptosDisplay-69" x="570.410156"/>
     <use xlink:href="#AptosDisplay-6d" x="591.455078"/>
     <use xlink:href="#AptosDisplay-65" x="671.435547"/>
    </g>
   </g>
  </g>
 </g>
 <defs>
  <clipPath id="p507d75ce6a">
   <rect x="95.125" y="57.8325" width="669.6" height="443.52"/>
  </clipPath>
 </defs>
</svg>
