<?xml version="1.0" encoding="utf-8" standalone="no"?>
<!DOCTYPE svg PUBLIC "-//W3C//DTD SVG 1.1//EN"
  "http://www.w3.org/Graphics/SVG/1.1/DTD/svg11.dtd">
<svg xmlns:xlink="http://www.w3.org/1999/xlink" width="800.88125pt" height="581.830625pt" viewBox="0 0 800.88125 581.830625" xmlns="http://www.w3.org/2000/svg" version="1.1">
 <metadata>
  <rdf:RDF xmlns:dc="http://purl.org/dc/elements/1.1/" xmlns:cc="http://creativecommons.org/ns#" xmlns:rdf="http://www.w3.org/1999/02/22-rdf-syntax-ns#">
   <cc:Work>
    <dc:type rdf:resource="http://purl.org/dc/dcmitype/StillImage"/>
    <dc:date>2025-04-03T01:48:10.915616</dc:date>
    <dc:format>image/svg+xml</dc:format>
    <dc:creator>
     <cc:Agent>
      <dc:title>Matplotlib v3.8.2, https://matplotlib.org/</dc:title>
     </cc:Agent>
    </dc:creator>
   </cc:Work>
  </rdf:RDF>
 </metadata>
 <defs>
  <style type="text/css">*{stroke-linejoin: round; stroke-linecap: butt}</style>
 </defs>
 <g id="figure_1">
  <g id="patch_1">
   <path d="M 0 581.830625 
L 800.88125 581.830625 
L 800.88125 0 
L 0 0 
z
" style="fill: #ffffff"/>
  </g>
  <g id="axes_1">
   <g id="patch_2">
    <path d="M 95.28125 501.3525 
L 764.88125 501.3525 
L 764.88125 57.8325 
L 95.28125 57.8325 
z
" style="fill: #ffffff"/>
   </g>
   <g id="matplotlib.axis_1">
    <g id="xtick_1">
     <g id="line2d_1">
      <path d="M 125.014741 501.3525 
L 125.014741 57.8325 
" clip-path="url(#pc7978f5638)" style="fill: none; stroke: #b0b0b0; stroke-opacity: 0.8; stroke-linecap: square"/>
     </g>
     <g id="line2d_2">
      <defs>
       <path id="m09d1285eff" d="M 0 0 
L 0 3.5 
" style="stroke: #000000; stroke-width: 0.8"/>
      </defs>
      <g>
       <use xlink:href="#m09d1285eff" x="125.014741" y="501.3525" style="stroke: #000000; stroke-width: 0.8"/>
      </g>
     </g>
     <g id="text_1">
      <!-- 0 -->
      <g transform="translate(119.785053 521.49625) scale(0.2 -0.2)">
       <defs>
        <path id="AptosDisplay-30" d="M 1672 -56 
Q 1291 -56 1028 105 
Q 766 266 605 552 
Q 444 838 372 1216 
Q 300 1594 300 2031 
Q 300 2475 372 2856 
Q 444 3238 605 3525 
Q 766 3813 1028 3973 
Q 1291 4134 1672 4134 
Q 2053 4134 2317 3975 
Q 2581 3816 2742 3527 
Q 2903 3238 2975 2858 
Q 3047 2478 3047 2038 
Q 3047 1597 2975 1217 
Q 2903 838 2742 552 
Q 2581 266 2318 105 
Q 2056 -56 1672 -56 
z
M 1672 409 
Q 1916 409 2073 550 
Q 2231 691 2322 925 
Q 2413 1159 2448 1448 
Q 2484 1738 2484 2038 
Q 2484 2338 2448 2628 
Q 2413 2919 2322 3153 
Q 2231 3388 2073 3527 
Q 1916 3666 1669 3666 
Q 1428 3666 1268 3527 
Q 1109 3388 1020 3153 
Q 931 2919 893 2628 
Q 856 2338 856 2038 
Q 856 1741 893 1450 
Q 931 1159 1020 925 
Q 1109 691 1268 550 
Q 1428 409 1672 409 
z
" transform="scale(0.015625)"/>
       </defs>
       <use xlink:href="#AptosDisplay-30"/>
      </g>
     </g>
    </g>
    <g id="xtick_2">
     <g id="line2d_3">
      <path d="M 206.744163 501.3525 
L 206.744163 57.8325 
" clip-path="url(#pc7978f5638)" style="fill: none; stroke: #b0b0b0; stroke-opacity: 0.8; stroke-linecap: square"/>
     </g>
     <g id="line2d_4">
      <g>
       <use xlink:href="#m09d1285eff" x="206.744163" y="501.3525" style="stroke: #000000; stroke-width: 0.8"/>
      </g>
     </g>
     <g id="text_2">
      <!-- 25 -->
      <g transform="translate(196.284788 521.49625) scale(0.2 -0.2)">
       <defs>
        <path id="AptosDisplay-32" d="M 247 0 
L 247 413 
L 1725 1741 
Q 2100 2081 2269 2351 
Q 2438 2622 2438 2938 
Q 2438 3256 2263 3461 
Q 2088 3666 1691 3666 
Q 1247 3666 1055 3439 
Q 863 3213 863 2869 
L 341 2869 
Q 341 3250 491 3534 
Q 641 3819 941 3975 
Q 1241 4131 1691 4131 
Q 2103 4131 2390 3986 
Q 2678 3841 2828 3578 
Q 2978 3316 2978 2959 
Q 2978 2638 2853 2375 
Q 2728 2113 2517 1883 
Q 2306 1653 2044 1425 
L 959 463 
L 3097 463 
L 3097 0 
L 247 0 
z
" transform="scale(0.015625)"/>
        <path id="AptosDisplay-35" d="M 1669 -56 
Q 1278 -56 964 83 
Q 650 222 465 483 
Q 281 744 281 1113 
L 816 1113 
Q 816 778 1055 584 
Q 1294 391 1669 391 
Q 2069 391 2291 625 
Q 2513 859 2513 1319 
Q 2513 1772 2291 1989 
Q 2069 2206 1697 2206 
Q 1409 2206 1223 2123 
Q 1038 2041 916 1894 
L 444 1894 
L 622 4078 
L 2788 4078 
L 2788 3613 
L 1041 3613 
L 931 2322 
Q 1044 2453 1251 2550 
Q 1459 2647 1775 2647 
Q 2131 2647 2420 2506 
Q 2709 2366 2881 2072 
Q 3053 1778 3053 1319 
Q 3053 863 2875 558 
Q 2697 253 2384 98 
Q 2072 -56 1669 -56 
z
" transform="scale(0.015625)"/>
       </defs>
       <use xlink:href="#AptosDisplay-32"/>
       <use xlink:href="#AptosDisplay-35" x="52.294922"/>
      </g>
     </g>
    </g>
    <g id="xtick_3">
     <g id="line2d_5">
      <path d="M 288.473584 501.3525 
L 288.473584 57.8325 
" clip-path="url(#pc7978f5638)" style="fill: none; stroke: #b0b0b0; stroke-opacity: 0.8; stroke-linecap: square"/>
     </g>
     <g id="line2d_6">
      <g>
       <use xlink:href="#m09d1285eff" x="288.473584" y="501.3525" style="stroke: #000000; stroke-width: 0.8"/>
      </g>
     </g>
     <g id="text_3">
      <!-- 50 -->
      <g transform="translate(278.014209 521.49625) scale(0.2 -0.2)">
       <use xlink:href="#AptosDisplay-35"/>
       <use xlink:href="#AptosDisplay-30" x="52.294922"/>
      </g>
     </g>
    </g>
    <g id="xtick_4">
     <g id="line2d_7">
      <path d="M 370.203006 501.3525 
L 370.203006 57.8325 
" clip-path="url(#pc7978f5638)" style="fill: none; stroke: #b0b0b0; stroke-opacity: 0.8; stroke-linecap: square"/>
     </g>
     <g id="line2d_8">
      <g>
       <use xlink:href="#m09d1285eff" x="370.203006" y="501.3525" style="stroke: #000000; stroke-width: 0.8"/>
      </g>
     </g>
     <g id="text_4">
      <!-- 75 -->
      <g transform="translate(359.743631 521.49625) scale(0.2 -0.2)">
       <defs>
        <path id="AptosDisplay-37" d="M 766 0 
L 2609 3600 
L 194 3600 
L 194 4078 
L 3141 4078 
L 3141 3622 
L 1334 0 
L 766 0 
z
" transform="scale(0.015625)"/>
       </defs>
       <use xlink:href="#AptosDisplay-37"/>
       <use xlink:href="#AptosDisplay-35" x="52.294922"/>
      </g>
     </g>
    </g>
    <g id="xtick_5">
     <g id="line2d_9">
      <path d="M 451.932428 501.3525 
L 451.932428 57.8325 
" clip-path="url(#pc7978f5638)" style="fill: none; stroke: #b0b0b0; stroke-opacity: 0.8; stroke-linecap: square"/>
     </g>
     <g id="line2d_10">
      <g>
       <use xlink:href="#m09d1285eff" x="451.932428" y="501.3525" style="stroke: #000000; stroke-width: 0.8"/>
      </g>
     </g>
     <g id="text_5">
      <!-- 100 -->
      <g transform="translate(436.243366 521.49625) scale(0.2 -0.2)">
       <defs>
        <path id="AptosDisplay-31" d="M 1659 0 
L 1659 3425 
Q 1575 3309 1420 3201 
Q 1266 3094 1052 3009 
Q 838 2925 578 2888 
L 578 3381 
Q 834 3425 1057 3540 
Q 1281 3656 1453 3806 
Q 1625 3956 1719 4094 
L 2206 4094 
L 2206 0 
L 1659 0 
z
" transform="scale(0.015625)"/>
       </defs>
       <use xlink:href="#AptosDisplay-31"/>
       <use xlink:href="#AptosDisplay-30" x="52.294922"/>
       <use xlink:href="#AptosDisplay-30" x="104.589844"/>
      </g>
     </g>
    </g>
    <g id="xtick_6">
     <g id="line2d_11">
      <path d="M 533.66185 501.3525 
L 533.66185 57.8325 
" clip-path="url(#pc7978f5638)" style="fill: none; stroke: #b0b0b0; stroke-opacity: 0.8; stroke-linecap: square"/>
     </g>
     <g id="line2d_12">
      <g>
       <use xlink:href="#m09d1285eff" x="533.66185" y="501.3525" style="stroke: #000000; stroke-width: 0.8"/>
      </g>
     </g>
     <g id="text_6">
      <!-- 125 -->
      <g transform="translate(517.972788 521.49625) scale(0.2 -0.2)">
       <use xlink:href="#AptosDisplay-31"/>
       <use xlink:href="#AptosDisplay-32" x="52.294922"/>
       <use xlink:href="#AptosDisplay-35" x="104.589844"/>
      </g>
     </g>
    </g>
    <g id="xtick_7">
     <g id="line2d_13">
      <path d="M 615.391272 501.3525 
L 615.391272 57.8325 
" clip-path="url(#pc7978f5638)" style="fill: none; stroke: #b0b0b0; stroke-opacity: 0.8; stroke-linecap: square"/>
     </g>
     <g id="line2d_14">
      <g>
       <use xlink:href="#m09d1285eff" x="615.391272" y="501.3525" style="stroke: #000000; stroke-width: 0.8"/>
      </g>
     </g>
     <g id="text_7">
      <!-- 150 -->
      <g transform="translate(599.70221 521.49625) scale(0.2 -0.2)">
       <use xlink:href="#AptosDisplay-31"/>
       <use xlink:href="#AptosDisplay-35" x="52.294922"/>
       <use xlink:href="#AptosDisplay-30" x="104.589844"/>
      </g>
     </g>
    </g>
    <g id="xtick_8">
     <g id="line2d_15">
      <path d="M 697.120694 501.3525 
L 697.120694 57.8325 
" clip-path="url(#pc7978f5638)" style="fill: none; stroke: #b0b0b0; stroke-opacity: 0.8; stroke-linecap: square"/>
     </g>
     <g id="line2d_16">
      <g>
       <use xlink:href="#m09d1285eff" x="697.120694" y="501.3525" style="stroke: #000000; stroke-width: 0.8"/>
      </g>
     </g>
     <g id="text_8">
      <!-- 175 -->
      <g transform="translate(681.431631 521.49625) scale(0.2 -0.2)">
       <use xlink:href="#AptosDisplay-31"/>
       <use xlink:href="#AptosDisplay-37" x="52.294922"/>
       <use xlink:href="#AptosDisplay-35" x="104.589844"/>
      </g>
     </g>
    </g>
    <g id="xtick_9">
     <g id="line2d_17">
      <path d="M 108.668856 501.3525 
L 108.668856 57.8325 
" clip-path="url(#pc7978f5638)" style="fill: none; stroke-dasharray: 1.85,0.8; stroke-dashoffset: 0; stroke: #b0b0b0; stroke-opacity: 0.8; stroke-width: 0.5"/>
     </g>
     <g id="line2d_18">
      <defs>
       <path id="mb7268a734a" d="M 0 0 
L 0 2 
" style="stroke: #000000; stroke-width: 0.6"/>
      </defs>
      <g>
       <use xlink:href="#mb7268a734a" x="108.668856" y="501.3525" style="stroke: #000000; stroke-width: 0.6"/>
      </g>
     </g>
    </g>
    <g id="xtick_10">
     <g id="line2d_19">
      <path d="M 141.360625 501.3525 
L 141.360625 57.8325 
" clip-path="url(#pc7978f5638)" style="fill: none; stroke-dasharray: 1.85,0.8; stroke-dashoffset: 0; stroke: #b0b0b0; stroke-opacity: 0.8; stroke-width: 0.5"/>
     </g>
     <g id="line2d_20">
      <g>
       <use xlink:href="#mb7268a734a" x="141.360625" y="501.3525" style="stroke: #000000; stroke-width: 0.6"/>
      </g>
     </g>
    </g>
    <g id="xtick_11">
     <g id="line2d_21">
      <path d="M 157.706509 501.3525 
L 157.706509 57.8325 
" clip-path="url(#pc7978f5638)" style="fill: none; stroke-dasharray: 1.85,0.8; stroke-dashoffset: 0; stroke: #b0b0b0; stroke-opacity: 0.8; stroke-width: 0.5"/>
     </g>
     <g id="line2d_22">
      <g>
       <use xlink:href="#mb7268a734a" x="157.706509" y="501.3525" style="stroke: #000000; stroke-width: 0.6"/>
      </g>
     </g>
    </g>
    <g id="xtick_12">
     <g id="line2d_23">
      <path d="M 174.052394 501.3525 
L 174.052394 57.8325 
" clip-path="url(#pc7978f5638)" style="fill: none; stroke-dasharray: 1.85,0.8; stroke-dashoffset: 0; stroke: #b0b0b0; stroke-opacity: 0.8; stroke-width: 0.5"/>
     </g>
     <g id="line2d_24">
      <g>
       <use xlink:href="#mb7268a734a" x="174.052394" y="501.3525" style="stroke: #000000; stroke-width: 0.6"/>
      </g>
     </g>
    </g>
    <g id="xtick_13">
     <g id="line2d_25">
      <path d="M 190.398278 501.3525 
L 190.398278 57.8325 
" clip-path="url(#pc7978f5638)" style="fill: none; stroke-dasharray: 1.85,0.8; stroke-dashoffset: 0; stroke: #b0b0b0; stroke-opacity: 0.8; stroke-width: 0.5"/>
     </g>
     <g id="line2d_26">
      <g>
       <use xlink:href="#mb7268a734a" x="190.398278" y="501.3525" style="stroke: #000000; stroke-width: 0.6"/>
      </g>
     </g>
    </g>
    <g id="xtick_14">
     <g id="line2d_27">
      <path d="M 223.090047 501.3525 
L 223.090047 57.8325 
" clip-path="url(#pc7978f5638)" style="fill: none; stroke-dasharray: 1.85,0.8; stroke-dashoffset: 0; stroke: #b0b0b0; stroke-opacity: 0.8; stroke-width: 0.5"/>
     </g>
     <g id="line2d_28">
      <g>
       <use xlink:href="#mb7268a734a" x="223.090047" y="501.3525" style="stroke: #000000; stroke-width: 0.6"/>
      </g>
     </g>
    </g>
    <g id="xtick_15">
     <g id="line2d_29">
      <path d="M 239.435931 501.3525 
L 239.435931 57.8325 
" clip-path="url(#pc7978f5638)" style="fill: none; stroke-dasharray: 1.85,0.8; stroke-dashoffset: 0; stroke: #b0b0b0; stroke-opacity: 0.8; stroke-width: 0.5"/>
     </g>
     <g id="line2d_30">
      <g>
       <use xlink:href="#mb7268a734a" x="239.435931" y="501.3525" style="stroke: #000000; stroke-width: 0.6"/>
      </g>
     </g>
    </g>
    <g id="xtick_16">
     <g id="line2d_31">
      <path d="M 255.781816 501.3525 
L 255.781816 57.8325 
" clip-path="url(#pc7978f5638)" style="fill: none; stroke-dasharray: 1.85,0.8; stroke-dashoffset: 0; stroke: #b0b0b0; stroke-opacity: 0.8; stroke-width: 0.5"/>
     </g>
     <g id="line2d_32">
      <g>
       <use xlink:href="#mb7268a734a" x="255.781816" y="501.3525" style="stroke: #000000; stroke-width: 0.6"/>
      </g>
     </g>
    </g>
    <g id="xtick_17">
     <g id="line2d_33">
      <path d="M 272.1277 501.3525 
L 272.1277 57.8325 
" clip-path="url(#pc7978f5638)" style="fill: none; stroke-dasharray: 1.85,0.8; stroke-dashoffset: 0; stroke: #b0b0b0; stroke-opacity: 0.8; stroke-width: 0.5"/>
     </g>
     <g id="line2d_34">
      <g>
       <use xlink:href="#mb7268a734a" x="272.1277" y="501.3525" style="stroke: #000000; stroke-width: 0.6"/>
      </g>
     </g>
    </g>
    <g id="xtick_18">
     <g id="line2d_35">
      <path d="M 304.819469 501.3525 
L 304.819469 57.8325 
" clip-path="url(#pc7978f5638)" style="fill: none; stroke-dasharray: 1.85,0.8; stroke-dashoffset: 0; stroke: #b0b0b0; stroke-opacity: 0.8; stroke-width: 0.5"/>
     </g>
     <g id="line2d_36">
      <g>
       <use xlink:href="#mb7268a734a" x="304.819469" y="501.3525" style="stroke: #000000; stroke-width: 0.6"/>
      </g>
     </g>
    </g>
    <g id="xtick_19">
     <g id="line2d_37">
      <path d="M 321.165353 501.3525 
L 321.165353 57.8325 
" clip-path="url(#pc7978f5638)" style="fill: none; stroke-dasharray: 1.85,0.8; stroke-dashoffset: 0; stroke: #b0b0b0; stroke-opacity: 0.8; stroke-width: 0.5"/>
     </g>
     <g id="line2d_38">
      <g>
       <use xlink:href="#mb7268a734a" x="321.165353" y="501.3525" style="stroke: #000000; stroke-width: 0.6"/>
      </g>
     </g>
    </g>
    <g id="xtick_20">
     <g id="line2d_39">
      <path d="M 337.511238 501.3525 
L 337.511238 57.8325 
" clip-path="url(#pc7978f5638)" style="fill: none; stroke-dasharray: 1.85,0.8; stroke-dashoffset: 0; stroke: #b0b0b0; stroke-opacity: 0.8; stroke-width: 0.5"/>
     </g>
     <g id="line2d_40">
      <g>
       <use xlink:href="#mb7268a734a" x="337.511238" y="501.3525" style="stroke: #000000; stroke-width: 0.6"/>
      </g>
     </g>
    </g>
    <g id="xtick_21">
     <g id="line2d_41">
      <path d="M 353.857122 501.3525 
L 353.857122 57.8325 
" clip-path="url(#pc7978f5638)" style="fill: none; stroke-dasharray: 1.85,0.8; stroke-dashoffset: 0; stroke: #b0b0b0; stroke-opacity: 0.8; stroke-width: 0.5"/>
     </g>
     <g id="line2d_42">
      <g>
       <use xlink:href="#mb7268a734a" x="353.857122" y="501.3525" style="stroke: #000000; stroke-width: 0.6"/>
      </g>
     </g>
    </g>
    <g id="xtick_22">
     <g id="line2d_43">
      <path d="M 386.548891 501.3525 
L 386.548891 57.8325 
" clip-path="url(#pc7978f5638)" style="fill: none; stroke-dasharray: 1.85,0.8; stroke-dashoffset: 0; stroke: #b0b0b0; stroke-opacity: 0.8; stroke-width: 0.5"/>
     </g>
     <g id="line2d_44">
      <g>
       <use xlink:href="#mb7268a734a" x="386.548891" y="501.3525" style="stroke: #000000; stroke-width: 0.6"/>
      </g>
     </g>
    </g>
    <g id="xtick_23">
     <g id="line2d_45">
      <path d="M 402.894775 501.3525 
L 402.894775 57.8325 
" clip-path="url(#pc7978f5638)" style="fill: none; stroke-dasharray: 1.85,0.8; stroke-dashoffset: 0; stroke: #b0b0b0; stroke-opacity: 0.8; stroke-width: 0.5"/>
     </g>
     <g id="line2d_46">
      <g>
       <use xlink:href="#mb7268a734a" x="402.894775" y="501.3525" style="stroke: #000000; stroke-width: 0.6"/>
      </g>
     </g>
    </g>
    <g id="xtick_24">
     <g id="line2d_47">
      <path d="M 419.240659 501.3525 
L 419.240659 57.8325 
" clip-path="url(#pc7978f5638)" style="fill: none; stroke-dasharray: 1.85,0.8; stroke-dashoffset: 0; stroke: #b0b0b0; stroke-opacity: 0.8; stroke-width: 0.5"/>
     </g>
     <g id="line2d_48">
      <g>
       <use xlink:href="#mb7268a734a" x="419.240659" y="501.3525" style="stroke: #000000; stroke-width: 0.6"/>
      </g>
     </g>
    </g>
    <g id="xtick_25">
     <g id="line2d_49">
      <path d="M 435.586544 501.3525 
L 435.586544 57.8325 
" clip-path="url(#pc7978f5638)" style="fill: none; stroke-dasharray: 1.85,0.8; stroke-dashoffset: 0; stroke: #b0b0b0; stroke-opacity: 0.8; stroke-width: 0.5"/>
     </g>
     <g id="line2d_50">
      <g>
       <use xlink:href="#mb7268a734a" x="435.586544" y="501.3525" style="stroke: #000000; stroke-width: 0.6"/>
      </g>
     </g>
    </g>
    <g id="xtick_26">
     <g id="line2d_51">
      <path d="M 468.278313 501.3525 
L 468.278313 57.8325 
" clip-path="url(#pc7978f5638)" style="fill: none; stroke-dasharray: 1.85,0.8; stroke-dashoffset: 0; stroke: #b0b0b0; stroke-opacity: 0.8; stroke-width: 0.5"/>
     </g>
     <g id="line2d_52">
      <g>
       <use xlink:href="#mb7268a734a" x="468.278313" y="501.3525" style="stroke: #000000; stroke-width: 0.6"/>
      </g>
     </g>
    </g>
    <g id="xtick_27">
     <g id="line2d_53">
      <path d="M 484.624197 501.3525 
L 484.624197 57.8325 
" clip-path="url(#pc7978f5638)" style="fill: none; stroke-dasharray: 1.85,0.8; stroke-dashoffset: 0; stroke: #b0b0b0; stroke-opacity: 0.8; stroke-width: 0.5"/>
     </g>
     <g id="line2d_54">
      <g>
       <use xlink:href="#mb7268a734a" x="484.624197" y="501.3525" style="stroke: #000000; stroke-width: 0.6"/>
      </g>
     </g>
    </g>
    <g id="xtick_28">
     <g id="line2d_55">
      <path d="M 500.970081 501.3525 
L 500.970081 57.8325 
" clip-path="url(#pc7978f5638)" style="fill: none; stroke-dasharray: 1.85,0.8; stroke-dashoffset: 0; stroke: #b0b0b0; stroke-opacity: 0.8; stroke-width: 0.5"/>
     </g>
     <g id="line2d_56">
      <g>
       <use xlink:href="#mb7268a734a" x="500.970081" y="501.3525" style="stroke: #000000; stroke-width: 0.6"/>
      </g>
     </g>
    </g>
    <g id="xtick_29">
     <g id="line2d_57">
      <path d="M 517.315966 501.3525 
L 517.315966 57.8325 
" clip-path="url(#pc7978f5638)" style="fill: none; stroke-dasharray: 1.85,0.8; stroke-dashoffset: 0; stroke: #b0b0b0; stroke-opacity: 0.8; stroke-width: 0.5"/>
     </g>
     <g id="line2d_58">
      <g>
       <use xlink:href="#mb7268a734a" x="517.315966" y="501.3525" style="stroke: #000000; stroke-width: 0.6"/>
      </g>
     </g>
    </g>
    <g id="xtick_30">
     <g id="line2d_59">
      <path d="M 550.007735 501.3525 
L 550.007735 57.8325 
" clip-path="url(#pc7978f5638)" style="fill: none; stroke-dasharray: 1.85,0.8; stroke-dashoffset: 0; stroke: #b0b0b0; stroke-opacity: 0.8; stroke-width: 0.5"/>
     </g>
     <g id="line2d_60">
      <g>
       <use xlink:href="#mb7268a734a" x="550.007735" y="501.3525" style="stroke: #000000; stroke-width: 0.6"/>
      </g>
     </g>
    </g>
    <g id="xtick_31">
     <g id="line2d_61">
      <path d="M 566.353619 501.3525 
L 566.353619 57.8325 
" clip-path="url(#pc7978f5638)" style="fill: none; stroke-dasharray: 1.85,0.8; stroke-dashoffset: 0; stroke: #b0b0b0; stroke-opacity: 0.8; stroke-width: 0.5"/>
     </g>
     <g id="line2d_62">
      <g>
       <use xlink:href="#mb7268a734a" x="566.353619" y="501.3525" style="stroke: #000000; stroke-width: 0.6"/>
      </g>
     </g>
    </g>
    <g id="xtick_32">
     <g id="line2d_63">
      <path d="M 582.699503 501.3525 
L 582.699503 57.8325 
" clip-path="url(#pc7978f5638)" style="fill: none; stroke-dasharray: 1.85,0.8; stroke-dashoffset: 0; stroke: #b0b0b0; stroke-opacity: 0.8; stroke-width: 0.5"/>
     </g>
     <g id="line2d_64">
      <g>
       <use xlink:href="#mb7268a734a" x="582.699503" y="501.3525" style="stroke: #000000; stroke-width: 0.6"/>
      </g>
     </g>
    </g>
    <g id="xtick_33">
     <g id="line2d_65">
      <path d="M 599.045388 501.3525 
L 599.045388 57.8325 
" clip-path="url(#pc7978f5638)" style="fill: none; stroke-dasharray: 1.85,0.8; stroke-dashoffset: 0; stroke: #b0b0b0; stroke-opacity: 0.8; stroke-width: 0.5"/>
     </g>
     <g id="line2d_66">
      <g>
       <use xlink:href="#mb7268a734a" x="599.045388" y="501.3525" style="stroke: #000000; stroke-width: 0.6"/>
      </g>
     </g>
    </g>
    <g id="xtick_34">
     <g id="line2d_67">
      <path d="M 631.737156 501.3525 
L 631.737156 57.8325 
" clip-path="url(#pc7978f5638)" style="fill: none; stroke-dasharray: 1.85,0.8; stroke-dashoffset: 0; stroke: #b0b0b0; stroke-opacity: 0.8; stroke-width: 0.5"/>
     </g>
     <g id="line2d_68">
      <g>
       <use xlink:href="#mb7268a734a" x="631.737156" y="501.3525" style="stroke: #000000; stroke-width: 0.6"/>
      </g>
     </g>
    </g>
    <g id="xtick_35">
     <g id="line2d_69">
      <path d="M 648.083041 501.3525 
L 648.083041 57.8325 
" clip-path="url(#pc7978f5638)" style="fill: none; stroke-dasharray: 1.85,0.8; stroke-dashoffset: 0; stroke: #b0b0b0; stroke-opacity: 0.8; stroke-width: 0.5"/>
     </g>
     <g id="line2d_70">
      <g>
       <use xlink:href="#mb7268a734a" x="648.083041" y="501.3525" style="stroke: #000000; stroke-width: 0.6"/>
      </g>
     </g>
    </g>
    <g id="xtick_36">
     <g id="line2d_71">
      <path d="M 664.428925 501.3525 
L 664.428925 57.8325 
" clip-path="url(#pc7978f5638)" style="fill: none; stroke-dasharray: 1.85,0.8; stroke-dashoffset: 0; stroke: #b0b0b0; stroke-opacity: 0.8; stroke-width: 0.5"/>
     </g>
     <g id="line2d_72">
      <g>
       <use xlink:href="#mb7268a734a" x="664.428925" y="501.3525" style="stroke: #000000; stroke-width: 0.6"/>
      </g>
     </g>
    </g>
    <g id="xtick_37">
     <g id="line2d_73">
      <path d="M 680.77481 501.3525 
L 680.77481 57.8325 
" clip-path="url(#pc7978f5638)" style="fill: none; stroke-dasharray: 1.85,0.8; stroke-dashoffset: 0; stroke: #b0b0b0; stroke-opacity: 0.8; stroke-width: 0.5"/>
     </g>
     <g id="line2d_74">
      <g>
       <use xlink:href="#mb7268a734a" x="680.77481" y="501.3525" style="stroke: #000000; stroke-width: 0.6"/>
      </g>
     </g>
    </g>
    <g id="xtick_38">
     <g id="line2d_75">
      <path d="M 713.466578 501.3525 
L 713.466578 57.8325 
" clip-path="url(#pc7978f5638)" style="fill: none; stroke-dasharray: 1.85,0.8; stroke-dashoffset: 0; stroke: #b0b0b0; stroke-opacity: 0.8; stroke-width: 0.5"/>
     </g>
     <g id="line2d_76">
      <g>
       <use xlink:href="#mb7268a734a" x="713.466578" y="501.3525" style="stroke: #000000; stroke-width: 0.6"/>
      </g>
     </g>
    </g>
    <g id="xtick_39">
     <g id="line2d_77">
      <path d="M 729.812463 501.3525 
L 729.812463 57.8325 
" clip-path="url(#pc7978f5638)" style="fill: none; stroke-dasharray: 1.85,0.8; stroke-dashoffset: 0; stroke: #b0b0b0; stroke-opacity: 0.8; stroke-width: 0.5"/>
     </g>
     <g id="line2d_78">
      <g>
       <use xlink:href="#mb7268a734a" x="729.812463" y="501.3525" style="stroke: #000000; stroke-width: 0.6"/>
      </g>
     </g>
    </g>
    <g id="xtick_40">
     <g id="line2d_79">
      <path d="M 746.158347 501.3525 
L 746.158347 57.8325 
" clip-path="url(#pc7978f5638)" style="fill: none; stroke-dasharray: 1.85,0.8; stroke-dashoffset: 0; stroke: #b0b0b0; stroke-opacity: 0.8; stroke-width: 0.5"/>
     </g>
     <g id="line2d_80">
      <g>
       <use xlink:href="#mb7268a734a" x="746.158347" y="501.3525" style="stroke: #000000; stroke-width: 0.6"/>
      </g>
     </g>
    </g>
    <g id="xtick_41">
     <g id="line2d_81">
      <path d="M 762.504231 501.3525 
L 762.504231 57.8325 
" clip-path="url(#pc7978f5638)" style="fill: none; stroke-dasharray: 1.85,0.8; stroke-dashoffset: 0; stroke: #b0b0b0; stroke-opacity: 0.8; stroke-width: 0.5"/>
     </g>
     <g id="line2d_82">
      <g>
       <use xlink:href="#mb7268a734a" x="762.504231" y="501.3525" style="stroke: #000000; stroke-width: 0.6"/>
      </g>
     </g>
    </g>
    <g id="text_9">
     <!-- Time (S) -->
     <g transform="translate(396.990625 542.305625) scale(0.2 -0.2)">
      <defs>
       <path id="AptosDisplay-54" d="M 1244 0 
L 1244 3734 
L 50 3734 
L 50 4206 
L 2997 4206 
L 2997 3734 
L 1806 3734 
L 1806 0 
L 1244 0 
z
" transform="scale(0.015625)"/>
       <path id="AptosDisplay-69" d="M 413 0 
L 413 3044 
L 934 3044 
L 934 0 
L 413 0 
z
M 675 3616 
Q 525 3616 437 3702 
Q 350 3788 350 3919 
Q 350 4050 437 4136 
Q 525 4222 675 4222 
Q 822 4222 912 4136 
Q 1003 4050 1003 3919 
Q 1003 3788 912 3702 
Q 822 3616 675 3616 
z
" transform="scale(0.015625)"/>
       <path id="AptosDisplay-6d" d="M 413 0 
L 413 3044 
L 919 3044 
L 931 2575 
Q 1063 2756 1303 2914 
Q 1544 3072 1903 3072 
Q 2403 3072 2618 2778 
Q 2834 2484 2834 1963 
L 2834 0 
L 2316 0 
L 2316 1891 
Q 2316 2106 2275 2275 
Q 2234 2444 2120 2539 
Q 2006 2634 1788 2634 
Q 1488 2634 1277 2482 
Q 1066 2331 934 2156 
L 934 0 
L 413 0 
z
M 4206 0 
L 4206 1891 
Q 4206 2106 4164 2275 
Q 4122 2444 4009 2539 
Q 3897 2634 3681 2634 
Q 3381 2634 3165 2484 
Q 2950 2334 2822 2159 
L 2744 2544 
Q 2916 2741 3175 2906 
Q 3434 3072 3800 3072 
Q 4291 3072 4509 2778 
Q 4728 2484 4728 1963 
L 4728 0 
L 4206 0 
z
" transform="scale(0.015625)"/>
       <path id="AptosDisplay-65" d="M 1663 -56 
Q 1188 -56 878 151 
Q 569 359 417 717 
Q 266 1075 266 1522 
Q 266 1988 412 2342 
Q 559 2697 857 2897 
Q 1156 3097 1606 3097 
Q 2209 3097 2550 2722 
Q 2891 2347 2891 1644 
Q 2891 1597 2889 1533 
Q 2888 1469 2881 1441 
L 791 1441 
Q 794 1144 881 895 
Q 969 647 1161 497 
Q 1353 347 1663 347 
Q 1997 347 2183 511 
Q 2369 675 2378 984 
L 2894 984 
Q 2884 663 2732 430 
Q 2581 197 2309 70 
Q 2038 -56 1663 -56 
z
M 794 1822 
L 2375 1822 
Q 2366 2247 2166 2472 
Q 1966 2697 1606 2697 
Q 1241 2697 1036 2473 
Q 831 2250 794 1822 
z
" transform="scale(0.015625)"/>
       <path id="AptosDisplay-20" transform="scale(0.015625)"/>
       <path id="AptosDisplay-28" d="M 1219 -1116 
Q 969 -678 787 -267 
Q 606 144 511 581 
Q 416 1019 416 1528 
Q 416 2028 509 2486 
Q 603 2944 783 3378 
Q 963 3813 1219 4231 
L 1647 4231 
Q 1278 3600 1101 2886 
Q 925 2172 925 1428 
Q 925 766 1125 103 
Q 1325 -559 1647 -1116 
L 1219 -1116 
z
" transform="scale(0.015625)"/>
       <path id="AptosDisplay-53" d="M 1778 -56 
Q 1328 -56 962 81 
Q 597 219 384 512 
Q 172 806 172 1275 
L 734 1275 
Q 738 941 883 750 
Q 1028 559 1267 481 
Q 1506 403 1794 403 
Q 2063 403 2283 483 
Q 2503 563 2634 723 
Q 2766 884 2766 1134 
Q 2766 1356 2662 1497 
Q 2559 1638 2321 1742 
Q 2084 1847 1678 1950 
Q 1203 2075 897 2223 
Q 591 2372 442 2594 
Q 294 2816 294 3156 
Q 294 3516 462 3761 
Q 631 4006 945 4134 
Q 1259 4263 1697 4263 
Q 2103 4263 2440 4131 
Q 2778 4000 2979 3737 
Q 3181 3475 3181 3084 
L 2616 3084 
Q 2622 3441 2356 3623 
Q 2091 3806 1700 3806 
Q 1300 3806 1073 3645 
Q 847 3484 847 3175 
Q 847 2991 944 2867 
Q 1041 2744 1280 2644 
Q 1519 2544 1941 2434 
Q 2428 2303 2731 2153 
Q 3034 2003 3178 1768 
Q 3322 1534 3322 1153 
Q 3322 747 3117 480 
Q 2913 213 2564 78 
Q 2216 -56 1778 -56 
z
" transform="scale(0.015625)"/>
       <path id="AptosDisplay-29" d="M 234 -1116 
Q 609 -481 786 233 
Q 963 947 963 1694 
Q 963 2356 759 3015 
Q 556 3675 234 4231 
L 663 4231 
Q 919 3800 1098 3389 
Q 1278 2978 1373 2540 
Q 1469 2103 1469 1594 
Q 1469 1094 1375 634 
Q 1281 175 1100 -259 
Q 919 -694 663 -1116 
L 234 -1116 
z
" transform="scale(0.015625)"/>
      </defs>
      <use xlink:href="#AptosDisplay-54"/>
      <use xlink:href="#AptosDisplay-69" x="47.705078"/>
      <use xlink:href="#AptosDisplay-6d" x="68.75"/>
      <use xlink:href="#AptosDisplay-65" x="148.730469"/>
      <use xlink:href="#AptosDisplay-20" x="198.144531"/>
      <use xlink:href="#AptosDisplay-28" x="217.431641"/>
      <use xlink:href="#AptosDisplay-53" x="246.875"/>
      <use xlink:href="#AptosDisplay-29" x="301.464844"/>
     </g>
    </g>
   </g>
   <g id="matplotlib.axis_2">
    <g id="ytick_1">
     <g id="line2d_83">
      <path d="M 95.28125 482.87416 
L 764.88125 482.87416 
" clip-path="url(#pc7978f5638)" style="fill: none; stroke: #b0b0b0; stroke-opacity: 0.8; stroke-linecap: square"/>
     </g>
     <g id="line2d_84">
      <defs>
       <path id="m54d8543499" d="M 0 0 
L -3.5 0 
" style="stroke: #000000; stroke-width: 0.8"/>
      </defs>
      <g>
       <use xlink:href="#m54d8543499" x="95.28125" y="482.87416" style="stroke: #000000; stroke-width: 0.8"/>
      </g>
     </g>
     <g id="text_10">
      <!-- 900 -->
      <g transform="translate(56.903125 489.446035) scale(0.2 -0.2)">
       <defs>
        <path id="AptosDisplay-39" d="M 1547 -56 
Q 1200 -56 926 64 
Q 653 184 481 415 
Q 309 647 256 978 
L 788 978 
Q 834 713 1029 552 
Q 1225 391 1547 391 
Q 2022 391 2294 778 
Q 2566 1166 2566 2019 
L 2566 2197 
Q 2566 2753 2439 3079 
Q 2313 3406 2102 3547 
Q 1891 3688 1634 3688 
Q 1206 3688 998 3433 
Q 791 3178 791 2800 
Q 791 2422 991 2203 
Q 1191 1984 1547 1984 
Q 1831 1984 2045 2071 
Q 2259 2159 2417 2300 
Q 2575 2441 2681 2594 
L 2731 2209 
Q 2609 2038 2432 1884 
Q 2256 1731 2020 1634 
Q 1784 1538 1484 1538 
Q 1122 1538 842 1683 
Q 563 1828 405 2108 
Q 247 2388 247 2784 
Q 247 3175 414 3479 
Q 581 3784 892 3959 
Q 1203 4134 1631 4134 
Q 2056 4134 2389 3926 
Q 2722 3719 2914 3262 
Q 3106 2806 3106 2066 
Q 3106 1338 2912 869 
Q 2719 400 2369 172 
Q 2019 -56 1547 -56 
z
" transform="scale(0.015625)"/>
       </defs>
       <use xlink:href="#AptosDisplay-39"/>
       <use xlink:href="#AptosDisplay-30" x="52.294922"/>
       <use xlink:href="#AptosDisplay-30" x="104.589844"/>
      </g>
     </g>
    </g>
    <g id="ytick_2">
     <g id="line2d_85">
      <path d="M 95.28125 409.117162 
L 764.88125 409.117162 
" clip-path="url(#pc7978f5638)" style="fill: none; stroke: #b0b0b0; stroke-opacity: 0.8; stroke-linecap: square"/>
     </g>
     <g id="line2d_86">
      <g>
       <use xlink:href="#m54d8543499" x="95.28125" y="409.117162" style="stroke: #000000; stroke-width: 0.8"/>
      </g>
     </g>
     <g id="text_11">
      <!-- 910 -->
      <g transform="translate(56.903125 415.689037) scale(0.2 -0.2)">
       <use xlink:href="#AptosDisplay-39"/>
       <use xlink:href="#AptosDisplay-31" x="52.294922"/>
       <use xlink:href="#AptosDisplay-30" x="104.589844"/>
      </g>
     </g>
    </g>
    <g id="ytick_3">
     <g id="line2d_87">
      <path d="M 95.28125 335.360165 
L 764.88125 335.360165 
" clip-path="url(#pc7978f5638)" style="fill: none; stroke: #b0b0b0; stroke-opacity: 0.8; stroke-linecap: square"/>
     </g>
     <g id="line2d_88">
      <g>
       <use xlink:href="#m54d8543499" x="95.28125" y="335.360165" style="stroke: #000000; stroke-width: 0.8"/>
      </g>
     </g>
     <g id="text_12">
      <!-- 920 -->
      <g transform="translate(56.903125 341.93204) scale(0.2 -0.2)">
       <use xlink:href="#AptosDisplay-39"/>
       <use xlink:href="#AptosDisplay-32" x="52.294922"/>
       <use xlink:href="#AptosDisplay-30" x="104.589844"/>
      </g>
     </g>
    </g>
    <g id="ytick_4">
     <g id="line2d_89">
      <path d="M 95.28125 261.603168 
L 764.88125 261.603168 
" clip-path="url(#pc7978f5638)" style="fill: none; stroke: #b0b0b0; stroke-opacity: 0.8; stroke-linecap: square"/>
     </g>
     <g id="line2d_90">
      <g>
       <use xlink:href="#m54d8543499" x="95.28125" y="261.603168" style="stroke: #000000; stroke-width: 0.8"/>
      </g>
     </g>
     <g id="text_13">
      <!-- 930 -->
      <g transform="translate(56.903125 268.175043) scale(0.2 -0.2)">
       <defs>
        <path id="AptosDisplay-33" d="M 1700 -56 
Q 1047 -56 655 275 
Q 263 606 263 1225 
L 781 1225 
Q 781 844 1023 617 
Q 1266 391 1697 391 
Q 2094 391 2322 581 
Q 2550 772 2550 1172 
Q 2550 1556 2297 1737 
Q 2044 1919 1609 1919 
L 1366 1919 
L 1366 2363 
L 1622 2363 
Q 2013 2363 2222 2555 
Q 2431 2747 2431 3066 
Q 2431 3372 2226 3526 
Q 2022 3681 1684 3681 
Q 1306 3681 1095 3481 
Q 884 3281 891 2956 
L 372 2956 
Q 372 3319 536 3583 
Q 700 3847 995 3990 
Q 1291 4134 1681 4134 
Q 2031 4134 2318 4017 
Q 2606 3900 2778 3670 
Q 2950 3441 2950 3097 
Q 2950 2738 2745 2498 
Q 2541 2259 2206 2166 
Q 2591 2097 2841 1836 
Q 3091 1575 3091 1150 
Q 3091 763 2916 494 
Q 2741 225 2428 84 
Q 2116 -56 1700 -56 
z
" transform="scale(0.015625)"/>
       </defs>
       <use xlink:href="#AptosDisplay-39"/>
       <use xlink:href="#AptosDisplay-33" x="52.294922"/>
       <use xlink:href="#AptosDisplay-30" x="104.589844"/>
      </g>
     </g>
    </g>
    <g id="ytick_5">
     <g id="line2d_91">
      <path d="M 95.28125 187.846171 
L 764.88125 187.846171 
" clip-path="url(#pc7978f5638)" style="fill: none; stroke: #b0b0b0; stroke-opacity: 0.8; stroke-linecap: square"/>
     </g>
     <g id="line2d_92">
      <g>
       <use xlink:href="#m54d8543499" x="95.28125" y="187.846171" style="stroke: #000000; stroke-width: 0.8"/>
      </g>
     </g>
     <g id="text_14">
      <!-- 940 -->
      <g transform="translate(56.903125 194.418046) scale(0.2 -0.2)">
       <defs>
        <path id="AptosDisplay-34" d="M 2106 0 
L 2106 825 
L 125 825 
L 125 1297 
L 2100 4103 
L 2631 4103 
L 2631 1284 
L 3191 1284 
L 3191 825 
L 2631 825 
L 2631 0 
L 2106 0 
z
M 638 1284 
L 2113 1284 
L 2113 3369 
L 638 1284 
z
" transform="scale(0.015625)"/>
       </defs>
       <use xlink:href="#AptosDisplay-39"/>
       <use xlink:href="#AptosDisplay-34" x="52.294922"/>
       <use xlink:href="#AptosDisplay-30" x="104.589844"/>
      </g>
     </g>
    </g>
    <g id="ytick_6">
     <g id="line2d_93">
      <path d="M 95.28125 114.089174 
L 764.88125 114.089174 
" clip-path="url(#pc7978f5638)" style="fill: none; stroke: #b0b0b0; stroke-opacity: 0.8; stroke-linecap: square"/>
     </g>
     <g id="line2d_94">
      <g>
       <use xlink:href="#m54d8543499" x="95.28125" y="114.089174" style="stroke: #000000; stroke-width: 0.8"/>
      </g>
     </g>
     <g id="text_15">
      <!-- 950 -->
      <g transform="translate(56.903125 120.661049) scale(0.2 -0.2)">
       <use xlink:href="#AptosDisplay-39"/>
       <use xlink:href="#AptosDisplay-35" x="52.294922"/>
       <use xlink:href="#AptosDisplay-30" x="104.589844"/>
      </g>
     </g>
    </g>
    <g id="ytick_7">
     <g id="line2d_95">
      <path d="M 95.28125 497.625559 
L 764.88125 497.625559 
" clip-path="url(#pc7978f5638)" style="fill: none; stroke-dasharray: 1.85,0.8; stroke-dashoffset: 0; stroke: #b0b0b0; stroke-opacity: 0.8; stroke-width: 0.5"/>
     </g>
     <g id="line2d_96">
      <defs>
       <path id="m45d6b429cf" d="M 0 0 
L -2 0 
" style="stroke: #000000; stroke-width: 0.6"/>
      </defs>
      <g>
       <use xlink:href="#m45d6b429cf" x="95.28125" y="497.625559" style="stroke: #000000; stroke-width: 0.6"/>
      </g>
     </g>
    </g>
    <g id="ytick_8">
     <g id="line2d_97">
      <path d="M 95.28125 468.12276 
L 764.88125 468.12276 
" clip-path="url(#pc7978f5638)" style="fill: none; stroke-dasharray: 1.85,0.8; stroke-dashoffset: 0; stroke: #b0b0b0; stroke-opacity: 0.8; stroke-width: 0.5"/>
     </g>
     <g id="line2d_98">
      <g>
       <use xlink:href="#m45d6b429cf" x="95.28125" y="468.12276" style="stroke: #000000; stroke-width: 0.6"/>
      </g>
     </g>
    </g>
    <g id="ytick_9">
     <g id="line2d_99">
      <path d="M 95.28125 453.371361 
L 764.88125 453.371361 
" clip-path="url(#pc7978f5638)" style="fill: none; stroke-dasharray: 1.85,0.8; stroke-dashoffset: 0; stroke: #b0b0b0; stroke-opacity: 0.8; stroke-width: 0.5"/>
     </g>
     <g id="line2d_100">
      <g>
       <use xlink:href="#m45d6b429cf" x="95.28125" y="453.371361" style="stroke: #000000; stroke-width: 0.6"/>
      </g>
     </g>
    </g>
    <g id="ytick_10">
     <g id="line2d_101">
      <path d="M 95.28125 438.619961 
L 764.88125 438.619961 
" clip-path="url(#pc7978f5638)" style="fill: none; stroke-dasharray: 1.85,0.8; stroke-dashoffset: 0; stroke: #b0b0b0; stroke-opacity: 0.8; stroke-width: 0.5"/>
     </g>
     <g id="line2d_102">
      <g>
       <use xlink:href="#m45d6b429cf" x="95.28125" y="438.619961" style="stroke: #000000; stroke-width: 0.6"/>
      </g>
     </g>
    </g>
    <g id="ytick_11">
     <g id="line2d_103">
      <path d="M 95.28125 423.868562 
L 764.88125 423.868562 
" clip-path="url(#pc7978f5638)" style="fill: none; stroke-dasharray: 1.85,0.8; stroke-dashoffset: 0; stroke: #b0b0b0; stroke-opacity: 0.8; stroke-width: 0.5"/>
     </g>
     <g id="line2d_104">
      <g>
       <use xlink:href="#m45d6b429cf" x="95.28125" y="423.868562" style="stroke: #000000; stroke-width: 0.6"/>
      </g>
     </g>
    </g>
    <g id="ytick_12">
     <g id="line2d_105">
      <path d="M 95.28125 394.365763 
L 764.88125 394.365763 
" clip-path="url(#pc7978f5638)" style="fill: none; stroke-dasharray: 1.85,0.8; stroke-dashoffset: 0; stroke: #b0b0b0; stroke-opacity: 0.8; stroke-width: 0.5"/>
     </g>
     <g id="line2d_106">
      <g>
       <use xlink:href="#m45d6b429cf" x="95.28125" y="394.365763" style="stroke: #000000; stroke-width: 0.6"/>
      </g>
     </g>
    </g>
    <g id="ytick_13">
     <g id="line2d_107">
      <path d="M 95.28125 379.614364 
L 764.88125 379.614364 
" clip-path="url(#pc7978f5638)" style="fill: none; stroke-dasharray: 1.85,0.8; stroke-dashoffset: 0; stroke: #b0b0b0; stroke-opacity: 0.8; stroke-width: 0.5"/>
     </g>
     <g id="line2d_108">
      <g>
       <use xlink:href="#m45d6b429cf" x="95.28125" y="379.614364" style="stroke: #000000; stroke-width: 0.6"/>
      </g>
     </g>
    </g>
    <g id="ytick_14">
     <g id="line2d_109">
      <path d="M 95.28125 364.862964 
L 764.88125 364.862964 
" clip-path="url(#pc7978f5638)" style="fill: none; stroke-dasharray: 1.85,0.8; stroke-dashoffset: 0; stroke: #b0b0b0; stroke-opacity: 0.8; stroke-width: 0.5"/>
     </g>
     <g id="line2d_110">
      <g>
       <use xlink:href="#m45d6b429cf" x="95.28125" y="364.862964" style="stroke: #000000; stroke-width: 0.6"/>
      </g>
     </g>
    </g>
    <g id="ytick_15">
     <g id="line2d_111">
      <path d="M 95.28125 350.111565 
L 764.88125 350.111565 
" clip-path="url(#pc7978f5638)" style="fill: none; stroke-dasharray: 1.85,0.8; stroke-dashoffset: 0; stroke: #b0b0b0; stroke-opacity: 0.8; stroke-width: 0.5"/>
     </g>
     <g id="line2d_112">
      <g>
       <use xlink:href="#m45d6b429cf" x="95.28125" y="350.111565" style="stroke: #000000; stroke-width: 0.6"/>
      </g>
     </g>
    </g>
    <g id="ytick_16">
     <g id="line2d_113">
      <path d="M 95.28125 320.608766 
L 764.88125 320.608766 
" clip-path="url(#pc7978f5638)" style="fill: none; stroke-dasharray: 1.85,0.8; stroke-dashoffset: 0; stroke: #b0b0b0; stroke-opacity: 0.8; stroke-width: 0.5"/>
     </g>
     <g id="line2d_114">
      <g>
       <use xlink:href="#m45d6b429cf" x="95.28125" y="320.608766" style="stroke: #000000; stroke-width: 0.6"/>
      </g>
     </g>
    </g>
    <g id="ytick_17">
     <g id="line2d_115">
      <path d="M 95.28125 305.857367 
L 764.88125 305.857367 
" clip-path="url(#pc7978f5638)" style="fill: none; stroke-dasharray: 1.85,0.8; stroke-dashoffset: 0; stroke: #b0b0b0; stroke-opacity: 0.8; stroke-width: 0.5"/>
     </g>
     <g id="line2d_116">
      <g>
       <use xlink:href="#m45d6b429cf" x="95.28125" y="305.857367" style="stroke: #000000; stroke-width: 0.6"/>
      </g>
     </g>
    </g>
    <g id="ytick_18">
     <g id="line2d_117">
      <path d="M 95.28125 291.105967 
L 764.88125 291.105967 
" clip-path="url(#pc7978f5638)" style="fill: none; stroke-dasharray: 1.85,0.8; stroke-dashoffset: 0; stroke: #b0b0b0; stroke-opacity: 0.8; stroke-width: 0.5"/>
     </g>
     <g id="line2d_118">
      <g>
       <use xlink:href="#m45d6b429cf" x="95.28125" y="291.105967" style="stroke: #000000; stroke-width: 0.6"/>
      </g>
     </g>
    </g>
    <g id="ytick_19">
     <g id="line2d_119">
      <path d="M 95.28125 276.354568 
L 764.88125 276.354568 
" clip-path="url(#pc7978f5638)" style="fill: none; stroke-dasharray: 1.85,0.8; stroke-dashoffset: 0; stroke: #b0b0b0; stroke-opacity: 0.8; stroke-width: 0.5"/>
     </g>
     <g id="line2d_120">
      <g>
       <use xlink:href="#m45d6b429cf" x="95.28125" y="276.354568" style="stroke: #000000; stroke-width: 0.6"/>
      </g>
     </g>
    </g>
    <g id="ytick_20">
     <g id="line2d_121">
      <path d="M 95.28125 246.851769 
L 764.88125 246.851769 
" clip-path="url(#pc7978f5638)" style="fill: none; stroke-dasharray: 1.85,0.8; stroke-dashoffset: 0; stroke: #b0b0b0; stroke-opacity: 0.8; stroke-width: 0.5"/>
     </g>
     <g id="line2d_122">
      <g>
       <use xlink:href="#m45d6b429cf" x="95.28125" y="246.851769" style="stroke: #000000; stroke-width: 0.6"/>
      </g>
     </g>
    </g>
    <g id="ytick_21">
     <g id="line2d_123">
      <path d="M 95.28125 232.10037 
L 764.88125 232.10037 
" clip-path="url(#pc7978f5638)" style="fill: none; stroke-dasharray: 1.85,0.8; stroke-dashoffset: 0; stroke: #b0b0b0; stroke-opacity: 0.8; stroke-width: 0.5"/>
     </g>
     <g id="line2d_124">
      <g>
       <use xlink:href="#m45d6b429cf" x="95.28125" y="232.10037" style="stroke: #000000; stroke-width: 0.6"/>
      </g>
     </g>
    </g>
    <g id="ytick_22">
     <g id="line2d_125">
      <path d="M 95.28125 217.34897 
L 764.88125 217.34897 
" clip-path="url(#pc7978f5638)" style="fill: none; stroke-dasharray: 1.85,0.8; stroke-dashoffset: 0; stroke: #b0b0b0; stroke-opacity: 0.8; stroke-width: 0.5"/>
     </g>
     <g id="line2d_126">
      <g>
       <use xlink:href="#m45d6b429cf" x="95.28125" y="217.34897" style="stroke: #000000; stroke-width: 0.6"/>
      </g>
     </g>
    </g>
    <g id="ytick_23">
     <g id="line2d_127">
      <path d="M 95.28125 202.597571 
L 764.88125 202.597571 
" clip-path="url(#pc7978f5638)" style="fill: none; stroke-dasharray: 1.85,0.8; stroke-dashoffset: 0; stroke: #b0b0b0; stroke-opacity: 0.8; stroke-width: 0.5"/>
     </g>
     <g id="line2d_128">
      <g>
       <use xlink:href="#m45d6b429cf" x="95.28125" y="202.597571" style="stroke: #000000; stroke-width: 0.6"/>
      </g>
     </g>
    </g>
    <g id="ytick_24">
     <g id="line2d_129">
      <path d="M 95.28125 173.094772 
L 764.88125 173.094772 
" clip-path="url(#pc7978f5638)" style="fill: none; stroke-dasharray: 1.85,0.8; stroke-dashoffset: 0; stroke: #b0b0b0; stroke-opacity: 0.8; stroke-width: 0.5"/>
     </g>
     <g id="line2d_130">
      <g>
       <use xlink:href="#m45d6b429cf" x="95.28125" y="173.094772" style="stroke: #000000; stroke-width: 0.6"/>
      </g>
     </g>
    </g>
    <g id="ytick_25">
     <g id="line2d_131">
      <path d="M 95.28125 158.343373 
L 764.88125 158.343373 
" clip-path="url(#pc7978f5638)" style="fill: none; stroke-dasharray: 1.85,0.8; stroke-dashoffset: 0; stroke: #b0b0b0; stroke-opacity: 0.8; stroke-width: 0.5"/>
     </g>
     <g id="line2d_132">
      <g>
       <use xlink:href="#m45d6b429cf" x="95.28125" y="158.343373" style="stroke: #000000; stroke-width: 0.6"/>
      </g>
     </g>
    </g>
    <g id="ytick_26">
     <g id="line2d_133">
      <path d="M 95.28125 143.591973 
L 764.88125 143.591973 
" clip-path="url(#pc7978f5638)" style="fill: none; stroke-dasharray: 1.85,0.8; stroke-dashoffset: 0; stroke: #b0b0b0; stroke-opacity: 0.8; stroke-width: 0.5"/>
     </g>
     <g id="line2d_134">
      <g>
       <use xlink:href="#m45d6b429cf" x="95.28125" y="143.591973" style="stroke: #000000; stroke-width: 0.6"/>
      </g>
     </g>
    </g>
    <g id="ytick_27">
     <g id="line2d_135">
      <path d="M 95.28125 128.840574 
L 764.88125 128.840574 
" clip-path="url(#pc7978f5638)" style="fill: none; stroke-dasharray: 1.85,0.8; stroke-dashoffset: 0; stroke: #b0b0b0; stroke-opacity: 0.8; stroke-width: 0.5"/>
     </g>
     <g id="line2d_136">
      <g>
       <use xlink:href="#m45d6b429cf" x="95.28125" y="128.840574" style="stroke: #000000; stroke-width: 0.6"/>
      </g>
     </g>
    </g>
    <g id="ytick_28">
     <g id="line2d_137">
      <path d="M 95.28125 99.337775 
L 764.88125 99.337775 
" clip-path="url(#pc7978f5638)" style="fill: none; stroke-dasharray: 1.85,0.8; stroke-dashoffset: 0; stroke: #b0b0b0; stroke-opacity: 0.8; stroke-width: 0.5"/>
     </g>
     <g id="line2d_138">
      <g>
       <use xlink:href="#m45d6b429cf" x="95.28125" y="99.337775" style="stroke: #000000; stroke-width: 0.6"/>
      </g>
     </g>
    </g>
    <g id="ytick_29">
     <g id="line2d_139">
      <path d="M 95.28125 84.586376 
L 764.88125 84.586376 
" clip-path="url(#pc7978f5638)" style="fill: none; stroke-dasharray: 1.85,0.8; stroke-dashoffset: 0; stroke: #b0b0b0; stroke-opacity: 0.8; stroke-width: 0.5"/>
     </g>
     <g id="line2d_140">
      <g>
       <use xlink:href="#m45d6b429cf" x="95.28125" y="84.586376" style="stroke: #000000; stroke-width: 0.6"/>
      </g>
     </g>
    </g>
    <g id="ytick_30">
     <g id="line2d_141">
      <path d="M 95.28125 69.834976 
L 764.88125 69.834976 
" clip-path="url(#pc7978f5638)" style="fill: none; stroke-dasharray: 1.85,0.8; stroke-dashoffset: 0; stroke: #b0b0b0; stroke-opacity: 0.8; stroke-width: 0.5"/>
     </g>
     <g id="line2d_142">
      <g>
       <use xlink:href="#m45d6b429cf" x="95.28125" y="69.834976" style="stroke: #000000; stroke-width: 0.6"/>
      </g>
     </g>
    </g>
    <g id="text_16">
     <!-- Light (W/m^2) -->
     <g transform="translate(49.221875 337.558125) rotate(-90) scale(0.2 -0.2)">
      <defs>
       <path id="AptosDisplay-4c" d="M 472 0 
L 472 4206 
L 1034 4206 
L 1034 484 
L 3000 484 
L 3000 0 
L 472 0 
z
" transform="scale(0.015625)"/>
       <path id="AptosDisplay-67" d="M 1397 -1178 
Q 925 -1178 640 -1065 
Q 356 -953 229 -765 
Q 103 -578 103 -359 
Q 103 -94 329 112 
Q 556 319 1031 403 
L 1128 575 
L 1475 575 
Q 2184 575 2489 376 
Q 2794 178 2794 -238 
Q 2794 -650 2437 -914 
Q 2081 -1178 1397 -1178 
z
M 1384 -800 
Q 1878 -800 2086 -650 
Q 2294 -500 2294 -278 
Q 2294 -147 2225 -51 
Q 2156 44 1975 97 
Q 1794 150 1456 150 
L 1034 150 
Q 819 97 708 -31 
Q 597 -159 597 -328 
Q 597 -516 778 -658 
Q 959 -800 1384 -800 
z
M 1025 216 
Q 722 228 550 312 
Q 378 397 306 511 
Q 234 625 234 722 
Q 234 866 362 1009 
Q 491 1153 772 1241 
L 1038 1069 
Q 866 1031 772 953 
Q 678 875 678 791 
Q 678 731 734 682 
Q 791 634 928 606 
Q 1066 578 1303 575 
L 1025 216 
z
M 1363 984 
Q 1003 984 753 1128 
Q 503 1272 375 1509 
Q 247 1747 247 2022 
Q 247 2313 376 2550 
Q 506 2788 754 2928 
Q 1003 3069 1366 3069 
Q 1738 3069 1983 2928 
Q 2228 2788 2351 2550 
Q 2475 2313 2475 2022 
Q 2475 1741 2350 1505 
Q 2225 1269 1979 1126 
Q 1734 984 1363 984 
z
M 1366 1341 
Q 1641 1341 1812 1512 
Q 1984 1684 1984 2022 
Q 1984 2375 1817 2545 
Q 1650 2716 1372 2716 
Q 1094 2716 919 2541 
Q 744 2366 744 2025 
Q 744 1681 931 1511 
Q 1119 1341 1366 1341 
z
M 2131 2734 
L 1922 2931 
Q 2038 3225 2252 3331 
Q 2466 3438 2794 3447 
L 2794 3006 
Q 2588 3006 2416 2961 
Q 2244 2916 2131 2734 
z
" transform="scale(0.015625)"/>
       <path id="AptosDisplay-68" d="M 413 0 
L 413 4206 
L 931 4206 
L 931 2575 
Q 1069 2756 1317 2914 
Q 1566 3072 1950 3072 
Q 2428 3072 2637 2783 
Q 2847 2494 2847 1963 
L 2847 0 
L 2328 0 
L 2328 1891 
Q 2328 2106 2287 2275 
Q 2247 2444 2139 2539 
Q 2031 2634 1822 2634 
Q 1503 2634 1284 2482 
Q 1066 2331 934 2156 
L 934 0 
L 413 0 
z
" transform="scale(0.015625)"/>
       <path id="AptosDisplay-74" d="M 1466 0 
Q 1100 0 901 117 
Q 703 234 629 454 
Q 556 675 556 984 
L 556 2622 
L 50 2622 
L 50 3044 
L 556 3044 
L 556 3741 
L 1078 3741 
L 1078 3044 
L 1831 3044 
L 1831 2622 
L 1078 2622 
L 1078 1009 
Q 1078 725 1151 575 
Q 1225 425 1500 425 
L 1831 425 
L 1831 0 
L 1466 0 
z
" transform="scale(0.015625)"/>
       <path id="AptosDisplay-57" d="M 1216 0 
L -13 4206 
L 575 4206 
L 1525 697 
L 2531 4206 
L 3156 4206 
L 4163 697 
L 5119 4206 
L 5681 4206 
L 4453 0 
L 3866 0 
L 2831 3556 
L 1813 0 
L 1216 0 
z
" transform="scale(0.015625)"/>
       <path id="AptosDisplay-2f" d="M 72 0 
L 1603 4206 
L 2100 4206 
L 569 0 
L 72 0 
z
" transform="scale(0.015625)"/>
       <path id="AptosDisplay-5e" d="M 428 2438 
L 1459 4206 
L 1884 4206 
L 2916 2438 
L 2366 2438 
L 1672 3650 
L 978 2438 
L 428 2438 
z
" transform="scale(0.015625)"/>
      </defs>
      <use xlink:href="#AptosDisplay-4c"/>
      <use xlink:href="#AptosDisplay-69" x="48.4375"/>
      <use xlink:href="#AptosDisplay-67" x="69.482422"/>
      <use xlink:href="#AptosDisplay-68" x="113.427734"/>
      <use xlink:href="#AptosDisplay-74" x="164.013672"/>
      <use xlink:href="#AptosDisplay-20" x="194.384766"/>
      <use xlink:href="#AptosDisplay-28" x="213.671875"/>
      <use xlink:href="#AptosDisplay-57" x="243.115234"/>
      <use xlink:href="#AptosDisplay-2f" x="331.689453"/>
      <use xlink:href="#AptosDisplay-6d" x="365.625"/>
      <use xlink:href="#AptosDisplay-5e" x="445.605469"/>
      <use xlink:href="#AptosDisplay-32" x="497.900391"/>
      <use xlink:href="#AptosDisplay-29" x="550.195312"/>
     </g>
    </g>
   </g>
   <g id="line2d_143">
    <path d="M 125.717614 146.276728 
L 126.36818 162.53277 
L 127.022015 149.529411 
L 127.675851 133.273369 
L 128.329686 169.038137 
L 129.637357 208.055589 
L 130.291192 188.546863 
L 130.945027 208.055589 
L 131.598863 208.055589 
L 132.252698 198.304914 
L 132.906534 208.055589 
L 133.560369 188.546863 
L 134.214204 188.546863 
L 134.86804 195.05223 
L 135.521875 191.799546 
L 136.17571 211.308272 
L 136.829546 204.810281 
L 137.483381 172.290821 
L 138.137217 178.796188 
L 138.791052 169.038137 
L 139.444887 172.290821 
L 140.098723 201.557597 
L 140.752558 198.304914 
L 141.406393 159.287462 
L 142.714064 214.560956 
L 143.3679 188.546863 
L 144.021735 185.294179 
L 144.67557 185.294179 
L 145.329406 182.048871 
L 145.983241 172.290821 
L 146.637076 149.529411 
L 147.290912 188.546863 
L 147.944747 178.796188 
L 148.598583 182.048871 
L 149.252418 175.543504 
L 149.906253 178.796188 
L 150.560089 172.290821 
L 151.213924 185.294179 
L 151.867759 191.799546 
L 152.521595 221.066323 
L 153.17543 175.543504 
L 153.829266 188.546863 
L 154.483101 185.294179 
L 155.136936 201.557597 
L 155.790772 175.543504 
L 156.444607 188.546863 
L 157.098442 165.785454 
L 157.752278 172.290821 
L 158.406113 188.546863 
L 159.059949 195.05223 
L 159.713784 175.543504 
L 160.367619 172.290821 
L 161.021455 191.799546 
L 161.67529 195.05223 
L 162.329125 185.294179 
L 162.982961 191.799546 
L 163.636796 195.05223 
L 164.290632 188.546863 
L 164.944467 175.543504 
L 165.598302 185.294179 
L 166.905973 172.290821 
L 167.559808 162.53277 
L 168.213644 165.785454 
L 168.867479 136.526053 
L 169.521315 162.53277 
L 170.17515 182.048871 
L 170.828985 182.048871 
L 171.482821 175.543504 
L 172.136656 182.048871 
L 172.790491 172.290821 
L 173.444327 182.048871 
L 174.751998 175.543504 
L 175.405833 159.287462 
L 176.059668 169.038137 
L 176.713504 159.287462 
L 177.367339 165.785454 
L 178.021174 195.05223 
L 178.67501 178.796188 
L 179.328845 195.05223 
L 179.982681 191.799546 
L 180.636516 198.304914 
L 181.290351 191.799546 
L 181.944187 175.543504 
L 182.598022 185.294179 
L 183.251857 162.53277 
L 183.905693 198.304914 
L 184.559528 191.799546 
L 185.213364 201.557597 
L 185.867199 175.543504 
L 186.521034 156.034779 
L 187.17487 188.546863 
L 187.828705 191.799546 
L 188.48254 185.294179 
L 189.139645 182.048871 
L 189.79348 182.048871 
L 190.447316 185.294179 
L 191.101151 175.543504 
L 191.754987 188.546863 
L 192.408822 175.543504 
L 193.062657 172.290821 
L 193.716493 201.557597 
L 194.370328 165.785454 
L 195.024163 169.038137 
L 195.677999 159.287462 
L 196.331834 172.290821 
L 196.98567 165.785454 
L 197.639505 172.290821 
L 198.29334 169.038137 
L 198.947176 143.024044 
L 199.601011 159.287462 
L 200.254846 165.785454 
L 200.908682 165.785454 
L 201.562517 143.024044 
L 202.216353 136.526053 
L 202.870188 149.529411 
L 203.524023 146.276728 
L 204.177859 165.785454 
L 204.831694 175.543504 
L 205.485529 146.276728 
L 206.139365 175.543504 
L 206.7932 120.262635 
L 207.447036 149.529411 
L 208.100871 149.529411 
L 208.754706 152.782095 
L 209.408542 152.782095 
L 210.062377 165.785454 
L 210.716212 130.020686 
L 211.370048 149.529411 
L 212.023883 143.024044 
L 212.677719 175.543504 
L 213.331554 165.785454 
L 213.985389 159.287462 
L 214.639225 149.529411 
L 215.29306 152.782095 
L 215.946895 146.276728 
L 216.600731 156.034779 
L 217.254566 152.782095 
L 217.908402 172.290821 
L 218.562237 152.782095 
L 219.216072 162.53277 
L 219.869908 143.024044 
L 220.523743 165.785454 
L 221.177578 162.53277 
L 222.485249 169.038137 
L 223.139085 182.048871 
L 223.79292 172.290821 
L 224.446755 208.055589 
L 225.100591 162.53277 
L 225.754426 169.038137 
L 226.408261 152.782095 
L 227.062097 172.290821 
L 227.715932 172.290821 
L 228.369768 162.53277 
L 229.023603 178.796188 
L 229.677438 169.038137 
L 230.331274 165.785454 
L 230.985109 169.038137 
L 231.638944 182.048871 
L 232.29278 175.543504 
L 232.946615 191.799546 
L 233.600451 182.048871 
L 234.254286 182.048871 
L 234.908121 172.290821 
L 235.561957 201.557597 
L 236.215792 162.53277 
L 236.869627 175.543504 
L 237.523463 185.294179 
L 238.177298 201.557597 
L 238.831134 182.048871 
L 239.484969 188.546863 
L 240.138804 169.038137 
L 240.79264 178.796188 
L 241.446475 172.290821 
L 242.10031 175.543504 
L 242.754146 133.273369 
L 243.407981 146.276728 
L 244.061817 152.782095 
L 244.715652 149.529411 
L 245.369487 156.034779 
L 246.023323 156.034779 
L 246.677158 178.796188 
L 247.330993 172.290821 
L 247.984829 175.543504 
L 248.638664 165.785454 
L 249.2925 188.546863 
L 249.946335 237.322365 
L 250.60017 178.796188 
L 251.254006 185.294179 
L 251.907841 182.048871 
L 252.561676 139.771361 
L 253.215512 178.796188 
L 253.869347 182.048871 
L 254.523183 191.799546 
L 255.177018 182.048871 
L 255.830853 156.034779 
L 256.484689 172.290821 
L 257.138524 175.543504 
L 257.792359 175.543504 
L 258.446195 182.048871 
L 259.10003 208.055589 
L 259.753866 182.048871 
L 260.407701 162.53277 
L 261.061536 172.290821 
L 261.715372 185.294179 
L 262.369207 201.557597 
L 263.023042 149.529411 
L 264.330713 162.53277 
L 264.984549 175.543504 
L 265.638384 172.290821 
L 266.292219 195.05223 
L 266.946055 182.048871 
L 267.59989 156.034779 
L 268.253725 169.038137 
L 268.907561 146.276728 
L 269.561396 152.782095 
L 270.215232 143.024044 
L 270.869067 169.038137 
L 271.522902 182.048871 
L 272.176738 178.796188 
L 272.830573 152.782095 
L 273.484408 162.53277 
L 274.138244 146.276728 
L 274.792079 152.782095 
L 275.445915 156.034779 
L 276.09975 156.034779 
L 276.753585 159.287462 
L 277.407421 146.276728 
L 278.061256 146.276728 
L 278.715091 165.785454 
L 279.368927 156.034779 
L 280.022762 123.515319 
L 280.676598 136.526053 
L 281.330433 162.53277 
L 281.984268 120.262635 
L 282.638104 143.024044 
L 283.291939 136.526053 
L 283.945774 139.771361 
L 284.59961 146.276728 
L 285.253445 130.020686 
L 285.907281 149.529411 
L 286.561116 149.529411 
L 287.214951 143.024044 
L 287.868787 143.024044 
L 288.522622 152.782095 
L 289.176457 152.782095 
L 289.830293 149.529411 
L 290.484128 156.034779 
L 291.137964 169.038137 
L 291.791799 159.287462 
L 292.445634 182.048871 
L 293.09947 162.53277 
L 293.753305 152.782095 
L 294.40714 152.782095 
L 295.060976 172.290821 
L 295.714811 227.57169 
L 296.368647 169.038137 
L 297.022482 211.308272 
L 297.676317 172.290821 
L 298.330153 156.034779 
L 298.983988 165.785454 
L 299.637823 169.038137 
L 300.291659 152.782095 
L 300.945494 156.034779 
L 301.59933 146.276728 
L 302.253165 162.53277 
L 302.907 169.038137 
L 303.560836 195.05223 
L 304.214671 156.034779 
L 304.868506 178.796188 
L 305.522342 169.038137 
L 306.830013 143.024044 
L 307.483848 172.290821 
L 308.137683 152.782095 
L 308.791519 175.543504 
L 309.445354 159.287462 
L 310.099189 162.53277 
L 310.753025 175.543504 
L 311.40686 146.276728 
L 312.060696 169.038137 
L 312.714531 149.529411 
L 313.368366 159.287462 
L 314.022202 165.785454 
L 314.676037 146.276728 
L 315.329872 182.048871 
L 315.983708 156.034779 
L 316.637543 165.785454 
L 317.291379 172.290821 
L 317.945214 159.287462 
L 319.252885 172.290821 
L 319.90672 159.287462 
L 320.560555 230.816998 
L 323.175897 175.543504 
L 323.829732 156.034779 
L 324.483568 159.287462 
L 325.137403 149.529411 
L 325.791238 191.799546 
L 326.445074 175.543504 
L 327.098909 169.038137 
L 327.752745 195.05223 
L 328.40658 182.048871 
L 329.060415 162.53277 
L 329.714251 175.543504 
L 330.368086 178.796188 
L 331.021921 201.557597 
L 331.675757 172.290821 
L 332.329592 182.048871 
L 332.983428 201.557597 
L 333.637263 178.796188 
L 334.291098 84.497867 
L 334.944934 175.543504 
L 335.598769 162.53277 
L 336.252604 172.290821 
L 336.90644 172.290821 
L 337.560275 178.796188 
L 338.214111 175.543504 
L 338.867946 175.543504 
L 339.521781 182.048871 
L 340.175617 175.543504 
L 340.829452 172.290821 
L 341.483287 172.290821 
L 342.137123 175.543504 
L 342.790958 165.785454 
L 343.444794 201.557597 
L 344.098629 188.546863 
L 344.752464 198.304914 
L 345.4063 204.810281 
L 346.060135 221.066323 
L 346.71397 198.304914 
L 347.367806 201.557597 
L 348.021641 198.304914 
L 348.675477 204.810281 
L 349.329312 201.557597 
L 350.636983 201.557597 
L 351.290818 211.308272 
L 351.944653 162.53277 
L 352.598489 201.557597 
L 353.252324 208.055589 
L 353.90616 211.308272 
L 354.559995 188.546863 
L 355.21383 208.055589 
L 355.867666 195.05223 
L 356.521501 230.816998 
L 357.175336 211.308272 
L 357.829172 211.308272 
L 358.483007 208.055589 
L 359.136843 221.066323 
L 359.790678 191.799546 
L 361.098349 247.080416 
L 361.752184 221.066323 
L 362.406019 224.319006 
L 363.059855 204.810281 
L 363.71369 227.57169 
L 364.367526 204.810281 
L 365.021361 214.560956 
L 365.675196 243.827732 
L 366.329032 214.560956 
L 366.982867 237.322365 
L 367.636702 237.322365 
L 368.290538 221.066323 
L 368.944373 237.322365 
L 369.598209 224.319006 
L 370.252044 263.336458 
L 370.905879 224.319006 
L 372.216819 243.827732 
L 372.870655 201.557597 
L 373.52449 256.831091 
L 374.178325 230.816998 
L 374.832161 217.813639 
L 375.485996 253.578407 
L 376.793667 234.069681 
L 378.755173 243.827732 
L 379.409008 273.094509 
L 380.716679 260.083774 
L 381.370515 260.083774 
L 382.02435 256.831091 
L 382.678185 250.333099 
L 383.985856 276.339816 
L 384.639691 286.097867 
L 385.293527 273.094509 
L 385.947362 305.606593 
L 386.601198 295.855918 
L 387.255033 308.859276 
L 387.908868 292.603234 
L 388.562704 380.396188 
L 389.216539 279.5925 
L 389.870374 276.339816 
L 390.52421 312.11196 
L 391.178045 286.097867 
L 391.831881 289.350551 
L 392.485716 305.606593 
L 393.139551 279.5925 
L 393.793387 299.101226 
L 394.447222 279.5925 
L 395.101057 412.908272 
L 395.754893 305.606593 
L 396.408728 289.350551 
L 397.062564 295.855918 
L 397.716399 299.101226 
L 398.370234 308.859276 
L 399.02407 312.11196 
L 399.677905 276.339816 
L 400.33174 279.5925 
L 400.985576 295.855918 
L 401.639411 308.859276 
L 402.293247 299.101226 
L 402.947082 305.606593 
L 403.600917 302.353909 
L 404.254753 302.353909 
L 404.908588 312.11196 
L 405.562423 338.126053 
L 406.216259 344.624044 
L 406.870094 338.126053 
L 407.52393 299.101226 
L 408.177765 341.378736 
L 408.8316 325.115319 
L 409.485436 334.873369 
L 410.139271 305.606593 
L 410.793106 328.368002 
L 411.446942 338.126053 
L 412.100777 334.873369 
L 412.754613 325.115319 
L 413.408448 341.378736 
L 414.062283 344.624044 
L 414.716119 312.11196 
L 415.369954 338.126053 
L 416.023789 347.876728 
L 416.677625 351.129411 
L 417.985296 403.157597 
L 418.639131 399.904914 
L 419.292966 403.157597 
L 419.946802 409.662964 
L 420.600637 409.662964 
L 421.254472 435.669681 
L 421.908308 416.160956 
L 422.562143 448.680416 
L 423.215979 451.933099 
L 423.869814 448.680416 
L 424.523649 477.947192 
L 425.177485 481.1925 
L 425.83132 458.431091 
L 426.485155 455.185783 
L 427.138991 448.680416 
L 427.792826 461.683774 
L 428.446662 445.427732 
L 429.100497 432.416998 
L 429.754332 432.416998 
L 431.715838 403.157597 
L 432.369674 403.157597 
L 433.023509 386.901555 
L 433.677345 386.901555 
L 434.33118 373.890821 
L 434.985015 347.876728 
L 435.638851 370.638137 
L 436.292686 351.129411 
L 436.946521 377.143504 
L 437.600357 344.624044 
L 438.254192 347.876728 
L 438.908028 328.368002 
L 439.561863 321.862635 
L 440.215698 334.873369 
L 440.869534 390.146863 
L 441.523369 305.606593 
L 442.177204 318.617327 
L 442.83104 308.859276 
L 443.484875 292.603234 
L 444.138711 286.097867 
L 444.792546 260.083774 
L 445.446381 276.339816 
L 446.100217 273.094509 
L 446.754052 286.097867 
L 447.407887 269.841825 
L 448.061723 279.5925 
L 448.715558 305.606593 
L 449.369394 263.336458 
L 450.023229 230.816998 
L 450.677064 156.034779 
L 451.3309 240.575049 
L 451.984735 250.333099 
L 452.63857 234.069681 
L 453.292406 195.05223 
L 453.946241 221.066323 
L 454.600077 230.816998 
L 455.253912 211.308272 
L 455.907747 221.066323 
L 456.561583 227.57169 
L 457.215418 237.322365 
L 457.869253 227.57169 
L 458.523089 250.333099 
L 459.176924 227.57169 
L 459.83076 269.841825 
L 460.484595 234.069681 
L 461.13843 224.319006 
L 462.446101 217.813639 
L 463.099936 208.055589 
L 463.753772 224.319006 
L 465.061443 250.333099 
L 465.715278 227.57169 
L 466.369113 221.066323 
L 467.022949 221.066323 
L 467.676784 211.308272 
L 468.330619 204.810281 
L 468.984455 217.813639 
L 469.63829 214.560956 
L 470.292126 214.560956 
L 470.945961 234.069681 
L 471.599796 211.308272 
L 472.253632 201.557597 
L 473.561302 227.57169 
L 474.215138 208.055589 
L 474.868973 224.319006 
L 475.522809 211.308272 
L 476.176644 227.57169 
L 476.830479 211.308272 
L 477.484315 224.319006 
L 478.13815 214.560956 
L 478.791985 234.069681 
L 479.445821 214.560956 
L 480.099656 208.055589 
L 480.753492 217.813639 
L 481.407327 162.53277 
L 482.061162 221.066323 
L 482.714998 240.575049 
L 483.368833 217.813639 
L 484.022668 230.816998 
L 484.676504 237.322365 
L 485.330339 217.813639 
L 485.984175 227.57169 
L 486.63801 234.069681 
L 487.291845 217.813639 
L 487.945681 234.069681 
L 488.599516 230.816998 
L 489.253351 195.05223 
L 489.907187 224.319006 
L 490.561022 227.57169 
L 491.214858 221.066323 
L 491.868693 217.813639 
L 492.522528 234.069681 
L 493.176364 224.319006 
L 493.830199 237.322365 
L 494.484034 234.069681 
L 495.13787 224.319006 
L 495.791705 221.066323 
L 496.445541 227.57169 
L 497.099376 230.816998 
L 497.753211 227.57169 
L 498.407047 227.57169 
L 499.060882 230.816998 
L 499.714717 243.827732 
L 500.368553 208.055589 
L 501.676224 295.855918 
L 502.330059 240.575049 
L 502.983894 224.319006 
L 503.63773 227.57169 
L 504.291565 221.066323 
L 504.9454 221.066323 
L 505.599236 234.069681 
L 506.253071 224.319006 
L 506.906907 208.055589 
L 507.560742 195.05223 
L 508.214577 204.810281 
L 508.868413 191.799546 
L 509.522248 195.05223 
L 510.176083 191.799546 
L 510.829919 214.560956 
L 511.483754 185.294179 
L 512.13759 191.799546 
L 512.791425 195.05223 
L 513.44526 195.05223 
L 514.099096 182.048871 
L 514.752931 198.304914 
L 515.406766 175.543504 
L 516.060602 188.546863 
L 516.714437 195.05223 
L 517.368273 162.53277 
L 518.022108 204.810281 
L 520.637449 146.276728 
L 521.291285 195.05223 
L 521.94512 208.055589 
L 522.598956 191.799546 
L 523.252791 198.304914 
L 523.906626 195.05223 
L 524.560462 198.304914 
L 525.214297 204.810281 
L 525.868132 201.557597 
L 526.521968 204.810281 
L 527.175803 195.05223 
L 527.829639 136.526053 
L 528.483474 211.308272 
L 529.137309 221.066323 
L 529.791145 204.810281 
L 530.44498 224.319006 
L 531.098815 217.813639 
L 531.752651 224.319006 
L 532.406486 211.308272 
L 533.714157 211.308272 
L 534.367992 188.546863 
L 535.021828 191.799546 
L 535.675663 224.319006 
L 536.329498 188.546863 
L 536.983334 224.319006 
L 537.637169 208.055589 
L 538.291005 237.322365 
L 538.94484 214.560956 
L 539.598675 201.557597 
L 540.252511 172.290821 
L 540.906346 208.055589 
L 541.560181 169.038137 
L 542.214017 175.543504 
L 542.867852 198.304914 
L 543.521688 198.304914 
L 544.175523 208.055589 
L 544.829358 165.785454 
L 545.483194 198.304914 
L 546.137029 191.799546 
L 546.790864 191.799546 
L 547.4447 185.294179 
L 548.098535 198.304914 
L 548.752371 201.557597 
L 550.060041 175.543504 
L 550.713877 182.048871 
L 551.367712 159.287462 
L 552.021547 169.038137 
L 553.329218 162.53277 
L 553.983054 172.290821 
L 554.636889 178.796188 
L 555.290724 172.290821 
L 555.94456 162.53277 
L 556.598395 185.294179 
L 557.2555 172.290821 
L 557.909335 211.308272 
L 558.559901 165.785454 
L 559.217006 172.290821 
L 559.870841 159.287462 
L 560.524677 175.543504 
L 561.178512 195.05223 
L 561.832347 198.304914 
L 562.486183 175.543504 
L 563.793853 182.048871 
L 564.447689 162.53277 
L 565.101524 175.543504 
L 565.75536 162.53277 
L 566.409195 143.024044 
L 567.06303 143.024044 
L 567.716866 156.034779 
L 568.370701 162.53277 
L 569.024536 156.034779 
L 569.678372 191.799546 
L 570.332207 152.782095 
L 570.986043 165.785454 
L 571.639878 165.785454 
L 572.293713 159.287462 
L 572.947549 162.53277 
L 573.601384 149.529411 
L 574.255219 146.276728 
L 574.909055 159.287462 
L 575.56289 149.529411 
L 576.216726 152.782095 
L 576.870561 149.529411 
L 577.524396 136.526053 
L 578.178232 172.290821 
L 578.832067 175.543504 
L 579.485902 159.287462 
L 580.139738 159.287462 
L 580.793573 165.785454 
L 581.447409 169.038137 
L 582.101244 178.796188 
L 582.755079 156.034779 
L 583.408915 162.53277 
L 584.06275 198.304914 
L 584.716585 175.543504 
L 585.370421 162.53277 
L 586.024256 178.796188 
L 586.678092 149.529411 
L 587.331927 146.276728 
L 587.985762 188.546863 
L 588.639598 162.53277 
L 589.293433 208.055589 
L 589.947268 165.785454 
L 590.601104 175.543504 
L 591.254939 182.048871 
L 591.908775 152.782095 
L 593.216445 201.557597 
L 593.870281 188.546863 
L 594.524116 221.066323 
L 595.177951 240.575049 
L 595.831787 162.53277 
L 596.485622 191.799546 
L 597.139458 182.048871 
L 597.793293 204.810281 
L 598.447128 185.294179 
L 599.100964 175.543504 
L 599.754799 159.287462 
L 601.06247 208.055589 
L 601.716305 201.557597 
L 602.370141 182.048871 
L 603.023976 214.560956 
L 603.677811 214.560956 
L 604.985482 195.05223 
L 605.639317 211.308272 
L 606.293153 191.799546 
L 606.946988 211.308272 
L 607.600824 198.304914 
L 608.254659 165.785454 
L 608.908494 188.546863 
L 609.56233 221.066323 
L 610.216165 201.557597 
L 610.87 214.560956 
L 611.523836 201.557597 
L 612.831507 182.048871 
L 613.485342 195.05223 
L 614.793013 201.557597 
L 615.446848 156.034779 
L 616.100683 191.799546 
L 616.754519 126.768002 
L 617.408354 156.034779 
L 618.06219 178.796188 
L 618.716025 195.05223 
L 619.36986 175.543504 
L 620.023696 172.290821 
L 620.677531 279.5925 
L 621.331366 165.785454 
L 621.985202 198.304914 
L 622.639037 175.543504 
L 623.292873 191.799546 
L 623.946708 188.546863 
L 624.600543 130.020686 
L 625.254379 211.308272 
L 625.908214 185.294179 
L 626.562049 204.810281 
L 627.215885 188.546863 
L 627.86972 191.799546 
L 628.523556 185.294179 
L 629.177391 191.799546 
L 629.831226 182.048871 
L 630.485062 175.543504 
L 631.138897 175.543504 
L 631.792732 162.53277 
L 632.446568 169.038137 
L 633.100403 182.048871 
L 633.754239 269.841825 
L 634.408074 104.006593 
L 635.061909 195.05223 
L 635.715745 172.290821 
L 636.36958 178.796188 
L 637.023415 230.816998 
L 637.677251 182.048871 
L 638.331086 208.055589 
L 638.984922 169.038137 
L 639.638757 182.048871 
L 640.292592 175.543504 
L 640.946428 182.048871 
L 641.600263 169.038137 
L 642.254098 201.557597 
L 642.907934 172.290821 
L 643.561769 172.290821 
L 644.215605 185.294179 
L 644.86944 133.273369 
L 645.523275 185.294179 
L 646.177111 165.785454 
L 646.830946 182.048871 
L 647.484781 162.53277 
L 648.138617 162.53277 
L 648.792452 201.557597 
L 649.446288 182.048871 
L 650.753958 169.038137 
L 651.407794 133.273369 
L 652.061629 149.529411 
L 652.715464 152.782095 
L 653.3693 149.529411 
L 654.023135 188.546863 
L 655.330806 143.024044 
L 655.984641 159.287462 
L 656.638477 208.055589 
L 657.292312 169.038137 
L 657.946147 169.038137 
L 658.599983 159.287462 
L 659.253818 162.53277 
L 659.907654 162.53277 
L 660.561489 152.782095 
L 661.215324 159.287462 
L 661.86916 156.034779 
L 662.522995 149.529411 
L 663.17683 162.53277 
L 663.830666 149.529411 
L 664.484501 77.9925 
L 665.138337 159.287462 
L 665.792172 172.290821 
L 666.446007 162.53277 
L 667.099843 169.038137 
L 667.753678 169.038137 
L 668.407513 172.290821 
L 669.061349 178.796188 
L 669.715184 178.796188 
L 670.36902 195.05223 
L 671.022855 198.304914 
L 671.67669 198.304914 
L 672.330526 195.05223 
L 672.984361 221.066323 
L 673.638196 214.560956 
L 675.599703 234.069681 
L 676.907373 221.066323 
L 677.561209 240.575049 
L 678.215044 234.069681 
L 679.522715 240.575049 
L 680.17655 237.322365 
L 680.830386 227.57169 
L 681.484221 234.069681 
L 682.138056 227.57169 
L 682.791892 208.055589 
L 683.445727 211.308272 
L 684.099562 208.055589 
L 684.753398 217.813639 
L 685.407233 214.560956 
L 686.061069 217.813639 
L 686.714904 217.813639 
L 688.022575 224.319006 
L 688.67641 211.308272 
L 689.330245 227.57169 
L 689.984081 221.066323 
L 690.637916 221.066323 
L 691.291752 172.290821 
L 691.945587 230.816998 
L 692.599422 230.816998 
L 693.907093 224.319006 
L 694.560928 234.069681 
L 695.214764 240.575049 
L 695.868599 227.57169 
L 696.522435 250.333099 
L 697.17627 247.080416 
L 697.830105 227.57169 
L 698.483941 305.606593 
L 699.137776 247.080416 
L 699.791611 253.578407 
L 700.445447 243.827732 
L 701.099282 237.322365 
L 701.753118 237.322365 
L 702.406953 234.069681 
L 703.060788 243.827732 
L 703.714624 243.827732 
L 704.368459 234.069681 
L 705.022294 305.606593 
L 705.67613 243.827732 
L 706.329965 250.333099 
L 707.637636 250.333099 
L 708.291471 230.816998 
L 708.945307 243.827732 
L 710.252977 250.333099 
L 710.906813 269.841825 
L 711.560648 256.831091 
L 712.214484 263.336458 
L 712.868319 266.589141 
L 714.17599 253.578407 
L 714.829825 214.560956 
L 715.48366 266.589141 
L 718.099002 286.097867 
L 718.752837 253.578407 
L 719.406673 273.094509 
L 720.060508 273.094509 
L 720.714343 266.589141 
L 721.368179 292.603234 
L 722.022014 295.855918 
L 722.67585 279.5925 
L 723.329685 243.827732 
L 723.98352 263.336458 
L 724.637356 276.339816 
L 725.291191 263.336458 
L 726.598862 188.546863 
L 727.252697 175.543504 
L 727.906533 217.813639 
L 728.560368 224.319006 
L 729.214203 247.080416 
L 729.868039 217.813639 
L 730.521874 221.066323 
L 731.175709 234.069681 
L 731.829545 214.560956 
L 732.48338 217.813639 
L 733.137216 227.57169 
L 733.791051 227.57169 
L 734.444886 230.816998 
L 734.444886 230.816998 
" clip-path="url(#pc7978f5638)" style="fill: none; stroke: #ac2b37; stroke-width: 1.5; stroke-linecap: square"/>
   </g>
   <g id="patch_3">
    <path d="M 95.28125 501.3525 
L 95.28125 57.8325 
" style="fill: none; stroke: #000000; stroke-width: 0.8; stroke-linejoin: miter; stroke-linecap: square"/>
   </g>
   <g id="patch_4">
    <path d="M 764.88125 501.3525 
L 764.88125 57.8325 
" style="fill: none; stroke: #000000; stroke-width: 0.8; stroke-linejoin: miter; stroke-linecap: square"/>
   </g>
   <g id="patch_5">
    <path d="M 95.28125 501.3525 
L 764.88125 501.3525 
" style="fill: none; stroke: #000000; stroke-width: 0.8; stroke-linejoin: miter; stroke-linecap: square"/>
   </g>
   <g id="patch_6">
    <path d="M 95.28125 57.8325 
L 764.88125 57.8325 
" style="fill: none; stroke: #000000; stroke-width: 0.8; stroke-linejoin: miter; stroke-linecap: square"/>
   </g>
   <g id="text_17">
    <!-- Light vs Time -->
    <g transform="translate(367.59875 51.8325) scale(0.24 -0.24)">
     <defs>
      <path id="AptosDisplay-76" d="M 1103 0 
L -13 3044 
L 538 3044 
L 1391 513 
L 2250 3044 
L 2781 3044 
L 1678 0 
L 1103 0 
z
" transform="scale(0.015625)"/>
      <path id="AptosDisplay-73" d="M 1506 -41 
Q 1247 -41 1017 14 
Q 788 69 613 191 
Q 438 313 339 506 
Q 241 700 241 978 
L 744 978 
Q 744 628 966 487 
Q 1188 347 1519 347 
Q 1816 347 2008 458 
Q 2200 569 2200 822 
Q 2200 1047 2026 1153 
Q 1853 1259 1413 1369 
Q 1056 1453 815 1564 
Q 575 1675 453 1845 
Q 331 2016 331 2275 
Q 331 2475 417 2626 
Q 503 2778 658 2879 
Q 813 2981 1020 3032 
Q 1228 3084 1472 3084 
Q 1713 3084 1923 3028 
Q 2134 2972 2296 2855 
Q 2459 2738 2551 2552 
Q 2644 2366 2644 2109 
L 2138 2109 
Q 2138 2425 1945 2558 
Q 1753 2691 1472 2691 
Q 1191 2691 1016 2594 
Q 841 2497 841 2291 
Q 841 2169 919 2084 
Q 997 2000 1181 1933 
Q 1366 1866 1675 1791 
Q 2019 1709 2248 1596 
Q 2478 1484 2595 1306 
Q 2713 1128 2713 847 
Q 2713 616 2622 447 
Q 2531 278 2367 170 
Q 2203 63 1983 11 
Q 1763 -41 1506 -41 
z
" transform="scale(0.015625)"/>
     </defs>
     <use xlink:href="#AptosDisplay-4c"/>
     <use xlink:href="#AptosDisplay-69" x="48.4375"/>
     <use xlink:href="#AptosDisplay-67" x="69.482422"/>
     <use xlink:href="#AptosDisplay-68" x="113.427734"/>
     <use xlink:href="#AptosDisplay-74" x="164.013672"/>
     <use xlink:href="#AptosDisplay-20" x="194.384766"/>
     <use xlink:href="#AptosDisplay-76" x="213.671875"/>
     <use xlink:href="#AptosDisplay-73" x="256.933594"/>
     <use xlink:href="#AptosDisplay-20" x="303.222656"/>
     <use xlink:href="#AptosDisplay-54" x="322.509766"/>
     <use xlink:href="#AptosDisplay-69" x="370.214844"/>
     <use xlink:href="#AptosDisplay-6d" x="391.259766"/>
     <use xlink:href="#AptosDisplay-65" x="471.240234"/>
    </g>
   </g>
  </g>
 </g>
 <defs>
  <clipPath id="pc7978f5638">
   <rect x="95.28125" y="57.8325" width="669.6" height="443.52"/>
  </clipPath>
 </defs>
</svg>
