<?xml version="1.0" encoding="utf-8" standalone="no"?>
<!DOCTYPE svg PUBLIC "-//W3C//DTD SVG 1.1//EN"
  "http://www.w3.org/Graphics/SVG/1.1/DTD/svg11.dtd">
<svg xmlns:xlink="http://www.w3.org/1999/xlink" width="790.265625pt" height="581.830625pt" viewBox="0 0 790.265625 581.830625" xmlns="http://www.w3.org/2000/svg" version="1.1">
 <metadata>
  <rdf:RDF xmlns:dc="http://purl.org/dc/elements/1.1/" xmlns:cc="http://creativecommons.org/ns#" xmlns:rdf="http://www.w3.org/1999/02/22-rdf-syntax-ns#">
   <cc:Work>
    <dc:type rdf:resource="http://purl.org/dc/dcmitype/StillImage"/>
    <dc:date>2025-04-03T01:48:15.083616</dc:date>
    <dc:format>image/svg+xml</dc:format>
    <dc:creator>
     <cc:Agent>
      <dc:title>Matplotlib v3.8.2, https://matplotlib.org/</dc:title>
     </cc:Agent>
    </dc:creator>
   </cc:Work>
  </rdf:RDF>
 </metadata>
 <defs>
  <style type="text/css">*{stroke-linejoin: round; stroke-linecap: butt}</style>
 </defs>
 <g id="figure_1">
  <g id="patch_1">
   <path d="M 0 581.830625 
L 790.265625 581.830625 
L 790.265625 0 
L 0 0 
z
" style="fill: #ffffff"/>
  </g>
  <g id="axes_1">
   <g id="patch_2">
    <path d="M 84.665625 501.3525 
L 754.265625 501.3525 
L 754.265625 57.8325 
L 84.665625 57.8325 
z
" style="fill: #ffffff"/>
   </g>
   <g id="matplotlib.axis_1">
    <g id="xtick_1">
     <g id="line2d_1">
      <path d="M 114.410253 501.3525 
L 114.410253 57.8325 
" clip-path="url(#pf2a9cd5526)" style="fill: none; stroke: #b0b0b0; stroke-opacity: 0.8; stroke-linecap: square"/>
     </g>
     <g id="line2d_2">
      <defs>
       <path id="mc03318c991" d="M 0 0 
L 0 3.5 
" style="stroke: #000000; stroke-width: 0.8"/>
      </defs>
      <g>
       <use xlink:href="#mc03318c991" x="114.410253" y="501.3525" style="stroke: #000000; stroke-width: 0.8"/>
      </g>
     </g>
     <g id="text_1">
      <!-- 0 -->
      <g transform="translate(109.180566 521.49625) scale(0.2 -0.2)">
       <defs>
        <path id="AptosDisplay-30" d="M 1672 -56 
Q 1291 -56 1028 105 
Q 766 266 605 552 
Q 444 838 372 1216 
Q 300 1594 300 2031 
Q 300 2475 372 2856 
Q 444 3238 605 3525 
Q 766 3813 1028 3973 
Q 1291 4134 1672 4134 
Q 2053 4134 2317 3975 
Q 2581 3816 2742 3527 
Q 2903 3238 2975 2858 
Q 3047 2478 3047 2038 
Q 3047 1597 2975 1217 
Q 2903 838 2742 552 
Q 2581 266 2318 105 
Q 2056 -56 1672 -56 
z
M 1672 409 
Q 1916 409 2073 550 
Q 2231 691 2322 925 
Q 2413 1159 2448 1448 
Q 2484 1738 2484 2038 
Q 2484 2338 2448 2628 
Q 2413 2919 2322 3153 
Q 2231 3388 2073 3527 
Q 1916 3666 1669 3666 
Q 1428 3666 1268 3527 
Q 1109 3388 1020 3153 
Q 931 2919 893 2628 
Q 856 2338 856 2038 
Q 856 1741 893 1450 
Q 931 1159 1020 925 
Q 1109 691 1268 550 
Q 1428 409 1672 409 
z
" transform="scale(0.015625)"/>
       </defs>
       <use xlink:href="#AptosDisplay-30"/>
      </g>
     </g>
    </g>
    <g id="xtick_2">
     <g id="line2d_3">
      <path d="M 196.759722 501.3525 
L 196.759722 57.8325 
" clip-path="url(#pf2a9cd5526)" style="fill: none; stroke: #b0b0b0; stroke-opacity: 0.8; stroke-linecap: square"/>
     </g>
     <g id="line2d_4">
      <g>
       <use xlink:href="#mc03318c991" x="196.759722" y="501.3525" style="stroke: #000000; stroke-width: 0.8"/>
      </g>
     </g>
     <g id="text_2">
      <!-- 25 -->
      <g transform="translate(186.300347 521.49625) scale(0.2 -0.2)">
       <defs>
        <path id="AptosDisplay-32" d="M 247 0 
L 247 413 
L 1725 1741 
Q 2100 2081 2269 2351 
Q 2438 2622 2438 2938 
Q 2438 3256 2263 3461 
Q 2088 3666 1691 3666 
Q 1247 3666 1055 3439 
Q 863 3213 863 2869 
L 341 2869 
Q 341 3250 491 3534 
Q 641 3819 941 3975 
Q 1241 4131 1691 4131 
Q 2103 4131 2390 3986 
Q 2678 3841 2828 3578 
Q 2978 3316 2978 2959 
Q 2978 2638 2853 2375 
Q 2728 2113 2517 1883 
Q 2306 1653 2044 1425 
L 959 463 
L 3097 463 
L 3097 0 
L 247 0 
z
" transform="scale(0.015625)"/>
        <path id="AptosDisplay-35" d="M 1669 -56 
Q 1278 -56 964 83 
Q 650 222 465 483 
Q 281 744 281 1113 
L 816 1113 
Q 816 778 1055 584 
Q 1294 391 1669 391 
Q 2069 391 2291 625 
Q 2513 859 2513 1319 
Q 2513 1772 2291 1989 
Q 2069 2206 1697 2206 
Q 1409 2206 1223 2123 
Q 1038 2041 916 1894 
L 444 1894 
L 622 4078 
L 2788 4078 
L 2788 3613 
L 1041 3613 
L 931 2322 
Q 1044 2453 1251 2550 
Q 1459 2647 1775 2647 
Q 2131 2647 2420 2506 
Q 2709 2366 2881 2072 
Q 3053 1778 3053 1319 
Q 3053 863 2875 558 
Q 2697 253 2384 98 
Q 2072 -56 1669 -56 
z
" transform="scale(0.015625)"/>
       </defs>
       <use xlink:href="#AptosDisplay-32"/>
       <use xlink:href="#AptosDisplay-35" x="52.294922"/>
      </g>
     </g>
    </g>
    <g id="xtick_3">
     <g id="line2d_5">
      <path d="M 279.109191 501.3525 
L 279.109191 57.8325 
" clip-path="url(#pf2a9cd5526)" style="fill: none; stroke: #b0b0b0; stroke-opacity: 0.8; stroke-linecap: square"/>
     </g>
     <g id="line2d_6">
      <g>
       <use xlink:href="#mc03318c991" x="279.109191" y="501.3525" style="stroke: #000000; stroke-width: 0.8"/>
      </g>
     </g>
     <g id="text_3">
      <!-- 50 -->
      <g transform="translate(268.649816 521.49625) scale(0.2 -0.2)">
       <use xlink:href="#AptosDisplay-35"/>
       <use xlink:href="#AptosDisplay-30" x="52.294922"/>
      </g>
     </g>
    </g>
    <g id="xtick_4">
     <g id="line2d_7">
      <path d="M 361.458659 501.3525 
L 361.458659 57.8325 
" clip-path="url(#pf2a9cd5526)" style="fill: none; stroke: #b0b0b0; stroke-opacity: 0.8; stroke-linecap: square"/>
     </g>
     <g id="line2d_8">
      <g>
       <use xlink:href="#mc03318c991" x="361.458659" y="501.3525" style="stroke: #000000; stroke-width: 0.8"/>
      </g>
     </g>
     <g id="text_4">
      <!-- 75 -->
      <g transform="translate(350.999284 521.49625) scale(0.2 -0.2)">
       <defs>
        <path id="AptosDisplay-37" d="M 766 0 
L 2609 3600 
L 194 3600 
L 194 4078 
L 3141 4078 
L 3141 3622 
L 1334 0 
L 766 0 
z
" transform="scale(0.015625)"/>
       </defs>
       <use xlink:href="#AptosDisplay-37"/>
       <use xlink:href="#AptosDisplay-35" x="52.294922"/>
      </g>
     </g>
    </g>
    <g id="xtick_5">
     <g id="line2d_9">
      <path d="M 443.808128 501.3525 
L 443.808128 57.8325 
" clip-path="url(#pf2a9cd5526)" style="fill: none; stroke: #b0b0b0; stroke-opacity: 0.8; stroke-linecap: square"/>
     </g>
     <g id="line2d_10">
      <g>
       <use xlink:href="#mc03318c991" x="443.808128" y="501.3525" style="stroke: #000000; stroke-width: 0.8"/>
      </g>
     </g>
     <g id="text_5">
      <!-- 100 -->
      <g transform="translate(428.119065 521.49625) scale(0.2 -0.2)">
       <defs>
        <path id="AptosDisplay-31" d="M 1659 0 
L 1659 3425 
Q 1575 3309 1420 3201 
Q 1266 3094 1052 3009 
Q 838 2925 578 2888 
L 578 3381 
Q 834 3425 1057 3540 
Q 1281 3656 1453 3806 
Q 1625 3956 1719 4094 
L 2206 4094 
L 2206 0 
L 1659 0 
z
" transform="scale(0.015625)"/>
       </defs>
       <use xlink:href="#AptosDisplay-31"/>
       <use xlink:href="#AptosDisplay-30" x="52.294922"/>
       <use xlink:href="#AptosDisplay-30" x="104.589844"/>
      </g>
     </g>
    </g>
    <g id="xtick_6">
     <g id="line2d_11">
      <path d="M 526.157597 501.3525 
L 526.157597 57.8325 
" clip-path="url(#pf2a9cd5526)" style="fill: none; stroke: #b0b0b0; stroke-opacity: 0.8; stroke-linecap: square"/>
     </g>
     <g id="line2d_12">
      <g>
       <use xlink:href="#mc03318c991" x="526.157597" y="501.3525" style="stroke: #000000; stroke-width: 0.8"/>
      </g>
     </g>
     <g id="text_6">
      <!-- 125 -->
      <g transform="translate(510.468534 521.49625) scale(0.2 -0.2)">
       <use xlink:href="#AptosDisplay-31"/>
       <use xlink:href="#AptosDisplay-32" x="52.294922"/>
       <use xlink:href="#AptosDisplay-35" x="104.589844"/>
      </g>
     </g>
    </g>
    <g id="xtick_7">
     <g id="line2d_13">
      <path d="M 608.507065 501.3525 
L 608.507065 57.8325 
" clip-path="url(#pf2a9cd5526)" style="fill: none; stroke: #b0b0b0; stroke-opacity: 0.8; stroke-linecap: square"/>
     </g>
     <g id="line2d_14">
      <g>
       <use xlink:href="#mc03318c991" x="608.507065" y="501.3525" style="stroke: #000000; stroke-width: 0.8"/>
      </g>
     </g>
     <g id="text_7">
      <!-- 150 -->
      <g transform="translate(592.818003 521.49625) scale(0.2 -0.2)">
       <use xlink:href="#AptosDisplay-31"/>
       <use xlink:href="#AptosDisplay-35" x="52.294922"/>
       <use xlink:href="#AptosDisplay-30" x="104.589844"/>
      </g>
     </g>
    </g>
    <g id="xtick_8">
     <g id="line2d_15">
      <path d="M 690.856534 501.3525 
L 690.856534 57.8325 
" clip-path="url(#pf2a9cd5526)" style="fill: none; stroke: #b0b0b0; stroke-opacity: 0.8; stroke-linecap: square"/>
     </g>
     <g id="line2d_16">
      <g>
       <use xlink:href="#mc03318c991" x="690.856534" y="501.3525" style="stroke: #000000; stroke-width: 0.8"/>
      </g>
     </g>
     <g id="text_8">
      <!-- 175 -->
      <g transform="translate(675.167472 521.49625) scale(0.2 -0.2)">
       <use xlink:href="#AptosDisplay-31"/>
       <use xlink:href="#AptosDisplay-37" x="52.294922"/>
       <use xlink:href="#AptosDisplay-35" x="104.589844"/>
      </g>
     </g>
    </g>
    <g id="xtick_9">
     <g id="line2d_17">
      <path d="M 97.940359 501.3525 
L 97.940359 57.8325 
" clip-path="url(#pf2a9cd5526)" style="fill: none; stroke-dasharray: 1.85,0.8; stroke-dashoffset: 0; stroke: #b0b0b0; stroke-opacity: 0.8; stroke-width: 0.5"/>
     </g>
     <g id="line2d_18">
      <defs>
       <path id="m3b573454f7" d="M 0 0 
L 0 2 
" style="stroke: #000000; stroke-width: 0.6"/>
      </defs>
      <g>
       <use xlink:href="#m3b573454f7" x="97.940359" y="501.3525" style="stroke: #000000; stroke-width: 0.6"/>
      </g>
     </g>
    </g>
    <g id="xtick_10">
     <g id="line2d_19">
      <path d="M 130.880147 501.3525 
L 130.880147 57.8325 
" clip-path="url(#pf2a9cd5526)" style="fill: none; stroke-dasharray: 1.85,0.8; stroke-dashoffset: 0; stroke: #b0b0b0; stroke-opacity: 0.8; stroke-width: 0.5"/>
     </g>
     <g id="line2d_20">
      <g>
       <use xlink:href="#m3b573454f7" x="130.880147" y="501.3525" style="stroke: #000000; stroke-width: 0.6"/>
      </g>
     </g>
    </g>
    <g id="xtick_11">
     <g id="line2d_21">
      <path d="M 147.350041 501.3525 
L 147.350041 57.8325 
" clip-path="url(#pf2a9cd5526)" style="fill: none; stroke-dasharray: 1.85,0.8; stroke-dashoffset: 0; stroke: #b0b0b0; stroke-opacity: 0.8; stroke-width: 0.5"/>
     </g>
     <g id="line2d_22">
      <g>
       <use xlink:href="#m3b573454f7" x="147.350041" y="501.3525" style="stroke: #000000; stroke-width: 0.6"/>
      </g>
     </g>
    </g>
    <g id="xtick_12">
     <g id="line2d_23">
      <path d="M 163.819934 501.3525 
L 163.819934 57.8325 
" clip-path="url(#pf2a9cd5526)" style="fill: none; stroke-dasharray: 1.85,0.8; stroke-dashoffset: 0; stroke: #b0b0b0; stroke-opacity: 0.8; stroke-width: 0.5"/>
     </g>
     <g id="line2d_24">
      <g>
       <use xlink:href="#m3b573454f7" x="163.819934" y="501.3525" style="stroke: #000000; stroke-width: 0.6"/>
      </g>
     </g>
    </g>
    <g id="xtick_13">
     <g id="line2d_25">
      <path d="M 180.289828 501.3525 
L 180.289828 57.8325 
" clip-path="url(#pf2a9cd5526)" style="fill: none; stroke-dasharray: 1.85,0.8; stroke-dashoffset: 0; stroke: #b0b0b0; stroke-opacity: 0.8; stroke-width: 0.5"/>
     </g>
     <g id="line2d_26">
      <g>
       <use xlink:href="#m3b573454f7" x="180.289828" y="501.3525" style="stroke: #000000; stroke-width: 0.6"/>
      </g>
     </g>
    </g>
    <g id="xtick_14">
     <g id="line2d_27">
      <path d="M 213.229616 501.3525 
L 213.229616 57.8325 
" clip-path="url(#pf2a9cd5526)" style="fill: none; stroke-dasharray: 1.85,0.8; stroke-dashoffset: 0; stroke: #b0b0b0; stroke-opacity: 0.8; stroke-width: 0.5"/>
     </g>
     <g id="line2d_28">
      <g>
       <use xlink:href="#m3b573454f7" x="213.229616" y="501.3525" style="stroke: #000000; stroke-width: 0.6"/>
      </g>
     </g>
    </g>
    <g id="xtick_15">
     <g id="line2d_29">
      <path d="M 229.699509 501.3525 
L 229.699509 57.8325 
" clip-path="url(#pf2a9cd5526)" style="fill: none; stroke-dasharray: 1.85,0.8; stroke-dashoffset: 0; stroke: #b0b0b0; stroke-opacity: 0.8; stroke-width: 0.5"/>
     </g>
     <g id="line2d_30">
      <g>
       <use xlink:href="#m3b573454f7" x="229.699509" y="501.3525" style="stroke: #000000; stroke-width: 0.6"/>
      </g>
     </g>
    </g>
    <g id="xtick_16">
     <g id="line2d_31">
      <path d="M 246.169403 501.3525 
L 246.169403 57.8325 
" clip-path="url(#pf2a9cd5526)" style="fill: none; stroke-dasharray: 1.85,0.8; stroke-dashoffset: 0; stroke: #b0b0b0; stroke-opacity: 0.8; stroke-width: 0.5"/>
     </g>
     <g id="line2d_32">
      <g>
       <use xlink:href="#m3b573454f7" x="246.169403" y="501.3525" style="stroke: #000000; stroke-width: 0.6"/>
      </g>
     </g>
    </g>
    <g id="xtick_17">
     <g id="line2d_33">
      <path d="M 262.639297 501.3525 
L 262.639297 57.8325 
" clip-path="url(#pf2a9cd5526)" style="fill: none; stroke-dasharray: 1.85,0.8; stroke-dashoffset: 0; stroke: #b0b0b0; stroke-opacity: 0.8; stroke-width: 0.5"/>
     </g>
     <g id="line2d_34">
      <g>
       <use xlink:href="#m3b573454f7" x="262.639297" y="501.3525" style="stroke: #000000; stroke-width: 0.6"/>
      </g>
     </g>
    </g>
    <g id="xtick_18">
     <g id="line2d_35">
      <path d="M 295.579084 501.3525 
L 295.579084 57.8325 
" clip-path="url(#pf2a9cd5526)" style="fill: none; stroke-dasharray: 1.85,0.8; stroke-dashoffset: 0; stroke: #b0b0b0; stroke-opacity: 0.8; stroke-width: 0.5"/>
     </g>
     <g id="line2d_36">
      <g>
       <use xlink:href="#m3b573454f7" x="295.579084" y="501.3525" style="stroke: #000000; stroke-width: 0.6"/>
      </g>
     </g>
    </g>
    <g id="xtick_19">
     <g id="line2d_37">
      <path d="M 312.048978 501.3525 
L 312.048978 57.8325 
" clip-path="url(#pf2a9cd5526)" style="fill: none; stroke-dasharray: 1.85,0.8; stroke-dashoffset: 0; stroke: #b0b0b0; stroke-opacity: 0.8; stroke-width: 0.5"/>
     </g>
     <g id="line2d_38">
      <g>
       <use xlink:href="#m3b573454f7" x="312.048978" y="501.3525" style="stroke: #000000; stroke-width: 0.6"/>
      </g>
     </g>
    </g>
    <g id="xtick_20">
     <g id="line2d_39">
      <path d="M 328.518872 501.3525 
L 328.518872 57.8325 
" clip-path="url(#pf2a9cd5526)" style="fill: none; stroke-dasharray: 1.85,0.8; stroke-dashoffset: 0; stroke: #b0b0b0; stroke-opacity: 0.8; stroke-width: 0.5"/>
     </g>
     <g id="line2d_40">
      <g>
       <use xlink:href="#m3b573454f7" x="328.518872" y="501.3525" style="stroke: #000000; stroke-width: 0.6"/>
      </g>
     </g>
    </g>
    <g id="xtick_21">
     <g id="line2d_41">
      <path d="M 344.988765 501.3525 
L 344.988765 57.8325 
" clip-path="url(#pf2a9cd5526)" style="fill: none; stroke-dasharray: 1.85,0.8; stroke-dashoffset: 0; stroke: #b0b0b0; stroke-opacity: 0.8; stroke-width: 0.5"/>
     </g>
     <g id="line2d_42">
      <g>
       <use xlink:href="#m3b573454f7" x="344.988765" y="501.3525" style="stroke: #000000; stroke-width: 0.6"/>
      </g>
     </g>
    </g>
    <g id="xtick_22">
     <g id="line2d_43">
      <path d="M 377.928553 501.3525 
L 377.928553 57.8325 
" clip-path="url(#pf2a9cd5526)" style="fill: none; stroke-dasharray: 1.85,0.8; stroke-dashoffset: 0; stroke: #b0b0b0; stroke-opacity: 0.8; stroke-width: 0.5"/>
     </g>
     <g id="line2d_44">
      <g>
       <use xlink:href="#m3b573454f7" x="377.928553" y="501.3525" style="stroke: #000000; stroke-width: 0.6"/>
      </g>
     </g>
    </g>
    <g id="xtick_23">
     <g id="line2d_45">
      <path d="M 394.398447 501.3525 
L 394.398447 57.8325 
" clip-path="url(#pf2a9cd5526)" style="fill: none; stroke-dasharray: 1.85,0.8; stroke-dashoffset: 0; stroke: #b0b0b0; stroke-opacity: 0.8; stroke-width: 0.5"/>
     </g>
     <g id="line2d_46">
      <g>
       <use xlink:href="#m3b573454f7" x="394.398447" y="501.3525" style="stroke: #000000; stroke-width: 0.6"/>
      </g>
     </g>
    </g>
    <g id="xtick_24">
     <g id="line2d_47">
      <path d="M 410.86834 501.3525 
L 410.86834 57.8325 
" clip-path="url(#pf2a9cd5526)" style="fill: none; stroke-dasharray: 1.85,0.8; stroke-dashoffset: 0; stroke: #b0b0b0; stroke-opacity: 0.8; stroke-width: 0.5"/>
     </g>
     <g id="line2d_48">
      <g>
       <use xlink:href="#m3b573454f7" x="410.86834" y="501.3525" style="stroke: #000000; stroke-width: 0.6"/>
      </g>
     </g>
    </g>
    <g id="xtick_25">
     <g id="line2d_49">
      <path d="M 427.338234 501.3525 
L 427.338234 57.8325 
" clip-path="url(#pf2a9cd5526)" style="fill: none; stroke-dasharray: 1.85,0.8; stroke-dashoffset: 0; stroke: #b0b0b0; stroke-opacity: 0.8; stroke-width: 0.5"/>
     </g>
     <g id="line2d_50">
      <g>
       <use xlink:href="#m3b573454f7" x="427.338234" y="501.3525" style="stroke: #000000; stroke-width: 0.6"/>
      </g>
     </g>
    </g>
    <g id="xtick_26">
     <g id="line2d_51">
      <path d="M 460.278022 501.3525 
L 460.278022 57.8325 
" clip-path="url(#pf2a9cd5526)" style="fill: none; stroke-dasharray: 1.85,0.8; stroke-dashoffset: 0; stroke: #b0b0b0; stroke-opacity: 0.8; stroke-width: 0.5"/>
     </g>
     <g id="line2d_52">
      <g>
       <use xlink:href="#m3b573454f7" x="460.278022" y="501.3525" style="stroke: #000000; stroke-width: 0.6"/>
      </g>
     </g>
    </g>
    <g id="xtick_27">
     <g id="line2d_53">
      <path d="M 476.747915 501.3525 
L 476.747915 57.8325 
" clip-path="url(#pf2a9cd5526)" style="fill: none; stroke-dasharray: 1.85,0.8; stroke-dashoffset: 0; stroke: #b0b0b0; stroke-opacity: 0.8; stroke-width: 0.5"/>
     </g>
     <g id="line2d_54">
      <g>
       <use xlink:href="#m3b573454f7" x="476.747915" y="501.3525" style="stroke: #000000; stroke-width: 0.6"/>
      </g>
     </g>
    </g>
    <g id="xtick_28">
     <g id="line2d_55">
      <path d="M 493.217809 501.3525 
L 493.217809 57.8325 
" clip-path="url(#pf2a9cd5526)" style="fill: none; stroke-dasharray: 1.85,0.8; stroke-dashoffset: 0; stroke: #b0b0b0; stroke-opacity: 0.8; stroke-width: 0.5"/>
     </g>
     <g id="line2d_56">
      <g>
       <use xlink:href="#m3b573454f7" x="493.217809" y="501.3525" style="stroke: #000000; stroke-width: 0.6"/>
      </g>
     </g>
    </g>
    <g id="xtick_29">
     <g id="line2d_57">
      <path d="M 509.687703 501.3525 
L 509.687703 57.8325 
" clip-path="url(#pf2a9cd5526)" style="fill: none; stroke-dasharray: 1.85,0.8; stroke-dashoffset: 0; stroke: #b0b0b0; stroke-opacity: 0.8; stroke-width: 0.5"/>
     </g>
     <g id="line2d_58">
      <g>
       <use xlink:href="#m3b573454f7" x="509.687703" y="501.3525" style="stroke: #000000; stroke-width: 0.6"/>
      </g>
     </g>
    </g>
    <g id="xtick_30">
     <g id="line2d_59">
      <path d="M 542.62749 501.3525 
L 542.62749 57.8325 
" clip-path="url(#pf2a9cd5526)" style="fill: none; stroke-dasharray: 1.85,0.8; stroke-dashoffset: 0; stroke: #b0b0b0; stroke-opacity: 0.8; stroke-width: 0.5"/>
     </g>
     <g id="line2d_60">
      <g>
       <use xlink:href="#m3b573454f7" x="542.62749" y="501.3525" style="stroke: #000000; stroke-width: 0.6"/>
      </g>
     </g>
    </g>
    <g id="xtick_31">
     <g id="line2d_61">
      <path d="M 559.097384 501.3525 
L 559.097384 57.8325 
" clip-path="url(#pf2a9cd5526)" style="fill: none; stroke-dasharray: 1.85,0.8; stroke-dashoffset: 0; stroke: #b0b0b0; stroke-opacity: 0.8; stroke-width: 0.5"/>
     </g>
     <g id="line2d_62">
      <g>
       <use xlink:href="#m3b573454f7" x="559.097384" y="501.3525" style="stroke: #000000; stroke-width: 0.6"/>
      </g>
     </g>
    </g>
    <g id="xtick_32">
     <g id="line2d_63">
      <path d="M 575.567278 501.3525 
L 575.567278 57.8325 
" clip-path="url(#pf2a9cd5526)" style="fill: none; stroke-dasharray: 1.85,0.8; stroke-dashoffset: 0; stroke: #b0b0b0; stroke-opacity: 0.8; stroke-width: 0.5"/>
     </g>
     <g id="line2d_64">
      <g>
       <use xlink:href="#m3b573454f7" x="575.567278" y="501.3525" style="stroke: #000000; stroke-width: 0.6"/>
      </g>
     </g>
    </g>
    <g id="xtick_33">
     <g id="line2d_65">
      <path d="M 592.037172 501.3525 
L 592.037172 57.8325 
" clip-path="url(#pf2a9cd5526)" style="fill: none; stroke-dasharray: 1.85,0.8; stroke-dashoffset: 0; stroke: #b0b0b0; stroke-opacity: 0.8; stroke-width: 0.5"/>
     </g>
     <g id="line2d_66">
      <g>
       <use xlink:href="#m3b573454f7" x="592.037172" y="501.3525" style="stroke: #000000; stroke-width: 0.6"/>
      </g>
     </g>
    </g>
    <g id="xtick_34">
     <g id="line2d_67">
      <path d="M 624.976959 501.3525 
L 624.976959 57.8325 
" clip-path="url(#pf2a9cd5526)" style="fill: none; stroke-dasharray: 1.85,0.8; stroke-dashoffset: 0; stroke: #b0b0b0; stroke-opacity: 0.8; stroke-width: 0.5"/>
     </g>
     <g id="line2d_68">
      <g>
       <use xlink:href="#m3b573454f7" x="624.976959" y="501.3525" style="stroke: #000000; stroke-width: 0.6"/>
      </g>
     </g>
    </g>
    <g id="xtick_35">
     <g id="line2d_69">
      <path d="M 641.446853 501.3525 
L 641.446853 57.8325 
" clip-path="url(#pf2a9cd5526)" style="fill: none; stroke-dasharray: 1.85,0.8; stroke-dashoffset: 0; stroke: #b0b0b0; stroke-opacity: 0.8; stroke-width: 0.5"/>
     </g>
     <g id="line2d_70">
      <g>
       <use xlink:href="#m3b573454f7" x="641.446853" y="501.3525" style="stroke: #000000; stroke-width: 0.6"/>
      </g>
     </g>
    </g>
    <g id="xtick_36">
     <g id="line2d_71">
      <path d="M 657.916747 501.3525 
L 657.916747 57.8325 
" clip-path="url(#pf2a9cd5526)" style="fill: none; stroke-dasharray: 1.85,0.8; stroke-dashoffset: 0; stroke: #b0b0b0; stroke-opacity: 0.8; stroke-width: 0.5"/>
     </g>
     <g id="line2d_72">
      <g>
       <use xlink:href="#m3b573454f7" x="657.916747" y="501.3525" style="stroke: #000000; stroke-width: 0.6"/>
      </g>
     </g>
    </g>
    <g id="xtick_37">
     <g id="line2d_73">
      <path d="M 674.38664 501.3525 
L 674.38664 57.8325 
" clip-path="url(#pf2a9cd5526)" style="fill: none; stroke-dasharray: 1.85,0.8; stroke-dashoffset: 0; stroke: #b0b0b0; stroke-opacity: 0.8; stroke-width: 0.5"/>
     </g>
     <g id="line2d_74">
      <g>
       <use xlink:href="#m3b573454f7" x="674.38664" y="501.3525" style="stroke: #000000; stroke-width: 0.6"/>
      </g>
     </g>
    </g>
    <g id="xtick_38">
     <g id="line2d_75">
      <path d="M 707.326428 501.3525 
L 707.326428 57.8325 
" clip-path="url(#pf2a9cd5526)" style="fill: none; stroke-dasharray: 1.85,0.8; stroke-dashoffset: 0; stroke: #b0b0b0; stroke-opacity: 0.8; stroke-width: 0.5"/>
     </g>
     <g id="line2d_76">
      <g>
       <use xlink:href="#m3b573454f7" x="707.326428" y="501.3525" style="stroke: #000000; stroke-width: 0.6"/>
      </g>
     </g>
    </g>
    <g id="xtick_39">
     <g id="line2d_77">
      <path d="M 723.796322 501.3525 
L 723.796322 57.8325 
" clip-path="url(#pf2a9cd5526)" style="fill: none; stroke-dasharray: 1.85,0.8; stroke-dashoffset: 0; stroke: #b0b0b0; stroke-opacity: 0.8; stroke-width: 0.5"/>
     </g>
     <g id="line2d_78">
      <g>
       <use xlink:href="#m3b573454f7" x="723.796322" y="501.3525" style="stroke: #000000; stroke-width: 0.6"/>
      </g>
     </g>
    </g>
    <g id="xtick_40">
     <g id="line2d_79">
      <path d="M 740.266215 501.3525 
L 740.266215 57.8325 
" clip-path="url(#pf2a9cd5526)" style="fill: none; stroke-dasharray: 1.85,0.8; stroke-dashoffset: 0; stroke: #b0b0b0; stroke-opacity: 0.8; stroke-width: 0.5"/>
     </g>
     <g id="line2d_80">
      <g>
       <use xlink:href="#m3b573454f7" x="740.266215" y="501.3525" style="stroke: #000000; stroke-width: 0.6"/>
      </g>
     </g>
    </g>
    <g id="text_9">
     <!-- Time (S) -->
     <g transform="translate(386.375 542.305625) scale(0.2 -0.2)">
      <defs>
       <path id="AptosDisplay-54" d="M 1244 0 
L 1244 3734 
L 50 3734 
L 50 4206 
L 2997 4206 
L 2997 3734 
L 1806 3734 
L 1806 0 
L 1244 0 
z
" transform="scale(0.015625)"/>
       <path id="AptosDisplay-69" d="M 413 0 
L 413 3044 
L 934 3044 
L 934 0 
L 413 0 
z
M 675 3616 
Q 525 3616 437 3702 
Q 350 3788 350 3919 
Q 350 4050 437 4136 
Q 525 4222 675 4222 
Q 822 4222 912 4136 
Q 1003 4050 1003 3919 
Q 1003 3788 912 3702 
Q 822 3616 675 3616 
z
" transform="scale(0.015625)"/>
       <path id="AptosDisplay-6d" d="M 413 0 
L 413 3044 
L 919 3044 
L 931 2575 
Q 1063 2756 1303 2914 
Q 1544 3072 1903 3072 
Q 2403 3072 2618 2778 
Q 2834 2484 2834 1963 
L 2834 0 
L 2316 0 
L 2316 1891 
Q 2316 2106 2275 2275 
Q 2234 2444 2120 2539 
Q 2006 2634 1788 2634 
Q 1488 2634 1277 2482 
Q 1066 2331 934 2156 
L 934 0 
L 413 0 
z
M 4206 0 
L 4206 1891 
Q 4206 2106 4164 2275 
Q 4122 2444 4009 2539 
Q 3897 2634 3681 2634 
Q 3381 2634 3165 2484 
Q 2950 2334 2822 2159 
L 2744 2544 
Q 2916 2741 3175 2906 
Q 3434 3072 3800 3072 
Q 4291 3072 4509 2778 
Q 4728 2484 4728 1963 
L 4728 0 
L 4206 0 
z
" transform="scale(0.015625)"/>
       <path id="AptosDisplay-65" d="M 1663 -56 
Q 1188 -56 878 151 
Q 569 359 417 717 
Q 266 1075 266 1522 
Q 266 1988 412 2342 
Q 559 2697 857 2897 
Q 1156 3097 1606 3097 
Q 2209 3097 2550 2722 
Q 2891 2347 2891 1644 
Q 2891 1597 2889 1533 
Q 2888 1469 2881 1441 
L 791 1441 
Q 794 1144 881 895 
Q 969 647 1161 497 
Q 1353 347 1663 347 
Q 1997 347 2183 511 
Q 2369 675 2378 984 
L 2894 984 
Q 2884 663 2732 430 
Q 2581 197 2309 70 
Q 2038 -56 1663 -56 
z
M 794 1822 
L 2375 1822 
Q 2366 2247 2166 2472 
Q 1966 2697 1606 2697 
Q 1241 2697 1036 2473 
Q 831 2250 794 1822 
z
" transform="scale(0.015625)"/>
       <path id="AptosDisplay-20" transform="scale(0.015625)"/>
       <path id="AptosDisplay-28" d="M 1219 -1116 
Q 969 -678 787 -267 
Q 606 144 511 581 
Q 416 1019 416 1528 
Q 416 2028 509 2486 
Q 603 2944 783 3378 
Q 963 3813 1219 4231 
L 1647 4231 
Q 1278 3600 1101 2886 
Q 925 2172 925 1428 
Q 925 766 1125 103 
Q 1325 -559 1647 -1116 
L 1219 -1116 
z
" transform="scale(0.015625)"/>
       <path id="AptosDisplay-53" d="M 1778 -56 
Q 1328 -56 962 81 
Q 597 219 384 512 
Q 172 806 172 1275 
L 734 1275 
Q 738 941 883 750 
Q 1028 559 1267 481 
Q 1506 403 1794 403 
Q 2063 403 2283 483 
Q 2503 563 2634 723 
Q 2766 884 2766 1134 
Q 2766 1356 2662 1497 
Q 2559 1638 2321 1742 
Q 2084 1847 1678 1950 
Q 1203 2075 897 2223 
Q 591 2372 442 2594 
Q 294 2816 294 3156 
Q 294 3516 462 3761 
Q 631 4006 945 4134 
Q 1259 4263 1697 4263 
Q 2103 4263 2440 4131 
Q 2778 4000 2979 3737 
Q 3181 3475 3181 3084 
L 2616 3084 
Q 2622 3441 2356 3623 
Q 2091 3806 1700 3806 
Q 1300 3806 1073 3645 
Q 847 3484 847 3175 
Q 847 2991 944 2867 
Q 1041 2744 1280 2644 
Q 1519 2544 1941 2434 
Q 2428 2303 2731 2153 
Q 3034 2003 3178 1768 
Q 3322 1534 3322 1153 
Q 3322 747 3117 480 
Q 2913 213 2564 78 
Q 2216 -56 1778 -56 
z
" transform="scale(0.015625)"/>
       <path id="AptosDisplay-29" d="M 234 -1116 
Q 609 -481 786 233 
Q 963 947 963 1694 
Q 963 2356 759 3015 
Q 556 3675 234 4231 
L 663 4231 
Q 919 3800 1098 3389 
Q 1278 2978 1373 2540 
Q 1469 2103 1469 1594 
Q 1469 1094 1375 634 
Q 1281 175 1100 -259 
Q 919 -694 663 -1116 
L 234 -1116 
z
" transform="scale(0.015625)"/>
      </defs>
      <use xlink:href="#AptosDisplay-54"/>
      <use xlink:href="#AptosDisplay-69" x="47.705078"/>
      <use xlink:href="#AptosDisplay-6d" x="68.75"/>
      <use xlink:href="#AptosDisplay-65" x="148.730469"/>
      <use xlink:href="#AptosDisplay-20" x="198.144531"/>
      <use xlink:href="#AptosDisplay-28" x="217.431641"/>
      <use xlink:href="#AptosDisplay-53" x="246.875"/>
      <use xlink:href="#AptosDisplay-29" x="301.464844"/>
     </g>
    </g>
   </g>
   <g id="matplotlib.axis_2">
    <g id="ytick_1">
     <g id="line2d_81">
      <path d="M 84.665625 480.444234 
L 754.265625 480.444234 
" clip-path="url(#pf2a9cd5526)" style="fill: none; stroke: #b0b0b0; stroke-opacity: 0.8; stroke-linecap: square"/>
     </g>
     <g id="line2d_82">
      <defs>
       <path id="m4640b49cb9" d="M 0 0 
L -3.5 0 
" style="stroke: #000000; stroke-width: 0.8"/>
      </defs>
      <g>
       <use xlink:href="#m4640b49cb9" x="84.665625" y="480.444234" style="stroke: #000000; stroke-width: 0.8"/>
      </g>
     </g>
     <g id="text_10">
      <!-- 5 -->
      <g transform="translate(67.20625 487.016109) scale(0.2 -0.2)">
       <use xlink:href="#AptosDisplay-35"/>
      </g>
     </g>
    </g>
    <g id="ytick_2">
     <g id="line2d_83">
      <path d="M 84.665625 423.576055 
L 754.265625 423.576055 
" clip-path="url(#pf2a9cd5526)" style="fill: none; stroke: #b0b0b0; stroke-opacity: 0.8; stroke-linecap: square"/>
     </g>
     <g id="line2d_84">
      <g>
       <use xlink:href="#m4640b49cb9" x="84.665625" y="423.576055" style="stroke: #000000; stroke-width: 0.8"/>
      </g>
     </g>
     <g id="text_11">
      <!-- 10 -->
      <g transform="translate(56.746875 430.14793) scale(0.2 -0.2)">
       <use xlink:href="#AptosDisplay-31"/>
       <use xlink:href="#AptosDisplay-30" x="52.294922"/>
      </g>
     </g>
    </g>
    <g id="ytick_3">
     <g id="line2d_85">
      <path d="M 84.665625 366.707875 
L 754.265625 366.707875 
" clip-path="url(#pf2a9cd5526)" style="fill: none; stroke: #b0b0b0; stroke-opacity: 0.8; stroke-linecap: square"/>
     </g>
     <g id="line2d_86">
      <g>
       <use xlink:href="#m4640b49cb9" x="84.665625" y="366.707875" style="stroke: #000000; stroke-width: 0.8"/>
      </g>
     </g>
     <g id="text_12">
      <!-- 15 -->
      <g transform="translate(56.746875 373.27975) scale(0.2 -0.2)">
       <use xlink:href="#AptosDisplay-31"/>
       <use xlink:href="#AptosDisplay-35" x="52.294922"/>
      </g>
     </g>
    </g>
    <g id="ytick_4">
     <g id="line2d_87">
      <path d="M 84.665625 309.839695 
L 754.265625 309.839695 
" clip-path="url(#pf2a9cd5526)" style="fill: none; stroke: #b0b0b0; stroke-opacity: 0.8; stroke-linecap: square"/>
     </g>
     <g id="line2d_88">
      <g>
       <use xlink:href="#m4640b49cb9" x="84.665625" y="309.839695" style="stroke: #000000; stroke-width: 0.8"/>
      </g>
     </g>
     <g id="text_13">
      <!-- 20 -->
      <g transform="translate(56.746875 316.41157) scale(0.2 -0.2)">
       <use xlink:href="#AptosDisplay-32"/>
       <use xlink:href="#AptosDisplay-30" x="52.294922"/>
      </g>
     </g>
    </g>
    <g id="ytick_5">
     <g id="line2d_89">
      <path d="M 84.665625 252.971515 
L 754.265625 252.971515 
" clip-path="url(#pf2a9cd5526)" style="fill: none; stroke: #b0b0b0; stroke-opacity: 0.8; stroke-linecap: square"/>
     </g>
     <g id="line2d_90">
      <g>
       <use xlink:href="#m4640b49cb9" x="84.665625" y="252.971515" style="stroke: #000000; stroke-width: 0.8"/>
      </g>
     </g>
     <g id="text_14">
      <!-- 25 -->
      <g transform="translate(56.746875 259.54339) scale(0.2 -0.2)">
       <use xlink:href="#AptosDisplay-32"/>
       <use xlink:href="#AptosDisplay-35" x="52.294922"/>
      </g>
     </g>
    </g>
    <g id="ytick_6">
     <g id="line2d_91">
      <path d="M 84.665625 196.103335 
L 754.265625 196.103335 
" clip-path="url(#pf2a9cd5526)" style="fill: none; stroke: #b0b0b0; stroke-opacity: 0.8; stroke-linecap: square"/>
     </g>
     <g id="line2d_92">
      <g>
       <use xlink:href="#m4640b49cb9" x="84.665625" y="196.103335" style="stroke: #000000; stroke-width: 0.8"/>
      </g>
     </g>
     <g id="text_15">
      <!-- 30 -->
      <g transform="translate(56.746875 202.67521) scale(0.2 -0.2)">
       <defs>
        <path id="AptosDisplay-33" d="M 1700 -56 
Q 1047 -56 655 275 
Q 263 606 263 1225 
L 781 1225 
Q 781 844 1023 617 
Q 1266 391 1697 391 
Q 2094 391 2322 581 
Q 2550 772 2550 1172 
Q 2550 1556 2297 1737 
Q 2044 1919 1609 1919 
L 1366 1919 
L 1366 2363 
L 1622 2363 
Q 2013 2363 2222 2555 
Q 2431 2747 2431 3066 
Q 2431 3372 2226 3526 
Q 2022 3681 1684 3681 
Q 1306 3681 1095 3481 
Q 884 3281 891 2956 
L 372 2956 
Q 372 3319 536 3583 
Q 700 3847 995 3990 
Q 1291 4134 1681 4134 
Q 2031 4134 2318 4017 
Q 2606 3900 2778 3670 
Q 2950 3441 2950 3097 
Q 2950 2738 2745 2498 
Q 2541 2259 2206 2166 
Q 2591 2097 2841 1836 
Q 3091 1575 3091 1150 
Q 3091 763 2916 494 
Q 2741 225 2428 84 
Q 2116 -56 1700 -56 
z
" transform="scale(0.015625)"/>
       </defs>
       <use xlink:href="#AptosDisplay-33"/>
       <use xlink:href="#AptosDisplay-30" x="52.294922"/>
      </g>
     </g>
    </g>
    <g id="ytick_7">
     <g id="line2d_93">
      <path d="M 84.665625 139.235155 
L 754.265625 139.235155 
" clip-path="url(#pf2a9cd5526)" style="fill: none; stroke: #b0b0b0; stroke-opacity: 0.8; stroke-linecap: square"/>
     </g>
     <g id="line2d_94">
      <g>
       <use xlink:href="#m4640b49cb9" x="84.665625" y="139.235155" style="stroke: #000000; stroke-width: 0.8"/>
      </g>
     </g>
     <g id="text_16">
      <!-- 35 -->
      <g transform="translate(56.746875 145.80703) scale(0.2 -0.2)">
       <use xlink:href="#AptosDisplay-33"/>
       <use xlink:href="#AptosDisplay-35" x="52.294922"/>
      </g>
     </g>
    </g>
    <g id="ytick_8">
     <g id="line2d_95">
      <path d="M 84.665625 82.366975 
L 754.265625 82.366975 
" clip-path="url(#pf2a9cd5526)" style="fill: none; stroke: #b0b0b0; stroke-opacity: 0.8; stroke-linecap: square"/>
     </g>
     <g id="line2d_96">
      <g>
       <use xlink:href="#m4640b49cb9" x="84.665625" y="82.366975" style="stroke: #000000; stroke-width: 0.8"/>
      </g>
     </g>
     <g id="text_17">
      <!-- 40 -->
      <g transform="translate(56.746875 88.93885) scale(0.2 -0.2)">
       <defs>
        <path id="AptosDisplay-34" d="M 2106 0 
L 2106 825 
L 125 825 
L 125 1297 
L 2100 4103 
L 2631 4103 
L 2631 1284 
L 3191 1284 
L 3191 825 
L 2631 825 
L 2631 0 
L 2106 0 
z
M 638 1284 
L 2113 1284 
L 2113 3369 
L 638 1284 
z
" transform="scale(0.015625)"/>
       </defs>
       <use xlink:href="#AptosDisplay-34"/>
       <use xlink:href="#AptosDisplay-30" x="52.294922"/>
      </g>
     </g>
    </g>
    <g id="ytick_9">
     <g id="line2d_97">
      <path d="M 84.665625 491.81787 
L 754.265625 491.81787 
" clip-path="url(#pf2a9cd5526)" style="fill: none; stroke-dasharray: 1.85,0.8; stroke-dashoffset: 0; stroke: #b0b0b0; stroke-opacity: 0.8; stroke-width: 0.5"/>
     </g>
     <g id="line2d_98">
      <defs>
       <path id="m196e873428" d="M 0 0 
L -2 0 
" style="stroke: #000000; stroke-width: 0.6"/>
      </defs>
      <g>
       <use xlink:href="#m196e873428" x="84.665625" y="491.81787" style="stroke: #000000; stroke-width: 0.6"/>
      </g>
     </g>
    </g>
    <g id="ytick_10">
     <g id="line2d_99">
      <path d="M 84.665625 469.070599 
L 754.265625 469.070599 
" clip-path="url(#pf2a9cd5526)" style="fill: none; stroke-dasharray: 1.85,0.8; stroke-dashoffset: 0; stroke: #b0b0b0; stroke-opacity: 0.8; stroke-width: 0.5"/>
     </g>
     <g id="line2d_100">
      <g>
       <use xlink:href="#m196e873428" x="84.665625" y="469.070599" style="stroke: #000000; stroke-width: 0.6"/>
      </g>
     </g>
    </g>
    <g id="ytick_11">
     <g id="line2d_101">
      <path d="M 84.665625 457.696963 
L 754.265625 457.696963 
" clip-path="url(#pf2a9cd5526)" style="fill: none; stroke-dasharray: 1.85,0.8; stroke-dashoffset: 0; stroke: #b0b0b0; stroke-opacity: 0.8; stroke-width: 0.5"/>
     </g>
     <g id="line2d_102">
      <g>
       <use xlink:href="#m196e873428" x="84.665625" y="457.696963" style="stroke: #000000; stroke-width: 0.6"/>
      </g>
     </g>
    </g>
    <g id="ytick_12">
     <g id="line2d_103">
      <path d="M 84.665625 446.323327 
L 754.265625 446.323327 
" clip-path="url(#pf2a9cd5526)" style="fill: none; stroke-dasharray: 1.85,0.8; stroke-dashoffset: 0; stroke: #b0b0b0; stroke-opacity: 0.8; stroke-width: 0.5"/>
     </g>
     <g id="line2d_104">
      <g>
       <use xlink:href="#m196e873428" x="84.665625" y="446.323327" style="stroke: #000000; stroke-width: 0.6"/>
      </g>
     </g>
    </g>
    <g id="ytick_13">
     <g id="line2d_105">
      <path d="M 84.665625 434.949691 
L 754.265625 434.949691 
" clip-path="url(#pf2a9cd5526)" style="fill: none; stroke-dasharray: 1.85,0.8; stroke-dashoffset: 0; stroke: #b0b0b0; stroke-opacity: 0.8; stroke-width: 0.5"/>
     </g>
     <g id="line2d_106">
      <g>
       <use xlink:href="#m196e873428" x="84.665625" y="434.949691" style="stroke: #000000; stroke-width: 0.6"/>
      </g>
     </g>
    </g>
    <g id="ytick_14">
     <g id="line2d_107">
      <path d="M 84.665625 412.202419 
L 754.265625 412.202419 
" clip-path="url(#pf2a9cd5526)" style="fill: none; stroke-dasharray: 1.85,0.8; stroke-dashoffset: 0; stroke: #b0b0b0; stroke-opacity: 0.8; stroke-width: 0.5"/>
     </g>
     <g id="line2d_108">
      <g>
       <use xlink:href="#m196e873428" x="84.665625" y="412.202419" style="stroke: #000000; stroke-width: 0.6"/>
      </g>
     </g>
    </g>
    <g id="ytick_15">
     <g id="line2d_109">
      <path d="M 84.665625 400.828783 
L 754.265625 400.828783 
" clip-path="url(#pf2a9cd5526)" style="fill: none; stroke-dasharray: 1.85,0.8; stroke-dashoffset: 0; stroke: #b0b0b0; stroke-opacity: 0.8; stroke-width: 0.5"/>
     </g>
     <g id="line2d_110">
      <g>
       <use xlink:href="#m196e873428" x="84.665625" y="400.828783" style="stroke: #000000; stroke-width: 0.6"/>
      </g>
     </g>
    </g>
    <g id="ytick_16">
     <g id="line2d_111">
      <path d="M 84.665625 389.455147 
L 754.265625 389.455147 
" clip-path="url(#pf2a9cd5526)" style="fill: none; stroke-dasharray: 1.85,0.8; stroke-dashoffset: 0; stroke: #b0b0b0; stroke-opacity: 0.8; stroke-width: 0.5"/>
     </g>
     <g id="line2d_112">
      <g>
       <use xlink:href="#m196e873428" x="84.665625" y="389.455147" style="stroke: #000000; stroke-width: 0.6"/>
      </g>
     </g>
    </g>
    <g id="ytick_17">
     <g id="line2d_113">
      <path d="M 84.665625 378.081511 
L 754.265625 378.081511 
" clip-path="url(#pf2a9cd5526)" style="fill: none; stroke-dasharray: 1.85,0.8; stroke-dashoffset: 0; stroke: #b0b0b0; stroke-opacity: 0.8; stroke-width: 0.5"/>
     </g>
     <g id="line2d_114">
      <g>
       <use xlink:href="#m196e873428" x="84.665625" y="378.081511" style="stroke: #000000; stroke-width: 0.6"/>
      </g>
     </g>
    </g>
    <g id="ytick_18">
     <g id="line2d_115">
      <path d="M 84.665625 355.334239 
L 754.265625 355.334239 
" clip-path="url(#pf2a9cd5526)" style="fill: none; stroke-dasharray: 1.85,0.8; stroke-dashoffset: 0; stroke: #b0b0b0; stroke-opacity: 0.8; stroke-width: 0.5"/>
     </g>
     <g id="line2d_116">
      <g>
       <use xlink:href="#m196e873428" x="84.665625" y="355.334239" style="stroke: #000000; stroke-width: 0.6"/>
      </g>
     </g>
    </g>
    <g id="ytick_19">
     <g id="line2d_117">
      <path d="M 84.665625 343.960603 
L 754.265625 343.960603 
" clip-path="url(#pf2a9cd5526)" style="fill: none; stroke-dasharray: 1.85,0.8; stroke-dashoffset: 0; stroke: #b0b0b0; stroke-opacity: 0.8; stroke-width: 0.5"/>
     </g>
     <g id="line2d_118">
      <g>
       <use xlink:href="#m196e873428" x="84.665625" y="343.960603" style="stroke: #000000; stroke-width: 0.6"/>
      </g>
     </g>
    </g>
    <g id="ytick_20">
     <g id="line2d_119">
      <path d="M 84.665625 332.586967 
L 754.265625 332.586967 
" clip-path="url(#pf2a9cd5526)" style="fill: none; stroke-dasharray: 1.85,0.8; stroke-dashoffset: 0; stroke: #b0b0b0; stroke-opacity: 0.8; stroke-width: 0.5"/>
     </g>
     <g id="line2d_120">
      <g>
       <use xlink:href="#m196e873428" x="84.665625" y="332.586967" style="stroke: #000000; stroke-width: 0.6"/>
      </g>
     </g>
    </g>
    <g id="ytick_21">
     <g id="line2d_121">
      <path d="M 84.665625 321.213331 
L 754.265625 321.213331 
" clip-path="url(#pf2a9cd5526)" style="fill: none; stroke-dasharray: 1.85,0.8; stroke-dashoffset: 0; stroke: #b0b0b0; stroke-opacity: 0.8; stroke-width: 0.5"/>
     </g>
     <g id="line2d_122">
      <g>
       <use xlink:href="#m196e873428" x="84.665625" y="321.213331" style="stroke: #000000; stroke-width: 0.6"/>
      </g>
     </g>
    </g>
    <g id="ytick_22">
     <g id="line2d_123">
      <path d="M 84.665625 298.466059 
L 754.265625 298.466059 
" clip-path="url(#pf2a9cd5526)" style="fill: none; stroke-dasharray: 1.85,0.8; stroke-dashoffset: 0; stroke: #b0b0b0; stroke-opacity: 0.8; stroke-width: 0.5"/>
     </g>
     <g id="line2d_124">
      <g>
       <use xlink:href="#m196e873428" x="84.665625" y="298.466059" style="stroke: #000000; stroke-width: 0.6"/>
      </g>
     </g>
    </g>
    <g id="ytick_23">
     <g id="line2d_125">
      <path d="M 84.665625 287.092423 
L 754.265625 287.092423 
" clip-path="url(#pf2a9cd5526)" style="fill: none; stroke-dasharray: 1.85,0.8; stroke-dashoffset: 0; stroke: #b0b0b0; stroke-opacity: 0.8; stroke-width: 0.5"/>
     </g>
     <g id="line2d_126">
      <g>
       <use xlink:href="#m196e873428" x="84.665625" y="287.092423" style="stroke: #000000; stroke-width: 0.6"/>
      </g>
     </g>
    </g>
    <g id="ytick_24">
     <g id="line2d_127">
      <path d="M 84.665625 275.718787 
L 754.265625 275.718787 
" clip-path="url(#pf2a9cd5526)" style="fill: none; stroke-dasharray: 1.85,0.8; stroke-dashoffset: 0; stroke: #b0b0b0; stroke-opacity: 0.8; stroke-width: 0.5"/>
     </g>
     <g id="line2d_128">
      <g>
       <use xlink:href="#m196e873428" x="84.665625" y="275.718787" style="stroke: #000000; stroke-width: 0.6"/>
      </g>
     </g>
    </g>
    <g id="ytick_25">
     <g id="line2d_129">
      <path d="M 84.665625 264.345151 
L 754.265625 264.345151 
" clip-path="url(#pf2a9cd5526)" style="fill: none; stroke-dasharray: 1.85,0.8; stroke-dashoffset: 0; stroke: #b0b0b0; stroke-opacity: 0.8; stroke-width: 0.5"/>
     </g>
     <g id="line2d_130">
      <g>
       <use xlink:href="#m196e873428" x="84.665625" y="264.345151" style="stroke: #000000; stroke-width: 0.6"/>
      </g>
     </g>
    </g>
    <g id="ytick_26">
     <g id="line2d_131">
      <path d="M 84.665625 241.597879 
L 754.265625 241.597879 
" clip-path="url(#pf2a9cd5526)" style="fill: none; stroke-dasharray: 1.85,0.8; stroke-dashoffset: 0; stroke: #b0b0b0; stroke-opacity: 0.8; stroke-width: 0.5"/>
     </g>
     <g id="line2d_132">
      <g>
       <use xlink:href="#m196e873428" x="84.665625" y="241.597879" style="stroke: #000000; stroke-width: 0.6"/>
      </g>
     </g>
    </g>
    <g id="ytick_27">
     <g id="line2d_133">
      <path d="M 84.665625 230.224243 
L 754.265625 230.224243 
" clip-path="url(#pf2a9cd5526)" style="fill: none; stroke-dasharray: 1.85,0.8; stroke-dashoffset: 0; stroke: #b0b0b0; stroke-opacity: 0.8; stroke-width: 0.5"/>
     </g>
     <g id="line2d_134">
      <g>
       <use xlink:href="#m196e873428" x="84.665625" y="230.224243" style="stroke: #000000; stroke-width: 0.6"/>
      </g>
     </g>
    </g>
    <g id="ytick_28">
     <g id="line2d_135">
      <path d="M 84.665625 218.850607 
L 754.265625 218.850607 
" clip-path="url(#pf2a9cd5526)" style="fill: none; stroke-dasharray: 1.85,0.8; stroke-dashoffset: 0; stroke: #b0b0b0; stroke-opacity: 0.8; stroke-width: 0.5"/>
     </g>
     <g id="line2d_136">
      <g>
       <use xlink:href="#m196e873428" x="84.665625" y="218.850607" style="stroke: #000000; stroke-width: 0.6"/>
      </g>
     </g>
    </g>
    <g id="ytick_29">
     <g id="line2d_137">
      <path d="M 84.665625 207.476971 
L 754.265625 207.476971 
" clip-path="url(#pf2a9cd5526)" style="fill: none; stroke-dasharray: 1.85,0.8; stroke-dashoffset: 0; stroke: #b0b0b0; stroke-opacity: 0.8; stroke-width: 0.5"/>
     </g>
     <g id="line2d_138">
      <g>
       <use xlink:href="#m196e873428" x="84.665625" y="207.476971" style="stroke: #000000; stroke-width: 0.6"/>
      </g>
     </g>
    </g>
    <g id="ytick_30">
     <g id="line2d_139">
      <path d="M 84.665625 184.729699 
L 754.265625 184.729699 
" clip-path="url(#pf2a9cd5526)" style="fill: none; stroke-dasharray: 1.85,0.8; stroke-dashoffset: 0; stroke: #b0b0b0; stroke-opacity: 0.8; stroke-width: 0.5"/>
     </g>
     <g id="line2d_140">
      <g>
       <use xlink:href="#m196e873428" x="84.665625" y="184.729699" style="stroke: #000000; stroke-width: 0.6"/>
      </g>
     </g>
    </g>
    <g id="ytick_31">
     <g id="line2d_141">
      <path d="M 84.665625 173.356063 
L 754.265625 173.356063 
" clip-path="url(#pf2a9cd5526)" style="fill: none; stroke-dasharray: 1.85,0.8; stroke-dashoffset: 0; stroke: #b0b0b0; stroke-opacity: 0.8; stroke-width: 0.5"/>
     </g>
     <g id="line2d_142">
      <g>
       <use xlink:href="#m196e873428" x="84.665625" y="173.356063" style="stroke: #000000; stroke-width: 0.6"/>
      </g>
     </g>
    </g>
    <g id="ytick_32">
     <g id="line2d_143">
      <path d="M 84.665625 161.982427 
L 754.265625 161.982427 
" clip-path="url(#pf2a9cd5526)" style="fill: none; stroke-dasharray: 1.85,0.8; stroke-dashoffset: 0; stroke: #b0b0b0; stroke-opacity: 0.8; stroke-width: 0.5"/>
     </g>
     <g id="line2d_144">
      <g>
       <use xlink:href="#m196e873428" x="84.665625" y="161.982427" style="stroke: #000000; stroke-width: 0.6"/>
      </g>
     </g>
    </g>
    <g id="ytick_33">
     <g id="line2d_145">
      <path d="M 84.665625 150.608791 
L 754.265625 150.608791 
" clip-path="url(#pf2a9cd5526)" style="fill: none; stroke-dasharray: 1.85,0.8; stroke-dashoffset: 0; stroke: #b0b0b0; stroke-opacity: 0.8; stroke-width: 0.5"/>
     </g>
     <g id="line2d_146">
      <g>
       <use xlink:href="#m196e873428" x="84.665625" y="150.608791" style="stroke: #000000; stroke-width: 0.6"/>
      </g>
     </g>
    </g>
    <g id="ytick_34">
     <g id="line2d_147">
      <path d="M 84.665625 127.861519 
L 754.265625 127.861519 
" clip-path="url(#pf2a9cd5526)" style="fill: none; stroke-dasharray: 1.85,0.8; stroke-dashoffset: 0; stroke: #b0b0b0; stroke-opacity: 0.8; stroke-width: 0.5"/>
     </g>
     <g id="line2d_148">
      <g>
       <use xlink:href="#m196e873428" x="84.665625" y="127.861519" style="stroke: #000000; stroke-width: 0.6"/>
      </g>
     </g>
    </g>
    <g id="ytick_35">
     <g id="line2d_149">
      <path d="M 84.665625 116.487883 
L 754.265625 116.487883 
" clip-path="url(#pf2a9cd5526)" style="fill: none; stroke-dasharray: 1.85,0.8; stroke-dashoffset: 0; stroke: #b0b0b0; stroke-opacity: 0.8; stroke-width: 0.5"/>
     </g>
     <g id="line2d_150">
      <g>
       <use xlink:href="#m196e873428" x="84.665625" y="116.487883" style="stroke: #000000; stroke-width: 0.6"/>
      </g>
     </g>
    </g>
    <g id="ytick_36">
     <g id="line2d_151">
      <path d="M 84.665625 105.114247 
L 754.265625 105.114247 
" clip-path="url(#pf2a9cd5526)" style="fill: none; stroke-dasharray: 1.85,0.8; stroke-dashoffset: 0; stroke: #b0b0b0; stroke-opacity: 0.8; stroke-width: 0.5"/>
     </g>
     <g id="line2d_152">
      <g>
       <use xlink:href="#m196e873428" x="84.665625" y="105.114247" style="stroke: #000000; stroke-width: 0.6"/>
      </g>
     </g>
    </g>
    <g id="ytick_37">
     <g id="line2d_153">
      <path d="M 84.665625 93.740611 
L 754.265625 93.740611 
" clip-path="url(#pf2a9cd5526)" style="fill: none; stroke-dasharray: 1.85,0.8; stroke-dashoffset: 0; stroke: #b0b0b0; stroke-opacity: 0.8; stroke-width: 0.5"/>
     </g>
     <g id="line2d_154">
      <g>
       <use xlink:href="#m196e873428" x="84.665625" y="93.740611" style="stroke: #000000; stroke-width: 0.6"/>
      </g>
     </g>
    </g>
    <g id="ytick_38">
     <g id="line2d_155">
      <path d="M 84.665625 70.993339 
L 754.265625 70.993339 
" clip-path="url(#pf2a9cd5526)" style="fill: none; stroke-dasharray: 1.85,0.8; stroke-dashoffset: 0; stroke: #b0b0b0; stroke-opacity: 0.8; stroke-width: 0.5"/>
     </g>
     <g id="line2d_156">
      <g>
       <use xlink:href="#m196e873428" x="84.665625" y="70.993339" style="stroke: #000000; stroke-width: 0.6"/>
      </g>
     </g>
    </g>
    <g id="ytick_39">
     <g id="line2d_157">
      <path d="M 84.665625 59.619703 
L 754.265625 59.619703 
" clip-path="url(#pf2a9cd5526)" style="fill: none; stroke-dasharray: 1.85,0.8; stroke-dashoffset: 0; stroke: #b0b0b0; stroke-opacity: 0.8; stroke-width: 0.5"/>
     </g>
     <g id="line2d_158">
      <g>
       <use xlink:href="#m196e873428" x="84.665625" y="59.619703" style="stroke: #000000; stroke-width: 0.6"/>
      </g>
     </g>
    </g>
    <g id="text_18">
     <!-- Efficiency (%) -->
     <g transform="translate(49.221875 335.120625) rotate(-90) scale(0.2 -0.2)">
      <defs>
       <path id="AptosDisplay-45" d="M 472 0 
L 472 4206 
L 3153 4206 
L 3153 3738 
L 1034 3738 
L 1034 2397 
L 2984 2397 
L 2984 1934 
L 1034 1934 
L 1034 469 
L 3153 469 
L 3153 0 
L 472 0 
z
" transform="scale(0.015625)"/>
       <path id="AptosDisplay-66" d="M 550 0 
L 550 2622 
L 44 2622 
L 44 3044 
L 550 3044 
L 550 3219 
Q 550 3453 589 3636 
Q 628 3819 728 3947 
Q 828 4075 1004 4140 
Q 1181 4206 1463 4206 
L 1781 4206 
L 1781 3797 
L 1494 3797 
Q 1219 3797 1145 3645 
Q 1072 3494 1072 3209 
L 1072 3044 
L 1775 3044 
L 1775 2622 
L 1072 2622 
L 1072 0 
L 550 0 
z
" transform="scale(0.015625)"/>
       <path id="AptosDisplay-63" d="M 1634 -53 
Q 1234 -53 925 122 
Q 616 297 441 645 
Q 266 994 266 1513 
Q 266 2031 437 2384 
Q 609 2738 917 2916 
Q 1225 3094 1634 3094 
Q 1978 3094 2251 2978 
Q 2525 2863 2689 2630 
Q 2853 2397 2866 2041 
L 2350 2041 
Q 2328 2334 2139 2503 
Q 1950 2672 1644 2672 
Q 1228 2672 1015 2367 
Q 803 2063 803 1513 
Q 803 1150 897 894 
Q 991 638 1178 503 
Q 1366 369 1644 369 
Q 1956 369 2159 541 
Q 2363 713 2372 1047 
L 2884 1047 
Q 2878 681 2711 436 
Q 2544 191 2264 69 
Q 1984 -53 1634 -53 
z
" transform="scale(0.015625)"/>
       <path id="AptosDisplay-6e" d="M 413 0 
L 413 3044 
L 919 3044 
L 931 2575 
Q 1066 2756 1316 2914 
Q 1566 3072 1941 3072 
Q 2428 3072 2637 2781 
Q 2847 2491 2847 1963 
L 2847 0 
L 2328 0 
L 2328 1891 
Q 2328 2106 2286 2275 
Q 2244 2444 2133 2539 
Q 2022 2634 1816 2634 
Q 1500 2634 1283 2482 
Q 1066 2331 934 2156 
L 934 0 
L 413 0 
z
" transform="scale(0.015625)"/>
       <path id="AptosDisplay-79" d="M 266 -1128 
L 266 -697 
L 525 -697 
Q 716 -697 831 -598 
Q 947 -500 1038 -275 
L 1153 0 
L -13 3044 
L 538 3044 
L 1428 553 
L 2250 3044 
L 2781 3044 
L 1688 0 
L 1550 -356 
Q 1441 -647 1314 -815 
Q 1188 -984 1013 -1056 
Q 838 -1128 578 -1128 
L 266 -1128 
z
" transform="scale(0.015625)"/>
       <path id="AptosDisplay-25" d="M 1188 0 
L 3669 4078 
L 4094 4078 
L 1613 0 
L 1188 0 
z
M 1197 1606 
Q 878 1606 679 1765 
Q 481 1925 390 2209 
Q 300 2494 300 2872 
Q 300 3253 390 3536 
Q 481 3819 679 3976 
Q 878 4134 1197 4134 
Q 1519 4134 1716 3976 
Q 1913 3819 2005 3536 
Q 2097 3253 2097 2872 
Q 2097 2494 2005 2209 
Q 1913 1925 1714 1765 
Q 1516 1606 1197 1606 
z
M 1197 1953 
Q 1391 1953 1498 2084 
Q 1606 2216 1648 2425 
Q 1691 2634 1691 2872 
Q 1691 3109 1648 3318 
Q 1606 3528 1498 3658 
Q 1391 3788 1197 3788 
Q 1006 3788 898 3658 
Q 791 3528 748 3318 
Q 706 3109 706 2872 
Q 706 2634 748 2425 
Q 791 2216 898 2084 
Q 1006 1953 1197 1953 
z
M 4084 -53 
Q 3769 -53 3570 105 
Q 3372 263 3281 547 
Q 3191 831 3191 1209 
Q 3191 1591 3281 1873 
Q 3372 2156 3570 2314 
Q 3769 2472 4084 2472 
Q 4406 2472 4604 2315 
Q 4803 2159 4893 1875 
Q 4984 1591 4984 1209 
Q 4984 831 4893 547 
Q 4803 263 4604 105 
Q 4406 -53 4084 -53 
z
M 4084 294 
Q 4281 294 4387 423 
Q 4494 553 4536 761 
Q 4578 969 4578 1209 
Q 4578 1447 4536 1656 
Q 4494 1866 4387 1994 
Q 4281 2122 4084 2122 
Q 3894 2122 3787 1994 
Q 3681 1866 3639 1656 
Q 3597 1447 3597 1209 
Q 3597 969 3639 761 
Q 3681 553 3787 423 
Q 3894 294 4084 294 
z
" transform="scale(0.015625)"/>
      </defs>
      <use xlink:href="#AptosDisplay-45"/>
      <use xlink:href="#AptosDisplay-66" x="54.052734"/>
      <use xlink:href="#AptosDisplay-66" x="82.373047"/>
      <use xlink:href="#AptosDisplay-69" x="110.693359"/>
      <use xlink:href="#AptosDisplay-63" x="131.738281"/>
      <use xlink:href="#AptosDisplay-69" x="181.005859"/>
      <use xlink:href="#AptosDisplay-65" x="202.050781"/>
      <use xlink:href="#AptosDisplay-6e" x="251.464844"/>
      <use xlink:href="#AptosDisplay-63" x="302.050781"/>
      <use xlink:href="#AptosDisplay-79" x="351.318359"/>
      <use xlink:href="#AptosDisplay-20" x="394.580078"/>
      <use xlink:href="#AptosDisplay-28" x="413.867188"/>
      <use xlink:href="#AptosDisplay-25" x="443.310547"/>
      <use xlink:href="#AptosDisplay-29" x="525.830078"/>
     </g>
    </g>
   </g>
   <g id="line2d_159">
    <path d="M 115.101989 77.9925 
L 115.760784 422.248393 
L 116.41958 465.327377 
L 117.078376 459.032329 
L 117.737172 481.1925 
L 118.395967 408.900395 
L 119.054763 412.913271 
L 119.713559 392.354309 
L 120.372355 390.91908 
L 121.689946 362.333399 
L 122.348742 393.645434 
L 123.007538 374.8319 
L 123.666333 345.081947 
L 124.325129 347.751815 
L 124.983925 347.751815 
L 125.642721 370.868961 
L 126.301516 339.51005 
L 126.960312 395.141965 
L 127.619108 357.728688 
L 128.277904 364.548324 
L 128.936699 357.728688 
L 129.595495 370.868961 
L 130.254291 352.875074 
L 130.913087 360.060945 
L 131.571882 370.868961 
L 132.230678 355.334239 
L 132.889474 357.728688 
L 133.54827 352.875074 
L 134.207065 357.728688 
L 134.865861 374.8319 
L 135.524657 350.348535 
L 136.183453 347.751815 
L 136.842248 362.333399 
L 137.501044 366.707875 
L 138.15984 357.728688 
L 138.818636 352.875074 
L 139.477431 374.8319 
L 140.136227 339.51005 
L 140.795023 355.334239 
L 141.453819 350.348535 
L 142.112614 350.348535 
L 142.77141 355.334239 
L 143.430206 350.348535 
L 144.089002 352.875074 
L 144.747797 374.8319 
L 145.406593 357.728688 
L 146.065389 362.333399 
L 146.724185 364.548324 
L 147.38298 339.51005 
L 148.041776 333.605501 
L 148.700572 336.601191 
L 149.359368 362.333399 
L 150.018163 324.05674 
L 150.676959 362.333399 
L 151.335755 360.060945 
L 151.994551 350.348535 
L 152.653346 345.081947 
L 153.312142 350.348535 
L 153.970938 360.060945 
L 154.629734 385.663935 
L 155.288529 357.728688 
L 155.947325 362.333399 
L 156.606121 350.348535 
L 157.264917 368.814104 
L 157.923712 366.707875 
L 158.582508 370.868961 
L 159.241304 385.663935 
L 159.9001 352.875074 
L 160.558895 347.751815 
L 161.217691 360.060945 
L 161.876487 366.707875 
L 162.535283 363.548531 
L 163.194078 352.875074 
L 163.852874 336.601191 
L 164.51167 350.348535 
L 165.170466 357.728688 
L 165.829261 360.060945 
L 166.488057 355.334239 
L 167.146853 360.060945 
L 167.805649 355.334239 
L 168.464444 362.333399 
L 169.782036 339.51005 
L 170.440832 368.814104 
L 171.099627 368.814104 
L 171.758423 357.728688 
L 172.417219 336.601191 
L 173.076015 362.333399 
L 173.73481 350.348535 
L 174.393606 342.335798 
L 175.052402 357.728688 
L 176.369993 357.728688 
L 177.028789 374.8319 
L 177.687585 380.92492 
L 178.346381 355.334239 
L 179.005176 342.335798 
L 179.663972 382.85563 
L 180.981564 350.348535 
L 181.640359 372.693999 
L 182.299155 370.499087 
L 182.957951 368.814104 
L 183.616747 350.348535 
L 184.275542 363.548531 
L 184.934338 384.739249 
L 185.593134 320.671729 
L 186.25193 345.081947 
L 186.910725 336.601191 
L 187.569521 355.334239 
L 188.228317 362.333399 
L 188.887113 347.751815 
L 189.545908 357.728688 
L 190.204704 347.751815 
L 190.8635 350.348535 
L 191.522296 333.605501 
L 192.181091 360.060945 
L 192.839887 362.333399 
L 193.498683 347.751815 
L 194.157479 336.601191 
L 194.816274 352.875074 
L 195.47507 347.751815 
L 196.133866 374.8319 
L 196.792662 360.060945 
L 197.451457 362.333399 
L 198.110253 363.548531 
L 198.769049 357.728688 
L 199.427845 370.868961 
L 200.08664 352.875074 
L 200.745436 330.519033 
L 201.404232 384.739249 
L 202.063028 342.335798 
L 202.721823 345.081947 
L 203.380619 352.875074 
L 204.039415 357.728688 
L 204.698211 350.348535 
L 205.357006 353.327127 
L 206.015802 355.334239 
L 206.674598 339.51005 
L 207.333394 352.875074 
L 207.992189 372.874304 
L 208.650985 352.875074 
L 209.309781 347.751815 
L 209.968577 360.060945 
L 210.627372 336.601191 
L 211.286168 355.334239 
L 211.944964 378.610517 
L 212.60376 372.874304 
L 213.262555 342.335798 
L 213.921351 357.728688 
L 214.580147 330.519033 
L 215.238943 330.519033 
L 215.897738 360.060945 
L 216.556534 358.583849 
L 217.21533 355.99358 
L 217.874126 357.728688 
L 218.532921 380.92492 
L 219.191717 333.605501 
L 219.850513 360.060945 
L 220.509309 347.751815 
L 221.8269 366.707875 
L 222.485696 355.334239 
L 223.144492 370.868961 
L 223.803287 362.333399 
L 224.462083 368.244853 
L 225.120879 365.928859 
L 225.779675 376.914984 
L 227.097266 339.51005 
L 227.756062 347.751815 
L 228.414858 364.548324 
L 229.073653 370.499087 
L 229.732449 355.334239 
L 230.391245 347.751815 
L 231.050041 350.348535 
L 231.708836 372.693999 
L 232.367632 384.739249 
L 233.026428 370.499087 
L 233.685224 370.499087 
L 234.344019 339.51005 
L 235.002815 364.548324 
L 235.661611 378.610517 
L 236.320407 362.333399 
L 236.979202 360.060945 
L 237.637998 380.434677 
L 238.296794 387.330401 
L 238.95559 350.348535 
L 239.614385 345.081947 
L 240.273181 357.728688 
L 240.931977 336.601191 
L 241.590773 352.875074 
L 242.249568 357.728688 
L 242.908364 360.060945 
L 243.56716 355.334239 
L 244.225956 372.874304 
L 245.543547 360.060945 
L 246.202343 360.060945 
L 246.861139 293.591643 
L 247.519934 345.081947 
L 248.17873 327.337596 
L 248.837526 347.751815 
L 249.496322 339.51005 
L 250.155117 339.51005 
L 250.813913 355.334239 
L 251.472709 324.05674 
L 252.131505 362.333399 
L 252.7903 355.334239 
L 253.449096 355.334239 
L 254.107892 378.610517 
L 254.766688 362.333399 
L 255.425483 352.875074 
L 256.084279 376.743436 
L 256.743075 352.875074 
L 257.401871 355.334239 
L 258.060666 370.868961 
L 260.037054 352.875074 
L 260.695849 378.610517 
L 261.354645 372.874304 
L 262.013441 342.335798 
L 263.331032 362.333399 
L 263.989828 378.610517 
L 264.648624 366.707875 
L 265.30742 372.874304 
L 265.966215 366.707875 
L 266.625011 350.348535 
L 267.283807 352.875074 
L 267.942603 364.548324 
L 268.601398 347.751815 
L 270.577786 347.751815 
L 271.236581 360.060945 
L 271.895377 364.548324 
L 272.554173 345.081947 
L 273.212969 374.8319 
L 273.871764 362.333399 
L 274.53056 368.814104 
L 275.189356 355.334239 
L 275.848152 347.751815 
L 276.506947 378.610517 
L 277.165743 339.51005 
L 277.824539 355.334239 
L 278.483335 352.875074 
L 279.14213 347.751815 
L 279.800926 372.874304 
L 280.459722 347.751815 
L 281.777313 374.8319 
L 282.436109 339.51005 
L 283.094905 366.707875 
L 283.753701 376.743436 
L 284.412496 364.548324 
L 285.071292 360.060945 
L 285.730088 360.060945 
L 286.388884 382.217378 
L 287.047679 360.060945 
L 287.706475 370.868961 
L 288.365271 345.081947 
L 289.024067 372.874304 
L 289.682862 347.751815 
L 290.341658 370.868961 
L 291.000454 383.960019 
L 292.318045 360.060945 
L 292.976841 382.217378 
L 293.635637 383.960019 
L 294.294433 368.814104 
L 294.953228 357.728688 
L 295.612024 376.743436 
L 296.27082 336.601191 
L 296.929616 360.060945 
L 297.588411 357.728688 
L 298.247207 368.814104 
L 298.906003 372.874304 
L 299.564799 347.751815 
L 300.223594 347.751815 
L 300.88239 345.081947 
L 301.541186 357.728688 
L 302.199982 336.601191 
L 302.858777 345.081947 
L 303.517573 362.333399 
L 304.176369 347.751815 
L 304.835165 362.333399 
L 305.49396 345.081947 
L 306.152756 350.348535 
L 306.811552 362.333399 
L 307.470348 370.868961 
L 308.129143 352.875074 
L 308.787939 376.743436 
L 309.446735 370.868961 
L 310.105531 355.334239 
L 310.764326 372.693999 
L 311.423122 366.707875 
L 314.058305 362.333399 
L 314.717101 376.743436 
L 315.375897 374.8319 
L 316.034692 357.728688 
L 317.352284 357.728688 
L 318.01108 347.751815 
L 318.669875 362.333399 
L 319.328671 368.814104 
L 319.987467 350.348535 
L 320.646263 372.874304 
L 321.305058 352.875074 
L 321.963854 336.601191 
L 322.62265 360.060945 
L 323.281446 339.51005 
L 323.940241 347.751815 
L 324.599037 345.081947 
L 325.257833 357.728688 
L 325.916629 360.060945 
L 326.575424 339.51005 
L 327.23422 376.914984 
L 327.893016 364.548324 
L 328.551812 336.601191 
L 329.210607 382.85563 
L 329.869403 355.334239 
L 330.528199 347.751815 
L 331.186995 352.875074 
L 331.84579 352.875074 
L 332.504586 357.728688 
L 333.163382 345.081947 
L 333.822178 357.728688 
L 334.480973 362.333399 
L 335.139769 352.875074 
L 335.798565 355.334239 
L 336.457361 350.348535 
L 337.774952 364.548324 
L 338.433748 345.081947 
L 339.092544 366.707875 
L 339.751339 362.333399 
L 340.410135 366.707875 
L 341.068931 357.728688 
L 341.727727 362.333399 
L 342.386522 350.348535 
L 343.045318 333.605501 
L 343.704114 378.610517 
L 344.36291 372.874304 
L 345.021705 370.868961 
L 345.680501 355.334239 
L 346.339297 357.728688 
L 346.998093 368.814104 
L 347.656888 364.548324 
L 348.315684 355.334239 
L 348.97448 362.333399 
L 349.633276 360.060945 
L 350.292071 352.875074 
L 350.950867 347.751815 
L 352.268459 357.728688 
L 352.927254 320.671729 
L 353.58605 352.875074 
L 354.244846 352.875074 
L 354.903642 376.743436 
L 355.562437 345.081947 
L 356.221233 352.875074 
L 356.880029 345.081947 
L 357.538825 362.333399 
L 358.19762 355.334239 
L 358.856416 368.814104 
L 359.515212 345.081947 
L 360.174008 342.335798 
L 360.832803 372.693999 
L 361.491599 378.610517 
L 362.150395 368.814104 
L 362.809191 333.605501 
L 363.467986 357.728688 
L 364.126782 374.8319 
L 364.785578 336.601191 
L 365.444374 382.217378 
L 366.103169 339.51005 
L 366.761965 347.751815 
L 367.420761 342.335798 
L 368.079557 370.868961 
L 368.738352 360.060945 
L 369.397148 333.605501 
L 370.055944 370.868961 
L 370.71474 364.548324 
L 371.373535 372.874304 
L 372.032331 368.814104 
L 372.691127 366.707875 
L 373.349923 355.334239 
L 374.008718 370.868961 
L 374.667514 350.348535 
L 375.32631 380.434677 
L 375.985106 370.868961 
L 376.643901 355.334239 
L 377.302697 357.728688 
L 377.961493 327.337596 
L 378.620289 350.348535 
L 379.279084 382.85563 
L 379.93788 362.333399 
L 381.255472 362.333399 
L 381.914267 374.8319 
L 382.573063 360.060945 
L 383.231859 370.868961 
L 383.890655 347.751815 
L 384.54945 370.868961 
L 385.208246 347.751815 
L 385.867042 333.605501 
L 386.525838 357.728688 
L 387.184633 357.728688 
L 387.843429 355.334239 
L 388.502225 357.728688 
L 389.161021 357.728688 
L 389.819816 336.601191 
L 390.478612 372.693999 
L 391.137408 372.693999 
L 391.796204 352.875074 
L 392.454999 384.739249 
L 393.113795 352.875074 
L 393.772591 368.814104 
L 394.431387 372.693999 
L 395.090182 345.081947 
L 395.748978 358.583849 
L 396.407774 368.244853 
L 397.06657 347.751815 
L 397.725365 345.081947 
L 398.384161 335.522099 
L 399.042957 357.728688 
L 399.701753 366.707875 
L 400.360548 370.499087 
L 401.019344 339.51005 
L 401.67814 345.081947 
L 402.336936 372.874304 
L 402.995731 333.605501 
L 403.654527 370.868961 
L 404.313323 370.868961 
L 404.972119 324.05674 
L 405.630914 324.05674 
L 406.28971 374.8319 
L 406.948506 370.868961 
L 407.607302 378.945331 
L 408.266097 352.875074 
L 408.924893 350.348535 
L 409.583689 374.8319 
L 410.242485 370.868961 
L 410.90128 355.99358 
L 411.560076 355.334239 
L 412.218872 352.875074 
L 412.877668 352.875074 
L 413.536463 324.05674 
L 414.854055 378.945331 
L 415.512851 342.335798 
L 416.171646 392.117061 
L 416.830442 357.728688 
L 417.489238 352.875074 
L 418.148034 366.707875 
L 418.806829 364.548324 
L 419.465625 342.335798 
L 420.124421 357.728688 
L 420.783216 366.707875 
L 421.442012 366.707875 
L 422.100808 355.334239 
L 422.759604 347.751815 
L 423.418399 362.333399 
L 424.735991 370.868961 
L 425.394787 383.960019 
L 426.053582 350.348535 
L 426.712378 360.060945 
L 427.371174 366.707875 
L 428.02997 339.51005 
L 428.688765 350.348535 
L 429.347561 355.334239 
L 430.006357 357.728688 
L 430.665153 357.728688 
L 431.323948 368.814104 
L 431.982744 364.548324 
L 432.64154 366.707875 
L 433.300336 357.728688 
L 433.959131 355.334239 
L 434.617927 357.728688 
L 435.276723 355.334239 
L 435.935519 357.728688 
L 436.594314 309.839695 
L 437.25311 364.548324 
L 437.911906 372.874304 
L 438.570702 378.610517 
L 439.229497 336.601191 
L 439.888293 370.868961 
L 440.547089 363.548531 
L 441.205885 350.348535 
L 441.86468 347.751815 
L 442.523476 362.333399 
L 443.182272 342.335798 
L 443.841068 347.751815 
L 444.499863 360.060945 
L 445.158659 333.605501 
L 445.817455 324.05674 
L 446.476251 364.548324 
L 447.135046 345.081947 
L 447.793842 362.333399 
L 448.452638 374.8319 
L 449.111434 364.548324 
L 449.770229 380.434677 
L 450.429025 378.610517 
L 451.087821 364.548324 
L 451.746617 388.960641 
L 452.405412 364.548324 
L 453.064208 387.330401 
L 453.723004 364.548324 
L 454.3818 364.548324 
L 455.040595 355.334239 
L 455.699391 390.555821 
L 456.358187 347.751815 
L 457.016983 360.060945 
L 457.675778 360.060945 
L 458.334574 357.728688 
L 458.99337 345.081947 
L 459.652166 370.868961 
L 460.310961 336.601191 
L 460.969757 362.333399 
L 461.628553 376.743436 
L 462.287349 360.060945 
L 462.946144 364.548324 
L 463.60494 360.060945 
L 464.263736 345.081947 
L 464.922532 352.875074 
L 465.581327 355.99358 
L 466.240123 324.05674 
L 466.898919 362.333399 
L 468.21651 378.610517 
L 468.875306 368.814104 
L 469.534102 342.335798 
L 470.192898 362.333399 
L 470.851693 368.244853 
L 472.169285 352.875074 
L 472.828081 374.8319 
L 473.486876 364.548324 
L 474.145672 366.707875 
L 474.804468 362.333399 
L 475.463264 333.605501 
L 476.122059 352.875074 
L 476.780855 339.51005 
L 477.439651 330.519033 
L 478.098447 360.060945 
L 478.757242 339.51005 
L 479.416038 342.335798 
L 480.074834 357.728688 
L 480.73363 363.548531 
L 481.392425 342.335798 
L 482.051221 370.868961 
L 482.710017 372.874304 
L 484.027608 317.177525 
L 484.686404 362.333399 
L 485.3452 387.330401 
L 486.003996 339.51005 
L 486.662791 357.728688 
L 487.321587 339.51005 
L 487.980383 347.751815 
L 488.639179 366.707875 
L 489.297974 360.060945 
L 489.95677 345.081947 
L 490.615566 305.984225 
L 491.274362 368.814104 
L 491.933157 347.751815 
L 492.591953 362.333399 
L 493.250749 355.334239 
L 493.909545 345.081947 
L 494.56834 350.348535 
L 495.227136 342.335798 
L 495.885932 342.335798 
L 496.544728 361.101153 
L 497.203523 361.101153 
L 497.862319 364.548324 
L 498.521115 336.601191 
L 499.179911 372.874304 
L 499.838706 342.335798 
L 500.497502 336.601191 
L 501.156298 364.548324 
L 502.473889 330.519033 
L 503.132685 366.707875 
L 503.791481 374.8319 
L 504.450277 366.707875 
L 505.109072 370.868961 
L 505.767868 333.605501 
L 506.426664 362.333399 
L 507.08546 347.751815 
L 507.744255 355.334239 
L 508.403051 374.8319 
L 509.061847 380.434677 
L 509.720643 368.814104 
L 510.379438 352.875074 
L 513.014621 380.434677 
L 513.673417 364.548324 
L 515.649804 370.868961 
L 516.3086 366.707875 
L 516.967396 350.348535 
L 517.626192 366.707875 
L 518.284987 350.348535 
L 518.943783 374.8319 
L 520.261375 350.348535 
L 521.578966 372.874304 
L 522.237762 347.751815 
L 522.896558 380.434677 
L 523.555353 366.707875 
L 524.214149 362.333399 
L 524.872945 374.8319 
L 525.531741 390.555821 
L 526.190536 324.05674 
L 526.849332 366.707875 
L 527.508128 368.814104 
L 528.825719 368.814104 
L 529.484515 342.335798 
L 530.143311 366.707875 
L 530.802107 364.548324 
L 531.460902 385.663935 
L 532.119698 342.335798 
L 532.778494 364.548324 
L 533.43729 374.8319 
L 534.096085 350.348535 
L 534.754881 374.8319 
L 536.072473 390.555821 
L 536.731268 327.337596 
L 537.390064 327.337596 
L 538.04886 360.060945 
L 538.707656 352.875074 
L 539.366451 368.814104 
L 540.025247 362.333399 
L 540.684043 370.868961 
L 541.342839 374.8319 
L 542.001634 364.548324 
L 542.66043 382.217378 
L 543.319226 376.743436 
L 543.978022 360.060945 
L 544.636817 374.8319 
L 545.295613 393.645434 
L 545.954409 352.875074 
L 546.613205 374.8319 
L 547.272 368.814104 
L 547.930796 330.519033 
L 548.589592 378.610517 
L 549.248388 366.707875 
L 549.907183 395.141965 
L 550.565979 374.8319 
L 551.224775 345.081947 
L 551.883571 395.141965 
L 552.542366 350.348535 
L 553.201162 382.217378 
L 553.859958 380.434677 
L 554.518754 350.348535 
L 555.177549 368.814104 
L 555.836345 383.960019 
L 556.495141 355.334239 
L 557.153937 388.960641 
L 557.812732 362.333399 
L 558.471528 357.728688 
L 559.130324 357.728688 
L 559.78912 364.548324 
L 560.447915 380.434677 
L 561.106711 347.751815 
L 561.765507 342.335798 
L 562.424303 362.333399 
L 563.083098 364.548324 
L 563.741894 362.333399 
L 565.059486 347.751815 
L 565.718281 357.728688 
L 566.377077 342.335798 
L 567.035873 374.8319 
L 567.694669 374.8319 
L 568.353464 342.335798 
L 569.01226 366.707875 
L 569.671056 357.728688 
L 570.329852 372.874304 
L 570.988647 352.875074 
L 571.647443 347.751815 
L 572.306239 362.333399 
L 572.965035 350.348535 
L 573.62383 342.335798 
L 574.282626 347.751815 
L 574.941422 350.348535 
L 575.600218 362.333399 
L 576.259013 336.601191 
L 576.917809 362.333399 
L 577.576605 333.605501 
L 578.235401 368.814104 
L 578.894196 376.914984 
L 579.552992 374.8319 
L 580.211788 368.814104 
L 580.870584 364.548324 
L 581.529379 355.334239 
L 582.188175 382.217378 
L 582.846971 378.610517 
L 583.505767 347.751815 
L 584.164562 357.728688 
L 584.823358 364.548324 
L 585.482154 357.728688 
L 586.14095 347.751815 
L 586.799745 374.8319 
L 587.458541 347.751815 
L 588.117337 372.874304 
L 588.776133 362.333399 
L 589.434928 378.610517 
L 590.093724 370.868961 
L 590.75252 324.05674 
L 591.411316 352.875074 
L 592.070111 352.875074 
L 592.728907 339.51005 
L 593.387703 330.519033 
L 594.046499 364.548324 
L 594.705294 372.874304 
L 595.36409 347.751815 
L 596.022886 347.751815 
L 596.681682 357.728688 
L 597.340477 333.605501 
L 597.999273 376.743436 
L 598.658069 376.743436 
L 599.316865 370.868961 
L 599.97566 362.333399 
L 600.634456 342.335798 
L 601.952048 368.814104 
L 602.610843 347.751815 
L 603.269639 374.8319 
L 604.587231 333.605501 
L 605.246026 360.060945 
L 605.904822 327.337596 
L 606.563618 357.728688 
L 607.222414 333.605501 
L 607.881209 362.333399 
L 608.540005 347.751815 
L 609.198801 366.707875 
L 609.857597 360.060945 
L 610.516392 366.707875 
L 611.175188 339.51005 
L 611.833984 368.814104 
L 612.49278 350.348535 
L 613.810371 380.434677 
L 614.469167 362.333399 
L 615.127963 374.8319 
L 615.786758 355.334239 
L 616.445554 342.335798 
L 617.10435 352.875074 
L 617.763146 347.751815 
L 618.421941 366.707875 
L 619.080737 362.333399 
L 619.739533 360.060945 
L 620.398329 350.348535 
L 621.057124 352.875074 
L 621.71592 332.214061 
L 622.374716 342.335798 
L 623.033512 380.92492 
L 623.692307 342.335798 
L 624.351103 357.728688 
L 625.009899 347.751815 
L 625.668695 345.081947 
L 626.32749 350.348535 
L 626.986286 374.8319 
L 627.645082 339.51005 
L 628.962673 345.081947 
L 629.621469 362.333399 
L 630.280265 370.868961 
L 630.939061 350.348535 
L 631.597856 345.081947 
L 632.256652 376.743436 
L 632.915448 364.548324 
L 633.574244 327.337596 
L 634.233039 342.335798 
L 634.891835 360.060945 
L 635.550631 347.751815 
L 636.209427 366.707875 
L 636.868222 330.519033 
L 637.527018 342.335798 
L 638.185814 362.333399 
L 638.84461 339.51005 
L 639.503405 355.334239 
L 640.162201 362.333399 
L 640.820997 347.751815 
L 641.479793 362.333399 
L 642.138588 352.875074 
L 642.797384 370.868961 
L 643.45618 368.814104 
L 644.114976 339.51005 
L 644.773771 357.728688 
L 645.432567 362.333399 
L 646.091363 345.081947 
L 646.750159 352.875074 
L 647.408954 347.751815 
L 648.06775 376.743436 
L 648.726546 339.51005 
L 649.385342 352.875074 
L 650.044137 360.060945 
L 650.702933 368.814104 
L 651.361729 362.333399 
L 652.020525 345.081947 
L 652.67932 352.875074 
L 653.338116 355.334239 
L 653.996912 372.874304 
L 654.655708 345.081947 
L 655.314503 364.548324 
L 655.973299 350.348535 
L 656.632095 370.868961 
L 657.290891 378.610517 
L 657.949686 357.728688 
L 658.608482 382.217378 
L 659.267278 357.728688 
L 659.926074 342.335798 
L 660.584869 364.548324 
L 661.243665 313.568756 
L 661.902461 357.728688 
L 662.561257 350.348535 
L 663.220052 355.334239 
L 663.878848 355.334239 
L 664.537644 320.671729 
L 665.19644 372.874304 
L 665.855235 347.751815 
L 666.514031 357.728688 
L 667.172827 339.51005 
L 667.831623 380.92492 
L 668.490418 347.751815 
L 670.466806 347.751815 
L 671.125601 364.548324 
L 672.443193 339.51005 
L 673.101989 357.728688 
L 673.760784 362.333399 
L 674.41958 364.548324 
L 675.078376 352.875074 
L 675.737172 324.05674 
L 676.395967 376.743436 
L 677.054763 374.8319 
L 677.713559 357.728688 
L 678.372355 347.751815 
L 679.03115 320.671729 
L 679.689946 339.51005 
L 680.348742 370.868961 
L 681.666333 336.601191 
L 682.325129 364.548324 
L 682.983925 374.8319 
L 683.642721 355.334239 
L 684.301516 350.581077 
L 684.960312 327.337596 
L 685.619108 347.751815 
L 686.277904 324.05674 
L 687.595495 372.874304 
L 688.254291 363.548531 
L 688.913087 350.348535 
L 689.571882 378.945331 
L 690.230678 357.728688 
L 690.889474 362.333399 
L 691.54827 336.601191 
L 692.207065 364.548324 
L 692.865861 355.334239 
L 693.524657 366.707875 
L 694.183453 345.081947 
L 694.842248 342.335798 
L 695.501044 366.707875 
L 696.15984 309.839695 
L 696.818636 360.060945 
L 697.477431 350.348535 
L 698.136227 363.548531 
L 698.795023 368.814104 
L 699.453819 376.743436 
L 700.112614 342.335798 
L 700.77141 380.434677 
L 701.430206 360.060945 
L 702.089002 364.548324 
L 702.747797 357.728688 
L 703.406593 361.101153 
L 704.065389 372.874304 
L 704.724185 352.875074 
L 705.38298 361.101153 
L 706.041776 366.707875 
L 706.700572 342.335798 
L 707.359368 345.081947 
L 708.018163 345.081947 
L 708.676959 350.348535 
L 709.335755 357.728688 
L 711.315436 362.333399 
L 711.970938 347.751815 
L 712.629734 345.081947 
L 713.288529 339.51005 
L 713.947325 339.51005 
L 714.606121 362.333399 
L 715.264917 333.605501 
L 715.923712 357.728688 
L 716.582508 362.333399 
L 717.241304 330.519033 
L 717.9001 368.814104 
L 718.558895 342.335798 
L 719.217691 380.434677 
L 719.876487 345.081947 
L 720.535283 368.814104 
L 721.194078 347.751815 
L 721.852874 376.743436 
L 722.51167 370.868961 
L 723.170466 376.914984 
L 723.829261 357.728688 
L 723.829261 357.728688 
" clip-path="url(#pf2a9cd5526)" style="fill: none; stroke: #ac2b37; stroke-width: 1.5; stroke-linecap: square"/>
   </g>
   <g id="patch_3">
    <path d="M 84.665625 501.3525 
L 84.665625 57.8325 
" style="fill: none; stroke: #000000; stroke-width: 0.8; stroke-linejoin: miter; stroke-linecap: square"/>
   </g>
   <g id="patch_4">
    <path d="M 754.265625 501.3525 
L 754.265625 57.8325 
" style="fill: none; stroke: #000000; stroke-width: 0.8; stroke-linejoin: miter; stroke-linecap: square"/>
   </g>
   <g id="patch_5">
    <path d="M 84.665625 501.3525 
L 754.265625 501.3525 
" style="fill: none; stroke: #000000; stroke-width: 0.8; stroke-linejoin: miter; stroke-linecap: square"/>
   </g>
   <g id="patch_6">
    <path d="M 84.665625 57.8325 
L 754.265625 57.8325 
" style="fill: none; stroke: #000000; stroke-width: 0.8; stroke-linejoin: miter; stroke-linecap: square"/>
   </g>
   <g id="text_19">
    <!-- Efficiency vs Time -->
    <g transform="translate(332.95875 51.8325) scale(0.24 -0.24)">
     <defs>
      <path id="AptosDisplay-76" d="M 1103 0 
L -13 3044 
L 538 3044 
L 1391 513 
L 2250 3044 
L 2781 3044 
L 1678 0 
L 1103 0 
z
" transform="scale(0.015625)"/>
      <path id="AptosDisplay-73" d="M 1506 -41 
Q 1247 -41 1017 14 
Q 788 69 613 191 
Q 438 313 339 506 
Q 241 700 241 978 
L 744 978 
Q 744 628 966 487 
Q 1188 347 1519 347 
Q 1816 347 2008 458 
Q 2200 569 2200 822 
Q 2200 1047 2026 1153 
Q 1853 1259 1413 1369 
Q 1056 1453 815 1564 
Q 575 1675 453 1845 
Q 331 2016 331 2275 
Q 331 2475 417 2626 
Q 503 2778 658 2879 
Q 813 2981 1020 3032 
Q 1228 3084 1472 3084 
Q 1713 3084 1923 3028 
Q 2134 2972 2296 2855 
Q 2459 2738 2551 2552 
Q 2644 2366 2644 2109 
L 2138 2109 
Q 2138 2425 1945 2558 
Q 1753 2691 1472 2691 
Q 1191 2691 1016 2594 
Q 841 2497 841 2291 
Q 841 2169 919 2084 
Q 997 2000 1181 1933 
Q 1366 1866 1675 1791 
Q 2019 1709 2248 1596 
Q 2478 1484 2595 1306 
Q 2713 1128 2713 847 
Q 2713 616 2622 447 
Q 2531 278 2367 170 
Q 2203 63 1983 11 
Q 1763 -41 1506 -41 
z
" transform="scale(0.015625)"/>
     </defs>
     <use xlink:href="#AptosDisplay-45"/>
     <use xlink:href="#AptosDisplay-66" x="54.052734"/>
     <use xlink:href="#AptosDisplay-66" x="82.373047"/>
     <use xlink:href="#AptosDisplay-69" x="110.693359"/>
     <use xlink:href="#AptosDisplay-63" x="131.738281"/>
     <use xlink:href="#AptosDisplay-69" x="181.005859"/>
     <use xlink:href="#AptosDisplay-65" x="202.050781"/>
     <use xlink:href="#AptosDisplay-6e" x="251.464844"/>
     <use xlink:href="#AptosDisplay-63" x="302.050781"/>
     <use xlink:href="#AptosDisplay-79" x="351.318359"/>
     <use xlink:href="#AptosDisplay-20" x="394.580078"/>
     <use xlink:href="#AptosDisplay-76" x="413.867188"/>
     <use xlink:href="#AptosDisplay-73" x="457.128906"/>
     <use xlink:href="#AptosDisplay-20" x="503.417969"/>
     <use xlink:href="#AptosDisplay-54" x="522.705078"/>
     <use xlink:href="#AptosDisplay-69" x="570.410156"/>
     <use xlink:href="#AptosDisplay-6d" x="591.455078"/>
     <use xlink:href="#AptosDisplay-65" x="671.435547"/>
    </g>
   </g>
  </g>
 </g>
 <defs>
  <clipPath id="pf2a9cd5526">
   <rect x="84.665625" y="57.8325" width="669.6" height="443.52"/>
  </clipPath>
 </defs>
</svg>
