<?xml version="1.0" encoding="utf-8" standalone="no"?>
<!DOCTYPE svg PUBLIC "-//W3C//DTD SVG 1.1//EN"
  "http://www.w3.org/Graphics/SVG/1.1/DTD/svg11.dtd">
<svg xmlns:xlink="http://www.w3.org/1999/xlink" width="800.88125pt" height="581.830625pt" viewBox="0 0 800.88125 581.830625" xmlns="http://www.w3.org/2000/svg" version="1.1">
 <metadata>
  <rdf:RDF xmlns:dc="http://purl.org/dc/elements/1.1/" xmlns:cc="http://creativecommons.org/ns#" xmlns:rdf="http://www.w3.org/1999/02/22-rdf-syntax-ns#">
   <cc:Work>
    <dc:type rdf:resource="http://purl.org/dc/dcmitype/StillImage"/>
    <dc:date>2025-04-03T01:48:14.786554</dc:date>
    <dc:format>image/svg+xml</dc:format>
    <dc:creator>
     <cc:Agent>
      <dc:title>Matplotlib v3.8.2, https://matplotlib.org/</dc:title>
     </cc:Agent>
    </dc:creator>
   </cc:Work>
  </rdf:RDF>
 </metadata>
 <defs>
  <style type="text/css">*{stroke-linejoin: round; stroke-linecap: butt}</style>
 </defs>
 <g id="figure_1">
  <g id="patch_1">
   <path d="M 0 581.830625 
L 800.88125 581.830625 
L 800.88125 0 
L 0 0 
z
" style="fill: #ffffff"/>
  </g>
  <g id="axes_1">
   <g id="patch_2">
    <path d="M 95.28125 501.3525 
L 764.88125 501.3525 
L 764.88125 57.8325 
L 95.28125 57.8325 
z
" style="fill: #ffffff"/>
   </g>
   <g id="matplotlib.axis_1">
    <g id="xtick_1">
     <g id="line2d_1">
      <path d="M 125.025878 501.3525 
L 125.025878 57.8325 
" clip-path="url(#p00de16b509)" style="fill: none; stroke: #b0b0b0; stroke-opacity: 0.8; stroke-linecap: square"/>
     </g>
     <g id="line2d_2">
      <defs>
       <path id="m47549ece31" d="M 0 0 
L 0 3.5 
" style="stroke: #000000; stroke-width: 0.8"/>
      </defs>
      <g>
       <use xlink:href="#m47549ece31" x="125.025878" y="501.3525" style="stroke: #000000; stroke-width: 0.8"/>
      </g>
     </g>
     <g id="text_1">
      <!-- 0 -->
      <g transform="translate(119.796191 521.49625) scale(0.2 -0.2)">
       <defs>
        <path id="AptosDisplay-30" d="M 1672 -56 
Q 1291 -56 1028 105 
Q 766 266 605 552 
Q 444 838 372 1216 
Q 300 1594 300 2031 
Q 300 2475 372 2856 
Q 444 3238 605 3525 
Q 766 3813 1028 3973 
Q 1291 4134 1672 4134 
Q 2053 4134 2317 3975 
Q 2581 3816 2742 3527 
Q 2903 3238 2975 2858 
Q 3047 2478 3047 2038 
Q 3047 1597 2975 1217 
Q 2903 838 2742 552 
Q 2581 266 2318 105 
Q 2056 -56 1672 -56 
z
M 1672 409 
Q 1916 409 2073 550 
Q 2231 691 2322 925 
Q 2413 1159 2448 1448 
Q 2484 1738 2484 2038 
Q 2484 2338 2448 2628 
Q 2413 2919 2322 3153 
Q 2231 3388 2073 3527 
Q 1916 3666 1669 3666 
Q 1428 3666 1268 3527 
Q 1109 3388 1020 3153 
Q 931 2919 893 2628 
Q 856 2338 856 2038 
Q 856 1741 893 1450 
Q 931 1159 1020 925 
Q 1109 691 1268 550 
Q 1428 409 1672 409 
z
" transform="scale(0.015625)"/>
       </defs>
       <use xlink:href="#AptosDisplay-30"/>
      </g>
     </g>
    </g>
    <g id="xtick_2">
     <g id="line2d_3">
      <path d="M 207.375347 501.3525 
L 207.375347 57.8325 
" clip-path="url(#p00de16b509)" style="fill: none; stroke: #b0b0b0; stroke-opacity: 0.8; stroke-linecap: square"/>
     </g>
     <g id="line2d_4">
      <g>
       <use xlink:href="#m47549ece31" x="207.375347" y="501.3525" style="stroke: #000000; stroke-width: 0.8"/>
      </g>
     </g>
     <g id="text_2">
      <!-- 25 -->
      <g transform="translate(196.915972 521.49625) scale(0.2 -0.2)">
       <defs>
        <path id="AptosDisplay-32" d="M 247 0 
L 247 413 
L 1725 1741 
Q 2100 2081 2269 2351 
Q 2438 2622 2438 2938 
Q 2438 3256 2263 3461 
Q 2088 3666 1691 3666 
Q 1247 3666 1055 3439 
Q 863 3213 863 2869 
L 341 2869 
Q 341 3250 491 3534 
Q 641 3819 941 3975 
Q 1241 4131 1691 4131 
Q 2103 4131 2390 3986 
Q 2678 3841 2828 3578 
Q 2978 3316 2978 2959 
Q 2978 2638 2853 2375 
Q 2728 2113 2517 1883 
Q 2306 1653 2044 1425 
L 959 463 
L 3097 463 
L 3097 0 
L 247 0 
z
" transform="scale(0.015625)"/>
        <path id="AptosDisplay-35" d="M 1669 -56 
Q 1278 -56 964 83 
Q 650 222 465 483 
Q 281 744 281 1113 
L 816 1113 
Q 816 778 1055 584 
Q 1294 391 1669 391 
Q 2069 391 2291 625 
Q 2513 859 2513 1319 
Q 2513 1772 2291 1989 
Q 2069 2206 1697 2206 
Q 1409 2206 1223 2123 
Q 1038 2041 916 1894 
L 444 1894 
L 622 4078 
L 2788 4078 
L 2788 3613 
L 1041 3613 
L 931 2322 
Q 1044 2453 1251 2550 
Q 1459 2647 1775 2647 
Q 2131 2647 2420 2506 
Q 2709 2366 2881 2072 
Q 3053 1778 3053 1319 
Q 3053 863 2875 558 
Q 2697 253 2384 98 
Q 2072 -56 1669 -56 
z
" transform="scale(0.015625)"/>
       </defs>
       <use xlink:href="#AptosDisplay-32"/>
       <use xlink:href="#AptosDisplay-35" x="52.294922"/>
      </g>
     </g>
    </g>
    <g id="xtick_3">
     <g id="line2d_5">
      <path d="M 289.724816 501.3525 
L 289.724816 57.8325 
" clip-path="url(#p00de16b509)" style="fill: none; stroke: #b0b0b0; stroke-opacity: 0.8; stroke-linecap: square"/>
     </g>
     <g id="line2d_6">
      <g>
       <use xlink:href="#m47549ece31" x="289.724816" y="501.3525" style="stroke: #000000; stroke-width: 0.8"/>
      </g>
     </g>
     <g id="text_3">
      <!-- 50 -->
      <g transform="translate(279.265441 521.49625) scale(0.2 -0.2)">
       <use xlink:href="#AptosDisplay-35"/>
       <use xlink:href="#AptosDisplay-30" x="52.294922"/>
      </g>
     </g>
    </g>
    <g id="xtick_4">
     <g id="line2d_7">
      <path d="M 372.074284 501.3525 
L 372.074284 57.8325 
" clip-path="url(#p00de16b509)" style="fill: none; stroke: #b0b0b0; stroke-opacity: 0.8; stroke-linecap: square"/>
     </g>
     <g id="line2d_8">
      <g>
       <use xlink:href="#m47549ece31" x="372.074284" y="501.3525" style="stroke: #000000; stroke-width: 0.8"/>
      </g>
     </g>
     <g id="text_4">
      <!-- 75 -->
      <g transform="translate(361.614909 521.49625) scale(0.2 -0.2)">
       <defs>
        <path id="AptosDisplay-37" d="M 766 0 
L 2609 3600 
L 194 3600 
L 194 4078 
L 3141 4078 
L 3141 3622 
L 1334 0 
L 766 0 
z
" transform="scale(0.015625)"/>
       </defs>
       <use xlink:href="#AptosDisplay-37"/>
       <use xlink:href="#AptosDisplay-35" x="52.294922"/>
      </g>
     </g>
    </g>
    <g id="xtick_5">
     <g id="line2d_9">
      <path d="M 454.423753 501.3525 
L 454.423753 57.8325 
" clip-path="url(#p00de16b509)" style="fill: none; stroke: #b0b0b0; stroke-opacity: 0.8; stroke-linecap: square"/>
     </g>
     <g id="line2d_10">
      <g>
       <use xlink:href="#m47549ece31" x="454.423753" y="501.3525" style="stroke: #000000; stroke-width: 0.8"/>
      </g>
     </g>
     <g id="text_5">
      <!-- 100 -->
      <g transform="translate(438.73469 521.49625) scale(0.2 -0.2)">
       <defs>
        <path id="AptosDisplay-31" d="M 1659 0 
L 1659 3425 
Q 1575 3309 1420 3201 
Q 1266 3094 1052 3009 
Q 838 2925 578 2888 
L 578 3381 
Q 834 3425 1057 3540 
Q 1281 3656 1453 3806 
Q 1625 3956 1719 4094 
L 2206 4094 
L 2206 0 
L 1659 0 
z
" transform="scale(0.015625)"/>
       </defs>
       <use xlink:href="#AptosDisplay-31"/>
       <use xlink:href="#AptosDisplay-30" x="52.294922"/>
       <use xlink:href="#AptosDisplay-30" x="104.589844"/>
      </g>
     </g>
    </g>
    <g id="xtick_6">
     <g id="line2d_11">
      <path d="M 536.773222 501.3525 
L 536.773222 57.8325 
" clip-path="url(#p00de16b509)" style="fill: none; stroke: #b0b0b0; stroke-opacity: 0.8; stroke-linecap: square"/>
     </g>
     <g id="line2d_12">
      <g>
       <use xlink:href="#m47549ece31" x="536.773222" y="501.3525" style="stroke: #000000; stroke-width: 0.8"/>
      </g>
     </g>
     <g id="text_6">
      <!-- 125 -->
      <g transform="translate(521.084159 521.49625) scale(0.2 -0.2)">
       <use xlink:href="#AptosDisplay-31"/>
       <use xlink:href="#AptosDisplay-32" x="52.294922"/>
       <use xlink:href="#AptosDisplay-35" x="104.589844"/>
      </g>
     </g>
    </g>
    <g id="xtick_7">
     <g id="line2d_13">
      <path d="M 619.12269 501.3525 
L 619.12269 57.8325 
" clip-path="url(#p00de16b509)" style="fill: none; stroke: #b0b0b0; stroke-opacity: 0.8; stroke-linecap: square"/>
     </g>
     <g id="line2d_14">
      <g>
       <use xlink:href="#m47549ece31" x="619.12269" y="501.3525" style="stroke: #000000; stroke-width: 0.8"/>
      </g>
     </g>
     <g id="text_7">
      <!-- 150 -->
      <g transform="translate(603.433628 521.49625) scale(0.2 -0.2)">
       <use xlink:href="#AptosDisplay-31"/>
       <use xlink:href="#AptosDisplay-35" x="52.294922"/>
       <use xlink:href="#AptosDisplay-30" x="104.589844"/>
      </g>
     </g>
    </g>
    <g id="xtick_8">
     <g id="line2d_15">
      <path d="M 701.472159 501.3525 
L 701.472159 57.8325 
" clip-path="url(#p00de16b509)" style="fill: none; stroke: #b0b0b0; stroke-opacity: 0.8; stroke-linecap: square"/>
     </g>
     <g id="line2d_16">
      <g>
       <use xlink:href="#m47549ece31" x="701.472159" y="501.3525" style="stroke: #000000; stroke-width: 0.8"/>
      </g>
     </g>
     <g id="text_8">
      <!-- 175 -->
      <g transform="translate(685.783097 521.49625) scale(0.2 -0.2)">
       <use xlink:href="#AptosDisplay-31"/>
       <use xlink:href="#AptosDisplay-37" x="52.294922"/>
       <use xlink:href="#AptosDisplay-35" x="104.589844"/>
      </g>
     </g>
    </g>
    <g id="xtick_9">
     <g id="line2d_17">
      <path d="M 108.555984 501.3525 
L 108.555984 57.8325 
" clip-path="url(#p00de16b509)" style="fill: none; stroke-dasharray: 1.85,0.8; stroke-dashoffset: 0; stroke: #b0b0b0; stroke-opacity: 0.8; stroke-width: 0.5"/>
     </g>
     <g id="line2d_18">
      <defs>
       <path id="m7be28c4ff5" d="M 0 0 
L 0 2 
" style="stroke: #000000; stroke-width: 0.6"/>
      </defs>
      <g>
       <use xlink:href="#m7be28c4ff5" x="108.555984" y="501.3525" style="stroke: #000000; stroke-width: 0.6"/>
      </g>
     </g>
    </g>
    <g id="xtick_10">
     <g id="line2d_19">
      <path d="M 141.495772 501.3525 
L 141.495772 57.8325 
" clip-path="url(#p00de16b509)" style="fill: none; stroke-dasharray: 1.85,0.8; stroke-dashoffset: 0; stroke: #b0b0b0; stroke-opacity: 0.8; stroke-width: 0.5"/>
     </g>
     <g id="line2d_20">
      <g>
       <use xlink:href="#m7be28c4ff5" x="141.495772" y="501.3525" style="stroke: #000000; stroke-width: 0.6"/>
      </g>
     </g>
    </g>
    <g id="xtick_11">
     <g id="line2d_21">
      <path d="M 157.965666 501.3525 
L 157.965666 57.8325 
" clip-path="url(#p00de16b509)" style="fill: none; stroke-dasharray: 1.85,0.8; stroke-dashoffset: 0; stroke: #b0b0b0; stroke-opacity: 0.8; stroke-width: 0.5"/>
     </g>
     <g id="line2d_22">
      <g>
       <use xlink:href="#m7be28c4ff5" x="157.965666" y="501.3525" style="stroke: #000000; stroke-width: 0.6"/>
      </g>
     </g>
    </g>
    <g id="xtick_12">
     <g id="line2d_23">
      <path d="M 174.435559 501.3525 
L 174.435559 57.8325 
" clip-path="url(#p00de16b509)" style="fill: none; stroke-dasharray: 1.85,0.8; stroke-dashoffset: 0; stroke: #b0b0b0; stroke-opacity: 0.8; stroke-width: 0.5"/>
     </g>
     <g id="line2d_24">
      <g>
       <use xlink:href="#m7be28c4ff5" x="174.435559" y="501.3525" style="stroke: #000000; stroke-width: 0.6"/>
      </g>
     </g>
    </g>
    <g id="xtick_13">
     <g id="line2d_25">
      <path d="M 190.905453 501.3525 
L 190.905453 57.8325 
" clip-path="url(#p00de16b509)" style="fill: none; stroke-dasharray: 1.85,0.8; stroke-dashoffset: 0; stroke: #b0b0b0; stroke-opacity: 0.8; stroke-width: 0.5"/>
     </g>
     <g id="line2d_26">
      <g>
       <use xlink:href="#m7be28c4ff5" x="190.905453" y="501.3525" style="stroke: #000000; stroke-width: 0.6"/>
      </g>
     </g>
    </g>
    <g id="xtick_14">
     <g id="line2d_27">
      <path d="M 223.845241 501.3525 
L 223.845241 57.8325 
" clip-path="url(#p00de16b509)" style="fill: none; stroke-dasharray: 1.85,0.8; stroke-dashoffset: 0; stroke: #b0b0b0; stroke-opacity: 0.8; stroke-width: 0.5"/>
     </g>
     <g id="line2d_28">
      <g>
       <use xlink:href="#m7be28c4ff5" x="223.845241" y="501.3525" style="stroke: #000000; stroke-width: 0.6"/>
      </g>
     </g>
    </g>
    <g id="xtick_15">
     <g id="line2d_29">
      <path d="M 240.315134 501.3525 
L 240.315134 57.8325 
" clip-path="url(#p00de16b509)" style="fill: none; stroke-dasharray: 1.85,0.8; stroke-dashoffset: 0; stroke: #b0b0b0; stroke-opacity: 0.8; stroke-width: 0.5"/>
     </g>
     <g id="line2d_30">
      <g>
       <use xlink:href="#m7be28c4ff5" x="240.315134" y="501.3525" style="stroke: #000000; stroke-width: 0.6"/>
      </g>
     </g>
    </g>
    <g id="xtick_16">
     <g id="line2d_31">
      <path d="M 256.785028 501.3525 
L 256.785028 57.8325 
" clip-path="url(#p00de16b509)" style="fill: none; stroke-dasharray: 1.85,0.8; stroke-dashoffset: 0; stroke: #b0b0b0; stroke-opacity: 0.8; stroke-width: 0.5"/>
     </g>
     <g id="line2d_32">
      <g>
       <use xlink:href="#m7be28c4ff5" x="256.785028" y="501.3525" style="stroke: #000000; stroke-width: 0.6"/>
      </g>
     </g>
    </g>
    <g id="xtick_17">
     <g id="line2d_33">
      <path d="M 273.254922 501.3525 
L 273.254922 57.8325 
" clip-path="url(#p00de16b509)" style="fill: none; stroke-dasharray: 1.85,0.8; stroke-dashoffset: 0; stroke: #b0b0b0; stroke-opacity: 0.8; stroke-width: 0.5"/>
     </g>
     <g id="line2d_34">
      <g>
       <use xlink:href="#m7be28c4ff5" x="273.254922" y="501.3525" style="stroke: #000000; stroke-width: 0.6"/>
      </g>
     </g>
    </g>
    <g id="xtick_18">
     <g id="line2d_35">
      <path d="M 306.194709 501.3525 
L 306.194709 57.8325 
" clip-path="url(#p00de16b509)" style="fill: none; stroke-dasharray: 1.85,0.8; stroke-dashoffset: 0; stroke: #b0b0b0; stroke-opacity: 0.8; stroke-width: 0.5"/>
     </g>
     <g id="line2d_36">
      <g>
       <use xlink:href="#m7be28c4ff5" x="306.194709" y="501.3525" style="stroke: #000000; stroke-width: 0.6"/>
      </g>
     </g>
    </g>
    <g id="xtick_19">
     <g id="line2d_37">
      <path d="M 322.664603 501.3525 
L 322.664603 57.8325 
" clip-path="url(#p00de16b509)" style="fill: none; stroke-dasharray: 1.85,0.8; stroke-dashoffset: 0; stroke: #b0b0b0; stroke-opacity: 0.8; stroke-width: 0.5"/>
     </g>
     <g id="line2d_38">
      <g>
       <use xlink:href="#m7be28c4ff5" x="322.664603" y="501.3525" style="stroke: #000000; stroke-width: 0.6"/>
      </g>
     </g>
    </g>
    <g id="xtick_20">
     <g id="line2d_39">
      <path d="M 339.134497 501.3525 
L 339.134497 57.8325 
" clip-path="url(#p00de16b509)" style="fill: none; stroke-dasharray: 1.85,0.8; stroke-dashoffset: 0; stroke: #b0b0b0; stroke-opacity: 0.8; stroke-width: 0.5"/>
     </g>
     <g id="line2d_40">
      <g>
       <use xlink:href="#m7be28c4ff5" x="339.134497" y="501.3525" style="stroke: #000000; stroke-width: 0.6"/>
      </g>
     </g>
    </g>
    <g id="xtick_21">
     <g id="line2d_41">
      <path d="M 355.60439 501.3525 
L 355.60439 57.8325 
" clip-path="url(#p00de16b509)" style="fill: none; stroke-dasharray: 1.85,0.8; stroke-dashoffset: 0; stroke: #b0b0b0; stroke-opacity: 0.8; stroke-width: 0.5"/>
     </g>
     <g id="line2d_42">
      <g>
       <use xlink:href="#m7be28c4ff5" x="355.60439" y="501.3525" style="stroke: #000000; stroke-width: 0.6"/>
      </g>
     </g>
    </g>
    <g id="xtick_22">
     <g id="line2d_43">
      <path d="M 388.544178 501.3525 
L 388.544178 57.8325 
" clip-path="url(#p00de16b509)" style="fill: none; stroke-dasharray: 1.85,0.8; stroke-dashoffset: 0; stroke: #b0b0b0; stroke-opacity: 0.8; stroke-width: 0.5"/>
     </g>
     <g id="line2d_44">
      <g>
       <use xlink:href="#m7be28c4ff5" x="388.544178" y="501.3525" style="stroke: #000000; stroke-width: 0.6"/>
      </g>
     </g>
    </g>
    <g id="xtick_23">
     <g id="line2d_45">
      <path d="M 405.014072 501.3525 
L 405.014072 57.8325 
" clip-path="url(#p00de16b509)" style="fill: none; stroke-dasharray: 1.85,0.8; stroke-dashoffset: 0; stroke: #b0b0b0; stroke-opacity: 0.8; stroke-width: 0.5"/>
     </g>
     <g id="line2d_46">
      <g>
       <use xlink:href="#m7be28c4ff5" x="405.014072" y="501.3525" style="stroke: #000000; stroke-width: 0.6"/>
      </g>
     </g>
    </g>
    <g id="xtick_24">
     <g id="line2d_47">
      <path d="M 421.483965 501.3525 
L 421.483965 57.8325 
" clip-path="url(#p00de16b509)" style="fill: none; stroke-dasharray: 1.85,0.8; stroke-dashoffset: 0; stroke: #b0b0b0; stroke-opacity: 0.8; stroke-width: 0.5"/>
     </g>
     <g id="line2d_48">
      <g>
       <use xlink:href="#m7be28c4ff5" x="421.483965" y="501.3525" style="stroke: #000000; stroke-width: 0.6"/>
      </g>
     </g>
    </g>
    <g id="xtick_25">
     <g id="line2d_49">
      <path d="M 437.953859 501.3525 
L 437.953859 57.8325 
" clip-path="url(#p00de16b509)" style="fill: none; stroke-dasharray: 1.85,0.8; stroke-dashoffset: 0; stroke: #b0b0b0; stroke-opacity: 0.8; stroke-width: 0.5"/>
     </g>
     <g id="line2d_50">
      <g>
       <use xlink:href="#m7be28c4ff5" x="437.953859" y="501.3525" style="stroke: #000000; stroke-width: 0.6"/>
      </g>
     </g>
    </g>
    <g id="xtick_26">
     <g id="line2d_51">
      <path d="M 470.893647 501.3525 
L 470.893647 57.8325 
" clip-path="url(#p00de16b509)" style="fill: none; stroke-dasharray: 1.85,0.8; stroke-dashoffset: 0; stroke: #b0b0b0; stroke-opacity: 0.8; stroke-width: 0.5"/>
     </g>
     <g id="line2d_52">
      <g>
       <use xlink:href="#m7be28c4ff5" x="470.893647" y="501.3525" style="stroke: #000000; stroke-width: 0.6"/>
      </g>
     </g>
    </g>
    <g id="xtick_27">
     <g id="line2d_53">
      <path d="M 487.36354 501.3525 
L 487.36354 57.8325 
" clip-path="url(#p00de16b509)" style="fill: none; stroke-dasharray: 1.85,0.8; stroke-dashoffset: 0; stroke: #b0b0b0; stroke-opacity: 0.8; stroke-width: 0.5"/>
     </g>
     <g id="line2d_54">
      <g>
       <use xlink:href="#m7be28c4ff5" x="487.36354" y="501.3525" style="stroke: #000000; stroke-width: 0.6"/>
      </g>
     </g>
    </g>
    <g id="xtick_28">
     <g id="line2d_55">
      <path d="M 503.833434 501.3525 
L 503.833434 57.8325 
" clip-path="url(#p00de16b509)" style="fill: none; stroke-dasharray: 1.85,0.8; stroke-dashoffset: 0; stroke: #b0b0b0; stroke-opacity: 0.8; stroke-width: 0.5"/>
     </g>
     <g id="line2d_56">
      <g>
       <use xlink:href="#m7be28c4ff5" x="503.833434" y="501.3525" style="stroke: #000000; stroke-width: 0.6"/>
      </g>
     </g>
    </g>
    <g id="xtick_29">
     <g id="line2d_57">
      <path d="M 520.303328 501.3525 
L 520.303328 57.8325 
" clip-path="url(#p00de16b509)" style="fill: none; stroke-dasharray: 1.85,0.8; stroke-dashoffset: 0; stroke: #b0b0b0; stroke-opacity: 0.8; stroke-width: 0.5"/>
     </g>
     <g id="line2d_58">
      <g>
       <use xlink:href="#m7be28c4ff5" x="520.303328" y="501.3525" style="stroke: #000000; stroke-width: 0.6"/>
      </g>
     </g>
    </g>
    <g id="xtick_30">
     <g id="line2d_59">
      <path d="M 553.243115 501.3525 
L 553.243115 57.8325 
" clip-path="url(#p00de16b509)" style="fill: none; stroke-dasharray: 1.85,0.8; stroke-dashoffset: 0; stroke: #b0b0b0; stroke-opacity: 0.8; stroke-width: 0.5"/>
     </g>
     <g id="line2d_60">
      <g>
       <use xlink:href="#m7be28c4ff5" x="553.243115" y="501.3525" style="stroke: #000000; stroke-width: 0.6"/>
      </g>
     </g>
    </g>
    <g id="xtick_31">
     <g id="line2d_61">
      <path d="M 569.713009 501.3525 
L 569.713009 57.8325 
" clip-path="url(#p00de16b509)" style="fill: none; stroke-dasharray: 1.85,0.8; stroke-dashoffset: 0; stroke: #b0b0b0; stroke-opacity: 0.8; stroke-width: 0.5"/>
     </g>
     <g id="line2d_62">
      <g>
       <use xlink:href="#m7be28c4ff5" x="569.713009" y="501.3525" style="stroke: #000000; stroke-width: 0.6"/>
      </g>
     </g>
    </g>
    <g id="xtick_32">
     <g id="line2d_63">
      <path d="M 586.182903 501.3525 
L 586.182903 57.8325 
" clip-path="url(#p00de16b509)" style="fill: none; stroke-dasharray: 1.85,0.8; stroke-dashoffset: 0; stroke: #b0b0b0; stroke-opacity: 0.8; stroke-width: 0.5"/>
     </g>
     <g id="line2d_64">
      <g>
       <use xlink:href="#m7be28c4ff5" x="586.182903" y="501.3525" style="stroke: #000000; stroke-width: 0.6"/>
      </g>
     </g>
    </g>
    <g id="xtick_33">
     <g id="line2d_65">
      <path d="M 602.652797 501.3525 
L 602.652797 57.8325 
" clip-path="url(#p00de16b509)" style="fill: none; stroke-dasharray: 1.85,0.8; stroke-dashoffset: 0; stroke: #b0b0b0; stroke-opacity: 0.8; stroke-width: 0.5"/>
     </g>
     <g id="line2d_66">
      <g>
       <use xlink:href="#m7be28c4ff5" x="602.652797" y="501.3525" style="stroke: #000000; stroke-width: 0.6"/>
      </g>
     </g>
    </g>
    <g id="xtick_34">
     <g id="line2d_67">
      <path d="M 635.592584 501.3525 
L 635.592584 57.8325 
" clip-path="url(#p00de16b509)" style="fill: none; stroke-dasharray: 1.85,0.8; stroke-dashoffset: 0; stroke: #b0b0b0; stroke-opacity: 0.8; stroke-width: 0.5"/>
     </g>
     <g id="line2d_68">
      <g>
       <use xlink:href="#m7be28c4ff5" x="635.592584" y="501.3525" style="stroke: #000000; stroke-width: 0.6"/>
      </g>
     </g>
    </g>
    <g id="xtick_35">
     <g id="line2d_69">
      <path d="M 652.062478 501.3525 
L 652.062478 57.8325 
" clip-path="url(#p00de16b509)" style="fill: none; stroke-dasharray: 1.85,0.8; stroke-dashoffset: 0; stroke: #b0b0b0; stroke-opacity: 0.8; stroke-width: 0.5"/>
     </g>
     <g id="line2d_70">
      <g>
       <use xlink:href="#m7be28c4ff5" x="652.062478" y="501.3525" style="stroke: #000000; stroke-width: 0.6"/>
      </g>
     </g>
    </g>
    <g id="xtick_36">
     <g id="line2d_71">
      <path d="M 668.532372 501.3525 
L 668.532372 57.8325 
" clip-path="url(#p00de16b509)" style="fill: none; stroke-dasharray: 1.85,0.8; stroke-dashoffset: 0; stroke: #b0b0b0; stroke-opacity: 0.8; stroke-width: 0.5"/>
     </g>
     <g id="line2d_72">
      <g>
       <use xlink:href="#m7be28c4ff5" x="668.532372" y="501.3525" style="stroke: #000000; stroke-width: 0.6"/>
      </g>
     </g>
    </g>
    <g id="xtick_37">
     <g id="line2d_73">
      <path d="M 685.002265 501.3525 
L 685.002265 57.8325 
" clip-path="url(#p00de16b509)" style="fill: none; stroke-dasharray: 1.85,0.8; stroke-dashoffset: 0; stroke: #b0b0b0; stroke-opacity: 0.8; stroke-width: 0.5"/>
     </g>
     <g id="line2d_74">
      <g>
       <use xlink:href="#m7be28c4ff5" x="685.002265" y="501.3525" style="stroke: #000000; stroke-width: 0.6"/>
      </g>
     </g>
    </g>
    <g id="xtick_38">
     <g id="line2d_75">
      <path d="M 717.942053 501.3525 
L 717.942053 57.8325 
" clip-path="url(#p00de16b509)" style="fill: none; stroke-dasharray: 1.85,0.8; stroke-dashoffset: 0; stroke: #b0b0b0; stroke-opacity: 0.8; stroke-width: 0.5"/>
     </g>
     <g id="line2d_76">
      <g>
       <use xlink:href="#m7be28c4ff5" x="717.942053" y="501.3525" style="stroke: #000000; stroke-width: 0.6"/>
      </g>
     </g>
    </g>
    <g id="xtick_39">
     <g id="line2d_77">
      <path d="M 734.411947 501.3525 
L 734.411947 57.8325 
" clip-path="url(#p00de16b509)" style="fill: none; stroke-dasharray: 1.85,0.8; stroke-dashoffset: 0; stroke: #b0b0b0; stroke-opacity: 0.8; stroke-width: 0.5"/>
     </g>
     <g id="line2d_78">
      <g>
       <use xlink:href="#m7be28c4ff5" x="734.411947" y="501.3525" style="stroke: #000000; stroke-width: 0.6"/>
      </g>
     </g>
    </g>
    <g id="xtick_40">
     <g id="line2d_79">
      <path d="M 750.88184 501.3525 
L 750.88184 57.8325 
" clip-path="url(#p00de16b509)" style="fill: none; stroke-dasharray: 1.85,0.8; stroke-dashoffset: 0; stroke: #b0b0b0; stroke-opacity: 0.8; stroke-width: 0.5"/>
     </g>
     <g id="line2d_80">
      <g>
       <use xlink:href="#m7be28c4ff5" x="750.88184" y="501.3525" style="stroke: #000000; stroke-width: 0.6"/>
      </g>
     </g>
    </g>
    <g id="text_9">
     <!-- Time (S) -->
     <g transform="translate(396.990625 542.305625) scale(0.2 -0.2)">
      <defs>
       <path id="AptosDisplay-54" d="M 1244 0 
L 1244 3734 
L 50 3734 
L 50 4206 
L 2997 4206 
L 2997 3734 
L 1806 3734 
L 1806 0 
L 1244 0 
z
" transform="scale(0.015625)"/>
       <path id="AptosDisplay-69" d="M 413 0 
L 413 3044 
L 934 3044 
L 934 0 
L 413 0 
z
M 675 3616 
Q 525 3616 437 3702 
Q 350 3788 350 3919 
Q 350 4050 437 4136 
Q 525 4222 675 4222 
Q 822 4222 912 4136 
Q 1003 4050 1003 3919 
Q 1003 3788 912 3702 
Q 822 3616 675 3616 
z
" transform="scale(0.015625)"/>
       <path id="AptosDisplay-6d" d="M 413 0 
L 413 3044 
L 919 3044 
L 931 2575 
Q 1063 2756 1303 2914 
Q 1544 3072 1903 3072 
Q 2403 3072 2618 2778 
Q 2834 2484 2834 1963 
L 2834 0 
L 2316 0 
L 2316 1891 
Q 2316 2106 2275 2275 
Q 2234 2444 2120 2539 
Q 2006 2634 1788 2634 
Q 1488 2634 1277 2482 
Q 1066 2331 934 2156 
L 934 0 
L 413 0 
z
M 4206 0 
L 4206 1891 
Q 4206 2106 4164 2275 
Q 4122 2444 4009 2539 
Q 3897 2634 3681 2634 
Q 3381 2634 3165 2484 
Q 2950 2334 2822 2159 
L 2744 2544 
Q 2916 2741 3175 2906 
Q 3434 3072 3800 3072 
Q 4291 3072 4509 2778 
Q 4728 2484 4728 1963 
L 4728 0 
L 4206 0 
z
" transform="scale(0.015625)"/>
       <path id="AptosDisplay-65" d="M 1663 -56 
Q 1188 -56 878 151 
Q 569 359 417 717 
Q 266 1075 266 1522 
Q 266 1988 412 2342 
Q 559 2697 857 2897 
Q 1156 3097 1606 3097 
Q 2209 3097 2550 2722 
Q 2891 2347 2891 1644 
Q 2891 1597 2889 1533 
Q 2888 1469 2881 1441 
L 791 1441 
Q 794 1144 881 895 
Q 969 647 1161 497 
Q 1353 347 1663 347 
Q 1997 347 2183 511 
Q 2369 675 2378 984 
L 2894 984 
Q 2884 663 2732 430 
Q 2581 197 2309 70 
Q 2038 -56 1663 -56 
z
M 794 1822 
L 2375 1822 
Q 2366 2247 2166 2472 
Q 1966 2697 1606 2697 
Q 1241 2697 1036 2473 
Q 831 2250 794 1822 
z
" transform="scale(0.015625)"/>
       <path id="AptosDisplay-20" transform="scale(0.015625)"/>
       <path id="AptosDisplay-28" d="M 1219 -1116 
Q 969 -678 787 -267 
Q 606 144 511 581 
Q 416 1019 416 1528 
Q 416 2028 509 2486 
Q 603 2944 783 3378 
Q 963 3813 1219 4231 
L 1647 4231 
Q 1278 3600 1101 2886 
Q 925 2172 925 1428 
Q 925 766 1125 103 
Q 1325 -559 1647 -1116 
L 1219 -1116 
z
" transform="scale(0.015625)"/>
       <path id="AptosDisplay-53" d="M 1778 -56 
Q 1328 -56 962 81 
Q 597 219 384 512 
Q 172 806 172 1275 
L 734 1275 
Q 738 941 883 750 
Q 1028 559 1267 481 
Q 1506 403 1794 403 
Q 2063 403 2283 483 
Q 2503 563 2634 723 
Q 2766 884 2766 1134 
Q 2766 1356 2662 1497 
Q 2559 1638 2321 1742 
Q 2084 1847 1678 1950 
Q 1203 2075 897 2223 
Q 591 2372 442 2594 
Q 294 2816 294 3156 
Q 294 3516 462 3761 
Q 631 4006 945 4134 
Q 1259 4263 1697 4263 
Q 2103 4263 2440 4131 
Q 2778 4000 2979 3737 
Q 3181 3475 3181 3084 
L 2616 3084 
Q 2622 3441 2356 3623 
Q 2091 3806 1700 3806 
Q 1300 3806 1073 3645 
Q 847 3484 847 3175 
Q 847 2991 944 2867 
Q 1041 2744 1280 2644 
Q 1519 2544 1941 2434 
Q 2428 2303 2731 2153 
Q 3034 2003 3178 1768 
Q 3322 1534 3322 1153 
Q 3322 747 3117 480 
Q 2913 213 2564 78 
Q 2216 -56 1778 -56 
z
" transform="scale(0.015625)"/>
       <path id="AptosDisplay-29" d="M 234 -1116 
Q 609 -481 786 233 
Q 963 947 963 1694 
Q 963 2356 759 3015 
Q 556 3675 234 4231 
L 663 4231 
Q 919 3800 1098 3389 
Q 1278 2978 1373 2540 
Q 1469 2103 1469 1594 
Q 1469 1094 1375 634 
Q 1281 175 1100 -259 
Q 919 -694 663 -1116 
L 234 -1116 
z
" transform="scale(0.015625)"/>
      </defs>
      <use xlink:href="#AptosDisplay-54"/>
      <use xlink:href="#AptosDisplay-69" x="47.705078"/>
      <use xlink:href="#AptosDisplay-6d" x="68.75"/>
      <use xlink:href="#AptosDisplay-65" x="148.730469"/>
      <use xlink:href="#AptosDisplay-20" x="198.144531"/>
      <use xlink:href="#AptosDisplay-28" x="217.431641"/>
      <use xlink:href="#AptosDisplay-53" x="246.875"/>
      <use xlink:href="#AptosDisplay-29" x="301.464844"/>
     </g>
    </g>
   </g>
   <g id="matplotlib.axis_2">
    <g id="ytick_1">
     <g id="line2d_81">
      <path d="M 95.28125 459.495203 
L 764.88125 459.495203 
" clip-path="url(#p00de16b509)" style="fill: none; stroke: #b0b0b0; stroke-opacity: 0.8; stroke-linecap: square"/>
     </g>
     <g id="line2d_82">
      <defs>
       <path id="m0a065c69f2" d="M 0 0 
L -3.5 0 
" style="stroke: #000000; stroke-width: 0.8"/>
      </defs>
      <g>
       <use xlink:href="#m0a065c69f2" x="95.28125" y="459.495203" style="stroke: #000000; stroke-width: 0.8"/>
      </g>
     </g>
     <g id="text_10">
      <!-- 440 -->
      <g transform="translate(56.903125 466.067078) scale(0.2 -0.2)">
       <defs>
        <path id="AptosDisplay-34" d="M 2106 0 
L 2106 825 
L 125 825 
L 125 1297 
L 2100 4103 
L 2631 4103 
L 2631 1284 
L 3191 1284 
L 3191 825 
L 2631 825 
L 2631 0 
L 2106 0 
z
M 638 1284 
L 2113 1284 
L 2113 3369 
L 638 1284 
z
" transform="scale(0.015625)"/>
       </defs>
       <use xlink:href="#AptosDisplay-34"/>
       <use xlink:href="#AptosDisplay-34" x="52.294922"/>
       <use xlink:href="#AptosDisplay-30" x="104.589844"/>
      </g>
     </g>
    </g>
    <g id="ytick_2">
     <g id="line2d_83">
      <path d="M 95.28125 362.197905 
L 764.88125 362.197905 
" clip-path="url(#p00de16b509)" style="fill: none; stroke: #b0b0b0; stroke-opacity: 0.8; stroke-linecap: square"/>
     </g>
     <g id="line2d_84">
      <g>
       <use xlink:href="#m0a065c69f2" x="95.28125" y="362.197905" style="stroke: #000000; stroke-width: 0.8"/>
      </g>
     </g>
     <g id="text_11">
      <!-- 450 -->
      <g transform="translate(56.903125 368.76978) scale(0.2 -0.2)">
       <use xlink:href="#AptosDisplay-34"/>
       <use xlink:href="#AptosDisplay-35" x="52.294922"/>
       <use xlink:href="#AptosDisplay-30" x="104.589844"/>
      </g>
     </g>
    </g>
    <g id="ytick_3">
     <g id="line2d_85">
      <path d="M 95.28125 264.900608 
L 764.88125 264.900608 
" clip-path="url(#p00de16b509)" style="fill: none; stroke: #b0b0b0; stroke-opacity: 0.8; stroke-linecap: square"/>
     </g>
     <g id="line2d_86">
      <g>
       <use xlink:href="#m0a065c69f2" x="95.28125" y="264.900608" style="stroke: #000000; stroke-width: 0.8"/>
      </g>
     </g>
     <g id="text_12">
      <!-- 460 -->
      <g transform="translate(56.903125 271.472483) scale(0.2 -0.2)">
       <defs>
        <path id="AptosDisplay-36" d="M 1759 -56 
Q 1325 -56 984 151 
Q 644 359 447 815 
Q 250 1272 250 2013 
Q 250 2738 439 3206 
Q 628 3675 968 3903 
Q 1309 4131 1759 4131 
Q 2253 4131 2595 3875 
Q 2938 3619 3034 3097 
L 2503 3097 
Q 2441 3388 2250 3534 
Q 2059 3681 1759 3681 
Q 1306 3681 1047 3279 
Q 788 2878 788 2013 
L 788 1850 
Q 788 1313 922 992 
Q 1056 672 1279 531 
Q 1503 391 1763 391 
Q 2175 391 2369 644 
Q 2563 897 2563 1272 
Q 2563 1650 2373 1869 
Q 2184 2088 1838 2088 
Q 1422 2088 1114 1897 
Q 806 1706 644 1456 
L 597 1856 
Q 728 2047 922 2201 
Q 1116 2356 1362 2447 
Q 1609 2538 1909 2538 
Q 2253 2538 2523 2395 
Q 2794 2253 2951 1975 
Q 3109 1697 3109 1291 
Q 3109 897 2951 592 
Q 2794 288 2492 116 
Q 2191 -56 1759 -56 
z
" transform="scale(0.015625)"/>
       </defs>
       <use xlink:href="#AptosDisplay-34"/>
       <use xlink:href="#AptosDisplay-36" x="52.294922"/>
       <use xlink:href="#AptosDisplay-30" x="104.589844"/>
      </g>
     </g>
    </g>
    <g id="ytick_4">
     <g id="line2d_87">
      <path d="M 95.28125 167.603311 
L 764.88125 167.603311 
" clip-path="url(#p00de16b509)" style="fill: none; stroke: #b0b0b0; stroke-opacity: 0.8; stroke-linecap: square"/>
     </g>
     <g id="line2d_88">
      <g>
       <use xlink:href="#m0a065c69f2" x="95.28125" y="167.603311" style="stroke: #000000; stroke-width: 0.8"/>
      </g>
     </g>
     <g id="text_13">
      <!-- 470 -->
      <g transform="translate(56.903125 174.175186) scale(0.2 -0.2)">
       <use xlink:href="#AptosDisplay-34"/>
       <use xlink:href="#AptosDisplay-37" x="52.294922"/>
       <use xlink:href="#AptosDisplay-30" x="104.589844"/>
      </g>
     </g>
    </g>
    <g id="ytick_5">
     <g id="line2d_89">
      <path d="M 95.28125 70.306014 
L 764.88125 70.306014 
" clip-path="url(#p00de16b509)" style="fill: none; stroke: #b0b0b0; stroke-opacity: 0.8; stroke-linecap: square"/>
     </g>
     <g id="line2d_90">
      <g>
       <use xlink:href="#m0a065c69f2" x="95.28125" y="70.306014" style="stroke: #000000; stroke-width: 0.8"/>
      </g>
     </g>
     <g id="text_14">
      <!-- 480 -->
      <g transform="translate(56.903125 76.877889) scale(0.2 -0.2)">
       <defs>
        <path id="AptosDisplay-38" d="M 1675 -56 
Q 1391 -56 1137 16 
Q 884 88 686 234 
Q 488 381 373 606 
Q 259 831 259 1141 
Q 259 1531 495 1797 
Q 731 2063 1084 2150 
Q 781 2250 604 2490 
Q 428 2731 428 3081 
Q 428 3447 609 3681 
Q 791 3916 1075 4025 
Q 1359 4134 1669 4134 
Q 1981 4134 2265 4023 
Q 2550 3913 2733 3680 
Q 2916 3447 2916 3081 
Q 2916 2725 2716 2481 
Q 2516 2238 2238 2150 
Q 2606 2063 2843 1800 
Q 3081 1538 3081 1141 
Q 3081 831 2968 606 
Q 2856 381 2661 234 
Q 2466 88 2211 16 
Q 1956 -56 1675 -56 
z
M 1672 388 
Q 1909 388 2109 470 
Q 2309 553 2429 725 
Q 2550 897 2550 1163 
Q 2550 1416 2426 1587 
Q 2303 1759 2104 1846 
Q 1906 1934 1672 1928 
Q 1453 1934 1253 1850 
Q 1053 1766 926 1594 
Q 800 1422 800 1163 
Q 800 775 1058 581 
Q 1316 388 1672 388 
z
M 1672 2363 
Q 1863 2356 2030 2434 
Q 2197 2513 2300 2667 
Q 2403 2822 2403 3050 
Q 2403 3388 2189 3544 
Q 1975 3700 1675 3700 
Q 1484 3700 1317 3631 
Q 1150 3563 1047 3419 
Q 944 3275 944 3050 
Q 944 2825 1048 2670 
Q 1153 2516 1320 2436 
Q 1488 2356 1672 2363 
z
" transform="scale(0.015625)"/>
       </defs>
       <use xlink:href="#AptosDisplay-34"/>
       <use xlink:href="#AptosDisplay-38" x="52.294922"/>
       <use xlink:href="#AptosDisplay-30" x="104.589844"/>
      </g>
     </g>
    </g>
    <g id="ytick_6">
     <g id="line2d_91">
      <path d="M 95.28125 498.414122 
L 764.88125 498.414122 
" clip-path="url(#p00de16b509)" style="fill: none; stroke-dasharray: 1.85,0.8; stroke-dashoffset: 0; stroke: #b0b0b0; stroke-opacity: 0.8; stroke-width: 0.5"/>
     </g>
     <g id="line2d_92">
      <defs>
       <path id="m04f6e2acdb" d="M 0 0 
L -2 0 
" style="stroke: #000000; stroke-width: 0.6"/>
      </defs>
      <g>
       <use xlink:href="#m04f6e2acdb" x="95.28125" y="498.414122" style="stroke: #000000; stroke-width: 0.6"/>
      </g>
     </g>
    </g>
    <g id="ytick_7">
     <g id="line2d_93">
      <path d="M 95.28125 478.954662 
L 764.88125 478.954662 
" clip-path="url(#p00de16b509)" style="fill: none; stroke-dasharray: 1.85,0.8; stroke-dashoffset: 0; stroke: #b0b0b0; stroke-opacity: 0.8; stroke-width: 0.5"/>
     </g>
     <g id="line2d_94">
      <g>
       <use xlink:href="#m04f6e2acdb" x="95.28125" y="478.954662" style="stroke: #000000; stroke-width: 0.6"/>
      </g>
     </g>
    </g>
    <g id="ytick_8">
     <g id="line2d_95">
      <path d="M 95.28125 440.035743 
L 764.88125 440.035743 
" clip-path="url(#p00de16b509)" style="fill: none; stroke-dasharray: 1.85,0.8; stroke-dashoffset: 0; stroke: #b0b0b0; stroke-opacity: 0.8; stroke-width: 0.5"/>
     </g>
     <g id="line2d_96">
      <g>
       <use xlink:href="#m04f6e2acdb" x="95.28125" y="440.035743" style="stroke: #000000; stroke-width: 0.6"/>
      </g>
     </g>
    </g>
    <g id="ytick_9">
     <g id="line2d_97">
      <path d="M 95.28125 420.576284 
L 764.88125 420.576284 
" clip-path="url(#p00de16b509)" style="fill: none; stroke-dasharray: 1.85,0.8; stroke-dashoffset: 0; stroke: #b0b0b0; stroke-opacity: 0.8; stroke-width: 0.5"/>
     </g>
     <g id="line2d_98">
      <g>
       <use xlink:href="#m04f6e2acdb" x="95.28125" y="420.576284" style="stroke: #000000; stroke-width: 0.6"/>
      </g>
     </g>
    </g>
    <g id="ytick_10">
     <g id="line2d_99">
      <path d="M 95.28125 401.116824 
L 764.88125 401.116824 
" clip-path="url(#p00de16b509)" style="fill: none; stroke-dasharray: 1.85,0.8; stroke-dashoffset: 0; stroke: #b0b0b0; stroke-opacity: 0.8; stroke-width: 0.5"/>
     </g>
     <g id="line2d_100">
      <g>
       <use xlink:href="#m04f6e2acdb" x="95.28125" y="401.116824" style="stroke: #000000; stroke-width: 0.6"/>
      </g>
     </g>
    </g>
    <g id="ytick_11">
     <g id="line2d_101">
      <path d="M 95.28125 381.657365 
L 764.88125 381.657365 
" clip-path="url(#p00de16b509)" style="fill: none; stroke-dasharray: 1.85,0.8; stroke-dashoffset: 0; stroke: #b0b0b0; stroke-opacity: 0.8; stroke-width: 0.5"/>
     </g>
     <g id="line2d_102">
      <g>
       <use xlink:href="#m04f6e2acdb" x="95.28125" y="381.657365" style="stroke: #000000; stroke-width: 0.6"/>
      </g>
     </g>
    </g>
    <g id="ytick_12">
     <g id="line2d_103">
      <path d="M 95.28125 342.738446 
L 764.88125 342.738446 
" clip-path="url(#p00de16b509)" style="fill: none; stroke-dasharray: 1.85,0.8; stroke-dashoffset: 0; stroke: #b0b0b0; stroke-opacity: 0.8; stroke-width: 0.5"/>
     </g>
     <g id="line2d_104">
      <g>
       <use xlink:href="#m04f6e2acdb" x="95.28125" y="342.738446" style="stroke: #000000; stroke-width: 0.6"/>
      </g>
     </g>
    </g>
    <g id="ytick_13">
     <g id="line2d_105">
      <path d="M 95.28125 323.278986 
L 764.88125 323.278986 
" clip-path="url(#p00de16b509)" style="fill: none; stroke-dasharray: 1.85,0.8; stroke-dashoffset: 0; stroke: #b0b0b0; stroke-opacity: 0.8; stroke-width: 0.5"/>
     </g>
     <g id="line2d_106">
      <g>
       <use xlink:href="#m04f6e2acdb" x="95.28125" y="323.278986" style="stroke: #000000; stroke-width: 0.6"/>
      </g>
     </g>
    </g>
    <g id="ytick_14">
     <g id="line2d_107">
      <path d="M 95.28125 303.819527 
L 764.88125 303.819527 
" clip-path="url(#p00de16b509)" style="fill: none; stroke-dasharray: 1.85,0.8; stroke-dashoffset: 0; stroke: #b0b0b0; stroke-opacity: 0.8; stroke-width: 0.5"/>
     </g>
     <g id="line2d_108">
      <g>
       <use xlink:href="#m04f6e2acdb" x="95.28125" y="303.819527" style="stroke: #000000; stroke-width: 0.6"/>
      </g>
     </g>
    </g>
    <g id="ytick_15">
     <g id="line2d_109">
      <path d="M 95.28125 284.360068 
L 764.88125 284.360068 
" clip-path="url(#p00de16b509)" style="fill: none; stroke-dasharray: 1.85,0.8; stroke-dashoffset: 0; stroke: #b0b0b0; stroke-opacity: 0.8; stroke-width: 0.5"/>
     </g>
     <g id="line2d_110">
      <g>
       <use xlink:href="#m04f6e2acdb" x="95.28125" y="284.360068" style="stroke: #000000; stroke-width: 0.6"/>
      </g>
     </g>
    </g>
    <g id="ytick_16">
     <g id="line2d_111">
      <path d="M 95.28125 245.441149 
L 764.88125 245.441149 
" clip-path="url(#p00de16b509)" style="fill: none; stroke-dasharray: 1.85,0.8; stroke-dashoffset: 0; stroke: #b0b0b0; stroke-opacity: 0.8; stroke-width: 0.5"/>
     </g>
     <g id="line2d_112">
      <g>
       <use xlink:href="#m04f6e2acdb" x="95.28125" y="245.441149" style="stroke: #000000; stroke-width: 0.6"/>
      </g>
     </g>
    </g>
    <g id="ytick_17">
     <g id="line2d_113">
      <path d="M 95.28125 225.981689 
L 764.88125 225.981689 
" clip-path="url(#p00de16b509)" style="fill: none; stroke-dasharray: 1.85,0.8; stroke-dashoffset: 0; stroke: #b0b0b0; stroke-opacity: 0.8; stroke-width: 0.5"/>
     </g>
     <g id="line2d_114">
      <g>
       <use xlink:href="#m04f6e2acdb" x="95.28125" y="225.981689" style="stroke: #000000; stroke-width: 0.6"/>
      </g>
     </g>
    </g>
    <g id="ytick_18">
     <g id="line2d_115">
      <path d="M 95.28125 206.52223 
L 764.88125 206.52223 
" clip-path="url(#p00de16b509)" style="fill: none; stroke-dasharray: 1.85,0.8; stroke-dashoffset: 0; stroke: #b0b0b0; stroke-opacity: 0.8; stroke-width: 0.5"/>
     </g>
     <g id="line2d_116">
      <g>
       <use xlink:href="#m04f6e2acdb" x="95.28125" y="206.52223" style="stroke: #000000; stroke-width: 0.6"/>
      </g>
     </g>
    </g>
    <g id="ytick_19">
     <g id="line2d_117">
      <path d="M 95.28125 187.06277 
L 764.88125 187.06277 
" clip-path="url(#p00de16b509)" style="fill: none; stroke-dasharray: 1.85,0.8; stroke-dashoffset: 0; stroke: #b0b0b0; stroke-opacity: 0.8; stroke-width: 0.5"/>
     </g>
     <g id="line2d_118">
      <g>
       <use xlink:href="#m04f6e2acdb" x="95.28125" y="187.06277" style="stroke: #000000; stroke-width: 0.6"/>
      </g>
     </g>
    </g>
    <g id="ytick_20">
     <g id="line2d_119">
      <path d="M 95.28125 148.143851 
L 764.88125 148.143851 
" clip-path="url(#p00de16b509)" style="fill: none; stroke-dasharray: 1.85,0.8; stroke-dashoffset: 0; stroke: #b0b0b0; stroke-opacity: 0.8; stroke-width: 0.5"/>
     </g>
     <g id="line2d_120">
      <g>
       <use xlink:href="#m04f6e2acdb" x="95.28125" y="148.143851" style="stroke: #000000; stroke-width: 0.6"/>
      </g>
     </g>
    </g>
    <g id="ytick_21">
     <g id="line2d_121">
      <path d="M 95.28125 128.684392 
L 764.88125 128.684392 
" clip-path="url(#p00de16b509)" style="fill: none; stroke-dasharray: 1.85,0.8; stroke-dashoffset: 0; stroke: #b0b0b0; stroke-opacity: 0.8; stroke-width: 0.5"/>
     </g>
     <g id="line2d_122">
      <g>
       <use xlink:href="#m04f6e2acdb" x="95.28125" y="128.684392" style="stroke: #000000; stroke-width: 0.6"/>
      </g>
     </g>
    </g>
    <g id="ytick_22">
     <g id="line2d_123">
      <path d="M 95.28125 109.224932 
L 764.88125 109.224932 
" clip-path="url(#p00de16b509)" style="fill: none; stroke-dasharray: 1.85,0.8; stroke-dashoffset: 0; stroke: #b0b0b0; stroke-opacity: 0.8; stroke-width: 0.5"/>
     </g>
     <g id="line2d_124">
      <g>
       <use xlink:href="#m04f6e2acdb" x="95.28125" y="109.224932" style="stroke: #000000; stroke-width: 0.6"/>
      </g>
     </g>
    </g>
    <g id="ytick_23">
     <g id="line2d_125">
      <path d="M 95.28125 89.765473 
L 764.88125 89.765473 
" clip-path="url(#p00de16b509)" style="fill: none; stroke-dasharray: 1.85,0.8; stroke-dashoffset: 0; stroke: #b0b0b0; stroke-opacity: 0.8; stroke-width: 0.5"/>
     </g>
     <g id="line2d_126">
      <g>
       <use xlink:href="#m04f6e2acdb" x="95.28125" y="89.765473" style="stroke: #000000; stroke-width: 0.6"/>
      </g>
     </g>
    </g>
    <g id="text_15">
     <!-- Light (W/m^2) -->
     <g transform="translate(49.221875 337.558125) rotate(-90) scale(0.2 -0.2)">
      <defs>
       <path id="AptosDisplay-4c" d="M 472 0 
L 472 4206 
L 1034 4206 
L 1034 484 
L 3000 484 
L 3000 0 
L 472 0 
z
" transform="scale(0.015625)"/>
       <path id="AptosDisplay-67" d="M 1397 -1178 
Q 925 -1178 640 -1065 
Q 356 -953 229 -765 
Q 103 -578 103 -359 
Q 103 -94 329 112 
Q 556 319 1031 403 
L 1128 575 
L 1475 575 
Q 2184 575 2489 376 
Q 2794 178 2794 -238 
Q 2794 -650 2437 -914 
Q 2081 -1178 1397 -1178 
z
M 1384 -800 
Q 1878 -800 2086 -650 
Q 2294 -500 2294 -278 
Q 2294 -147 2225 -51 
Q 2156 44 1975 97 
Q 1794 150 1456 150 
L 1034 150 
Q 819 97 708 -31 
Q 597 -159 597 -328 
Q 597 -516 778 -658 
Q 959 -800 1384 -800 
z
M 1025 216 
Q 722 228 550 312 
Q 378 397 306 511 
Q 234 625 234 722 
Q 234 866 362 1009 
Q 491 1153 772 1241 
L 1038 1069 
Q 866 1031 772 953 
Q 678 875 678 791 
Q 678 731 734 682 
Q 791 634 928 606 
Q 1066 578 1303 575 
L 1025 216 
z
M 1363 984 
Q 1003 984 753 1128 
Q 503 1272 375 1509 
Q 247 1747 247 2022 
Q 247 2313 376 2550 
Q 506 2788 754 2928 
Q 1003 3069 1366 3069 
Q 1738 3069 1983 2928 
Q 2228 2788 2351 2550 
Q 2475 2313 2475 2022 
Q 2475 1741 2350 1505 
Q 2225 1269 1979 1126 
Q 1734 984 1363 984 
z
M 1366 1341 
Q 1641 1341 1812 1512 
Q 1984 1684 1984 2022 
Q 1984 2375 1817 2545 
Q 1650 2716 1372 2716 
Q 1094 2716 919 2541 
Q 744 2366 744 2025 
Q 744 1681 931 1511 
Q 1119 1341 1366 1341 
z
M 2131 2734 
L 1922 2931 
Q 2038 3225 2252 3331 
Q 2466 3438 2794 3447 
L 2794 3006 
Q 2588 3006 2416 2961 
Q 2244 2916 2131 2734 
z
" transform="scale(0.015625)"/>
       <path id="AptosDisplay-68" d="M 413 0 
L 413 4206 
L 931 4206 
L 931 2575 
Q 1069 2756 1317 2914 
Q 1566 3072 1950 3072 
Q 2428 3072 2637 2783 
Q 2847 2494 2847 1963 
L 2847 0 
L 2328 0 
L 2328 1891 
Q 2328 2106 2287 2275 
Q 2247 2444 2139 2539 
Q 2031 2634 1822 2634 
Q 1503 2634 1284 2482 
Q 1066 2331 934 2156 
L 934 0 
L 413 0 
z
" transform="scale(0.015625)"/>
       <path id="AptosDisplay-74" d="M 1466 0 
Q 1100 0 901 117 
Q 703 234 629 454 
Q 556 675 556 984 
L 556 2622 
L 50 2622 
L 50 3044 
L 556 3044 
L 556 3741 
L 1078 3741 
L 1078 3044 
L 1831 3044 
L 1831 2622 
L 1078 2622 
L 1078 1009 
Q 1078 725 1151 575 
Q 1225 425 1500 425 
L 1831 425 
L 1831 0 
L 1466 0 
z
" transform="scale(0.015625)"/>
       <path id="AptosDisplay-57" d="M 1216 0 
L -13 4206 
L 575 4206 
L 1525 697 
L 2531 4206 
L 3156 4206 
L 4163 697 
L 5119 4206 
L 5681 4206 
L 4453 0 
L 3866 0 
L 2831 3556 
L 1813 0 
L 1216 0 
z
" transform="scale(0.015625)"/>
       <path id="AptosDisplay-2f" d="M 72 0 
L 1603 4206 
L 2100 4206 
L 569 0 
L 72 0 
z
" transform="scale(0.015625)"/>
       <path id="AptosDisplay-5e" d="M 428 2438 
L 1459 4206 
L 1884 4206 
L 2916 2438 
L 2366 2438 
L 1672 3650 
L 978 2438 
L 428 2438 
z
" transform="scale(0.015625)"/>
      </defs>
      <use xlink:href="#AptosDisplay-4c"/>
      <use xlink:href="#AptosDisplay-69" x="48.4375"/>
      <use xlink:href="#AptosDisplay-67" x="69.482422"/>
      <use xlink:href="#AptosDisplay-68" x="113.427734"/>
      <use xlink:href="#AptosDisplay-74" x="164.013672"/>
      <use xlink:href="#AptosDisplay-20" x="194.384766"/>
      <use xlink:href="#AptosDisplay-28" x="213.671875"/>
      <use xlink:href="#AptosDisplay-57" x="243.115234"/>
      <use xlink:href="#AptosDisplay-2f" x="331.689453"/>
      <use xlink:href="#AptosDisplay-6d" x="365.625"/>
      <use xlink:href="#AptosDisplay-5e" x="445.605469"/>
      <use xlink:href="#AptosDisplay-32" x="497.900391"/>
      <use xlink:href="#AptosDisplay-29" x="550.195312"/>
     </g>
    </g>
   </g>
   <g id="line2d_127">
    <path d="M 125.717614 249.566554 
L 126.376409 253.857365 
L 127.035205 262.429257 
L 127.694001 288.174122 
L 129.011592 262.429257 
L 129.670388 271.010878 
L 130.329184 271.010878 
L 130.98798 262.429257 
L 131.646775 266.720068 
L 132.305571 288.174122 
L 132.964367 283.883311 
L 133.623163 292.464932 
L 134.281958 288.174122 
L 134.940754 288.174122 
L 135.59955 301.036824 
L 136.258346 305.327635 
L 136.917141 296.746014 
L 138.234733 313.909257 
L 138.893529 356.797905 
L 139.552324 313.909257 
L 140.21112 318.200068 
L 140.869916 305.327635 
L 141.528712 301.036824 
L 142.187507 326.771959 
L 142.846303 335.353581 
L 143.505099 262.429257 
L 144.163895 343.935203 
L 144.82269 313.909257 
L 145.481486 309.618446 
L 146.140282 292.464932 
L 146.799078 309.618446 
L 147.457873 288.174122 
L 148.116669 283.883311 
L 148.775465 305.327635 
L 149.434261 313.909257 
L 150.093056 309.618446 
L 150.751852 296.746014 
L 151.410648 292.464932 
L 152.069444 301.036824 
L 152.728239 275.301689 
L 153.387035 322.481149 
L 154.045831 331.06277 
L 154.704627 305.327635 
L 155.363422 331.06277 
L 156.022218 313.909257 
L 156.681014 326.771959 
L 157.33981 356.797905 
L 157.998605 335.353581 
L 158.657401 339.644392 
L 159.316197 369.670338 
L 159.974993 348.226014 
L 160.633788 378.251959 
L 161.292584 382.533041 
L 161.95138 348.226014 
L 162.610176 365.379527 
L 163.268971 365.379527 
L 163.927767 361.088716 
L 164.586563 373.961149 
L 165.245359 365.379527 
L 165.904154 361.088716 
L 166.56295 373.961149 
L 167.221746 356.797905 
L 167.880542 369.670338 
L 168.539337 348.226014 
L 169.198133 339.644392 
L 169.856929 373.961149 
L 170.515725 373.961149 
L 171.17452 348.226014 
L 171.833316 365.379527 
L 172.492112 348.226014 
L 173.150908 434.013041 
L 173.809703 335.353581 
L 174.468499 348.226014 
L 175.127295 395.405473 
L 175.786091 382.533041 
L 176.444886 382.533041 
L 177.103682 378.251959 
L 177.762478 361.088716 
L 178.421274 395.405473 
L 179.080069 356.797905 
L 179.738865 373.961149 
L 180.397661 399.696284 
L 181.056457 386.823851 
L 182.374048 386.823851 
L 183.032844 382.533041 
L 184.350435 399.696284 
L 185.009231 386.823851 
L 185.668027 382.533041 
L 186.326823 399.696284 
L 186.985618 395.405473 
L 187.644414 403.987095 
L 188.30321 378.251959 
L 189.620801 403.987095 
L 190.279597 412.558986 
L 190.938393 425.431419 
L 191.597189 403.987095 
L 192.255984 403.987095 
L 192.91478 391.114662 
L 193.573576 412.558986 
L 194.232372 412.558986 
L 194.891167 395.405473 
L 195.549963 416.849797 
L 196.867555 399.696284 
L 197.52635 408.277905 
L 198.185146 399.696284 
L 198.843942 386.823851 
L 199.502738 403.987095 
L 200.161533 249.566554 
L 200.820329 378.251959 
L 201.479125 373.961149 
L 202.137921 373.961149 
L 202.796716 348.226014 
L 203.455512 369.670338 
L 204.114308 369.670338 
L 204.773104 373.961149 
L 205.431899 386.823851 
L 206.090695 343.935203 
L 206.749491 313.909257 
L 207.408287 356.797905 
L 208.067082 343.935203 
L 208.725878 352.507095 
L 209.384674 348.226014 
L 210.04347 331.06277 
L 210.702265 343.935203 
L 211.361061 343.935203 
L 212.019857 322.481149 
L 212.678653 339.644392 
L 213.337448 326.771959 
L 213.996244 318.200068 
L 214.65504 331.06277 
L 215.313836 326.771959 
L 215.972631 348.226014 
L 216.631427 356.797905 
L 217.290223 343.935203 
L 217.949019 326.771959 
L 218.607814 339.644392 
L 219.26661 348.226014 
L 219.925406 339.644392 
L 220.584202 339.644392 
L 221.242997 331.06277 
L 221.901793 313.909257 
L 222.560589 335.353581 
L 223.219385 322.481149 
L 223.87818 322.481149 
L 224.536976 305.327635 
L 225.195772 322.481149 
L 225.854568 313.909257 
L 226.513363 356.797905 
L 227.172159 301.036824 
L 227.830955 343.935203 
L 228.489751 305.327635 
L 229.148546 301.036824 
L 229.807342 150.907095 
L 230.466138 301.036824 
L 231.124934 305.327635 
L 231.783729 318.200068 
L 232.442525 322.481149 
L 233.101321 296.746014 
L 233.760117 292.464932 
L 234.418912 305.327635 
L 235.077708 288.174122 
L 235.736504 296.746014 
L 236.3953 288.174122 
L 237.054095 283.883311 
L 237.712891 283.883311 
L 239.030483 292.464932 
L 240.348074 283.883311 
L 241.00687 266.720068 
L 242.324461 283.883311 
L 242.983257 253.857365 
L 243.642053 279.5925 
L 244.300849 292.464932 
L 244.959644 292.464932 
L 245.61844 288.174122 
L 246.277236 275.301689 
L 246.936032 275.301689 
L 247.594827 258.148176 
L 248.253623 249.566554 
L 248.912419 262.429257 
L 249.571215 253.857365 
L 250.23001 266.720068 
L 250.888806 266.720068 
L 251.547602 283.883311 
L 252.206398 258.148176 
L 252.865193 262.429257 
L 253.523989 232.403311 
L 254.182785 266.720068 
L 255.500376 240.984932 
L 256.159172 266.720068 
L 256.817968 271.010878 
L 257.476764 240.984932 
L 258.135559 279.5925 
L 258.794355 266.720068 
L 259.453151 266.720068 
L 260.111947 249.566554 
L 260.770742 266.720068 
L 261.429538 262.429257 
L 262.088334 262.429257 
L 262.74713 258.148176 
L 263.405925 266.720068 
L 264.064721 266.720068 
L 264.723517 271.010878 
L 265.382313 271.010878 
L 266.699904 262.429257 
L 267.3587 266.720068 
L 268.017496 253.857365 
L 268.676291 271.010878 
L 269.335087 253.857365 
L 269.993883 266.720068 
L 270.652679 266.720068 
L 271.311474 262.429257 
L 271.97027 266.720068 
L 272.629066 301.036824 
L 273.287862 271.010878 
L 273.946657 279.5925 
L 275.264249 288.174122 
L 275.923045 275.301689 
L 276.58184 288.174122 
L 277.240636 279.5925 
L 277.899432 275.301689 
L 278.558228 283.883311 
L 279.217023 275.301689 
L 279.875819 283.883311 
L 280.534615 275.301689 
L 281.193411 288.174122 
L 281.852206 279.5925 
L 282.511002 266.720068 
L 283.169798 271.010878 
L 283.828594 279.5925 
L 284.487389 309.618446 
L 285.146185 266.720068 
L 285.804981 292.464932 
L 286.463777 283.883311 
L 287.122572 262.429257 
L 287.781368 283.883311 
L 288.440164 271.010878 
L 289.09896 266.720068 
L 289.757755 258.148176 
L 290.416551 262.429257 
L 291.075347 245.275743 
L 291.734143 279.5925 
L 292.392938 253.857365 
L 293.051734 275.301689 
L 293.71053 253.857365 
L 294.369326 258.148176 
L 295.028121 266.720068 
L 295.686917 258.148176 
L 296.345713 236.694122 
L 297.004509 236.694122 
L 297.663304 253.857365 
L 298.3221 266.720068 
L 298.980896 253.857365 
L 299.639692 245.275743 
L 300.298487 245.275743 
L 300.957283 198.096284 
L 301.616079 253.857365 
L 302.274875 240.984932 
L 302.93367 249.566554 
L 303.592466 262.429257 
L 304.251262 240.984932 
L 304.910058 245.275743 
L 306.227649 245.275743 
L 306.886445 253.857365 
L 307.545241 223.831419 
L 308.204036 240.984932 
L 308.862832 262.429257 
L 309.521628 245.275743 
L 310.180424 266.720068 
L 310.839219 253.857365 
L 311.498015 253.857365 
L 312.156811 262.429257 
L 312.815607 249.566554 
L 313.474402 245.275743 
L 314.133198 236.694122 
L 314.791994 240.984932 
L 315.45079 262.429257 
L 316.109585 236.694122 
L 316.768381 262.429257 
L 317.427177 236.694122 
L 318.085973 240.984932 
L 318.744768 258.148176 
L 319.403564 245.275743 
L 320.06236 236.694122 
L 320.721156 245.275743 
L 321.379951 245.275743 
L 322.038747 236.694122 
L 324.67393 236.694122 
L 325.332726 253.857365 
L 325.991522 232.403311 
L 326.650317 236.694122 
L 327.309113 228.12223 
L 327.967909 240.984932 
L 328.626705 172.361149 
L 329.2855 236.694122 
L 329.944296 236.694122 
L 330.603092 240.984932 
L 331.261888 215.249797 
L 331.920683 223.831419 
L 332.579479 240.984932 
L 333.238275 245.275743 
L 333.897071 245.275743 
L 334.555866 258.148176 
L 335.214662 223.831419 
L 335.873458 249.566554 
L 336.532254 159.488716 
L 337.191049 245.275743 
L 337.849845 236.694122 
L 338.508641 249.566554 
L 339.167437 331.06277 
L 339.826232 253.857365 
L 341.143824 245.275743 
L 341.80262 249.566554 
L 342.461415 206.668176 
L 343.120211 245.275743 
L 343.779007 313.909257 
L 344.437803 236.694122 
L 345.096598 240.984932 
L 345.755394 228.12223 
L 346.41419 262.429257 
L 347.072986 232.403311 
L 347.731781 215.249797 
L 348.390577 236.694122 
L 349.049373 236.694122 
L 349.708169 228.12223 
L 350.366964 249.566554 
L 351.02576 232.403311 
L 351.684556 288.174122 
L 352.343352 240.984932 
L 353.002147 232.403311 
L 353.660943 262.429257 
L 354.319739 232.403311 
L 354.978535 232.403311 
L 355.63733 236.694122 
L 356.296126 236.694122 
L 357.613718 253.857365 
L 358.272513 240.984932 
L 358.931309 249.566554 
L 359.590105 236.694122 
L 360.248901 249.566554 
L 360.907696 301.036824 
L 361.566492 245.275743 
L 362.225288 245.275743 
L 362.884084 262.429257 
L 363.542879 236.694122 
L 364.860471 245.275743 
L 365.519267 240.984932 
L 366.178062 240.984932 
L 366.836858 249.566554 
L 368.15445 240.984932 
L 368.813245 253.857365 
L 369.472041 245.275743 
L 370.130837 245.275743 
L 370.789633 240.984932 
L 371.448428 240.984932 
L 372.107224 249.566554 
L 372.76602 266.720068 
L 373.424816 206.668176 
L 374.083611 189.514662 
L 374.742407 240.984932 
L 375.401203 253.857365 
L 376.059999 77.9925 
L 376.718794 258.148176 
L 377.37759 236.694122 
L 378.036386 258.148176 
L 378.695182 271.010878 
L 379.353977 258.148176 
L 380.012773 301.036824 
L 380.671569 275.301689 
L 381.330365 266.720068 
L 382.647956 275.301689 
L 383.306752 301.036824 
L 383.965548 288.174122 
L 384.624343 288.174122 
L 385.283139 279.5925 
L 385.941935 288.174122 
L 386.600731 292.464932 
L 387.259526 292.464932 
L 387.918322 283.883311 
L 388.577118 305.327635 
L 389.235914 288.174122 
L 389.894709 236.694122 
L 390.553505 292.464932 
L 391.212301 378.251959 
L 391.871097 305.327635 
L 392.529892 301.036824 
L 393.188688 301.036824 
L 393.847484 313.909257 
L 394.50628 305.327635 
L 395.165075 301.036824 
L 395.823871 313.909257 
L 396.482667 301.036824 
L 397.141463 301.036824 
L 397.800258 305.327635 
L 398.459054 313.909257 
L 399.11785 309.618446 
L 399.776646 301.036824 
L 400.435441 288.174122 
L 401.094237 296.746014 
L 401.753033 292.464932 
L 402.411829 313.909257 
L 403.070624 301.036824 
L 403.72942 296.746014 
L 404.388216 313.909257 
L 405.047012 313.909257 
L 405.705807 262.429257 
L 406.364603 288.174122 
L 407.023399 301.036824 
L 407.682195 296.746014 
L 408.34099 296.746014 
L 408.999786 292.464932 
L 409.658582 318.200068 
L 410.317378 322.481149 
L 410.976173 309.618446 
L 411.634969 313.909257 
L 412.293765 313.909257 
L 412.952561 322.481149 
L 414.270152 322.481149 
L 414.928948 326.771959 
L 415.587744 322.481149 
L 416.246539 322.481149 
L 416.905335 326.771959 
L 417.564131 322.481149 
L 418.222927 343.935203 
L 418.881722 335.353581 
L 420.199314 343.935203 
L 420.85811 339.644392 
L 421.516905 339.644392 
L 422.175701 348.226014 
L 422.834497 339.644392 
L 424.152088 339.644392 
L 424.810884 322.481149 
L 425.46968 331.06277 
L 426.128476 331.06277 
L 426.787271 339.644392 
L 427.446067 318.200068 
L 428.104863 322.481149 
L 428.763659 331.06277 
L 429.422454 292.464932 
L 430.08125 318.200068 
L 430.740046 335.353581 
L 432.716433 240.984932 
L 433.375229 305.327635 
L 434.034024 288.174122 
L 434.69282 275.301689 
L 435.351616 275.301689 
L 436.010412 271.010878 
L 436.669207 271.010878 
L 437.328003 275.301689 
L 437.986799 283.883311 
L 438.645595 275.301689 
L 439.963186 275.301689 
L 441.280778 292.464932 
L 441.939573 275.301689 
L 442.598369 275.301689 
L 443.257165 283.883311 
L 443.915961 288.174122 
L 444.574756 279.5925 
L 446.551144 292.464932 
L 447.209939 279.5925 
L 447.868735 271.010878 
L 448.527531 279.5925 
L 449.845122 288.174122 
L 450.503918 279.5925 
L 451.162714 292.464932 
L 451.82151 279.5925 
L 452.480305 271.010878 
L 453.139101 279.5925 
L 453.797897 275.301689 
L 454.456693 283.883311 
L 455.115488 266.720068 
L 455.774284 271.010878 
L 457.091876 271.010878 
L 457.750671 262.429257 
L 458.409467 262.429257 
L 459.727059 279.5925 
L 460.385854 266.720068 
L 461.04465 326.771959 
L 461.703446 275.301689 
L 462.362242 262.429257 
L 463.021037 271.010878 
L 464.338629 279.5925 
L 465.65622 271.010878 
L 466.315016 271.010878 
L 466.973812 288.174122 
L 467.632608 283.883311 
L 468.291403 275.301689 
L 468.950199 258.148176 
L 469.608995 283.883311 
L 470.267791 288.174122 
L 470.926586 283.883311 
L 471.585382 288.174122 
L 472.244178 279.5925 
L 472.902974 279.5925 
L 473.561769 288.174122 
L 474.220565 275.301689 
L 474.879361 283.883311 
L 475.538157 271.010878 
L 476.196952 266.720068 
L 476.855748 271.010878 
L 477.514544 262.429257 
L 478.17334 271.010878 
L 478.832135 262.429257 
L 479.490931 271.010878 
L 480.149727 275.301689 
L 480.808523 283.883311 
L 481.467318 301.036824 
L 482.126114 266.720068 
L 484.102501 266.720068 
L 484.761297 262.429257 
L 485.420093 271.010878 
L 486.078889 271.010878 
L 486.737684 262.429257 
L 487.39648 275.301689 
L 488.055276 305.327635 
L 488.714072 249.566554 
L 489.372867 258.148176 
L 490.031663 258.148176 
L 490.690459 262.429257 
L 491.349255 262.429257 
L 492.00805 249.566554 
L 492.666846 240.984932 
L 493.325642 245.275743 
L 493.984438 253.857365 
L 494.643233 245.275743 
L 495.302029 253.857365 
L 495.960825 245.275743 
L 496.619621 245.275743 
L 497.278416 223.831419 
L 497.937212 228.12223 
L 498.596008 228.12223 
L 499.254804 232.403311 
L 499.913599 245.275743 
L 500.572395 232.403311 
L 501.889987 249.566554 
L 503.866374 236.694122 
L 504.52517 249.566554 
L 505.183965 232.403311 
L 505.842761 236.694122 
L 506.501557 232.403311 
L 507.160353 236.694122 
L 507.819148 236.694122 
L 508.477944 232.403311 
L 509.13674 236.694122 
L 509.795536 215.249797 
L 510.454331 232.403311 
L 511.113127 236.694122 
L 511.771923 228.12223 
L 512.430719 232.403311 
L 513.089514 275.301689 
L 513.74831 245.275743 
L 514.407106 236.694122 
L 515.065902 232.403311 
L 516.383493 232.403311 
L 517.042289 258.148176 
L 517.701085 245.275743 
L 518.35988 283.883311 
L 519.018676 296.746014 
L 519.677472 223.831419 
L 520.336268 236.694122 
L 520.995063 245.275743 
L 523.630246 236.694122 
L 524.289042 245.275743 
L 524.947838 240.984932 
L 525.606634 240.984932 
L 526.265429 232.403311 
L 527.583021 232.403311 
L 528.241817 236.694122 
L 528.900612 326.771959 
L 529.559408 236.694122 
L 530.218204 258.148176 
L 530.877 266.720068 
L 531.535795 232.403311 
L 532.194591 262.429257 
L 532.853387 240.984932 
L 533.512183 198.096284 
L 534.170978 228.12223 
L 534.829774 236.694122 
L 535.48857 240.984932 
L 536.147366 232.403311 
L 536.806161 245.275743 
L 538.123753 236.694122 
L 538.782549 245.275743 
L 539.441344 236.694122 
L 540.10014 240.984932 
L 540.758936 232.403311 
L 541.417732 245.275743 
L 542.076527 253.857365 
L 542.735323 206.668176 
L 543.394119 262.429257 
L 544.052915 236.694122 
L 544.71171 228.12223 
L 545.370506 228.12223 
L 546.029302 219.540608 
L 546.688098 236.694122 
L 547.346893 245.275743 
L 548.005689 219.540608 
L 548.664485 253.857365 
L 549.323281 228.12223 
L 549.982076 215.249797 
L 550.640872 210.958986 
L 551.299668 219.540608 
L 551.958464 210.958986 
L 552.617259 215.249797 
L 553.276055 206.668176 
L 553.934851 210.958986 
L 554.593647 223.831419 
L 555.252442 198.096284 
L 555.911238 215.249797 
L 556.570034 206.668176 
L 557.22883 202.387095 
L 557.887625 193.805473 
L 558.546421 210.958986 
L 559.205217 210.958986 
L 560.522808 193.805473 
L 561.181604 198.096284 
L 561.8404 210.958986 
L 563.157991 210.958986 
L 563.816787 206.668176 
L 564.475583 219.540608 
L 565.793174 219.540608 
L 567.769562 232.403311 
L 569.087153 223.831419 
L 569.745949 236.694122 
L 570.404745 240.984932 
L 571.06354 232.403311 
L 571.722336 168.070338 
L 572.381132 258.148176 
L 573.039928 228.12223 
L 574.357519 262.429257 
L 575.016315 271.010878 
L 575.675111 253.857365 
L 576.333906 266.720068 
L 576.992702 266.720068 
L 577.651498 313.909257 
L 578.310294 288.174122 
L 578.969089 283.883311 
L 579.627885 292.464932 
L 581.604272 305.327635 
L 582.263068 292.464932 
L 582.921864 309.618446 
L 583.58066 296.746014 
L 584.239455 309.618446 
L 584.898251 326.771959 
L 585.557047 356.797905 
L 586.215843 266.720068 
L 586.874638 313.909257 
L 587.533434 301.036824 
L 588.19223 309.618446 
L 588.851026 309.618446 
L 589.509821 318.200068 
L 590.168617 309.618446 
L 590.827413 309.618446 
L 591.486209 313.909257 
L 592.145004 335.353581 
L 592.8038 343.935203 
L 593.462596 339.644392 
L 594.121392 279.5925 
L 594.780187 326.771959 
L 595.438983 245.275743 
L 596.097779 326.771959 
L 596.756575 343.935203 
L 597.41537 343.935203 
L 598.074166 361.088716 
L 598.732962 343.935203 
L 599.391758 378.251959 
L 600.050553 343.935203 
L 600.709349 326.771959 
L 601.368145 373.961149 
L 602.026941 339.644392 
L 602.685736 356.797905 
L 603.344532 391.114662 
L 604.003328 348.226014 
L 604.662124 365.379527 
L 605.320919 348.226014 
L 606.638511 365.379527 
L 607.297307 348.226014 
L 607.956102 339.644392 
L 608.614898 395.405473 
L 609.273694 343.935203 
L 609.93249 326.771959 
L 610.591285 343.935203 
L 611.250081 339.644392 
L 611.908877 339.644392 
L 612.567673 361.088716 
L 613.226468 348.226014 
L 614.54406 331.06277 
L 615.202856 335.353581 
L 615.861651 335.353581 
L 616.520447 356.797905 
L 617.179243 335.353581 
L 617.838039 322.481149 
L 618.496834 335.353581 
L 619.814426 343.935203 
L 620.473222 335.353581 
L 621.132017 296.746014 
L 621.790813 335.353581 
L 622.449609 348.226014 
L 623.108405 313.909257 
L 623.7672 339.644392 
L 625.084792 348.226014 
L 625.743588 365.379527 
L 626.402383 356.797905 
L 627.061179 369.670338 
L 627.719975 391.114662 
L 628.378771 403.987095 
L 629.037566 373.961149 
L 629.696362 373.961149 
L 630.355158 378.251959 
L 631.013954 378.251959 
L 631.672749 361.088716 
L 632.331545 378.251959 
L 632.990341 369.670338 
L 633.649137 378.251959 
L 634.307932 373.961149 
L 634.966728 373.961149 
L 635.625524 361.088716 
L 636.28432 356.797905 
L 637.601911 356.797905 
L 638.260707 322.481149 
L 638.919503 348.226014 
L 639.578298 343.935203 
L 640.237094 335.353581 
L 640.89589 335.353581 
L 641.554686 305.327635 
L 642.213481 326.771959 
L 642.872277 313.909257 
L 643.531073 309.618446 
L 644.189869 301.036824 
L 644.848664 301.036824 
L 645.50746 309.618446 
L 646.166256 326.771959 
L 646.825052 318.200068 
L 647.483847 326.771959 
L 648.142643 322.481149 
L 648.801439 322.481149 
L 649.460235 331.06277 
L 650.11903 348.226014 
L 650.777826 335.353581 
L 651.436622 343.935203 
L 652.095418 356.797905 
L 652.754213 361.088716 
L 653.413009 339.644392 
L 654.071805 361.088716 
L 654.730601 356.797905 
L 655.389396 369.670338 
L 656.048192 434.013041 
L 656.706988 369.670338 
L 657.365784 421.140608 
L 658.024579 369.670338 
L 658.683375 382.533041 
L 659.342171 365.379527 
L 660.000967 395.405473 
L 660.659762 391.114662 
L 661.318558 391.114662 
L 661.977354 361.088716 
L 662.63615 412.558986 
L 663.294945 378.251959 
L 663.953741 391.114662 
L 664.612537 412.558986 
L 665.271333 395.405473 
L 665.930128 373.961149 
L 666.588924 395.405473 
L 667.24772 382.533041 
L 667.906516 348.226014 
L 668.565311 369.670338 
L 669.224107 386.823851 
L 669.882903 378.251959 
L 670.541699 395.405473 
L 671.85929 412.558986 
L 672.518086 416.849797 
L 673.176882 412.558986 
L 673.835677 472.610878 
L 674.494473 434.013041 
L 675.153269 425.431419 
L 675.812065 442.584932 
L 676.47086 434.013041 
L 677.129656 446.875743 
L 678.447248 446.875743 
L 679.106043 442.584932 
L 679.764839 442.584932 
L 680.423635 451.166554 
L 681.082431 481.1925 
L 681.741226 442.584932 
L 682.400022 451.166554 
L 683.058818 438.303851 
L 683.717614 421.140608 
L 684.376409 421.140608 
L 685.035205 455.457365 
L 685.694001 408.277905 
L 686.352797 429.72223 
L 687.011592 434.013041 
L 687.670388 412.558986 
L 688.329184 399.696284 
L 688.98798 391.114662 
L 689.646775 425.431419 
L 690.305571 399.696284 
L 690.964367 391.114662 
L 691.623163 399.696284 
L 692.281958 356.797905 
L 692.940754 399.696284 
L 693.59955 403.987095 
L 694.258346 391.114662 
L 694.917141 403.987095 
L 695.575937 361.088716 
L 696.234733 391.114662 
L 696.893529 378.251959 
L 697.552324 378.251959 
L 698.21112 373.961149 
L 698.869916 386.823851 
L 699.528712 305.327635 
L 700.187507 361.088716 
L 701.505099 361.088716 
L 702.163895 365.379527 
L 702.82269 361.088716 
L 703.481486 373.961149 
L 704.140282 378.251959 
L 704.799078 356.797905 
L 705.457873 348.226014 
L 706.116669 348.226014 
L 707.434261 339.644392 
L 708.093056 356.797905 
L 708.751852 339.644392 
L 709.410648 331.06277 
L 710.728239 339.644392 
L 711.387035 335.353581 
L 712.045831 343.935203 
L 712.704627 343.935203 
L 713.363422 356.797905 
L 714.022218 373.961149 
L 714.681014 339.644392 
L 715.33981 348.226014 
L 716.657401 348.226014 
L 717.316197 305.327635 
L 717.974993 322.481149 
L 718.633788 318.200068 
L 719.292584 322.481149 
L 719.95138 313.909257 
L 721.931061 322.481149 
L 722.586563 301.036824 
L 723.904154 318.200068 
L 724.56295 313.909257 
L 725.221746 296.746014 
L 725.880542 318.200068 
L 726.539337 309.618446 
L 727.198133 296.746014 
L 727.856929 296.746014 
L 728.515725 275.301689 
L 729.17452 262.429257 
L 729.833316 279.5925 
L 730.492112 275.301689 
L 731.150908 275.301689 
L 731.809703 271.010878 
L 732.468499 279.5925 
L 733.127295 275.301689 
L 733.786091 262.429257 
L 734.444886 253.857365 
L 734.444886 253.857365 
" clip-path="url(#p00de16b509)" style="fill: none; stroke: #ac2b37; stroke-width: 1.5; stroke-linecap: square"/>
   </g>
   <g id="patch_3">
    <path d="M 95.28125 501.3525 
L 95.28125 57.8325 
" style="fill: none; stroke: #000000; stroke-width: 0.8; stroke-linejoin: miter; stroke-linecap: square"/>
   </g>
   <g id="patch_4">
    <path d="M 764.88125 501.3525 
L 764.88125 57.8325 
" style="fill: none; stroke: #000000; stroke-width: 0.8; stroke-linejoin: miter; stroke-linecap: square"/>
   </g>
   <g id="patch_5">
    <path d="M 95.28125 501.3525 
L 764.88125 501.3525 
" style="fill: none; stroke: #000000; stroke-width: 0.8; stroke-linejoin: miter; stroke-linecap: square"/>
   </g>
   <g id="patch_6">
    <path d="M 95.28125 57.8325 
L 764.88125 57.8325 
" style="fill: none; stroke: #000000; stroke-width: 0.8; stroke-linejoin: miter; stroke-linecap: square"/>
   </g>
   <g id="text_16">
    <!-- Light vs Time -->
    <g transform="translate(367.59875 51.8325) scale(0.24 -0.24)">
     <defs>
      <path id="AptosDisplay-76" d="M 1103 0 
L -13 3044 
L 538 3044 
L 1391 513 
L 2250 3044 
L 2781 3044 
L 1678 0 
L 1103 0 
z
" transform="scale(0.015625)"/>
      <path id="AptosDisplay-73" d="M 1506 -41 
Q 1247 -41 1017 14 
Q 788 69 613 191 
Q 438 313 339 506 
Q 241 700 241 978 
L 744 978 
Q 744 628 966 487 
Q 1188 347 1519 347 
Q 1816 347 2008 458 
Q 2200 569 2200 822 
Q 2200 1047 2026 1153 
Q 1853 1259 1413 1369 
Q 1056 1453 815 1564 
Q 575 1675 453 1845 
Q 331 2016 331 2275 
Q 331 2475 417 2626 
Q 503 2778 658 2879 
Q 813 2981 1020 3032 
Q 1228 3084 1472 3084 
Q 1713 3084 1923 3028 
Q 2134 2972 2296 2855 
Q 2459 2738 2551 2552 
Q 2644 2366 2644 2109 
L 2138 2109 
Q 2138 2425 1945 2558 
Q 1753 2691 1472 2691 
Q 1191 2691 1016 2594 
Q 841 2497 841 2291 
Q 841 2169 919 2084 
Q 997 2000 1181 1933 
Q 1366 1866 1675 1791 
Q 2019 1709 2248 1596 
Q 2478 1484 2595 1306 
Q 2713 1128 2713 847 
Q 2713 616 2622 447 
Q 2531 278 2367 170 
Q 2203 63 1983 11 
Q 1763 -41 1506 -41 
z
" transform="scale(0.015625)"/>
     </defs>
     <use xlink:href="#AptosDisplay-4c"/>
     <use xlink:href="#AptosDisplay-69" x="48.4375"/>
     <use xlink:href="#AptosDisplay-67" x="69.482422"/>
     <use xlink:href="#AptosDisplay-68" x="113.427734"/>
     <use xlink:href="#AptosDisplay-74" x="164.013672"/>
     <use xlink:href="#AptosDisplay-20" x="194.384766"/>
     <use xlink:href="#AptosDisplay-76" x="213.671875"/>
     <use xlink:href="#AptosDisplay-73" x="256.933594"/>
     <use xlink:href="#AptosDisplay-20" x="303.222656"/>
     <use xlink:href="#AptosDisplay-54" x="322.509766"/>
     <use xlink:href="#AptosDisplay-69" x="370.214844"/>
     <use xlink:href="#AptosDisplay-6d" x="391.259766"/>
     <use xlink:href="#AptosDisplay-65" x="471.240234"/>
    </g>
   </g>
  </g>
 </g>
 <defs>
  <clipPath id="p00de16b509">
   <rect x="95.28125" y="57.8325" width="669.6" height="443.52"/>
  </clipPath>
 </defs>
</svg>
