<?xml version="1.0" encoding="utf-8" standalone="no"?>
<!DOCTYPE svg PUBLIC "-//W3C//DTD SVG 1.1//EN"
  "http://www.w3.org/Graphics/SVG/1.1/DTD/svg11.dtd">
<svg xmlns:xlink="http://www.w3.org/1999/xlink" width="811.340625pt" height="581.830625pt" viewBox="0 0 811.340625 581.830625" xmlns="http://www.w3.org/2000/svg" version="1.1">
 <metadata>
  <rdf:RDF xmlns:dc="http://purl.org/dc/elements/1.1/" xmlns:cc="http://creativecommons.org/ns#" xmlns:rdf="http://www.w3.org/1999/02/22-rdf-syntax-ns#">
   <cc:Work>
    <dc:type rdf:resource="http://purl.org/dc/dcmitype/StillImage"/>
    <dc:date>2025-03-23T22:45:11.161072</dc:date>
    <dc:format>image/svg+xml</dc:format>
    <dc:creator>
     <cc:Agent>
      <dc:title>Matplotlib v3.8.2, https://matplotlib.org/</dc:title>
     </cc:Agent>
    </dc:creator>
   </cc:Work>
  </rdf:RDF>
 </metadata>
 <defs>
  <style type="text/css">*{stroke-linejoin: round; stroke-linecap: butt}</style>
 </defs>
 <g id="figure_1">
  <g id="patch_1">
   <path d="M 0 581.830625 
L 811.340625 581.830625 
L 811.340625 0 
L 0 0 
z
" style="fill: #ffffff"/>
  </g>
  <g id="axes_1">
   <g id="patch_2">
    <path d="M 105.740625 501.3525 
L 775.340625 501.3525 
L 775.340625 57.8325 
L 105.740625 57.8325 
z
" style="fill: #ffffff"/>
   </g>
   <g id="matplotlib.axis_1">
    <g id="xtick_1">
     <g id="line2d_1">
      <path d="M 136.127776 501.3525 
L 136.127776 57.8325 
" clip-path="url(#p68b32bcd46)" style="fill: none; stroke: #b0b0b0; stroke-opacity: 0.8; stroke-linecap: square"/>
     </g>
     <g id="line2d_2">
      <defs>
       <path id="mbcabf916cf" d="M 0 0 
L 0 3.5 
" style="stroke: #000000; stroke-width: 0.8"/>
      </defs>
      <g>
       <use xlink:href="#mbcabf916cf" x="136.127776" y="501.3525" style="stroke: #000000; stroke-width: 0.8"/>
      </g>
     </g>
     <g id="text_1">
      <!-- 0 -->
      <g transform="translate(130.898088 521.49625) scale(0.2 -0.2)">
       <defs>
        <path id="AptosDisplay-30" d="M 1672 -56 
Q 1291 -56 1028 105 
Q 766 266 605 552 
Q 444 838 372 1216 
Q 300 1594 300 2031 
Q 300 2475 372 2856 
Q 444 3238 605 3525 
Q 766 3813 1028 3973 
Q 1291 4134 1672 4134 
Q 2053 4134 2317 3975 
Q 2581 3816 2742 3527 
Q 2903 3238 2975 2858 
Q 3047 2478 3047 2038 
Q 3047 1597 2975 1217 
Q 2903 838 2742 552 
Q 2581 266 2318 105 
Q 2056 -56 1672 -56 
z
M 1672 409 
Q 1916 409 2073 550 
Q 2231 691 2322 925 
Q 2413 1159 2448 1448 
Q 2484 1738 2484 2038 
Q 2484 2338 2448 2628 
Q 2413 2919 2322 3153 
Q 2231 3388 2073 3527 
Q 1916 3666 1669 3666 
Q 1428 3666 1268 3527 
Q 1109 3388 1020 3153 
Q 931 2919 893 2628 
Q 856 2338 856 2038 
Q 856 1741 893 1450 
Q 931 1159 1020 925 
Q 1109 691 1268 550 
Q 1428 409 1672 409 
z
" transform="scale(0.015625)"/>
       </defs>
       <use xlink:href="#AptosDisplay-30"/>
      </g>
     </g>
    </g>
    <g id="xtick_2">
     <g id="line2d_3">
      <path d="M 211.839652 501.3525 
L 211.839652 57.8325 
" clip-path="url(#p68b32bcd46)" style="fill: none; stroke: #b0b0b0; stroke-opacity: 0.8; stroke-linecap: square"/>
     </g>
     <g id="line2d_4">
      <g>
       <use xlink:href="#mbcabf916cf" x="211.839652" y="501.3525" style="stroke: #000000; stroke-width: 0.8"/>
      </g>
     </g>
     <g id="text_2">
      <!-- 20 -->
      <g transform="translate(201.380277 521.49625) scale(0.2 -0.2)">
       <defs>
        <path id="AptosDisplay-32" d="M 247 0 
L 247 413 
L 1725 1741 
Q 2100 2081 2269 2351 
Q 2438 2622 2438 2938 
Q 2438 3256 2263 3461 
Q 2088 3666 1691 3666 
Q 1247 3666 1055 3439 
Q 863 3213 863 2869 
L 341 2869 
Q 341 3250 491 3534 
Q 641 3819 941 3975 
Q 1241 4131 1691 4131 
Q 2103 4131 2390 3986 
Q 2678 3841 2828 3578 
Q 2978 3316 2978 2959 
Q 2978 2638 2853 2375 
Q 2728 2113 2517 1883 
Q 2306 1653 2044 1425 
L 959 463 
L 3097 463 
L 3097 0 
L 247 0 
z
" transform="scale(0.015625)"/>
       </defs>
       <use xlink:href="#AptosDisplay-32"/>
       <use xlink:href="#AptosDisplay-30" x="52.294922"/>
      </g>
     </g>
    </g>
    <g id="xtick_3">
     <g id="line2d_5">
      <path d="M 287.551529 501.3525 
L 287.551529 57.8325 
" clip-path="url(#p68b32bcd46)" style="fill: none; stroke: #b0b0b0; stroke-opacity: 0.8; stroke-linecap: square"/>
     </g>
     <g id="line2d_6">
      <g>
       <use xlink:href="#mbcabf916cf" x="287.551529" y="501.3525" style="stroke: #000000; stroke-width: 0.8"/>
      </g>
     </g>
     <g id="text_3">
      <!-- 40 -->
      <g transform="translate(277.092154 521.49625) scale(0.2 -0.2)">
       <defs>
        <path id="AptosDisplay-34" d="M 2106 0 
L 2106 825 
L 125 825 
L 125 1297 
L 2100 4103 
L 2631 4103 
L 2631 1284 
L 3191 1284 
L 3191 825 
L 2631 825 
L 2631 0 
L 2106 0 
z
M 638 1284 
L 2113 1284 
L 2113 3369 
L 638 1284 
z
" transform="scale(0.015625)"/>
       </defs>
       <use xlink:href="#AptosDisplay-34"/>
       <use xlink:href="#AptosDisplay-30" x="52.294922"/>
      </g>
     </g>
    </g>
    <g id="xtick_4">
     <g id="line2d_7">
      <path d="M 363.263405 501.3525 
L 363.263405 57.8325 
" clip-path="url(#p68b32bcd46)" style="fill: none; stroke: #b0b0b0; stroke-opacity: 0.8; stroke-linecap: square"/>
     </g>
     <g id="line2d_8">
      <g>
       <use xlink:href="#mbcabf916cf" x="363.263405" y="501.3525" style="stroke: #000000; stroke-width: 0.8"/>
      </g>
     </g>
     <g id="text_4">
      <!-- 60 -->
      <g transform="translate(352.80403 521.49625) scale(0.2 -0.2)">
       <defs>
        <path id="AptosDisplay-36" d="M 1759 -56 
Q 1325 -56 984 151 
Q 644 359 447 815 
Q 250 1272 250 2013 
Q 250 2738 439 3206 
Q 628 3675 968 3903 
Q 1309 4131 1759 4131 
Q 2253 4131 2595 3875 
Q 2938 3619 3034 3097 
L 2503 3097 
Q 2441 3388 2250 3534 
Q 2059 3681 1759 3681 
Q 1306 3681 1047 3279 
Q 788 2878 788 2013 
L 788 1850 
Q 788 1313 922 992 
Q 1056 672 1279 531 
Q 1503 391 1763 391 
Q 2175 391 2369 644 
Q 2563 897 2563 1272 
Q 2563 1650 2373 1869 
Q 2184 2088 1838 2088 
Q 1422 2088 1114 1897 
Q 806 1706 644 1456 
L 597 1856 
Q 728 2047 922 2201 
Q 1116 2356 1362 2447 
Q 1609 2538 1909 2538 
Q 2253 2538 2523 2395 
Q 2794 2253 2951 1975 
Q 3109 1697 3109 1291 
Q 3109 897 2951 592 
Q 2794 288 2492 116 
Q 2191 -56 1759 -56 
z
" transform="scale(0.015625)"/>
       </defs>
       <use xlink:href="#AptosDisplay-36"/>
       <use xlink:href="#AptosDisplay-30" x="52.294922"/>
      </g>
     </g>
    </g>
    <g id="xtick_5">
     <g id="line2d_9">
      <path d="M 438.975282 501.3525 
L 438.975282 57.8325 
" clip-path="url(#p68b32bcd46)" style="fill: none; stroke: #b0b0b0; stroke-opacity: 0.8; stroke-linecap: square"/>
     </g>
     <g id="line2d_10">
      <g>
       <use xlink:href="#mbcabf916cf" x="438.975282" y="501.3525" style="stroke: #000000; stroke-width: 0.8"/>
      </g>
     </g>
     <g id="text_5">
      <!-- 80 -->
      <g transform="translate(428.515907 521.49625) scale(0.2 -0.2)">
       <defs>
        <path id="AptosDisplay-38" d="M 1675 -56 
Q 1391 -56 1137 16 
Q 884 88 686 234 
Q 488 381 373 606 
Q 259 831 259 1141 
Q 259 1531 495 1797 
Q 731 2063 1084 2150 
Q 781 2250 604 2490 
Q 428 2731 428 3081 
Q 428 3447 609 3681 
Q 791 3916 1075 4025 
Q 1359 4134 1669 4134 
Q 1981 4134 2265 4023 
Q 2550 3913 2733 3680 
Q 2916 3447 2916 3081 
Q 2916 2725 2716 2481 
Q 2516 2238 2238 2150 
Q 2606 2063 2843 1800 
Q 3081 1538 3081 1141 
Q 3081 831 2968 606 
Q 2856 381 2661 234 
Q 2466 88 2211 16 
Q 1956 -56 1675 -56 
z
M 1672 388 
Q 1909 388 2109 470 
Q 2309 553 2429 725 
Q 2550 897 2550 1163 
Q 2550 1416 2426 1587 
Q 2303 1759 2104 1846 
Q 1906 1934 1672 1928 
Q 1453 1934 1253 1850 
Q 1053 1766 926 1594 
Q 800 1422 800 1163 
Q 800 775 1058 581 
Q 1316 388 1672 388 
z
M 1672 2363 
Q 1863 2356 2030 2434 
Q 2197 2513 2300 2667 
Q 2403 2822 2403 3050 
Q 2403 3388 2189 3544 
Q 1975 3700 1675 3700 
Q 1484 3700 1317 3631 
Q 1150 3563 1047 3419 
Q 944 3275 944 3050 
Q 944 2825 1048 2670 
Q 1153 2516 1320 2436 
Q 1488 2356 1672 2363 
z
" transform="scale(0.015625)"/>
       </defs>
       <use xlink:href="#AptosDisplay-38"/>
       <use xlink:href="#AptosDisplay-30" x="52.294922"/>
      </g>
     </g>
    </g>
    <g id="xtick_6">
     <g id="line2d_11">
      <path d="M 514.687158 501.3525 
L 514.687158 57.8325 
" clip-path="url(#p68b32bcd46)" style="fill: none; stroke: #b0b0b0; stroke-opacity: 0.8; stroke-linecap: square"/>
     </g>
     <g id="line2d_12">
      <g>
       <use xlink:href="#mbcabf916cf" x="514.687158" y="501.3525" style="stroke: #000000; stroke-width: 0.8"/>
      </g>
     </g>
     <g id="text_6">
      <!-- 100 -->
      <g transform="translate(498.998096 521.49625) scale(0.2 -0.2)">
       <defs>
        <path id="AptosDisplay-31" d="M 1659 0 
L 1659 3425 
Q 1575 3309 1420 3201 
Q 1266 3094 1052 3009 
Q 838 2925 578 2888 
L 578 3381 
Q 834 3425 1057 3540 
Q 1281 3656 1453 3806 
Q 1625 3956 1719 4094 
L 2206 4094 
L 2206 0 
L 1659 0 
z
" transform="scale(0.015625)"/>
       </defs>
       <use xlink:href="#AptosDisplay-31"/>
       <use xlink:href="#AptosDisplay-30" x="52.294922"/>
       <use xlink:href="#AptosDisplay-30" x="104.589844"/>
      </g>
     </g>
    </g>
    <g id="xtick_7">
     <g id="line2d_13">
      <path d="M 590.399035 501.3525 
L 590.399035 57.8325 
" clip-path="url(#p68b32bcd46)" style="fill: none; stroke: #b0b0b0; stroke-opacity: 0.8; stroke-linecap: square"/>
     </g>
     <g id="line2d_14">
      <g>
       <use xlink:href="#mbcabf916cf" x="590.399035" y="501.3525" style="stroke: #000000; stroke-width: 0.8"/>
      </g>
     </g>
     <g id="text_7">
      <!-- 120 -->
      <g transform="translate(574.709972 521.49625) scale(0.2 -0.2)">
       <use xlink:href="#AptosDisplay-31"/>
       <use xlink:href="#AptosDisplay-32" x="52.294922"/>
       <use xlink:href="#AptosDisplay-30" x="104.589844"/>
      </g>
     </g>
    </g>
    <g id="xtick_8">
     <g id="line2d_15">
      <path d="M 666.110911 501.3525 
L 666.110911 57.8325 
" clip-path="url(#p68b32bcd46)" style="fill: none; stroke: #b0b0b0; stroke-opacity: 0.8; stroke-linecap: square"/>
     </g>
     <g id="line2d_16">
      <g>
       <use xlink:href="#mbcabf916cf" x="666.110911" y="501.3525" style="stroke: #000000; stroke-width: 0.8"/>
      </g>
     </g>
     <g id="text_8">
      <!-- 140 -->
      <g transform="translate(650.421849 521.49625) scale(0.2 -0.2)">
       <use xlink:href="#AptosDisplay-31"/>
       <use xlink:href="#AptosDisplay-34" x="52.294922"/>
       <use xlink:href="#AptosDisplay-30" x="104.589844"/>
      </g>
     </g>
    </g>
    <g id="xtick_9">
     <g id="line2d_17">
      <path d="M 741.822788 501.3525 
L 741.822788 57.8325 
" clip-path="url(#p68b32bcd46)" style="fill: none; stroke: #b0b0b0; stroke-opacity: 0.8; stroke-linecap: square"/>
     </g>
     <g id="line2d_18">
      <g>
       <use xlink:href="#mbcabf916cf" x="741.822788" y="501.3525" style="stroke: #000000; stroke-width: 0.8"/>
      </g>
     </g>
     <g id="text_9">
      <!-- 160 -->
      <g transform="translate(726.133725 521.49625) scale(0.2 -0.2)">
       <use xlink:href="#AptosDisplay-31"/>
       <use xlink:href="#AptosDisplay-36" x="52.294922"/>
       <use xlink:href="#AptosDisplay-30" x="104.589844"/>
      </g>
     </g>
    </g>
    <g id="xtick_10">
     <g id="line2d_19">
      <path d="M 117.199807 501.3525 
L 117.199807 57.8325 
" clip-path="url(#p68b32bcd46)" style="fill: none; stroke-dasharray: 1.85,0.8; stroke-dashoffset: 0; stroke: #b0b0b0; stroke-opacity: 0.8; stroke-width: 0.5"/>
     </g>
     <g id="line2d_20">
      <defs>
       <path id="m8847a6a82a" d="M 0 0 
L 0 2 
" style="stroke: #000000; stroke-width: 0.6"/>
      </defs>
      <g>
       <use xlink:href="#m8847a6a82a" x="117.199807" y="501.3525" style="stroke: #000000; stroke-width: 0.6"/>
      </g>
     </g>
    </g>
    <g id="xtick_11">
     <g id="line2d_21">
      <path d="M 155.055745 501.3525 
L 155.055745 57.8325 
" clip-path="url(#p68b32bcd46)" style="fill: none; stroke-dasharray: 1.85,0.8; stroke-dashoffset: 0; stroke: #b0b0b0; stroke-opacity: 0.8; stroke-width: 0.5"/>
     </g>
     <g id="line2d_22">
      <g>
       <use xlink:href="#m8847a6a82a" x="155.055745" y="501.3525" style="stroke: #000000; stroke-width: 0.6"/>
      </g>
     </g>
    </g>
    <g id="xtick_12">
     <g id="line2d_23">
      <path d="M 173.983714 501.3525 
L 173.983714 57.8325 
" clip-path="url(#p68b32bcd46)" style="fill: none; stroke-dasharray: 1.85,0.8; stroke-dashoffset: 0; stroke: #b0b0b0; stroke-opacity: 0.8; stroke-width: 0.5"/>
     </g>
     <g id="line2d_24">
      <g>
       <use xlink:href="#m8847a6a82a" x="173.983714" y="501.3525" style="stroke: #000000; stroke-width: 0.6"/>
      </g>
     </g>
    </g>
    <g id="xtick_13">
     <g id="line2d_25">
      <path d="M 192.911683 501.3525 
L 192.911683 57.8325 
" clip-path="url(#p68b32bcd46)" style="fill: none; stroke-dasharray: 1.85,0.8; stroke-dashoffset: 0; stroke: #b0b0b0; stroke-opacity: 0.8; stroke-width: 0.5"/>
     </g>
     <g id="line2d_26">
      <g>
       <use xlink:href="#m8847a6a82a" x="192.911683" y="501.3525" style="stroke: #000000; stroke-width: 0.6"/>
      </g>
     </g>
    </g>
    <g id="xtick_14">
     <g id="line2d_27">
      <path d="M 230.767622 501.3525 
L 230.767622 57.8325 
" clip-path="url(#p68b32bcd46)" style="fill: none; stroke-dasharray: 1.85,0.8; stroke-dashoffset: 0; stroke: #b0b0b0; stroke-opacity: 0.8; stroke-width: 0.5"/>
     </g>
     <g id="line2d_28">
      <g>
       <use xlink:href="#m8847a6a82a" x="230.767622" y="501.3525" style="stroke: #000000; stroke-width: 0.6"/>
      </g>
     </g>
    </g>
    <g id="xtick_15">
     <g id="line2d_29">
      <path d="M 249.695591 501.3525 
L 249.695591 57.8325 
" clip-path="url(#p68b32bcd46)" style="fill: none; stroke-dasharray: 1.85,0.8; stroke-dashoffset: 0; stroke: #b0b0b0; stroke-opacity: 0.8; stroke-width: 0.5"/>
     </g>
     <g id="line2d_30">
      <g>
       <use xlink:href="#m8847a6a82a" x="249.695591" y="501.3525" style="stroke: #000000; stroke-width: 0.6"/>
      </g>
     </g>
    </g>
    <g id="xtick_16">
     <g id="line2d_31">
      <path d="M 268.62356 501.3525 
L 268.62356 57.8325 
" clip-path="url(#p68b32bcd46)" style="fill: none; stroke-dasharray: 1.85,0.8; stroke-dashoffset: 0; stroke: #b0b0b0; stroke-opacity: 0.8; stroke-width: 0.5"/>
     </g>
     <g id="line2d_32">
      <g>
       <use xlink:href="#m8847a6a82a" x="268.62356" y="501.3525" style="stroke: #000000; stroke-width: 0.6"/>
      </g>
     </g>
    </g>
    <g id="xtick_17">
     <g id="line2d_33">
      <path d="M 306.479498 501.3525 
L 306.479498 57.8325 
" clip-path="url(#p68b32bcd46)" style="fill: none; stroke-dasharray: 1.85,0.8; stroke-dashoffset: 0; stroke: #b0b0b0; stroke-opacity: 0.8; stroke-width: 0.5"/>
     </g>
     <g id="line2d_34">
      <g>
       <use xlink:href="#m8847a6a82a" x="306.479498" y="501.3525" style="stroke: #000000; stroke-width: 0.6"/>
      </g>
     </g>
    </g>
    <g id="xtick_18">
     <g id="line2d_35">
      <path d="M 325.407467 501.3525 
L 325.407467 57.8325 
" clip-path="url(#p68b32bcd46)" style="fill: none; stroke-dasharray: 1.85,0.8; stroke-dashoffset: 0; stroke: #b0b0b0; stroke-opacity: 0.8; stroke-width: 0.5"/>
     </g>
     <g id="line2d_36">
      <g>
       <use xlink:href="#m8847a6a82a" x="325.407467" y="501.3525" style="stroke: #000000; stroke-width: 0.6"/>
      </g>
     </g>
    </g>
    <g id="xtick_19">
     <g id="line2d_37">
      <path d="M 344.335436 501.3525 
L 344.335436 57.8325 
" clip-path="url(#p68b32bcd46)" style="fill: none; stroke-dasharray: 1.85,0.8; stroke-dashoffset: 0; stroke: #b0b0b0; stroke-opacity: 0.8; stroke-width: 0.5"/>
     </g>
     <g id="line2d_38">
      <g>
       <use xlink:href="#m8847a6a82a" x="344.335436" y="501.3525" style="stroke: #000000; stroke-width: 0.6"/>
      </g>
     </g>
    </g>
    <g id="xtick_20">
     <g id="line2d_39">
      <path d="M 382.191375 501.3525 
L 382.191375 57.8325 
" clip-path="url(#p68b32bcd46)" style="fill: none; stroke-dasharray: 1.85,0.8; stroke-dashoffset: 0; stroke: #b0b0b0; stroke-opacity: 0.8; stroke-width: 0.5"/>
     </g>
     <g id="line2d_40">
      <g>
       <use xlink:href="#m8847a6a82a" x="382.191375" y="501.3525" style="stroke: #000000; stroke-width: 0.6"/>
      </g>
     </g>
    </g>
    <g id="xtick_21">
     <g id="line2d_41">
      <path d="M 401.119344 501.3525 
L 401.119344 57.8325 
" clip-path="url(#p68b32bcd46)" style="fill: none; stroke-dasharray: 1.85,0.8; stroke-dashoffset: 0; stroke: #b0b0b0; stroke-opacity: 0.8; stroke-width: 0.5"/>
     </g>
     <g id="line2d_42">
      <g>
       <use xlink:href="#m8847a6a82a" x="401.119344" y="501.3525" style="stroke: #000000; stroke-width: 0.6"/>
      </g>
     </g>
    </g>
    <g id="xtick_22">
     <g id="line2d_43">
      <path d="M 420.047313 501.3525 
L 420.047313 57.8325 
" clip-path="url(#p68b32bcd46)" style="fill: none; stroke-dasharray: 1.85,0.8; stroke-dashoffset: 0; stroke: #b0b0b0; stroke-opacity: 0.8; stroke-width: 0.5"/>
     </g>
     <g id="line2d_44">
      <g>
       <use xlink:href="#m8847a6a82a" x="420.047313" y="501.3525" style="stroke: #000000; stroke-width: 0.6"/>
      </g>
     </g>
    </g>
    <g id="xtick_23">
     <g id="line2d_45">
      <path d="M 457.903251 501.3525 
L 457.903251 57.8325 
" clip-path="url(#p68b32bcd46)" style="fill: none; stroke-dasharray: 1.85,0.8; stroke-dashoffset: 0; stroke: #b0b0b0; stroke-opacity: 0.8; stroke-width: 0.5"/>
     </g>
     <g id="line2d_46">
      <g>
       <use xlink:href="#m8847a6a82a" x="457.903251" y="501.3525" style="stroke: #000000; stroke-width: 0.6"/>
      </g>
     </g>
    </g>
    <g id="xtick_24">
     <g id="line2d_47">
      <path d="M 476.83122 501.3525 
L 476.83122 57.8325 
" clip-path="url(#p68b32bcd46)" style="fill: none; stroke-dasharray: 1.85,0.8; stroke-dashoffset: 0; stroke: #b0b0b0; stroke-opacity: 0.8; stroke-width: 0.5"/>
     </g>
     <g id="line2d_48">
      <g>
       <use xlink:href="#m8847a6a82a" x="476.83122" y="501.3525" style="stroke: #000000; stroke-width: 0.6"/>
      </g>
     </g>
    </g>
    <g id="xtick_25">
     <g id="line2d_49">
      <path d="M 495.759189 501.3525 
L 495.759189 57.8325 
" clip-path="url(#p68b32bcd46)" style="fill: none; stroke-dasharray: 1.85,0.8; stroke-dashoffset: 0; stroke: #b0b0b0; stroke-opacity: 0.8; stroke-width: 0.5"/>
     </g>
     <g id="line2d_50">
      <g>
       <use xlink:href="#m8847a6a82a" x="495.759189" y="501.3525" style="stroke: #000000; stroke-width: 0.6"/>
      </g>
     </g>
    </g>
    <g id="xtick_26">
     <g id="line2d_51">
      <path d="M 533.615128 501.3525 
L 533.615128 57.8325 
" clip-path="url(#p68b32bcd46)" style="fill: none; stroke-dasharray: 1.85,0.8; stroke-dashoffset: 0; stroke: #b0b0b0; stroke-opacity: 0.8; stroke-width: 0.5"/>
     </g>
     <g id="line2d_52">
      <g>
       <use xlink:href="#m8847a6a82a" x="533.615128" y="501.3525" style="stroke: #000000; stroke-width: 0.6"/>
      </g>
     </g>
    </g>
    <g id="xtick_27">
     <g id="line2d_53">
      <path d="M 552.543097 501.3525 
L 552.543097 57.8325 
" clip-path="url(#p68b32bcd46)" style="fill: none; stroke-dasharray: 1.85,0.8; stroke-dashoffset: 0; stroke: #b0b0b0; stroke-opacity: 0.8; stroke-width: 0.5"/>
     </g>
     <g id="line2d_54">
      <g>
       <use xlink:href="#m8847a6a82a" x="552.543097" y="501.3525" style="stroke: #000000; stroke-width: 0.6"/>
      </g>
     </g>
    </g>
    <g id="xtick_28">
     <g id="line2d_55">
      <path d="M 571.471066 501.3525 
L 571.471066 57.8325 
" clip-path="url(#p68b32bcd46)" style="fill: none; stroke-dasharray: 1.85,0.8; stroke-dashoffset: 0; stroke: #b0b0b0; stroke-opacity: 0.8; stroke-width: 0.5"/>
     </g>
     <g id="line2d_56">
      <g>
       <use xlink:href="#m8847a6a82a" x="571.471066" y="501.3525" style="stroke: #000000; stroke-width: 0.6"/>
      </g>
     </g>
    </g>
    <g id="xtick_29">
     <g id="line2d_57">
      <path d="M 609.327004 501.3525 
L 609.327004 57.8325 
" clip-path="url(#p68b32bcd46)" style="fill: none; stroke-dasharray: 1.85,0.8; stroke-dashoffset: 0; stroke: #b0b0b0; stroke-opacity: 0.8; stroke-width: 0.5"/>
     </g>
     <g id="line2d_58">
      <g>
       <use xlink:href="#m8847a6a82a" x="609.327004" y="501.3525" style="stroke: #000000; stroke-width: 0.6"/>
      </g>
     </g>
    </g>
    <g id="xtick_30">
     <g id="line2d_59">
      <path d="M 628.254973 501.3525 
L 628.254973 57.8325 
" clip-path="url(#p68b32bcd46)" style="fill: none; stroke-dasharray: 1.85,0.8; stroke-dashoffset: 0; stroke: #b0b0b0; stroke-opacity: 0.8; stroke-width: 0.5"/>
     </g>
     <g id="line2d_60">
      <g>
       <use xlink:href="#m8847a6a82a" x="628.254973" y="501.3525" style="stroke: #000000; stroke-width: 0.6"/>
      </g>
     </g>
    </g>
    <g id="xtick_31">
     <g id="line2d_61">
      <path d="M 647.182942 501.3525 
L 647.182942 57.8325 
" clip-path="url(#p68b32bcd46)" style="fill: none; stroke-dasharray: 1.85,0.8; stroke-dashoffset: 0; stroke: #b0b0b0; stroke-opacity: 0.8; stroke-width: 0.5"/>
     </g>
     <g id="line2d_62">
      <g>
       <use xlink:href="#m8847a6a82a" x="647.182942" y="501.3525" style="stroke: #000000; stroke-width: 0.6"/>
      </g>
     </g>
    </g>
    <g id="xtick_32">
     <g id="line2d_63">
      <path d="M 685.038881 501.3525 
L 685.038881 57.8325 
" clip-path="url(#p68b32bcd46)" style="fill: none; stroke-dasharray: 1.85,0.8; stroke-dashoffset: 0; stroke: #b0b0b0; stroke-opacity: 0.8; stroke-width: 0.5"/>
     </g>
     <g id="line2d_64">
      <g>
       <use xlink:href="#m8847a6a82a" x="685.038881" y="501.3525" style="stroke: #000000; stroke-width: 0.6"/>
      </g>
     </g>
    </g>
    <g id="xtick_33">
     <g id="line2d_65">
      <path d="M 703.96685 501.3525 
L 703.96685 57.8325 
" clip-path="url(#p68b32bcd46)" style="fill: none; stroke-dasharray: 1.85,0.8; stroke-dashoffset: 0; stroke: #b0b0b0; stroke-opacity: 0.8; stroke-width: 0.5"/>
     </g>
     <g id="line2d_66">
      <g>
       <use xlink:href="#m8847a6a82a" x="703.96685" y="501.3525" style="stroke: #000000; stroke-width: 0.6"/>
      </g>
     </g>
    </g>
    <g id="xtick_34">
     <g id="line2d_67">
      <path d="M 722.894819 501.3525 
L 722.894819 57.8325 
" clip-path="url(#p68b32bcd46)" style="fill: none; stroke-dasharray: 1.85,0.8; stroke-dashoffset: 0; stroke: #b0b0b0; stroke-opacity: 0.8; stroke-width: 0.5"/>
     </g>
     <g id="line2d_68">
      <g>
       <use xlink:href="#m8847a6a82a" x="722.894819" y="501.3525" style="stroke: #000000; stroke-width: 0.6"/>
      </g>
     </g>
    </g>
    <g id="xtick_35">
     <g id="line2d_69">
      <path d="M 760.750757 501.3525 
L 760.750757 57.8325 
" clip-path="url(#p68b32bcd46)" style="fill: none; stroke-dasharray: 1.85,0.8; stroke-dashoffset: 0; stroke: #b0b0b0; stroke-opacity: 0.8; stroke-width: 0.5"/>
     </g>
     <g id="line2d_70">
      <g>
       <use xlink:href="#m8847a6a82a" x="760.750757" y="501.3525" style="stroke: #000000; stroke-width: 0.6"/>
      </g>
     </g>
    </g>
    <g id="text_10">
     <!-- Time (S) -->
     <g transform="translate(407.45 542.305625) scale(0.2 -0.2)">
      <defs>
       <path id="AptosDisplay-54" d="M 1244 0 
L 1244 3734 
L 50 3734 
L 50 4206 
L 2997 4206 
L 2997 3734 
L 1806 3734 
L 1806 0 
L 1244 0 
z
" transform="scale(0.015625)"/>
       <path id="AptosDisplay-69" d="M 413 0 
L 413 3044 
L 934 3044 
L 934 0 
L 413 0 
z
M 675 3616 
Q 525 3616 437 3702 
Q 350 3788 350 3919 
Q 350 4050 437 4136 
Q 525 4222 675 4222 
Q 822 4222 912 4136 
Q 1003 4050 1003 3919 
Q 1003 3788 912 3702 
Q 822 3616 675 3616 
z
" transform="scale(0.015625)"/>
       <path id="AptosDisplay-6d" d="M 413 0 
L 413 3044 
L 919 3044 
L 931 2575 
Q 1063 2756 1303 2914 
Q 1544 3072 1903 3072 
Q 2403 3072 2618 2778 
Q 2834 2484 2834 1963 
L 2834 0 
L 2316 0 
L 2316 1891 
Q 2316 2106 2275 2275 
Q 2234 2444 2120 2539 
Q 2006 2634 1788 2634 
Q 1488 2634 1277 2482 
Q 1066 2331 934 2156 
L 934 0 
L 413 0 
z
M 4206 0 
L 4206 1891 
Q 4206 2106 4164 2275 
Q 4122 2444 4009 2539 
Q 3897 2634 3681 2634 
Q 3381 2634 3165 2484 
Q 2950 2334 2822 2159 
L 2744 2544 
Q 2916 2741 3175 2906 
Q 3434 3072 3800 3072 
Q 4291 3072 4509 2778 
Q 4728 2484 4728 1963 
L 4728 0 
L 4206 0 
z
" transform="scale(0.015625)"/>
       <path id="AptosDisplay-65" d="M 1663 -56 
Q 1188 -56 878 151 
Q 569 359 417 717 
Q 266 1075 266 1522 
Q 266 1988 412 2342 
Q 559 2697 857 2897 
Q 1156 3097 1606 3097 
Q 2209 3097 2550 2722 
Q 2891 2347 2891 1644 
Q 2891 1597 2889 1533 
Q 2888 1469 2881 1441 
L 791 1441 
Q 794 1144 881 895 
Q 969 647 1161 497 
Q 1353 347 1663 347 
Q 1997 347 2183 511 
Q 2369 675 2378 984 
L 2894 984 
Q 2884 663 2732 430 
Q 2581 197 2309 70 
Q 2038 -56 1663 -56 
z
M 794 1822 
L 2375 1822 
Q 2366 2247 2166 2472 
Q 1966 2697 1606 2697 
Q 1241 2697 1036 2473 
Q 831 2250 794 1822 
z
" transform="scale(0.015625)"/>
       <path id="AptosDisplay-20" transform="scale(0.015625)"/>
       <path id="AptosDisplay-28" d="M 1219 -1116 
Q 969 -678 787 -267 
Q 606 144 511 581 
Q 416 1019 416 1528 
Q 416 2028 509 2486 
Q 603 2944 783 3378 
Q 963 3813 1219 4231 
L 1647 4231 
Q 1278 3600 1101 2886 
Q 925 2172 925 1428 
Q 925 766 1125 103 
Q 1325 -559 1647 -1116 
L 1219 -1116 
z
" transform="scale(0.015625)"/>
       <path id="AptosDisplay-53" d="M 1778 -56 
Q 1328 -56 962 81 
Q 597 219 384 512 
Q 172 806 172 1275 
L 734 1275 
Q 738 941 883 750 
Q 1028 559 1267 481 
Q 1506 403 1794 403 
Q 2063 403 2283 483 
Q 2503 563 2634 723 
Q 2766 884 2766 1134 
Q 2766 1356 2662 1497 
Q 2559 1638 2321 1742 
Q 2084 1847 1678 1950 
Q 1203 2075 897 2223 
Q 591 2372 442 2594 
Q 294 2816 294 3156 
Q 294 3516 462 3761 
Q 631 4006 945 4134 
Q 1259 4263 1697 4263 
Q 2103 4263 2440 4131 
Q 2778 4000 2979 3737 
Q 3181 3475 3181 3084 
L 2616 3084 
Q 2622 3441 2356 3623 
Q 2091 3806 1700 3806 
Q 1300 3806 1073 3645 
Q 847 3484 847 3175 
Q 847 2991 944 2867 
Q 1041 2744 1280 2644 
Q 1519 2544 1941 2434 
Q 2428 2303 2731 2153 
Q 3034 2003 3178 1768 
Q 3322 1534 3322 1153 
Q 3322 747 3117 480 
Q 2913 213 2564 78 
Q 2216 -56 1778 -56 
z
" transform="scale(0.015625)"/>
       <path id="AptosDisplay-29" d="M 234 -1116 
Q 609 -481 786 233 
Q 963 947 963 1694 
Q 963 2356 759 3015 
Q 556 3675 234 4231 
L 663 4231 
Q 919 3800 1098 3389 
Q 1278 2978 1373 2540 
Q 1469 2103 1469 1594 
Q 1469 1094 1375 634 
Q 1281 175 1100 -259 
Q 919 -694 663 -1116 
L 234 -1116 
z
" transform="scale(0.015625)"/>
      </defs>
      <use xlink:href="#AptosDisplay-54"/>
      <use xlink:href="#AptosDisplay-69" x="47.705078"/>
      <use xlink:href="#AptosDisplay-6d" x="68.75"/>
      <use xlink:href="#AptosDisplay-65" x="148.730469"/>
      <use xlink:href="#AptosDisplay-20" x="198.144531"/>
      <use xlink:href="#AptosDisplay-28" x="217.431641"/>
      <use xlink:href="#AptosDisplay-53" x="246.875"/>
      <use xlink:href="#AptosDisplay-29" x="301.464844"/>
     </g>
    </g>
   </g>
   <g id="matplotlib.axis_2">
    <g id="ytick_1">
     <g id="line2d_71">
      <path d="M 105.740625 497.118957 
L 775.340625 497.118957 
" clip-path="url(#p68b32bcd46)" style="fill: none; stroke: #b0b0b0; stroke-opacity: 0.8; stroke-linecap: square"/>
     </g>
     <g id="line2d_72">
      <defs>
       <path id="m0ea4fef564" d="M 0 0 
L -3.5 0 
" style="stroke: #000000; stroke-width: 0.8"/>
      </defs>
      <g>
       <use xlink:href="#m0ea4fef564" x="105.740625" y="497.118957" style="stroke: #000000; stroke-width: 0.8"/>
      </g>
     </g>
     <g id="text_11">
      <!-- 940 -->
      <g transform="translate(67.3625 503.690832) scale(0.2 -0.2)">
       <defs>
        <path id="AptosDisplay-39" d="M 1547 -56 
Q 1200 -56 926 64 
Q 653 184 481 415 
Q 309 647 256 978 
L 788 978 
Q 834 713 1029 552 
Q 1225 391 1547 391 
Q 2022 391 2294 778 
Q 2566 1166 2566 2019 
L 2566 2197 
Q 2566 2753 2439 3079 
Q 2313 3406 2102 3547 
Q 1891 3688 1634 3688 
Q 1206 3688 998 3433 
Q 791 3178 791 2800 
Q 791 2422 991 2203 
Q 1191 1984 1547 1984 
Q 1831 1984 2045 2071 
Q 2259 2159 2417 2300 
Q 2575 2441 2681 2594 
L 2731 2209 
Q 2609 2038 2432 1884 
Q 2256 1731 2020 1634 
Q 1784 1538 1484 1538 
Q 1122 1538 842 1683 
Q 563 1828 405 2108 
Q 247 2388 247 2784 
Q 247 3175 414 3479 
Q 581 3784 892 3959 
Q 1203 4134 1631 4134 
Q 2056 4134 2389 3926 
Q 2722 3719 2914 3262 
Q 3106 2806 3106 2066 
Q 3106 1338 2912 869 
Q 2719 400 2369 172 
Q 2019 -56 1547 -56 
z
" transform="scale(0.015625)"/>
       </defs>
       <use xlink:href="#AptosDisplay-39"/>
       <use xlink:href="#AptosDisplay-34" x="52.294922"/>
       <use xlink:href="#AptosDisplay-30" x="104.589844"/>
      </g>
     </g>
    </g>
    <g id="ytick_2">
     <g id="line2d_73">
      <path d="M 105.740625 430.116614 
L 775.340625 430.116614 
" clip-path="url(#p68b32bcd46)" style="fill: none; stroke: #b0b0b0; stroke-opacity: 0.8; stroke-linecap: square"/>
     </g>
     <g id="line2d_74">
      <g>
       <use xlink:href="#m0ea4fef564" x="105.740625" y="430.116614" style="stroke: #000000; stroke-width: 0.8"/>
      </g>
     </g>
     <g id="text_12">
      <!-- 960 -->
      <g transform="translate(67.3625 436.688489) scale(0.2 -0.2)">
       <use xlink:href="#AptosDisplay-39"/>
       <use xlink:href="#AptosDisplay-36" x="52.294922"/>
       <use xlink:href="#AptosDisplay-30" x="104.589844"/>
      </g>
     </g>
    </g>
    <g id="ytick_3">
     <g id="line2d_75">
      <path d="M 105.740625 363.114271 
L 775.340625 363.114271 
" clip-path="url(#p68b32bcd46)" style="fill: none; stroke: #b0b0b0; stroke-opacity: 0.8; stroke-linecap: square"/>
     </g>
     <g id="line2d_76">
      <g>
       <use xlink:href="#m0ea4fef564" x="105.740625" y="363.114271" style="stroke: #000000; stroke-width: 0.8"/>
      </g>
     </g>
     <g id="text_13">
      <!-- 980 -->
      <g transform="translate(67.3625 369.686146) scale(0.2 -0.2)">
       <use xlink:href="#AptosDisplay-39"/>
       <use xlink:href="#AptosDisplay-38" x="52.294922"/>
       <use xlink:href="#AptosDisplay-30" x="104.589844"/>
      </g>
     </g>
    </g>
    <g id="ytick_4">
     <g id="line2d_77">
      <path d="M 105.740625 296.111928 
L 775.340625 296.111928 
" clip-path="url(#p68b32bcd46)" style="fill: none; stroke: #b0b0b0; stroke-opacity: 0.8; stroke-linecap: square"/>
     </g>
     <g id="line2d_78">
      <g>
       <use xlink:href="#m0ea4fef564" x="105.740625" y="296.111928" style="stroke: #000000; stroke-width: 0.8"/>
      </g>
     </g>
     <g id="text_14">
      <!-- 1000 -->
      <g transform="translate(56.903125 302.683803) scale(0.2 -0.2)">
       <use xlink:href="#AptosDisplay-31"/>
       <use xlink:href="#AptosDisplay-30" x="52.294922"/>
       <use xlink:href="#AptosDisplay-30" x="104.589844"/>
       <use xlink:href="#AptosDisplay-30" x="156.884766"/>
      </g>
     </g>
    </g>
    <g id="ytick_5">
     <g id="line2d_79">
      <path d="M 105.740625 229.109585 
L 775.340625 229.109585 
" clip-path="url(#p68b32bcd46)" style="fill: none; stroke: #b0b0b0; stroke-opacity: 0.8; stroke-linecap: square"/>
     </g>
     <g id="line2d_80">
      <g>
       <use xlink:href="#m0ea4fef564" x="105.740625" y="229.109585" style="stroke: #000000; stroke-width: 0.8"/>
      </g>
     </g>
     <g id="text_15">
      <!-- 1020 -->
      <g transform="translate(56.903125 235.68146) scale(0.2 -0.2)">
       <use xlink:href="#AptosDisplay-31"/>
       <use xlink:href="#AptosDisplay-30" x="52.294922"/>
       <use xlink:href="#AptosDisplay-32" x="104.589844"/>
       <use xlink:href="#AptosDisplay-30" x="156.884766"/>
      </g>
     </g>
    </g>
    <g id="ytick_6">
     <g id="line2d_81">
      <path d="M 105.740625 162.107242 
L 775.340625 162.107242 
" clip-path="url(#p68b32bcd46)" style="fill: none; stroke: #b0b0b0; stroke-opacity: 0.8; stroke-linecap: square"/>
     </g>
     <g id="line2d_82">
      <g>
       <use xlink:href="#m0ea4fef564" x="105.740625" y="162.107242" style="stroke: #000000; stroke-width: 0.8"/>
      </g>
     </g>
     <g id="text_16">
      <!-- 1040 -->
      <g transform="translate(56.903125 168.679117) scale(0.2 -0.2)">
       <use xlink:href="#AptosDisplay-31"/>
       <use xlink:href="#AptosDisplay-30" x="52.294922"/>
       <use xlink:href="#AptosDisplay-34" x="104.589844"/>
       <use xlink:href="#AptosDisplay-30" x="156.884766"/>
      </g>
     </g>
    </g>
    <g id="ytick_7">
     <g id="line2d_83">
      <path d="M 105.740625 95.104898 
L 775.340625 95.104898 
" clip-path="url(#p68b32bcd46)" style="fill: none; stroke: #b0b0b0; stroke-opacity: 0.8; stroke-linecap: square"/>
     </g>
     <g id="line2d_84">
      <g>
       <use xlink:href="#m0ea4fef564" x="105.740625" y="95.104898" style="stroke: #000000; stroke-width: 0.8"/>
      </g>
     </g>
     <g id="text_17">
      <!-- 1060 -->
      <g transform="translate(56.903125 101.676773) scale(0.2 -0.2)">
       <use xlink:href="#AptosDisplay-31"/>
       <use xlink:href="#AptosDisplay-30" x="52.294922"/>
       <use xlink:href="#AptosDisplay-36" x="104.589844"/>
       <use xlink:href="#AptosDisplay-30" x="156.884766"/>
      </g>
     </g>
    </g>
    <g id="ytick_8">
     <g id="line2d_85">
      <path d="M 105.740625 480.368371 
L 775.340625 480.368371 
" clip-path="url(#p68b32bcd46)" style="fill: none; stroke-dasharray: 1.85,0.8; stroke-dashoffset: 0; stroke: #b0b0b0; stroke-opacity: 0.8; stroke-width: 0.5"/>
     </g>
     <g id="line2d_86">
      <defs>
       <path id="m51a0e1720e" d="M 0 0 
L -2 0 
" style="stroke: #000000; stroke-width: 0.6"/>
      </defs>
      <g>
       <use xlink:href="#m51a0e1720e" x="105.740625" y="480.368371" style="stroke: #000000; stroke-width: 0.6"/>
      </g>
     </g>
    </g>
    <g id="ytick_9">
     <g id="line2d_87">
      <path d="M 105.740625 463.617785 
L 775.340625 463.617785 
" clip-path="url(#p68b32bcd46)" style="fill: none; stroke-dasharray: 1.85,0.8; stroke-dashoffset: 0; stroke: #b0b0b0; stroke-opacity: 0.8; stroke-width: 0.5"/>
     </g>
     <g id="line2d_88">
      <g>
       <use xlink:href="#m51a0e1720e" x="105.740625" y="463.617785" style="stroke: #000000; stroke-width: 0.6"/>
      </g>
     </g>
    </g>
    <g id="ytick_10">
     <g id="line2d_89">
      <path d="M 105.740625 446.8672 
L 775.340625 446.8672 
" clip-path="url(#p68b32bcd46)" style="fill: none; stroke-dasharray: 1.85,0.8; stroke-dashoffset: 0; stroke: #b0b0b0; stroke-opacity: 0.8; stroke-width: 0.5"/>
     </g>
     <g id="line2d_90">
      <g>
       <use xlink:href="#m51a0e1720e" x="105.740625" y="446.8672" style="stroke: #000000; stroke-width: 0.6"/>
      </g>
     </g>
    </g>
    <g id="ytick_11">
     <g id="line2d_91">
      <path d="M 105.740625 413.366028 
L 775.340625 413.366028 
" clip-path="url(#p68b32bcd46)" style="fill: none; stroke-dasharray: 1.85,0.8; stroke-dashoffset: 0; stroke: #b0b0b0; stroke-opacity: 0.8; stroke-width: 0.5"/>
     </g>
     <g id="line2d_92">
      <g>
       <use xlink:href="#m51a0e1720e" x="105.740625" y="413.366028" style="stroke: #000000; stroke-width: 0.6"/>
      </g>
     </g>
    </g>
    <g id="ytick_12">
     <g id="line2d_93">
      <path d="M 105.740625 396.615442 
L 775.340625 396.615442 
" clip-path="url(#p68b32bcd46)" style="fill: none; stroke-dasharray: 1.85,0.8; stroke-dashoffset: 0; stroke: #b0b0b0; stroke-opacity: 0.8; stroke-width: 0.5"/>
     </g>
     <g id="line2d_94">
      <g>
       <use xlink:href="#m51a0e1720e" x="105.740625" y="396.615442" style="stroke: #000000; stroke-width: 0.6"/>
      </g>
     </g>
    </g>
    <g id="ytick_13">
     <g id="line2d_95">
      <path d="M 105.740625 379.864857 
L 775.340625 379.864857 
" clip-path="url(#p68b32bcd46)" style="fill: none; stroke-dasharray: 1.85,0.8; stroke-dashoffset: 0; stroke: #b0b0b0; stroke-opacity: 0.8; stroke-width: 0.5"/>
     </g>
     <g id="line2d_96">
      <g>
       <use xlink:href="#m51a0e1720e" x="105.740625" y="379.864857" style="stroke: #000000; stroke-width: 0.6"/>
      </g>
     </g>
    </g>
    <g id="ytick_14">
     <g id="line2d_97">
      <path d="M 105.740625 346.363685 
L 775.340625 346.363685 
" clip-path="url(#p68b32bcd46)" style="fill: none; stroke-dasharray: 1.85,0.8; stroke-dashoffset: 0; stroke: #b0b0b0; stroke-opacity: 0.8; stroke-width: 0.5"/>
     </g>
     <g id="line2d_98">
      <g>
       <use xlink:href="#m51a0e1720e" x="105.740625" y="346.363685" style="stroke: #000000; stroke-width: 0.6"/>
      </g>
     </g>
    </g>
    <g id="ytick_15">
     <g id="line2d_99">
      <path d="M 105.740625 329.613099 
L 775.340625 329.613099 
" clip-path="url(#p68b32bcd46)" style="fill: none; stroke-dasharray: 1.85,0.8; stroke-dashoffset: 0; stroke: #b0b0b0; stroke-opacity: 0.8; stroke-width: 0.5"/>
     </g>
     <g id="line2d_100">
      <g>
       <use xlink:href="#m51a0e1720e" x="105.740625" y="329.613099" style="stroke: #000000; stroke-width: 0.6"/>
      </g>
     </g>
    </g>
    <g id="ytick_16">
     <g id="line2d_101">
      <path d="M 105.740625 312.862513 
L 775.340625 312.862513 
" clip-path="url(#p68b32bcd46)" style="fill: none; stroke-dasharray: 1.85,0.8; stroke-dashoffset: 0; stroke: #b0b0b0; stroke-opacity: 0.8; stroke-width: 0.5"/>
     </g>
     <g id="line2d_102">
      <g>
       <use xlink:href="#m51a0e1720e" x="105.740625" y="312.862513" style="stroke: #000000; stroke-width: 0.6"/>
      </g>
     </g>
    </g>
    <g id="ytick_17">
     <g id="line2d_103">
      <path d="M 105.740625 279.361342 
L 775.340625 279.361342 
" clip-path="url(#p68b32bcd46)" style="fill: none; stroke-dasharray: 1.85,0.8; stroke-dashoffset: 0; stroke: #b0b0b0; stroke-opacity: 0.8; stroke-width: 0.5"/>
     </g>
     <g id="line2d_104">
      <g>
       <use xlink:href="#m51a0e1720e" x="105.740625" y="279.361342" style="stroke: #000000; stroke-width: 0.6"/>
      </g>
     </g>
    </g>
    <g id="ytick_18">
     <g id="line2d_105">
      <path d="M 105.740625 262.610756 
L 775.340625 262.610756 
" clip-path="url(#p68b32bcd46)" style="fill: none; stroke-dasharray: 1.85,0.8; stroke-dashoffset: 0; stroke: #b0b0b0; stroke-opacity: 0.8; stroke-width: 0.5"/>
     </g>
     <g id="line2d_106">
      <g>
       <use xlink:href="#m51a0e1720e" x="105.740625" y="262.610756" style="stroke: #000000; stroke-width: 0.6"/>
      </g>
     </g>
    </g>
    <g id="ytick_19">
     <g id="line2d_107">
      <path d="M 105.740625 245.86017 
L 775.340625 245.86017 
" clip-path="url(#p68b32bcd46)" style="fill: none; stroke-dasharray: 1.85,0.8; stroke-dashoffset: 0; stroke: #b0b0b0; stroke-opacity: 0.8; stroke-width: 0.5"/>
     </g>
     <g id="line2d_108">
      <g>
       <use xlink:href="#m51a0e1720e" x="105.740625" y="245.86017" style="stroke: #000000; stroke-width: 0.6"/>
      </g>
     </g>
    </g>
    <g id="ytick_20">
     <g id="line2d_109">
      <path d="M 105.740625 212.358999 
L 775.340625 212.358999 
" clip-path="url(#p68b32bcd46)" style="fill: none; stroke-dasharray: 1.85,0.8; stroke-dashoffset: 0; stroke: #b0b0b0; stroke-opacity: 0.8; stroke-width: 0.5"/>
     </g>
     <g id="line2d_110">
      <g>
       <use xlink:href="#m51a0e1720e" x="105.740625" y="212.358999" style="stroke: #000000; stroke-width: 0.6"/>
      </g>
     </g>
    </g>
    <g id="ytick_21">
     <g id="line2d_111">
      <path d="M 105.740625 195.608413 
L 775.340625 195.608413 
" clip-path="url(#p68b32bcd46)" style="fill: none; stroke-dasharray: 1.85,0.8; stroke-dashoffset: 0; stroke: #b0b0b0; stroke-opacity: 0.8; stroke-width: 0.5"/>
     </g>
     <g id="line2d_112">
      <g>
       <use xlink:href="#m51a0e1720e" x="105.740625" y="195.608413" style="stroke: #000000; stroke-width: 0.6"/>
      </g>
     </g>
    </g>
    <g id="ytick_22">
     <g id="line2d_113">
      <path d="M 105.740625 178.857827 
L 775.340625 178.857827 
" clip-path="url(#p68b32bcd46)" style="fill: none; stroke-dasharray: 1.85,0.8; stroke-dashoffset: 0; stroke: #b0b0b0; stroke-opacity: 0.8; stroke-width: 0.5"/>
     </g>
     <g id="line2d_114">
      <g>
       <use xlink:href="#m51a0e1720e" x="105.740625" y="178.857827" style="stroke: #000000; stroke-width: 0.6"/>
      </g>
     </g>
    </g>
    <g id="ytick_23">
     <g id="line2d_115">
      <path d="M 105.740625 145.356656 
L 775.340625 145.356656 
" clip-path="url(#p68b32bcd46)" style="fill: none; stroke-dasharray: 1.85,0.8; stroke-dashoffset: 0; stroke: #b0b0b0; stroke-opacity: 0.8; stroke-width: 0.5"/>
     </g>
     <g id="line2d_116">
      <g>
       <use xlink:href="#m51a0e1720e" x="105.740625" y="145.356656" style="stroke: #000000; stroke-width: 0.6"/>
      </g>
     </g>
    </g>
    <g id="ytick_24">
     <g id="line2d_117">
      <path d="M 105.740625 128.60607 
L 775.340625 128.60607 
" clip-path="url(#p68b32bcd46)" style="fill: none; stroke-dasharray: 1.85,0.8; stroke-dashoffset: 0; stroke: #b0b0b0; stroke-opacity: 0.8; stroke-width: 0.5"/>
     </g>
     <g id="line2d_118">
      <g>
       <use xlink:href="#m51a0e1720e" x="105.740625" y="128.60607" style="stroke: #000000; stroke-width: 0.6"/>
      </g>
     </g>
    </g>
    <g id="ytick_25">
     <g id="line2d_119">
      <path d="M 105.740625 111.855484 
L 775.340625 111.855484 
" clip-path="url(#p68b32bcd46)" style="fill: none; stroke-dasharray: 1.85,0.8; stroke-dashoffset: 0; stroke: #b0b0b0; stroke-opacity: 0.8; stroke-width: 0.5"/>
     </g>
     <g id="line2d_120">
      <g>
       <use xlink:href="#m51a0e1720e" x="105.740625" y="111.855484" style="stroke: #000000; stroke-width: 0.6"/>
      </g>
     </g>
    </g>
    <g id="ytick_26">
     <g id="line2d_121">
      <path d="M 105.740625 78.354313 
L 775.340625 78.354313 
" clip-path="url(#p68b32bcd46)" style="fill: none; stroke-dasharray: 1.85,0.8; stroke-dashoffset: 0; stroke: #b0b0b0; stroke-opacity: 0.8; stroke-width: 0.5"/>
     </g>
     <g id="line2d_122">
      <g>
       <use xlink:href="#m51a0e1720e" x="105.740625" y="78.354313" style="stroke: #000000; stroke-width: 0.6"/>
      </g>
     </g>
    </g>
    <g id="ytick_27">
     <g id="line2d_123">
      <path d="M 105.740625 61.603727 
L 775.340625 61.603727 
" clip-path="url(#p68b32bcd46)" style="fill: none; stroke-dasharray: 1.85,0.8; stroke-dashoffset: 0; stroke: #b0b0b0; stroke-opacity: 0.8; stroke-width: 0.5"/>
     </g>
     <g id="line2d_124">
      <g>
       <use xlink:href="#m51a0e1720e" x="105.740625" y="61.603727" style="stroke: #000000; stroke-width: 0.6"/>
      </g>
     </g>
    </g>
    <g id="text_18">
     <!-- Light (W/m^2) -->
     <g transform="translate(49.221875 337.558125) rotate(-90) scale(0.2 -0.2)">
      <defs>
       <path id="AptosDisplay-4c" d="M 472 0 
L 472 4206 
L 1034 4206 
L 1034 484 
L 3000 484 
L 3000 0 
L 472 0 
z
" transform="scale(0.015625)"/>
       <path id="AptosDisplay-67" d="M 1397 -1178 
Q 925 -1178 640 -1065 
Q 356 -953 229 -765 
Q 103 -578 103 -359 
Q 103 -94 329 112 
Q 556 319 1031 403 
L 1128 575 
L 1475 575 
Q 2184 575 2489 376 
Q 2794 178 2794 -238 
Q 2794 -650 2437 -914 
Q 2081 -1178 1397 -1178 
z
M 1384 -800 
Q 1878 -800 2086 -650 
Q 2294 -500 2294 -278 
Q 2294 -147 2225 -51 
Q 2156 44 1975 97 
Q 1794 150 1456 150 
L 1034 150 
Q 819 97 708 -31 
Q 597 -159 597 -328 
Q 597 -516 778 -658 
Q 959 -800 1384 -800 
z
M 1025 216 
Q 722 228 550 312 
Q 378 397 306 511 
Q 234 625 234 722 
Q 234 866 362 1009 
Q 491 1153 772 1241 
L 1038 1069 
Q 866 1031 772 953 
Q 678 875 678 791 
Q 678 731 734 682 
Q 791 634 928 606 
Q 1066 578 1303 575 
L 1025 216 
z
M 1363 984 
Q 1003 984 753 1128 
Q 503 1272 375 1509 
Q 247 1747 247 2022 
Q 247 2313 376 2550 
Q 506 2788 754 2928 
Q 1003 3069 1366 3069 
Q 1738 3069 1983 2928 
Q 2228 2788 2351 2550 
Q 2475 2313 2475 2022 
Q 2475 1741 2350 1505 
Q 2225 1269 1979 1126 
Q 1734 984 1363 984 
z
M 1366 1341 
Q 1641 1341 1812 1512 
Q 1984 1684 1984 2022 
Q 1984 2375 1817 2545 
Q 1650 2716 1372 2716 
Q 1094 2716 919 2541 
Q 744 2366 744 2025 
Q 744 1681 931 1511 
Q 1119 1341 1366 1341 
z
M 2131 2734 
L 1922 2931 
Q 2038 3225 2252 3331 
Q 2466 3438 2794 3447 
L 2794 3006 
Q 2588 3006 2416 2961 
Q 2244 2916 2131 2734 
z
" transform="scale(0.015625)"/>
       <path id="AptosDisplay-68" d="M 413 0 
L 413 4206 
L 931 4206 
L 931 2575 
Q 1069 2756 1317 2914 
Q 1566 3072 1950 3072 
Q 2428 3072 2637 2783 
Q 2847 2494 2847 1963 
L 2847 0 
L 2328 0 
L 2328 1891 
Q 2328 2106 2287 2275 
Q 2247 2444 2139 2539 
Q 2031 2634 1822 2634 
Q 1503 2634 1284 2482 
Q 1066 2331 934 2156 
L 934 0 
L 413 0 
z
" transform="scale(0.015625)"/>
       <path id="AptosDisplay-74" d="M 1466 0 
Q 1100 0 901 117 
Q 703 234 629 454 
Q 556 675 556 984 
L 556 2622 
L 50 2622 
L 50 3044 
L 556 3044 
L 556 3741 
L 1078 3741 
L 1078 3044 
L 1831 3044 
L 1831 2622 
L 1078 2622 
L 1078 1009 
Q 1078 725 1151 575 
Q 1225 425 1500 425 
L 1831 425 
L 1831 0 
L 1466 0 
z
" transform="scale(0.015625)"/>
       <path id="AptosDisplay-57" d="M 1216 0 
L -13 4206 
L 575 4206 
L 1525 697 
L 2531 4206 
L 3156 4206 
L 4163 697 
L 5119 4206 
L 5681 4206 
L 4453 0 
L 3866 0 
L 2831 3556 
L 1813 0 
L 1216 0 
z
" transform="scale(0.015625)"/>
       <path id="AptosDisplay-2f" d="M 72 0 
L 1603 4206 
L 2100 4206 
L 569 0 
L 72 0 
z
" transform="scale(0.015625)"/>
       <path id="AptosDisplay-5e" d="M 428 2438 
L 1459 4206 
L 1884 4206 
L 2916 2438 
L 2366 2438 
L 1672 3650 
L 978 2438 
L 428 2438 
z
" transform="scale(0.015625)"/>
      </defs>
      <use xlink:href="#AptosDisplay-4c"/>
      <use xlink:href="#AptosDisplay-69" x="48.4375"/>
      <use xlink:href="#AptosDisplay-67" x="69.482422"/>
      <use xlink:href="#AptosDisplay-68" x="113.427734"/>
      <use xlink:href="#AptosDisplay-74" x="164.013672"/>
      <use xlink:href="#AptosDisplay-20" x="194.384766"/>
      <use xlink:href="#AptosDisplay-28" x="213.671875"/>
      <use xlink:href="#AptosDisplay-57" x="243.115234"/>
      <use xlink:href="#AptosDisplay-2f" x="331.689453"/>
      <use xlink:href="#AptosDisplay-6d" x="365.625"/>
      <use xlink:href="#AptosDisplay-5e" x="445.605469"/>
      <use xlink:href="#AptosDisplay-32" x="497.900391"/>
      <use xlink:href="#AptosDisplay-29" x="550.195312"/>
     </g>
    </g>
   </g>
   <g id="line2d_125">
    <path d="M 136.934107 337.93144 
L 137.691226 336.454038 
L 138.448345 336.454038 
L 139.205464 337.93144 
L 139.962582 329.07038 
L 140.719701 281.806927 
L 141.47682 336.454038 
L 142.233939 326.115577 
L 142.991058 336.454038 
L 143.748176 308.393457 
L 144.505295 318.731919 
L 145.262414 309.870859 
L 146.019533 326.115577 
L 146.776651 326.115577 
L 147.53377 321.686722 
L 148.290889 346.7925 
L 149.048008 407.345868 
L 136.934107 337.93144 
L 137.691226 336.454038 
L 138.448345 336.454038 
L 139.205464 337.93144 
L 139.962582 329.07038 
L 140.719701 281.806927 
L 141.47682 336.454038 
L 142.233939 326.115577 
L 142.991058 336.454038 
L 143.748176 308.393457 
L 144.505295 318.731919 
L 145.262414 309.870859 
L 146.019533 326.115577 
L 146.776651 326.115577 
L 147.53377 321.686722 
L 148.290889 346.7925 
L 149.048008 407.345868 
L 136.176989 332.025184 
L 136.934107 337.93144 
L 137.691226 327.592979 
L 138.448345 336.454038 
L 139.205464 339.408842 
L 139.962582 333.499235 
L 140.719701 336.454038 
L 141.47682 336.454038 
L 142.233939 348.269902 
L 142.991058 342.360295 
L 143.748176 333.499235 
L 144.505295 330.547782 
L 145.262414 357.130962 
L 146.019533 334.976637 
L 146.776651 327.592979 
L 148.290889 333.499235 
L 149.048008 324.638175 
L 149.805126 329.07038 
L 150.562245 336.454038 
L 151.319364 336.454038 
L 152.076483 332.025184 
L 152.833601 324.638175 
L 153.59072 327.592979 
L 154.347839 343.837697 
L 155.104958 332.025184 
L 155.862077 329.07038 
L 156.619195 324.638175 
L 157.376314 323.160774 
L 158.133433 317.254517 
L 158.890552 303.961252 
L 159.64767 323.160774 
L 160.404789 339.408842 
L 161.161908 332.025184 
L 162.676145 332.025184 
L 163.433264 330.547782 
L 164.190383 342.360295 
L 164.947502 332.025184 
L 165.70462 332.025184 
L 166.461739 333.499235 
L 167.218858 332.025184 
L 167.975977 334.976637 
L 168.733096 332.025184 
L 170.247333 334.976637 
L 171.004452 329.07038 
L 171.761571 311.348261 
L 172.518689 332.025184 
L 173.275808 332.025184 
L 174.032927 305.438654 
L 174.790046 339.408842 
L 175.547164 320.20932 
L 176.304283 267.039611 
L 177.061402 321.686722 
L 177.818521 318.731919 
L 178.575639 326.115577 
L 179.332758 323.160774 
L 180.089877 327.592979 
L 180.846996 317.254517 
L 181.604115 321.686722 
L 182.361233 314.299714 
L 183.118352 312.822312 
L 183.875471 324.638175 
L 184.63259 317.254517 
L 185.389708 332.025184 
L 186.146827 320.20932 
L 186.903946 407.345868 
L 187.661065 329.07038 
L 188.418183 330.547782 
L 189.175302 330.547782 
L 189.932421 323.160774 
L 190.68954 329.07038 
L 191.446658 311.348261 
L 192.203777 312.822312 
L 192.960896 271.468466 
L 193.718015 271.468466 
L 194.475134 264.084808 
L 195.232252 261.130004 
L 195.989371 268.517013 
L 196.74649 265.562209 
L 197.503609 275.900671 
L 198.260727 274.423269 
L 199.017846 281.806927 
L 199.774965 283.284329 
L 200.532084 269.994414 
L 201.289202 243.407885 
L 202.046321 227.163167 
L 202.80344 256.701149 
L 203.560559 244.885286 
L 204.317677 252.268944 
L 205.074796 272.945868 
L 205.831915 274.423269 
L 206.589034 289.193936 
L 207.346153 281.806927 
L 208.103271 311.348261 
L 208.86039 289.193936 
L 209.617509 287.716534 
L 211.131746 265.562209 
L 211.888865 318.731919 
L 212.645984 277.378073 
L 213.403103 370.424226 
L 214.160221 265.562209 
L 214.91734 259.655953 
L 215.674459 237.501628 
L 216.431578 219.776158 
L 217.188697 225.685765 
L 217.945815 278.855474 
L 218.702934 303.961252 
L 219.460053 293.622791 
L 220.217172 311.348261 
L 220.97429 308.393457 
L 221.731409 302.483851 
L 222.488528 311.348261 
L 223.245647 302.483851 
L 224.002765 308.393457 
L 224.759884 308.393457 
L 225.517003 305.438654 
L 226.274122 342.360295 
L 227.03124 308.393457 
L 227.788359 308.393457 
L 228.545478 301.006449 
L 229.302597 312.822312 
L 230.059716 311.348261 
L 230.816834 305.438654 
L 231.573953 302.483851 
L 232.331072 308.393457 
L 233.088191 312.822312 
L 233.845309 305.438654 
L 234.602428 301.006449 
L 235.359547 312.822312 
L 236.116666 303.961252 
L 236.873784 289.193936 
L 238.388022 311.348261 
L 239.145141 306.916056 
L 239.902259 301.006449 
L 240.659378 301.006449 
L 241.416497 309.870859 
L 242.173616 337.93144 
L 242.930735 303.961252 
L 243.687853 306.916056 
L 244.444972 308.393457 
L 245.202091 311.348261 
L 245.95921 295.100192 
L 246.716328 302.483851 
L 248.230566 305.438654 
L 248.987685 292.145389 
L 249.744803 303.961252 
L 251.259041 312.822312 
L 252.01616 301.006449 
L 252.773278 340.886243 
L 253.530397 295.100192 
L 254.287516 302.483851 
L 255.044635 298.054996 
L 255.801754 296.577594 
L 256.558872 302.483851 
L 257.315991 301.006449 
L 258.07311 289.193936 
L 258.830229 305.438654 
L 259.587347 308.393457 
L 260.344466 306.916056 
L 261.101585 317.254517 
L 261.858704 302.483851 
L 262.615822 308.393457 
L 263.372941 306.916056 
L 264.13006 332.025184 
L 264.887179 302.483851 
L 265.644297 308.393457 
L 266.401416 303.961252 
L 267.158535 308.393457 
L 267.915654 314.299714 
L 268.672773 301.006449 
L 269.429891 303.961252 
L 270.18701 302.483851 
L 270.944129 314.299714 
L 271.701248 305.438654 
L 272.458366 302.483851 
L 273.215485 303.961252 
L 273.972604 308.393457 
L 274.729723 314.299714 
L 275.486841 308.393457 
L 276.24396 299.532397 
L 277.001079 305.438654 
L 277.758198 302.483851 
L 278.515316 308.393457 
L 279.272435 302.483851 
L 280.029554 311.348261 
L 280.786673 305.438654 
L 281.543792 318.731919 
L 282.30091 309.870859 
L 283.058029 296.577594 
L 283.815148 301.006449 
L 284.572267 315.777115 
L 285.329385 306.916056 
L 286.086504 339.408842 
L 286.843623 312.822312 
L 287.600742 305.438654 
L 288.35786 308.393457 
L 289.114979 306.916056 
L 289.872098 308.393457 
L 290.629217 306.916056 
L 291.386335 309.870859 
L 292.143454 309.870859 
L 292.900573 299.532397 
L 293.657692 305.438654 
L 294.414811 309.870859 
L 295.929048 306.916056 
L 296.686167 292.145389 
L 297.443286 305.438654 
L 298.200404 306.916056 
L 298.957523 309.870859 
L 299.714642 305.438654 
L 300.471761 303.961252 
L 301.985998 309.870859 
L 302.743117 306.916056 
L 303.500236 308.393457 
L 304.257354 301.006449 
L 305.014473 303.961252 
L 305.771592 296.577594 
L 306.528711 305.438654 
L 307.28583 296.577594 
L 308.042948 306.916056 
L 308.800067 298.054996 
L 309.557186 299.532397 
L 310.314305 305.438654 
L 311.071423 305.438654 
L 311.828542 302.483851 
L 312.585661 305.438654 
L 313.34278 311.348261 
L 314.099898 277.378073 
L 314.857017 299.532397 
L 315.614136 303.961252 
L 316.371255 299.532397 
L 317.128373 306.916056 
L 317.885492 308.393457 
L 318.642611 312.822312 
L 319.39973 301.006449 
L 320.156849 302.483851 
L 320.913967 299.532397 
L 321.671086 305.438654 
L 322.428205 306.916056 
L 323.185324 306.916056 
L 323.942442 303.961252 
L 324.699561 305.438654 
L 325.45668 302.483851 
L 326.213799 320.20932 
L 326.970917 303.961252 
L 327.728036 301.006449 
L 328.485155 296.577594 
L 329.999392 302.483851 
L 330.756511 311.348261 
L 331.51363 306.916056 
L 332.270749 311.348261 
L 333.027868 305.438654 
L 333.784986 306.916056 
L 334.542105 320.20932 
L 335.299224 286.239132 
L 336.056343 311.348261 
L 336.813461 311.348261 
L 337.57058 309.870859 
L 338.327699 309.870859 
L 339.084818 308.393457 
L 339.841936 314.299714 
L 340.599055 309.870859 
L 341.356174 302.483851 
L 342.870412 370.424226 
L 343.62753 312.822312 
L 344.384649 308.393457 
L 345.141768 311.348261 
L 345.898887 301.006449 
L 346.656005 305.438654 
L 348.170243 305.438654 
L 348.927362 287.716534 
L 351.955837 332.025184 
L 352.712955 302.483851 
L 353.470074 302.483851 
L 354.227193 305.438654 
L 354.984312 311.348261 
L 355.741431 305.438654 
L 356.498549 306.916056 
L 357.255668 306.916056 
L 358.012787 305.438654 
L 358.769906 302.483851 
L 359.527024 306.916056 
L 360.284143 298.054996 
L 361.041262 305.438654 
L 361.798381 281.806927 
L 362.555499 295.100192 
L 363.312618 312.822312 
L 364.069737 302.483851 
L 364.826856 312.822312 
L 365.583974 329.07038 
L 366.341093 301.006449 
L 367.098212 308.393457 
L 367.855331 311.348261 
L 368.61245 339.408842 
L 369.369568 287.716534 
L 370.126687 302.483851 
L 370.883806 312.822312 
L 371.640925 317.254517 
L 372.398043 309.870859 
L 373.155162 298.054996 
L 373.912281 305.438654 
L 374.6694 299.532397 
L 375.426518 305.438654 
L 376.183637 302.483851 
L 376.940756 309.870859 
L 379.212112 309.870859 
L 379.969231 303.961252 
L 380.72635 308.393457 
L 381.483469 309.870859 
L 382.240587 314.299714 
L 382.997706 303.961252 
L 384.511944 306.916056 
L 385.269062 309.870859 
L 386.026181 333.499235 
L 386.7833 309.870859 
L 389.054656 309.870859 
L 389.811775 302.483851 
L 390.568894 308.393457 
L 391.326012 346.7925 
L 392.083131 308.393457 
L 392.84025 320.20932 
L 393.597369 292.145389 
L 394.354488 354.176158 
L 395.111606 308.393457 
L 395.868725 318.731919 
L 396.625844 280.332876 
L 397.382963 324.638175 
L 398.140081 317.254517 
L 398.8972 315.777115 
L 399.654319 329.07038 
L 400.411438 315.777115 
L 401.168556 317.254517 
L 401.925675 315.777115 
L 402.682794 321.686722 
L 403.439913 320.20932 
L 404.197031 327.592979 
L 405.711269 315.777115 
L 406.468388 284.761731 
L 407.225507 305.438654 
L 407.982625 314.299714 
L 408.739744 311.348261 
L 409.496863 311.348261 
L 410.253982 314.299714 
L 411.0111 315.777115 
L 411.768219 314.299714 
L 412.525338 306.916056 
L 413.282457 311.348261 
L 414.039575 312.822312 
L 414.796694 311.348261 
L 415.553813 303.961252 
L 416.310932 315.777115 
L 417.06805 311.348261 
L 417.825169 296.577594 
L 418.582288 324.638175 
L 420.096526 293.622791 
L 420.853644 315.777115 
L 421.610763 311.348261 
L 422.367882 302.483851 
L 423.125001 309.870859 
L 423.882119 308.393457 
L 424.639238 309.870859 
L 425.396357 349.747303 
L 426.153476 311.348261 
L 426.910594 320.20932 
L 427.667713 324.638175 
L 428.424832 315.777115 
L 429.181951 315.777115 
L 429.939069 318.731919 
L 430.696188 281.806927 
L 431.453307 305.438654 
L 432.210426 308.393457 
L 432.967545 272.945868 
L 433.724663 309.870859 
L 434.481782 308.393457 
L 435.238901 308.393457 
L 435.99602 306.916056 
L 436.753138 311.348261 
L 437.510257 308.393457 
L 438.267376 308.393457 
L 439.024495 312.822312 
L 439.781613 309.870859 
L 440.538732 302.483851 
L 442.05297 299.532397 
L 442.810088 289.193936 
L 443.567207 312.822312 
L 444.324326 314.299714 
L 445.081445 305.438654 
L 445.838564 311.348261 
L 446.595682 302.483851 
L 447.352801 305.438654 
L 448.10992 311.348261 
L 448.867039 301.006449 
L 449.624157 311.348261 
L 450.381276 305.438654 
L 451.138395 311.348261 
L 451.895514 336.454038 
L 452.652632 308.393457 
L 453.409751 311.348261 
L 454.16687 306.916056 
L 454.923989 298.054996 
L 455.681108 309.870859 
L 456.438226 306.916056 
L 457.195345 311.348261 
L 457.952464 311.348261 
L 458.709583 481.1925 
L 459.466701 333.499235 
L 460.22382 329.07038 
L 461.738058 292.145389 
L 462.495176 306.916056 
L 463.252295 467.899235 
L 464.009414 299.532397 
L 464.766533 293.622791 
L 465.523651 311.348261 
L 466.28077 298.054996 
L 467.037889 309.870859 
L 467.795008 314.299714 
L 468.552127 334.976637 
L 469.309245 318.731919 
L 470.066364 337.93144 
L 470.823483 312.822312 
L 471.580602 308.393457 
L 472.33772 333.499235 
L 473.094839 334.976637 
L 473.851958 312.822312 
L 474.609077 314.299714 
L 475.366195 311.348261 
L 476.123314 311.348261 
L 476.880433 302.483851 
L 477.637552 308.393457 
L 478.39467 306.916056 
L 479.151789 302.483851 
L 479.908908 306.916056 
L 480.666027 312.822312 
L 481.423146 312.822312 
L 482.180264 305.438654 
L 483.694502 308.393457 
L 484.451621 299.532397 
L 485.208739 308.393457 
L 485.965858 309.870859 
L 486.722977 305.438654 
L 487.480096 323.160774 
L 488.237214 314.299714 
L 488.994333 306.916056 
L 490.508571 312.822312 
L 491.265689 290.667987 
L 492.022808 312.822312 
L 492.779927 215.347303 
L 493.537046 246.362688 
L 494.294165 77.9925 
L 495.051283 320.20932 
L 495.808402 312.822312 
L 496.565521 311.348261 
L 497.32264 321.686722 
L 498.079758 302.483851 
L 498.836877 311.348261 
L 499.593996 303.961252 
L 500.351115 309.870859 
L 501.108233 314.299714 
L 501.865352 312.822312 
L 502.622471 306.916056 
L 503.37959 309.870859 
L 504.136708 308.393457 
L 504.893827 305.438654 
L 505.650946 312.822312 
L 506.408065 286.239132 
L 507.165184 311.348261 
L 507.922302 317.254517 
L 508.679421 321.686722 
L 509.43654 306.916056 
L 510.193659 306.916056 
L 510.950777 312.822312 
L 511.707896 317.254517 
L 512.465015 311.348261 
L 513.222134 308.393457 
L 513.979252 309.870859 
L 514.736371 305.438654 
L 515.49349 311.348261 
L 516.250609 299.532397 
L 517.007727 302.483851 
L 517.764846 308.393457 
L 518.521965 312.822312 
L 519.279084 308.393457 
L 520.036203 309.870859 
L 520.793321 296.577594 
L 521.55044 312.822312 
L 522.307559 314.299714 
L 523.064678 298.054996 
L 523.821796 308.393457 
L 524.578915 332.025184 
L 525.336034 315.777115 
L 526.093153 314.299714 
L 526.850271 309.870859 
L 527.60739 311.348261 
L 528.364509 311.348261 
L 529.121628 321.686722 
L 529.878746 311.348261 
L 530.635865 309.870859 
L 531.392984 312.822312 
L 532.150103 312.822312 
L 533.66434 306.916056 
L 534.421459 315.777115 
L 535.178578 312.822312 
L 535.935697 324.638175 
L 536.692815 315.777115 
L 537.449934 303.961252 
L 538.964172 315.777115 
L 539.72129 308.393457 
L 540.478409 309.870859 
L 541.235528 315.777115 
L 541.992647 314.299714 
L 542.749765 317.254517 
L 543.506884 306.916056 
L 544.264003 299.532397 
L 545.021122 305.438654 
L 545.778241 323.160774 
L 546.535359 315.777115 
L 547.292478 317.254517 
L 548.049597 315.777115 
L 548.806716 312.822312 
L 549.563834 303.961252 
L 550.320953 312.822312 
L 551.078072 317.254517 
L 551.835191 317.254517 
L 552.592309 314.299714 
L 553.349428 309.870859 
L 554.863666 315.777115 
L 555.620784 306.916056 
L 556.377903 306.916056 
L 557.135022 286.239132 
L 557.892141 79.469902 
L 558.64926 339.408842 
L 559.406378 342.360295 
L 560.163497 314.299714 
L 560.920616 315.777115 
L 561.677735 314.299714 
L 562.434853 314.299714 
L 563.191972 311.348261 
L 563.949091 280.332876 
L 564.70621 311.348261 
L 565.463328 323.160774 
L 566.220447 312.822312 
L 566.977566 334.976637 
L 567.734685 314.299714 
L 568.491804 311.348261 
L 569.248922 309.870859 
L 570.006041 312.822312 
L 571.520279 312.822312 
L 572.277397 309.870859 
L 573.034516 315.777115 
L 573.791635 315.777115 
L 574.548754 305.438654 
L 575.305872 312.822312 
L 576.062991 312.822312 
L 576.82011 326.115577 
L 577.577229 314.299714 
L 580.605704 311.348261 
L 581.362823 311.348261 
L 582.119941 317.254517 
L 582.87706 302.483851 
L 583.637964 283.284329 
L 584.395083 215.347303 
L 585.148416 308.393457 
L 585.909321 202.054038 
L 586.662654 306.916056 
L 587.419773 333.499235 
L 588.176891 305.438654 
L 588.93401 309.870859 
L 589.691129 315.777115 
L 590.448248 320.20932 
L 591.205366 298.054996 
L 591.962485 298.054996 
L 592.719604 320.20932 
L 593.476723 312.822312 
L 594.233842 311.348261 
L 594.99096 315.777115 
L 595.748079 315.777115 
L 596.505198 364.51462 
L 597.262317 311.348261 
L 598.019435 314.299714 
L 598.776554 320.20932 
L 599.533673 311.348261 
L 600.290792 321.686722 
L 601.04791 309.870859 
L 601.805029 317.254517 
L 602.562148 314.299714 
L 604.076385 314.299714 
L 604.833504 315.777115 
L 605.590623 305.438654 
L 606.347742 311.348261 
L 607.104861 326.115577 
L 607.861979 323.160774 
L 608.619098 317.254517 
L 609.376217 323.160774 
L 610.133336 321.686722 
L 611.647573 312.822312 
L 612.404692 317.254517 
L 613.161811 320.20932 
L 613.918929 314.299714 
L 614.676048 321.686722 
L 615.433167 317.254517 
L 616.190286 309.870859 
L 616.947404 311.348261 
L 617.704523 314.299714 
L 618.461642 298.054996 
L 619.218761 326.115577 
L 619.97588 311.348261 
L 620.732998 317.254517 
L 621.490117 317.254517 
L 622.247236 312.822312 
L 623.004355 317.254517 
L 623.761473 306.916056 
L 624.518592 314.299714 
L 625.275711 306.916056 
L 626.03283 315.777115 
L 626.789948 314.299714 
L 627.547067 332.025184 
L 628.304186 311.348261 
L 629.061305 309.870859 
L 629.818423 309.870859 
L 630.575542 314.299714 
L 631.332661 315.777115 
L 632.08978 314.299714 
L 632.846899 315.777115 
L 633.604017 321.686722 
L 634.361136 323.160774 
L 635.118255 312.822312 
L 635.879159 320.20932 
L 636.632492 315.777115 
L 637.393397 315.777115 
L 638.150515 312.822312 
L 638.907634 314.299714 
L 639.664753 317.254517 
L 641.178991 314.299714 
L 641.936109 314.299714 
L 643.450347 320.20932 
L 644.207466 318.731919 
L 644.964584 298.054996 
L 645.721703 318.731919 
L 646.478822 318.731919 
L 647.235941 315.777115 
L 647.993059 317.254517 
L 648.750178 311.348261 
L 649.507297 314.299714 
L 650.264416 311.348261 
L 651.021534 274.423269 
L 651.778653 330.547782 
L 652.535772 317.254517 
L 653.292891 320.20932 
L 654.05001 267.039611 
L 654.807128 315.777115 
L 655.564247 318.731919 
L 656.321366 315.777115 
L 657.078485 314.299714 
L 657.835603 311.348261 
L 658.592722 315.777115 
L 659.349841 371.901628 
L 660.10696 318.731919 
L 660.864078 336.454038 
L 661.621197 314.299714 
L 662.378316 303.961252 
L 663.135435 321.686722 
L 663.892553 311.348261 
L 664.649672 330.547782 
L 665.406791 303.961252 
L 666.16391 298.054996 
L 666.921029 315.777115 
L 667.678147 317.254517 
L 668.435266 308.393457 
L 669.192385 318.731919 
L 669.949504 324.638175 
L 670.706622 326.115577 
L 671.463741 318.731919 
L 672.22086 312.822312 
L 672.977979 324.638175 
L 673.735097 317.254517 
L 675.249335 317.254517 
L 676.006454 320.20932 
L 676.763573 324.638175 
L 677.520691 317.254517 
L 678.27781 315.777115 
L 679.034929 317.254517 
L 680.549166 314.299714 
L 681.306285 318.731919 
L 682.063404 315.777115 
L 682.820523 287.716534 
L 683.577641 317.254517 
L 684.33476 329.07038 
L 685.091879 309.870859 
L 686.606116 318.731919 
L 687.363235 317.254517 
L 688.120354 324.638175 
L 688.877473 312.822312 
L 689.634592 314.299714 
L 690.39171 314.299714 
L 691.148829 312.822312 
L 691.905948 320.20932 
L 692.663067 320.20932 
L 693.420185 309.870859 
L 694.177304 323.160774 
L 694.934423 317.254517 
L 695.691542 314.299714 
L 696.44866 332.025184 
L 697.205779 320.20932 
L 697.962898 323.160774 
L 698.720017 323.160774 
L 699.477135 317.254517 
L 700.234254 309.870859 
L 700.991373 314.299714 
L 701.748492 315.777115 
L 702.505611 323.160774 
L 703.262729 318.731919 
L 704.019848 306.916056 
L 704.776967 314.299714 
L 705.534086 320.20932 
L 706.291204 311.348261 
L 707.048323 314.299714 
L 707.805442 311.348261 
L 708.562561 312.822312 
L 709.319679 315.777115 
L 710.076798 315.777115 
L 710.833917 317.254517 
L 711.591036 312.822312 
L 712.348154 317.254517 
L 713.105273 312.822312 
L 713.862392 317.254517 
L 714.619511 312.822312 
L 715.37663 321.686722 
L 716.133748 323.160774 
L 716.890867 320.20932 
L 717.647986 324.638175 
L 718.405105 326.115577 
L 719.162223 340.886243 
L 719.919342 329.07038 
L 720.676461 343.837697 
L 721.43358 329.07038 
L 722.190698 330.547782 
L 722.947817 351.224705 
L 723.704936 354.176158 
L 725.219173 332.025184 
L 725.976292 336.454038 
L 726.733411 334.976637 
L 727.49053 358.608363 
L 728.247649 343.837697 
L 729.004767 346.7925 
L 729.761886 339.408842 
L 730.519005 333.499235 
L 731.276124 343.837697 
L 732.033242 290.667987 
L 732.790361 349.747303 
L 733.54748 342.360295 
L 734.304599 348.269902 
L 735.061717 348.269902 
L 735.818836 340.886243 
L 736.575955 340.886243 
L 737.333074 352.698757 
L 738.090192 349.747303 
L 738.847311 355.65356 
L 740.361549 343.837697 
L 741.118668 345.315098 
L 741.875786 345.315098 
L 742.632905 348.269902 
L 743.390024 340.886243 
L 744.147143 345.315098 
L 744.904261 309.870859 
L 744.904261 309.870859 
" clip-path="url(#p68b32bcd46)" style="fill: none; stroke: #ac2b37; stroke-width: 1.5; stroke-linecap: square"/>
   </g>
   <g id="patch_3">
    <path d="M 105.740625 501.3525 
L 105.740625 57.8325 
" style="fill: none; stroke: #000000; stroke-width: 0.8; stroke-linejoin: miter; stroke-linecap: square"/>
   </g>
   <g id="patch_4">
    <path d="M 775.340625 501.3525 
L 775.340625 57.8325 
" style="fill: none; stroke: #000000; stroke-width: 0.8; stroke-linejoin: miter; stroke-linecap: square"/>
   </g>
   <g id="patch_5">
    <path d="M 105.740625 501.3525 
L 775.340625 501.3525 
" style="fill: none; stroke: #000000; stroke-width: 0.8; stroke-linejoin: miter; stroke-linecap: square"/>
   </g>
   <g id="patch_6">
    <path d="M 105.740625 57.8325 
L 775.340625 57.8325 
" style="fill: none; stroke: #000000; stroke-width: 0.8; stroke-linejoin: miter; stroke-linecap: square"/>
   </g>
   <g id="text_19">
    <!-- Light vs Time -->
    <g transform="translate(378.058125 51.8325) scale(0.24 -0.24)">
     <defs>
      <path id="AptosDisplay-76" d="M 1103 0 
L -13 3044 
L 538 3044 
L 1391 513 
L 2250 3044 
L 2781 3044 
L 1678 0 
L 1103 0 
z
" transform="scale(0.015625)"/>
      <path id="AptosDisplay-73" d="M 1506 -41 
Q 1247 -41 1017 14 
Q 788 69 613 191 
Q 438 313 339 506 
Q 241 700 241 978 
L 744 978 
Q 744 628 966 487 
Q 1188 347 1519 347 
Q 1816 347 2008 458 
Q 2200 569 2200 822 
Q 2200 1047 2026 1153 
Q 1853 1259 1413 1369 
Q 1056 1453 815 1564 
Q 575 1675 453 1845 
Q 331 2016 331 2275 
Q 331 2475 417 2626 
Q 503 2778 658 2879 
Q 813 2981 1020 3032 
Q 1228 3084 1472 3084 
Q 1713 3084 1923 3028 
Q 2134 2972 2296 2855 
Q 2459 2738 2551 2552 
Q 2644 2366 2644 2109 
L 2138 2109 
Q 2138 2425 1945 2558 
Q 1753 2691 1472 2691 
Q 1191 2691 1016 2594 
Q 841 2497 841 2291 
Q 841 2169 919 2084 
Q 997 2000 1181 1933 
Q 1366 1866 1675 1791 
Q 2019 1709 2248 1596 
Q 2478 1484 2595 1306 
Q 2713 1128 2713 847 
Q 2713 616 2622 447 
Q 2531 278 2367 170 
Q 2203 63 1983 11 
Q 1763 -41 1506 -41 
z
" transform="scale(0.015625)"/>
     </defs>
     <use xlink:href="#AptosDisplay-4c"/>
     <use xlink:href="#AptosDisplay-69" x="48.4375"/>
     <use xlink:href="#AptosDisplay-67" x="69.482422"/>
     <use xlink:href="#AptosDisplay-68" x="113.427734"/>
     <use xlink:href="#AptosDisplay-74" x="164.013672"/>
     <use xlink:href="#AptosDisplay-20" x="194.384766"/>
     <use xlink:href="#AptosDisplay-76" x="213.671875"/>
     <use xlink:href="#AptosDisplay-73" x="256.933594"/>
     <use xlink:href="#AptosDisplay-20" x="303.222656"/>
     <use xlink:href="#AptosDisplay-54" x="322.509766"/>
     <use xlink:href="#AptosDisplay-69" x="370.214844"/>
     <use xlink:href="#AptosDisplay-6d" x="391.259766"/>
     <use xlink:href="#AptosDisplay-65" x="471.240234"/>
    </g>
   </g>
  </g>
 </g>
 <defs>
  <clipPath id="p68b32bcd46">
   <rect x="105.740625" y="57.8325" width="669.6" height="443.52"/>
  </clipPath>
 </defs>
</svg>
