<?xml version="1.0" encoding="utf-8" standalone="no"?>
<!DOCTYPE svg PUBLIC "-//W3C//DTD SVG 1.1//EN"
  "http://www.w3.org/Graphics/SVG/1.1/DTD/svg11.dtd">
<svg xmlns:xlink="http://www.w3.org/1999/xlink" width="800.88125pt" height="581.830625pt" viewBox="0 0 800.88125 581.830625" xmlns="http://www.w3.org/2000/svg" version="1.1">
 <metadata>
  <rdf:RDF xmlns:dc="http://purl.org/dc/elements/1.1/" xmlns:cc="http://creativecommons.org/ns#" xmlns:rdf="http://www.w3.org/1999/02/22-rdf-syntax-ns#">
   <cc:Work>
    <dc:type rdf:resource="http://purl.org/dc/dcmitype/StillImage"/>
    <dc:date>2025-04-03T01:48:05.119780</dc:date>
    <dc:format>image/svg+xml</dc:format>
    <dc:creator>
     <cc:Agent>
      <dc:title>Matplotlib v3.8.2, https://matplotlib.org/</dc:title>
     </cc:Agent>
    </dc:creator>
   </cc:Work>
  </rdf:RDF>
 </metadata>
 <defs>
  <style type="text/css">*{stroke-linejoin: round; stroke-linecap: butt}</style>
 </defs>
 <g id="figure_1">
  <g id="patch_1">
   <path d="M 0 581.830625 
L 800.88125 581.830625 
L 800.88125 0 
L 0 0 
z
" style="fill: #ffffff"/>
  </g>
  <g id="axes_1">
   <g id="patch_2">
    <path d="M 95.28125 501.3525 
L 764.88125 501.3525 
L 764.88125 57.8325 
L 95.28125 57.8325 
z
" style="fill: #ffffff"/>
   </g>
   <g id="matplotlib.axis_1">
    <g id="xtick_1">
     <g id="line2d_1">
      <path d="M 125.357793 501.3525 
L 125.357793 57.8325 
" clip-path="url(#p0136bbdede)" style="fill: none; stroke: #b0b0b0; stroke-opacity: 0.8; stroke-linecap: square"/>
     </g>
     <g id="line2d_2">
      <defs>
       <path id="m4f259d1a1e" d="M 0 0 
L 0 3.5 
" style="stroke: #000000; stroke-width: 0.8"/>
      </defs>
      <g>
       <use xlink:href="#m4f259d1a1e" x="125.357793" y="501.3525" style="stroke: #000000; stroke-width: 0.8"/>
      </g>
     </g>
     <g id="text_1">
      <!-- 0 -->
      <g transform="translate(120.128106 521.49625) scale(0.2 -0.2)">
       <defs>
        <path id="AptosDisplay-30" d="M 1672 -56 
Q 1291 -56 1028 105 
Q 766 266 605 552 
Q 444 838 372 1216 
Q 300 1594 300 2031 
Q 300 2475 372 2856 
Q 444 3238 605 3525 
Q 766 3813 1028 3973 
Q 1291 4134 1672 4134 
Q 2053 4134 2317 3975 
Q 2581 3816 2742 3527 
Q 2903 3238 2975 2858 
Q 3047 2478 3047 2038 
Q 3047 1597 2975 1217 
Q 2903 838 2742 552 
Q 2581 266 2318 105 
Q 2056 -56 1672 -56 
z
M 1672 409 
Q 1916 409 2073 550 
Q 2231 691 2322 925 
Q 2413 1159 2448 1448 
Q 2484 1738 2484 2038 
Q 2484 2338 2448 2628 
Q 2413 2919 2322 3153 
Q 2231 3388 2073 3527 
Q 1916 3666 1669 3666 
Q 1428 3666 1268 3527 
Q 1109 3388 1020 3153 
Q 931 2919 893 2628 
Q 856 2338 856 2038 
Q 856 1741 893 1450 
Q 931 1159 1020 925 
Q 1109 691 1268 550 
Q 1428 409 1672 409 
z
" transform="scale(0.015625)"/>
       </defs>
       <use xlink:href="#AptosDisplay-30"/>
      </g>
     </g>
    </g>
    <g id="xtick_2">
     <g id="line2d_3">
      <path d="M 207.885446 501.3525 
L 207.885446 57.8325 
" clip-path="url(#p0136bbdede)" style="fill: none; stroke: #b0b0b0; stroke-opacity: 0.8; stroke-linecap: square"/>
     </g>
     <g id="line2d_4">
      <g>
       <use xlink:href="#m4f259d1a1e" x="207.885446" y="501.3525" style="stroke: #000000; stroke-width: 0.8"/>
      </g>
     </g>
     <g id="text_2">
      <!-- 25 -->
      <g transform="translate(197.426071 521.49625) scale(0.2 -0.2)">
       <defs>
        <path id="AptosDisplay-32" d="M 247 0 
L 247 413 
L 1725 1741 
Q 2100 2081 2269 2351 
Q 2438 2622 2438 2938 
Q 2438 3256 2263 3461 
Q 2088 3666 1691 3666 
Q 1247 3666 1055 3439 
Q 863 3213 863 2869 
L 341 2869 
Q 341 3250 491 3534 
Q 641 3819 941 3975 
Q 1241 4131 1691 4131 
Q 2103 4131 2390 3986 
Q 2678 3841 2828 3578 
Q 2978 3316 2978 2959 
Q 2978 2638 2853 2375 
Q 2728 2113 2517 1883 
Q 2306 1653 2044 1425 
L 959 463 
L 3097 463 
L 3097 0 
L 247 0 
z
" transform="scale(0.015625)"/>
        <path id="AptosDisplay-35" d="M 1669 -56 
Q 1278 -56 964 83 
Q 650 222 465 483 
Q 281 744 281 1113 
L 816 1113 
Q 816 778 1055 584 
Q 1294 391 1669 391 
Q 2069 391 2291 625 
Q 2513 859 2513 1319 
Q 2513 1772 2291 1989 
Q 2069 2206 1697 2206 
Q 1409 2206 1223 2123 
Q 1038 2041 916 1894 
L 444 1894 
L 622 4078 
L 2788 4078 
L 2788 3613 
L 1041 3613 
L 931 2322 
Q 1044 2453 1251 2550 
Q 1459 2647 1775 2647 
Q 2131 2647 2420 2506 
Q 2709 2366 2881 2072 
Q 3053 1778 3053 1319 
Q 3053 863 2875 558 
Q 2697 253 2384 98 
Q 2072 -56 1669 -56 
z
" transform="scale(0.015625)"/>
       </defs>
       <use xlink:href="#AptosDisplay-32"/>
       <use xlink:href="#AptosDisplay-35" x="52.294922"/>
      </g>
     </g>
    </g>
    <g id="xtick_3">
     <g id="line2d_5">
      <path d="M 290.4131 501.3525 
L 290.4131 57.8325 
" clip-path="url(#p0136bbdede)" style="fill: none; stroke: #b0b0b0; stroke-opacity: 0.8; stroke-linecap: square"/>
     </g>
     <g id="line2d_6">
      <g>
       <use xlink:href="#m4f259d1a1e" x="290.4131" y="501.3525" style="stroke: #000000; stroke-width: 0.8"/>
      </g>
     </g>
     <g id="text_3">
      <!-- 50 -->
      <g transform="translate(279.953725 521.49625) scale(0.2 -0.2)">
       <use xlink:href="#AptosDisplay-35"/>
       <use xlink:href="#AptosDisplay-30" x="52.294922"/>
      </g>
     </g>
    </g>
    <g id="xtick_4">
     <g id="line2d_7">
      <path d="M 372.940753 501.3525 
L 372.940753 57.8325 
" clip-path="url(#p0136bbdede)" style="fill: none; stroke: #b0b0b0; stroke-opacity: 0.8; stroke-linecap: square"/>
     </g>
     <g id="line2d_8">
      <g>
       <use xlink:href="#m4f259d1a1e" x="372.940753" y="501.3525" style="stroke: #000000; stroke-width: 0.8"/>
      </g>
     </g>
     <g id="text_4">
      <!-- 75 -->
      <g transform="translate(362.481378 521.49625) scale(0.2 -0.2)">
       <defs>
        <path id="AptosDisplay-37" d="M 766 0 
L 2609 3600 
L 194 3600 
L 194 4078 
L 3141 4078 
L 3141 3622 
L 1334 0 
L 766 0 
z
" transform="scale(0.015625)"/>
       </defs>
       <use xlink:href="#AptosDisplay-37"/>
       <use xlink:href="#AptosDisplay-35" x="52.294922"/>
      </g>
     </g>
    </g>
    <g id="xtick_5">
     <g id="line2d_9">
      <path d="M 455.468407 501.3525 
L 455.468407 57.8325 
" clip-path="url(#p0136bbdede)" style="fill: none; stroke: #b0b0b0; stroke-opacity: 0.8; stroke-linecap: square"/>
     </g>
     <g id="line2d_10">
      <g>
       <use xlink:href="#m4f259d1a1e" x="455.468407" y="501.3525" style="stroke: #000000; stroke-width: 0.8"/>
      </g>
     </g>
     <g id="text_5">
      <!-- 100 -->
      <g transform="translate(439.779344 521.49625) scale(0.2 -0.2)">
       <defs>
        <path id="AptosDisplay-31" d="M 1659 0 
L 1659 3425 
Q 1575 3309 1420 3201 
Q 1266 3094 1052 3009 
Q 838 2925 578 2888 
L 578 3381 
Q 834 3425 1057 3540 
Q 1281 3656 1453 3806 
Q 1625 3956 1719 4094 
L 2206 4094 
L 2206 0 
L 1659 0 
z
" transform="scale(0.015625)"/>
       </defs>
       <use xlink:href="#AptosDisplay-31"/>
       <use xlink:href="#AptosDisplay-30" x="52.294922"/>
       <use xlink:href="#AptosDisplay-30" x="104.589844"/>
      </g>
     </g>
    </g>
    <g id="xtick_6">
     <g id="line2d_11">
      <path d="M 537.99606 501.3525 
L 537.99606 57.8325 
" clip-path="url(#p0136bbdede)" style="fill: none; stroke: #b0b0b0; stroke-opacity: 0.8; stroke-linecap: square"/>
     </g>
     <g id="line2d_12">
      <g>
       <use xlink:href="#m4f259d1a1e" x="537.99606" y="501.3525" style="stroke: #000000; stroke-width: 0.8"/>
      </g>
     </g>
     <g id="text_6">
      <!-- 125 -->
      <g transform="translate(522.306998 521.49625) scale(0.2 -0.2)">
       <use xlink:href="#AptosDisplay-31"/>
       <use xlink:href="#AptosDisplay-32" x="52.294922"/>
       <use xlink:href="#AptosDisplay-35" x="104.589844"/>
      </g>
     </g>
    </g>
    <g id="xtick_7">
     <g id="line2d_13">
      <path d="M 620.523714 501.3525 
L 620.523714 57.8325 
" clip-path="url(#p0136bbdede)" style="fill: none; stroke: #b0b0b0; stroke-opacity: 0.8; stroke-linecap: square"/>
     </g>
     <g id="line2d_14">
      <g>
       <use xlink:href="#m4f259d1a1e" x="620.523714" y="501.3525" style="stroke: #000000; stroke-width: 0.8"/>
      </g>
     </g>
     <g id="text_7">
      <!-- 150 -->
      <g transform="translate(604.834651 521.49625) scale(0.2 -0.2)">
       <use xlink:href="#AptosDisplay-31"/>
       <use xlink:href="#AptosDisplay-35" x="52.294922"/>
       <use xlink:href="#AptosDisplay-30" x="104.589844"/>
      </g>
     </g>
    </g>
    <g id="xtick_8">
     <g id="line2d_15">
      <path d="M 703.051367 501.3525 
L 703.051367 57.8325 
" clip-path="url(#p0136bbdede)" style="fill: none; stroke: #b0b0b0; stroke-opacity: 0.8; stroke-linecap: square"/>
     </g>
     <g id="line2d_16">
      <g>
       <use xlink:href="#m4f259d1a1e" x="703.051367" y="501.3525" style="stroke: #000000; stroke-width: 0.8"/>
      </g>
     </g>
     <g id="text_8">
      <!-- 175 -->
      <g transform="translate(687.362305 521.49625) scale(0.2 -0.2)">
       <use xlink:href="#AptosDisplay-31"/>
       <use xlink:href="#AptosDisplay-37" x="52.294922"/>
       <use xlink:href="#AptosDisplay-35" x="104.589844"/>
      </g>
     </g>
    </g>
    <g id="xtick_9">
     <g id="line2d_17">
      <path d="M 108.852262 501.3525 
L 108.852262 57.8325 
" clip-path="url(#p0136bbdede)" style="fill: none; stroke-dasharray: 1.85,0.8; stroke-dashoffset: 0; stroke: #b0b0b0; stroke-opacity: 0.8; stroke-width: 0.5"/>
     </g>
     <g id="line2d_18">
      <defs>
       <path id="md63ea7f14f" d="M 0 0 
L 0 2 
" style="stroke: #000000; stroke-width: 0.6"/>
      </defs>
      <g>
       <use xlink:href="#md63ea7f14f" x="108.852262" y="501.3525" style="stroke: #000000; stroke-width: 0.6"/>
      </g>
     </g>
    </g>
    <g id="xtick_10">
     <g id="line2d_19">
      <path d="M 141.863324 501.3525 
L 141.863324 57.8325 
" clip-path="url(#p0136bbdede)" style="fill: none; stroke-dasharray: 1.85,0.8; stroke-dashoffset: 0; stroke: #b0b0b0; stroke-opacity: 0.8; stroke-width: 0.5"/>
     </g>
     <g id="line2d_20">
      <g>
       <use xlink:href="#md63ea7f14f" x="141.863324" y="501.3525" style="stroke: #000000; stroke-width: 0.6"/>
      </g>
     </g>
    </g>
    <g id="xtick_11">
     <g id="line2d_21">
      <path d="M 158.368854 501.3525 
L 158.368854 57.8325 
" clip-path="url(#p0136bbdede)" style="fill: none; stroke-dasharray: 1.85,0.8; stroke-dashoffset: 0; stroke: #b0b0b0; stroke-opacity: 0.8; stroke-width: 0.5"/>
     </g>
     <g id="line2d_22">
      <g>
       <use xlink:href="#md63ea7f14f" x="158.368854" y="501.3525" style="stroke: #000000; stroke-width: 0.6"/>
      </g>
     </g>
    </g>
    <g id="xtick_12">
     <g id="line2d_23">
      <path d="M 174.874385 501.3525 
L 174.874385 57.8325 
" clip-path="url(#p0136bbdede)" style="fill: none; stroke-dasharray: 1.85,0.8; stroke-dashoffset: 0; stroke: #b0b0b0; stroke-opacity: 0.8; stroke-width: 0.5"/>
     </g>
     <g id="line2d_24">
      <g>
       <use xlink:href="#md63ea7f14f" x="174.874385" y="501.3525" style="stroke: #000000; stroke-width: 0.6"/>
      </g>
     </g>
    </g>
    <g id="xtick_13">
     <g id="line2d_25">
      <path d="M 191.379916 501.3525 
L 191.379916 57.8325 
" clip-path="url(#p0136bbdede)" style="fill: none; stroke-dasharray: 1.85,0.8; stroke-dashoffset: 0; stroke: #b0b0b0; stroke-opacity: 0.8; stroke-width: 0.5"/>
     </g>
     <g id="line2d_26">
      <g>
       <use xlink:href="#md63ea7f14f" x="191.379916" y="501.3525" style="stroke: #000000; stroke-width: 0.6"/>
      </g>
     </g>
    </g>
    <g id="xtick_14">
     <g id="line2d_27">
      <path d="M 224.390977 501.3525 
L 224.390977 57.8325 
" clip-path="url(#p0136bbdede)" style="fill: none; stroke-dasharray: 1.85,0.8; stroke-dashoffset: 0; stroke: #b0b0b0; stroke-opacity: 0.8; stroke-width: 0.5"/>
     </g>
     <g id="line2d_28">
      <g>
       <use xlink:href="#md63ea7f14f" x="224.390977" y="501.3525" style="stroke: #000000; stroke-width: 0.6"/>
      </g>
     </g>
    </g>
    <g id="xtick_15">
     <g id="line2d_29">
      <path d="M 240.896508 501.3525 
L 240.896508 57.8325 
" clip-path="url(#p0136bbdede)" style="fill: none; stroke-dasharray: 1.85,0.8; stroke-dashoffset: 0; stroke: #b0b0b0; stroke-opacity: 0.8; stroke-width: 0.5"/>
     </g>
     <g id="line2d_30">
      <g>
       <use xlink:href="#md63ea7f14f" x="240.896508" y="501.3525" style="stroke: #000000; stroke-width: 0.6"/>
      </g>
     </g>
    </g>
    <g id="xtick_16">
     <g id="line2d_31">
      <path d="M 257.402039 501.3525 
L 257.402039 57.8325 
" clip-path="url(#p0136bbdede)" style="fill: none; stroke-dasharray: 1.85,0.8; stroke-dashoffset: 0; stroke: #b0b0b0; stroke-opacity: 0.8; stroke-width: 0.5"/>
     </g>
     <g id="line2d_32">
      <g>
       <use xlink:href="#md63ea7f14f" x="257.402039" y="501.3525" style="stroke: #000000; stroke-width: 0.6"/>
      </g>
     </g>
    </g>
    <g id="xtick_17">
     <g id="line2d_33">
      <path d="M 273.907569 501.3525 
L 273.907569 57.8325 
" clip-path="url(#p0136bbdede)" style="fill: none; stroke-dasharray: 1.85,0.8; stroke-dashoffset: 0; stroke: #b0b0b0; stroke-opacity: 0.8; stroke-width: 0.5"/>
     </g>
     <g id="line2d_34">
      <g>
       <use xlink:href="#md63ea7f14f" x="273.907569" y="501.3525" style="stroke: #000000; stroke-width: 0.6"/>
      </g>
     </g>
    </g>
    <g id="xtick_18">
     <g id="line2d_35">
      <path d="M 306.918631 501.3525 
L 306.918631 57.8325 
" clip-path="url(#p0136bbdede)" style="fill: none; stroke-dasharray: 1.85,0.8; stroke-dashoffset: 0; stroke: #b0b0b0; stroke-opacity: 0.8; stroke-width: 0.5"/>
     </g>
     <g id="line2d_36">
      <g>
       <use xlink:href="#md63ea7f14f" x="306.918631" y="501.3525" style="stroke: #000000; stroke-width: 0.6"/>
      </g>
     </g>
    </g>
    <g id="xtick_19">
     <g id="line2d_37">
      <path d="M 323.424161 501.3525 
L 323.424161 57.8325 
" clip-path="url(#p0136bbdede)" style="fill: none; stroke-dasharray: 1.85,0.8; stroke-dashoffset: 0; stroke: #b0b0b0; stroke-opacity: 0.8; stroke-width: 0.5"/>
     </g>
     <g id="line2d_38">
      <g>
       <use xlink:href="#md63ea7f14f" x="323.424161" y="501.3525" style="stroke: #000000; stroke-width: 0.6"/>
      </g>
     </g>
    </g>
    <g id="xtick_20">
     <g id="line2d_39">
      <path d="M 339.929692 501.3525 
L 339.929692 57.8325 
" clip-path="url(#p0136bbdede)" style="fill: none; stroke-dasharray: 1.85,0.8; stroke-dashoffset: 0; stroke: #b0b0b0; stroke-opacity: 0.8; stroke-width: 0.5"/>
     </g>
     <g id="line2d_40">
      <g>
       <use xlink:href="#md63ea7f14f" x="339.929692" y="501.3525" style="stroke: #000000; stroke-width: 0.6"/>
      </g>
     </g>
    </g>
    <g id="xtick_21">
     <g id="line2d_41">
      <path d="M 356.435223 501.3525 
L 356.435223 57.8325 
" clip-path="url(#p0136bbdede)" style="fill: none; stroke-dasharray: 1.85,0.8; stroke-dashoffset: 0; stroke: #b0b0b0; stroke-opacity: 0.8; stroke-width: 0.5"/>
     </g>
     <g id="line2d_42">
      <g>
       <use xlink:href="#md63ea7f14f" x="356.435223" y="501.3525" style="stroke: #000000; stroke-width: 0.6"/>
      </g>
     </g>
    </g>
    <g id="xtick_22">
     <g id="line2d_43">
      <path d="M 389.446284 501.3525 
L 389.446284 57.8325 
" clip-path="url(#p0136bbdede)" style="fill: none; stroke-dasharray: 1.85,0.8; stroke-dashoffset: 0; stroke: #b0b0b0; stroke-opacity: 0.8; stroke-width: 0.5"/>
     </g>
     <g id="line2d_44">
      <g>
       <use xlink:href="#md63ea7f14f" x="389.446284" y="501.3525" style="stroke: #000000; stroke-width: 0.6"/>
      </g>
     </g>
    </g>
    <g id="xtick_23">
     <g id="line2d_45">
      <path d="M 405.951815 501.3525 
L 405.951815 57.8325 
" clip-path="url(#p0136bbdede)" style="fill: none; stroke-dasharray: 1.85,0.8; stroke-dashoffset: 0; stroke: #b0b0b0; stroke-opacity: 0.8; stroke-width: 0.5"/>
     </g>
     <g id="line2d_46">
      <g>
       <use xlink:href="#md63ea7f14f" x="405.951815" y="501.3525" style="stroke: #000000; stroke-width: 0.6"/>
      </g>
     </g>
    </g>
    <g id="xtick_24">
     <g id="line2d_47">
      <path d="M 422.457345 501.3525 
L 422.457345 57.8325 
" clip-path="url(#p0136bbdede)" style="fill: none; stroke-dasharray: 1.85,0.8; stroke-dashoffset: 0; stroke: #b0b0b0; stroke-opacity: 0.8; stroke-width: 0.5"/>
     </g>
     <g id="line2d_48">
      <g>
       <use xlink:href="#md63ea7f14f" x="422.457345" y="501.3525" style="stroke: #000000; stroke-width: 0.6"/>
      </g>
     </g>
    </g>
    <g id="xtick_25">
     <g id="line2d_49">
      <path d="M 438.962876 501.3525 
L 438.962876 57.8325 
" clip-path="url(#p0136bbdede)" style="fill: none; stroke-dasharray: 1.85,0.8; stroke-dashoffset: 0; stroke: #b0b0b0; stroke-opacity: 0.8; stroke-width: 0.5"/>
     </g>
     <g id="line2d_50">
      <g>
       <use xlink:href="#md63ea7f14f" x="438.962876" y="501.3525" style="stroke: #000000; stroke-width: 0.6"/>
      </g>
     </g>
    </g>
    <g id="xtick_26">
     <g id="line2d_51">
      <path d="M 471.973937 501.3525 
L 471.973937 57.8325 
" clip-path="url(#p0136bbdede)" style="fill: none; stroke-dasharray: 1.85,0.8; stroke-dashoffset: 0; stroke: #b0b0b0; stroke-opacity: 0.8; stroke-width: 0.5"/>
     </g>
     <g id="line2d_52">
      <g>
       <use xlink:href="#md63ea7f14f" x="471.973937" y="501.3525" style="stroke: #000000; stroke-width: 0.6"/>
      </g>
     </g>
    </g>
    <g id="xtick_27">
     <g id="line2d_53">
      <path d="M 488.479468 501.3525 
L 488.479468 57.8325 
" clip-path="url(#p0136bbdede)" style="fill: none; stroke-dasharray: 1.85,0.8; stroke-dashoffset: 0; stroke: #b0b0b0; stroke-opacity: 0.8; stroke-width: 0.5"/>
     </g>
     <g id="line2d_54">
      <g>
       <use xlink:href="#md63ea7f14f" x="488.479468" y="501.3525" style="stroke: #000000; stroke-width: 0.6"/>
      </g>
     </g>
    </g>
    <g id="xtick_28">
     <g id="line2d_55">
      <path d="M 504.984999 501.3525 
L 504.984999 57.8325 
" clip-path="url(#p0136bbdede)" style="fill: none; stroke-dasharray: 1.85,0.8; stroke-dashoffset: 0; stroke: #b0b0b0; stroke-opacity: 0.8; stroke-width: 0.5"/>
     </g>
     <g id="line2d_56">
      <g>
       <use xlink:href="#md63ea7f14f" x="504.984999" y="501.3525" style="stroke: #000000; stroke-width: 0.6"/>
      </g>
     </g>
    </g>
    <g id="xtick_29">
     <g id="line2d_57">
      <path d="M 521.490529 501.3525 
L 521.490529 57.8325 
" clip-path="url(#p0136bbdede)" style="fill: none; stroke-dasharray: 1.85,0.8; stroke-dashoffset: 0; stroke: #b0b0b0; stroke-opacity: 0.8; stroke-width: 0.5"/>
     </g>
     <g id="line2d_58">
      <g>
       <use xlink:href="#md63ea7f14f" x="521.490529" y="501.3525" style="stroke: #000000; stroke-width: 0.6"/>
      </g>
     </g>
    </g>
    <g id="xtick_30">
     <g id="line2d_59">
      <path d="M 554.501591 501.3525 
L 554.501591 57.8325 
" clip-path="url(#p0136bbdede)" style="fill: none; stroke-dasharray: 1.85,0.8; stroke-dashoffset: 0; stroke: #b0b0b0; stroke-opacity: 0.8; stroke-width: 0.5"/>
     </g>
     <g id="line2d_60">
      <g>
       <use xlink:href="#md63ea7f14f" x="554.501591" y="501.3525" style="stroke: #000000; stroke-width: 0.6"/>
      </g>
     </g>
    </g>
    <g id="xtick_31">
     <g id="line2d_61">
      <path d="M 571.007122 501.3525 
L 571.007122 57.8325 
" clip-path="url(#p0136bbdede)" style="fill: none; stroke-dasharray: 1.85,0.8; stroke-dashoffset: 0; stroke: #b0b0b0; stroke-opacity: 0.8; stroke-width: 0.5"/>
     </g>
     <g id="line2d_62">
      <g>
       <use xlink:href="#md63ea7f14f" x="571.007122" y="501.3525" style="stroke: #000000; stroke-width: 0.6"/>
      </g>
     </g>
    </g>
    <g id="xtick_32">
     <g id="line2d_63">
      <path d="M 587.512652 501.3525 
L 587.512652 57.8325 
" clip-path="url(#p0136bbdede)" style="fill: none; stroke-dasharray: 1.85,0.8; stroke-dashoffset: 0; stroke: #b0b0b0; stroke-opacity: 0.8; stroke-width: 0.5"/>
     </g>
     <g id="line2d_64">
      <g>
       <use xlink:href="#md63ea7f14f" x="587.512652" y="501.3525" style="stroke: #000000; stroke-width: 0.6"/>
      </g>
     </g>
    </g>
    <g id="xtick_33">
     <g id="line2d_65">
      <path d="M 604.018183 501.3525 
L 604.018183 57.8325 
" clip-path="url(#p0136bbdede)" style="fill: none; stroke-dasharray: 1.85,0.8; stroke-dashoffset: 0; stroke: #b0b0b0; stroke-opacity: 0.8; stroke-width: 0.5"/>
     </g>
     <g id="line2d_66">
      <g>
       <use xlink:href="#md63ea7f14f" x="604.018183" y="501.3525" style="stroke: #000000; stroke-width: 0.6"/>
      </g>
     </g>
    </g>
    <g id="xtick_34">
     <g id="line2d_67">
      <path d="M 637.029244 501.3525 
L 637.029244 57.8325 
" clip-path="url(#p0136bbdede)" style="fill: none; stroke-dasharray: 1.85,0.8; stroke-dashoffset: 0; stroke: #b0b0b0; stroke-opacity: 0.8; stroke-width: 0.5"/>
     </g>
     <g id="line2d_68">
      <g>
       <use xlink:href="#md63ea7f14f" x="637.029244" y="501.3525" style="stroke: #000000; stroke-width: 0.6"/>
      </g>
     </g>
    </g>
    <g id="xtick_35">
     <g id="line2d_69">
      <path d="M 653.534775 501.3525 
L 653.534775 57.8325 
" clip-path="url(#p0136bbdede)" style="fill: none; stroke-dasharray: 1.85,0.8; stroke-dashoffset: 0; stroke: #b0b0b0; stroke-opacity: 0.8; stroke-width: 0.5"/>
     </g>
     <g id="line2d_70">
      <g>
       <use xlink:href="#md63ea7f14f" x="653.534775" y="501.3525" style="stroke: #000000; stroke-width: 0.6"/>
      </g>
     </g>
    </g>
    <g id="xtick_36">
     <g id="line2d_71">
      <path d="M 670.040306 501.3525 
L 670.040306 57.8325 
" clip-path="url(#p0136bbdede)" style="fill: none; stroke-dasharray: 1.85,0.8; stroke-dashoffset: 0; stroke: #b0b0b0; stroke-opacity: 0.8; stroke-width: 0.5"/>
     </g>
     <g id="line2d_72">
      <g>
       <use xlink:href="#md63ea7f14f" x="670.040306" y="501.3525" style="stroke: #000000; stroke-width: 0.6"/>
      </g>
     </g>
    </g>
    <g id="xtick_37">
     <g id="line2d_73">
      <path d="M 686.545836 501.3525 
L 686.545836 57.8325 
" clip-path="url(#p0136bbdede)" style="fill: none; stroke-dasharray: 1.85,0.8; stroke-dashoffset: 0; stroke: #b0b0b0; stroke-opacity: 0.8; stroke-width: 0.5"/>
     </g>
     <g id="line2d_74">
      <g>
       <use xlink:href="#md63ea7f14f" x="686.545836" y="501.3525" style="stroke: #000000; stroke-width: 0.6"/>
      </g>
     </g>
    </g>
    <g id="xtick_38">
     <g id="line2d_75">
      <path d="M 719.556898 501.3525 
L 719.556898 57.8325 
" clip-path="url(#p0136bbdede)" style="fill: none; stroke-dasharray: 1.85,0.8; stroke-dashoffset: 0; stroke: #b0b0b0; stroke-opacity: 0.8; stroke-width: 0.5"/>
     </g>
     <g id="line2d_76">
      <g>
       <use xlink:href="#md63ea7f14f" x="719.556898" y="501.3525" style="stroke: #000000; stroke-width: 0.6"/>
      </g>
     </g>
    </g>
    <g id="xtick_39">
     <g id="line2d_77">
      <path d="M 736.062428 501.3525 
L 736.062428 57.8325 
" clip-path="url(#p0136bbdede)" style="fill: none; stroke-dasharray: 1.85,0.8; stroke-dashoffset: 0; stroke: #b0b0b0; stroke-opacity: 0.8; stroke-width: 0.5"/>
     </g>
     <g id="line2d_78">
      <g>
       <use xlink:href="#md63ea7f14f" x="736.062428" y="501.3525" style="stroke: #000000; stroke-width: 0.6"/>
      </g>
     </g>
    </g>
    <g id="xtick_40">
     <g id="line2d_79">
      <path d="M 752.567959 501.3525 
L 752.567959 57.8325 
" clip-path="url(#p0136bbdede)" style="fill: none; stroke-dasharray: 1.85,0.8; stroke-dashoffset: 0; stroke: #b0b0b0; stroke-opacity: 0.8; stroke-width: 0.5"/>
     </g>
     <g id="line2d_80">
      <g>
       <use xlink:href="#md63ea7f14f" x="752.567959" y="501.3525" style="stroke: #000000; stroke-width: 0.6"/>
      </g>
     </g>
    </g>
    <g id="text_9">
     <!-- Time (S) -->
     <g transform="translate(396.990625 542.305625) scale(0.2 -0.2)">
      <defs>
       <path id="AptosDisplay-54" d="M 1244 0 
L 1244 3734 
L 50 3734 
L 50 4206 
L 2997 4206 
L 2997 3734 
L 1806 3734 
L 1806 0 
L 1244 0 
z
" transform="scale(0.015625)"/>
       <path id="AptosDisplay-69" d="M 413 0 
L 413 3044 
L 934 3044 
L 934 0 
L 413 0 
z
M 675 3616 
Q 525 3616 437 3702 
Q 350 3788 350 3919 
Q 350 4050 437 4136 
Q 525 4222 675 4222 
Q 822 4222 912 4136 
Q 1003 4050 1003 3919 
Q 1003 3788 912 3702 
Q 822 3616 675 3616 
z
" transform="scale(0.015625)"/>
       <path id="AptosDisplay-6d" d="M 413 0 
L 413 3044 
L 919 3044 
L 931 2575 
Q 1063 2756 1303 2914 
Q 1544 3072 1903 3072 
Q 2403 3072 2618 2778 
Q 2834 2484 2834 1963 
L 2834 0 
L 2316 0 
L 2316 1891 
Q 2316 2106 2275 2275 
Q 2234 2444 2120 2539 
Q 2006 2634 1788 2634 
Q 1488 2634 1277 2482 
Q 1066 2331 934 2156 
L 934 0 
L 413 0 
z
M 4206 0 
L 4206 1891 
Q 4206 2106 4164 2275 
Q 4122 2444 4009 2539 
Q 3897 2634 3681 2634 
Q 3381 2634 3165 2484 
Q 2950 2334 2822 2159 
L 2744 2544 
Q 2916 2741 3175 2906 
Q 3434 3072 3800 3072 
Q 4291 3072 4509 2778 
Q 4728 2484 4728 1963 
L 4728 0 
L 4206 0 
z
" transform="scale(0.015625)"/>
       <path id="AptosDisplay-65" d="M 1663 -56 
Q 1188 -56 878 151 
Q 569 359 417 717 
Q 266 1075 266 1522 
Q 266 1988 412 2342 
Q 559 2697 857 2897 
Q 1156 3097 1606 3097 
Q 2209 3097 2550 2722 
Q 2891 2347 2891 1644 
Q 2891 1597 2889 1533 
Q 2888 1469 2881 1441 
L 791 1441 
Q 794 1144 881 895 
Q 969 647 1161 497 
Q 1353 347 1663 347 
Q 1997 347 2183 511 
Q 2369 675 2378 984 
L 2894 984 
Q 2884 663 2732 430 
Q 2581 197 2309 70 
Q 2038 -56 1663 -56 
z
M 794 1822 
L 2375 1822 
Q 2366 2247 2166 2472 
Q 1966 2697 1606 2697 
Q 1241 2697 1036 2473 
Q 831 2250 794 1822 
z
" transform="scale(0.015625)"/>
       <path id="AptosDisplay-20" transform="scale(0.015625)"/>
       <path id="AptosDisplay-28" d="M 1219 -1116 
Q 969 -678 787 -267 
Q 606 144 511 581 
Q 416 1019 416 1528 
Q 416 2028 509 2486 
Q 603 2944 783 3378 
Q 963 3813 1219 4231 
L 1647 4231 
Q 1278 3600 1101 2886 
Q 925 2172 925 1428 
Q 925 766 1125 103 
Q 1325 -559 1647 -1116 
L 1219 -1116 
z
" transform="scale(0.015625)"/>
       <path id="AptosDisplay-53" d="M 1778 -56 
Q 1328 -56 962 81 
Q 597 219 384 512 
Q 172 806 172 1275 
L 734 1275 
Q 738 941 883 750 
Q 1028 559 1267 481 
Q 1506 403 1794 403 
Q 2063 403 2283 483 
Q 2503 563 2634 723 
Q 2766 884 2766 1134 
Q 2766 1356 2662 1497 
Q 2559 1638 2321 1742 
Q 2084 1847 1678 1950 
Q 1203 2075 897 2223 
Q 591 2372 442 2594 
Q 294 2816 294 3156 
Q 294 3516 462 3761 
Q 631 4006 945 4134 
Q 1259 4263 1697 4263 
Q 2103 4263 2440 4131 
Q 2778 4000 2979 3737 
Q 3181 3475 3181 3084 
L 2616 3084 
Q 2622 3441 2356 3623 
Q 2091 3806 1700 3806 
Q 1300 3806 1073 3645 
Q 847 3484 847 3175 
Q 847 2991 944 2867 
Q 1041 2744 1280 2644 
Q 1519 2544 1941 2434 
Q 2428 2303 2731 2153 
Q 3034 2003 3178 1768 
Q 3322 1534 3322 1153 
Q 3322 747 3117 480 
Q 2913 213 2564 78 
Q 2216 -56 1778 -56 
z
" transform="scale(0.015625)"/>
       <path id="AptosDisplay-29" d="M 234 -1116 
Q 609 -481 786 233 
Q 963 947 963 1694 
Q 963 2356 759 3015 
Q 556 3675 234 4231 
L 663 4231 
Q 919 3800 1098 3389 
Q 1278 2978 1373 2540 
Q 1469 2103 1469 1594 
Q 1469 1094 1375 634 
Q 1281 175 1100 -259 
Q 919 -694 663 -1116 
L 234 -1116 
z
" transform="scale(0.015625)"/>
      </defs>
      <use xlink:href="#AptosDisplay-54"/>
      <use xlink:href="#AptosDisplay-69" x="47.705078"/>
      <use xlink:href="#AptosDisplay-6d" x="68.75"/>
      <use xlink:href="#AptosDisplay-65" x="148.730469"/>
      <use xlink:href="#AptosDisplay-20" x="198.144531"/>
      <use xlink:href="#AptosDisplay-28" x="217.431641"/>
      <use xlink:href="#AptosDisplay-53" x="246.875"/>
      <use xlink:href="#AptosDisplay-29" x="301.464844"/>
     </g>
    </g>
   </g>
   <g id="matplotlib.axis_2">
    <g id="ytick_1">
     <g id="line2d_81">
      <path d="M 95.28125 487.857778 
L 764.88125 487.857778 
" clip-path="url(#p0136bbdede)" style="fill: none; stroke: #b0b0b0; stroke-opacity: 0.8; stroke-linecap: square"/>
     </g>
     <g id="line2d_82">
      <defs>
       <path id="m44ce7e7fac" d="M 0 0 
L -3.5 0 
" style="stroke: #000000; stroke-width: 0.8"/>
      </defs>
      <g>
       <use xlink:href="#m44ce7e7fac" x="95.28125" y="487.857778" style="stroke: #000000; stroke-width: 0.8"/>
      </g>
     </g>
     <g id="text_10">
      <!-- 830 -->
      <g transform="translate(56.903125 494.429653) scale(0.2 -0.2)">
       <defs>
        <path id="AptosDisplay-38" d="M 1675 -56 
Q 1391 -56 1137 16 
Q 884 88 686 234 
Q 488 381 373 606 
Q 259 831 259 1141 
Q 259 1531 495 1797 
Q 731 2063 1084 2150 
Q 781 2250 604 2490 
Q 428 2731 428 3081 
Q 428 3447 609 3681 
Q 791 3916 1075 4025 
Q 1359 4134 1669 4134 
Q 1981 4134 2265 4023 
Q 2550 3913 2733 3680 
Q 2916 3447 2916 3081 
Q 2916 2725 2716 2481 
Q 2516 2238 2238 2150 
Q 2606 2063 2843 1800 
Q 3081 1538 3081 1141 
Q 3081 831 2968 606 
Q 2856 381 2661 234 
Q 2466 88 2211 16 
Q 1956 -56 1675 -56 
z
M 1672 388 
Q 1909 388 2109 470 
Q 2309 553 2429 725 
Q 2550 897 2550 1163 
Q 2550 1416 2426 1587 
Q 2303 1759 2104 1846 
Q 1906 1934 1672 1928 
Q 1453 1934 1253 1850 
Q 1053 1766 926 1594 
Q 800 1422 800 1163 
Q 800 775 1058 581 
Q 1316 388 1672 388 
z
M 1672 2363 
Q 1863 2356 2030 2434 
Q 2197 2513 2300 2667 
Q 2403 2822 2403 3050 
Q 2403 3388 2189 3544 
Q 1975 3700 1675 3700 
Q 1484 3700 1317 3631 
Q 1150 3563 1047 3419 
Q 944 3275 944 3050 
Q 944 2825 1048 2670 
Q 1153 2516 1320 2436 
Q 1488 2356 1672 2363 
z
" transform="scale(0.015625)"/>
        <path id="AptosDisplay-33" d="M 1700 -56 
Q 1047 -56 655 275 
Q 263 606 263 1225 
L 781 1225 
Q 781 844 1023 617 
Q 1266 391 1697 391 
Q 2094 391 2322 581 
Q 2550 772 2550 1172 
Q 2550 1556 2297 1737 
Q 2044 1919 1609 1919 
L 1366 1919 
L 1366 2363 
L 1622 2363 
Q 2013 2363 2222 2555 
Q 2431 2747 2431 3066 
Q 2431 3372 2226 3526 
Q 2022 3681 1684 3681 
Q 1306 3681 1095 3481 
Q 884 3281 891 2956 
L 372 2956 
Q 372 3319 536 3583 
Q 700 3847 995 3990 
Q 1291 4134 1681 4134 
Q 2031 4134 2318 4017 
Q 2606 3900 2778 3670 
Q 2950 3441 2950 3097 
Q 2950 2738 2745 2498 
Q 2541 2259 2206 2166 
Q 2591 2097 2841 1836 
Q 3091 1575 3091 1150 
Q 3091 763 2916 494 
Q 2741 225 2428 84 
Q 2116 -56 1700 -56 
z
" transform="scale(0.015625)"/>
       </defs>
       <use xlink:href="#AptosDisplay-38"/>
       <use xlink:href="#AptosDisplay-33" x="52.294922"/>
       <use xlink:href="#AptosDisplay-30" x="104.589844"/>
      </g>
     </g>
    </g>
    <g id="ytick_2">
     <g id="line2d_83">
      <path d="M 95.28125 422.06036 
L 764.88125 422.06036 
" clip-path="url(#p0136bbdede)" style="fill: none; stroke: #b0b0b0; stroke-opacity: 0.8; stroke-linecap: square"/>
     </g>
     <g id="line2d_84">
      <g>
       <use xlink:href="#m44ce7e7fac" x="95.28125" y="422.06036" style="stroke: #000000; stroke-width: 0.8"/>
      </g>
     </g>
     <g id="text_11">
      <!-- 840 -->
      <g transform="translate(56.903125 428.632235) scale(0.2 -0.2)">
       <defs>
        <path id="AptosDisplay-34" d="M 2106 0 
L 2106 825 
L 125 825 
L 125 1297 
L 2100 4103 
L 2631 4103 
L 2631 1284 
L 3191 1284 
L 3191 825 
L 2631 825 
L 2631 0 
L 2106 0 
z
M 638 1284 
L 2113 1284 
L 2113 3369 
L 638 1284 
z
" transform="scale(0.015625)"/>
       </defs>
       <use xlink:href="#AptosDisplay-38"/>
       <use xlink:href="#AptosDisplay-34" x="52.294922"/>
       <use xlink:href="#AptosDisplay-30" x="104.589844"/>
      </g>
     </g>
    </g>
    <g id="ytick_3">
     <g id="line2d_85">
      <path d="M 95.28125 356.262942 
L 764.88125 356.262942 
" clip-path="url(#p0136bbdede)" style="fill: none; stroke: #b0b0b0; stroke-opacity: 0.8; stroke-linecap: square"/>
     </g>
     <g id="line2d_86">
      <g>
       <use xlink:href="#m44ce7e7fac" x="95.28125" y="356.262942" style="stroke: #000000; stroke-width: 0.8"/>
      </g>
     </g>
     <g id="text_12">
      <!-- 850 -->
      <g transform="translate(56.903125 362.834817) scale(0.2 -0.2)">
       <use xlink:href="#AptosDisplay-38"/>
       <use xlink:href="#AptosDisplay-35" x="52.294922"/>
       <use xlink:href="#AptosDisplay-30" x="104.589844"/>
      </g>
     </g>
    </g>
    <g id="ytick_4">
     <g id="line2d_87">
      <path d="M 95.28125 290.465523 
L 764.88125 290.465523 
" clip-path="url(#p0136bbdede)" style="fill: none; stroke: #b0b0b0; stroke-opacity: 0.8; stroke-linecap: square"/>
     </g>
     <g id="line2d_88">
      <g>
       <use xlink:href="#m44ce7e7fac" x="95.28125" y="290.465523" style="stroke: #000000; stroke-width: 0.8"/>
      </g>
     </g>
     <g id="text_13">
      <!-- 860 -->
      <g transform="translate(56.903125 297.037398) scale(0.2 -0.2)">
       <defs>
        <path id="AptosDisplay-36" d="M 1759 -56 
Q 1325 -56 984 151 
Q 644 359 447 815 
Q 250 1272 250 2013 
Q 250 2738 439 3206 
Q 628 3675 968 3903 
Q 1309 4131 1759 4131 
Q 2253 4131 2595 3875 
Q 2938 3619 3034 3097 
L 2503 3097 
Q 2441 3388 2250 3534 
Q 2059 3681 1759 3681 
Q 1306 3681 1047 3279 
Q 788 2878 788 2013 
L 788 1850 
Q 788 1313 922 992 
Q 1056 672 1279 531 
Q 1503 391 1763 391 
Q 2175 391 2369 644 
Q 2563 897 2563 1272 
Q 2563 1650 2373 1869 
Q 2184 2088 1838 2088 
Q 1422 2088 1114 1897 
Q 806 1706 644 1456 
L 597 1856 
Q 728 2047 922 2201 
Q 1116 2356 1362 2447 
Q 1609 2538 1909 2538 
Q 2253 2538 2523 2395 
Q 2794 2253 2951 1975 
Q 3109 1697 3109 1291 
Q 3109 897 2951 592 
Q 2794 288 2492 116 
Q 2191 -56 1759 -56 
z
" transform="scale(0.015625)"/>
       </defs>
       <use xlink:href="#AptosDisplay-38"/>
       <use xlink:href="#AptosDisplay-36" x="52.294922"/>
       <use xlink:href="#AptosDisplay-30" x="104.589844"/>
      </g>
     </g>
    </g>
    <g id="ytick_5">
     <g id="line2d_89">
      <path d="M 95.28125 224.668105 
L 764.88125 224.668105 
" clip-path="url(#p0136bbdede)" style="fill: none; stroke: #b0b0b0; stroke-opacity: 0.8; stroke-linecap: square"/>
     </g>
     <g id="line2d_90">
      <g>
       <use xlink:href="#m44ce7e7fac" x="95.28125" y="224.668105" style="stroke: #000000; stroke-width: 0.8"/>
      </g>
     </g>
     <g id="text_14">
      <!-- 870 -->
      <g transform="translate(56.903125 231.23998) scale(0.2 -0.2)">
       <use xlink:href="#AptosDisplay-38"/>
       <use xlink:href="#AptosDisplay-37" x="52.294922"/>
       <use xlink:href="#AptosDisplay-30" x="104.589844"/>
      </g>
     </g>
    </g>
    <g id="ytick_6">
     <g id="line2d_91">
      <path d="M 95.28125 158.870687 
L 764.88125 158.870687 
" clip-path="url(#p0136bbdede)" style="fill: none; stroke: #b0b0b0; stroke-opacity: 0.8; stroke-linecap: square"/>
     </g>
     <g id="line2d_92">
      <g>
       <use xlink:href="#m44ce7e7fac" x="95.28125" y="158.870687" style="stroke: #000000; stroke-width: 0.8"/>
      </g>
     </g>
     <g id="text_15">
      <!-- 880 -->
      <g transform="translate(56.903125 165.442562) scale(0.2 -0.2)">
       <use xlink:href="#AptosDisplay-38"/>
       <use xlink:href="#AptosDisplay-38" x="52.294922"/>
       <use xlink:href="#AptosDisplay-30" x="104.589844"/>
      </g>
     </g>
    </g>
    <g id="ytick_7">
     <g id="line2d_93">
      <path d="M 95.28125 93.073268 
L 764.88125 93.073268 
" clip-path="url(#p0136bbdede)" style="fill: none; stroke: #b0b0b0; stroke-opacity: 0.8; stroke-linecap: square"/>
     </g>
     <g id="line2d_94">
      <g>
       <use xlink:href="#m44ce7e7fac" x="95.28125" y="93.073268" style="stroke: #000000; stroke-width: 0.8"/>
      </g>
     </g>
     <g id="text_16">
      <!-- 890 -->
      <g transform="translate(56.903125 99.645143) scale(0.2 -0.2)">
       <defs>
        <path id="AptosDisplay-39" d="M 1547 -56 
Q 1200 -56 926 64 
Q 653 184 481 415 
Q 309 647 256 978 
L 788 978 
Q 834 713 1029 552 
Q 1225 391 1547 391 
Q 2022 391 2294 778 
Q 2566 1166 2566 2019 
L 2566 2197 
Q 2566 2753 2439 3079 
Q 2313 3406 2102 3547 
Q 1891 3688 1634 3688 
Q 1206 3688 998 3433 
Q 791 3178 791 2800 
Q 791 2422 991 2203 
Q 1191 1984 1547 1984 
Q 1831 1984 2045 2071 
Q 2259 2159 2417 2300 
Q 2575 2441 2681 2594 
L 2731 2209 
Q 2609 2038 2432 1884 
Q 2256 1731 2020 1634 
Q 1784 1538 1484 1538 
Q 1122 1538 842 1683 
Q 563 1828 405 2108 
Q 247 2388 247 2784 
Q 247 3175 414 3479 
Q 581 3784 892 3959 
Q 1203 4134 1631 4134 
Q 2056 4134 2389 3926 
Q 2722 3719 2914 3262 
Q 3106 2806 3106 2066 
Q 3106 1338 2912 869 
Q 2719 400 2369 172 
Q 2019 -56 1547 -56 
z
" transform="scale(0.015625)"/>
       </defs>
       <use xlink:href="#AptosDisplay-38"/>
       <use xlink:href="#AptosDisplay-39" x="52.294922"/>
       <use xlink:href="#AptosDisplay-30" x="104.589844"/>
      </g>
     </g>
    </g>
    <g id="ytick_8">
     <g id="line2d_95">
      <path d="M 95.28125 501.017262 
L 764.88125 501.017262 
" clip-path="url(#p0136bbdede)" style="fill: none; stroke-dasharray: 1.85,0.8; stroke-dashoffset: 0; stroke: #b0b0b0; stroke-opacity: 0.8; stroke-width: 0.5"/>
     </g>
     <g id="line2d_96">
      <defs>
       <path id="m28ee3c6f97" d="M 0 0 
L -2 0 
" style="stroke: #000000; stroke-width: 0.6"/>
      </defs>
      <g>
       <use xlink:href="#m28ee3c6f97" x="95.28125" y="501.017262" style="stroke: #000000; stroke-width: 0.6"/>
      </g>
     </g>
    </g>
    <g id="ytick_9">
     <g id="line2d_97">
      <path d="M 95.28125 474.698295 
L 764.88125 474.698295 
" clip-path="url(#p0136bbdede)" style="fill: none; stroke-dasharray: 1.85,0.8; stroke-dashoffset: 0; stroke: #b0b0b0; stroke-opacity: 0.8; stroke-width: 0.5"/>
     </g>
     <g id="line2d_98">
      <g>
       <use xlink:href="#m28ee3c6f97" x="95.28125" y="474.698295" style="stroke: #000000; stroke-width: 0.6"/>
      </g>
     </g>
    </g>
    <g id="ytick_10">
     <g id="line2d_99">
      <path d="M 95.28125 461.538811 
L 764.88125 461.538811 
" clip-path="url(#p0136bbdede)" style="fill: none; stroke-dasharray: 1.85,0.8; stroke-dashoffset: 0; stroke: #b0b0b0; stroke-opacity: 0.8; stroke-width: 0.5"/>
     </g>
     <g id="line2d_100">
      <g>
       <use xlink:href="#m28ee3c6f97" x="95.28125" y="461.538811" style="stroke: #000000; stroke-width: 0.6"/>
      </g>
     </g>
    </g>
    <g id="ytick_11">
     <g id="line2d_101">
      <path d="M 95.28125 448.379327 
L 764.88125 448.379327 
" clip-path="url(#p0136bbdede)" style="fill: none; stroke-dasharray: 1.85,0.8; stroke-dashoffset: 0; stroke: #b0b0b0; stroke-opacity: 0.8; stroke-width: 0.5"/>
     </g>
     <g id="line2d_102">
      <g>
       <use xlink:href="#m28ee3c6f97" x="95.28125" y="448.379327" style="stroke: #000000; stroke-width: 0.6"/>
      </g>
     </g>
    </g>
    <g id="ytick_12">
     <g id="line2d_103">
      <path d="M 95.28125 435.219844 
L 764.88125 435.219844 
" clip-path="url(#p0136bbdede)" style="fill: none; stroke-dasharray: 1.85,0.8; stroke-dashoffset: 0; stroke: #b0b0b0; stroke-opacity: 0.8; stroke-width: 0.5"/>
     </g>
     <g id="line2d_104">
      <g>
       <use xlink:href="#m28ee3c6f97" x="95.28125" y="435.219844" style="stroke: #000000; stroke-width: 0.6"/>
      </g>
     </g>
    </g>
    <g id="ytick_13">
     <g id="line2d_105">
      <path d="M 95.28125 408.900876 
L 764.88125 408.900876 
" clip-path="url(#p0136bbdede)" style="fill: none; stroke-dasharray: 1.85,0.8; stroke-dashoffset: 0; stroke: #b0b0b0; stroke-opacity: 0.8; stroke-width: 0.5"/>
     </g>
     <g id="line2d_106">
      <g>
       <use xlink:href="#m28ee3c6f97" x="95.28125" y="408.900876" style="stroke: #000000; stroke-width: 0.6"/>
      </g>
     </g>
    </g>
    <g id="ytick_14">
     <g id="line2d_107">
      <path d="M 95.28125 395.741393 
L 764.88125 395.741393 
" clip-path="url(#p0136bbdede)" style="fill: none; stroke-dasharray: 1.85,0.8; stroke-dashoffset: 0; stroke: #b0b0b0; stroke-opacity: 0.8; stroke-width: 0.5"/>
     </g>
     <g id="line2d_108">
      <g>
       <use xlink:href="#m28ee3c6f97" x="95.28125" y="395.741393" style="stroke: #000000; stroke-width: 0.6"/>
      </g>
     </g>
    </g>
    <g id="ytick_15">
     <g id="line2d_109">
      <path d="M 95.28125 382.581909 
L 764.88125 382.581909 
" clip-path="url(#p0136bbdede)" style="fill: none; stroke-dasharray: 1.85,0.8; stroke-dashoffset: 0; stroke: #b0b0b0; stroke-opacity: 0.8; stroke-width: 0.5"/>
     </g>
     <g id="line2d_110">
      <g>
       <use xlink:href="#m28ee3c6f97" x="95.28125" y="382.581909" style="stroke: #000000; stroke-width: 0.6"/>
      </g>
     </g>
    </g>
    <g id="ytick_16">
     <g id="line2d_111">
      <path d="M 95.28125 369.422425 
L 764.88125 369.422425 
" clip-path="url(#p0136bbdede)" style="fill: none; stroke-dasharray: 1.85,0.8; stroke-dashoffset: 0; stroke: #b0b0b0; stroke-opacity: 0.8; stroke-width: 0.5"/>
     </g>
     <g id="line2d_112">
      <g>
       <use xlink:href="#m28ee3c6f97" x="95.28125" y="369.422425" style="stroke: #000000; stroke-width: 0.6"/>
      </g>
     </g>
    </g>
    <g id="ytick_17">
     <g id="line2d_113">
      <path d="M 95.28125 343.103458 
L 764.88125 343.103458 
" clip-path="url(#p0136bbdede)" style="fill: none; stroke-dasharray: 1.85,0.8; stroke-dashoffset: 0; stroke: #b0b0b0; stroke-opacity: 0.8; stroke-width: 0.5"/>
     </g>
     <g id="line2d_114">
      <g>
       <use xlink:href="#m28ee3c6f97" x="95.28125" y="343.103458" style="stroke: #000000; stroke-width: 0.6"/>
      </g>
     </g>
    </g>
    <g id="ytick_18">
     <g id="line2d_115">
      <path d="M 95.28125 329.943974 
L 764.88125 329.943974 
" clip-path="url(#p0136bbdede)" style="fill: none; stroke-dasharray: 1.85,0.8; stroke-dashoffset: 0; stroke: #b0b0b0; stroke-opacity: 0.8; stroke-width: 0.5"/>
     </g>
     <g id="line2d_116">
      <g>
       <use xlink:href="#m28ee3c6f97" x="95.28125" y="329.943974" style="stroke: #000000; stroke-width: 0.6"/>
      </g>
     </g>
    </g>
    <g id="ytick_19">
     <g id="line2d_117">
      <path d="M 95.28125 316.784491 
L 764.88125 316.784491 
" clip-path="url(#p0136bbdede)" style="fill: none; stroke-dasharray: 1.85,0.8; stroke-dashoffset: 0; stroke: #b0b0b0; stroke-opacity: 0.8; stroke-width: 0.5"/>
     </g>
     <g id="line2d_118">
      <g>
       <use xlink:href="#m28ee3c6f97" x="95.28125" y="316.784491" style="stroke: #000000; stroke-width: 0.6"/>
      </g>
     </g>
    </g>
    <g id="ytick_20">
     <g id="line2d_119">
      <path d="M 95.28125 303.625007 
L 764.88125 303.625007 
" clip-path="url(#p0136bbdede)" style="fill: none; stroke-dasharray: 1.85,0.8; stroke-dashoffset: 0; stroke: #b0b0b0; stroke-opacity: 0.8; stroke-width: 0.5"/>
     </g>
     <g id="line2d_120">
      <g>
       <use xlink:href="#m28ee3c6f97" x="95.28125" y="303.625007" style="stroke: #000000; stroke-width: 0.6"/>
      </g>
     </g>
    </g>
    <g id="ytick_21">
     <g id="line2d_121">
      <path d="M 95.28125 277.30604 
L 764.88125 277.30604 
" clip-path="url(#p0136bbdede)" style="fill: none; stroke-dasharray: 1.85,0.8; stroke-dashoffset: 0; stroke: #b0b0b0; stroke-opacity: 0.8; stroke-width: 0.5"/>
     </g>
     <g id="line2d_122">
      <g>
       <use xlink:href="#m28ee3c6f97" x="95.28125" y="277.30604" style="stroke: #000000; stroke-width: 0.6"/>
      </g>
     </g>
    </g>
    <g id="ytick_22">
     <g id="line2d_123">
      <path d="M 95.28125 264.146556 
L 764.88125 264.146556 
" clip-path="url(#p0136bbdede)" style="fill: none; stroke-dasharray: 1.85,0.8; stroke-dashoffset: 0; stroke: #b0b0b0; stroke-opacity: 0.8; stroke-width: 0.5"/>
     </g>
     <g id="line2d_124">
      <g>
       <use xlink:href="#m28ee3c6f97" x="95.28125" y="264.146556" style="stroke: #000000; stroke-width: 0.6"/>
      </g>
     </g>
    </g>
    <g id="ytick_23">
     <g id="line2d_125">
      <path d="M 95.28125 250.987072 
L 764.88125 250.987072 
" clip-path="url(#p0136bbdede)" style="fill: none; stroke-dasharray: 1.85,0.8; stroke-dashoffset: 0; stroke: #b0b0b0; stroke-opacity: 0.8; stroke-width: 0.5"/>
     </g>
     <g id="line2d_126">
      <g>
       <use xlink:href="#m28ee3c6f97" x="95.28125" y="250.987072" style="stroke: #000000; stroke-width: 0.6"/>
      </g>
     </g>
    </g>
    <g id="ytick_24">
     <g id="line2d_127">
      <path d="M 95.28125 237.827589 
L 764.88125 237.827589 
" clip-path="url(#p0136bbdede)" style="fill: none; stroke-dasharray: 1.85,0.8; stroke-dashoffset: 0; stroke: #b0b0b0; stroke-opacity: 0.8; stroke-width: 0.5"/>
     </g>
     <g id="line2d_128">
      <g>
       <use xlink:href="#m28ee3c6f97" x="95.28125" y="237.827589" style="stroke: #000000; stroke-width: 0.6"/>
      </g>
     </g>
    </g>
    <g id="ytick_25">
     <g id="line2d_129">
      <path d="M 95.28125 211.508621 
L 764.88125 211.508621 
" clip-path="url(#p0136bbdede)" style="fill: none; stroke-dasharray: 1.85,0.8; stroke-dashoffset: 0; stroke: #b0b0b0; stroke-opacity: 0.8; stroke-width: 0.5"/>
     </g>
     <g id="line2d_130">
      <g>
       <use xlink:href="#m28ee3c6f97" x="95.28125" y="211.508621" style="stroke: #000000; stroke-width: 0.6"/>
      </g>
     </g>
    </g>
    <g id="ytick_26">
     <g id="line2d_131">
      <path d="M 95.28125 198.349138 
L 764.88125 198.349138 
" clip-path="url(#p0136bbdede)" style="fill: none; stroke-dasharray: 1.85,0.8; stroke-dashoffset: 0; stroke: #b0b0b0; stroke-opacity: 0.8; stroke-width: 0.5"/>
     </g>
     <g id="line2d_132">
      <g>
       <use xlink:href="#m28ee3c6f97" x="95.28125" y="198.349138" style="stroke: #000000; stroke-width: 0.6"/>
      </g>
     </g>
    </g>
    <g id="ytick_27">
     <g id="line2d_133">
      <path d="M 95.28125 185.189654 
L 764.88125 185.189654 
" clip-path="url(#p0136bbdede)" style="fill: none; stroke-dasharray: 1.85,0.8; stroke-dashoffset: 0; stroke: #b0b0b0; stroke-opacity: 0.8; stroke-width: 0.5"/>
     </g>
     <g id="line2d_134">
      <g>
       <use xlink:href="#m28ee3c6f97" x="95.28125" y="185.189654" style="stroke: #000000; stroke-width: 0.6"/>
      </g>
     </g>
    </g>
    <g id="ytick_28">
     <g id="line2d_135">
      <path d="M 95.28125 172.03017 
L 764.88125 172.03017 
" clip-path="url(#p0136bbdede)" style="fill: none; stroke-dasharray: 1.85,0.8; stroke-dashoffset: 0; stroke: #b0b0b0; stroke-opacity: 0.8; stroke-width: 0.5"/>
     </g>
     <g id="line2d_136">
      <g>
       <use xlink:href="#m28ee3c6f97" x="95.28125" y="172.03017" style="stroke: #000000; stroke-width: 0.6"/>
      </g>
     </g>
    </g>
    <g id="ytick_29">
     <g id="line2d_137">
      <path d="M 95.28125 145.711203 
L 764.88125 145.711203 
" clip-path="url(#p0136bbdede)" style="fill: none; stroke-dasharray: 1.85,0.8; stroke-dashoffset: 0; stroke: #b0b0b0; stroke-opacity: 0.8; stroke-width: 0.5"/>
     </g>
     <g id="line2d_138">
      <g>
       <use xlink:href="#m28ee3c6f97" x="95.28125" y="145.711203" style="stroke: #000000; stroke-width: 0.6"/>
      </g>
     </g>
    </g>
    <g id="ytick_30">
     <g id="line2d_139">
      <path d="M 95.28125 132.551719 
L 764.88125 132.551719 
" clip-path="url(#p0136bbdede)" style="fill: none; stroke-dasharray: 1.85,0.8; stroke-dashoffset: 0; stroke: #b0b0b0; stroke-opacity: 0.8; stroke-width: 0.5"/>
     </g>
     <g id="line2d_140">
      <g>
       <use xlink:href="#m28ee3c6f97" x="95.28125" y="132.551719" style="stroke: #000000; stroke-width: 0.6"/>
      </g>
     </g>
    </g>
    <g id="ytick_31">
     <g id="line2d_141">
      <path d="M 95.28125 119.392236 
L 764.88125 119.392236 
" clip-path="url(#p0136bbdede)" style="fill: none; stroke-dasharray: 1.85,0.8; stroke-dashoffset: 0; stroke: #b0b0b0; stroke-opacity: 0.8; stroke-width: 0.5"/>
     </g>
     <g id="line2d_142">
      <g>
       <use xlink:href="#m28ee3c6f97" x="95.28125" y="119.392236" style="stroke: #000000; stroke-width: 0.6"/>
      </g>
     </g>
    </g>
    <g id="ytick_32">
     <g id="line2d_143">
      <path d="M 95.28125 106.232752 
L 764.88125 106.232752 
" clip-path="url(#p0136bbdede)" style="fill: none; stroke-dasharray: 1.85,0.8; stroke-dashoffset: 0; stroke: #b0b0b0; stroke-opacity: 0.8; stroke-width: 0.5"/>
     </g>
     <g id="line2d_144">
      <g>
       <use xlink:href="#m28ee3c6f97" x="95.28125" y="106.232752" style="stroke: #000000; stroke-width: 0.6"/>
      </g>
     </g>
    </g>
    <g id="ytick_33">
     <g id="line2d_145">
      <path d="M 95.28125 79.913785 
L 764.88125 79.913785 
" clip-path="url(#p0136bbdede)" style="fill: none; stroke-dasharray: 1.85,0.8; stroke-dashoffset: 0; stroke: #b0b0b0; stroke-opacity: 0.8; stroke-width: 0.5"/>
     </g>
     <g id="line2d_146">
      <g>
       <use xlink:href="#m28ee3c6f97" x="95.28125" y="79.913785" style="stroke: #000000; stroke-width: 0.6"/>
      </g>
     </g>
    </g>
    <g id="ytick_34">
     <g id="line2d_147">
      <path d="M 95.28125 66.754301 
L 764.88125 66.754301 
" clip-path="url(#p0136bbdede)" style="fill: none; stroke-dasharray: 1.85,0.8; stroke-dashoffset: 0; stroke: #b0b0b0; stroke-opacity: 0.8; stroke-width: 0.5"/>
     </g>
     <g id="line2d_148">
      <g>
       <use xlink:href="#m28ee3c6f97" x="95.28125" y="66.754301" style="stroke: #000000; stroke-width: 0.6"/>
      </g>
     </g>
    </g>
    <g id="text_17">
     <!-- Light (W/m^2) -->
     <g transform="translate(49.221875 337.558125) rotate(-90) scale(0.2 -0.2)">
      <defs>
       <path id="AptosDisplay-4c" d="M 472 0 
L 472 4206 
L 1034 4206 
L 1034 484 
L 3000 484 
L 3000 0 
L 472 0 
z
" transform="scale(0.015625)"/>
       <path id="AptosDisplay-67" d="M 1397 -1178 
Q 925 -1178 640 -1065 
Q 356 -953 229 -765 
Q 103 -578 103 -359 
Q 103 -94 329 112 
Q 556 319 1031 403 
L 1128 575 
L 1475 575 
Q 2184 575 2489 376 
Q 2794 178 2794 -238 
Q 2794 -650 2437 -914 
Q 2081 -1178 1397 -1178 
z
M 1384 -800 
Q 1878 -800 2086 -650 
Q 2294 -500 2294 -278 
Q 2294 -147 2225 -51 
Q 2156 44 1975 97 
Q 1794 150 1456 150 
L 1034 150 
Q 819 97 708 -31 
Q 597 -159 597 -328 
Q 597 -516 778 -658 
Q 959 -800 1384 -800 
z
M 1025 216 
Q 722 228 550 312 
Q 378 397 306 511 
Q 234 625 234 722 
Q 234 866 362 1009 
Q 491 1153 772 1241 
L 1038 1069 
Q 866 1031 772 953 
Q 678 875 678 791 
Q 678 731 734 682 
Q 791 634 928 606 
Q 1066 578 1303 575 
L 1025 216 
z
M 1363 984 
Q 1003 984 753 1128 
Q 503 1272 375 1509 
Q 247 1747 247 2022 
Q 247 2313 376 2550 
Q 506 2788 754 2928 
Q 1003 3069 1366 3069 
Q 1738 3069 1983 2928 
Q 2228 2788 2351 2550 
Q 2475 2313 2475 2022 
Q 2475 1741 2350 1505 
Q 2225 1269 1979 1126 
Q 1734 984 1363 984 
z
M 1366 1341 
Q 1641 1341 1812 1512 
Q 1984 1684 1984 2022 
Q 1984 2375 1817 2545 
Q 1650 2716 1372 2716 
Q 1094 2716 919 2541 
Q 744 2366 744 2025 
Q 744 1681 931 1511 
Q 1119 1341 1366 1341 
z
M 2131 2734 
L 1922 2931 
Q 2038 3225 2252 3331 
Q 2466 3438 2794 3447 
L 2794 3006 
Q 2588 3006 2416 2961 
Q 2244 2916 2131 2734 
z
" transform="scale(0.015625)"/>
       <path id="AptosDisplay-68" d="M 413 0 
L 413 4206 
L 931 4206 
L 931 2575 
Q 1069 2756 1317 2914 
Q 1566 3072 1950 3072 
Q 2428 3072 2637 2783 
Q 2847 2494 2847 1963 
L 2847 0 
L 2328 0 
L 2328 1891 
Q 2328 2106 2287 2275 
Q 2247 2444 2139 2539 
Q 2031 2634 1822 2634 
Q 1503 2634 1284 2482 
Q 1066 2331 934 2156 
L 934 0 
L 413 0 
z
" transform="scale(0.015625)"/>
       <path id="AptosDisplay-74" d="M 1466 0 
Q 1100 0 901 117 
Q 703 234 629 454 
Q 556 675 556 984 
L 556 2622 
L 50 2622 
L 50 3044 
L 556 3044 
L 556 3741 
L 1078 3741 
L 1078 3044 
L 1831 3044 
L 1831 2622 
L 1078 2622 
L 1078 1009 
Q 1078 725 1151 575 
Q 1225 425 1500 425 
L 1831 425 
L 1831 0 
L 1466 0 
z
" transform="scale(0.015625)"/>
       <path id="AptosDisplay-57" d="M 1216 0 
L -13 4206 
L 575 4206 
L 1525 697 
L 2531 4206 
L 3156 4206 
L 4163 697 
L 5119 4206 
L 5681 4206 
L 4453 0 
L 3866 0 
L 2831 3556 
L 1813 0 
L 1216 0 
z
" transform="scale(0.015625)"/>
       <path id="AptosDisplay-2f" d="M 72 0 
L 1603 4206 
L 2100 4206 
L 569 0 
L 72 0 
z
" transform="scale(0.015625)"/>
       <path id="AptosDisplay-5e" d="M 428 2438 
L 1459 4206 
L 1884 4206 
L 2916 2438 
L 2366 2438 
L 1672 3650 
L 978 2438 
L 428 2438 
z
" transform="scale(0.015625)"/>
      </defs>
      <use xlink:href="#AptosDisplay-4c"/>
      <use xlink:href="#AptosDisplay-69" x="48.4375"/>
      <use xlink:href="#AptosDisplay-67" x="69.482422"/>
      <use xlink:href="#AptosDisplay-68" x="113.427734"/>
      <use xlink:href="#AptosDisplay-74" x="164.013672"/>
      <use xlink:href="#AptosDisplay-20" x="194.384766"/>
      <use xlink:href="#AptosDisplay-28" x="213.671875"/>
      <use xlink:href="#AptosDisplay-57" x="243.115234"/>
      <use xlink:href="#AptosDisplay-2f" x="331.689453"/>
      <use xlink:href="#AptosDisplay-6d" x="365.625"/>
      <use xlink:href="#AptosDisplay-5e" x="445.605469"/>
      <use xlink:href="#AptosDisplay-32" x="497.900391"/>
      <use xlink:href="#AptosDisplay-29" x="550.195312"/>
     </g>
    </g>
   </g>
   <g id="line2d_149">
    <path d="M 125.717614 191.118001 
L 126.374534 182.419583 
L 127.034755 191.118001 
L 127.694976 194.019668 
L 128.355197 191.118001 
L 129.015419 199.823 
L 129.67564 202.724666 
L 130.335861 196.921334 
L 130.996082 205.619752 
L 131.656304 217.226417 
L 132.316525 223.029749 
L 132.976746 225.924836 
L 133.636967 217.226417 
L 134.297188 228.826502 
L 134.95741 220.128083 
L 135.617631 214.324751 
L 136.277852 231.728168 
L 137.598295 231.728168 
L 138.258516 225.924836 
L 138.918737 231.728168 
L 139.578958 231.728168 
L 140.23918 223.029749 
L 140.899401 237.5315 
L 141.559622 240.433166 
L 142.219843 257.836584 
L 142.880064 231.728168 
L 143.540286 237.5315 
L 144.200507 240.433166 
L 144.860728 182.419583 
L 145.520949 249.131585 
L 146.181171 211.423085 
L 146.841392 266.535002 
L 147.501613 257.836584 
L 148.161834 260.73825 
L 148.822055 266.535002 
L 149.482277 260.73825 
L 150.142498 260.73825 
L 150.802719 266.535002 
L 151.46294 260.73825 
L 152.123162 272.338335 
L 152.783383 269.436668 
L 153.443604 260.73825 
L 154.103825 260.73825 
L 154.764047 252.033251 
L 155.424268 263.639916 
L 156.084489 301.348416 
L 156.74471 196.921334 
L 157.404931 254.934917 
L 158.065153 263.639916 
L 158.725374 249.131585 
L 159.385595 252.033251 
L 160.045816 263.639916 
L 160.706038 249.131585 
L 161.366259 254.934917 
L 162.02648 272.338335 
L 162.686701 249.131585 
L 163.346922 260.73825 
L 164.007144 254.934917 
L 164.667365 240.433166 
L 165.327586 249.131585 
L 165.987807 266.535002 
L 166.648029 252.033251 
L 167.30825 257.836584 
L 167.968471 254.934917 
L 168.628692 266.535002 
L 169.288914 252.033251 
L 169.949135 263.639916 
L 170.609356 269.436668 
L 171.269577 269.436668 
L 171.929798 275.240001 
L 172.59002 231.728168 
L 173.250241 278.141667 
L 173.910462 263.639916 
L 174.570683 275.240001 
L 175.230905 275.240001 
L 175.891126 257.836584 
L 176.551347 263.639916 
L 177.211568 252.033251 
L 177.871789 263.639916 
L 178.532011 249.131585 
L 179.192232 269.436668 
L 179.852453 266.535002 
L 180.512674 269.436668 
L 181.172896 254.934917 
L 181.833117 260.73825 
L 182.493338 263.639916 
L 183.153559 275.240001 
L 183.813781 260.73825 
L 184.474002 263.639916 
L 185.134223 272.338335 
L 185.794444 275.240001 
L 186.454665 275.240001 
L 187.114887 266.535002 
L 187.775108 292.643418 
L 188.435329 275.240001 
L 189.09555 283.944999 
L 189.755772 304.250083 
L 190.415993 295.545084 
L 191.076214 298.44675 
L 191.736435 307.145169 
L 192.396656 307.145169 
L 193.060179 298.44675 
L 193.7204 318.751834 
L 194.380621 379.667083 
L 195.040843 315.850167 
L 195.701064 318.751834 
L 197.021506 336.155251 
L 197.681727 350.657002 
L 198.341949 344.853669 
L 199.00217 373.863751 
L 199.662391 350.657002 
L 200.322612 347.755336 
L 200.982834 350.657002 
L 201.643055 350.657002 
L 202.303276 399.972167 
L 202.963497 382.56875 
L 203.623718 405.775499 
L 204.28394 385.463836 
L 204.944161 402.873833 
L 205.604382 402.873833 
L 206.264603 411.572252 
L 207.585046 417.375584 
L 208.905488 428.975669 
L 209.56571 426.080582 
L 210.225931 443.484 
L 210.886152 411.572252 
L 211.546373 431.877335 
L 212.206594 443.484 
L 212.866816 434.779001 
L 213.527037 431.877335 
L 214.187258 431.877335 
L 215.507701 426.080582 
L 216.167922 449.280752 
L 216.828143 420.27725 
L 217.488364 423.178916 
L 218.148585 420.27725 
L 218.808807 402.873833 
L 219.469028 417.375584 
L 220.129249 370.962085 
L 220.78947 411.572252 
L 221.449692 402.873833 
L 222.109913 408.670585 
L 222.770134 405.775499 
L 223.430355 399.972167 
L 224.090577 411.572252 
L 224.750798 420.27725 
L 225.411019 417.375584 
L 226.07124 423.178916 
L 226.731461 426.080582 
L 227.391683 417.375584 
L 228.051904 428.975669 
L 228.712125 420.27725 
L 229.372346 423.178916 
L 230.032568 428.975669 
L 230.692789 423.178916 
L 231.35301 420.27725 
L 232.013231 420.27725 
L 232.673452 428.975669 
L 233.333674 428.975669 
L 233.993895 437.680667 
L 235.314337 431.877335 
L 235.974559 466.684169 
L 236.63478 437.680667 
L 237.295001 449.280752 
L 237.955222 449.280752 
L 238.615444 475.389168 
L 239.275665 481.1925 
L 239.935886 434.779001 
L 240.596107 443.484 
L 241.256328 431.877335 
L 241.91655 446.379086 
L 242.576771 440.582333 
L 243.236992 469.585835 
L 243.897213 434.779001 
L 244.557435 446.379086 
L 245.217656 434.779001 
L 246.538098 434.779001 
L 247.198319 426.080582 
L 247.858541 423.178916 
L 248.518762 411.572252 
L 249.178983 414.473918 
L 249.839204 411.572252 
L 250.499426 402.873833 
L 251.159647 399.972167 
L 251.819868 399.972167 
L 252.480089 382.56875 
L 253.140311 370.962085 
L 253.800532 373.863751 
L 254.460753 373.863751 
L 255.781195 362.263666 
L 256.441417 373.863751 
L 257.101638 350.657002 
L 257.761859 353.558668 
L 258.42208 344.853669 
L 259.082302 347.755336 
L 259.742523 344.853669 
L 260.402744 344.853669 
L 261.062965 341.958583 
L 261.723186 341.958583 
L 262.383408 336.155251 
L 263.043629 347.755336 
L 263.70385 353.558668 
L 264.364071 347.755336 
L 265.024293 347.755336 
L 266.344735 359.362 
L 267.004956 347.755336 
L 267.665178 365.158753 
L 268.325399 376.765417 
L 268.98562 370.962085 
L 269.645841 373.863751 
L 270.306062 379.667083 
L 270.966284 382.56875 
L 271.626505 388.365502 
L 272.286726 397.070501 
L 272.946947 399.972167 
L 273.607169 408.670585 
L 274.26739 405.775499 
L 274.927611 408.670585 
L 275.587832 402.873833 
L 276.248053 399.972167 
L 276.908275 408.670585 
L 278.228717 385.463836 
L 278.888938 376.765417 
L 279.54916 397.070501 
L 280.869602 379.667083 
L 281.529823 397.070501 
L 282.190045 382.56875 
L 282.850266 397.070501 
L 283.510487 379.667083 
L 284.170708 388.365502 
L 284.830929 382.56875 
L 285.491151 379.667083 
L 286.151372 368.060419 
L 286.811593 370.962085 
L 287.471814 376.765417 
L 289.452478 376.765417 
L 290.112699 379.667083 
L 290.77292 385.463836 
L 291.433142 379.667083 
L 292.753584 385.463836 
L 294.074027 385.463836 
L 294.734248 388.365502 
L 295.394469 394.168834 
L 296.05469 385.463836 
L 296.714912 388.365502 
L 297.375133 394.168834 
L 298.035354 391.267168 
L 299.355796 391.267168 
L 300.676239 397.070501 
L 301.33646 405.775499 
L 301.996681 379.667083 
L 302.656903 405.775499 
L 303.317124 397.070501 
L 303.977345 399.972167 
L 304.637566 460.887417 
L 305.297787 417.375584 
L 305.958009 356.460334 
L 306.61823 405.775499 
L 307.278451 388.365502 
L 307.938672 399.972167 
L 308.598894 405.775499 
L 309.259115 402.873833 
L 309.919336 414.473918 
L 310.579557 405.775499 
L 311.239779 414.473918 
L 311.9 405.775499 
L 312.560221 408.670585 
L 313.220442 399.972167 
L 313.880663 399.972167 
L 314.540885 397.070501 
L 315.201106 402.873833 
L 315.861327 394.168834 
L 316.521548 394.168834 
L 318.502212 376.765417 
L 319.162433 388.365502 
L 319.822654 385.463836 
L 320.482876 376.765417 
L 321.143097 376.765417 
L 321.803318 353.558668 
L 322.463539 359.362 
L 325.104424 344.853669 
L 325.764646 344.853669 
L 326.424867 333.253585 
L 327.085088 330.351918 
L 327.745309 333.253585 
L 328.40553 339.056917 
L 330.386194 330.351918 
L 331.706637 347.755336 
L 332.366858 339.056917 
L 333.027079 426.080582 
L 333.6873 353.558668 
L 334.347521 347.755336 
L 335.007743 356.460334 
L 335.667964 350.657002 
L 336.328185 350.657002 
L 336.988406 344.853669 
L 337.648628 333.253585 
L 338.308849 341.958583 
L 338.96907 341.958583 
L 339.629291 336.155251 
L 340.289513 347.755336 
L 340.949734 344.853669 
L 341.609955 350.657002 
L 342.270176 341.958583 
L 342.930397 350.657002 
L 343.590619 362.263666 
L 344.25084 350.657002 
L 344.911061 341.958583 
L 345.571282 350.657002 
L 346.231504 350.657002 
L 346.891725 353.558668 
L 347.551946 397.070501 
L 348.212167 347.755336 
L 348.872388 347.755336 
L 349.53261 350.657002 
L 350.192831 356.460334 
L 350.853052 350.657002 
L 351.513273 347.755336 
L 352.173495 356.460334 
L 352.833716 341.958583 
L 353.493937 339.056917 
L 354.154158 341.958583 
L 354.81438 339.056917 
L 355.474601 339.056917 
L 356.134822 292.643418 
L 356.795043 341.958583 
L 357.455264 269.436668 
L 358.115486 350.657002 
L 358.775707 310.046835 
L 359.435928 327.450252 
L 361.416592 318.751834 
L 362.076813 324.555166 
L 362.737034 315.850167 
L 363.397255 324.555166 
L 364.057477 324.555166 
L 364.717698 307.145169 
L 365.377919 295.545084 
L 366.03814 307.145169 
L 366.698362 304.250083 
L 368.018804 292.643418 
L 368.679025 301.348416 
L 369.339247 292.643418 
L 369.999468 286.840086 
L 370.659689 292.643418 
L 371.980131 292.643418 
L 372.640353 295.545084 
L 373.300574 278.141667 
L 375.281238 286.840086 
L 375.941459 278.141667 
L 376.60168 275.240001 
L 377.261901 275.240001 
L 377.922122 286.840086 
L 379.242565 269.436668 
L 379.902786 272.338335 
L 380.563007 269.436668 
L 381.223229 263.639916 
L 381.88345 260.73825 
L 382.543671 254.934917 
L 383.203892 307.145169 
L 383.864114 266.535002 
L 384.524335 252.033251 
L 385.844777 234.629834 
L 386.504998 257.836584 
L 387.16522 225.924836 
L 387.825441 240.433166 
L 388.485662 237.5315 
L 389.145883 243.334833 
L 389.806105 237.5315 
L 390.466326 243.334833 
L 391.126547 246.229919 
L 391.786768 243.334833 
L 392.446989 228.826502 
L 393.107211 252.033251 
L 393.767432 246.229919 
L 394.427653 263.639916 
L 395.087874 260.73825 
L 395.748096 263.639916 
L 396.408317 263.639916 
L 397.068538 272.338335 
L 397.728759 283.944999 
L 398.388981 275.240001 
L 399.049202 278.141667 
L 399.709423 260.73825 
L 400.369644 257.836584 
L 401.029865 257.836584 
L 401.690087 275.240001 
L 402.350308 275.240001 
L 403.010529 260.73825 
L 403.67075 217.226417 
L 404.330972 272.338335 
L 404.991193 269.436668 
L 405.651414 263.639916 
L 406.311635 272.338335 
L 408.292299 281.043333 
L 408.95252 260.73825 
L 409.612741 260.73825 
L 410.272963 240.433166 
L 410.933184 315.850167 
L 411.593405 272.338335 
L 412.253626 278.141667 
L 412.913848 385.463836 
L 413.574069 278.141667 
L 414.23429 275.240001 
L 414.894511 281.043333 
L 415.554732 281.043333 
L 416.214954 286.840086 
L 416.875175 289.741752 
L 417.535396 275.240001 
L 418.195617 283.944999 
L 418.855839 278.141667 
L 419.51606 266.535002 
L 420.176281 286.840086 
L 420.836502 283.944999 
L 421.496723 283.944999 
L 422.156945 289.741752 
L 422.817166 289.741752 
L 423.477387 286.840086 
L 424.137608 289.741752 
L 424.79783 275.240001 
L 425.458051 281.043333 
L 426.118272 289.741752 
L 426.778493 272.338335 
L 427.438715 275.240001 
L 428.098936 295.545084 
L 428.759157 344.853669 
L 429.419378 286.840086 
L 430.079599 278.141667 
L 430.739821 263.639916 
L 431.400042 312.948501 
L 432.060263 269.436668 
L 432.720484 234.629834 
L 433.380706 246.229919 
L 434.040927 275.240001 
L 434.701148 269.436668 
L 435.361369 289.741752 
L 436.02159 257.836584 
L 436.681812 254.934917 
L 437.342033 237.5315 
L 438.002254 249.131585 
L 438.662475 254.934917 
L 439.982918 237.5315 
L 440.643139 237.5315 
L 441.30336 225.924836 
L 441.963582 228.826502 
L 442.623803 225.924836 
L 443.284024 237.5315 
L 443.944245 254.934917 
L 444.604466 234.629834 
L 445.264688 225.924836 
L 445.924909 225.924836 
L 446.58513 231.728168 
L 447.905573 220.128083 
L 449.226015 214.324751 
L 449.886236 225.924836 
L 450.546457 217.226417 
L 451.206679 194.019668 
L 451.8669 211.423085 
L 452.527121 205.619752 
L 453.187342 202.724666 
L 453.847564 196.921334 
L 454.507785 185.314669 
L 455.168006 185.314669 
L 455.828227 191.118001 
L 456.488449 194.019668 
L 457.14867 205.619752 
L 457.808891 188.216335 
L 459.129333 188.216335 
L 459.789555 217.226417 
L 460.449776 167.911252 
L 461.770218 185.314669 
L 462.43044 167.911252 
L 463.090661 173.714584 
L 463.750882 173.714584 
L 464.411103 182.419583 
L 465.071324 182.419583 
L 465.731546 173.714584 
L 466.391767 150.507835 
L 467.051988 179.517917 
L 467.712209 182.419583 
L 468.372431 170.812918 
L 469.032652 179.517917 
L 469.692873 167.911252 
L 470.353094 185.314669 
L 471.013316 170.812918 
L 472.333758 176.61625 
L 472.993979 182.419583 
L 473.6542 182.419583 
L 474.314422 196.921334 
L 474.974643 214.324751 
L 475.634864 202.724666 
L 476.295085 211.423085 
L 476.955307 208.521419 
L 477.615528 191.118001 
L 478.275749 217.226417 
L 478.93597 249.131585 
L 479.596191 240.433166 
L 480.256413 228.826502 
L 480.916634 243.334833 
L 481.576855 231.728168 
L 482.237076 243.334833 
L 482.897298 249.131585 
L 483.557519 228.826502 
L 484.21774 269.436668 
L 484.877961 275.240001 
L 485.538183 292.643418 
L 486.198404 252.033251 
L 486.858625 275.240001 
L 488.839289 292.643418 
L 489.49951 292.643418 
L 490.159731 301.348416 
L 490.819952 315.850167 
L 491.480174 307.145169 
L 492.140395 315.850167 
L 492.800616 341.958583 
L 493.460837 339.056917 
L 494.121059 350.657002 
L 494.78128 365.158753 
L 495.441501 359.362 
L 496.101722 365.158753 
L 496.761943 365.158753 
L 497.422165 373.863751 
L 498.082386 359.362 
L 498.742607 388.365502 
L 499.402828 353.558668 
L 500.06305 379.667083 
L 500.723271 356.460334 
L 502.043713 333.253585 
L 502.703934 376.765417 
L 503.364156 368.060419 
L 504.024377 321.6535 
L 504.684598 324.555166 
L 505.344819 318.751834 
L 506.005041 295.545084 
L 506.665262 312.948501 
L 507.325483 312.948501 
L 507.989005 307.145169 
L 508.649227 318.751834 
L 509.309448 310.046835 
L 509.969669 295.545084 
L 510.62989 301.348416 
L 511.290112 298.44675 
L 511.950333 301.348416 
L 512.610554 301.348416 
L 513.270775 289.741752 
L 513.930996 304.250083 
L 515.251439 310.046835 
L 516.571881 321.6535 
L 517.232103 301.348416 
L 517.892324 298.44675 
L 518.552545 298.44675 
L 519.212766 283.944999 
L 519.872987 278.141667 
L 520.533209 283.944999 
L 521.19343 275.240001 
L 521.853651 272.338335 
L 524.494536 257.836584 
L 525.154757 263.639916 
L 525.814979 254.934917 
L 526.4752 240.433166 
L 527.135421 243.334833 
L 527.795642 228.826502 
L 528.455863 234.629834 
L 529.116085 217.226417 
L 531.096748 199.823 
L 531.75697 214.324751 
L 532.417191 202.724666 
L 533.077412 202.724666 
L 533.737633 208.521419 
L 534.397854 196.921334 
L 535.058076 188.216335 
L 535.718297 191.118001 
L 536.378518 205.619752 
L 537.038739 182.419583 
L 537.698961 214.324751 
L 538.359182 185.314669 
L 539.019403 182.419583 
L 539.679624 147.606169 
L 540.339846 176.61625 
L 541.000067 170.812918 
L 541.660288 170.812918 
L 542.320509 188.216335 
L 542.98073 188.216335 
L 543.640952 167.911252 
L 544.301173 176.61625 
L 544.961394 167.911252 
L 545.621615 170.812918 
L 546.281837 153.409501 
L 546.942058 176.61625 
L 547.602279 165.009586 
L 548.2625 176.61625 
L 548.922721 191.118001 
L 549.582943 188.216335 
L 550.243164 202.724666 
L 550.903385 179.517917 
L 551.563606 194.019668 
L 552.223828 199.823 
L 552.884049 194.019668 
L 554.204491 205.619752 
L 554.864713 199.823 
L 555.524934 211.423085 
L 556.185155 231.728168 
L 556.845376 205.619752 
L 558.165819 217.226417 
L 559.486261 217.226417 
L 560.146482 234.629834 
L 560.806704 234.629834 
L 561.466925 217.226417 
L 562.127146 228.826502 
L 562.787367 228.826502 
L 563.447588 214.324751 
L 564.10781 211.423085 
L 564.768031 240.433166 
L 565.428252 225.924836 
L 566.088473 228.826502 
L 566.748695 217.226417 
L 567.408916 228.826502 
L 568.069137 211.423085 
L 568.729358 220.128083 
L 569.38958 223.029749 
L 570.049801 217.226417 
L 570.710022 220.128083 
L 571.370243 217.226417 
L 572.030464 208.521419 
L 572.690686 217.226417 
L 573.350907 214.324751 
L 574.011128 208.521419 
L 574.671349 199.823 
L 575.331571 217.226417 
L 575.991792 194.019668 
L 576.652013 196.921334 
L 577.312234 205.619752 
L 577.972455 211.423085 
L 578.632677 196.921334 
L 579.292898 205.619752 
L 579.953119 220.128083 
L 580.61334 188.216335 
L 581.933783 205.619752 
L 582.594004 167.911252 
L 583.254225 205.619752 
L 583.914447 194.019668 
L 584.574668 205.619752 
L 585.234889 196.921334 
L 585.89511 199.823 
L 586.555331 199.823 
L 587.215553 211.423085 
L 587.875774 214.324751 
L 588.535995 225.924836 
L 589.196216 202.724666 
L 589.856438 199.823 
L 590.516659 191.118001 
L 591.17688 208.521419 
L 591.837101 199.823 
L 592.497322 220.128083 
L 593.157544 199.823 
L 593.817765 191.118001 
L 594.477986 202.724666 
L 595.138207 196.921334 
L 595.798429 199.823 
L 596.45865 179.517917 
L 597.118871 196.921334 
L 598.439314 191.118001 
L 599.099535 196.921334 
L 599.759756 196.921334 
L 600.419977 199.823 
L 601.080198 194.019668 
L 601.74042 182.419583 
L 602.400641 196.921334 
L 603.060862 196.921334 
L 603.721083 220.128083 
L 604.381305 173.714584 
L 605.041526 194.019668 
L 605.701747 191.118001 
L 606.361968 196.921334 
L 607.022189 185.314669 
L 607.682411 185.314669 
L 608.342632 188.216335 
L 609.002853 176.61625 
L 609.663074 211.423085 
L 610.323296 208.521419 
L 611.643738 191.118001 
L 612.964181 202.724666 
L 613.624402 199.823 
L 614.284623 211.423085 
L 614.944844 205.619752 
L 615.605065 211.423085 
L 616.265287 196.921334 
L 616.925508 205.619752 
L 617.585729 205.619752 
L 618.24595 217.226417 
L 618.906172 176.61625 
L 619.566393 185.314669 
L 620.226614 196.921334 
L 620.886835 196.921334 
L 621.547056 199.823 
L 622.207278 185.314669 
L 622.867499 202.724666 
L 623.52772 188.216335 
L 624.187941 194.019668 
L 625.508384 170.812918 
L 626.168605 214.324751 
L 626.828826 202.724666 
L 627.489048 202.724666 
L 628.149269 196.921334 
L 628.80949 179.517917 
L 629.469711 246.229919 
L 630.129932 194.019668 
L 630.790154 205.619752 
L 631.450375 254.934917 
L 632.110596 199.823 
L 632.770817 199.823 
L 633.431039 165.009586 
L 634.09126 194.019668 
L 634.751481 188.216335 
L 636.732145 188.216335 
L 637.392366 179.517917 
L 638.052587 194.019668 
L 638.712808 196.921334 
L 639.37303 191.118001 
L 640.033251 208.521419 
L 640.693472 217.226417 
L 641.353693 179.517917 
L 642.013915 167.911252 
L 642.674136 185.314669 
L 643.334357 208.521419 
L 643.994578 196.921334 
L 644.654799 211.423085 
L 645.315021 214.324751 
L 645.975242 199.823 
L 646.635463 182.419583 
L 647.295684 194.019668 
L 647.955906 211.423085 
L 648.616127 211.423085 
L 649.276348 234.629834 
L 649.936569 214.324751 
L 650.59679 202.724666 
L 651.257012 205.619752 
L 651.917233 220.128083 
L 652.577454 289.741752 
L 653.237675 214.324751 
L 653.897897 234.629834 
L 654.558118 217.226417 
L 655.218339 223.029749 
L 655.87856 214.324751 
L 656.538782 220.128083 
L 657.199003 217.226417 
L 657.859224 205.619752 
L 658.519445 217.226417 
L 659.179666 237.5315 
L 660.500109 231.728168 
L 661.16033 217.226417 
L 661.820551 234.629834 
L 662.480773 240.433166 
L 663.140994 231.728168 
L 663.801215 234.629834 
L 664.461436 228.826502 
L 665.121657 266.535002 
L 665.781879 228.826502 
L 666.4421 223.029749 
L 667.102321 225.924836 
L 667.762542 237.5315 
L 668.422764 225.924836 
L 669.082985 243.334833 
L 669.743206 231.728168 
L 670.403427 234.629834 
L 671.063649 243.334833 
L 671.72387 223.029749 
L 672.384091 228.826502 
L 673.044312 208.521419 
L 673.704533 217.226417 
L 674.364755 194.019668 
L 675.024976 202.724666 
L 675.685197 191.118001 
L 676.345418 191.118001 
L 677.665861 179.517917 
L 678.326082 182.419583 
L 678.986303 194.019668 
L 679.646524 165.009586 
L 680.306746 144.704502 
L 680.966967 130.202751 
L 681.627188 138.90775 
L 682.287409 124.399419 
L 682.947631 136.006084 
L 683.607852 112.799334 
L 684.268073 109.897668 
L 684.928294 138.90775 
L 685.588516 89.592585 
L 686.248737 147.606169 
L 686.908958 98.297583 
L 687.569179 92.494251 
L 688.2294 106.996002 
L 688.889622 83.789253 
L 689.549843 77.9925 
L 690.210064 80.894166 
L 690.870285 95.395917 
L 691.530507 92.494251 
L 692.190728 101.199249 
L 692.850949 106.996002 
L 693.51117 104.094336 
L 694.171391 92.494251 
L 694.831613 95.395917 
L 695.491834 92.494251 
L 696.152055 104.094336 
L 696.812276 98.297583 
L 697.472498 109.897668 
L 698.132719 104.094336 
L 698.79294 104.094336 
L 699.453161 121.504333 
L 700.113383 112.799334 
L 700.773604 138.90775 
L 701.433825 112.799334 
L 702.094046 136.006084 
L 702.754267 121.504333 
L 703.414489 130.202751 
L 704.07471 124.399419 
L 704.734931 136.006084 
L 705.395152 121.504333 
L 706.055374 136.006084 
L 706.715595 133.104418 
L 707.375816 127.301085 
L 708.036037 124.399419 
L 708.696258 141.809416 
L 710.676922 124.399419 
L 711.337143 130.202751 
L 711.997365 121.504333 
L 712.657586 144.704502 
L 713.317807 136.006084 
L 713.978028 124.399419 
L 714.63825 144.704502 
L 715.298471 138.90775 
L 715.958692 136.006084 
L 716.618913 109.897668 
L 717.279134 144.704502 
L 718.599577 138.90775 
L 719.259798 133.104418 
L 719.920019 136.006084 
L 720.580241 156.311167 
L 721.240462 153.409501 
L 723.221125 153.409501 
L 723.881347 165.009586 
L 724.541568 162.114499 
L 725.201789 165.009586 
L 725.86201 156.311167 
L 726.522232 156.311167 
L 727.182453 162.114499 
L 727.842674 173.714584 
L 728.502895 162.114499 
L 729.163117 165.009586 
L 729.823338 159.212833 
L 730.483559 150.507835 
L 731.14378 159.212833 
L 732.464223 101.199249 
L 733.124444 127.301085 
L 733.784665 124.399419 
L 734.444886 124.399419 
L 734.444886 124.399419 
" clip-path="url(#p0136bbdede)" style="fill: none; stroke: #ac2b37; stroke-width: 1.5; stroke-linecap: square"/>
   </g>
   <g id="patch_3">
    <path d="M 95.28125 501.3525 
L 95.28125 57.8325 
" style="fill: none; stroke: #000000; stroke-width: 0.8; stroke-linejoin: miter; stroke-linecap: square"/>
   </g>
   <g id="patch_4">
    <path d="M 764.88125 501.3525 
L 764.88125 57.8325 
" style="fill: none; stroke: #000000; stroke-width: 0.8; stroke-linejoin: miter; stroke-linecap: square"/>
   </g>
   <g id="patch_5">
    <path d="M 95.28125 501.3525 
L 764.88125 501.3525 
" style="fill: none; stroke: #000000; stroke-width: 0.8; stroke-linejoin: miter; stroke-linecap: square"/>
   </g>
   <g id="patch_6">
    <path d="M 95.28125 57.8325 
L 764.88125 57.8325 
" style="fill: none; stroke: #000000; stroke-width: 0.8; stroke-linejoin: miter; stroke-linecap: square"/>
   </g>
   <g id="text_18">
    <!-- Light vs Time -->
    <g transform="translate(367.59875 51.8325) scale(0.24 -0.24)">
     <defs>
      <path id="AptosDisplay-76" d="M 1103 0 
L -13 3044 
L 538 3044 
L 1391 513 
L 2250 3044 
L 2781 3044 
L 1678 0 
L 1103 0 
z
" transform="scale(0.015625)"/>
      <path id="AptosDisplay-73" d="M 1506 -41 
Q 1247 -41 1017 14 
Q 788 69 613 191 
Q 438 313 339 506 
Q 241 700 241 978 
L 744 978 
Q 744 628 966 487 
Q 1188 347 1519 347 
Q 1816 347 2008 458 
Q 2200 569 2200 822 
Q 2200 1047 2026 1153 
Q 1853 1259 1413 1369 
Q 1056 1453 815 1564 
Q 575 1675 453 1845 
Q 331 2016 331 2275 
Q 331 2475 417 2626 
Q 503 2778 658 2879 
Q 813 2981 1020 3032 
Q 1228 3084 1472 3084 
Q 1713 3084 1923 3028 
Q 2134 2972 2296 2855 
Q 2459 2738 2551 2552 
Q 2644 2366 2644 2109 
L 2138 2109 
Q 2138 2425 1945 2558 
Q 1753 2691 1472 2691 
Q 1191 2691 1016 2594 
Q 841 2497 841 2291 
Q 841 2169 919 2084 
Q 997 2000 1181 1933 
Q 1366 1866 1675 1791 
Q 2019 1709 2248 1596 
Q 2478 1484 2595 1306 
Q 2713 1128 2713 847 
Q 2713 616 2622 447 
Q 2531 278 2367 170 
Q 2203 63 1983 11 
Q 1763 -41 1506 -41 
z
" transform="scale(0.015625)"/>
     </defs>
     <use xlink:href="#AptosDisplay-4c"/>
     <use xlink:href="#AptosDisplay-69" x="48.4375"/>
     <use xlink:href="#AptosDisplay-67" x="69.482422"/>
     <use xlink:href="#AptosDisplay-68" x="113.427734"/>
     <use xlink:href="#AptosDisplay-74" x="164.013672"/>
     <use xlink:href="#AptosDisplay-20" x="194.384766"/>
     <use xlink:href="#AptosDisplay-76" x="213.671875"/>
     <use xlink:href="#AptosDisplay-73" x="256.933594"/>
     <use xlink:href="#AptosDisplay-20" x="303.222656"/>
     <use xlink:href="#AptosDisplay-54" x="322.509766"/>
     <use xlink:href="#AptosDisplay-69" x="370.214844"/>
     <use xlink:href="#AptosDisplay-6d" x="391.259766"/>
     <use xlink:href="#AptosDisplay-65" x="471.240234"/>
    </g>
   </g>
  </g>
 </g>
 <defs>
  <clipPath id="p0136bbdede">
   <rect x="95.28125" y="57.8325" width="669.6" height="443.52"/>
  </clipPath>
 </defs>
</svg>
