<?xml version="1.0" encoding="utf-8" standalone="no"?>
<!DOCTYPE svg PUBLIC "-//W3C//DTD SVG 1.1//EN"
  "http://www.w3.org/Graphics/SVG/1.1/DTD/svg11.dtd">
<svg xmlns:xlink="http://www.w3.org/1999/xlink" width="800.725pt" height="581.830625pt" viewBox="0 0 800.725 581.830625" xmlns="http://www.w3.org/2000/svg" version="1.1">
 <metadata>
  <rdf:RDF xmlns:dc="http://purl.org/dc/elements/1.1/" xmlns:cc="http://creativecommons.org/ns#" xmlns:rdf="http://www.w3.org/1999/02/22-rdf-syntax-ns#">
   <cc:Work>
    <dc:type rdf:resource="http://purl.org/dc/dcmitype/StillImage"/>
    <dc:date>2025-04-03T01:48:05.423823</dc:date>
    <dc:format>image/svg+xml</dc:format>
    <dc:creator>
     <cc:Agent>
      <dc:title>Matplotlib v3.8.2, https://matplotlib.org/</dc:title>
     </cc:Agent>
    </dc:creator>
   </cc:Work>
  </rdf:RDF>
 </metadata>
 <defs>
  <style type="text/css">*{stroke-linejoin: round; stroke-linecap: butt}</style>
 </defs>
 <g id="figure_1">
  <g id="patch_1">
   <path d="M 0 581.830625 
L 800.725 581.830625 
L 800.725 0 
L 0 0 
z
" style="fill: #ffffff"/>
  </g>
  <g id="axes_1">
   <g id="patch_2">
    <path d="M 95.125 501.3525 
L 764.725 501.3525 
L 764.725 57.8325 
L 95.125 57.8325 
z
" style="fill: #ffffff"/>
   </g>
   <g id="matplotlib.axis_1">
    <g id="xtick_1">
     <g id="line2d_1">
      <path d="M 125.201543 501.3525 
L 125.201543 57.8325 
" clip-path="url(#p2703423f60)" style="fill: none; stroke: #b0b0b0; stroke-opacity: 0.8; stroke-linecap: square"/>
     </g>
     <g id="line2d_2">
      <defs>
       <path id="m0ffa7b3a90" d="M 0 0 
L 0 3.5 
" style="stroke: #000000; stroke-width: 0.8"/>
      </defs>
      <g>
       <use xlink:href="#m0ffa7b3a90" x="125.201543" y="501.3525" style="stroke: #000000; stroke-width: 0.8"/>
      </g>
     </g>
     <g id="text_1">
      <!-- 0 -->
      <g transform="translate(119.971856 521.49625) scale(0.2 -0.2)">
       <defs>
        <path id="AptosDisplay-30" d="M 1672 -56 
Q 1291 -56 1028 105 
Q 766 266 605 552 
Q 444 838 372 1216 
Q 300 1594 300 2031 
Q 300 2475 372 2856 
Q 444 3238 605 3525 
Q 766 3813 1028 3973 
Q 1291 4134 1672 4134 
Q 2053 4134 2317 3975 
Q 2581 3816 2742 3527 
Q 2903 3238 2975 2858 
Q 3047 2478 3047 2038 
Q 3047 1597 2975 1217 
Q 2903 838 2742 552 
Q 2581 266 2318 105 
Q 2056 -56 1672 -56 
z
M 1672 409 
Q 1916 409 2073 550 
Q 2231 691 2322 925 
Q 2413 1159 2448 1448 
Q 2484 1738 2484 2038 
Q 2484 2338 2448 2628 
Q 2413 2919 2322 3153 
Q 2231 3388 2073 3527 
Q 1916 3666 1669 3666 
Q 1428 3666 1268 3527 
Q 1109 3388 1020 3153 
Q 931 2919 893 2628 
Q 856 2338 856 2038 
Q 856 1741 893 1450 
Q 931 1159 1020 925 
Q 1109 691 1268 550 
Q 1428 409 1672 409 
z
" transform="scale(0.015625)"/>
       </defs>
       <use xlink:href="#AptosDisplay-30"/>
      </g>
     </g>
    </g>
    <g id="xtick_2">
     <g id="line2d_3">
      <path d="M 207.729196 501.3525 
L 207.729196 57.8325 
" clip-path="url(#p2703423f60)" style="fill: none; stroke: #b0b0b0; stroke-opacity: 0.8; stroke-linecap: square"/>
     </g>
     <g id="line2d_4">
      <g>
       <use xlink:href="#m0ffa7b3a90" x="207.729196" y="501.3525" style="stroke: #000000; stroke-width: 0.8"/>
      </g>
     </g>
     <g id="text_2">
      <!-- 25 -->
      <g transform="translate(197.269821 521.49625) scale(0.2 -0.2)">
       <defs>
        <path id="AptosDisplay-32" d="M 247 0 
L 247 413 
L 1725 1741 
Q 2100 2081 2269 2351 
Q 2438 2622 2438 2938 
Q 2438 3256 2263 3461 
Q 2088 3666 1691 3666 
Q 1247 3666 1055 3439 
Q 863 3213 863 2869 
L 341 2869 
Q 341 3250 491 3534 
Q 641 3819 941 3975 
Q 1241 4131 1691 4131 
Q 2103 4131 2390 3986 
Q 2678 3841 2828 3578 
Q 2978 3316 2978 2959 
Q 2978 2638 2853 2375 
Q 2728 2113 2517 1883 
Q 2306 1653 2044 1425 
L 959 463 
L 3097 463 
L 3097 0 
L 247 0 
z
" transform="scale(0.015625)"/>
        <path id="AptosDisplay-35" d="M 1669 -56 
Q 1278 -56 964 83 
Q 650 222 465 483 
Q 281 744 281 1113 
L 816 1113 
Q 816 778 1055 584 
Q 1294 391 1669 391 
Q 2069 391 2291 625 
Q 2513 859 2513 1319 
Q 2513 1772 2291 1989 
Q 2069 2206 1697 2206 
Q 1409 2206 1223 2123 
Q 1038 2041 916 1894 
L 444 1894 
L 622 4078 
L 2788 4078 
L 2788 3613 
L 1041 3613 
L 931 2322 
Q 1044 2453 1251 2550 
Q 1459 2647 1775 2647 
Q 2131 2647 2420 2506 
Q 2709 2366 2881 2072 
Q 3053 1778 3053 1319 
Q 3053 863 2875 558 
Q 2697 253 2384 98 
Q 2072 -56 1669 -56 
z
" transform="scale(0.015625)"/>
       </defs>
       <use xlink:href="#AptosDisplay-32"/>
       <use xlink:href="#AptosDisplay-35" x="52.294922"/>
      </g>
     </g>
    </g>
    <g id="xtick_3">
     <g id="line2d_5">
      <path d="M 290.25685 501.3525 
L 290.25685 57.8325 
" clip-path="url(#p2703423f60)" style="fill: none; stroke: #b0b0b0; stroke-opacity: 0.8; stroke-linecap: square"/>
     </g>
     <g id="line2d_6">
      <g>
       <use xlink:href="#m0ffa7b3a90" x="290.25685" y="501.3525" style="stroke: #000000; stroke-width: 0.8"/>
      </g>
     </g>
     <g id="text_3">
      <!-- 50 -->
      <g transform="translate(279.797475 521.49625) scale(0.2 -0.2)">
       <use xlink:href="#AptosDisplay-35"/>
       <use xlink:href="#AptosDisplay-30" x="52.294922"/>
      </g>
     </g>
    </g>
    <g id="xtick_4">
     <g id="line2d_7">
      <path d="M 372.784503 501.3525 
L 372.784503 57.8325 
" clip-path="url(#p2703423f60)" style="fill: none; stroke: #b0b0b0; stroke-opacity: 0.8; stroke-linecap: square"/>
     </g>
     <g id="line2d_8">
      <g>
       <use xlink:href="#m0ffa7b3a90" x="372.784503" y="501.3525" style="stroke: #000000; stroke-width: 0.8"/>
      </g>
     </g>
     <g id="text_4">
      <!-- 75 -->
      <g transform="translate(362.325128 521.49625) scale(0.2 -0.2)">
       <defs>
        <path id="AptosDisplay-37" d="M 766 0 
L 2609 3600 
L 194 3600 
L 194 4078 
L 3141 4078 
L 3141 3622 
L 1334 0 
L 766 0 
z
" transform="scale(0.015625)"/>
       </defs>
       <use xlink:href="#AptosDisplay-37"/>
       <use xlink:href="#AptosDisplay-35" x="52.294922"/>
      </g>
     </g>
    </g>
    <g id="xtick_5">
     <g id="line2d_9">
      <path d="M 455.312157 501.3525 
L 455.312157 57.8325 
" clip-path="url(#p2703423f60)" style="fill: none; stroke: #b0b0b0; stroke-opacity: 0.8; stroke-linecap: square"/>
     </g>
     <g id="line2d_10">
      <g>
       <use xlink:href="#m0ffa7b3a90" x="455.312157" y="501.3525" style="stroke: #000000; stroke-width: 0.8"/>
      </g>
     </g>
     <g id="text_5">
      <!-- 100 -->
      <g transform="translate(439.623094 521.49625) scale(0.2 -0.2)">
       <defs>
        <path id="AptosDisplay-31" d="M 1659 0 
L 1659 3425 
Q 1575 3309 1420 3201 
Q 1266 3094 1052 3009 
Q 838 2925 578 2888 
L 578 3381 
Q 834 3425 1057 3540 
Q 1281 3656 1453 3806 
Q 1625 3956 1719 4094 
L 2206 4094 
L 2206 0 
L 1659 0 
z
" transform="scale(0.015625)"/>
       </defs>
       <use xlink:href="#AptosDisplay-31"/>
       <use xlink:href="#AptosDisplay-30" x="52.294922"/>
       <use xlink:href="#AptosDisplay-30" x="104.589844"/>
      </g>
     </g>
    </g>
    <g id="xtick_6">
     <g id="line2d_11">
      <path d="M 537.83981 501.3525 
L 537.83981 57.8325 
" clip-path="url(#p2703423f60)" style="fill: none; stroke: #b0b0b0; stroke-opacity: 0.8; stroke-linecap: square"/>
     </g>
     <g id="line2d_12">
      <g>
       <use xlink:href="#m0ffa7b3a90" x="537.83981" y="501.3525" style="stroke: #000000; stroke-width: 0.8"/>
      </g>
     </g>
     <g id="text_6">
      <!-- 125 -->
      <g transform="translate(522.150748 521.49625) scale(0.2 -0.2)">
       <use xlink:href="#AptosDisplay-31"/>
       <use xlink:href="#AptosDisplay-32" x="52.294922"/>
       <use xlink:href="#AptosDisplay-35" x="104.589844"/>
      </g>
     </g>
    </g>
    <g id="xtick_7">
     <g id="line2d_13">
      <path d="M 620.367464 501.3525 
L 620.367464 57.8325 
" clip-path="url(#p2703423f60)" style="fill: none; stroke: #b0b0b0; stroke-opacity: 0.8; stroke-linecap: square"/>
     </g>
     <g id="line2d_14">
      <g>
       <use xlink:href="#m0ffa7b3a90" x="620.367464" y="501.3525" style="stroke: #000000; stroke-width: 0.8"/>
      </g>
     </g>
     <g id="text_7">
      <!-- 150 -->
      <g transform="translate(604.678401 521.49625) scale(0.2 -0.2)">
       <use xlink:href="#AptosDisplay-31"/>
       <use xlink:href="#AptosDisplay-35" x="52.294922"/>
       <use xlink:href="#AptosDisplay-30" x="104.589844"/>
      </g>
     </g>
    </g>
    <g id="xtick_8">
     <g id="line2d_15">
      <path d="M 702.895117 501.3525 
L 702.895117 57.8325 
" clip-path="url(#p2703423f60)" style="fill: none; stroke: #b0b0b0; stroke-opacity: 0.8; stroke-linecap: square"/>
     </g>
     <g id="line2d_16">
      <g>
       <use xlink:href="#m0ffa7b3a90" x="702.895117" y="501.3525" style="stroke: #000000; stroke-width: 0.8"/>
      </g>
     </g>
     <g id="text_8">
      <!-- 175 -->
      <g transform="translate(687.206055 521.49625) scale(0.2 -0.2)">
       <use xlink:href="#AptosDisplay-31"/>
       <use xlink:href="#AptosDisplay-37" x="52.294922"/>
       <use xlink:href="#AptosDisplay-35" x="104.589844"/>
      </g>
     </g>
    </g>
    <g id="xtick_9">
     <g id="line2d_17">
      <path d="M 108.696012 501.3525 
L 108.696012 57.8325 
" clip-path="url(#p2703423f60)" style="fill: none; stroke-dasharray: 1.85,0.8; stroke-dashoffset: 0; stroke: #b0b0b0; stroke-opacity: 0.8; stroke-width: 0.5"/>
     </g>
     <g id="line2d_18">
      <defs>
       <path id="m0d6b1cc453" d="M 0 0 
L 0 2 
" style="stroke: #000000; stroke-width: 0.6"/>
      </defs>
      <g>
       <use xlink:href="#m0d6b1cc453" x="108.696012" y="501.3525" style="stroke: #000000; stroke-width: 0.6"/>
      </g>
     </g>
    </g>
    <g id="xtick_10">
     <g id="line2d_19">
      <path d="M 141.707074 501.3525 
L 141.707074 57.8325 
" clip-path="url(#p2703423f60)" style="fill: none; stroke-dasharray: 1.85,0.8; stroke-dashoffset: 0; stroke: #b0b0b0; stroke-opacity: 0.8; stroke-width: 0.5"/>
     </g>
     <g id="line2d_20">
      <g>
       <use xlink:href="#m0d6b1cc453" x="141.707074" y="501.3525" style="stroke: #000000; stroke-width: 0.6"/>
      </g>
     </g>
    </g>
    <g id="xtick_11">
     <g id="line2d_21">
      <path d="M 158.212604 501.3525 
L 158.212604 57.8325 
" clip-path="url(#p2703423f60)" style="fill: none; stroke-dasharray: 1.85,0.8; stroke-dashoffset: 0; stroke: #b0b0b0; stroke-opacity: 0.8; stroke-width: 0.5"/>
     </g>
     <g id="line2d_22">
      <g>
       <use xlink:href="#m0d6b1cc453" x="158.212604" y="501.3525" style="stroke: #000000; stroke-width: 0.6"/>
      </g>
     </g>
    </g>
    <g id="xtick_12">
     <g id="line2d_23">
      <path d="M 174.718135 501.3525 
L 174.718135 57.8325 
" clip-path="url(#p2703423f60)" style="fill: none; stroke-dasharray: 1.85,0.8; stroke-dashoffset: 0; stroke: #b0b0b0; stroke-opacity: 0.8; stroke-width: 0.5"/>
     </g>
     <g id="line2d_24">
      <g>
       <use xlink:href="#m0d6b1cc453" x="174.718135" y="501.3525" style="stroke: #000000; stroke-width: 0.6"/>
      </g>
     </g>
    </g>
    <g id="xtick_13">
     <g id="line2d_25">
      <path d="M 191.223666 501.3525 
L 191.223666 57.8325 
" clip-path="url(#p2703423f60)" style="fill: none; stroke-dasharray: 1.85,0.8; stroke-dashoffset: 0; stroke: #b0b0b0; stroke-opacity: 0.8; stroke-width: 0.5"/>
     </g>
     <g id="line2d_26">
      <g>
       <use xlink:href="#m0d6b1cc453" x="191.223666" y="501.3525" style="stroke: #000000; stroke-width: 0.6"/>
      </g>
     </g>
    </g>
    <g id="xtick_14">
     <g id="line2d_27">
      <path d="M 224.234727 501.3525 
L 224.234727 57.8325 
" clip-path="url(#p2703423f60)" style="fill: none; stroke-dasharray: 1.85,0.8; stroke-dashoffset: 0; stroke: #b0b0b0; stroke-opacity: 0.8; stroke-width: 0.5"/>
     </g>
     <g id="line2d_28">
      <g>
       <use xlink:href="#m0d6b1cc453" x="224.234727" y="501.3525" style="stroke: #000000; stroke-width: 0.6"/>
      </g>
     </g>
    </g>
    <g id="xtick_15">
     <g id="line2d_29">
      <path d="M 240.740258 501.3525 
L 240.740258 57.8325 
" clip-path="url(#p2703423f60)" style="fill: none; stroke-dasharray: 1.85,0.8; stroke-dashoffset: 0; stroke: #b0b0b0; stroke-opacity: 0.8; stroke-width: 0.5"/>
     </g>
     <g id="line2d_30">
      <g>
       <use xlink:href="#m0d6b1cc453" x="240.740258" y="501.3525" style="stroke: #000000; stroke-width: 0.6"/>
      </g>
     </g>
    </g>
    <g id="xtick_16">
     <g id="line2d_31">
      <path d="M 257.245789 501.3525 
L 257.245789 57.8325 
" clip-path="url(#p2703423f60)" style="fill: none; stroke-dasharray: 1.85,0.8; stroke-dashoffset: 0; stroke: #b0b0b0; stroke-opacity: 0.8; stroke-width: 0.5"/>
     </g>
     <g id="line2d_32">
      <g>
       <use xlink:href="#m0d6b1cc453" x="257.245789" y="501.3525" style="stroke: #000000; stroke-width: 0.6"/>
      </g>
     </g>
    </g>
    <g id="xtick_17">
     <g id="line2d_33">
      <path d="M 273.751319 501.3525 
L 273.751319 57.8325 
" clip-path="url(#p2703423f60)" style="fill: none; stroke-dasharray: 1.85,0.8; stroke-dashoffset: 0; stroke: #b0b0b0; stroke-opacity: 0.8; stroke-width: 0.5"/>
     </g>
     <g id="line2d_34">
      <g>
       <use xlink:href="#m0d6b1cc453" x="273.751319" y="501.3525" style="stroke: #000000; stroke-width: 0.6"/>
      </g>
     </g>
    </g>
    <g id="xtick_18">
     <g id="line2d_35">
      <path d="M 306.762381 501.3525 
L 306.762381 57.8325 
" clip-path="url(#p2703423f60)" style="fill: none; stroke-dasharray: 1.85,0.8; stroke-dashoffset: 0; stroke: #b0b0b0; stroke-opacity: 0.8; stroke-width: 0.5"/>
     </g>
     <g id="line2d_36">
      <g>
       <use xlink:href="#m0d6b1cc453" x="306.762381" y="501.3525" style="stroke: #000000; stroke-width: 0.6"/>
      </g>
     </g>
    </g>
    <g id="xtick_19">
     <g id="line2d_37">
      <path d="M 323.267911 501.3525 
L 323.267911 57.8325 
" clip-path="url(#p2703423f60)" style="fill: none; stroke-dasharray: 1.85,0.8; stroke-dashoffset: 0; stroke: #b0b0b0; stroke-opacity: 0.8; stroke-width: 0.5"/>
     </g>
     <g id="line2d_38">
      <g>
       <use xlink:href="#m0d6b1cc453" x="323.267911" y="501.3525" style="stroke: #000000; stroke-width: 0.6"/>
      </g>
     </g>
    </g>
    <g id="xtick_20">
     <g id="line2d_39">
      <path d="M 339.773442 501.3525 
L 339.773442 57.8325 
" clip-path="url(#p2703423f60)" style="fill: none; stroke-dasharray: 1.85,0.8; stroke-dashoffset: 0; stroke: #b0b0b0; stroke-opacity: 0.8; stroke-width: 0.5"/>
     </g>
     <g id="line2d_40">
      <g>
       <use xlink:href="#m0d6b1cc453" x="339.773442" y="501.3525" style="stroke: #000000; stroke-width: 0.6"/>
      </g>
     </g>
    </g>
    <g id="xtick_21">
     <g id="line2d_41">
      <path d="M 356.278973 501.3525 
L 356.278973 57.8325 
" clip-path="url(#p2703423f60)" style="fill: none; stroke-dasharray: 1.85,0.8; stroke-dashoffset: 0; stroke: #b0b0b0; stroke-opacity: 0.8; stroke-width: 0.5"/>
     </g>
     <g id="line2d_42">
      <g>
       <use xlink:href="#m0d6b1cc453" x="356.278973" y="501.3525" style="stroke: #000000; stroke-width: 0.6"/>
      </g>
     </g>
    </g>
    <g id="xtick_22">
     <g id="line2d_43">
      <path d="M 389.290034 501.3525 
L 389.290034 57.8325 
" clip-path="url(#p2703423f60)" style="fill: none; stroke-dasharray: 1.85,0.8; stroke-dashoffset: 0; stroke: #b0b0b0; stroke-opacity: 0.8; stroke-width: 0.5"/>
     </g>
     <g id="line2d_44">
      <g>
       <use xlink:href="#m0d6b1cc453" x="389.290034" y="501.3525" style="stroke: #000000; stroke-width: 0.6"/>
      </g>
     </g>
    </g>
    <g id="xtick_23">
     <g id="line2d_45">
      <path d="M 405.795565 501.3525 
L 405.795565 57.8325 
" clip-path="url(#p2703423f60)" style="fill: none; stroke-dasharray: 1.85,0.8; stroke-dashoffset: 0; stroke: #b0b0b0; stroke-opacity: 0.8; stroke-width: 0.5"/>
     </g>
     <g id="line2d_46">
      <g>
       <use xlink:href="#m0d6b1cc453" x="405.795565" y="501.3525" style="stroke: #000000; stroke-width: 0.6"/>
      </g>
     </g>
    </g>
    <g id="xtick_24">
     <g id="line2d_47">
      <path d="M 422.301095 501.3525 
L 422.301095 57.8325 
" clip-path="url(#p2703423f60)" style="fill: none; stroke-dasharray: 1.85,0.8; stroke-dashoffset: 0; stroke: #b0b0b0; stroke-opacity: 0.8; stroke-width: 0.5"/>
     </g>
     <g id="line2d_48">
      <g>
       <use xlink:href="#m0d6b1cc453" x="422.301095" y="501.3525" style="stroke: #000000; stroke-width: 0.6"/>
      </g>
     </g>
    </g>
    <g id="xtick_25">
     <g id="line2d_49">
      <path d="M 438.806626 501.3525 
L 438.806626 57.8325 
" clip-path="url(#p2703423f60)" style="fill: none; stroke-dasharray: 1.85,0.8; stroke-dashoffset: 0; stroke: #b0b0b0; stroke-opacity: 0.8; stroke-width: 0.5"/>
     </g>
     <g id="line2d_50">
      <g>
       <use xlink:href="#m0d6b1cc453" x="438.806626" y="501.3525" style="stroke: #000000; stroke-width: 0.6"/>
      </g>
     </g>
    </g>
    <g id="xtick_26">
     <g id="line2d_51">
      <path d="M 471.817687 501.3525 
L 471.817687 57.8325 
" clip-path="url(#p2703423f60)" style="fill: none; stroke-dasharray: 1.85,0.8; stroke-dashoffset: 0; stroke: #b0b0b0; stroke-opacity: 0.8; stroke-width: 0.5"/>
     </g>
     <g id="line2d_52">
      <g>
       <use xlink:href="#m0d6b1cc453" x="471.817687" y="501.3525" style="stroke: #000000; stroke-width: 0.6"/>
      </g>
     </g>
    </g>
    <g id="xtick_27">
     <g id="line2d_53">
      <path d="M 488.323218 501.3525 
L 488.323218 57.8325 
" clip-path="url(#p2703423f60)" style="fill: none; stroke-dasharray: 1.85,0.8; stroke-dashoffset: 0; stroke: #b0b0b0; stroke-opacity: 0.8; stroke-width: 0.5"/>
     </g>
     <g id="line2d_54">
      <g>
       <use xlink:href="#m0d6b1cc453" x="488.323218" y="501.3525" style="stroke: #000000; stroke-width: 0.6"/>
      </g>
     </g>
    </g>
    <g id="xtick_28">
     <g id="line2d_55">
      <path d="M 504.828749 501.3525 
L 504.828749 57.8325 
" clip-path="url(#p2703423f60)" style="fill: none; stroke-dasharray: 1.85,0.8; stroke-dashoffset: 0; stroke: #b0b0b0; stroke-opacity: 0.8; stroke-width: 0.5"/>
     </g>
     <g id="line2d_56">
      <g>
       <use xlink:href="#m0d6b1cc453" x="504.828749" y="501.3525" style="stroke: #000000; stroke-width: 0.6"/>
      </g>
     </g>
    </g>
    <g id="xtick_29">
     <g id="line2d_57">
      <path d="M 521.334279 501.3525 
L 521.334279 57.8325 
" clip-path="url(#p2703423f60)" style="fill: none; stroke-dasharray: 1.85,0.8; stroke-dashoffset: 0; stroke: #b0b0b0; stroke-opacity: 0.8; stroke-width: 0.5"/>
     </g>
     <g id="line2d_58">
      <g>
       <use xlink:href="#m0d6b1cc453" x="521.334279" y="501.3525" style="stroke: #000000; stroke-width: 0.6"/>
      </g>
     </g>
    </g>
    <g id="xtick_30">
     <g id="line2d_59">
      <path d="M 554.345341 501.3525 
L 554.345341 57.8325 
" clip-path="url(#p2703423f60)" style="fill: none; stroke-dasharray: 1.85,0.8; stroke-dashoffset: 0; stroke: #b0b0b0; stroke-opacity: 0.8; stroke-width: 0.5"/>
     </g>
     <g id="line2d_60">
      <g>
       <use xlink:href="#m0d6b1cc453" x="554.345341" y="501.3525" style="stroke: #000000; stroke-width: 0.6"/>
      </g>
     </g>
    </g>
    <g id="xtick_31">
     <g id="line2d_61">
      <path d="M 570.850872 501.3525 
L 570.850872 57.8325 
" clip-path="url(#p2703423f60)" style="fill: none; stroke-dasharray: 1.85,0.8; stroke-dashoffset: 0; stroke: #b0b0b0; stroke-opacity: 0.8; stroke-width: 0.5"/>
     </g>
     <g id="line2d_62">
      <g>
       <use xlink:href="#m0d6b1cc453" x="570.850872" y="501.3525" style="stroke: #000000; stroke-width: 0.6"/>
      </g>
     </g>
    </g>
    <g id="xtick_32">
     <g id="line2d_63">
      <path d="M 587.356402 501.3525 
L 587.356402 57.8325 
" clip-path="url(#p2703423f60)" style="fill: none; stroke-dasharray: 1.85,0.8; stroke-dashoffset: 0; stroke: #b0b0b0; stroke-opacity: 0.8; stroke-width: 0.5"/>
     </g>
     <g id="line2d_64">
      <g>
       <use xlink:href="#m0d6b1cc453" x="587.356402" y="501.3525" style="stroke: #000000; stroke-width: 0.6"/>
      </g>
     </g>
    </g>
    <g id="xtick_33">
     <g id="line2d_65">
      <path d="M 603.861933 501.3525 
L 603.861933 57.8325 
" clip-path="url(#p2703423f60)" style="fill: none; stroke-dasharray: 1.85,0.8; stroke-dashoffset: 0; stroke: #b0b0b0; stroke-opacity: 0.8; stroke-width: 0.5"/>
     </g>
     <g id="line2d_66">
      <g>
       <use xlink:href="#m0d6b1cc453" x="603.861933" y="501.3525" style="stroke: #000000; stroke-width: 0.6"/>
      </g>
     </g>
    </g>
    <g id="xtick_34">
     <g id="line2d_67">
      <path d="M 636.872994 501.3525 
L 636.872994 57.8325 
" clip-path="url(#p2703423f60)" style="fill: none; stroke-dasharray: 1.85,0.8; stroke-dashoffset: 0; stroke: #b0b0b0; stroke-opacity: 0.8; stroke-width: 0.5"/>
     </g>
     <g id="line2d_68">
      <g>
       <use xlink:href="#m0d6b1cc453" x="636.872994" y="501.3525" style="stroke: #000000; stroke-width: 0.6"/>
      </g>
     </g>
    </g>
    <g id="xtick_35">
     <g id="line2d_69">
      <path d="M 653.378525 501.3525 
L 653.378525 57.8325 
" clip-path="url(#p2703423f60)" style="fill: none; stroke-dasharray: 1.85,0.8; stroke-dashoffset: 0; stroke: #b0b0b0; stroke-opacity: 0.8; stroke-width: 0.5"/>
     </g>
     <g id="line2d_70">
      <g>
       <use xlink:href="#m0d6b1cc453" x="653.378525" y="501.3525" style="stroke: #000000; stroke-width: 0.6"/>
      </g>
     </g>
    </g>
    <g id="xtick_36">
     <g id="line2d_71">
      <path d="M 669.884056 501.3525 
L 669.884056 57.8325 
" clip-path="url(#p2703423f60)" style="fill: none; stroke-dasharray: 1.85,0.8; stroke-dashoffset: 0; stroke: #b0b0b0; stroke-opacity: 0.8; stroke-width: 0.5"/>
     </g>
     <g id="line2d_72">
      <g>
       <use xlink:href="#m0d6b1cc453" x="669.884056" y="501.3525" style="stroke: #000000; stroke-width: 0.6"/>
      </g>
     </g>
    </g>
    <g id="xtick_37">
     <g id="line2d_73">
      <path d="M 686.389586 501.3525 
L 686.389586 57.8325 
" clip-path="url(#p2703423f60)" style="fill: none; stroke-dasharray: 1.85,0.8; stroke-dashoffset: 0; stroke: #b0b0b0; stroke-opacity: 0.8; stroke-width: 0.5"/>
     </g>
     <g id="line2d_74">
      <g>
       <use xlink:href="#m0d6b1cc453" x="686.389586" y="501.3525" style="stroke: #000000; stroke-width: 0.6"/>
      </g>
     </g>
    </g>
    <g id="xtick_38">
     <g id="line2d_75">
      <path d="M 719.400648 501.3525 
L 719.400648 57.8325 
" clip-path="url(#p2703423f60)" style="fill: none; stroke-dasharray: 1.85,0.8; stroke-dashoffset: 0; stroke: #b0b0b0; stroke-opacity: 0.8; stroke-width: 0.5"/>
     </g>
     <g id="line2d_76">
      <g>
       <use xlink:href="#m0d6b1cc453" x="719.400648" y="501.3525" style="stroke: #000000; stroke-width: 0.6"/>
      </g>
     </g>
    </g>
    <g id="xtick_39">
     <g id="line2d_77">
      <path d="M 735.906178 501.3525 
L 735.906178 57.8325 
" clip-path="url(#p2703423f60)" style="fill: none; stroke-dasharray: 1.85,0.8; stroke-dashoffset: 0; stroke: #b0b0b0; stroke-opacity: 0.8; stroke-width: 0.5"/>
     </g>
     <g id="line2d_78">
      <g>
       <use xlink:href="#m0d6b1cc453" x="735.906178" y="501.3525" style="stroke: #000000; stroke-width: 0.6"/>
      </g>
     </g>
    </g>
    <g id="xtick_40">
     <g id="line2d_79">
      <path d="M 752.411709 501.3525 
L 752.411709 57.8325 
" clip-path="url(#p2703423f60)" style="fill: none; stroke-dasharray: 1.85,0.8; stroke-dashoffset: 0; stroke: #b0b0b0; stroke-opacity: 0.8; stroke-width: 0.5"/>
     </g>
     <g id="line2d_80">
      <g>
       <use xlink:href="#m0d6b1cc453" x="752.411709" y="501.3525" style="stroke: #000000; stroke-width: 0.6"/>
      </g>
     </g>
    </g>
    <g id="text_9">
     <!-- Time (S) -->
     <g transform="translate(396.834375 542.305625) scale(0.2 -0.2)">
      <defs>
       <path id="AptosDisplay-54" d="M 1244 0 
L 1244 3734 
L 50 3734 
L 50 4206 
L 2997 4206 
L 2997 3734 
L 1806 3734 
L 1806 0 
L 1244 0 
z
" transform="scale(0.015625)"/>
       <path id="AptosDisplay-69" d="M 413 0 
L 413 3044 
L 934 3044 
L 934 0 
L 413 0 
z
M 675 3616 
Q 525 3616 437 3702 
Q 350 3788 350 3919 
Q 350 4050 437 4136 
Q 525 4222 675 4222 
Q 822 4222 912 4136 
Q 1003 4050 1003 3919 
Q 1003 3788 912 3702 
Q 822 3616 675 3616 
z
" transform="scale(0.015625)"/>
       <path id="AptosDisplay-6d" d="M 413 0 
L 413 3044 
L 919 3044 
L 931 2575 
Q 1063 2756 1303 2914 
Q 1544 3072 1903 3072 
Q 2403 3072 2618 2778 
Q 2834 2484 2834 1963 
L 2834 0 
L 2316 0 
L 2316 1891 
Q 2316 2106 2275 2275 
Q 2234 2444 2120 2539 
Q 2006 2634 1788 2634 
Q 1488 2634 1277 2482 
Q 1066 2331 934 2156 
L 934 0 
L 413 0 
z
M 4206 0 
L 4206 1891 
Q 4206 2106 4164 2275 
Q 4122 2444 4009 2539 
Q 3897 2634 3681 2634 
Q 3381 2634 3165 2484 
Q 2950 2334 2822 2159 
L 2744 2544 
Q 2916 2741 3175 2906 
Q 3434 3072 3800 3072 
Q 4291 3072 4509 2778 
Q 4728 2484 4728 1963 
L 4728 0 
L 4206 0 
z
" transform="scale(0.015625)"/>
       <path id="AptosDisplay-65" d="M 1663 -56 
Q 1188 -56 878 151 
Q 569 359 417 717 
Q 266 1075 266 1522 
Q 266 1988 412 2342 
Q 559 2697 857 2897 
Q 1156 3097 1606 3097 
Q 2209 3097 2550 2722 
Q 2891 2347 2891 1644 
Q 2891 1597 2889 1533 
Q 2888 1469 2881 1441 
L 791 1441 
Q 794 1144 881 895 
Q 969 647 1161 497 
Q 1353 347 1663 347 
Q 1997 347 2183 511 
Q 2369 675 2378 984 
L 2894 984 
Q 2884 663 2732 430 
Q 2581 197 2309 70 
Q 2038 -56 1663 -56 
z
M 794 1822 
L 2375 1822 
Q 2366 2247 2166 2472 
Q 1966 2697 1606 2697 
Q 1241 2697 1036 2473 
Q 831 2250 794 1822 
z
" transform="scale(0.015625)"/>
       <path id="AptosDisplay-20" transform="scale(0.015625)"/>
       <path id="AptosDisplay-28" d="M 1219 -1116 
Q 969 -678 787 -267 
Q 606 144 511 581 
Q 416 1019 416 1528 
Q 416 2028 509 2486 
Q 603 2944 783 3378 
Q 963 3813 1219 4231 
L 1647 4231 
Q 1278 3600 1101 2886 
Q 925 2172 925 1428 
Q 925 766 1125 103 
Q 1325 -559 1647 -1116 
L 1219 -1116 
z
" transform="scale(0.015625)"/>
       <path id="AptosDisplay-53" d="M 1778 -56 
Q 1328 -56 962 81 
Q 597 219 384 512 
Q 172 806 172 1275 
L 734 1275 
Q 738 941 883 750 
Q 1028 559 1267 481 
Q 1506 403 1794 403 
Q 2063 403 2283 483 
Q 2503 563 2634 723 
Q 2766 884 2766 1134 
Q 2766 1356 2662 1497 
Q 2559 1638 2321 1742 
Q 2084 1847 1678 1950 
Q 1203 2075 897 2223 
Q 591 2372 442 2594 
Q 294 2816 294 3156 
Q 294 3516 462 3761 
Q 631 4006 945 4134 
Q 1259 4263 1697 4263 
Q 2103 4263 2440 4131 
Q 2778 4000 2979 3737 
Q 3181 3475 3181 3084 
L 2616 3084 
Q 2622 3441 2356 3623 
Q 2091 3806 1700 3806 
Q 1300 3806 1073 3645 
Q 847 3484 847 3175 
Q 847 2991 944 2867 
Q 1041 2744 1280 2644 
Q 1519 2544 1941 2434 
Q 2428 2303 2731 2153 
Q 3034 2003 3178 1768 
Q 3322 1534 3322 1153 
Q 3322 747 3117 480 
Q 2913 213 2564 78 
Q 2216 -56 1778 -56 
z
" transform="scale(0.015625)"/>
       <path id="AptosDisplay-29" d="M 234 -1116 
Q 609 -481 786 233 
Q 963 947 963 1694 
Q 963 2356 759 3015 
Q 556 3675 234 4231 
L 663 4231 
Q 919 3800 1098 3389 
Q 1278 2978 1373 2540 
Q 1469 2103 1469 1594 
Q 1469 1094 1375 634 
Q 1281 175 1100 -259 
Q 919 -694 663 -1116 
L 234 -1116 
z
" transform="scale(0.015625)"/>
      </defs>
      <use xlink:href="#AptosDisplay-54"/>
      <use xlink:href="#AptosDisplay-69" x="47.705078"/>
      <use xlink:href="#AptosDisplay-6d" x="68.75"/>
      <use xlink:href="#AptosDisplay-65" x="148.730469"/>
      <use xlink:href="#AptosDisplay-20" x="198.144531"/>
      <use xlink:href="#AptosDisplay-28" x="217.431641"/>
      <use xlink:href="#AptosDisplay-53" x="246.875"/>
      <use xlink:href="#AptosDisplay-29" x="301.464844"/>
     </g>
    </g>
   </g>
   <g id="matplotlib.axis_2">
    <g id="ytick_1">
     <g id="line2d_81">
      <path d="M 95.125 488.957833 
L 764.725 488.957833 
" clip-path="url(#p2703423f60)" style="fill: none; stroke: #b0b0b0; stroke-opacity: 0.8; stroke-linecap: square"/>
     </g>
     <g id="line2d_82">
      <defs>
       <path id="mc73f3df478" d="M 0 0 
L -3.5 0 
" style="stroke: #000000; stroke-width: 0.8"/>
      </defs>
      <g>
       <use xlink:href="#mc73f3df478" x="95.125" y="488.957833" style="stroke: #000000; stroke-width: 0.8"/>
      </g>
     </g>
     <g id="text_10">
      <!-- 0 -->
      <g transform="translate(77.665625 495.529708) scale(0.2 -0.2)">
       <use xlink:href="#AptosDisplay-30"/>
      </g>
     </g>
    </g>
    <g id="ytick_2">
     <g id="line2d_83">
      <path d="M 95.125 437.587167 
L 764.725 437.587167 
" clip-path="url(#p2703423f60)" style="fill: none; stroke: #b0b0b0; stroke-opacity: 0.8; stroke-linecap: square"/>
     </g>
     <g id="line2d_84">
      <g>
       <use xlink:href="#mc73f3df478" x="95.125" y="437.587167" style="stroke: #000000; stroke-width: 0.8"/>
      </g>
     </g>
     <g id="text_11">
      <!-- 100 -->
      <g transform="translate(56.746875 444.159042) scale(0.2 -0.2)">
       <use xlink:href="#AptosDisplay-31"/>
       <use xlink:href="#AptosDisplay-30" x="52.294922"/>
       <use xlink:href="#AptosDisplay-30" x="104.589844"/>
      </g>
     </g>
    </g>
    <g id="ytick_3">
     <g id="line2d_85">
      <path d="M 95.125 386.2165 
L 764.725 386.2165 
" clip-path="url(#p2703423f60)" style="fill: none; stroke: #b0b0b0; stroke-opacity: 0.8; stroke-linecap: square"/>
     </g>
     <g id="line2d_86">
      <g>
       <use xlink:href="#mc73f3df478" x="95.125" y="386.2165" style="stroke: #000000; stroke-width: 0.8"/>
      </g>
     </g>
     <g id="text_12">
      <!-- 200 -->
      <g transform="translate(56.746875 392.788375) scale(0.2 -0.2)">
       <use xlink:href="#AptosDisplay-32"/>
       <use xlink:href="#AptosDisplay-30" x="52.294922"/>
       <use xlink:href="#AptosDisplay-30" x="104.589844"/>
      </g>
     </g>
    </g>
    <g id="ytick_4">
     <g id="line2d_87">
      <path d="M 95.125 334.845833 
L 764.725 334.845833 
" clip-path="url(#p2703423f60)" style="fill: none; stroke: #b0b0b0; stroke-opacity: 0.8; stroke-linecap: square"/>
     </g>
     <g id="line2d_88">
      <g>
       <use xlink:href="#mc73f3df478" x="95.125" y="334.845833" style="stroke: #000000; stroke-width: 0.8"/>
      </g>
     </g>
     <g id="text_13">
      <!-- 300 -->
      <g transform="translate(56.746875 341.417708) scale(0.2 -0.2)">
       <defs>
        <path id="AptosDisplay-33" d="M 1700 -56 
Q 1047 -56 655 275 
Q 263 606 263 1225 
L 781 1225 
Q 781 844 1023 617 
Q 1266 391 1697 391 
Q 2094 391 2322 581 
Q 2550 772 2550 1172 
Q 2550 1556 2297 1737 
Q 2044 1919 1609 1919 
L 1366 1919 
L 1366 2363 
L 1622 2363 
Q 2013 2363 2222 2555 
Q 2431 2747 2431 3066 
Q 2431 3372 2226 3526 
Q 2022 3681 1684 3681 
Q 1306 3681 1095 3481 
Q 884 3281 891 2956 
L 372 2956 
Q 372 3319 536 3583 
Q 700 3847 995 3990 
Q 1291 4134 1681 4134 
Q 2031 4134 2318 4017 
Q 2606 3900 2778 3670 
Q 2950 3441 2950 3097 
Q 2950 2738 2745 2498 
Q 2541 2259 2206 2166 
Q 2591 2097 2841 1836 
Q 3091 1575 3091 1150 
Q 3091 763 2916 494 
Q 2741 225 2428 84 
Q 2116 -56 1700 -56 
z
" transform="scale(0.015625)"/>
       </defs>
       <use xlink:href="#AptosDisplay-33"/>
       <use xlink:href="#AptosDisplay-30" x="52.294922"/>
       <use xlink:href="#AptosDisplay-30" x="104.589844"/>
      </g>
     </g>
    </g>
    <g id="ytick_5">
     <g id="line2d_89">
      <path d="M 95.125 283.475167 
L 764.725 283.475167 
" clip-path="url(#p2703423f60)" style="fill: none; stroke: #b0b0b0; stroke-opacity: 0.8; stroke-linecap: square"/>
     </g>
     <g id="line2d_90">
      <g>
       <use xlink:href="#mc73f3df478" x="95.125" y="283.475167" style="stroke: #000000; stroke-width: 0.8"/>
      </g>
     </g>
     <g id="text_14">
      <!-- 400 -->
      <g transform="translate(56.746875 290.047042) scale(0.2 -0.2)">
       <defs>
        <path id="AptosDisplay-34" d="M 2106 0 
L 2106 825 
L 125 825 
L 125 1297 
L 2100 4103 
L 2631 4103 
L 2631 1284 
L 3191 1284 
L 3191 825 
L 2631 825 
L 2631 0 
L 2106 0 
z
M 638 1284 
L 2113 1284 
L 2113 3369 
L 638 1284 
z
" transform="scale(0.015625)"/>
       </defs>
       <use xlink:href="#AptosDisplay-34"/>
       <use xlink:href="#AptosDisplay-30" x="52.294922"/>
       <use xlink:href="#AptosDisplay-30" x="104.589844"/>
      </g>
     </g>
    </g>
    <g id="ytick_6">
     <g id="line2d_91">
      <path d="M 95.125 232.1045 
L 764.725 232.1045 
" clip-path="url(#p2703423f60)" style="fill: none; stroke: #b0b0b0; stroke-opacity: 0.8; stroke-linecap: square"/>
     </g>
     <g id="line2d_92">
      <g>
       <use xlink:href="#mc73f3df478" x="95.125" y="232.1045" style="stroke: #000000; stroke-width: 0.8"/>
      </g>
     </g>
     <g id="text_15">
      <!-- 500 -->
      <g transform="translate(56.746875 238.676375) scale(0.2 -0.2)">
       <use xlink:href="#AptosDisplay-35"/>
       <use xlink:href="#AptosDisplay-30" x="52.294922"/>
       <use xlink:href="#AptosDisplay-30" x="104.589844"/>
      </g>
     </g>
    </g>
    <g id="ytick_7">
     <g id="line2d_93">
      <path d="M 95.125 180.733833 
L 764.725 180.733833 
" clip-path="url(#p2703423f60)" style="fill: none; stroke: #b0b0b0; stroke-opacity: 0.8; stroke-linecap: square"/>
     </g>
     <g id="line2d_94">
      <g>
       <use xlink:href="#mc73f3df478" x="95.125" y="180.733833" style="stroke: #000000; stroke-width: 0.8"/>
      </g>
     </g>
     <g id="text_16">
      <!-- 600 -->
      <g transform="translate(56.746875 187.305708) scale(0.2 -0.2)">
       <defs>
        <path id="AptosDisplay-36" d="M 1759 -56 
Q 1325 -56 984 151 
Q 644 359 447 815 
Q 250 1272 250 2013 
Q 250 2738 439 3206 
Q 628 3675 968 3903 
Q 1309 4131 1759 4131 
Q 2253 4131 2595 3875 
Q 2938 3619 3034 3097 
L 2503 3097 
Q 2441 3388 2250 3534 
Q 2059 3681 1759 3681 
Q 1306 3681 1047 3279 
Q 788 2878 788 2013 
L 788 1850 
Q 788 1313 922 992 
Q 1056 672 1279 531 
Q 1503 391 1763 391 
Q 2175 391 2369 644 
Q 2563 897 2563 1272 
Q 2563 1650 2373 1869 
Q 2184 2088 1838 2088 
Q 1422 2088 1114 1897 
Q 806 1706 644 1456 
L 597 1856 
Q 728 2047 922 2201 
Q 1116 2356 1362 2447 
Q 1609 2538 1909 2538 
Q 2253 2538 2523 2395 
Q 2794 2253 2951 1975 
Q 3109 1697 3109 1291 
Q 3109 897 2951 592 
Q 2794 288 2492 116 
Q 2191 -56 1759 -56 
z
" transform="scale(0.015625)"/>
       </defs>
       <use xlink:href="#AptosDisplay-36"/>
       <use xlink:href="#AptosDisplay-30" x="52.294922"/>
       <use xlink:href="#AptosDisplay-30" x="104.589844"/>
      </g>
     </g>
    </g>
    <g id="ytick_8">
     <g id="line2d_95">
      <path d="M 95.125 129.363167 
L 764.725 129.363167 
" clip-path="url(#p2703423f60)" style="fill: none; stroke: #b0b0b0; stroke-opacity: 0.8; stroke-linecap: square"/>
     </g>
     <g id="line2d_96">
      <g>
       <use xlink:href="#mc73f3df478" x="95.125" y="129.363167" style="stroke: #000000; stroke-width: 0.8"/>
      </g>
     </g>
     <g id="text_17">
      <!-- 700 -->
      <g transform="translate(56.746875 135.935042) scale(0.2 -0.2)">
       <use xlink:href="#AptosDisplay-37"/>
       <use xlink:href="#AptosDisplay-30" x="52.294922"/>
       <use xlink:href="#AptosDisplay-30" x="104.589844"/>
      </g>
     </g>
    </g>
    <g id="ytick_9">
     <g id="line2d_97">
      <path d="M 95.125 77.9925 
L 764.725 77.9925 
" clip-path="url(#p2703423f60)" style="fill: none; stroke: #b0b0b0; stroke-opacity: 0.8; stroke-linecap: square"/>
     </g>
     <g id="line2d_98">
      <g>
       <use xlink:href="#mc73f3df478" x="95.125" y="77.9925" style="stroke: #000000; stroke-width: 0.8"/>
      </g>
     </g>
     <g id="text_18">
      <!-- 800 -->
      <g transform="translate(56.746875 84.564375) scale(0.2 -0.2)">
       <defs>
        <path id="AptosDisplay-38" d="M 1675 -56 
Q 1391 -56 1137 16 
Q 884 88 686 234 
Q 488 381 373 606 
Q 259 831 259 1141 
Q 259 1531 495 1797 
Q 731 2063 1084 2150 
Q 781 2250 604 2490 
Q 428 2731 428 3081 
Q 428 3447 609 3681 
Q 791 3916 1075 4025 
Q 1359 4134 1669 4134 
Q 1981 4134 2265 4023 
Q 2550 3913 2733 3680 
Q 2916 3447 2916 3081 
Q 2916 2725 2716 2481 
Q 2516 2238 2238 2150 
Q 2606 2063 2843 1800 
Q 3081 1538 3081 1141 
Q 3081 831 2968 606 
Q 2856 381 2661 234 
Q 2466 88 2211 16 
Q 1956 -56 1675 -56 
z
M 1672 388 
Q 1909 388 2109 470 
Q 2309 553 2429 725 
Q 2550 897 2550 1163 
Q 2550 1416 2426 1587 
Q 2303 1759 2104 1846 
Q 1906 1934 1672 1928 
Q 1453 1934 1253 1850 
Q 1053 1766 926 1594 
Q 800 1422 800 1163 
Q 800 775 1058 581 
Q 1316 388 1672 388 
z
M 1672 2363 
Q 1863 2356 2030 2434 
Q 2197 2513 2300 2667 
Q 2403 2822 2403 3050 
Q 2403 3388 2189 3544 
Q 1975 3700 1675 3700 
Q 1484 3700 1317 3631 
Q 1150 3563 1047 3419 
Q 944 3275 944 3050 
Q 944 2825 1048 2670 
Q 1153 2516 1320 2436 
Q 1488 2356 1672 2363 
z
" transform="scale(0.015625)"/>
       </defs>
       <use xlink:href="#AptosDisplay-38"/>
       <use xlink:href="#AptosDisplay-30" x="52.294922"/>
       <use xlink:href="#AptosDisplay-30" x="104.589844"/>
      </g>
     </g>
    </g>
    <g id="ytick_10">
     <g id="line2d_99">
      <path d="M 95.125 499.231967 
L 764.725 499.231967 
" clip-path="url(#p2703423f60)" style="fill: none; stroke-dasharray: 1.85,0.8; stroke-dashoffset: 0; stroke: #b0b0b0; stroke-opacity: 0.8; stroke-width: 0.5"/>
     </g>
     <g id="line2d_100">
      <defs>
       <path id="m5ffca0fac1" d="M 0 0 
L -2 0 
" style="stroke: #000000; stroke-width: 0.6"/>
      </defs>
      <g>
       <use xlink:href="#m5ffca0fac1" x="95.125" y="499.231967" style="stroke: #000000; stroke-width: 0.6"/>
      </g>
     </g>
    </g>
    <g id="ytick_11">
     <g id="line2d_101">
      <path d="M 95.125 478.6837 
L 764.725 478.6837 
" clip-path="url(#p2703423f60)" style="fill: none; stroke-dasharray: 1.85,0.8; stroke-dashoffset: 0; stroke: #b0b0b0; stroke-opacity: 0.8; stroke-width: 0.5"/>
     </g>
     <g id="line2d_102">
      <g>
       <use xlink:href="#m5ffca0fac1" x="95.125" y="478.6837" style="stroke: #000000; stroke-width: 0.6"/>
      </g>
     </g>
    </g>
    <g id="ytick_12">
     <g id="line2d_103">
      <path d="M 95.125 468.409567 
L 764.725 468.409567 
" clip-path="url(#p2703423f60)" style="fill: none; stroke-dasharray: 1.85,0.8; stroke-dashoffset: 0; stroke: #b0b0b0; stroke-opacity: 0.8; stroke-width: 0.5"/>
     </g>
     <g id="line2d_104">
      <g>
       <use xlink:href="#m5ffca0fac1" x="95.125" y="468.409567" style="stroke: #000000; stroke-width: 0.6"/>
      </g>
     </g>
    </g>
    <g id="ytick_13">
     <g id="line2d_105">
      <path d="M 95.125 458.135433 
L 764.725 458.135433 
" clip-path="url(#p2703423f60)" style="fill: none; stroke-dasharray: 1.85,0.8; stroke-dashoffset: 0; stroke: #b0b0b0; stroke-opacity: 0.8; stroke-width: 0.5"/>
     </g>
     <g id="line2d_106">
      <g>
       <use xlink:href="#m5ffca0fac1" x="95.125" y="458.135433" style="stroke: #000000; stroke-width: 0.6"/>
      </g>
     </g>
    </g>
    <g id="ytick_14">
     <g id="line2d_107">
      <path d="M 95.125 447.8613 
L 764.725 447.8613 
" clip-path="url(#p2703423f60)" style="fill: none; stroke-dasharray: 1.85,0.8; stroke-dashoffset: 0; stroke: #b0b0b0; stroke-opacity: 0.8; stroke-width: 0.5"/>
     </g>
     <g id="line2d_108">
      <g>
       <use xlink:href="#m5ffca0fac1" x="95.125" y="447.8613" style="stroke: #000000; stroke-width: 0.6"/>
      </g>
     </g>
    </g>
    <g id="ytick_15">
     <g id="line2d_109">
      <path d="M 95.125 427.313033 
L 764.725 427.313033 
" clip-path="url(#p2703423f60)" style="fill: none; stroke-dasharray: 1.85,0.8; stroke-dashoffset: 0; stroke: #b0b0b0; stroke-opacity: 0.8; stroke-width: 0.5"/>
     </g>
     <g id="line2d_110">
      <g>
       <use xlink:href="#m5ffca0fac1" x="95.125" y="427.313033" style="stroke: #000000; stroke-width: 0.6"/>
      </g>
     </g>
    </g>
    <g id="ytick_16">
     <g id="line2d_111">
      <path d="M 95.125 417.0389 
L 764.725 417.0389 
" clip-path="url(#p2703423f60)" style="fill: none; stroke-dasharray: 1.85,0.8; stroke-dashoffset: 0; stroke: #b0b0b0; stroke-opacity: 0.8; stroke-width: 0.5"/>
     </g>
     <g id="line2d_112">
      <g>
       <use xlink:href="#m5ffca0fac1" x="95.125" y="417.0389" style="stroke: #000000; stroke-width: 0.6"/>
      </g>
     </g>
    </g>
    <g id="ytick_17">
     <g id="line2d_113">
      <path d="M 95.125 406.764767 
L 764.725 406.764767 
" clip-path="url(#p2703423f60)" style="fill: none; stroke-dasharray: 1.85,0.8; stroke-dashoffset: 0; stroke: #b0b0b0; stroke-opacity: 0.8; stroke-width: 0.5"/>
     </g>
     <g id="line2d_114">
      <g>
       <use xlink:href="#m5ffca0fac1" x="95.125" y="406.764767" style="stroke: #000000; stroke-width: 0.6"/>
      </g>
     </g>
    </g>
    <g id="ytick_18">
     <g id="line2d_115">
      <path d="M 95.125 396.490633 
L 764.725 396.490633 
" clip-path="url(#p2703423f60)" style="fill: none; stroke-dasharray: 1.85,0.8; stroke-dashoffset: 0; stroke: #b0b0b0; stroke-opacity: 0.8; stroke-width: 0.5"/>
     </g>
     <g id="line2d_116">
      <g>
       <use xlink:href="#m5ffca0fac1" x="95.125" y="396.490633" style="stroke: #000000; stroke-width: 0.6"/>
      </g>
     </g>
    </g>
    <g id="ytick_19">
     <g id="line2d_117">
      <path d="M 95.125 375.942367 
L 764.725 375.942367 
" clip-path="url(#p2703423f60)" style="fill: none; stroke-dasharray: 1.85,0.8; stroke-dashoffset: 0; stroke: #b0b0b0; stroke-opacity: 0.8; stroke-width: 0.5"/>
     </g>
     <g id="line2d_118">
      <g>
       <use xlink:href="#m5ffca0fac1" x="95.125" y="375.942367" style="stroke: #000000; stroke-width: 0.6"/>
      </g>
     </g>
    </g>
    <g id="ytick_20">
     <g id="line2d_119">
      <path d="M 95.125 365.668233 
L 764.725 365.668233 
" clip-path="url(#p2703423f60)" style="fill: none; stroke-dasharray: 1.85,0.8; stroke-dashoffset: 0; stroke: #b0b0b0; stroke-opacity: 0.8; stroke-width: 0.5"/>
     </g>
     <g id="line2d_120">
      <g>
       <use xlink:href="#m5ffca0fac1" x="95.125" y="365.668233" style="stroke: #000000; stroke-width: 0.6"/>
      </g>
     </g>
    </g>
    <g id="ytick_21">
     <g id="line2d_121">
      <path d="M 95.125 355.3941 
L 764.725 355.3941 
" clip-path="url(#p2703423f60)" style="fill: none; stroke-dasharray: 1.85,0.8; stroke-dashoffset: 0; stroke: #b0b0b0; stroke-opacity: 0.8; stroke-width: 0.5"/>
     </g>
     <g id="line2d_122">
      <g>
       <use xlink:href="#m5ffca0fac1" x="95.125" y="355.3941" style="stroke: #000000; stroke-width: 0.6"/>
      </g>
     </g>
    </g>
    <g id="ytick_22">
     <g id="line2d_123">
      <path d="M 95.125 345.119967 
L 764.725 345.119967 
" clip-path="url(#p2703423f60)" style="fill: none; stroke-dasharray: 1.85,0.8; stroke-dashoffset: 0; stroke: #b0b0b0; stroke-opacity: 0.8; stroke-width: 0.5"/>
     </g>
     <g id="line2d_124">
      <g>
       <use xlink:href="#m5ffca0fac1" x="95.125" y="345.119967" style="stroke: #000000; stroke-width: 0.6"/>
      </g>
     </g>
    </g>
    <g id="ytick_23">
     <g id="line2d_125">
      <path d="M 95.125 324.5717 
L 764.725 324.5717 
" clip-path="url(#p2703423f60)" style="fill: none; stroke-dasharray: 1.85,0.8; stroke-dashoffset: 0; stroke: #b0b0b0; stroke-opacity: 0.8; stroke-width: 0.5"/>
     </g>
     <g id="line2d_126">
      <g>
       <use xlink:href="#m5ffca0fac1" x="95.125" y="324.5717" style="stroke: #000000; stroke-width: 0.6"/>
      </g>
     </g>
    </g>
    <g id="ytick_24">
     <g id="line2d_127">
      <path d="M 95.125 314.297567 
L 764.725 314.297567 
" clip-path="url(#p2703423f60)" style="fill: none; stroke-dasharray: 1.85,0.8; stroke-dashoffset: 0; stroke: #b0b0b0; stroke-opacity: 0.8; stroke-width: 0.5"/>
     </g>
     <g id="line2d_128">
      <g>
       <use xlink:href="#m5ffca0fac1" x="95.125" y="314.297567" style="stroke: #000000; stroke-width: 0.6"/>
      </g>
     </g>
    </g>
    <g id="ytick_25">
     <g id="line2d_129">
      <path d="M 95.125 304.023433 
L 764.725 304.023433 
" clip-path="url(#p2703423f60)" style="fill: none; stroke-dasharray: 1.85,0.8; stroke-dashoffset: 0; stroke: #b0b0b0; stroke-opacity: 0.8; stroke-width: 0.5"/>
     </g>
     <g id="line2d_130">
      <g>
       <use xlink:href="#m5ffca0fac1" x="95.125" y="304.023433" style="stroke: #000000; stroke-width: 0.6"/>
      </g>
     </g>
    </g>
    <g id="ytick_26">
     <g id="line2d_131">
      <path d="M 95.125 293.7493 
L 764.725 293.7493 
" clip-path="url(#p2703423f60)" style="fill: none; stroke-dasharray: 1.85,0.8; stroke-dashoffset: 0; stroke: #b0b0b0; stroke-opacity: 0.8; stroke-width: 0.5"/>
     </g>
     <g id="line2d_132">
      <g>
       <use xlink:href="#m5ffca0fac1" x="95.125" y="293.7493" style="stroke: #000000; stroke-width: 0.6"/>
      </g>
     </g>
    </g>
    <g id="ytick_27">
     <g id="line2d_133">
      <path d="M 95.125 273.201033 
L 764.725 273.201033 
" clip-path="url(#p2703423f60)" style="fill: none; stroke-dasharray: 1.85,0.8; stroke-dashoffset: 0; stroke: #b0b0b0; stroke-opacity: 0.8; stroke-width: 0.5"/>
     </g>
     <g id="line2d_134">
      <g>
       <use xlink:href="#m5ffca0fac1" x="95.125" y="273.201033" style="stroke: #000000; stroke-width: 0.6"/>
      </g>
     </g>
    </g>
    <g id="ytick_28">
     <g id="line2d_135">
      <path d="M 95.125 262.9269 
L 764.725 262.9269 
" clip-path="url(#p2703423f60)" style="fill: none; stroke-dasharray: 1.85,0.8; stroke-dashoffset: 0; stroke: #b0b0b0; stroke-opacity: 0.8; stroke-width: 0.5"/>
     </g>
     <g id="line2d_136">
      <g>
       <use xlink:href="#m5ffca0fac1" x="95.125" y="262.9269" style="stroke: #000000; stroke-width: 0.6"/>
      </g>
     </g>
    </g>
    <g id="ytick_29">
     <g id="line2d_137">
      <path d="M 95.125 252.652767 
L 764.725 252.652767 
" clip-path="url(#p2703423f60)" style="fill: none; stroke-dasharray: 1.85,0.8; stroke-dashoffset: 0; stroke: #b0b0b0; stroke-opacity: 0.8; stroke-width: 0.5"/>
     </g>
     <g id="line2d_138">
      <g>
       <use xlink:href="#m5ffca0fac1" x="95.125" y="252.652767" style="stroke: #000000; stroke-width: 0.6"/>
      </g>
     </g>
    </g>
    <g id="ytick_30">
     <g id="line2d_139">
      <path d="M 95.125 242.378633 
L 764.725 242.378633 
" clip-path="url(#p2703423f60)" style="fill: none; stroke-dasharray: 1.85,0.8; stroke-dashoffset: 0; stroke: #b0b0b0; stroke-opacity: 0.8; stroke-width: 0.5"/>
     </g>
     <g id="line2d_140">
      <g>
       <use xlink:href="#m5ffca0fac1" x="95.125" y="242.378633" style="stroke: #000000; stroke-width: 0.6"/>
      </g>
     </g>
    </g>
    <g id="ytick_31">
     <g id="line2d_141">
      <path d="M 95.125 221.830367 
L 764.725 221.830367 
" clip-path="url(#p2703423f60)" style="fill: none; stroke-dasharray: 1.85,0.8; stroke-dashoffset: 0; stroke: #b0b0b0; stroke-opacity: 0.8; stroke-width: 0.5"/>
     </g>
     <g id="line2d_142">
      <g>
       <use xlink:href="#m5ffca0fac1" x="95.125" y="221.830367" style="stroke: #000000; stroke-width: 0.6"/>
      </g>
     </g>
    </g>
    <g id="ytick_32">
     <g id="line2d_143">
      <path d="M 95.125 211.556233 
L 764.725 211.556233 
" clip-path="url(#p2703423f60)" style="fill: none; stroke-dasharray: 1.85,0.8; stroke-dashoffset: 0; stroke: #b0b0b0; stroke-opacity: 0.8; stroke-width: 0.5"/>
     </g>
     <g id="line2d_144">
      <g>
       <use xlink:href="#m5ffca0fac1" x="95.125" y="211.556233" style="stroke: #000000; stroke-width: 0.6"/>
      </g>
     </g>
    </g>
    <g id="ytick_33">
     <g id="line2d_145">
      <path d="M 95.125 201.2821 
L 764.725 201.2821 
" clip-path="url(#p2703423f60)" style="fill: none; stroke-dasharray: 1.85,0.8; stroke-dashoffset: 0; stroke: #b0b0b0; stroke-opacity: 0.8; stroke-width: 0.5"/>
     </g>
     <g id="line2d_146">
      <g>
       <use xlink:href="#m5ffca0fac1" x="95.125" y="201.2821" style="stroke: #000000; stroke-width: 0.6"/>
      </g>
     </g>
    </g>
    <g id="ytick_34">
     <g id="line2d_147">
      <path d="M 95.125 191.007967 
L 764.725 191.007967 
" clip-path="url(#p2703423f60)" style="fill: none; stroke-dasharray: 1.85,0.8; stroke-dashoffset: 0; stroke: #b0b0b0; stroke-opacity: 0.8; stroke-width: 0.5"/>
     </g>
     <g id="line2d_148">
      <g>
       <use xlink:href="#m5ffca0fac1" x="95.125" y="191.007967" style="stroke: #000000; stroke-width: 0.6"/>
      </g>
     </g>
    </g>
    <g id="ytick_35">
     <g id="line2d_149">
      <path d="M 95.125 170.4597 
L 764.725 170.4597 
" clip-path="url(#p2703423f60)" style="fill: none; stroke-dasharray: 1.85,0.8; stroke-dashoffset: 0; stroke: #b0b0b0; stroke-opacity: 0.8; stroke-width: 0.5"/>
     </g>
     <g id="line2d_150">
      <g>
       <use xlink:href="#m5ffca0fac1" x="95.125" y="170.4597" style="stroke: #000000; stroke-width: 0.6"/>
      </g>
     </g>
    </g>
    <g id="ytick_36">
     <g id="line2d_151">
      <path d="M 95.125 160.185567 
L 764.725 160.185567 
" clip-path="url(#p2703423f60)" style="fill: none; stroke-dasharray: 1.85,0.8; stroke-dashoffset: 0; stroke: #b0b0b0; stroke-opacity: 0.8; stroke-width: 0.5"/>
     </g>
     <g id="line2d_152">
      <g>
       <use xlink:href="#m5ffca0fac1" x="95.125" y="160.185567" style="stroke: #000000; stroke-width: 0.6"/>
      </g>
     </g>
    </g>
    <g id="ytick_37">
     <g id="line2d_153">
      <path d="M 95.125 149.911433 
L 764.725 149.911433 
" clip-path="url(#p2703423f60)" style="fill: none; stroke-dasharray: 1.85,0.8; stroke-dashoffset: 0; stroke: #b0b0b0; stroke-opacity: 0.8; stroke-width: 0.5"/>
     </g>
     <g id="line2d_154">
      <g>
       <use xlink:href="#m5ffca0fac1" x="95.125" y="149.911433" style="stroke: #000000; stroke-width: 0.6"/>
      </g>
     </g>
    </g>
    <g id="ytick_38">
     <g id="line2d_155">
      <path d="M 95.125 139.6373 
L 764.725 139.6373 
" clip-path="url(#p2703423f60)" style="fill: none; stroke-dasharray: 1.85,0.8; stroke-dashoffset: 0; stroke: #b0b0b0; stroke-opacity: 0.8; stroke-width: 0.5"/>
     </g>
     <g id="line2d_156">
      <g>
       <use xlink:href="#m5ffca0fac1" x="95.125" y="139.6373" style="stroke: #000000; stroke-width: 0.6"/>
      </g>
     </g>
    </g>
    <g id="ytick_39">
     <g id="line2d_157">
      <path d="M 95.125 119.089033 
L 764.725 119.089033 
" clip-path="url(#p2703423f60)" style="fill: none; stroke-dasharray: 1.85,0.8; stroke-dashoffset: 0; stroke: #b0b0b0; stroke-opacity: 0.8; stroke-width: 0.5"/>
     </g>
     <g id="line2d_158">
      <g>
       <use xlink:href="#m5ffca0fac1" x="95.125" y="119.089033" style="stroke: #000000; stroke-width: 0.6"/>
      </g>
     </g>
    </g>
    <g id="ytick_40">
     <g id="line2d_159">
      <path d="M 95.125 108.8149 
L 764.725 108.8149 
" clip-path="url(#p2703423f60)" style="fill: none; stroke-dasharray: 1.85,0.8; stroke-dashoffset: 0; stroke: #b0b0b0; stroke-opacity: 0.8; stroke-width: 0.5"/>
     </g>
     <g id="line2d_160">
      <g>
       <use xlink:href="#m5ffca0fac1" x="95.125" y="108.8149" style="stroke: #000000; stroke-width: 0.6"/>
      </g>
     </g>
    </g>
    <g id="ytick_41">
     <g id="line2d_161">
      <path d="M 95.125 98.540767 
L 764.725 98.540767 
" clip-path="url(#p2703423f60)" style="fill: none; stroke-dasharray: 1.85,0.8; stroke-dashoffset: 0; stroke: #b0b0b0; stroke-opacity: 0.8; stroke-width: 0.5"/>
     </g>
     <g id="line2d_162">
      <g>
       <use xlink:href="#m5ffca0fac1" x="95.125" y="98.540767" style="stroke: #000000; stroke-width: 0.6"/>
      </g>
     </g>
    </g>
    <g id="ytick_42">
     <g id="line2d_163">
      <path d="M 95.125 88.266633 
L 764.725 88.266633 
" clip-path="url(#p2703423f60)" style="fill: none; stroke-dasharray: 1.85,0.8; stroke-dashoffset: 0; stroke: #b0b0b0; stroke-opacity: 0.8; stroke-width: 0.5"/>
     </g>
     <g id="line2d_164">
      <g>
       <use xlink:href="#m5ffca0fac1" x="95.125" y="88.266633" style="stroke: #000000; stroke-width: 0.6"/>
      </g>
     </g>
    </g>
    <g id="ytick_43">
     <g id="line2d_165">
      <path d="M 95.125 67.718367 
L 764.725 67.718367 
" clip-path="url(#p2703423f60)" style="fill: none; stroke-dasharray: 1.85,0.8; stroke-dashoffset: 0; stroke: #b0b0b0; stroke-opacity: 0.8; stroke-width: 0.5"/>
     </g>
     <g id="line2d_166">
      <g>
       <use xlink:href="#m5ffca0fac1" x="95.125" y="67.718367" style="stroke: #000000; stroke-width: 0.6"/>
      </g>
     </g>
    </g>
    <g id="text_19">
     <!-- Efficiency (%) -->
     <g transform="translate(49.221875 335.120625) rotate(-90) scale(0.2 -0.2)">
      <defs>
       <path id="AptosDisplay-45" d="M 472 0 
L 472 4206 
L 3153 4206 
L 3153 3738 
L 1034 3738 
L 1034 2397 
L 2984 2397 
L 2984 1934 
L 1034 1934 
L 1034 469 
L 3153 469 
L 3153 0 
L 472 0 
z
" transform="scale(0.015625)"/>
       <path id="AptosDisplay-66" d="M 550 0 
L 550 2622 
L 44 2622 
L 44 3044 
L 550 3044 
L 550 3219 
Q 550 3453 589 3636 
Q 628 3819 728 3947 
Q 828 4075 1004 4140 
Q 1181 4206 1463 4206 
L 1781 4206 
L 1781 3797 
L 1494 3797 
Q 1219 3797 1145 3645 
Q 1072 3494 1072 3209 
L 1072 3044 
L 1775 3044 
L 1775 2622 
L 1072 2622 
L 1072 0 
L 550 0 
z
" transform="scale(0.015625)"/>
       <path id="AptosDisplay-63" d="M 1634 -53 
Q 1234 -53 925 122 
Q 616 297 441 645 
Q 266 994 266 1513 
Q 266 2031 437 2384 
Q 609 2738 917 2916 
Q 1225 3094 1634 3094 
Q 1978 3094 2251 2978 
Q 2525 2863 2689 2630 
Q 2853 2397 2866 2041 
L 2350 2041 
Q 2328 2334 2139 2503 
Q 1950 2672 1644 2672 
Q 1228 2672 1015 2367 
Q 803 2063 803 1513 
Q 803 1150 897 894 
Q 991 638 1178 503 
Q 1366 369 1644 369 
Q 1956 369 2159 541 
Q 2363 713 2372 1047 
L 2884 1047 
Q 2878 681 2711 436 
Q 2544 191 2264 69 
Q 1984 -53 1634 -53 
z
" transform="scale(0.015625)"/>
       <path id="AptosDisplay-6e" d="M 413 0 
L 413 3044 
L 919 3044 
L 931 2575 
Q 1066 2756 1316 2914 
Q 1566 3072 1941 3072 
Q 2428 3072 2637 2781 
Q 2847 2491 2847 1963 
L 2847 0 
L 2328 0 
L 2328 1891 
Q 2328 2106 2286 2275 
Q 2244 2444 2133 2539 
Q 2022 2634 1816 2634 
Q 1500 2634 1283 2482 
Q 1066 2331 934 2156 
L 934 0 
L 413 0 
z
" transform="scale(0.015625)"/>
       <path id="AptosDisplay-79" d="M 266 -1128 
L 266 -697 
L 525 -697 
Q 716 -697 831 -598 
Q 947 -500 1038 -275 
L 1153 0 
L -13 3044 
L 538 3044 
L 1428 553 
L 2250 3044 
L 2781 3044 
L 1688 0 
L 1550 -356 
Q 1441 -647 1314 -815 
Q 1188 -984 1013 -1056 
Q 838 -1128 578 -1128 
L 266 -1128 
z
" transform="scale(0.015625)"/>
       <path id="AptosDisplay-25" d="M 1188 0 
L 3669 4078 
L 4094 4078 
L 1613 0 
L 1188 0 
z
M 1197 1606 
Q 878 1606 679 1765 
Q 481 1925 390 2209 
Q 300 2494 300 2872 
Q 300 3253 390 3536 
Q 481 3819 679 3976 
Q 878 4134 1197 4134 
Q 1519 4134 1716 3976 
Q 1913 3819 2005 3536 
Q 2097 3253 2097 2872 
Q 2097 2494 2005 2209 
Q 1913 1925 1714 1765 
Q 1516 1606 1197 1606 
z
M 1197 1953 
Q 1391 1953 1498 2084 
Q 1606 2216 1648 2425 
Q 1691 2634 1691 2872 
Q 1691 3109 1648 3318 
Q 1606 3528 1498 3658 
Q 1391 3788 1197 3788 
Q 1006 3788 898 3658 
Q 791 3528 748 3318 
Q 706 3109 706 2872 
Q 706 2634 748 2425 
Q 791 2216 898 2084 
Q 1006 1953 1197 1953 
z
M 4084 -53 
Q 3769 -53 3570 105 
Q 3372 263 3281 547 
Q 3191 831 3191 1209 
Q 3191 1591 3281 1873 
Q 3372 2156 3570 2314 
Q 3769 2472 4084 2472 
Q 4406 2472 4604 2315 
Q 4803 2159 4893 1875 
Q 4984 1591 4984 1209 
Q 4984 831 4893 547 
Q 4803 263 4604 105 
Q 4406 -53 4084 -53 
z
M 4084 294 
Q 4281 294 4387 423 
Q 4494 553 4536 761 
Q 4578 969 4578 1209 
Q 4578 1447 4536 1656 
Q 4494 1866 4387 1994 
Q 4281 2122 4084 2122 
Q 3894 2122 3787 1994 
Q 3681 1866 3639 1656 
Q 3597 1447 3597 1209 
Q 3597 969 3639 761 
Q 3681 553 3787 423 
Q 3894 294 4084 294 
z
" transform="scale(0.015625)"/>
      </defs>
      <use xlink:href="#AptosDisplay-45"/>
      <use xlink:href="#AptosDisplay-66" x="54.052734"/>
      <use xlink:href="#AptosDisplay-66" x="82.373047"/>
      <use xlink:href="#AptosDisplay-69" x="110.693359"/>
      <use xlink:href="#AptosDisplay-63" x="131.738281"/>
      <use xlink:href="#AptosDisplay-69" x="181.005859"/>
      <use xlink:href="#AptosDisplay-65" x="202.050781"/>
      <use xlink:href="#AptosDisplay-6e" x="251.464844"/>
      <use xlink:href="#AptosDisplay-63" x="302.050781"/>
      <use xlink:href="#AptosDisplay-79" x="351.318359"/>
      <use xlink:href="#AptosDisplay-20" x="394.580078"/>
      <use xlink:href="#AptosDisplay-28" x="413.867188"/>
      <use xlink:href="#AptosDisplay-25" x="443.310547"/>
      <use xlink:href="#AptosDisplay-29" x="525.830078"/>
     </g>
    </g>
   </g>
   <g id="line2d_167">
    <path d="M 125.561364 465.107167 
L 126.218284 77.9925 
L 126.878505 426.579167 
L 127.538726 416.182722 
L 128.198947 434.162456 
L 128.859169 440.608971 
L 130.179611 445.698325 
L 130.839832 456.080607 
L 131.500054 460.615397 
L 132.820496 473.655933 
L 133.480717 473.974722 
L 134.140938 478.493438 
L 134.80116 478.867167 
L 135.461381 478.6837 
L 136.121602 479.617712 
L 136.781823 479.617712 
L 137.442045 478.839369 
L 138.102266 479.933257 
L 138.762487 479.417567 
L 139.422708 479.967967 
L 140.08293 477.456938 
L 140.743151 479.015124 
L 141.403372 477.893382 
L 142.063593 477.103064 
L 142.723814 478.990391 
L 143.384036 476.115167 
L 144.044257 478.6837 
L 144.704478 479.933257 
L 145.364699 480.396056 
L 146.024921 479.417567 
L 146.685142 474.641418 
L 147.345363 478.104876 
L 148.665805 476.726722 
L 149.326027 479.172944 
L 149.986248 480.396056 
L 150.646469 480.053584 
L 151.30669 479.933257 
L 151.966912 477.949833 
L 152.627133 478.54486 
L 153.287354 477.167844 
L 153.947575 471.834278 
L 155.268018 476.558017 
L 155.928239 479.015124 
L 156.58846 479.757117 
L 157.248681 479.325833 
L 158.569124 477.54213 
L 159.229345 479.617712 
L 160.549788 477.103064 
L 161.210009 472.649685 
L 161.87023 472.51922 
L 162.530451 478.852128 
L 163.190672 479.325833 
L 163.850894 479.325833 
L 164.511115 478.6837 
L 165.171336 476.529446 
L 165.831557 478.38152 
L 166.491779 476.726722 
L 167.152 472.9045 
L 167.812221 470.464393 
L 168.472442 470.692707 
L 169.132664 474.2805 
L 169.792885 478.493438 
L 170.453106 479.539878 
L 171.113327 479.325833 
L 171.773548 479.617712 
L 172.43377 479.474018 
L 173.093991 477.949833 
L 173.754212 474.2805 
L 174.414433 472.48045 
L 175.074655 478.6837 
L 175.734876 477.749688 
L 176.395097 476.325702 
L 177.055318 478.839369 
L 177.715539 478.6837 
L 178.375761 476.529446 
L 179.035982 473.285427 
L 179.696203 474.947652 
L 180.356424 478.32942 
L 181.016646 479.172944 
L 181.676867 479.474018 
L 182.337088 480.023804 
L 182.997309 479.933257 
L 183.657531 479.682574 
L 184.317752 477.215967 
L 184.977973 479.279302 
L 185.638194 480.023804 
L 186.298415 479.279302 
L 186.958637 480.284864 
L 187.618858 480.053584 
L 188.279079 476.828648 
L 188.9393 472.85658 
L 189.599522 476.115167 
L 190.259743 477.54213 
L 190.919964 478.6837 
L 191.580185 478.509562 
L 192.240406 480.023804 
L 192.903929 476.115167 
L 193.56415 478.6837 
L 194.224371 479.892422 
L 194.884593 476.994801 
L 195.544814 476.971344 
L 196.205035 476.504338 
L 196.865256 468.980352 
L 197.525477 468.409567 
L 198.185699 471.834278 
L 198.84592 476.357481 
L 199.506141 477.877886 
L 200.166362 477.949833 
L 200.826584 476.325702 
L 201.486805 479.015124 
L 202.147026 480.023804 
L 202.807247 480.627455 
L 203.467468 479.551937 
L 204.12769 478.009986 
L 204.787911 475.923485 
L 205.448132 471.834278 
L 206.108353 469.110076 
L 206.768575 474.2805 
L 208.089017 479.380251 
L 208.749238 478.867167 
L 209.40946 477.358005 
L 210.069681 477.456938 
L 210.729902 478.357537 
L 211.390123 476.301292 
L 212.050344 470.464393 
L 212.710566 468.164944 
L 213.370787 474.688204 
L 214.031008 477.54213 
L 214.691229 478.6837 
L 215.351451 479.539878 
L 216.671893 478.852128 
L 217.332114 478.839369 
L 217.992335 475.672316 
L 218.652557 480.275467 
L 219.972999 478.223664 
L 220.63322 474.641418 
L 221.293442 473.736895 
L 221.953663 477.443718 
L 222.613884 479.843683 
L 223.274105 479.892422 
L 223.934327 479.325833 
L 224.594548 476.768184 
L 225.254769 475.522428 
L 225.91499 471.175679 
L 226.575211 468.6485 
L 227.235433 474.856082 
L 228.555875 479.215121 
L 229.216096 480.523843 
L 229.876318 479.325833 
L 230.536539 478.38152 
L 231.19676 478.223664 
L 231.856981 479.757117 
L 232.517202 479.892422 
L 233.177424 479.136971 
L 233.837645 477.103064 
L 234.497866 478.223664 
L 235.158087 476.768184 
L 235.818309 471.544048 
L 236.47853 471.175679 
L 237.138751 471.834278 
L 237.798972 473.974722 
L 238.459194 477.949833 
L 239.119415 479.215121 
L 239.779636 479.172944 
L 240.439857 479.015124 
L 241.100078 477.282682 
L 241.7603 476.726722 
L 242.420521 479.617712 
L 243.080742 479.757117 
L 243.740963 478.523167 
L 244.401185 478.104876 
L 245.061406 473.546633 
L 245.721627 474.418965 
L 246.381848 479.172944 
L 247.042069 479.474018 
L 247.702291 479.474018 
L 249.022733 476.917833 
L 249.682954 476.529446 
L 250.343176 470.933038 
L 251.003397 473.848814 
L 251.663618 478.852128 
L 252.323839 478.852128 
L 252.984061 479.617712 
L 253.644282 480.846675 
L 254.304503 480.151433 
L 254.964724 475.748233 
L 255.624945 473.285427 
L 256.285167 473.079627 
L 256.945388 473.079627 
L 257.605609 471.834278 
L 258.26583 472.206529 
L 258.926052 474.117419 
L 259.586273 478.295997 
L 260.246494 478.6837 
L 260.906715 478.32942 
L 261.566936 480.396056 
L 262.887379 477.850662 
L 263.5476 477.790297 
L 264.207821 479.474018 
L 264.868043 477.761662 
L 266.188485 479.417567 
L 266.848706 479.239059 
L 267.508928 479.239059 
L 268.169149 479.105925 
L 268.82937 476.791096 
L 269.489591 475.55679 
L 270.149812 476.917833 
L 270.810034 479.933257 
L 271.470255 480.284864 
L 272.130476 478.223664 
L 272.790697 479.617712 
L 273.450919 476.115167 
L 274.11114 479.809632 
L 274.771361 479.933257 
L 275.431582 479.933257 
L 276.091803 480.595167 
L 276.752025 473.941792 
L 277.412246 480.627455 
L 278.072467 479.551937 
L 278.732688 477.156464 
L 279.39291 471.175679 
L 280.053131 468.856268 
L 282.033795 480.647873 
L 282.694016 480.627455 
L 283.354237 480.053584 
L 284.014458 481.1925 
L 284.674679 479.279302 
L 285.995122 475.923485 
L 286.655343 478.6837 
L 287.315564 476.870618 
L 287.975786 478.523167 
L 288.636007 473.363167 
L 289.296228 472.48045 
L 289.956449 474.947652 
L 290.61667 478.6837 
L 291.276892 479.757117 
L 292.597334 480.275467 
L 293.257555 478.839369 
L 293.917777 479.239059 
L 294.577998 474.872328 
L 295.238219 473.363167 
L 295.89844 474.947652 
L 296.558662 479.474018 
L 297.218883 474.786615 
L 297.879104 477.443718 
L 298.539325 474.872328 
L 299.199546 469.693833 
L 299.859768 470.376954 
L 300.519989 475.127269 
L 301.18021 477.949833 
L 301.840431 479.380251 
L 302.500653 479.325833 
L 303.160874 479.617712 
L 303.821095 479.325833 
L 304.481316 476.870618 
L 305.141537 478.061025 
L 305.801759 479.757117 
L 306.46198 480.023804 
L 307.122201 478.990391 
L 307.782422 476.917833 
L 308.442644 476.558017 
L 309.102865 479.325833 
L 309.763086 478.6837 
L 310.423307 478.990391 
L 311.74375 477.103064 
L 312.403971 473.799276 
L 313.064192 474.013639 
L 313.724413 479.172944 
L 314.384635 478.852128 
L 315.044856 477.358005 
L 315.705077 477.54213 
L 316.365298 479.757117 
L 317.02552 479.279302 
L 317.685741 480.396056 
L 318.345962 480.170746 
L 319.006183 476.115167 
L 319.666404 477.54213 
L 320.326626 479.809632 
L 320.986847 479.279302 
L 321.647068 476.726722 
L 322.307289 477.7205 
L 324.948174 470.541934 
L 325.608396 474.688204 
L 326.268617 477.54213 
L 326.928838 478.852128 
L 327.589059 478.852128 
L 328.24928 479.474018 
L 328.909502 479.757117 
L 329.569723 480.51334 
L 330.229944 479.682574 
L 330.890165 477.399433 
L 331.550387 479.809632 
L 332.210608 478.357537 
L 332.870829 479.417567 
L 333.53105 478.969093 
L 334.191271 478.223664 
L 334.851493 477.045795 
L 336.171935 473.232119 
L 336.832156 476.590821 
L 337.492378 475.897494 
L 338.81282 479.015124 
L 339.473041 475.911315 
L 340.133263 478.6837 
L 340.793484 479.682574 
L 341.453705 478.357537 
L 342.113926 476.690211 
L 342.774147 478.852128 
L 343.434369 478.6837 
L 344.09459 478.852128 
L 344.754811 479.172944 
L 345.415032 478.6837 
L 346.075254 479.325833 
L 346.735475 479.474018 
L 347.395696 477.381345 
L 348.055917 479.892422 
L 348.716138 475.258989 
L 349.37636 471.834278 
L 350.036581 476.340477 
L 350.696802 477.241716 
L 351.357023 478.6837 
L 352.017245 478.509562 
L 352.677466 479.325833 
L 353.337687 476.504338 
L 353.997908 479.617712 
L 354.65813 476.504338 
L 355.318351 480.396056 
L 355.978572 479.015124 
L 356.638793 479.551937 
L 357.299014 474.509833 
L 357.959236 480.023804 
L 358.619457 478.839369 
L 359.279678 480.170746 
L 359.939899 476.504338 
L 360.600121 480.396056 
L 361.260342 480.396056 
L 361.920563 479.279302 
L 362.580784 475.3125 
L 363.241005 473.799276 
L 363.901227 475.388223 
L 364.561448 478.104876 
L 365.221669 477.998758 
L 365.88189 480.504432 
L 366.542112 479.737457 
L 367.202333 480.490141 
L 367.862554 474.509833 
L 368.522775 471.175679 
L 369.182997 477.0325 
L 369.843218 479.325833 
L 370.503439 479.617712 
L 371.16366 479.325833 
L 371.823881 478.420261 
L 372.484103 478.255611 
L 373.144324 478.990391 
L 373.804545 477.893382 
L 374.464766 477.282682 
L 375.124988 477.54213 
L 375.785209 475.095907 
L 376.44543 470.464393 
L 377.105651 468.6485 
L 377.765872 472.51922 
L 378.426094 477.54213 
L 379.086315 479.215121 
L 379.746536 479.757117 
L 380.406757 480.151433 
L 381.066979 479.474018 
L 381.7272 478.5348 
L 382.387421 474.947652 
L 383.047642 474.786615 
L 383.707864 476.529446 
L 384.368085 479.325833 
L 385.028306 479.172944 
L 385.688527 478.5348 
L 386.348748 477.7205 
L 387.00897 479.325833 
L 387.669191 478.6837 
L 388.329412 480.6101 
L 388.989633 479.279302 
L 389.649855 476.917833 
L 390.310076 478.223664 
L 390.970297 476.301292 
L 391.630518 471.491807 
L 392.290739 471.834278 
L 392.950961 473.736895 
L 393.611182 474.418965 
L 394.271403 477.54213 
L 394.931624 479.215121 
L 395.591846 478.142956 
L 396.252067 476.340477 
L 396.912288 470.882969 
L 397.572509 475.197833 
L 398.232731 472.445833 
L 399.553173 476.628873 
L 400.213394 476.590821 
L 400.873615 477.54213 
L 401.533837 477.103064 
L 402.854279 477.749688 
L 403.5145 479.617712 
L 404.174722 479.015124 
L 404.834943 476.726722 
L 405.495164 477.282682 
L 406.155385 476.726722 
L 406.815606 474.402811 
L 407.475828 474.139372 
L 408.136049 477.54213 
L 408.79627 476.768184 
L 409.456491 477.949833 
L 410.116713 477.167844 
L 410.776934 477.949833 
L 411.437155 473.900914 
L 412.097376 478.852128 
L 412.757598 474.156116 
L 413.417819 474.509833 
L 414.07804 471.511192 
L 414.738261 471.037833 
L 415.398482 473.057389 
L 416.058704 471.834278 
L 416.718925 474.440036 
L 417.379146 470.086976 
L 418.039367 473.974722 
L 418.699589 477.0325 
L 419.35981 478.867167 
L 420.020031 479.044196 
L 420.680252 478.509562 
L 422.660916 479.617712 
L 423.321137 479.172944 
L 424.64158 475.911315 
L 425.301801 467.805206 
L 425.962022 466.941833 
L 427.282465 475.86335 
L 427.942686 479.444747 
L 428.602907 477.877886 
L 429.263128 478.6837 
L 429.923349 475.672316 
L 430.583571 477.827522 
L 431.243792 476.325702 
L 431.904013 476.340477 
L 432.564234 474.947652 
L 433.224456 469.693833 
L 433.884677 476.815676 
L 434.544898 478.6837 
L 435.205119 478.852128 
L 435.86534 478.852128 
L 436.525562 480.023804 
L 437.185783 479.015124 
L 437.846004 476.726722 
L 439.166447 471.211603 
L 439.826668 477.827522 
L 440.486889 478.867167 
L 441.14711 478.509562 
L 441.807332 475.672316 
L 442.467553 478.32942 
L 443.127774 475.672316 
L 443.787995 479.015124 
L 444.448216 479.015124 
L 445.108438 475.897494 
L 445.768659 475.897494 
L 447.089101 477.282682 
L 447.749323 478.357537 
L 448.409544 474.537997 
L 449.069765 473.736895 
L 449.729986 476.357481 
L 450.390207 477.103064 
L 451.050429 471.834278 
L 451.71065 470.464393 
L 452.370871 467.942561 
L 453.031092 474.856082 
L 453.691314 477.54213 
L 454.351535 478.885154 
L 455.671977 477.827522 
L 456.332199 479.380251 
L 456.99242 476.815676 
L 457.652641 473.449708 
L 458.312862 471.834278 
L 458.973083 474.947652 
L 459.633305 465.60753 
L 460.293526 471.089775 
L 460.953747 468.910744 
L 461.613968 471.089775 
L 462.27419 469.388056 
L 462.934411 471.037833 
L 463.594632 473.655933 
L 464.254853 476.870618 
L 464.915074 478.493438 
L 465.575296 478.6837 
L 466.235517 479.474018 
L 466.895738 477.949833 
L 467.555959 476.971344 
L 468.216181 472.785586 
L 468.876402 474.688204 
L 469.536623 477.54213 
L 470.196844 478.6837 
L 470.857066 479.215121 
L 471.517287 479.172944 
L 472.177508 479.015124 
L 472.837729 475.911315 
L 473.49795 478.357537 
L 474.158172 476.971344 
L 474.818393 473.079627 
L 475.478614 474.947652 
L 476.138835 474.2805 
L 476.799057 470.086976 
L 477.459278 472.206529 
L 478.119499 473.780136 
L 478.77972 471.491807 
L 479.439941 475.639512 
L 480.100163 478.090962 
L 480.760384 476.115167 
L 481.420605 477.749688 
L 482.080826 479.69427 
L 483.401269 477.7205 
L 484.06149 477.827522 
L 484.721711 478.852128 
L 485.381933 478.509562 
L 486.042154 475.3125 
L 486.702375 477.827522 
L 487.362596 477.54213 
L 488.022817 476.325702 
L 488.683039 478.852128 
L 489.34326 476.917833 
L 490.663702 479.474018 
L 491.323924 479.325833 
L 491.984145 475.923485 
L 492.644366 479.015124 
L 493.304587 479.172944 
L 493.964809 478.852128 
L 494.62503 476.325702 
L 495.285251 479.325833 
L 495.945472 476.917833 
L 496.605693 479.474018 
L 497.926136 470.933038 
L 498.586357 471.175679 
L 499.246578 468.164944 
L 499.9068 474.748926 
L 500.567021 476.115167 
L 501.227242 479.617712 
L 502.547684 479.215121 
L 503.207906 478.6837 
L 503.868127 475.026805 
L 504.528348 478.509562 
L 505.188569 478.6837 
L 505.848791 479.617712 
L 507.169233 480.51334 
L 507.832755 479.892422 
L 508.492977 478.523167 
L 509.153198 475.700887 
L 509.813419 479.757117 
L 510.47364 480.151433 
L 511.133862 480.275467 
L 511.794083 479.325833 
L 513.774746 473.363167 
L 515.095189 478.509562 
L 515.75541 476.768184 
L 516.415631 479.757117 
L 517.075853 479.172944 
L 517.736074 478.990391 
L 518.396295 475.522428 
L 519.056516 479.892422 
L 519.716737 479.325833 
L 521.03718 476.529446 
L 521.697401 479.617712 
L 524.338286 474.2805 
L 524.998507 473.449708 
L 525.658729 474.688204 
L 526.31895 478.6837 
L 526.979171 479.843683 
L 527.639392 479.539878 
L 528.299613 477.0325 
L 528.959835 477.54213 
L 529.620056 477.827522 
L 530.280277 473.449708 
L 530.940498 474.2805 
L 531.60072 472.48045 
L 532.260941 475.197833 
L 532.921162 472.48045 
L 533.581383 474.947652 
L 534.241604 473.232119 
L 534.901826 474.139372 
L 535.562047 477.949833 
L 536.222268 479.539878 
L 536.882489 479.380251 
L 537.542711 477.443718 
L 538.202932 473.151474 
L 538.863153 471.834278 
L 539.523374 474.688204 
L 540.183596 471.135357 
L 540.843817 478.142956 
L 541.504038 478.090962 
L 542.164259 476.357481 
L 542.82448 478.009986 
L 543.484702 477.749688 
L 544.144923 477.7205 
L 544.805144 476.115167 
L 545.465365 479.015124 
L 547.446029 480.275467 
L 548.10625 480.275467 
L 548.766471 478.6837 
L 549.426693 478.828406 
L 550.086914 476.917833 
L 550.747135 480.023804 
L 551.407356 477.103064 
L 552.067578 471.834278 
L 552.727799 474.688204 
L 553.38802 476.115167 
L 554.048241 476.768184 
L 554.708463 478.32942 
L 555.368684 476.768184 
L 556.028905 477.827522 
L 556.689126 479.617712 
L 557.349347 479.757117 
L 558.009569 479.325833 
L 558.66979 476.726722 
L 559.330011 471.834278 
L 560.650454 477.443718 
L 561.310675 479.215121 
L 561.970896 478.852128 
L 562.631117 478.852128 
L 563.291338 479.892422 
L 563.95156 479.892422 
L 564.611781 477.790297 
L 565.272002 478.5348 
L 565.932223 477.103064 
L 566.592445 471.834278 
L 567.252666 475.639512 
L 567.912887 477.749688 
L 568.573108 478.295997 
L 569.23333 476.340477 
L 569.893551 478.852128 
L 570.553772 478.509562 
L 571.213993 476.917833 
L 571.874214 479.474018 
L 572.534436 473.636757 
L 573.194657 473.285427 
L 573.854878 467.990214 
L 574.515099 471.445106 
L 575.175321 474.117419 
L 575.835542 479.078859 
L 576.495763 478.493438 
L 577.155984 479.843683 
L 577.816205 478.493438 
L 578.476427 478.6837 
L 579.136648 475.522428 
L 579.796869 478.509562 
L 580.45709 472.735518 
L 581.117312 471.511192 
L 581.777533 476.340477 
L 582.437754 479.380251 
L 583.097975 479.843683 
L 583.758197 479.172944 
L 584.418418 479.617712 
L 585.078639 479.015124 
L 585.73886 476.115167 
L 586.399081 476.529446 
L 587.059303 475.439237 
L 587.719524 473.736895 
L 588.379745 473.636757 
L 589.039966 474.856082 
L 589.700188 469.973022 
L 590.360409 469.110076 
L 591.680851 477.54213 
L 592.341072 480.100822 
L 593.001294 479.215121 
L 593.661515 478.6837 
L 594.321736 476.115167 
L 594.981957 479.015124 
L 595.642179 476.325702 
L 596.3024 477.638873 
L 596.962621 475.026805 
L 597.622842 469.283961 
L 598.283064 469.973022 
L 598.943285 472.163577 
L 599.603506 477.326739 
L 600.263727 480.396056 
L 600.923948 479.044196 
L 601.58417 477.0325 
L 602.244391 474.537997 
L 602.904612 470.086976 
L 603.564833 470.376954 
L 604.225055 474.574047 
L 604.885276 477.54213 
L 605.545497 478.6837 
L 606.865939 479.015124 
L 607.526161 478.6837 
L 608.186382 477.827522 
L 608.846603 472.785586 
L 609.506824 473.736895 
L 610.167046 473.736895 
L 610.827267 474.418965 
L 611.487488 478.509562 
L 612.147709 478.867167 
L 612.807931 476.815676 
L 613.468152 472.690456 
L 614.128373 473.449708 
L 614.788594 477.749688 
L 615.448815 477.0325 
L 616.109037 477.827522 
L 616.769258 479.843683 
L 617.429479 479.757117 
L 618.0897 479.474018 
L 618.749922 477.7205 
L 619.410143 473.707167 
L 620.730585 469.843167 
L 621.390806 473.323283 
L 622.051028 478.090962 
L 622.711249 478.090962 
L 623.37147 478.867167 
L 624.031691 477.326739 
L 624.691913 477.54213 
L 626.012355 476.558017 
L 626.672576 471.544048 
L 627.332798 472.445833 
L 627.993019 471.089775 
L 628.65324 473.427167 
L 629.313461 472.9045 
L 629.973682 474.2805 
L 630.633904 477.103064 
L 631.294125 478.493438 
L 631.954346 478.509562 
L 632.614567 478.142956 
L 633.274789 475.897494 
L 633.93501 476.726722 
L 634.595231 478.6837 
L 635.255452 478.523167 
L 635.915673 479.325833 
L 637.236116 473.799276 
L 637.896337 473.848814 
L 638.556558 477.326739 
L 639.21678 477.54213 
L 639.877001 479.325833 
L 640.537222 479.757117 
L 641.197443 479.617712 
L 641.857665 477.282682 
L 642.517886 473.799276 
L 643.178107 474.688204 
L 643.838328 478.295997 
L 644.498549 476.340477 
L 645.158771 478.6837 
L 645.818992 478.6837 
L 646.479213 478.852128 
L 647.139434 479.757117 
L 647.799656 479.617712 
L 648.459877 475.258989 
L 649.120098 478.852128 
L 649.780319 476.690211 
L 650.44054 479.172944 
L 651.760983 479.172944 
L 652.421204 479.015124 
L 653.081425 474.509833 
L 653.741647 473.546633 
L 654.401868 471.511192 
L 655.062089 473.736895 
L 655.72231 478.867167 
L 656.382532 479.172944 
L 658.363195 479.617712 
L 659.023416 479.172944 
L 659.683638 479.325833 
L 660.343859 472.129511 
L 661.00408 471.834278 
L 662.324523 479.69427 
L 662.984744 480.1285 
L 663.644965 479.474018 
L 664.305186 479.617712 
L 664.965407 478.509562 
L 665.625629 478.357537 
L 666.28585 472.735518 
L 666.946071 472.145615 
L 668.266514 479.539878 
L 668.926735 478.852128 
L 669.586956 478.32942 
L 670.247177 478.523167 
L 670.907399 474.537997 
L 671.56762 474.156116 
L 672.227841 473.363167 
L 672.888062 474.2805 
L 673.548283 474.418965 
L 674.208505 478.32942 
L 674.868726 475.700887 
L 675.528947 478.32942 
L 676.189168 477.827522 
L 676.84939 478.061025 
L 677.509611 479.474018 
L 678.830053 476.529446 
L 679.490274 476.325702 
L 680.150496 476.529446 
L 680.810717 479.015124 
L 681.470938 478.6837 
L 682.131159 478.990391 
L 682.791381 477.790297 
L 683.451602 477.167844 
L 684.772044 472.51922 
L 685.432266 476.115167 
L 686.092487 476.357481 
L 686.752708 475.026805 
L 687.412929 478.6837 
L 688.07315 479.892422 
L 688.733372 480.51334 
L 689.393593 478.839369 
L 690.053814 479.967967 
L 690.714035 475.911315 
L 691.374257 480.023804 
L 692.034478 479.279302 
L 692.694699 479.551937 
L 693.35492 480.284864 
L 694.015141 479.809632 
L 694.675363 478.6837 
L 695.335584 477.282682 
L 695.995805 478.6837 
L 697.976469 472.445833 
L 698.63669 471.089775 
L 699.957133 477.0325 
L 700.617354 478.867167 
L 701.277575 477.54213 
L 702.598017 478.186565 
L 703.258239 479.757117 
L 703.91846 478.523167 
L 704.578681 477.949833 
L 705.238902 478.38152 
L 705.899124 479.892422 
L 706.559345 477.456938 
L 707.219566 470.933038 
L 707.879787 475.439237 
L 708.540008 471.5285 
L 709.20023 471.175679 
L 709.860451 470.277591 
L 710.520672 474.2805 
L 711.180893 477.54213 
L 711.841115 479.380251 
L 712.501336 478.852128 
L 713.821778 479.682574 
L 714.482 479.325833 
L 715.142221 476.312746 
L 715.802442 479.933257 
L 716.462663 477.381345 
L 717.122884 473.285427 
L 718.443327 477.949833 
L 719.103548 475.439237 
L 719.763769 478.852128 
L 720.423991 479.015124 
L 721.084212 478.523167 
L 723.064875 479.279302 
L 723.725097 477.698509 
L 724.385318 472.445833 
L 725.045539 476.340477 
L 725.70576 472.48045 
L 726.365982 467.553389 
L 727.026203 471.834278 
L 727.686424 473.848814 
L 728.346645 478.6837 
L 729.006867 479.539878 
L 729.667088 478.6837 
L 730.327309 476.312746 
L 730.98753 475.700887 
L 731.647751 479.892422 
L 732.307973 479.892422 
L 732.968194 479.417567 
L 733.628415 479.417567 
L 734.288636 480.053584 
L 734.288636 480.053584 
" clip-path="url(#p2703423f60)" style="fill: none; stroke: #ac2b37; stroke-width: 1.5; stroke-linecap: square"/>
   </g>
   <g id="patch_3">
    <path d="M 95.125 501.3525 
L 95.125 57.8325 
" style="fill: none; stroke: #000000; stroke-width: 0.8; stroke-linejoin: miter; stroke-linecap: square"/>
   </g>
   <g id="patch_4">
    <path d="M 764.725 501.3525 
L 764.725 57.8325 
" style="fill: none; stroke: #000000; stroke-width: 0.8; stroke-linejoin: miter; stroke-linecap: square"/>
   </g>
   <g id="patch_5">
    <path d="M 95.125 501.3525 
L 764.725 501.3525 
" style="fill: none; stroke: #000000; stroke-width: 0.8; stroke-linejoin: miter; stroke-linecap: square"/>
   </g>
   <g id="patch_6">
    <path d="M 95.125 57.8325 
L 764.725 57.8325 
" style="fill: none; stroke: #000000; stroke-width: 0.8; stroke-linejoin: miter; stroke-linecap: square"/>
   </g>
   <g id="text_20">
    <!-- Efficiency vs Time -->
    <g transform="translate(343.418125 51.8325) scale(0.24 -0.24)">
     <defs>
      <path id="AptosDisplay-76" d="M 1103 0 
L -13 3044 
L 538 3044 
L 1391 513 
L 2250 3044 
L 2781 3044 
L 1678 0 
L 1103 0 
z
" transform="scale(0.015625)"/>
      <path id="AptosDisplay-73" d="M 1506 -41 
Q 1247 -41 1017 14 
Q 788 69 613 191 
Q 438 313 339 506 
Q 241 700 241 978 
L 744 978 
Q 744 628 966 487 
Q 1188 347 1519 347 
Q 1816 347 2008 458 
Q 2200 569 2200 822 
Q 2200 1047 2026 1153 
Q 1853 1259 1413 1369 
Q 1056 1453 815 1564 
Q 575 1675 453 1845 
Q 331 2016 331 2275 
Q 331 2475 417 2626 
Q 503 2778 658 2879 
Q 813 2981 1020 3032 
Q 1228 3084 1472 3084 
Q 1713 3084 1923 3028 
Q 2134 2972 2296 2855 
Q 2459 2738 2551 2552 
Q 2644 2366 2644 2109 
L 2138 2109 
Q 2138 2425 1945 2558 
Q 1753 2691 1472 2691 
Q 1191 2691 1016 2594 
Q 841 2497 841 2291 
Q 841 2169 919 2084 
Q 997 2000 1181 1933 
Q 1366 1866 1675 1791 
Q 2019 1709 2248 1596 
Q 2478 1484 2595 1306 
Q 2713 1128 2713 847 
Q 2713 616 2622 447 
Q 2531 278 2367 170 
Q 2203 63 1983 11 
Q 1763 -41 1506 -41 
z
" transform="scale(0.015625)"/>
     </defs>
     <use xlink:href="#AptosDisplay-45"/>
     <use xlink:href="#AptosDisplay-66" x="54.052734"/>
     <use xlink:href="#AptosDisplay-66" x="82.373047"/>
     <use xlink:href="#AptosDisplay-69" x="110.693359"/>
     <use xlink:href="#AptosDisplay-63" x="131.738281"/>
     <use xlink:href="#AptosDisplay-69" x="181.005859"/>
     <use xlink:href="#AptosDisplay-65" x="202.050781"/>
     <use xlink:href="#AptosDisplay-6e" x="251.464844"/>
     <use xlink:href="#AptosDisplay-63" x="302.050781"/>
     <use xlink:href="#AptosDisplay-79" x="351.318359"/>
     <use xlink:href="#AptosDisplay-20" x="394.580078"/>
     <use xlink:href="#AptosDisplay-76" x="413.867188"/>
     <use xlink:href="#AptosDisplay-73" x="457.128906"/>
     <use xlink:href="#AptosDisplay-20" x="503.417969"/>
     <use xlink:href="#AptosDisplay-54" x="522.705078"/>
     <use xlink:href="#AptosDisplay-69" x="570.410156"/>
     <use xlink:href="#AptosDisplay-6d" x="591.455078"/>
     <use xlink:href="#AptosDisplay-65" x="671.435547"/>
    </g>
   </g>
  </g>
 </g>
 <defs>
  <clipPath id="p2703423f60">
   <rect x="95.125" y="57.8325" width="669.6" height="443.52"/>
  </clipPath>
 </defs>
</svg>
