<?xml version="1.0" encoding="utf-8" standalone="no"?>
<!DOCTYPE svg PUBLIC "-//W3C//DTD SVG 1.1//EN"
  "http://www.w3.org/Graphics/SVG/1.1/DTD/svg11.dtd">
<svg xmlns:xlink="http://www.w3.org/1999/xlink" width="800.725pt" height="581.830625pt" viewBox="0 0 800.725 581.830625" xmlns="http://www.w3.org/2000/svg" version="1.1">
 <metadata>
  <rdf:RDF xmlns:dc="http://purl.org/dc/elements/1.1/" xmlns:cc="http://creativecommons.org/ns#" xmlns:rdf="http://www.w3.org/1999/02/22-rdf-syntax-ns#">
   <cc:Work>
    <dc:type rdf:resource="http://purl.org/dc/dcmitype/StillImage"/>
    <dc:date>2025-04-03T01:48:03.533587</dc:date>
    <dc:format>image/svg+xml</dc:format>
    <dc:creator>
     <cc:Agent>
      <dc:title>Matplotlib v3.8.2, https://matplotlib.org/</dc:title>
     </cc:Agent>
    </dc:creator>
   </cc:Work>
  </rdf:RDF>
 </metadata>
 <defs>
  <style type="text/css">*{stroke-linejoin: round; stroke-linecap: butt}</style>
 </defs>
 <g id="figure_1">
  <g id="patch_1">
   <path d="M 0 581.830625 
L 800.725 581.830625 
L 800.725 0 
L 0 0 
z
" style="fill: #ffffff"/>
  </g>
  <g id="axes_1">
   <g id="patch_2">
    <path d="M 95.125 501.3525 
L 764.725 501.3525 
L 764.725 57.8325 
L 95.125 57.8325 
z
" style="fill: #ffffff"/>
   </g>
   <g id="matplotlib.axis_1">
    <g id="xtick_1">
     <g id="line2d_1">
      <path d="M 125.203869 501.3525 
L 125.203869 57.8325 
" clip-path="url(#pd7d173bd35)" style="fill: none; stroke: #b0b0b0; stroke-opacity: 0.8; stroke-linecap: square"/>
     </g>
     <g id="line2d_2">
      <defs>
       <path id="m975590acfc" d="M 0 0 
L 0 3.5 
" style="stroke: #000000; stroke-width: 0.8"/>
      </defs>
      <g>
       <use xlink:href="#m975590acfc" x="125.203869" y="501.3525" style="stroke: #000000; stroke-width: 0.8"/>
      </g>
     </g>
     <g id="text_1">
      <!-- 0 -->
      <g transform="translate(119.974182 521.49625) scale(0.2 -0.2)">
       <defs>
        <path id="AptosDisplay-30" d="M 1672 -56 
Q 1291 -56 1028 105 
Q 766 266 605 552 
Q 444 838 372 1216 
Q 300 1594 300 2031 
Q 300 2475 372 2856 
Q 444 3238 605 3525 
Q 766 3813 1028 3973 
Q 1291 4134 1672 4134 
Q 2053 4134 2317 3975 
Q 2581 3816 2742 3527 
Q 2903 3238 2975 2858 
Q 3047 2478 3047 2038 
Q 3047 1597 2975 1217 
Q 2903 838 2742 552 
Q 2581 266 2318 105 
Q 2056 -56 1672 -56 
z
M 1672 409 
Q 1916 409 2073 550 
Q 2231 691 2322 925 
Q 2413 1159 2448 1448 
Q 2484 1738 2484 2038 
Q 2484 2338 2448 2628 
Q 2413 2919 2322 3153 
Q 2231 3388 2073 3527 
Q 1916 3666 1669 3666 
Q 1428 3666 1268 3527 
Q 1109 3388 1020 3153 
Q 931 2919 893 2628 
Q 856 2338 856 2038 
Q 856 1741 893 1450 
Q 931 1159 1020 925 
Q 1109 691 1268 550 
Q 1428 409 1672 409 
z
" transform="scale(0.015625)"/>
       </defs>
       <use xlink:href="#AptosDisplay-30"/>
      </g>
     </g>
    </g>
    <g id="xtick_2">
     <g id="line2d_3">
      <path d="M 207.197942 501.3525 
L 207.197942 57.8325 
" clip-path="url(#pd7d173bd35)" style="fill: none; stroke: #b0b0b0; stroke-opacity: 0.8; stroke-linecap: square"/>
     </g>
     <g id="line2d_4">
      <g>
       <use xlink:href="#m975590acfc" x="207.197942" y="501.3525" style="stroke: #000000; stroke-width: 0.8"/>
      </g>
     </g>
     <g id="text_2">
      <!-- 25 -->
      <g transform="translate(196.738567 521.49625) scale(0.2 -0.2)">
       <defs>
        <path id="AptosDisplay-32" d="M 247 0 
L 247 413 
L 1725 1741 
Q 2100 2081 2269 2351 
Q 2438 2622 2438 2938 
Q 2438 3256 2263 3461 
Q 2088 3666 1691 3666 
Q 1247 3666 1055 3439 
Q 863 3213 863 2869 
L 341 2869 
Q 341 3250 491 3534 
Q 641 3819 941 3975 
Q 1241 4131 1691 4131 
Q 2103 4131 2390 3986 
Q 2678 3841 2828 3578 
Q 2978 3316 2978 2959 
Q 2978 2638 2853 2375 
Q 2728 2113 2517 1883 
Q 2306 1653 2044 1425 
L 959 463 
L 3097 463 
L 3097 0 
L 247 0 
z
" transform="scale(0.015625)"/>
        <path id="AptosDisplay-35" d="M 1669 -56 
Q 1278 -56 964 83 
Q 650 222 465 483 
Q 281 744 281 1113 
L 816 1113 
Q 816 778 1055 584 
Q 1294 391 1669 391 
Q 2069 391 2291 625 
Q 2513 859 2513 1319 
Q 2513 1772 2291 1989 
Q 2069 2206 1697 2206 
Q 1409 2206 1223 2123 
Q 1038 2041 916 1894 
L 444 1894 
L 622 4078 
L 2788 4078 
L 2788 3613 
L 1041 3613 
L 931 2322 
Q 1044 2453 1251 2550 
Q 1459 2647 1775 2647 
Q 2131 2647 2420 2506 
Q 2709 2366 2881 2072 
Q 3053 1778 3053 1319 
Q 3053 863 2875 558 
Q 2697 253 2384 98 
Q 2072 -56 1669 -56 
z
" transform="scale(0.015625)"/>
       </defs>
       <use xlink:href="#AptosDisplay-32"/>
       <use xlink:href="#AptosDisplay-35" x="52.294922"/>
      </g>
     </g>
    </g>
    <g id="xtick_3">
     <g id="line2d_5">
      <path d="M 289.192014 501.3525 
L 289.192014 57.8325 
" clip-path="url(#pd7d173bd35)" style="fill: none; stroke: #b0b0b0; stroke-opacity: 0.8; stroke-linecap: square"/>
     </g>
     <g id="line2d_6">
      <g>
       <use xlink:href="#m975590acfc" x="289.192014" y="501.3525" style="stroke: #000000; stroke-width: 0.8"/>
      </g>
     </g>
     <g id="text_3">
      <!-- 50 -->
      <g transform="translate(278.732639 521.49625) scale(0.2 -0.2)">
       <use xlink:href="#AptosDisplay-35"/>
       <use xlink:href="#AptosDisplay-30" x="52.294922"/>
      </g>
     </g>
    </g>
    <g id="xtick_4">
     <g id="line2d_7">
      <path d="M 371.186086 501.3525 
L 371.186086 57.8325 
" clip-path="url(#pd7d173bd35)" style="fill: none; stroke: #b0b0b0; stroke-opacity: 0.8; stroke-linecap: square"/>
     </g>
     <g id="line2d_8">
      <g>
       <use xlink:href="#m975590acfc" x="371.186086" y="501.3525" style="stroke: #000000; stroke-width: 0.8"/>
      </g>
     </g>
     <g id="text_4">
      <!-- 75 -->
      <g transform="translate(360.726711 521.49625) scale(0.2 -0.2)">
       <defs>
        <path id="AptosDisplay-37" d="M 766 0 
L 2609 3600 
L 194 3600 
L 194 4078 
L 3141 4078 
L 3141 3622 
L 1334 0 
L 766 0 
z
" transform="scale(0.015625)"/>
       </defs>
       <use xlink:href="#AptosDisplay-37"/>
       <use xlink:href="#AptosDisplay-35" x="52.294922"/>
      </g>
     </g>
    </g>
    <g id="xtick_5">
     <g id="line2d_9">
      <path d="M 453.180159 501.3525 
L 453.180159 57.8325 
" clip-path="url(#pd7d173bd35)" style="fill: none; stroke: #b0b0b0; stroke-opacity: 0.8; stroke-linecap: square"/>
     </g>
     <g id="line2d_10">
      <g>
       <use xlink:href="#m975590acfc" x="453.180159" y="501.3525" style="stroke: #000000; stroke-width: 0.8"/>
      </g>
     </g>
     <g id="text_5">
      <!-- 100 -->
      <g transform="translate(437.491096 521.49625) scale(0.2 -0.2)">
       <defs>
        <path id="AptosDisplay-31" d="M 1659 0 
L 1659 3425 
Q 1575 3309 1420 3201 
Q 1266 3094 1052 3009 
Q 838 2925 578 2888 
L 578 3381 
Q 834 3425 1057 3540 
Q 1281 3656 1453 3806 
Q 1625 3956 1719 4094 
L 2206 4094 
L 2206 0 
L 1659 0 
z
" transform="scale(0.015625)"/>
       </defs>
       <use xlink:href="#AptosDisplay-31"/>
       <use xlink:href="#AptosDisplay-30" x="52.294922"/>
       <use xlink:href="#AptosDisplay-30" x="104.589844"/>
      </g>
     </g>
    </g>
    <g id="xtick_6">
     <g id="line2d_11">
      <path d="M 535.174231 501.3525 
L 535.174231 57.8325 
" clip-path="url(#pd7d173bd35)" style="fill: none; stroke: #b0b0b0; stroke-opacity: 0.8; stroke-linecap: square"/>
     </g>
     <g id="line2d_12">
      <g>
       <use xlink:href="#m975590acfc" x="535.174231" y="501.3525" style="stroke: #000000; stroke-width: 0.8"/>
      </g>
     </g>
     <g id="text_6">
      <!-- 125 -->
      <g transform="translate(519.485169 521.49625) scale(0.2 -0.2)">
       <use xlink:href="#AptosDisplay-31"/>
       <use xlink:href="#AptosDisplay-32" x="52.294922"/>
       <use xlink:href="#AptosDisplay-35" x="104.589844"/>
      </g>
     </g>
    </g>
    <g id="xtick_7">
     <g id="line2d_13">
      <path d="M 617.168303 501.3525 
L 617.168303 57.8325 
" clip-path="url(#pd7d173bd35)" style="fill: none; stroke: #b0b0b0; stroke-opacity: 0.8; stroke-linecap: square"/>
     </g>
     <g id="line2d_14">
      <g>
       <use xlink:href="#m975590acfc" x="617.168303" y="501.3525" style="stroke: #000000; stroke-width: 0.8"/>
      </g>
     </g>
     <g id="text_7">
      <!-- 150 -->
      <g transform="translate(601.479241 521.49625) scale(0.2 -0.2)">
       <use xlink:href="#AptosDisplay-31"/>
       <use xlink:href="#AptosDisplay-35" x="52.294922"/>
       <use xlink:href="#AptosDisplay-30" x="104.589844"/>
      </g>
     </g>
    </g>
    <g id="xtick_8">
     <g id="line2d_15">
      <path d="M 699.162376 501.3525 
L 699.162376 57.8325 
" clip-path="url(#pd7d173bd35)" style="fill: none; stroke: #b0b0b0; stroke-opacity: 0.8; stroke-linecap: square"/>
     </g>
     <g id="line2d_16">
      <g>
       <use xlink:href="#m975590acfc" x="699.162376" y="501.3525" style="stroke: #000000; stroke-width: 0.8"/>
      </g>
     </g>
     <g id="text_8">
      <!-- 175 -->
      <g transform="translate(683.473313 521.49625) scale(0.2 -0.2)">
       <use xlink:href="#AptosDisplay-31"/>
       <use xlink:href="#AptosDisplay-37" x="52.294922"/>
       <use xlink:href="#AptosDisplay-35" x="104.589844"/>
      </g>
     </g>
    </g>
    <g id="xtick_9">
     <g id="line2d_17">
      <path d="M 108.805055 501.3525 
L 108.805055 57.8325 
" clip-path="url(#pd7d173bd35)" style="fill: none; stroke-dasharray: 1.85,0.8; stroke-dashoffset: 0; stroke: #b0b0b0; stroke-opacity: 0.8; stroke-width: 0.5"/>
     </g>
     <g id="line2d_18">
      <defs>
       <path id="m383f944aa6" d="M 0 0 
L 0 2 
" style="stroke: #000000; stroke-width: 0.6"/>
      </defs>
      <g>
       <use xlink:href="#m383f944aa6" x="108.805055" y="501.3525" style="stroke: #000000; stroke-width: 0.6"/>
      </g>
     </g>
    </g>
    <g id="xtick_10">
     <g id="line2d_19">
      <path d="M 141.602684 501.3525 
L 141.602684 57.8325 
" clip-path="url(#pd7d173bd35)" style="fill: none; stroke-dasharray: 1.85,0.8; stroke-dashoffset: 0; stroke: #b0b0b0; stroke-opacity: 0.8; stroke-width: 0.5"/>
     </g>
     <g id="line2d_20">
      <g>
       <use xlink:href="#m383f944aa6" x="141.602684" y="501.3525" style="stroke: #000000; stroke-width: 0.6"/>
      </g>
     </g>
    </g>
    <g id="xtick_11">
     <g id="line2d_21">
      <path d="M 158.001498 501.3525 
L 158.001498 57.8325 
" clip-path="url(#pd7d173bd35)" style="fill: none; stroke-dasharray: 1.85,0.8; stroke-dashoffset: 0; stroke: #b0b0b0; stroke-opacity: 0.8; stroke-width: 0.5"/>
     </g>
     <g id="line2d_22">
      <g>
       <use xlink:href="#m383f944aa6" x="158.001498" y="501.3525" style="stroke: #000000; stroke-width: 0.6"/>
      </g>
     </g>
    </g>
    <g id="xtick_12">
     <g id="line2d_23">
      <path d="M 174.400313 501.3525 
L 174.400313 57.8325 
" clip-path="url(#pd7d173bd35)" style="fill: none; stroke-dasharray: 1.85,0.8; stroke-dashoffset: 0; stroke: #b0b0b0; stroke-opacity: 0.8; stroke-width: 0.5"/>
     </g>
     <g id="line2d_24">
      <g>
       <use xlink:href="#m383f944aa6" x="174.400313" y="501.3525" style="stroke: #000000; stroke-width: 0.6"/>
      </g>
     </g>
    </g>
    <g id="xtick_13">
     <g id="line2d_25">
      <path d="M 190.799127 501.3525 
L 190.799127 57.8325 
" clip-path="url(#pd7d173bd35)" style="fill: none; stroke-dasharray: 1.85,0.8; stroke-dashoffset: 0; stroke: #b0b0b0; stroke-opacity: 0.8; stroke-width: 0.5"/>
     </g>
     <g id="line2d_26">
      <g>
       <use xlink:href="#m383f944aa6" x="190.799127" y="501.3525" style="stroke: #000000; stroke-width: 0.6"/>
      </g>
     </g>
    </g>
    <g id="xtick_14">
     <g id="line2d_27">
      <path d="M 223.596756 501.3525 
L 223.596756 57.8325 
" clip-path="url(#pd7d173bd35)" style="fill: none; stroke-dasharray: 1.85,0.8; stroke-dashoffset: 0; stroke: #b0b0b0; stroke-opacity: 0.8; stroke-width: 0.5"/>
     </g>
     <g id="line2d_28">
      <g>
       <use xlink:href="#m383f944aa6" x="223.596756" y="501.3525" style="stroke: #000000; stroke-width: 0.6"/>
      </g>
     </g>
    </g>
    <g id="xtick_15">
     <g id="line2d_29">
      <path d="M 239.995571 501.3525 
L 239.995571 57.8325 
" clip-path="url(#pd7d173bd35)" style="fill: none; stroke-dasharray: 1.85,0.8; stroke-dashoffset: 0; stroke: #b0b0b0; stroke-opacity: 0.8; stroke-width: 0.5"/>
     </g>
     <g id="line2d_30">
      <g>
       <use xlink:href="#m383f944aa6" x="239.995571" y="501.3525" style="stroke: #000000; stroke-width: 0.6"/>
      </g>
     </g>
    </g>
    <g id="xtick_16">
     <g id="line2d_31">
      <path d="M 256.394385 501.3525 
L 256.394385 57.8325 
" clip-path="url(#pd7d173bd35)" style="fill: none; stroke-dasharray: 1.85,0.8; stroke-dashoffset: 0; stroke: #b0b0b0; stroke-opacity: 0.8; stroke-width: 0.5"/>
     </g>
     <g id="line2d_32">
      <g>
       <use xlink:href="#m383f944aa6" x="256.394385" y="501.3525" style="stroke: #000000; stroke-width: 0.6"/>
      </g>
     </g>
    </g>
    <g id="xtick_17">
     <g id="line2d_33">
      <path d="M 272.7932 501.3525 
L 272.7932 57.8325 
" clip-path="url(#pd7d173bd35)" style="fill: none; stroke-dasharray: 1.85,0.8; stroke-dashoffset: 0; stroke: #b0b0b0; stroke-opacity: 0.8; stroke-width: 0.5"/>
     </g>
     <g id="line2d_34">
      <g>
       <use xlink:href="#m383f944aa6" x="272.7932" y="501.3525" style="stroke: #000000; stroke-width: 0.6"/>
      </g>
     </g>
    </g>
    <g id="xtick_18">
     <g id="line2d_35">
      <path d="M 305.590829 501.3525 
L 305.590829 57.8325 
" clip-path="url(#pd7d173bd35)" style="fill: none; stroke-dasharray: 1.85,0.8; stroke-dashoffset: 0; stroke: #b0b0b0; stroke-opacity: 0.8; stroke-width: 0.5"/>
     </g>
     <g id="line2d_36">
      <g>
       <use xlink:href="#m383f944aa6" x="305.590829" y="501.3525" style="stroke: #000000; stroke-width: 0.6"/>
      </g>
     </g>
    </g>
    <g id="xtick_19">
     <g id="line2d_37">
      <path d="M 321.989643 501.3525 
L 321.989643 57.8325 
" clip-path="url(#pd7d173bd35)" style="fill: none; stroke-dasharray: 1.85,0.8; stroke-dashoffset: 0; stroke: #b0b0b0; stroke-opacity: 0.8; stroke-width: 0.5"/>
     </g>
     <g id="line2d_38">
      <g>
       <use xlink:href="#m383f944aa6" x="321.989643" y="501.3525" style="stroke: #000000; stroke-width: 0.6"/>
      </g>
     </g>
    </g>
    <g id="xtick_20">
     <g id="line2d_39">
      <path d="M 338.388458 501.3525 
L 338.388458 57.8325 
" clip-path="url(#pd7d173bd35)" style="fill: none; stroke-dasharray: 1.85,0.8; stroke-dashoffset: 0; stroke: #b0b0b0; stroke-opacity: 0.8; stroke-width: 0.5"/>
     </g>
     <g id="line2d_40">
      <g>
       <use xlink:href="#m383f944aa6" x="338.388458" y="501.3525" style="stroke: #000000; stroke-width: 0.6"/>
      </g>
     </g>
    </g>
    <g id="xtick_21">
     <g id="line2d_41">
      <path d="M 354.787272 501.3525 
L 354.787272 57.8325 
" clip-path="url(#pd7d173bd35)" style="fill: none; stroke-dasharray: 1.85,0.8; stroke-dashoffset: 0; stroke: #b0b0b0; stroke-opacity: 0.8; stroke-width: 0.5"/>
     </g>
     <g id="line2d_42">
      <g>
       <use xlink:href="#m383f944aa6" x="354.787272" y="501.3525" style="stroke: #000000; stroke-width: 0.6"/>
      </g>
     </g>
    </g>
    <g id="xtick_22">
     <g id="line2d_43">
      <path d="M 387.584901 501.3525 
L 387.584901 57.8325 
" clip-path="url(#pd7d173bd35)" style="fill: none; stroke-dasharray: 1.85,0.8; stroke-dashoffset: 0; stroke: #b0b0b0; stroke-opacity: 0.8; stroke-width: 0.5"/>
     </g>
     <g id="line2d_44">
      <g>
       <use xlink:href="#m383f944aa6" x="387.584901" y="501.3525" style="stroke: #000000; stroke-width: 0.6"/>
      </g>
     </g>
    </g>
    <g id="xtick_23">
     <g id="line2d_45">
      <path d="M 403.983715 501.3525 
L 403.983715 57.8325 
" clip-path="url(#pd7d173bd35)" style="fill: none; stroke-dasharray: 1.85,0.8; stroke-dashoffset: 0; stroke: #b0b0b0; stroke-opacity: 0.8; stroke-width: 0.5"/>
     </g>
     <g id="line2d_46">
      <g>
       <use xlink:href="#m383f944aa6" x="403.983715" y="501.3525" style="stroke: #000000; stroke-width: 0.6"/>
      </g>
     </g>
    </g>
    <g id="xtick_24">
     <g id="line2d_47">
      <path d="M 420.38253 501.3525 
L 420.38253 57.8325 
" clip-path="url(#pd7d173bd35)" style="fill: none; stroke-dasharray: 1.85,0.8; stroke-dashoffset: 0; stroke: #b0b0b0; stroke-opacity: 0.8; stroke-width: 0.5"/>
     </g>
     <g id="line2d_48">
      <g>
       <use xlink:href="#m383f944aa6" x="420.38253" y="501.3525" style="stroke: #000000; stroke-width: 0.6"/>
      </g>
     </g>
    </g>
    <g id="xtick_25">
     <g id="line2d_49">
      <path d="M 436.781344 501.3525 
L 436.781344 57.8325 
" clip-path="url(#pd7d173bd35)" style="fill: none; stroke-dasharray: 1.85,0.8; stroke-dashoffset: 0; stroke: #b0b0b0; stroke-opacity: 0.8; stroke-width: 0.5"/>
     </g>
     <g id="line2d_50">
      <g>
       <use xlink:href="#m383f944aa6" x="436.781344" y="501.3525" style="stroke: #000000; stroke-width: 0.6"/>
      </g>
     </g>
    </g>
    <g id="xtick_26">
     <g id="line2d_51">
      <path d="M 469.578973 501.3525 
L 469.578973 57.8325 
" clip-path="url(#pd7d173bd35)" style="fill: none; stroke-dasharray: 1.85,0.8; stroke-dashoffset: 0; stroke: #b0b0b0; stroke-opacity: 0.8; stroke-width: 0.5"/>
     </g>
     <g id="line2d_52">
      <g>
       <use xlink:href="#m383f944aa6" x="469.578973" y="501.3525" style="stroke: #000000; stroke-width: 0.6"/>
      </g>
     </g>
    </g>
    <g id="xtick_27">
     <g id="line2d_53">
      <path d="M 485.977788 501.3525 
L 485.977788 57.8325 
" clip-path="url(#pd7d173bd35)" style="fill: none; stroke-dasharray: 1.85,0.8; stroke-dashoffset: 0; stroke: #b0b0b0; stroke-opacity: 0.8; stroke-width: 0.5"/>
     </g>
     <g id="line2d_54">
      <g>
       <use xlink:href="#m383f944aa6" x="485.977788" y="501.3525" style="stroke: #000000; stroke-width: 0.6"/>
      </g>
     </g>
    </g>
    <g id="xtick_28">
     <g id="line2d_55">
      <path d="M 502.376602 501.3525 
L 502.376602 57.8325 
" clip-path="url(#pd7d173bd35)" style="fill: none; stroke-dasharray: 1.85,0.8; stroke-dashoffset: 0; stroke: #b0b0b0; stroke-opacity: 0.8; stroke-width: 0.5"/>
     </g>
     <g id="line2d_56">
      <g>
       <use xlink:href="#m383f944aa6" x="502.376602" y="501.3525" style="stroke: #000000; stroke-width: 0.6"/>
      </g>
     </g>
    </g>
    <g id="xtick_29">
     <g id="line2d_57">
      <path d="M 518.775417 501.3525 
L 518.775417 57.8325 
" clip-path="url(#pd7d173bd35)" style="fill: none; stroke-dasharray: 1.85,0.8; stroke-dashoffset: 0; stroke: #b0b0b0; stroke-opacity: 0.8; stroke-width: 0.5"/>
     </g>
     <g id="line2d_58">
      <g>
       <use xlink:href="#m383f944aa6" x="518.775417" y="501.3525" style="stroke: #000000; stroke-width: 0.6"/>
      </g>
     </g>
    </g>
    <g id="xtick_30">
     <g id="line2d_59">
      <path d="M 551.573046 501.3525 
L 551.573046 57.8325 
" clip-path="url(#pd7d173bd35)" style="fill: none; stroke-dasharray: 1.85,0.8; stroke-dashoffset: 0; stroke: #b0b0b0; stroke-opacity: 0.8; stroke-width: 0.5"/>
     </g>
     <g id="line2d_60">
      <g>
       <use xlink:href="#m383f944aa6" x="551.573046" y="501.3525" style="stroke: #000000; stroke-width: 0.6"/>
      </g>
     </g>
    </g>
    <g id="xtick_31">
     <g id="line2d_61">
      <path d="M 567.97186 501.3525 
L 567.97186 57.8325 
" clip-path="url(#pd7d173bd35)" style="fill: none; stroke-dasharray: 1.85,0.8; stroke-dashoffset: 0; stroke: #b0b0b0; stroke-opacity: 0.8; stroke-width: 0.5"/>
     </g>
     <g id="line2d_62">
      <g>
       <use xlink:href="#m383f944aa6" x="567.97186" y="501.3525" style="stroke: #000000; stroke-width: 0.6"/>
      </g>
     </g>
    </g>
    <g id="xtick_32">
     <g id="line2d_63">
      <path d="M 584.370675 501.3525 
L 584.370675 57.8325 
" clip-path="url(#pd7d173bd35)" style="fill: none; stroke-dasharray: 1.85,0.8; stroke-dashoffset: 0; stroke: #b0b0b0; stroke-opacity: 0.8; stroke-width: 0.5"/>
     </g>
     <g id="line2d_64">
      <g>
       <use xlink:href="#m383f944aa6" x="584.370675" y="501.3525" style="stroke: #000000; stroke-width: 0.6"/>
      </g>
     </g>
    </g>
    <g id="xtick_33">
     <g id="line2d_65">
      <path d="M 600.769489 501.3525 
L 600.769489 57.8325 
" clip-path="url(#pd7d173bd35)" style="fill: none; stroke-dasharray: 1.85,0.8; stroke-dashoffset: 0; stroke: #b0b0b0; stroke-opacity: 0.8; stroke-width: 0.5"/>
     </g>
     <g id="line2d_66">
      <g>
       <use xlink:href="#m383f944aa6" x="600.769489" y="501.3525" style="stroke: #000000; stroke-width: 0.6"/>
      </g>
     </g>
    </g>
    <g id="xtick_34">
     <g id="line2d_67">
      <path d="M 633.567118 501.3525 
L 633.567118 57.8325 
" clip-path="url(#pd7d173bd35)" style="fill: none; stroke-dasharray: 1.85,0.8; stroke-dashoffset: 0; stroke: #b0b0b0; stroke-opacity: 0.8; stroke-width: 0.5"/>
     </g>
     <g id="line2d_68">
      <g>
       <use xlink:href="#m383f944aa6" x="633.567118" y="501.3525" style="stroke: #000000; stroke-width: 0.6"/>
      </g>
     </g>
    </g>
    <g id="xtick_35">
     <g id="line2d_69">
      <path d="M 649.965932 501.3525 
L 649.965932 57.8325 
" clip-path="url(#pd7d173bd35)" style="fill: none; stroke-dasharray: 1.85,0.8; stroke-dashoffset: 0; stroke: #b0b0b0; stroke-opacity: 0.8; stroke-width: 0.5"/>
     </g>
     <g id="line2d_70">
      <g>
       <use xlink:href="#m383f944aa6" x="649.965932" y="501.3525" style="stroke: #000000; stroke-width: 0.6"/>
      </g>
     </g>
    </g>
    <g id="xtick_36">
     <g id="line2d_71">
      <path d="M 666.364747 501.3525 
L 666.364747 57.8325 
" clip-path="url(#pd7d173bd35)" style="fill: none; stroke-dasharray: 1.85,0.8; stroke-dashoffset: 0; stroke: #b0b0b0; stroke-opacity: 0.8; stroke-width: 0.5"/>
     </g>
     <g id="line2d_72">
      <g>
       <use xlink:href="#m383f944aa6" x="666.364747" y="501.3525" style="stroke: #000000; stroke-width: 0.6"/>
      </g>
     </g>
    </g>
    <g id="xtick_37">
     <g id="line2d_73">
      <path d="M 682.763561 501.3525 
L 682.763561 57.8325 
" clip-path="url(#pd7d173bd35)" style="fill: none; stroke-dasharray: 1.85,0.8; stroke-dashoffset: 0; stroke: #b0b0b0; stroke-opacity: 0.8; stroke-width: 0.5"/>
     </g>
     <g id="line2d_74">
      <g>
       <use xlink:href="#m383f944aa6" x="682.763561" y="501.3525" style="stroke: #000000; stroke-width: 0.6"/>
      </g>
     </g>
    </g>
    <g id="xtick_38">
     <g id="line2d_75">
      <path d="M 715.56119 501.3525 
L 715.56119 57.8325 
" clip-path="url(#pd7d173bd35)" style="fill: none; stroke-dasharray: 1.85,0.8; stroke-dashoffset: 0; stroke: #b0b0b0; stroke-opacity: 0.8; stroke-width: 0.5"/>
     </g>
     <g id="line2d_76">
      <g>
       <use xlink:href="#m383f944aa6" x="715.56119" y="501.3525" style="stroke: #000000; stroke-width: 0.6"/>
      </g>
     </g>
    </g>
    <g id="xtick_39">
     <g id="line2d_77">
      <path d="M 731.960005 501.3525 
L 731.960005 57.8325 
" clip-path="url(#pd7d173bd35)" style="fill: none; stroke-dasharray: 1.85,0.8; stroke-dashoffset: 0; stroke: #b0b0b0; stroke-opacity: 0.8; stroke-width: 0.5"/>
     </g>
     <g id="line2d_78">
      <g>
       <use xlink:href="#m383f944aa6" x="731.960005" y="501.3525" style="stroke: #000000; stroke-width: 0.6"/>
      </g>
     </g>
    </g>
    <g id="xtick_40">
     <g id="line2d_79">
      <path d="M 748.358819 501.3525 
L 748.358819 57.8325 
" clip-path="url(#pd7d173bd35)" style="fill: none; stroke-dasharray: 1.85,0.8; stroke-dashoffset: 0; stroke: #b0b0b0; stroke-opacity: 0.8; stroke-width: 0.5"/>
     </g>
     <g id="line2d_80">
      <g>
       <use xlink:href="#m383f944aa6" x="748.358819" y="501.3525" style="stroke: #000000; stroke-width: 0.6"/>
      </g>
     </g>
    </g>
    <g id="text_9">
     <!-- Time (S) -->
     <g transform="translate(396.834375 542.305625) scale(0.2 -0.2)">
      <defs>
       <path id="AptosDisplay-54" d="M 1244 0 
L 1244 3734 
L 50 3734 
L 50 4206 
L 2997 4206 
L 2997 3734 
L 1806 3734 
L 1806 0 
L 1244 0 
z
" transform="scale(0.015625)"/>
       <path id="AptosDisplay-69" d="M 413 0 
L 413 3044 
L 934 3044 
L 934 0 
L 413 0 
z
M 675 3616 
Q 525 3616 437 3702 
Q 350 3788 350 3919 
Q 350 4050 437 4136 
Q 525 4222 675 4222 
Q 822 4222 912 4136 
Q 1003 4050 1003 3919 
Q 1003 3788 912 3702 
Q 822 3616 675 3616 
z
" transform="scale(0.015625)"/>
       <path id="AptosDisplay-6d" d="M 413 0 
L 413 3044 
L 919 3044 
L 931 2575 
Q 1063 2756 1303 2914 
Q 1544 3072 1903 3072 
Q 2403 3072 2618 2778 
Q 2834 2484 2834 1963 
L 2834 0 
L 2316 0 
L 2316 1891 
Q 2316 2106 2275 2275 
Q 2234 2444 2120 2539 
Q 2006 2634 1788 2634 
Q 1488 2634 1277 2482 
Q 1066 2331 934 2156 
L 934 0 
L 413 0 
z
M 4206 0 
L 4206 1891 
Q 4206 2106 4164 2275 
Q 4122 2444 4009 2539 
Q 3897 2634 3681 2634 
Q 3381 2634 3165 2484 
Q 2950 2334 2822 2159 
L 2744 2544 
Q 2916 2741 3175 2906 
Q 3434 3072 3800 3072 
Q 4291 3072 4509 2778 
Q 4728 2484 4728 1963 
L 4728 0 
L 4206 0 
z
" transform="scale(0.015625)"/>
       <path id="AptosDisplay-65" d="M 1663 -56 
Q 1188 -56 878 151 
Q 569 359 417 717 
Q 266 1075 266 1522 
Q 266 1988 412 2342 
Q 559 2697 857 2897 
Q 1156 3097 1606 3097 
Q 2209 3097 2550 2722 
Q 2891 2347 2891 1644 
Q 2891 1597 2889 1533 
Q 2888 1469 2881 1441 
L 791 1441 
Q 794 1144 881 895 
Q 969 647 1161 497 
Q 1353 347 1663 347 
Q 1997 347 2183 511 
Q 2369 675 2378 984 
L 2894 984 
Q 2884 663 2732 430 
Q 2581 197 2309 70 
Q 2038 -56 1663 -56 
z
M 794 1822 
L 2375 1822 
Q 2366 2247 2166 2472 
Q 1966 2697 1606 2697 
Q 1241 2697 1036 2473 
Q 831 2250 794 1822 
z
" transform="scale(0.015625)"/>
       <path id="AptosDisplay-20" transform="scale(0.015625)"/>
       <path id="AptosDisplay-28" d="M 1219 -1116 
Q 969 -678 787 -267 
Q 606 144 511 581 
Q 416 1019 416 1528 
Q 416 2028 509 2486 
Q 603 2944 783 3378 
Q 963 3813 1219 4231 
L 1647 4231 
Q 1278 3600 1101 2886 
Q 925 2172 925 1428 
Q 925 766 1125 103 
Q 1325 -559 1647 -1116 
L 1219 -1116 
z
" transform="scale(0.015625)"/>
       <path id="AptosDisplay-53" d="M 1778 -56 
Q 1328 -56 962 81 
Q 597 219 384 512 
Q 172 806 172 1275 
L 734 1275 
Q 738 941 883 750 
Q 1028 559 1267 481 
Q 1506 403 1794 403 
Q 2063 403 2283 483 
Q 2503 563 2634 723 
Q 2766 884 2766 1134 
Q 2766 1356 2662 1497 
Q 2559 1638 2321 1742 
Q 2084 1847 1678 1950 
Q 1203 2075 897 2223 
Q 591 2372 442 2594 
Q 294 2816 294 3156 
Q 294 3516 462 3761 
Q 631 4006 945 4134 
Q 1259 4263 1697 4263 
Q 2103 4263 2440 4131 
Q 2778 4000 2979 3737 
Q 3181 3475 3181 3084 
L 2616 3084 
Q 2622 3441 2356 3623 
Q 2091 3806 1700 3806 
Q 1300 3806 1073 3645 
Q 847 3484 847 3175 
Q 847 2991 944 2867 
Q 1041 2744 1280 2644 
Q 1519 2544 1941 2434 
Q 2428 2303 2731 2153 
Q 3034 2003 3178 1768 
Q 3322 1534 3322 1153 
Q 3322 747 3117 480 
Q 2913 213 2564 78 
Q 2216 -56 1778 -56 
z
" transform="scale(0.015625)"/>
       <path id="AptosDisplay-29" d="M 234 -1116 
Q 609 -481 786 233 
Q 963 947 963 1694 
Q 963 2356 759 3015 
Q 556 3675 234 4231 
L 663 4231 
Q 919 3800 1098 3389 
Q 1278 2978 1373 2540 
Q 1469 2103 1469 1594 
Q 1469 1094 1375 634 
Q 1281 175 1100 -259 
Q 919 -694 663 -1116 
L 234 -1116 
z
" transform="scale(0.015625)"/>
      </defs>
      <use xlink:href="#AptosDisplay-54"/>
      <use xlink:href="#AptosDisplay-69" x="47.705078"/>
      <use xlink:href="#AptosDisplay-6d" x="68.75"/>
      <use xlink:href="#AptosDisplay-65" x="148.730469"/>
      <use xlink:href="#AptosDisplay-20" x="198.144531"/>
      <use xlink:href="#AptosDisplay-28" x="217.431641"/>
      <use xlink:href="#AptosDisplay-53" x="246.875"/>
      <use xlink:href="#AptosDisplay-29" x="301.464844"/>
     </g>
    </g>
   </g>
   <g id="matplotlib.axis_2">
    <g id="ytick_1">
     <g id="line2d_81">
      <path d="M 95.125 448.818777 
L 764.725 448.818777 
" clip-path="url(#pd7d173bd35)" style="fill: none; stroke: #b0b0b0; stroke-opacity: 0.8; stroke-linecap: square"/>
     </g>
     <g id="line2d_82">
      <defs>
       <path id="m7dbd7c0727" d="M 0 0 
L -3.5 0 
" style="stroke: #000000; stroke-width: 0.8"/>
      </defs>
      <g>
       <use xlink:href="#m7dbd7c0727" x="95.125" y="448.818777" style="stroke: #000000; stroke-width: 0.8"/>
      </g>
     </g>
     <g id="text_10">
      <!-- 40 -->
      <g transform="translate(67.20625 455.390652) scale(0.2 -0.2)">
       <defs>
        <path id="AptosDisplay-34" d="M 2106 0 
L 2106 825 
L 125 825 
L 125 1297 
L 2100 4103 
L 2631 4103 
L 2631 1284 
L 3191 1284 
L 3191 825 
L 2631 825 
L 2631 0 
L 2106 0 
z
M 638 1284 
L 2113 1284 
L 2113 3369 
L 638 1284 
z
" transform="scale(0.015625)"/>
       </defs>
       <use xlink:href="#AptosDisplay-34"/>
       <use xlink:href="#AptosDisplay-30" x="52.294922"/>
      </g>
     </g>
    </g>
    <g id="ytick_2">
     <g id="line2d_83">
      <path d="M 95.125 395.843595 
L 764.725 395.843595 
" clip-path="url(#pd7d173bd35)" style="fill: none; stroke: #b0b0b0; stroke-opacity: 0.8; stroke-linecap: square"/>
     </g>
     <g id="line2d_84">
      <g>
       <use xlink:href="#m7dbd7c0727" x="95.125" y="395.843595" style="stroke: #000000; stroke-width: 0.8"/>
      </g>
     </g>
     <g id="text_11">
      <!-- 60 -->
      <g transform="translate(67.20625 402.41547) scale(0.2 -0.2)">
       <defs>
        <path id="AptosDisplay-36" d="M 1759 -56 
Q 1325 -56 984 151 
Q 644 359 447 815 
Q 250 1272 250 2013 
Q 250 2738 439 3206 
Q 628 3675 968 3903 
Q 1309 4131 1759 4131 
Q 2253 4131 2595 3875 
Q 2938 3619 3034 3097 
L 2503 3097 
Q 2441 3388 2250 3534 
Q 2059 3681 1759 3681 
Q 1306 3681 1047 3279 
Q 788 2878 788 2013 
L 788 1850 
Q 788 1313 922 992 
Q 1056 672 1279 531 
Q 1503 391 1763 391 
Q 2175 391 2369 644 
Q 2563 897 2563 1272 
Q 2563 1650 2373 1869 
Q 2184 2088 1838 2088 
Q 1422 2088 1114 1897 
Q 806 1706 644 1456 
L 597 1856 
Q 728 2047 922 2201 
Q 1116 2356 1362 2447 
Q 1609 2538 1909 2538 
Q 2253 2538 2523 2395 
Q 2794 2253 2951 1975 
Q 3109 1697 3109 1291 
Q 3109 897 2951 592 
Q 2794 288 2492 116 
Q 2191 -56 1759 -56 
z
" transform="scale(0.015625)"/>
       </defs>
       <use xlink:href="#AptosDisplay-36"/>
       <use xlink:href="#AptosDisplay-30" x="52.294922"/>
      </g>
     </g>
    </g>
    <g id="ytick_3">
     <g id="line2d_85">
      <path d="M 95.125 342.868412 
L 764.725 342.868412 
" clip-path="url(#pd7d173bd35)" style="fill: none; stroke: #b0b0b0; stroke-opacity: 0.8; stroke-linecap: square"/>
     </g>
     <g id="line2d_86">
      <g>
       <use xlink:href="#m7dbd7c0727" x="95.125" y="342.868412" style="stroke: #000000; stroke-width: 0.8"/>
      </g>
     </g>
     <g id="text_12">
      <!-- 80 -->
      <g transform="translate(67.20625 349.440287) scale(0.2 -0.2)">
       <defs>
        <path id="AptosDisplay-38" d="M 1675 -56 
Q 1391 -56 1137 16 
Q 884 88 686 234 
Q 488 381 373 606 
Q 259 831 259 1141 
Q 259 1531 495 1797 
Q 731 2063 1084 2150 
Q 781 2250 604 2490 
Q 428 2731 428 3081 
Q 428 3447 609 3681 
Q 791 3916 1075 4025 
Q 1359 4134 1669 4134 
Q 1981 4134 2265 4023 
Q 2550 3913 2733 3680 
Q 2916 3447 2916 3081 
Q 2916 2725 2716 2481 
Q 2516 2238 2238 2150 
Q 2606 2063 2843 1800 
Q 3081 1538 3081 1141 
Q 3081 831 2968 606 
Q 2856 381 2661 234 
Q 2466 88 2211 16 
Q 1956 -56 1675 -56 
z
M 1672 388 
Q 1909 388 2109 470 
Q 2309 553 2429 725 
Q 2550 897 2550 1163 
Q 2550 1416 2426 1587 
Q 2303 1759 2104 1846 
Q 1906 1934 1672 1928 
Q 1453 1934 1253 1850 
Q 1053 1766 926 1594 
Q 800 1422 800 1163 
Q 800 775 1058 581 
Q 1316 388 1672 388 
z
M 1672 2363 
Q 1863 2356 2030 2434 
Q 2197 2513 2300 2667 
Q 2403 2822 2403 3050 
Q 2403 3388 2189 3544 
Q 1975 3700 1675 3700 
Q 1484 3700 1317 3631 
Q 1150 3563 1047 3419 
Q 944 3275 944 3050 
Q 944 2825 1048 2670 
Q 1153 2516 1320 2436 
Q 1488 2356 1672 2363 
z
" transform="scale(0.015625)"/>
       </defs>
       <use xlink:href="#AptosDisplay-38"/>
       <use xlink:href="#AptosDisplay-30" x="52.294922"/>
      </g>
     </g>
    </g>
    <g id="ytick_4">
     <g id="line2d_87">
      <path d="M 95.125 289.89323 
L 764.725 289.89323 
" clip-path="url(#pd7d173bd35)" style="fill: none; stroke: #b0b0b0; stroke-opacity: 0.8; stroke-linecap: square"/>
     </g>
     <g id="line2d_88">
      <g>
       <use xlink:href="#m7dbd7c0727" x="95.125" y="289.89323" style="stroke: #000000; stroke-width: 0.8"/>
      </g>
     </g>
     <g id="text_13">
      <!-- 100 -->
      <g transform="translate(56.746875 296.465105) scale(0.2 -0.2)">
       <use xlink:href="#AptosDisplay-31"/>
       <use xlink:href="#AptosDisplay-30" x="52.294922"/>
       <use xlink:href="#AptosDisplay-30" x="104.589844"/>
      </g>
     </g>
    </g>
    <g id="ytick_5">
     <g id="line2d_89">
      <path d="M 95.125 236.918047 
L 764.725 236.918047 
" clip-path="url(#pd7d173bd35)" style="fill: none; stroke: #b0b0b0; stroke-opacity: 0.8; stroke-linecap: square"/>
     </g>
     <g id="line2d_90">
      <g>
       <use xlink:href="#m7dbd7c0727" x="95.125" y="236.918047" style="stroke: #000000; stroke-width: 0.8"/>
      </g>
     </g>
     <g id="text_14">
      <!-- 120 -->
      <g transform="translate(56.746875 243.489922) scale(0.2 -0.2)">
       <use xlink:href="#AptosDisplay-31"/>
       <use xlink:href="#AptosDisplay-32" x="52.294922"/>
       <use xlink:href="#AptosDisplay-30" x="104.589844"/>
      </g>
     </g>
    </g>
    <g id="ytick_6">
     <g id="line2d_91">
      <path d="M 95.125 183.942865 
L 764.725 183.942865 
" clip-path="url(#pd7d173bd35)" style="fill: none; stroke: #b0b0b0; stroke-opacity: 0.8; stroke-linecap: square"/>
     </g>
     <g id="line2d_92">
      <g>
       <use xlink:href="#m7dbd7c0727" x="95.125" y="183.942865" style="stroke: #000000; stroke-width: 0.8"/>
      </g>
     </g>
     <g id="text_15">
      <!-- 140 -->
      <g transform="translate(56.746875 190.51474) scale(0.2 -0.2)">
       <use xlink:href="#AptosDisplay-31"/>
       <use xlink:href="#AptosDisplay-34" x="52.294922"/>
       <use xlink:href="#AptosDisplay-30" x="104.589844"/>
      </g>
     </g>
    </g>
    <g id="ytick_7">
     <g id="line2d_93">
      <path d="M 95.125 130.967682 
L 764.725 130.967682 
" clip-path="url(#pd7d173bd35)" style="fill: none; stroke: #b0b0b0; stroke-opacity: 0.8; stroke-linecap: square"/>
     </g>
     <g id="line2d_94">
      <g>
       <use xlink:href="#m7dbd7c0727" x="95.125" y="130.967682" style="stroke: #000000; stroke-width: 0.8"/>
      </g>
     </g>
     <g id="text_16">
      <!-- 160 -->
      <g transform="translate(56.746875 137.539557) scale(0.2 -0.2)">
       <use xlink:href="#AptosDisplay-31"/>
       <use xlink:href="#AptosDisplay-36" x="52.294922"/>
       <use xlink:href="#AptosDisplay-30" x="104.589844"/>
      </g>
     </g>
    </g>
    <g id="ytick_8">
     <g id="line2d_95">
      <path d="M 95.125 77.9925 
L 764.725 77.9925 
" clip-path="url(#pd7d173bd35)" style="fill: none; stroke: #b0b0b0; stroke-opacity: 0.8; stroke-linecap: square"/>
     </g>
     <g id="line2d_96">
      <g>
       <use xlink:href="#m7dbd7c0727" x="95.125" y="77.9925" style="stroke: #000000; stroke-width: 0.8"/>
      </g>
     </g>
     <g id="text_17">
      <!-- 180 -->
      <g transform="translate(56.746875 84.564375) scale(0.2 -0.2)">
       <use xlink:href="#AptosDisplay-31"/>
       <use xlink:href="#AptosDisplay-38" x="52.294922"/>
       <use xlink:href="#AptosDisplay-30" x="104.589844"/>
      </g>
     </g>
    </g>
    <g id="ytick_9">
     <g id="line2d_97">
      <path d="M 95.125 488.550164 
L 764.725 488.550164 
" clip-path="url(#pd7d173bd35)" style="fill: none; stroke-dasharray: 1.85,0.8; stroke-dashoffset: 0; stroke: #b0b0b0; stroke-opacity: 0.8; stroke-width: 0.5"/>
     </g>
     <g id="line2d_98">
      <defs>
       <path id="mbd500732ef" d="M 0 0 
L -2 0 
" style="stroke: #000000; stroke-width: 0.6"/>
      </defs>
      <g>
       <use xlink:href="#mbd500732ef" x="95.125" y="488.550164" style="stroke: #000000; stroke-width: 0.6"/>
      </g>
     </g>
    </g>
    <g id="ytick_10">
     <g id="line2d_99">
      <path d="M 95.125 475.306369 
L 764.725 475.306369 
" clip-path="url(#pd7d173bd35)" style="fill: none; stroke-dasharray: 1.85,0.8; stroke-dashoffset: 0; stroke: #b0b0b0; stroke-opacity: 0.8; stroke-width: 0.5"/>
     </g>
     <g id="line2d_100">
      <g>
       <use xlink:href="#mbd500732ef" x="95.125" y="475.306369" style="stroke: #000000; stroke-width: 0.6"/>
      </g>
     </g>
    </g>
    <g id="ytick_11">
     <g id="line2d_101">
      <path d="M 95.125 462.062573 
L 764.725 462.062573 
" clip-path="url(#pd7d173bd35)" style="fill: none; stroke-dasharray: 1.85,0.8; stroke-dashoffset: 0; stroke: #b0b0b0; stroke-opacity: 0.8; stroke-width: 0.5"/>
     </g>
     <g id="line2d_102">
      <g>
       <use xlink:href="#mbd500732ef" x="95.125" y="462.062573" style="stroke: #000000; stroke-width: 0.6"/>
      </g>
     </g>
    </g>
    <g id="ytick_12">
     <g id="line2d_103">
      <path d="M 95.125 435.574982 
L 764.725 435.574982 
" clip-path="url(#pd7d173bd35)" style="fill: none; stroke-dasharray: 1.85,0.8; stroke-dashoffset: 0; stroke: #b0b0b0; stroke-opacity: 0.8; stroke-width: 0.5"/>
     </g>
     <g id="line2d_104">
      <g>
       <use xlink:href="#mbd500732ef" x="95.125" y="435.574982" style="stroke: #000000; stroke-width: 0.6"/>
      </g>
     </g>
    </g>
    <g id="ytick_13">
     <g id="line2d_105">
      <path d="M 95.125 422.331186 
L 764.725 422.331186 
" clip-path="url(#pd7d173bd35)" style="fill: none; stroke-dasharray: 1.85,0.8; stroke-dashoffset: 0; stroke: #b0b0b0; stroke-opacity: 0.8; stroke-width: 0.5"/>
     </g>
     <g id="line2d_106">
      <g>
       <use xlink:href="#mbd500732ef" x="95.125" y="422.331186" style="stroke: #000000; stroke-width: 0.6"/>
      </g>
     </g>
    </g>
    <g id="ytick_14">
     <g id="line2d_107">
      <path d="M 95.125 409.087391 
L 764.725 409.087391 
" clip-path="url(#pd7d173bd35)" style="fill: none; stroke-dasharray: 1.85,0.8; stroke-dashoffset: 0; stroke: #b0b0b0; stroke-opacity: 0.8; stroke-width: 0.5"/>
     </g>
     <g id="line2d_108">
      <g>
       <use xlink:href="#mbd500732ef" x="95.125" y="409.087391" style="stroke: #000000; stroke-width: 0.6"/>
      </g>
     </g>
    </g>
    <g id="ytick_15">
     <g id="line2d_109">
      <path d="M 95.125 382.599799 
L 764.725 382.599799 
" clip-path="url(#pd7d173bd35)" style="fill: none; stroke-dasharray: 1.85,0.8; stroke-dashoffset: 0; stroke: #b0b0b0; stroke-opacity: 0.8; stroke-width: 0.5"/>
     </g>
     <g id="line2d_110">
      <g>
       <use xlink:href="#mbd500732ef" x="95.125" y="382.599799" style="stroke: #000000; stroke-width: 0.6"/>
      </g>
     </g>
    </g>
    <g id="ytick_16">
     <g id="line2d_111">
      <path d="M 95.125 369.356004 
L 764.725 369.356004 
" clip-path="url(#pd7d173bd35)" style="fill: none; stroke-dasharray: 1.85,0.8; stroke-dashoffset: 0; stroke: #b0b0b0; stroke-opacity: 0.8; stroke-width: 0.5"/>
     </g>
     <g id="line2d_112">
      <g>
       <use xlink:href="#mbd500732ef" x="95.125" y="369.356004" style="stroke: #000000; stroke-width: 0.6"/>
      </g>
     </g>
    </g>
    <g id="ytick_17">
     <g id="line2d_113">
      <path d="M 95.125 356.112208 
L 764.725 356.112208 
" clip-path="url(#pd7d173bd35)" style="fill: none; stroke-dasharray: 1.85,0.8; stroke-dashoffset: 0; stroke: #b0b0b0; stroke-opacity: 0.8; stroke-width: 0.5"/>
     </g>
     <g id="line2d_114">
      <g>
       <use xlink:href="#mbd500732ef" x="95.125" y="356.112208" style="stroke: #000000; stroke-width: 0.6"/>
      </g>
     </g>
    </g>
    <g id="ytick_18">
     <g id="line2d_115">
      <path d="M 95.125 329.624617 
L 764.725 329.624617 
" clip-path="url(#pd7d173bd35)" style="fill: none; stroke-dasharray: 1.85,0.8; stroke-dashoffset: 0; stroke: #b0b0b0; stroke-opacity: 0.8; stroke-width: 0.5"/>
     </g>
     <g id="line2d_116">
      <g>
       <use xlink:href="#mbd500732ef" x="95.125" y="329.624617" style="stroke: #000000; stroke-width: 0.6"/>
      </g>
     </g>
    </g>
    <g id="ytick_19">
     <g id="line2d_117">
      <path d="M 95.125 316.380821 
L 764.725 316.380821 
" clip-path="url(#pd7d173bd35)" style="fill: none; stroke-dasharray: 1.85,0.8; stroke-dashoffset: 0; stroke: #b0b0b0; stroke-opacity: 0.8; stroke-width: 0.5"/>
     </g>
     <g id="line2d_118">
      <g>
       <use xlink:href="#mbd500732ef" x="95.125" y="316.380821" style="stroke: #000000; stroke-width: 0.6"/>
      </g>
     </g>
    </g>
    <g id="ytick_20">
     <g id="line2d_119">
      <path d="M 95.125 303.137026 
L 764.725 303.137026 
" clip-path="url(#pd7d173bd35)" style="fill: none; stroke-dasharray: 1.85,0.8; stroke-dashoffset: 0; stroke: #b0b0b0; stroke-opacity: 0.8; stroke-width: 0.5"/>
     </g>
     <g id="line2d_120">
      <g>
       <use xlink:href="#mbd500732ef" x="95.125" y="303.137026" style="stroke: #000000; stroke-width: 0.6"/>
      </g>
     </g>
    </g>
    <g id="ytick_21">
     <g id="line2d_121">
      <path d="M 95.125 276.649434 
L 764.725 276.649434 
" clip-path="url(#pd7d173bd35)" style="fill: none; stroke-dasharray: 1.85,0.8; stroke-dashoffset: 0; stroke: #b0b0b0; stroke-opacity: 0.8; stroke-width: 0.5"/>
     </g>
     <g id="line2d_122">
      <g>
       <use xlink:href="#mbd500732ef" x="95.125" y="276.649434" style="stroke: #000000; stroke-width: 0.6"/>
      </g>
     </g>
    </g>
    <g id="ytick_22">
     <g id="line2d_123">
      <path d="M 95.125 263.405639 
L 764.725 263.405639 
" clip-path="url(#pd7d173bd35)" style="fill: none; stroke-dasharray: 1.85,0.8; stroke-dashoffset: 0; stroke: #b0b0b0; stroke-opacity: 0.8; stroke-width: 0.5"/>
     </g>
     <g id="line2d_124">
      <g>
       <use xlink:href="#mbd500732ef" x="95.125" y="263.405639" style="stroke: #000000; stroke-width: 0.6"/>
      </g>
     </g>
    </g>
    <g id="ytick_23">
     <g id="line2d_125">
      <path d="M 95.125 250.161843 
L 764.725 250.161843 
" clip-path="url(#pd7d173bd35)" style="fill: none; stroke-dasharray: 1.85,0.8; stroke-dashoffset: 0; stroke: #b0b0b0; stroke-opacity: 0.8; stroke-width: 0.5"/>
     </g>
     <g id="line2d_126">
      <g>
       <use xlink:href="#mbd500732ef" x="95.125" y="250.161843" style="stroke: #000000; stroke-width: 0.6"/>
      </g>
     </g>
    </g>
    <g id="ytick_24">
     <g id="line2d_127">
      <path d="M 95.125 223.674252 
L 764.725 223.674252 
" clip-path="url(#pd7d173bd35)" style="fill: none; stroke-dasharray: 1.85,0.8; stroke-dashoffset: 0; stroke: #b0b0b0; stroke-opacity: 0.8; stroke-width: 0.5"/>
     </g>
     <g id="line2d_128">
      <g>
       <use xlink:href="#mbd500732ef" x="95.125" y="223.674252" style="stroke: #000000; stroke-width: 0.6"/>
      </g>
     </g>
    </g>
    <g id="ytick_25">
     <g id="line2d_129">
      <path d="M 95.125 210.430456 
L 764.725 210.430456 
" clip-path="url(#pd7d173bd35)" style="fill: none; stroke-dasharray: 1.85,0.8; stroke-dashoffset: 0; stroke: #b0b0b0; stroke-opacity: 0.8; stroke-width: 0.5"/>
     </g>
     <g id="line2d_130">
      <g>
       <use xlink:href="#mbd500732ef" x="95.125" y="210.430456" style="stroke: #000000; stroke-width: 0.6"/>
      </g>
     </g>
    </g>
    <g id="ytick_26">
     <g id="line2d_131">
      <path d="M 95.125 197.186661 
L 764.725 197.186661 
" clip-path="url(#pd7d173bd35)" style="fill: none; stroke-dasharray: 1.85,0.8; stroke-dashoffset: 0; stroke: #b0b0b0; stroke-opacity: 0.8; stroke-width: 0.5"/>
     </g>
     <g id="line2d_132">
      <g>
       <use xlink:href="#mbd500732ef" x="95.125" y="197.186661" style="stroke: #000000; stroke-width: 0.6"/>
      </g>
     </g>
    </g>
    <g id="ytick_27">
     <g id="line2d_133">
      <path d="M 95.125 170.699069 
L 764.725 170.699069 
" clip-path="url(#pd7d173bd35)" style="fill: none; stroke-dasharray: 1.85,0.8; stroke-dashoffset: 0; stroke: #b0b0b0; stroke-opacity: 0.8; stroke-width: 0.5"/>
     </g>
     <g id="line2d_134">
      <g>
       <use xlink:href="#mbd500732ef" x="95.125" y="170.699069" style="stroke: #000000; stroke-width: 0.6"/>
      </g>
     </g>
    </g>
    <g id="ytick_28">
     <g id="line2d_135">
      <path d="M 95.125 157.455274 
L 764.725 157.455274 
" clip-path="url(#pd7d173bd35)" style="fill: none; stroke-dasharray: 1.85,0.8; stroke-dashoffset: 0; stroke: #b0b0b0; stroke-opacity: 0.8; stroke-width: 0.5"/>
     </g>
     <g id="line2d_136">
      <g>
       <use xlink:href="#mbd500732ef" x="95.125" y="157.455274" style="stroke: #000000; stroke-width: 0.6"/>
      </g>
     </g>
    </g>
    <g id="ytick_29">
     <g id="line2d_137">
      <path d="M 95.125 144.211478 
L 764.725 144.211478 
" clip-path="url(#pd7d173bd35)" style="fill: none; stroke-dasharray: 1.85,0.8; stroke-dashoffset: 0; stroke: #b0b0b0; stroke-opacity: 0.8; stroke-width: 0.5"/>
     </g>
     <g id="line2d_138">
      <g>
       <use xlink:href="#mbd500732ef" x="95.125" y="144.211478" style="stroke: #000000; stroke-width: 0.6"/>
      </g>
     </g>
    </g>
    <g id="ytick_30">
     <g id="line2d_139">
      <path d="M 95.125 117.723887 
L 764.725 117.723887 
" clip-path="url(#pd7d173bd35)" style="fill: none; stroke-dasharray: 1.85,0.8; stroke-dashoffset: 0; stroke: #b0b0b0; stroke-opacity: 0.8; stroke-width: 0.5"/>
     </g>
     <g id="line2d_140">
      <g>
       <use xlink:href="#mbd500732ef" x="95.125" y="117.723887" style="stroke: #000000; stroke-width: 0.6"/>
      </g>
     </g>
    </g>
    <g id="ytick_31">
     <g id="line2d_141">
      <path d="M 95.125 104.480091 
L 764.725 104.480091 
" clip-path="url(#pd7d173bd35)" style="fill: none; stroke-dasharray: 1.85,0.8; stroke-dashoffset: 0; stroke: #b0b0b0; stroke-opacity: 0.8; stroke-width: 0.5"/>
     </g>
     <g id="line2d_142">
      <g>
       <use xlink:href="#mbd500732ef" x="95.125" y="104.480091" style="stroke: #000000; stroke-width: 0.6"/>
      </g>
     </g>
    </g>
    <g id="ytick_32">
     <g id="line2d_143">
      <path d="M 95.125 91.236296 
L 764.725 91.236296 
" clip-path="url(#pd7d173bd35)" style="fill: none; stroke-dasharray: 1.85,0.8; stroke-dashoffset: 0; stroke: #b0b0b0; stroke-opacity: 0.8; stroke-width: 0.5"/>
     </g>
     <g id="line2d_144">
      <g>
       <use xlink:href="#mbd500732ef" x="95.125" y="91.236296" style="stroke: #000000; stroke-width: 0.6"/>
      </g>
     </g>
    </g>
    <g id="ytick_33">
     <g id="line2d_145">
      <path d="M 95.125 64.748704 
L 764.725 64.748704 
" clip-path="url(#pd7d173bd35)" style="fill: none; stroke-dasharray: 1.85,0.8; stroke-dashoffset: 0; stroke: #b0b0b0; stroke-opacity: 0.8; stroke-width: 0.5"/>
     </g>
     <g id="line2d_146">
      <g>
       <use xlink:href="#mbd500732ef" x="95.125" y="64.748704" style="stroke: #000000; stroke-width: 0.6"/>
      </g>
     </g>
    </g>
    <g id="text_18">
     <!-- Efficiency (%) -->
     <g transform="translate(49.221875 335.120625) rotate(-90) scale(0.2 -0.2)">
      <defs>
       <path id="AptosDisplay-45" d="M 472 0 
L 472 4206 
L 3153 4206 
L 3153 3738 
L 1034 3738 
L 1034 2397 
L 2984 2397 
L 2984 1934 
L 1034 1934 
L 1034 469 
L 3153 469 
L 3153 0 
L 472 0 
z
" transform="scale(0.015625)"/>
       <path id="AptosDisplay-66" d="M 550 0 
L 550 2622 
L 44 2622 
L 44 3044 
L 550 3044 
L 550 3219 
Q 550 3453 589 3636 
Q 628 3819 728 3947 
Q 828 4075 1004 4140 
Q 1181 4206 1463 4206 
L 1781 4206 
L 1781 3797 
L 1494 3797 
Q 1219 3797 1145 3645 
Q 1072 3494 1072 3209 
L 1072 3044 
L 1775 3044 
L 1775 2622 
L 1072 2622 
L 1072 0 
L 550 0 
z
" transform="scale(0.015625)"/>
       <path id="AptosDisplay-63" d="M 1634 -53 
Q 1234 -53 925 122 
Q 616 297 441 645 
Q 266 994 266 1513 
Q 266 2031 437 2384 
Q 609 2738 917 2916 
Q 1225 3094 1634 3094 
Q 1978 3094 2251 2978 
Q 2525 2863 2689 2630 
Q 2853 2397 2866 2041 
L 2350 2041 
Q 2328 2334 2139 2503 
Q 1950 2672 1644 2672 
Q 1228 2672 1015 2367 
Q 803 2063 803 1513 
Q 803 1150 897 894 
Q 991 638 1178 503 
Q 1366 369 1644 369 
Q 1956 369 2159 541 
Q 2363 713 2372 1047 
L 2884 1047 
Q 2878 681 2711 436 
Q 2544 191 2264 69 
Q 1984 -53 1634 -53 
z
" transform="scale(0.015625)"/>
       <path id="AptosDisplay-6e" d="M 413 0 
L 413 3044 
L 919 3044 
L 931 2575 
Q 1066 2756 1316 2914 
Q 1566 3072 1941 3072 
Q 2428 3072 2637 2781 
Q 2847 2491 2847 1963 
L 2847 0 
L 2328 0 
L 2328 1891 
Q 2328 2106 2286 2275 
Q 2244 2444 2133 2539 
Q 2022 2634 1816 2634 
Q 1500 2634 1283 2482 
Q 1066 2331 934 2156 
L 934 0 
L 413 0 
z
" transform="scale(0.015625)"/>
       <path id="AptosDisplay-79" d="M 266 -1128 
L 266 -697 
L 525 -697 
Q 716 -697 831 -598 
Q 947 -500 1038 -275 
L 1153 0 
L -13 3044 
L 538 3044 
L 1428 553 
L 2250 3044 
L 2781 3044 
L 1688 0 
L 1550 -356 
Q 1441 -647 1314 -815 
Q 1188 -984 1013 -1056 
Q 838 -1128 578 -1128 
L 266 -1128 
z
" transform="scale(0.015625)"/>
       <path id="AptosDisplay-25" d="M 1188 0 
L 3669 4078 
L 4094 4078 
L 1613 0 
L 1188 0 
z
M 1197 1606 
Q 878 1606 679 1765 
Q 481 1925 390 2209 
Q 300 2494 300 2872 
Q 300 3253 390 3536 
Q 481 3819 679 3976 
Q 878 4134 1197 4134 
Q 1519 4134 1716 3976 
Q 1913 3819 2005 3536 
Q 2097 3253 2097 2872 
Q 2097 2494 2005 2209 
Q 1913 1925 1714 1765 
Q 1516 1606 1197 1606 
z
M 1197 1953 
Q 1391 1953 1498 2084 
Q 1606 2216 1648 2425 
Q 1691 2634 1691 2872 
Q 1691 3109 1648 3318 
Q 1606 3528 1498 3658 
Q 1391 3788 1197 3788 
Q 1006 3788 898 3658 
Q 791 3528 748 3318 
Q 706 3109 706 2872 
Q 706 2634 748 2425 
Q 791 2216 898 2084 
Q 1006 1953 1197 1953 
z
M 4084 -53 
Q 3769 -53 3570 105 
Q 3372 263 3281 547 
Q 3191 831 3191 1209 
Q 3191 1591 3281 1873 
Q 3372 2156 3570 2314 
Q 3769 2472 4084 2472 
Q 4406 2472 4604 2315 
Q 4803 2159 4893 1875 
Q 4984 1591 4984 1209 
Q 4984 831 4893 547 
Q 4803 263 4604 105 
Q 4406 -53 4084 -53 
z
M 4084 294 
Q 4281 294 4387 423 
Q 4494 553 4536 761 
Q 4578 969 4578 1209 
Q 4578 1447 4536 1656 
Q 4494 1866 4387 1994 
Q 4281 2122 4084 2122 
Q 3894 2122 3787 1994 
Q 3681 1866 3639 1656 
Q 3597 1447 3597 1209 
Q 3597 969 3639 761 
Q 3681 553 3787 423 
Q 3894 294 4084 294 
z
" transform="scale(0.015625)"/>
      </defs>
      <use xlink:href="#AptosDisplay-45"/>
      <use xlink:href="#AptosDisplay-66" x="54.052734"/>
      <use xlink:href="#AptosDisplay-66" x="82.373047"/>
      <use xlink:href="#AptosDisplay-69" x="110.693359"/>
      <use xlink:href="#AptosDisplay-63" x="131.738281"/>
      <use xlink:href="#AptosDisplay-69" x="181.005859"/>
      <use xlink:href="#AptosDisplay-65" x="202.050781"/>
      <use xlink:href="#AptosDisplay-6e" x="251.464844"/>
      <use xlink:href="#AptosDisplay-63" x="302.050781"/>
      <use xlink:href="#AptosDisplay-79" x="351.318359"/>
      <use xlink:href="#AptosDisplay-20" x="394.580078"/>
      <use xlink:href="#AptosDisplay-28" x="413.867188"/>
      <use xlink:href="#AptosDisplay-25" x="443.310547"/>
      <use xlink:href="#AptosDisplay-29" x="525.830078"/>
     </g>
    </g>
   </g>
   <g id="line2d_147">
    <path d="M 125.561364 433.367682 
L 126.217316 393.335894 
L 126.869989 77.9925 
L 127.525942 145.41546 
L 128.181894 466.477172 
L 128.837847 481.1925 
L 129.493799 474.154734 
L 130.149752 454.704909 
L 131.461657 450.050758 
L 132.11761 444.942545 
L 132.773562 452.430722 
L 133.429515 450.050758 
L 134.085467 450.050758 
L 134.74142 452.430722 
L 135.397373 447.557464 
L 136.053325 444.942545 
L 136.709278 444.942545 
L 137.36523 450.050758 
L 138.021183 450.050758 
L 138.677135 458.450629 
L 139.333088 453.864033 
L 139.989041 444.942545 
L 140.644993 444.942545 
L 141.300946 453.864033 
L 141.956898 453.864033 
L 142.612851 444.942545 
L 143.268803 450.050758 
L 143.924756 444.942545 
L 144.580709 451.402933 
L 145.236661 451.402933 
L 145.892614 453.864033 
L 146.548566 450.050758 
L 147.204519 450.050758 
L 147.860472 442.19688 
L 148.516424 453.864033 
L 149.172377 450.050758 
L 149.828329 452.430722 
L 150.484282 456.210663 
L 151.140234 450.050758 
L 151.796187 442.19688 
L 152.45214 456.210663 
L 153.108092 451.402933 
L 153.764045 444.942545 
L 154.419997 450.050758 
L 155.07595 450.050758 
L 155.731902 451.402933 
L 156.387855 450.050758 
L 157.043808 451.402933 
L 157.69976 436.272024 
L 158.355713 447.557464 
L 159.011665 454.704909 
L 159.667618 454.704909 
L 160.323571 450.050758 
L 160.979523 456.210663 
L 161.635476 450.050758 
L 162.291428 451.402933 
L 162.947381 460.59104 
L 163.603333 447.557464 
L 164.259286 444.942545 
L 164.915239 450.050758 
L 166.227144 454.704909 
L 166.883096 447.557464 
L 167.539049 447.557464 
L 168.195001 444.942545 
L 168.850954 456.210663 
L 169.506907 452.430722 
L 170.162859 452.430722 
L 171.474764 439.310411 
L 172.130717 450.050758 
L 172.78667 451.402933 
L 173.442622 451.402933 
L 174.098575 447.557464 
L 174.754527 458.450629 
L 175.41048 444.942545 
L 176.066432 454.704909 
L 176.722385 447.557464 
L 177.378338 450.050758 
L 178.03429 447.557464 
L 178.690243 442.19688 
L 180.002148 450.050758 
L 180.6581 456.210663 
L 181.314053 450.050758 
L 182.625958 447.557464 
L 183.281911 447.557464 
L 183.937863 444.942545 
L 184.593816 453.864033 
L 185.249769 452.430722 
L 185.905721 447.557464 
L 187.217626 447.557464 
L 187.873579 452.430722 
L 188.529531 450.050758 
L 189.185484 450.050758 
L 190.497389 439.310411 
L 191.153342 453.864033 
L 191.809294 450.050758 
L 192.465247 456.210663 
L 193.121199 443.242442 
L 193.777152 447.557464 
L 194.433105 444.942545 
L 195.089057 453.864033 
L 195.74501 447.557464 
L 196.400962 444.942545 
L 197.056915 451.402933 
L 197.712868 450.050758 
L 198.36882 451.402933 
L 199.024773 451.402933 
L 199.680725 444.942545 
L 200.336678 444.942545 
L 200.99263 439.310411 
L 202.304536 450.050758 
L 202.960488 452.430722 
L 203.616441 447.557464 
L 204.272393 447.557464 
L 204.928346 451.402933 
L 205.584298 456.210663 
L 206.240251 444.942545 
L 207.552156 444.942545 
L 208.208109 448.818777 
L 208.864061 450.050758 
L 209.520014 442.19688 
L 210.175967 444.942545 
L 210.831919 453.864033 
L 211.487872 447.557464 
L 212.143824 447.557464 
L 212.799777 453.864033 
L 213.455729 439.310411 
L 214.111682 447.557464 
L 214.767635 447.557464 
L 215.423587 448.818777 
L 216.07954 442.19688 
L 216.735492 443.242442 
L 217.391445 444.942545 
L 218.047397 447.557464 
L 218.70335 444.942545 
L 219.359303 448.818777 
L 220.015255 444.942545 
L 220.671208 453.864033 
L 221.32716 456.210663 
L 221.983113 453.864033 
L 222.639066 448.818777 
L 223.295018 451.402933 
L 224.606923 439.310411 
L 225.262876 446.102101 
L 225.918828 439.310411 
L 226.574781 447.557464 
L 227.230734 448.818777 
L 227.886686 453.864033 
L 228.542639 447.557464 
L 229.198591 448.818777 
L 229.854544 447.557464 
L 230.510496 439.310411 
L 231.166449 442.19688 
L 231.822402 448.818777 
L 232.478354 447.557464 
L 233.137587 451.402933 
L 233.793539 442.19688 
L 234.446212 447.557464 
L 235.102165 447.557464 
L 235.761397 448.818777 
L 236.417349 447.557464 
L 237.073302 442.19688 
L 237.729255 442.19688 
L 238.385207 436.272024 
L 239.04116 436.272024 
L 239.697112 450.050758 
L 240.353065 446.102101 
L 241.009017 444.942545 
L 241.66497 444.942545 
L 242.320923 442.19688 
L 242.976875 442.19688 
L 243.632828 447.557464 
L 244.28878 442.19688 
L 244.944733 448.818777 
L 245.600686 444.942545 
L 246.256638 436.272024 
L 246.912591 447.557464 
L 247.568543 447.557464 
L 248.224496 443.242442 
L 248.880448 453.864033 
L 249.536401 447.557464 
L 250.192354 444.942545 
L 250.848306 451.402933 
L 251.504259 451.402933 
L 252.160211 450.050758 
L 254.128069 442.19688 
L 254.784022 447.557464 
L 255.439974 439.310411 
L 256.095927 453.864033 
L 256.751879 453.864033 
L 257.407832 451.402933 
L 258.063785 442.19688 
L 258.719737 442.19688 
L 259.37569 436.272024 
L 260.031642 447.557464 
L 260.687595 447.557464 
L 261.343547 451.402933 
L 261.9995 453.864033 
L 262.655453 442.19688 
L 263.311405 444.942545 
L 263.967358 444.942545 
L 264.62331 442.19688 
L 265.279263 447.557464 
L 265.935215 444.942545 
L 266.591168 439.310411 
L 267.247121 447.557464 
L 267.903073 450.050758 
L 268.559026 447.557464 
L 269.214978 452.430722 
L 270.526884 436.272024 
L 271.182836 444.942545 
L 271.838789 448.818777 
L 272.494741 453.864033 
L 273.806646 442.19688 
L 274.462599 442.19688 
L 275.118552 444.942545 
L 276.430457 444.942545 
L 277.086409 442.19688 
L 277.742362 436.272024 
L 278.398314 453.864033 
L 279.054267 444.942545 
L 279.71022 444.942545 
L 280.366172 439.310411 
L 281.022125 451.402933 
L 281.678077 447.557464 
L 282.33403 442.19688 
L 282.989983 444.942545 
L 283.645935 448.818777 
L 284.301888 444.942545 
L 284.95784 451.402933 
L 285.613793 446.102101 
L 286.269745 451.402933 
L 286.925698 451.402933 
L 287.581651 448.818777 
L 288.237603 444.942545 
L 288.893556 447.557464 
L 289.549508 444.942545 
L 290.205461 447.557464 
L 290.861413 453.864033 
L 291.517366 447.557464 
L 292.173319 443.242442 
L 292.829271 451.402933 
L 293.485224 442.19688 
L 294.141176 442.19688 
L 294.797129 451.402933 
L 295.453082 444.942545 
L 296.109034 447.557464 
L 296.764987 439.310411 
L 297.420939 451.402933 
L 298.076892 447.557464 
L 298.732844 448.818777 
L 299.388797 447.557464 
L 300.04475 458.450629 
L 300.700702 443.242442 
L 301.356655 444.942545 
L 302.012607 442.19688 
L 302.66856 446.102101 
L 303.324512 442.19688 
L 303.980465 439.310411 
L 304.636418 447.557464 
L 305.29237 448.818777 
L 305.948323 447.557464 
L 306.604275 436.272024 
L 307.260228 439.310411 
L 307.91618 444.942545 
L 308.572133 436.272024 
L 309.228086 439.310411 
L 309.884038 446.102101 
L 310.539991 442.19688 
L 311.195943 447.557464 
L 312.507849 442.19688 
L 313.163801 452.430722 
L 313.819754 442.19688 
L 314.475706 436.272024 
L 315.131659 448.818777 
L 315.787611 450.050758 
L 316.443564 447.557464 
L 317.099517 439.310411 
L 317.755469 433.069399 
L 318.411422 439.310411 
L 319.067374 433.069399 
L 319.723327 444.942545 
L 320.379279 450.050758 
L 321.035232 444.942545 
L 323.659042 439.310411 
L 324.314995 451.402933 
L 324.970948 447.557464 
L 325.6269 446.102101 
L 326.282853 436.272024 
L 326.938805 447.557464 
L 327.594758 447.557464 
L 328.25071 451.402933 
L 329.562616 439.310411 
L 330.218568 442.19688 
L 330.874521 436.272024 
L 331.530473 439.310411 
L 332.186426 453.864033 
L 332.842378 443.242442 
L 333.498331 444.942545 
L 334.154284 453.864033 
L 334.810236 439.310411 
L 335.466189 442.19688 
L 336.122141 436.272024 
L 336.778094 436.272024 
L 337.434047 451.402933 
L 338.089999 442.19688 
L 338.745952 442.19688 
L 339.401904 444.942545 
L 340.057857 439.310411 
L 340.713809 436.272024 
L 342.025715 448.818777 
L 342.681667 442.19688 
L 343.33762 437.046515 
L 343.993572 442.19688 
L 344.649525 448.818777 
L 345.305477 439.310411 
L 345.96143 447.557464 
L 346.617383 444.942545 
L 347.273335 447.557464 
L 347.929288 439.310411 
L 348.58524 447.557464 
L 349.241193 444.942545 
L 349.897146 439.310411 
L 350.553098 444.942545 
L 351.209051 442.19688 
L 351.865003 442.19688 
L 352.520956 444.942545 
L 353.176908 439.310411 
L 353.832861 442.19688 
L 354.488814 442.19688 
L 355.144766 444.942545 
L 355.800719 442.19688 
L 356.456671 444.942545 
L 357.112624 451.402933 
L 357.768576 447.557464 
L 358.424529 453.864033 
L 359.080482 444.942545 
L 359.736434 442.19688 
L 360.392387 450.050758 
L 361.048339 436.272024 
L 361.704292 442.19688 
L 363.016197 436.272024 
L 363.67215 439.310411 
L 364.328102 444.942545 
L 364.984055 439.310411 
L 365.640007 444.942545 
L 366.951913 439.310411 
L 367.607865 447.557464 
L 368.263818 442.19688 
L 369.575723 447.557464 
L 370.231675 444.942545 
L 370.887628 444.942545 
L 371.543581 433.069399 
L 372.199533 442.19688 
L 372.855486 444.942545 
L 373.511438 450.050758 
L 374.167391 442.19688 
L 375.479296 436.272024 
L 376.135249 444.942545 
L 376.791201 439.310411 
L 377.447154 447.557464 
L 378.759059 436.272024 
L 380.070964 442.19688 
L 380.726917 442.19688 
L 381.382869 447.557464 
L 382.038822 442.19688 
L 382.694774 444.942545 
L 383.350727 439.310411 
L 384.00668 442.19688 
L 384.662632 439.310411 
L 385.974537 439.310411 
L 386.63049 436.272024 
L 387.286443 439.310411 
L 387.942395 450.050758 
L 388.598348 444.942545 
L 389.2543 444.942545 
L 389.910253 439.310411 
L 390.566205 442.19688 
L 391.222158 442.19688 
L 391.878111 439.310411 
L 392.534063 439.310411 
L 393.190016 442.19688 
L 393.845968 433.069399 
L 394.501921 439.310411 
L 395.157873 442.19688 
L 395.813826 439.310411 
L 396.469779 444.942545 
L 397.781684 439.310411 
L 398.437636 439.310411 
L 399.749542 444.942545 
L 400.405494 439.310411 
L 401.717399 439.310411 
L 402.373352 444.942545 
L 403.029304 444.942545 
L 403.685257 433.069399 
L 404.34121 439.310411 
L 404.997162 433.069399 
L 405.653115 450.050758 
L 406.309067 439.310411 
L 406.96502 433.069399 
L 407.620972 444.942545 
L 408.276925 448.818777 
L 408.932878 439.310411 
L 409.58883 436.272024 
L 410.244783 447.557464 
L 410.900735 439.310411 
L 411.556688 444.942545 
L 412.21264 444.942545 
L 413.524546 439.310411 
L 414.180498 442.19688 
L 414.836451 439.310411 
L 415.492403 433.069399 
L 416.148356 436.272024 
L 416.804309 442.19688 
L 417.460261 439.310411 
L 418.116214 444.942545 
L 418.772166 453.864033 
L 419.428119 444.942545 
L 420.084071 450.050758 
L 420.740024 433.069399 
L 421.395977 442.19688 
L 423.363834 442.19688 
L 424.019787 444.942545 
L 424.675739 439.310411 
L 425.331692 442.19688 
L 425.987645 452.430722 
L 426.643597 450.050758 
L 427.29955 436.272024 
L 427.955502 447.557464 
L 428.611455 446.102101 
L 429.267408 447.557464 
L 429.92336 439.310411 
L 430.579313 447.557464 
L 431.235265 447.557464 
L 431.891218 442.19688 
L 432.54717 442.19688 
L 433.203123 439.310411 
L 433.859076 442.19688 
L 434.515028 442.19688 
L 435.170981 439.310411 
L 435.826933 447.557464 
L 436.482886 444.942545 
L 437.138838 433.069399 
L 437.794791 446.102101 
L 438.450744 439.310411 
L 439.106696 440.228207 
L 439.762649 448.818777 
L 440.418601 443.242442 
L 441.074554 448.818777 
L 441.730507 439.310411 
L 442.386459 442.19688 
L 443.042412 446.102101 
L 443.698364 433.069399 
L 444.354317 443.242442 
L 445.010269 443.242442 
L 446.322175 437.046515 
L 446.978127 446.102101 
L 447.63408 446.102101 
L 448.945985 440.228207 
L 449.601937 446.102101 
L 450.25789 448.818777 
L 450.913843 446.102101 
L 451.569795 446.102101 
L 452.225748 436.272024 
L 452.8817 446.102101 
L 453.537653 442.19688 
L 454.193606 446.102101 
L 454.849558 446.102101 
L 455.505511 451.402933 
L 456.161463 443.242442 
L 456.817416 429.68885 
L 457.473368 451.402933 
L 458.129321 446.102101 
L 458.785274 446.102101 
L 459.441226 443.242442 
L 460.097179 453.864033 
L 460.753131 448.818777 
L 461.409084 446.102101 
L 462.065036 448.818777 
L 462.720989 448.818777 
L 463.376942 437.046515 
L 464.032894 433.069399 
L 464.688847 440.228207 
L 465.344799 448.818777 
L 466.000752 440.228207 
L 466.656705 446.102101 
L 467.312657 437.046515 
L 467.96861 448.818777 
L 468.624562 446.102101 
L 469.280515 446.102101 
L 470.59242 451.402933 
L 471.248373 446.102101 
L 471.904325 443.242442 
L 472.560278 446.102101 
L 473.21623 443.242442 
L 473.872183 443.242442 
L 474.528135 448.818777 
L 475.184088 436.272024 
L 475.840041 451.402933 
L 476.495993 436.272024 
L 477.151946 446.102101 
L 477.807898 439.310411 
L 478.463851 448.818777 
L 479.119804 436.272024 
L 479.775756 448.818777 
L 480.431709 448.818777 
L 481.087661 436.272024 
L 481.743614 443.242442 
L 482.399566 448.818777 
L 483.055519 451.402933 
L 483.711472 439.310411 
L 484.367424 448.818777 
L 485.679329 437.046515 
L 486.335282 448.818777 
L 486.991234 440.228207 
L 488.30314 440.228207 
L 488.959092 437.046515 
L 490.270997 437.046515 
L 490.92695 443.242442 
L 491.582903 440.228207 
L 492.238855 440.228207 
L 492.894808 437.046515 
L 493.55076 446.102101 
L 494.206713 443.242442 
L 494.862665 443.242442 
L 495.518618 451.402933 
L 496.174571 440.228207 
L 497.486476 446.102101 
L 498.142428 443.242442 
L 498.798381 443.242442 
L 499.454333 433.069399 
L 500.110286 443.242442 
L 500.766239 446.102101 
L 501.422191 437.046515 
L 502.078144 436.272024 
L 502.734096 444.942545 
L 503.390049 446.102101 
L 504.046002 436.272024 
L 504.701954 443.242442 
L 505.357907 440.228207 
L 506.013859 446.102101 
L 506.669812 446.102101 
L 507.325764 437.046515 
L 507.981717 446.102101 
L 508.63767 440.228207 
L 509.293622 437.046515 
L 510.605527 443.242442 
L 511.26148 440.228207 
L 511.917432 439.310411 
L 512.573385 443.242442 
L 513.229338 439.310411 
L 513.88529 440.228207 
L 515.197195 446.102101 
L 515.853148 426.115128 
L 516.5091 443.242442 
L 517.165053 437.046515 
L 517.821006 443.242442 
L 519.132911 437.046515 
L 521.756721 443.242442 
L 522.412674 433.069399 
L 523.068626 451.402933 
L 523.724579 433.069399 
L 524.380531 443.242442 
L 525.036484 440.228207 
L 525.692437 433.069399 
L 526.348389 437.046515 
L 527.004342 448.818777 
L 527.660294 437.046515 
L 528.316247 446.102101 
L 528.972199 429.68885 
L 530.940057 429.68885 
L 531.59601 430.121654 
L 532.251962 433.069399 
L 532.907915 440.228207 
L 533.563868 440.228207 
L 534.21982 437.046515 
L 534.875773 437.046515 
L 536.187678 443.242442 
L 536.84363 440.228207 
L 537.499583 448.818777 
L 538.155536 446.102101 
L 538.811488 440.228207 
L 540.123393 446.102101 
L 540.779346 446.102101 
L 541.435298 426.115128 
L 542.091251 440.228207 
L 542.747204 426.115128 
L 543.403156 448.818777 
L 544.059109 440.228207 
L 544.715061 443.242442 
L 545.371014 430.121654 
L 546.026967 440.228207 
L 546.682919 426.115128 
L 547.338872 429.68885 
L 547.994824 426.115128 
L 548.650777 430.121654 
L 549.962682 448.818777 
L 550.618635 433.683011 
L 551.274587 443.242442 
L 552.586492 437.046515 
L 553.242445 426.115128 
L 553.898397 437.046515 
L 554.55435 429.68885 
L 555.210303 433.069399 
L 555.866255 422.331186 
L 556.522208 440.228207 
L 557.17816 437.046515 
L 557.834113 426.115128 
L 558.490066 433.683011 
L 559.146018 433.683011 
L 559.801971 426.344458 
L 560.457923 433.683011 
L 561.113876 433.683011 
L 561.769828 443.242442 
L 562.425781 437.046515 
L 563.737686 443.242442 
L 564.393639 437.046515 
L 565.049591 426.344458 
L 565.705544 440.228207 
L 567.017449 433.683011 
L 568.329354 433.683011 
L 568.985307 418.317915 
L 569.641259 430.121654 
L 570.297212 418.317915 
L 571.609117 440.228207 
L 572.26507 437.046515 
L 572.921022 430.121654 
L 573.576975 433.683011 
L 574.232927 433.683011 
L 574.88888 430.121654 
L 575.544833 430.121654 
L 576.200785 433.683011 
L 577.51269 426.344458 
L 578.168643 422.331186 
L 578.824595 437.046515 
L 579.480548 440.228207 
L 580.136501 433.683011 
L 580.792453 430.121654 
L 581.448406 443.242442 
L 582.104358 430.121654 
L 583.416264 437.046515 
L 584.072216 430.121654 
L 584.728169 437.046515 
L 585.384121 429.68885 
L 586.040074 443.242442 
L 586.696026 452.430722 
L 587.351979 442.19688 
L 588.007932 429.68885 
L 588.663884 422.331186 
L 589.319837 439.310411 
L 589.975789 452.430722 
L 590.631742 438.482156 
L 591.287694 444.942545 
L 591.943647 436.272024 
L 592.5996 422.331186 
L 593.255552 430.121654 
L 593.911505 430.121654 
L 594.567457 433.683011 
L 595.22341 422.331186 
L 595.879363 443.242442 
L 596.535315 452.430722 
L 597.84722 435.574982 
L 598.503173 446.410815 
L 599.159125 448.818777 
L 600.471031 443.890853 
L 601.126983 422.331186 
L 601.782936 418.317915 
L 602.438888 436.272024 
L 603.094841 436.272024 
L 603.750793 446.410815 
L 604.406746 448.818777 
L 605.062699 448.818777 
L 605.718651 446.410815 
L 606.374604 444.942545 
L 607.030556 422.331186 
L 607.686509 439.310411 
L 608.342462 447.557464 
L 608.998414 447.557464 
L 609.654367 429.68885 
L 610.310319 433.069399 
L 610.966272 447.557464 
L 611.622224 439.310411 
L 612.278177 433.069399 
L 612.93413 442.19688 
L 613.590082 439.310411 
L 614.246035 442.19688 
L 614.901987 450.050758 
L 615.55794 436.272024 
L 616.213892 448.818777 
L 618.18175 426.115128 
L 618.837703 444.942545 
L 619.493655 439.310411 
L 620.149608 439.310411 
L 620.80556 436.272024 
L 621.461513 436.272024 
L 622.117466 433.069399 
L 622.773418 436.272024 
L 623.429371 433.069399 
L 624.085323 436.272024 
L 625.397229 436.272024 
L 626.053181 442.19688 
L 626.709134 433.069399 
L 628.021039 433.069399 
L 628.676991 438.482156 
L 629.332944 439.310411 
L 629.988897 444.942545 
L 630.644849 436.272024 
L 631.300802 442.19688 
L 631.956754 436.272024 
L 632.612707 436.272024 
L 633.268659 429.68885 
L 633.924612 442.19688 
L 634.580565 444.942545 
L 635.236517 429.68885 
L 635.89247 418.317915 
L 636.548422 426.115128 
L 637.204375 442.19688 
L 637.860328 444.942545 
L 638.51628 429.68885 
L 639.172233 433.069399 
L 640.484138 433.069399 
L 641.14009 429.68885 
L 641.796043 433.069399 
L 642.451996 433.069399 
L 643.107948 439.310411 
L 643.763901 447.557464 
L 644.419853 433.069399 
L 645.075806 438.482156 
L 645.731758 451.122046 
L 646.387711 443.890853 
L 647.043664 429.301605 
L 647.699616 441.250894 
L 649.011521 426.115128 
L 649.667474 418.317915 
L 650.323427 429.68885 
L 650.979379 429.68885 
L 652.291284 436.272024 
L 652.947237 429.68885 
L 653.603189 439.310411 
L 654.259142 418.317915 
L 654.915095 439.310411 
L 655.571047 436.272024 
L 656.227 439.310411 
L 656.882952 418.317915 
L 657.538905 433.069399 
L 658.194857 429.68885 
L 658.85081 422.331186 
L 659.506763 418.317915 
L 660.162715 426.115128 
L 660.818668 418.317915 
L 661.47462 429.68885 
L 662.130573 426.115128 
L 662.786526 426.115128 
L 663.442478 429.68885 
L 664.098431 418.317915 
L 664.754383 429.68885 
L 666.066288 429.68885 
L 666.722241 422.331186 
L 667.378194 429.68885 
L 668.034146 433.069399 
L 668.690099 426.115128 
L 669.346051 436.272024 
L 670.002004 426.115128 
L 670.657956 442.19688 
L 671.313909 433.069399 
L 671.969862 422.331186 
L 672.625814 429.68885 
L 673.937719 429.68885 
L 674.593672 447.557464 
L 675.905577 418.317915 
L 676.56153 418.317915 
L 677.217482 409.51461 
L 677.873435 429.68885 
L 678.529387 426.115128 
L 679.18534 426.115128 
L 679.841293 414.053814 
L 680.497245 429.68885 
L 681.153198 442.19688 
L 681.80915 439.310411 
L 682.465103 426.115128 
L 683.121055 409.51461 
L 683.777008 418.317915 
L 684.432961 429.68885 
L 685.088913 426.115128 
L 685.744866 414.053814 
L 686.400818 422.331186 
L 687.056771 426.115128 
L 688.368676 418.317915 
L 689.024629 414.053814 
L 689.680581 418.317915 
L 690.336534 426.115128 
L 690.992486 418.317915 
L 691.648439 422.331186 
L 692.304392 418.317915 
L 693.616297 426.115128 
L 694.272249 426.115128 
L 694.928202 414.053814 
L 695.584154 429.68885 
L 696.240107 418.317915 
L 697.552012 418.317915 
L 698.207965 414.053814 
L 698.863917 418.317915 
L 699.51987 409.51461 
L 700.175823 409.51461 
L 700.831775 418.317915 
L 701.487728 404.672792 
L 702.14368 409.51461 
L 702.799633 418.317915 
L 703.455585 422.331186 
L 704.111538 414.053814 
L 704.767491 418.317915 
L 705.423443 418.317915 
L 706.079396 422.331186 
L 707.391301 414.053814 
L 708.047253 422.331186 
L 708.703206 404.672792 
L 709.359159 414.053814 
L 710.015111 414.053814 
L 710.671064 422.331186 
L 711.327016 409.51461 
L 711.982969 422.331186 
L 712.638922 409.51461 
L 713.294874 422.331186 
L 713.950827 414.053814 
L 714.606779 409.51461 
L 715.266012 409.51461 
L 715.918684 422.331186 
L 716.574637 426.115128 
L 717.23059 414.053814 
L 719.85768 422.331186 
L 720.513632 404.672792 
L 721.169585 404.672792 
L 721.825537 414.053814 
L 722.48149 404.672792 
L 723.137443 414.053814 
L 723.793395 414.053814 
L 724.449348 418.317915 
L 725.1053 409.51461 
L 725.761253 422.331186 
L 726.417205 414.053814 
L 727.073158 409.51461 
L 727.729111 436.272024 
L 728.385063 447.557464 
L 729.041016 422.331186 
L 729.696968 456.880218 
L 730.352921 432.518721 
L 731.008873 422.331186 
L 731.664826 433.069399 
L 732.976731 418.317915 
L 733.632684 414.053814 
L 734.288636 429.68885 
L 734.288636 429.68885 
" clip-path="url(#pd7d173bd35)" style="fill: none; stroke: #ac2b37; stroke-width: 1.5; stroke-linecap: square"/>
   </g>
   <g id="patch_3">
    <path d="M 95.125 501.3525 
L 95.125 57.8325 
" style="fill: none; stroke: #000000; stroke-width: 0.8; stroke-linejoin: miter; stroke-linecap: square"/>
   </g>
   <g id="patch_4">
    <path d="M 764.725 501.3525 
L 764.725 57.8325 
" style="fill: none; stroke: #000000; stroke-width: 0.8; stroke-linejoin: miter; stroke-linecap: square"/>
   </g>
   <g id="patch_5">
    <path d="M 95.125 501.3525 
L 764.725 501.3525 
" style="fill: none; stroke: #000000; stroke-width: 0.8; stroke-linejoin: miter; stroke-linecap: square"/>
   </g>
   <g id="patch_6">
    <path d="M 95.125 57.8325 
L 764.725 57.8325 
" style="fill: none; stroke: #000000; stroke-width: 0.8; stroke-linejoin: miter; stroke-linecap: square"/>
   </g>
   <g id="text_19">
    <!-- Efficiency vs Time -->
    <g transform="translate(343.418125 51.8325) scale(0.24 -0.24)">
     <defs>
      <path id="AptosDisplay-76" d="M 1103 0 
L -13 3044 
L 538 3044 
L 1391 513 
L 2250 3044 
L 2781 3044 
L 1678 0 
L 1103 0 
z
" transform="scale(0.015625)"/>
      <path id="AptosDisplay-73" d="M 1506 -41 
Q 1247 -41 1017 14 
Q 788 69 613 191 
Q 438 313 339 506 
Q 241 700 241 978 
L 744 978 
Q 744 628 966 487 
Q 1188 347 1519 347 
Q 1816 347 2008 458 
Q 2200 569 2200 822 
Q 2200 1047 2026 1153 
Q 1853 1259 1413 1369 
Q 1056 1453 815 1564 
Q 575 1675 453 1845 
Q 331 2016 331 2275 
Q 331 2475 417 2626 
Q 503 2778 658 2879 
Q 813 2981 1020 3032 
Q 1228 3084 1472 3084 
Q 1713 3084 1923 3028 
Q 2134 2972 2296 2855 
Q 2459 2738 2551 2552 
Q 2644 2366 2644 2109 
L 2138 2109 
Q 2138 2425 1945 2558 
Q 1753 2691 1472 2691 
Q 1191 2691 1016 2594 
Q 841 2497 841 2291 
Q 841 2169 919 2084 
Q 997 2000 1181 1933 
Q 1366 1866 1675 1791 
Q 2019 1709 2248 1596 
Q 2478 1484 2595 1306 
Q 2713 1128 2713 847 
Q 2713 616 2622 447 
Q 2531 278 2367 170 
Q 2203 63 1983 11 
Q 1763 -41 1506 -41 
z
" transform="scale(0.015625)"/>
     </defs>
     <use xlink:href="#AptosDisplay-45"/>
     <use xlink:href="#AptosDisplay-66" x="54.052734"/>
     <use xlink:href="#AptosDisplay-66" x="82.373047"/>
     <use xlink:href="#AptosDisplay-69" x="110.693359"/>
     <use xlink:href="#AptosDisplay-63" x="131.738281"/>
     <use xlink:href="#AptosDisplay-69" x="181.005859"/>
     <use xlink:href="#AptosDisplay-65" x="202.050781"/>
     <use xlink:href="#AptosDisplay-6e" x="251.464844"/>
     <use xlink:href="#AptosDisplay-63" x="302.050781"/>
     <use xlink:href="#AptosDisplay-79" x="351.318359"/>
     <use xlink:href="#AptosDisplay-20" x="394.580078"/>
     <use xlink:href="#AptosDisplay-76" x="413.867188"/>
     <use xlink:href="#AptosDisplay-73" x="457.128906"/>
     <use xlink:href="#AptosDisplay-20" x="503.417969"/>
     <use xlink:href="#AptosDisplay-54" x="522.705078"/>
     <use xlink:href="#AptosDisplay-69" x="570.410156"/>
     <use xlink:href="#AptosDisplay-6d" x="591.455078"/>
     <use xlink:href="#AptosDisplay-65" x="671.435547"/>
    </g>
   </g>
  </g>
 </g>
 <defs>
  <clipPath id="pd7d173bd35">
   <rect x="95.125" y="57.8325" width="669.6" height="443.52"/>
  </clipPath>
 </defs>
</svg>
